<svg width="24" height="24" viewBox="0 0 24 24" fill="none" xmlns="http://www.w3.org/2000/svg">
<path fill-rule="evenodd" clip-rule="evenodd" d="M10.5674 0.75H16.4326C17.385 0.749994 18.1456 0.749989 18.7599 0.800176C19.3899 0.85165 19.9318 0.959634 20.4295 1.21322C21.2291 1.62068 21.8793 2.27085 22.2868 3.07054C22.5404 3.56824 22.6483 4.11012 22.6998 4.74013C22.75 5.35438 22.75 6.11496 22.75 7.06737V16.9327C22.75 17.8851 22.75 18.6456 22.6998 19.2599C22.6483 19.8899 22.5404 20.4318 22.2868 20.9295C21.8793 21.7292 21.2291 22.3793 20.4295 22.7868C19.9318 23.0404 19.3899 23.1483 18.7599 23.1998C18.1456 23.25 17.385 23.25 16.4326 23.25H10.5673C9.6149 23.25 8.85438 23.25 8.24013 23.1998C7.61012 23.1483 7.06824 23.0404 6.57054 22.7868C5.77085 22.3793 5.12068 21.7292 4.71322 20.9295C4.45963 20.4318 4.35165 19.8899 4.30018 19.2599C4.24999 18.6456 4.24999 17.885 4.25 16.9326V7.06732C4.24999 6.11491 4.24999 5.35438 4.30018 4.74013C4.35165 4.11012 4.45963 3.56824 4.71322 3.07054C5.12068 2.27085 5.77085 1.62068 6.57054 1.21322C7.06824 0.959634 7.61012 0.85165 8.24013 0.800176C8.85439 0.749989 9.61495 0.749994 10.5674 0.75ZM13.5 6.5C11.9812 6.5 10.75 7.73122 10.75 9.25C10.75 10.7688 11.9812 12 13.5 12C15.0188 12 16.25 10.7688 16.25 9.25C16.25 7.73122 15.0188 6.5 13.5 6.5ZM13.5 13.5C11.421 13.5 9.51988 14.9168 9.01579 16.8754C8.97726 17.0251 9.01013 17.1842 9.10484 17.3063C9.19954 17.4285 9.34543 17.5 9.5 17.5H17.5C17.6546 17.5 17.8005 17.4285 17.8952 17.3063C17.9899 17.1842 18.0228 17.0251 17.9842 16.8754C17.4801 14.9168 15.5789 13.5 13.5 13.5Z" fill="#000"/>
<path d="M2.75 5C2.75 4.58579 2.41421 4.25 2 4.25C1.58579 4.25 1.25 4.58579 1.25 5V7.5C1.25 7.91421 1.58579 8.25 2 8.25C2.41421 8.25 2.75 7.91421 2.75 7.5V5Z" fill="#000"/>
<path d="M2 10C2.41421 10 2.75 10.3358 2.75 10.75V13.25C2.75 13.6642 2.41421 14 2 14C1.58579 14 1.25 13.6642 1.25 13.25V10.75C1.25 10.3358 1.58579 10 2 10Z" fill="#000"/>
<path d="M2 15.75C2.41421 15.75 2.75 16.0858 2.75 16.5V19C2.75 19.4142 2.41421 19.75 2 19.75C1.58579 19.75 1.25 19.4142 1.25 19V16.5C1.25 16.0858 1.58579 15.75 2 15.75Z" fill="#000"/>
</svg>
