<svg width="24" height="24" viewBox="0 0 24 24" fill="none" xmlns="http://www.w3.org/2000/svg">
<path fill-rule="evenodd" clip-rule="evenodd" d="M7.06739 3.25H16.9326C17.8851 3.24999 18.6456 3.24999 19.2599 3.30018C19.8899 3.35165 20.4318 3.45963 20.9295 3.71322C21.7291 4.12068 22.3793 4.77085 22.7868 5.57054C23.0404 6.06824 23.1483 6.61012 23.1998 7.24013C23.25 7.85438 23.25 8.61496 23.25 9.56737V14.4327C23.25 15.3851 23.25 16.1456 23.1998 16.7599C23.1483 17.3899 23.0404 17.9318 22.7868 18.4295C22.3793 19.2291 21.7291 19.8793 20.9295 20.2868C20.4318 20.5404 19.8899 20.6483 19.2599 20.6998C18.6456 20.75 17.885 20.75 16.9326 20.75H7.0673C6.1149 20.75 5.35438 20.75 4.74013 20.6998C4.11012 20.6483 3.56824 20.5404 3.07054 20.2868C2.27085 19.8793 1.62068 19.2291 1.21322 18.4295C0.959634 17.9318 0.85165 17.3899 0.800176 16.7599C0.749989 16.1456 0.749994 15.3851 0.75 14.4326V9.56738C0.749994 8.61494 0.749989 7.85439 0.800176 7.24013C0.85165 6.61012 0.959634 6.06824 1.21322 5.57054C1.62068 4.77085 2.27085 4.12068 3.07054 3.71322C3.56824 3.45963 4.11012 3.35165 4.74013 3.30018C5.35439 3.24999 6.11495 3.24999 7.06739 3.25ZM8.45002 7.5C7.17977 7.5 6.15002 8.52975 6.15002 9.8C6.15002 11.0703 7.17977 12.1 8.45002 12.1C9.72028 12.1 10.75 11.0703 10.75 9.8C10.75 8.52975 9.72028 7.5 8.45002 7.5ZM13.5 10C13.5 9.58579 13.8358 9.25 14.25 9.25H18.75C19.1642 9.25 19.5 9.58579 19.5 10C19.5 10.4142 19.1642 10.75 18.75 10.75H14.25C13.8358 10.75 13.5 10.4142 13.5 10ZM15.75 13.25C15.3358 13.25 15 13.5858 15 14C15 14.4142 15.3358 14.75 15.75 14.75H18.75C19.1642 14.75 19.5 14.4142 19.5 14C19.5 13.5858 19.1642 13.25 18.75 13.25H15.75ZM4.76579 15.8754C5.18107 14.2619 6.74381 13.1 8.45 13.1C10.1562 13.1 11.7189 14.2619 12.1342 15.8754C12.1728 16.0251 12.1399 16.1842 12.0452 16.3064C11.9505 16.4285 11.8046 16.5 11.65 16.5H5.25C5.09543 16.5 4.94954 16.4285 4.85484 16.3064C4.76013 16.1842 4.72726 16.0251 4.76579 15.8754Z" fill="#000"/>
</svg>
