<svg width="24" height="24" viewBox="0 0 24 24" fill="none" xmlns="http://www.w3.org/2000/svg">
<path d="M2.53033 1.46967C2.23744 1.17678 1.76256 1.17678 1.46967 1.46967C1.17678 1.76256 1.17678 2.23744 1.46967 2.53033L1.81592 2.87658C1.45817 3.43072 1.25006 4.09143 1.25006 4.8C1.25006 5.3431 1.37253 5.85968 1.59207 6.32182C1.7698 6.69596 2.21719 6.85518 2.59133 6.67745C2.96548 6.49971 3.12469 6.05232 2.94696 5.67818C2.82094 5.41291 2.75006 5.11578 2.75006 4.8C2.75006 4.50854 2.81062 4.2316 2.9201 3.98076L4.83109 5.89175C3.22953 7.6285 2.25006 9.95032 2.25006 12.5C2.25006 15.0498 3.22881 17.3709 4.83111 19.1083L2.46973 21.4697C2.17684 21.7626 2.17684 22.2374 2.46973 22.5303C2.76262 22.8232 3.2375 22.8232 3.53039 22.5303L5.93014 20.1306C7.59565 21.4572 9.70527 22.25 12.0001 22.25C14.5497 22.25 16.8716 21.2705 18.6083 19.669L21.4697 22.5303C21.7626 22.8232 22.2374 22.8232 22.5303 22.5303C22.8232 22.2374 22.8232 21.7626 22.5303 21.4697L19.1442 18.0836C19.1426 18.0819 19.1411 18.0804 19.1395 18.0788L6.4213 5.3606C6.41971 5.35901 6.41812 5.35743 6.41652 5.35586L3.35521 2.29455C3.35364 2.29296 3.35207 2.29136 3.35048 2.28978C3.3489 2.28819 3.34731 2.28662 3.34571 2.28505L2.53033 1.46967Z" fill="#000"/>
<path d="M19.2001 2.75C18.8843 2.75 18.5872 2.82088 18.3219 2.9469C17.9477 3.12463 17.5004 2.96541 17.3226 2.59127C17.1449 2.21713 17.3041 1.76974 17.6782 1.59201C18.1404 1.37247 18.657 1.25 19.2001 1.25C21.1607 1.25 22.7501 2.83939 22.7501 4.8C22.7501 5.3431 22.6276 5.85969 22.4081 6.32182C22.2303 6.69596 21.7829 6.85518 21.4088 6.67744C21.0346 6.49971 20.8754 6.05232 21.0532 5.67818C21.1792 5.41291 21.2501 5.11578 21.2501 4.8C21.2501 3.66782 20.3322 2.75 19.2001 2.75Z" fill="#000"/>
<path d="M7.98639 3.61202C9.2114 3.05802 10.5708 2.75 12.0001 2.75C17.3848 2.75 21.7501 7.11522 21.7501 12.5C21.7501 13.9293 21.442 15.2887 20.888 16.5137C20.7866 16.738 20.5814 16.8983 20.3392 16.9425C20.0969 16.9866 19.8485 16.9091 19.6743 16.735L7.7651 4.82572C7.59099 4.65161 7.51343 4.40311 7.5576 4.16087C7.60176 3.91862 7.76203 3.71349 7.98639 3.61202Z" fill="#000"/>
</svg>
