<svg width="24" height="24" viewBox="0 0 24 24" fill="none" xmlns="http://www.w3.org/2000/svg">
<path fill-rule="evenodd" clip-rule="evenodd" d="M0.25 12C0.25 5.51065 5.51065 0.25 12 0.25C18.4893 0.25 23.75 5.51065 23.75 12C23.75 18.4893 18.4893 23.75 12 23.75C5.51065 23.75 0.25 18.4893 0.25 12ZM15.4697 13.5303C15.7626 13.8232 16.2374 13.8232 16.5303 13.5303C16.8232 13.2374 16.8232 12.7626 16.5303 12.4697L12.5303 8.46967C12.3897 8.32902 12.1989 8.25 12 8.25C11.8011 8.25 11.6103 8.32902 11.4697 8.46967L7.46967 12.4697C7.17678 12.7626 7.17678 13.2374 7.46967 13.5303C7.76256 13.8232 8.23744 13.8232 8.53033 13.5303L12 10.0607L15.4697 13.5303Z" fill="#000"/>
</svg>
