<svg width="24" height="24" viewBox="0 0 24 24" fill="none" xmlns="http://www.w3.org/2000/svg">
<g clip-path="url(#clip0_9002_7955)">
<path fill-rule="evenodd" clip-rule="evenodd" d="M0.25 12C0.25 5.51065 5.51065 0.25 12 0.25C18.4893 0.25 23.75 5.51065 23.75 12C23.75 18.4893 18.4893 23.75 12 23.75C5.51065 23.75 0.25 18.4893 0.25 12ZM15.4697 10.4697C15.7626 10.1768 16.2374 10.1768 16.5303 10.4697C16.8232 10.7626 16.8232 11.2374 16.5303 11.5303L12.5303 15.5303C12.3897 15.671 12.1989 15.75 12 15.75C11.8011 15.75 11.6103 15.671 11.4697 15.5303L7.46967 11.5303C7.17678 11.2374 7.17678 10.7626 7.46967 10.4697C7.76256 10.1768 8.23744 10.1768 8.53033 10.4697L12 13.9393L15.4697 10.4697Z" fill="#000"/>
</g>
<defs>
<clipPath id="clip0_9002_7955">
<rect width="24" height="24" fill="white"/>
</clipPath>
</defs>
</svg>
