<svg width="24" height="24" viewBox="0 0 24 24" fill="none" xmlns="http://www.w3.org/2000/svg">
<path fill-rule="evenodd" clip-rule="evenodd" d="M21.0042 9.7255C21.1346 9.71485 21.25 9.8156 21.25 9.94642V16.2321C21.25 17.0449 21.25 17.7006 21.2066 18.2315C21.162 18.7781 21.0676 19.2582 20.8413 19.7025C20.4817 20.4081 19.9081 20.9817 19.2025 21.3413C18.7582 21.5676 18.2781 21.662 17.7315 21.7066C17.2006 21.75 16.5449 21.75 15.7321 21.75H8.26787C7.45504 21.75 6.79943 21.75 6.26853 21.7066C5.72189 21.662 5.24175 21.5676 4.79753 21.3413C4.09192 20.9817 3.51824 20.4081 3.15872 19.7025C2.93238 19.2582 2.83802 18.7781 2.79336 18.2315C2.74998 17.7006 2.74999 17.0449 2.74999 16.2321L2.74999 9.94644C2.74999 9.8156 2.86538 9.71485 2.99578 9.7255C3.29719 9.75013 3.63893 9.75006 3.93674 9.75001H20.0633C20.3611 9.75006 20.7028 9.75013 21.0042 9.7255ZM14.75 13C14.75 13.4142 14.4142 13.75 14 13.75H9.99999C9.58578 13.75 9.24999 13.4142 9.24999 13C9.24999 12.5858 9.58578 12.25 9.99999 12.25H14C14.4142 12.25 14.75 12.5858 14.75 13Z" fill="#000"/>
<path d="M2.74999 8.17698C2.87356 8.20484 2.99679 8.22059 3.11793 8.23048C3.35723 8.25003 3.64597 8.25002 3.97223 8.25001H20.0278C20.354 8.25002 20.6428 8.25003 20.8821 8.23048C21.0032 8.22059 21.1264 8.20484 21.25 8.17698C21.2564 8.17553 21.2628 8.17407 21.2692 8.17256C21.3992 8.14192 21.5294 8.09751 21.658 8.03203C22.0343 7.84028 22.3403 7.53431 22.532 7.15799C22.5484 7.12585 22.5634 7.09361 22.5773 7.0613C22.6743 6.83507 22.7123 6.60504 22.7305 6.38208C22.7329 6.35217 22.7351 6.32149 22.7369 6.29006C22.7491 6.08576 22.75 5.84981 22.75 5.58861C22.75 5.56852 22.75 5.54828 22.75 5.52789V4.97221C22.75 4.95182 22.75 4.93158 22.75 4.91149C22.7499 4.61009 22.7488 4.34225 22.7305 4.11793C22.7279 4.08608 22.7249 4.05408 22.7213 4.02197C22.6967 3.79721 22.6466 3.56694 22.532 3.34202C22.52 3.3185 22.5076 3.29526 22.4947 3.2723C22.3129 2.94772 22.0439 2.6802 21.7183 2.50001C21.6984 2.48901 21.6783 2.47833 21.658 2.46799C21.4009 2.33702 21.1369 2.29034 20.8821 2.26953C20.6727 2.25242 20.4255 2.25029 20.1484 2.25003C20.1088 2.25 20.0687 2.25 20.0279 2.25H3.97223C3.64601 2.24999 3.3572 2.24998 3.11793 2.26953C2.86311 2.29034 2.59907 2.33702 2.34202 2.46799C1.9657 2.65974 1.65974 2.9657 1.46799 3.34202C1.33702 3.59907 1.29034 3.86311 1.26952 4.11793C1.24997 4.35721 1.24999 4.64593 1.25 4.97215V5.52782C1.24999 5.85405 1.24997 6.1428 1.26952 6.38208C1.29034 6.6369 1.33702 6.90094 1.46799 7.15799C1.6522 7.51951 1.94182 7.8161 2.29797 8.00888C2.31254 8.01676 2.32722 8.02447 2.34201 8.03201C2.47686 8.10072 2.61364 8.14623 2.74999 8.17698Z" fill="#000"/>
</svg>
