<svg width="24" height="24" viewBox="0 0 24 24" fill="none" xmlns="http://www.w3.org/2000/svg">
<path fill-rule="evenodd" clip-rule="evenodd" d="M8.367 1.25H15.633C16.7251 1.24999 17.5906 1.24999 18.2883 1.30699C19.0017 1.36527 19.6053 1.48688 20.1565 1.76772C21.0502 2.22312 21.7769 2.94978 22.2323 3.84355C22.5131 4.39472 22.6347 4.99835 22.693 5.71173C22.75 6.40935 22.75 7.27485 22.75 8.36698V15.633C22.75 16.7252 22.75 17.5906 22.693 18.2883C22.6347 19.0017 22.5131 19.6053 22.2323 20.1565C21.7769 21.0502 21.0502 21.7769 20.1565 22.2323C19.6053 22.5131 19.0017 22.6347 18.2883 22.693C17.5906 22.75 16.7252 22.75 15.633 22.75H8.36698C7.27485 22.75 6.40935 22.75 5.71173 22.693C4.99834 22.6347 4.39472 22.5131 3.84355 22.2323C2.94978 21.7769 2.22312 21.0502 1.76772 20.1565C1.48688 19.6053 1.36527 19.0017 1.30699 18.2883C1.24999 17.5906 1.24999 16.7251 1.25 15.633V8.36699C1.24999 7.27485 1.24999 6.40936 1.30699 5.71173C1.36527 4.99834 1.48688 4.39472 1.76772 3.84355C2.22312 2.94978 2.94978 2.22312 3.84355 1.76772C4.39472 1.48688 4.99834 1.36527 5.71173 1.30699C6.40936 1.24999 7.27486 1.24999 8.367 1.25ZM16.5303 12.4697C16.2374 12.1768 15.7626 12.1768 15.4697 12.4697L12.75 15.1893V7C12.75 6.58579 12.4142 6.25 12 6.25C11.5858 6.25 11.25 6.58579 11.25 7V15.1893L8.53033 12.4697C8.23744 12.1768 7.76256 12.1768 7.46967 12.4697C7.17678 12.7626 7.17678 13.2374 7.46967 13.5303L11.4697 17.5303C11.6103 17.671 11.8011 17.75 12 17.75C12.1989 17.75 12.3897 17.671 12.5303 17.5303L16.5303 13.5303C16.8232 13.2374 16.8232 12.7626 16.5303 12.4697Z" fill="#000"/>
</svg>
