<svg width="24" height="24" viewBox="0 0 24 24" fill="none" xmlns="http://www.w3.org/2000/svg">
<path d="M12.001 21C16.3539 21 19.9871 17.9087 20.8209 13.8011C20.9308 13.2598 21.4586 12.9101 21.9999 13.02C22.5411 13.1299 22.8908 13.6577 22.781 14.1989C21.7617 19.2203 17.3239 23 12.001 23C8.27889 23 4.99008 21.1516 3 18.3244L3 20C3 20.5523 2.55229 21 2 21C1.44772 21 1 20.5523 1 20L1 15.5C1 14.9477 1.44772 14.5 2 14.5H2.60717C2.62273 14.4996 2.63825 14.4996 2.65374 14.5H6.5C7.05228 14.5 7.5 14.9477 7.5 15.5C7.5 16.0523 7.05229 16.5 6.5 16.5H4.20474C5.76143 19.191 8.67089 21 12.001 21Z" fill="#000"/>
<path d="M3.17992 10.1989C4.01372 6.09132 7.6469 3 11.9999 3C15.33 3 18.2394 4.80896 19.7961 7.5L17.5004 7.5C16.9481 7.5 16.5004 7.94771 16.5004 8.5C16.5004 9.05228 16.9481 9.5 17.5004 9.5L21.3472 9.5C21.3626 9.50036 21.3781 9.50036 21.3936 9.5H22.0009C22.2661 9.5 22.5205 9.39463 22.708 9.20707C22.8955 9.01951 23.0009 8.76513 23.0009 8.49989L23.0004 3.99989C23.0003 3.44761 22.5525 2.99994 22.0003 3C21.448 3.00006 21.0003 3.44782 21.0004 4.00011L21.0005 5.67521C19.0104 2.84818 15.7218 1 11.9999 1C6.677 1 2.23917 4.77972 1.21989 9.80107C1.11002 10.3423 1.45972 10.8701 2.00097 10.98C2.54222 11.0899 3.07005 10.7402 3.17992 10.1989Z" fill="#000"/>
</svg>
