<svg width="24" height="24" viewBox="0 0 24 24" fill="none" xmlns="http://www.w3.org/2000/svg">
<path d="M12.001 20.9999C16.3539 20.9999 19.9871 17.9086 20.8209 13.8009C20.9308 13.2597 21.4586 12.91 21.9999 13.0199C22.5411 13.1297 22.8908 13.6576 22.781 14.1988C21.7617 19.2202 17.3239 22.9999 12.001 22.9999C8.27889 22.9999 4.99008 21.1515 3 18.3242L3 19.9999C3 20.5522 2.55229 20.9999 2 20.9999C1.44772 20.9999 1 20.5522 1 19.9999L1 15.4999C1 14.9476 1.44772 14.4999 2 14.4999H2.60717C2.62273 14.4995 2.63825 14.4995 2.65374 14.4999H6.5C7.05228 14.4999 7.5 14.9476 7.5 15.4999C7.5 16.0522 7.05229 16.4999 6.5 16.4999H4.20474C5.76143 19.1909 8.67089 20.9999 12.001 20.9999Z" fill="#000"/>
<path d="M3.17992 10.1988C4.01372 6.0912 7.6469 2.99988 11.9999 2.99988C15.33 2.99988 18.2394 4.80884 19.7961 7.49988L17.5004 7.49988C16.9481 7.49988 16.5004 7.94759 16.5004 8.49988C16.5004 9.05216 16.9481 9.49988 17.5004 9.49988L21.3472 9.49988C21.3626 9.50024 21.3781 9.50024 21.3936 9.49988H22.0009C22.2661 9.49988 22.5205 9.39451 22.708 9.20695C22.8955 9.01939 23.0009 8.765 23.0009 8.49977L23.0004 3.99977C23.0003 3.44748 22.5525 2.99982 22.0003 2.99988C21.448 2.99994 21.0003 3.4477 21.0004 3.99999L21.0005 5.67509C19.0104 2.84806 15.7218 0.999878 11.9999 0.999878C6.677 0.999877 2.23917 4.7796 1.21989 9.80094C1.11002 10.3422 1.45972 10.87 2.00097 10.9799C2.54222 11.0898 3.07005 10.7401 3.17992 10.1988Z" fill="#000"/>
</svg>
