<svg width="24" height="24" viewBox="0 0 24 24" fill="none" xmlns="http://www.w3.org/2000/svg">
<path d="M17.3994 4.79885C15.8953 3.66907 14.0272 3 12 3C7.02943 3 3 7.02944 3 12C3 16.9706 7.02943 21 12 21C16.0284 21 19.441 18.3527 20.5881 14.7004C20.7536 14.1734 21.3149 13.8805 21.8418 14.046C22.3688 14.2114 22.6617 14.7727 22.4962 15.2996C21.0948 19.7616 16.9269 23 12 23C5.92486 23 1 18.0751 1 12C1 5.92487 5.92486 1 12 1C14.4752 1 16.7621 1.81872 18.6006 3.19972C19.3652 3.77402 20.1674 4.58158 20.8387 5.35681C20.893 5.4195 20.9468 5.48243 21 5.54545V2.5C21 1.94772 21.4477 1.5 22 1.5C22.5523 1.5 23 1.94772 23 2.5V8C23 8.55228 22.5523 9 22 9H21.5626C21.5496 9.00026 21.5365 9.00025 21.5235 9H16.5C15.9477 9 15.5 8.55228 15.5 8C15.5 7.44771 15.9477 7 16.5 7H19.6089C19.5185 6.89028 19.4242 6.77864 19.3267 6.66596C18.7056 5.94867 18.0079 5.25587 17.3994 4.79885Z" fill="#000"/>
</svg>
