<svg width="24" height="24" viewBox="0 0 24 24" fill="none" xmlns="http://www.w3.org/2000/svg">
<g clip-path="url(#clip0_9002_7875)">
<path fill-rule="evenodd" clip-rule="evenodd" d="M0.25 12C0.25 5.51065 5.51065 0.25 12 0.25C18.4893 0.25 23.75 5.51065 23.75 12C23.75 18.4893 18.4893 23.75 12 23.75C5.51065 23.75 0.25 18.4893 0.25 12ZM7.96967 7.96967C8.11032 7.82902 8.30109 7.75 8.5 7.75H14C14.4142 7.75 14.75 8.08579 14.75 8.5C14.75 8.91421 14.4142 9.25 14 9.25H10.3107L16.0303 14.9697C16.3232 15.2626 16.3232 15.7374 16.0303 16.0303C15.7374 16.3232 15.2626 16.3232 14.9697 16.0303L9.25 10.3107V14C9.25 14.4142 8.91421 14.75 8.5 14.75C8.08579 14.75 7.75 14.4142 7.75 14V8.5C7.75 8.30109 7.82902 8.11032 7.96967 7.96967Z" fill="#000"/>
</g>
<defs>
<clipPath id="clip0_9002_7875">
<rect width="24" height="24" fill="white"/>
</clipPath>
</defs>
</svg>
