<svg width="24" height="24" viewBox="0 0 24 24" fill="none" xmlns="http://www.w3.org/2000/svg">
<path fill-rule="evenodd" clip-rule="evenodd" d="M3 12C3 7.02944 7.02944 3 12 3C16.9706 3 21 7.02944 21 12C21 13.1478 20.7923 14.0659 20.4444 14.692C20.1143 15.286 19.6708 15.6083 19.0874 15.6916C18.5107 15.774 18.0179 15.5655 17.6399 15.1623C17.2466 14.7429 17 14.1273 17 13.5V8.25C17 7.69772 16.5523 7.25 16 7.25C15.5269 7.25 15.1306 7.57847 15.0266 8.01978C14.1865 7.37991 13.1376 7 12 7C9.23858 7 7 9.23858 7 12C7 14.7614 9.23858 17 12 17C13.3646 17 14.6015 16.4534 15.5037 15.5671C15.685 15.9184 15.9124 16.244 16.1809 16.5303C16.9479 17.3484 18.0695 17.8574 19.3703 17.6715C20.6644 17.4867 21.6065 16.7182 22.1926 15.6635C22.7609 14.6408 23 13.3522 23 12C23 5.92487 18.0751 1 12 1C5.92487 1 1 5.92487 1 12C1 18.0751 5.92487 23 12 23C12.5523 23 13 22.5523 13 22C13 21.4477 12.5523 21 12 21C7.02944 21 3 16.9706 3 12ZM15 12C15 13.6569 13.6569 15 12 15C10.3431 15 9 13.6569 9 12C9 10.3431 10.3431 9 12 9C13.6569 9 15 10.3431 15 12Z" fill="#000"/>
</svg>
