<svg width="24" height="24" viewBox="0 0 24 24" fill="none" xmlns="http://www.w3.org/2000/svg">
<path fill-rule="evenodd" clip-rule="evenodd" d="M11.3711 1.25H12.6289C13.0243 1.24999 13.3653 1.24998 13.6463 1.27293C13.9428 1.29715 14.2377 1.35064 14.5215 1.49524C14.9448 1.71095 15.2891 2.05516 15.5048 2.47852C15.6494 2.76231 15.7028 3.05722 15.7271 3.35373C15.75 3.63466 15.75 3.97574 15.75 4.3711V4.38878C16.0815 4.44039 16.3837 4.51118 16.6697 4.60825C18.6568 5.28279 20.2172 6.84317 20.8918 8.8303C21.2504 9.8868 21.2502 11.1651 21.25 13.3243L21.25 18.0314C21.25 18.7048 21.25 19.2555 21.2134 19.7031C21.1756 20.1663 21.0948 20.5847 20.8957 20.9755C20.5842 21.587 20.087 22.0842 19.4754 22.3958C19.0847 22.5949 18.6663 22.6756 18.2031 22.7134C17.8716 22.7405 17.4836 22.7476 17.0311 22.7494C17.0208 22.7498 17.0104 22.75 17 22.75H7C6.98959 22.75 6.97924 22.7498 6.96893 22.7494C6.51642 22.7476 6.1284 22.7405 5.79695 22.7134C5.33369 22.6756 4.91529 22.5949 4.52455 22.3958C3.91303 22.0842 3.41584 21.587 3.10425 20.9755C2.90516 20.5847 2.82443 20.1663 2.78658 19.7031C2.75001 19.2555 2.75002 18.7048 2.75003 18.0314L2.75001 13.3244C2.74976 11.1652 2.74961 9.88681 3.10825 8.8303C3.78279 6.84317 5.34316 5.28279 7.3303 4.60825C7.61626 4.51118 7.91847 4.44039 8.25 4.38878V4.37109C8.24999 3.97573 8.24998 3.63466 8.27293 3.35373C8.29715 3.05722 8.35064 2.76231 8.49524 2.47852C8.71095 2.05516 9.05516 1.71095 9.47852 1.49524C9.76231 1.35064 10.0572 1.29715 10.3537 1.27293C10.6347 1.24998 10.9757 1.24999 11.3711 1.25ZM14.2321 3.47588C14.2476 3.66596 14.2497 3.9094 14.25 4.26813C13.6574 4.24984 12.9772 4.24992 12.1756 4.25001H11.8244C11.0228 4.24992 10.3426 4.24984 9.75004 4.26813C9.75031 3.9094 9.75242 3.66596 9.76795 3.47588C9.78459 3.27213 9.81285 3.19659 9.83175 3.15951C9.90365 3.01839 10.0184 2.90365 10.1595 2.83175C10.1966 2.81285 10.2721 2.78459 10.4759 2.76795C10.6884 2.75059 10.9676 2.75 11.4 2.75H12.6C13.0324 2.75 13.3116 2.75059 13.5241 2.76795C13.7279 2.78459 13.8034 2.81285 13.8405 2.83175C13.9816 2.90365 14.0964 3.01839 14.1683 3.15951C14.1872 3.19659 14.2154 3.27213 14.2321 3.47588ZM16.5 17.5C16.5 17.3619 16.3881 17.25 16.25 17.25H7.75C7.61193 17.25 7.5 17.3619 7.5 17.5V21.25H16.5V17.5ZM16.4971 15.4988C16.499 15.6373 16.3867 15.75 16.2481 15.75H7.75186C7.61333 15.75 7.50095 15.6373 7.50286 15.4988C7.50595 15.2758 7.51234 15.0893 7.52559 14.9271C7.55031 14.6245 7.5964 14.4507 7.66349 14.319C7.8073 14.0368 8.03677 13.8073 8.31901 13.6635C8.45069 13.5964 8.62454 13.5503 8.92712 13.5256C9.23554 13.5004 9.6317 13.5 10.2 13.5H13.8C14.3683 13.5 14.7645 13.5004 15.0729 13.5256C15.3755 13.5503 15.5493 13.5964 15.681 13.6635C15.9632 13.8073 16.1927 14.0368 16.3365 14.319C16.4036 14.4507 16.4497 14.6245 16.4744 14.9271C16.4877 15.0893 16.4941 15.2758 16.4971 15.4988ZM10.5 8.24999C10.0858 8.24999 9.74998 8.58578 9.74998 8.99999C9.74998 9.41421 10.0858 9.74999 10.5 9.74999H13.5C13.9142 9.74999 14.25 9.41421 14.25 8.99999C14.25 8.58578 13.9142 8.24999 13.5 8.24999H10.5Z" fill="#000"/>
</svg>
