<svg width="24" height="24" viewBox="0 0 24 24" fill="none" xmlns="http://www.w3.org/2000/svg">
<path d="M5.75 5.5C5.75 5.08579 6.08579 4.75 6.5 4.75C6.91421 4.75 7.25 5.08579 7.25 5.5L7.25 10.3251C7.31464 10.2671 7.38351 10.2119 7.4566 10.1601L14.1888 5.38419C15.5794 4.39769 17.5039 5.392 17.5039 7.09697V16.8934C17.5039 18.5984 15.5794 19.5927 14.1888 18.6062L7.4566 13.8303C7.38351 13.7785 7.31464 13.7234 7.25 13.6653L7.25 18.5C7.25 18.9142 6.91421 19.25 6.5 19.25C6.08579 19.25 5.75 18.9142 5.75 18.5V5.5Z" fill="#000"/>
</svg>
