<svg width="24" height="24" viewBox="0 0 24 24" fill="none" xmlns="http://www.w3.org/2000/svg">
<path fill-rule="evenodd" clip-rule="evenodd" d="M12 0C18.6274 0 24 5.37258 24 12C24 18.6274 18.6274 24 12 24C5.37258 24 0 18.6274 0 12C0 5.37258 5.37258 0 12 0ZM22 12C22 6.47715 17.5228 2 12 2C9.59873 2 7.39514 2.84637 5.67127 4.25705L19.7429 18.3287C21.1536 16.6049 22 14.4013 22 12ZM18.3287 19.7429C16.6049 21.1536 14.4013 22 12 22C6.47715 22 2 17.5228 2 12C2 9.59873 2.84636 7.39514 4.25705 5.67127L18.3287 19.7429Z" fill="#000"/>
</svg>
