<svg width="24" height="24" viewBox="0 0 24 24" fill="none" xmlns="http://www.w3.org/2000/svg">
<path fill-rule="evenodd" clip-rule="evenodd" d="M10.216 1.78385C11.299 1.07278 12.7007 1.07278 13.7837 1.78385L21.8465 7.07797C23.5066 8.16806 22.7348 10.7498 20.7487 10.7498H3.25097C1.26492 10.7498 0.49307 8.16806 2.15323 7.07798L10.216 1.78385ZM12.75 6.00006C12.75 5.58585 12.4142 5.25006 12 5.25006C11.5858 5.25006 11.25 5.58585 11.25 6.00006V7.50006C11.25 7.91427 11.5858 8.25006 12 8.25006C12.4142 8.25006 12.75 7.91427 12.75 7.50006V6.00006Z" fill="#000"/>
<path d="M18.75 12.2501C19.1642 12.2501 19.5 12.5858 19.5 13.0001V16.0001C19.5 16.4143 19.1642 16.7501 18.75 16.7501C18.3358 16.7501 18 16.4143 18 16.0001V13.0001C18 12.5858 18.3358 12.2501 18.75 12.2501Z" fill="#000"/>
<path d="M15 13.0001C15 12.5858 14.6642 12.2501 14.25 12.2501C13.8358 12.2501 13.5 12.5858 13.5 13.0001V16.0001C13.5 16.4143 13.8358 16.7501 14.25 16.7501C14.6642 16.7501 15 16.4143 15 16.0001V13.0001Z" fill="#000"/>
<path d="M9.75003 12.2501C10.1642 12.2501 10.5 12.5858 10.5 13.0001V16.0001C10.5 16.4143 10.1642 16.7501 9.75003 16.7501C9.33582 16.7501 9.00003 16.4143 9.00003 16.0001V13.0001C9.00003 12.5858 9.33582 12.2501 9.75003 12.2501Z" fill="#000"/>
<path d="M6.00003 13.0001C6.00003 12.5858 5.66424 12.2501 5.25003 12.2501C4.83582 12.2501 4.50003 12.5858 4.50003 13.0001V16.0001C4.50003 16.4143 4.83582 16.7501 5.25003 16.7501C5.66424 16.7501 6.00003 16.4143 6.00003 16.0001V13.0001Z" fill="#000"/>
<path d="M2.75 19.0001C2.75 18.5858 3.08579 18.2501 3.5 18.2501H20.5C20.9142 18.2501 21.25 18.5858 21.25 19.0001C21.25 19.4143 20.9142 19.7501 20.5 19.7501H3.5C3.08579 19.7501 2.75 19.4143 2.75 19.0001Z" fill="#000"/>
<path d="M2.00003 21.2501C1.58582 21.2501 1.25003 21.5858 1.25003 22.0001C1.25003 22.4143 1.58582 22.7501 2.00003 22.7501H22C22.4142 22.7501 22.75 22.4143 22.75 22.0001C22.75 21.5858 22.4142 21.2501 22 21.2501H2.00003Z" fill="#000"/>
</svg>
