<svg width="24" height="24" viewBox="0 0 24 24" fill="none" xmlns="http://www.w3.org/2000/svg">
<path fill-rule="evenodd" clip-rule="evenodd" d="M10.2158 1.78391C11.2987 1.07285 12.7005 1.07284 13.7834 1.78391L21.8462 7.07804C23.5064 8.16812 22.7345 10.7499 20.7485 10.7499H3.25073C1.26468 10.7499 0.492826 8.16812 2.15299 7.07804L10.2158 1.78391ZM12.7498 6.00012C12.7498 5.58591 12.414 5.25012 11.9998 5.25012C11.5855 5.25012 11.2498 5.58591 11.2498 6.00012V7.50012C11.2498 7.91434 11.5855 8.25012 11.9998 8.25012C12.414 8.25012 12.7498 7.91434 12.7498 7.50012V6.00012Z" fill="#000"/>
<path d="M18.7498 12.2501C19.164 12.2501 19.4998 12.5859 19.4998 13.0001V16.0001C19.4998 16.4143 19.164 16.7501 18.7498 16.7501C18.3356 16.7501 17.9998 16.4143 17.9998 16.0001V13.0001C17.9998 12.5859 18.3356 12.2501 18.7498 12.2501Z" fill="#000"/>
<path d="M14.9998 13.0001C14.9998 12.5859 14.664 12.2501 14.2498 12.2501C13.8356 12.2501 13.4998 12.5859 13.4998 13.0001V16.0001C13.4998 16.4143 13.8356 16.7501 14.2498 16.7501C14.664 16.7501 14.9998 16.4143 14.9998 16.0001V13.0001Z" fill="#000"/>
<path d="M9.74979 12.2501C10.164 12.2501 10.4998 12.5859 10.4998 13.0001V16.0001C10.4998 16.4143 10.164 16.7501 9.74979 16.7501C9.33557 16.7501 8.99979 16.4143 8.99979 16.0001V13.0001C8.99979 12.5859 9.33557 12.2501 9.74979 12.2501Z" fill="#000"/>
<path d="M5.99979 13.0001C5.99979 12.5859 5.664 12.2501 5.24979 12.2501C4.83557 12.2501 4.49979 12.5859 4.49979 13.0001V16.0001C4.49979 16.4143 4.83557 16.7501 5.24979 16.7501C5.664 16.7501 5.99979 16.4143 5.99979 16.0001V13.0001Z" fill="#000"/>
<path d="M2.74976 19.0001C2.74976 18.5859 3.08554 18.2501 3.49976 18.2501H20.4998C20.914 18.2501 21.2498 18.5859 21.2498 19.0001C21.2498 19.4143 20.914 19.7501 20.4998 19.7501H3.49976C3.08554 19.7501 2.74976 19.4143 2.74976 19.0001Z" fill="#000"/>
<path d="M1.99979 21.2501C1.58557 21.2501 1.24979 21.5859 1.24979 22.0001C1.24979 22.4143 1.58557 22.7501 1.99979 22.7501H21.9998C22.414 22.7501 22.7498 22.4143 22.7498 22.0001C22.7498 21.5859 22.414 21.2501 21.9998 21.2501H1.99979Z" fill="#000"/>
</svg>
