<svg width="24" height="24" viewBox="0 0 24 24" fill="none" xmlns="http://www.w3.org/2000/svg">
<path d="M9.9301 1.38564C10.2694 1.62318 10.352 2.09082 10.1144 2.43016L7.44054 6.25001L16.5595 6.25L13.8856 2.43016C13.648 2.09082 13.7306 1.62318 14.0699 1.38564C14.4092 1.1481 14.8769 1.23063 15.1144 1.56997L18.3905 6.25L21.2202 6.25C21.3424 6.24997 21.4748 6.24994 21.5895 6.25931C21.7192 6.26991 21.8907 6.29615 22.0675 6.38625C22.3027 6.50609 22.4939 6.69732 22.6138 6.93252C22.7039 7.10935 22.7301 7.28078 22.7407 7.41053C22.7501 7.52516 22.75 7.65763 22.75 7.77978V8.72029C22.75 8.84243 22.7501 8.97485 22.7407 9.08948C22.7301 9.21924 22.7039 9.39067 22.6138 9.56749C22.4939 9.8027 22.3027 9.99392 22.0675 10.1138C21.8907 10.2039 21.7192 10.2301 21.5895 10.2407C21.4748 10.2501 21.3424 10.25 21.2202 10.25H2.77979C2.65763 10.25 2.52518 10.2501 2.41053 10.2407C2.28078 10.2301 2.10935 10.2039 1.93252 10.1138C1.69732 9.99392 1.50609 9.8027 1.38625 9.56749C1.29615 9.39067 1.26991 9.21924 1.25931 9.08948C1.24994 8.97483 1.24997 8.84238 1.25 8.72022V7.77979C1.24997 7.65763 1.24994 7.52518 1.25931 7.41053C1.26991 7.28078 1.29615 7.10935 1.38625 6.93252C1.50609 6.69732 1.69732 6.50609 1.93252 6.38625C2.10935 6.29615 2.28078 6.26991 2.41053 6.25931C2.52517 6.24994 2.65763 6.24997 2.77979 6.25L5.60955 6.25001L8.88558 1.56997C9.12312 1.23063 9.59076 1.1481 9.9301 1.38564Z" fill="#000"/>
<path fill-rule="evenodd" clip-rule="evenodd" d="M2.63957 12.0069C2.782 11.8438 2.98801 11.7501 3.20459 11.7501H20.7955C21.0121 11.7501 21.2181 11.8438 21.3605 12.0069C21.503 12.1701 21.5679 12.3869 21.5386 12.6015L20.8996 17.2879C20.786 18.1208 20.695 18.7883 20.5791 19.3264C20.4598 19.8801 20.3037 20.352 20.0319 20.7796C19.5927 21.4708 18.9631 22.0204 18.2189 22.3622C17.7585 22.5737 17.2698 22.6646 16.7051 22.708C16.1563 22.7501 15.4826 22.7501 14.642 22.7501H9.35805C8.51746 22.7501 7.84385 22.7501 7.29504 22.708C6.73033 22.6646 6.24165 22.5737 5.78122 22.3622C5.03703 22.0204 4.40744 21.4708 3.96819 20.7796C3.69644 20.352 3.5403 19.8801 3.42104 19.3264C3.30512 18.7883 3.21411 18.1208 3.10054 17.2879L2.46147 12.6015C2.43221 12.3869 2.49714 12.1701 2.63957 12.0069ZM8.00001 14.25C8.41423 14.25 8.75001 14.5858 8.75001 15L8.75 18.5C8.75 18.9142 8.41421 19.25 8 19.25C7.58578 19.25 7.25 18.9142 7.25 18.5L7.25001 15C7.25001 14.5858 7.5858 14.25 8.00001 14.25ZM12 14.25C12.4142 14.25 12.75 14.5858 12.75 15L12.75 18.5C12.75 18.9142 12.4142 19.25 12 19.25C11.5858 19.25 11.25 18.9142 11.25 18.5L11.25 15C11.25 14.5858 11.5858 14.25 12 14.25ZM16.75 15C16.75 14.5858 16.4142 14.25 16 14.25C15.5858 14.25 15.25 14.5858 15.25 15L15.25 18.5C15.25 18.9142 15.5858 19.25 16 19.25C16.4142 19.25 16.75 18.9142 16.75 18.5L16.75 15Z" fill="#000"/>
</svg>
