<svg width="24" height="24" viewBox="0 0 24 24" fill="none" xmlns="http://www.w3.org/2000/svg">
<path d="M9.11437 1.43028C9.3519 1.09095 9.26938 0.623298 8.93004 0.385763C8.5907 0.148227 8.12305 0.230753 7.88552 0.57009L4.60949 5.25013L1.77979 5.25013C1.65763 5.2501 1.52517 5.25006 1.41053 5.25943C1.28078 5.27003 1.10935 5.29627 0.932518 5.38637C0.697316 5.50621 0.50609 5.69744 0.386248 5.93264C0.29615 6.10947 0.269911 6.2809 0.259309 6.41066C0.249942 6.5253 0.249974 6.65775 0.250003 6.77991V7.72035C0.249974 7.84251 0.249942 7.97496 0.259309 8.0896C0.269911 8.21936 0.29615 8.39079 0.386248 8.56762C0.50609 8.80282 0.697316 8.99405 0.932518 9.11389C1.10935 9.20399 1.28078 9.23022 1.41053 9.24083C1.52518 9.25019 1.65763 9.25016 1.77979 9.25013H20.2202C20.3424 9.25016 20.4748 9.25019 20.5895 9.24083C20.7192 9.23022 20.8907 9.20399 21.0675 9.11389C21.3027 8.99405 21.4939 8.80282 21.6138 8.56762C21.7039 8.39079 21.7301 8.21936 21.7407 8.0896C21.7501 7.97498 21.75 7.84256 21.75 7.72041V6.7799C21.75 6.65776 21.7501 6.52528 21.7407 6.41066C21.7301 6.2809 21.7039 6.10947 21.6138 5.93264C21.4939 5.69744 21.3027 5.50621 21.0675 5.38637C20.8907 5.29627 20.7192 5.27003 20.5895 5.25943C20.4748 5.25006 20.3424 5.2501 20.2202 5.25013L17.3904 5.25013L14.1144 0.57009C13.8768 0.230753 13.4092 0.148227 13.0698 0.385763C12.7305 0.623298 12.648 1.09095 12.8855 1.43028L15.5594 5.25013L6.44047 5.25013L9.11437 1.43028Z" fill="#000"/>
<path fill-rule="evenodd" clip-rule="evenodd" d="M2.20459 10.7501C1.98801 10.7501 1.782 10.8438 1.63957 11.0069C1.49714 11.1701 1.43221 11.3869 1.46147 11.6015L2.10054 16.2879C2.21411 17.1208 2.30512 17.7883 2.42104 18.3264C2.5403 18.8801 2.69644 19.352 2.96819 19.7796C3.40744 20.4708 4.03702 21.0204 4.78122 21.3622C5.24165 21.5737 5.73033 21.6646 6.29504 21.708C6.84385 21.7501 7.51746 21.7501 8.35805 21.7501H10.5815C10.8309 21.7501 11.064 21.6261 11.2034 21.4193C11.3428 21.2125 11.3703 20.9499 11.2767 20.7187C10.9373 19.8802 10.75 18.9629 10.75 18.0001C10.75 15.5742 11.9408 13.4263 13.7731 12.1091C14.0375 11.919 14.149 11.5801 14.0492 11.2701C13.9493 10.9602 13.6609 10.7501 13.3353 10.7501H2.20459ZM7.00001 13.2504C7.41422 13.2504 7.75001 13.5862 7.75001 14.0004L7.75 17.5004C7.75 17.9146 7.41421 18.2504 7 18.2504C6.58578 18.2504 6.25 17.9146 6.25 17.5004L6.25001 14.0004C6.25001 13.5862 6.5858 13.2504 7.00001 13.2504ZM10.25 16.0078C10.493 15.0601 10.9052 14.1801 11.4525 13.4022C11.3267 13.3069 11.17 13.2504 11.0001 13.2504C10.5858 13.2504 10.2501 13.5862 10.2501 14.0004L10.25 16.0078Z" fill="#000"/>
<path fill-rule="evenodd" clip-rule="evenodd" d="M12.25 18.0001C12.25 14.8245 14.8244 12.2501 18 12.2501C21.1756 12.2501 23.75 14.8245 23.75 18.0001C23.75 21.1758 21.1756 23.7501 18 23.7501C14.8244 23.7501 12.25 21.1758 12.25 18.0001ZM15.5581 17.9421C15.314 17.698 15.314 17.3023 15.5581 17.0582L17.5581 15.0582C17.6753 14.941 17.8343 14.8751 18 14.8751C18.1658 14.8751 18.3248 14.941 18.442 15.0582L20.442 17.0582C20.686 17.3022 20.686 17.698 20.442 17.9421C20.1979 18.1861 19.8021 18.1861 19.5581 17.9421L18.625 17.009V20.5001C18.625 20.8453 18.3452 21.1251 18 21.1251C17.6548 21.1251 17.375 20.8453 17.375 20.5001V17.009L16.4419 17.9421C16.1979 18.1862 15.8021 18.1862 15.5581 17.9421Z" fill="#000"/>
</svg>
