<svg width="24" height="24" viewBox="0 0 24 24" fill="none" xmlns="http://www.w3.org/2000/svg">
<path d="M2.53033 1.46967C2.23744 1.17678 1.76256 1.17678 1.46967 1.46967C1.17678 1.76256 1.17678 2.23744 1.46967 2.53033L5.09002 6.15068C4.8952 6.70779 4.76542 7.29636 4.70987 7.90746L4.532 9.86398C4.36027 11.753 3.7192 13.5691 2.66706 15.1473L2.6338 15.1972C2.38354 15.5726 2.25 16.0137 2.25 16.4648C2.25 17.7269 3.27311 18.75 4.53518 18.75H17.6893L21.4697 22.5303C21.7626 22.8232 22.2374 22.8232 22.5303 22.5303C22.8232 22.2374 22.8232 21.7626 22.5303 21.4697L18.5307 17.47C18.5306 17.4699 18.5308 17.4701 18.5307 17.47L2.53033 1.46967Z" fill="#000"/>
<path d="M12 1.25C10.1492 1.25 8.44663 1.94063 7.15119 3.08619C6.9962 3.22324 6.90472 3.41823 6.89837 3.62503C6.89203 3.83182 6.9714 4.03206 7.11769 4.17835L20.3983 17.459C20.5836 17.6442 20.852 17.7194 21.1065 17.6573C21.361 17.5952 21.5646 17.4048 21.6437 17.155C21.7129 16.9363 21.75 16.7042 21.75 16.4648C21.75 16.0137 21.6165 15.5726 21.3662 15.1972L21.3329 15.1473C20.2808 13.5691 19.6397 11.753 19.468 9.86397L19.2901 7.90746C18.9474 4.13698 15.786 1.25 12 1.25Z" fill="#000"/>
<path d="M9.02583 19.8507C9.38437 19.6433 9.84317 19.7658 10.0506 20.1243C10.4407 20.7988 11.1681 21.2499 12 21.2499C12.8319 21.2499 13.5593 20.7988 13.9495 20.1243C14.1569 19.7658 14.6157 19.6433 14.9742 19.8507C15.3328 20.0581 15.4553 20.5169 15.2479 20.8754C14.6006 21.9943 13.389 22.7499 12 22.7499C10.611 22.7499 9.39943 21.9943 8.75217 20.8754C8.54476 20.5169 8.66728 20.0581 9.02583 19.8507Z" fill="#000"/>
</svg>
