<svg width="24" height="24" viewBox="0 0 24 24" fill="none" xmlns="http://www.w3.org/2000/svg">
<path d="M12 1.25C8.21397 1.25 5.05264 4.13698 4.70987 7.90746L4.532 9.86398C4.36027 11.753 3.7192 13.5691 2.66706 15.1473L2.6338 15.1972C2.38354 15.5726 2.25 16.0137 2.25 16.4648C2.25 17.7269 3.27311 18.75 4.53518 18.75H19.4648C20.7269 18.75 21.75 17.7269 21.75 16.4648C21.75 16.0137 21.6165 15.5726 21.3662 15.1972L21.3329 15.1473C20.2808 13.5691 19.6397 11.753 19.468 9.86397L19.2901 7.90746C18.9474 4.13698 15.786 1.25 12 1.25Z" fill="#000"/>
<path d="M9.02583 19.8507C9.38437 19.6433 9.84317 19.7658 10.0506 20.1243C10.4407 20.7988 11.1681 21.2499 12 21.2499C12.8319 21.2499 13.5593 20.7988 13.9495 20.1243C14.1569 19.7658 14.6157 19.6433 14.9742 19.8507C15.3328 20.0581 15.4553 20.5169 15.2479 20.8754C14.6006 21.9943 13.389 22.7499 12 22.7499C10.611 22.7499 9.39943 21.9943 8.75217 20.8754C8.54476 20.5169 8.66728 20.0581 9.02583 19.8507Z" fill="#000"/>
</svg>
