<svg width="24" height="24" viewBox="0 0 24 24" fill="none" xmlns="http://www.w3.org/2000/svg">
<path fill-rule="evenodd" clip-rule="evenodd" d="M4.70987 7.90746C5.05264 4.13698 8.21397 1.25 12 1.25C15.786 1.25 18.9474 4.13698 19.2901 7.90746L19.468 9.86397C19.6397 11.753 20.2808 13.5691 21.3329 15.1473L21.3662 15.1972C21.6165 15.5726 21.75 16.0137 21.75 16.4648C21.75 17.7269 20.7269 18.75 19.4648 18.75H4.53518C3.27311 18.75 2.25 17.7269 2.25 16.4648C2.25 16.0137 2.38354 15.5726 2.6338 15.1972L2.66706 15.1473C3.7192 13.5691 4.36027 11.753 4.532 9.86398L4.70987 7.90746ZM11.25 11V7C11.25 6.58579 11.5858 6.25 12 6.25C12.4142 6.25 12.75 6.58579 12.75 7V11C12.75 11.4142 12.4142 11.75 12 11.75C11.5858 11.75 11.25 11.4142 11.25 11ZM11 14.5C11 13.9477 11.4477 13.5 12 13.5C12.5523 13.5 13.0001 13.9477 13.0001 14.5C13.0001 15.0523 12.5523 15.5 12 15.5C11.4477 15.5 11 15.0523 11 14.5Z" fill="#000"/>
<path d="M10.0506 20.1243C9.84317 19.7658 9.38437 19.6433 9.02583 19.8507C8.66728 20.0581 8.54476 20.5169 8.75217 20.8754C9.39943 21.9943 10.611 22.7499 12 22.7499C13.389 22.7499 14.6006 21.9943 15.2479 20.8754C15.4553 20.5169 15.3328 20.0581 14.9742 19.8507C14.6157 19.6433 14.1569 19.7658 13.9495 20.1243C13.5593 20.7988 12.8319 21.2499 12 21.2499C11.1681 21.2499 10.4407 20.7988 10.0506 20.1243Z" fill="#000"/>
</svg>
