<svg width="24" height="24" viewBox="0 0 24 24" fill="none" xmlns="http://www.w3.org/2000/svg">
<path fill-rule="evenodd" clip-rule="evenodd" d="M10 2C10 1.44772 9.55228 1 9 1C8.44772 1 8 1.44772 8 2V3.5H5.5C4.94772 3.5 4.5 3.94772 4.5 4.5C4.5 5.05228 4.94772 5.5 5.5 5.5H6.49999L6.49999 18.5H5.5C4.94772 18.5 4.5 18.9477 4.5 19.5C4.5 20.0522 4.94772 20.5 5.5 20.5H8V22C8 22.5522 8.44772 23 9 23C9.55228 23 10 22.5522 10 22V20.5H12V22C12 22.5522 12.4477 23 13 23C13.5523 23 14 22.5522 14 22V20.5H14.75C17.3733 20.5 19.5 18.3733 19.5 15.7499C19.5 13.8464 18.3802 12.2044 16.7635 11.4466C17.5317 10.6027 18 9.48106 18 8.25002C18 5.88187 16.267 3.91848 14 3.55888V2C14 1.44772 13.5523 1 13 1C12.4477 1 12 1.44772 12 2V3.5H10V2ZM8.49999 5.5L8.49999 11L13.2707 11C14.7799 10.9888 16 9.76188 16 8.25002C16 6.73122 14.7687 5.5 13.25 5.5H8.49999ZM13.0039 18.5H14.75C16.2687 18.5 17.5 17.2687 17.5 15.7499C17.5 14.2312 16.2687 12.9999 14.75 12.9999L13.2772 13L13.25 13H8.49999L8.49999 18.5H8.99605L9 18.5L9.00395 18.5H12.996L13 18.5L13.0039 18.5Z" fill="#000"/>
</svg>
