<svg width="24" height="24" viewBox="0 0 24 24" fill="none" xmlns="http://www.w3.org/2000/svg">
<path fill-rule="evenodd" clip-rule="evenodd" d="M11.5718 1.09634C11.9209 0.930878 12.3342 0.981377 12.6332 1.22605L18.1332 5.72605C18.3519 5.90496 18.4847 6.16802 18.4988 6.4502C18.5128 6.73238 18.4069 7.00734 18.2071 7.20712L13.4142 12L18.2071 16.7929C18.4069 16.9927 18.5128 17.2676 18.4988 17.5498C18.4847 17.832 18.3519 18.0951 18.1332 18.274L12.6332 22.774C12.3342 23.0186 11.9209 23.0691 11.5718 22.9037C11.2226 22.7382 11 22.3864 11 22V14.4142L6.70711 18.7071C6.31658 19.0976 5.68342 19.0976 5.29289 18.7071C4.90237 18.3166 4.90237 17.6834 5.29289 17.2929L10.5858 12L5.29289 6.70712C4.90237 6.31659 4.90237 5.68343 5.29289 5.2929C5.68342 4.90238 6.31658 4.90238 6.70711 5.2929L11 9.5858V2.00001C11 1.61362 11.2226 1.2618 11.5718 1.09634ZM13 14.4142L16.0115 17.4258L13 19.8898V14.4142ZM13 9.5858V4.11025L16.0115 6.57425L13 9.5858Z" fill="#000"/>
</svg>
