<svg width="24" height="24" viewBox="0 0 24 24" fill="none" xmlns="http://www.w3.org/2000/svg">
<path d="M9.09275 6.15275C8.82275 5.88275 8.79875 5.45275 9.03675 5.15375L10.5638 3.24475C11.5887 1.96375 12.0568 1.37875 12.7268 1.27275C13.3118 1.18175 13.8947 1.38575 14.2917 1.82075C14.7498 2.32175 14.7498 3.07075 14.7498 4.71175V8.40275C14.7498 8.71675 14.7498 9.04175 14.7788 9.12175C14.7998 9.16375 14.8398 9.20275 14.8857 9.22575C14.9607 9.25275 15.2847 9.25275 15.5988 9.25275H17.7507C18.9897 9.25275 19.6117 9.25275 20.0898 9.63475C20.5088 9.96875 20.7487 10.4688 20.7477 11.0048C20.7477 11.6158 20.3608 12.1007 19.5888 13.0658L18.5198 14.4028C18.3868 14.5697 18.1877 14.6718 17.9757 14.6838C17.9618 14.6838 17.9478 14.6838 17.9338 14.6838C17.7358 14.6838 17.5448 14.6047 17.4037 14.4637L9.09275 6.15275ZM22.5298 21.4697L16.6888 15.6287L8.37575 7.31475L2.52975 1.46975C2.23675 1.17675 1.76275 1.17675 1.46975 1.46975C1.17675 1.76275 1.17675 2.23675 1.46975 2.52975L6.84075 7.90075L4.41275 10.9377C3.63875 11.9047 3.25075 12.3907 3.24975 13.0037C3.24975 13.5398 3.48875 14.0387 3.90875 14.3737C4.38775 14.7557 5.00975 14.7557 6.24775 14.7557H8.39975C8.71275 14.7557 9.03775 14.7558 9.11375 14.7838C9.16075 14.8068 9.19775 14.8457 9.21975 14.8877C9.24875 14.9677 9.24875 15.2917 9.24875 15.6058V19.2968C9.24875 20.9378 9.24875 21.6867 9.70675 22.1887C10.0417 22.5557 10.5098 22.7588 10.9967 22.7588C11.0877 22.7588 11.1798 22.7518 11.2708 22.7378C11.9408 22.6318 12.4088 22.0478 13.4338 20.7658L16.2198 17.2828L21.4688 22.5317C21.6147 22.6777 21.8068 22.7518 21.9988 22.7518C22.1908 22.7518 22.3827 22.6787 22.5287 22.5317C22.8217 22.2388 22.8217 21.7638 22.5287 21.4708L22.5298 21.4697Z" fill="#000"/>
</svg>
