<svg width="24" height="24" viewBox="0 0 24 24" fill="none" xmlns="http://www.w3.org/2000/svg">
<path d="M20.75 11.0012C20.75 11.6151 20.361 12.1009 19.587 13.0667L13.436 20.7575C12.411 22.0392 11.943 22.624 11.272 22.729C11.18 22.744 11.089 22.75 10.998 22.75C10.511 22.75 10.042 22.5471 9.708 22.1802C9.25 21.6803 9.25 20.9305 9.25 19.2899V15.6C9.25 15.286 9.25 14.9611 9.221 14.8822C9.199 14.8402 9.161 14.8022 9.114 14.7782C9.038 14.7502 8.714 14.7502 8.4 14.7502H6.248C5.009 14.7502 4.387 14.7502 3.909 14.3683C3.491 14.0354 3.25 13.5365 3.25 13.0007C3.25 12.3868 3.639 11.901 4.413 10.9342L10.564 3.24336C11.589 1.96171 12.057 1.37687 12.728 1.2719C13.311 1.17892 13.895 1.38587 14.292 1.81975C14.75 2.31961 14.75 3.0694 14.75 4.70995V8.39994C14.75 8.71385 14.75 9.03876 14.779 9.11874C14.801 9.16073 14.839 9.19872 14.887 9.22371C14.96 9.24971 15.285 9.24971 15.599 9.24971H17.751C18.99 9.24971 19.612 9.24971 20.09 9.6316C20.508 9.96451 20.749 10.4644 20.749 11.0002L20.75 11.0012Z" fill="#000"/>
</svg>
