<svg width="24" height="24" viewBox="0 0 24 24" fill="none" xmlns="http://www.w3.org/2000/svg">
<path d="M9.67005 1.25H14.306C14.4916 1.25149 14.6691 1.25229 14.8403 1.25303L14.9458 1.25347C16.0171 1.25784 16.9325 1.26157 17.7005 1.52359C18.5739 1.82155 19.1889 2.41626 19.7841 3.37985C19.7949 3.39735 19.805 3.41528 19.8143 3.4336C20.0541 3.90445 20.1552 4.41538 20.2033 5.00372C20.25 5.57634 20.25 6.28458 20.25 7.16762V15.5C20.25 15.8033 20.0673 16.0768 19.787 16.1929C19.5068 16.309 19.1842 16.2448 18.9697 16.0303L5.79727 2.85793C5.62498 2.68564 5.54712 2.44038 5.58849 2.20026C5.62986 1.96014 5.7853 1.75508 6.00532 1.65038C6.46848 1.42997 6.97212 1.33729 7.54928 1.29314C8.11321 1.24999 8.80808 1.24999 9.67005 1.25Z" fill="#000"/>
<path d="M20.0303 18.9697C20.0302 18.9696 20.0304 18.9698 20.0303 18.9697L22.5303 21.4697C22.8232 21.7626 22.8232 22.2374 22.5303 22.5303C22.2374 22.8232 21.7626 22.8232 21.4697 22.5303L20.2497 21.3104C20.2341 22.108 19.5824 22.75 18.781 22.75C18.4115 22.75 18.0557 22.611 17.7839 22.3597L12.5763 17.5531C12.5671 17.5446 12.5582 17.5359 12.5494 17.527C12.3584 17.3322 12.2202 17.2204 12.1194 17.1592C12.0717 17.1302 12.0399 17.1173 12.022 17.1116C12.0056 17.1063 11.9993 17.1066 11.9993 17.1066L11.9977 17.1067L11.9942 17.1071L11.9885 17.1083C11.9856 17.109 11.9817 17.11 11.977 17.1115C11.9592 17.1171 11.9276 17.13 11.8801 17.1588C11.7797 17.2198 11.6418 17.3315 11.4512 17.5264C11.4423 17.5355 11.4331 17.5444 11.4237 17.5531L6.21622 22.3596C5.94443 22.611 5.58852 22.75 5.219 22.75C4.40779 22.75 3.75 22.0922 3.75 21.281V7.1937C3.75158 7.00534 3.75243 6.82537 3.75323 6.65181L3.75346 6.60192C3.75636 5.96088 3.75898 5.38264 3.80856 4.86922L1.46967 2.53033C1.17678 2.23744 1.17678 1.76256 1.46967 1.46967C1.76256 1.17678 2.23744 1.17678 2.53033 1.46967L20.0303 18.9697Z" fill="#000"/>
</svg>
