<svg width="24" height="24" viewBox="0 0 24 24" fill="none" xmlns="http://www.w3.org/2000/svg">
<path d="M14.306 1.25H9.66763C8.78459 1.24999 8.07634 1.24999 7.50372 1.29674C6.91538 1.34477 6.40445 1.44587 5.9336 1.6857C5.91533 1.695 5.89745 1.70506 5.88 1.71583C4.83802 2.35913 4.23885 3.01979 3.96633 3.98293C3.84013 4.42896 3.79296 4.90866 3.77215 5.42111C3.75713 5.79078 3.75522 6.20851 3.75313 6.66562C3.75235 6.83631 3.75152 7.01249 3.75 7.1937V21.281C3.75 22.0922 4.40779 22.75 5.219 22.75C5.58852 22.75 5.94443 22.611 6.21623 22.3596L11.4237 17.5531C11.4331 17.5444 11.4423 17.5355 11.4512 17.5264C11.6418 17.3315 11.7797 17.2198 11.8801 17.1588C11.9276 17.13 11.9592 17.1171 11.977 17.1115C11.9856 17.1087 11.9913 17.1076 11.9942 17.1071L11.9978 17.1067L11.9993 17.1066C11.9993 17.1066 12.0056 17.1063 12.022 17.1116C12.0399 17.1173 12.0717 17.1302 12.1194 17.1592C12.2202 17.2204 12.3584 17.3322 12.5494 17.527C12.5582 17.5359 12.5671 17.5446 12.5763 17.5531L17.7838 22.3596C18.0556 22.611 18.4115 22.75 18.781 22.75C19.5922 22.75 20.25 22.0922 20.25 21.281V7.16762C20.25 6.28458 20.25 5.57634 20.2033 5.00372C20.1552 4.41538 20.0541 3.90445 19.8143 3.4336C19.805 3.41528 19.7949 3.39735 19.7841 3.37985C19.1408 2.3384 18.4799 1.73916 17.5169 1.46639C17.0708 1.34003 16.5911 1.29272 16.0785 1.27187C15.7067 1.25675 15.2866 1.25493 14.8267 1.25294C14.6584 1.25221 14.4846 1.25144 14.306 1.25Z" fill="#000"/>
</svg>
