<svg width="24" height="24" viewBox="0 0 24 24" fill="none" xmlns="http://www.w3.org/2000/svg">
<path d="M11.25 4.17776C11.25 4.10301 11.2167 4.03192 11.158 3.98563C10.1531 3.19299 8.90098 2.75 7.59608 2.75C5.75524 2.75 3.95558 3.29489 2.42391 4.31601L2.12687 4.51403C1.57905 4.87925 1.25 5.49408 1.25 6.15248V19.2755C1.25 20.3979 2.50095 21.0674 3.43488 20.4448C4.60349 19.6657 5.97655 19.25 7.38104 19.25H7.84941C8.74758 19.25 9.61902 19.5557 10.3204 20.1168L11.0875 20.7305C11.153 20.7829 11.25 20.7363 11.25 20.6524V4.17776Z" fill="#000"/>
<path d="M12.9125 20.7305C12.847 20.7829 12.75 20.7363 12.75 20.6524V4.17777C12.75 4.10301 12.7833 4.03192 12.842 3.98563C13.8469 3.19299 15.099 2.75 16.4039 2.75C18.2448 2.75 20.0444 3.29489 21.5761 4.31601L21.8731 4.51403C22.4209 4.87925 22.75 5.49408 22.75 6.15248V19.2755C22.75 20.3979 21.499 21.0674 20.5651 20.4448C19.3965 19.6657 18.0234 19.25 16.619 19.25H16.1506C15.2524 19.25 14.381 19.5557 13.6796 20.1168L12.9125 20.7305Z" fill="#000"/>
</svg>
