<svg width="24" height="24" viewBox="0 0 24 24" fill="none" xmlns="http://www.w3.org/2000/svg">
<path fill-rule="evenodd" clip-rule="evenodd" d="M2.25 5.5V19.5C2.25 21.2949 3.70507 22.75 5.5 22.75H21C21.4142 22.75 21.75 22.4142 21.75 22C21.75 21.5858 21.4142 21.25 21 21.25H19.75V17.7363C20.875 17.6119 21.75 16.6581 21.75 15.5V3.5C21.75 2.25736 20.7426 1.25 19.5 1.25H6.5C4.15279 1.25 2.25 3.15279 2.25 5.5ZM18.25 17.75H5.5C4.5335 17.75 3.75 18.5335 3.75 19.5C3.75 20.4665 4.5335 21.25 5.5 21.25H18.25V17.75Z" fill="#000"/>
</svg>
