<svg width="24" height="24" viewBox="0 0 24 24" fill="none" xmlns="http://www.w3.org/2000/svg">
<path fill-rule="evenodd" clip-rule="evenodd" d="M9.66763 1.25H14.306C14.4846 1.25144 14.6584 1.25221 14.8267 1.25294C15.2866 1.25493 15.7067 1.25675 16.0785 1.27187C16.5911 1.29272 17.0708 1.34003 17.5169 1.46639C18.4799 1.73917 19.1408 2.3384 19.7841 3.37985C19.7949 3.39735 19.805 3.41528 19.8143 3.4336C20.0541 3.90445 20.1552 4.41538 20.2033 5.00372C20.25 5.57634 20.25 6.28458 20.25 7.16762V21.281C20.25 22.0922 19.5922 22.75 18.781 22.75C18.4115 22.75 18.0556 22.611 17.7838 22.3596L12.5763 17.5531C12.5671 17.5446 12.5582 17.5359 12.5494 17.527C12.3584 17.3322 12.2202 17.2204 12.1194 17.1592C12.0717 17.1302 12.0399 17.1173 12.022 17.1116C12.0056 17.1063 11.9993 17.1066 11.9993 17.1066L11.9978 17.1067L11.9942 17.1071C11.9913 17.1076 11.9856 17.1087 11.977 17.1115C11.9592 17.1171 11.9276 17.13 11.8801 17.1588C11.7797 17.2198 11.6418 17.3315 11.4512 17.5264C11.4423 17.5355 11.4331 17.5444 11.4237 17.5531L6.21623 22.3596C5.94443 22.611 5.58852 22.75 5.219 22.75C4.40779 22.75 3.75 22.0922 3.75 21.281V7.1937C3.75152 7.01249 3.75235 6.83631 3.75313 6.66562C3.75522 6.20851 3.75713 5.79078 3.77215 5.42111C3.79296 4.90866 3.84013 4.42896 3.96633 3.98293C4.23885 3.01979 4.83802 2.35913 5.88 1.71583C5.89745 1.70506 5.91533 1.695 5.9336 1.6857C6.40445 1.44587 6.91538 1.34477 7.50372 1.29674C8.07634 1.24999 8.78459 1.24999 9.66763 1.25ZM8.96967 13.0303C8.67678 12.7374 8.67678 12.2626 8.96967 11.9697L10.9393 10L8.96971 8.03037C8.67682 7.73748 8.67682 7.2626 8.96971 6.96971C9.2626 6.67682 9.73748 6.67682 10.0304 6.96971L12 8.93934L13.9696 6.9697C14.2625 6.67681 14.7374 6.67681 15.0303 6.9697C15.3232 7.26259 15.3232 7.73747 15.0303 8.03036L13.0607 10L15.0303 11.9697C15.3232 12.2626 15.3232 12.7374 15.0303 13.0303C14.7374 13.3232 14.2626 13.3232 13.9697 13.0303L12 11.0607L10.0303 13.0303C9.73744 13.3232 9.26256 13.3232 8.96967 13.0303Z" fill="#000"/>
</svg>
