<svg width="24" height="24" viewBox="0 0 24 24" fill="none" xmlns="http://www.w3.org/2000/svg">
<path d="M17.5 13.75C17.0858 13.75 16.75 13.4143 16.75 13V10.559C16.75 10.3777 16.5631 10.2567 16.3976 10.3309L12.8987 11.901C12.8089 11.9413 12.7511 12.0306 12.7511 12.1291L12.7511 22.3889C12.7511 22.5447 12.8922 22.6629 13.0431 22.6247C13.2876 22.5628 13.5278 22.4788 13.7609 22.3727L20.2609 19.4138C21.7769 18.7236 22.75 17.2114 22.75 15.5457V8.52438C22.75 8.28872 22.7305 8.0561 22.6928 7.82844C22.6671 7.67391 22.5007 7.59228 22.3578 7.65641L18.3976 9.43345C18.3078 9.47376 18.25 9.56306 18.25 9.66154V13C18.25 13.4143 17.9142 13.75 17.5 13.75Z" fill="#000"/>
<path d="M15.7685 8.96913C15.9633 8.8817 15.9659 8.60599 15.7727 8.51491L5.78219 3.8049C5.71508 3.77327 5.63739 3.77307 5.57013 3.80436L3.70733 4.67096C3.08008 4.96276 2.54746 5.3957 2.14012 5.92169C2.04536 6.04406 2.09602 6.21955 2.23724 6.28287L11.8974 10.6144C11.9625 10.6436 12.037 10.6436 12.1021 10.6144L15.7685 8.96913Z" fill="#000"/>
<path d="M1.6416 7.65968C1.49862 7.59557 1.33216 7.67732 1.30665 7.83192C1.26928 8.05848 1.25 8.28992 1.25 8.52438V15.5457C1.25 17.2114 2.22311 18.7236 3.73915 19.4138L10.2392 22.3727C10.4729 22.4792 10.7139 22.5633 10.9591 22.6253C11.1101 22.6634 11.2511 22.5452 11.2511 22.3895L11.2511 12.1304C11.2511 12.0319 11.1932 11.9425 11.1034 11.9022L1.6416 7.65968Z" fill="#000"/>
<path d="M18.1734 7.89C18.0804 7.93173 17.9732 7.90925 17.8858 7.85684C17.8645 7.84411 17.8425 7.83236 17.8198 7.82166L7.92961 3.15896C7.73788 3.06857 7.73858 2.79557 7.93077 2.70616L10.2073 1.64707C11.344 1.1183 12.656 1.11829 13.7927 1.64707L20.2927 4.67096C20.9188 4.96225 21.4507 5.39417 21.8577 5.91892C21.9526 6.04124 21.902 6.21683 21.7608 6.28021L18.1734 7.89Z" fill="#000"/>
</svg>
