<svg width="24" height="24" viewBox="0 0 24 24" fill="none" xmlns="http://www.w3.org/2000/svg">
<path fill-rule="evenodd" clip-rule="evenodd" d="M10.3708 1.25H13.6287C14.024 1.24999 14.3651 1.24998 14.646 1.27293C14.9425 1.29716 15.2375 1.35064 15.5212 1.49524C15.9446 1.71095 16.2888 2.05516 16.5045 2.47852C16.6491 2.76231 16.7026 3.05722 16.7268 3.35373C16.7474 3.60556 16.7495 3.90573 16.7497 4.25H18.0312C18.7045 4.24999 19.2553 4.24999 19.7028 4.28655C20.1661 4.3244 20.5845 4.40514 20.9752 4.60423C21.5868 4.91582 22.0839 5.41301 22.3955 6.02453C22.5946 6.41527 22.6754 6.83367 22.7132 7.29693C22.7498 7.74449 22.7498 8.29519 22.7498 8.96856V9.99758C22.7498 9.99839 22.7498 9.9992 22.7498 10V11.2934C22.7497 11.7612 22.7486 12.1663 22.7323 12.5155C22.6024 13.4946 21.7643 14.25 20.7498 14.25L14.2499 14.25C14.2499 13.0074 13.2425 12 11.9999 12C10.7573 12 9.74991 13.0074 9.74991 14.25L3.24991 14.25C2.23476 14.25 1.39625 13.4937 1.26715 12.5138C1.25336 12.2176 1.2505 11.8812 1.24991 11.5005V10C1.24991 9.99489 1.24986 9.9898 1.24976 9.98472V8.96856C1.24975 8.2952 1.24974 7.74449 1.28631 7.29693C1.32416 6.83367 1.40489 6.41527 1.60399 6.02453C1.91557 5.41301 2.41276 4.91582 3.02429 4.60423C3.41503 4.40514 3.83343 4.3244 4.29669 4.28655C4.74425 4.24999 5.29496 4.24999 5.96833 4.25H7.24978C7.24999 3.90573 7.25211 3.60556 7.27268 3.35373C7.29691 3.05722 7.3504 2.76231 7.49499 2.47852C7.71071 2.05516 8.05491 1.71095 8.47828 1.49524C8.76206 1.35064 9.05698 1.29716 9.35349 1.27293C9.6344 1.24998 9.97551 1.24999 10.3708 1.25ZM15.2318 3.47588C15.2471 3.66274 15.2494 3.90117 15.2497 4.25L8.74981 4.25C8.75014 3.90117 8.75244 3.66274 8.7677 3.47588C8.78435 3.27213 8.81261 3.19659 8.8315 3.15951C8.90341 3.01839 9.01814 2.90365 9.15927 2.83175C9.19635 2.81285 9.27189 2.78459 9.47563 2.76795C9.68814 2.75059 9.96734 2.75 10.3998 2.75H13.5998C14.0322 2.75 14.3114 2.75059 14.5239 2.76795C14.7276 2.78459 14.8032 2.81285 14.8403 2.83175C14.9814 2.90365 15.0961 3.01839 15.168 3.15951C15.1869 3.19659 15.2152 3.27213 15.2318 3.47588Z" fill="#000"/>
<path d="M1.74976 15.4131L1.74976 16.8323C1.74975 17.7149 1.74974 18.423 1.79653 18.9956C1.84459 19.5839 1.94577 20.0949 2.18573 20.5659C2.56922 21.3186 3.18115 21.9305 3.93379 22.314C4.40475 22.5539 4.91576 22.6551 5.50409 22.7032C6.07664 22.75 6.78468 22.7499 7.66724 22.7499H16.3321C17.2147 22.7499 17.9229 22.75 18.4954 22.7032C19.0837 22.6551 19.5948 22.5539 20.0657 22.314C20.8184 21.9305 21.4303 21.3186 21.8138 20.5659C22.0537 20.0949 22.1549 19.5839 22.203 18.9956C22.2498 18.423 22.2498 17.715 22.2498 16.8323V15.4132C21.7951 15.6291 21.2866 15.75 20.7498 15.75L14.2499 15.75C14.2499 16.9926 13.2425 18 11.9999 18C10.7573 18 9.74991 16.9926 9.74991 15.75L3.24991 15.75C2.71305 15.75 2.20442 15.6291 1.74976 15.4131Z" fill="#000"/>
<path d="M12.7499 14.25V14.9845L12.7498 15L12.7499 15.0155V15.75C12.7499 16.1642 12.4141 16.5 11.9999 16.5C11.5857 16.5 11.2499 16.1642 11.2499 15.75V14.25C11.2499 13.8358 11.5857 13.5 11.9999 13.5C12.4141 13.5 12.7499 13.8358 12.7499 14.25Z" fill="#000"/>
</svg>
