<svg width="24" height="24" viewBox="0 0 24 24" fill="none" xmlns="http://www.w3.org/2000/svg">
<path fill-rule="evenodd" clip-rule="evenodd" d="M10.3711 1.75H13.6289C14.0242 1.74999 14.3654 1.74998 14.6463 1.77293C14.9428 1.79716 15.2377 1.85064 15.5215 1.99524C15.9448 2.21095 16.2891 2.55516 16.5048 2.97852C16.6494 3.26231 16.7028 3.55722 16.7271 3.85373C16.7477 4.10556 16.7498 4.40573 16.75 4.75H16.9326C17.8851 4.75 18.6456 4.74999 19.2599 4.80018C19.8899 4.85165 20.4318 4.95964 20.9295 5.21323C21.7291 5.62069 22.3793 6.27086 22.7868 7.07054C23.0404 7.56824 23.1483 8.11012 23.1998 8.74014C23.25 9.35438 23.25 10.115 23.25 11.0674L23.25 15.9327C23.25 16.8851 23.25 17.6456 23.1998 18.2599C23.1483 18.8899 23.0404 19.4318 22.7868 19.9295C22.3793 20.7291 21.7291 21.3793 20.9295 21.7868C20.4318 22.0404 19.8899 22.1483 19.2599 22.1998C18.6456 22.25 17.885 22.25 16.9325 22.25H7.06731C6.1149 22.25 5.35438 22.25 4.74013 22.1998C4.11012 22.1483 3.56824 22.0404 3.07054 21.7868C2.27085 21.3793 1.62068 20.7291 1.21322 19.9295C0.959633 19.4318 0.851649 18.8899 0.800175 18.2599C0.749988 17.6456 0.749993 16.8851 0.75 15.9326V11.0674C0.749993 10.1149 0.749988 9.3544 0.800176 8.74013C0.85165 8.11012 0.959634 7.56824 1.21322 7.07054C1.62068 6.27085 2.27085 5.62069 3.07054 5.21322C3.56824 4.95964 4.11012 4.85165 4.74013 4.80018C5.3544 4.74999 6.11494 4.75 7.06739 4.75H7.25002C7.25023 4.40573 7.25235 4.10556 7.27293 3.85373C7.29715 3.55722 7.35064 3.26231 7.49524 2.97852C7.71095 2.55516 8.05516 2.21095 8.47852 1.99524C8.76231 1.85064 9.05722 1.79716 9.35373 1.77293C9.63464 1.74998 9.97576 1.74999 10.3711 1.75ZM15.2321 3.97588C15.2473 4.16274 15.2496 4.40117 15.2499 4.75L8.75006 4.75C8.75039 4.40117 8.75268 4.16274 8.76795 3.97588C8.78459 3.77213 8.81285 3.69659 8.83175 3.65951C8.90365 3.51839 9.01839 3.40365 9.15951 3.33175C9.19659 3.31285 9.27213 3.28459 9.47588 3.26795C9.68838 3.25059 9.96759 3.25 10.4 3.25H13.6C14.0324 3.25 14.3116 3.25059 14.5241 3.26795C14.7279 3.28459 14.8034 3.31285 14.8405 3.33175C14.9816 3.40365 15.0964 3.51839 15.1683 3.65951C15.1872 3.69659 15.2154 3.77213 15.2321 3.97588ZM12.75 9.81235V9.50006C12.75 9.08585 12.4142 8.75006 12 8.75006C11.5858 8.75006 11.25 9.08585 11.25 9.50006V9.81727C10.8274 9.89698 10.4373 10.0497 10.1101 10.2867C9.57343 10.6754 9.24998 11.2636 9.24998 11.9654C9.24998 12.8739 9.75906 13.4448 10.3336 13.7664C10.8608 14.0615 11.4814 14.174 11.8767 14.2398C12.2814 14.3073 12.6608 14.3899 12.9336 14.5426C13.1591 14.6687 13.25 14.7985 13.25 15.0347C13.25 15.2358 13.1734 15.3802 13.0101 15.4985C12.8242 15.6331 12.4935 15.75 12 15.75C11.6594 15.75 11.4608 15.7137 11.2765 15.6406C11.0747 15.5606 10.841 15.4173 10.4527 15.1233C10.1225 14.8732 9.65211 14.9382 9.40206 15.2684C9.15201 15.5986 9.217 16.0691 9.54723 16.3191C9.95895 16.6309 10.3252 16.877 10.7235 17.0349C10.8997 17.1049 11.0734 17.1541 11.25 17.1877V17.5C11.25 17.9143 11.5858 18.25 12 18.25C12.4142 18.25 12.75 17.9143 12.75 17.5V17.1828C13.1725 17.1031 13.5626 16.9504 13.8899 16.7134C14.4265 16.3247 14.75 15.7365 14.75 15.0347C14.75 14.1262 14.2409 13.5553 13.6663 13.2337C13.1391 12.9386 12.5185 12.8261 12.1233 12.7603C11.7185 12.6928 11.3391 12.6102 11.0663 12.4575C10.8409 12.3313 10.75 12.2016 10.75 11.9654C10.75 11.7643 10.8265 11.6199 10.9899 11.5016C11.1757 11.367 11.5065 11.25 12 11.25C12.3406 11.25 12.5392 11.2864 12.7235 11.3595C12.9252 11.4395 13.159 11.5828 13.5472 11.8768C13.8775 12.1269 14.3479 12.0619 14.5979 11.7316C14.848 11.4014 14.783 10.931 14.4527 10.681C14.041 10.3692 13.6747 10.1231 13.2765 9.96513C13.1003 9.89523 12.9266 9.84594 12.75 9.81235ZM17.5 13.5C17.5 12.9477 17.9477 12.5 18.5 12.5C19.0523 12.5 19.5001 12.9477 19.5001 13.5C19.5001 14.0523 19.0524 14.5 18.5001 14.5C17.9478 14.5 17.5 14.0523 17.5 13.5ZM4.5 13.5C4.5 12.9477 4.94772 12.5 5.5 12.5C6.05228 12.5 6.5001 12.9477 6.5001 13.5C6.5001 14.0523 6.05228 14.5 5.5 14.5C4.94772 14.5 4.5 14.0523 4.5 13.5Z" fill="#000"/>
</svg>
