<svg width="24" height="24" viewBox="0 0 24 24" fill="none" xmlns="http://www.w3.org/2000/svg">
<path fill-rule="evenodd" clip-rule="evenodd" d="M10.3711 1.25H13.6289C14.0242 1.24999 14.3654 1.24998 14.6463 1.27293C14.9428 1.29716 15.2377 1.35064 15.5215 1.49524C15.9448 1.71095 16.2891 2.05516 16.5048 2.47852C16.6494 2.76231 16.7028 3.05722 16.7271 3.35373C16.7476 3.60556 16.7498 3.90573 16.75 4.25H18.0314C18.7048 4.24999 19.2555 4.24999 19.7031 4.28655C20.1663 4.3244 20.5847 4.40514 20.9755 4.60423C21.587 4.91582 22.0842 5.41301 22.3958 6.02453C22.5949 6.41527 22.6756 6.83367 22.7134 7.29693C22.75 7.74449 22.75 8.29519 22.75 8.96856V9.99758C22.75 9.99839 22.75 9.9992 22.75 10V11.2934C22.7499 11.7612 22.7488 12.1663 22.7325 12.5155C22.6027 13.4946 21.7646 14.25 20.75 14.25L14.2502 14.25C14.2502 13.0074 13.2428 12 12.0002 12C10.7575 12 9.75015 13.0074 9.75015 14.25L3.25015 14.25C2.235 14.25 1.3965 13.4937 1.26739 12.5138C1.25361 12.2176 1.25074 11.8812 1.25015 11.5005V10C1.25015 9.99489 1.2501 9.9898 1.25 9.98472V8.96856C1.24999 8.2952 1.24999 7.74449 1.28655 7.29693C1.3244 6.83367 1.40514 6.41527 1.60423 6.02453C1.91582 5.41301 2.41301 4.91582 3.02453 4.60423C3.41527 4.40514 3.83367 4.3244 4.29693 4.28655C4.74449 4.24999 5.2952 4.24999 5.96857 4.25H7.25002C7.25023 3.90573 7.25235 3.60556 7.27293 3.35373C7.29715 3.05722 7.35064 2.76231 7.49524 2.47852C7.71095 2.05516 8.05516 1.71095 8.47852 1.49524C8.76231 1.35064 9.05722 1.29716 9.35373 1.27293C9.63464 1.24998 9.97576 1.24999 10.3711 1.25ZM15.2321 3.47588C15.2473 3.66274 15.2496 3.90117 15.2499 4.25L8.75006 4.25C8.75039 3.90117 8.75268 3.66274 8.76795 3.47588C8.78459 3.27213 8.81285 3.19659 8.83175 3.15951C8.90365 3.01839 9.01839 2.90365 9.15951 2.83175C9.19659 2.81285 9.27213 2.78459 9.47588 2.76795C9.68838 2.75059 9.96759 2.75 10.4 2.75H13.6C14.0324 2.75 14.3116 2.75059 14.5241 2.76795C14.7279 2.78459 14.8034 2.81285 14.8405 2.83175C14.9816 2.90365 15.0964 3.01839 15.1683 3.15951C15.1872 3.19659 15.2154 3.27213 15.2321 3.47588Z" fill="#000"/>
<path d="M1.75 15.4131L1.75 16.8323C1.74999 17.7149 1.74999 18.423 1.79677 18.9956C1.84484 19.5839 1.94601 20.0949 2.18597 20.5659C2.56947 21.3186 3.18139 21.9305 3.93404 22.314C4.405 22.5539 4.91601 22.6551 5.50433 22.7032C6.07689 22.75 6.78492 22.7499 7.66749 22.7499H16.3323C17.2149 22.7499 17.9231 22.75 18.4957 22.7032C19.084 22.6551 19.595 22.5539 20.066 22.314C20.8186 21.9305 21.4305 21.3186 21.814 20.5659C22.054 20.0949 22.1552 19.5839 22.2032 18.9956C22.25 18.423 22.25 17.715 22.25 16.8323V15.4132C21.7954 15.6291 21.2868 15.75 20.75 15.75L14.2502 15.75C14.2502 16.9926 13.2428 18 12.0002 18C10.7575 18 9.75015 16.9926 9.75015 15.75L3.25015 15.75C2.71329 15.75 2.20467 15.6291 1.75 15.4131Z" fill="#000"/>
<path d="M12.7502 14.25V14.9845L12.75 15L12.7502 15.0155V15.75C12.7502 16.1642 12.4144 16.5 12.0002 16.5C11.5859 16.5 11.2502 16.1642 11.2502 15.75V14.25C11.2502 13.8358 11.5859 13.5 12.0002 13.5C12.4144 13.5 12.7502 13.8358 12.7502 14.25Z" fill="#000"/>
</svg>
