<svg width="24" height="24" viewBox="0 0 24 24" fill="none" xmlns="http://www.w3.org/2000/svg">
<path d="M7.46967 10.4697C7.76256 10.1768 8.23744 10.1768 8.53033 10.4697L11.5303 13.4697C11.8232 13.7626 11.8232 14.2374 11.5303 14.5303L8.53033 17.5303C8.23744 17.8232 7.76256 17.8232 7.46967 17.5303C7.17678 17.2374 7.17678 16.7626 7.46967 16.4697L9.93934 14L7.46967 11.5303C7.17678 11.2374 7.17678 10.7626 7.46967 10.4697Z" fill="#000"/>
<path d="M12 16.25C11.5858 16.25 11.25 16.5858 11.25 17C11.25 17.4142 11.5858 17.75 12 17.75H17C17.4142 17.75 17.75 17.4142 17.75 17C17.75 16.5858 17.4142 16.25 17 16.25H12Z" fill="#000"/>
<path fill-rule="evenodd" clip-rule="evenodd" d="M4.03273 2.28996C4.52196 2.24999 5.12511 2.24999 5.86819 2.25H18.1318C18.8749 2.24999 19.478 2.24999 19.9673 2.28996C20.4722 2.33121 20.9215 2.41876 21.339 2.63148C21.9975 2.96703 22.533 3.50247 22.8685 4.16103C23.0812 4.57851 23.1688 5.02778 23.21 5.53273C23.25 6.02195 23.25 6.62507 23.25 7.36811V16.6318C23.25 17.3748 23.25 17.9781 23.21 18.4673C23.1688 18.9722 23.0812 19.4215 22.8685 19.839C22.533 20.4975 21.9975 21.033 21.339 21.3685C20.9215 21.5812 20.4722 21.6688 19.9673 21.71C19.4781 21.75 18.8749 21.75 18.1319 21.75H5.86819C5.12515 21.75 4.52195 21.75 4.03273 21.71C3.52778 21.6688 3.07851 21.5812 2.66103 21.3685C2.00247 21.033 1.46703 20.4975 1.13148 19.839C0.918762 19.4215 0.831214 18.9722 0.789958 18.4673C0.749986 17.978 0.749993 17.3749 0.75 16.6318V7.36821C0.749993 6.62513 0.749986 6.02196 0.789958 5.53273C0.831214 5.02778 0.918762 4.57851 1.13148 4.16103C1.46703 3.50247 2.00247 2.96703 2.66103 2.63148C3.07851 2.41876 3.52778 2.33121 4.03273 2.28996ZM2.25 8.75V16.6C2.25 17.3824 2.25058 17.9242 2.28498 18.3451C2.31865 18.7573 2.38097 18.9872 2.46799 19.158C2.65973 19.5343 2.9657 19.8403 3.34202 20.032C3.5128 20.119 3.74269 20.1813 4.15488 20.215C4.57582 20.2494 5.11755 20.25 5.9 20.25H18.1C18.8824 20.25 19.4242 20.2494 19.8451 20.215C20.2573 20.1813 20.4872 20.119 20.658 20.032C21.0343 19.8403 21.3403 19.5343 21.532 19.158C21.619 18.9872 21.6813 18.7573 21.715 18.3451C21.7494 17.9242 21.75 17.3824 21.75 16.6V8.75H2.25Z" fill="#000"/>
</svg>
