<svg width="24" height="24" viewBox="0 0 24 24" fill="none" xmlns="http://www.w3.org/2000/svg">
<path d="M10.1303 11.5696C10.4232 11.8625 10.4232 12.3374 10.1303 12.6303L8.26067 14.5L10.1303 16.3696C10.4232 16.6625 10.4232 17.1374 10.1303 17.4303C9.83745 17.7232 9.36258 17.7232 9.06968 17.4303L6.66968 15.0303C6.37679 14.7374 6.37679 14.2625 6.66968 13.9696L9.06968 11.5696C9.36258 11.2768 9.83745 11.2768 10.1303 11.5696Z" fill="#000"/>
<path d="M13.8697 11.5696C14.1626 11.2768 14.6375 11.2768 14.9304 11.5696L17.3304 13.9696C17.6232 14.2625 17.6232 14.7374 17.3304 15.0303L14.9304 17.4303C14.6375 17.7232 14.1626 17.7232 13.8697 17.4303C13.5768 17.1374 13.5768 16.6625 13.8697 16.3696L15.7394 14.5L13.8697 12.6303C13.5768 12.3374 13.5768 11.8625 13.8697 11.5696Z" fill="#000"/>
<path fill-rule="evenodd" clip-rule="evenodd" d="M5.86819 2.25C5.12511 2.24999 4.52196 2.24999 4.03273 2.28996C3.52778 2.33121 3.07851 2.41876 2.66103 2.63148C2.00247 2.96703 1.46703 3.50247 1.13148 4.16103C0.918762 4.57851 0.831214 5.02778 0.789958 5.53273C0.749986 6.02196 0.749993 6.62512 0.75 7.3682V16.6318C0.749993 17.3749 0.749986 17.978 0.789958 18.4673C0.831214 18.9722 0.918762 19.4215 1.13148 19.839C1.46703 20.4975 2.00247 21.033 2.66103 21.3685C3.07851 21.5812 3.52778 21.6688 4.03273 21.71C4.52195 21.75 5.12515 21.75 5.86819 21.75H18.1319C18.8749 21.75 19.4781 21.75 19.9673 21.71C20.4722 21.6688 20.9215 21.5812 21.339 21.3685C21.9975 21.033 22.533 20.4975 22.8685 19.839C23.0812 19.4215 23.1688 18.9722 23.21 18.4673C23.25 17.9781 23.25 17.3748 23.25 16.6318V7.36811C23.25 6.62507 23.25 6.02195 23.21 5.53273C23.1688 5.02778 23.0812 4.57851 22.8685 4.16103C22.533 3.50247 21.9975 2.96703 21.339 2.63148C20.9215 2.41876 20.4722 2.33121 19.9673 2.28996C19.478 2.24999 18.8749 2.24999 18.1318 2.25H5.86819ZM2.25 16.6V8.75H21.75V16.6C21.75 17.3824 21.7494 17.9242 21.715 18.3451C21.6813 18.7573 21.619 18.9872 21.532 19.158C21.3403 19.5343 21.0343 19.8403 20.658 20.032C20.4872 20.119 20.2573 20.1813 19.8451 20.215C19.4242 20.2494 18.8824 20.25 18.1 20.25H5.9C5.11755 20.25 4.57582 20.2494 4.15488 20.215C3.74269 20.1813 3.5128 20.119 3.34202 20.032C2.9657 19.8403 2.65973 19.5343 2.46799 19.158C2.38097 18.9872 2.31865 18.7573 2.28498 18.3451C2.25058 17.9242 2.25 17.3824 2.25 16.6Z" fill="#000"/>
</svg>
