<svg width="24" height="24" viewBox="0 0 24 24" fill="none" xmlns="http://www.w3.org/2000/svg">
<path d="M8.25 5C8.25 2.92893 9.92893 1.25 12 1.25C14.0711 1.25 15.75 2.92893 15.75 5V6C15.75 6.41421 15.4142 6.75 15 6.75H9C8.58579 6.75 8.25 6.41421 8.25 6V5Z" fill="#000"/>
<path d="M9.2239 7.75H14.7761C15.3364 7.74999 15.7946 7.74999 16.1689 7.77553C16.5558 7.80192 16.9074 7.85808 17.2437 7.99739C18.0401 8.32725 18.6728 8.95994 19.0026 9.75628C19.0274 9.81603 19.0495 9.87626 19.0693 9.93708C19.8182 9.46127 20.25 8.50975 20.25 7.49986C20.25 7.08565 20.5858 6.74986 21 6.74986C21.4142 6.74986 21.75 7.08565 21.75 7.49986C21.75 9.03472 20.9748 10.8736 19.2476 11.5217C19.25 11.7353 19.25 11.9682 19.25 12.222V14.25H22C22.4142 14.25 22.75 14.5858 22.75 15C22.75 15.4142 22.4142 15.75 22 15.75H19.2458C19.2266 16.3166 19.1424 16.8667 19.0004 17.3931C19.7937 17.6303 20.4151 18.1394 20.8566 18.7464C21.4561 19.5708 21.75 20.6026 21.75 21.5C21.75 21.9142 21.4142 22.25 21 22.25C20.5858 22.25 20.25 21.9142 20.25 21.5C20.25 20.8974 20.0439 20.1792 19.6434 19.6286C19.3433 19.216 18.9511 18.9152 18.4568 18.8008C17.4042 20.8556 15.3996 22.342 13.0251 22.6781C12.8783 22.6989 12.75 22.5828 12.75 22.4347V13C12.75 12.5858 12.4142 12.25 12 12.25C11.5858 12.25 11.25 12.5858 11.25 13V22.4347C11.25 22.5828 11.1217 22.6989 10.9749 22.6781C8.60039 22.342 6.59579 20.8556 5.54325 18.8008C5.04891 18.9152 4.65668 19.216 4.35655 19.6286C3.95611 20.1792 3.75 20.8974 3.75 21.5C3.75 21.9142 3.41421 22.25 3 22.25C2.58579 22.25 2.25 21.9142 2.25 21.5C2.25 20.6026 2.54389 19.5708 3.14345 18.7464C3.58491 18.1394 4.20632 17.6302 4.99964 17.3931C4.85764 16.8667 4.77343 16.3166 4.75423 15.75H2C1.58579 15.75 1.25 15.4142 1.25 15C1.25 14.5858 1.58579 14.25 2 14.25H4.75L4.75 12.2239C4.75 11.9694 4.75 11.7358 4.75239 11.5217C3.0252 10.8736 2.25 9.03472 2.25 7.49986C2.25 7.08565 2.58579 6.74986 3 6.74986C3.41421 6.74986 3.75 7.08565 3.75 7.49986C3.75 8.50975 4.18183 9.46127 4.93072 9.93708C4.95052 9.87626 4.97264 9.81603 4.99739 9.75628C5.32725 8.95994 5.95994 8.32725 6.75628 7.99739C7.09261 7.85808 7.44423 7.80192 7.83106 7.77553C8.20534 7.74999 8.66365 7.74999 9.2239 7.75Z" fill="#000"/>
</svg>
