<svg width="24" height="24" viewBox="0 0 24 24" fill="none" xmlns="http://www.w3.org/2000/svg">
<path fill-rule="evenodd" clip-rule="evenodd" d="M5.36821 1.25H12.6318C13.3749 1.24999 13.978 1.24999 14.4673 1.28996C14.9722 1.33121 15.4215 1.41876 15.839 1.63148C16.4975 1.96704 17.033 2.50247 17.3685 3.16103C17.5812 3.57851 17.6688 4.02778 17.71 4.53273C17.75 5.02195 17.75 5.62515 17.75 6.36819V10.2178C17.75 10.5706 17.5041 10.8757 17.1593 10.9507C16.0988 11.1812 15.1018 11.6065 14.3848 12.2243C13.6864 12.8262 13.25 13.6091 13.25 14.6385C13.25 15.4596 13.2503 16.3058 13.2507 17.1519C13.251 17.9977 13.2514 18.8437 13.2514 19.6645C13.2514 20.4305 13.4681 21.0572 13.8234 21.5746L13.8274 21.5804C13.8971 21.6838 13.9418 21.8055 13.9526 21.9369C13.9556 21.9733 13.956 22.0099 13.9537 22.0463C13.9295 22.4372 13.6058 22.7475 13.2085 22.7493C13.0193 22.7501 12.8169 22.7501 12.6014 22.7501H5.39997L5.36811 22.75C4.62507 22.75 4.02195 22.75 3.53273 22.71C3.02778 22.6688 2.57851 22.5812 2.16104 22.3685C1.50247 22.033 0.967035 21.4975 0.631479 20.839C0.418762 20.4215 0.331215 19.9722 0.289959 19.4673C0.249988 18.978 0.249993 18.3749 0.25 17.6318V6.36819C0.249993 5.62513 0.249987 5.02196 0.289959 4.53273C0.331215 4.02778 0.418762 3.57851 0.631479 3.16103C0.967036 2.50247 1.50247 1.96704 2.16103 1.63148C2.57851 1.41876 3.02778 1.33121 3.53273 1.28996C4.02196 1.24999 4.62515 1.24999 5.36821 1.25ZM6.25 21.2501H11.75V16.5C11.75 15.9477 11.3023 15.5 10.75 15.5H7.25C6.69772 15.5 6.25 15.9477 6.25 16.5V21.2501ZM12.75 6.5C12.75 6.91421 12.4142 7.25 12 7.25H11C10.5858 7.25 10.25 6.91421 10.25 6.5C10.25 6.08579 10.5858 5.75 11 5.75H12C12.4142 5.75 12.75 6.08579 12.75 6.5ZM12 10.25C12.4142 10.25 12.75 9.91421 12.75 9.5C12.75 9.08579 12.4142 8.75 12 8.75H11C10.5858 8.75 10.25 9.08579 10.25 9.5C10.25 9.91421 10.5858 10.25 11 10.25H12ZM12 13.25C12.4142 13.25 12.75 12.9142 12.75 12.5C12.75 12.0858 12.4142 11.75 12 11.75H11C10.5858 11.75 10.25 12.0858 10.25 12.5C10.25 12.9142 10.5858 13.25 11 13.25H12ZM7 10.25C7.41421 10.25 7.75 9.91421 7.75 9.5C7.75 9.08579 7.41421 8.75 7 8.75H6C5.58579 8.75 5.25 9.08579 5.25 9.5C5.25 9.91421 5.58579 10.25 6 10.25H7ZM7.75 6.5C7.75 6.91421 7.41421 7.25 7 7.25H6C5.58579 7.25 5.25 6.91421 5.25 6.5C5.25 6.08579 5.58579 5.75 6 5.75H7C7.41421 5.75 7.75 6.08579 7.75 6.5ZM7 13.25C7.41421 13.25 7.75 12.9142 7.75 12.5C7.75 12.0858 7.41421 11.75 7 11.75H6C5.58579 11.75 5.25 12.0858 5.25 12.5C5.25 12.9142 5.58579 13.25 6 13.25H7Z" fill="#000"/>
<path fill-rule="evenodd" clip-rule="evenodd" d="M23.625 14.5008C23.625 13.5836 22.8995 12.9205 22.1086 12.5239C21.2807 12.1088 20.1808 11.8701 19 11.8701C17.8192 11.8701 16.7193 12.1088 15.8914 12.5239C15.1005 12.9205 14.375 13.5836 14.375 14.5008C14.375 15.3805 14.3754 16.26 14.3757 17.1396L14.3757 17.1465C14.3761 18.0238 14.3765 18.9012 14.3765 19.7786C14.3765 20.7773 15.044 21.5043 15.8797 21.9482C16.7182 22.3936 17.8261 22.6204 19.001 22.6204C20.1758 22.6204 21.2838 22.3936 22.1223 21.9482C22.958 21.5043 23.6255 20.7773 23.6255 19.7786L23.6253 18.5367C23.6252 17.1914 23.625 15.8461 23.625 14.5008ZM22.3755 19.271C21.3866 19.8956 20.151 20.0902 19.0005 20.0902C17.8502 20.0902 16.6152 19.8957 15.6265 19.2716V19.7786C15.6265 20.138 15.8543 20.5193 16.4661 20.8443C17.0751 21.1678 17.967 21.3704 19.001 21.3704C20.035 21.3704 20.9268 21.1678 21.5359 20.8443C22.1477 20.5193 22.3755 20.138 22.3755 19.7786L22.3755 19.271ZM15.6265 17.278C15.6388 17.6287 15.8706 17.9981 16.4656 18.3141C17.0746 18.6376 17.9664 18.8402 19.0005 18.8402C20.0345 18.8402 20.9263 18.6376 21.5354 18.3141C22.1472 17.9892 22.375 17.6078 22.375 17.2484L22.3749 16.3322C21.374 16.9282 20.1497 17.1316 19 17.1316C17.8506 17.1316 16.6267 16.9283 15.6259 16.3327L15.6265 17.278Z" fill="#000"/>
</svg>
