<svg width="24" height="24" viewBox="0 0 24 24" fill="none" xmlns="http://www.w3.org/2000/svg">
<path d="M12.75 2C12.75 1.58579 12.4142 1.25 12 1.25C6.06294 1.25 1.25 6.06294 1.25 12C1.25 17.9371 6.06294 22.75 12 22.75C17.9371 22.75 22.75 17.9371 22.75 12C22.75 11.5858 22.4142 11.25 22 11.25C21.5858 11.25 21.25 11.5858 21.25 12C21.25 17.1086 17.1086 21.25 12 21.25C6.89137 21.25 2.75 17.1086 2.75 12C2.75 6.89137 6.89137 2.75 12 2.75C12.4142 2.75 12.75 2.41421 12.75 2Z" fill="#000"/>
<path d="M11.7349 6.95044C11.6525 6.5445 11.2567 6.28222 10.8507 6.36462C8.22583 6.89745 6.24993 9.21694 6.24993 11.9996C6.24993 15.1753 8.82429 17.7496 11.9999 17.7496C14.7826 17.7496 17.1021 15.7737 17.6349 13.1488C17.7173 12.7429 17.455 12.347 17.0491 12.2646C16.6432 12.1822 16.2473 12.4445 16.1649 12.8504C15.7712 14.79 14.0552 16.2496 11.9999 16.2496C9.65272 16.2496 7.74993 14.3468 7.74993 11.9996C7.74993 9.94437 9.20954 8.22836 11.1491 7.83464C11.5551 7.75224 11.8173 7.35637 11.7349 6.95044Z" fill="#000"/>
<path d="M14.5 8.43934V5.62132C14.5 5.09089 14.7107 4.58218 15.0858 4.20711L17.2197 2.07322C17.6921 1.60075 18.5 1.93538 18.5 2.60355V5.44095C18.5103 5.45019 18.5204 5.45976 18.5303 5.46967C18.5402 5.47958 18.5498 5.48969 18.559 5.5H21.3964C22.0646 5.5 22.3993 6.30786 21.9268 6.78033L19.7929 8.91421C19.4178 9.28929 18.9091 9.5 18.3787 9.5H15.5607L12.5303 12.5303C12.2374 12.8232 11.7626 12.8232 11.4697 12.5303C11.1768 12.2374 11.1768 11.7626 11.4697 11.4697L14.5 8.43934Z" fill="#000"/>
</svg>
