<svg width="24" height="24" viewBox="0 0 24 24" fill="none" xmlns="http://www.w3.org/2000/svg">
<path fill-rule="evenodd" clip-rule="evenodd" d="M21.25 16.8383V12.122C22.1239 11.8131 22.75 10.9797 22.75 10C22.75 9.02034 22.1239 8.18691 21.25 7.87803V3.16171C21.25 2.1059 20.3941 1.25 19.3383 1.25C18.9747 1.25 18.6187 1.35368 18.3119 1.54887L16.1683 2.91302C14.283 4.11276 12.0947 4.75 9.85999 4.75H6.5C3.60051 4.75 1.25 7.10051 1.25 10C1.25 12.8995 3.60051 15.25 6.5 15.25H6.68253L8.36842 21.5721C8.51433 22.1193 9.0099 22.5 9.57621 22.5H11.25C11.9404 22.5 12.5 21.9404 12.5 21.25V15.5504C13.795 15.849 15.0363 16.3666 16.1683 17.087L18.3119 18.4511C18.6187 18.6463 18.9747 18.75 19.3383 18.75C20.3941 18.75 21.25 17.8941 21.25 16.8383ZM19.3383 2.75C19.26 2.75 19.1833 2.77233 19.1173 2.81437L16.9736 4.17851C15.6717 5.00698 14.2417 5.59759 12.75 5.93099V14.069C14.2417 14.4024 15.6717 14.993 16.9736 15.8215L19.1173 17.1856C19.1833 17.2277 19.26 17.25 19.3383 17.25C19.5657 17.25 19.75 17.0657 19.75 16.8383V3.16171C19.75 2.93433 19.5657 2.75 19.3383 2.75Z" fill="#000"/>
</svg>
