<svg width="24" height="24" viewBox="0 0 24 24" fill="none" xmlns="http://www.w3.org/2000/svg">
<path fill-rule="evenodd" clip-rule="evenodd" d="M7.7679 1.25H16.2321C17.0449 1.24999 17.7006 1.24999 18.2315 1.29336C18.7781 1.33803 19.2582 1.43239 19.7025 1.65873C20.4081 2.01825 20.9817 2.59193 21.3413 3.29754C21.5676 3.74176 21.662 4.2219 21.7066 4.76853C21.75 5.29944 21.75 5.95505 21.75 6.76788V10.85C21.75 10.99 21.75 11.06 21.7228 11.1135C21.6988 11.1605 21.6605 11.1988 21.6135 11.2228C21.56 11.25 21.49 11.25 21.35 11.25H2.65C2.50999 11.25 2.43998 11.25 2.3865 11.2228C2.33946 11.1988 2.30122 11.1605 2.27725 11.1135C2.25 11.06 2.25 10.99 2.25 10.85V6.76788C2.24999 5.95505 2.24999 5.29944 2.29336 4.76853C2.33803 4.2219 2.43239 3.74176 2.65873 3.29754C3.01825 2.59193 3.59193 2.01825 4.29754 1.65873C4.74176 1.43239 5.2219 1.33803 5.76853 1.29336C6.29944 1.24999 6.95506 1.24999 7.7679 1.25ZM9.25 5.25C9.66421 5.25 10 5.58579 10 6V6.75H14V6C14 5.58579 14.3358 5.25 14.75 5.25C15.1642 5.25 15.5 5.58579 15.5 6V7C15.5 7.69036 14.9404 8.25 14.25 8.25H9.75C9.05964 8.25 8.5 7.69036 8.5 7V6C8.5 5.58579 8.83579 5.25 9.25 5.25Z" fill="#000"/>
<path fill-rule="evenodd" clip-rule="evenodd" d="M2.65 12.75C2.50999 12.75 2.43998 12.75 2.3865 12.7772C2.33946 12.8012 2.30122 12.8395 2.27725 12.8865C2.25 12.94 2.25 13.01 2.25 13.15V17.2321C2.24999 18.0449 2.24999 18.7006 2.29336 19.2315C2.33803 19.7781 2.43239 20.2582 2.65873 20.7025C3.01825 21.4081 3.59193 21.9817 4.29754 22.3413C4.74176 22.5676 5.2219 22.662 5.76853 22.7066C6.29944 22.75 6.95505 22.75 7.76788 22.75H16.2321C17.045 22.75 17.7006 22.75 18.2315 22.7066C18.7781 22.662 19.2582 22.5676 19.7025 22.3413C20.4081 21.9817 20.9817 21.4081 21.3413 20.7025C21.5676 20.2582 21.662 19.7781 21.7066 19.2315C21.75 18.7006 21.75 18.045 21.75 17.2321V13.15C21.75 13.01 21.75 12.94 21.7228 12.8865C21.6988 12.8395 21.6605 12.8012 21.6135 12.7772C21.56 12.75 21.49 12.75 21.35 12.75H2.65ZM9.25 15.75C9.66421 15.75 10 16.0858 10 16.5V17.25H14V16.5C14 16.0858 14.3358 15.75 14.75 15.75C15.1642 15.75 15.5 16.0858 15.5 16.5V17.5C15.5 18.1904 14.9404 18.75 14.25 18.75H9.75C9.05964 18.75 8.5 18.1904 8.5 17.5V16.5C8.5 16.0858 8.83579 15.75 9.25 15.75Z" fill="#000"/>
</svg>
