<svg width="24" height="24" viewBox="0 0 24 24" fill="none" xmlns="http://www.w3.org/2000/svg">
<path fill-rule="evenodd" clip-rule="evenodd" d="M11.5 1.25H6.7679C5.95507 1.24999 5.29944 1.24999 4.76853 1.29336C4.2219 1.33803 3.74176 1.43239 3.29754 1.65873C2.59193 2.01825 2.01825 2.59193 1.65873 3.29754C1.43239 3.74176 1.33803 4.2219 1.29336 4.76853C1.24999 5.29944 1.24999 5.95504 1.25 6.76787V11.5H11.5V1.25ZM9.25 6.5C9.25 6.91421 8.91421 7.25 8.5 7.25H4.5C4.08579 7.25 3.75 6.91421 3.75 6.5C3.75 6.08579 4.08579 5.75 4.5 5.75H8.5C8.91421 5.75 9.25 6.08579 9.25 6.5Z" fill="#000"/>
<path fill-rule="evenodd" clip-rule="evenodd" d="M1.25 12.5V17.2321C1.24999 18.0449 1.24999 18.7006 1.29336 19.2315C1.33803 19.7781 1.43239 20.2582 1.65873 20.7025C2.01825 21.4081 2.59193 21.9817 3.29754 22.3413C3.74176 22.5676 4.2219 22.662 4.76853 22.7066C5.29944 22.75 5.95505 22.75 6.76788 22.75H11.5V12.5H1.25ZM8.53033 16.5303C8.82322 16.2374 8.82322 15.7626 8.53033 15.4697C8.23744 15.1768 7.76256 15.1768 7.46967 15.4697L6.5 16.4393L5.53033 15.4697C5.23744 15.1768 4.76256 15.1768 4.46967 15.4697C4.17678 15.7626 4.17678 16.2374 4.46967 16.5303L5.43934 17.5L4.46967 18.4697C4.17678 18.7626 4.17678 19.2374 4.46967 19.5303C4.76256 19.8232 5.23744 19.8232 5.53033 19.5303L6.5 18.5607L7.46967 19.5303C7.76256 19.8232 8.23744 19.8232 8.53033 19.5303C8.82322 19.2374 8.82322 18.7626 8.53033 18.4697L7.56066 17.5L8.53033 16.5303Z" fill="#000"/>
<path fill-rule="evenodd" clip-rule="evenodd" d="M12.5 22.75H17.2321C18.045 22.75 18.7006 22.75 19.2315 22.7066C19.7781 22.662 20.2582 22.5676 20.7025 22.3413C21.4081 21.9817 21.9817 21.4081 22.3413 20.7025C22.5676 20.2582 22.662 19.7781 22.7066 19.2315C22.75 18.7006 22.75 18.045 22.75 17.2321V12.5H12.5V22.75ZM20.25 16.25C20.25 16.6642 19.9142 17 19.5 17H15.5C15.0858 17 14.75 16.6642 14.75 16.25C14.75 15.8358 15.0858 15.5 15.5 15.5H19.5C19.9142 15.5 20.25 15.8358 20.25 16.25ZM19.5 19.5C19.9142 19.5 20.25 19.1642 20.25 18.75C20.25 18.3358 19.9142 18 19.5 18H15.5C15.0858 18 14.75 18.3358 14.75 18.75C14.75 19.1642 15.0858 19.5 15.5 19.5H19.5Z" fill="#000"/>
<path fill-rule="evenodd" clip-rule="evenodd" d="M22.75 11.5V6.76788C22.75 5.95505 22.75 5.29944 22.7066 4.76853C22.662 4.2219 22.5676 3.74176 22.3413 3.29754C21.9817 2.59193 21.4081 2.01825 20.7025 1.65873C20.2582 1.43239 19.7781 1.33803 19.2315 1.29336C18.7006 1.24999 18.045 1.24999 17.2321 1.25H12.5V11.5H22.75ZM16.75 8.5C16.75 8.91421 17.0858 9.25 17.5 9.25C17.9142 9.25 18.25 8.91421 18.25 8.5V7.25H19.5C19.9142 7.25 20.25 6.91421 20.25 6.5C20.25 6.08579 19.9142 5.75 19.5 5.75H18.25V4.5C18.25 4.08579 17.9142 3.75 17.5 3.75C17.0858 3.75 16.75 4.08579 16.75 4.5V5.75H15.5C15.0858 5.75 14.75 6.08579 14.75 6.5C14.75 6.91421 15.0858 7.25 15.5 7.25H16.75V8.5Z" fill="#000"/>
</svg>
