<svg width="24" height="24" viewBox="0 0 24 24" fill="none" xmlns="http://www.w3.org/2000/svg">
<path d="M8.75 1C8.75 0.585786 8.41421 0.25 8 0.25C7.58579 0.25 7.25 0.585786 7.25 1V2.25007C6.44395 2.25064 5.78458 2.25569 5.24013 2.30018C4.61012 2.35165 4.06824 2.45963 3.57054 2.71322C2.77085 3.12068 2.12069 3.77085 1.71322 4.57054C1.45963 5.06824 1.35165 5.61012 1.30018 6.24013C1.27356 6.56592 1.26106 6.93286 1.25519 7.34774C1.25322 7.48727 1.25223 7.55704 1.2792 7.61129C1.30278 7.65873 1.34151 7.69801 1.38862 7.72227C1.44248 7.75 1.51286 7.75 1.65363 7.75H22.3464C22.4871 7.75 22.5575 7.75 22.6114 7.72227C22.6585 7.69801 22.6972 7.65873 22.7208 7.61129C22.7478 7.55704 22.7468 7.48727 22.7448 7.34774C22.7389 6.93286 22.7264 6.56592 22.6998 6.24013C22.6483 5.61012 22.5404 5.06824 22.2868 4.57054C21.8793 3.77085 21.2291 3.12068 20.4295 2.71322C19.9318 2.45963 19.3899 2.35165 18.7599 2.30018C18.2154 2.25569 17.556 2.25064 16.75 2.25007V1C16.75 0.585786 16.4142 0.25 16 0.25C15.5858 0.25 15.25 0.585786 15.25 1V2.25H8.75V1Z" fill="#000"/>
<path fill-rule="evenodd" clip-rule="evenodd" d="M1.3865 9.27725C1.43998 9.25 1.50999 9.25 1.65 9.25H22.35C22.49 9.25 22.56 9.25 22.6135 9.27725C22.6605 9.30122 22.6988 9.33946 22.7228 9.3865C22.75 9.43998 22.75 9.50999 22.75 9.65V17.4327C22.75 18.3851 22.75 19.1456 22.6998 19.7599C22.6483 20.3899 22.5404 20.9318 22.2868 21.4295C21.8793 22.2291 21.2291 22.8793 20.4295 23.2868C19.9318 23.5404 19.3899 23.6483 18.7599 23.6998C18.1456 23.75 17.385 23.75 16.4326 23.75H7.5673C6.6149 23.75 5.85438 23.75 5.24013 23.6998C4.61012 23.6483 4.06824 23.5404 3.57054 23.2868C2.77085 22.8793 2.12069 22.2291 1.71322 21.4295C1.45963 20.9318 1.35165 20.3899 1.30018 19.7599C1.24999 19.1456 1.24999 18.3851 1.25 17.4326V9.65C1.25 9.50999 1.25 9.43998 1.27725 9.3865C1.30122 9.33946 1.33946 9.30122 1.3865 9.27725ZM8.96966 19.0303C8.67677 18.7374 8.67677 18.2625 8.96966 17.9696L10.9393 16L8.9697 14.0303C8.67681 13.7375 8.67681 13.2626 8.9697 12.9697C9.26259 12.6768 9.73747 12.6768 10.0304 12.9697L12 14.9393L13.9696 12.9697C14.2625 12.6768 14.7374 12.6768 15.0303 12.9697C15.3232 13.2626 15.3232 13.7374 15.0303 14.0303L13.0607 16L15.0303 17.9697C15.3232 18.2626 15.3232 18.7374 15.0303 19.0303C14.7374 19.3232 14.2626 19.3232 13.9697 19.0303L12 17.0606L10.0303 19.0303C9.73743 19.3232 9.26255 19.3232 8.96966 19.0303Z" fill="#000"/>
</svg>
