<svg width="24" height="24" viewBox="0 0 24 24" fill="none" xmlns="http://www.w3.org/2000/svg">
<path d="M8.75 1C8.75 0.585786 8.41421 0.25 8 0.25C7.58579 0.25 7.25 0.585786 7.25 1V2.25007C6.44395 2.25064 5.78458 2.25569 5.24013 2.30018C4.61012 2.35165 4.06824 2.45963 3.57054 2.71322C2.77085 3.12068 2.12069 3.77085 1.71322 4.57054C1.45963 5.06824 1.35165 5.61012 1.30018 6.24013C1.27356 6.56592 1.26106 6.93286 1.25519 7.34774C1.25322 7.48727 1.25223 7.55704 1.2792 7.61129C1.30278 7.65873 1.34151 7.69801 1.38862 7.72227C1.44248 7.75 1.51286 7.75 1.65363 7.75H22.3464C22.4871 7.75 22.5575 7.75 22.6114 7.72227C22.6585 7.69801 22.6972 7.65873 22.7208 7.61129C22.7478 7.55704 22.7468 7.48727 22.7448 7.34774C22.7389 6.93286 22.7264 6.56592 22.6998 6.24013C22.6483 5.61012 22.5404 5.06824 22.2868 4.57054C21.8793 3.77085 21.2291 3.12068 20.4295 2.71322C19.9318 2.45963 19.3899 2.35165 18.7599 2.30018C18.2154 2.25569 17.556 2.25064 16.75 2.25007V1C16.75 0.585786 16.4142 0.25 16 0.25C15.5858 0.25 15.25 0.585786 15.25 1V2.25H8.75V1Z" fill="#000"/>
<path fill-rule="evenodd" clip-rule="evenodd" d="M1.3865 9.27725C1.43998 9.25 1.50999 9.25 1.65 9.25H22.35C22.49 9.25 22.56 9.25 22.6135 9.27725C22.6605 9.30122 22.6988 9.33946 22.7228 9.3865C22.75 9.43998 22.75 9.50999 22.75 9.65V17.4327C22.75 18.3851 22.75 19.1456 22.6998 19.7599C22.6483 20.3899 22.5404 20.9318 22.2868 21.4295C21.8793 22.2291 21.2291 22.8793 20.4295 23.2868C19.9318 23.5404 19.3899 23.6483 18.7599 23.6998C18.1456 23.75 17.385 23.75 16.4326 23.75H7.5673C6.6149 23.75 5.85438 23.75 5.24013 23.6998C4.61012 23.6483 4.06824 23.5404 3.57054 23.2868C2.77085 22.8793 2.12069 22.2291 1.71322 21.4295C1.45963 20.9318 1.35165 20.3899 1.30018 19.7599C1.24999 19.1456 1.24999 18.3851 1.25 17.4326V9.65C1.25 9.50999 1.25 9.43998 1.27725 9.3865C1.30122 9.33946 1.33946 9.30122 1.3865 9.27725ZM6.5 13.5C6.5 12.9477 6.94772 12.5 7.5 12.5C8.05228 12.5 8.5001 12.9477 8.5001 13.5C8.5001 14.0523 8.05228 14.5 7.5 14.5C6.94772 14.5 6.5 14.0523 6.5 13.5ZM11 13.5C11 12.9477 11.4477 12.5 12 12.5C12.5523 12.5 13.0001 12.9477 13.0001 13.5C13.0001 14.0523 12.5523 14.5 12 14.5C11.4477 14.5 11 14.0523 11 13.5ZM15.5 13.5C15.5 12.9477 15.9477 12.5 16.5 12.5C17.0523 12.5 17.5001 12.9477 17.5001 13.5C17.5001 14.0523 17.0524 14.5 16.5001 14.5C15.9478 14.5 15.5 14.0523 15.5 13.5ZM6.5 17.5C6.5 16.9477 6.94772 16.5 7.5 16.5C8.05228 16.5 8.5001 16.9477 8.5001 17.5C8.5001 18.0523 8.05228 18.5 7.5 18.5C6.94772 18.5 6.5 18.0523 6.5 17.5ZM11 17.5C11 16.9477 11.4477 16.5 12 16.5C12.5523 16.5 13.0001 16.9477 13.0001 17.5C13.0001 18.0523 12.5524 18.5 12.0001 18.5C11.4478 18.5 11 18.0523 11 17.5ZM15.5 17.5C15.5 16.9477 15.9477 16.5 16.5 16.5C17.0523 16.5 17.5001 16.9477 17.5001 17.5C17.5001 18.0523 17.0523 18.5 16.5 18.5C15.9477 18.5 15.5 18.0523 15.5 17.5Z" fill="#000"/>
</svg>
