<svg width="24" height="24" viewBox="0 0 24 24" fill="none" xmlns="http://www.w3.org/2000/svg">
<path fill-rule="evenodd" clip-rule="evenodd" d="M2.53033 1.46967C2.23744 1.17678 1.76256 1.17678 1.46967 1.46967C1.17678 1.76256 1.17678 2.23744 1.46967 2.53033L3.47891 4.53957C3.33895 4.58822 3.2031 4.64548 3.07054 4.71303C2.27085 5.12049 1.62068 5.77066 1.21322 6.57035C0.959634 7.06804 0.85165 7.60992 0.800176 8.23994C0.749989 8.8542 0.749994 9.61474 0.75 10.5672V15.4324C0.749994 16.3849 0.749989 17.1454 0.800176 17.7597C0.85165 18.3897 0.959634 18.9316 1.21322 19.4293C1.62068 20.229 2.27085 20.8791 3.07054 21.2866C3.56824 21.5402 4.11012 21.6482 4.74013 21.6996C5.35438 21.7498 6.1149 21.7498 7.0673 21.7498H16.9326C17.885 21.7498 18.6456 21.7498 19.2599 21.6996C19.6855 21.6649 20.071 21.6043 20.4298 21.4904L21.4697 22.5303C21.7626 22.8232 22.2374 22.8232 22.5303 22.5303C22.8232 22.2374 22.8232 21.7626 22.5303 21.4697L21.1389 20.0782C21.1388 20.0782 21.139 20.0783 21.1389 20.0782L5.56184 4.50118C5.56171 4.50105 5.56197 4.50131 5.56184 4.50118L2.53033 1.46967ZM8.61114 9.6718C7.76958 10.5285 7.25 11.7032 7.25 13C7.25 15.6234 9.37665 17.75 12 17.75C13.2968 17.75 14.4715 17.2304 15.3282 16.3889L14.2677 15.3283C13.6817 15.899 12.8815 16.25 12 16.25C10.2051 16.25 8.75 14.7949 8.75 13C8.75 12.1185 9.10103 11.3183 9.67168 10.7323L8.61114 9.6718Z" fill="#000"/>
<path d="M9.78905 1.75C9.04813 1.75 8.3547 2.11476 7.93495 2.72531L7.36345 3.55658C7.15863 3.85451 7.1955 4.25616 7.45115 4.51181L21.8327 18.8933C22.0279 19.0886 22.3146 19.1607 22.579 19.0812C22.8434 19.0017 23.0427 18.7834 23.0979 18.5129C23.2502 17.7661 23.2501 16.803 23.25 15.494L23.25 10.5672C23.25 9.61477 23.25 8.85418 23.1998 8.23994C23.1483 7.60992 23.0404 7.06804 22.7868 6.57035C22.3793 5.77066 21.7291 5.12049 20.9295 4.71303C20.4318 4.45944 19.8899 4.35145 19.2599 4.29998C18.6849 4.25301 17.9818 4.25 17.1131 4.24982L16.065 2.72531C15.6453 2.11476 14.9519 1.75 14.211 1.75H9.78905Z" fill="#000"/>
</svg>
