<svg width="24" height="24" viewBox="0 0 24 24" fill="none" xmlns="http://www.w3.org/2000/svg">
<path d="M15.25 13C15.25 11.2051 13.7949 9.75 12 9.75C10.2051 9.75 8.75 11.2051 8.75 13C8.75 14.7949 10.2051 16.25 12 16.25C13.7949 16.25 15.25 14.7949 15.25 13Z" fill="#000"/>
<path fill-rule="evenodd" clip-rule="evenodd" d="M7.93495 2.72531C8.3547 2.11476 9.04813 1.75 9.78905 1.75H14.211C14.9519 1.75 15.6453 2.11476 16.065 2.72531L17.1131 4.24982C17.9818 4.25 18.6849 4.25301 19.2599 4.29998C19.8899 4.35145 20.4318 4.45944 20.9295 4.71303C21.7291 5.12049 22.3793 5.77066 22.7868 6.57035C23.0404 7.06804 23.1483 7.60992 23.1998 8.23994C23.25 8.85418 23.25 9.61477 23.25 10.5672V15.4325C23.25 16.3849 23.25 17.1454 23.1998 17.7597C23.1483 18.3897 23.0404 18.9316 22.7868 19.4293C22.3793 20.229 21.7291 20.8791 20.9295 21.2866C20.4318 21.5402 19.8899 21.6482 19.2599 21.6996C18.6456 21.7498 17.885 21.7498 16.9326 21.7498H7.0673C6.1149 21.7498 5.35438 21.7498 4.74013 21.6996C4.11012 21.6482 3.56824 21.5402 3.07054 21.2866C2.27085 20.8791 1.62069 20.229 1.21322 19.4293C0.959634 18.9316 0.85165 18.3897 0.800176 17.7597C0.749989 17.1454 0.749994 16.3849 0.75 15.4324V10.5672C0.749994 9.61476 0.749989 8.8542 0.800176 8.23994C0.85165 7.60992 0.959634 7.06804 1.21322 6.57035C1.62068 5.77066 2.27085 5.12049 3.07054 4.71303C3.56824 4.45944 4.11012 4.35145 4.74013 4.29998C5.31508 4.25301 6.01819 4.25 6.88685 4.24982L7.93495 2.72531ZM12 8.25C14.6234 8.25 16.75 10.3766 16.75 13C16.75 15.6234 14.6234 17.75 12 17.75C9.37665 17.75 7.25 15.6234 7.25 13C7.25 10.3766 9.37665 8.25 12 8.25Z" fill="#000"/>
</svg>
