<svg width="24" height="24" viewBox="0 0 24 24" fill="none" xmlns="http://www.w3.org/2000/svg">
<path fill-rule="evenodd" clip-rule="evenodd" d="M15.7566 2.74993H8.24338C7.34329 2.74936 6.68842 2.74894 6.11236 2.9755C5.60603 3.17464 5.1578 3.49771 4.80876 3.91509C4.41166 4.38994 4.20497 5.01133 3.92088 5.86542L3.79275 6.25H2C1.58579 6.25 1.25 6.58579 1.25 7C1.25 7.41421 1.58579 7.75 2 7.75H3.29275L2.84253 9.10066C2.29888 9.38947 1.85683 9.83879 1.57698 10.388C1.39151 10.752 1.31759 11.1396 1.28315 11.5611C1.24998 11.967 1.24999 12.4653 1.25 13.069V13.931C1.24999 14.5347 1.24998 15.033 1.28315 15.4389C1.31759 15.8604 1.39151 16.248 1.57698 16.612C1.74638 16.9444 1.97519 17.2403 2.25 17.4861V20.25C2.25 20.8023 2.69772 21.25 3.25 21.25H4.25C4.80228 21.25 5.25 20.8023 5.25 20.25V18.2498C5.35289 18.25 5.45922 18.25 5.56901 18.25H18.431C18.5408 18.25 18.6471 18.25 18.75 18.2498V20.25C18.75 20.8023 19.1977 21.25 19.75 21.25H20.75C21.3023 21.25 21.75 20.8023 21.75 20.25V17.4861C22.0248 17.2403 22.2536 16.9444 22.423 16.612C22.6085 16.248 22.6824 15.8604 22.7169 15.4389C22.75 15.033 22.75 14.5347 22.75 13.931V13.069C22.75 12.4653 22.75 11.967 22.7169 11.5611C22.6824 11.1396 22.6085 10.752 22.423 10.388C22.1432 9.83877 21.7011 9.38945 21.1574 9.10064L20.7072 7.75H22C22.4142 7.75 22.75 7.41421 22.75 7C22.75 6.58579 22.4142 6.25 22 6.25H20.2072L20.0791 5.86542C19.795 5.01134 19.5883 4.38994 19.1912 3.91509C18.8422 3.49771 18.3939 3.17464 17.8876 2.9755C17.3116 2.74894 16.6567 2.74936 15.7566 2.74993ZM6.66137 4.37142C6.93807 4.2626 7.28231 4.24999 8.38302 4.24999H15.6169C16.7177 4.24999 17.0619 4.2626 17.3386 4.37142C17.6112 4.47865 17.8526 4.65261 18.0405 4.87735C18.2313 5.10544 18.3521 5.42802 18.7002 6.47225L19.4594 8.74988H4.54059L5.2998 6.47225C5.64788 5.42802 5.76869 5.10544 5.95943 4.87735C6.14738 4.65261 6.38873 4.47865 6.66137 4.37142ZM5 13.5C5 12.9477 5.44772 12.5 6 12.5C6.55229 12.5 7.0001 12.9477 7.0001 13.5C7.0001 14.0523 6.55239 14.5 6.0001 14.5C5.44782 14.5 5 14.0523 5 13.5ZM9.25 13.5C9.25 13.0858 9.58579 12.75 10 12.75H14C14.4142 12.75 14.75 13.0858 14.75 13.5C14.75 13.9142 14.4142 14.25 14 14.25H10C9.58579 14.25 9.25 13.9142 9.25 13.5ZM17 13.5C17 12.9477 17.4477 12.5 18 12.5C18.5523 12.5 19.0001 12.9477 19.0001 13.5C19.0001 14.0523 18.5523 14.5 18 14.5C17.4477 14.5 17 14.0523 17 13.5Z" fill="#000"/>
</svg>
