<svg width="24" height="24" viewBox="0 0 24 24" fill="none" xmlns="http://www.w3.org/2000/svg">
<path d="M0.25 2C0.25 1.58579 0.585786 1.25 1 1.25H2.18189C3.31272 1.25 4.26785 2.08931 4.41322 3.21075L4.48313 3.75H20.004C21.04 3.75 21.8492 4.64496 21.7452 5.6757L21.3581 9.51138C21.3351 9.73945 21.2091 9.94447 21.0159 10.068C20.8228 10.1914 20.5838 10.2198 20.3671 10.145C19.6263 9.88924 18.8302 9.75 18 9.75C14.4614 9.75 11.5135 12.2859 10.8773 15.6398C10.8101 15.9938 10.5007 16.25 10.1404 16.25H5.25C4.69772 16.25 4.25 16.6977 4.25 17.25C4.25 17.8023 4.69772 18.25 5.25 18.25H10.252C10.6662 18.25 11.002 18.5858 11.002 19C11.002 19.4142 10.6662 19.75 10.252 19.75H9.35462C9.44837 19.9816 9.5 20.2348 9.5 20.5C9.5 21.6046 8.60457 22.5 7.5 22.5C6.39543 22.5 5.5 21.6046 5.5 20.5C5.5 20.2348 5.55163 19.9816 5.64538 19.75H5.25C3.86929 19.75 2.75 18.6307 2.75 17.25C2.75 16.0932 3.53571 15.1199 4.60258 14.8346C4.43805 14.5384 4.32617 14.2075 4.28029 13.8535L2.92567 3.40358C2.87721 3.02977 2.55884 2.75 2.18189 2.75H1C0.585786 2.75 0.25 2.41421 0.25 2Z" fill="#000"/>
<path fill-rule="evenodd" clip-rule="evenodd" d="M18 11.25C14.8244 11.25 12.25 13.8244 12.25 17C12.25 20.1756 14.8244 22.75 18 22.75C21.1756 22.75 23.75 20.1756 23.75 17C23.75 13.8244 21.1756 11.25 18 11.25ZM20.625 17C20.625 17.3452 20.3452 17.625 20 17.625H16C15.6548 17.625 15.375 17.3452 15.375 17C15.375 16.6548 15.6548 16.375 16 16.375H20C20.3452 16.375 20.625 16.6548 20.625 17Z" fill="#000"/>
</svg>
