<svg width="24" height="24" viewBox="0 0 24 24" fill="none" xmlns="http://www.w3.org/2000/svg">
<path d="M2 1.25C1.58579 1.25 1.25 1.58579 1.25 2C1.25 2.41421 1.58579 2.75 2 2.75H3.18189C3.55884 2.75 3.87721 3.02977 3.92567 3.40358L5.28029 13.8535C5.32617 14.2075 5.43805 14.5384 5.60258 14.8346C4.53571 15.1199 3.75 16.0932 3.75 17.25C3.75 18.6307 4.86929 19.75 6.25 19.75H6.64538C6.55163 19.9816 6.5 20.2348 6.5 20.5C6.5 21.6046 7.39543 22.5 8.5 22.5C9.60457 22.5 10.5 21.6046 10.5 20.5C10.5 20.2348 10.4484 19.9816 10.3546 19.75H16.6454C16.5516 19.9816 16.5 20.2348 16.5 20.5C16.5 21.6046 17.3954 22.5 18.5 22.5C19.6046 22.5 20.5 21.6046 20.5 20.5C20.5 20.2348 20.4484 19.9816 20.3546 19.75H21C21.4142 19.75 21.75 19.4142 21.75 19C21.75 18.5858 21.4142 18.25 21 18.25H6.25C5.69772 18.25 5.25 17.8023 5.25 17.25C5.25 16.6977 5.69772 16.25 6.25 16.25H18.717C20.3979 16.25 21.8014 14.9682 21.9536 13.2942L22.7469 4.5679C22.7844 4.15539 22.4804 3.79058 22.0679 3.75308C21.6554 3.71558 21.2906 4.01959 21.2531 4.4321L20.4598 13.1584C20.3778 14.0598 19.6221 14.75 18.717 14.75H8.00747C7.37924 14.75 6.84861 14.2837 6.76785 13.6607L5.41322 3.21075C5.26785 2.08931 4.31272 1.25 3.18189 1.25H2Z" fill="#000"/>
<path d="M13.5 3.75C13.9142 3.75 14.25 4.08579 14.25 4.5V9.68934L15.9697 7.96967C16.2626 7.67678 16.7374 7.67678 17.0303 7.96967C17.3232 8.26256 17.3232 8.73744 17.0303 9.03033L14.0303 12.0303C13.8897 12.171 13.6989 12.25 13.5 12.25C13.3011 12.25 13.1103 12.171 12.9697 12.0303L9.96967 9.03033C9.67678 8.73744 9.67678 8.26256 9.96967 7.96967C10.2626 7.67678 10.7374 7.67678 11.0303 7.96967L12.75 9.68934V4.5C12.75 4.08579 13.0858 3.75 13.5 3.75Z" fill="#000"/>
</svg>
