<svg width="24" height="24" viewBox="0 0 24 24" fill="none" xmlns="http://www.w3.org/2000/svg">
<path fill-rule="evenodd" clip-rule="evenodd" d="M2.25 2.75C2.25 1.92157 2.92157 1.25 3.75 1.25H6.25C7.07843 1.25 7.75 1.92157 7.75 2.75V4.75H9.25V2.75C9.25 1.92157 9.92157 1.25 10.75 1.25H13.25C14.0784 1.25 14.75 1.92157 14.75 2.75V4.75H16.25V2.75C16.25 1.92157 16.9216 1.25 17.75 1.25H20.25C21.0784 1.25 21.75 1.92157 21.75 2.75V7.99621C21.75 8.79275 21.5262 9.57325 21.104 10.2487L19.364 13.0327C19.2895 13.1519 19.25 13.2896 19.25 13.4302V22C19.25 22.4142 18.9142 22.75 18.5 22.75H5.5C5.08579 22.75 4.75 22.4142 4.75 22V13.4302C4.75 13.2896 4.7105 13.1519 4.636 13.0327L2.89601 10.2487C2.47384 9.57325 2.25 8.79275 2.25 7.99621V2.75ZM9.75 14C9.75 12.7574 10.7574 11.75 12 11.75C13.2426 11.75 14.25 12.7574 14.25 14V17.5C14.25 17.6381 14.1381 17.75 14 17.75H10C9.86193 17.75 9.75 17.6381 9.75 17.5V14Z" fill="#000"/>
</svg>
