<svg width="24" height="24" viewBox="0 0 24 24" fill="none" xmlns="http://www.w3.org/2000/svg">
<path fill-rule="evenodd" clip-rule="evenodd" d="M17.2321 1.25H6.7679C5.95507 1.24999 5.29944 1.24999 4.76853 1.29336C4.2219 1.33803 3.74176 1.43239 3.29754 1.65873C2.59193 2.01825 2.01825 2.59193 1.65873 3.29754C1.43239 3.74176 1.33803 4.2219 1.29336 4.76853C1.24999 5.29944 1.24999 5.95505 1.25 6.76788V12.2321C1.24999 13.0449 1.24999 13.7006 1.29336 14.2315C1.33803 14.7781 1.43239 15.2582 1.65873 15.7025C2.01825 16.4081 2.59193 16.9817 3.29754 17.3413C3.74176 17.5676 4.2219 17.662 4.76853 17.7066C5.29944 17.75 5.95505 17.75 6.76788 17.75H7.05945L4.38552 21.5699C4.14798 21.9092 4.23051 22.3769 4.56985 22.6144C4.90918 22.852 5.37683 22.7694 5.61437 22.4301L8.89044 17.75H11.25V20.5C11.25 20.9142 11.5858 21.25 12 21.25C12.4142 21.25 12.75 20.9142 12.75 20.5V17.75H15.1096L18.3856 22.4301C18.6232 22.7694 19.0908 22.852 19.4302 22.6144C19.7695 22.3769 19.852 21.9092 19.6145 21.5699L16.9405 17.75H17.2321C18.045 17.75 18.7006 17.75 19.2315 17.7066C19.7781 17.662 20.2582 17.5676 20.7025 17.3413C21.4081 16.9817 21.9817 16.4081 22.3413 15.7025C22.5676 15.2582 22.662 14.7781 22.7066 14.2315C22.75 13.7006 22.75 13.045 22.75 12.2321V6.76788C22.75 5.95505 22.75 5.29944 22.7066 4.76853C22.662 4.2219 22.5676 3.74176 22.3413 3.29754C21.9817 2.59193 21.4081 2.01825 20.7025 1.65873C20.2582 1.43239 19.7781 1.33803 19.2315 1.29336C18.7006 1.24999 18.0449 1.24999 17.2321 1.25ZM6.25 7.5C6.25 7.08579 6.58579 6.75 7 6.75H17C17.4142 6.75 17.75 7.08579 17.75 7.5C17.75 7.91421 17.4142 8.25 17 8.25H7C6.58579 8.25 6.25 7.91421 6.25 7.5ZM6.25 11.5C6.25 11.0858 6.58579 10.75 7 10.75H13C13.4142 10.75 13.75 11.0858 13.75 11.5C13.75 11.9142 13.4142 12.25 13 12.25H7C6.58579 12.25 6.25 11.9142 6.25 11.5Z" fill="#000"/>
</svg>
