<svg width="24" height="24" viewBox="0 0 24 24" fill="none" xmlns="http://www.w3.org/2000/svg">
<path d="M11.5324 0.761423C10.8099 0.730493 10.25 1.31763 10.25 2.00005V12.5C10.25 13.1904 10.8096 13.75 11.5 13.75H22C22.6824 13.75 23.2696 13.1902 23.2386 12.4676C22.9671 6.12537 17.8747 1.03292 11.5324 0.761423Z" fill="#000"/>
<path d="M8.75 3.9834C8.75 3.74241 8.6342 3.5161 8.43875 3.37513C8.24329 3.23415 7.992 3.19568 7.76333 3.27173C3.68944 4.62653 0.75 8.46901 0.75 13C0.75 18.6609 5.33908 23.25 11 23.25C15.531 23.25 19.3735 20.3106 20.7283 16.2367C20.8043 16.008 20.7659 15.7567 20.6249 15.5613C20.4839 15.3658 20.2576 15.25 20.0166 15.25H10C9.30964 15.25 8.75 14.6904 8.75 14V3.9834Z" fill="#000"/>
</svg>
