<svg width="24" height="24" viewBox="0 0 24 24" fill="none" xmlns="http://www.w3.org/2000/svg">
<path d="M3 2C3 1.44772 2.55228 1 2 1C1.44772 1 1 1.44772 1 2V18.5C1 20.9853 3.01472 23 5.5 23H22C22.5523 23 23 22.5523 23 22C23 21.4477 22.5523 21 22 21H5.5C4.11929 21 3 19.8807 3 18.5V2Z" fill="#000"/>
<path d="M21.7071 8.70711C22.0976 8.31658 22.0976 7.68342 21.7071 7.29289C21.3166 6.90237 20.6834 6.90237 20.2929 7.29289L15.5 12.0858L12.2071 8.79289C11.8166 8.40237 11.1834 8.40237 10.7929 8.79289L5.29289 14.2929C4.90237 14.6834 4.90237 15.3166 5.29289 15.7071C5.68342 16.0976 6.31658 16.0976 6.70711 15.7071L11.5 10.9142L14.7929 14.2071C15.1834 14.5976 15.8166 14.5976 16.2071 14.2071L21.7071 8.70711Z" fill="#000"/>
</svg>
