<svg width="24" height="24" viewBox="0 0 24 24" fill="none" xmlns="http://www.w3.org/2000/svg">
<path d="M2 1C2.55228 1 3 1.44772 3 2V18.5C3 19.8807 4.11929 21 5.5 21H22C22.5523 21 23 21.4477 23 22C23 22.5523 22.5523 23 22 23H5.5C3.01472 23 1 20.9853 1 18.5V2C1 1.44772 1.44772 1 2 1Z" fill="#000"/>
<path d="M7.00001 17L7 13C7 12.4477 7.44771 12 8 12C8.55228 12 9 12.4477 9 13L9.00001 17C9.00001 17.5523 8.55229 18 8.00001 18C7.44772 18 7.00001 17.5523 7.00001 17Z" fill="#000"/>
<path d="M12 6C11.4477 6 11 6.44772 11 7L11 17C11 17.5523 11.4477 18 12 18C12.5523 18 13 17.5523 13 17L13 7C13 6.44771 12.5523 6 12 6Z" fill="#000"/>
<path d="M15 17L15 11C15 10.4477 15.4477 10 16 10C16.5523 10 17 10.4477 17 11L17 17C17 17.5523 16.5523 18 16 18C15.4477 18 15 17.5523 15 17Z" fill="#000"/>
<path d="M19 17C19 17.5523 19.4477 18 20 18C20.5523 18 21 17.5523 21 17V4C21 3.44772 20.5523 3 20 3C19.4477 3 19 3.44772 19 4V17Z" fill="#000"/>
</svg>
