<svg width="24" height="24" viewBox="0 0 24 24" fill="none" xmlns="http://www.w3.org/2000/svg">
<path d="M2 1C2.55228 1 3 1.44772 3 2V18.5C3 19.8807 4.11929 21 5.5 21H22C22.5523 21 23 21.4477 23 22C23 22.5523 22.5523 23 22 23H5.5C3.01472 23 1 20.9853 1 18.5V2C1 1.44772 1.44772 1 2 1Z" fill="#000"/>
<path d="M6 18V16.5C6 15.9477 6.44772 15.5 7 15.5C7.55228 15.5 8 15.9477 8 16.5V18C8 18.5523 7.55228 19 7 19C6.44772 19 6 18.5523 6 18Z" fill="#000"/>
<path d="M10 14.65V18C10 18.5523 10.4477 19 11 19C11.5523 19 12 18.5523 12 18L12 14.65C12 14.0977 11.5523 13.65 11 13.65C10.4477 13.65 10 14.0977 10 14.65Z" fill="#000"/>
<path d="M15 19C14.4477 19 14 18.5523 14 18V12.8C14 12.2477 14.4477 11.8 15 11.8C15.5523 11.8 16 12.2477 16 12.8V18C16 18.5523 15.5523 19 15 19Z" fill="#000"/>
<path d="M18 18C18 18.5523 18.4477 19 19 19C19.5523 19 20 18.5523 20 18L20 11C20 10.4477 19.5523 10 19 10C18.4477 10 18 10.4477 18 11L18 18Z" fill="#000"/>
<path d="M15.25 3C15.25 2.44772 15.6977 2 16.25 2H20C20.5523 2 21 2.44772 21 3V6.75C21 7.30228 20.5523 7.75 20 7.75C19.4477 7.75 19 7.30228 19 6.75V5.50005C17.1832 7.36709 15.4559 8.78049 13.6128 9.81045C11.3417 11.0796 8.95023 11.7359 6.09048 11.9959C5.54046 12.0459 5.05405 11.6406 5.00405 11.0905C4.95405 10.5405 5.35939 10.0541 5.90941 10.0041C8.54966 9.76409 10.6582 9.17045 12.6371 8.06457C14.2955 7.13784 15.9009 5.83029 17.6686 4H16.25C15.6977 4 15.25 3.55228 15.25 3Z" fill="#000"/>
</svg>
