<svg width="24" height="24" viewBox="0 0 24 24" fill="none" xmlns="http://www.w3.org/2000/svg">
<path fill-rule="evenodd" clip-rule="evenodd" d="M7.56739 1.25H16.4326C17.385 1.24999 18.1456 1.24999 18.7599 1.30018C19.3899 1.35165 19.9318 1.45963 20.4295 1.71322C21.2291 2.12068 21.8793 2.77085 22.2868 3.57054C22.5404 4.06824 22.6483 4.61012 22.6998 5.24013C22.75 5.85438 22.75 6.61496 22.75 7.56737V13.4327C22.75 14.3851 22.75 15.1456 22.6998 15.7599C22.6483 16.3899 22.5404 16.9318 22.2868 17.4295C21.8793 18.2291 21.2291 18.8793 20.4295 19.2868C19.9318 19.5404 19.3899 19.6483 18.7599 19.6998C18.1456 19.75 17.385 19.75 16.4326 19.75H15.7995C15.2773 19.75 15.1743 19.7578 15.0921 19.783C14.9969 19.8122 14.9085 19.8601 14.832 19.9238C14.766 19.9788 14.7032 20.0609 14.4178 20.4981L13.95 21.2147C13.7419 21.5336 13.5585 21.8145 13.3901 22.0275C13.2162 22.2473 12.9935 22.4815 12.6766 22.6144C12.2438 22.7959 11.7562 22.7959 11.3234 22.6144C11.0065 22.4815 10.7838 22.2473 10.6099 22.0275C10.4414 21.8145 10.258 21.5335 10.0499 21.2146L9.58224 20.4981C9.29685 20.0609 9.23398 19.9788 9.16798 19.9238C9.09149 19.8601 9.00306 19.8122 8.90786 19.783C8.82573 19.7578 8.72267 19.75 8.20054 19.75H7.5673C6.6149 19.75 5.85438 19.75 5.24013 19.6998C4.61012 19.6483 4.06824 19.5404 3.57054 19.2868C2.77085 18.8793 2.12068 18.2291 1.71322 17.4295C1.45963 16.9318 1.35165 16.3899 1.30018 15.7599C1.24999 15.1456 1.24999 14.3851 1.25 13.4326V7.56738C1.24999 6.61495 1.24999 5.85439 1.30018 5.24013C1.35165 4.61012 1.45963 4.06824 1.71322 3.57054C2.12068 2.77085 2.77085 2.12068 3.57054 1.71322C4.06824 1.45963 4.61012 1.35165 5.24013 1.30018C5.85439 1.24999 6.61495 1.24999 7.56739 1.25ZM7 10.5C7 9.94771 7.44772 9.5 8 9.5C8.55228 9.5 9.0001 9.94771 9.0001 10.5C9.0001 11.0523 8.55238 11.5 8.0001 11.5C7.44782 11.5 7 11.0523 7 10.5ZM11 10.5C11 9.94771 11.4477 9.5 12 9.5C12.5523 9.5 13.0001 9.94771 13.0001 10.5C13.0001 11.0523 12.5524 11.5 12.0001 11.5C11.4478 11.5 11 11.0523 11 10.5ZM15 10.5C15 9.94771 15.4477 9.5 16 9.5C16.5523 9.5 17.0001 9.94771 17.0001 10.5C17.0001 11.0523 16.5523 11.5 16 11.5C15.4477 11.5 15 11.0523 15 10.5Z" fill="#000"/>
</svg>
