<svg width="24" height="24" viewBox="0 0 24 24" fill="none" xmlns="http://www.w3.org/2000/svg">
<g clip-path="url(#clip0_9002_8370)">
<path fill-rule="evenodd" clip-rule="evenodd" d="M0.25 12C0.25 5.51065 5.51065 0.25 12 0.25C18.4893 0.25 23.75 5.51065 23.75 12C23.75 18.4893 18.4893 23.75 12 23.75C5.51065 23.75 0.25 18.4893 0.25 12ZM17.0303 9.53033C17.3232 9.23744 17.3232 8.76256 17.0303 8.46967C16.7374 8.17678 16.2626 8.17678 15.9697 8.46967L10.5 13.9393L8.03033 11.4697C7.73744 11.1768 7.26256 11.1768 6.96967 11.4697C6.67678 11.7626 6.67678 12.2374 6.96967 12.5303L9.96967 15.5303C10.2626 15.8232 10.7374 15.8232 11.0303 15.5303L17.0303 9.53033Z" fill="#000"/>
</g>
<defs>
<clipPath id="clip0_9002_8370">
<rect width="24" height="24" fill="white"/>
</clipPath>
</defs>
</svg>
