<svg width="24" height="24" viewBox="0 0 24 24" fill="none" xmlns="http://www.w3.org/2000/svg">
<path d="M8.74698 1.28922C8.68549 1.25 8.5918 1.25 8.40443 1.25H7.97258C7.0639 1.25 6.34372 1.24999 5.7603 1.2898C5.16428 1.33047 4.65639 1.41517 4.18223 1.61157C3.01834 2.09367 2.09364 3.01837 1.61155 4.18225C1.41514 4.65641 1.33044 5.16431 1.28977 5.76032C1.26801 6.07932 1.25815 6.43919 1.25368 6.84839C1.25215 6.98794 1.25139 7.05772 1.27842 7.11179C1.30209 7.15913 1.34073 7.1982 1.38781 7.22238C1.44158 7.25 1.51186 7.25 1.65241 7.25H6.6711C6.77477 7.25 6.82661 7.25 6.87072 7.23265C6.90966 7.21733 6.94414 7.19248 6.97099 7.16038C7.0014 7.12402 7.01779 7.07484 7.05057 6.97649L8.78391 1.77649C8.84316 1.59874 8.87278 1.50986 8.85502 1.43912C8.83947 1.37719 8.80082 1.32356 8.74698 1.28922Z" fill="#000"/>
<path d="M15.855 1.43912C15.8728 1.50986 15.8432 1.59874 15.7839 1.77649L14.0506 6.97649C14.0178 7.07484 14.0014 7.12402 13.971 7.16038C13.9441 7.19248 13.9097 7.21733 13.8707 7.23265C13.8266 7.25 13.7748 7.25 13.6711 7.25H9.09551C8.90814 7.25 8.81446 7.25 8.75296 7.21078C8.69913 7.17644 8.66048 7.12281 8.64493 7.06088C8.62716 6.99014 8.65679 6.90126 8.71604 6.72351L10.4494 1.52351C10.4822 1.42516 10.4986 1.37598 10.529 1.33962C10.5558 1.30752 10.5903 1.28267 10.6292 1.26735C10.6733 1.25 10.7252 1.25 10.8288 1.25H15.4044C15.5918 1.25 15.6855 1.25 15.747 1.28922C15.8008 1.32356 15.8395 1.37719 15.855 1.43912Z" fill="#000"/>
<path d="M22.7102 5.76032C22.7319 6.07932 22.7418 6.43919 22.7463 6.8484C22.7478 6.98792 22.7486 7.05772 22.7215 7.11179C22.6979 7.15913 22.6592 7.1982 22.6121 7.22238C22.5584 7.25 22.4881 7.25 22.3475 7.25H16.0955C15.9081 7.25 15.8145 7.25 15.753 7.21078C15.6991 7.17644 15.6605 7.12281 15.6449 7.06088C15.6272 6.99014 15.6568 6.90127 15.716 6.72353L17.4438 1.54023C17.4774 1.43957 17.4941 1.38924 17.5259 1.35212C17.5536 1.31972 17.5904 1.29423 17.6305 1.27967C17.6764 1.26299 17.7284 1.26493 17.8324 1.26882C17.9752 1.27416 18.1108 1.28101 18.2396 1.2898C18.8357 1.33047 19.3436 1.41517 19.8177 1.61157C20.9816 2.09367 21.9063 3.01837 22.3884 4.18225C22.5848 4.65641 22.6695 5.16431 22.7102 5.76032Z" fill="#000"/>
<path fill-rule="evenodd" clip-rule="evenodd" d="M1.27725 8.8865C1.25 8.93998 1.25 9.00999 1.25 9.15V15.633C1.24999 16.7251 1.24999 17.5906 1.30699 18.2883C1.36527 19.0017 1.48688 19.6053 1.76772 20.1565C2.22312 21.0502 2.94978 21.7769 3.84355 22.2323C4.39472 22.5131 4.99834 22.6347 5.71173 22.693C6.40934 22.75 7.27488 22.75 8.36698 22.75H15.6331C16.7252 22.75 17.5907 22.75 18.2883 22.693C19.0017 22.6347 19.6053 22.5131 20.1565 22.2323C21.0502 21.7769 21.7769 21.0502 22.2323 20.1565C22.5131 19.6053 22.6347 19.0017 22.693 18.2883C22.75 17.5906 22.75 16.7252 22.75 15.633V9.15C22.75 9.00999 22.75 8.93998 22.7228 8.8865C22.6988 8.83946 22.6605 8.80122 22.6135 8.77725C22.56 8.75 22.49 8.75 22.35 8.75H1.65C1.50999 8.75 1.43998 8.75 1.3865 8.77725C1.33946 8.80122 1.30122 8.83946 1.27725 8.8865ZM9.74988 13.2038C9.74988 12.2038 10.9191 11.6712 11.7288 12.2244L14.7238 14.2705C15.4252 14.7497 15.4252 15.7501 14.7238 16.2293L11.7288 18.2755C10.9191 18.8286 9.74988 18.2961 9.74988 17.296V13.2038Z" fill="#000"/>
</svg>
