<svg width="24" height="24" viewBox="0 0 24 24" fill="none" xmlns="http://www.w3.org/2000/svg">
<path fill-rule="evenodd" clip-rule="evenodd" d="M20.964 4.815C20.587 3.903 19.847 3.163 18.935 2.785C18.364 2.548 17.702 2.51 16.75 2.503V2.5C16.75 1.535 15.965 0.75 15 0.75H9.00002C8.03502 0.75 7.25002 1.535 7.25002 2.5V2.503C6.29802 2.51 5.63602 2.549 5.06502 2.785C4.13902 3.168 3.41802 3.889 3.03502 4.814C2.74902 5.503 2.74902 6.253 2.74902 7.749V17.699C2.74902 19.497 2.74902 20.399 3.15802 21.201C3.52002 21.911 4.08702 22.478 4.79702 22.84C5.59902 23.249 6.50202 23.249 8.29902 23.249H15.699C17.497 23.249 18.4 23.249 19.201 22.84C19.912 22.478 20.478 21.911 20.84 21.201C21.249 20.399 21.249 19.496 21.249 17.699V7.75C21.249 6.254 21.249 5.504 20.963 4.815H20.964ZM8.75002 2.5C8.75002 2.362 8.86202 2.25 9.00002 2.25H15C15.138 2.25 15.25 2.362 15.25 2.5V3.4C15.25 3.652 15.25 3.904 15.236 4.034C15.229 4.077 15.214 4.116 15.188 4.149C15.176 4.163 15.165 4.176 15.151 4.187C15.119 4.213 15.08 4.226 15.038 4.234C14.904 4.249 14.652 4.25 14.399 4.25H9.59902C9.34702 4.25 9.09402 4.25 8.96302 4.235C8.92102 4.228 8.88202 4.213 8.84902 4.188C8.83502 4.177 8.82202 4.165 8.81102 4.151C8.78502 4.119 8.77202 4.08 8.76402 4.038C8.74902 3.904 8.74802 3.652 8.74802 3.399V2.499L8.75002 2.5Z" fill="#000"/>
</svg>
