<svg width="24" height="24" viewBox="0 0 24 24" fill="none" xmlns="http://www.w3.org/2000/svg">
<path fill-rule="evenodd" clip-rule="evenodd" d="M0.25 12C0.25 5.51065 5.51065 0.25 12 0.25C18.4893 0.25 23.75 5.51065 23.75 12C23.75 18.4893 18.4893 23.75 12 23.75C5.51065 23.75 0.25 18.4893 0.25 12ZM12.75 6C12.75 5.58579 12.4142 5.25 12 5.25C11.5858 5.25 11.25 5.58579 11.25 6V12C11.25 12.2586 11.3832 12.4989 11.6025 12.636L15.6025 15.136C15.9538 15.3555 16.4165 15.2488 16.636 14.8975C16.8555 14.5462 16.7488 14.0835 16.3975 13.864L12.75 11.5843V6Z" fill="#000"/>
</svg>
