<svg width="24" height="24" viewBox="0 0 24 24" fill="none" xmlns="http://www.w3.org/2000/svg">
<path fill-rule="evenodd" clip-rule="evenodd" d="M4.25 11C4.25 6.71979 7.71979 3.25 12 3.25C15.7587 3.25 18.8916 5.92521 19.6 9.47575C21.9971 10.169 23.75 12.3791 23.75 15C23.75 18.1756 21.1756 20.75 18 20.75H5C2.37665 20.75 0.25 18.6234 0.25 16C0.25 13.6298 1.98608 11.665 4.25602 11.3079C4.25202 11.2057 4.25 11.1031 4.25 11ZM12 17.25C11.5858 17.25 11.25 16.9142 11.25 16.5V14.25H9C8.58579 14.25 8.25 13.9142 8.25 13.5C8.25 13.0858 8.58579 12.75 9 12.75H11.25V10.5C11.25 10.0858 11.5858 9.75 12 9.75C12.4142 9.75 12.75 10.0858 12.75 10.5V12.75H15C15.4142 12.75 15.75 13.0858 15.75 13.5C15.75 13.9142 15.4142 14.25 15 14.25H12.75V16.5C12.75 16.9142 12.4142 17.25 12 17.25Z" fill="#000"/>
</svg>
