<svg width="24" height="24" viewBox="0 0 24 24" fill="none" xmlns="http://www.w3.org/2000/svg">
<path fill-rule="evenodd" clip-rule="evenodd" d="M4.25 11C4.25 6.71979 7.71979 3.25 12 3.25C15.7587 3.25 18.8916 5.92521 19.6 9.47575C21.9971 10.169 23.75 12.3791 23.75 15C23.75 18.1756 21.1756 20.75 18 20.75H5C2.37665 20.75 0.25 18.6234 0.25 16C0.25 13.6298 1.98608 11.665 4.25602 11.3079C4.25202 11.2057 4.25 11.1031 4.25 11ZM16.0303 11.7803C16.3232 11.4874 16.3232 11.0126 16.0303 10.7197C15.7374 10.4268 15.2626 10.4268 14.9697 10.7197L11 14.6893L9.03033 12.7197C8.73744 12.4268 8.26256 12.4268 7.96967 12.7197C7.67678 13.0126 7.67678 13.4874 7.96967 13.7803L10.4697 16.2803C10.7626 16.5732 11.2374 16.5732 11.5303 16.2803L16.0303 11.7803Z" fill="#000"/>
</svg>
