<svg width="24" height="24" viewBox="0 0 24 24" fill="none" xmlns="http://www.w3.org/2000/svg">
<path fill-rule="evenodd" clip-rule="evenodd" d="M4.25 11C4.25 6.71979 7.71979 3.25 12 3.25C15.7587 3.25 18.8916 5.92521 19.6 9.47575C21.9971 10.169 23.75 12.3791 23.75 15C23.75 18.1756 21.1756 20.75 18 20.75H5C2.37665 20.75 0.25 18.6234 0.25 16C0.25 13.6298 1.98608 11.665 4.25602 11.3079C4.25202 11.2057 4.25 11.1031 4.25 11ZM12 17.7502C11.5858 17.7502 11.25 17.4145 11.25 17.0002V10.8109L9.53033 12.5306C9.23744 12.8235 8.76256 12.8235 8.46967 12.5306C8.17678 12.2377 8.17678 11.7628 8.46967 11.4699L11.4697 8.46991C11.6103 8.32926 11.8011 8.25024 12 8.25024C12.1989 8.25024 12.3897 8.32926 12.5303 8.46991L15.5303 11.4699C15.8232 11.7628 15.8232 12.2377 15.5303 12.5306C15.2374 12.8235 14.7626 12.8235 14.4697 12.5306L12.75 10.8109V17.0002C12.75 17.4145 12.4142 17.7502 12 17.7502Z" fill="#000"/>
</svg>
