<svg width="24" height="24" viewBox="0 0 24 24" fill="none" xmlns="http://www.w3.org/2000/svg">
<path d="M14.9701 4.24253C15.1041 3.70673 14.7783 3.1638 14.2425 3.02985C13.7067 2.8959 13.1638 3.22166 13.0299 3.75746L9.02985 19.7575C8.8959 20.2933 9.22166 20.8362 9.75746 20.9701C10.2933 21.1041 10.8362 20.7783 10.9701 20.2425L14.9701 4.24253Z" fill="#000"/>
<path d="M6.71421 7.30007C7.10077 7.69452 7.09438 8.32765 6.69993 8.71421L3.41428 11.9342L6.714 15.2999C7.10064 15.6943 7.09436 16.3274 6.69999 16.7141C6.30561 17.1007 5.67248 17.0944 5.28584 16.7001L1.28592 12.6201C1.10023 12.4307 0.997396 12.1752 1.00005 11.91C1.0027 11.6448 1.11063 11.3914 1.30007 11.2058L5.30007 7.28579C5.69452 6.89923 6.32765 6.90562 6.71421 7.30007Z" fill="#000"/>
<path d="M17.2854 7.30044C17.6718 6.90579 18.3049 6.89907 18.6996 7.28543L22.6996 11.2014C22.8891 11.387 22.9972 11.6403 22.9999 11.9055C23.0027 12.1707 22.9 12.4262 22.7144 12.6157L18.7144 16.6997C18.328 17.0943 17.6948 17.1009 17.3003 16.7144C16.9057 16.328 16.8991 15.6948 17.2856 15.3003L20.5857 11.9309L17.3004 8.71457C16.9058 8.32821 16.8991 7.69508 17.2854 7.30044Z" fill="#000"/>
</svg>
