<svg width="24" height="24" viewBox="0 0 24 24" fill="none" xmlns="http://www.w3.org/2000/svg">
<path fill-rule="evenodd" clip-rule="evenodd" d="M13.4518 2.36477C14.7267 3.05129 15.75 4.12539 15.75 5.5C15.75 5.51718 15.7498 5.53432 15.7495 5.55141L15.75 9.5C15.75 9.75792 15.7181 10.0088 15.6583 10.251C17.4917 10.2732 19.1827 10.6814 20.4518 11.3648C21.7267 12.0513 22.75 13.1254 22.75 14.5C22.75 14.5172 22.7498 14.5343 22.7495 14.5514L22.75 18.5C22.75 19.9671 21.7445 21.0475 20.4401 21.7205C19.1282 22.3975 17.3765 22.75 15.5 22.75C13.6235 22.75 11.8718 22.3975 10.5599 21.7205C10.4862 21.6825 10.4135 21.6432 10.3419 21.6026C9.75315 21.6989 9.13568 21.7499 8.50011 21.7499C6.62357 21.7499 4.87193 21.3975 3.56 20.7205C2.25562 20.0475 1.25012 18.9671 1.25012 17.5L1.25011 13.525C1.25005 13.5167 1.25002 13.5083 1.25002 13.5V9.50996L1.25 9.5L1.25 5.5C1.25 4.12539 2.27327 3.05129 3.54823 2.36477C4.85374 1.6618 6.6058 1.25 8.5 1.25C10.3942 1.25 12.1463 1.6618 13.4518 2.36477ZM2.75011 13.5172L2.75011 13C2.75011 12.996 2.75008 12.9919 2.75002 12.9879L2.75002 12.2175C3.0005 12.4047 3.27296 12.5725 3.55989 12.7205C4.83811 13.3801 6.53375 13.7316 8.35563 13.7493C8.28698 13.9882 8.25 14.2387 8.25 14.5L8.25 16.2476C6.64112 16.2176 5.23742 15.8982 4.24774 15.3875C3.20848 14.8513 2.75769 14.1884 2.75011 13.5172ZM2.75012 16.2175L2.75012 17.5C2.75012 18.1771 3.19968 18.8467 4.24784 19.3875C5.28845 19.9245 6.7868 20.2499 8.50011 20.2499C8.59997 20.2499 8.69919 20.2485 8.79774 20.2456C8.45413 19.7435 8.25 19.161 8.25 18.5V17.7479C6.46828 17.7179 4.81338 17.3673 3.5599 16.7205C3.27301 16.5725 3.00057 16.4047 2.75012 16.2175ZM4.24773 11.3875C3.20317 10.8485 2.7531 10.1817 2.75002 9.50698V9.00004L2.75 8.9951L2.75 8.12563C2.99834 8.31371 3.26717 8.48389 3.54823 8.63523C4.85374 9.3382 6.6058 9.75 8.5 9.75C10.3942 9.75 12.1463 9.3382 13.4518 8.63523C13.7328 8.48392 14.0015 8.31378 14.2498 8.12575L14.25 9.5C14.25 9.77746 14.1782 10.0569 14.0285 10.3347C12.7079 10.4889 11.5075 10.8482 10.5482 11.3648C10.1062 11.6028 9.69437 11.8874 9.34499 12.215C9.06929 12.238 8.78718 12.25 8.5 12.25C6.78669 12.25 5.28834 11.9245 4.24773 11.3875ZM9.75 17.1256V18.5C9.75 19.1771 10.1996 19.8467 11.2477 20.3875C12.2883 20.9245 13.7867 21.25 15.5 21.25C17.2133 21.25 18.7117 20.9245 19.7523 20.3875C20.8004 19.8467 21.25 19.1771 21.25 18.5L21.2498 17.1258C21.0015 17.3138 20.7328 17.4839 20.4518 17.6352C19.1463 18.3382 17.3942 18.75 15.5 18.75C13.6058 18.75 11.8537 18.3382 10.5482 17.6352C10.2672 17.4839 9.99834 17.3137 9.75 17.1256Z" fill="#000"/>
</svg>
