<svg width="24" height="24" viewBox="0 0 24 24" fill="none" xmlns="http://www.w3.org/2000/svg">
<path fill-rule="evenodd" clip-rule="evenodd" d="M1.25 12C1.25 6.06294 6.06294 1.25 12 1.25C17.9371 1.25 22.75 6.06294 22.75 12C22.75 17.9371 17.9371 22.75 12 22.75C9.9584 22.75 8.04768 22.1802 6.42072 21.1905L4.27015 21.9725C2.8736 22.4804 1.51963 21.1264 2.02746 19.7298L2.80949 17.5793C1.81985 15.9523 1.25 14.0416 1.25 12ZM8.96967 15.0303C8.67678 14.7374 8.67678 14.2625 8.96967 13.9696L10.9393 12L8.96971 10.0303C8.67682 9.73743 8.67682 9.26256 8.96971 8.96966C9.2626 8.67677 9.73748 8.67677 10.0304 8.96966L12 10.9393L13.9696 8.96965C14.2625 8.67676 14.7374 8.67676 15.0303 8.96966C15.3232 9.26255 15.3232 9.73742 15.0303 10.0303L13.0607 12L15.0303 13.9696C15.3232 14.2625 15.3232 14.7374 15.0303 15.0303C14.7374 15.3232 14.2626 15.3232 13.9697 15.0303L12 13.0606L10.0303 15.0303C9.73744 15.3232 9.26256 15.3232 8.96967 15.0303Z" fill="#000"/>
</svg>
