<svg width="24" height="24" viewBox="0 0 24 24" fill="none" xmlns="http://www.w3.org/2000/svg">
<path fill-rule="evenodd" clip-rule="evenodd" d="M1.25 12C1.25 6.06294 6.06294 1.25 12 1.25C17.9371 1.25 22.75 6.06294 22.75 12C22.75 17.9371 17.9371 22.75 12 22.75C9.9584 22.75 8.04768 22.1802 6.42072 21.1905L4.27015 21.9725C2.8736 22.4804 1.51963 21.1264 2.02746 19.7298L2.80949 17.5793C1.81985 15.9523 1.25 14.0416 1.25 12ZM16.0303 10.2803C16.3232 9.98744 16.3232 9.51256 16.0303 9.21967C15.7374 8.92678 15.2626 8.92678 14.9697 9.21967L11 13.1893L9.03033 11.2197C8.73744 10.9268 8.26256 10.9268 7.96967 11.2197C7.67678 11.5126 7.67678 11.9874 7.96967 12.2803L10.4697 14.7803C10.7626 15.0732 11.2374 15.0732 11.5303 14.7803L16.0303 10.2803Z" fill="#000"/>
</svg>
