<svg width="24" height="24" viewBox="0 0 24 24" fill="none" xmlns="http://www.w3.org/2000/svg">
<path d="M11 12C11 11.4477 11.4477 11 12 11C12.5523 11 13.0001 11.4477 13.0001 12C13.0001 12.5523 12.5523 13 12 13C11.4477 13 11 12.5523 11 12Z" fill="#000"/>
<path fill-rule="evenodd" clip-rule="evenodd" d="M0.25 12C0.25 5.51065 5.51065 0.25 12 0.25C18.4893 0.25 23.75 5.51065 23.75 12C23.75 18.4893 18.4893 23.75 12 23.75C5.51065 23.75 0.25 18.4893 0.25 12ZM18.0316 6.60927C17.9327 6.30547 17.6945 6.06727 17.3907 5.96828C17.1431 5.88762 16.8969 5.94886 16.7248 6.00248C16.5422 6.05939 16.316 6.15254 16.0554 6.25987L10.4895 8.55174C10.0855 8.71796 9.80586 8.83301 9.56427 9.00824C9.35077 9.16308 9.16311 9.35074 9.00827 9.56424C8.83305 9.80584 8.718 10.0855 8.55179 10.4895L6.26009 16.0552C6.15277 16.3158 6.05962 16.542 6.00272 16.7246C5.9491 16.8966 5.88786 17.1429 5.96852 17.3904C6.06751 17.6942 6.30571 17.9324 6.60951 18.0314C6.85705 18.1121 7.10329 18.0508 7.27534 17.9972C7.45793 17.9403 7.68413 17.8472 7.94474 17.7398L13.5104 15.4481C13.9144 15.2819 14.1941 15.1669 14.4357 14.9916C14.6492 14.8368 14.8368 14.6492 14.9917 14.4357C15.1669 14.1941 15.282 13.9144 15.4482 13.5104L17.7401 7.94446C17.8474 7.68387 17.9405 7.4577 17.9974 7.27512C18.0511 7.10306 18.1123 6.85681 18.0316 6.60927Z" fill="#000"/>
</svg>
