<svg width="24" height="24" viewBox="0 0 24 24" fill="none" xmlns="http://www.w3.org/2000/svg">
<path d="M6.2679 3.25H17.7321C18.5449 3.24999 19.2006 3.24999 19.7315 3.29336C20.2781 3.33803 20.7582 3.43239 21.2025 3.65873C21.9081 4.01825 22.4817 4.59193 22.8413 5.29754C23.0676 5.74176 23.162 6.2219 23.2066 6.76853C23.2423 7.20524 23.2486 7.72633 23.2498 8.34989C23.25 8.48973 23.2501 8.55964 23.2229 8.61322C23.199 8.66029 23.1607 8.6987 23.1136 8.72269C23.0601 8.75 22.9901 8.75 22.85 8.75H1.15C1.00992 8.75 0.939879 8.75 0.886353 8.72269C0.839325 8.6987 0.800985 8.66029 0.777076 8.61322C0.749863 8.55964 0.749988 8.48973 0.750239 8.34989C0.751357 7.72633 0.757684 7.20524 0.793364 6.76853C0.838026 6.2219 0.932386 5.74176 1.15873 5.29754C1.51825 4.59193 2.09193 4.01825 2.79754 3.65873C3.24176 3.43239 3.7219 3.33803 4.26853 3.29336C4.79944 3.24999 5.45507 3.24999 6.2679 3.25Z" fill="#000"/>
<path fill-rule="evenodd" clip-rule="evenodd" d="M1.15 10.25C1.00999 10.25 0.93998 10.25 0.886503 10.2772C0.839462 10.3012 0.801217 10.3395 0.777249 10.3865C0.75 10.44 0.75 10.51 0.75 10.65V15.2321C0.749993 16.0449 0.749987 16.7006 0.793364 17.2315C0.838026 17.7781 0.932386 18.2582 1.15873 18.7025C1.51825 19.4081 2.09193 19.9818 2.79754 20.3413C3.24176 20.5676 3.7219 20.662 4.26853 20.7066C4.79944 20.75 5.45505 20.75 6.26788 20.75H17.7321C18.545 20.75 19.2006 20.75 19.7315 20.7066C20.2781 20.662 20.7582 20.5676 21.2025 20.3413C21.9081 19.9818 22.4817 19.4081 22.8413 18.7025C23.0676 18.2582 23.162 17.7781 23.2066 17.2315C23.25 16.7005 23.25 16.0449 23.25 15.232V10.65C23.25 10.51 23.25 10.44 23.2228 10.3865C23.1988 10.3395 23.1605 10.3012 23.1135 10.2772C23.06 10.25 22.99 10.25 22.85 10.25H1.15ZM10.25 15.5C10.25 15.0858 9.91421 14.75 9.5 14.75H5C4.58579 14.75 4.25 15.0858 4.25 15.5C4.25 15.9142 4.58579 16.25 5 16.25H9.5C9.91421 16.25 10.25 15.9142 10.25 15.5ZM14 16.25C14.4142 16.25 14.75 15.9142 14.75 15.5C14.75 15.0858 14.4142 14.75 14 14.75H12.5C12.0858 14.75 11.75 15.0858 11.75 15.5C11.75 15.9142 12.0858 16.25 12.5 16.25H14Z" fill="#000"/>
</svg>
