<svg width="24" height="24" viewBox="0 0 24 24" fill="none" xmlns="http://www.w3.org/2000/svg">
<path fill-rule="evenodd" clip-rule="evenodd" d="M1.46967 1.46967C1.76256 1.17678 2.23744 1.17678 2.53033 1.46967L22.5303 21.4697C22.8232 21.7626 22.8232 22.2374 22.5303 22.5303C22.2374 22.8232 21.7626 22.8232 21.4697 22.5303L19.6248 20.6855C19.5415 20.7102 19.4514 20.7255 19.3548 20.7298C18.9001 20.75 18.3585 20.75 17.7155 20.75H6.26788C5.45505 20.75 4.79944 20.75 4.26853 20.7066C3.7219 20.662 3.24176 20.5676 2.79754 20.3413C2.09193 19.9818 1.51825 19.4081 1.15873 18.7025C0.932386 18.2582 0.838026 17.7781 0.793364 17.2315C0.749988 16.7006 0.749993 16.0449 0.75 15.2321V10.5C0.75 10.3619 0.861929 10.25 1 10.25H9.18934L7.68934 8.75H0.999999C0.861928 8.75 0.749964 8.63797 0.75006 8.4999C0.750539 7.80935 0.75486 7.23981 0.793364 6.76853C0.838026 6.2219 0.932386 5.74176 1.15873 5.29754C1.49591 4.63577 2.02146 4.09006 2.66755 3.72821L1.46967 2.53033C1.17678 2.23744 1.17678 1.76256 1.46967 1.46967ZM14.7025 15.7632L13.6893 14.75H12.5C12.0858 14.75 11.75 15.0858 11.75 15.5C11.75 15.9142 12.0858 16.25 12.5 16.25H14C14.3216 16.25 14.5959 16.0476 14.7025 15.7632ZM10.25 15.5C10.25 15.0858 9.91421 14.75 9.5 14.75H5C4.58579 14.75 4.25 15.0858 4.25 15.5C4.25 15.9142 4.58579 16.25 5 16.25H9.5C9.91421 16.25 10.25 15.9142 10.25 15.5Z" fill="#000"/>
<path d="M19.7315 3.29336C20.2781 3.33803 20.7582 3.43239 21.2025 3.65873C21.9081 4.01825 22.4817 4.59193 22.8413 5.29754C23.0676 5.74176 23.162 6.2219 23.2066 6.76853C23.2451 7.23981 23.2495 7.80935 23.2499 8.4999C23.25 8.63797 23.1381 8.75 23 8.75H11.7929C11.7266 8.75 11.663 8.72366 11.6161 8.67678L7.9818 5.04246C7.32034 4.381 7.78881 3.25 8.72426 3.25H17.7321C18.545 3.24999 19.2006 3.24999 19.7315 3.29336Z" fill="#000"/>
<path d="M13.4454 10.5061C13.3509 10.4116 13.4178 10.25 13.5515 10.25H23C23.1381 10.25 23.25 10.3619 23.25 10.5L23.25 15.3025C23.2501 16.4535 23.2502 17.3103 23.0987 17.9768C23.0076 18.3776 22.7009 18.6494 22.3493 18.7299C22.0103 18.8076 21.6464 18.7071 21.3887 18.4494L13.4454 10.5061Z" fill="#000"/>
</svg>
