<svg width="24" height="24" viewBox="0 0 24 24" fill="none" xmlns="http://www.w3.org/2000/svg">
<path d="M10 4.5C10 3.39543 10.8954 2.5 12 2.5C13.1046 2.5 14 3.39543 14 4.5C14 5.31314 13.5147 6.01294 12.818 6.32561L15.8871 10.9293C16.0352 11.1513 16.3315 11.218 16.5604 11.0807L20.1183 8.94596C19.7373 8.58181 19.5 8.06862 19.5 7.5C19.5 6.39543 20.3954 5.5 21.5 5.5C22.6046 5.5 23.5 6.39543 23.5 7.5C23.5 8.60457 22.6046 9.5 21.5 9.5C21.4745 9.5 21.4491 9.49952 21.4238 9.49858L20.4167 15.5411C20.3966 15.6616 20.2923 15.75 20.1701 15.75H3.8299C3.70769 15.75 3.60339 15.6616 3.5833 15.5411L2.57622 9.49857C2.55093 9.49952 2.52552 9.5 2.5 9.5C1.39543 9.5 0.5 8.60457 0.5 7.5C0.5 6.39543 1.39543 5.5 2.5 5.5C3.60457 5.5 4.5 6.39543 4.5 7.5C4.5 8.06861 4.26271 8.5818 3.88176 8.94595L7.43963 11.0807C7.66849 11.218 7.96486 11.1514 8.11291 10.9293L11.182 6.32562C10.4853 6.01296 10 5.31315 10 4.5Z" fill="#000"/>
<path d="M4.16323 17.25C4.00875 17.25 3.89124 17.3887 3.91664 17.5411L4.08902 18.5754C4.3703 20.2631 5.83046 21.5 7.5414 21.5H16.4586C18.1696 21.5 19.6297 20.2631 19.911 18.5754L20.0834 17.5411C20.1088 17.3887 19.9913 17.25 19.8368 17.25H4.16323Z" fill="#000"/>
</svg>
