<svg width="24" height="24" viewBox="0 0 24 24" fill="none" xmlns="http://www.w3.org/2000/svg">
<path d="M20.7501 6C20.7501 4.45831 19.5198 3.26447 17.9923 2.50075C16.42 1.7146 14.3004 1.25 12.0001 1.25C9.69973 1.25 7.5801 1.7146 6.0078 2.50075C4.48035 3.26447 3.25006 4.45831 3.25006 6C3.25006 7.54169 4.48035 8.73553 6.0078 9.49925C7.5801 10.2854 9.69973 10.75 12.0001 10.75C14.3004 10.75 16.42 10.2854 17.9923 9.49925C19.5198 8.73553 20.7501 7.54169 20.7501 6Z" fill="#000"/>
<path d="M3.25012 9.37537C3.87919 10.0004 4.62806 10.4865 5.33699 10.8409C7.1585 11.7517 9.51741 12.25 12.0001 12.25C14.4827 12.25 16.8416 11.7517 18.6632 10.8409C19.3719 10.4866 20.1205 10.0007 20.7495 9.3759L20.7497 12.0509C20.723 13.568 19.503 14.744 17.9924 15.4993C16.4201 16.2854 14.3004 16.75 12.0001 16.75C9.6998 16.75 7.58016 16.2854 6.00786 15.4993C4.48041 14.7356 3.25012 13.5417 3.25012 12V9.37537Z" fill="#000"/>
<path d="M3.25002 17.5L3.25 15.3752C3.8791 16.0003 4.62805 16.4864 5.33704 16.8409C7.15855 17.7517 9.51747 18.25 12.0001 18.25C14.4828 18.25 16.8417 17.7517 18.6632 16.8409C19.3721 16.4865 20.1209 16.0005 20.7499 15.3756L20.75 17.5C20.75 19.1407 19.5814 20.4675 18.0238 21.3416C16.4439 22.2283 14.3124 22.75 11.9998 22.75C9.68725 22.75 7.55577 22.2283 5.97592 21.3416C4.4184 20.4674 3.24989 19.1406 3.25002 17.5Z" fill="#000"/>
</svg>
