<svg width="24" height="24" viewBox="0 0 24 24" fill="none" xmlns="http://www.w3.org/2000/svg">
<path fill-rule="evenodd" clip-rule="evenodd" d="M16.9326 1.25H7.06739C6.11495 1.24999 5.35439 1.24999 4.74013 1.30018C4.11012 1.35165 3.56824 1.45963 3.07054 1.71322C2.27085 2.12068 1.62068 2.77085 1.21322 3.57054C0.959634 4.06824 0.85165 4.61012 0.800176 5.24013C0.749989 5.85439 0.749994 6.61494 0.75 7.56738V12.4326C0.749998 12.7937 0.749995 13.1272 0.752728 13.4356C0.750922 13.4568 0.75 13.4783 0.75 13.5V15C0.75 17.0711 2.42893 18.75 4.5 18.75H7.01482C7.03225 18.75 7.04974 18.75 7.0673 18.75H9.25V20C9.25 20.6904 8.69036 21.25 8 21.25H7.5C7.08579 21.25 6.75 21.5858 6.75 22C6.75 22.4142 7.08579 22.75 7.5 22.75H16.5C16.9142 22.75 17.25 22.4142 17.25 22C17.25 21.5858 16.9142 21.25 16.5 21.25H16C15.3096 21.25 14.75 20.6904 14.75 20V18.75H16.9326C16.9502 18.75 16.9678 18.75 16.9852 18.75H19.5C21.5711 18.75 23.25 17.0711 23.25 15V13.5C23.25 13.4783 23.2491 13.4568 23.2473 13.4356C23.25 13.1272 23.25 12.7937 23.25 12.4327V7.56737C23.25 6.61496 23.25 5.85438 23.1998 5.24013C23.1483 4.61012 23.0404 4.06824 22.7868 3.57054C22.3793 2.77085 21.7291 2.12068 20.9295 1.71322C20.4318 1.45963 19.8899 1.35165 19.2599 1.30018C18.6456 1.24999 17.8851 1.24999 16.9326 1.25ZM21.7499 12.75C21.75 12.6375 21.75 12.5209 21.75 12.4V7.6C21.75 6.60753 21.7494 5.90829 21.7048 5.36228C21.6609 4.82503 21.5782 4.50252 21.4503 4.25153C21.1866 3.73408 20.7659 3.31338 20.2485 3.04973C19.9975 2.92184 19.675 2.83909 19.1377 2.79519C18.5917 2.75058 17.8925 2.75 16.9 2.75H7.1C6.10753 2.75 5.40829 2.75058 4.86228 2.79519C4.32503 2.83909 4.00252 2.92184 3.75153 3.04973C3.23408 3.31338 2.81338 3.73408 2.54973 4.25153C2.42184 4.50252 2.33909 4.82503 2.29519 5.36228C2.25058 5.90829 2.25 6.60753 2.25 7.6V12.4C2.25 12.5209 2.25001 12.6375 2.2501 12.75H21.7499Z" fill="#000"/>
</svg>
