<svg width="24" height="24" viewBox="0 0 24 24" fill="none" xmlns="http://www.w3.org/2000/svg">
<path d="M9 1.25H7.06739C6.11495 1.24999 5.35439 1.24999 4.74013 1.30018C4.11012 1.35165 3.56824 1.45963 3.07054 1.71322C2.27085 2.12068 1.62068 2.77085 1.21322 3.57054C0.959634 4.06824 0.85165 4.61012 0.800176 5.24013C0.749989 5.85439 0.749994 6.61494 0.75 7.56738V12.4326C0.749998 12.7937 0.749996 13.1272 0.752728 13.4356C0.750922 13.4568 0.75 13.4783 0.75 13.5V14.5C0.75 16.8472 2.65279 18.75 5 18.75H9.25V20C9.25 20.6904 8.69036 21.25 8 21.25H7.5C7.08579 21.25 6.75 21.5858 6.75 22C6.75 22.4142 7.08579 22.75 7.5 22.75H16.5C16.9142 22.75 17.25 22.4142 17.25 22C17.25 21.5858 16.9142 21.25 16.5 21.25H16C15.3096 21.25 14.75 20.6904 14.75 20V18.75H19C21.3472 18.75 23.25 16.8472 23.25 14.5V13.5C23.25 13.4783 23.2491 13.4568 23.2473 13.4356C23.25 13.1278 23.25 12.7951 23.25 12.435V7.56737C23.25 6.61496 23.25 5.85438 23.1998 5.24013C23.1483 4.61012 23.0404 4.06824 22.7868 3.57054C22.3793 2.77085 21.7291 2.12068 20.9295 1.71322C20.4318 1.45963 19.8899 1.35165 19.2599 1.30018C18.6456 1.24999 17.8851 1.24999 16.9326 1.25H15C14.5858 1.25 14.25 1.58579 14.25 2C14.25 2.41421 14.5858 2.75 15 2.75H16.9C17.8925 2.75 18.5917 2.75058 19.1377 2.79519C19.675 2.83909 19.9975 2.92184 20.2485 3.04973C20.7659 3.31338 21.1866 3.73408 21.4503 4.25153C21.5782 4.50252 21.6609 4.82503 21.7048 5.36228C21.7494 5.90829 21.75 6.60753 21.75 7.6L21.7499 12.75H2.25011L2.25 7.6C2.25 6.60753 2.25058 5.90829 2.29519 5.36228C2.33909 4.82503 2.42184 4.50252 2.54973 4.25153C2.81338 3.73408 3.23408 3.31338 3.75153 3.04973C4.00252 2.92184 4.32503 2.83909 4.86228 2.79519C5.40829 2.75058 6.10753 2.75 7.1 2.75H9C9.41421 2.75 9.75 2.41421 9.75 2C9.75 1.58579 9.41421 1.25 9 1.25Z" fill="#000"/>
<path d="M12 1.25C12.4142 1.25 12.75 1.58579 12.75 2V8.18934L14.4697 6.46967C14.7626 6.17678 15.2374 6.17678 15.5303 6.46967C15.8232 6.76256 15.8232 7.23744 15.5303 7.53033L12.5303 10.5303C12.3897 10.671 12.1989 10.75 12 10.75C11.8011 10.75 11.6103 10.671 11.4697 10.5303L8.46967 7.53033C8.17678 7.23744 8.17678 6.76256 8.46967 6.46967C8.76256 6.17678 9.23744 6.17678 9.53033 6.46967L11.25 8.18934V2C11.25 1.58579 11.5858 1.25 12 1.25Z" fill="#000"/>
</svg>
