<svg width="24" height="24" viewBox="0 0 24 24" fill="none" xmlns="http://www.w3.org/2000/svg">
<path d="M12.6289 1.25H11.3711C10.9757 1.24999 10.6347 1.24998 10.3537 1.27293C10.0572 1.29715 9.76231 1.35064 9.47852 1.49524C9.05516 1.71095 8.71095 2.05516 8.49524 2.47852C8.35064 2.76231 8.29715 3.05722 8.27293 3.35373C8.24998 3.63466 8.24999 3.97573 8.25 4.37109V5.62891C8.24999 6.02427 8.24998 6.36534 8.27293 6.64627C8.29715 6.94278 8.35064 7.2377 8.49524 7.52148C8.71095 7.94485 9.05516 8.28905 9.47852 8.50477C9.76231 8.64936 10.0572 8.70285 10.3537 8.72707C10.6056 8.74765 10.9057 8.74977 11.25 8.74998V11.25H8.16957C7.63541 11.25 7.18956 11.25 6.82533 11.2797C6.44545 11.3108 6.08879 11.3779 5.75153 11.5497C5.23408 11.8134 4.81339 12.2341 4.54973 12.7515C4.37789 13.0888 4.31078 13.4454 4.27974 13.8253C4.24998 14.1896 4.24999 14.6354 4.25 15.1696V15.25C3.90573 15.2502 3.60556 15.2524 3.35373 15.2729C3.05722 15.2972 2.76231 15.3506 2.47852 15.4952C2.05516 15.711 1.71095 16.0552 1.49524 16.4785C1.35064 16.7623 1.29715 17.0572 1.27293 17.3537C1.24998 17.6347 1.24999 17.9757 1.25 18.3711V19.6289C1.24999 20.0243 1.24998 20.3654 1.27293 20.6463C1.29715 20.9428 1.35064 21.2377 1.49524 21.5215C1.71095 21.9448 2.05516 22.2891 2.47852 22.5048C2.76231 22.6494 3.05722 22.7028 3.35373 22.7271C3.63466 22.75 3.97574 22.75 4.3711 22.75H5.6289C6.02427 22.75 6.36534 22.75 6.64627 22.7271C6.94278 22.7028 7.2377 22.6494 7.52148 22.5048C7.94485 22.2891 8.28905 21.9448 8.50477 21.5215C8.64936 21.2377 8.70285 20.9428 8.72707 20.6463C8.75003 20.3653 8.75002 20.0243 8.75 19.6289V18.3711C8.75002 17.9757 8.75003 17.6347 8.72707 17.3537C8.70285 17.0572 8.64936 16.7623 8.50477 16.4785C8.28905 16.0552 7.94485 15.711 7.52148 15.4952C7.2377 15.3506 6.94278 15.2972 6.64627 15.2729C6.39444 15.2524 6.09428 15.2502 5.75 15.25V15.2C5.75 14.6276 5.75058 14.2434 5.77476 13.9475C5.79822 13.6604 5.8401 13.5231 5.88624 13.4325C6.00608 13.1973 6.19731 13.0061 6.43251 12.8862C6.52307 12.8401 6.66036 12.7982 6.94748 12.7748C7.24336 12.7506 7.62757 12.75 8.2 12.75H15.8C16.3724 12.75 16.7566 12.7506 17.0525 12.7748C17.3396 12.7982 17.4769 12.8401 17.5675 12.8862C17.8027 13.0061 17.9939 13.1973 18.1138 13.4325C18.1599 13.5231 18.2018 13.6604 18.2252 13.9475C18.2494 14.2434 18.25 14.6276 18.25 15.2V15.25C17.9057 15.2502 17.6056 15.2524 17.3537 15.2729C17.0572 15.2972 16.7623 15.3506 16.4785 15.4952C16.0552 15.711 15.711 16.0552 15.4952 16.4785C15.3506 16.7623 15.2972 17.0572 15.2729 17.3537C15.25 17.6346 15.25 17.9757 15.25 18.371V19.6289C15.25 20.0243 15.25 20.3654 15.2729 20.6463C15.2972 20.9428 15.3506 21.2377 15.4952 21.5215C15.711 21.9448 16.0552 22.2891 16.4785 22.5048C16.7623 22.6494 17.0572 22.7028 17.3537 22.7271C17.6347 22.75 17.9757 22.75 18.3711 22.75H19.6289C20.0243 22.75 20.3653 22.75 20.6463 22.7271C20.9428 22.7028 21.2377 22.6494 21.5215 22.5048C21.9448 22.2891 22.2891 21.9448 22.5048 21.5215C22.6494 21.2377 22.7028 20.9428 22.7271 20.6463C22.75 20.3653 22.75 20.0243 22.75 19.6289V18.3711C22.75 17.9757 22.75 17.6347 22.7271 17.3537C22.7028 17.0572 22.6494 16.7623 22.5048 16.4785C22.2891 16.0552 21.9448 15.711 21.5215 15.4952C21.2377 15.3506 20.9428 15.2972 20.6463 15.2729C20.3944 15.2524 20.0943 15.2502 19.75 15.25V15.1695C19.75 14.6354 19.75 14.1896 19.7203 13.8253C19.6892 13.4454 19.6221 13.0888 19.4503 12.7515C19.1866 12.2341 18.7659 11.8134 18.2485 11.5497C17.9112 11.3779 17.5546 11.3108 17.1747 11.2797C16.8104 11.25 16.3646 11.25 15.8304 11.25H12.75V8.74998C13.0943 8.74977 13.3944 8.74765 13.6463 8.72707C13.9428 8.70285 14.2377 8.64936 14.5215 8.50477C14.9448 8.28905 15.2891 7.94485 15.5048 7.52148C15.6494 7.2377 15.7028 6.94278 15.7271 6.64627C15.75 6.36534 15.75 6.02427 15.75 5.6289V4.3711C15.75 3.97574 15.75 3.63466 15.7271 3.35373C15.7028 3.05722 15.6494 2.76231 15.5048 2.47852C15.2891 2.05516 14.9448 1.71095 14.5215 1.49524C14.2377 1.35064 13.9428 1.29715 13.6463 1.27293C13.3654 1.24998 13.0243 1.24999 12.6289 1.25Z" fill="#000"/>
</svg>
