<svg width="24" height="24" viewBox="0 0 24 24" fill="none" xmlns="http://www.w3.org/2000/svg">
<path fill-rule="evenodd" clip-rule="evenodd" d="M7.06739 1.25H16.9326C17.8851 1.24999 18.6456 1.24999 19.2599 1.30018C19.8899 1.35165 20.4318 1.45963 20.9295 1.71322C21.7291 2.12068 22.3793 2.77085 22.7868 3.57054C23.0404 4.06824 23.1483 4.61012 23.1998 5.24013C23.25 5.85438 23.25 6.6149 23.25 7.5673V12.4326C23.25 13.385 23.25 14.1456 23.1998 14.7599C23.1483 15.3899 23.0404 15.9318 22.7868 16.4295C22.3793 17.2291 21.7291 17.8793 20.9295 18.2868C20.4318 18.5404 19.8899 18.6483 19.2599 18.6998C18.6456 18.75 17.8851 18.75 16.9327 18.75H14.75V20C14.75 20.6904 15.3096 21.25 16 21.25H16.5C16.9142 21.25 17.25 21.5858 17.25 22C17.25 22.4142 16.9142 22.75 16.5 22.75H7.5C7.08579 22.75 6.75 22.4142 6.75 22C6.75 21.5858 7.08579 21.25 7.5 21.25H8C8.69036 21.25 9.25 20.6904 9.25 20V18.75H7.06737C6.11496 18.75 5.35438 18.75 4.74013 18.6998C4.11012 18.6483 3.56824 18.5404 3.07054 18.2868C2.27085 17.8793 1.62068 17.2291 1.21322 16.4295C0.959634 15.9318 0.85165 15.3899 0.800176 14.7599C0.749989 14.1456 0.749994 13.3851 0.75 12.4326V7.56739C0.749994 6.61495 0.749989 5.85439 0.800176 5.24013C0.85165 4.61012 0.959634 4.06824 1.21322 3.57054C1.62068 2.77085 2.27085 2.12068 3.07054 1.71322C3.56824 1.45963 4.11012 1.35165 4.74013 1.30018C5.35439 1.24999 6.11495 1.24999 7.06739 1.25ZM16.9 17.25C17.8925 17.25 18.5917 17.2494 19.1377 17.2048C19.675 17.1609 19.9975 17.0782 20.2485 16.9503C20.7659 16.6866 21.1866 16.2659 21.4503 15.7485C21.5782 15.4975 21.6609 15.175 21.7048 14.6377C21.7494 14.0917 21.75 13.3925 21.75 12.4V7.6C21.75 6.60753 21.7494 5.90829 21.7048 5.36228C21.6609 4.82503 21.5782 4.50252 21.4503 4.25153C21.1866 3.73408 20.7659 3.31338 20.2485 3.04973C19.9975 2.92184 19.675 2.83909 19.1377 2.79519C18.5917 2.75058 17.8925 2.75 16.9 2.75H7.1C6.10753 2.75 5.40829 2.75058 4.86228 2.79519C4.32503 2.83909 4.00252 2.92184 3.75153 3.04973C3.23408 3.31338 2.81338 3.73408 2.54973 4.25153C2.42184 4.50252 2.33909 4.82503 2.29519 5.36228C2.25058 5.90829 2.25 6.60753 2.25 7.6V12.4C2.25 13.3925 2.25058 14.0917 2.29519 14.6377C2.33909 15.175 2.42184 15.4975 2.54973 15.7485C2.81338 16.2659 3.23408 16.6866 3.75153 16.9503C4.00252 17.0782 4.32503 17.1609 4.86228 17.2048C5.40829 17.2494 6.10753 17.25 7.1 17.25H16.9Z" fill="#000"/>
</svg>
