<svg width="24" height="24" viewBox="0 0 24 24" fill="none" xmlns="http://www.w3.org/2000/svg">
<path d="M18.7467 2.81383V7.66986C18.7467 8.08407 19.0825 8.41986 19.4967 8.41986C19.9109 8.41986 20.2467 8.08407 20.2467 7.66986V2.81384L21.4664 4.0335C21.7593 4.3264 22.2341 4.3264 22.527 4.0335C22.8199 3.74061 22.8199 3.26574 22.527 2.97284L20.027 0.472843C19.7341 0.179951 19.2593 0.179951 18.9664 0.472843L16.4664 2.97284C16.1735 3.26574 16.1735 3.74061 16.4664 4.0335C16.7593 4.3264 17.2341 4.3264 17.527 4.0335L18.7467 2.81383Z" fill="#000"/>
<path fill-rule="evenodd" clip-rule="evenodd" d="M1.25 12.9999C1.25 7.06288 6.06294 2.24994 12 2.24994C12.684 2.24994 13.3538 2.31392 14.0034 2.43642C14.212 2.47576 14.3942 2.60165 14.5047 2.78286C14.6152 2.96408 14.6438 3.18365 14.5833 3.38713C14.4317 3.89729 14.35 4.43841 14.35 4.99994C14.35 8.12035 16.8796 10.6499 20 10.6499C20.5615 10.6499 21.1026 10.5683 21.6128 10.4166C21.8163 10.3561 22.0359 10.3847 22.2171 10.4952C22.3983 10.6058 22.5242 10.7879 22.5635 10.9965C22.686 11.6462 22.75 12.3159 22.75 12.9999C22.75 18.937 17.9371 23.7499 12 23.7499C6.06294 23.7499 1.25 18.937 1.25 12.9999ZM12.75 8.83332C12.75 8.41911 12.4142 8.08332 12 8.08332C11.5857 8.08332 11.25 8.41911 11.25 8.83332V9.18975C10.8037 9.27069 10.3927 9.42959 10.0496 9.67807C9.4984 10.0773 9.16662 10.6808 9.16662 11.4014C9.16662 12.3337 9.6882 12.9192 10.2794 13.2502C10.8233 13.5546 11.4647 13.6711 11.8767 13.7398C12.2981 13.81 12.6983 13.8966 12.9878 14.0587C13.2299 14.1942 13.3333 14.3385 13.3333 14.5986C13.3333 14.8184 13.2484 14.9781 13.0705 15.107C12.87 15.2522 12.5184 15.375 12 15.375C11.6427 15.375 11.4316 15.3368 11.2348 15.2588C11.0205 15.1738 10.7743 15.0224 10.3694 14.7157C10.0391 14.4657 9.56874 14.5307 9.31869 14.8609C9.06864 15.1911 9.13364 15.6615 9.46386 15.9116C9.89225 16.236 10.271 16.4902 10.6818 16.6531C10.8718 16.7285 11.0589 16.7806 11.25 16.8153V17.1666C11.25 17.5809 11.5857 17.9166 12 17.9166C12.4142 17.9166 12.75 17.5809 12.75 17.1666V16.8102C13.1962 16.7293 13.6072 16.5704 13.9503 16.3219C14.5015 15.9227 14.8333 15.3191 14.8333 14.5986C14.8333 13.6663 14.3117 13.0807 13.7205 12.7498C13.1766 12.4453 12.5352 12.3288 12.1233 12.2602C11.7018 12.1899 11.3016 12.1033 11.0121 11.9413C10.77 11.8058 10.6666 11.6614 10.6666 11.4014C10.6666 11.1815 10.7515 11.0218 10.9295 10.8929C11.1299 10.7478 11.4815 10.625 12 10.625C12.3572 10.625 12.5684 10.6631 12.7651 10.7412C12.9794 10.8261 13.2256 10.9776 13.6305 11.2842C13.9608 11.5342 14.4312 11.4692 14.6812 11.139C14.9313 10.8088 14.8663 10.3384 14.536 10.0883C14.1076 9.76394 13.7289 9.50972 13.3181 9.34682C13.1281 9.27146 12.941 9.21931 12.75 9.18459V8.83332Z" fill="#000"/>
</svg>
