<svg width="24" height="24" viewBox="0 0 24 24" fill="none" xmlns="http://www.w3.org/2000/svg">
<path d="M12.0001 1C12.5523 1 13.0001 1.44772 13.0001 2V3.5416C13.6578 3.60202 14.2589 3.73417 14.8688 3.97604C15.7497 4.32546 16.5881 4.88076 17.6038 5.64981C18.0441 5.98321 18.1307 6.61042 17.7973 7.05072C17.4639 7.49102 16.8367 7.57768 16.3964 7.24428C15.412 6.49891 14.7504 6.08067 14.1314 5.83516C13.5357 5.5989 12.9209 5.49997 12.0001 5.49997C10.6421 5.49997 9.61774 5.81996 8.96162 6.29514C8.33546 6.74863 8.00006 7.36859 8.00006 8.16337C8.00006 9.14602 8.47129 9.72772 9.23852 10.1572C10.0689 10.6221 11.1581 10.8459 12.1645 11.0136C13.1581 11.1792 14.5689 11.4429 15.7385 12.0976C16.9713 12.7877 18.0001 13.9576 18.0001 15.8366C18.0001 17.299 17.3355 18.5107 16.2116 19.3246C15.345 19.9523 14.2388 20.3231 13.0001 20.4501V22C13.0001 22.5523 12.5523 23 12.0001 23C11.4478 23 11.0001 22.5523 11.0001 22V20.4584C10.3423 20.3979 9.74118 20.2658 9.13135 20.0239C8.25038 19.6744 7.41201 19.1191 6.39638 18.3501C5.95608 18.0167 5.86942 17.3895 6.20282 16.9491C6.53622 16.5089 7.16343 16.4222 7.60373 16.7556C8.5881 17.501 9.24973 17.9192 9.86877 18.1648C10.4644 18.401 11.0792 18.5 12.0001 18.5C13.358 18.5 14.3824 18.18 15.0385 17.7048C15.6647 17.2513 16.0001 16.6314 16.0001 15.8366C16.0001 14.854 15.5289 14.2722 14.7616 13.8428C13.9312 13.3779 12.842 13.1541 11.8357 12.9864C10.842 12.8208 9.43119 12.5571 8.2616 11.9024C7.02883 11.2123 6.00006 10.0424 6.00006 8.16337C6.00006 6.701 6.66465 5.48926 7.78849 4.67534C8.6551 4.04771 9.76133 3.67684 11.0001 3.54982V2C11.0001 1.44772 11.4478 1 12.0001 1Z" fill="#000"/>
</svg>
