<svg width="24" height="24" viewBox="0 0 24 24" fill="none" xmlns="http://www.w3.org/2000/svg">
<path d="M20.2467 1.00317C20.2467 0.58896 19.9109 0.253174 19.4967 0.253174C19.0825 0.253174 18.7467 0.58896 18.7467 1.00317V5.8592L17.527 4.63953C17.2341 4.34664 16.7593 4.34664 16.4664 4.63953C16.1735 4.93242 16.1735 5.4073 16.4664 5.70019L18.9664 8.20019C19.2593 8.49308 19.7341 8.49308 20.027 8.20019L22.527 5.70019C22.8199 5.4073 22.8199 4.93242 22.527 4.63953C22.2341 4.34664 21.7593 4.34664 21.4664 4.63953L20.2467 5.8592V1.00317Z" fill="#000"/>
<path fill-rule="evenodd" clip-rule="evenodd" d="M1.25 12.9999C1.25 7.06288 6.06294 2.24994 12 2.24994C12.684 2.24994 13.3538 2.31392 14.0034 2.43642C14.212 2.47576 14.3942 2.60165 14.5047 2.78286C14.6152 2.96408 14.6438 3.18365 14.5833 3.38713C14.4317 3.89729 14.35 4.43841 14.35 4.99994C14.35 8.12035 16.8796 10.6499 20 10.6499C20.5615 10.6499 21.1026 10.5683 21.6128 10.4166C21.8163 10.3561 22.0359 10.3847 22.2171 10.4952C22.3983 10.6058 22.5242 10.7879 22.5635 10.9965C22.686 11.6462 22.75 12.3159 22.75 12.9999C22.75 18.937 17.9371 23.7499 12 23.7499C6.06294 23.7499 1.25 18.937 1.25 12.9999ZM12.75 8.83331C12.75 8.4191 12.4142 8.08331 12 8.08331C11.5858 8.08331 11.25 8.4191 11.25 8.83331V9.18974C10.8038 9.27069 10.3928 9.42958 10.0497 9.67807C9.49845 10.0773 9.16667 10.6808 9.16667 11.4014C9.16667 12.3337 9.68824 12.9192 10.2795 13.2502C10.8233 13.5546 11.4648 13.6711 11.8767 13.7398C12.2981 13.81 12.6984 13.8966 12.9878 14.0587C13.2299 14.1942 13.3333 14.3385 13.3333 14.5985C13.3333 14.8184 13.2485 14.9781 13.0705 15.107C12.8701 15.2522 12.5185 15.375 12 15.375C11.6427 15.375 11.4316 15.3368 11.2349 15.2588C11.0206 15.1738 10.7744 15.0223 10.3694 14.7157C10.0392 14.4657 9.56879 14.5307 9.31874 14.8609C9.06869 15.1911 9.13369 15.6615 9.46391 15.9116C9.8923 16.2359 10.2711 16.4902 10.6818 16.6531C10.8718 16.7285 11.059 16.7806 11.25 16.8153V17.1666C11.25 17.5808 11.5858 17.9166 12 17.9166C12.4142 17.9166 12.75 17.5808 12.75 17.1666V16.8102C13.1962 16.7292 13.6072 16.5703 13.9503 16.3219C14.5016 15.9227 14.8333 15.3191 14.8333 14.5985C14.8333 13.6662 14.3118 13.0807 13.7205 12.7498C13.1767 12.4453 12.5352 12.3288 12.1233 12.2602C11.7019 12.1899 11.3017 12.1033 11.0122 11.9413C10.7701 11.8058 10.6667 11.6614 10.6667 11.4014C10.6667 11.1815 10.7516 11.0218 10.9295 10.8929C11.1299 10.7478 11.4815 10.625 12 10.625C12.3573 10.625 12.5684 10.6631 12.7652 10.7411C12.9794 10.8261 13.2256 10.9775 13.6306 11.2842C13.9608 11.5342 14.4312 11.4692 14.6813 11.139C14.9313 10.8088 14.8663 10.3384 14.5361 10.0883C14.1077 9.76393 13.7289 9.50972 13.3182 9.34681C13.1282 9.27145 12.941 9.2193 12.75 9.18459V8.83331Z" fill="#000"/>
</svg>
