<svg width="24" height="24" viewBox="0 0 24 24" fill="none" xmlns="http://www.w3.org/2000/svg">
<path d="M3.18016 10.1989C4.01396 6.09132 7.64715 3 12.0001 3C16.1586 3 19.6606 5.82122 20.692 9.65553C20.7562 10.0638 21.0714 10.4056 21.501 10.4838C21.5559 10.4938 21.6106 10.4991 21.6646 10.5C21.7535 10.5018 21.844 10.4917 21.9343 10.4684C22.3593 10.3591 22.6499 9.99243 22.6823 9.57813L23.483 5.1791C23.582 4.63574 23.2217 4.11509 22.6783 4.01618C22.1349 3.91727 21.6143 4.27756 21.5154 4.82092L21.2832 6.09664C19.3308 3.03268 15.9036 1 12.0001 1C6.67724 1 2.23941 4.77972 1.22013 9.80107C1.11027 10.3423 1.45997 10.8701 2.00121 10.98C2.54246 11.0899 3.07029 10.7402 3.18016 10.1989Z" fill="#000"/>
<path d="M22.7801 14.1989C22.89 13.6577 22.5403 13.1299 21.999 13.02C21.4578 12.9101 20.9299 13.2598 20.8201 13.8011C19.9863 17.9087 16.3531 21 12.0001 21C7.84173 21 4.33978 18.1789 3.30832 14.3447C3.24415 13.9364 2.92904 13.5945 2.49944 13.5162C2.44519 13.5063 2.39115 13.501 2.33774 13.5C2.2482 13.498 2.1569 13.5081 2.0659 13.5316C1.64093 13.6409 1.35035 14.0076 1.31794 14.4219L0.516374 18.8207C0.417366 19.3641 0.777566 19.8848 1.3209 19.9838C1.86424 20.0828 2.38497 19.7226 2.48397 19.1793L2.7166 17.9026C4.66887 20.967 8.09634 23 12.0001 23C17.323 23 21.7608 19.2203 22.7801 14.1989Z" fill="#000"/>
<path d="M12.7502 7C12.7502 6.58579 12.4144 6.25 12.0002 6.25C11.5859 6.25 11.2502 6.58579 11.2502 7V7.55475C10.6848 7.64081 10.169 7.83007 9.74774 8.13519C9.12361 8.58721 8.75016 9.26705 8.75016 10.0817C8.75016 11.1332 9.33424 11.7917 10.0088 12.1693C10.636 12.5204 11.3816 12.6572 11.8769 12.7398C12.3816 12.8239 12.886 12.9308 13.2588 13.1395C13.5842 13.3217 13.7502 13.539 13.7502 13.9183C13.7502 14.2322 13.6236 14.4682 13.3727 14.6499C13.0994 14.8479 12.6437 15 12.0002 15C11.5596 15 11.2859 14.9528 11.0267 14.85C10.7499 14.7402 10.4412 14.5482 9.95292 14.1785C9.62269 13.9284 9.15229 13.9934 8.90224 14.3236C8.65219 14.6539 8.71719 15.1243 9.04741 15.3743C9.55913 15.7618 10.0004 16.0566 10.4736 16.2443C10.7317 16.3467 10.9859 16.4121 11.2502 16.4511V17C11.2502 17.4142 11.5859 17.75 12.0002 17.75C12.4144 17.75 12.7502 17.4142 12.7502 17V16.4452C13.3156 16.3592 13.8313 16.1699 14.2526 15.8648C14.8767 15.4128 15.2502 14.7329 15.2502 13.9183C15.2502 12.8667 14.6661 12.2083 13.9915 11.8306C13.3643 11.4795 12.6187 11.3427 12.1235 11.2602C11.6187 11.1761 11.1143 11.0691 10.7415 10.8604C10.4161 10.6783 10.2502 10.461 10.2502 10.0817C10.2502 9.76774 10.3767 9.53173 10.6276 9.35005C10.9009 9.15208 11.3567 8.99998 12.0002 8.99998C12.4408 8.99998 12.7144 9.04714 12.9737 9.14996C13.2504 9.25974 13.5591 9.45172 14.0474 9.82145C14.3776 10.0715 14.848 10.0065 15.0981 9.67627C15.3481 9.34605 15.2831 8.87564 14.9529 8.62559C14.4412 8.23811 13.9999 7.94332 13.5267 7.75563C13.2686 7.65327 13.0145 7.58786 12.7502 7.54886V7Z" fill="#000"/>
</svg>
