<svg width="24" height="24" viewBox="0 0 24 24" fill="none" xmlns="http://www.w3.org/2000/svg">
<path d="M5.5 5.75C5.5 5.05964 6.05964 4.5 6.75 4.5H8.25C8.94036 4.5 9.5 5.05964 9.5 5.75V11.25H14.5V5.75C14.5 5.05964 15.0596 4.5 15.75 4.5H17.25C17.9404 4.5 18.5 5.05964 18.5 5.75V18.25C18.5 18.9404 17.9404 19.5 17.25 19.5H15.75C15.0596 19.5 14.5 18.9404 14.5 18.25V12.75H9.5V18.25C9.5 18.9404 8.94036 19.5 8.25 19.5H6.75C6.05964 19.5 5.5 18.9404 5.5 18.25V5.75Z" fill="#000"/>
<path d="M0.25 12C0.25 11.5858 0.585786 11.25 1 11.25H1.5V8.5C1.5 7.67157 2.17157 7 3 7H4.25C4.38807 7 4.5 7.11193 4.5 7.25V16.75C4.5 16.8881 4.38807 17 4.25 17H3C2.17157 17 1.5 16.3284 1.5 15.5V12.75H1C0.585786 12.75 0.25 12.4142 0.25 12Z" fill="#000"/>
<path d="M22.5 12.75V15.5C22.5 16.3284 21.8284 17 21 17H19.75C19.6119 17 19.5 16.8881 19.5 16.75V7.25C19.5 7.11193 19.6119 7 19.75 7H21C21.8284 7 22.5 7.67157 22.5 8.5V11.25H23C23.4142 11.25 23.75 11.5858 23.75 12C23.75 12.4142 23.4142 12.75 23 12.75H22.5Z" fill="#000"/>
</svg>
