<svg width="24" height="24" viewBox="0 0 24 24" fill="none" xmlns="http://www.w3.org/2000/svg">
<path d="M5.7679 2.25H17.2321C18.0449 2.24999 18.7006 2.24999 19.2315 2.29337C19.7781 2.33803 20.2582 2.43239 20.7025 2.65873C21.4081 3.01825 21.9817 3.59193 22.3413 4.29754C22.4542 4.51914 22.5343 4.74968 22.5917 4.99296C22.6093 5.06768 22.5797 5.14514 22.5185 5.19157L12.9806 12.4334C12.2334 13.0007 12.0236 13.1427 11.8201 13.1968C11.6097 13.2528 11.3883 13.2528 11.178 13.1968C10.9744 13.1427 10.7646 13.0007 10.0175 12.4334L0.481154 5.19284C0.420024 5.14643 0.390385 5.069 0.407994 4.9943C0.465454 4.75053 0.545607 4.51955 0.658727 4.29754C1.01825 3.59193 1.59193 3.01825 2.29754 2.65873C2.74176 2.43239 3.2219 2.33803 3.76853 2.29337C4.29943 2.24999 4.95509 2.24999 5.7679 2.25Z" fill="#000"/>
<path d="M0.569732 7.14346C0.438705 7.04398 0.250713 7.13642 0.250338 7.30093C0.249997 7.45053 0.249999 7.6061 0.25 7.7679V14.7321C0.249995 15.5449 0.249991 16.2006 0.293364 16.7315C0.338026 17.2781 0.432387 17.7582 0.658728 18.2025C1.01825 18.9081 1.59193 19.4818 2.29754 19.8413C2.74175 20.0676 3.2219 20.162 3.76853 20.2066C4.29944 20.25 4.95505 20.25 5.76788 20.25H12.8171C13.0249 20.25 13.2234 20.1638 13.3653 20.0119C13.5071 19.86 13.5796 19.656 13.5653 19.4487C13.5552 19.3005 13.55 19.1509 13.55 19C13.55 15.4378 16.4378 12.55 20 12.55C20.6229 12.55 21.224 12.6381 21.7921 12.802C22.0185 12.8674 22.2625 12.8225 22.4509 12.6808C22.6392 12.5391 22.75 12.3171 22.75 12.0814V7.76788C22.75 7.60554 22.75 7.44947 22.7497 7.29942C22.7493 7.13491 22.5613 7.04248 22.4303 7.14196L13.7815 13.7088C13.1937 14.1559 12.7333 14.5062 12.2054 14.6465C11.7425 14.7695 11.2555 14.7695 10.7927 14.6465C10.2648 14.5062 9.80436 14.1559 9.21659 13.7088L0.569732 7.14346Z" fill="#000"/>
<path d="M23 18.75C23.4142 18.75 23.75 18.4142 23.75 18C23.75 17.5858 23.4142 17.25 23 17.25H18.2935C18.1153 17.25 18.0261 17.0346 18.1521 16.9086L19.5303 15.5303C19.8232 15.2374 19.8232 14.7626 19.5303 14.4697C19.2374 14.1768 18.7626 14.1768 18.4697 14.4697L15.4697 17.4697C15.329 17.6103 15.25 17.8011 15.25 18C15.25 18.1989 15.329 18.3897 15.4697 18.5303L18.4697 21.5303C18.7626 21.8232 19.2374 21.8232 19.5303 21.5303C19.8232 21.2374 19.8232 20.7626 19.5303 20.4697L18.1521 19.0914C18.0261 18.9654 18.1153 18.75 18.2935 18.75H23Z" fill="#000"/>
</svg>
