<svg width="24" height="24" viewBox="0 0 24 24" fill="none" xmlns="http://www.w3.org/2000/svg">
<path d="M17.2321 2.24982H5.7679C4.95507 2.24981 4.29944 2.2498 3.76853 2.29318C3.2219 2.33784 2.74176 2.4322 2.29754 2.65854C1.59193 3.01807 1.01825 3.59175 0.658726 4.29735C0.545609 4.51936 0.465456 4.75034 0.407996 4.9941C0.390387 5.06881 0.420025 5.14623 0.481156 5.19265L10.0175 12.4332C10.7646 13.0005 10.9744 13.1426 11.178 13.1966C11.3883 13.2526 11.6097 13.2526 11.8201 13.1966C12.0236 13.1426 12.2334 13.0005 12.9806 12.4332L22.5185 5.19137C22.5797 5.14494 22.6093 5.06748 22.5917 4.99276C22.5343 4.74949 22.4542 4.51895 22.3413 4.29735C21.9817 3.59175 21.4081 3.01807 20.7025 2.65854C20.2582 2.4322 19.7781 2.33784 19.2315 2.29318C18.7006 2.2498 18.0449 2.24981 17.2321 2.24982Z" fill="#000"/>
<path d="M22.7497 7.29922C22.7493 7.13471 22.5613 7.04228 22.4303 7.14176L13.7815 13.7086C13.1937 14.1557 12.7332 14.506 12.2053 14.6463C11.7425 14.7693 11.2555 14.7693 10.7927 14.6463C10.2648 14.506 9.80436 14.1557 9.21659 13.7086L0.569732 7.14327C0.438705 7.04379 0.250713 7.13622 0.250338 7.30074C0.249997 7.45034 0.249999 7.60591 0.25 7.76771V14.7319C0.249993 15.5448 0.249988 16.2004 0.293364 16.7313C0.338026 17.2779 0.432386 17.7581 0.658727 18.2023C1.01825 18.9079 1.59193 19.4816 2.29754 19.8411C2.74176 20.0674 3.2219 20.1618 3.76853 20.2065C4.29944 20.2498 4.95505 20.2498 5.76788 20.2498H12.8C13.2142 20.2498 13.55 19.914 13.55 19.4998C13.55 15.9376 16.4378 13.0498 20 13.0498C20.6229 13.0498 21.224 13.1379 21.7921 13.3018C22.0185 13.3672 22.2625 13.3223 22.4509 13.1806C22.6392 13.0389 22.75 12.8169 22.75 12.5812V7.76769C22.75 7.60535 22.75 7.44928 22.7497 7.29922Z" fill="#000"/>
<path d="M23.5303 15.9695C23.8232 16.2624 23.8232 16.7373 23.5303 17.0301L19.0303 21.5301C18.7374 21.823 18.2626 21.823 17.9697 21.5301L15.4697 19.0301C15.1768 18.7373 15.1768 18.2624 15.4697 17.9695C15.7626 17.6766 16.2374 17.6766 16.5303 17.9695L18.3586 19.7977C18.4367 19.8758 18.5633 19.8758 18.6414 19.7977L22.4697 15.9695C22.7626 15.6766 23.2374 15.6766 23.5303 15.9695Z" fill="#000"/>
</svg>
