<svg width="24" height="24" viewBox="0 0 24 24" fill="none" xmlns="http://www.w3.org/2000/svg">
<path d="M5.7679 2.25006H17.2321C18.0449 2.25005 18.7006 2.25005 19.2315 2.29343C19.7781 2.33809 20.2582 2.43245 20.7025 2.65879C21.4081 3.01831 21.9817 3.59199 22.3413 4.2976C22.4542 4.51919 22.5343 4.74973 22.5917 4.993C22.6093 5.06772 22.5797 5.14518 22.5185 5.19161L12.9805 12.4334C12.2334 13.0007 12.0236 13.1428 11.8201 13.1969C11.6097 13.2528 11.3883 13.2528 11.1779 13.1969C10.9744 13.1428 10.7646 13.0007 10.0175 12.4334L0.481153 5.19291C0.420022 5.1465 0.390383 5.06907 0.407992 4.99436C0.465452 4.75059 0.545606 4.51961 0.658727 4.2976C1.01825 3.59199 1.59193 3.01831 2.29754 2.65879C2.74176 2.43245 3.2219 2.33809 3.76853 2.29342C4.29944 2.25005 4.95506 2.25005 5.7679 2.25006Z" fill="#000"/>
<path d="M0.569733 7.14353C0.438705 7.04405 0.250713 7.13649 0.250338 7.301C0.249998 7.45058 0.249999 7.60614 0.25 7.76792V14.7322C0.249993 15.545 0.249988 16.2006 0.293364 16.7315C0.338026 17.2782 0.432386 17.7583 0.658727 18.2025C1.01825 18.9081 1.59193 19.4818 2.29754 19.8413C2.74176 20.0677 3.2219 20.162 3.76853 20.2067C4.29944 20.2501 4.95505 20.2501 5.76788 20.2501H12.8171C13.0249 20.2501 13.2234 20.1638 13.3653 20.0119C13.5071 19.86 13.5796 19.6561 13.5653 19.4487C13.5552 19.3006 13.55 19.151 13.55 19.0001C13.55 15.4378 16.4378 12.5501 20 12.5501C20.6229 12.5501 21.224 12.6381 21.7921 12.8021C22.0185 12.8674 22.2625 12.8225 22.4509 12.6808C22.6392 12.5391 22.75 12.3172 22.75 12.0815V7.76794C22.75 7.60559 22.75 7.44952 22.7497 7.29946C22.7493 7.13495 22.5613 7.04252 22.4303 7.142L13.7814 13.7088C13.1937 14.156 12.7332 14.5063 12.2053 14.6466C11.7425 14.7696 11.2555 14.7696 10.7927 14.6466C10.2648 14.5063 9.80434 14.156 9.21657 13.7088L0.569733 7.14353Z" fill="#000"/>
<path d="M16 17.2501C15.5858 17.2501 15.25 17.5858 15.25 18.0001C15.25 18.4143 15.5858 18.7501 16 18.7501H20.7065C20.8847 18.7501 20.9739 18.9655 20.8479 19.0915L19.4697 20.4697C19.1768 20.7626 19.1768 21.2375 19.4697 21.5304C19.7626 21.8233 20.2374 21.8233 20.5303 21.5304L23.5303 18.5304C23.671 18.3897 23.75 18.199 23.75 18.0001C23.75 17.8011 23.671 17.6104 23.5303 17.4697L20.5303 14.4697C20.2374 14.1768 19.7626 14.1768 19.4697 14.4697C19.1768 14.7626 19.1768 15.2375 19.4697 15.5304L20.8479 16.9086C20.9739 17.0346 20.8847 17.2501 20.7065 17.2501H16Z" fill="#000"/>
</svg>
