<svg width="24" height="24" viewBox="0 0 24 24" fill="none" xmlns="http://www.w3.org/2000/svg">
<path d="M9.12843 2.25C8.42718 2.24999 7.85548 2.24999 7.39125 2.28791C6.91132 2.32713 6.48057 2.41059 6.07913 2.61513C5.44879 2.9363 4.9363 3.44879 4.61513 4.07913C4.56604 4.17547 4.52393 4.2735 4.48773 4.37349C4.45893 4.45303 4.44453 4.49281 4.44612 4.54093C4.44743 4.58032 4.46135 4.6275 4.48163 4.66129C4.50641 4.70258 4.54471 4.73167 4.6213 4.78987L12.5179 10.7892C13.2653 11.3571 13.4752 11.4993 13.6788 11.5534C13.8893 11.6094 14.1107 11.6094 14.3212 11.5534C14.5249 11.4993 14.7347 11.3571 15.4821 10.7892L23.3787 4.78987C23.4553 4.73167 23.4936 4.70258 23.5184 4.66129C23.5387 4.6275 23.5526 4.58032 23.5539 4.54093C23.5555 4.49281 23.5411 4.45303 23.5123 4.37349C23.4761 4.2735 23.434 4.17547 23.3849 4.07913C23.0637 3.44879 22.5512 2.9363 21.9209 2.61513C21.5194 2.41059 21.0887 2.32713 20.6087 2.28791C20.1445 2.24999 19.5728 2.24999 18.8716 2.25H9.12843Z" fill="#000"/>
<path d="M4.53039 6.64733C4.59744 6.65554 4.67747 6.71634 4.83752 6.83794L11.7167 12.0644C12.3046 12.512 12.7652 12.8626 13.2934 13.0031C13.7564 13.1262 14.2436 13.1262 14.7067 13.0031C15.2348 12.8626 15.6954 12.512 16.2834 12.0644L23.1625 6.83793C23.3225 6.71635 23.4026 6.65555 23.4696 6.64733C23.5684 6.63523 23.6659 6.68361 23.716 6.76958C23.75 6.82793 23.75 6.92809 23.75 7.12841V12.8716C23.75 13.5728 23.75 14.1445 23.7121 14.6088C23.6729 15.0887 23.5894 15.5194 23.3849 15.9209C23.0637 16.5512 22.5512 17.0637 21.9209 17.3849C21.5194 17.5894 21.0887 17.6729 20.6087 17.7121C20.1445 17.75 19.5728 17.75 18.8716 17.75H9.12841C8.42716 17.75 7.85548 17.75 7.39125 17.7121C6.91132 17.6729 6.48057 17.5894 6.07913 17.3849C5.44879 17.0637 4.9363 16.5512 4.61513 15.9209C4.41059 15.5194 4.32713 15.0887 4.28791 14.6088C4.24998 14.1445 4.24999 13.5728 4.25 12.8716V7.12843C4.25 6.92809 4.25 6.82793 4.28402 6.76956C4.33413 6.68361 4.43164 6.63523 4.53039 6.64733Z" fill="#000"/>
<path d="M1.75 7C1.75 6.58579 1.41421 6.25 1 6.25C0.585787 6.25 0.25 6.58579 0.25 7V14.633C0.249995 15.7251 0.24999 16.5906 0.306988 17.2883C0.365274 18.0017 0.486882 18.6053 0.767719 19.1565C1.22312 20.0502 1.94978 20.7769 2.84355 21.2323C3.39472 21.5131 3.99834 21.6347 4.71173 21.693C5.40934 21.75 6.27481 21.75 7.36691 21.75H19C19.4142 21.75 19.75 21.4142 19.75 21C19.75 20.5858 19.4142 20.25 19 20.25H7.4C6.26752 20.25 5.46327 20.2494 4.83388 20.198C4.21325 20.1473 3.829 20.0509 3.52453 19.8958C2.913 19.5842 2.41582 19.087 2.10423 18.4755C1.94909 18.171 1.85271 17.7867 1.80201 17.1661C1.75058 16.5367 1.75 15.7325 1.75 14.6V7Z" fill="#000"/>
</svg>
