<svg width="24" height="24" viewBox="0 0 24 24" fill="none" xmlns="http://www.w3.org/2000/svg">
<path d="M6.2679 3H17.7321C18.5449 2.99999 19.2006 2.99999 19.7315 3.04336C20.2781 3.08803 20.7582 3.18239 21.2025 3.40873C21.9081 3.76825 22.4817 4.34193 22.8413 5.04754C22.9352 5.23189 23.0064 5.42243 23.0608 5.62134C23.0825 5.70086 23.0934 5.74061 23.0893 5.78546C23.086 5.82285 23.0716 5.86521 23.0515 5.89691C23.0274 5.93495 22.9911 5.96249 22.9186 6.01757L13.4806 13.1834C12.7334 13.7507 12.5236 13.8928 12.3201 13.9469C12.1097 14.0028 11.8884 14.0028 11.678 13.9469C11.4744 13.8928 11.2647 13.7507 10.5175 13.1834L1.08112 6.0188C1.0086 5.96374 0.97234 5.9362 0.948235 5.89819C0.928141 5.86649 0.913755 5.82415 0.910383 5.78678C0.906337 5.74195 0.917182 5.70219 0.938873 5.62269C0.993271 5.42329 1.06458 5.23231 1.15873 5.04754C1.51825 4.34193 2.09193 3.76825 2.79754 3.40873C3.24175 3.18239 3.7219 3.08803 4.26853 3.04336C4.79944 2.99999 5.45507 2.99999 6.2679 3Z" fill="#000"/>
<path d="M1.38704 8.13444C1.18389 7.98019 1.08231 7.90307 0.995849 7.90451C0.92093 7.90576 0.849748 7.94108 0.803449 8C0.750014 8.06799 0.750009 8.19512 0.750001 8.44939C0.75 8.4721 0.75 8.49493 0.75 8.51789V15.4821C0.749993 16.2949 0.749987 16.9506 0.793364 17.4815C0.838026 18.0281 0.932385 18.5082 1.15873 18.9525C1.51825 19.6581 2.09193 20.2317 2.79754 20.5913C3.24175 20.8176 3.7219 20.912 4.26853 20.9566C4.79944 21 5.45505 21 6.26788 21H17.7321C18.545 21 19.2006 21 19.7315 20.9566C20.2781 20.912 20.7582 20.8176 21.2025 20.5913C21.9081 20.2317 22.4817 19.6581 22.8413 18.9525C23.0676 18.5082 23.162 18.0281 23.2066 17.4815C23.25 16.9506 23.25 16.295 23.25 15.4821V8.51788C23.25 8.49442 23.25 8.47109 23.25 8.44789C23.25 8.19364 23.25 8.06651 23.1966 7.99852C23.1503 7.9396 23.0791 7.90428 23.0042 7.90303C22.9177 7.90159 22.8161 7.97871 22.613 8.13295L14.2815 14.4588C13.6937 14.906 13.2333 15.2563 12.7054 15.3966C12.2425 15.5196 11.7556 15.5196 11.2927 15.3966C10.7648 15.2563 10.3044 14.906 9.71661 14.4588L1.38704 8.13444Z" fill="#000"/>
</svg>
