<svg width="24" height="24" viewBox="0 0 24 24" fill="none" xmlns="http://www.w3.org/2000/svg">
<path fill-rule="evenodd" clip-rule="evenodd" d="M19.2417 12.609C19.2241 13.008 19.1005 13.4029 18.8719 13.7493L13.4558 21.9579C12.7641 23.0062 11.2261 23.0062 10.5344 21.9579L5.1183 13.7493C4.64608 13.0336 4.62169 12.1118 5.05541 11.3721L10.4855 2.11163C11.1616 0.95856 12.8286 0.958555 13.5047 2.11163L18.9348 11.3721C19.1182 11.6849 19.2197 12.0303 19.24 12.3789C19.2525 12.4556 19.2528 12.5333 19.2417 12.609ZM11.2496 16.9068C11.1927 16.8798 11.1369 16.8496 11.0824 16.8161L7.4735 14.5952L11.2496 20.3182V16.9068ZM16.5105 14.6046L12.7496 20.3045V16.9069C12.8065 16.8798 12.8623 16.8496 12.9168 16.8161L16.5105 14.6046Z" fill="#000"/>
</svg>
