<svg width="24" height="24" viewBox="0 0 24 24" fill="none" xmlns="http://www.w3.org/2000/svg">
<path d="M11.2394 1.88296C12.9949 1.02235 14.941 0.781612 16.8254 1.20145C18.7074 1.62076 20.4174 2.67375 21.7515 4.19873C22.1152 4.61441 22.073 5.24617 21.6573 5.60981C21.2416 5.97344 20.6099 5.93126 20.2462 5.51559C19.1691 4.28438 17.8242 3.47301 16.3905 3.15359C14.9592 2.8347 13.4763 3.01375 12.1198 3.67878C10.76 4.34542 9.57417 5.47844 8.73006 6.96046C8.54003 7.2941 8.36963 7.64146 8.21964 8.00001L14.9989 8.00001C15.5512 8.00001 15.9989 8.44773 15.9989 9.00002C15.9989 9.5523 15.5512 10 14.9989 10L7.61855 10C7.49321 10.6518 7.4287 11.3224 7.4287 12C7.4287 12.6776 7.49321 13.3482 7.61855 14H14.9989C15.5512 14 15.9989 14.4477 15.9989 15C15.9989 15.5523 15.5512 16 14.9989 16H8.21964C8.36963 16.3586 8.54003 16.7059 8.73006 17.0396C9.57417 18.5216 10.76 19.6546 12.1198 20.3213C13.4763 20.9863 14.9592 21.1653 16.3905 20.8464C17.8242 20.527 19.1691 19.7157 20.2462 18.4844C20.6099 18.0688 21.2416 18.0266 21.6573 18.3902C22.073 18.7539 22.1152 19.3856 21.7515 19.8013C20.4174 21.3263 18.7074 22.3793 16.8254 22.7986C14.941 23.2184 12.9949 22.9777 11.2394 22.1171C9.48721 21.2581 8.01631 19.8275 6.99218 18.0294C6.6264 17.3872 6.32242 16.7068 6.08277 16H3C2.44772 16 2 15.5523 2 15C2 14.4477 2.44772 14 3 14H5.58794C5.48236 13.3426 5.4287 12.6732 5.4287 12C5.4287 11.3269 5.48236 10.6575 5.58794 10H3C2.44772 10 2 9.5523 2 9.00001C2 8.44773 2.44772 8.00001 3 8.00001L6.08277 8.00001C6.32242 7.29328 6.6264 6.61283 6.99218 5.97063C8.01631 4.17255 9.48721 2.74197 11.2394 1.88296Z" fill="#000"/>
</svg>
