<svg width="24" height="24" viewBox="0 0 24 24" fill="none" xmlns="http://www.w3.org/2000/svg">
<path fill-rule="evenodd" clip-rule="evenodd" d="M9.17887 3.87872C10.4297 1.70709 13.5702 1.7071 14.821 3.87872L22.3137 16.8869C23.5621 19.0543 21.9903 21.75 19.4926 21.75H4.50734C2.00966 21.75 0.43783 19.0543 1.68625 16.8869L9.17887 3.87872ZM11.25 14L11.25 8C11.25 7.58579 11.5858 7.25 12 7.25C12.4142 7.25 12.75 7.58579 12.75 8L12.75 14C12.75 14.4142 12.4142 14.75 12 14.75C11.5858 14.75 11.25 14.4142 11.25 14ZM11 17.5C11 16.9477 11.4477 16.5 12 16.5C12.5523 16.5 13.0001 16.9477 13.0001 17.5C13.0001 18.0523 12.5523 18.5 12 18.5C11.4477 18.5 11 18.0523 11 17.5Z" fill="#000"/>
</svg>
