<svg width="24" height="24" viewBox="0 0 24 24" fill="none" xmlns="http://www.w3.org/2000/svg">
<path fill-rule="evenodd" clip-rule="evenodd" d="M1.46967 1.46967C1.76256 1.17678 2.23744 1.17678 2.53033 1.46967L6.46483 5.40417L6.46957 5.40887L18.5912 17.5305L18.5958 17.5352L22.5303 21.4697C22.8232 21.7626 22.8232 22.2374 22.5303 22.5303C22.2374 22.8232 21.7626 22.8232 21.4697 22.5303L17.9683 19.029C12.3794 22.5781 4.12947 20.633 1.45745 13.1928C1.18093 12.4229 1.18093 11.5772 1.45745 10.8072C2.19747 8.74665 3.37294 7.09757 4.81122 5.87188L1.46967 2.53033C1.17678 2.23744 1.17678 1.76256 1.46967 1.46967ZM7.75 12C7.75 11.0963 8.03096 10.2592 8.51042 9.57108L9.59767 10.6583C9.37615 11.0549 9.25 11.5124 9.25 12C9.25 13.5215 10.4785 14.75 12 14.75C12.4876 14.75 12.9451 14.6238 13.3417 14.4023L14.4289 15.4896C13.7408 15.969 12.9037 16.25 12 16.25C9.65003 16.25 7.75 14.35 7.75 12Z" fill="#000"/>
<path fill-rule="evenodd" clip-rule="evenodd" d="M22.5427 10.8072C20.2192 4.33758 13.6658 2.01918 8.32829 3.86447C8.08402 3.94891 7.90044 4.15318 7.84246 4.40504C7.78448 4.65691 7.86026 4.92088 8.04301 5.10363L19.5716 16.6323C19.7231 16.7838 19.9322 16.8632 20.1461 16.8506C20.36 16.838 20.5583 16.7345 20.6909 16.5663C21.4509 15.6024 22.0816 14.4766 22.5427 13.1928C22.8192 12.4229 22.8192 11.5772 22.5427 10.8072ZM16.2432 12.2432C16.2477 12.1627 16.25 12.0816 16.25 12C16.25 9.65003 14.35 7.75 12 7.75C11.9184 7.75 11.8373 7.75229 11.7568 7.75682L16.2432 12.2432Z" fill="#000"/>
</svg>
