<svg width="24" height="24" viewBox="0 0 24 24" fill="none" xmlns="http://www.w3.org/2000/svg">
<path d="M9.25 12C9.25 10.4785 10.4785 9.25 12 9.25C13.5215 9.25 14.75 10.4785 14.75 12C14.75 13.5215 13.5215 14.75 12 14.75C10.4785 14.75 9.25 13.5215 9.25 12Z" fill="#000"/>
<path fill-rule="evenodd" clip-rule="evenodd" d="M1.45739 10.8072C5.07613 0.730935 18.9239 0.730934 22.5426 10.8072C22.8191 11.5772 22.8191 12.4228 22.5426 13.1928C18.9239 23.2691 5.07613 23.2691 1.45739 13.1928C1.18087 12.4228 1.18087 11.5772 1.45739 10.8072ZM12 7.75C9.65003 7.75 7.75 9.65003 7.75 12C7.75 14.35 9.65003 16.25 12 16.25C14.35 16.25 16.25 14.35 16.25 12C16.25 9.65003 14.35 7.75 12 7.75Z" fill="#000"/>
</svg>
