<svg width="24" height="24" viewBox="0 0 24 24" fill="none" xmlns="http://www.w3.org/2000/svg">
<path fill-rule="evenodd" clip-rule="evenodd" d="M0.25 12C0.25 5.51065 5.51065 0.25 12 0.25C18.4893 0.25 23.75 5.51065 23.75 12C23.75 18.4893 18.4893 23.75 12 23.75C5.51065 23.75 0.25 18.4893 0.25 12ZM9 11.25C9.57519 11.25 9.89403 10.8032 10.0244 10.5425C10.1772 10.237 10.25 9.86733 10.25 9.5C10.25 9.13267 10.1772 8.76304 10.0244 8.45748C9.89403 8.19679 9.57519 7.75 9 7.75C8.42481 7.75 8.10597 8.19679 7.97563 8.45748C7.82285 8.76304 7.75 9.13267 7.75 9.5C7.75 9.86733 7.82285 10.237 7.97563 10.5425C8.10597 10.8032 8.42481 11.25 9 11.25ZM7.54951 14.4004C7.88067 14.1516 8.35083 14.2183 8.59963 14.5495C9.3763 15.5832 10.6102 16.2495 12 16.2495C13.3898 16.2495 14.6237 15.5832 15.4004 14.5495C15.6492 14.2183 16.1194 14.1516 16.4505 14.4004C16.7817 14.6492 16.8484 15.1194 16.5996 15.4505C15.5518 16.8451 13.8814 17.7495 12 17.7495C10.1186 17.7495 8.44819 16.8451 7.40039 15.4505C7.15159 15.1194 7.21835 14.6492 7.54951 14.4004ZM16.0244 10.5425C15.894 10.8032 15.5752 11.25 15 11.25C14.4248 11.25 14.106 10.8032 13.9756 10.5425C13.8228 10.237 13.75 9.86733 13.75 9.5C13.75 9.13267 13.8228 8.76304 13.9756 8.45748C14.106 8.19679 14.4248 7.75 15 7.75C15.5752 7.75 15.894 8.19679 16.0244 8.45748C16.1772 8.76304 16.25 9.13267 16.25 9.5C16.25 9.86733 16.1772 10.237 16.0244 10.5425Z" fill="#000"/>
</svg>
