<svg width="24" height="24" viewBox="0 0 24 24" fill="none" xmlns="http://www.w3.org/2000/svg">
<path fill-rule="evenodd" clip-rule="evenodd" d="M12.7228 1.38663C12.75 1.4401 12.75 1.51011 12.75 1.65012V6.50001C12.75 8.01879 13.9812 9.25001 15.5 9.25001H20.35C20.49 9.25001 20.56 9.25001 20.6135 9.27726C20.6605 9.30123 20.6988 9.33947 20.7228 9.38651C20.75 9.43999 20.75 9.51 20.75 9.65001V17.632C20.75 18.3751 20.75 18.9782 20.71 19.4674C20.6688 19.9723 20.5812 20.4216 20.3685 20.8391C20.033 21.4977 19.4975 22.0331 18.839 22.3686C18.4215 22.5814 17.9722 22.6689 17.4673 22.7102C16.9781 22.7501 16.3748 22.7501 15.6318 22.7501H8.36811C7.62507 22.7501 7.02195 22.7501 6.53273 22.7102C6.02778 22.6689 5.57851 22.5814 5.16104 22.3686C4.50247 22.0331 3.96704 21.4977 3.63148 20.8391C3.41876 20.4216 3.33121 19.9723 3.28996 19.4674C3.24999 18.9782 3.24999 18.375 3.25 17.6319V6.3683C3.24999 5.62524 3.24999 5.02208 3.28996 4.53285C3.33121 4.02791 3.41876 3.57864 3.63148 3.16116C3.96704 2.50259 4.50247 1.96716 5.16103 1.6316C5.57851 1.41888 6.02778 1.33134 6.53273 1.29008C7.02196 1.25011 7.62512 1.25011 8.36819 1.25012H12.35C12.49 1.25012 12.56 1.25012 12.6135 1.27737C12.6605 1.30134 12.6988 1.33958 12.7228 1.38663ZM12 10.25C12.4142 10.25 12.75 10.5858 12.75 11V16.1893L14.4697 14.4697C14.7626 14.1768 15.2374 14.1768 15.5303 14.4697C15.8232 14.7626 15.8232 15.2374 15.5303 15.5303L12.5303 18.5303C12.3897 18.671 12.1989 18.75 12 18.75C11.8011 18.75 11.6103 18.671 11.4697 18.5303L8.46967 15.5303C8.17678 15.2374 8.17678 14.7626 8.46967 14.4697C8.76256 14.1768 9.23744 14.1768 9.53033 14.4697L11.25 16.1893V11C11.25 10.5858 11.5858 10.25 12 10.25Z" fill="#000"/>
<path d="M20.0958 7.28514C20.2341 7.42303 20.3822 7.57057 20.4921 7.74996L15.5 7.75001C14.8096 7.75001 14.25 7.19036 14.25 6.50001L14.2502 1.508C14.4296 1.61794 14.5771 1.766 14.715 1.90437L14.749 1.93842L20.0617 7.25116L20.0958 7.28514Z" fill="#000"/>
</svg>
