<svg width="24" height="24" viewBox="0 0 24 24" fill="none" xmlns="http://www.w3.org/2000/svg">
<path d="M10.75 1.5C10.75 1.36193 10.6381 1.25 10.5 1.25H6.36821C5.62513 1.24999 5.02197 1.24999 4.53273 1.28996C4.02778 1.33121 3.57851 1.41876 3.16103 1.63148C2.50247 1.96703 1.96704 2.50247 1.63148 3.16103C1.41876 3.57851 1.33121 4.02778 1.28996 4.53273C1.24999 5.02196 1.24999 5.6251 1.25 6.36817V17.6318C1.24999 18.3749 1.24999 18.978 1.28996 19.4673C1.33121 19.9722 1.41876 20.4215 1.63148 20.839C1.96703 21.4975 2.50247 22.033 3.16104 22.3685C3.57851 22.5812 4.02778 22.6688 4.53273 22.71C5.02195 22.75 5.62507 22.75 6.36811 22.75H7C7.41421 22.75 7.75 22.4142 7.75 22C7.75 21.6951 7.82949 21.3906 7.98839 21.1182L9.36766 18.7538C9.48177 18.5581 9.50138 18.3214 9.421 18.1097C9.34062 17.8979 9.16887 17.7339 8.95368 17.6633C8.25382 17.4336 7.75 16.7746 7.75 16C7.75 15.0335 8.5335 14.25 9.5 14.25H13C13.3125 14.25 13.613 14.3333 13.8747 14.4843C14.107 14.6183 14.3931 14.6182 14.6253 14.4838C14.882 14.3353 15.1799 14.25 15.5 14.25C15.8948 14.25 16.2572 14.3799 16.5496 14.5995C16.8164 14.7999 17.1836 14.7999 17.4504 14.5995C17.6542 14.4464 17.8917 14.3373 18.1492 14.285C18.4988 14.2141 18.75 13.9067 18.75 13.55V9.50001C18.75 9.36194 18.6381 9.25001 18.5 9.25001H13.5C11.9812 9.25001 10.75 8.01879 10.75 6.50001V1.5Z" fill="#000"/>
<path d="M18.4922 7.75001C18.3823 7.57062 18.2341 7.42291 18.0958 7.28502L18.0617 7.25104L12.7496 1.93892L12.715 1.90423C12.5771 1.76587 12.4295 1.61781 12.2502 1.50788L12.25 6.50001C12.25 7.19036 12.8096 7.75001 13.5 7.75001H18.4922Z" fill="#000"/>
<path d="M8.75 16C8.75 15.5858 9.08579 15.25 9.5 15.25H13C13.2685 15.25 13.5166 15.3936 13.6504 15.6265C13.7841 15.8593 13.7831 16.1459 13.6478 16.3779L11.0251 20.874C10.9279 21.0407 11.0481 21.25 11.241 21.25H13C13.4142 21.25 13.75 21.5858 13.75 22C13.75 22.4142 13.4142 22.75 13 22.75H9.5C9.23145 22.75 8.9834 22.6064 8.84964 22.3736C8.71589 22.1407 8.71685 21.8541 8.85217 21.6221L11.4749 17.126C11.5721 16.9593 11.4519 16.75 11.259 16.75H9.5C9.08579 16.75 8.75 16.4142 8.75 16Z" fill="#000"/>
<path d="M15.5 15.25C15.9142 15.25 16.25 15.5858 16.25 16V22C16.25 22.4142 15.9142 22.75 15.5 22.75C15.0858 22.75 14.75 22.4142 14.75 22V16C14.75 15.5858 15.0858 15.25 15.5 15.25Z" fill="#000"/>
<path fill-rule="evenodd" clip-rule="evenodd" d="M17.75 16C17.75 15.5858 18.0858 15.25 18.5 15.25H20.25C21.6307 15.25 22.75 16.3693 22.75 17.75C22.75 19.1307 21.6307 20.25 20.25 20.25H19.5C19.3619 20.25 19.25 20.3619 19.25 20.5V22C19.25 22.4142 18.9142 22.75 18.5 22.75C18.0858 22.75 17.75 22.4142 17.75 22V16ZM19.5 16.75C19.3619 16.75 19.25 16.8619 19.25 17V18.5C19.25 18.6381 19.3619 18.75 19.5 18.75H20.25C20.8023 18.75 21.25 18.3023 21.25 17.75C21.25 17.1977 20.8023 16.75 20.25 16.75H19.5Z" fill="#000"/>
</svg>
