<svg width="24" height="24" viewBox="0 0 24 24" fill="none" xmlns="http://www.w3.org/2000/svg">
<path d="M10.75 1.5C10.75 1.36193 10.6381 1.25 10.5 1.25H6.36821C5.62513 1.24999 5.02197 1.24999 4.53273 1.28996C4.02778 1.33121 3.57851 1.41876 3.16103 1.63148C2.50247 1.96703 1.96704 2.50247 1.63148 3.16103C1.41876 3.57851 1.33121 4.02778 1.28996 4.53273C1.24999 5.02196 1.24999 5.62512 1.25 6.36819V17.6318C1.24999 18.3749 1.24999 18.978 1.28996 19.4673C1.33121 19.9722 1.41876 20.4215 1.63148 20.839C1.96704 21.4975 2.50247 22.033 3.16104 22.3685C3.88952 22.7397 4.78015 22.7476 5.99869 22.7498C6.19783 22.7501 6.38893 22.6713 6.52987 22.5306C6.6708 22.3899 6.75 22.1989 6.75 21.9998V16C6.75 15.0335 7.5335 14.25 8.5 14.25H10.25C10.8963 14.25 11.4995 14.4245 12.0176 14.7284C12.2908 14.8886 12.6353 14.8599 12.8782 14.6567C13.1823 14.4024 13.5724 14.25 14 14.25H15.5C16.1836 14.25 16.8159 14.4602 17.3385 14.8196C17.6324 15.0216 18.0279 14.9888 18.2845 14.741C18.3368 14.6905 18.3922 14.6432 18.4504 14.5995C18.639 14.4578 18.75 14.2357 18.75 13.9998V9.50001C18.75 9.36194 18.6381 9.25001 18.5 9.25001H13.5C11.9812 9.25001 10.75 8.01879 10.75 6.50001V1.5Z" fill="#000"/>
<path d="M18.4921 7.74984C18.3822 7.57045 18.2341 7.42291 18.0958 7.28502L18.0617 7.25104L12.7489 1.93829L12.715 1.90423C12.5771 1.76587 12.4295 1.61781 12.2502 1.50788L12.25 6.50001C12.25 7.19036 12.8096 7.75001 13.5 7.75001L18.4921 7.74984Z" fill="#000"/>
<path fill-rule="evenodd" clip-rule="evenodd" d="M8.5 15.25C8.08579 15.25 7.75 15.5858 7.75 16V22C7.75 22.4142 8.08579 22.75 8.5 22.75C8.91421 22.75 9.25 22.4142 9.25 22V20.5C9.25 20.3619 9.36193 20.25 9.5 20.25H10.25C11.6307 20.25 12.75 19.1307 12.75 17.75C12.75 16.3693 11.6307 15.25 10.25 15.25H8.5ZM10.25 18.75H9.5C9.36193 18.75 9.25 18.6381 9.25 18.5V17C9.25 16.8619 9.36193 16.75 9.5 16.75H10.25C10.8023 16.75 11.25 17.1977 11.25 17.75C11.25 18.3023 10.8023 18.75 10.25 18.75Z" fill="#000"/>
<path fill-rule="evenodd" clip-rule="evenodd" d="M13.25 16C13.25 15.5858 13.5858 15.25 14 15.25H15.5C16.7426 15.25 17.75 16.2574 17.75 17.5V20.5C17.75 21.7427 16.7426 22.75 15.5 22.75H14C13.8011 22.75 13.6103 22.671 13.4697 22.5303C13.329 22.3897 13.25 22.1989 13.25 22V16ZM15 16.75C14.8619 16.75 14.75 16.8619 14.75 17V21C14.75 21.1381 14.8619 21.25 15 21.25H15.5C15.9142 21.25 16.25 20.9142 16.25 20.5V17.5C16.25 17.0858 15.9142 16.75 15.5 16.75H15Z" fill="#000"/>
<path d="M19.5 15.25C19.0858 15.25 18.75 15.5858 18.75 16V22C18.75 22.4142 19.0858 22.75 19.5 22.75C19.9142 22.75 20.25 22.4142 20.25 22V20.25C20.25 20.1119 20.3619 20 20.5 20H22C22.4142 20 22.75 19.6642 22.75 19.25C22.75 18.8358 22.4142 18.5 22 18.5H20.5C20.3619 18.5 20.25 18.3881 20.25 18.25V17C20.25 16.8619 20.3619 16.75 20.5 16.75H22C22.4142 16.75 22.75 16.4142 22.75 16C22.75 15.5858 22.4142 15.25 22 15.25H19.5Z" fill="#000"/>
</svg>
