<svg width="24" height="24" viewBox="0 0 24 24" fill="none" xmlns="http://www.w3.org/2000/svg">
<path d="M12.75 1.65012C12.75 1.51011 12.75 1.4401 12.7228 1.38662C12.6988 1.33958 12.6605 1.30134 12.6135 1.27737C12.56 1.25012 12.49 1.25012 12.35 1.25012H8.36821C7.62513 1.25011 7.02197 1.25011 6.53273 1.29008C6.02778 1.33134 5.57851 1.41888 5.16103 1.6316C4.50247 1.96716 3.96704 2.50259 3.63148 3.16116C3.41876 3.57864 3.33121 4.02791 3.28996 4.53285C3.24999 5.02208 3.24999 5.62523 3.25 6.3683V17.6319C3.24999 18.375 3.24999 18.9782 3.28996 19.4674C3.33121 19.9723 3.41876 20.4216 3.63148 20.8391C3.96703 21.4977 4.50247 22.0331 5.16104 22.3686C5.57851 22.5814 6.02778 22.6689 6.53273 22.7102C7.02195 22.7501 7.62507 22.7501 8.36811 22.7501H15.6318C16.3748 22.7501 16.9781 22.7501 17.4673 22.7102C17.9722 22.6689 18.4215 22.5814 18.839 22.3686C19.4975 22.0331 20.033 21.4977 20.3685 20.8391C20.5812 20.4216 20.6688 19.9723 20.71 19.4674C20.75 18.9782 20.75 18.3751 20.75 17.632V9.65001C20.75 9.51 20.75 9.43999 20.7228 9.38651C20.6988 9.33947 20.6605 9.30123 20.6135 9.27726C20.56 9.25001 20.49 9.25001 20.35 9.25001H15.5C13.9812 9.25001 12.75 8.01879 12.75 6.50001V1.65012Z" fill="#000"/>
<path d="M20.4921 7.74996C20.4921 7.74998 20.4921 7.74996 20.4921 7.74996C20.3822 7.57057 20.2341 7.42303 20.0958 7.28514L20.0617 7.25116L14.749 1.93842L14.715 1.90436C14.5771 1.766 14.4296 1.61793 14.2502 1.508C14.2501 1.50796 14.2502 1.50792 14.2502 1.508L14.25 6.50001C14.25 7.19036 14.8096 7.75001 15.5 7.75001L20.4921 7.74996Z" fill="#000"/>
</svg>
