<svg width="24" height="24" viewBox="0 0 24 24" fill="none" xmlns="http://www.w3.org/2000/svg">
<path d="M4.12132 1.5C2.67361 1.5 1.5 2.6736 1.5 4.12132C1.5 4.81654 1.77617 5.48328 2.26777 5.97487L8.70711 12.4142C8.89464 12.6017 9 12.8561 9 13.1213V17.5194C9 17.9751 9.20713 18.406 9.56296 18.6907L14.1877 22.3904C14.3377 22.5105 14.5434 22.5339 14.7166 22.4507C14.8898 22.3674 15 22.1922 15 22V13.1213C15 12.8561 15.1054 12.6017 15.2929 12.4142L21.7322 5.97487C22.2238 5.48328 22.5 4.81654 22.5 4.12132C22.5 2.6736 21.3264 1.5 19.8787 1.5H4.12132Z" fill="#000"/>
</svg>
