<svg width="24" height="24" viewBox="0 0 24 24" fill="none" xmlns="http://www.w3.org/2000/svg">
<path d="M5.63604 3.7459C7.32387 2.05807 9.61305 1.10986 12 1.10986C14.0545 1.10986 16.0365 1.81232 17.625 3.08422C18.0561 3.42941 18.1258 4.05873 17.7806 4.48985C17.4354 4.92097 16.8061 4.99063 16.375 4.64544C15.1395 3.6562 13.5979 3.10986 12 3.10986C10.1435 3.10986 8.36301 3.84736 7.05025 5.16012C5.7375 6.47287 5 8.25335 5 10.1099V17C5 17.5523 4.55228 18 4 18C3.44772 18 3 17.5523 3 17V10.1099C3 7.72292 3.94821 5.43373 5.63604 3.7459Z" fill="#000"/>
<path d="M8.46447 6.46447C9.40215 5.52678 10.6739 5 12 5C13.3261 5 14.5979 5.52678 15.5355 6.46447C16.4732 7.40215 17 8.67392 17 10V18.1099C17 19.4359 16.4732 20.7077 15.5355 21.6454C14.5979 22.5831 13.3261 23.1099 12 23.1099C11.4477 23.1099 11 22.6621 11 22.1099C11 21.5576 11.4477 21.1099 12 21.1099C12.7956 21.1099 13.5587 20.7938 14.1213 20.2312C14.6839 19.6686 15 18.9055 15 18.1099V10C15 9.20435 14.6839 8.44129 14.1213 7.87868C13.5587 7.31607 12.7956 7 12 7C11.2044 7 10.4413 7.31607 9.87868 7.87868C9.31607 8.44129 9 9.20435 9 10V11.1099C9 11.6621 8.55228 12.1099 8 12.1099C7.44771 12.1099 7 11.6621 7 11.1099V10C7 8.67392 7.52678 7.40215 8.46447 6.46447Z" fill="#000"/>
<path d="M19.496 7.14162C20.0307 7.00354 20.5761 7.32509 20.7142 7.85984C20.9025 8.58874 21 9.34432 21 10.1099V18.1099C21 18.6621 20.5523 19.1099 20 19.1099C19.4477 19.1099 19 18.6621 19 18.1099V10.1099C19 9.51435 18.9241 8.92675 18.7778 8.35989C18.6397 7.82515 18.9612 7.27971 19.496 7.14162Z" fill="#000"/>
<path d="M12 9C12.5523 9 13 9.44772 13 10L13 18.1099C13 18.6621 12.5523 19.1099 12 19.1099C11.4477 19.1099 11 18.6621 11 18.1099L11 10C11 9.44772 11.4477 9 12 9Z" fill="#000"/>
<path d="M8 14.6099C8.55228 14.6099 9 15.0576 9 15.6099V18.1099C9 18.6621 8.55228 19.1099 8 19.1099C7.44771 19.1099 7 18.6621 7 18.1099V15.6099C7 15.0576 7.44771 14.6099 8 14.6099Z" fill="#000"/>
</svg>
