<svg width="24" height="24" viewBox="0 0 24 24" fill="none" xmlns="http://www.w3.org/2000/svg">
<path fill-rule="evenodd" clip-rule="evenodd" d="M12.9359 1.3897C12.7656 1.26805 12.5522 1.2231 12.3473 1.26572C12.1424 1.30834 11.9646 1.43465 11.8569 1.61413L9.39797 5.71232C9.18609 5.50124 8.92159 5.27207 8.62025 5.09126C8.31942 4.91076 7.93442 4.75 7.5 4.75C7.27068 4.75 7.05396 4.85492 6.91172 5.03479C5.12518 7.29396 3.25 10.4606 3.25 14.0001C3.25 16.3786 4.05891 18.5706 5.5812 20.1734C7.10914 21.7821 9.31147 22.75 12 22.75C14.6885 22.75 16.8909 21.7821 18.4188 20.1734C19.9411 18.5706 20.7501 16.3786 20.7501 14C20.7501 8.11589 16.4787 3.92027 12.9359 1.3897ZM14.0336 20.4568C13.3267 21.0182 12.4895 21.25 12 21.25C11.5105 21.25 10.6734 21.0182 9.96641 20.4568C9.28784 19.9179 8.75 19.0947 8.75 17.8824C8.75 16.7135 9.57166 15.4273 10.5556 14.342C11.0291 13.8198 11.5049 13.3822 11.8633 13.0748C11.9112 13.0337 11.9568 12.9951 12 12.9589C12.0432 12.9951 12.0888 13.0337 12.1367 13.0748C12.4951 13.3822 12.9709 13.8198 13.4444 14.342C14.4283 15.4273 15.25 16.7135 15.25 17.8824C15.25 19.0947 14.7122 19.9179 14.0336 20.4568Z" fill="#000"/>
</svg>
