<svg width="24" height="24" viewBox="0 0 24 24" fill="none" xmlns="http://www.w3.org/2000/svg">
<path fill-rule="evenodd" clip-rule="evenodd" d="M15.75 8.7889V2.75H16.5C16.9142 2.75 17.25 2.41421 17.25 2C17.25 1.58579 16.9142 1.25 16.5 1.25H7.5C7.08579 1.25 6.75 1.58579 6.75 2C6.75 2.41421 7.08579 2.75 7.5 2.75H8.25V8.7889C8.25 9.26487 8.24732 9.41283 8.22284 9.55016C8.19874 9.68539 8.1588 9.81731 8.10384 9.9432C8.04803 10.071 7.96819 10.1956 7.70416 10.5917L2.76271 18.0038C2.4284 18.5053 2.25 19.0945 2.25 19.6972C2.25 21.3832 3.61677 22.75 5.30278 22.75H18.6972C20.3832 22.75 21.75 21.3832 21.75 19.6972C21.75 19.0945 21.5716 18.5053 21.2373 18.0038L16.2958 10.5917C16.0318 10.1956 15.952 10.071 15.8962 9.9432C15.8412 9.81731 15.8013 9.68539 15.7772 9.55016C15.7527 9.41283 15.75 9.26487 15.75 8.7889ZM9.75 2.75L9.75001 8.84715C9.75013 9.24126 9.75021 9.52926 9.69957 9.81339C9.6548 10.0645 9.58062 10.3095 9.47856 10.5433C9.3631 10.8078 9.20327 11.0474 8.98457 11.3753L7.73472 13.25H16.2653L15.0154 11.3753C14.7967 11.0474 14.6369 10.8078 14.5214 10.5433C14.4194 10.3095 14.3452 10.0645 14.3004 9.81339C14.2498 9.52926 14.2499 9.24126 14.25 8.84716L14.25 2.75H9.75Z" fill="#000"/>
</svg>
