<svg width="24" height="24" viewBox="0 0 24 24" fill="none" xmlns="http://www.w3.org/2000/svg">
<path fill-rule="evenodd" clip-rule="evenodd" d="M5.89289 22.7475C5.37459 22.743 4.91622 22.7307 4.50306 22.6801C4.06597 22.6275 3.67139 22.531 3.30173 22.3435L3.29754 22.3413C3.25344 22.3189 3.20985 22.2956 3.1668 22.2714C2.52106 21.9096 1.99578 21.364 1.65873 20.7025C1.63043 20.647 1.6042 20.5909 1.57987 20.5342C1.40957 20.1372 1.33244 19.7098 1.29336 19.2315C1.24999 18.7006 1.24999 18.045 1.25 17.2322V6.76794C1.24999 5.95511 1.24999 5.29949 1.29336 4.76859C1.33803 4.22195 1.43239 3.74181 1.65873 3.29759C2.01825 2.59198 2.59193 2.01831 3.29754 1.65878C3.35306 1.63049 3.40915 1.60426 3.46586 1.57993C3.86283 1.40963 4.29023 1.3325 4.76853 1.29342C5.29944 1.25004 5.95506 1.25005 6.7679 1.25005L15.747 1.25003C16.1656 1.24978 16.4951 1.24959 16.8135 1.32604C17.0941 1.3934 17.3624 1.50452 17.6084 1.65529C17.8876 1.82639 18.1205 2.05956 18.4164 2.35573L21.6443 5.5837C21.9405 5.87953 22.1737 6.1124 22.3448 6.39161C22.4955 6.63766 22.6067 6.90591 22.674 7.18651C22.7505 7.50492 22.7503 7.83445 22.75 8.25307L22.75 17.2322C22.75 18.045 22.75 18.7006 22.7066 19.2315C22.662 19.7782 22.5676 20.2583 22.3413 20.7025C21.9817 21.4081 21.4081 21.9818 20.7025 22.3413C20.3316 22.5303 19.9357 22.6273 19.4969 22.6801C19.0838 22.7306 18.6254 22.743 18.1071 22.7475C17.8378 22.7501 17.5467 22.7501 17.2321 22.7501H6.76788C6.45329 22.7501 6.16226 22.7501 5.89289 22.7475ZM17.25 15.5001V21.2501H6.75V15.5001C6.75 14.8097 7.30964 14.2501 8 14.2501H16C16.6904 14.2501 17.25 14.8097 17.25 15.5001ZM14.5 6.75C14.9142 6.75 15.25 7.08579 15.25 7.5C15.25 7.91421 14.9142 8.25 14.5 8.25H9.5C9.08579 8.25 8.75 7.91421 8.75 7.5C8.75 7.08579 9.08579 6.75 9.5 6.75L14.5 6.75Z" fill="#000"/>
</svg>
