<svg width="24" height="24" viewBox="0 0 24 24" fill="none" xmlns="http://www.w3.org/2000/svg">
<path fill-rule="evenodd" clip-rule="evenodd" d="M21.249 11.999V7.749L21.248 7.75C21.248 6.232 21.248 5.469 20.894 4.774C20.58 4.159 20.089 3.667 19.475 3.355C18.78 3 18.018 3 16.499 3H12.735C12.587 3 12.433 3 12.318 2.957C12.2895 2.93582 12.199 2.83067 12.1122 2.72982C12.1048 2.72116 12.0974 2.71254 12.09 2.704L11.5356 2.05753C11.3442 1.8347 11.2169 1.68658 11.032 1.559C10.865 1.444 10.682 1.36 10.49 1.31C10.269 1.25 10.079 1.25 9.764 1.25H7.5C5.982 1.25 5.22 1.25 4.525 1.604C3.91 1.917 3.418 2.408 3.104 3.024C2.75 3.719 2.75 4.481 2.75 5.999V11.999C2.75 13.517 2.75 14.28 3.104 14.975C3.418 15.591 3.909 16.082 4.524 16.395C5.219 16.749 5.981 16.749 7.499 16.749H11.25V19.378C10.6107 19.604 10.104 20.1107 9.87803 20.75H5C4.58579 20.75 4.25 21.0858 4.25 21.5C4.25 21.9142 4.58579 22.25 5 22.25H9.87803C10.1869 23.1239 11.0203 23.75 12 23.75C12.9797 23.75 13.8131 23.1239 14.122 22.25H19C19.4142 22.25 19.75 21.9142 19.75 21.5C19.75 21.0858 19.4142 20.75 19 20.75H14.122C13.896 20.1107 13.3893 19.604 12.75 19.378V16.749H16.499C18.018 16.749 18.78 16.749 19.475 16.395C20.089 16.082 20.581 15.591 20.895 14.975C21.249 14.28 21.249 13.518 21.249 11.999ZM12 20.75C12.4142 20.75 12.75 21.0858 12.75 21.5C12.75 21.9142 12.4142 22.25 12 22.25C11.5858 22.25 11.25 21.9142 11.25 21.5C11.25 21.0858 11.5858 20.75 12 20.75Z" fill="#000"/>
</svg>
