<svg width="24" height="24" viewBox="0 0 24 24" fill="none" xmlns="http://www.w3.org/2000/svg">
<path fill-rule="evenodd" clip-rule="evenodd" d="M8.56837 2.75004C8.87354 2.74975 9.1426 2.7495 9.40393 2.81224C9.63351 2.86736 9.85299 2.95827 10.0543 3.08164C10.2835 3.22206 10.4735 3.41249 10.6891 3.62848L11.3274 4.2668C11.612 4.55146 11.6714 4.60396 11.7294 4.63956C11.7966 4.68068 11.8697 4.71098 11.9462 4.72935C12.0125 4.74526 12.0915 4.75008 12.4941 4.75008L18.0314 4.75008C18.7048 4.75007 19.2555 4.75006 19.7031 4.78663C20.1663 4.82448 20.5847 4.90521 20.9755 5.10431C21.587 5.41589 22.0842 5.91308 22.3958 6.52461C22.5949 6.91535 22.6756 7.33375 22.7134 7.79701C22.75 8.24457 22.75 8.79527 22.75 9.46864V16.5315C22.75 17.2049 22.75 17.7556 22.7134 18.2031C22.6756 18.6664 22.5949 19.0848 22.3958 19.4755C22.0842 20.0871 21.587 20.5843 20.9755 20.8958C20.5847 21.0949 20.1663 21.1757 19.7031 21.2135C19.2555 21.2501 18.7048 21.2501 18.0314 21.2501H5.96856C5.29519 21.2501 4.74449 21.2501 4.29693 21.2135C3.83367 21.1757 3.41527 21.0949 3.02453 20.8958C2.413 20.5843 1.91582 20.0871 1.60423 19.4755C1.40514 19.0848 1.3244 18.6664 1.28655 18.2031C1.24998 17.7556 1.24999 17.2049 1.25 16.5315V7.46865C1.24999 6.79527 1.24998 6.24457 1.28655 5.79701C1.3244 5.33375 1.40514 4.91535 1.60423 4.52461C1.91582 3.91308 2.413 3.41589 3.02453 3.10431C3.41527 2.90521 3.83367 2.82448 4.29693 2.78663C4.7445 2.75006 5.29521 2.75007 5.96858 2.75008L8.56837 2.75004ZM15 13.75C15.4142 13.75 15.75 13.4142 15.75 13C15.75 12.5858 15.4142 12.25 15 12.25H9C8.58579 12.25 8.25 12.5858 8.25 13C8.25 13.4142 8.58579 13.75 9 13.75H15Z" fill="#000"/>
</svg>
