<svg width="24" height="24" viewBox="0 0 24 24" fill="none" xmlns="http://www.w3.org/2000/svg">
<path fill-rule="evenodd" clip-rule="evenodd" d="M14.0292 5.47327C14.1707 5.17873 14.25 4.84862 14.25 4.5C14.25 3.25736 13.2426 2.25 12 2.25C10.7574 2.25 9.75 3.25736 9.75 4.5C9.75 4.84862 9.82929 5.17873 9.97082 5.47327C5.83827 6.39822 2.75 10.0885 2.75 14.5C2.75 14.9142 3.08579 15.25 3.5 15.25H20.5C20.9142 15.25 21.25 14.9142 21.25 14.5C21.25 10.0885 18.1617 6.39822 14.0292 5.47327ZM12 3.75C11.5858 3.75 11.25 4.08579 11.25 4.5C11.25 4.91421 11.5858 5.25 12 5.25C12.4142 5.25 12.75 4.91421 12.75 4.5C12.75 4.08579 12.4142 3.75 12 3.75ZM14.3307 8.63686C14.5651 8.29533 15.032 8.20844 15.3735 8.4428C16.1723 8.99096 16.8305 9.73808 17.2772 10.6178C17.4647 10.9871 17.3173 11.4385 16.948 11.6261C16.5787 11.8136 16.1273 11.6662 15.9397 11.2969C15.6069 10.6414 15.1169 10.0859 14.5248 9.67962C14.1833 9.44526 14.0964 8.9784 14.3307 8.63686Z" fill="#000"/>
<path d="M2 16.5C1.72386 16.5 1.5 16.7239 1.5 17V17.2211C1.49999 17.6932 1.49999 18.0778 1.5255 18.3901C1.55187 18.7128 1.60797 19.0021 1.74524 19.2715C1.96095 19.6948 2.30516 20.039 2.72852 20.2548C2.99793 20.392 3.28715 20.4481 3.60989 20.4745C3.92215 20.5 4.30678 20.5 4.77893 20.5H19.2211C19.6932 20.5 20.0778 20.5 20.3901 20.4745C20.7128 20.4481 21.0021 20.392 21.2715 20.2548C21.6948 20.039 22.039 19.6948 22.2548 19.2715C22.392 19.0021 22.4481 18.7128 22.4745 18.3901C22.5 18.0778 22.5 17.6932 22.5 17.2211V17C22.5 16.7239 22.2761 16.5 22 16.5H2Z" fill="#000"/>
</svg>
