<svg width="24" height="24" viewBox="0 0 24 24" fill="none" xmlns="http://www.w3.org/2000/svg">
<path d="M17.7238 2.58145C18.0449 2.3198 18.0931 1.84738 17.8315 1.52627C17.5698 1.20516 17.0974 1.15695 16.7763 1.4186L13.3153 4.23863C13.2306 4.30767 13.1489 4.37914 13.0703 4.45289C11.385 6.03438 11.1595 8.61457 12.4824 10.457L1.46967 21.4694C1.17678 21.7623 1.17677 22.2372 1.46966 22.5301C1.76256 22.823 2.23743 22.823 2.53033 22.5301L13.543 11.5176C15.3854 12.8406 17.9657 12.615 19.5472 10.9297C19.6209 10.8511 19.6924 10.7695 19.7614 10.6848L22.5817 7.2238C22.8433 6.9027 22.7951 6.43028 22.474 6.16862C22.1529 5.90696 21.6805 5.95514 21.4188 6.27625L18.7877 9.4005C18.5934 9.63121 18.2433 9.64619 18.03 9.4329C17.8292 9.23207 17.8289 8.90654 18.0295 8.70543L20.5868 6.14074C20.8792 5.84733 20.8784 5.37246 20.585 5.08008C20.2916 4.78769 19.8167 4.78852 19.5243 5.08192L16.9088 7.70497C16.7415 7.87268 16.47 7.87287 16.3025 7.70541C16.1354 7.53828 16.1352 7.26736 16.3021 7.1L18.9198 4.47472C19.2122 4.18132 19.2114 3.70644 18.918 3.41406C18.6246 3.12168 18.1497 3.1225 17.8573 3.41591L15.307 5.97355C15.104 6.1771 14.7744 6.17733 14.5712 5.97408C14.3557 5.75864 14.3709 5.40497 14.6039 5.20872L17.7238 2.58145Z" fill="#000"/>
<path d="M1.25 3.7614C1.25 2.44319 2.84377 1.78304 3.77589 2.71515L10.5304 9.46964C10.671 9.61029 10.75 9.80106 10.75 9.99997C10.75 10.1989 10.671 10.3896 10.5304 10.5303L7.03038 14.0303C6.88972 14.171 6.69896 14.25 6.50005 14.25C6.30113 14.25 6.11037 14.171 5.96972 14.0303L5.17386 13.2344C2.66146 10.722 1.25 7.31448 1.25 3.7614Z" fill="#000"/>
<path d="M13.4697 13.4696C13.7626 13.1767 14.2375 13.1767 14.5304 13.4696L22.5303 21.4696C22.8232 21.7625 22.8232 22.2374 22.5303 22.5303C22.2374 22.8231 21.7626 22.8231 21.4697 22.5303L15 16.0606L12.7374 18.3231C12.054 19.0066 10.946 19.0066 10.2626 18.3231L9.96972 18.0303C9.67682 17.7374 9.67682 17.2625 9.96972 16.9696L13.4697 13.4696Z" fill="#000"/>
</svg>
