<svg width="24" height="24" viewBox="0 0 24 24" fill="none" xmlns="http://www.w3.org/2000/svg">
<path d="M18.2539 5.5C18.2539 5.08579 17.9181 4.75 17.5039 4.75C17.0897 4.75 16.7539 5.08579 16.7539 5.5V10.3251C16.6893 10.2671 16.6204 10.2119 16.5473 10.1601L9.81506 5.38419C8.42447 4.39769 6.5 5.392 6.5 7.09697V16.8934C6.5 18.5984 8.42446 19.5927 9.81506 18.6062L16.5473 13.8303C16.6204 13.7785 16.6893 13.7234 16.7539 13.6653V18.5C16.7539 18.9142 17.0897 19.25 17.5039 19.25C17.9181 19.25 18.2539 18.9142 18.2539 18.5V5.5Z" fill="#000"/>
</svg>
