<svg width="24" height="24" viewBox="0 0 24 24" fill="none" xmlns="http://www.w3.org/2000/svg">
<path fill-rule="evenodd" clip-rule="evenodd" d="M2.51888 16.0495C1.96542 15.0892 2.29369 13.861 3.25278 13.3063C4.25649 12.7257 4.25649 11.274 3.25278 10.6935C2.29369 10.1388 1.96542 8.9106 2.51888 7.95027L3.75832 5.79967C4.31192 4.8391 5.53845 4.50967 6.49777 5.06452C7.50054 5.64451 8.75537 4.92 8.75537 3.75827C8.75537 2.64955 9.65268 1.75 10.7605 1.75H13.2395C14.3474 1.75 15.2447 2.64957 15.2447 3.7583C15.2447 4.92008 16.4995 5.64461 17.5023 5.06462C18.4616 4.50976 19.6881 4.8392 20.2417 5.79978L21.4812 7.95045C22.0346 8.91074 21.7064 10.1389 20.7473 10.6936C19.7437 11.2741 19.7437 12.7257 20.7473 13.3062C21.7064 13.8609 22.0346 15.089 21.4812 16.0493L20.2417 18.2C19.6881 19.1605 18.4616 19.49 17.5023 18.9351C16.4995 18.3552 15.2447 19.0797 15.2447 20.2416C15.2447 21.3503 14.3473 22.25 13.2394 22.25H10.7606C9.65272 22.25 8.75537 21.3504 8.75537 20.2416C8.75537 19.0798 7.50053 18.3553 6.49774 18.9353C5.53841 19.4901 4.31192 19.1607 3.75832 18.2001L2.51888 16.0495ZM8.75006 12C8.75006 10.2051 10.2051 8.75 12.0001 8.75C13.795 8.75 15.2501 10.2051 15.2501 12C15.2501 13.7949 13.795 15.25 12.0001 15.25C10.2051 15.25 8.75006 13.7949 8.75006 12Z" fill="#000"/>
</svg>
