<svg width="24" height="24" viewBox="0 0 24 24" fill="none" xmlns="http://www.w3.org/2000/svg">
<path fill-rule="evenodd" clip-rule="evenodd" d="M16.8182 1.29484C19.3173 1.71839 20.1247 4.49927 18.9287 6.25H20.75C21.8546 6.25 22.75 7.14543 22.75 8.25L22.7499 9.75C22.7499 10.8546 21.8545 11.75 20.7499 11.75H13.1499C13.0099 11.75 12.9399 11.75 12.8864 11.7228C12.8394 11.6988 12.8012 11.6605 12.7772 11.6135C12.7499 11.56 12.7499 11.49 12.7499 11.35V6.25H11.25V5.50488C11.25 5.48693 11.2506 5.46913 11.2519 5.4515L8.87365 3.20935C8.48894 2.84666 7.95638 2.68539 7.43509 2.77374C5.73033 3.06268 5.51297 5.42432 7.13636 6.01956L7.76482 6.25H11.25L11.2499 11.35C11.2499 11.49 11.2499 11.56 11.2227 11.6135C11.1987 11.6605 11.1605 11.6988 11.1134 11.7228C11.06 11.75 10.99 11.75 10.8499 11.75H3.24994C3.09937 11.75 2.95268 11.7334 2.81162 11.7018C1.91791 11.502 1.25 10.704 1.25 9.75V8.25C1.25 7.14543 2.14543 6.25 3.25 6.25H5.07391C3.87794 4.49927 4.68536 1.71839 7.18443 1.29484C8.16943 1.12789 9.1757 1.4326 9.90262 2.11793L12.0013 4.09654L14.1 2.11793C14.8269 1.4326 15.8332 1.12789 16.8182 1.29484ZM12.7499 6.25H16.2378L16.8663 6.01956C18.4897 5.42432 18.2723 3.06268 16.5676 2.77374C16.0463 2.68539 15.5137 2.84666 15.129 3.20935L12.7483 5.45384C12.7494 5.47071 12.75 5.48773 12.75 5.50488L12.7499 6.25Z" fill="#000"/>
<path d="M3.2096 13.2498C3.03144 13.2478 2.94236 13.2468 2.88827 13.2738C2.83669 13.2996 2.80399 13.3319 2.77763 13.3832C2.75 13.437 2.75 13.5166 2.75 13.6758L2.75 17.6318C2.74999 18.3749 2.74999 18.978 2.78996 19.4673C2.83121 19.9722 2.91876 20.4215 3.13148 20.839C3.46703 21.4975 4.00247 22.033 4.66103 22.3685C5.07851 22.5812 5.52778 22.6688 6.03273 22.71C6.52195 22.75 7.12507 22.75 7.86811 22.75H10.8499C10.99 22.75 11.06 22.75 11.1134 22.7228C11.1605 22.6988 11.1987 22.6605 11.2227 22.6135C11.2499 22.56 11.2499 22.49 11.2499 22.35V13.65C11.2499 13.51 11.2499 13.44 11.2227 13.3865C11.1987 13.3395 11.1605 13.3012 11.1134 13.2772C11.06 13.25 10.99 13.25 10.8499 13.25H3.24994C3.23648 13.25 3.22303 13.2499 3.2096 13.2498Z" fill="#000"/>
<path d="M12.7499 22.35C12.7499 22.49 12.7499 22.56 12.7772 22.6135C12.8012 22.6605 12.8394 22.6988 12.8864 22.7228C12.9399 22.75 13.0099 22.75 13.1499 22.75H16.1318C16.8748 22.75 17.4781 22.75 17.9673 22.71C18.4722 22.6688 18.9215 22.5812 19.339 22.3685C19.9975 22.033 20.533 21.4975 20.8685 20.839C21.0812 20.4215 21.1688 19.9722 21.21 19.4673C21.25 18.9781 21.25 18.3749 21.25 17.6319V13.6758C21.25 13.5166 21.25 13.4369 21.2224 13.3832C21.196 13.3319 21.1633 13.2995 21.1117 13.2738C21.0576 13.2467 20.9685 13.2478 20.7904 13.2498C20.7769 13.2499 20.7634 13.25 20.7499 13.25H13.1499C13.0099 13.25 12.9399 13.25 12.8864 13.2772C12.8394 13.3012 12.8012 13.3395 12.7772 13.3865C12.7499 13.44 12.7499 13.51 12.7499 13.65V22.35Z" fill="#000"/>
</svg>
