<svg width="24" height="24" viewBox="0 0 24 24" fill="none" xmlns="http://www.w3.org/2000/svg">
<path d="M3.20516 4.91815C3.5926 3.13436 5.57851 2.21612 7.18848 3.07636L8.35345 3.69882C8.71878 3.89403 8.8567 4.34843 8.66149 4.71377C8.46629 5.0791 8.01188 5.21702 7.64655 5.02181L6.48159 4.39935C5.74978 4.00833 4.84709 4.42571 4.67099 5.23652L3.2 12.009C3.17594 12.1198 3.15284 12.2307 3.1307 12.3419C3.98582 11.6584 5.0702 11.2498 6.25003 11.2498C8.48889 11.2498 10.3841 12.7213 11.0212 14.7499H12.979C13.6162 12.7215 15.5113 11.2502 17.75 11.2502C18.9299 11.2502 20.0143 11.6589 20.8695 12.3424C20.8473 12.2311 20.8241 12.1199 20.8 12.009L19.3291 5.23652C19.153 4.42571 18.2503 4.00833 17.5185 4.39935L16.3535 5.02181C15.9882 5.21702 15.5338 5.0791 15.3386 4.71377C15.1434 4.34843 15.2813 3.89403 15.6466 3.69882L16.8116 3.07636C18.4215 2.21612 20.4074 3.13436 20.7949 4.91815L22.2659 11.6906C22.5877 13.1725 22.75 14.6845 22.75 16.201V16.25C22.75 19.0114 20.5114 21.2502 17.75 21.2502C14.9886 21.2502 12.75 19.0116 12.75 16.2502L11.25 16.2499C11.25 19.0112 9.01141 21.2498 6.25003 21.2498C3.48868 21.2498 1.25015 19.0113 1.25003 16.25L1.25 16.201C1.25 14.6845 1.41232 13.1725 1.73418 11.6906L3.20516 4.91815Z" fill="#000"/>
</svg>
