<svg width="24" height="24" viewBox="0 0 24 24" fill="none" xmlns="http://www.w3.org/2000/svg">
<path d="M12.75 2C12.75 1.58579 12.4143 1.25 12 1.25C11.5858 1.25 11.25 1.58579 11.25 2V2.55475C10.6846 2.64081 10.1689 2.83007 9.74762 3.13519C9.12349 3.58721 8.75004 4.26705 8.75004 5.08168C8.75004 6.13322 9.33412 6.79171 10.0087 7.16933C10.6359 7.52042 11.3815 7.65724 11.8767 7.73978C12.3815 7.8239 12.8859 7.93083 13.2587 8.13952C13.5841 8.32168 13.75 8.53901 13.75 8.91828C13.75 9.23222 13.6235 9.46823 13.3726 9.64992C13.0993 9.84788 12.6435 9.99998 12 9.99998C11.5594 9.99998 11.2858 9.95282 11.0266 9.84998C10.7498 9.7402 10.4411 9.5482 9.9528 9.17847C9.62257 8.92842 9.15217 8.99342 8.90212 9.32364C8.65207 9.65387 8.71706 10.1243 9.04729 10.3743C9.55901 10.7618 10.0003 11.0566 10.4735 11.2443C10.7316 11.3467 10.9857 11.4121 11.25 11.4511V12C11.25 12.4142 11.5858 12.75 12 12.75C12.4143 12.75 12.75 12.4142 12.75 12V11.4452C13.3154 11.3592 13.8312 11.1699 14.2525 10.8648C14.8766 10.4128 15.25 9.73292 15.25 8.91828C15.25 7.86674 14.666 7.20825 13.9914 6.83064C13.3642 6.47955 12.6186 6.34273 12.1233 6.26019C11.6186 6.17606 11.1142 6.06914 10.7414 5.86045C10.416 5.67828 10.25 5.46096 10.25 5.08168C10.25 4.76774 10.3766 4.53173 10.6275 4.35004C10.9008 4.15208 11.3566 3.99998 12 3.99998C12.4407 3.99998 12.7143 4.04714 12.9735 4.14996C13.2503 4.25974 13.559 4.45172 14.0473 4.82144C14.3775 5.07149 14.8479 5.0065 15.098 4.67627C15.348 4.34605 15.283 3.87564 14.9528 3.62559C14.4411 3.23811 13.9998 2.94332 13.5266 2.75563C13.2685 2.65327 13.0143 2.58786 12.75 2.54886V2Z" fill="#000"/>
<path d="M8.62157 14.2502H12.6524C13.6753 14.2648 14.5 15.0986 14.5 16.125C14.5 17.1605 13.6605 18 12.625 18H8C7.72386 18 7.5 18.2238 7.5 18.5C7.5 18.7761 7.72386 19 8 19H12.625C14.2128 19 15.5 17.7128 15.5 16.125C15.5 16.0333 15.4957 15.9427 15.4873 15.8532L19.3266 14.3789C20.736 13.8377 22.25 14.8781 22.25 16.3878C22.25 17.1653 21.8307 17.8823 21.1531 18.2634L15.3783 21.5117C14.5176 21.9959 13.5468 22.2502 12.5593 22.2502H2.5C2.08579 22.2502 1.75 21.9144 1.75 21.5002V17.5C1.75 17.0858 2.08579 16.75 2.5 16.75H2.87843C3.55577 16.75 4.21619 16.5384 4.76738 16.1447L6.44202 14.9486C7.078 14.4944 7.84002 14.2502 8.62157 14.2502Z" fill="#000"/>
</svg>
