<svg width="24" height="24" viewBox="0 0 24 24" fill="none" xmlns="http://www.w3.org/2000/svg">
<path d="M6.31889 2.51996C6.9936 2.24915 7.76837 2.24951 8.89171 2.25005H15.1083C16.2316 2.24951 17.0064 2.24915 17.6811 2.51996C18.2747 2.7582 18.7975 3.14431 19.1997 3.64157C19.657 4.2068 19.8845 4.94742 20.2143 6.02125L22.2964 12.7881C21.363 12.1339 20.2264 11.75 19 11.75H4.99998C3.77365 11.75 2.63698 12.1339 1.70361 12.7881L3.78567 6.02124C4.11552 4.94742 4.34302 4.2068 4.80027 3.64157C5.20254 3.14431 5.72532 2.7582 6.31889 2.51996Z" fill="#000"/>
<path fill-rule="evenodd" clip-rule="evenodd" d="M19 13.25C21.2999 13.25 23.1731 15.0768 23.2477 17.3585L23.2486 17.3907C23.2495 17.427 23.25 17.4634 23.25 17.5C23.25 19.8472 21.3472 21.75 19 21.75H4.99998C2.65278 21.75 0.75 19.8472 0.75 17.5C0.75 17.4526 0.750774 17.4055 0.75231 17.3585C0.826935 15.0768 2.70012 13.25 4.99998 13.25H19ZM14 17.5C14 16.9477 14.4477 16.5 15 16.5C15.5523 16.5 16.0001 16.9477 16.0001 17.5C16.0001 18.0523 15.5523 18.5 15 18.5C14.4477 18.5 14 18.0523 14 17.5ZM17 17.5C17 16.9477 17.4477 16.5 18 16.5C18.5523 16.5 19.0001 16.9477 19.0001 17.5C19.0001 18.0523 18.5523 18.5 18 18.5C17.4477 18.5 17 18.0523 17 17.5Z" fill="#000"/>
</svg>
