<svg width="24" height="24" viewBox="0 0 24 24" fill="none" xmlns="http://www.w3.org/2000/svg">
<path fill-rule="evenodd" clip-rule="evenodd" d="M11.7135 3.26765C11.8613 2.73552 11.5498 2.18431 11.0177 2.03649C10.4855 1.88868 9.93431 2.20023 9.78649 2.73237L8.67048 6.75H4C3.44772 6.75 3 7.19772 3 7.75C3 8.30228 3.44772 8.75 4 8.75H8.11493L6.30937 15.25H2C1.44772 15.25 1 15.6977 1 16.25C1 16.8023 1.44772 17.25 2 17.25H5.75382L4.78649 20.7324C4.63868 21.2645 4.95023 21.8157 5.48237 21.9635C6.0145 22.1113 6.56571 21.7998 6.71353 21.2677L7.82954 17.25H13.2538L12.2865 20.7324C12.1387 21.2645 12.4502 21.8157 12.9824 21.9635C13.5145 22.1113 14.0657 21.7998 14.2135 21.2677L15.3295 17.25H20C20.5523 17.25 21 16.8023 21 16.25C21 15.6977 20.5523 15.25 20 15.25H15.8851L17.6907 8.75H22.0003C22.5526 8.75 23.0003 8.30228 23.0003 7.75C23.0003 7.19772 22.5526 6.75 22.0003 6.75H18.2462L19.2135 3.26765C19.3613 2.73552 19.0498 2.18431 18.5177 2.03649C17.9855 1.88868 17.4343 2.20023 17.2865 2.73237L16.1705 6.75H10.7462L11.7135 3.26765ZM13.8094 15.25L15.6149 8.75H10.1907L8.3851 15.25H13.8094Z" fill="#000"/>
</svg>
