<svg width="24" height="24" viewBox="0 0 24 24" fill="none" xmlns="http://www.w3.org/2000/svg">
<path d="M12 2.25C6.06294 2.25 1.25 7.06294 1.25 13V17C1.25 17.001 1.25 17.002 1.25001 17.003L1.25001 18.1891C1.24995 18.4759 1.24991 18.6816 1.27045 18.8639C1.44022 20.3706 2.62936 21.5598 4.13613 21.7295C4.31838 21.7501 4.524 21.75 4.81083 21.75L4.88464 21.75C4.98859 21.7501 5.09654 21.7502 5.19595 21.739C6.00728 21.6476 6.64759 21.0072 6.73901 20.1959C6.75021 20.0965 6.75011 19.9886 6.75003 19.8846L6.75003 15.1153C6.75012 15.0114 6.75021 14.9034 6.73901 14.804C6.64759 13.9927 6.00728 13.3524 5.19595 13.261C5.09654 13.2498 4.98859 13.2499 4.88465 13.25L4.81092 13.25C4.52404 13.2499 4.3184 13.2499 4.13613 13.2704C3.62923 13.3275 3.15828 13.5 2.75 13.7611V13C2.75 7.89137 6.89137 3.75 12 3.75C17.1086 3.75 21.25 7.89137 21.25 13V13.7611C20.8417 13.5 20.3708 13.3275 19.8639 13.2704C19.6816 13.2499 19.476 13.2499 19.1891 13.25L19.1154 13.25C19.0114 13.2499 18.9035 13.2498 18.8041 13.261C17.9927 13.3524 17.3524 13.9927 17.261 14.804C17.2498 14.9034 17.2499 15.0114 17.25 15.1153V19.8846C17.2499 19.9886 17.2498 20.0965 17.261 20.1959C17.3524 21.0072 17.9927 21.6476 18.8041 21.739C18.9035 21.7502 19.0114 21.7501 19.1154 21.75L19.1891 21.75C19.4759 21.75 19.6816 21.7501 19.8639 21.7295C21.3706 21.5598 22.5598 20.3706 22.7296 18.8639C22.7501 18.6816 22.7501 18.476 22.75 18.1891V16.8109C22.75 16.7814 22.75 16.7528 22.75 16.7249V13C22.75 7.06294 17.9371 2.25 12 2.25Z" fill="#000"/>
</svg>
