<svg width="24" height="24" viewBox="0 0 24 24" fill="none" xmlns="http://www.w3.org/2000/svg">
<path fill-rule="evenodd" clip-rule="evenodd" d="M0.25 12C0.25 5.51065 5.51065 0.25 12 0.25C18.4893 0.25 23.75 5.51065 23.75 12C23.75 18.4893 18.4893 23.75 12 23.75C5.51065 23.75 0.25 18.4893 0.25 12ZM14.2 7.5C13.1917 7.5 12.3828 8.29663 12 8.75C11.6172 8.29663 10.8083 7.5 9.8 7.5C8.03611 7.5 7 9 7 10.7372C7 14 11 16.25 12 16.75C13 16.25 17 14 17 10.7372C17 9 15.9639 7.5 14.2 7.5Z" fill="#000"/>
</svg>
