<svg width="24" height="24" viewBox="0 0 24 24" fill="none" xmlns="http://www.w3.org/2000/svg">
<path d="M2.53033 1.46967C2.23744 1.17678 1.76256 1.17678 1.46967 1.46967C1.17678 1.76256 1.17678 2.23744 1.46967 2.53033L3.38815 4.44881C2.1818 5.74432 1.5 7.55098 1.5 9.47437C1.5 13.1964 3.74864 16.2028 6.1044 18.3072C8.4609 20.4122 11.0191 21.7001 11.8419 21.9743C11.9445 22.0086 12.0555 22.0086 12.1581 21.9743C12.9395 21.7139 15.292 20.5367 17.5491 18.6097L21.4697 22.5303C21.7626 22.8232 22.2374 22.8232 22.5303 22.5303C22.8232 22.2374 22.8232 21.7626 22.5303 21.4697L2.53033 1.46967Z" fill="#000"/>
<path d="M6.98803 2.56285C7.2819 2.52136 7.58395 2.5 7.89333 2.5C9.80129 2.5 11.1418 3.3934 12 4.25953C12.8582 3.3934 14.1987 2.5 16.1067 2.5C19.9729 2.5 22.5 5.79054 22.5 9.47437C22.5 11.9941 21.4677 14.1868 20.0768 15.9869C19.989 16.1006 19.8564 16.171 19.713 16.1802C19.5696 16.1893 19.4292 16.1363 19.3276 16.0347L6.70439 3.41149C6.57037 3.27747 6.52365 3.0792 6.58373 2.89944C6.64381 2.71968 6.80036 2.58935 6.98803 2.56285Z" fill="#000"/>
</svg>
