<svg width="24" height="24" viewBox="0 0 24 24" fill="none" xmlns="http://www.w3.org/2000/svg">
<path fill-rule="evenodd" clip-rule="evenodd" d="M11.0737 1.36292C11.6815 1.20797 12.3185 1.20797 12.9264 1.36292C13.6171 1.53901 14.2313 1.98167 15.1216 2.62331L19.8719 6.0436C20.7563 6.68003 21.3258 7.08991 21.7445 7.62639C22.1145 8.10049 22.3912 8.64056 22.5597 9.21788C22.7504 9.87116 22.7503 10.5728 22.75 11.6624L22.75 16.4327C22.75 17.3851 22.75 18.1456 22.6999 18.7598C22.6484 19.3898 22.5404 19.9317 22.2868 20.4294C21.8793 21.2291 21.2292 21.8793 20.4295 22.2867C19.9318 22.5403 19.3899 22.6483 18.7599 22.6998C18.1457 22.75 17.3851 22.75 16.4327 22.75H7.56734C6.61493 22.75 5.85441 22.75 5.24016 22.6998C4.61015 22.6483 4.06827 22.5403 3.57057 22.2867C2.77088 21.8793 2.12072 21.2291 1.71325 20.4294C1.45966 19.9317 1.35168 19.3898 1.30021 18.7598C1.25002 18.1456 1.25003 17.385 1.25003 16.4326L1.25002 11.6624C1.24979 10.5728 1.24964 9.87116 1.44035 9.21788C1.60888 8.64056 1.88552 8.10049 2.25556 7.62639C2.67428 7.08991 3.24381 6.68003 4.12813 6.0436L8.87845 2.62331C9.76874 1.98167 10.3829 1.53901 11.0737 1.36292ZM11.9994 10.75C10.2651 10.75 8.68858 11.4182 7.51054 12.5127C7.20707 12.7946 6.73252 12.7772 6.45059 12.4737C6.16867 12.1702 6.18612 11.6957 6.48959 11.4138C7.93412 10.0717 9.87164 9.25 11.9994 9.25C14.1279 9.25 16.066 10.0723 17.5107 11.4151C17.8141 11.6971 17.8314 12.1717 17.5494 12.4751C17.2674 12.7785 16.7928 12.7958 16.4895 12.5138C15.3113 11.4187 13.7343 10.75 11.9994 10.75ZM12.0033 14.0833C11.2186 14.0833 10.5008 14.4139 9.96977 14.9649C9.68233 15.2631 9.20753 15.2719 8.90929 14.9845C8.61104 14.697 8.60229 14.2222 8.88973 13.924C9.68318 13.1007 10.7828 12.5833 12.0033 12.5833C13.2238 12.5833 14.3234 13.1007 15.1168 13.924C15.4043 14.2222 15.3955 14.697 15.0973 14.9845C14.799 15.2719 14.3242 15.2631 14.0368 14.9649C13.5057 14.4139 12.788 14.0833 12.0033 14.0833ZM12.0001 15.5C11.4478 15.5 11.0001 15.9477 11.0001 16.5C11.0001 17.0523 11.4479 17.5 12.0002 17.5C12.5524 17.5 13.0002 17.0523 13.0002 16.5C13.0002 15.9477 12.5523 15.5 12.0001 15.5Z" fill="#000"/>
</svg>
