<svg width="24" height="24" viewBox="0 0 24 24" fill="none" xmlns="http://www.w3.org/2000/svg">
<path fill-rule="evenodd" clip-rule="evenodd" d="M11.0737 1.36292C11.6815 1.20797 12.3185 1.20797 12.9264 1.36292C13.6171 1.53901 14.2313 1.98167 15.1216 2.62331L19.8719 6.0436C20.7563 6.68003 21.3258 7.08991 21.7445 7.62639C22.1145 8.10049 22.3912 8.64056 22.5597 9.21788C22.7504 9.87116 22.7503 10.5728 22.75 11.6624L22.75 16.4327C22.75 17.3851 22.75 18.1456 22.6999 18.7598C22.6484 19.3898 22.5404 19.9317 22.2868 20.4294C21.8793 21.2291 21.2292 21.8793 20.4295 22.2867C19.9318 22.5403 19.3899 22.6483 18.7599 22.6998C18.1457 22.75 17.3851 22.75 16.4327 22.75H7.56734C6.61493 22.75 5.85441 22.75 5.24016 22.6998C4.61015 22.6483 4.06827 22.5403 3.57057 22.2867C2.77088 21.8793 2.12072 21.2291 1.71325 20.4294C1.45966 19.9317 1.35168 19.3898 1.30021 18.7598C1.25002 18.1456 1.25003 17.385 1.25003 16.4326L1.25002 11.6624C1.24979 10.5728 1.24964 9.87116 1.44035 9.21788C1.60888 8.64056 1.88552 8.10049 2.25556 7.62639C2.67428 7.08991 3.24381 6.68004 4.12812 6.04361L8.87845 2.62331C9.76874 1.98167 10.3829 1.53901 11.0737 1.36292ZM16.0304 12.2803C16.3233 11.9874 16.3233 11.5126 16.0304 11.2197C15.7375 10.9268 15.2626 10.9268 14.9697 11.2197L11 15.1893L9.03036 13.2197C8.73747 12.9268 8.26259 12.9268 7.9697 13.2197C7.67681 13.5126 7.67681 13.9874 7.9697 14.2803L10.4697 16.7803C10.7626 17.0732 11.2375 17.0732 11.5304 16.7803L16.0304 12.2803Z" fill="#000"/>
</svg>
