<svg width="24" height="24" viewBox="0 0 24 24" fill="none" xmlns="http://www.w3.org/2000/svg">
<path fill-rule="evenodd" clip-rule="evenodd" d="M11.0737 1.36292C11.6815 1.20797 12.3185 1.20797 12.9264 1.36292C13.6171 1.53901 14.2313 1.98167 15.1216 2.62331L19.8719 6.0436C20.7563 6.68003 21.3258 7.08991 21.7445 7.62639C22.1145 8.10049 22.3912 8.64056 22.5597 9.21788C22.7504 9.87116 22.7503 10.5728 22.75 11.6624L22.75 16.4327C22.75 17.3851 22.75 18.1456 22.6999 18.7598C22.6484 19.3898 22.5404 19.9317 22.2868 20.4294C21.8793 21.2291 21.2292 21.8793 20.4295 22.2867C19.9318 22.5403 19.3899 22.6483 18.7599 22.6998C18.1457 22.75 17.3851 22.75 16.4327 22.75H7.56734C6.61493 22.75 5.85441 22.75 5.24016 22.6998C4.61015 22.6483 4.06827 22.5403 3.57057 22.2867C2.77088 21.8793 2.12072 21.2291 1.71325 20.4294C1.45966 19.9317 1.35168 19.3898 1.30021 18.7598C1.25002 18.1456 1.25003 17.385 1.25003 16.4326L1.25002 11.6624C1.24979 10.5728 1.24964 9.87116 1.44035 9.21788C1.60888 8.64056 1.88552 8.10049 2.25556 7.62639C2.67428 7.08991 3.24381 6.68004 4.12812 6.04361L8.87845 2.62331C9.76874 1.98167 10.3829 1.53901 11.0737 1.36292ZM8.96973 15.9696C8.67684 16.2625 8.67684 16.7374 8.96973 17.0303C9.26262 17.3232 9.7375 17.3232 10.0304 17.0303L12.0001 15.0606L13.9697 17.0303C14.2626 17.3232 14.7375 17.3232 15.0304 17.0303C15.3233 16.7374 15.3233 16.2625 15.0304 15.9696L13.0607 14L15.0304 12.0303C15.3233 11.7374 15.3233 11.2626 15.0304 10.9697C14.7375 10.6768 14.2626 10.6768 13.9697 10.9697L12.0001 12.9393L10.0304 10.9697C9.73753 10.6768 9.26266 10.6768 8.96976 10.9697C8.67687 11.2626 8.67687 11.7374 8.96976 12.0303L10.9394 14L8.96973 15.9696Z" fill="#000"/>
</svg>
