<svg width="24" height="24" viewBox="0 0 24 24" fill="none" xmlns="http://www.w3.org/2000/svg">
<path fill-rule="evenodd" clip-rule="evenodd" d="M11.0737 1.36298C11.6815 1.20803 12.3185 1.20803 12.9264 1.36298C13.6171 1.53907 14.2313 1.98173 15.1216 2.62337L19.8719 6.04366C20.7563 6.68009 21.3258 7.08997 21.7445 7.62645C22.1145 8.10056 22.3912 8.64062 22.5597 9.21794C22.7504 9.87122 22.7503 10.5729 22.75 11.6624L22.75 16.4327C22.75 17.3851 22.75 18.1456 22.6999 18.7599C22.6484 19.3899 22.5404 19.9318 22.2868 20.4295C21.8793 21.2292 21.2292 21.8793 20.4295 22.2868C19.9318 22.5404 19.3899 22.6484 18.7599 22.6999C18.1457 22.75 17.3851 22.75 16.4327 22.75H7.56734C6.61493 22.75 5.85441 22.75 5.24016 22.6999C4.61015 22.6484 4.06827 22.5404 3.57057 22.2868C2.77088 21.8793 2.12072 21.2292 1.71325 20.4295C1.45966 19.9318 1.35168 19.3899 1.30021 18.7599C1.25002 18.1456 1.25003 17.3851 1.25003 16.4326L1.25002 11.6624C1.24979 10.5729 1.24964 9.87122 1.44035 9.21794C1.60888 8.64062 1.88552 8.10056 2.25556 7.62645C2.67428 7.08997 3.24381 6.6801 4.12812 6.04367L8.87845 2.62338C9.76874 1.98173 10.3829 1.53907 11.0737 1.36298ZM9.44382 15.3954C9.10989 15.1503 8.64051 15.2223 8.39542 15.5562C8.15034 15.8902 8.22236 16.3595 8.55628 16.6046C10.637 18.1318 13.3631 18.1318 15.4438 16.6046C15.7777 16.3595 15.8498 15.8902 15.6047 15.5562C15.3596 15.2223 14.8902 15.1503 14.5563 15.3954C13.0037 16.5349 10.9964 16.5349 9.44382 15.3954Z" fill="#000"/>
</svg>
