<svg width="24" height="24" viewBox="0 0 24 24" fill="none" xmlns="http://www.w3.org/2000/svg">
<path d="M12.907 1.36366C12.3115 1.21521 11.6886 1.21521 11.093 1.36366C10.4165 1.53231 9.81211 1.95577 8.93634 2.56939L3.86571 6.11886C3.08057 6.66815 2.55891 7.0331 2.17421 7.51664C1.83445 7.94369 1.58012 8.43217 1.42511 8.95541C1.24959 9.54786 1.24976 10.1845 1.25002 11.1427L1.25004 17.2324C1.25003 18.0452 1.25003 18.7008 1.2934 19.2318C1.33807 19.7784 1.43242 20.2585 1.65877 20.7027C2.01829 21.4084 2.59197 21.982 3.29758 22.3416C3.74179 22.5679 4.22193 22.6623 4.76857 22.7069C5.29948 22.7503 5.95509 22.7503 6.76792 22.7503H7.32398C7.51325 22.7503 7.6976 22.7503 7.85371 22.7376C8.02516 22.7236 8.22746 22.6905 8.43103 22.5868C8.71327 22.443 8.94274 22.2135 9.08655 21.9313C9.19027 21.7277 9.22332 21.5254 9.23733 21.354C9.25009 21.1978 9.25006 21.0135 9.25004 20.8242L9.25004 16.4004C9.25004 15.9679 9.25062 15.6887 9.26799 15.4762C9.28463 15.2725 9.31289 15.1969 9.33179 15.1599C9.40369 15.0187 9.51842 14.904 9.65955 14.8321C9.69663 14.8132 9.77217 14.7849 9.97592 14.7683C10.1884 14.7509 10.4676 14.7504 10.9 14.7504H13.1C13.5325 14.7504 13.8117 14.7509 14.0242 14.7683C14.2279 14.7849 14.3034 14.8132 14.3405 14.8321C14.4817 14.904 14.5964 15.0187 14.6683 15.1599C14.6872 15.1969 14.7154 15.2725 14.7321 15.4762C14.7495 15.6887 14.75 15.9679 14.75 16.4004L14.75 20.8242C14.75 21.0135 14.75 21.1978 14.7627 21.354C14.7768 21.5254 14.8098 21.7277 14.9135 21.9313C15.0573 22.2135 15.2868 22.443 15.5691 22.5868C15.7726 22.6905 15.9749 22.7236 16.1464 22.7376C16.3025 22.7503 16.4868 22.7503 16.6761 22.7503H17.2322C18.045 22.7503 18.7006 22.7503 19.2315 22.7069C19.7781 22.6623 20.2583 22.5679 20.7025 22.3416C21.4081 21.982 21.9818 21.4084 22.3413 20.7027C22.5677 20.2585 22.662 19.7784 22.7067 19.2318C22.7501 18.7008 22.75 18.0452 22.75 17.2324L22.7501 11.1427C22.7503 10.1845 22.7505 9.54786 22.575 8.95541C22.42 8.43217 22.1656 7.94369 21.8259 7.51664C21.4412 7.0331 20.9195 6.66815 20.1344 6.11886L15.0637 2.56939C14.188 1.95577 13.5836 1.53231 12.907 1.36366Z" fill="#000"/>
</svg>
