<svg width="24" height="24" viewBox="0 0 24 24" fill="none" xmlns="http://www.w3.org/2000/svg">
<path d="M20 21.75C19.5858 21.75 19.25 21.4142 19.25 21L19.25 15.8107L17.5303 17.5303C17.2374 17.8232 16.7626 17.8232 16.4697 17.5303C16.1768 17.2374 16.1768 16.7626 16.4697 16.4697L19.4697 13.4697C19.6103 13.329 19.8011 13.25 20 13.25C20.1989 13.25 20.3897 13.329 20.5303 13.4697L23.5303 16.4697C23.8232 16.7626 23.8232 17.2374 23.5303 17.5303C23.2374 17.8232 22.7626 17.8232 22.4697 17.5303L20.75 15.8107L20.75 21C20.75 21.4142 20.4142 21.75 20 21.75Z" fill="#000"/>
<path d="M14.7626 8.65707C15.446 7.97368 16.5541 7.97369 17.2375 8.65709L18.7867 10.2063C18.9726 10.3922 19.0476 10.6619 18.9843 10.9171C18.921 11.1723 18.7287 11.3758 18.4775 11.4533C15.6808 12.3162 13.65 14.9219 13.65 18C13.65 18.6196 13.7321 19.2189 13.8856 19.7882C13.8994 19.8353 13.9088 19.8843 13.9131 19.9347C13.9173 19.9829 13.9168 20.0312 13.9118 20.0788C13.8998 20.1939 13.8618 20.3011 13.8038 20.3947C13.7909 20.4155 13.7769 20.4358 13.7618 20.4555C13.7022 20.5336 13.6287 20.5981 13.5462 20.6466C13.47 20.6915 13.3852 20.7233 13.2948 20.739C13.2526 20.7463 13.2095 20.7501 13.166 20.7501H6.56758C5.61514 20.7501 4.8546 20.7501 4.24034 20.6999C3.61033 20.6485 3.06845 20.5405 2.57075 20.2869L2.529 20.2653C1.74833 19.8567 1.11361 19.2153 0.713224 18.4295C0.459634 17.9318 0.35165 17.3899 0.300176 16.7599C0.24999 16.1456 0.249994 15.3851 0.250002 14.4326L0.25 8.56739C0.249994 7.61498 0.249991 6.85438 0.300177 6.24013C0.351651 5.61012 0.459633 5.06824 0.713223 4.57054C1.12068 3.77085 1.77085 3.12068 2.57054 2.71322C3.06824 2.45963 3.61012 2.35165 4.24013 2.30018C4.8544 2.24999 5.61494 2.24999 6.56739 2.25L16.4326 2.25C17.385 2.24999 18.1456 2.24999 18.7599 2.30018C19.3899 2.35165 19.9318 2.45963 20.4295 2.71322C21.2291 3.12068 21.8793 3.77085 22.2868 4.57054C22.5404 5.06824 22.6483 5.61012 22.6998 6.24013C22.75 6.85438 22.75 7.6149 22.75 8.5673V10.548C22.75 10.9622 22.4142 11.298 22 11.298C21.5858 11.298 21.25 10.9622 21.25 10.548V8.6C21.25 7.60753 21.2494 6.90829 21.2048 6.36228C21.1609 5.82503 21.0782 5.50252 20.9503 5.25153C20.6866 4.73408 20.2659 4.31339 19.7485 4.04973C19.4975 3.92184 19.175 3.83909 18.6377 3.79519C18.0917 3.75058 17.3925 3.75 16.4 3.75L6.6 3.75C5.60753 3.75 4.90829 3.75058 4.36228 3.7952C3.82503 3.83909 3.50252 3.92185 3.25153 4.04973C2.73408 4.31338 2.31339 4.73408 2.04973 5.25153C1.92184 5.50252 1.83909 5.82503 1.79519 6.36228C1.75058 6.90829 1.75 7.60753 1.75 8.6L1.75 14.4C1.75 15.3925 1.75058 16.0917 1.79519 16.6377L1.79722 16.662L5.28155 13.1771C5.96501 12.4935 7.07325 12.4936 7.75668 13.1772L8.99932 14.4201L14.7626 8.65707Z" fill="#000"/>
<path d="M7 6.5C5.89543 6.5 5 7.39543 5 8.5C5 9.60457 5.89543 10.5 7 10.5C8.10457 10.5 9 9.60457 9 8.5C9 7.39543 8.10457 6.5 7 6.5Z" fill="#000"/>
</svg>
