<svg width="24" height="24" viewBox="0 0 24 24" fill="none" xmlns="http://www.w3.org/2000/svg">
<path d="M6.56739 2.75H16.4326C17.3851 2.74999 18.1456 2.74999 18.7599 2.80018C19.3899 2.85165 19.9318 2.95963 20.4295 3.21322C21.2291 3.62068 21.8793 4.27085 22.2868 5.07054C22.5404 5.56824 22.6483 6.11012 22.6998 6.74013C22.75 7.35438 22.75 8.1149 22.75 9.0673V12.048C22.75 12.4622 22.4142 12.798 22 12.798C21.5858 12.798 21.25 12.4622 21.25 12.048V9.1C21.25 8.10753 21.2494 7.40829 21.2048 6.86228C21.1609 6.32503 21.0782 6.00252 20.9503 5.75153C20.6866 5.23408 20.2659 4.81338 19.7485 4.54973C19.4975 4.42184 19.175 4.33909 18.6377 4.29519C18.0917 4.25058 17.3925 4.25 16.4 4.25H6.6C5.60753 4.25 4.90829 4.25058 4.36228 4.29519C3.82503 4.33909 3.50252 4.42184 3.25153 4.54973C2.73408 4.81338 2.31338 5.23408 2.04973 5.75153C1.92184 6.00252 1.83909 6.32503 1.79519 6.86228C1.75058 7.40829 1.75 8.10753 1.75 9.1V14.9C1.75 15.8925 1.75058 16.5917 1.79519 17.1377L1.79722 17.162L5.28155 13.6771C5.96501 12.9935 7.07325 12.9936 7.75668 13.6772L8.99932 14.9201L14.7626 9.15707C15.446 8.47368 16.5541 8.47369 17.2375 9.15709L19.5869 11.5066C19.7832 11.7029 19.855 11.9915 19.7736 12.2569C19.6922 12.5223 19.4708 12.721 19.1982 12.7734C16.0376 13.3811 13.65 16.1625 13.65 19.5C13.65 19.8027 13.6696 20.1004 13.7075 20.3921C13.7102 20.4111 13.7123 20.4303 13.7135 20.4497C13.7163 20.4899 13.7157 20.53 13.712 20.5697C13.7007 20.6926 13.6597 20.8069 13.5963 20.9054C13.5763 20.9366 13.5538 20.9664 13.5291 20.9947C13.4775 21.0535 13.4176 21.1033 13.3519 21.1428C13.2728 21.1905 13.1841 21.224 13.0894 21.2398C13.0487 21.2466 13.0072 21.2501 12.9652 21.2501H6.56758C5.61517 21.2501 4.85459 21.2501 4.24034 21.1999C3.61033 21.1485 3.06845 21.0405 2.57075 20.7869C2.52077 20.7614 2.47116 20.7349 2.42237 20.7076C1.69053 20.2975 1.09522 19.6792 0.713223 18.9295C0.459634 18.4318 0.35165 17.8899 0.300176 17.2599C0.249989 16.6456 0.249994 15.8851 0.25 14.9326V9.06739C0.249994 8.11495 0.249989 7.35439 0.300176 6.74013C0.35165 6.11012 0.459634 5.56824 0.713223 5.07054C1.12068 4.27085 1.77085 3.62068 2.57054 3.21322C3.06824 2.95963 3.61012 2.85165 4.24013 2.80018C4.85439 2.74999 5.61495 2.74999 6.56739 2.75Z" fill="#000"/>
<path d="M5 9C5 7.89543 5.89543 7 7 7C8.10457 7 9 7.89543 9 9C9 10.1046 8.10457 11 7 11C5.89543 11 5 10.1046 5 9Z" fill="#000"/>
<path d="M23 19.25C23.4142 19.25 23.75 18.9142 23.75 18.5C23.75 18.0858 23.4142 17.75 23 17.75H17C16.5858 17.75 16.25 18.0858 16.25 18.5C16.25 18.9142 16.5858 19.25 17 19.25H23Z" fill="#000"/>
</svg>
