<svg width="24" height="24" viewBox="0 0 24 24" fill="none" xmlns="http://www.w3.org/2000/svg">
<path d="M16.4326 2.25H6.56739C5.61495 2.24999 4.85439 2.24999 4.24013 2.30018C3.61012 2.35165 3.06824 2.45963 2.57054 2.71322C1.77085 3.12068 1.12068 3.77085 0.713223 4.57054C0.459634 5.06824 0.35165 5.61012 0.300176 6.24013C0.249989 6.85439 0.249994 7.61494 0.25 8.56738V14.4326C0.249994 15.3851 0.249989 16.1456 0.300176 16.7599C0.35165 17.3899 0.459634 17.9318 0.713223 18.4295C1.09522 19.1792 1.69053 19.7975 2.42237 20.2076C2.47116 20.2349 2.52056 20.2613 2.57054 20.2868C3.06824 20.5404 3.61033 20.6485 4.24034 20.6999C4.85459 20.7501 5.61511 20.7501 6.56751 20.7501H12.9652C13.0072 20.7501 13.0487 20.7466 13.0894 20.7398C13.1841 20.724 13.2728 20.6905 13.3519 20.6428C13.4176 20.6033 13.4775 20.5535 13.5291 20.4947C13.5538 20.4664 13.5763 20.4366 13.5963 20.4054C13.6597 20.3069 13.7007 20.1926 13.712 20.0697C13.7157 20.03 13.7163 19.9899 13.7135 19.9497C13.7123 19.9303 13.7102 19.9111 13.7075 19.8921C13.6696 19.6004 13.65 19.3027 13.65 19C13.65 15.6625 16.0376 12.8811 19.1982 12.2734C19.4708 12.221 19.6922 12.0223 19.7736 11.7569C19.855 11.4915 19.7832 11.2029 19.5869 11.0066L17.2375 8.65709C16.5541 7.97369 15.446 7.97368 14.7626 8.65707L8.99932 14.4201L7.75668 13.1772C7.07325 12.4936 5.96501 12.4935 5.28155 13.1771L1.79722 16.662L1.79519 16.6377C1.75058 16.0917 1.75 15.3925 1.75 14.4V8.6C1.75 7.60753 1.75058 6.90829 1.79519 6.36228C1.83909 5.82503 1.92184 5.50252 2.04973 5.25153C2.31338 4.73408 2.73408 4.31338 3.25153 4.04973C3.50252 3.92184 3.82503 3.83909 4.36228 3.79519C4.90829 3.75058 5.60753 3.75 6.6 3.75H16.4C17.3925 3.75 18.0917 3.75058 18.6377 3.79519C19.175 3.83909 19.4975 3.92184 19.7485 4.04973C20.2659 4.31338 20.6866 4.73408 20.9503 5.25153C21.0782 5.50252 21.1609 5.82503 21.2048 6.36228C21.2494 6.90829 21.25 7.60753 21.25 8.6V11.548C21.25 11.9622 21.5858 12.298 22 12.298C22.4142 12.298 22.75 11.9622 22.75 11.548V8.56737C22.75 7.61496 22.75 6.85438 22.6998 6.24013C22.6483 5.61012 22.5404 5.06824 22.2868 4.57054C21.8793 3.77085 21.2291 3.12068 20.4295 2.71322C19.9318 2.45963 19.3899 2.35165 18.7599 2.30018C18.1456 2.24999 17.3851 2.24999 16.4326 2.25Z" fill="#000"/>
<path d="M7 6.5C5.89543 6.5 5 7.39543 5 8.5C5 9.60457 5.89543 10.5 7 10.5C8.10457 10.5 9 9.60457 9 8.5C9 7.39543 8.10457 6.5 7 6.5Z" fill="#000"/>
<path d="M23.75 18C23.75 18.4142 23.4142 18.75 23 18.75H20.75V21C20.75 21.4142 20.4142 21.75 20 21.75C19.5858 21.75 19.25 21.4142 19.25 21V18.75H17C16.5858 18.75 16.25 18.4142 16.25 18C16.25 17.5858 16.5858 17.25 17 17.25H19.25V15C19.25 14.5858 19.5858 14.25 20 14.25C20.4142 14.25 20.75 14.5858 20.75 15V17.25H23C23.4142 17.25 23.75 17.5858 23.75 18Z" fill="#000"/>
</svg>
