<svg width="24" height="24" viewBox="0 0 24 24" fill="none" xmlns="http://www.w3.org/2000/svg">
<path d="M7.5 7C6.39543 7 5.5 7.89543 5.5 9C5.5 10.1046 6.39543 11 7.5 11C8.60457 11 9.5 10.1046 9.5 9C9.5 7.89543 8.60457 7 7.5 7Z" fill="#000"/>
<path fill-rule="evenodd" clip-rule="evenodd" d="M7.06739 2.75H16.9326C17.8851 2.74999 18.6456 2.74999 19.2599 2.80018C19.8899 2.85165 20.4318 2.95963 20.9295 3.21322C21.7291 3.62068 22.3793 4.27085 22.7868 5.07054C23.0404 5.56824 23.1483 6.11012 23.1998 6.74013C23.25 7.35438 23.25 8.1149 23.25 9.0673V14.9326C23.25 15.885 23.25 16.6456 23.1998 17.2599C23.1483 17.8899 23.0404 18.4318 22.7868 18.9295C22.3793 19.7291 21.7291 20.3793 20.9295 20.7868C20.4318 21.0404 19.8899 21.1483 19.2599 21.1998C18.6456 21.25 17.8851 21.25 16.9327 21.25H7.06737C6.11496 21.25 5.35438 21.25 4.74013 21.1998C4.11012 21.1483 3.56824 21.0404 3.07054 20.7868C2.27085 20.3793 1.62068 19.7291 1.21322 18.9295C0.959634 18.4318 0.85165 17.8899 0.800176 17.2599C0.749989 16.6456 0.749994 15.8851 0.75 14.9326V9.06739C0.749994 8.11495 0.749989 7.3544 0.800176 6.74013C0.85165 6.11012 0.959634 5.56824 1.21322 5.07054C1.62068 4.27085 2.27085 3.62068 3.07054 3.21322C3.56824 2.95963 4.11012 2.85165 4.74013 2.80018C5.35439 2.74999 6.11495 2.74999 7.06739 2.75ZM4.86228 4.29519C4.32503 4.33909 4.00252 4.42184 3.75153 4.54973C3.23408 4.81338 2.81338 5.23408 2.54973 5.75153C2.42184 6.00252 2.33909 6.32503 2.29519 6.86228C2.25058 7.40829 2.25 8.10753 2.25 9.1V14.9C2.25 15.8925 2.25058 16.5917 2.29519 17.1377C2.30543 17.263 2.31779 17.3767 2.33234 17.4805L5.95834 13.8539C6.54416 13.268 7.49407 13.268 8.07987 13.8539L9.49929 15.2737L15.4394 9.33385C16.0252 8.74808 16.9749 8.74809 17.5607 9.33387L21.75 13.5232V9.1C21.75 8.10753 21.7494 7.40829 21.7048 6.86228C21.6609 6.32503 21.5782 6.00252 21.4503 5.75153C21.1866 5.23408 20.7659 4.81338 20.2485 4.54973C19.9975 4.42184 19.675 4.33909 19.1377 4.29519C18.5917 4.25058 17.8925 4.25 16.9 4.25H7.1C6.10753 4.25 5.40829 4.25058 4.86228 4.29519Z" fill="#000"/>
</svg>
