<svg width="24" height="24" viewBox="0 0 24 24" fill="none" xmlns="http://www.w3.org/2000/svg">
<path fill-rule="evenodd" clip-rule="evenodd" d="M7.47376 2.25005C6.65555 2.24957 6.0596 2.24922 5.5232 2.44245C5.05123 2.61248 4.62501 2.88946 4.27795 3.25171C3.88352 3.66339 3.6418 4.20812 3.30994 4.956L0.508511 11.2593C0.443921 11.4044 0.386906 11.5326 0.345754 11.6691C0.309524 11.7893 0.283417 11.9123 0.267707 12.0369C0.249863 12.1783 0.249932 12.3186 0.25001 12.4774L0.25002 17.0315C0.25002 17.0778 0.250019 17.1235 0.250031 17.1687V18.5001C0.250031 19.3518 0.577683 20.127 1.11382 20.7066C1.179 20.7771 1.24728 20.8446 1.31846 20.9091C1.8952 21.4317 2.66043 21.7501 3.50003 21.7501H4.86358C4.89825 21.7501 4.93325 21.7501 4.96858 21.7501H19.0315C19.0668 21.7501 19.1018 21.7501 19.1365 21.7501H20.5C22.295 21.7501 23.75 20.295 23.75 18.5001V12.5001C23.75 12.4992 23.75 12.4982 23.75 12.4973L23.75 12.4774C23.7501 12.3186 23.7502 12.1783 23.7323 12.0369C23.7166 11.9123 23.6905 11.7893 23.6543 11.6691C23.6131 11.5326 23.5561 11.4045 23.4916 11.2594L20.6901 4.95602C20.3582 4.20813 20.1165 3.66339 19.7221 3.25171C19.375 2.88946 18.9488 2.61248 18.4768 2.44245C17.9404 2.24922 17.3445 2.24957 16.5263 2.25005H7.47376ZM22.0682 11.7501L19.3704 5.68015C18.965 4.76792 18.8287 4.48741 18.639 4.28942C18.4521 4.09437 18.2226 3.94522 17.9685 3.85367C17.7105 3.76074 17.3988 3.7501 16.4005 3.7501H7.59951C6.60125 3.7501 6.28956 3.76074 6.03159 3.85367C5.77745 3.94522 5.54795 4.09437 5.36107 4.28942C5.17138 4.48741 5.03506 4.76792 4.62962 5.68015L1.93187 11.7501H7.21694C7.65601 11.7501 8.0629 11.9805 8.2888 12.357L9.2062 13.886C9.34174 14.1119 9.58587 14.2501 9.84932 14.2501H14.1507C14.4142 14.2501 14.6583 14.1119 14.7939 13.886L15.7113 12.357C15.9372 11.9805 16.344 11.7501 16.7831 11.7501H22.0682Z" fill="#000"/>
</svg>
