<svg width="24" height="24" viewBox="0 0 24 24" fill="none" xmlns="http://www.w3.org/2000/svg">
<path d="M14.4697 4.53033C14.7626 4.82322 15.2374 4.82322 15.5303 4.53033C15.8232 4.23744 15.8232 3.76256 15.5303 3.46967L12.5303 0.46967C12.3897 0.329017 12.1989 0.25 12 0.25C11.8011 0.25 11.6103 0.329017 11.4697 0.469669L8.46967 3.46967C8.17678 3.76256 8.17678 4.23744 8.46967 4.53033C8.76256 4.82322 9.23744 4.82322 9.53033 4.53033L11.25 2.81066L11.25 13C11.25 13.4142 11.5858 13.75 12 13.75C12.4142 13.75 12.75 13.4142 12.75 13L12.75 2.81066L14.4697 4.53033Z" fill="#000"/>
<path d="M7.95917 6.24997L9.00005 6.25C9.41426 6.25 9.75005 6.58579 9.75005 7C9.75005 7.41421 9.41426 7.75 9.00005 7.75H8.05852C7.25983 7.75 7.01104 7.75713 6.79429 7.82067C6.58081 7.88326 6.38122 7.98597 6.20621 8.12331C6.02852 8.26276 5.87811 8.46106 5.41388 9.11098L2.1003 13.75H7.2169C7.65598 13.75 8.06287 13.9804 8.28877 14.3569L9.20617 15.8859C9.34171 16.1118 9.58584 16.25 9.84929 16.25H14.1507C14.4142 16.25 14.6583 16.1118 14.7938 15.8859L15.7112 14.3569C15.9371 13.9804 16.344 13.75 16.7831 13.75H21.8998L18.5862 9.11098C18.122 8.46106 17.9716 8.26276 17.7939 8.12331C17.6189 7.98597 17.4193 7.88326 17.2058 7.82067C16.9891 7.75713 16.7403 7.75 15.9416 7.75H15C14.5858 7.75 14.25 7.41421 14.25 7C14.25 6.58579 14.5858 6.25 15 6.25L16.0409 6.24997C16.6984 6.24965 17.1781 6.24942 17.6278 6.38125C18.0242 6.49748 18.3949 6.68823 18.7199 6.94329C19.0886 7.2326 19.3672 7.62307 19.7491 8.15826L23.1914 12.9775C23.3299 13.1712 23.4522 13.342 23.5413 13.5342C23.6197 13.7032 23.6767 13.8813 23.7112 14.0644C23.7342 14.1867 23.7437 14.3096 23.7475 14.4384C23.7492 14.4587 23.75 14.4793 23.75 14.5L23.7501 14.7208L23.75 20.5C23.75 21.3267 23.4413 22.0813 22.933 22.6548C22.8473 22.7515 22.756 22.8431 22.6594 22.9289L22.6354 22.9501C22.0643 23.4483 21.3174 23.75 20.5 23.75H3.5C1.70507 23.75 0.25 22.2949 0.25 20.5V14.5C0.25 14.4787 0.250891 14.4575 0.252636 14.4367C0.256512 14.3085 0.265978 14.1861 0.288886 14.0644C0.323355 13.8813 0.380432 13.7032 0.458807 13.5342C0.54792 13.342 0.670144 13.1712 0.808677 12.9775L4.251 8.15826C4.63289 7.62307 4.91152 7.2326 5.28017 6.94329C5.60519 6.68823 5.97585 6.49748 6.37232 6.38125C6.82201 6.24942 7.3017 6.24965 7.95917 6.24997Z" fill="#000"/>
</svg>
