<svg width="24" height="24" viewBox="0 0 24 24" fill="none" xmlns="http://www.w3.org/2000/svg">
<path fill-rule="evenodd" clip-rule="evenodd" d="M7.47376 2.24992C6.65555 2.24944 6.0596 2.24909 5.5232 2.44233C5.05123 2.61236 4.62501 2.88934 4.27795 3.25158C3.88352 3.66327 3.6418 4.208 3.30994 4.95588L0.508511 11.2592C0.443921 11.4043 0.386906 11.5324 0.345754 11.669C0.309524 11.7892 0.283417 11.9122 0.267707 12.0367C0.249863 12.1782 0.249932 12.3184 0.25001 12.4773L0.25002 17.0314C0.25002 17.0777 0.250019 17.1234 0.250031 17.1686V18.5C0.250031 19.3517 0.577683 20.1269 1.11382 20.7064C1.179 20.7769 1.24728 20.8445 1.31846 20.909C1.8952 21.4316 2.66043 21.75 3.50003 21.75H4.86358C4.89825 21.75 4.93325 21.75 4.96858 21.75H19.0315C19.0668 21.75 19.1018 21.75 19.1365 21.75H20.5C22.295 21.75 23.75 20.2949 23.75 18.5V12.5C23.75 12.499 23.75 12.4981 23.75 12.4971L23.75 12.4773C23.7501 12.3185 23.7502 12.1782 23.7323 12.0367C23.7166 11.9122 23.6905 11.7892 23.6543 11.669C23.6131 11.5325 23.5561 11.4044 23.4916 11.2593L20.6901 4.9559C20.3582 4.20801 20.1165 3.66327 19.7221 3.25158C19.375 2.88934 18.9488 2.61236 18.4768 2.44233C17.9404 2.24909 17.3445 2.24944 16.5263 2.24992H7.47376ZM22.0682 11.75L19.3704 5.68002C18.965 4.7678 18.8287 4.48729 18.639 4.2893C18.4521 4.09425 18.2226 3.9451 17.9685 3.85355C17.7105 3.76062 17.3988 3.74997 16.4005 3.74997H7.59951C6.60125 3.74997 6.28956 3.76062 6.03159 3.85355C5.77745 3.9451 5.54795 4.09425 5.36107 4.2893C5.17138 4.48729 5.03506 4.7678 4.62962 5.68003L1.93187 11.75H7.21694C7.65601 11.75 8.0629 11.9803 8.2888 12.3568L9.2062 13.8858C9.34174 14.1117 9.58587 14.25 9.84932 14.25H14.1507C14.4142 14.25 14.6583 14.1117 14.7939 13.8858L15.7113 12.3568C15.9372 11.9803 16.344 11.75 16.7831 11.75H22.0682Z" fill="#000"/>
</svg>
