<svg width="24" height="24" viewBox="0 0 24 24" fill="none" xmlns="http://www.w3.org/2000/svg">
<path d="M12.75 1C12.75 0.585787 12.4142 0.25 12 0.25C11.5858 0.25 11.25 0.585787 11.25 1V11.1893L9.53033 9.46967C9.23744 9.17678 8.76256 9.17678 8.46967 9.46967C8.17678 9.76256 8.17678 10.2374 8.46967 10.5303L11.4697 13.5303C11.6103 13.671 11.8011 13.75 12 13.75C12.1989 13.75 12.3897 13.671 12.5303 13.5303L15.5303 10.5303C15.8232 10.2374 15.8232 9.76256 15.5303 9.46967C15.2374 9.17678 14.7626 9.17678 14.4697 9.46967L12.75 11.1893V1Z" fill="#000"/>
<path d="M9.00005 6.25L7.95917 6.24997C7.3017 6.24965 6.82201 6.24942 6.37232 6.38125C5.97585 6.49748 5.60519 6.68823 5.28017 6.94329C4.91152 7.2326 4.63289 7.62307 4.251 8.15826L0.808677 12.9775C0.670144 13.1712 0.54792 13.342 0.458807 13.5342C0.380432 13.7032 0.323355 13.8813 0.288886 14.0644C0.265978 14.1861 0.256512 14.3085 0.252636 14.4367C0.250891 14.4575 0.25 14.4787 0.25 14.5V20.5C0.25 22.2949 1.70507 23.75 3.5 23.75H20.5C21.3174 23.75 22.0643 23.4483 22.6354 22.9501L22.6594 22.9289C22.756 22.8431 22.8473 22.7515 22.933 22.6548C23.4413 22.0813 23.75 21.3267 23.75 20.5V14.5C23.75 14.4793 23.7492 14.4587 23.7475 14.4384C23.7437 14.3096 23.7342 14.1867 23.7112 14.0644C23.6767 13.8813 23.6197 13.7032 23.5413 13.5342C23.4522 13.342 23.3299 13.1712 23.1914 12.9775L19.7491 8.15826C19.3672 7.62307 19.0886 7.2326 18.7199 6.94329C18.3949 6.68823 18.0242 6.49748 17.6278 6.38125C17.1781 6.24942 16.6984 6.24965 16.0409 6.24997L15 6.25C14.5858 6.25 14.25 6.58579 14.25 7C14.25 7.41421 14.5858 7.75 15 7.75H15.9416C16.7403 7.75 16.9891 7.75713 17.2058 7.82067C17.4193 7.88326 17.6189 7.98597 17.7939 8.12331C17.9716 8.26276 18.122 8.46106 18.5862 9.11098L21.8998 13.75H16.7831C16.344 13.75 15.9371 13.9804 15.7112 14.3569L14.7938 15.8859C14.6583 16.1118 14.4142 16.25 14.1507 16.25H9.84929C9.58584 16.25 9.34171 16.1118 9.20617 15.8859L8.28877 14.3569C8.06287 13.9804 7.65598 13.75 7.2169 13.75H2.1003L5.41388 9.11098C5.87811 8.46106 6.02852 8.26276 6.20621 8.12331C6.38122 7.98597 6.58081 7.88326 6.79429 7.82067C7.01104 7.75713 7.25983 7.75 8.05852 7.75H9.00005C9.41426 7.75 9.75005 7.41421 9.75005 7C9.75005 6.58579 9.41426 6.25 9.00005 6.25Z" fill="#000"/>
</svg>
