<svg width="24" height="24" viewBox="0 0 24 24" fill="none" xmlns="http://www.w3.org/2000/svg">
<g clip-path="url(#clip0_9002_8385)">
<path fill-rule="evenodd" clip-rule="evenodd" d="M0.25 12C0.25 5.51065 5.51065 0.25 12 0.25C18.4893 0.25 23.75 5.51065 23.75 12C23.75 18.4893 18.4893 23.75 12 23.75C5.51065 23.75 0.25 18.4893 0.25 12ZM11 7.5C11 6.94772 11.4477 6.5 12 6.5C12.5523 6.5 13.0001 6.94772 13.0001 7.5C13.0001 8.05228 12.5523 8.5 12 8.5C11.4477 8.5 11 8.05228 11 7.5ZM9.75 11C9.75 10.5858 10.0858 10.25 10.5 10.25H12C12.4142 10.25 12.75 10.5858 12.75 11L12.75 17C12.75 17.4142 12.4142 17.75 12 17.75C11.5858 17.75 11.25 17.4142 11.25 17L11.25 11.75H10.5C10.0858 11.75 9.75 11.4142 9.75 11Z" fill="#000"/>
</g>
<defs>
<clipPath id="clip0_9002_8385">
<rect width="24" height="24" fill="white"/>
</clipPath>
</defs>
</svg>
