<svg width="24" height="24" viewBox="0 0 24 24" fill="none" xmlns="http://www.w3.org/2000/svg">
<path fill-rule="evenodd" clip-rule="evenodd" d="M9.06739 1.25H14.9326C15.885 1.24999 16.6456 1.24999 17.2599 1.30018C17.8899 1.35165 18.4318 1.45963 18.9295 1.71322C19.7291 2.12068 20.3793 2.77085 20.7868 3.57054C21.0404 4.06824 21.1483 4.61012 21.1998 5.24013C21.25 5.85438 21.25 6.61496 21.25 7.56737V16.4327C21.25 17.3851 21.25 18.1456 21.1998 18.7599C21.1483 19.3899 21.0404 19.9318 20.7868 20.4295C20.3793 21.2291 19.7291 21.8793 18.9295 22.2868C18.4318 22.5404 17.8899 22.6483 17.2599 22.6998C16.6456 22.75 15.885 22.75 14.9326 22.75H9.0673C8.1149 22.75 7.35438 22.75 6.74013 22.6998C6.11012 22.6483 5.56824 22.5404 5.07054 22.2868C4.27085 21.8793 3.62068 21.2291 3.21322 20.4295C2.95963 19.9318 2.85165 19.3899 2.80018 18.7599C2.74999 18.1456 2.74999 17.3851 2.75 16.4326V7.56738C2.74999 6.61494 2.74999 5.85439 2.80018 5.24013C2.85165 4.61012 2.95963 4.06824 3.21322 3.57054C3.62068 2.77085 4.27085 2.12068 5.07054 1.71322C5.56824 1.45963 6.11012 1.35165 6.74013 1.30018C7.35439 1.24999 8.11495 1.24999 9.06739 1.25ZM8.65002 5.50018C8.65002 5.57755 8.59654 5.64417 8.52212 5.66531C8.26021 5.73968 8.01542 5.85205 7.80005 6.00803C7.33342 6.34598 7.04997 6.86097 7.04997 7.47246C7.04997 8.26645 7.49905 8.7673 7.99363 9.04415C8.44081 9.29448 8.96143 9.38743 9.27667 9.43997C9.60143 9.49409 9.88082 9.55714 10.0736 9.66507C10.1599 9.71336 10.1987 9.75493 10.2163 9.78136C10.2292 9.8006 10.25 9.83846 10.25 9.92788C10.25 10.0387 10.2134 10.1098 10.1201 10.1775C10.0042 10.2614 9.77346 10.3502 9.39997 10.3502C9.13936 10.3502 9.00075 10.3225 8.8765 10.2732C8.73473 10.217 8.561 10.1126 8.25272 9.87915C7.9225 9.6291 7.45209 9.6941 7.20204 10.0243C6.95199 10.3545 7.01699 10.825 7.34721 11.075C7.67894 11.3262 7.98521 11.5334 8.32344 11.6675C8.39125 11.6944 8.45853 11.7177 8.52566 11.7378C8.59809 11.7594 8.65002 11.8246 8.65002 11.9002C8.65002 12.3144 8.98581 12.6502 9.40002 12.6502C9.81424 12.6502 10.15 12.3144 10.15 11.9002C10.15 11.8228 10.2035 11.7561 10.278 11.735C10.5398 11.6606 10.7846 11.5483 10.9999 11.3923C11.4665 11.0544 11.75 10.5394 11.75 9.92788C11.75 9.13389 11.3009 8.63305 10.8063 8.35619C10.3591 8.10586 9.83851 8.01292 9.52327 7.96038C9.19851 7.90625 8.91912 7.8432 8.72631 7.73527C8.64006 7.68699 8.60126 7.64542 8.58361 7.61899C8.57075 7.59975 8.54997 7.56188 8.54997 7.47246C8.54997 7.36166 8.58652 7.29051 8.67989 7.22289C8.79573 7.13899 9.02648 7.05017 9.39997 7.05017C9.6606 7.05017 9.79921 7.07786 9.92346 7.12714C10.0652 7.18337 10.2389 7.28773 10.5472 7.52116C10.8774 7.77121 11.3478 7.70621 11.5979 7.37599C11.8479 7.04576 11.783 6.57536 11.4527 6.32531C11.121 6.07412 10.8147 5.86696 10.4765 5.73281C10.4087 5.70592 10.3415 5.68266 10.2744 5.6626C10.2019 5.64096 10.15 5.57577 10.15 5.50018C10.15 5.08597 9.81424 4.75018 9.40002 4.75018C8.98581 4.75018 8.65002 5.08597 8.65002 5.50018ZM6.75 14.5C6.75 14.0858 7.08579 13.75 7.5 13.75H16.5C16.9142 13.75 17.25 14.0858 17.25 14.5C17.25 14.9142 16.9142 15.25 16.5 15.25H7.5C7.08579 15.25 6.75 14.9142 6.75 14.5ZM13.5 8.5C13.5 8.08579 13.8358 7.75 14.25 7.75H16.5C16.9142 7.75 17.25 8.08579 17.25 8.5C17.25 8.91421 16.9142 9.25 16.5 9.25H14.25C13.8358 9.25 13.5 8.91421 13.5 8.5ZM13.5 11.5C13.5 11.0858 13.8358 10.75 14.25 10.75H16.5C16.9142 10.75 17.25 11.0858 17.25 11.5C17.25 11.9142 16.9142 12.25 16.5 12.25H14.25C13.8358 12.25 13.5 11.9142 13.5 11.5ZM6.75 17.5C6.75 17.0858 7.08579 16.75 7.5 16.75H16.5C16.9142 16.75 17.25 17.0858 17.25 17.5C17.25 17.9142 16.9142 18.25 16.5 18.25H7.5C7.08579 18.25 6.75 17.9142 6.75 17.5Z" fill="#000"/>
</svg>
