<svg width="24" height="24" viewBox="0 0 24 24" fill="none" xmlns="http://www.w3.org/2000/svg">
<path d="M11.4343 1.29186C11.8094 1.23458 12.1911 1.23458 12.5663 1.29186C12.9907 1.35667 13.3939 1.51727 13.9763 1.74927L19.8786 4.0984C20.6697 4.41269 21.2457 4.64152 21.6829 5.03783C22.0674 5.38639 22.3628 5.82198 22.5445 6.30815C22.751 6.8609 22.7507 7.48063 22.7502 8.33184L22.7501 9.62162C22.7501 9.74022 22.7501 9.79952 22.7252 9.83718C22.7034 9.87011 22.6694 9.89311 22.6308 9.90118C22.5866 9.91041 22.5315 9.88846 22.4213 9.84457L13.9779 6.48066C13.395 6.24823 12.9914 6.08733 12.5666 6.02241C12.1911 5.96502 11.8091 5.96502 11.4336 6.02241C11.0088 6.08733 10.6052 6.24822 10.0223 6.48064L1.57892 9.84447C1.46874 9.88837 1.41365 9.91031 1.36944 9.90108C1.33077 9.89301 1.29685 9.87001 1.27504 9.83708C1.2501 9.79942 1.2501 9.74012 1.25009 9.62152L1.25005 8.33189C1.24953 7.48066 1.24916 6.86092 1.45571 6.30816C1.63737 5.82199 1.93283 5.3864 2.31737 5.03783C2.75456 4.64152 3.33051 4.4127 4.12159 4.09841L10.0242 1.74925C10.6066 1.51726 11.0098 1.35666 11.4343 1.29186Z" fill="#000"/>
<path fill-rule="evenodd" clip-rule="evenodd" d="M1.40128 11.5299C1.3467 11.5516 1.31941 11.5625 1.29933 11.5807C1.2816 11.5968 1.26797 11.6169 1.25959 11.6393C1.2501 11.6647 1.2501 11.6941 1.2501 11.7529V13.1214C1.2501 13.24 1.2501 13.2993 1.27504 13.3369C1.29686 13.3699 1.33078 13.3929 1.36944 13.4009C1.41366 13.4102 1.46875 13.3882 1.57893 13.3443C2.36795 13.03 3.1561 12.7127 3.94531 12.3986C4.33017 12.2454 4.76632 12.4332 4.91949 12.8181C5.07266 13.2029 4.88484 13.6391 4.49999 13.7923C3.4666 14.2036 2.43451 14.6181 1.40126 15.0298C1.34669 15.0515 1.3194 15.0624 1.29933 15.0806C1.28159 15.0967 1.26796 15.1168 1.25958 15.1392C1.2501 15.1646 1.25009 15.194 1.25009 15.2527L1.25005 15.6682C1.24953 16.5194 1.24916 17.1391 1.45571 17.6919C1.63738 18.1781 1.93284 18.6137 2.31737 18.9622C2.75457 19.3585 3.33053 19.5874 4.12161 19.9016L10.0242 22.2508C10.6066 22.4828 11.0098 22.6434 11.4343 22.7082C11.8094 22.7655 12.1911 22.7655 12.5662 22.7082C12.9907 22.6434 13.3938 22.4828 13.9762 22.2508L19.8786 19.9017C20.6697 19.5874 21.2457 19.3585 21.6829 18.9622C22.0674 18.6137 22.3628 18.1781 22.5445 17.6919C22.751 17.1392 22.7507 16.5194 22.7502 15.6682L22.7501 15.2528C22.7501 15.1941 22.7501 15.1647 22.7406 15.1393C22.7322 15.1169 22.7186 15.0968 22.7009 15.0807C22.6808 15.0625 22.6535 15.0516 22.5989 15.0299C21.5656 14.6182 20.5335 14.2036 19.5 13.7923C19.1151 13.6391 18.9273 13.2029 19.0805 12.8181C19.2337 12.4332 19.6698 12.2454 20.0547 12.3986C20.844 12.7128 21.6332 13.0305 22.4213 13.3444C22.5315 13.3883 22.5865 13.4103 22.6308 13.401C22.6694 13.393 22.7034 13.37 22.7252 13.337C22.7501 13.2994 22.7501 13.2401 22.7501 13.1215V11.753C22.7501 11.6942 22.7501 11.6648 22.7406 11.6394C22.7322 11.617 22.7186 11.5969 22.7009 11.5808C22.6808 11.5626 22.6535 11.5517 22.5989 11.53L13.499 7.90456C12.8108 7.63038 12.5744 7.54102 12.34 7.50519C12.1147 7.47076 11.8855 7.47076 11.6602 7.50519C11.4258 7.54101 11.1894 7.63037 10.5012 7.90455L1.40128 11.5299ZM12.8321 11.1384C12.2978 10.9258 11.7024 10.9258 11.1681 11.1384L8.94538 12.023C8.56052 12.1762 8.12437 11.9884 7.9712 11.6035C7.81803 11.2187 8.00585 10.7825 8.3907 10.6294L10.6134 9.74473C11.5039 9.39032 12.4963 9.39032 13.3868 9.74475L15.6094 10.6294C15.9943 10.7825 16.1821 11.2187 16.0289 11.6035C15.8757 11.9884 15.4396 12.1762 15.0547 12.023L12.8321 11.1384Z" fill="#000"/>
</svg>
