<svg width="24" height="24" viewBox="0 0 24 24" fill="none" xmlns="http://www.w3.org/2000/svg">
<path d="M8.11608 11.1161C8.60419 10.628 9.39531 10.628 9.88342 11.1161C10.3715 11.6042 10.3715 12.3953 9.88342 12.8834C9.39531 13.3715 8.60419 13.3715 8.11608 12.8834C7.62797 12.3953 7.62797 11.6042 8.11608 11.1161Z" fill="#000"/>
<path fill-rule="evenodd" clip-rule="evenodd" d="M8.367 1.25H15.633C16.7251 1.24999 17.5906 1.24999 18.2883 1.30699C19.0017 1.36527 19.6053 1.48688 20.1565 1.76772C21.0502 2.22312 21.7769 2.94978 22.2323 3.84355C22.5131 4.39472 22.6347 4.99835 22.693 5.71173C22.75 6.40935 22.75 7.27484 22.75 8.36698V15.633C22.75 16.7252 22.75 17.5906 22.693 18.2883C22.6347 19.0017 22.5131 19.6053 22.2323 20.1565C21.7769 21.0502 21.0502 21.7769 20.1565 22.2323C19.6053 22.5131 19.0017 22.6347 18.2883 22.693C17.5906 22.75 16.7252 22.75 15.633 22.75H8.36698C7.27484 22.75 6.40935 22.75 5.71173 22.693C4.99835 22.6347 4.39472 22.5131 3.84355 22.2323C2.94978 21.7769 2.22312 21.0502 1.76772 20.1565C1.48688 19.6053 1.36527 19.0017 1.30699 18.2883C1.24999 17.5906 1.24999 16.7252 1.25 15.633V8.36699C1.24999 7.27486 1.24999 6.40935 1.30699 5.71173C1.36527 4.99834 1.48688 4.39472 1.76772 3.84355C2.22312 2.94978 2.94978 2.22312 3.84355 1.76772C4.39472 1.48688 4.99835 1.36527 5.71173 1.30699C6.40935 1.24999 7.27486 1.24999 8.367 1.25ZM7.05542 10.0554C8.12931 8.98153 9.87019 8.98153 10.9441 10.0554C11.2884 10.3997 11.5223 10.8126 11.6458 11.25H13.25V10.5C13.25 10.0858 13.5858 9.75 14 9.75C14.4142 9.75 14.75 10.0858 14.75 10.5V11.25H16.25V10C16.25 9.58579 16.5858 9.25 17 9.25C17.4142 9.25 17.75 9.58579 17.75 10V12C17.75 12.4142 17.4142 12.75 17 12.75H14.0193L14 12.7502L13.9807 12.75H11.6457C11.5221 13.1873 11.2882 13.5999 10.9441 13.9441C9.87019 15.018 8.12931 15.018 7.05542 13.9441C5.98153 12.8702 5.98153 11.1293 7.05542 10.0554Z" fill="#000"/>
</svg>
