<svg width="24" height="24" viewBox="0 0 24 24" fill="none" xmlns="http://www.w3.org/2000/svg">
<path d="M8 2C8.55228 2 9 2.44772 9 3V4H11.9772C11.9918 3.99968 12.0065 3.99967 12.0213 4H14C14.5522 4 15 4.44772 15 5C15 5.55228 14.5522 6 14 6H12.7899C12.2677 8.02811 11.5011 9.7538 10.2865 11.2996C10.0398 11.6136 9.77629 11.918 9.49489 12.2144C10.3284 12.8574 11.3117 13.4855 12.4788 14.1221C12.9637 14.3866 13.1424 14.994 12.8779 15.4789C12.6134 15.9637 12.006 16.1424 11.5211 15.8779C10.1595 15.1352 8.99539 14.3823 8.0001 13.5828C7.00285 14.3839 5.8382 15.1365 4.47904 15.8779C3.99419 16.1423 3.38676 15.9637 3.12229 15.4788C2.85783 14.994 3.03649 14.3865 3.52134 14.1221C4.69043 13.4844 5.67327 12.856 6.50517 12.2144C5.7074 11.3742 5.05506 10.4709 4.5215 9.47069C4.26155 8.9834 4.44585 8.37765 4.93313 8.11771C5.42042 7.85776 6.02617 8.04206 6.28611 8.52934C6.73525 9.37127 7.29164 10.1459 8.0001 10.8838C8.25762 10.6156 8.49479 10.3428 8.71387 10.064C9.62489 8.90449 10.2563 7.59842 10.7171 6H2C1.44772 6 1 5.55228 1 5C1 4.44772 1.44772 4 2 4H7V3C7 2.44772 7.44772 2 8 2Z" fill="#000"/>
<path fill-rule="evenodd" clip-rule="evenodd" d="M17.5 10C17.8935 10 18.2504 10.2308 18.4119 10.5896L21.5531 17.5699L21.5606 17.5862L21.5667 17.5997L21.5713 17.6104L22.9119 20.5896C23.1386 21.0933 22.914 21.6853 22.4104 21.9119C21.9067 22.1386 21.3147 21.914 21.0881 21.4104L20.0034 19H14.9966L13.9119 21.4104C13.6853 21.914 13.0933 22.1386 12.5896 21.9119C12.086 21.6853 11.8614 21.0933 12.0881 20.5896L13.4288 17.6104C13.4345 17.5967 13.4406 17.5833 13.4469 17.57L16.5881 10.5896C16.7496 10.2308 17.1065 10 17.5 10ZM15.8966 17H19.1034L17.5 13.4369L15.8966 17Z" fill="#000"/>
</svg>
