<svg width="24" height="24" viewBox="0 0 24 24" fill="none" xmlns="http://www.w3.org/2000/svg">
<path d="M7.36821 3.25H16.6318C17.3749 3.24999 17.978 3.24999 18.4673 3.28996C18.9722 3.33121 19.4215 3.41876 19.839 3.63148C20.4975 3.96703 21.033 4.50247 21.3685 5.16103C21.5812 5.57851 21.6688 6.02778 21.71 6.53273C21.75 7.02195 21.75 7.62507 21.75 8.36811V14C21.75 14.4142 21.4142 14.75 21 14.75C20.5858 14.75 20.25 14.4142 20.25 14V8.4C20.25 7.61755 20.2494 7.07582 20.215 6.65488C20.1813 6.24269 20.119 6.0128 20.032 5.84202C19.8403 5.4657 19.5343 5.15973 19.158 4.96799C18.9872 4.88097 18.7573 4.81865 18.3451 4.78498C17.9242 4.75058 17.3824 4.75 16.6 4.75H7.4C6.61755 4.75 6.07582 4.75058 5.65488 4.78498C5.24269 4.81865 5.0128 4.88097 4.84202 4.96799C4.4657 5.15973 4.15973 5.4657 3.96799 5.84202C3.88097 6.0128 3.81865 6.24269 3.78498 6.65488C3.75058 7.07582 3.75 7.61755 3.75 8.4V14C3.75 14.4142 3.41421 14.75 3 14.75C2.58579 14.75 2.25 14.4142 2.25 14L2.25 8.36821C2.24999 7.62512 2.24999 7.02197 2.28996 6.53273C2.33121 6.02778 2.41876 5.57851 2.63148 5.16103C2.96703 4.50247 3.50247 3.96703 4.16103 3.63148C4.57851 3.41876 5.02778 3.33121 5.53273 3.28996C6.02197 3.24999 6.62513 3.24999 7.36821 3.25Z" fill="#000"/>
<path d="M1 16.25C0.585786 16.25 0.25 16.5858 0.25 17V17.75C0.25 19.4069 1.59315 20.75 3.25 20.75H20.75C22.4069 20.75 23.75 19.4069 23.75 17.75V17C23.75 16.5858 23.4142 16.25 23 16.25H1Z" fill="#000"/>
</svg>
