<svg width="24" height="24" viewBox="0 0 24 24" fill="none" xmlns="http://www.w3.org/2000/svg">
<path d="M7.25 3.65C7.25 3.50999 7.25 3.43998 7.22275 3.3865C7.19879 3.33946 7.16054 3.30122 7.1135 3.27725C7.06002 3.25 6.99002 3.25 6.85 3.25H5.46858C4.79521 3.24999 4.24449 3.24999 3.79693 3.28655C3.33367 3.3244 2.91527 3.40514 2.52453 3.60423C1.913 3.91582 1.41582 4.413 1.10423 5.02453C0.905137 5.41527 0.824402 5.83367 0.786552 6.29693C0.749985 6.74449 0.749992 7.29519 0.75 7.96856V16.0314C0.749992 16.7048 0.749985 17.2555 0.786552 17.7031C0.824402 18.1663 0.905137 18.5847 1.10423 18.9755C1.41582 19.587 1.913 20.0842 2.52453 20.3958C2.91527 20.5949 3.33367 20.6756 3.79693 20.7134C4.24449 20.75 4.79519 20.75 5.46856 20.75H6.85C6.99001 20.75 7.06002 20.75 7.1135 20.7228C7.16054 20.6988 7.19878 20.6605 7.22275 20.6135C7.25 20.56 7.25 20.49 7.25 20.35L7.25 3.65Z" fill="#000"/>
<path d="M8.75 20.35C8.75 20.49 8.75 20.56 8.77725 20.6135C8.80122 20.6605 8.83946 20.6988 8.8865 20.7228C8.93998 20.75 9.00999 20.75 9.15 20.75H18.5314C19.2048 20.75 19.7555 20.75 20.2031 20.7134C20.6663 20.6756 21.0847 20.5949 21.4755 20.3958C22.087 20.0842 22.5842 19.587 22.8958 18.9755C23.0949 18.5847 23.1756 18.1663 23.2134 17.7031C23.25 17.2555 23.25 16.7048 23.25 16.0313V7.96866C23.25 7.29525 23.25 6.74451 23.2134 6.29693C23.1756 5.83367 23.0949 5.41527 22.8958 5.02453C22.5842 4.413 22.087 3.91582 21.4755 3.60423C21.0847 3.40514 20.6663 3.3244 20.2031 3.28655C19.7555 3.24999 19.2048 3.24999 18.5314 3.25H9.15C9.00999 3.25 8.93998 3.25 8.88651 3.27725C8.83946 3.30122 8.80122 3.33946 8.77725 3.3865C8.75 3.43998 8.75 3.50999 8.75 3.65L8.75 20.35Z" fill="#000"/>
</svg>
