<svg width="24" height="24" viewBox="0 0 24 24" fill="none" xmlns="http://www.w3.org/2000/svg">
<path d="M4.23866 3.178C6.30865 1.35547 9.02523 0.25 12 0.25C14.9748 0.25 17.6913 1.35547 19.7613 3.178L14.428 8.51136C13.7397 8.03144 12.9027 7.75 12 7.75C11.0973 7.75 10.2603 8.03144 9.57202 8.51136L4.23866 3.178Z" fill="#000"/>
<path d="M3.178 4.23866C1.35547 6.30865 0.25 9.02523 0.25 12C0.25 14.9748 1.35547 17.6913 3.178 19.7613L8.51136 14.428C8.03144 13.7397 7.75 12.9027 7.75 12C7.75 11.0973 8.03144 10.2603 8.51136 9.57202L3.178 4.23866Z" fill="#000"/>
<path d="M9.57202 15.4886L4.23866 20.822C6.30865 22.6445 9.02523 23.75 12 23.75C14.9748 23.75 17.6913 22.6445 19.7613 20.822L14.428 15.4886C13.7397 15.9686 12.9027 16.25 12 16.25C11.0973 16.25 10.2603 15.9686 9.57202 15.4886Z" fill="#000"/>
<path d="M15.4886 14.428L20.822 19.7613C22.6445 17.6913 23.75 14.9748 23.75 12C23.75 9.02523 22.6445 6.30865 20.822 4.23866L15.4886 9.57202C15.9686 10.2603 16.25 11.0973 16.25 12C16.25 12.9027 15.9686 13.7397 15.4886 14.428Z" fill="#000"/>
</svg>
