<svg width="24" height="24" viewBox="0 0 24 24" fill="none" xmlns="http://www.w3.org/2000/svg">
<path d="M9.79262 7.20721C9.4021 6.81668 9.4021 6.18352 9.79262 5.79299L12.8426 2.74301C15.1661 0.419486 18.9333 0.419486 21.2568 2.74301C23.5803 5.06653 23.5803 8.8337 21.2568 11.1572L18.2068 14.2072C17.8163 14.5977 17.1831 14.5977 16.7926 14.2072C16.4021 13.8167 16.4021 13.1835 16.7926 12.793L19.8426 9.74301C21.3851 8.20053 21.3851 5.69969 19.8426 4.15722C18.3001 2.61475 15.7993 2.61475 14.2568 4.15722L11.2068 7.20721C10.8163 7.59773 10.1831 7.59773 9.79262 7.20721Z" fill="#000"/>
<path d="M15.7068 8.29299C16.0974 8.68352 16.0974 9.31668 15.7068 9.70721L9.70684 15.7072C9.31632 16.0977 8.68315 16.0977 8.29263 15.7072C7.9021 15.3167 7.9021 14.6835 8.29263 14.293L14.2926 8.29299C14.6832 7.90247 15.3163 7.90247 15.7068 8.29299Z" fill="#000"/>
<path d="M14.2068 18.2072C14.5974 17.8167 14.5974 17.1835 14.2068 16.793C13.8163 16.4025 13.1832 16.4025 12.7926 16.793L9.74264 19.843C8.20017 21.3855 5.69933 21.3855 4.15685 19.843C2.61438 18.3005 2.61438 15.7997 4.15685 14.2572L7.20684 11.2072C7.59737 10.8167 7.59737 10.1835 7.20684 9.79299C6.81632 9.40247 6.18315 9.40247 5.79263 9.79299L2.74264 12.843C0.41912 15.1665 0.419119 18.9337 2.74264 21.2572C5.06616 23.5807 8.83333 23.5807 11.1569 21.2572L14.2068 18.2072Z" fill="#000"/>
</svg>
