<svg width="24" height="24" viewBox="0 0 24 24" fill="none" xmlns="http://www.w3.org/2000/svg">
<path d="M2.70711 1.29289C2.31658 0.902369 1.68342 0.902369 1.29289 1.29289C0.902369 1.68342 0.902369 2.31658 1.29289 2.70711L10.5858 12L8.29289 14.2929C7.90237 14.6834 7.90237 15.3166 8.29289 15.7071C8.68342 16.0976 9.31658 16.0976 9.70711 15.7071L12 13.4142L21.2929 22.7071C21.6834 23.0976 22.3166 23.0976 22.7071 22.7071C23.0976 22.3166 23.0976 21.6834 22.7071 21.2929L12.7123 11.2981C12.7106 11.2964 12.7089 11.2946 12.7071 11.2929C12.7054 11.2911 12.7036 11.2894 12.7019 11.2877L2.70711 1.29289Z" fill="#000"/>
<path d="M19.8429 4.1571C18.3004 2.61463 15.7996 2.61463 14.2571 4.1571L11.2071 7.20709C10.8166 7.59761 10.1834 7.59761 9.79289 7.20709C9.40237 6.81656 9.40237 6.1834 9.79289 5.79287L12.8429 2.74289C15.1664 0.419364 18.9336 0.419364 21.2571 2.74288C23.5806 5.06641 23.5806 8.83358 21.2571 11.1571L18.2071 14.2071C17.8166 14.5976 17.1834 14.5976 16.7929 14.2071C16.4024 13.8166 16.4024 13.1834 16.7929 12.7929L19.8429 9.74289C21.3854 8.20041 21.3854 5.69957 19.8429 4.1571Z" fill="#000"/>
<path d="M15.7071 8.29289C16.0976 8.68342 16.0976 9.31658 15.7071 9.70711L14.7071 10.7071C14.3166 11.0976 13.6834 11.0976 13.2929 10.7071C12.9024 10.3166 12.9024 9.6834 13.2929 9.29287L14.2929 8.29289C14.6834 7.90237 15.3166 7.90237 15.7071 8.29289Z" fill="#000"/>
<path d="M14.2071 16.7929C14.5976 17.1834 14.5976 17.8166 14.2071 18.2071L11.1571 21.2571C8.83357 23.5806 5.0664 23.5806 2.74288 21.2571C0.419356 18.9336 0.419356 15.1664 2.74288 12.8429L5.79286 9.79289C6.18339 9.40237 6.81655 9.40237 7.20708 9.79289C7.5976 10.1834 7.5976 10.8166 7.20708 11.2071L4.15709 14.2571C2.61462 15.7996 2.61462 18.3004 4.15709 19.8429C5.69956 21.3854 8.2004 21.3854 9.74288 19.8429L12.7929 16.7929C13.1834 16.4024 13.8166 16.4024 14.2071 16.7929Z" fill="#000"/>
</svg>
