<svg width="24" height="24" viewBox="0 0 24 24" fill="none" xmlns="http://www.w3.org/2000/svg">
<path d="M9.79287 7.20709C9.40234 6.81656 9.40234 6.1834 9.79287 5.79287L12.8429 2.74289C15.1664 0.419364 18.9335 0.419364 21.2571 2.74288C23.5806 5.06641 23.5806 8.83358 21.2571 11.1571L18.2071 14.2071C17.8166 14.5976 17.1834 14.5976 16.7929 14.2071C16.4023 13.8166 16.4023 13.1834 16.7929 12.7929L19.8429 9.74289C21.3853 8.20041 21.3853 5.69957 19.8429 4.1571C18.3004 2.61463 15.7995 2.61463 14.2571 4.1571L11.2071 7.20709C10.8166 7.59761 10.1834 7.59761 9.79287 7.20709Z" fill="#000"/>
<path d="M15.7071 8.29287C16.0976 8.6834 16.0976 9.31656 15.7071 9.70709L9.70708 15.7071C9.31656 16.0976 8.6834 16.0976 8.29287 15.7071C7.90235 15.3166 7.90235 14.6834 8.29287 14.2929L14.2929 8.29287C14.6834 7.90235 15.3166 7.90235 15.7071 8.29287Z" fill="#000"/>
<path d="M14.2071 18.2071C14.5976 17.8166 14.5976 17.1834 14.2071 16.7929C13.8166 16.4023 13.1834 16.4023 12.7929 16.7929L9.74288 19.8429C8.20041 21.3853 5.69957 21.3853 4.1571 19.8429C2.61463 18.3004 2.61463 15.7995 4.1571 14.2571L7.20709 11.2071C7.59761 10.8166 7.59761 10.1834 7.20709 9.79287C6.81656 9.40235 6.1834 9.40235 5.79287 9.79287L2.74289 12.8429C0.419364 15.1664 0.419363 18.9336 2.74288 21.2571C5.06641 23.5806 8.83358 23.5806 11.1571 21.2571L14.2071 18.2071Z" fill="#000"/>
</svg>
