<svg width="24" height="24" viewBox="0 0 24 24" fill="none" xmlns="http://www.w3.org/2000/svg">
<path d="M2 3.75C1.30964 3.75 0.75 4.30964 0.75 5C0.75 5.69036 1.30964 6.25 2 6.25C2.69036 6.25 3.2501 5.69036 3.2501 5C3.2501 4.30964 2.69036 3.75 2 3.75Z" fill="#000"/>
<path d="M7 4C6.44772 4 6 4.44772 6 5C6 5.55228 6.44772 6 7 6H22C22.5523 6 23 5.55228 23 5C23 4.44772 22.5523 4 22 4H7Z" fill="#000"/>
<path d="M7 11C6.44772 11 6 11.4477 6 12C6 12.5523 6.44772 13 7 13H22C22.5523 13 23 12.5523 23 12C23 11.4477 22.5523 11 22 11H7Z" fill="#000"/>
<path d="M6 19C6 18.4477 6.44772 18 7 18H22C22.5523 18 23 18.4477 23 19C23 19.5523 22.5523 20 22 20H7C6.44772 20 6 19.5523 6 19Z" fill="#000"/>
<path d="M0.75 12C0.75 11.3096 1.30964 10.75 2 10.75C2.69036 10.75 3.2501 11.3096 3.2501 12C3.2501 12.6904 2.69046 13.25 2.0001 13.25C1.30974 13.25 0.75 12.6904 0.75 12Z" fill="#000"/>
<path d="M2 17.75C1.30964 17.75 0.75 18.3096 0.75 19C0.75 19.6904 1.30964 20.25 2 20.25C2.69036 20.25 3.2501 19.6904 3.2501 19C3.2501 18.3096 2.69036 17.75 2 17.75Z" fill="#000"/>
</svg>
