<svg width="24" height="24" viewBox="0 0 24 24" fill="none" xmlns="http://www.w3.org/2000/svg">
<path fill-rule="evenodd" clip-rule="evenodd" d="M8.367 1.25H15.633C16.7251 1.24999 17.5906 1.24999 18.2883 1.30699C19.0017 1.36527 19.6053 1.48688 20.1565 1.76772C21.0502 2.22312 21.7769 2.94978 22.2323 3.84355C22.5131 4.39472 22.6347 4.99835 22.693 5.71173C22.75 6.40935 22.75 7.27484 22.75 8.36698V15.633C22.75 16.7252 22.75 17.5906 22.693 18.2883C22.6347 19.0017 22.5131 19.6053 22.2323 20.1565C21.7769 21.0502 21.0502 21.7769 20.1565 22.2323C19.6053 22.5131 19.0017 22.6347 18.2883 22.693C17.5906 22.75 16.7252 22.75 15.633 22.75H8.36698C7.27484 22.75 6.40935 22.75 5.71173 22.693C4.99835 22.6347 4.39472 22.5131 3.84355 22.2323C2.94978 21.7769 2.22312 21.0502 1.76772 20.1565C1.48688 19.6053 1.36527 19.0017 1.30699 18.2883C1.24999 17.5906 1.24999 16.7252 1.25 15.633V8.36699C1.24999 7.27486 1.24999 6.40935 1.30699 5.71173C1.36527 4.99834 1.48688 4.39472 1.76772 3.84355C2.22312 2.94978 2.94978 2.22312 3.84355 1.76772C4.39472 1.48688 4.99835 1.36527 5.71173 1.30699C6.40935 1.24999 7.27486 1.24999 8.367 1.25ZM10.519 7.19855C10.818 7.48517 10.8281 7.95994 10.5414 8.25897L9.26342 9.5923C9.12367 9.73811 8.93102 9.82138 8.72907 9.82329C8.52711 9.8252 8.33292 9.74558 8.19044 9.60244L7.46846 8.87715C7.17624 8.58359 7.17732 8.10872 7.47088 7.8165C7.76444 7.52427 8.23932 7.52536 8.53154 7.81892L8.71184 8.00005L9.45856 7.22101C9.74518 6.92198 10.2199 6.91192 10.519 7.19855ZM11.75 8.34003C11.75 7.92581 12.0858 7.59003 12.5 7.59003H16C16.4142 7.59003 16.75 7.92581 16.75 8.34003C16.75 8.75424 16.4142 9.09003 16 9.09003H12.5C12.0858 9.09003 11.75 8.75424 11.75 8.34003ZM10.519 11.0286C10.818 11.3153 10.8281 11.79 10.5414 12.089L9.26342 13.4224C9.12367 13.5682 8.93102 13.6515 8.72907 13.6534C8.52711 13.6553 8.33292 13.5757 8.19044 13.4325L7.46846 12.7072C7.17624 12.4137 7.17732 11.9388 7.47088 11.6466C7.76444 11.3544 8.23932 11.3554 8.53154 11.649L8.71184 11.8301L9.45856 11.0511C9.74518 10.7521 10.2199 10.742 10.519 11.0286ZM11.75 12.17C11.75 11.7558 12.0858 11.42 12.5 11.42H16C16.4142 11.42 16.75 11.7558 16.75 12.17C16.75 12.5843 16.4142 12.92 16 12.92H12.5C12.0858 12.92 11.75 12.5843 11.75 12.17ZM8 16C8 15.4477 8.44772 15 9 15C9.55229 15 10.0001 15.4477 10.0001 16C10.0001 16.5523 9.55239 17 9.0001 17C8.44782 17 8 16.5523 8 16ZM11 16C11 15.5858 11.3358 15.25 11.75 15.25H16C16.4142 15.25 16.75 15.5858 16.75 16C16.75 16.4142 16.4142 16.75 16 16.75H11.75C11.3358 16.75 11 16.4142 11 16Z" fill="#000"/>
</svg>
