<svg width="24" height="24" viewBox="0 0 24 24" fill="none" xmlns="http://www.w3.org/2000/svg">
<path d="M7.22192 4.69197C7.60409 4.29327 7.59068 3.66024 7.19197 3.27808C6.79327 2.89591 6.16024 2.90932 5.77808 3.30803L3.61094 5.56896L2.70872 4.66261C2.31909 4.2712 1.68593 4.26975 1.29451 4.65938C0.903095 5.04901 0.901649 5.68218 1.29128 6.07359L2.91574 7.70549C3.10572 7.89634 3.36463 8.0025 3.63391 7.99996C3.90318 7.99741 4.16004 7.88638 4.34638 7.69197L7.22192 4.69197Z" fill="#000"/>
<path d="M3.75 18.25C3.05964 18.25 2.5 18.8096 2.5 19.5C2.5 20.1904 3.05964 20.75 3.75 20.75C4.44036 20.75 5.0001 20.1904 5.0001 19.5C5.0001 18.8096 4.44036 18.25 3.75 18.25Z" fill="#000"/>
<path d="M7.19197 10.2781C7.59068 10.6602 7.60409 11.2933 7.22192 11.692L4.34638 14.692C4.16004 14.8864 3.90318 14.9974 3.63391 15C3.36463 15.0025 3.10572 14.8963 2.91574 14.7055L1.29128 13.0736C0.901649 12.6822 0.903095 12.049 1.29451 11.6594C1.68593 11.2698 2.31909 11.2712 2.70872 11.6626L3.61094 12.569L5.77808 10.308C6.16024 9.90932 6.79327 9.89591 7.19197 10.2781Z" fill="#000"/>
<path d="M10.5 12C9.94771 12 9.5 12.4477 9.5 13C9.5 13.5523 9.94771 14 10.5 14H22C22.5523 14 23 13.5523 23 13C23 12.4477 22.5523 12 22 12H10.5Z" fill="#000"/>
<path d="M9.5 6C9.5 5.44772 9.94771 5 10.5 5H22C22.5523 5 23 5.44772 23 6C23 6.55228 22.5523 7 22 7H10.5C9.94771 7 9.5 6.55228 9.5 6Z" fill="#000"/>
<path d="M8 18.5C7.44772 18.5 7 18.9477 7 19.5C7 20.0523 7.44772 20.5 8 20.5H22C22.5523 20.5 23 20.0523 23 19.5C23 18.9477 22.5523 18.5 22 18.5H8Z" fill="#000"/>
</svg>
