<svg width="24" height="24" viewBox="0 0 24 24" fill="none" xmlns="http://www.w3.org/2000/svg">
<path d="M12.75 2C12.75 1.58579 12.4142 1.25 12 1.25C11.5858 1.25 11.25 1.58579 11.25 2V3.28173C10.2416 3.36743 9.28092 3.62434 8.39796 4.02364C8.02055 4.19432 7.85296 4.63864 8.02364 5.01606C8.19432 5.39347 8.63864 5.56106 9.01605 5.39038C9.92516 4.97925 10.9348 4.75 12 4.75C16.0041 4.75 19.25 7.99594 19.25 12C19.25 13.0652 19.0208 14.0748 18.6096 14.9839C18.4389 15.3614 18.6065 15.8057 18.9839 15.9764C19.3614 16.147 19.8057 15.9795 19.9764 15.602C20.3757 14.7191 20.6326 13.7584 20.7183 12.75H22C22.4142 12.75 22.75 12.4142 22.75 12C22.75 11.5858 22.4142 11.25 22 11.25H20.7183C20.3589 7.01581 16.9842 3.64113 12.75 3.28169V2Z" fill="#000"/>
<path fill-rule="evenodd" clip-rule="evenodd" d="M5.30514 6.3658L1.46967 2.53033C1.17678 2.23744 1.17678 1.76256 1.46967 1.46967C1.76256 1.17678 2.23744 1.17678 2.53033 1.46967L22.5303 21.4697C22.8232 21.7626 22.8232 22.2374 22.5303 22.5303C22.2374 22.8232 21.7626 22.8232 21.4697 22.5303L17.6342 18.6949C16.2915 19.8258 14.6028 20.5609 12.75 20.7183V22C12.75 22.4142 12.4142 22.75 12 22.75C11.5858 22.75 11.25 22.4142 11.25 22V20.7183C7.01581 20.3589 3.64113 16.9842 3.28169 12.75H2C1.58579 12.75 1.25 12.4142 1.25 12C1.25 11.5858 1.58579 11.25 2 11.25H3.28172C3.43912 9.39722 4.17419 7.70846 5.30514 6.3658ZM6.37045 7.43111C5.35674 8.67839 4.75 10.2678 4.75 12C4.75 16.0041 7.99594 19.25 12 19.25C13.7322 19.25 15.3216 18.6433 16.5689 17.6295L14.068 15.1286C13.4753 15.521 12.764 15.75 12 15.75C9.92893 15.75 8.25 14.0711 8.25 12C8.25 11.236 8.479 10.5247 8.87139 9.93205L6.37045 7.43111Z" fill="#000"/>
<path d="M12.679 8.8584C12.8899 8.56015 13.285 8.45722 13.6147 8.61466C14.3888 8.98442 15.0156 9.6112 15.3854 10.3853C15.5428 10.715 15.4399 11.1101 15.1416 11.321C14.8434 11.5319 14.4366 11.4972 14.1783 11.2389L12.7611 9.82175C12.5028 9.56346 12.4681 9.15665 12.679 8.8584Z" fill="#000"/>
</svg>
