<svg width="24" height="24" viewBox="0 0 24 24" fill="none" xmlns="http://www.w3.org/2000/svg">
<path fill-rule="evenodd" clip-rule="evenodd" d="M3.25 10C3.25 5.16754 7.16751 1.25 12 1.25C16.8324 1.25 20.7499 5.16755 20.7499 10C20.7499 14.2078 17.9881 17.2706 16.2124 19.2397L16.0574 19.4117C15.3752 20.1697 13.7978 21.632 13.007 22.3568C12.4365 22.8798 11.5634 22.8798 10.9929 22.3568C10.2022 21.632 8.62466 20.1697 7.94247 19.4117L7.78067 19.2322C5.92621 17.1754 3.25 14.2073 3.25 10ZM12 12.5C13.3807 12.5 14.5 11.3807 14.5 10C14.5 8.61929 13.3807 7.5 12 7.5C10.6193 7.5 9.5 8.61929 9.5 10C9.5 11.3807 10.6193 12.5 12 12.5Z" fill="#000"/>
</svg>
