<svg width="24" height="24" viewBox="0 0 24 24" fill="none" xmlns="http://www.w3.org/2000/svg">
<path fill-rule="evenodd" clip-rule="evenodd" d="M12 1.25C9.1005 1.25 6.75 3.60051 6.75 6.5V8.2949C6.21103 8.34018 5.73673 8.43495 5.29754 8.65873C4.59193 9.01825 4.01825 9.59193 3.65873 10.2975C3.43239 10.7418 3.33803 11.2219 3.29336 11.7685C3.24999 12.2994 3.24999 12.9551 3.25 13.7679V17.2321C3.24999 18.0449 3.24999 18.7006 3.29336 19.2315C3.33803 19.7781 3.43239 20.2582 3.65873 20.7025C4.01825 21.4081 4.59193 21.9818 5.29754 22.3413C5.74175 22.5676 6.2219 22.662 6.76853 22.7066C7.29944 22.75 7.95505 22.75 8.76788 22.75H15.2321C16.045 22.75 16.7006 22.75 17.2315 22.7066C17.7781 22.662 18.2582 22.5676 18.7025 22.3413C19.4081 21.9818 19.9818 21.4081 20.3413 20.7025C20.5676 20.2582 20.662 19.7781 20.7066 19.2315C20.75 18.7006 20.75 18.045 20.75 17.2321V13.7679C20.75 12.955 20.75 12.2994 20.7066 11.7685C20.662 11.2219 20.5676 10.7418 20.3413 10.2975C19.9818 9.59193 19.4081 9.01825 18.7025 8.65873C18.2633 8.43495 17.789 8.34018 17.25 8.2949V6.5C17.25 3.60051 14.8995 1.25 12 1.25ZM15.75 8.25047V6.5C15.75 4.42893 14.0711 2.75 12 2.75C9.92893 2.75 8.25 4.42893 8.25 6.5V8.25047C8.41513 8.25 8.58764 8.25 8.76787 8.25H15.2321C15.4123 8.25 15.5849 8.25 15.75 8.25047Z" fill="#000"/>
</svg>
