<svg width="24" height="24" viewBox="0 0 24 24" fill="none" xmlns="http://www.w3.org/2000/svg">
<path d="M5.91104 3.03755C6.36113 3.00078 6.94342 3 7.8 3H11C11.5523 3 12 2.55229 12 2C12 1.44772 11.5523 1 11 1H7.7587C6.95374 0.999988 6.28937 0.999978 5.74817 1.04419C5.18608 1.09012 4.66937 1.18868 4.18404 1.43598C3.43139 1.81947 2.81947 2.43139 2.43597 3.18404C2.18868 3.66937 2.09012 4.18608 2.04419 4.74818C1.99998 5.28937 1.99999 5.95372 2 6.75868V17.2413C1.99999 18.0463 1.99998 18.7106 2.04419 19.2518C2.09012 19.8139 2.18868 20.3306 2.43597 20.816C2.81947 21.5686 3.43139 22.1805 4.18404 22.564C4.66937 22.8113 5.18608 22.9099 5.74817 22.9558C6.28936 23 6.95372 23 7.75868 23H11C11.5523 23 12 22.5523 12 22C12 21.4477 11.5523 21 11 21H7.8C6.94342 21 6.36113 20.9992 5.91104 20.9624C5.47262 20.9266 5.24842 20.8617 5.09202 20.782C4.71569 20.5903 4.40973 20.2843 4.21799 19.908C4.1383 19.7516 4.07337 19.5274 4.03755 19.089C4.00078 18.6389 4 18.0566 4 17.2V6.8C4 5.94342 4.00078 5.36113 4.03755 4.91104C4.07337 4.47262 4.1383 4.24842 4.21799 4.09202C4.40973 3.7157 4.71569 3.40973 5.09202 3.21799C5.24842 3.1383 5.47262 3.07337 5.91104 3.03755Z" fill="#000"/>
<path d="M15.2929 6.29289C15.6834 5.90237 16.3166 5.90237 16.7071 6.29289L21.7071 11.2929C22.0976 11.6834 22.0976 12.3166 21.7071 12.7071L16.7071 17.7071C16.3166 18.0976 15.6834 18.0976 15.2929 17.7071C14.9024 17.3166 14.9024 16.6834 15.2929 16.2929L18.5858 13H10C9.44771 13 9 12.5523 9 12C9 11.4477 9.44771 11 10 11H18.5858L15.2929 7.70711C14.9024 7.31658 14.9024 6.68342 15.2929 6.29289Z" fill="#000"/>
</svg>
