<svg width="24" height="24" viewBox="0 0 24 24" fill="none" xmlns="http://www.w3.org/2000/svg">
<path d="M9.25 18.3561C9.25 18.4279 9.28846 18.4942 9.35077 18.5298L14.5257 21.4869C14.629 21.5459 14.75 21.466 14.75 21.347V5.64347C14.75 5.5717 14.7115 5.50543 14.6492 5.46982L9.47426 2.5127C9.37096 2.45367 9.25 2.53355 9.25 2.65253V18.3561Z" fill="#000"/>
<path d="M7.75 2.62642C7.75 2.51188 7.63464 2.43394 7.53379 2.48824L2.43328 5.23467C1.70448 5.6271 1.25 6.388 1.25 7.21573V19.8427C1.25 20.7885 2.25983 21.3917 3.09262 20.9433L7.64482 18.4921C7.7096 18.4572 7.75 18.3896 7.75 18.316V2.62642Z" fill="#000"/>
<path d="M16.3552 5.50749C16.2904 5.54237 16.25 5.61001 16.25 5.68359V21.3732C16.25 21.4877 16.3654 21.5656 16.4662 21.5113L21.5667 18.7649C22.2955 18.3725 22.75 17.6116 22.75 16.7838V4.1569C22.75 3.21106 21.7402 2.60788 20.9074 3.05631L16.3552 5.50749Z" fill="#000"/>
</svg>
