<svg width="24" height="24" viewBox="0 0 24 24" fill="none" xmlns="http://www.w3.org/2000/svg">
<path fill-rule="evenodd" clip-rule="evenodd" d="M12.4326 1.25H6.56739C5.61495 1.24999 4.85439 1.24999 4.24013 1.30018C3.61012 1.35165 3.06824 1.45963 2.57054 1.71322C1.77085 2.12068 1.12068 2.77085 0.713223 3.57054C0.459634 4.06824 0.35165 4.61012 0.300176 5.24013C0.249989 5.85439 0.249994 6.61495 0.25 7.56738V16.4326C0.249994 17.3851 0.249989 18.1456 0.300176 18.7599C0.35165 19.3899 0.459634 19.9318 0.713223 20.4295C1.12069 21.2291 1.77085 21.8793 2.57054 22.2868C3.06824 22.5404 3.61012 22.6483 4.24013 22.6998C4.85438 22.75 5.61496 22.75 6.56737 22.75H11.7546C12.0431 22.75 12.3059 22.5846 12.4308 22.3246C12.5556 22.0645 12.5202 21.756 12.3398 21.5309C11.3447 20.2896 10.75 18.7153 10.75 17C10.75 12.9959 13.9959 9.75 18 9.75C18.4142 9.75 18.75 9.41421 18.75 9V7.5673C18.75 6.6149 18.75 5.85438 18.6998 5.24013C18.6483 4.61012 18.5404 4.06824 18.2868 3.57054C17.8793 2.77085 17.2292 2.12069 16.4295 1.71322C15.9318 1.45963 15.3899 1.35165 14.7599 1.30018C14.1456 1.24999 13.385 1.24999 12.4326 1.25ZM4.75 8C4.75 7.58579 5.08579 7.25 5.5 7.25H9.5C9.91421 7.25 10.25 7.58579 10.25 8C10.25 8.41421 9.91421 8.75 9.5 8.75H5.5C5.08579 8.75 4.75 8.41421 4.75 8ZM5.5 11.25C5.08579 11.25 4.75 11.5858 4.75 12C4.75 12.4142 5.08579 12.75 5.5 12.75H11.221C11.5655 12.2017 11.9747 11.6981 12.4378 11.25H5.5ZM10.0038 16.75C10.0196 16.2363 10.0838 15.7349 10.192 15.25H5.5C5.08579 15.25 4.75 15.5858 4.75 16C4.75 16.4142 5.08579 16.75 5.5 16.75H10.0038Z" fill="#000"/>
<path fill-rule="evenodd" clip-rule="evenodd" d="M12.25 17C12.25 13.8244 14.8244 11.25 18 11.25C21.1756 11.25 23.75 13.8244 23.75 17C23.75 20.1756 21.1756 22.75 18 22.75C14.8244 22.75 12.25 20.1756 12.25 17ZM19.9421 18.9419C19.698 19.186 19.3022 19.186 19.0582 18.9419L18 17.8838L16.9419 18.9419C16.6979 19.186 16.3021 19.186 16.0581 18.9419C15.814 18.6979 15.814 18.3021 16.0581 18.0581L17.1162 17L16.0581 15.9419C15.814 15.6979 15.814 15.3021 16.0581 15.0581C16.3022 14.814 16.6979 14.814 16.942 15.0581L18 16.1161L19.0581 15.0581C19.3021 14.814 19.6979 14.814 19.9419 15.0581C20.186 15.3021 20.186 15.6979 19.9419 15.9419L18.8839 17L19.942 18.0581C20.1861 18.3021 20.1861 18.6979 19.9421 18.9419Z" fill="#000"/>
</svg>
