<svg width="24" height="24" viewBox="0 0 24 24" fill="none" xmlns="http://www.w3.org/2000/svg">
<path fill-rule="evenodd" clip-rule="evenodd" d="M7.56739 1.25H16.4326C17.3851 1.24999 18.1456 1.24999 18.7599 1.30018C19.3899 1.35165 19.9318 1.45963 20.4295 1.71322C21.2292 2.12068 21.8793 2.77085 22.2868 3.57054C22.5404 4.06824 22.6484 4.61012 22.6998 5.24013C22.75 5.85438 22.75 6.61496 22.75 7.56737V13.4327C22.75 14.3851 22.75 15.1456 22.6998 15.7599C22.6484 16.3899 22.5404 16.9318 22.2868 17.4295C21.8793 18.2291 21.2292 18.8793 20.4295 19.2868C19.9318 19.5404 19.3899 19.6483 18.7599 19.6998C18.1456 19.75 17.385 19.75 16.4326 19.75H7.32902C6.99209 19.75 6.92607 19.7534 6.86947 19.7649C6.80417 19.7781 6.74093 19.7999 6.6814 19.8298C6.62991 19.8557 6.57594 19.8937 6.31212 20.1006L6.31064 20.1018L3.73337 22.1235C3.54616 22.2704 3.36741 22.4106 3.21281 22.5107C3.06282 22.6078 2.81048 22.7541 2.49299 22.7523C2.114 22.7502 1.75643 22.5762 1.52085 22.2793C1.32348 22.0306 1.28281 21.7418 1.26663 21.5639C1.24995 21.3804 1.24997 21.1532 1.25 20.9152L1.25 7.56719C1.25 6.61484 1.25 5.85435 1.30018 5.24013C1.35165 4.61012 1.45964 4.06824 1.71323 3.57054C2.12069 2.77085 2.77086 2.12068 3.57054 1.71322C4.06824 1.45963 4.61012 1.35165 5.24014 1.30018C5.8544 1.24999 6.61496 1.24999 7.56739 1.25ZM16.0303 8.78033C16.3232 8.48744 16.3232 8.01256 16.0303 7.71967C15.7374 7.42678 15.2626 7.42678 14.9697 7.71967L11 11.6893L9.03033 9.71967C8.73744 9.42678 8.26256 9.42678 7.96967 9.71967C7.67678 10.0126 7.67678 10.4874 7.96967 10.7803L10.4697 13.2803C10.7626 13.5732 11.2374 13.5732 11.5303 13.2803L16.0303 8.78033Z" fill="#000"/>
</svg>
