<svg width="24" height="24" viewBox="0 0 24 24" fill="none" xmlns="http://www.w3.org/2000/svg">
<path fill-rule="evenodd" clip-rule="evenodd" d="M7.56739 1.25H16.4326C17.3851 1.24999 18.1456 1.24999 18.7599 1.30018C19.3899 1.35165 19.9318 1.45963 20.4295 1.71322C21.2292 2.12068 21.8793 2.77085 22.2868 3.57054C22.5404 4.06824 22.6484 4.61012 22.6998 5.24013C22.75 5.85438 22.75 6.61496 22.75 7.56737V13.4327C22.75 14.3851 22.75 15.1456 22.6998 15.7599C22.6484 16.3899 22.5404 16.9318 22.2868 17.4295C21.8793 18.2291 21.2292 18.8793 20.4295 19.2868C19.9318 19.5404 19.3899 19.6483 18.7599 19.6998C18.1456 19.75 17.385 19.75 16.4326 19.75H7.32902C6.99209 19.75 6.92607 19.7534 6.86947 19.7649C6.80417 19.7781 6.74093 19.7999 6.6814 19.8298C6.62991 19.8557 6.57594 19.8937 6.31212 20.1006L6.31064 20.1018L3.73337 22.1235C3.54616 22.2704 3.36741 22.4106 3.21281 22.5107C3.06282 22.6078 2.81048 22.7541 2.49299 22.7523C2.114 22.7502 1.75643 22.5762 1.52085 22.2793C1.32348 22.0306 1.28281 21.7418 1.26663 21.5639C1.24995 21.3804 1.24997 21.1532 1.25 20.9152L1.25 7.56719C1.25 6.61484 1.25 5.85435 1.30018 5.24013C1.35165 4.61012 1.45964 4.06824 1.71323 3.57054C2.12069 2.77085 2.77086 2.12068 3.57054 1.71322C4.06824 1.45963 4.61012 1.35165 5.24014 1.30018C5.8544 1.24999 6.61496 1.24999 7.56739 1.25ZM8.96966 13.5303C8.67677 13.2374 8.67677 12.7626 8.96966 12.4697L10.9393 10.5L8.9697 8.53036C8.67681 8.23746 8.67681 7.76259 8.9697 7.4697C9.26259 7.1768 9.73747 7.1768 10.0304 7.4697L12 9.43933L13.9696 7.46969C14.2625 7.1768 14.7374 7.1768 15.0303 7.46969C15.3232 7.76258 15.3232 8.23746 15.0303 8.53035L13.0607 10.5L15.0303 12.4697C15.3232 12.7626 15.3232 13.2374 15.0303 13.5303C14.7374 13.8232 14.2626 13.8232 13.9697 13.5303L12 11.5606L10.0303 13.5303C9.73743 13.8232 9.26255 13.8232 8.96966 13.5303Z" fill="#000"/>
</svg>
