<svg width="24" height="24" viewBox="0 0 24 24" fill="none" xmlns="http://www.w3.org/2000/svg">
<path d="M2.53033 1.46967C2.23744 1.17678 1.76256 1.17678 1.46967 1.46967C1.17678 1.76256 1.17678 2.23744 1.46967 2.53033L7.25 8.31066V12C7.25 14.6234 9.37665 16.75 12 16.75C13.0407 16.75 14.004 16.4147 14.7865 15.8471L15.8574 16.9181C14.7962 17.7517 13.4596 18.2487 12.006 18.25L12 18.25L11.994 18.25C8.54496 18.2468 5.75 15.4498 5.75 12C5.75 11.5858 5.41421 11.25 5 11.25C4.58579 11.25 4.25 11.5858 4.25 12C4.25 16.0272 7.3217 19.337 11.25 19.7142V21.25H8C7.58579 21.25 7.25 21.5858 7.25 22C7.25 22.4142 7.58579 22.75 8 22.75H16C16.4142 22.75 16.75 22.4142 16.75 22C16.75 21.5858 16.4142 21.25 16 21.25H12.75V19.7142C14.3272 19.5626 15.7668 18.938 16.9242 17.9848L21.4697 22.5303C21.7626 22.8232 22.2374 22.8232 22.5303 22.5303C22.8232 22.2374 22.8232 21.7626 22.5303 21.4697L17.4805 16.4198C17.4804 16.4197 17.4806 16.42 17.4805 16.4198C17.4804 16.4197 17.4798 16.4192 17.4797 16.419L2.53033 1.46967Z" fill="#000"/>
<path d="M7.67014 4.04446C8.41471 2.39804 10.0725 1.25 12 1.25C14.6234 1.25 16.75 3.37665 16.75 6V12C16.75 12.3033 16.5673 12.5768 16.287 12.6929C16.0068 12.809 15.6842 12.7448 15.4697 12.5303L7.82317 4.88383C7.60248 4.66314 7.54153 4.32884 7.67014 4.04446Z" fill="#000"/>
<path d="M19.75 12C19.75 11.5858 19.4142 11.25 19 11.25C18.5858 11.25 18.25 11.5858 18.25 12C18.25 12.7976 18.1009 13.5587 17.8298 14.2581C17.6801 14.6443 17.8719 15.0787 18.2581 15.2284C18.6443 15.3782 19.0787 15.1864 19.2285 14.8002C19.5655 13.9307 19.75 12.986 19.75 12Z" fill="#000"/>
</svg>
