<svg width="24" height="24" viewBox="0 0 24 24" fill="none" xmlns="http://www.w3.org/2000/svg">
<path d="M12 1.25C9.37665 1.25 7.25 3.37665 7.25 6V12C7.25 14.6234 9.37665 16.75 12 16.75C14.6234 16.75 16.75 14.6234 16.75 12V6C16.75 3.37665 14.6234 1.25 12 1.25Z" fill="#000"/>
<path d="M5.75 12C5.75 11.5858 5.41421 11.25 5 11.25C4.58579 11.25 4.25 11.5858 4.25 12C4.25 16.0272 7.3217 19.337 11.25 19.7142V21.25H8C7.58579 21.25 7.25 21.5858 7.25 22C7.25 22.4142 7.58579 22.75 8 22.75H16C16.4142 22.75 16.75 22.4142 16.75 22C16.75 21.5858 16.4142 21.25 16 21.25H12.75V19.7142C16.6783 19.337 19.75 16.0272 19.75 12C19.75 11.5858 19.4142 11.25 19 11.25C18.5858 11.25 18.25 11.5858 18.25 12C18.25 15.4498 15.455 18.2468 12.006 18.25L12 18.25L11.994 18.25C8.54496 18.2468 5.75 15.4498 5.75 12Z" fill="#000"/>
</svg>
