<svg width="24" height="24" viewBox="0 0 24 24" fill="none" xmlns="http://www.w3.org/2000/svg">
<path d="M9.15951 8.83175C9.19659 8.81285 9.27213 8.78459 9.47588 8.76795C9.68838 8.75058 9.96759 8.75 10.4 8.75H13.6C14.0324 8.75 14.3116 8.75058 14.5241 8.76795C14.7279 8.78459 14.8034 8.81285 14.8405 8.83175C14.9816 8.90365 15.0964 9.01839 15.1683 9.15951C15.1872 9.19659 15.2154 9.27213 15.2321 9.47588C15.2494 9.68838 15.25 9.96759 15.25 10.4V13.6C15.25 14.0324 15.2494 14.3116 15.2321 14.5241C15.2154 14.7279 15.1872 14.8034 15.1683 14.8405C15.0964 14.9816 14.9816 15.0964 14.8405 15.1683C14.8034 15.1872 14.7279 15.2154 14.5241 15.2321C14.3116 15.2494 14.0324 15.25 13.6 15.25H10.4C9.96759 15.25 9.68838 15.2494 9.47588 15.2321C9.27213 15.2154 9.19659 15.1872 9.15951 15.1683C9.01839 15.0964 8.90365 14.9816 8.83175 14.8405C8.81285 14.8034 8.78459 14.7279 8.76795 14.5241C8.75058 14.3116 8.75 14.0324 8.75 13.6V10.4C8.75 9.96759 8.75058 9.68838 8.76795 9.47588C8.78459 9.27213 8.81285 9.19659 8.83175 9.15951C8.90365 9.01839 9.01839 8.90365 9.15951 8.83175Z" fill="#000"/>
<path fill-rule="evenodd" clip-rule="evenodd" d="M8.75 2C8.75 1.58579 8.41421 1.25 8 1.25C7.58579 1.25 7.25 1.58579 7.25 2V3.29937L7.24013 3.30018C6.61012 3.35165 6.06824 3.45963 5.57054 3.71322C4.77085 4.12068 4.12068 4.77085 3.71322 5.57054C3.45963 6.06824 3.35165 6.61012 3.30018 7.24013L3.29937 7.25H2C1.58579 7.25 1.25 7.58579 1.25 8C1.25 8.41421 1.58579 8.75 2 8.75H3.25141C3.25 9.00555 3.25 9.27759 3.25 9.56739V11.25H2C1.58579 11.25 1.25 11.5858 1.25 12C1.25 12.4142 1.58579 12.75 2 12.75H3.25V14.4326C3.25 14.7224 3.25 14.9944 3.25141 15.25H2C1.58579 15.25 1.25 15.5858 1.25 16C1.25 16.4142 1.58579 16.75 2 16.75H3.29937L3.30018 16.7599C3.35165 17.3899 3.45963 17.9318 3.71322 18.4295C4.12068 19.2291 4.77085 19.8793 5.57054 20.2868C6.06824 20.5404 6.61012 20.6484 7.24013 20.6998L7.25 20.7006V22C7.25 22.4142 7.58579 22.75 8 22.75C8.41421 22.75 8.75 22.4142 8.75 22V20.7486C9.00518 20.75 9.2768 20.75 9.56613 20.75H11.25V22C11.25 22.4142 11.5858 22.75 12 22.75C12.4142 22.75 12.75 22.4142 12.75 22V20.75H14.4339C14.7232 20.75 14.9948 20.75 15.25 20.7486V22C15.25 22.4142 15.5858 22.75 16 22.75C16.4142 22.75 16.75 22.4142 16.75 22V20.7006L16.7599 20.6998C17.3899 20.6484 17.9318 20.5404 18.4295 20.2868C19.2291 19.8793 19.8793 19.2291 20.2868 18.4295C20.5404 17.9318 20.6483 17.3899 20.6998 16.7599L20.7006 16.75H22C22.4142 16.75 22.75 16.4142 22.75 16C22.75 15.5858 22.4142 15.25 22 15.25H20.7486C20.75 14.9948 20.75 14.7232 20.75 14.4339V12.75H22C22.4142 12.75 22.75 12.4142 22.75 12C22.75 11.5858 22.4142 11.25 22 11.25H20.75V9.56613C20.75 9.2768 20.75 9.00518 20.7486 8.75H22C22.4142 8.75 22.75 8.41421 22.75 8C22.75 7.58579 22.4142 7.25 22 7.25H20.7006L20.6998 7.24013C20.6483 6.61012 20.5404 6.06824 20.2868 5.57054C19.8793 4.77085 19.2291 4.12068 18.4295 3.71322C17.9318 3.45963 17.3899 3.35165 16.7599 3.30018L16.75 3.29937V2C16.75 1.58579 16.4142 1.25 16 1.25C15.5858 1.25 15.25 1.58579 15.25 2V3.25141C14.9944 3.25 14.7224 3.25 14.4326 3.25H12.75V2C12.75 1.58579 12.4142 1.25 12 1.25C11.5858 1.25 11.25 1.58579 11.25 2V3.25H9.56739C9.27759 3.25 9.00555 3.25 8.75 3.25141V2ZM13.6289 7.25H10.3711C9.97573 7.24999 9.63466 7.24998 9.35373 7.27293C9.05722 7.29715 8.76231 7.35064 8.47852 7.49524C8.05516 7.71095 7.71095 8.05516 7.49524 8.47852C7.35064 8.76231 7.29715 9.05722 7.27293 9.35373C7.24998 9.63466 7.24999 9.97573 7.25 10.3711V13.6289C7.24999 14.0243 7.24998 14.3653 7.27293 14.6463C7.29715 14.9428 7.35064 15.2377 7.49524 15.5215C7.71095 15.9448 8.05516 16.2891 8.47852 16.5048C8.76231 16.6494 9.05722 16.7028 9.35373 16.7271C9.63465 16.75 9.97572 16.75 10.3711 16.75H13.6289C14.0243 16.75 14.3653 16.75 14.6463 16.7271C14.9428 16.7028 15.2377 16.6494 15.5215 16.5048C15.9448 16.2891 16.2891 15.9448 16.5048 15.5215C16.6494 15.2377 16.7028 14.9428 16.7271 14.6463C16.75 14.3653 16.75 14.0243 16.75 13.6289V10.3711C16.75 9.97572 16.75 9.63465 16.7271 9.35373C16.7028 9.05722 16.6494 8.76231 16.5048 8.47852C16.2891 8.05516 15.9448 7.71095 15.5215 7.49524C15.2377 7.35064 14.9428 7.29715 14.6463 7.27293C14.3653 7.24998 14.0243 7.24999 13.6289 7.25Z" fill="#000"/>
</svg>
