<svg width="24" height="25" viewBox="0 0 24 25" fill="none" xmlns="http://www.w3.org/2000/svg">
<path fill-rule="evenodd" clip-rule="evenodd" d="M10.1676 1.25H13.8324C14.715 1.24999 15.4231 1.24999 15.9957 1.29677C16.584 1.34484 17.095 1.44601 17.566 1.68597C18.3186 2.06947 18.9305 2.68139 19.314 3.43404C19.554 3.905 19.6552 4.41601 19.7032 5.00433C19.75 5.57691 19.75 6.28498 19.75 7.16758V16.8324C19.75 17.715 19.75 18.4231 19.7032 18.9957C19.6552 19.584 19.554 20.095 19.314 20.566C18.9305 21.3186 18.3186 21.9305 17.566 22.314C17.095 22.554 16.584 22.6552 15.9957 22.7032C15.4231 22.75 14.715 22.75 13.8324 22.75H10.1676C9.28499 22.75 8.57691 22.75 8.00433 22.7032C7.41601 22.6552 6.905 22.554 6.43404 22.314C5.68139 21.9305 5.06947 21.3186 4.68597 20.566C4.44601 20.095 4.34484 19.584 4.29677 18.9957C4.24999 18.4231 4.24999 17.715 4.25 16.8324V7.16762C4.24999 6.285 4.24999 5.57691 4.29677 5.00433C4.34484 4.41601 4.44601 3.905 4.68597 3.43404C5.06947 2.68139 5.68139 2.06947 6.43404 1.68597C6.905 1.44601 7.41601 1.34484 8.00433 1.29677C8.57692 1.24999 9.285 1.24999 10.1676 1.25ZM9.75 5C9.75 4.58579 10.0858 4.25 10.5 4.25H13.5C13.9142 4.25 14.25 4.58579 14.25 5C14.25 5.41421 13.9142 5.75 13.5 5.75H10.5C10.0858 5.75 9.75 5.41421 9.75 5ZM11 18.5C11 17.9477 11.4477 17.5 12 17.5C12.5523 17.5 13.0001 17.9477 13.0001 18.5C13.0001 19.0523 12.5523 19.5 12 19.5C11.4477 19.5 11 19.0523 11 18.5Z" fill="#000"/>
</svg>
