<svg width="24" height="25" viewBox="0 0 24 25" fill="none" xmlns="http://www.w3.org/2000/svg">
<path fill-rule="evenodd" clip-rule="evenodd" d="M10.1676 0.932617H13.8324C14.715 0.932611 15.4231 0.932605 15.9957 0.979387C16.584 1.02746 17.095 1.12863 17.566 1.36859C18.3186 1.75209 18.9305 2.36401 19.314 3.11666C19.554 3.58761 19.6552 4.09863 19.7032 4.68695C19.75 5.25952 19.75 5.9676 19.75 6.8502V16.515C19.75 17.3976 19.75 18.1057 19.7032 18.6783C19.6552 19.2666 19.554 19.7776 19.314 20.2486C18.9305 21.0012 18.3186 21.6131 17.566 21.9966C17.095 22.2366 16.584 22.3378 15.9957 22.3858C15.4231 22.4326 14.715 22.4326 13.8324 22.4326H10.1676C9.28499 22.4326 8.57691 22.4326 8.00433 22.3858C7.41601 22.3378 6.905 22.2366 6.43404 21.9966C5.68139 21.6131 5.06947 21.0012 4.68597 20.2486C4.44601 19.7776 4.34484 19.2666 4.29677 18.6783C4.24999 18.1057 4.24999 17.3976 4.25 16.515V6.85024C4.24999 5.96762 4.24999 5.25953 4.29677 4.68695C4.34484 4.09863 4.44601 3.58761 4.68597 3.11666C5.06947 2.36401 5.68139 1.75209 6.43404 1.36859C6.905 1.12863 7.41601 1.02746 8.00433 0.979387C8.57692 0.932605 9.285 0.932611 10.1676 0.932617ZM9.75 4.68262C9.75 4.2684 10.0858 3.93262 10.5 3.93262H13.5C13.9142 3.93262 14.25 4.2684 14.25 4.68262C14.25 5.09683 13.9142 5.43262 13.5 5.43262H10.5C10.0858 5.43262 9.75 5.09683 9.75 4.68262ZM11 18.1826C11 17.6303 11.4477 17.1826 12 17.1826C12.5523 17.1826 13.0001 17.6303 13.0001 18.1826C13.0001 18.7349 12.5523 19.1826 12 19.1826C11.4477 19.1826 11 18.7349 11 18.1826Z" fill="#000"/>
</svg>
