<svg width="24" height="24" viewBox="0 0 24 24" fill="none" xmlns="http://www.w3.org/2000/svg">
<path fill-rule="evenodd" clip-rule="evenodd" d="M14.2321 1.25H9.7679C8.95506 1.24999 8.29944 1.24999 7.76853 1.29336C7.2219 1.33803 6.74175 1.43239 6.29754 1.65873C6.21242 1.7021 6.12921 1.74859 6.04806 1.79805C5.85166 1.91778 5.72105 2.12102 5.69375 2.34942C5.66644 2.57783 5.74546 2.80612 5.90812 2.96878L18.4697 15.5303C18.6842 15.7448 19.0068 15.809 19.287 15.6929C19.5673 15.5768 19.75 15.3033 19.75 15V6.76788C19.75 5.95505 19.75 5.29944 19.7066 4.76853C19.662 4.2219 19.5676 3.74176 19.3413 3.29754C18.9818 2.59193 18.4081 2.01825 17.7025 1.65873C17.2582 1.43239 16.7781 1.33803 16.2315 1.29336C15.7006 1.24999 15.0449 1.24999 14.2321 1.25ZM9.75 5C9.75 4.58579 10.0858 4.25 10.5 4.25H13.5C13.9142 4.25 14.25 4.58579 14.25 5C14.25 5.41421 13.9142 5.75 13.5 5.75H10.5C10.0858 5.75 9.75 5.41421 9.75 5Z" fill="#000"/>
<path fill-rule="evenodd" clip-rule="evenodd" d="M2.53033 1.46967C2.23744 1.17678 1.76256 1.17678 1.46967 1.46967C1.17678 1.76256 1.17678 2.23744 1.46967 2.53033L4.26339 5.32406C4.25 5.74044 4.25 6.22197 4.25 6.77853L4.25 17.2321C4.24999 18.0449 4.24999 18.7006 4.29336 19.2315C4.33803 19.7781 4.43239 20.2582 4.65873 20.7025C5.01825 21.4081 5.59193 21.9817 6.29754 22.3413C6.74175 22.5676 7.2219 22.662 7.76853 22.7066C8.29944 22.75 8.95505 22.75 9.76788 22.75H14.2321C15.045 22.75 15.7006 22.75 16.2315 22.7066C16.7781 22.662 17.2582 22.5676 17.7025 22.3413C18.4081 21.9817 18.9818 21.4081 19.3413 20.7025C19.3758 20.6348 19.4072 20.5662 19.4359 20.4966L21.4697 22.5303C21.7626 22.8232 22.2374 22.8232 22.5303 22.5303C22.8232 22.2374 22.8232 21.7626 22.5303 21.4697L2.53033 1.46967ZM11 18.5C11 17.9477 11.4477 17.5 12 17.5C12.5523 17.5 13.0001 17.9477 13.0001 18.5C13.0001 19.0523 12.5523 19.5 12 19.5C11.4477 19.5 11 19.0523 11 18.5Z" fill="#000"/>
</svg>
