<svg width="24" height="24" viewBox="0 0 24 24" fill="none" xmlns="http://www.w3.org/2000/svg">
<path fill-rule="evenodd" clip-rule="evenodd" d="M12.0327 4.26192C13.7607 3.76773 15.5712 3.25 17.7637 3.25C19.6645 3.25 20.4949 3.45165 21.4895 3.87047C21.9596 4.06576 22.4067 4.34994 22.7366 4.77461C23.0753 5.21073 23.25 5.74344 23.25 6.35513V17.5892C23.25 18.2564 22.884 18.7765 22.3945 19.0645C21.9187 19.3445 21.3233 19.4142 20.7653 19.2554C19.6802 18.9464 18.6813 18.7334 17.6092 18.7334C15.5174 18.7334 13.8208 19.2082 12.0556 19.7128L11.9674 19.7381C10.2393 20.2323 8.42884 20.75 6.2363 20.75C4.33549 20.75 3.50506 20.5484 2.51044 20.1295C2.04038 19.9342 1.59329 19.6501 1.26344 19.2254C0.924693 18.7893 0.75 18.2566 0.75 17.6449V6.4108C0.75 5.74358 1.11602 5.22347 1.60549 4.93545C2.08133 4.65545 2.67673 4.58575 3.23473 4.74464C4.31983 5.05361 5.31871 5.26656 6.39081 5.26656C8.48258 5.26656 10.1792 4.79177 11.9444 4.28717L12.0327 4.26192ZM12.75 8.00003V8.31232C12.9266 8.34591 13.1003 8.3952 13.2765 8.4651C13.6747 8.62305 14.041 8.86915 14.4527 9.18092C14.783 9.43097 14.848 9.90137 14.5979 10.2316C14.3479 10.5618 13.8775 10.6268 13.5472 10.3768C13.159 10.0828 12.9252 9.93946 12.7235 9.85943C12.5392 9.78636 12.3406 9.75001 12 9.75001C11.5065 9.75001 11.1757 9.86696 10.9899 10.0016C10.8265 10.1199 10.75 10.2643 10.75 10.4654C10.75 10.7016 10.8409 10.8313 11.0663 10.9575C11.3391 11.1102 11.7185 11.1928 12.1233 11.2602C12.5185 11.3261 13.1391 11.4385 13.6663 11.7336C14.2409 12.0553 14.75 12.6262 14.75 13.5347C14.75 14.2364 14.4265 14.8247 13.8899 15.2133C13.5626 15.4504 13.1725 15.6031 12.75 15.6828V16C12.75 16.4142 12.4142 16.75 12 16.75C11.5858 16.75 11.25 16.4142 11.25 16V15.6877C11.0734 15.6541 10.8997 15.6048 10.7235 15.5349C10.3252 15.3769 9.95895 15.1308 9.54723 14.8191C9.217 14.569 9.15201 14.0986 9.40206 13.7684C9.65211 13.4382 10.1225 13.3732 10.4527 13.6232C10.841 13.9172 11.0747 14.0605 11.2765 14.1406C11.4608 14.2137 11.6594 14.25 12 14.25C12.4935 14.25 12.8242 14.1331 13.0101 13.9985C13.1734 13.8802 13.25 13.7357 13.25 13.5347C13.25 13.2985 13.1591 13.1687 12.9336 13.0425C12.6608 12.8898 12.2814 12.8073 11.8767 12.7398C11.4814 12.6739 10.8608 12.5615 10.3336 12.2664C9.75906 11.9447 9.24998 11.3738 9.24998 10.4654C9.24998 9.7636 9.57343 9.17534 10.1101 8.78669C10.4373 8.54967 10.8274 8.39695 11.25 8.31724V8.00003C11.25 7.58581 11.5858 7.25003 12 7.25003C12.4142 7.25003 12.75 7.58581 12.75 8.00003Z" fill="#000"/>
</svg>
