<svg width="24" height="24" viewBox="0 0 24 24" fill="none" xmlns="http://www.w3.org/2000/svg">
<path fill-rule="evenodd" clip-rule="evenodd" d="M6.56739 2.25H16.4326C17.385 2.24999 18.1456 2.24999 18.7599 2.30018C19.3899 2.35165 19.9318 2.45963 20.4295 2.71322C21.2291 3.12069 21.8793 3.77085 22.2868 4.57054C22.5404 5.06824 22.6483 5.61012 22.6998 6.24013C22.75 6.85438 22.75 7.61496 22.75 8.56737V11.048C22.75 11.2727 22.6492 11.4856 22.4754 11.628C22.3016 11.7705 22.0731 11.8275 21.8528 11.7834C21.4161 11.696 20.9638 11.65 20.5 11.65C16.7169 11.65 13.65 14.7168 13.65 18.5C13.65 18.6518 13.6549 18.8023 13.6646 18.9514C13.678 19.1583 13.6052 19.3616 13.4634 19.5129C13.3216 19.6642 13.1235 19.75 12.9162 19.75H6.5673C5.6149 19.75 4.85438 19.75 4.24013 19.6998C3.61012 19.6483 3.06824 19.5404 2.57054 19.2868C1.77085 18.8793 1.12068 18.2291 0.713223 17.4295C0.459634 16.9318 0.35165 16.3899 0.300176 15.7599C0.249989 15.1456 0.249994 14.3851 0.25 13.4326V8.56738C0.249994 7.61494 0.249989 6.85439 0.300176 6.24013C0.35165 5.61012 0.459634 5.06824 0.713223 4.57054C1.12068 3.77085 1.77085 3.12068 2.57054 2.71322C3.06824 2.45963 3.61012 2.35165 4.24013 2.30018C4.85439 2.24999 5.61495 2.24999 6.56739 2.25ZM11.5 7.5C9.567 7.5 8 9.067 8 11C8 12.933 9.567 14.5 11.5 14.5C13.433 14.5 15 12.933 15 11C15 9.067 13.433 7.5 11.5 7.5ZM4 11C4 10.4477 4.44772 10 5 10C5.55229 10 6.0001 10.4477 6.0001 11C6.0001 11.5523 5.55229 12 5 12C4.44772 12 4 11.5523 4 11Z" fill="#000"/>
<path d="M23 18.75C23.4142 18.75 23.75 18.4142 23.75 18C23.75 17.5858 23.4142 17.25 23 17.25H20.75V15C20.75 14.5858 20.4142 14.25 20 14.25C19.5858 14.25 19.25 14.5858 19.25 15V17.25H17C16.5858 17.25 16.25 17.5858 16.25 18C16.25 18.4142 16.5858 18.75 17 18.75H19.25V21C19.25 21.4142 19.5858 21.75 20 21.75C20.4142 21.75 20.75 21.4142 20.75 21V18.75H23Z" fill="#000"/>
</svg>
