<svg width="24" height="24" viewBox="0 0 24 24" fill="none" xmlns="http://www.w3.org/2000/svg">
<path d="M4.96858 1.25H19.0314C19.7048 1.24999 20.2555 1.24998 20.7031 1.28655C21.1663 1.3244 21.5847 1.40514 21.9755 1.60423C22.587 1.91582 23.0842 2.413 23.3958 3.02453C23.5949 3.41527 23.6756 3.83367 23.7134 4.29693C23.75 4.74449 23.75 5.29519 23.75 5.96856V9.03144C23.75 9.70481 23.75 10.2555 23.7134 10.7031C23.6756 11.1663 23.5949 11.5847 23.3958 11.9755C23.0842 12.587 22.587 13.0842 21.9755 13.3958C21.7058 13.5332 21.4235 13.6141 21.1213 13.6636C20.9041 13.6992 20.6822 13.6376 20.5145 13.4951C20.3467 13.3526 20.25 13.1436 20.25 12.9235V4.75H3.75V12.9235C3.75 13.1436 3.65331 13.3526 3.48555 13.4951C3.31778 13.6376 3.09589 13.6992 2.87868 13.6636C2.57654 13.6141 2.29422 13.5332 2.02453 13.3958C1.413 13.0842 0.915818 12.587 0.60423 11.9755C0.405138 11.5847 0.324402 11.1663 0.286553 10.7031C0.249986 10.2555 0.249992 9.7048 0.25 9.03144V5.96857C0.249992 5.29521 0.249986 4.74449 0.286553 4.29693C0.324402 3.83367 0.405138 3.41527 0.60423 3.02453C0.915819 2.413 1.41301 1.91582 2.02453 1.60423C2.41527 1.40514 2.83367 1.3244 3.29693 1.28655C3.74449 1.24998 4.29521 1.24999 4.96858 1.25Z" fill="#000"/>
<path fill-rule="evenodd" clip-rule="evenodd" d="M5.25 6.25H18.75V18.8305C18.75 19.3646 18.75 19.8104 18.7203 20.1747C18.6892 20.5546 18.6221 20.9112 18.4503 21.2485C18.1866 21.7659 17.7659 22.1866 17.2485 22.4503C16.9112 22.6221 16.5546 22.6892 16.1747 22.7203C15.8104 22.75 15.3646 22.75 14.8304 22.75H9.16955C8.6354 22.75 8.18956 22.75 7.82533 22.7203C7.44545 22.6892 7.08879 22.6221 6.75153 22.4503C6.23408 22.1866 5.81339 21.7659 5.54974 21.2485C5.37789 20.9112 5.31078 20.5546 5.27974 20.1747C5.24998 19.8104 5.24999 19.3646 5.25 18.8304L5.25 6.25ZM12 15C10.3431 15 9 13.6569 9 12C9 10.3431 10.3431 9 12 9C13.6569 9 15 10.3431 15 12C15 13.6569 13.6569 15 12 15ZM12 17.0005C11.4477 17.0005 11 17.4482 11 18.0005C11 18.5528 11.4478 19.0005 12.0001 19.0005C12.5524 19.0005 13.0001 18.5528 13.0001 18.0005C13.0001 17.4482 12.5523 17.0005 12 17.0005Z" fill="#000"/>
</svg>
