<svg width="24" height="24" viewBox="0 0 24 24" fill="none" xmlns="http://www.w3.org/2000/svg">
<g clip-path="url(#clip0_9002_8200)">
<path d="M12.75 0.999756C12.75 0.585542 12.4142 0.249756 12 0.249756C11.5858 0.249756 11.25 0.585542 11.25 0.999756V7.1891L9.53033 5.46943C9.23744 5.17653 8.76256 5.17653 8.46967 5.46943C8.17678 5.76232 8.17678 6.23719 8.46967 6.53009L11.4697 9.53009C11.6103 9.67074 11.8011 9.74976 12 9.74976C12.1989 9.74976 12.3897 9.67074 12.5303 9.53009L15.5303 6.53009C15.8232 6.23719 15.8232 5.76232 15.5303 5.46943C15.2374 5.17653 14.7626 5.17653 14.4697 5.46943L12.75 7.1891V0.999756Z" fill="#000"/>
<path fill-rule="evenodd" clip-rule="evenodd" d="M6.76357 7.25C6.97692 7.24985 7.18024 7.34056 7.32263 7.49944C7.35037 7.53039 7.37916 7.56082 7.40901 7.59067L10.409 10.5907C10.831 11.0126 11.4033 11.2497 12 11.2497C12.5967 11.2497 13.169 11.0126 13.591 10.5907L16.591 7.59067C16.6208 7.56082 16.6496 7.53039 16.6774 7.49944C16.8198 7.34056 17.0231 7.24985 17.2364 7.25C18.098 7.25062 18.7966 7.25563 19.3707 7.30985C19.9536 7.36488 20.4608 7.47435 20.9295 7.71314C21.7291 8.12061 22.3793 8.77077 22.7868 9.57046C23.0404 10.0682 23.1483 10.61 23.1998 11.2401C23.25 11.8543 23.25 12.6149 23.25 13.5673V17.4326C23.25 18.385 23.25 19.1455 23.1998 19.7598C23.1483 20.3898 23.0404 20.9317 22.7868 21.4294C22.3793 22.2291 21.7291 22.8792 20.9295 23.2867C20.4318 23.5403 19.8899 23.6483 19.2599 23.6997C18.6456 23.7499 17.885 23.7499 16.9326 23.7499H7.06742C6.11496 23.7499 5.3544 23.7499 4.74013 23.6997C4.11012 23.6483 3.56824 23.5403 3.07054 23.2867C2.27085 22.8792 1.62068 22.2291 1.21322 21.4294C0.959634 20.9317 0.85165 20.3898 0.800176 19.7598C0.749989 19.1455 0.749994 18.385 0.75 17.4326V13.5673C0.749994 12.6149 0.749989 11.8543 0.800176 11.2401C0.85165 10.61 0.959634 10.0682 1.21322 9.57046C1.62068 8.77077 2.27085 8.12061 3.07054 7.71314C3.53921 7.47435 4.04643 7.36488 4.62926 7.30985C5.20345 7.25563 5.902 7.25062 6.76357 7.25ZM12 12C10.067 12 8.5 13.567 8.5 15.5C8.5 17.433 10.067 19 12 19C13.933 19 15.5 17.433 15.5 15.5C15.5 13.6578 13.9295 12 12 12ZM4.5 15.5C4.5 14.9477 4.94772 14.5 5.5 14.5C6.05229 14.5 6.5001 14.9477 6.5001 15.5C6.5001 16.0523 6.05238 16.5 5.5001 16.5C4.94782 16.5 4.5 16.0523 4.5 15.5ZM17.5 15.5C17.5 14.9477 17.9477 14.5 18.5 14.5C19.0523 14.5 19.5001 14.9477 19.5001 15.5C19.5001 16.0523 19.0523 16.5 18.5 16.5C17.9477 16.5 17.5 16.0523 17.5 15.5Z" fill="#000"/>
</g>
<defs>
<clipPath id="clip0_9002_8200">
<rect width="24" height="24" fill="white"/>
</clipPath>
</defs>
</svg>
