<svg width="24" height="24" viewBox="0 0 24 24" fill="none" xmlns="http://www.w3.org/2000/svg">
<path fill-rule="evenodd" clip-rule="evenodd" d="M7.06739 3.25H16.9326C17.885 3.24999 18.6456 3.24999 19.2599 3.30018C19.8899 3.35165 20.4318 3.45963 20.9295 3.71322C21.7291 4.12068 22.3793 4.77085 22.7868 5.57054C23.0404 6.06824 23.1483 6.61012 23.1998 7.24013C23.25 7.8544 23.25 8.61502 23.25 9.56747V14.4326C23.25 15.385 23.25 16.1456 23.1998 16.7599C23.1483 17.3899 23.0404 17.9318 22.7868 18.4295C22.3793 19.2291 21.7291 19.8793 20.9295 20.2868C20.4318 20.5404 19.8899 20.6483 19.2599 20.6998C18.6456 20.75 17.885 20.75 16.9326 20.75H7.0673C6.1149 20.75 5.35438 20.75 4.74013 20.6998C4.11012 20.6483 3.56824 20.5404 3.07054 20.2868C2.27085 19.8793 1.62068 19.2291 1.21322 18.4295C0.959634 17.9318 0.85165 17.3899 0.800176 16.7599C0.749989 16.1456 0.749994 15.3851 0.75 14.4326V9.56738C0.749994 8.61494 0.749989 7.85439 0.800176 7.24013C0.85165 6.61012 0.959634 6.06824 1.21322 5.57054C1.62068 4.77085 2.27085 4.12068 3.07054 3.71322C3.56824 3.45963 4.11012 3.35165 4.74013 3.30018C5.35439 3.24999 6.11495 3.24999 7.06739 3.25ZM12 8.5C10.067 8.5 8.5 10.067 8.5 12C8.5 13.933 10.067 15.5 12 15.5C13.933 15.5 15.5 13.933 15.5 12C15.5 10.067 13.933 8.5 12 8.5ZM17.5 12C17.5 11.4477 17.9477 11 18.5 11C19.0523 11 19.5001 11.4477 19.5001 12C19.5001 12.5523 19.0524 13 18.5001 13C17.9478 13 17.5 12.5523 17.5 12ZM4.5 12C4.5 11.4477 4.94772 11 5.5 11C6.05228 11 6.5001 11.4477 6.5001 12C6.5001 12.5523 6.05228 13 5.5 13C4.94772 13 4.5 12.5523 4.5 12Z" fill="#000"/>
</svg>
