<svg width="24" height="24" viewBox="0 0 24 24" fill="none" xmlns="http://www.w3.org/2000/svg">
<path fill-rule="evenodd" clip-rule="evenodd" d="M16.4326 3.25H6.56739C5.61495 3.24999 4.85439 3.24999 4.24013 3.30018C3.61012 3.35165 3.06824 3.45963 2.57054 3.71322C1.77085 4.12068 1.12068 4.77085 0.713223 5.57054C0.459634 6.06824 0.35165 6.61012 0.300176 7.24013C0.249989 7.85439 0.249994 8.61495 0.25 9.56738V14.4326C0.249994 15.3851 0.249989 16.1456 0.300176 16.7599C0.35165 17.3899 0.459634 17.9318 0.713223 18.4295C1.12068 19.2291 1.77085 19.8793 2.57054 20.2868C3.06824 20.5404 3.61012 20.6483 4.24013 20.6998C4.85438 20.75 5.61496 20.75 6.56737 20.75H12.9162C13.1235 20.75 13.3216 20.6642 13.4634 20.5129C13.6052 20.3616 13.678 20.1583 13.6646 19.9514C13.6549 19.8023 13.65 19.6518 13.65 19.5C13.65 15.7168 16.7169 12.65 20.5 12.65C20.9638 12.65 21.4161 12.696 21.8528 12.7834C22.0731 12.8275 22.3016 12.7705 22.4754 12.628C22.6492 12.4856 22.75 12.2727 22.75 12.048V9.5673C22.75 8.6149 22.75 7.85438 22.6998 7.24013C22.6483 6.61012 22.5404 6.06824 22.2868 5.57054C21.8793 4.77085 21.2291 4.12069 20.4295 3.71322C19.9318 3.45963 19.3899 3.35165 18.7599 3.30018C18.1456 3.24999 17.385 3.24999 16.4326 3.25ZM11.5 8.5C9.567 8.5 8 10.067 8 12C8 13.933 9.567 15.5 11.5 15.5C13.433 15.5 15 13.933 15 12C15 10.067 13.433 8.5 11.5 8.5ZM4 12C4 11.4477 4.44772 11 5 11C5.55229 11 6.0001 11.4477 6.0001 12C6.0001 12.5523 5.55229 13 5 13C4.44772 13 4 12.5523 4 12Z" fill="#000"/>
<path d="M23.75 18C23.75 18.4142 23.4142 18.75 23 18.75H17C16.5858 18.75 16.25 18.4142 16.25 18C16.25 17.5858 16.5858 17.25 17 17.25H23C23.4142 17.25 23.75 17.5858 23.75 18Z" fill="#000"/>
</svg>
