<svg width="24" height="24" viewBox="0 0 24 24" fill="none" xmlns="http://www.w3.org/2000/svg">
<g clip-path="url(#clip0_9002_8220)">
<path d="M11.25 9C11.25 9.41421 11.5858 9.75 12 9.75C12.4142 9.75 12.75 9.41421 12.75 9V2.81066L14.4697 4.53033C14.7626 4.82322 15.2374 4.82322 15.5303 4.53033C15.8232 4.23744 15.8232 3.76256 15.5303 3.46967L12.5303 0.469669C12.3897 0.329018 12.1989 0.25 12 0.25C11.8011 0.25 11.6103 0.329018 11.4697 0.469669L8.46967 3.46967C8.17678 3.76256 8.17678 4.23744 8.46967 4.53033C8.76256 4.82322 9.23744 4.82322 9.53033 4.53033L11.25 2.81066V9Z" fill="#000"/>
<path fill-rule="evenodd" clip-rule="evenodd" d="M7.06739 7.25025H9C9.41422 7.25025 9.75 7.58603 9.75 8.00025V9C9.75 10.2426 10.7574 11.25 12 11.25C13.2426 11.25 14.25 10.2426 14.25 9V8.00025C14.25 7.58603 14.5858 7.25025 15 7.25024H16.9327C17.8851 7.25024 18.6456 7.25024 19.2599 7.30042C19.8899 7.35189 20.4318 7.45988 20.9295 7.71347C21.7291 8.12093 22.3793 8.7711 22.7868 9.57079C23.0404 10.0685 23.1483 10.6104 23.1998 11.2404C23.25 11.8546 23.25 12.6152 23.25 13.5675V17.433C23.25 18.3853 23.25 19.1459 23.1998 19.7601C23.1483 20.3901 23.0404 20.932 22.7868 21.4297C22.3793 22.2294 21.7291 22.8796 20.9295 23.287C20.4318 23.5406 19.8899 23.6486 19.2599 23.7001C18.6456 23.7503 17.885 23.7503 16.9326 23.7502H7.06732C6.11491 23.7503 5.35438 23.7503 4.74013 23.7001C4.11012 23.6486 3.56824 23.5406 3.07054 23.287C2.27085 22.8796 1.62069 22.2294 1.21322 21.4297C0.959635 20.932 0.85165 20.3901 0.800176 19.7601C0.74999 19.1459 0.749994 18.3853 0.75 17.4329V13.5676C0.749995 12.6152 0.749991 11.8546 0.800177 11.2404C0.851651 10.6104 0.959634 10.0685 1.21322 9.57079C1.62068 8.7711 2.27085 8.12093 3.07054 7.71347C3.56824 7.45988 4.11012 7.3519 4.74013 7.30042C5.3544 7.25023 6.11494 7.25024 7.06739 7.25025ZM12 12.0001C10.067 12.0001 8.50003 13.5671 8.50003 15.5001C8.50003 17.4331 10.067 19.0001 12 19.0001C13.933 19.0001 15.5 17.4331 15.5 15.5001C15.5 13.6579 13.9296 12.0001 12 12.0001ZM4.50003 15.5001C4.50003 14.9479 4.94775 14.5001 5.50003 14.5001C6.05232 14.5001 6.50013 14.9479 6.50013 15.5001C6.50013 16.0524 6.05242 16.5001 5.50013 16.5001C4.94785 16.5001 4.50003 16.0524 4.50003 15.5001ZM17.5 15.5001C17.5 14.9479 17.9477 14.5001 18.5 14.5001C19.0523 14.5001 19.5001 14.9479 19.5001 15.5001C19.5001 16.0524 19.0523 16.5001 18.5 16.5001C17.9477 16.5001 17.5 16.0524 17.5 15.5001Z" fill="#000"/>
</g>
<defs>
<clipPath id="clip0_9002_8220">
<rect width="24" height="24" fill="white"/>
</clipPath>
</defs>
</svg>
