<svg width="24" height="24" viewBox="0 0 24 24" fill="none" xmlns="http://www.w3.org/2000/svg">
<path d="M11.3111 1.61617C11.1866 1.53032 11.0563 1.50963 10.977 1.50318C10.8926 1.49632 10.8079 1.50161 10.7346 1.50912C10.5937 1.52353 10.4108 1.55593 10.2034 1.59267L10.1844 1.59603C5.24864 2.46998 1.5 6.78017 1.5 11.9669C1.5 17.7839 6.21561 22.4995 12.0326 22.4995C17.2209 22.4995 21.5322 18.7486 22.4043 13.8107L22.4076 13.7918C22.4443 13.5843 22.4766 13.4014 22.491 13.2604C22.4984 13.1871 22.5037 13.1024 22.4968 13.0181C22.4903 12.9387 22.4696 12.8085 22.3837 12.684C22.2317 12.4638 21.9794 12.3428 21.7125 12.362C21.552 12.3736 21.432 12.4483 21.3702 12.4918C21.3005 12.5408 21.2362 12.6004 21.1806 12.6559C21.0726 12.7638 20.9385 12.9166 20.7823 13.0949L20.7701 13.1088C19.486 14.5734 17.6027 15.4968 15.5032 15.4968C11.6361 15.4968 8.50122 12.3619 8.50122 8.49486C8.50122 6.3964 9.42372 4.514 10.887 3.22994L10.9009 3.21772C11.0791 3.06138 11.2319 2.92728 11.3397 2.81921C11.3951 2.76362 11.4547 2.69928 11.5037 2.62957C11.5472 2.56773 11.6219 2.44775 11.6334 2.28721C11.6525 2.02031 11.5314 1.76808 11.3111 1.61617Z" fill="#000"/>
</svg>
