<svg width="24" height="24" viewBox="0 0 24 24" fill="none" xmlns="http://www.w3.org/2000/svg">
<path fill-rule="evenodd" clip-rule="evenodd" d="M0.25 12C0.25 5.51065 5.51065 0.25 12 0.25C18.4893 0.25 23.75 5.51065 23.75 12C23.75 18.4893 18.4893 23.75 12 23.75C5.51065 23.75 0.25 18.4893 0.25 12ZM11 7.5C11 6.94772 11.4477 6.5 12 6.5C12.5523 6.5 13.0001 6.94772 13.0001 7.5C13.0001 8.05228 12.5524 8.5 12.0001 8.5C11.4478 8.5 11 8.05228 11 7.5ZM11 12C11 11.4477 11.4477 11 12 11C12.5523 11 13.0001 11.4477 13.0001 12C13.0001 12.5523 12.5524 13 12.0001 13C11.4478 13 11 12.5523 11 12ZM11 16.5C11 15.9477 11.4477 15.5 12 15.5C12.5523 15.5 13.0001 15.9477 13.0001 16.5C13.0001 17.0523 12.5523 17.5 12 17.5C11.4477 17.5 11 17.0523 11 16.5Z" fill="#000"/>
</svg>
