<svg width="24" height="24" viewBox="0 0 24 24" fill="none" xmlns="http://www.w3.org/2000/svg">
<path d="M19.19 1.32686C20.47 0.953528 21.75 1.91353 21.75 3.24686V6.98297C21.7503 6.99471 21.7503 7.00642 21.75 7.01809V15.5002C21.75 16.3787 21.3454 17.2242 20.6015 17.8442C19.1517 19.0523 16.8482 19.0523 15.3985 17.8442C14.6546 17.2242 14.25 16.3788 14.25 15.5002C14.25 14.6217 14.6546 13.7763 15.3985 13.1563C16.736 12.0418 18.8 11.9555 20.25 12.8973V8.0002L9.75 11.0627L9.75 19.5002C9.75 20.3788 9.34544 21.2242 8.60146 21.8442C7.15175 23.0523 4.84825 23.0523 3.39854 21.8442C2.65456 21.2242 2.25 20.3788 2.25 19.5002C2.25 18.6217 2.65456 17.7763 3.39854 17.1563C4.73596 16.0418 6.80001 15.9555 8.25 16.8973V10.5164C8.24976 10.5053 8.24976 10.4943 8.25 10.4834V6.58019C8.25 5.35797 9.05667 4.28242 10.23 3.94019L19.19 1.32686Z" fill="#000"/>
</svg>
