<svg width="24" height="24" viewBox="0 0 24 24" fill="none" xmlns="http://www.w3.org/2000/svg">
<path d="M10.95 1.25012C11.1157 1.25012 11.25 1.38443 11.25 1.55011V7.94996C11.25 8.11565 11.1157 8.24996 10.95 8.24996H1.60384C1.57289 8.24996 1.55277 8.21743 1.56662 8.18975L3.99314 3.33664C4.26609 2.78963 4.48044 2.36005 4.81184 2.03546C5.10305 1.75024 5.45403 1.53333 5.83937 1.40042C6.2779 1.24916 6.75799 1.24955 7.36932 1.25006L10.95 1.25012Z" fill="#000"/>
<path d="M13.05 1.25012C12.8843 1.25012 12.75 1.38443 12.75 1.55012V7.94996C12.75 8.11565 12.8843 8.24996 13.05 8.24996H22.3962C22.4271 8.24996 22.4472 8.21746 22.4334 8.18981L20.0069 3.33665C19.7339 2.78963 19.5196 2.36005 19.1882 2.03546C18.8969 1.75024 18.546 1.53333 18.1606 1.40042C17.7221 1.24916 17.242 1.24955 16.6307 1.25006L13.05 1.25012Z" fill="#000"/>
<path fill-rule="evenodd" clip-rule="evenodd" d="M1.25 10.05C1.25 9.88427 1.38431 9.74995 1.55 9.74995H22.45C22.6157 9.74995 22.75 9.88427 22.75 10.05V17.2322C22.75 18.045 22.75 18.7006 22.7066 19.2315C22.662 19.7781 22.5676 20.2583 22.3413 20.7025C21.9817 21.4081 21.4081 21.9818 20.7025 22.3413C20.2582 22.5676 19.7781 22.662 19.2315 22.7066C18.7006 22.75 18.045 22.75 17.2321 22.75H6.76788C5.95505 22.75 5.29944 22.75 4.76853 22.7066C4.2219 22.662 3.74175 22.5676 3.29754 22.3413C2.59193 21.9818 2.01825 21.4081 1.65873 20.7025C1.43239 20.2583 1.33803 19.7781 1.29336 19.2315C1.24999 18.7006 1.24999 18.045 1.25 17.2321V10.05ZM6 16.25C5.58579 16.25 5.25 16.5858 5.25 17C5.25 17.4142 5.58579 17.75 6 17.75H9C9.41421 17.75 9.75 17.4142 9.75 17C9.75 16.5858 9.41421 16.25 9 16.25H6Z" fill="#000"/>
</svg>
