<svg width="24" height="24" viewBox="0 0 24 24" fill="none" xmlns="http://www.w3.org/2000/svg">
<path fill-rule="evenodd" clip-rule="evenodd" d="M15.2304 2.70852L13.6145 4.32487L8.93141 5.53336C7.95314 5.78552 7.30334 5.95301 6.7522 6.29435C6.26564 6.59569 5.84496 6.9922 5.51539 7.4601C5.14207 7.99011 4.93646 8.62887 4.62693 9.59054L1.84996 18.2097C1.6279 18.8989 1.44533 19.4655 1.34363 19.9191C1.24236 20.3708 1.18569 20.8486 1.34845 21.2993C1.38543 21.4016 1.5152 21.4242 1.59217 21.3472L8.26911 14.6703C8.34015 14.5992 8.37567 14.5637 8.39401 14.5261C8.41211 14.489 8.41882 14.4607 8.41931 14.4195C8.4198 14.3777 8.40105 14.321 8.36355 14.2077C8.28988 13.9852 8.25 13.7473 8.25 13.5001C8.25 12.2574 9.25736 11.2501 10.5 11.2501C11.7426 11.2501 12.75 12.2574 12.75 13.5001C12.75 14.7427 11.7426 15.7501 10.5 15.7501C10.2528 15.7501 10.0148 15.7102 9.79232 15.6365C9.67904 15.599 9.6224 15.5803 9.58058 15.5808C9.53932 15.5812 9.51101 15.588 9.47393 15.606C9.43633 15.6244 9.40082 15.6599 9.32977 15.7309L2.65257 22.4082C2.5758 22.4849 2.59832 22.6143 2.70043 22.6512C3.15112 22.814 3.62883 22.7573 4.08055 22.656C4.53414 22.5543 5.10089 22.3717 5.78999 22.1497L14.2953 19.4094L14.2988 19.4082L14.4094 19.3726C15.371 19.0631 16.0097 18.8575 16.5397 18.4842C17.0076 18.1546 17.4041 17.734 17.7054 17.2474C18.0468 16.6963 18.2143 16.0465 18.4665 15.0684L19.675 10.3856L21.2918 8.76839C21.6203 8.43984 21.8984 8.16165 22.1078 7.91493C22.3273 7.65624 22.515 7.38325 22.6227 7.05182C22.7857 6.54974 22.7857 6.00893 22.6225 5.50687C22.5148 5.17546 22.3271 4.90249 22.1076 4.64384C21.8981 4.39717 21.62 4.11901 21.2915 3.79053L20.2091 2.70815C19.8805 2.37951 19.6022 2.10126 19.3555 1.89178C19.0968 1.67216 18.8237 1.48441 18.4922 1.37672C17.9901 1.21358 17.4492 1.21362 16.947 1.37683C16.6155 1.48457 16.3425 1.67236 16.0839 1.89202C15.8371 2.10153 15.5589 2.37986 15.2304 2.70852ZM18.0288 2.80332C17.8279 2.73807 17.6115 2.73809 17.4107 2.80337C17.3426 2.82551 17.2425 2.87597 17.0548 3.03539C16.8604 3.2005 16.6254 3.43471 16.2701 3.79007L15.0606 4.99993L19 8.93927L20.2099 7.72899C20.5651 7.37372 20.7991 7.13875 20.9641 6.94432C21.1235 6.7566 21.1739 6.65656 21.196 6.58844C21.2613 6.38761 21.2612 6.17128 21.196 5.97046C21.1738 5.90234 21.1234 5.80231 20.964 5.61461C20.799 5.42021 20.5649 5.18528 20.2097 4.83006L19.1695 3.78986C18.8142 3.43454 18.5792 3.20037 18.3847 3.0353C18.197 2.8759 18.0969 2.82546 18.0288 2.80332Z" fill="#000"/>
</svg>
