<svg width="24" height="24" viewBox="0 0 24 24" fill="none" xmlns="http://www.w3.org/2000/svg">
<path d="M18.6799 1.38289C18.1276 1.20343 17.5327 1.20343 16.9804 1.38289C16.6204 1.49984 16.3208 1.70449 16.0303 1.95108C15.7519 2.18747 15.4368 2.50254 15.0594 2.87997L14.0657 3.87366C13.8677 4.07166 13.7687 4.17067 13.7316 4.28484C13.699 4.38526 13.699 4.49343 13.7316 4.59385C13.7687 4.70802 13.8677 4.80702 14.0657 5.00503L18.995 9.93432C19.193 10.1323 19.292 10.2313 19.4062 10.2684C19.5066 10.3011 19.6147 10.3011 19.7152 10.2684C19.8293 10.2313 19.9283 10.1323 20.1263 9.93433L21.1193 8.94139C21.497 8.56371 21.8122 8.24846 22.0487 7.96987C22.2954 7.6793 22.5002 7.37965 22.6171 7.01966C22.7966 6.46734 22.7966 5.87239 22.6171 5.32007C22.5002 4.96007 22.2954 4.66042 22.0487 4.36986C21.8122 4.09126 21.497 3.77599 21.1192 3.39829L20.6017 2.88072C20.224 2.50302 19.9087 2.18777 19.6302 1.95127C19.3396 1.70459 19.0399 1.49985 18.6799 1.38289Z" fill="#000"/>
<path d="M13.005 6.06569L17.9343 10.995C18.1323 11.193 18.2313 11.292 18.2684 11.4062C18.3011 11.5066 18.3011 11.6147 18.2684 11.7152C18.2313 11.8293 18.1323 11.9283 17.9343 12.1263L9.13087 20.9298C8.97204 21.0889 8.83188 21.2292 8.6676 21.3439C8.52309 21.4447 8.36722 21.5283 8.20321 21.5928C8.01677 21.6661 7.82231 21.7051 7.60193 21.7493L3.16217 22.6429C2.98735 22.6781 2.80998 22.7139 2.65927 22.7302C2.49975 22.7475 2.26511 22.7574 2.0213 22.6567C1.71417 22.5298 1.47021 22.2858 1.34332 21.9787C1.24259 21.7349 1.25253 21.5002 1.26981 21.3407C1.28614 21.19 1.32186 21.0127 1.35708 20.8379L2.2507 16.3981C2.2949 16.1777 2.3339 15.9832 2.40722 15.7968C2.47171 15.6328 2.55525 15.4769 2.65612 15.3324C2.77076 15.1681 2.90987 15.0292 3.06725 14.8721L11.8737 6.06569C12.0717 5.86768 12.1707 5.76867 12.2848 5.73158C12.3853 5.69895 12.4934 5.69895 12.5939 5.73158C12.708 5.76867 12.807 5.86769 13.005 6.06569Z" fill="#000"/>
<path d="M12.9999 21.2499C12.5857 21.2499 12.2499 21.5857 12.2499 21.9999C12.2499 22.4142 12.5857 22.7499 12.9999 22.7499H21.9999C22.4142 22.7499 22.7499 22.4142 22.7499 21.9999C22.7499 21.5857 22.4142 21.2499 21.9999 21.2499H12.9999Z" fill="#000"/>
</svg>
