<svg width="24" height="24" viewBox="0 0 24 24" fill="none" xmlns="http://www.w3.org/2000/svg">
<path d="M21.4697 1.46967C21.7626 1.17678 22.2374 1.17678 22.5303 1.46967C22.8232 1.76256 22.8232 2.23744 22.5303 2.53033L10.7791 14.2815C11.563 14.9501 12.4905 15.549 13.6522 16.1626L15.513 14.1634C15.5945 14.0759 15.6651 13.9999 15.7287 13.9415C15.7961 13.8795 15.8693 13.8239 15.9605 13.7873C16.0974 13.7323 16.2476 13.719 16.3921 13.749C16.4882 13.7689 16.5702 13.8108 16.6474 13.8599C16.7203 13.9062 16.8032 13.9685 16.8987 14.0402L16.9003 14.0414L16.9062 14.0453L21.518 17.5084C21.7291 17.6668 21.8728 17.7746 21.9712 17.8967C22.2799 18.28 22.3351 18.8086 22.1121 19.2473C22.041 19.3871 21.9227 19.5222 21.7488 19.7208L21.1519 20.403C21.1033 20.4584 21.0769 20.4886 21.0522 20.5161C19.7434 21.9697 17.7351 22.5751 15.841 22.0872C15.8049 22.078 15.7566 22.0648 15.6658 22.04L15.6201 22.0275C13.9418 21.5687 12.3479 20.8433 10.8996 19.879L10.853 19.848C9.73571 19.1019 8.68492 18.266 7.71056 17.3501L2.53033 22.5303C2.23744 22.8232 1.76256 22.8232 1.46967 22.5303C1.17678 22.2374 1.17678 21.7626 1.46967 21.4697L21.4697 1.46967Z" fill="#000"/>
<path d="M4.74938 1.89108C5.18983 1.66695 5.72099 1.72336 6.10454 2.03501C6.226 2.1337 6.33316 2.27763 6.49065 2.48916L9.84437 6.99082C9.91187 7.08141 9.97068 7.16034 10.0146 7.22973C10.0614 7.30355 10.1014 7.38157 10.1218 7.47316C10.1525 7.61131 10.1434 7.75531 10.0957 7.88854C10.0641 7.97688 10.0147 8.0493 9.95905 8.1167C9.90676 8.18006 9.8386 8.25099 9.7603 8.33246L7.83028 10.3409C8.05438 10.7839 8.27939 11.1927 8.5107 11.5732C8.57056 11.6717 8.55534 11.7983 8.47385 11.8798L5.64391 14.7098C5.5934 14.7603 5.52369 14.7868 5.45238 14.7825C5.38106 14.7783 5.31496 14.7438 5.27075 14.6877C4.87854 14.1898 4.50539 13.676 4.15234 13.1473L4.1213 13.1008C3.15704 11.6525 2.43157 10.0586 1.97274 8.38025L1.96004 8.3337C1.93544 8.2435 1.92227 8.1952 1.91301 8.15926C1.4251 6.26516 2.03059 4.25686 3.48415 2.9481C3.51175 2.92325 3.5417 2.89704 3.5974 2.84829L4.2765 2.254C4.4749 2.08027 4.6099 1.96206 4.74938 1.89108Z" fill="#000"/>
</svg>
