<svg width="24" height="24" viewBox="0 0 24 24" fill="none" xmlns="http://www.w3.org/2000/svg">
<path fill-rule="evenodd" clip-rule="evenodd" d="M6.10448 2.03501C5.72093 1.72336 5.18977 1.66695 4.74932 1.89108C4.60984 1.96206 4.47484 2.08027 4.27644 2.254L3.59729 2.84834C3.54162 2.89706 3.51168 2.92325 3.48409 2.9481C2.03053 4.25686 1.42504 6.26516 1.91295 8.15926C1.92221 8.19522 1.93535 8.2434 1.95997 8.33366L1.97268 8.38025C2.43151 10.0586 3.15698 11.6525 4.12123 13.1008L4.15228 13.1473C5.92344 15.7998 8.20055 18.0768 10.853 19.848L10.8995 19.879C12.3478 20.8433 13.9417 21.5687 15.6201 22.0275L15.6655 22.0399C15.7564 22.0647 15.8048 22.0779 15.8409 22.0872C17.735 22.5752 19.7433 21.9697 21.0521 20.5161C21.077 20.4885 21.1032 20.4585 21.152 20.4027L21.7487 19.7208C21.9226 19.5222 22.041 19.3871 22.112 19.2473C22.335 18.8086 22.2798 18.28 21.9711 17.8968C21.8728 17.7746 21.7291 17.6668 21.518 17.5084L16.9061 14.0453L16.9003 14.0414L16.8987 14.0402C16.8031 13.9685 16.7202 13.9062 16.6474 13.8599C16.5701 13.8108 16.4882 13.7689 16.392 13.749C16.2475 13.719 16.0974 13.7323 15.9604 13.7873C15.8693 13.8239 15.796 13.8795 15.7286 13.9415C15.6651 13.9999 15.5944 14.0759 15.513 14.1634L13.6521 16.1626C12.1758 15.3828 11.0775 14.6267 10.1718 13.721C9.26599 12.8152 8.54319 11.7501 7.83022 10.3409L9.76023 8.33247C9.83852 8.25101 9.9067 8.18006 9.95899 8.1167C10.0146 8.0493 10.0641 7.97688 10.0957 7.88854C10.1434 7.75531 10.1524 7.61131 10.1217 7.47316C10.1014 7.38157 10.0614 7.30355 10.0146 7.22973C9.97062 7.16034 9.91185 7.08147 9.84435 6.99087L6.49059 2.48916C6.3331 2.27763 6.22594 2.1337 6.10448 2.03501Z" fill="#000"/>
</svg>
