<svg width="24" height="24" viewBox="0 0 24 24" fill="none" xmlns="http://www.w3.org/2000/svg">
<path d="M22.3816 15.7655C22.7638 15.6984 23.0778 15.426 23.1982 15.0572C23.2504 14.8975 23.2502 14.7039 23.2501 14.4366L23.2501 13.1091C23.2501 11.3434 22.2783 9.70449 20.7438 8.83678C19.376 8.0633 17.8741 7.50143 16.3326 7.19313C13.4714 6.62089 10.5225 6.62033 7.66122 7.19258C6.11689 7.50145 4.61516 8.06403 3.24551 8.84012C1.71645 9.70654 0.750034 11.3399 0.750034 13.1L0.750017 14.4357C0.749859 14.7038 0.749747 14.898 0.802181 15.0581C0.922729 15.4262 1.23615 15.698 1.61759 15.7653C1.78351 15.7946 1.97572 15.767 2.2411 15.729L7.35724 14.9984C7.47156 14.9821 7.57098 14.9679 7.65274 14.9497C7.73964 14.9305 7.82472 14.9032 7.90512 14.8516C8.02621 14.7739 8.12239 14.663 8.1822 14.5321C8.22191 14.4453 8.23688 14.3572 8.24368 14.2684C8.25007 14.1849 8.25007 14.0845 8.25006 13.969V11.4529C11.1024 10.6483 13.0724 10.6487 15.7501 11.4497V13.969C15.7501 14.0845 15.7501 14.1849 15.7564 14.2684C15.7632 14.3572 15.7782 14.4453 15.8179 14.5321C15.8777 14.663 15.9739 14.7739 16.095 14.8516C16.1754 14.9032 16.2605 14.9305 16.3474 14.9497C16.4292 14.9679 16.5286 14.9821 16.6429 14.9984L21.7599 15.7291C22.0245 15.767 22.2161 15.7945 22.3816 15.7655Z" fill="#000"/>
</svg>
