<svg width="24" height="24" viewBox="0 0 24 24" fill="none" xmlns="http://www.w3.org/2000/svg">
<path d="M8.75 1.25C9.16421 1.25 9.5 1.58579 9.5 2V5.75H8V2C8 1.58579 8.33579 1.25 8.75 1.25Z" fill="#000"/>
<path d="M15.25 1.25C15.6642 1.25 16 1.58579 16 2V5.75H14.5V2C14.5 1.58579 14.8358 1.25 15.25 1.25Z" fill="#000"/>
<path d="M11.25 18.9603V22C11.25 22.4142 11.5858 22.75 12 22.75C12.4142 22.75 12.75 22.4142 12.75 22V18.9603C16.2633 18.5861 19 15.6126 19 12V8.25H20C20.4142 8.25 20.75 7.91421 20.75 7.5C20.75 7.08579 20.4142 6.75 20 6.75L4 6.75C3.58579 6.75 3.25 7.08578 3.25 7.5C3.25 7.91421 3.58579 8.25 4 8.25H5V12C5 15.6126 7.73668 18.5861 11.25 18.9603Z" fill="#000"/>
</svg>
