<svg width="24" height="24" viewBox="0 0 24 24" fill="none" xmlns="http://www.w3.org/2000/svg">
<path d="M17.5 4C17.5 2.61929 18.6193 1.5 20 1.5C21.3807 1.5 22.5 2.61929 22.5 4C22.5 5.38071 21.3807 6.5 20 6.5C18.6193 6.5 17.5 5.38071 17.5 4Z" fill="#000"/>
<path fill-rule="evenodd" clip-rule="evenodd" d="M8.367 2.25L14.6 2.25C14.773 2.25 14.9402 2.25 15.1009 2.2502C15.3258 2.25048 15.5387 2.35168 15.681 2.5259C15.8232 2.70011 15.8797 2.92896 15.835 3.14937C15.7793 3.4236 15.75 3.70798 15.75 4C15.75 6.34721 17.6528 8.25 20 8.25C20.292 8.25 20.5764 8.22066 20.8506 8.16501C21.071 8.12028 21.2999 8.17682 21.4741 8.31904C21.6483 8.46127 21.7495 8.67418 21.7498 8.89908C21.75 9.05986 21.75 9.22687 21.75 9.4V15.633C21.75 16.7252 21.75 17.5906 21.693 18.2883C21.6347 19.0017 21.5131 19.6053 21.2323 20.1565C20.7769 21.0502 20.0502 21.7769 19.1565 22.2323C18.6053 22.5131 18.0017 22.6347 17.2883 22.693C16.5906 22.75 15.7252 22.75 14.633 22.75H8.36698C7.27485 22.75 6.40935 22.75 5.71173 22.693C4.99835 22.6347 4.39472 22.5131 3.84355 22.2323C2.94978 21.7769 2.22312 21.0502 1.76772 20.1565C1.48688 19.6053 1.36527 19.0017 1.30699 18.2883C1.24999 17.5906 1.24999 16.7251 1.25 15.633L1.25 9.36699C1.24999 8.27485 1.24999 7.40935 1.30699 6.71173C1.36527 5.99834 1.48688 5.39472 1.76772 4.84355C2.22312 3.94977 2.94978 3.22312 3.84355 2.76772C4.39472 2.48688 4.99834 2.36527 5.71174 2.30699C6.40936 2.24999 7.27486 2.24999 8.367 2.25ZM14.25 16.5C14.25 16.9142 14.5858 17.25 15 17.25C15.4142 17.25 15.75 16.9142 15.75 16.5L15.75 10.5C15.75 10.0858 15.4142 9.75 15 9.75C14.5858 9.75 14.25 10.0858 14.25 10.5L14.25 16.5ZM11.5 17.25C11.0858 17.25 10.75 16.9142 10.75 16.5L10.75 8.5C10.75 8.08578 11.0858 7.75 11.5 7.75C11.9142 7.75 12.25 8.08578 12.25 8.5L12.25 16.5C12.25 16.9142 11.9142 17.25 11.5 17.25ZM7.25 16.5C7.25 16.9142 7.58579 17.25 8 17.25C8.41422 17.25 8.75 16.9142 8.75 16.5L8.75 13.5C8.75 13.0858 8.41422 12.75 8 12.75C7.58579 12.75 7.25 13.0858 7.25 13.5V16.5Z" fill="#000"/>
</svg>
