<svg width="24" height="24" viewBox="0 0 24 24" fill="none" xmlns="http://www.w3.org/2000/svg">
<path d="M13 2C13 1.44772 12.5523 1 12 1C11.4477 1 11 1.44772 11 2V9.5C11 10.0523 11.4477 10.5 12 10.5C12.5523 10.5 13 10.0523 13 9.5V2Z" fill="#000"/>
<path d="M8.33201 5.88832C8.82262 5.6347 9.01474 5.03139 8.76112 4.54078C8.5075 4.05017 7.90419 3.85805 7.41358 4.11167C4.20013 5.77285 2 9.12865 2 13C2 18.5228 6.47715 23 12 23C17.5228 23 22 18.5228 22 13C22 9.12865 19.7999 5.77285 16.5864 4.11167C16.0958 3.85805 15.4925 4.05017 15.2389 4.54078C14.9853 5.03139 15.1774 5.6347 15.668 5.88832C18.2432 7.21959 20 9.90548 20 13C20 17.4183 16.4183 21 12 21C7.58172 21 4 17.4183 4 13C4 9.90548 5.75676 7.21959 8.33201 5.88832Z" fill="#000"/>
</svg>
