<svg width="24" height="24" viewBox="0 0 24 24" fill="none" xmlns="http://www.w3.org/2000/svg">
<path d="M0.75 2C0.75 1.58579 1.08579 1.25 1.5 1.25H22.5C22.9142 1.25 23.25 1.58579 23.25 2C23.25 2.41421 22.9142 2.75 22.5 2.75H21.75V10.4326C21.75 11.385 21.75 12.1456 21.6998 12.7599C21.6484 13.3899 21.5404 13.9318 21.2868 14.4295C20.8793 15.2291 20.2291 15.8793 19.4295 16.2868C18.9318 16.5404 18.3899 16.6484 17.7599 16.6998C17.1456 16.75 16.3851 16.75 15.4326 16.75H12.75V18.625L16.45 21.4C16.7814 21.6485 16.8485 22.1186 16.6 22.45C16.3515 22.7814 15.8814 22.8485 15.55 22.6L12 19.9375L8.45001 22.6C8.11864 22.8485 7.64854 22.7814 7.40001 22.45C7.15149 22.1186 7.21864 21.6485 7.55001 21.4L11.25 18.625V16.75H8.56737C7.61493 16.75 6.85439 16.75 6.24013 16.6998C5.61012 16.6484 5.06824 16.5404 4.57054 16.2868C3.77085 15.8793 3.12068 15.2291 2.71322 14.4295C2.45963 13.9318 2.35165 13.3899 2.30018 12.7599C2.24999 12.1456 2.24999 11.3851 2.25 10.4326L2.25 2.75H1.5C1.08579 2.75 0.75 2.41421 0.75 2Z" fill="#000"/>
</svg>
