<svg width="24" height="24" viewBox="0 0 24 24" fill="none" xmlns="http://www.w3.org/2000/svg">
<path fill-rule="evenodd" clip-rule="evenodd" d="M1.5 1.25C1.08579 1.25 0.75 1.58579 0.75 2C0.75 2.41421 1.08579 2.75 1.5 2.75H2.25L2.25 10.4326C2.24999 11.3851 2.24999 12.1456 2.30018 12.7599C2.35165 13.3899 2.45963 13.9318 2.71322 14.4295C3.12068 15.2291 3.77085 15.8793 4.57054 16.2868C5.06824 16.5404 5.61012 16.6484 6.24013 16.6998C6.85439 16.75 7.61493 16.75 8.56737 16.75H11.25V18.625L7.55004 21.4C7.21867 21.6485 7.15152 22.1186 7.40004 22.45C7.64857 22.7814 8.11867 22.8485 8.45004 22.6L12 19.9375L15.55 22.6C15.8814 22.8485 16.3515 22.7814 16.6 22.45C16.8486 22.1186 16.7814 21.6485 16.45 21.4L12.75 18.625V16.75H15.4326C16.3851 16.75 17.1456 16.75 17.7599 16.6998C18.3899 16.6484 18.9318 16.5404 19.4295 16.2868C20.2291 15.8793 20.8793 15.2291 21.2868 14.4295C21.5404 13.9318 21.6484 13.3899 21.6998 12.7599C21.75 12.1456 21.75 11.385 21.75 10.4326V2.75H22.5C22.9142 2.75 23.25 2.41421 23.25 2C23.25 1.58579 22.9142 1.25 22.5 1.25H1.5ZM10.4383 5.96092C10.824 5.77836 11.3149 5.77776 11.7262 6.05096L14.7212 8.04025C15.4263 8.50856 15.4263 9.49147 14.7212 9.95978L11.7262 11.9491C11.3149 12.2223 10.824 12.2217 10.4383 12.0391C10.052 11.8563 9.75 11.4788 9.75 10.9893V7.01072C9.75 6.52123 10.052 6.14375 10.4383 5.96092Z" fill="#000"/>
</svg>
