<svg width="24" height="24" viewBox="0 0 24 24" fill="none" xmlns="http://www.w3.org/2000/svg">
<path fill-rule="evenodd" clip-rule="evenodd" d="M0.25 12C0.25 5.51065 5.51065 0.25 12 0.25C18.4893 0.25 23.75 5.51065 23.75 12C23.75 18.4893 18.4893 23.75 12 23.75C5.51065 23.75 0.25 18.4893 0.25 12ZM12 7.75C11.0335 7.75 10.25 8.5335 10.25 9.5C10.25 9.70588 10.2852 9.90191 10.3494 10.0834C10.4874 10.4739 10.2827 10.9024 9.89219 11.0405C9.50165 11.1785 9.07316 10.9738 8.93512 10.5833C8.81502 10.2435 8.75 9.87851 8.75 9.5C8.75 7.70507 10.2051 6.25 12 6.25C13.7949 6.25 15.25 7.70507 15.25 9.5C15.25 10.4065 14.8779 11.2274 14.28 11.816C14.0895 12.0037 13.8398 12.1485 13.6702 12.2469L13.606 12.2842C13.4323 12.3848 13.2868 12.469 13.1514 12.5683C12.8778 12.7691 12.75 12.9519 12.75 13.25C12.75 13.6642 12.4142 14 12 14C11.5858 14 11.25 13.6642 11.25 13.25C11.25 12.2981 11.7735 11.7188 12.264 11.359C12.4699 11.2079 12.6884 11.0818 12.8541 10.9862L12.9129 10.9521C13.1145 10.8352 13.1942 10.7801 13.2277 10.7471C13.5509 10.4289 13.75 9.98836 13.75 9.5C13.75 8.5335 12.9665 7.75 12 7.75ZM11 16.5C11 15.9477 11.4477 15.5 12 15.5C12.5523 15.5 13.0001 15.9477 13.0001 16.5C13.0001 17.0523 12.5523 17.5 12 17.5C11.4477 17.5 11 17.0523 11 16.5Z" fill="#000"/>
</svg>
