<svg width="24" height="24" viewBox="0 0 24 24" fill="none" xmlns="http://www.w3.org/2000/svg">
<path d="M11.1843 2.00975C11.5143 1.33009 12.4857 1.33008 12.8157 2.00975L13.4666 3.3502L14.9601 3.54366C15.7143 3.64135 16.0258 4.57342 15.4625 5.09887L14.3783 6.11026L14.6511 7.55763C14.7931 8.31151 13.996 8.87442 13.3329 8.52077L12 7.80989L10.6671 8.52077C10.004 8.87442 9.20687 8.31151 9.34893 7.55763L9.62166 6.11026L8.53745 5.09887C7.97417 4.57342 8.28573 3.64135 9.0399 3.54366L10.5334 3.3502L11.1843 2.00975Z" fill="#000"/>
<path d="M8.75 11.5C8.75 10.5335 9.5335 9.75 10.5 9.75H13.5C14.4665 9.75 15.25 10.5335 15.25 11.5V21.25H16.25V13.25H19.75C20.8546 13.25 21.75 14.1454 21.75 15.25V21.25H22C22.4142 21.25 22.75 21.5858 22.75 22C22.75 22.4142 22.4142 22.75 22 22.75H2C1.58579 22.75 1.25 22.4142 1.25 22C1.25 21.5858 1.58579 21.25 2 21.25H2.25V17.25C2.25 16.1454 3.14543 15.25 4.25 15.25H7.75V21.25H8.75V11.5Z" fill="#000"/>
</svg>
