<svg width="24" height="24" viewBox="0 0 24 24" fill="none" xmlns="http://www.w3.org/2000/svg">
<path fill-rule="evenodd" clip-rule="evenodd" d="M7.69053 1.87151C8.67672 0.982127 10.1951 1.05263 11.0947 2.02957L11.2028 2.14706C11.6321 2.61322 12.3679 2.61322 12.7972 2.14707L12.9053 2.02957C13.8049 1.05263 15.3233 0.982127 16.3095 1.87151L17.1351 2.61606C17.4187 2.87182 17.8533 2.85928 18.1217 2.5876C19.1782 1.5181 21 2.26623 21 3.76955V20.2407C21 21.7441 19.1781 22.4922 18.1216 21.4226C17.8532 21.1509 17.4186 21.1383 17.135 21.3941L16.3198 22.1293C15.3276 23.0241 13.7973 22.9423 12.9061 21.9468L12.7992 21.8274C12.3728 21.3511 11.6272 21.3511 11.2008 21.8274L11.0939 21.9468C10.2027 22.9423 8.67235 23.0241 7.68019 22.1293L6.86497 21.3941C6.58137 21.1383 6.14675 21.1509 5.87838 21.4226C4.82191 22.4922 3 21.7441 3 20.2407V3.76955C3 2.26622 4.82185 1.51811 5.87834 2.5876C6.14673 2.85928 6.58133 2.87182 6.86493 2.61606L7.69053 1.87151ZM14 9.25C14.4142 9.25 14.75 8.91421 14.75 8.5C14.75 8.08579 14.4142 7.75 14 7.75L10 7.75C9.58579 7.75 9.25 8.08579 9.25 8.5C9.25 8.91421 9.58579 9.25 10 9.25H14ZM16.75 11.9986C16.75 12.4128 16.4142 12.7486 16 12.7486H8C7.58579 12.7486 7.25 12.4128 7.25 11.9986C7.25 11.5844 7.58579 11.2486 8 11.2486L16 11.2486C16.4142 11.2486 16.75 11.5844 16.75 11.9986ZM15.75 15.4972C15.75 15.9114 15.4142 16.2472 15 16.2472H9C8.58579 16.2472 8.25 15.9114 8.25 15.4972C8.25 15.083 8.58579 14.7472 9 14.7472H15C15.4142 14.7472 15.75 15.083 15.75 15.4972Z" fill="#000"/>
</svg>
