<svg width="24" height="24" viewBox="0 0 24 24" fill="none" xmlns="http://www.w3.org/2000/svg">
<path d="M12.75 11.75H9.75V8.75H12.75C13.5784 8.75 14.25 9.42157 14.25 10.25C14.25 11.0784 13.5784 11.75 12.75 11.75Z" fill="#000"/>
<path fill-rule="evenodd" clip-rule="evenodd" d="M0.25 12C0.25 5.51065 5.51065 0.25 12 0.25C18.4893 0.25 23.75 5.51065 23.75 12C23.75 18.4893 18.4893 23.75 12 23.75C5.51065 23.75 0.25 18.4893 0.25 12ZM8.25 8.35294C8.25 7.7438 8.7438 7.25 9.35294 7.25H12.75C14.4069 7.25 15.75 8.59315 15.75 10.25C15.75 11.5308 14.9474 12.6241 13.8178 13.0544L15.6104 15.564C15.8512 15.9011 15.7731 16.3695 15.436 16.6103C15.099 16.851 14.6306 16.773 14.3898 16.4359L12.1141 13.25H9.75V15.9998C9.75 16.414 9.41421 16.7498 9 16.7498C8.58579 16.7498 8.25 16.414 8.25 15.9998V8.35294Z" fill="#000"/>
</svg>
