<svg width="24" height="24" viewBox="0 0 24 24" fill="none" xmlns="http://www.w3.org/2000/svg">
<path d="M14.2929 8.70711C13.9024 8.31658 13.9024 7.68342 14.2929 7.29289L15.5858 6H9C5.68629 6 3 8.68629 3 12C3 13.2761 3.39726 14.4564 4.07487 15.4279C4.39084 15.8809 4.27976 16.5042 3.82679 16.8202C3.37381 17.1361 2.75047 17.0251 2.4345 16.5721C1.53037 15.2759 1 13.6984 1 12C1 7.58172 4.58172 4 9 4H15.5858L14.2929 2.70711C13.9024 2.31658 13.9024 1.68342 14.2929 1.29289C14.6834 0.902369 15.3166 0.902369 15.7071 1.29289L18.7071 4.29289C18.8946 4.48043 19 4.73478 19 5C19 5.26522 18.8946 5.51957 18.7071 5.70711L15.7071 8.70711C15.3166 9.09763 14.6834 9.09763 14.2929 8.70711Z" fill="#000"/>
<path d="M9.70711 15.2929C10.0976 15.6834 10.0976 16.3166 9.70711 16.7071L8.41422 18H15C18.3137 18 21 15.3137 21 12C21 10.7239 20.6027 9.54356 19.9251 8.5721C19.6092 8.11912 19.7202 7.49578 20.1732 7.17981C20.6262 6.86385 21.2495 6.97493 21.5655 7.4279C22.4696 8.72411 23 10.3016 23 12C23 16.4183 19.4183 20 15 20H8.41421L9.7071 21.2929C10.0976 21.6834 10.0976 22.3166 9.7071 22.7071C9.31658 23.0976 8.68342 23.0976 8.29289 22.7071L5.29289 19.7071C5.10536 19.5196 5 19.2652 5 19C5 18.7348 5.10536 18.4804 5.29289 18.2929L8.29289 15.2929C8.68342 14.9024 9.31658 14.9024 9.70711 15.2929Z" fill="#000"/>
</svg>
