<svg width="24" height="24" viewBox="0 0 24 24" fill="none" xmlns="http://www.w3.org/2000/svg">
<path d="M6.42067 3.51838C5.89958 2.47621 6.65742 1.25 7.82261 1.25H16.1774C17.3426 1.25 18.1004 2.47621 17.5793 3.51838C17.2751 4.12684 16.8669 4.66916 16.3788 5.12442C16.2904 5.20688 16.173 5.25001 16.0522 5.25001H7.94786C7.82698 5.25001 7.70957 5.20688 7.62118 5.12442C7.13312 4.66917 6.7249 4.12684 6.42067 3.51838Z" fill="#000"/>
<path fill-rule="evenodd" clip-rule="evenodd" d="M7.81951 6.75001C7.71852 6.75001 7.6196 6.78045 7.53705 6.83862C4.24815 9.1561 2.25 12.9477 2.25 17.0345V18C2.25 20.6234 4.37665 22.75 7 22.75H17C19.6234 22.75 21.75 20.6234 21.75 18V17.0345C21.75 12.9477 19.7519 9.1561 16.463 6.83862C16.3804 6.78045 16.2815 6.75001 16.1805 6.75001H7.81951ZM11.25 10.5V10.8172C10.8274 10.8969 10.4373 11.0497 10.1101 11.2867C9.57343 11.6753 9.24998 12.2636 9.24998 12.9654C9.24998 13.8738 9.75906 14.4447 10.3336 14.7664C10.8608 15.0615 11.4814 15.1739 11.8767 15.2398C12.2814 15.3073 12.6608 15.3898 12.9336 15.5425C13.1591 15.6687 13.25 15.7985 13.25 16.0347C13.25 16.2357 13.1734 16.3802 13.0101 16.4985C12.8242 16.6331 12.4935 16.75 12 16.75C11.6594 16.75 11.4608 16.7137 11.2765 16.6406C11.0747 16.5605 10.841 16.4172 10.4527 16.1232C10.1225 15.8732 9.65211 15.9382 9.40206 16.2684C9.15201 16.5986 9.217 17.069 9.54723 17.3191C9.95895 17.6308 10.3252 17.8769 10.7235 18.0349C10.8997 18.1048 11.0734 18.1541 11.25 18.1877V18.5C11.25 18.9142 11.5858 19.25 12 19.25C12.4142 19.25 12.75 18.9142 12.75 18.5V18.1828C13.1725 18.1031 13.5626 17.9504 13.8899 17.7133C14.4265 17.3247 14.75 16.7364 14.75 16.0347C14.75 15.1262 14.2409 14.5553 13.6663 14.2336C13.1391 13.9385 12.5185 13.8261 12.1233 13.7602C11.7185 13.6928 11.3391 13.6102 11.0663 13.4575C10.8409 13.3313 10.75 13.2016 10.75 12.9654C10.75 12.7643 10.8265 12.6199 10.9899 12.5016C11.1757 12.367 11.5065 12.25 12 12.25C12.3406 12.25 12.5392 12.2864 12.7235 12.3594C12.9252 12.4395 13.159 12.5828 13.5472 12.8768C13.8775 13.1268 14.3479 13.0618 14.5979 12.7316C14.848 12.4014 14.783 11.931 14.4527 11.6809C14.041 11.3692 13.6747 11.123 13.2765 10.9651C13.1003 10.8952 12.9266 10.8459 12.75 10.8123V10.5C12.75 10.0858 12.4142 9.75003 12 9.75003C11.5858 9.75003 11.25 10.0858 11.25 10.5Z" fill="#000"/>
</svg>
