<svg width="24" height="24" viewBox="0 0 24 24" fill="none" xmlns="http://www.w3.org/2000/svg">
<path fill-rule="evenodd" clip-rule="evenodd" d="M16.4733 17.8875C14.8415 19.2086 12.7631 20 10.5 20C5.25329 20 1 15.7467 1 10.5C1 5.25329 5.25329 1 10.5 1C15.7467 1 20 5.25329 20 10.5C20 12.7631 19.2086 14.8415 17.8875 16.4733L22.7071 21.2929C23.0976 21.6834 23.0976 22.3166 22.7071 22.7071C22.3166 23.0976 21.6834 23.0976 21.2929 22.7071L16.4733 17.8875ZM3 10.5C3 6.35786 6.35786 3 10.5 3C14.6421 3 18 6.35786 18 10.5C18 12.5129 17.207 14.3407 15.9163 15.6878C15.8731 15.719 15.8318 15.754 15.7929 15.7929C15.754 15.8318 15.719 15.8731 15.6878 15.9163C14.3407 17.207 12.5129 18 10.5 18C6.35786 18 3 14.6421 3 10.5Z" fill="#000"/>
</svg>
