<svg width="24" height="24" viewBox="0 0 24 24" fill="none" xmlns="http://www.w3.org/2000/svg">
<path fill-rule="evenodd" clip-rule="evenodd" d="M1.25 10.5C1.25 5.39137 5.39137 1.25 10.5 1.25C15.6086 1.25 19.75 5.39137 19.75 10.5C19.75 12.7843 18.922 14.8753 17.5497 16.489L22.5303 21.4697C22.8232 21.7626 22.8232 22.2374 22.5303 22.5303C22.2374 22.8232 21.7626 22.8232 21.4697 22.5303L16.489 17.5497C14.8753 18.922 12.7843 19.75 10.5 19.75C5.39137 19.75 1.25 15.6086 1.25 10.5ZM13.5 11.25C13.9142 11.25 14.25 10.9142 14.25 10.5C14.25 10.0858 13.9142 9.75 13.5 9.75H7.5C7.08579 9.75 6.75 10.0858 6.75 10.5C6.75 10.9142 7.08579 11.25 7.5 11.25H13.5Z" fill="#000"/>
</svg>
