<svg width="24" height="24" viewBox="0 0 24 24" fill="none" xmlns="http://www.w3.org/2000/svg">
<path d="M6.10749 0.599669C3.23492 -0.816578 0.332098 2.22047 1.52987 5.0821L1.53645 5.09735L3.80912 10.2064C3.81053 10.2098 3.81192 10.2132 3.81331 10.2166H10.9999C11.4141 10.2166 11.7499 10.5523 11.7499 10.9666C11.7499 11.3808 11.4141 11.7166 10.9999 11.7166H3.82034C3.8104 11.7418 3.79993 11.767 3.78894 11.7919L1.64556 16.8926C0.386271 19.7642 3.28138 22.8366 6.18391 21.3892L9.41087 19.78C9.69902 19.6363 9.86329 19.3247 9.81905 19.0058C9.77349 18.6773 9.74989 18.3414 9.74989 17.9996C9.74989 13.9955 12.9958 10.7496 16.9999 10.7496C18.6768 10.7496 20.2189 11.318 21.4469 12.2732C21.6459 12.4279 21.9093 12.4724 22.1481 12.3915C22.3868 12.3106 22.569 12.1151 22.6329 11.8712C23.0179 10.4016 22.4504 8.65711 20.8558 7.87092L6.10749 0.599669Z" fill="#000"/>
<path fill-rule="evenodd" clip-rule="evenodd" d="M11.2499 17.9998C11.2499 14.8241 13.8242 12.2498 16.9999 12.2498C20.1755 12.2498 22.7499 14.8241 22.7499 17.9998C22.7499 21.1754 20.1755 23.7498 16.9999 23.7498C13.8242 23.7498 11.2499 21.1754 11.2499 17.9998ZM17.6249 15.4998C17.6249 15.1546 17.3451 14.8748 16.9999 14.8748C16.6547 14.8748 16.3749 15.1546 16.3749 15.4998V17.9998C16.3749 18.2088 16.4793 18.4039 16.6532 18.5198L18.1532 19.5198C18.4404 19.7113 18.8285 19.6336 19.0199 19.3464C19.2114 19.0592 19.1338 18.6712 18.8466 18.4797L17.6249 17.6653V15.4998Z" fill="#000"/>
</svg>
