<svg width="24" height="24" viewBox="0 0 24 24" fill="none" xmlns="http://www.w3.org/2000/svg">
<path fill-rule="evenodd" clip-rule="evenodd" d="M5.56903 1.25H18.431C19.0347 1.24999 19.533 1.24998 19.9389 1.28315C20.3604 1.31759 20.748 1.39151 21.112 1.57698C21.6765 1.8646 22.1354 2.32354 22.423 2.88803C22.6085 3.25203 22.6824 3.63956 22.7169 4.06113C22.75 4.46702 22.75 4.96529 22.75 5.56901V6.93099C22.75 7.53471 22.75 8.03298 22.7169 8.43887C22.6824 8.86044 22.6085 9.24797 22.423 9.61197C22.1354 10.1765 21.6765 10.6354 21.112 10.923C20.748 11.1085 20.3604 11.1824 19.9389 11.2169C19.533 11.25 19.0347 11.25 18.431 11.25H5.56897C4.96527 11.25 4.46702 11.25 4.06113 11.2169C3.63956 11.1824 3.25203 11.1085 2.88803 10.923C2.32354 10.6354 1.8646 10.1765 1.57698 9.61197C1.39151 9.24797 1.31759 8.86044 1.28315 8.43887C1.24998 8.03298 1.24999 7.53471 1.25 6.931V5.56901C1.24999 4.9653 1.24998 4.46702 1.28315 4.06113C1.31759 3.63956 1.39151 3.25203 1.57698 2.88803C1.8646 2.32354 2.32354 1.8646 2.88803 1.57698C3.25203 1.39151 3.63956 1.31759 4.06113 1.28315C4.46702 1.24998 4.96531 1.24999 5.56903 1.25ZM13.5 6.25C13.5 5.69772 13.9477 5.25 14.5 5.25C15.0523 5.25 15.5001 5.69772 15.5001 6.25C15.5001 6.80229 15.0523 7.25 14.5 7.25C13.9477 7.25 13.5 6.80229 13.5 6.25ZM16.5 6.25C16.5 5.69772 16.9477 5.25 17.5 5.25C18.0523 5.25 18.5001 5.69772 18.5001 6.25C18.5001 6.80229 18.0523 7.25 17.5 7.25C16.9477 7.25 16.5 6.80229 16.5 6.25Z" fill="#000"/>
<path fill-rule="evenodd" clip-rule="evenodd" d="M5.56903 12.75H18.431C19.0347 12.75 19.533 12.75 19.9389 12.7831C20.3604 12.8176 20.748 12.8915 21.112 13.077C21.6765 13.3646 22.1354 13.8235 22.423 14.388C22.6085 14.752 22.6824 15.1396 22.7169 15.5611C22.75 15.967 22.75 16.4653 22.75 17.069V18.431C22.75 19.0347 22.75 19.533 22.7169 19.9389C22.6824 20.3604 22.6085 20.748 22.423 21.112C22.1354 21.6765 21.6765 22.1354 21.112 22.423C20.748 22.6085 20.3604 22.6824 19.9389 22.7169C19.533 22.75 19.0347 22.75 18.431 22.75H5.56901C4.96529 22.75 4.46702 22.75 4.06113 22.7169C3.63956 22.6824 3.25203 22.6085 2.88803 22.423C2.32354 22.1354 1.8646 21.6765 1.57698 21.112C1.39151 20.748 1.31759 20.3604 1.28315 19.9389C1.24998 19.533 1.24999 19.0347 1.25 18.431V17.069C1.24999 16.4653 1.24998 15.967 1.28315 15.5611C1.31759 15.1396 1.39151 14.752 1.57698 14.388C1.8646 13.8235 2.32354 13.3646 2.88803 13.077C3.25203 12.8915 3.63956 12.8176 4.06113 12.7831C4.46703 12.75 4.9653 12.75 5.56903 12.75ZM13.5 17.75C13.5 17.1977 13.9477 16.75 14.5 16.75C15.0523 16.75 15.5001 17.1977 15.5001 17.75C15.5001 18.3023 15.0524 18.75 14.5001 18.75C13.9478 18.75 13.5 18.3023 13.5 17.75ZM16.5 17.75C16.5 17.1977 16.9477 16.75 17.5 16.75C18.0523 16.75 18.5001 17.1977 18.5001 17.75C18.5001 18.3023 18.0523 18.75 17.5 18.75C16.9477 18.75 16.5 18.3023 16.5 17.75Z" fill="#000"/>
</svg>
