<svg width="24" height="24" viewBox="0 0 24 24" fill="none" xmlns="http://www.w3.org/2000/svg">
<path d="M19 1.25C16.9289 1.25 15.25 2.92893 15.25 5C15.25 5.17599 15.2621 5.34915 15.2856 5.51869L7.66463 9.32917C7.65749 9.33274 7.65043 9.33641 7.64345 9.34018C6.96549 8.66636 6.03137 8.25 5 8.25C2.92893 8.25 1.25 9.92893 1.25 12C1.25 14.0711 2.92893 15.75 5 15.75C6.03137 15.75 6.96549 15.3336 7.64345 14.6598C7.65043 14.6636 7.65749 14.6673 7.66463 14.6708L15.2856 18.4813C15.2621 18.6508 15.25 18.824 15.25 19C15.25 21.0711 16.9289 22.75 19 22.75C21.0711 22.75 22.75 21.0711 22.75 19C22.75 16.9289 21.0711 15.25 19 15.25C17.6401 15.25 16.4492 15.9739 15.7918 17.0574L8.47946 13.4012C8.65395 12.9683 8.75 12.4954 8.75 12C8.75 11.5046 8.65395 11.0317 8.47946 10.5988L15.7918 6.94265C16.4492 8.02611 17.6401 8.75 19 8.75C21.0711 8.75 22.75 7.07107 22.75 5C22.75 2.92893 21.0711 1.25 19 1.25Z" fill="#000"/>
</svg>
