<svg width="24" height="24" viewBox="0 0 24 24" fill="none" xmlns="http://www.w3.org/2000/svg">
<path d="M10.0777 1.21244C11.2851 0.600668 12.7116 0.600566 13.9191 1.21217L21.0168 4.80732C21.7733 5.19051 22.2501 5.9665 22.2501 6.81451V8.83917C22.2501 9.34067 22.1489 10.3273 22.0345 11.2976C21.8318 13.0162 21.2793 14.6609 20.4493 16.1571C20.3351 16.363 20.1309 16.5033 19.8977 16.5361C19.6646 16.5688 19.4296 16.4901 19.2631 16.3237L6.87641 3.93695C6.70644 3.76698 6.62824 3.52583 6.66611 3.28846C6.70398 3.05109 6.85333 2.84625 7.06775 2.7376L10.0777 1.21244Z" fill="#000"/>
<path d="M5.28078 4.22C5.28128 4.22049 5.28178 4.22099 5.28227 4.22148L18.6782 17.6174C18.6786 17.6179 18.6791 17.6183 18.6796 17.6188L22.5303 21.4695C22.8232 21.7624 22.8232 22.2373 22.5303 22.5302C22.2374 22.8231 21.7626 22.8231 21.4697 22.5302L18.1784 19.239C16.8978 20.6048 15.3935 21.7501 13.7254 22.6229L12.975 23.0155C12.3633 23.3356 11.6336 23.3356 11.0218 23.0156L10.2731 22.624C7.95134 21.4096 5.94708 19.667 4.42168 17.5366C3.10659 15.6999 2.23328 13.5661 1.96638 11.3038C1.85165 10.3313 1.75006 9.34164 1.75006 8.83917V6.81437C1.75006 5.96646 2.22673 5.19056 2.98308 4.80732L3.48995 4.55049L1.46967 2.53021C1.17678 2.23731 1.17678 1.76244 1.46967 1.46955C1.76256 1.17665 2.23744 1.17665 2.53033 1.46955L5.28078 4.22Z" fill="#000"/>
</svg>
