<svg width="24" height="24" viewBox="0 0 24 24" fill="none" xmlns="http://www.w3.org/2000/svg">
<path d="M10.0777 1.21257C11.2851 0.60079 12.7116 0.600688 13.9191 1.21229L21.0168 4.80744C21.7733 5.19063 22.2501 5.96662 22.2501 6.81464V8.83929C22.2501 9.34079 22.1489 10.3274 22.0345 11.2977C21.8318 13.0163 21.2793 14.661 20.4493 16.1573C20.3351 16.3631 20.1309 16.5034 19.8977 16.5362C19.6646 16.5689 19.4296 16.4903 19.2631 16.3238L6.87641 3.93707C6.70644 3.7671 6.62824 3.52596 6.66611 3.28858C6.70398 3.05121 6.85333 2.84637 7.06775 2.73772L10.0777 1.21257Z" fill="#000"/>
<path d="M5.28078 4.22012C5.28128 4.22062 5.28178 4.22111 5.28227 4.22161L18.6782 17.6175C18.6786 17.618 18.6791 17.6185 18.6796 17.619L22.5303 21.4697C22.8232 21.7626 22.8232 22.2374 22.5303 22.5303C22.2374 22.8232 21.7626 22.8232 21.4697 22.5303L18.1784 19.2391C16.8978 20.6049 15.3935 21.7502 13.7254 22.623L12.975 23.0156C12.3633 23.3357 11.6336 23.3357 11.0218 23.0157L10.2731 22.6241C7.95134 21.4097 5.94708 19.6671 4.42168 17.5367C3.10659 15.7 2.23328 13.5662 1.96638 11.3039C1.85165 10.3314 1.75006 9.34177 1.75006 8.83929V6.81449C1.75006 5.96659 2.22673 5.19068 2.98308 4.80744L3.48995 4.55061L1.46967 2.53033C1.17678 2.23744 1.17678 1.76256 1.46967 1.46967C1.76256 1.17678 2.23744 1.17678 2.53033 1.46967L5.28078 4.22012Z" fill="#000"/>
</svg>
