<svg width="24" height="24" viewBox="0 0 24 24" fill="none" xmlns="http://www.w3.org/2000/svg">
<path d="M12.75 8C12.75 7.58579 12.4142 7.25 12 7.25C11.5858 7.25 11.25 7.58579 11.25 8V12C11.25 12.2634 11.3882 12.5076 11.6141 12.6431L14.1141 14.1431C14.4693 14.3562 14.93 14.2411 15.1431 13.8859C15.3562 13.5307 15.2411 13.07 14.8859 12.8569L12.75 11.5754V8Z" fill="#000"/>
<path fill-rule="evenodd" clip-rule="evenodd" d="M16.9721 1.73467L17.6681 4.34463C18.3586 4.75414 18.9207 5.35198 19.2868 6.07054C19.5404 6.56824 19.6484 7.11012 19.6998 7.74013C19.75 8.35439 19.75 9.11493 19.75 10.0674V13.9326C19.75 14.8851 19.75 15.6456 19.6998 16.2599C19.6484 16.8899 19.5404 17.4318 19.2868 17.9295C18.9207 18.648 18.3586 19.2459 17.6681 19.6554L16.9721 22.2653C16.7387 23.1408 15.9458 23.75 15.0397 23.75H8.96036C8.05426 23.75 7.26136 23.1408 7.02789 22.2653L6.33191 19.6554C5.64145 19.2459 5.07936 18.648 4.71322 17.9295C4.45963 17.4318 4.35165 16.8899 4.30018 16.2599C4.24999 15.6456 4.24999 14.8851 4.25 13.9326V10.0674C4.24999 9.11495 4.24999 8.35439 4.30018 7.74013C4.35165 7.11012 4.45963 6.56824 4.71322 6.07054C5.07936 5.35197 5.64145 4.75412 6.33191 4.3446L7.02789 1.73468C7.26136 0.859168 8.05426 0.25 8.96036 0.25H15.0397C15.9458 0.25 16.7387 0.859168 16.9721 1.73467ZM8.36228 5.29519C7.82503 5.33909 7.50252 5.42184 7.25153 5.54973C6.73408 5.81338 6.31338 6.23408 6.04973 6.75153C5.92184 7.00252 5.83909 7.32503 5.79519 7.86228C5.75058 8.40829 5.75 9.10753 5.75 10.1V13.9C5.75 14.8925 5.75058 15.5917 5.79519 16.1377C5.83909 16.675 5.92184 16.9975 6.04973 17.2485C6.31338 17.7659 6.73408 18.1866 7.25153 18.4503C7.50252 18.5782 7.82503 18.6609 8.36228 18.7048C8.90829 18.7494 9.60753 18.75 10.6 18.75H13.4C14.3925 18.75 15.0917 18.7494 15.6377 18.7048C16.175 18.6609 16.4975 18.5782 16.7485 18.4503C17.2659 18.1866 17.6866 17.7659 17.9503 17.2485C18.0782 16.9975 18.1609 16.675 18.2048 16.1377C18.2494 15.5917 18.25 14.8925 18.25 13.9V10.1C18.25 9.10753 18.2494 8.40829 18.2048 7.86228C18.1609 7.32503 18.0782 7.00252 17.9503 6.75153C17.6866 6.23408 17.2659 5.81338 16.7485 5.54973C16.4975 5.42184 16.175 5.33909 15.6377 5.29519C15.0917 5.25058 14.3925 5.25 13.4 5.25H10.6C9.60753 5.25 8.90829 5.25058 8.36228 5.29519Z" fill="#000"/>
</svg>
