<svg width="24" height="24" viewBox="0 0 24 24" fill="none" xmlns="http://www.w3.org/2000/svg">
<path d="M20 4C20 4.55228 19.5523 5 19 5H2C1.44772 5 1 4.55228 1 4C1 3.44772 1.44772 3 2 3H19C19.5523 3 20 3.44772 20 4Z" fill="#000"/>
<path d="M13 11C13 11.5523 12.5523 12 12 12H2C1.44771 12 1 11.5523 1 11C1 10.4477 1.44771 10 2 10H12C12.5523 10 13 10.4477 13 11Z" fill="#000"/>
<path d="M5 19C5.55228 19 6 18.5523 6 18C6 17.4477 5.55228 17 5 17H2C1.44772 17 1 17.4477 1 18C1 18.5523 1.44772 19 2 19H5Z" fill="#000"/>
<path d="M13.2929 14.7071C12.9024 14.3166 12.9024 13.6834 13.2929 13.2929L17.2929 9.29289C17.4804 9.10536 17.7348 9 18 9C18.2652 9 18.5196 9.10536 18.7071 9.29289L22.7071 13.2929C23.0976 13.6834 23.0976 14.3166 22.7071 14.7071C22.3166 15.0976 21.6834 15.0976 21.2929 14.7071L19 12.4142L19 20C19 20.5523 18.5523 21 18 21C17.4477 21 17 20.5523 17 20L17 12.4142L14.7071 14.7071C14.3166 15.0976 13.6834 15.0976 13.2929 14.7071Z" fill="#000"/>
</svg>
