<svg width="24" height="24" viewBox="0 0 24 24" fill="none" xmlns="http://www.w3.org/2000/svg">
<path fill-rule="evenodd" clip-rule="evenodd" d="M0.25 12C0.25 5.51065 5.51065 0.25 12 0.25C18.4893 0.25 23.75 5.51065 23.75 12C23.75 18.4893 18.4893 23.75 12 23.75C5.51065 23.75 0.25 18.4893 0.25 12ZM12 5.75C8.54822 5.75 5.75 8.54822 5.75 12C5.75 13.749 6.46742 15.3291 7.62594 16.4643C7.92179 16.7542 7.92661 17.2291 7.6367 17.5249C7.34679 17.8208 6.87194 17.8256 6.57609 17.5357C5.14152 16.1299 4.25 14.1684 4.25 12C4.25 7.71979 7.71979 4.25 12 4.25C12.3752 4.25 12.7445 4.27671 13.1062 4.32845C13.5162 4.3871 13.8011 4.76705 13.7424 5.17709C13.6838 5.58713 13.3038 5.87198 12.8938 5.81333C12.6023 5.77163 12.3039 5.75 12 5.75ZM18.8229 10.2576C19.233 10.1989 19.6129 10.4838 19.6716 10.8938C19.7233 11.2555 19.75 11.6248 19.75 12C19.75 14.1684 18.8585 16.1299 17.4239 17.5357C17.1281 17.8256 16.6532 17.8208 16.3633 17.5249C16.0734 17.2291 16.0782 16.7542 16.3741 16.4643C17.5326 15.3291 18.25 13.749 18.25 12C18.25 11.6961 18.2284 11.3977 18.1867 11.1062C18.128 10.6962 18.4129 10.3162 18.8229 10.2576ZM17.2129 7.13062L17.0674 7.36741C16.9745 7.51843 16.8411 7.73478 16.6792 7.99622C16.3554 8.51905 15.9175 9.22243 15.4611 9.94428C15.005 10.6659 14.5296 11.4071 14.1312 12.0052C13.9321 12.3041 13.7513 12.5688 13.6011 12.778C13.4547 12.9818 13.3271 13.1477 13.2373 13.2375C12.5539 13.9209 11.4459 13.9209 10.7624 13.2375C10.079 12.5541 10.079 11.4461 10.7624 10.7626C10.8522 10.6729 11.0182 10.5453 11.222 10.3989C11.4312 10.2487 11.6958 10.0678 11.9947 9.86869C12.5928 9.47027 13.334 8.99492 14.0556 8.53872C14.7774 8.08235 15.4807 7.64441 16.0035 7.3206C16.265 7.15868 16.4813 7.02527 16.6323 6.93232L16.8691 6.78684C16.9677 6.72647 17.0948 6.74148 17.1765 6.8232C17.2583 6.90492 17.2733 7.03207 17.2129 7.13062Z" fill="#000"/>
</svg>
