<svg width="24" height="24" viewBox="0 0 24 24" fill="none" xmlns="http://www.w3.org/2000/svg">
<path fill-rule="evenodd" clip-rule="evenodd" d="M0.25 12C0.25 5.51065 5.51065 0.25 12 0.25C18.4893 0.25 23.75 5.51065 23.75 12C23.75 18.4893 18.4893 23.75 12 23.75C5.51065 23.75 0.25 18.4893 0.25 12ZM10.9866 7.13647C11.3957 6.28784 12.6043 6.28784 13.0133 7.13647L14.0786 9.34645L16.5198 9.665C17.4614 9.78786 17.8366 10.95 17.1446 11.6003L15.3664 13.2713L15.8141 15.6646C15.9878 16.5935 15.0083 17.3097 14.1759 16.8625L12 15.6934L9.82405 16.8625C8.99162 17.3097 8.0121 16.5935 8.18585 15.6646L8.63354 13.2713L6.85529 11.6003C6.1633 10.95 6.53851 9.78786 7.48009 9.665L9.9213 9.34645L10.9866 7.13647Z" fill="#000"/>
</svg>
