<svg width="24" height="24" viewBox="0 0 24 24" fill="none" xmlns="http://www.w3.org/2000/svg">
<path d="M2.53021 1.46967C2.23731 1.17678 1.76244 1.17678 1.46955 1.46967C1.17665 1.76256 1.17665 2.23744 1.46955 2.53033L6.55292 7.6137L2.99207 8.07835C1.31808 8.29678 0.651025 10.363 1.88127 11.519L5.43805 14.8613C5.50017 14.9197 5.52826 15.0057 5.51259 15.0895L4.61714 19.8765C4.30824 21.5278 6.04969 22.8011 7.52961 22.006L11.8818 19.6678C11.9557 19.6281 12.0445 19.6281 12.1184 19.6678L16.4706 22.006C17.7675 22.7028 19.2651 21.8112 19.408 20.4688L21.4695 22.5303C21.7624 22.8232 22.2373 22.8232 22.5302 22.5303C22.8231 22.2374 22.8231 21.7626 22.5302 21.4697L18.864 17.8035L18.8613 17.8008L8.67637 7.61582L8.67366 7.61312L2.53021 1.46967Z" fill="#000"/>
<path d="M10.1985 2.88155C10.9258 1.37282 13.0745 1.37281 13.8017 2.88155L15.9325 7.30186C15.9691 7.37788 16.0417 7.43028 16.1254 7.4412L21.0082 8.07835C22.6822 8.29678 23.3492 10.363 22.119 11.519L18.6993 14.7324C18.4041 15.0098 17.9419 15.0027 17.6554 14.7162L9.15107 6.21184C8.92562 5.98639 8.86735 5.64305 9.0058 5.35584L10.1985 2.88155Z" fill="#000"/>
</svg>
