<svg width="24" height="24" viewBox="0 0 24 24" fill="none" xmlns="http://www.w3.org/2000/svg">
<path d="M8.25006 1.5C8.25006 1.08579 8.58585 0.75 9.00006 0.75H15.0001C15.4143 0.75 15.7501 1.08579 15.7501 1.5C15.7501 1.91421 15.4143 2.25 15.0001 2.25H12.7501V3.77842C14.7535 3.93082 16.5876 4.68867 18.07 5.86942L19.4697 4.46967C19.7626 4.17678 20.2375 4.17678 20.5304 4.46967C20.8233 4.76256 20.8233 5.23744 20.5304 5.53033L19.169 6.89171C20.7713 8.62907 21.7501 10.9502 21.7501 13.5C21.7501 14.6346 21.5559 15.7255 21.1985 16.7402C21.1129 16.9833 20.9085 17.1654 20.6572 17.2224C20.406 17.2795 20.143 17.2036 19.9608 17.0214L8.47867 5.53929C8.29647 5.35709 8.22056 5.09411 8.27763 4.84283C8.33471 4.59156 8.51678 4.38718 8.75982 4.30157C9.54894 4.02359 10.3841 3.8444 11.2501 3.77845V2.25H9.00006C8.58585 2.25 8.25006 1.91421 8.25006 1.5Z" fill="#000"/>
<path d="M6.95576 5.8951C6.95734 5.89666 6.95893 5.89822 6.9605 5.8998L19.6003 18.5396C19.6019 18.5411 19.6034 18.5427 19.605 18.5443L22.5303 21.4697C22.8232 21.7626 22.8232 22.2374 22.5303 22.5303C22.2374 22.8232 21.7626 22.8232 21.4697 22.5303L19.1105 20.1712C17.3326 22.0653 14.8045 23.25 12.0001 23.25C6.61528 23.25 2.25006 18.8848 2.25006 13.5C2.25006 10.6955 3.4348 8.16743 5.3289 6.38956L1.46967 2.53033C1.17678 2.23744 1.17678 1.76256 1.46967 1.46967C1.76256 1.17678 2.23744 1.17678 2.53033 1.46967L6.95576 5.8951Z" fill="#000"/>
</svg>
