<svg width="24" height="24" viewBox="0 0 24 24" fill="none" xmlns="http://www.w3.org/2000/svg">
<path fill-rule="evenodd" clip-rule="evenodd" d="M5.77745 1.24995C5.09967 1.24935 4.56985 1.24887 4.10303 1.42248C3.57152 1.62013 3.11411 1.97727 2.79345 2.44497C2.5118 2.85575 2.38376 3.36986 2.21996 4.02755L1.51493 6.84798C1.33897 7.5518 1.25 8.27454 1.25 9.00002C1.25 10.0549 1.84249 11.0982 2.75 11.7079L2.75 17.6318C2.74999 18.3749 2.74999 18.978 2.78996 19.4673C2.83121 19.9722 2.91876 20.4215 3.13148 20.839C3.46703 21.4975 4.00247 22.033 4.66103 22.3685C5.07851 22.5812 5.52778 22.6688 6.03273 22.71C6.52196 22.75 7.12511 22.75 7.86819 22.75H9.49255L9.5 22.75H14.5L14.5075 22.75H16.1318C16.8749 22.75 17.478 22.75 17.9673 22.71C18.4722 22.6688 18.9215 22.5812 19.339 22.3685C19.9975 22.033 20.533 21.4975 20.8685 20.839C21.0812 20.4215 21.1688 19.9722 21.21 19.4673C21.25 18.9781 21.25 18.3749 21.25 17.6319V11.7079C22.1575 11.0982 22.75 10.0549 22.75 9.00002C22.75 8.27454 22.661 7.5518 22.4851 6.84798L21.78 4.02754C21.6162 3.36986 21.4882 2.85575 21.2066 2.44497C20.8859 1.97727 20.4285 1.62013 19.897 1.42248C19.4301 1.24887 18.9003 1.24935 18.2226 1.24995H5.77745ZM4.25 12.2398C4.33243 12.2466 4.4158 12.25 4.5 12.25C5.43942 12.25 6.37545 11.8901 7 11.2662C7.62455 11.8901 8.56058 12.25 9.5 12.25C10.4394 12.25 11.3754 11.8901 12 11.2662C12.6246 11.8901 13.5606 12.25 14.5 12.25C15.4394 12.25 16.3754 11.8901 17 11.2662C17.6246 11.8901 18.5606 12.25 19.5 12.25C19.5842 12.25 19.6676 12.2466 19.75 12.2398V17.6C19.75 18.3824 19.7494 18.9242 19.715 19.3451C19.6813 19.7573 19.619 19.9872 19.532 20.158C19.3403 20.5343 19.0343 20.8403 18.658 21.032C18.4872 21.119 18.2573 21.1813 17.8451 21.215C17.4242 21.2494 16.8824 21.25 16.1 21.25H15.25L15.25 16.6761C15.25 16.4868 15.25 16.3025 15.2373 16.1464C15.2233 15.9749 15.1902 15.7726 15.0865 15.569C14.9427 15.2868 14.7132 15.0573 14.431 14.9135C14.2274 14.8098 14.0251 14.7767 13.8537 14.7627C13.6976 14.75 13.5132 14.75 13.3239 14.75H10.6761C10.4868 14.75 10.3024 14.75 10.1463 14.7627C9.97488 14.7767 9.77258 14.8098 9.56901 14.9135C9.28677 15.0573 9.0573 15.2868 8.91349 15.569C8.80977 15.7726 8.77672 15.9749 8.76271 16.1464C8.74995 16.3025 8.74998 16.4868 8.75 16.6761L8.75 21.25H7.9C7.11755 21.25 6.57582 21.2494 6.15488 21.215C5.74269 21.1813 5.5128 21.119 5.34202 21.032C4.9657 20.8403 4.65973 20.5343 4.46799 20.158C4.38097 19.9872 4.31865 19.7573 4.28498 19.3451C4.25058 18.9242 4.25 18.3824 4.25 17.6V12.2398Z" fill="#000"/>
</svg>
