<svg width="24" height="24" viewBox="0 0 24 24" fill="none" xmlns="http://www.w3.org/2000/svg">
<path fill-rule="evenodd" clip-rule="evenodd" d="M7.06739 3.25H16.9326C17.8851 3.24999 18.6456 3.24999 19.2599 3.30018C19.8899 3.35165 20.4318 3.45963 20.9295 3.71322C21.7291 4.12068 22.3793 4.77085 22.7868 5.57054C23.0404 6.06824 23.1483 6.61012 23.1998 7.24013C23.25 7.85438 23.25 8.61496 23.25 9.56737V14.4327C23.25 15.3851 23.25 16.1456 23.1998 16.7599C23.1483 17.3899 23.0404 17.9318 22.7868 18.4295C22.3793 19.2291 21.7291 19.8793 20.9295 20.2868C20.4318 20.5404 19.8899 20.6483 19.2599 20.6998C18.6456 20.75 17.885 20.75 16.9326 20.75H7.0673C6.1149 20.75 5.35438 20.75 4.74013 20.6998C4.11012 20.6483 3.56824 20.5404 3.07054 20.2868C2.27085 19.8793 1.62068 19.2291 1.21322 18.4295C0.959634 17.9318 0.85165 17.3899 0.800176 16.7599C0.749989 16.1456 0.749994 15.3851 0.75 14.4326V9.56738C0.749994 8.61495 0.749989 7.85439 0.800176 7.24013C0.85165 6.61012 0.959634 6.06824 1.21322 5.57054C1.62068 4.77085 2.27085 4.12068 3.07054 3.71322C3.56824 3.45963 4.11012 3.35165 4.74013 3.30018C5.35439 3.24999 6.11495 3.24999 7.06739 3.25ZM5.25 11.5C5.25 11.0858 5.58579 10.75 6 10.75H13C13.4142 10.75 13.75 11.0858 13.75 11.5C13.75 11.9142 13.4142 12.25 13 12.25H6C5.58579 12.25 5.25 11.9142 5.25 11.5ZM14.75 11.5C14.75 11.0858 15.0858 10.75 15.5 10.75H18C18.4142 10.75 18.75 11.0858 18.75 11.5C18.75 11.9142 18.4142 12.25 18 12.25H15.5C15.0858 12.25 14.75 11.9142 14.75 11.5ZM18 14.75C18.4142 14.75 18.75 15.0858 18.75 15.5C18.75 15.9142 18.4142 16.25 18 16.25H11C10.5858 16.25 10.25 15.9142 10.25 15.5C10.25 15.0858 10.5858 14.75 11 14.75H18ZM9.25 15.5C9.25 15.0858 8.91421 14.75 8.5 14.75H6C5.58579 14.75 5.25 15.0858 5.25 15.5C5.25 15.9142 5.58579 16.25 6 16.25H8.5C8.91421 16.25 9.25 15.9142 9.25 15.5Z" fill="#000"/>
</svg>
