<svg width="24" height="24" viewBox="0 0 24 24" fill="none" xmlns="http://www.w3.org/2000/svg">
<path fill-rule="evenodd" clip-rule="evenodd" d="M8.66762 1.25H15.3324C16.215 1.24999 16.9231 1.24999 17.4957 1.29677C18.084 1.34484 18.595 1.44601 19.066 1.68597C19.8186 2.06947 20.4305 2.68139 20.814 3.43404C21.054 3.905 21.1552 4.41601 21.2032 5.00433C21.25 5.57691 21.25 6.28499 21.25 7.16761V16.8324C21.25 17.715 21.25 18.4231 21.2032 18.9957C21.1552 19.584 21.054 20.095 20.814 20.566C20.4305 21.3186 19.8186 21.9305 19.066 22.314C18.595 22.554 18.084 22.6552 17.4957 22.7032C16.9231 22.75 16.215 22.75 15.3324 22.75H8.66761C7.78499 22.75 7.07691 22.75 6.50433 22.7032C5.91601 22.6552 5.405 22.554 4.93404 22.314C4.18139 21.9305 3.56947 21.3186 3.18597 20.566C2.94601 20.095 2.84484 19.584 2.79677 18.9957C2.74999 18.4231 2.74999 17.715 2.75 16.8324V7.16762C2.74999 6.285 2.74999 5.57691 2.79677 5.00433C2.84484 4.41601 2.94601 3.905 3.18597 3.43404C3.56947 2.68139 4.18139 2.06947 4.93404 1.68597C5.405 1.44601 5.91601 1.34484 6.50433 1.29677C7.07692 1.24999 7.785 1.24999 8.66762 1.25ZM9.75 5C9.75 4.58579 10.0858 4.25 10.5 4.25H13.5C13.9142 4.25 14.25 4.58579 14.25 5C14.25 5.41421 13.9142 5.75 13.5 5.75H10.5C10.0858 5.75 9.75 5.41421 9.75 5ZM11 18.5C11 17.9477 11.4477 17.5 12 17.5C12.5523 17.5 13.0001 17.9477 13.0001 18.5C13.0001 19.0523 12.5523 19.5 12 19.5C11.4477 19.5 11 19.0523 11 18.5Z" fill="#000"/>
</svg>
