<svg width="24" height="24" viewBox="0 0 24 24" fill="none" xmlns="http://www.w3.org/2000/svg">
<path fill-rule="evenodd" clip-rule="evenodd" d="M20.172 1.28156C20.5522 1.31227 20.9092 1.37911 21.2468 1.55085C21.7647 1.81432 22.1859 2.23508 22.4498 2.75276C22.6219 3.09021 22.6891 3.44711 22.7202 3.82727C22.75 4.1918 22.75 4.63806 22.7499 5.17272L22.75 10.2445C22.7502 11.0148 22.7503 11.527 22.6324 12.0177C22.5282 12.4515 22.3563 12.8663 22.123 13.2467C21.8592 13.6769 21.4968 14.0388 20.9517 14.5831L15.4843 20.0456C14.8105 20.7188 14.2725 21.2563 13.8025 21.655C13.3204 22.0638 12.8608 22.3705 12.3294 22.5428C11.4757 22.8198 10.5562 22.8194 9.70274 22.5416C9.17157 22.3687 8.71218 22.0617 8.23048 21.6524C7.76082 21.2533 7.22326 20.7152 6.55007 20.0414L3.95423 17.443C3.28109 16.7693 2.74357 16.2312 2.34495 15.7612C1.9361 15.2792 1.62951 14.8195 1.45715 14.2882C1.18021 13.4345 1.18064 12.515 1.45837 11.6616C1.63122 11.1304 1.93824 10.6711 2.34753 10.1894C2.7466 9.71972 3.28463 9.18219 3.9584 8.50903L9.42014 3.0522C9.96357 2.50902 10.3249 2.14784 10.7541 1.88484C11.1337 1.65225 11.5475 1.48074 11.9803 1.37659C12.4697 1.25881 12.9806 1.25844 13.749 1.25788L18.8266 1.25306C19.3613 1.25254 19.8075 1.25211 20.172 1.28156ZM15 7.25C15 8.2165 15.7835 9 16.75 9C17.7165 9 18.5 8.2165 18.5 7.25C18.5 6.2835 17.7165 5.5 16.75 5.5C15.7835 5.5 15 6.2835 15 7.25Z" fill="#000"/>
</svg>
