<svg width="24" height="24" viewBox="0 0 24 24" fill="none" xmlns="http://www.w3.org/2000/svg">
<path fill-rule="evenodd" clip-rule="evenodd" d="M0.25 12C0.25 5.51065 5.51065 0.25 12 0.25C18.4893 0.25 23.75 5.51065 23.75 12C23.75 18.4893 18.4893 23.75 12 23.75C5.51065 23.75 0.25 18.4893 0.25 12ZM12.5004 6.25171C12.2564 6.25108 12.0306 6.38083 11.9084 6.592L9.70317 10.401C9.55335 10.6597 9.46393 10.8141 9.40012 10.9799C9.34353 11.127 9.30254 11.2796 9.27783 11.4353C9.24998 11.6107 9.24998 11.7892 9.25 12.0882L9.25 15.1521C9.25 15.4604 9.42418 15.7422 9.69992 15.8801L9.71968 15.8899C10.3306 16.1954 10.6599 16.3601 11.0064 16.4767C11.3141 16.5802 11.6307 16.655 11.9521 16.7C12.3142 16.7508 12.6823 16.7509 13.3655 16.751L13.7335 16.7511C14.1308 16.7512 14.4428 16.7513 14.6965 16.7326C14.9556 16.7135 15.1712 16.6739 15.3737 16.5861C15.7097 16.4403 15.9993 16.205 16.2108 15.9058C16.3382 15.7256 16.421 15.5226 16.4927 15.273C16.5629 15.0285 16.6267 14.7232 16.7078 14.3344L17.0493 12.6985C17.1333 12.2962 17.1998 11.9779 17.2304 11.7204C17.2616 11.4583 17.2598 11.2313 17.1875 11.0185C17.0721 10.6784 16.8386 10.3911 16.5293 10.2086C16.3357 10.0944 16.1139 10.0462 15.8509 10.0232C15.5926 10.0005 15.2676 10.0005 14.8565 10.0006H13.555L13.9509 8.02161C14.134 7.10612 13.4339 6.25194 12.5004 6.25171ZM7.5 10C6.94772 10 6.5 10.4477 6.5 11V15.5C6.5 16.0523 6.94772 16.5 7.5 16.5C8.05228 16.5 8.5 16.0523 8.5 15.5V11C8.5 10.4477 8.05228 10 7.5 10Z" fill="#000"/>
</svg>
