<svg width="24" height="24" viewBox="0 0 24 24" fill="none" xmlns="http://www.w3.org/2000/svg">
<path d="M16.2746 2.21166C15.3228 1.25985 13.7796 1.25985 12.8278 2.21166C12.6598 2.3796 12.5173 2.57118 12.4048 2.78033L11.4191 4.6125C11.3221 4.79274 11.2807 4.86957 11.2364 4.94365C11.1959 5.01144 11.1534 5.078 11.1089 5.14323C11.0602 5.21452 11.0079 5.28442 10.8851 5.44813L10.7338 5.64964C10.0242 6.59533 9.71856 6.99664 9.34448 7.29758C9.00282 7.57243 8.61772 7.78839 8.20502 7.93655C7.75316 8.09878 7.25134 8.15028 6.07436 8.26256L5.76015 8.29253C5.18225 8.34765 4.71405 8.3923 4.35685 8.45932C4.00435 8.52546 3.65695 8.62916 3.40467 8.87547C3.05111 9.22067 2.87553 9.70902 2.92833 10.2003C2.96601 10.5509 3.16785 10.8521 3.39753 11.1275C3.63028 11.4066 3.96283 11.7392 4.37331 12.1496L7.5804 15.3567L1.46967 21.4675C1.17678 21.7604 1.17678 22.2352 1.46967 22.5281C1.76256 22.821 2.23744 22.821 2.53033 22.5281L8.64106 16.4174L11.8425 19.6188C12.2525 20.0288 12.5847 20.361 12.8636 20.5936C13.1388 20.8231 13.4397 21.0247 13.7901 21.0625C14.2811 21.1154 14.7693 20.9401 15.1146 20.587C15.3609 20.335 15.4649 19.988 15.5314 19.6359C15.5987 19.2791 15.6437 18.8114 15.6994 18.2342L15.7297 17.919C15.8431 16.7429 15.8951 16.2414 16.0576 15.79C16.206 15.3777 16.4221 14.9929 16.697 14.6517C16.998 14.278 17.3992 13.9727 18.3447 13.264L18.5516 13.1089C18.7141 12.9871 18.7834 12.9353 18.8541 12.8871C18.9189 12.8429 18.9849 12.8007 19.0521 12.7605C19.1255 12.7166 19.2018 12.6754 19.3804 12.5791L21.2157 11.59C21.4243 11.4776 21.6154 11.3353 21.783 11.1678C22.7351 10.2157 22.7351 8.67214 21.783 7.72009L16.2746 2.21166Z" fill="#000"/>
</svg>
