<svg width="24" height="24" viewBox="0 0 24 24" fill="none" xmlns="http://www.w3.org/2000/svg">
<path fill-rule="evenodd" clip-rule="evenodd" d="M0.25 12C0.25 5.51065 5.51065 0.25 12 0.25C18.4893 0.25 23.75 5.51065 23.75 12C23.75 18.4893 18.4893 23.75 12 23.75C5.51065 23.75 0.25 18.4893 0.25 12ZM12.5004 17.75C12.2564 17.7506 12.0306 17.6209 11.9084 17.4097L9.70317 13.6007C9.55335 13.342 9.46393 13.1876 9.40012 13.0218C9.34353 12.8747 9.30254 12.7221 9.27783 12.5664C9.24998 12.391 9.24998 12.2125 9.25 11.9135L9.25 8.84964C9.25 8.54135 9.42418 8.25952 9.69992 8.12165L9.71968 8.11178C10.3306 7.80628 10.6599 7.64165 11.0064 7.52505C11.3141 7.42151 11.6307 7.34673 11.9521 7.30167C12.3142 7.25092 12.6823 7.25084 13.3655 7.25068L13.7335 7.2506C14.1308 7.2505 14.4428 7.25043 14.6965 7.26914C14.9556 7.28825 15.1712 7.32779 15.3737 7.41562C15.7097 7.56142 15.9993 7.79673 16.2108 8.09587C16.3382 8.27606 16.421 8.47908 16.4927 8.72872C16.5629 8.97323 16.6267 9.27853 16.7078 9.6673L17.0493 11.3032C17.1333 11.7056 17.1998 12.0238 17.2304 12.2813C17.2616 12.5434 17.2598 12.7704 17.1875 12.9832C17.0721 13.3233 16.8386 13.6106 16.5293 13.7931C16.3357 13.9073 16.1139 13.9555 15.8509 13.9785C15.5926 14.0012 15.2676 14.0012 14.8565 14.0012H13.555L13.9509 15.9801C14.134 16.8956 13.4339 17.7498 12.5004 17.75ZM7.5 14.0017C6.94772 14.0017 6.5 13.554 6.5 13.0017V8.50171C6.5 7.94942 6.94772 7.50171 7.5 7.50171C8.05228 7.50171 8.5 7.94942 8.5 8.50171V13.0017C8.5 13.554 8.05228 14.0017 7.5 14.0017Z" fill="#000"/>
</svg>
