<svg width="24" height="24" viewBox="0 0 24 24" fill="none" xmlns="http://www.w3.org/2000/svg">
<path fill-rule="evenodd" clip-rule="evenodd" d="M11.8155 21.8248C12.0625 22.2447 12.5136 22.5019 13.0006 22.5007C14.3614 22.5012 15.4112 21.3028 15.2313 19.9538L14.5711 15.003H17.7129C18.5351 15.003 19.1851 15.003 19.7018 14.9578C20.2277 14.9117 20.6713 14.8153 21.0585 14.5869C21.6771 14.222 22.1443 13.6472 22.3751 12.9671C22.5195 12.5414 22.5232 12.0875 22.4608 11.5632C22.3996 11.0482 22.2667 10.4119 22.0987 9.60714L21.2829 5.69942C21.1442 5.03493 21.0344 4.50918 20.9133 4.08738C20.7893 3.65544 20.6445 3.29896 20.4197 2.98097C20.0496 2.45748 19.5429 2.04569 18.9547 1.79054C18.5975 1.63554 18.2189 1.56678 17.7707 1.53372C17.333 1.50144 16.796 1.50157 16.1171 1.50173L13.3089 1.50239C13.0513 1.50245 12.9125 1.50249 12.7745 1.50615C11.54 1.5389 10.3209 1.78918 9.17332 2.24549C9.04504 2.2965 8.91751 2.35113 8.68082 2.45254L8.65499 2.4636C8.52094 2.52101 8.42879 2.56048 8.34449 2.60442C7.57832 3.00381 7.07269 3.77051 7.00728 4.63205C7.00008 4.72686 7.00009 4.82713 7.0001 4.97301L7.0001 12.6683C7.00004 12.9569 7 13.1569 7.03184 13.3548C7.06002 13.53 7.10676 13.7016 7.17128 13.8669C7.24418 14.0536 7.34559 14.2259 7.49198 14.4747L11.8155 21.8248ZM13.0006 22.5007L13.0016 22.5007L13 22.0007L12.9996 22.5007L13.0006 22.5007Z" fill="#000"/>
<path d="M3.58073 15.5024H3.91927C4.18284 15.5024 4.41023 15.5024 4.59752 15.4871C4.79519 15.471 4.9918 15.4353 5.18099 15.3389C5.46323 15.1951 5.6927 14.9656 5.83651 14.6834C5.93291 14.4942 5.96857 14.2976 5.98472 14.0999C6.00002 13.9126 6.00001 13.6852 6 13.4217V3.58313C6.00001 3.31956 6.00002 3.09218 5.98472 2.90489C5.96857 2.70722 5.93291 2.51061 5.83651 2.32142C5.6927 2.03918 5.46323 1.80971 5.18099 1.6659C4.9918 1.5695 4.79519 1.53384 4.59752 1.51769C4.41023 1.50239 4.18285 1.5024 3.91929 1.50241H3.58072C3.31715 1.5024 3.08977 1.50239 2.90249 1.51769C2.70482 1.53384 2.50821 1.5695 2.31902 1.6659C2.03677 1.80971 1.8073 2.03918 1.66349 2.32142C1.56709 2.51061 1.53144 2.70722 1.51529 2.90489C1.49999 3.09217 1.49999 3.31956 1.5 3.58312V13.4217C1.49999 13.6853 1.49999 13.9126 1.51529 14.0999C1.53144 14.2976 1.56709 14.4942 1.66349 14.6834C1.8073 14.9656 2.03677 15.1951 2.31902 15.3389C2.50821 15.4353 2.70482 15.471 2.90249 15.4871C3.08977 15.5024 3.31716 15.5024 3.58073 15.5024Z" fill="#000"/>
</svg>
