<svg width="24" height="24" viewBox="0 0 24 24" fill="none" xmlns="http://www.w3.org/2000/svg">
<path fill-rule="evenodd" clip-rule="evenodd" d="M11.8155 2.17751C12.0625 1.75769 12.5136 1.50044 13.0006 1.50165C14.3614 1.50115 15.4112 2.69959 15.2313 4.04858L14.5711 8.99933H17.7129C18.5351 8.99933 19.1851 8.99933 19.7018 9.04459C20.2277 9.09066 20.6713 9.18704 21.0585 9.41545C21.6771 9.78037 22.1443 10.3551 22.3751 11.0352C22.5195 11.4609 22.5232 11.9149 22.4608 12.4391C22.3996 12.9541 22.2667 13.5904 22.0987 14.3952L21.2829 18.3029C21.1442 18.9674 21.0344 19.4932 20.9133 19.915C20.7893 20.3469 20.6445 20.7034 20.4197 21.0214C20.0496 21.5449 19.5429 21.9567 18.9547 22.2118C18.5975 22.3668 18.2189 22.4356 17.7707 22.4686C17.333 22.5009 16.796 22.5008 16.1171 22.5006L13.3089 22.5C13.0513 22.4999 12.9125 22.4999 12.7745 22.4962C11.54 22.4634 10.3209 22.2132 9.17332 21.7569C9.04504 21.7058 8.91751 21.6512 8.68082 21.5498L8.65499 21.5387C8.52094 21.4813 8.42879 21.4419 8.34449 21.3979C7.57832 20.9985 7.07269 20.2318 7.00728 19.3703C7.00008 19.2755 7.00009 19.1752 7.0001 19.0293L7.0001 11.3341C7.00004 11.0454 7 10.8455 7.03184 10.6475C7.06002 10.4724 7.10676 10.3007 7.17128 10.1355C7.24418 9.94876 7.34559 9.77643 7.49198 9.52766L11.8155 2.17751ZM13.0006 1.50165L13.0016 1.50166L13 2.00165L12.9996 1.50165L13.0006 1.50165Z" fill="#000"/>
<path d="M3.58073 8.49994H3.91927C4.18284 8.49993 4.41023 8.49992 4.59752 8.51522C4.79519 8.53138 4.9918 8.56703 5.18099 8.66343C5.46323 8.80724 5.6927 9.03671 5.83651 9.31895C5.93291 9.50814 5.96857 9.70475 5.98472 9.90243C6.00002 10.0897 6.00001 10.3171 6 10.5807V20.4192C6.00001 20.6828 6.00002 20.9102 5.98472 21.0975C5.96857 21.2951 5.93291 21.4917 5.83651 21.6809C5.6927 21.9632 5.46323 22.1926 5.18099 22.3365C4.9918 22.4328 4.79519 22.4685 4.59752 22.4847C4.41023 22.5 4.18285 22.5 3.91929 22.4999H3.58072C3.31715 22.5 3.08977 22.5 2.90249 22.4847C2.70482 22.4685 2.50821 22.4328 2.31902 22.3365C2.03677 22.1926 1.8073 21.9632 1.66349 21.6809C1.56709 21.4917 1.53144 21.2951 1.51529 21.0975C1.49999 20.9102 1.49999 20.6828 1.5 20.4192V10.5806C1.49999 10.3171 1.49999 10.0897 1.51529 9.90243C1.53144 9.70475 1.56709 9.50814 1.66349 9.31895C1.8073 9.03671 2.03677 8.80724 2.31902 8.66343C2.50821 8.56703 2.70482 8.53138 2.90249 8.51522C3.08977 8.49992 3.31716 8.49993 3.58073 8.49994Z" fill="#000"/>
</svg>
