<svg width="24" height="24" viewBox="0 0 24 24" fill="none" xmlns="http://www.w3.org/2000/svg">
<path fill-rule="evenodd" clip-rule="evenodd" d="M7.06739 2.75H16.9326C17.8851 2.74999 18.6456 2.74999 19.2599 2.80018C19.8899 2.85165 20.4318 2.95963 20.9295 3.21322C21.7291 3.62068 22.3793 4.27085 22.7868 5.07054C23.0404 5.56824 23.1483 6.11012 23.1998 6.74013C23.25 7.35438 23.25 8.11496 23.25 9.06737V9.26121C23.25 9.64934 22.9539 9.97335 22.5673 10.0082C21.5487 10.1 20.75 10.9571 20.75 12C20.75 13.0429 21.5487 13.9 22.5673 13.9918C22.9539 14.0267 23.25 14.3507 23.25 14.7388V14.9327C23.25 15.8851 23.25 16.6456 23.1998 17.2599C23.1483 17.8899 23.0404 18.4318 22.7868 18.9295C22.3793 19.7291 21.7291 20.3793 20.9295 20.7868C20.4318 21.0404 19.8899 21.1483 19.2599 21.1998C18.6456 21.25 17.885 21.25 16.9326 21.25H7.0673C6.1149 21.25 5.35438 21.25 4.74013 21.1998C4.11012 21.1483 3.56824 21.0404 3.07054 20.7868C2.27085 20.3793 1.62068 19.7291 1.21322 18.9295C0.959634 18.4318 0.85165 17.8899 0.800176 17.2599C0.749989 16.6456 0.749994 15.8851 0.75 14.9326V14.7388C0.75 14.3507 1.04612 14.0267 1.43269 13.9918C2.45126 13.9 3.25 13.0429 3.25 12C3.25 10.9571 2.45126 10.1 1.43269 10.0082C1.04612 9.97335 0.75 9.64934 0.75 9.26121V9.06738C0.749994 8.11494 0.749989 7.35439 0.800176 6.74013C0.85165 6.11012 0.959634 5.56824 1.21322 5.07054C1.62068 4.27085 2.27085 3.62068 3.07054 3.21322C3.56824 2.95963 4.11012 2.85165 4.74013 2.80018C5.35439 2.74999 6.11495 2.74999 7.06739 2.75ZM15.5303 8.46967C15.8232 8.76256 15.8232 9.23744 15.5303 9.53033L9.53033 15.5303C9.23744 15.8232 8.76256 15.8232 8.46967 15.5303C8.17678 15.2374 8.17678 14.7626 8.46967 14.4697L14.4697 8.46967C14.7626 8.17678 15.2374 8.17678 15.5303 8.46967ZM8.5 9.5C8.5 8.94772 8.94771 8.5 9.5 8.5C10.0523 8.5 10.5001 8.94772 10.5001 9.5C10.5001 10.0523 10.0524 10.5 9.5001 10.5C8.94781 10.5 8.5 10.0523 8.5 9.5ZM13.5 14.5C13.5 13.9477 13.9477 13.5 14.5 13.5C15.0523 13.5 15.5001 13.9477 15.5001 14.5C15.5001 15.0523 15.0523 15.5 14.5 15.5C13.9477 15.5 13.5 15.0523 13.5 14.5Z" fill="#000"/>
</svg>
