<svg width="24" height="24" viewBox="0 0 24 24" fill="none" xmlns="http://www.w3.org/2000/svg">
<path d="M12 3C9.97277 3 8.10467 3.66907 6.60057 4.79885C5.99213 5.25587 5.29439 5.94867 4.67334 6.66596C4.57577 6.77864 4.48153 6.89028 4.3911 7H7.5C8.05228 7 8.5 7.44771 8.5 8C8.5 8.55228 8.05228 9 7.5 9H2.47651C2.46348 9.00025 2.45043 9.00026 2.43737 9H2C1.44772 9 1 8.55228 1 8V2.5C1 1.94772 1.44772 1.5 2 1.5C2.55228 1.5 3 1.94772 3 2.5V5.54549C3.05323 5.48245 3.10705 5.41952 3.16134 5.35681C3.83257 4.58158 4.63483 3.77402 5.39941 3.19972C7.23796 1.81872 9.52482 1 12 1C18.0751 1 23 5.92487 23 12C23 18.0751 18.0751 23 12 23C7.0731 23 2.90517 19.7616 1.50377 15.2996C1.33828 14.7727 1.63126 14.2114 2.15817 14.046C2.68508 13.8805 3.24638 14.1734 3.41187 14.7004C4.55899 18.3527 7.97165 21 12 21C16.9706 21 21 16.9706 21 12C21 7.02944 16.9706 3 12 3Z" fill="#000"/>
<path d="M13 7C13 6.44772 12.5523 6 12 6C11.4477 6 11 6.44772 11 7V12C11 12.3448 11.1776 12.6653 11.47 12.848L14.67 14.848C15.1383 15.1407 15.7553 14.9983 16.048 14.53C16.3407 14.0617 16.1983 13.4447 15.73 13.152L13 11.4458V7Z" fill="#000"/>
</svg>
