<svg width="24" height="24" viewBox="0 0 24 24" fill="none" xmlns="http://www.w3.org/2000/svg">
<path d="M21.75 5C21.75 5.414 21.414 5.75 21 5.75H18.203C18.15 5.75 18.099 5.75 18.048 5.75H5.952C5.901 5.75 5.849 5.75 5.796 5.75H3C2.586 5.75 2.25 5.414 2.25 5C2.25 4.586 2.586 4.25 3 4.25H5.716C6.232 4.25 6.334 4.242 6.416 4.218C6.51 4.189 6.598 4.142 6.674 4.08C6.74 4.026 6.803 3.945 7.089 3.516L7.709 2.586C7.925 2.262 8.114 1.977 8.375 1.762C8.603 1.574 8.867 1.433 9.15 1.347C9.472 1.25 9.814 1.25 10.204 1.25H13.797C14.186 1.25 14.529 1.25 14.852 1.347C15.135 1.433 15.398 1.574 15.627 1.762C15.887 1.976 16.077 2.262 16.293 2.586L16.913 3.516C17.199 3.946 17.262 4.026 17.328 4.08C17.404 4.143 17.492 4.19 17.586 4.218C17.667 4.243 17.769 4.25 18.286 4.25H21.002C21.416 4.25 21.752 4.586 21.752 5H21.75Z" fill="#000"/>
<path d="M19.783 7.293C19.687 7.25 19.56 7.25 19.307 7.25H4.694C4.441 7.25 4.314 7.25 4.218 7.293C4.089 7.35 3.991 7.458 3.946 7.592C3.913 7.692 3.924 7.818 3.948 8.07L4.885 18.109C4.948 18.788 5 19.341 5.077 19.789C5.157 20.253 5.274 20.662 5.498 21.039C5.853 21.636 6.378 22.114 7.005 22.412C7.401 22.6 7.82 22.678 8.289 22.715C8.742 22.75 9.298 22.75 9.98 22.75H14.023C14.705 22.75 15.26 22.75 15.714 22.715C16.183 22.678 16.602 22.6 16.998 22.412C17.626 22.114 18.15 21.636 18.505 21.039C18.729 20.662 18.846 20.253 18.926 19.789C19.004 19.341 19.055 18.788 19.118 18.109L20.055 8.07C20.078 7.818 20.09 7.692 20.057 7.592C20.012 7.459 19.914 7.35 19.785 7.293H19.783Z" fill="#000"/>
</svg>
