<svg width="24" height="24" viewBox="0 0 24 24" fill="none" xmlns="http://www.w3.org/2000/svg">
<path d="M21 5.75C21.414 5.75 21.75 5.414 21.75 5H21.752C21.752 4.586 21.416 4.25 21.002 4.25H18.286C17.769 4.25 17.667 4.243 17.586 4.218C17.492 4.19 17.404 4.143 17.328 4.08C17.262 4.026 17.199 3.946 16.913 3.516L16.2894 2.58054C16.0749 2.25879 15.8855 1.9748 15.627 1.762C15.398 1.574 15.135 1.433 14.852 1.347C14.529 1.25 14.186 1.25 13.797 1.25H10.204C9.814 1.25 9.472 1.25 9.15 1.347C8.867 1.433 8.603 1.574 8.375 1.762C8.11618 1.9752 7.92817 2.25724 7.71442 2.57788L7.089 3.516C6.803 3.945 6.74 4.026 6.674 4.08C6.598 4.142 6.51 4.189 6.416 4.218C6.334 4.242 6.232 4.25 5.716 4.25H3C2.586 4.25 2.25 4.586 2.25 5C2.25 5.414 2.586 5.75 3 5.75H21Z" fill="#000"/>
<path fill-rule="evenodd" clip-rule="evenodd" d="M19.307 7.25C19.56 7.25 19.687 7.25 19.783 7.293H19.785C19.914 7.35 20.012 7.459 20.057 7.592C20.0896 7.69083 20.0783 7.81506 20.0558 8.06121L20.055 8.07L19.1164 18.126C19.0541 18.7972 19.0033 19.3447 18.926 19.789C18.846 20.253 18.729 20.662 18.505 21.039C18.15 21.636 17.626 22.114 16.998 22.412C16.602 22.6 16.183 22.678 15.714 22.715C15.26 22.75 14.705 22.75 14.023 22.75H9.98C9.298 22.75 8.742 22.75 8.289 22.715C7.82 22.678 7.401 22.6 7.005 22.412C6.378 22.114 5.853 21.636 5.498 21.039C5.274 20.662 5.157 20.253 5.077 19.789C5 19.341 4.948 18.788 4.885 18.109L3.948 8.07C3.924 7.818 3.913 7.692 3.946 7.592C3.991 7.458 4.089 7.35 4.218 7.293C4.314 7.25 4.441 7.25 4.694 7.25H19.307ZM9.25 18.0001V11C9.25 10.5858 9.58579 10.25 10 10.25C10.4142 10.25 10.75 10.5858 10.75 11V18.0001C10.75 18.4143 10.4142 18.7501 10 18.7501C9.58579 18.7501 9.25 18.4143 9.25 18.0001ZM13.25 18L13.25 11C13.25 10.5858 13.5858 10.25 14 10.25C14.4142 10.25 14.75 10.5858 14.75 11L14.75 18C14.75 18.4142 14.4142 18.75 14 18.75C13.5858 18.75 13.25 18.4142 13.25 18Z" fill="#000"/>
</svg>
