<svg width="24" height="24" viewBox="0 0 24 24" fill="none" xmlns="http://www.w3.org/2000/svg">
<path d="M18.1318 2.25H5.86821C5.12513 2.24999 4.52197 2.24999 4.03273 2.28996C3.52778 2.33121 3.07851 2.41876 2.66103 2.63148C2.00247 2.96703 1.46703 3.50247 1.13148 4.16103C0.918761 4.57851 0.831214 5.02778 0.789958 5.53273C0.749986 6.02197 0.749992 6.62512 0.75 7.3682V13.6318C0.749992 14.3749 0.749986 14.978 0.789958 15.4673C0.831214 15.9722 0.918761 16.4215 1.13148 16.839C1.46703 17.4975 2.00247 18.033 2.66103 18.3685C3.07851 18.5812 3.52778 18.6688 4.03273 18.71C4.52195 18.75 5.12507 18.75 5.86811 18.75H18.1318C18.8748 18.75 19.4781 18.75 19.9673 18.71C20.4722 18.6688 20.9215 18.5812 21.339 18.3685C21.9975 18.033 22.533 17.4975 22.8685 16.839C23.0812 16.4215 23.1688 15.9722 23.21 15.4673C23.25 14.9781 23.25 14.3749 23.25 13.6319V7.36819C23.25 6.62515 23.25 6.02195 23.21 5.53273C23.1688 5.02778 23.0812 4.57851 22.8685 4.16103C22.533 3.50247 21.9975 2.96703 21.339 2.63148C20.9215 2.41876 20.4722 2.33121 19.9673 2.28996C19.478 2.24999 18.8749 2.24999 18.1318 2.25Z" fill="#000"/>
<path d="M5.75 21C5.75 20.5858 6.08579 20.25 6.5 20.25H17.5C17.9142 20.25 18.25 20.5858 18.25 21C18.25 21.4142 17.9142 21.75 17.5 21.75H6.5C6.08579 21.75 5.75 21.4142 5.75 21Z" fill="#000"/>
</svg>
