<svg width="24" height="24" viewBox="0 0 24 24" fill="none" xmlns="http://www.w3.org/2000/svg">
<path d="M9 2.25C6.1005 2.25 3.75 4.6005 3.75 7.5C3.75 10.3995 6.1005 12.75 9 12.75C11.8995 12.75 14.25 10.3995 14.25 7.5C14.25 4.6005 11.8995 2.25 9 2.25Z" fill="#000"/>
<path d="M9.00047 14.25C4.7345 14.25 0.82425 16.927 0.257543 20.8939C0.226795 21.1092 0.290961 21.3272 0.433414 21.4914C0.575867 21.6557 0.782586 21.75 1 21.75H17C17.2174 21.75 17.4241 21.6557 17.5666 21.4914C17.709 21.3272 17.7732 21.1092 17.7425 20.8939C17.1758 16.9271 13.2666 14.25 9.00047 14.25Z" fill="#000"/>
<path d="M23.75 12C23.75 12.4142 23.4142 12.75 23 12.75H20.75V15C20.75 15.4142 20.4142 15.75 20 15.75C19.5858 15.75 19.25 15.4142 19.25 15V12.75H17C16.5858 12.75 16.25 12.4142 16.25 12C16.25 11.5858 16.5858 11.25 17 11.25H19.25V9C19.25 8.58579 19.5858 8.25 20 8.25C20.4142 8.25 20.75 8.58579 20.75 9V11.25H23C23.4142 11.25 23.75 11.5858 23.75 12Z" fill="#000"/>
</svg>
