<svg width="24" height="24" viewBox="0 0 24 24" fill="none" xmlns="http://www.w3.org/2000/svg">
<path fill-rule="evenodd" clip-rule="evenodd" d="M0.25 12C0.25 5.51065 5.51065 0.25 12 0.25C18.4893 0.25 23.75 5.51065 23.75 12C23.75 15.5996 22.1314 18.8211 19.5823 20.9764C19.426 21.1086 19.2662 21.2368 19.103 21.3608C17.1302 22.8601 14.669 23.75 12 23.75C9.32596 23.75 6.86055 22.8568 4.88588 21.3524C4.87631 21.3451 4.86675 21.3378 4.85721 21.3304C4.70347 21.2126 4.55271 21.091 4.4051 20.9658C1.86327 18.8105 0.25 15.5936 0.25 12ZM8.2496 10.5007C8.2496 8.42941 9.92837 6.75 11.9996 6.75C14.0708 6.75 15.7496 8.42941 15.7496 10.5007C15.7496 12.572 14.0708 14.2514 11.9996 14.2514C9.92837 14.2514 8.2496 12.572 8.2496 10.5007ZM11.9998 16.25C14.3946 16.25 17.2038 17.4891 18.8065 19.664C16.9963 21.2728 14.6123 22.25 12 22.25C9.38772 22.25 7.00369 21.2728 5.19351 19.664C6.79611 17.4891 9.60496 16.25 11.9998 16.25Z" fill="#000"/>
</svg>
