<svg width="24" height="24" viewBox="0 0 24 24" fill="none" xmlns="http://www.w3.org/2000/svg">
<path fill-rule="evenodd" clip-rule="evenodd" d="M8.367 1.25H15.633C16.7251 1.24999 17.5906 1.24999 18.2883 1.30699C19.0017 1.36527 19.6053 1.48688 20.1565 1.76772C21.0502 2.22312 21.7769 2.94978 22.2323 3.84355C22.5131 4.39472 22.6347 4.99835 22.693 5.71173C22.75 6.40935 22.75 7.27484 22.75 8.36698V15.633C22.75 16.7252 22.75 17.5906 22.693 18.2883C22.6347 19.0017 22.5131 19.6053 22.2323 20.1565C21.7769 21.0502 21.0502 21.7769 20.1565 22.2323C19.6053 22.5131 19.0017 22.6347 18.2883 22.693C17.5906 22.75 16.7252 22.75 15.633 22.75H8.36698C7.27484 22.75 6.40935 22.75 5.71173 22.693C4.99835 22.6347 4.39472 22.5131 3.84355 22.2323C2.94978 21.7769 2.22312 21.0502 1.76772 20.1565C1.48688 19.6053 1.36527 19.0017 1.30699 18.2883C1.24999 17.5906 1.24999 16.7252 1.25 15.633V8.36699C1.24999 7.27486 1.24999 6.40935 1.30699 5.71173C1.36527 4.99834 1.48688 4.39472 1.76772 3.84355C2.22312 2.94978 2.94978 2.22312 3.84355 1.76772C4.39472 1.48688 4.99835 1.36527 5.71173 1.30699C6.40935 1.24999 7.27486 1.24999 8.367 1.25ZM8.24976 10.5007C8.24976 8.42941 9.92852 6.75 11.9998 6.75C14.071 6.75 15.7498 8.42941 15.7498 10.5007C15.7498 12.572 14.071 14.2514 11.9998 14.2514C9.92852 14.2514 8.24976 12.572 8.24976 10.5007ZM12.0001 16.2502C8.4459 16.2502 5.82425 18.3729 4.67383 20.7753C4.71459 20.798 4.75584 20.82 4.79754 20.8413C5.15549 21.0237 5.60148 21.1337 6.30549 21.1912C7.01825 21.2494 7.92751 21.25 9.2 21.25H14.8C16.0725 21.25 16.9818 21.2494 17.6945 21.1912C18.3985 21.1337 18.8445 21.0237 19.2025 20.8413C19.2443 20.82 19.2857 20.7979 19.3266 20.7751C18.176 18.3728 15.5541 16.2502 12.0001 16.2502Z" fill="#000"/>
</svg>
