<svg width="24" height="24" viewBox="0 0 24 24" fill="none" xmlns="http://www.w3.org/2000/svg">
<path d="M4.75 6.5C4.75 3.6005 7.1005 1.25 10 1.25C12.8995 1.25 15.25 3.6005 15.25 6.5C15.25 9.3995 12.8995 11.75 10 11.75C7.1005 11.75 4.75 9.3995 4.75 6.5Z" fill="#000"/>
<path d="M1.25754 19.8939C1.82425 15.927 5.7345 13.25 10.0005 13.25C11.3486 13.25 12.6475 13.5133 13.8152 13.9939C14.0471 14.0893 14.216 14.2944 14.2652 14.5403C14.3144 14.7862 14.2375 15.0404 14.0602 15.2177L11.7136 17.565C11.5144 17.7641 11.3754 18.0154 11.3124 18.2899L10.8813 20.1678C10.8031 20.5085 10.4999 20.75 10.1503 20.75H2C1.78259 20.75 1.57587 20.6557 1.43341 20.4914C1.29096 20.3272 1.2268 20.1092 1.25754 19.8939Z" fill="#000"/>
<path d="M21.0182 12.0642C20.4176 11.6468 19.6208 11.6469 19.0203 12.0646C18.892 12.1538 18.7659 12.28 18.5629 12.4831L17.9917 13.0544C17.7965 13.2496 17.7965 13.5662 17.9918 13.7614L20.2398 16.0094C20.4351 16.2047 20.7517 16.2047 20.9469 16.0094L21.5184 15.4378C21.7215 15.2348 21.8477 15.1086 21.9369 14.9802C22.3545 14.3795 22.3543 13.5825 21.9365 12.9819C21.8472 12.8536 21.721 12.7275 21.5178 12.5245L21.4758 12.4825C21.2728 12.2795 21.1466 12.1533 21.0182 12.0642Z" fill="#000"/>
<path d="M16.5777 14.4688C16.773 14.2735 17.0896 14.2734 17.2849 14.4687L19.5328 16.7167C19.7281 16.9119 19.7281 17.2285 19.5329 17.4237L15.554 21.4034C15.5207 21.4366 15.4788 21.4598 15.433 21.4703L12.0558 22.2438C11.9719 22.263 11.884 22.2377 11.8232 22.1768C11.7623 22.1159 11.7371 22.028 11.7563 21.9441L12.5307 18.5708C12.5412 18.525 12.5643 18.4831 12.5975 18.4499L16.5777 14.4688Z" fill="#000"/>
</svg>
