<svg width="24" height="24" viewBox="0 0 24 24" fill="none" xmlns="http://www.w3.org/2000/svg">
<path d="M9 2.25C6.10051 2.25 3.75 4.6005 3.75 7.5C3.75 10.3995 6.10051 12.75 9 12.75C11.8995 12.75 14.25 10.3995 14.25 7.5C14.25 4.6005 11.8995 2.25 9 2.25Z" fill="#000"/>
<path d="M9.00047 14.25C4.7345 14.25 0.82425 16.927 0.257543 20.8939C0.226795 21.1092 0.290961 21.3272 0.433414 21.4914C0.575867 21.6557 0.782586 21.75 1 21.75H17C17.2174 21.75 17.4241 21.6557 17.5666 21.4914C17.709 21.3272 17.7732 21.1092 17.7425 20.8939C17.1758 16.9271 13.2666 14.25 9.00047 14.25Z" fill="#000"/>
<path d="M23.5303 14.5302C23.2374 14.8231 22.7626 14.8231 22.4697 14.5302L20.5 12.5605L18.5303 14.5302C18.2374 14.8231 17.7626 14.8231 17.4697 14.5302C17.1768 14.2373 17.1768 13.7624 17.4697 13.4695L19.4393 11.4999L17.4697 9.53025C17.1768 9.23735 17.1768 8.76248 17.4697 8.46959C17.7626 8.17669 18.2375 8.17669 18.5304 8.46959L20.5 10.4392L22.4696 8.46958C22.7625 8.17669 23.2374 8.17669 23.5303 8.46958C23.8232 8.76247 23.8232 9.23735 23.5303 9.53024L21.5607 11.4999L23.5303 13.4696C23.8232 13.7625 23.8232 14.2373 23.5303 14.5302Z" fill="#000"/>
</svg>
