<svg width="24" height="24" viewBox="0 0 24 24" fill="none" xmlns="http://www.w3.org/2000/svg">
<path d="M3.75 7.5C3.75 4.6005 6.1005 2.25 9 2.25C11.8995 2.25 14.25 4.6005 14.25 7.5C14.25 10.3995 11.8995 12.75 9 12.75C6.1005 12.75 3.75 10.3995 3.75 7.5Z" fill="#000"/>
<path d="M0.257543 20.8939C0.82425 16.927 4.7345 14.25 9.00047 14.25C13.2666 14.25 17.1758 16.9271 17.7425 20.8939C17.7732 21.1092 17.709 21.3272 17.5666 21.4914C17.4241 21.6557 17.2174 21.75 17 21.75H1C0.782586 21.75 0.575867 21.6557 0.433414 21.4914C0.290961 21.3272 0.226795 21.1092 0.257543 20.8939Z" fill="#000"/>
<path d="M23 12.75C23.4142 12.75 23.75 12.4142 23.75 12C23.75 11.5858 23.4142 11.25 23 11.25H17C16.5858 11.25 16.25 11.5858 16.25 12C16.25 12.4142 16.5858 12.75 17 12.75H23Z" fill="#000"/>
</svg>
