<svg width="24" height="24" viewBox="0 0 24 24" fill="none" xmlns="http://www.w3.org/2000/svg">
<path d="M8 2.75C5.51471 2.75 3.5 4.76474 3.5 7.25004C3.5 9.73533 5.51471 11.7501 8 11.7501C10.4853 11.7501 12.5 9.73533 12.5 7.25004C12.5 4.76474 10.4853 2.75 8 2.75Z" fill="#000"/>
<path d="M17.5003 13.25C16.6156 13.25 15.7858 13.4222 15.0382 13.7262C14.8036 13.8216 14.633 14.0289 14.5845 14.2775C14.5361 14.5261 14.6164 14.7824 14.798 14.9588C15.9913 16.1183 16.8166 17.564 17.1204 19.1418C17.1884 19.4949 17.4974 19.75 17.8569 19.75H23C23.4142 19.75 23.75 19.4142 23.75 19C23.75 16.0566 21.0648 13.25 17.5003 13.25Z" fill="#000"/>
<path d="M8.00041 13.75C3.61176 13.75 0.25 17.0165 0.25 20.5C0.25 20.9142 0.585786 21.25 1 21.25H15C15.4142 21.25 15.75 20.9142 15.75 20.5C15.75 17.0166 12.3892 13.75 8.00041 13.75Z" fill="#000"/>
<path d="M17.5 4.75C15.567 4.75 14 6.31701 14 8.25C14 10.183 15.567 11.75 17.5 11.75C19.4329 11.75 20.9999 10.183 20.9999 8.25C20.9999 6.31701 19.4329 4.75 17.5 4.75Z" fill="#000"/>
</svg>
