<svg width="24" height="24" viewBox="0 0 24 24" fill="none" xmlns="http://www.w3.org/2000/svg">
<path fill-rule="evenodd" clip-rule="evenodd" d="M17 3.25C17 2.2835 17.7835 1.5 18.75 1.5H20.75C21.7165 1.5 22.5 2.2835 22.5 3.25V5.25C22.5 6.2165 21.7165 7 20.75 7H20.5V17H20.75C21.7165 17 22.5 17.7835 22.5 18.75V20.75C22.5 21.7165 21.7165 22.5 20.75 22.5H18.75C17.7835 22.5 17 21.7165 17 20.75V20.5H7V20.75C7 21.7165 6.2165 22.5 5.25 22.5H3.25C2.2835 22.5 1.5 21.7165 1.5 20.75V18.75C1.5 17.7835 2.2835 17 3.25 17H3.5V7H3.25C2.2835 7 1.5 6.2165 1.5 5.25V3.25C1.5 2.2835 2.2835 1.5 3.25 1.5H5.25C6.2165 1.5 7 2.2835 7 3.25V3.5H17V3.25ZM17 5H7V5.25C7 6.2165 6.2165 7 5.25 7H5V17H5.25C6.2165 17 7 17.7835 7 18.75V19H17V18.75C17 17.7835 17.7835 17 18.75 17H19V7H18.75C17.7835 7 17 6.2165 17 5.25V5Z" fill="#000"/>
</svg>
