<svg width="24" height="24" viewBox="0 0 24 24" fill="none" xmlns="http://www.w3.org/2000/svg">
<path d="M2.53039 1.46967C2.2375 1.17678 1.76262 1.17678 1.46973 1.46967C1.17684 1.76256 1.17684 2.23744 1.46973 2.53033L2.87726 3.93786C2.67475 3.99281 2.48226 4.0646 2.29754 4.15873C1.59193 4.51825 1.01825 5.09193 0.658726 5.79754C0.432386 6.24175 0.338026 6.7219 0.293364 7.26853C0.249988 7.79944 0.249993 8.45506 0.25 9.26789V14.7321C0.249993 15.5449 0.249988 16.2006 0.293364 16.7315C0.338026 17.2781 0.432386 17.7582 0.658726 18.2025C1.01825 18.9081 1.59193 19.4818 2.29754 19.8413C2.74176 20.0676 3.2219 20.162 3.76853 20.2066C4.29944 20.25 4.95505 20.25 5.76788 20.25H12.2321C13.045 20.25 13.7006 20.25 14.2315 20.2066C14.7781 20.162 15.2582 20.0676 15.7025 19.8413C16.3642 19.5041 16.91 18.9785 17.2718 18.3324L21.4697 22.5303C21.7626 22.8232 22.2375 22.8232 22.5304 22.5303C22.8233 22.2374 22.8233 21.7626 22.5304 21.4697L2.53039 1.46967Z" fill="#000"/>
<path d="M14.2315 3.79336C14.7781 3.83803 15.2582 3.93239 15.7025 4.15873C16.4081 4.51825 16.9818 5.09193 17.3413 5.79754C17.5676 6.24175 17.662 6.7219 17.7066 7.26853C17.75 7.79944 17.75 8.45505 17.75 9.26788V12.9999C17.75 13.3033 17.5673 13.5768 17.287 13.6928C17.0068 13.8089 16.6842 13.7448 16.4697 13.5303L7.96973 5.03033C7.75523 4.81583 7.69107 4.49324 7.80715 4.21299C7.92324 3.93273 8.19671 3.75 8.50006 3.75H12.2321C13.0449 3.74999 13.7006 3.74999 14.2315 3.79336Z" fill="#000"/>
<path d="M19.0595 15.4296C18.8618 15.2409 18.75 14.9795 18.75 14.7062V9.29324C18.75 9.01996 18.8618 8.75858 19.0595 8.56988L21.3869 6.34829C22.1824 5.589 23.5 6.15282 23.5 7.25249V16.747C23.5 17.8467 22.1824 18.4105 21.3869 17.6512L19.0595 15.4296Z" fill="#000"/>
</svg>
