<svg width="24" height="24" viewBox="0 0 24 24" fill="none" xmlns="http://www.w3.org/2000/svg">
<path d="M5.7679 3.75H12.2321C13.0449 3.74999 13.7006 3.74999 14.2315 3.79336C14.7781 3.83803 15.2582 3.93239 15.7025 4.15873C16.4081 4.51825 16.9818 5.09193 17.3413 5.79754C17.5676 6.24175 17.662 6.7219 17.7066 7.26853C17.75 7.79944 17.75 8.45505 17.75 9.26788V14.7321C17.75 15.545 17.75 16.2006 17.7066 16.7315C17.662 17.2781 17.5676 17.7582 17.3413 18.2025C16.9818 18.9081 16.4081 19.4817 15.7025 19.8413C15.2582 20.0676 14.7781 20.162 14.2315 20.2066C13.7006 20.25 13.045 20.25 12.2321 20.25H5.76788C4.95505 20.25 4.29944 20.25 3.76853 20.2066C3.2219 20.162 2.74175 20.0676 2.29754 19.8413C1.59193 19.4817 1.01825 18.9081 0.658726 18.2025C0.432386 17.7582 0.338026 17.2781 0.293364 16.7315C0.249987 16.2006 0.249993 15.545 0.25 14.7321V9.2679C0.249993 8.45506 0.249987 7.79944 0.293364 7.26853C0.338026 6.7219 0.432386 6.24175 0.658726 5.79754C1.01825 5.09193 1.59193 4.51825 2.29754 4.15873C2.74175 3.93239 3.2219 3.83803 3.76853 3.79336C4.29944 3.74999 4.95506 3.74999 5.7679 3.75Z" fill="#000"/>
<path d="M18.75 14.7062C18.75 14.9795 18.8618 15.2409 19.0595 15.4296L21.3869 17.6512C22.1824 18.4105 23.5 17.8467 23.5 16.747V7.25249C23.5 6.15282 22.1824 5.589 21.3869 6.34829L19.0595 8.56988C18.8618 8.75858 18.75 9.01996 18.75 9.29324V14.7062Z" fill="#000"/>
</svg>
