<svg width="24" height="24" viewBox="0 0 24 24" fill="none" xmlns="http://www.w3.org/2000/svg">
<path d="M2.53033 1.46967C2.23744 1.17678 1.76256 1.17678 1.46967 1.46967C1.17678 1.76256 1.17678 2.23744 1.46967 2.53033L6.13843 7.19909C6.10711 7.20949 6.07526 7.21834 6.04298 7.2256C5.95342 7.24576 5.851 7.25 5.4175 7.25L3.8711 7.25C3.47574 7.24999 3.13466 7.24997 2.85373 7.27293C2.55722 7.29715 2.26231 7.35064 1.97852 7.49524C1.55516 7.71095 1.21095 8.05516 0.995237 8.47852C0.850642 8.76231 0.797155 9.05722 0.772929 9.35373C0.749977 9.63465 0.749988 9.97571 0.750001 10.3711V13.6289C0.749988 14.0243 0.749977 14.3653 0.772929 14.6463C0.797155 14.9428 0.850642 15.2377 0.995237 15.5215C1.21095 15.9448 1.55516 16.289 1.97852 16.5048C2.26231 16.6494 2.55722 16.7028 2.85373 16.7271C3.13466 16.75 3.47572 16.75 3.87108 16.75H5.4175C5.851 16.75 5.95342 16.7542 6.04298 16.7744C6.13913 16.796 6.23156 16.8318 6.31726 16.8804C6.39708 16.9258 6.47573 16.9915 6.79648 17.2831L11.186 21.2736C11.5232 21.5802 11.9625 21.75 12.4182 21.75C13.4299 21.75 14.25 20.9299 14.25 19.9182V15.3107L21.4697 22.5303C21.7626 22.8232 22.2374 22.8232 22.5303 22.5303C22.8232 22.2374 22.8232 21.7626 22.5303 21.4697L2.53033 1.46967Z" fill="#000"/>
<path d="M11.186 2.72637C11.5232 2.41985 11.9625 2.25 12.4182 2.25C13.4299 2.25 14.25 3.07012 14.25 4.08178V9.50001C14.25 9.80335 14.0673 10.0768 13.787 10.1929C13.5068 10.309 13.1842 10.2448 12.9697 10.0303L8.85062 5.91128C8.70559 5.76625 8.62629 5.56816 8.63117 5.36311C8.63604 5.15807 8.72468 4.96397 8.87645 4.826L11.186 2.72637Z" fill="#000"/>
<path d="M17.9003 3.54954C18.1491 3.21836 18.6193 3.15156 18.9505 3.40034C21.5595 5.36028 23.25 8.48258 23.25 12C23.25 14.0024 22.7018 15.879 21.7469 17.4854C21.5353 17.8415 21.0751 17.9586 20.719 17.7469C20.363 17.5353 20.2459 17.0751 20.4575 16.719C21.2784 15.338 21.75 13.7252 21.75 12C21.75 8.97446 20.2979 6.28858 18.0495 4.59966C17.7184 4.35087 17.6516 3.88072 17.9003 3.54954Z" fill="#000"/>
<path d="M15.9412 7.02765C16.2174 6.719 16.6915 6.69274 17.0002 6.96898C18.3799 8.20388 19.25 10.0008 19.25 12C19.25 12.8367 19.0974 13.6394 18.818 14.3807C18.6719 14.7683 18.2392 14.9641 17.8516 14.818C17.464 14.6719 17.2683 14.2392 17.4144 13.8516C17.6311 13.2768 17.75 12.6532 17.75 12C17.75 10.4452 17.0751 9.04907 15.9998 8.08668C15.6912 7.81044 15.6649 7.33629 15.9412 7.02765Z" fill="#000"/>
</svg>
