<svg width="24" height="24" viewBox="0 0 24 24" fill="none" xmlns="http://www.w3.org/2000/svg">
<path d="M12.4182 2.25C11.9625 2.25 11.5232 2.41985 11.186 2.72637L6.79648 6.71688C6.47572 7.00848 6.39708 7.07424 6.31725 7.11957C6.23155 7.16823 6.13913 7.20397 6.04298 7.2256C5.95342 7.24576 5.851 7.25 5.4175 7.25L3.8711 7.25C3.47574 7.24999 3.13466 7.24997 2.85373 7.27293C2.55722 7.29715 2.26231 7.35064 1.97852 7.49524C1.55516 7.71095 1.21095 8.05516 0.995237 8.47852C0.850641 8.76231 0.797154 9.05722 0.772929 9.35373C0.749976 9.63465 0.749987 9.97572 0.750001 10.3711V13.6289C0.749987 14.0243 0.749976 14.3653 0.772929 14.6463C0.797154 14.9428 0.850641 15.2377 0.995237 15.5215C1.21095 15.9448 1.55516 16.289 1.97852 16.5048C2.26231 16.6494 2.55722 16.7028 2.85373 16.7271C3.13466 16.75 3.47572 16.75 3.87108 16.75H5.4175C5.851 16.75 5.95342 16.7542 6.04298 16.7744C6.13913 16.796 6.23156 16.8318 6.31725 16.8804C6.39708 16.9258 6.47573 16.9915 6.79648 17.2831L11.186 21.2736C11.5232 21.5802 11.9625 21.75 12.4182 21.75C13.4299 21.75 14.25 20.9299 14.25 19.9182V4.08178C14.25 3.07012 13.4299 2.25 12.4182 2.25Z" fill="#000"/>
<path d="M17.9004 3.54958C18.1491 3.2184 18.6193 3.15161 18.9505 3.40039C21.5595 5.36032 23.25 8.48263 23.25 12C23.25 15.5171 21.5603 18.6396 18.9515 20.5997C18.6203 20.8485 18.1502 20.7817 17.9014 20.4506C17.6526 20.1194 17.7193 19.6492 18.0505 19.4004C20.2984 17.7115 21.75 15.0254 21.75 12C21.75 8.9745 20.2979 6.28862 18.0496 4.5997C17.7184 4.35092 17.6516 3.88076 17.9004 3.54958Z" fill="#000"/>
<path d="M17.0002 6.96899C16.6915 6.69274 16.2174 6.71901 15.9412 7.02765C15.6649 7.3363 15.6912 7.81045 15.9998 8.08669C17.0751 9.04907 17.75 10.4452 17.75 12.0001C17.75 13.5549 17.0751 14.951 15.9998 15.9134C15.6912 16.1897 15.6649 16.6638 15.9412 16.9724C16.2174 17.2811 16.6915 17.3074 17.0002 17.0311C18.3799 15.7962 19.25 13.9992 19.25 12.0001C19.25 10.0009 18.3799 8.20389 17.0002 6.96899Z" fill="#000"/>
</svg>
