<svg width="24" height="24" viewBox="0 0 24 24" fill="none" xmlns="http://www.w3.org/2000/svg">
<path fill-rule="evenodd" clip-rule="evenodd" d="M19.2501 5.17145V5.7949C19.789 5.84018 20.2633 5.93495 20.7025 6.15873C21.4081 6.51825 21.9818 7.09193 22.3413 7.79754C22.5677 8.24175 22.662 8.7219 22.7067 9.26853C22.7501 9.79944 22.7501 10.455 22.7501 11.2679V17.2321C22.7501 18.045 22.7501 18.7006 22.7067 19.2315C22.662 19.7781 22.5677 20.2582 22.3413 20.7025C21.9818 21.4081 21.4081 21.9818 20.7025 22.3413C20.2583 22.5676 19.7782 22.662 19.2315 22.7066C18.7006 22.75 18.045 22.75 17.2322 22.75H6.76794C5.95511 22.75 5.2995 22.75 4.76859 22.7066C4.22196 22.662 3.74182 22.5676 3.2976 22.3413C2.59199 21.9818 2.01831 21.4081 1.65879 20.7025C1.43245 20.2582 1.33809 19.7781 1.29342 19.2315C1.25005 18.7006 1.25005 18.0449 1.25006 17.2321L1.25003 10.8279C1.24959 9.54493 1.24929 8.69428 1.53916 7.94905C1.79449 7.29265 2.20893 6.71 2.74524 6.25347C3.35414 5.73516 4.15781 5.45638 5.36996 5.0359L14.5686 1.84146C15.1671 1.6336 15.6638 1.4611 16.0726 1.35916C16.4923 1.25451 16.9138 1.19789 17.3377 1.3004C17.9625 1.45149 18.5051 1.83744 18.8528 2.37809C19.0887 2.74492 19.1735 3.16163 19.2123 3.59242C19.2501 4.01205 19.2501 4.53787 19.2501 5.17145ZM15.0276 3.26996C15.6677 3.04767 16.1002 2.89821 16.4356 2.81459C16.7675 2.73181 16.9093 2.74004 16.9851 2.75837C17.235 2.81881 17.4521 2.97319 17.5912 3.18945C17.6334 3.25507 17.6876 3.38629 17.7183 3.72704C17.7494 4.07124 17.7501 4.52891 17.7501 5.20651V5.75047C17.5851 5.75 17.4128 5.75 17.2328 5.75H7.88616L15.0276 3.26996ZM18.0001 13.25C17.4478 13.25 17.0001 13.6977 17.0001 14.25C17.0001 14.8023 17.4479 15.25 18.0002 15.25C18.5524 15.25 19.0002 14.8023 19.0002 14.25C19.0002 13.6977 18.5523 13.25 18.0001 13.25Z" fill="#000"/>
</svg>
