<svg width="24" height="24" viewBox="0 0 24 24" fill="none" xmlns="http://www.w3.org/2000/svg">
<path fill-rule="evenodd" clip-rule="evenodd" d="M11.0735 1.36274C11.6813 1.20778 12.3183 1.20778 12.9262 1.36274C13.6169 1.53882 14.2311 1.98148 15.1214 2.62312L20.5287 6.51641C21.1767 6.98268 21.625 7.30518 21.956 7.72924C22.2481 8.10354 22.4665 8.52991 22.5996 8.98569C22.7503 9.50208 22.7501 10.0543 22.7498 10.8527L22.7498 19.6288C22.7498 20.0241 22.7498 20.3652 22.7269 20.6462C22.7027 20.9427 22.6492 21.2376 22.5046 21.5214C22.2889 21.9447 21.9446 22.2889 21.5213 22.5046C21.2375 22.6492 20.9426 22.7027 20.6461 22.727C20.3652 22.7499 20.0241 22.7499 19.6288 22.7499C19.5085 22.7499 19.4484 22.7499 19.4011 22.7296C19.3422 22.7043 19.2953 22.6574 19.27 22.5985C19.2498 22.5513 19.2498 22.4911 19.2498 22.3708V12.4999C19.2498 11.5334 18.4663 10.7499 17.4998 10.7499H6.49976C5.53326 10.7499 4.74976 11.5334 4.74976 12.4999V22.371C4.74976 22.4911 4.74976 22.5512 4.72954 22.5984C4.70426 22.6574 4.65724 22.7044 4.59823 22.7297C4.55107 22.7499 4.49101 22.7499 4.37088 22.7499C3.97556 22.7499 3.63444 22.7499 3.35353 22.727C3.05702 22.7027 2.76211 22.6492 2.47833 22.5046C2.05496 22.2889 1.71075 21.9447 1.49504 21.5214C1.35044 21.2376 1.29696 20.9427 1.27273 20.6462C1.24978 20.3652 1.24979 20.0242 1.2498 19.6288L1.24978 10.8527C1.2495 10.0543 1.24931 9.50208 1.40005 8.98569C1.53311 8.52991 1.75151 8.10354 2.04364 7.72924C2.37463 7.30518 2.82286 6.98269 3.47094 6.51642L8.87823 2.62313C9.76852 1.98149 10.3827 1.53882 11.0735 1.36274ZM13.7498 6.99994C13.7498 7.41415 13.414 7.74994 12.9998 7.74994H10.9998C10.5855 7.74994 10.2498 7.41415 10.2498 6.99994C10.2498 6.58573 10.5855 6.24994 10.9998 6.24994H12.9998C13.414 6.24994 13.7498 6.58573 13.7498 6.99994Z" fill="#000"/>
<path d="M6.24976 22.7499H17.7498V20.2499H6.24976V22.7499Z" fill="#000"/>
<path d="M6.49976 12.2499C6.36168 12.2499 6.24976 12.3619 6.24976 12.4999V14.7499H17.7498V12.4999C17.7498 12.3619 17.6378 12.2499 17.4998 12.2499H6.49976Z" fill="#000"/>
<path d="M17.7498 16.2499H6.24976V18.7499H17.7498V16.2499Z" fill="#000"/>
</svg>
