<svg width="24" height="24" viewBox="0 0 24 24" fill="none" xmlns="http://www.w3.org/2000/svg">
<path d="M23 12.5011C23 13.0531 22.552 13.5011 22 13.5011H18.236C18.218 13.5011 18.161 13.5321 18.131 13.5901L16.91 15.9081C16.606 16.4851 15.988 16.8011 15.336 16.7231C14.687 16.6421 14.169 16.1821 14.018 15.5531L12.131 7.68906L10.104 18.7371C9.972 19.4531 9.367 19.9731 8.632 20.0001C8.611 20.0001 8.591 20.0011 8.571 20.0011C7.861 20.0011 7.248 19.5351 7.067 18.8491L5.691 13.6011C5.675 13.5401 5.636 13.5001 5.617 13.5001H2C1.448 13.5001 1 13.0521 1 12.5001C1 11.9481 1.448 11.5001 2 11.5001H5.615C6.552 11.5001 7.378 12.1551 7.624 13.0931L8.496 16.4151L10.542 5.26406C10.674 4.54206 11.285 4.02206 12.028 4.00106C12.773 3.97406 13.413 4.46606 13.586 5.18306L15.687 13.9381L16.361 12.6581C16.731 11.9551 17.467 11.5011 18.236 11.5011H22C22.552 11.5011 23 11.9491 23 12.5011Z" fill="#000"/>
</svg>
