<svg width="24" height="24" viewBox="0 0 24 24" fill="none" xmlns="http://www.w3.org/2000/svg">
<path d="M1.71424 9.1999C4.31491 6.54595 7.95036 5 12 5C16.0496 5 19.6851 6.54595 22.2858 9.1999C22.6723 9.59436 23.3054 9.60078 23.6999 9.21424C24.0944 8.8277 24.1008 8.19456 23.7142 7.8001C20.7246 4.74923 16.5686 3 12 3C7.43142 3 3.27537 4.74923 0.285759 7.8001C-0.100785 8.19456 -0.094364 8.8277 0.3001 9.21424C0.694565 9.60078 1.3277 9.59436 1.71424 9.1999Z" fill="#000"/>
<path d="M5.18716 12.7246C6.97755 11.0312 9.37037 10 11.999 10C14.6285 10 17.0221 11.0319 18.8127 12.7263C19.2138 13.1059 19.8467 13.0885 20.2263 12.6873C20.6059 12.2862 20.5885 11.6533 20.1873 11.2737C18.0436 9.24505 15.1645 8 11.999 8C8.83457 8 5.95632 9.24421 3.81284 11.2716C3.4116 11.6511 3.39399 12.284 3.7735 12.6853C4.15301 13.0865 4.78593 13.1041 5.18716 12.7246Z" fill="#000"/>
<path d="M8.93348 16.23C9.75602 15.4598 10.7763 15 11.9999 15C13.2235 15 14.244 15.4598 15.0665 16.23C15.4697 16.6074 16.1025 16.5866 16.48 16.1835C16.8574 15.7803 16.8366 15.1475 16.4335 14.77C15.2745 13.6849 13.7761 13 11.9999 13C10.2237 13 8.72547 13.6849 7.56652 14.77C7.16337 15.1475 7.14256 15.7803 7.52003 16.1835C7.89751 16.5866 8.53033 16.6074 8.93348 16.23Z" fill="#000"/>
<path d="M12 17.75C11.3096 17.75 10.75 18.3096 10.75 19C10.75 19.6904 11.3096 20.25 12 20.25C12.6904 20.25 13.2501 19.6904 13.2501 19C13.2501 18.3096 12.6904 17.75 12 17.75Z" fill="#000"/>
</svg>
