<svg width="24" height="24" viewBox="0 0 24 24" fill="none" xmlns="http://www.w3.org/2000/svg">
<g clip-path="url(#clip0_9002_8095)">
<path d="M1.70711 0.292893C1.31658 -0.0976311 0.683417 -0.0976311 0.292893 0.292893C-0.0976311 0.683417 -0.0976311 1.31658 0.292893 1.70711L3.73106 5.14527C2.46549 5.86668 1.30706 6.75788 0.285759 7.8001C-0.100785 8.19456 -0.0943639 8.8277 0.3001 9.21424C0.694565 9.60078 1.3277 9.59436 1.71424 9.1999C2.73296 8.16031 3.90913 7.29188 5.20535 6.61956L7.47928 8.89349C6.1129 9.45749 4.87295 10.2689 3.81284 11.2716C3.4116 11.6511 3.39399 12.284 3.7735 12.6853C4.15301 13.0865 4.78593 13.1041 5.18716 12.7246C6.27631 11.6945 7.58823 10.9098 9.03881 10.453L11.5977 13.0119C9.99673 13.107 8.63692 13.7678 7.56652 14.77C7.16337 15.1475 7.14256 15.7803 7.52003 16.1835C7.89751 16.5866 8.53033 16.6074 8.93348 16.23C9.75602 15.4598 10.7763 15 11.9999 15C12.8012 15 13.5072 15.1967 14.1249 15.5391L22.2929 23.7071C22.6834 24.0976 23.3166 24.0976 23.7071 23.7071C24.0976 23.3166 24.0976 22.6834 23.7071 22.2929L15.4608 14.0466C15.4508 14.0361 15.4405 14.0258 15.4299 14.0157L10.0512 8.637C10.0431 8.62858 10.0348 8.6203 10.0264 8.61218L6.13189 4.71768C6.12118 4.70646 6.11024 4.69551 6.09907 4.68485L1.70711 0.292893Z" fill="#000"/>
<path d="M12 5C10.8334 5 9.70185 5.12835 8.62026 5.37397C8.08169 5.49628 7.54594 5.15883 7.42364 4.62026C7.30133 4.08169 7.63878 3.54594 8.17735 3.42363C9.40625 3.14456 10.6864 3 12 3C16.5686 3 20.7246 4.74923 23.7142 7.8001C24.1008 8.19456 24.0944 8.8277 23.6999 9.21424C23.3054 9.60078 22.6723 9.59436 22.2858 9.1999C19.6851 6.54595 16.0496 5 12 5Z" fill="#000"/>
<path d="M12.055 8.95448C12.108 8.40475 12.5966 8.00204 13.1463 8.05501C15.8589 8.31639 18.3064 9.49369 20.1873 11.2737C20.5885 11.6533 20.6059 12.2862 20.2263 12.6873C19.8467 13.0885 19.2138 13.1059 18.8127 12.7263C17.2408 11.2389 15.2047 10.2626 12.9545 10.0458C12.4047 9.99282 12.002 9.50422 12.055 8.95448Z" fill="#000"/>
<path d="M10.75 19C10.75 18.3096 11.3096 17.75 12 17.75C12.6904 17.75 13.2501 18.3096 13.2501 19C13.2501 19.6904 12.6905 20.25 12.0001 20.25C11.3097 20.25 10.75 19.6904 10.75 19Z" fill="#000"/>
</g>
<defs>
<clipPath id="clip0_9002_8095">
<rect width="24" height="24" fill="white"/>
</clipPath>
</defs>
</svg>
