<svg width="24" height="24" viewBox="0 0 24 24" fill="none" xmlns="http://www.w3.org/2000/svg">
<path fill-rule="evenodd" clip-rule="evenodd" d="M5.86821 2.25H18.1318C18.8749 2.24999 19.478 2.24999 19.9673 2.28996C20.4722 2.33121 20.9215 2.41876 21.339 2.63148C21.9975 2.96703 22.533 3.50247 22.8685 4.16103C23.0812 4.57851 23.1688 5.02778 23.21 5.53273C23.25 6.02195 23.25 6.62515 23.25 7.36819V16.6319C23.25 17.3749 23.25 17.9781 23.21 18.4673C23.1688 18.9722 23.0812 19.4215 22.8685 19.839C22.533 20.4975 21.9975 21.033 21.339 21.3685C20.9215 21.5812 20.4722 21.6688 19.9673 21.71C19.4781 21.75 18.8748 21.75 18.1318 21.75H5.86811C5.12507 21.75 4.52195 21.75 4.03273 21.71C3.52778 21.6688 3.07851 21.5812 2.66103 21.3685C2.00247 21.033 1.46703 20.4975 1.13148 19.839C0.918762 19.4215 0.831214 18.9722 0.789958 18.4673C0.749986 17.978 0.749993 17.3749 0.75 16.6318V7.3682C0.749993 6.62512 0.749986 6.02196 0.789958 5.53273C0.831214 5.02778 0.918762 4.57851 1.13148 4.16103C1.46703 3.50247 2.00247 2.96703 2.66103 2.63148C3.07851 2.41876 3.52778 2.33121 4.03273 2.28996C4.52196 2.24999 5.12513 2.24999 5.86821 2.25ZM4.125 6.5C4.125 6.01675 4.51675 5.625 5 5.625C5.48325 5.625 5.8751 6.01675 5.8751 6.5C5.8751 6.98325 5.48335 7.375 5.0001 7.375C4.51685 7.375 4.125 6.98325 4.125 6.5ZM7.125 6.5C7.125 6.01675 7.51675 5.625 8 5.625C8.48325 5.625 8.8751 6.01675 8.8751 6.5C8.8751 6.98325 8.48335 7.375 8.0001 7.375C7.51685 7.375 7.125 6.98325 7.125 6.5ZM10.125 6.5C10.125 6.01675 10.5168 5.625 11 5.625C11.4832 5.625 11.8751 6.01675 11.8751 6.5C11.8751 6.98325 11.4832 7.375 11 7.375C10.5168 7.375 10.125 6.98325 10.125 6.5Z" fill="#000"/>
</svg>
