<svg width="24" height="24" viewBox="0 0 24 24" fill="none" xmlns="http://www.w3.org/2000/svg">
<path d="M13.5 14.5C11.8513 14.5 10.3682 15.6327 9.98422 17.1246C9.91539 17.3921 9.6428 17.553 9.37537 17.4842C9.10794 17.4154 8.94695 17.1428 9.01578 16.8754C9.51987 14.9168 11.421 13.5 13.5 13.5C15.5789 13.5 17.4801 14.9168 17.9842 16.8754C18.053 17.1428 17.8921 17.4154 17.6246 17.4842C17.3572 17.553 17.0846 17.3921 17.0158 17.1246C16.6318 15.6327 15.1487 14.5 13.5 14.5Z" fill="#000"/>
<path fill-rule="evenodd" clip-rule="evenodd" d="M13.5 6.5C11.9812 6.5 10.75 7.73122 10.75 9.25C10.75 10.7688 11.9812 12 13.5 12C15.0188 12 16.25 10.7688 16.25 9.25C16.25 7.73122 15.0188 6.5 13.5 6.5ZM11.75 9.25C11.75 8.2835 12.5335 7.5 13.5 7.5C14.4665 7.5 15.25 8.2835 15.25 9.25C15.25 10.2165 14.4665 11 13.5 11C12.5335 11 11.75 10.2165 11.75 9.25Z" fill="#000"/>
<path fill-rule="evenodd" clip-rule="evenodd" d="M16.4224 1H10.5776C9.61647 0.999997 8.86451 0.999995 8.26049 1.04935C7.64594 1.09956 7.14062 1.20334 6.68404 1.43597C5.93139 1.81947 5.31947 2.43139 4.93597 3.18404C4.70334 3.64062 4.59956 4.14594 4.54935 4.76049C4.49999 5.36451 4.5 6.11646 4.5 7.07755V16.9224C4.5 17.8835 4.49999 18.6355 4.54935 19.2395C4.59956 19.8541 4.70334 20.3594 4.93597 20.816C5.31947 21.5686 5.93139 22.1805 6.68404 22.564C7.14062 22.7967 7.64594 22.9004 8.26049 22.9507C8.86451 23 9.61646 23 10.5775 23H16.4225C17.3835 23 18.1355 23 18.7395 22.9507C19.3541 22.9004 19.8594 22.7967 20.316 22.564C21.0686 22.1805 21.6805 21.5686 22.064 20.816C22.2967 20.3594 22.4004 19.8541 22.4507 19.2395C22.5 18.6355 22.5 17.8835 22.5 16.9225V7.07754C22.5 6.11646 22.5 5.36451 22.4507 4.76049C22.4004 4.14594 22.2967 3.64062 22.064 3.18404C21.6805 2.43139 21.0686 1.81947 20.316 1.43597C19.8594 1.20334 19.3541 1.09956 18.7395 1.04935C18.1355 0.999995 17.3835 0.999997 16.4224 1ZM7.13803 2.32698C7.43014 2.17814 7.78921 2.09118 8.34192 2.04602C8.90047 2.00039 9.61166 2 10.6 2H16.4C17.3883 2 18.0995 2.00039 18.6581 2.04602C19.2108 2.09118 19.5699 2.17814 19.862 2.32698C20.4265 2.6146 20.8854 3.07354 21.173 3.63803C21.3219 3.93014 21.4088 4.28921 21.454 4.84192C21.4996 5.40047 21.5 6.11166 21.5 7.1V16.9C21.5 17.8883 21.4996 18.5995 21.454 19.1581C21.4088 19.7108 21.3219 20.0699 21.173 20.362C20.8854 20.9265 20.4265 21.3854 19.862 21.673C19.5699 21.8219 19.2108 21.9088 18.6581 21.954C18.0995 21.9996 17.3883 22 16.4 22H10.6C9.61166 22 8.90047 21.9996 8.34192 21.954C7.78921 21.9088 7.43014 21.8219 7.13803 21.673C6.57354 21.3854 6.1146 20.9265 5.82698 20.362C5.67814 20.0699 5.59118 19.7108 5.54602 19.1581C5.50039 18.5995 5.5 17.8883 5.5 16.9V7.1C5.5 6.11166 5.50039 5.40047 5.54602 4.84192C5.59118 4.28921 5.67814 3.93014 5.82698 3.63803C6.1146 3.07354 6.57354 2.6146 7.13803 2.32698Z" fill="#000"/>
<path d="M2.5 5C2.5 4.72386 2.27614 4.5 2 4.5C1.72386 4.5 1.5 4.72386 1.5 5V7.5C1.5 7.77614 1.72386 8 2 8C2.27614 8 2.5 7.77614 2.5 7.5V5Z" fill="#000"/>
<path d="M2.5 10.75C2.5 10.4739 2.27614 10.25 2 10.25C1.72386 10.25 1.5 10.4739 1.5 10.75V13.25C1.5 13.5261 1.72386 13.75 2 13.75C2.27614 13.75 2.5 13.5261 2.5 13.25V10.75Z" fill="#000"/>
<path d="M2 16C2.27614 16 2.5 16.2239 2.5 16.5V19C2.5 19.2761 2.27614 19.5 2 19.5C1.72386 19.5 1.5 19.2761 1.5 19V16.5C1.5 16.2239 1.72386 16 2 16Z" fill="#000"/>
</svg>
