<svg width="24" height="24" viewBox="0 0 24 24" fill="none" xmlns="http://www.w3.org/2000/svg">
<path d="M4.80001 2.5C5.15368 2.5 5.48739 2.57948 5.78547 2.72108C6.0349 2.83957 6.33315 2.73343 6.45164 2.484C6.57014 2.23457 6.46399 1.93631 6.21456 1.81782C5.78524 1.61387 5.30523 1.5 4.80001 1.5C2.97747 1.5 1.50002 2.97746 1.50002 4.8C1.50002 5.30521 1.61389 5.78522 1.81784 6.21455C1.93633 6.46397 2.23458 6.57012 2.48401 6.45163C2.73344 6.33314 2.83959 6.03488 2.7211 5.78545C2.57949 5.48737 2.50001 5.15367 2.50001 4.8C2.50001 3.52975 3.52976 2.5 4.80001 2.5Z" fill="#000"/>
<path d="M18.2146 2.72108C18.5126 2.57948 18.8463 2.5 19.2 2.5C20.4703 2.5 21.5 3.52975 21.5 4.8C21.5 5.15367 21.4205 5.48737 21.2789 5.78545C21.1604 6.03488 21.2666 6.33314 21.516 6.45163C21.7654 6.57012 22.0637 6.46397 22.1822 6.21455C22.3861 5.78522 22.5 5.30521 22.5 4.8C22.5 2.97746 21.0225 1.5 19.2 1.5C18.6948 1.5 18.2148 1.61387 17.7855 1.81782C17.536 1.93631 17.4299 2.23457 17.5484 2.484C17.6669 2.73343 17.9651 2.83957 18.2146 2.72108Z" fill="#000"/>
<path d="M12.5 7.5C12.5 7.22386 12.2762 7 12 7C11.7239 7 11.5 7.22386 11.5 7.5V12.5C11.5 12.6724 11.5888 12.8326 11.735 12.924L14.935 14.924C15.1692 15.0704 15.4777 14.9992 15.624 14.765C15.7704 14.5308 15.6992 14.2224 15.465 14.076L12.5 12.2229V7.5Z" fill="#000"/>
<path fill-rule="evenodd" clip-rule="evenodd" d="M12 3C6.7533 3 2.50001 7.25329 2.50001 12.5C2.50001 15.0707 3.52106 17.4029 5.17973 19.1132L2.64646 21.6464C2.45119 21.8417 2.45119 22.1583 2.64646 22.3536C2.84172 22.5488 3.1583 22.5488 3.35356 22.3536L5.91305 19.7941C7.56154 21.1712 9.68399 22 12 22C14.316 22 16.4385 21.1712 18.087 19.7941L20.6465 22.3536C20.8417 22.5488 21.1583 22.5488 21.3536 22.3536C21.5488 22.1583 21.5488 21.8417 21.3536 21.6464L18.8203 19.1132C20.479 17.4029 21.5 15.0707 21.5 12.5C21.5 7.25329 17.2467 3 12 3ZM3.50001 12.5C3.50001 7.80558 7.30559 4 12 4C16.6944 4 20.5 7.80558 20.5 12.5C20.5 17.1944 16.6944 21 12 21C7.30559 21 3.50001 17.1944 3.50001 12.5Z" fill="#000"/>
</svg>
