<svg width="24" height="24" viewBox="0 0 24 24" fill="none" xmlns="http://www.w3.org/2000/svg">
<path fill-rule="evenodd" clip-rule="evenodd" d="M2.35355 1.64645C2.15829 1.45118 1.84171 1.45118 1.64645 1.64645C1.45118 1.84171 1.45118 2.15829 1.64645 2.35355L2.13985 2.84696C1.73794 3.39365 1.50006 4.06935 1.50006 4.8C1.50006 5.30521 1.61393 5.78522 1.81788 6.21455C1.93637 6.46397 2.23463 6.57012 2.48406 6.45163C2.73349 6.33314 2.83963 6.03488 2.72114 5.78545C2.57954 5.48737 2.50006 5.15367 2.50006 4.8C2.50006 4.34567 2.63146 3.92251 2.85876 3.56587L5.17976 5.88687C3.52164 7.59668 2.50006 9.92936 2.50006 12.5C2.50006 15.0707 3.52111 17.4029 5.17979 19.1132L2.64651 21.6464C2.45125 21.8417 2.45125 22.1583 2.64651 22.3536C2.84177 22.5488 3.15835 22.5488 3.35361 22.3536L5.9131 19.7941C7.56159 21.1712 9.68404 22 12.0001 22C14.5707 22 16.9034 20.9784 18.6132 19.3203L21.6464 22.3536C21.8417 22.5488 22.1583 22.5488 22.3536 22.3536C22.5488 22.1583 22.5488 21.8417 22.3536 21.6464L18.9672 18.2601C18.9644 18.2572 18.9615 18.2543 18.9586 18.2515L6.24856 5.54146C6.24572 5.53855 6.24286 5.53568 6.23996 5.53286L3.17756 2.47046L3.1737 2.46656L3.16981 2.4627L2.35355 1.64645ZM5.88695 6.59406C4.40869 8.12377 3.50006 10.2055 3.50006 12.5C3.50006 17.1944 7.30564 21 12.0001 21C14.2946 21 16.3763 20.0914 17.906 18.6131L5.88695 6.59406Z" fill="#000"/>
<path d="M18.2146 2.72108C18.5127 2.57948 18.8464 2.5 19.2001 2.5C20.4703 2.5 21.5001 3.52975 21.5001 4.8C21.5001 5.15367 21.4206 5.48737 21.279 5.78545C21.1605 6.03488 21.2666 6.33314 21.5161 6.45163C21.7655 6.57012 22.0637 6.46398 22.1822 6.21455C22.3862 5.78522 22.5001 5.30521 22.5001 4.8C22.5001 2.97746 21.0226 1.5 19.2001 1.5C18.6948 1.5 18.2148 1.61387 17.7855 1.81782C17.5361 1.93631 17.4299 2.23457 17.5484 2.484C17.6669 2.73343 17.9652 2.83957 18.2146 2.72108Z" fill="#000"/>
<path d="M8.50146 4.75097C9.56783 4.26871 10.7519 4 12.0001 4C16.6945 4 20.5001 7.80558 20.5001 12.5C20.5001 13.7482 20.2313 14.9322 19.7491 15.9986C19.6353 16.2502 19.747 16.5464 19.9986 16.6602C20.2502 16.774 20.5465 16.6623 20.6602 16.4107C21.1999 15.2174 21.5001 13.8931 21.5001 12.5C21.5001 7.25329 17.2468 3 12.0001 3C10.607 3 9.28269 3.30016 8.0894 3.83981C7.83779 3.9536 7.72607 4.24981 7.83986 4.50142C7.95364 4.75303 8.24986 4.86476 8.50146 4.75097Z" fill="#000"/>
</svg>
