<svg width="24" height="24" viewBox="0 0 24 24" fill="none" xmlns="http://www.w3.org/2000/svg">
<path d="M10.6464 8.35355C10.4512 8.15829 10.4512 7.84171 10.6464 7.64645C10.8417 7.45118 11.1583 7.45118 11.3536 7.64645L15.3536 11.6464C15.4473 11.7402 15.5 11.8674 15.5 12C15.5 12.1326 15.4473 12.2598 15.3536 12.3536L11.3536 16.3536C11.1583 16.5488 10.8417 16.5488 10.6464 16.3536C10.4512 16.1583 10.4512 15.8417 10.6464 15.6464L14.2929 12L10.6464 8.35355Z" fill="#000"/>
<path fill-rule="evenodd" clip-rule="evenodd" d="M12 0.5C5.64873 0.5 0.5 5.64873 0.5 12C0.5 18.3513 5.64873 23.5 12 23.5C18.3513 23.5 23.5 18.3513 23.5 12C23.5 5.64873 18.3513 0.5 12 0.5ZM1.5 12C1.5 6.20101 6.20101 1.5 12 1.5C17.799 1.5 22.5 6.20101 22.5 12C22.5 17.799 17.799 22.5 12 22.5C6.20101 22.5 1.5 17.799 1.5 12Z" fill="#000"/>
</svg>
