<svg width="24" height="24" viewBox="0 0 24 24" fill="none" xmlns="http://www.w3.org/2000/svg">
<path d="M12.3536 4.35355C12.5488 4.15829 12.5488 3.84171 12.3536 3.64645C12.1583 3.45118 11.8417 3.45118 11.6464 3.64645L3.64645 11.6464C3.45118 11.8417 3.45118 12.1583 3.64645 12.3536L11.6464 20.3536C11.8417 20.5488 12.1583 20.5488 12.3536 20.3536C12.5488 20.1583 12.5488 19.8417 12.3536 19.6464L4.70711 12L12.3536 4.35355Z" fill="#000"/>
<path d="M20.3536 4.35355C20.5488 4.15829 20.5488 3.84171 20.3536 3.64645C20.1583 3.45118 19.8417 3.45118 19.6464 3.64645L11.6464 11.6464C11.4512 11.8417 11.4512 12.1583 11.6464 12.3536L19.6464 20.3536C19.8417 20.5488 20.1583 20.5488 20.3536 20.3536C20.5488 20.1583 20.5488 19.8417 20.3536 19.6464L12.7071 12L20.3536 4.35355Z" fill="#000"/>
</svg>
