<svg width="24" height="24" viewBox="0 0 24 24" fill="none" xmlns="http://www.w3.org/2000/svg">
<path d="M11.6464 4.35355C11.4512 4.15829 11.4512 3.84171 11.6464 3.64645C11.8417 3.45118 12.1583 3.45118 12.3536 3.64645L20.3536 11.6464C20.5488 11.8417 20.5488 12.1583 20.3536 12.3536L12.3536 20.3536C12.1583 20.5488 11.8417 20.5488 11.6464 20.3536C11.4512 20.1583 11.4512 19.8417 11.6464 19.6464L19.2929 12L11.6464 4.35355Z" fill="#000"/>
<path d="M3.64645 4.35355C3.45118 4.15829 3.45118 3.84171 3.64645 3.64645C3.84171 3.45118 4.15829 3.45118 4.35355 3.64645L12.3536 11.6464C12.5488 11.8417 12.5488 12.1583 12.3536 12.3536L4.35355 20.3536C4.15829 20.5488 3.84171 20.5488 3.64645 20.3536C3.45118 20.1583 3.45118 19.8417 3.64645 19.6464L11.2929 12L3.64645 4.35355Z" fill="#000"/>
</svg>
