<svg width="24" height="24" viewBox="0 0 24 24" fill="none" xmlns="http://www.w3.org/2000/svg">
<path d="M14 12.5C14.2761 12.5 14.5 12.2761 14.5 12C14.5 11.7239 14.2761 11.5 14 11.5H10C9.72386 11.5 9.5 11.7239 9.5 12C9.5 12.2761 9.72386 12.5 10 12.5H14Z" fill="#000"/>
<path fill-rule="evenodd" clip-rule="evenodd" d="M4.37935 2.5H19.6207C20.0231 2.49999 20.3553 2.49999 20.6259 2.5221C20.907 2.54506 21.1653 2.59434 21.408 2.71799C21.7843 2.90973 22.0903 3.2157 22.282 3.59202C22.4057 3.83469 22.4549 4.09304 22.4779 4.37409C22.5 4.64467 22.5 4.97683 22.5 5.37928V5.62066C22.5 6.02312 22.5 6.35533 22.4779 6.62591C22.4549 6.90696 22.4057 7.16531 22.282 7.40798C22.0903 7.78431 21.7843 8.09027 21.408 8.28201C21.2769 8.34879 21.1413 8.39387 21 8.42484V16.2222C21 17.0435 21 17.6905 20.9575 18.2111C20.9141 18.7423 20.8239 19.1859 20.6185 19.589C20.283 20.2475 19.7475 20.783 19.089 21.1185C18.6859 21.3239 18.2423 21.4141 17.7111 21.4575C17.1905 21.5 16.5435 21.5 15.7223 21.5H8.27778C7.45656 21.5 6.80952 21.5 6.28889 21.4575C5.75771 21.4141 5.31414 21.3239 4.91103 21.1185C4.25247 20.783 3.71703 20.2475 3.38148 19.589C3.17609 19.1859 3.08593 18.7423 3.04253 18.2111C2.99999 17.6905 3 17.0435 3 16.2222L3 8.42484C2.8587 8.39387 2.72307 8.34879 2.59202 8.28201C2.2157 8.09027 1.90973 7.78431 1.71799 7.40798C1.59434 7.16531 1.54506 6.90696 1.5221 6.62591C1.49999 6.35532 1.49999 6.02314 1.5 5.62066V5.37935C1.49999 4.97687 1.49999 4.64468 1.5221 4.37409C1.54506 4.09304 1.59434 3.83469 1.71799 3.59202C1.90973 3.2157 2.2157 2.90973 2.59202 2.71799C2.83469 2.59434 3.09304 2.54506 3.37409 2.5221C3.64468 2.49999 3.97687 2.49999 4.37935 2.5ZM19.6206 8.5C19.7548 8.5 19.8811 8.5 20 8.49919V16.2C20 17.0483 19.9996 17.6545 19.9608 18.1297C19.9224 18.599 19.8491 18.8963 19.7275 19.135C19.4878 19.6054 19.1054 19.9878 18.635 20.2275C18.3963 20.3491 18.099 20.4224 17.6297 20.4608C17.1545 20.4996 16.5483 20.5 15.7 20.5H8.3C7.45167 20.5 6.84549 20.4996 6.37032 20.4608C5.90099 20.4224 5.60366 20.3491 5.36502 20.2275C4.89462 19.9878 4.51217 19.6054 4.27248 19.135C4.15089 18.8963 4.07756 18.599 4.03921 18.1297C4.00039 17.6545 4 17.0483 4 16.2V8.49919C4.11886 8.5 4.24521 8.5 4.37936 8.5H19.6206ZM3.45552 3.51878C3.23631 3.53669 3.12421 3.56915 3.04601 3.60899C2.85785 3.70487 2.70487 3.85785 2.60899 4.04601C2.56915 4.12421 2.53669 4.23631 2.51878 4.45552C2.50039 4.68056 2.5 4.97171 2.5 5.4V5.6C2.5 6.02829 2.50039 6.31944 2.51878 6.54448C2.53669 6.76369 2.56915 6.87579 2.60899 6.95399C2.70487 7.14215 2.85785 7.29513 3.04601 7.39101C3.12421 7.43085 3.23631 7.46331 3.45552 7.48122C3.68056 7.49961 3.97171 7.5 4.4 7.5H19.6C20.0283 7.5 20.3194 7.49961 20.5445 7.48122C20.7637 7.46331 20.8758 7.43085 20.954 7.39101C21.1422 7.29513 21.2951 7.14215 21.391 6.95399C21.4309 6.87579 21.4633 6.76369 21.4812 6.54448C21.4996 6.31944 21.5 6.02829 21.5 5.6V5.4C21.5 4.97171 21.4996 4.68056 21.4812 4.45552C21.4633 4.23631 21.4309 4.12421 21.391 4.04601C21.2951 3.85785 21.1422 3.70487 20.954 3.60899C20.8758 3.56915 20.7637 3.53669 20.5445 3.51878C20.3194 3.50039 20.0283 3.5 19.6 3.5H4.4C3.97171 3.5 3.68056 3.50039 3.45552 3.51878Z" fill="#000"/>
</svg>
