<svg width="24" height="24" viewBox="0 0 24 24" fill="none" xmlns="http://www.w3.org/2000/svg">
<path d="M17.6997 4.39907C16.112 3.20648 14.1392 2.5 12 2.5C6.75329 2.5 2.5 6.75329 2.5 12C2.5 17.2467 6.75329 21.5 12 21.5C16.253 21.5 19.8545 18.7049 21.0652 14.8502C21.1479 14.5867 21.4286 14.4402 21.692 14.523C21.9555 14.6057 22.102 14.8864 22.0192 15.1498C20.6814 19.4093 16.7023 22.5 12 22.5C6.20101 22.5 1.5 17.799 1.5 12C1.5 6.20101 6.20101 1.5 12 1.5C14.3632 1.5 16.5454 2.28131 18.3003 3.5995C19.0259 4.14448 19.802 4.92335 20.4607 5.6841C20.8511 6.135 21.2105 6.59144 21.5 7.00218V2.5C21.5 2.22386 21.7238 2 22 2C22.2761 2 22.5 2.22386 22.5 2.5V8C22.5 8.27614 22.2761 8.5 22 8.5H21.5524C21.5459 8.50013 21.5394 8.50013 21.5328 8.5H16.5C16.2238 8.5 16 8.27614 16 8C16 7.72386 16.2238 7.5 16.5 7.5H20.627C20.3736 7.14673 20.0576 6.74632 19.7047 6.33867C19.0711 5.6069 18.3472 4.88541 17.6997 4.39907Z" fill="#000"/>
</svg>
