<svg width="24" height="24" viewBox="0 0 24 24" fill="none" xmlns="http://www.w3.org/2000/svg">
<path d="M16.3536 12.6464C16.1583 12.4512 15.8417 12.4512 15.6464 12.6464L12.5 15.7929V7C12.5 6.72386 12.2761 6.5 12 6.5C11.7239 6.5 11.5 6.72386 11.5 7V15.7929L8.35355 12.6464C8.15829 12.4512 7.84171 12.4512 7.64645 12.6464C7.45119 12.8417 7.45119 13.1583 7.64645 13.3536L11.6464 17.3536C11.7402 17.4473 11.8674 17.5 12 17.5C12.1326 17.5 12.2598 17.4473 12.3536 17.3536L16.3536 13.3536C16.5488 13.1583 16.5488 12.8417 16.3536 12.6464Z" fill="#000"/>
<path fill-rule="evenodd" clip-rule="evenodd" d="M8.37737 1.5H15.6226C16.7236 1.5 17.5805 1.5 18.2679 1.55616C18.9658 1.61318 19.5329 1.73058 20.043 1.99047C20.8897 2.4219 21.5781 3.11031 22.0095 3.95704C22.2694 4.4671 22.3868 5.03416 22.4438 5.73209C22.5 6.41947 22.5 7.27639 22.5 8.37733V15.6226C22.5 16.7236 22.5 17.5805 22.4438 18.2679C22.3868 18.9658 22.2694 19.5329 22.0095 20.043C21.5781 20.8897 20.8897 21.5781 20.043 22.0095C19.5329 22.2694 18.9658 22.3868 18.2679 22.4438C17.5805 22.5 16.7236 22.5 15.6226 22.5H8.37747C7.27648 22.5 6.4195 22.5 5.73209 22.4438C5.03416 22.3868 4.4671 22.2694 3.95704 22.0095C3.11031 21.5781 2.4219 20.8897 1.99047 20.043C1.73058 19.5329 1.61318 18.9658 1.55616 18.2679C1.5 17.5805 1.5 16.7236 1.5 15.6227V8.37737C1.5 7.27644 1.5 6.41947 1.55616 5.73209C1.61318 5.03416 1.73058 4.4671 1.99047 3.95704C2.4219 3.11031 3.11031 2.4219 3.95704 1.99047C4.4671 1.73058 5.03416 1.61318 5.73209 1.55616C6.41947 1.5 7.27644 1.5 8.37737 1.5ZM5.81352 2.55284C5.17744 2.60481 4.75662 2.70539 4.41103 2.88148C3.75247 3.21703 3.21703 3.75247 2.88148 4.41103C2.70539 4.75662 2.60481 5.17744 2.55284 5.81352C2.50039 6.45545 2.5 7.27164 2.5 8.4V15.6C2.5 16.7284 2.50039 17.5446 2.55284 18.1865C2.60481 18.8226 2.70539 19.2434 2.88148 19.589C3.21703 20.2475 3.75247 20.783 4.41103 21.1185C4.75662 21.2946 5.17744 21.3952 5.81352 21.4472C6.45545 21.4996 7.27164 21.5 8.4 21.5H15.6C16.7284 21.5 17.5446 21.4996 18.1865 21.4472C18.8226 21.3952 19.2434 21.2946 19.589 21.1185C20.2475 20.783 20.783 20.2475 21.1185 19.589C21.2946 19.2434 21.3952 18.8226 21.4472 18.1865C21.4996 17.5446 21.5 16.7284 21.5 15.6V8.4C21.5 7.27164 21.4996 6.45545 21.4472 5.81352C21.3952 5.17744 21.2946 4.75662 21.1185 4.41103C20.783 3.75247 20.2475 3.21703 19.589 2.88148C19.2434 2.70539 18.8226 2.60481 18.1865 2.55284C17.5446 2.50039 16.7284 2.5 15.6 2.5H8.4C7.27164 2.5 6.45545 2.50039 5.81352 2.55284Z" fill="#000"/>
</svg>
