<svg width="24" height="24" viewBox="0 0 24 24" fill="none" xmlns="http://www.w3.org/2000/svg">
<path d="M12.001 21.5C16.5964 21.5 20.4307 18.2366 21.3109 13.9005C21.3659 13.6299 21.6298 13.4551 21.9004 13.51C22.171 13.5649 22.3459 13.8288 22.2909 14.0995C21.318 18.8924 17.0814 22.5 12.001 22.5C7.80203 22.5 4.17981 20.0355 2.49994 16.4755L2.49994 20C2.49994 20.2761 2.27608 20.5 1.99994 20.5C1.7238 20.5 1.49994 20.2761 1.49994 20L1.49994 15.5C1.49994 15.2239 1.7238 15 1.99994 15H2.61882C2.62663 14.9998 2.63442 14.9998 2.64218 15H6.49994C6.77608 15 6.99994 15.2239 6.99994 15.5C6.99994 15.7761 6.77608 16 6.49994 16H3.38147C4.89162 19.2486 8.18393 21.5 12.001 21.5Z" fill="#000"/>
<path d="M2.68981 10.0995C3.56998 5.76342 7.40433 2.5 11.9998 2.5C15.8168 2.5 19.1091 4.75135 20.6193 8L17.5003 8C17.2242 8 17.0003 8.22386 17.0003 8.5C17.0003 8.77614 17.2242 9 17.5003 9L21.3586 9C21.3663 9.00018 21.3741 9.00018 21.3818 9H22.0008C22.1334 9 22.2606 8.94731 22.3544 8.85353C22.4481 8.75975 22.5008 8.63256 22.5008 8.49994L22.5003 3.99995C22.5003 3.7238 22.2764 3.49997 22.0002 3.5C21.7241 3.50003 21.5003 3.72391 21.5003 4.00005L21.5007 7.52431C19.8208 3.96439 16.1986 1.5 11.9998 1.5C6.91938 1.5 2.68271 5.10762 1.7098 9.90053C1.65486 10.1712 1.82971 10.4351 2.10034 10.49C2.37096 10.5449 2.63488 10.3701 2.68981 10.0995Z" fill="#000"/>
</svg>
