<svg width="24" height="24" viewBox="0 0 24 24" fill="none" xmlns="http://www.w3.org/2000/svg">
<g clip-path="url(#clip0_9002_7963)">
<path d="M8.14645 15.8536C8.24021 15.9473 8.36739 16 8.5 16H14C14.2761 16 14.5 15.7761 14.5 15.5C14.5 15.2239 14.2761 15 14 15H9.70711L15.8536 8.85355C16.0488 8.65829 16.0488 8.34171 15.8536 8.14645C15.6583 7.95118 15.3417 7.95118 15.1464 8.14645L9 14.2929V10C9 9.72386 8.77614 9.5 8.5 9.5C8.22386 9.5 8 9.72386 8 10V15.5C8 15.6326 8.05268 15.7598 8.14645 15.8536Z" fill="#000"/>
<path fill-rule="evenodd" clip-rule="evenodd" d="M0.5 12C0.5 5.64873 5.64873 0.5 12 0.5C18.3513 0.5 23.5 5.64873 23.5 12C23.5 18.3513 18.3513 23.5 12 23.5C5.64873 23.5 0.5 18.3513 0.5 12ZM12 1.5C6.20101 1.5 1.5 6.20101 1.5 12C1.5 17.799 6.20101 22.5 12 22.5C17.799 22.5 22.5 17.799 22.5 12C22.5 6.20101 17.799 1.5 12 1.5Z" fill="#000"/>
</g>
<defs>
<clipPath id="clip0_9002_7963">
<rect width="24" height="24" fill="white"/>
</clipPath>
</defs>
</svg>
