<svg width="24" height="24" viewBox="0 0 24 24" fill="none" xmlns="http://www.w3.org/2000/svg">
<path d="M15.8536 15.8536C15.7598 15.9473 15.6326 16 15.5 16H10C9.72386 16 9.5 15.7761 9.5 15.5C9.5 15.2239 9.72386 15 10 15H14.2929L8.14645 8.85355C7.95118 8.65829 7.95118 8.34171 8.14645 8.14645C8.34171 7.95118 8.65829 7.95118 8.85355 8.14645L15 14.2929V10C15 9.72386 15.2239 9.5 15.5 9.5C15.7761 9.5 16 9.72386 16 10V15.5C16 15.6326 15.9473 15.7598 15.8536 15.8536Z" fill="#000"/>
<path fill-rule="evenodd" clip-rule="evenodd" d="M0.5 12C0.5 5.64873 5.64873 0.5 12 0.5C18.3513 0.5 23.5 5.64873 23.5 12C23.5 18.3513 18.3513 23.5 12 23.5C5.64873 23.5 0.5 18.3513 0.5 12ZM12 1.5C6.20101 1.5 1.5 6.20101 1.5 12C1.5 17.799 6.20101 22.5 12 22.5C17.799 22.5 22.5 17.799 22.5 12C22.5 6.20101 17.799 1.5 12 1.5Z" fill="#000"/>
</svg>
