<svg width="24" height="24" viewBox="0 0 24 24" fill="none" xmlns="http://www.w3.org/2000/svg">
<g clip-path="url(#clip0_9002_7903)">
<path d="M15.8536 8.14645C15.7598 8.05268 15.6326 8 15.5 8H10C9.72386 8 9.5 8.22386 9.5 8.5C9.5 8.77614 9.72386 9 10 9H14.2929L8.14645 15.1464C7.95118 15.3417 7.95118 15.6583 8.14645 15.8536C8.34171 16.0488 8.65829 16.0488 8.85355 15.8536L15 9.70711V14C15 14.2761 15.2239 14.5 15.5 14.5C15.7761 14.5 16 14.2761 16 14V8.5C16 8.36739 15.9473 8.24021 15.8536 8.14645Z" fill="#000"/>
<path fill-rule="evenodd" clip-rule="evenodd" d="M0.5 12C0.5 5.64873 5.64873 0.5 12 0.5C18.3513 0.5 23.5 5.64873 23.5 12C23.5 18.3513 18.3513 23.5 12 23.5C5.64873 23.5 0.5 18.3513 0.5 12ZM12 1.5C6.20101 1.5 1.5 6.20101 1.5 12C1.5 17.799 6.20101 22.5 12 22.5C17.799 22.5 22.5 17.799 22.5 12C22.5 6.20101 17.799 1.5 12 1.5Z" fill="#000"/>
</g>
<defs>
<clipPath id="clip0_9002_7903">
<rect width="24" height="24" fill="white"/>
</clipPath>
</defs>
</svg>
