<svg width="24" height="24" viewBox="0 0 24 24" fill="none" xmlns="http://www.w3.org/2000/svg">
<path fill-rule="evenodd" clip-rule="evenodd" d="M2.5 12C2.5 6.75329 6.75329 2.5 12 2.5C17.2467 2.5 21.5 6.75329 21.5 12C21.5 13.1989 21.2844 14.2096 20.8814 14.9348C20.4873 15.644 19.9192 16.0779 19.1581 16.1866C18.4004 16.2949 17.7504 16.0112 17.2751 15.5043C16.7922 14.9893 16.5 14.2503 16.5 13.5V8.25C16.5 7.97386 16.2761 7.75 16 7.75C15.7239 7.75 15.5 7.97386 15.5 8.25V9.17133C14.675 8.15183 13.4136 7.5 12 7.5C9.51472 7.5 7.5 9.51472 7.5 12C7.5 14.4853 9.51472 16.5 12 16.5C13.5089 16.5 14.8443 15.7574 15.6607 14.6177C15.8321 15.2059 16.1354 15.7508 16.5456 16.1883C17.2154 16.9027 18.1798 17.3365 19.2996 17.1766C20.416 17.0171 21.2334 16.3601 21.7555 15.4206C22.2687 14.4971 22.5 13.3011 22.5 12C22.5 6.20101 17.799 1.5 12 1.5C6.20101 1.5 1.5 6.20101 1.5 12C1.5 17.799 6.20101 22.5 12 22.5C12.2761 22.5 12.5 22.2761 12.5 22C12.5 21.7239 12.2761 21.5 12 21.5C6.75329 21.5 2.5 17.2467 2.5 12ZM15.5 12C15.5 13.933 13.933 15.5 12 15.5C10.067 15.5 8.5 13.933 8.5 12C8.5 10.067 10.067 8.5 12 8.5C13.933 8.5 15.5 10.067 15.5 12Z" fill="#000"/>
</svg>
