<svg width="24" height="24" viewBox="0 0 24 24" fill="none" xmlns="http://www.w3.org/2000/svg">
<path fill-rule="evenodd" clip-rule="evenodd" d="M14.1888 5.38407C15.5794 4.39757 17.5039 5.39188 17.5039 7.09685V16.8933C17.5039 18.5983 15.5794 19.5926 14.1888 18.6061L7.4566 13.8302C7.27963 13.7047 7.12743 13.5599 7 13.4013L7 18.4999C7 18.776 6.77614 18.9999 6.5 18.9999C6.22386 18.9999 6 18.776 6 18.4999V5.49988C6 5.22374 6.22386 4.99988 6.5 4.99988C6.77614 4.99988 7 5.22374 7 5.49988L7 10.5888C7.12742 10.4303 7.27963 10.2855 7.4566 10.16L14.1888 5.38407ZM16.5039 7.09685C16.5039 6.20377 15.4959 5.68294 14.7674 6.19968L8.0352 10.9756C7.33287 11.4738 7.33287 12.5164 8.0352 13.0146L14.7674 17.7905C15.4959 18.3072 16.5039 17.7864 16.5039 16.8933V7.09685Z" fill="#000"/>
</svg>
