<svg width="24" height="24" viewBox="0 0 24 24" fill="none" xmlns="http://www.w3.org/2000/svg">
<path fill-rule="evenodd" clip-rule="evenodd" d="M9.18876 5.38992C10.5794 4.40343 12.5038 5.39773 12.5038 7.10271V10.1323L19.1888 5.38992C20.5794 4.40343 22.5038 5.39773 22.5038 7.10271V16.8992C22.5038 18.6041 20.5794 19.5985 19.1888 18.612L12.5038 13.8696V16.8992C12.5038 18.6041 10.5794 19.5985 9.18876 18.612L2.45651 13.8361C1.19231 12.9392 1.19231 11.0626 2.45651 10.1658L9.18876 5.38992ZM11.5038 7.10271C11.5038 6.20963 10.4958 5.6888 9.76736 6.20554L3.03511 10.9814C2.33278 11.4797 2.33278 12.5222 3.03511 13.0205L9.76736 17.7963C10.4958 18.3131 11.5038 17.7923 11.5038 16.8992V7.10271ZM21.5038 7.10271C21.5038 6.20963 20.4958 5.6888 19.7674 6.20554L13.0351 10.9814C12.3328 11.4797 12.3328 12.5222 13.0351 13.0205L19.7674 17.7963C20.4958 18.3131 21.5038 17.7923 21.5038 16.8992V7.10271Z" fill="#000"/>
</svg>
