<svg width="24" height="24" viewBox="0 0 24 24" fill="none" xmlns="http://www.w3.org/2000/svg">
<path d="M12.4998 6C12.4998 5.72386 12.276 5.5 11.9998 5.5C11.7237 5.5 11.4998 5.72386 11.4998 6V7.5C11.4998 7.77614 11.7237 8 11.9998 8C12.276 8 12.4998 7.77614 12.4998 7.5V6Z" fill="#000"/>
<path fill-rule="evenodd" clip-rule="evenodd" d="M13.6462 1.99276C12.6466 1.3364 11.3527 1.3364 10.353 1.99276L2.29024 7.28689C0.837595 8.24072 1.51296 10.4997 3.25076 10.4997H20.7485C22.4863 10.4997 23.1617 8.24071 21.709 7.28689L13.6462 1.99276ZM10.9019 2.82867C11.5683 2.39109 12.431 2.39109 13.0974 2.82867L21.1602 8.1228C21.7827 8.53158 21.4933 9.49973 20.7485 9.49973H3.25076C2.50599 9.49973 2.21655 8.53158 2.83911 8.1228L10.9019 2.82867Z" fill="#000"/>
<path d="M18.7498 12.5C19.026 12.5 19.2498 12.7239 19.2498 13V16C19.2498 16.2761 19.026 16.5 18.7498 16.5C18.4737 16.5 18.2498 16.2761 18.2498 16V13C18.2498 12.7239 18.4737 12.5 18.7498 12.5Z" fill="#000"/>
<path d="M14.7498 13C14.7498 12.7239 14.526 12.5 14.2498 12.5C13.9737 12.5 13.7498 12.7239 13.7498 13V16C13.7498 16.2761 13.9737 16.5 14.2498 16.5C14.526 16.5 14.7498 16.2761 14.7498 16V13Z" fill="#000"/>
<path d="M9.74982 12.5C10.026 12.5 10.2498 12.7239 10.2498 13V16C10.2498 16.2761 10.026 16.5 9.74982 16.5C9.47367 16.5 9.24982 16.2761 9.24982 16V13C9.24982 12.7239 9.47367 12.5 9.74982 12.5Z" fill="#000"/>
<path d="M5.74982 13C5.74982 12.7239 5.52596 12.5 5.24982 12.5C4.97367 12.5 4.74982 12.7239 4.74982 13V16C4.74982 16.2761 4.97367 16.5 5.24982 16.5C5.52596 16.5 5.74982 16.2761 5.74982 16V13Z" fill="#000"/>
<path d="M2.99982 19C2.99982 18.7239 3.22367 18.5 3.49982 18.5H20.4998C20.776 18.5 20.9998 18.7239 20.9998 19C20.9998 19.2761 20.776 19.5 20.4998 19.5H3.49982C3.22367 19.5 2.99982 19.2761 2.99982 19Z" fill="#000"/>
<path d="M1.99982 21.5C1.72367 21.5 1.49982 21.7239 1.49982 22C1.49982 22.2761 1.72367 22.5 1.99982 22.5H21.9998C22.276 22.5 22.4998 22.2761 22.4998 22C22.4998 21.7239 22.276 21.5 21.9998 21.5H1.99982Z" fill="#000"/>
</svg>
