<svg width="24" height="24" viewBox="0 0 24 24" fill="none" xmlns="http://www.w3.org/2000/svg">
<path d="M12.5 6C12.5 5.72386 12.2761 5.5 12 5.5C11.7239 5.5 11.5 5.72386 11.5 6V7.5C11.5 7.77614 11.7239 8 12 8C12.2761 8 12.5 7.77614 12.5 7.5V6Z" fill="#000"/>
<path fill-rule="evenodd" clip-rule="evenodd" d="M13.6464 1.99276C12.6468 1.3364 11.3528 1.3364 10.3532 1.99276L2.29042 7.28689C0.837779 8.24072 1.51315 10.4997 3.25094 10.4997H20.7487C22.4865 10.4997 23.1619 8.24071 21.7092 7.28689L13.6464 1.99276ZM10.9021 2.82867C11.5685 2.39109 12.4311 2.39109 13.0976 2.82867L21.1603 8.1228C21.7829 8.53158 21.4935 9.49973 20.7487 9.49973H3.25094C2.50617 9.49973 2.21673 8.53158 2.83929 8.1228L10.9021 2.82867Z" fill="#000"/>
<path d="M18.75 12.5C19.0261 12.5 19.25 12.7239 19.25 13V16C19.25 16.2761 19.0261 16.5 18.75 16.5C18.4739 16.5 18.25 16.2761 18.25 16V13C18.25 12.7239 18.4739 12.5 18.75 12.5Z" fill="#000"/>
<path d="M14.75 13C14.75 12.7239 14.5261 12.5 14.25 12.5C13.9739 12.5 13.75 12.7239 13.75 13V16C13.75 16.2761 13.9739 16.5 14.25 16.5C14.5261 16.5 14.75 16.2761 14.75 16V13Z" fill="#000"/>
<path d="M9.75 12.5C10.0261 12.5 10.25 12.7239 10.25 13V16C10.25 16.2761 10.0261 16.5 9.75 16.5C9.47386 16.5 9.25 16.2761 9.25 16V13C9.25 12.7239 9.47386 12.5 9.75 12.5Z" fill="#000"/>
<path d="M5.75 13C5.75 12.7239 5.52614 12.5 5.25 12.5C4.97386 12.5 4.75 12.7239 4.75 13V16C4.75 16.2761 4.97386 16.5 5.25 16.5C5.52614 16.5 5.75 16.2761 5.75 16V13Z" fill="#000"/>
<path d="M3 19C3 18.7239 3.22386 18.5 3.5 18.5H20.5C20.7761 18.5 21 18.7239 21 19C21 19.2761 20.7761 19.5 20.5 19.5H3.5C3.22386 19.5 3 19.2761 3 19Z" fill="#000"/>
<path d="M2 21.5C1.72386 21.5 1.5 21.7239 1.5 22C1.5 22.2761 1.72386 22.5 2 22.5H22C22.2761 22.5 22.5 22.2761 22.5 22C22.5 21.7239 22.2761 21.5 22 21.5H2Z" fill="#000"/>
</svg>
