<svg width="24" height="24" viewBox="0 0 24 24" fill="none" xmlns="http://www.w3.org/2000/svg">
<path d="M8.50001 14.5C8.50001 14.2239 8.27615 14 8.00001 14C7.72387 14 7.50001 14.2239 7.50001 14.5L7.5 18C7.5 18.2761 7.72386 18.5 8 18.5C8.27614 18.5 8.5 18.2761 8.5 18L8.50001 14.5Z" fill="#000"/>
<path d="M12.5 14.5C12.5 14.2239 12.2761 14 12 14C11.7239 14 11.5 14.2239 11.5 14.5L11.5 18C11.5 18.2761 11.7238 18.5 12 18.5C12.2761 18.5 12.5 18.2761 12.5 18L12.5 14.5Z" fill="#000"/>
<path d="M16.5 14.5C16.5 14.2239 16.2762 14 16 14C15.7239 14 15.5 14.2239 15.5 14.5L15.5 18C15.5 18.2761 15.7239 18.5 16 18.5C16.2762 18.5 16.5 18.2761 16.5 18L16.5 14.5Z" fill="#000"/>
<path fill-rule="evenodd" clip-rule="evenodd" d="M9.78674 1.59043C10.013 1.74878 10.068 2.06055 9.90963 2.28677L6.96035 6.50004H17.0396L14.0904 2.28677C13.932 2.06055 13.987 1.74878 14.2133 1.59043C14.4395 1.43207 14.7512 1.48709 14.9096 1.71331L18.2603 6.50004L20.0688 6.50002C20.4664 6.4998 20.7618 6.49964 21.0176 6.56819C21.7078 6.75313 22.2469 7.29222 22.4318 7.98241C22.5004 8.23823 22.5002 8.53356 22.5 8.93124V9.06884C22.5002 9.46653 22.5004 9.76186 22.4318 10.0177C22.2897 10.5479 21.9387 10.9889 21.4707 11.2487L20.4082 19.0405C20.1379 21.0224 18.4451 22.5 16.4449 22.5H7.55514C5.55486 22.5 3.8621 21.0224 3.59184 19.0405L2.52933 11.2487C2.06132 10.9889 1.71026 10.5479 1.5682 10.0177C1.49965 9.76186 1.49981 9.46653 1.50002 9.06883V8.93125C1.49981 8.53356 1.49965 8.23823 1.5682 7.98241C1.75313 7.29222 2.29222 6.75313 2.9824 6.56819C3.23823 6.49964 3.53355 6.4998 3.93124 6.50002L5.7397 6.50004L9.0904 1.71331C9.24875 1.48709 9.56052 1.43207 9.78674 1.59043ZM4.00004 7.50004C3.50286 7.50004 3.35236 7.50434 3.24122 7.53412C2.89613 7.62658 2.62658 7.89613 2.53412 8.24122C2.50434 8.35236 2.50004 8.50287 2.50004 9.00004C2.50004 9.49722 2.50434 9.64772 2.53412 9.75886C2.62658 10.104 2.89613 10.3735 3.24122 10.466C3.35236 10.4957 3.50286 10.5 4.00004 10.5H20C20.4971 10.5 20.6476 10.4957 20.7588 10.466C21.1039 10.3735 21.3734 10.104 21.4659 9.75886C21.4957 9.64772 21.5 9.49722 21.5 9.00004C21.5 8.50287 21.4957 8.35236 21.4659 8.24122C21.3734 7.89613 21.1039 7.62658 20.7588 7.53412C20.6476 7.50434 20.4971 7.50004 20 7.50004H4.00004ZM3.57285 11.5L4.58266 18.9054C4.78536 20.3918 6.05493 21.5 7.55514 21.5H16.4449C17.9451 21.5 19.2146 20.3918 19.4173 18.9054L20.4272 11.5H3.57285Z" fill="#000"/>
</svg>
