<svg width="24" height="24" viewBox="0 0 24 24" fill="none" xmlns="http://www.w3.org/2000/svg">
<path fill-rule="evenodd" clip-rule="evenodd" d="M8.78678 0.590427C9.013 0.748784 9.06802 1.06055 8.90966 1.28677L5.96038 5.50004H16.0397L13.0904 1.28677C12.9321 1.06055 12.9871 0.748784 13.2133 0.590427C13.4395 0.43207 13.7513 0.487087 13.9097 0.713312L17.2604 5.50004L19.0688 5.50002C19.4665 5.4998 19.7619 5.49964 20.0177 5.56819C20.7079 5.75313 21.247 6.29222 21.4319 6.98241C21.5004 7.23823 21.5003 7.53356 21.5001 7.93124V8.06884C21.5003 8.46653 21.5004 8.76186 21.4319 9.01768C21.2898 9.54787 20.9388 9.9889 20.4708 10.2487L20.4623 10.3112C20.425 10.5848 20.1729 10.7764 19.8993 10.739C19.7404 10.7174 19.6092 10.6233 19.5344 10.4947C19.3951 10.5002 19.2416 10.5002 19.0688 10.5001H2.93126C2.80153 10.5001 2.6827 10.5002 2.57257 10.4979L3.58269 17.9054C3.78539 19.3919 5.05497 20.5001 6.55518 20.5001H10.5816C10.8577 20.5001 11.0816 20.7239 11.0816 21.0001C11.0816 21.2762 10.8577 21.5001 10.5816 21.5001H6.55518C4.55489 21.5001 2.86212 20.0225 2.59186 18.0405L1.52934 10.2487C1.06133 9.98892 0.710263 9.54788 0.568197 9.01768C0.499648 8.76186 0.499808 8.46653 0.500024 8.06883V7.93125C0.499808 7.53356 0.499648 7.23823 0.568197 6.98241C0.753131 6.29222 1.29223 5.75313 1.98241 5.56819C2.23823 5.49964 2.53356 5.4998 2.93125 5.50002L4.73972 5.50004L8.09043 0.713312C8.24879 0.487087 8.56055 0.43207 8.78678 0.590427ZM3.00005 6.50004C2.50287 6.50004 2.35237 6.50434 2.24123 6.53412C1.89614 6.62658 1.62659 6.89613 1.53412 7.24122C1.50434 7.35236 1.50005 7.50287 1.50005 8.00004C1.50005 8.49722 1.50434 8.64772 1.53412 8.75886C1.62659 9.10395 1.89614 9.3735 2.24123 9.46597C2.35237 9.49575 2.50287 9.50004 3.00005 9.50004H19C19.4972 9.50004 19.6477 9.49575 19.7589 9.46597C20.104 9.3735 20.3735 9.10395 20.466 8.75886C20.4958 8.64772 20.5 8.49722 20.5 8.00004C20.5 7.50287 20.4958 7.35236 20.466 7.24122C20.3735 6.89613 20.104 6.62658 19.7589 6.53412C19.6477 6.50434 19.4972 6.50004 19 6.50004H3.00005Z" fill="#000"/>
<path d="M7.00019 13.0011C7.27633 13.0011 7.50019 13.2249 7.50019 13.5011L7.50018 17.0012C7.50018 17.2773 7.27632 17.5012 7.00018 17.5012C6.72404 17.5012 6.50018 17.2773 6.50018 17.0012L6.50019 13.5011C6.50019 13.2249 6.72405 13.0011 7.00019 13.0011Z" fill="#000"/>
<path d="M11.0003 13.0011C11.2764 13.0011 11.5003 13.2249 11.5003 13.5011L11.5003 14.1236C11.5003 14.3998 11.2764 14.6236 11.0003 14.6236C10.7241 14.6236 10.5003 14.3998 10.5003 14.1236L10.5003 13.5011C10.5003 13.2249 10.7242 13.0011 11.0003 13.0011Z" fill="#000"/>
<path d="M18.5 16.7071L19.6464 17.8535C19.8417 18.0488 20.1583 18.0488 20.3535 17.8535C20.5488 17.6583 20.5488 17.3417 20.3535 17.1464L18.3535 15.1464C18.2598 15.0527 18.1326 15 18 15C17.8674 15 17.7402 15.0527 17.6464 15.1464L15.6464 17.1464C15.4511 17.3417 15.4511 17.6583 15.6464 17.8536C15.8417 18.0488 16.1582 18.0488 16.3535 17.8536L17.5 16.7071V20.5C17.5 20.7761 17.7239 21 18 21C18.2761 21 18.5 20.7761 18.5 20.5V16.7071Z" fill="#000"/>
<path fill-rule="evenodd" clip-rule="evenodd" d="M18 12.5C14.9624 12.5 12.5 14.9624 12.5 18C12.5 21.0376 14.9624 23.5 18 23.5C21.0376 23.5 23.5 21.0376 23.5 18C23.5 14.9624 21.0376 12.5 18 12.5ZM13.5 18C13.5 15.5147 15.5147 13.5 18 13.5C20.4853 13.5 22.5 15.5147 22.5 18C22.5 20.4853 20.4853 22.5 18 22.5C15.5147 22.5 13.5 20.4853 13.5 18Z" fill="#000"/>
</svg>
