<svg width="24" height="24" viewBox="0 0 24 24" fill="none" xmlns="http://www.w3.org/2000/svg">
<path fill-rule="evenodd" clip-rule="evenodd" d="M2.35355 1.64645C2.15829 1.45118 1.84171 1.45118 1.64645 1.64645C1.45118 1.84171 1.45118 2.15829 1.64645 2.35355L5.3792 6.08631C5.16142 6.66734 5.01743 7.28562 4.95884 7.93009L4.78097 9.88661C4.60547 11.8171 3.95033 13.6731 2.87507 15.286L2.84181 15.3359C2.61893 15.6702 2.5 16.063 2.5 16.4648C2.5 17.5888 3.41118 18.5 4.53518 18.5H17.7929L21.6464 22.3536C21.8417 22.5488 22.1583 22.5488 22.3536 22.3536C22.5488 22.1583 22.5488 21.8417 22.3536 21.6464L6.32799 5.62089C6.32271 5.61535 6.31728 5.60993 6.31172 5.60462L2.35355 1.64645ZM6.1698 6.87691C6.06349 7.24409 5.99057 7.6264 5.95473 8.02063L5.77687 9.97714C5.58628 12.0736 4.87481 14.0892 3.70712 15.8407L3.67386 15.8906C3.56049 16.0606 3.5 16.2604 3.5 16.4648C3.5 17.0365 3.96347 17.5 4.53518 17.5H16.7929L6.1698 6.87691Z" fill="#000"/>
<path d="M7.3168 3.27346C8.56817 2.16689 10.2123 1.5 12 1.5C15.6567 1.5 18.7101 4.28838 19.0412 7.93009L19.219 9.88661C19.3945 11.8171 20.0497 13.6731 21.1249 15.286L21.1582 15.3359C21.3811 15.6702 21.5 16.063 21.5 16.4648V16.5C21.5 16.7012 21.4701 16.8964 21.4142 17.0808C21.3341 17.345 21.055 17.4943 20.7907 17.4142C20.5264 17.3341 20.3771 17.055 20.4572 16.7907C20.4849 16.6993 20.5 16.6019 20.5 16.5V16.4648C20.5 16.2604 20.4395 16.0606 20.3261 15.8906L20.2929 15.8407C19.1252 14.0892 18.4137 12.0736 18.2231 9.97714L18.0453 8.02063C17.761 4.89399 15.1395 2.5 12 2.5C10.4649 2.5 9.05431 3.0719 7.97924 4.02258C7.77238 4.20551 7.45639 4.1861 7.27346 3.97924C7.09054 3.77238 7.10994 3.45639 7.3168 3.27346Z" fill="#000"/>
<path d="M9.15103 20.0673C9.39006 19.929 9.69592 20.0107 9.83419 20.2497C10.2672 20.9983 11.0753 21.5001 12 21.5001C12.9248 21.5001 13.7329 20.9983 14.1659 20.2497C14.3042 20.0107 14.61 19.929 14.8491 20.0673C15.0881 20.2056 15.1698 20.5114 15.0315 20.7504C14.4271 21.7953 13.2962 22.5001 12 22.5001C10.7039 22.5001 9.573 21.7953 8.96859 20.7504C8.83031 20.5114 8.912 20.2056 9.15103 20.0673Z" fill="#000"/>
</svg>
