<svg width="24" height="24" viewBox="0 0 24 24" fill="none" xmlns="http://www.w3.org/2000/svg">
<g clip-path="url(#clip0_9002_8203)">
<path fill-rule="evenodd" clip-rule="evenodd" d="M8.75 8C8.47386 8 8.25 8.22386 8.25 8.5C8.25 8.77614 8.47386 9 8.75 9H9.33618V15H8.75C8.47386 15 8.25 15.2239 8.25 15.5C8.25 15.7761 8.47386 16 8.75 16H10V17C10 17.2761 10.2239 17.5 10.5 17.5C10.7761 17.5 11 17.2761 11 17V16H12V17C12 17.2761 12.2239 17.5 12.5 17.5C12.7761 17.5 13 17.2761 13 17V16H13.5C14.7426 16 15.75 14.9926 15.75 13.75C15.75 12.8502 15.2219 12.0739 14.4587 11.7139C14.7962 11.3204 15 10.809 15 10.25C15 9.09187 14.125 8.1381 13 8.01373V7C13 6.72386 12.7761 6.5 12.5 6.5C12.2239 6.5 12 6.72386 12 7V8H11V7C11 6.72386 10.7761 6.5 10.5 6.5C10.2239 6.5 10 6.72386 10 7V8H8.75ZM13.5 15C14.1904 15 14.75 14.4404 14.75 13.75C14.75 13.0596 14.1904 12.5 13.5 12.5H12.7649L12.75 12.5H10.3362V15H13.5ZM10.3362 9H12.75C13.4404 9 14 9.55965 14 10.25C14 10.9367 13.4464 11.494 12.7611 11.5H10.3362V9Z" fill="#000"/>
<path fill-rule="evenodd" clip-rule="evenodd" d="M12 0.5C5.64873 0.5 0.5 5.64873 0.5 12C0.5 18.3513 5.64873 23.5 12 23.5C18.3513 23.5 23.5 18.3513 23.5 12C23.5 5.64873 18.3513 0.5 12 0.5ZM1.5 12C1.5 6.20101 6.20101 1.5 12 1.5C17.799 1.5 22.5 6.20101 22.5 12C22.5 17.799 17.799 22.5 12 22.5C6.20101 22.5 1.5 17.799 1.5 12Z" fill="#000"/>
</g>
<defs>
<clipPath id="clip0_9002_8203">
<rect width="24" height="24" fill="white"/>
</clipPath>
</defs>
</svg>
