<svg width="24" height="24" viewBox="0 0 24 24" fill="none" xmlns="http://www.w3.org/2000/svg">
<path fill-rule="evenodd" clip-rule="evenodd" d="M8.99998 1.5C9.27613 1.5 9.49998 1.72386 9.49998 2V4H12.5V2C12.5 1.72386 12.7238 1.5 13 1.5C13.2761 1.5 13.5 1.72386 13.5 2V4.00723C15.7308 4.13665 17.5 5.98673 17.5 8.25002C17.5 9.63172 16.8406 10.8594 15.8194 11.6357C17.6489 12.1099 19 13.7721 19 15.75C19 18.0972 17.0972 20 14.75 20H13.5V22C13.5 22.2761 13.2761 22.5 13 22.5C12.7238 22.5 12.5 22.2761 12.5 22V20H9.49998V22C9.49998 22.2761 9.27613 22.5 8.99998 22.5C8.72384 22.5 8.49998 22.2761 8.49998 22V20H5.5C5.22386 20 5 19.7761 5 19.5C5 19.2239 5.22386 19 5.5 19H7L7 5H5.5C5.22386 5 5 4.77614 5 4.5C5 4.22386 5.22386 4 5.5 4H8.49998V2C8.49998 1.72386 8.72384 1.5 8.99998 1.5ZM14.75 19C16.5449 19 18 17.5449 18 15.75C18 13.9551 16.5449 12.5 14.75 12.5H13.2732L13.25 12.5H8L8 19H14.75ZM13.25 5C15.0449 5 16.5 6.45508 16.5 8.25002C16.5 10.0382 15.0558 11.4891 13.2702 11.5H8L8 5H13.25Z" fill="#000"/>
</svg>
