<svg width="24" height="24" viewBox="0 0 24 24" fill="none" xmlns="http://www.w3.org/2000/svg">
<path fill-rule="evenodd" clip-rule="evenodd" d="M2.35355 1.64645C2.15829 1.45118 1.84171 1.45118 1.64645 1.64645C1.45118 1.84171 1.45118 2.15829 1.64645 2.35355L7.17608 7.88318L4.59217 11.1144C4.27287 11.5137 4.01165 11.8404 3.83267 12.1112C3.65585 12.3788 3.50031 12.675 3.5 13.0048C3.49957 13.4616 3.70729 13.8937 4.0643 14.1786C4.32203 14.3843 4.65057 14.4478 4.96997 14.4769C5.29327 14.5062 5.71151 14.5062 6.22276 14.5062H8.39992C8.6882 14.5062 8.87434 14.5066 9.01601 14.5182C9.15184 14.5293 9.2022 14.5481 9.22692 14.5607C9.321 14.6086 9.39749 14.6851 9.44543 14.7792C9.45802 14.8039 9.47686 14.8543 9.48796 14.9901C9.49953 15.1318 9.49992 15.3179 9.49992 15.6062V19.323C9.49992 20.0012 9.49991 20.5431 9.53441 20.9499C9.56708 21.3351 9.63686 21.7405 9.89234 22.0202C10.232 22.3921 10.7356 22.5687 11.2332 22.4904C11.6074 22.4315 11.9151 22.1585 12.1812 21.878C12.4622 21.5818 12.8006 21.1586 13.2241 20.629L16.2002 16.9073L21.6464 22.3536C21.8417 22.5488 22.1583 22.5488 22.3536 22.3536C22.5488 22.1583 22.5488 21.8417 22.3536 21.6464L16.5178 15.8107C16.5144 15.8072 16.511 15.8038 16.5076 15.8005L8.20516 7.49805C8.20178 7.49457 8.19834 7.49113 8.19484 7.48773L2.35355 1.64645ZM7.88755 8.59466L5.38895 11.7192C5.05002 12.1431 4.81784 12.4342 4.66696 12.6625C4.51099 12.8985 4.50002 12.9854 4.5 13.0057C4.49986 13.158 4.5691 13.302 4.6881 13.397C4.70402 13.4097 4.77869 13.4554 5.06043 13.481C5.33296 13.5057 5.70535 13.5062 6.24805 13.5062H8.41921C8.68278 13.5062 8.91015 13.5062 9.09744 13.5215C9.29511 13.5376 9.49172 13.5733 9.68091 13.6697C9.96315 13.8135 10.1926 14.043 10.3364 14.3252C10.4328 14.5144 10.4685 14.711 10.4846 14.9087C10.4999 15.096 10.4999 15.3233 10.4999 15.5869V19.2976C10.4999 20.0069 10.5004 20.506 10.5308 20.8654C10.5459 21.0431 10.5668 21.1648 10.5908 21.2479C10.6145 21.3304 10.6342 21.3496 10.6307 21.3458C10.7438 21.4697 10.9115 21.5286 11.0772 21.5027C11.0771 21.5027 11.0772 21.5027 11.0772 21.5027C11.0791 21.5022 11.1077 21.4952 11.1701 21.451C11.2407 21.4011 11.333 21.3191 11.4557 21.1897C11.704 20.9281 12.016 20.5386 12.459 19.9846L15.4888 16.1959L7.88755 8.59466Z" fill="#000"/>
<path d="M14.1075 1.99054C13.7678 1.61863 13.2642 1.44202 12.7667 1.52035C12.3924 1.57926 12.0848 1.85226 11.8187 2.13272C11.5376 2.42891 11.1992 2.85214 10.7757 3.38176L9.23288 5.3111C9.06042 5.52676 9.09544 5.8414 9.31111 6.01386C9.52678 6.18632 9.84142 6.1513 10.0139 5.93563L11.5408 4.02614C11.9838 3.47219 12.2959 3.08265 12.5441 2.82102C12.6669 2.69164 12.7592 2.6097 12.8298 2.55974C12.8934 2.51471 12.9213 2.50839 12.9221 2.50819C13.0878 2.4821 13.2556 2.54083 13.3688 2.66455C13.37 2.66614 13.3879 2.68947 13.4091 2.76289C13.433 2.846 13.4539 2.96765 13.469 3.14535C13.4995 3.50471 13.4999 4.00384 13.4999 4.71313V8.42378C13.4999 8.68737 13.4999 8.91476 13.5152 9.10206C13.5314 9.29973 13.567 9.49634 13.6634 9.68553C13.8072 9.96777 14.0367 10.1972 14.3189 10.3411C14.5081 10.4374 14.7047 10.4731 14.9024 10.4893C15.0897 10.5046 15.3171 10.5046 15.5806 10.5045H17.7518C18.2945 10.5045 18.6669 10.505 18.9394 10.5298C19.2212 10.5554 19.2958 10.601 19.3117 10.6138C19.4307 10.7087 19.5 10.8528 19.4998 11.005C19.4998 11.0254 19.4889 11.1122 19.3329 11.3482C19.182 11.5765 18.9498 11.8677 18.6109 12.2915L17.5456 13.6238C17.3731 13.8394 17.4081 14.1541 17.6238 14.3265C17.8395 14.499 18.1541 14.464 18.3265 14.2483L19.4077 12.8963C19.727 12.497 19.9882 12.1704 20.1672 11.8996C20.344 11.632 20.4995 11.3357 20.4998 11.0059C20.5003 10.5492 20.2926 10.1171 19.9356 9.83217C19.6778 9.62646 19.3493 9.56291 19.0299 9.53389C18.7066 9.50453 18.2883 9.50453 17.7771 9.50454H15.5999C15.3116 9.50454 15.1255 9.50415 14.9838 9.49258C14.848 9.48148 14.7976 9.46264 14.7729 9.45005C14.6788 9.40211 14.6024 9.32562 14.5544 9.23154C14.5418 9.20682 14.523 9.15646 14.5119 9.02063C14.5003 8.87896 14.4999 8.69282 14.4999 8.40454V4.68771C14.4999 4.00959 14.4999 3.46769 14.4654 3.06085C14.4328 2.67562 14.363 2.27027 14.1075 1.99054Z" fill="#000"/>
</svg>
