<svg width="24" height="24" viewBox="0 0 24 24" fill="none" xmlns="http://www.w3.org/2000/svg">
<path fill-rule="evenodd" clip-rule="evenodd" d="M11.6843 20.8878L10.4765 19.9216C9.73086 19.325 8.80435 19 7.84941 19H7.38104C5.9272 19 4.50588 19.4303 3.2962 20.2368C2.52842 20.7486 1.5 20.1983 1.5 19.2755V6.15248C1.5 5.57767 1.78727 5.04089 2.26554 4.72204L2.56258 4.52402C4.05319 3.53028 5.80459 3 7.59608 3C9.26739 3 10.8481 3.75972 11.8922 5.0648L12 5.19961L12.1078 5.0648C13.1519 3.75972 14.7326 3 16.4039 3C18.1954 3 19.9468 3.53028 21.4374 4.52402L21.7345 4.72204C22.2127 5.04089 22.5 5.57767 22.5 6.15248V19.2755C22.5 20.1983 21.4716 20.7486 20.7038 20.2368C19.4941 19.4303 18.0728 19 16.619 19H16.1506C15.1956 19 14.2691 19.325 13.5235 19.9216L12.3157 20.8878C12.3094 20.8928 12.3031 20.8978 12.2966 20.9026C12.2788 20.9156 12.2601 20.9276 12.2405 20.9383C12.1006 21.0151 11.9304 21.0213 11.7834 20.9507C11.7767 20.9474 11.7701 20.9441 11.7635 20.9406C11.9027 21.0153 12.0711 21.0206 12.2166 20.9507M3.11728 5.35607C4.44362 4.47184 6.00202 4 7.59608 4C8.96361 4 10.257 4.62163 11.1113 5.68949L11.5 6.17539V19.4597L11.1012 19.1407C10.1782 18.4023 9.03142 18 7.84941 18H7.38104C5.72977 18 4.11544 18.4888 2.7415 19.4047C2.63827 19.4736 2.5 19.3996 2.5 19.2755V6.15248C2.5 5.91202 2.62017 5.68748 2.82025 5.5541L3.11728 5.35607ZM12.5 19.4597L12.8988 19.1407C13.8218 18.4023 14.9686 18 16.1506 18H16.619C18.2702 18 19.8846 18.4888 21.2585 19.4047C21.3617 19.4736 21.5 19.3996 21.5 19.2755V6.15248C21.5 5.91202 21.3798 5.68748 21.1798 5.5541L20.8827 5.35607C19.5564 4.47184 17.998 4 16.4039 4C15.0364 4 13.743 4.62163 12.8887 5.68949L12.5 6.17539V19.4597Z" fill="#000"/>
</svg>
