<svg width="24" height="24" viewBox="0 0 24 24" fill="none" xmlns="http://www.w3.org/2000/svg">
<path d="M14.8536 12.8535C14.6583 13.0488 14.3417 13.0488 14.1464 12.8535L12 10.7071L9.85357 12.8536C9.65831 13.0488 9.34172 13.0488 9.14646 12.8536C8.9512 12.6583 8.9512 12.3417 9.14646 12.1464L11.2929 10L9.14648 7.85357C8.95122 7.65831 8.95122 7.34173 9.14648 7.14646C9.34174 6.9512 9.65832 6.9512 9.85358 7.14646L12 9.29289L14.1464 7.14648C14.3417 6.95122 14.6583 6.95122 14.8535 7.14648C15.0488 7.34174 15.0488 7.65832 14.8535 7.85358L12.7071 10L14.8536 12.1464C15.0488 12.3417 15.0488 12.6583 14.8536 12.8535Z" fill="#000"/>
<path fill-rule="evenodd" clip-rule="evenodd" d="M9.67767 1.5H14.3223C15.2135 1.5 15.913 1.49999 16.4753 1.54594C17.0482 1.59274 17.5226 1.68971 17.9525 1.90873C18.6581 2.26825 19.2317 2.84193 19.5913 3.54754C19.8103 3.97738 19.9073 4.45183 19.9541 5.02469C20 5.58703 20 6.28648 20 7.17765V21.2811C20 21.9543 19.4543 22.5 18.7811 22.5C18.4747 22.5 18.1795 22.3846 17.9543 22.1767L12.7461 17.3692C12.5489 17.1872 12.4221 17.0706 12.3183 16.9889C12.2194 16.9111 12.1729 16.891 12.1469 16.883C12.0512 16.8536 11.9488 16.8536 11.8531 16.883C11.8271 16.891 11.7806 16.9111 11.6817 16.9889C11.5779 17.0706 11.4511 17.1872 11.2539 17.3692L6.04568 22.1767C5.82052 22.3846 5.52534 22.5 5.21892 22.5C4.54573 22.5 4 21.9543 4 21.2811V7.17767C4 6.28649 3.99999 5.58703 4.04594 5.02469C4.09274 4.45183 4.18971 3.97738 4.40873 3.54754C4.76825 2.84193 5.34193 2.26825 6.04754 1.90873C6.47738 1.68971 6.95183 1.59274 7.52469 1.54594C8.08703 1.49999 8.78649 1.5 9.67767 1.5ZM7.60612 2.54262C7.0951 2.58437 6.7669 2.66452 6.50153 2.79973C5.98408 3.06338 5.56338 3.48408 5.29973 4.00153C5.16452 4.2669 5.08437 4.5951 5.04262 5.10612C5.00039 5.62298 5 6.28166 5 7.2V21.2811C5 21.402 5.09801 21.5 5.21892 21.5C5.27395 21.5 5.32696 21.4793 5.3674 21.4419L10.5891 16.6219C10.7689 16.4559 10.9248 16.312 11.0633 16.203C11.2101 16.0875 11.3679 15.9859 11.5593 15.9271C11.8465 15.8388 12.1535 15.8388 12.4407 15.9271C12.6321 15.9859 12.7899 16.0875 12.9367 16.203C13.0752 16.312 13.2311 16.4559 13.4109 16.6219L18.6326 21.4419C18.673 21.4793 18.7261 21.5 18.7811 21.5C18.902 21.5 19 21.402 19 21.2811V7.2C19 6.28166 18.9996 5.62298 18.9574 5.10612C18.9156 4.5951 18.8355 4.2669 18.7003 4.00153C18.4366 3.48408 18.0159 3.06338 17.4985 2.79973C17.2331 2.66452 16.9049 2.58437 16.3939 2.54262C15.877 2.50039 15.2183 2.5 14.3 2.5H9.7C8.78166 2.5 8.12298 2.50039 7.60612 2.54262Z" fill="#000"/>
</svg>
