<svg width="24" height="24" viewBox="0 0 24 24" fill="none" xmlns="http://www.w3.org/2000/svg">
<path d="M15.8536 8.10355C16.0488 7.90829 16.0488 7.59171 15.8536 7.39645C15.6583 7.20118 15.3417 7.20118 15.1464 7.39645L11 11.5429L8.85355 9.39645C8.65829 9.20118 8.34171 9.20118 8.14645 9.39645C7.95118 9.59171 7.95118 9.90829 8.14645 10.1036L10.6464 12.6036C10.8417 12.7988 11.1583 12.7988 11.3536 12.6036L15.8536 8.10355Z" fill="#000"/>
<path fill-rule="evenodd" clip-rule="evenodd" d="M14.3223 1.5H9.67767C8.78649 1.5 8.08703 1.49999 7.52469 1.54594C6.95183 1.59274 6.47738 1.68971 6.04754 1.90873C5.34193 2.26825 4.76825 2.84193 4.40873 3.54754C4.18971 3.97738 4.09274 4.45183 4.04594 5.02469C3.99999 5.58703 4 6.28649 4 7.17766V21.2811C4 21.9543 4.54573 22.5 5.21892 22.5C5.52534 22.5 5.82052 22.3846 6.04568 22.1767L11.2539 17.3692C11.4511 17.1872 11.5779 17.0706 11.6817 16.9889C11.7806 16.9111 11.8271 16.891 11.8531 16.883C11.9488 16.8536 12.0512 16.8536 12.1469 16.883C12.1729 16.891 12.2194 16.9111 12.3183 16.9889C12.4221 17.0706 12.5489 17.1872 12.7461 17.3692L17.9543 22.1767C18.1795 22.3846 18.4747 22.5 18.7811 22.5C19.4543 22.5 20 21.9543 20 21.2811V7.17765C20 6.28648 20 5.58703 19.9541 5.02469C19.9073 4.45183 19.8103 3.97738 19.5913 3.54754C19.2317 2.84193 18.6581 2.26825 17.9525 1.90873C17.5226 1.68971 17.0482 1.59274 16.4753 1.54594C15.913 1.49999 15.2135 1.5 14.3223 1.5ZM6.50153 2.79973C6.7669 2.66452 7.0951 2.58437 7.60612 2.54262C8.12298 2.50039 8.78166 2.5 9.7 2.5H14.3C15.2183 2.5 15.877 2.50039 16.3939 2.54262C16.9049 2.58437 17.2331 2.66452 17.4985 2.79973C18.0159 3.06338 18.4366 3.48408 18.7003 4.00153C18.8355 4.2669 18.9156 4.5951 18.9574 5.10612C18.9996 5.62298 19 6.28166 19 7.2V21.2811C19 21.402 18.902 21.5 18.7811 21.5C18.7261 21.5 18.673 21.4793 18.6326 21.4419L13.4109 16.6219C13.2311 16.4559 13.0752 16.312 12.9367 16.203C12.7899 16.0875 12.6321 15.9859 12.4407 15.9271C12.1535 15.8388 11.8465 15.8388 11.5593 15.9271C11.3679 15.9859 11.2101 16.0875 11.0633 16.203C10.9248 16.312 10.7689 16.4559 10.5891 16.6219L5.3674 21.4419C5.32696 21.4793 5.27395 21.5 5.21892 21.5C5.09801 21.5 5 21.402 5 21.2811V7.2C5 6.28166 5.00039 5.62298 5.04262 5.10612C5.08437 4.5951 5.16452 4.2669 5.29973 4.00153C5.56338 3.48408 5.98408 3.06338 6.50153 2.79973Z" fill="#000"/>
</svg>
