<svg width="24" height="24" viewBox="0 0 24 24" fill="none" xmlns="http://www.w3.org/2000/svg">
<path fill-rule="evenodd" clip-rule="evenodd" d="M2.35355 1.64645C2.15829 1.45118 1.84171 1.45118 1.64645 1.64645C1.45118 1.84171 1.45118 2.15829 1.64645 2.35355L4.07026 4.77736C3.99996 5.38542 3.99998 6.14887 4 7.14838L4 21.2811C4 21.9543 4.54573 22.5 5.21892 22.5C5.52534 22.5 5.82052 22.3846 6.04568 22.1768L11.2543 17.3688C11.4512 17.187 11.578 17.0705 11.6817 16.9889C11.7806 16.9111 11.8271 16.891 11.8531 16.883C11.9488 16.8536 12.0512 16.8536 12.1469 16.883C12.1729 16.891 12.2194 16.9111 12.3183 16.9889C12.4221 17.0706 12.5489 17.1872 12.7461 17.3692L17.9543 22.1768C18.1795 22.3846 18.4747 22.5 18.7811 22.5C19.4543 22.5 20 21.9543 20 21.2811V20.7071L21.6464 22.3536C21.8417 22.5488 22.1583 22.5488 22.3536 22.3536C22.5488 22.1583 22.5488 21.8417 22.3536 21.6464L4.95687 4.24977C4.95417 4.247 4.95144 4.24427 4.94868 4.24157L2.35355 1.64645ZM5.01155 5.71866C5.00039 6.12282 5 6.60626 5 7.20001V21.2811C5 21.402 5.09801 21.5 5.21892 21.5C5.27395 21.5 5.32696 21.4793 5.3674 21.442L10.5891 16.6219C10.7689 16.4559 10.9248 16.312 11.0633 16.203C11.2101 16.0876 11.3679 15.9859 11.5593 15.9271C11.8465 15.8389 12.1535 15.8389 12.4407 15.9271C12.6321 15.9859 12.7899 16.0876 12.9367 16.203C13.0752 16.312 13.231 16.4559 13.4109 16.6219L18.6326 21.442C18.673 21.4793 18.7261 21.5 18.7811 21.5C18.902 21.5 19 21.402 19 21.2811V19.7071L5.01155 5.71866Z" fill="#000"/>
<path d="M15.52 2.50001C16.2198 2.50001 16.5042 2.50196 16.7326 2.54269C17.867 2.74492 18.7551 3.63296 18.9573 4.76738C18.998 4.99584 19 5.28024 19 5.98001L19.0001 5.99001L19 6.00001V15.5C19 15.7761 19.2239 16 19.5 16C19.7761 16 20 15.7761 20 15.5V6.00001L19.9999 5.99001L20 5.98001L20 5.91987C20.0001 5.29896 20.0001 4.91891 19.9418 4.59189C19.666 3.04494 18.4551 1.83398 16.9081 1.55821C16.5811 1.49991 16.2011 1.49995 15.5801 1.5L9.67936 1.50001C8.80981 1.5 8.12311 1.5 7.56879 1.54246C7.0056 1.58559 6.53659 1.67477 6.11296 1.8765C5.86364 1.99522 5.75777 2.29358 5.87649 2.5429C5.99522 2.79221 6.29357 2.89808 6.54289 2.77936C6.80789 2.65317 7.13794 2.57838 7.64515 2.53954C8.15685 2.50035 8.80539 2.50001 9.7 2.50001H15.52Z" fill="#000"/>
</svg>
