<svg width="24" height="24" viewBox="0 0 24 24" fill="none" xmlns="http://www.w3.org/2000/svg">
<path fill-rule="evenodd" clip-rule="evenodd" d="M12.766 3.32691C12.2594 3.24032 11.7406 3.24032 11.234 3.32691C10.6609 3.42486 10.1192 3.67065 9.21126 4.08267L2.60676 7.07898C2.10497 7.30662 1.69781 7.49133 1.39745 7.66069C1.10325 7.82657 0.816762 8.02694 0.662633 8.32812C0.445789 8.75185 0.445789 9.24826 0.662633 9.67199C0.816762 9.97317 1.10325 10.1735 1.39745 10.3394C1.6978 10.5088 2.10495 10.6935 2.60674 10.9211L4.5 11.7801V16.2574C4.5 17.1758 4.86567 18.1247 5.70503 18.6771C6.88155 19.4514 9.02495 20.5 12 20.5C14.975 20.5 17.1184 19.4514 18.2949 18.6771C19.1343 18.1247 19.5 17.1758 19.5 16.2574V11.7801L21.3932 10.9211C21.4293 10.9048 21.4649 10.8886 21.5 10.8727V16.0001C21.5 16.2762 21.7239 16.5001 22 16.5001C22.2761 16.5001 22.5 16.2762 22.5 16.0001V10.3957C22.5355 10.3767 22.5696 10.358 22.6025 10.3394C22.8968 10.1735 23.1832 9.97317 23.3374 9.67199C23.5542 9.24826 23.5542 8.75185 23.3374 8.32812C23.1832 8.02694 22.8968 7.82657 22.6025 7.66069C22.3022 7.49134 21.895 7.30663 21.3933 7.07899L14.7887 4.08267C13.8808 3.67065 13.3391 3.42486 12.766 3.32691ZM18.5 12.2337L14.7887 13.9174C13.8808 14.3295 13.3391 14.5753 12.766 14.6732C12.2594 14.7598 11.7406 14.7598 11.234 14.6732C10.6609 14.5753 10.1192 14.3295 9.21126 13.9174L5.5 12.2337V16.2574C5.5 16.9304 5.76488 17.5193 6.25478 17.8418C7.31365 18.5386 9.26858 19.5 12 19.5C14.7314 19.5 16.6863 18.5386 17.7452 17.8418C18.2351 17.5193 18.5 16.9304 18.5 16.2574V12.2337ZM11.4024 4.31261C11.7975 4.24508 12.2025 4.24508 12.5976 4.31261C13.0281 4.3862 13.447 4.57206 14.444 5.02436L20.9574 7.97936C21.4873 8.21974 21.8539 8.38659 22.1114 8.53176C22.3795 8.68294 22.4361 8.76213 22.4472 8.78369C22.5176 8.92135 22.5176 9.07877 22.4472 9.21643C22.4361 9.23799 22.3795 9.31718 22.1114 9.46836C21.8539 9.61352 21.4873 9.78038 20.9574 10.0208L14.444 12.9758C13.447 13.4281 13.0281 13.6139 12.5976 13.6875C12.2025 13.755 11.7975 13.755 11.4024 13.6875C10.9719 13.6139 10.553 13.4281 9.55603 12.9758L3.04258 10.0208C2.51272 9.78038 2.14607 9.61352 1.8886 9.46835C1.62048 9.31718 1.56387 9.23799 1.55284 9.21643C1.48239 9.07877 1.48239 8.92135 1.55284 8.78369C1.56387 8.76213 1.62048 8.68294 1.8886 8.53176C2.14607 8.38659 2.51272 8.21974 3.04258 7.97936L9.55603 5.02436C10.553 4.57206 10.9719 4.3862 11.4024 4.31261Z" fill="#000"/>
</svg>
