<svg width="24" height="24" viewBox="0 0 24 24" fill="none" xmlns="http://www.w3.org/2000/svg">
<path fill-rule="evenodd" clip-rule="evenodd" d="M13.6872 1.87343C12.6174 1.37577 11.3825 1.37577 10.3128 1.87343L3.81278 4.89733C2.40214 5.55358 1.5 6.96825 1.5 8.52407V15.5454C1.5 17.1132 2.41586 18.5364 3.84273 19.1859L10.3427 22.1449C11.3956 22.6242 12.6044 22.6242 13.6573 22.1449L20.1573 19.1859C21.5841 18.5364 22.5 17.1131 22.5 15.5454V8.52407C22.5 6.96825 21.5979 5.55358 20.1872 4.89732L13.6872 1.87343ZM10.7346 2.78012C11.5369 2.40687 12.4631 2.40687 13.2654 2.78012L19.7654 5.80401C20.2874 6.04685 20.7165 6.42814 21.0174 6.8923L17.524 8.45802L8.13784 3.98817L10.7346 2.78012ZM17.0001 9.78867V13.0003C17.0001 13.2764 17.224 13.5003 17.5001 13.5003C17.7763 13.5003 18.0001 13.2764 18.0001 13.0003V9.34047L21.414 7.8104C21.4704 8.04084 21.5 8.28014 21.5 8.52407V15.5454C21.5 16.7212 20.8131 17.7886 19.743 18.2758L13.243 21.2348C13.0042 21.3435 12.7547 21.4193 12.501 21.4623L12.5011 11.8051L17.0001 9.78867ZM16.3258 8.99503L6.96133 4.53549L4.23459 5.80401C3.7126 6.04685 3.28345 6.42815 2.98259 6.89231L12 10.9339L16.3258 8.99503ZM2.586 7.8104C2.52957 8.04085 2.5 8.28015 2.5 8.52407V15.5454C2.5 16.7212 3.1869 17.7886 4.25705 18.2758L10.757 21.2348C10.9965 21.3438 11.2466 21.4197 11.501 21.4626L11.5011 11.8061L2.586 7.8104Z" fill="#000"/>
</svg>
