<svg width="24" height="24" viewBox="0 0 24 24" fill="none" xmlns="http://www.w3.org/2000/svg">
<path fill-rule="evenodd" clip-rule="evenodd" d="M13.6872 1.87337C12.6174 1.3757 11.3825 1.37571 10.3128 1.87337L3.81278 4.89726C2.40214 5.55352 1.5 6.96819 1.5 8.52401V15.5453C1.5 17.1131 2.41586 18.5363 3.84273 19.1859L10.3427 22.1448C11.3956 22.6241 12.6044 22.6241 13.6573 22.1448L20.1573 19.1859C21.5841 18.5363 22.5 17.1131 22.5 15.5453V8.52401C22.5 6.96818 21.5979 5.55352 20.1872 4.89726L13.6872 1.87337ZM10.7346 2.78006C11.5369 2.40681 12.4631 2.40681 13.2654 2.78006L19.7654 5.80395C20.2874 6.04679 20.7165 6.42808 21.0174 6.89224L17.524 8.45796L8.13784 3.9881L10.7346 2.78006ZM17.0001 9.78861V13.0002C17.0001 13.2764 17.224 13.5002 17.5001 13.5002C17.7763 13.5002 18.0001 13.2764 18.0001 13.0002V9.34041L21.414 7.81034C21.4704 8.04078 21.5 8.28008 21.5 8.52401V15.5453C21.5 16.7212 20.8131 17.7886 19.743 18.2757L13.243 21.2347C13.0042 21.3434 12.7547 21.4192 12.501 21.4622L12.5011 11.8051L17.0001 9.78861ZM16.3258 8.99497L6.96133 4.53543L4.23459 5.80395C3.7126 6.04679 3.28345 6.42809 2.98259 6.89225L12 10.9338L16.3258 8.99497ZM2.586 7.81034C2.52957 8.04079 2.5 8.28009 2.5 8.52401V15.5453C2.5 16.7212 3.1869 17.7886 4.25705 18.2757L10.757 21.2347C10.9965 21.3437 11.2466 21.4197 11.501 21.4626L11.5011 11.806L2.586 7.81034Z" fill="#000"/>
</svg>
