<svg width="24" height="24" viewBox="0 0 24 24" fill="none" xmlns="http://www.w3.org/2000/svg">
<path d="M18.5 12.75C18.0858 12.75 17.75 13.0858 17.75 13.5C17.75 13.9142 18.0858 14.25 18.5 14.25C18.9142 14.25 19.2501 13.9142 19.2501 13.5C19.2501 13.0858 18.9142 12.75 18.5 12.75Z" fill="#000"/>
<path d="M4.75 13.5C4.75 13.0858 5.08579 12.75 5.5 12.75C5.91421 12.75 6.2501 13.0858 6.2501 13.5C6.2501 13.9142 5.91431 14.25 5.5001 14.25C5.08589 14.25 4.75 13.9142 4.75 13.5Z" fill="#000"/>
<path d="M11.5 10.0308V9.50001C11.5 9.22387 11.7239 9.00001 12 9.00001C12.2761 9.00001 12.5 9.22387 12.5 9.50001V10.0266C12.7364 10.0548 12.9586 10.1079 13.1844 10.1975C13.5499 10.3424 13.894 10.5714 14.3019 10.8802C14.522 11.0469 14.5653 11.3605 14.3987 11.5807C14.232 11.8008 13.9183 11.8441 13.6982 11.6774C13.306 11.3805 13.0502 11.22 12.8157 11.127C12.5929 11.0387 12.3604 11 12 11C11.471 11 11.0839 11.1248 10.8433 11.2991C10.6177 11.4624 10.5 11.6808 10.5 11.9654C10.5 12.3136 10.6606 12.5169 10.9443 12.6756C11.2595 12.8521 11.6791 12.9396 12.0822 13.0068C12.4791 13.0729 13.0595 13.1804 13.5443 13.4518C14.0606 13.7408 14.5 14.2382 14.5 15.0346C14.5 15.653 14.2177 16.1673 13.7433 16.5108C13.4009 16.7588 12.9734 16.9089 12.5 16.9692V17.5C12.5 17.7761 12.2761 18 12 18C11.7239 18 11.5 17.7761 11.5 17.5V16.9733C11.2637 16.9451 11.0414 16.892 10.8157 16.8025C10.4502 16.6575 10.106 16.4285 9.69819 16.1197C9.47804 15.953 9.43471 15.6394 9.60141 15.4193C9.76811 15.1991 10.0817 15.1558 10.3019 15.3225C10.694 15.6195 10.9499 15.7799 11.1844 15.873C11.4072 15.9613 11.6396 16 12 16C12.529 16 12.9162 15.8752 13.1568 15.7009C13.3823 15.5376 13.5 15.3192 13.5 15.0346C13.5 14.6864 13.3394 14.4831 13.0558 14.3244C12.7406 14.1479 12.321 14.0604 11.9178 13.9932C11.521 13.9271 10.9406 13.8196 10.4558 13.5482C9.93941 13.2592 9.50003 12.7618 9.50003 11.9654C9.50003 11.347 9.78233 10.8327 10.2567 10.4892C10.5991 10.2412 11.0267 10.0912 11.5 10.0308Z" fill="#000"/>
<path fill-rule="evenodd" clip-rule="evenodd" d="M10.3794 2H13.6207C14.0231 1.99999 14.3553 1.99999 14.6259 2.0221C14.907 2.04506 15.1653 2.09434 15.408 2.21799C15.7843 2.40973 16.0903 2.7157 16.282 3.09202C16.4057 3.33469 16.4549 3.59304 16.4779 3.87409C16.5 4.14468 16.5 4.47686 16.5 4.87934V5H16.9224C17.8835 5 18.6355 5 19.2395 5.04935C19.8541 5.09956 20.3594 5.20334 20.816 5.43598C21.5686 5.81947 22.1805 6.43139 22.564 7.18404C22.7967 7.64062 22.9004 8.14594 22.9507 8.76049C23 9.36453 23 10.1165 23 11.0777V15.9223C23 16.8835 23 17.6355 22.9507 18.2395C22.9004 18.8541 22.7967 19.3594 22.564 19.816C22.1805 20.5686 21.5686 21.1805 20.816 21.564C20.3594 21.7967 19.8541 21.9004 19.2395 21.9507C18.6355 22 17.8835 22 16.9223 22H7.07754C6.11646 22 5.36451 22 4.76049 21.9507C4.14594 21.9004 3.64062 21.7967 3.18404 21.564C2.43139 21.1805 1.81947 20.5686 1.43597 19.816C1.20334 19.3594 1.09956 18.8541 1.04935 18.2395C0.999995 17.6355 0.999997 16.8835 1 15.9225V11.0776C0.999998 10.1165 0.999996 9.36451 1.04935 8.76049C1.09956 8.14594 1.20334 7.64062 1.43597 7.18404C1.81947 6.43139 2.43139 5.81947 3.18404 5.43597C3.64062 5.20334 4.14594 5.09956 4.76049 5.04935C5.36451 5 6.11646 5 7.07755 5H7.5V4.87935C7.49999 4.47689 7.49999 4.14468 7.5221 3.87409C7.54506 3.59304 7.59434 3.33469 7.71799 3.09202C7.90974 2.7157 8.2157 2.40973 8.59202 2.21799C8.83469 2.09434 9.09304 2.04506 9.37409 2.0221C9.64468 1.99999 9.97687 1.99999 10.3794 2ZM15.5 4.9V5L8.5 5V4.9C8.5 4.47171 8.50039 4.18056 8.51878 3.95552C8.53669 3.73631 8.56915 3.62421 8.60899 3.54601C8.70487 3.35785 8.85785 3.20487 9.04601 3.10899C9.12421 3.06915 9.23631 3.03669 9.45552 3.01878C9.68056 3.00039 9.97171 3 10.4 3H13.6C14.0283 3 14.3194 3.00039 14.5445 3.01878C14.7637 3.03669 14.8758 3.06915 14.954 3.10899C15.1422 3.20487 15.2951 3.35785 15.391 3.54601C15.4309 3.62421 15.4633 3.73631 15.4812 3.95552C15.4996 4.18056 15.5 4.47171 15.5 4.9ZM7.1 6L16.9 6C17.8883 6 18.5995 6.00039 19.1581 6.04603C19.7108 6.09118 20.0699 6.17814 20.362 6.32698C20.9265 6.6146 21.3854 7.07354 21.673 7.63803C21.8219 7.93014 21.9088 8.28921 21.954 8.84193C21.9996 9.40047 22 10.1117 22 11.1V15.9C22 16.8883 21.9996 17.5995 21.954 18.1581C21.9088 18.7108 21.8219 19.0699 21.673 19.362C21.3854 19.9265 20.9265 20.3854 20.362 20.673C20.0699 20.8219 19.7108 20.9088 19.1581 20.954C18.5995 20.9996 17.8883 21 16.9 21H7.1C6.11166 21 5.40047 20.9996 4.84192 20.954C4.28921 20.9088 3.93014 20.8219 3.63803 20.673C3.07354 20.3854 2.6146 19.9265 2.32698 19.362C2.17814 19.0699 2.09118 18.7108 2.04602 18.1581C2.00039 17.5995 2 16.8883 2 15.9L2 11.1C2 10.1117 2.00039 9.40047 2.04602 8.84192C2.09118 8.28921 2.17814 7.93014 2.32698 7.63803C2.6146 7.07354 3.07354 6.6146 3.63803 6.32698C3.93014 6.17814 4.28921 6.09118 4.84192 6.04602C5.40047 6.00039 6.11166 6 7.1 6Z" fill="#000"/>
</svg>
