<svg width="24" height="24" viewBox="0 0 24 24" fill="none" xmlns="http://www.w3.org/2000/svg">
<path d="M9.95354 11.7465C10.1488 11.9417 10.1488 12.2583 9.95354 12.4536L7.90709 14.5L9.95354 16.5465C10.1488 16.7417 10.1488 17.0583 9.95354 17.2536C9.75827 17.4489 9.44169 17.4489 9.24643 17.2536L6.84643 14.8536C6.65117 14.6583 6.65117 14.3417 6.84643 14.1465L9.24643 11.7465C9.44169 11.5512 9.75827 11.5512 9.95354 11.7465Z" fill="#000"/>
<path d="M14.7535 11.7465C14.5583 11.5512 14.2417 11.5512 14.0464 11.7465C13.8512 11.9417 13.8512 12.2583 14.0464 12.4536L16.0929 14.5L14.0464 16.5465C13.8512 16.7417 13.8512 17.0583 14.0464 17.2536C14.2417 17.4489 14.5583 17.4489 14.7535 17.2536L17.1535 14.8536C17.3488 14.6583 17.3488 14.3417 17.1535 14.1465L14.7535 11.7465Z" fill="#000"/>
<path fill-rule="evenodd" clip-rule="evenodd" d="M18.122 2.50006H5.87791C5.12653 2.50006 4.53203 2.50005 4.05306 2.53919C3.56357 2.57918 3.15086 2.66252 2.7745 2.85429C2.16297 3.16588 1.66579 3.66307 1.3542 4.27459C1.16243 4.65095 1.07909 5.06366 1.0391 5.55315C0.999963 6.03212 0.999966 6.62661 0.99997 7.37799V16.6221C0.999966 17.3735 0.999963 17.968 1.0391 18.447C1.07909 18.9365 1.16243 19.3492 1.3542 19.7255C1.66579 20.3371 2.16297 20.8342 2.7745 21.1458C3.15086 21.3376 3.56357 21.4209 4.05306 21.4609C4.532 21.5001 5.12645 21.5001 5.87776 21.5001H18.122C18.8734 21.5001 19.4679 21.5001 19.9469 21.4609C20.4364 21.4209 20.8491 21.3376 21.2254 21.1458C21.837 20.8342 22.3342 20.3371 22.6457 19.7255C22.8375 19.3492 22.9208 18.9365 22.9608 18.447C23 17.968 23 17.3736 23 16.6223V7.37799C23 6.62668 23 6.03209 22.9608 5.55315C22.9208 5.06366 22.8375 4.65095 22.6457 4.27459C22.3342 3.66307 21.837 3.16588 21.2254 2.85429C20.8491 2.66252 20.4364 2.57918 19.9469 2.53919C19.4679 2.50005 18.8734 2.50006 18.122 2.50006ZM22 7.50006V7.40006C22 6.62174 21.9996 6.06807 21.9642 5.63458C21.9292 5.20693 21.8627 4.94048 21.7547 4.72858C21.539 4.30522 21.1948 3.96101 20.7714 3.7453C20.5596 3.63733 20.2931 3.57081 19.8654 3.53587C19.432 3.50045 18.8783 3.50006 18.1 3.50006H5.89997C5.12165 3.50006 4.56798 3.50045 4.13449 3.53587C3.70684 3.57081 3.44039 3.63733 3.22849 3.7453C2.80513 3.96101 2.46092 4.30522 2.24521 4.72858C2.13724 4.94048 2.07072 5.20693 2.03578 5.63458C2.00036 6.06807 1.99997 6.62174 1.99997 7.40006V7.50006H22ZM1.99997 8.50006H22V16.6001C22 17.3784 21.9996 17.9321 21.9642 18.3655C21.9292 18.7932 21.8627 19.0596 21.7547 19.2715C21.539 19.6949 21.1948 20.0391 20.7714 20.2548C20.5596 20.3628 20.2931 20.4293 19.8654 20.4643C19.432 20.4997 18.8783 20.5001 18.1 20.5001H5.89997C5.12165 20.5001 4.56798 20.4997 4.13449 20.4643C3.70684 20.4293 3.44039 20.3628 3.22849 20.2548C2.80513 20.0391 2.46092 19.6949 2.24521 19.2715C2.13724 19.0596 2.07072 18.7932 2.03578 18.3655C2.00036 17.9321 1.99997 17.3784 1.99997 16.6001V8.50006Z" fill="#000"/>
</svg>
