<svg width="24" height="24" viewBox="0 0 24 24" fill="none" xmlns="http://www.w3.org/2000/svg">
<path fill-rule="evenodd" clip-rule="evenodd" d="M8.5 5C8.5 3.067 10.067 1.5 12 1.5C13.933 1.5 15.5 3.067 15.5 5V5.52941C15.5 6.06545 15.0655 6.5 14.5294 6.5H9.47059C8.93455 6.5 8.5 6.06545 8.5 5.52941V5ZM12 2.5C10.6193 2.5 9.5 3.61929 9.5 5V5.5H14.5V5C14.5 3.61929 13.3807 2.5 12 2.5Z" fill="#000"/>
<path fill-rule="evenodd" clip-rule="evenodd" d="M9.65257 8.00001H14.3475C15.4171 7.9998 16.083 7.99967 16.6365 8.18967C17.653 8.53865 18.4526 9.33524 18.8056 10.3498C19.8965 9.92991 20.5 8.72194 20.5 7.49991C20.5 7.22377 20.7239 6.99991 21 6.99991C21.2761 6.99991 21.5 7.22377 21.5 7.49991C21.5 9.02671 20.7033 10.8116 18.9787 11.3494C19.0002 11.7112 19.0001 12.1345 19 12.6526L19 14.5H22C22.2761 14.5 22.5 14.7239 22.5 15C22.5 15.2761 22.2761 15.5 22 15.5H19C19 16.2211 18.891 16.9167 18.6885 17.5713C19.5385 17.7529 20.1962 18.2634 20.6544 18.8934C21.2207 19.6722 21.5 20.6517 21.5 21.5C21.5 21.7761 21.2761 22 21 22C20.7239 22 20.5 21.7761 20.5 21.5C20.5 20.8483 20.2793 20.0778 19.8456 19.4816C19.478 18.976 18.9713 18.6104 18.3164 18.5211C17.1886 20.8747 14.7841 22.5 12 22.5C9.21593 22.5 6.81144 20.8747 5.6837 18.5211C5.02874 18.6103 4.52206 18.976 4.15437 19.4816C3.72074 20.0778 3.5 20.8483 3.5 21.5C3.5 21.7761 3.27614 22 3 22C2.72386 22 2.5 21.7761 2.5 21.5C2.5 20.6517 2.77926 19.6722 3.34563 18.8934C3.80381 18.2634 4.46152 17.7529 5.31153 17.5713C5.10906 16.9167 5.00003 16.2211 5.00003 15.5L2 15.5C1.72386 15.5 1.5 15.2761 1.5 15C1.5 14.7239 1.72386 14.5 2 14.5H5.00003L5.00001 12.6526C4.99991 12.1345 4.99983 11.7112 5.02135 11.3494C3.29674 10.8116 2.5 9.02673 2.5 7.49991C2.5 7.22377 2.72386 6.99991 3 6.99991C3.27614 6.99991 3.5 7.22377 3.5 7.49991C3.5 8.72196 4.10355 9.92995 5.19441 10.3499C5.54743 9.33525 6.34702 8.53866 7.36358 8.18967C7.91704 7.99967 8.58296 7.9998 9.65257 8.00001ZM17.5552 17.7715C17.5431 17.795 17.5328 17.8195 17.5245 17.845C16.6733 19.8477 14.765 21.2926 12.5 21.4795V13C12.5 12.7239 12.2761 12.5 12 12.5C11.7239 12.5 11.5 12.7239 11.5 13V21.4795C9.23477 21.2926 7.32635 19.8474 6.47533 17.8444C6.46713 17.8194 6.45701 17.7952 6.44513 17.772C6.1582 17.0713 6.00003 16.3041 6.00003 15.5V12.7632C6.00003 11.5463 6.00686 11.063 6.13549 10.6883C6.38589 9.95889 6.95889 9.38589 7.68828 9.13549C8.06296 9.00686 8.54627 9.00003 9.76319 9.00003H14.2369C15.4538 9.00003 15.9371 9.00686 16.3118 9.13549C17.0412 9.38589 17.6142 9.95889 17.8646 10.6883C17.9932 11.063 18 11.5463 18 12.7632V14.9946L18 15L18 15.0054V15.5C18 16.3039 17.8419 17.0708 17.5552 17.7715Z" fill="#000"/>
</svg>
