<svg width="24" height="24" viewBox="0 0 24 24" fill="none" xmlns="http://www.w3.org/2000/svg">
<path fill-rule="evenodd" clip-rule="evenodd" d="M5.77779 1.5H12.2222C13.0435 1.5 13.6905 1.49999 14.2111 1.54253C14.7423 1.58593 15.1859 1.67609 15.589 1.88148C16.2475 2.21703 16.783 2.75247 17.1185 3.41103C17.3239 3.81413 17.4141 4.25771 17.4575 4.78889C17.5 5.30954 17.5 5.95651 17.5 6.77778V9.70854C17.5 9.98469 17.2761 10.2085 17 10.2085C16.7239 10.2085 16.5 9.98469 16.5 9.70854V6.8C16.5 5.95167 16.4996 5.34549 16.4608 4.87032C16.4224 4.40099 16.3491 4.10366 16.2275 3.86502C15.9878 3.39462 15.6054 3.01217 15.135 2.77248C14.8963 2.65089 14.599 2.57756 14.1297 2.53921C13.6545 2.50039 13.0483 2.5 12.2 2.5H5.8C4.95167 2.5 4.34549 2.50039 3.87032 2.53921C3.40099 2.57756 3.10366 2.65089 2.86502 2.77248C2.39462 3.01217 2.01217 3.39462 1.77248 3.86502C1.65089 4.10366 1.57756 4.40099 1.53921 4.87032C1.50039 5.34549 1.5 5.95167 1.5 6.8V17.2C1.5 18.0483 1.50039 18.6545 1.53921 19.1297C1.57756 19.599 1.65089 19.8963 1.77248 20.135C2.01217 20.6054 2.39462 20.9878 2.86502 21.2275C3.10366 21.3491 3.40099 21.4224 3.87032 21.4608C4.34549 21.4996 4.95167 21.5 5.8 21.5H6V17C6 16.1716 6.67157 15.5 7.5 15.5H10.5C11.3284 15.5 12 16.1716 12 17V21.5L12.6156 21.5C12.8918 21.5 13.1157 21.7238 13.1157 21.9999C13.1157 22.2761 12.8919 22.5 12.6158 22.5L5.77778 22.5C4.95651 22.5 4.30954 22.5 3.78889 22.4575C3.25771 22.4141 2.81413 22.3239 2.41103 22.1185C1.75247 21.783 1.21703 21.2475 0.881478 20.589C0.676087 20.1859 0.585932 19.7423 0.542533 19.2111C0.499994 18.6905 0.499997 18.0435 0.5 17.2222V6.77779C0.499997 5.95653 0.499994 5.30954 0.542533 4.78889C0.585932 4.25771 0.676087 3.81414 0.881477 3.41103C1.21703 2.75247 1.75247 2.21703 2.41103 1.88148C2.81414 1.67609 3.25771 1.58593 3.78889 1.54253C4.30954 1.49999 4.95653 1.5 5.77779 1.5ZM7 21.5H11V17C11 16.7239 10.7761 16.5 10.5 16.5H7.5C7.22386 16.5 7 16.7239 7 17V21.5Z" fill="#000"/>
<path d="M10.5 13C10.5 12.7239 10.7239 12.5 11 12.5H12C12.2761 12.5 12.5 12.7239 12.5 13C12.5 13.2761 12.2761 13.5 12 13.5H11C10.7239 13.5 10.5 13.2761 10.5 13Z" fill="#000"/>
<path d="M12.5 10C12.5 10.2761 12.2761 10.5 12 10.5H11C10.7239 10.5 10.5 10.2761 10.5 10C10.5 9.72386 10.7239 9.5 11 9.5H12C12.2761 9.5 12.5 9.72386 12.5 10Z" fill="#000"/>
<path d="M12 7.5C12.2761 7.5 12.5 7.27614 12.5 7C12.5 6.72386 12.2761 6.5 12 6.5H11C10.7239 6.5 10.5 6.72386 10.5 7C10.5 7.27614 10.7239 7.5 11 7.5H12Z" fill="#000"/>
<path d="M7.5 10C7.5 10.2761 7.27614 10.5 7 10.5H6C5.72386 10.5 5.5 10.2761 5.5 10C5.5 9.72386 5.72386 9.5 6 9.5H7C7.27614 9.5 7.5 9.72386 7.5 10Z" fill="#000"/>
<path d="M7 7.5C7.27614 7.5 7.5 7.27614 7.5 7C7.5 6.72386 7.27614 6.5 7 6.5H6C5.72386 6.5 5.5 6.72386 5.5 7C5.5 7.27614 5.72386 7.5 6 7.5H7Z" fill="#000"/>
<path d="M7.5 13C7.5 13.2761 7.27614 13.5 7 13.5H6C5.72386 13.5 5.5 13.2761 5.5 13C5.5 12.7239 5.72386 12.5 6 12.5H7C7.27614 12.5 7.5 12.7239 7.5 13Z" fill="#000"/>
<path fill-rule="evenodd" clip-rule="evenodd" d="M23.5 14.5057C23.5 13.6612 22.8301 13.0304 22.0525 12.6405C21.2455 12.2358 20.1656 12 19 12C17.8344 12 16.7545 12.2358 15.9475 12.6405C15.1699 13.0304 14.5 13.6612 14.5 14.5057C14.5 15.1567 14.5004 16.2883 14.5008 17.3674C14.5011 18.3508 14.5015 19.2907 14.5015 19.7834C14.5015 20.7182 15.125 21.4107 15.9383 21.8427C16.7539 22.2759 17.8402 22.5003 19.001 22.5003C20.1617 22.5003 21.2481 22.2759 22.0636 21.8427C22.877 21.4107 23.5005 20.7182 23.5005 19.7834L23.5 14.5057ZM19 13C20.0436 13 20.9636 13.2132 21.6043 13.5344C22.2745 13.8705 22.5 14.2425 22.5 14.5057C22.5 14.7689 22.2745 15.141 21.6043 15.477C20.9636 15.7983 20.0436 16.0114 19 16.0114C17.9564 16.0114 17.0364 15.7983 16.3957 15.477C15.7255 15.141 15.5 14.7689 15.5 14.5057C15.5 14.2425 15.7255 13.8705 16.3957 13.5344C17.0364 13.2132 17.9564 13 19 13ZM15.5012 16.6972C15.5013 16.8929 15.5015 17.0886 15.5015 17.2843C15.5145 17.6969 15.7883 18.1007 16.407 18.4294C17.0389 18.7651 17.9524 18.9701 19.0005 18.9701C20.0486 18.9701 20.9621 18.7651 21.594 18.4294C22.2282 18.0925 22.5 17.6766 22.5 17.2532L22.4999 16.1095C21.4942 16.7939 20.193 17.0114 19 17.0114C17.8073 17.0114 16.5066 16.794 15.501 16.1101C15.501 16.3058 15.5011 16.5015 15.5012 16.6972ZM15.5015 19.7834V19.0409C16.4899 19.7613 17.8061 19.9701 19.0005 19.9701C20.1953 19.9701 21.5119 19.7612 22.5004 19.0402L22.5005 19.7834C22.5005 20.2068 22.2287 20.6227 21.5945 20.9596C20.9625 21.2953 20.0491 21.5003 19.001 21.5003C17.9529 21.5003 17.0394 21.2953 16.4074 20.9596C15.7733 20.6227 15.5015 20.2068 15.5015 19.7834Z" fill="#000"/>
</svg>
