<svg width="24" height="24" viewBox="0 0 24 24" fill="none" xmlns="http://www.w3.org/2000/svg">
<path fill-rule="evenodd" clip-rule="evenodd" d="M21 16.8383V11.937C21.8626 11.715 22.5 10.9319 22.5 10C22.5 9.06808 21.8626 8.28503 21 8.06301V3.16171C21 2.24397 20.256 1.5 19.3383 1.5C19.0223 1.5 18.7128 1.59012 18.4462 1.75979L16.3025 3.12394C14.3771 4.3492 12.1422 5 9.85999 5H6.5C3.73858 5 1.5 7.23858 1.5 10C1.5 12.7614 3.73858 15 6.5 15H6.61586L8.31893 21.3865C8.49403 22.0431 9.0887 22.5 9.76828 22.5H11C11.8284 22.5 12.5 21.8284 12.5 21V15.294C13.8428 15.5968 15.13 16.1299 16.3025 16.8761L18.4462 18.2402C18.7128 18.4099 19.0223 18.5 19.3383 18.5C20.256 18.5 21 17.756 21 16.8383ZM19.3383 2.5C19.2124 2.5 19.0892 2.53589 18.983 2.60345L16.8394 3.9676C15.5053 4.81656 14.0341 5.41094 12.5 5.72912L12.5 14.2709C14.0341 14.5891 15.5053 15.1834 16.8394 16.0324L18.983 17.3965C19.0892 17.4641 19.2124 17.5 19.3383 17.5C19.7037 17.5 20 17.2037 20 16.8383V3.16171C20 2.79626 19.7037 2.5 19.3383 2.5ZM11.5 14.1039L11.5 5.89615C10.958 5.96508 10.4102 6 9.85999 6H6.5C4.29086 6 2.5 7.79086 2.5 10C2.5 12.2091 4.29086 14 6.5 14H6.9893C6.99667 13.9998 7.00401 13.9998 7.01134 14H9.85999C10.4102 14 10.958 14.0349 11.5 14.1039ZM9.28516 21.1288L7.65081 15H9.85999C10.4106 15 10.9585 15.0379 11.5 15.1126V21C11.5 21.2761 11.2761 21.5 11 21.5H9.76828C9.54175 21.5 9.34353 21.3477 9.28516 21.1288Z" fill="#000"/>
</svg>
