<svg width="24" height="24" viewBox="0 0 24 24" fill="none" xmlns="http://www.w3.org/2000/svg">
<path d="M15.5 15.5C15.5 15.7761 15.2761 16 15 16H12.5V18.5C12.5 18.7761 12.2761 19 12 19C11.7239 19 11.5 18.7761 11.5 18.5V16H9C8.72386 16 8.5 15.7761 8.5 15.5C8.5 15.2239 8.72386 15 9 15H11.5V12.5C11.5 12.2239 11.7239 12 12 12C12.2761 12 12.5 12.2239 12.5 12.5V15H15C15.2761 15 15.5 15.2239 15.5 15.5Z" fill="#000"/>
<path fill-rule="evenodd" clip-rule="evenodd" d="M8.5 1C8.5 0.723858 8.27614 0.5 8 0.5C7.72386 0.5 7.5 0.723858 7.5 1V2.5C6.57588 2.50003 5.84817 2.50133 5.26049 2.54935C4.64594 2.59956 4.14062 2.70334 3.68404 2.93597C2.93139 3.31947 2.31947 3.93139 1.93597 4.68404C1.70334 5.14062 1.59956 5.64594 1.54935 6.26049C1.5 6.86451 1.5 7.61646 1.5 8.57755V17.4224C1.5 18.3835 1.49999 19.1355 1.54935 19.7395C1.59956 20.3541 1.70334 20.8594 1.93597 21.316C2.31947 22.0686 2.93139 22.6805 3.68404 23.064C4.14062 23.2967 4.64594 23.4004 5.26049 23.4507C5.86451 23.5 6.61646 23.5 7.57754 23.5H16.4225C17.3835 23.5 18.1355 23.5 18.7395 23.4507C19.3541 23.4004 19.8594 23.2967 20.316 23.064C21.0686 22.6805 21.6805 22.0686 22.064 21.316C22.2967 20.8594 22.4004 20.3541 22.4507 19.7395C22.5 19.1355 22.5 18.3835 22.5 17.4225V8.57754C22.5 7.61646 22.5 6.86451 22.4507 6.26049C22.4004 5.64594 22.2967 5.14062 22.064 4.68404C21.6805 3.93139 21.0686 3.31947 20.316 2.93597C19.8594 2.70334 19.3541 2.59956 18.7395 2.54935C18.1518 2.50133 17.4241 2.50003 16.5 2.5V1C16.5 0.723858 16.2761 0.5 16 0.5C15.7239 0.5 15.5 0.723858 15.5 1V2.5H8.5V1ZM16.4 3.5C17.3883 3.5 18.0995 3.50039 18.6581 3.54602C19.2108 3.59118 19.5699 3.67814 19.862 3.82698C20.4265 4.1146 20.8854 4.57354 21.173 5.13803C21.3219 5.43014 21.4088 5.78921 21.454 6.34192C21.4898 6.78044 21.4977 7.31305 21.4995 8H2.5005C2.50226 7.31305 2.5102 6.78044 2.54602 6.34192C2.59118 5.78921 2.67814 5.43014 2.82698 5.13803C3.1146 4.57354 3.57354 4.1146 4.13803 3.82698C4.43014 3.67814 4.78921 3.59118 5.34192 3.54602C5.90047 3.50039 6.61166 3.5 7.6 3.5H16.4ZM2.5 9V17.4C2.5 18.3883 2.50039 19.0995 2.54602 19.6581C2.59118 20.2108 2.67814 20.5699 2.82698 20.862C3.1146 21.4265 3.57354 21.8854 4.13803 22.173C4.43014 22.3219 4.78921 22.4088 5.34192 22.454C5.90047 22.4996 6.61166 22.5 7.6 22.5H16.4C17.3883 22.5 18.0995 22.4996 18.6581 22.454C19.2108 22.4088 19.5699 22.3219 19.862 22.173C20.4265 21.8854 20.8854 21.4265 21.173 20.862C21.3219 20.5699 21.4088 20.2108 21.454 19.6581C21.4996 19.0995 21.5 18.3883 21.5 17.4V9H2.5Z" fill="#000"/>
</svg>
