<svg width="24" height="24" viewBox="0 0 24 24" fill="none" xmlns="http://www.w3.org/2000/svg">
<path fill-rule="evenodd" clip-rule="evenodd" d="M2.35364 1.64669C2.15838 1.45143 1.8418 1.45143 1.64654 1.64669C1.45128 1.84195 1.45128 2.15854 1.64654 2.3538L3.93977 4.64703C3.85087 4.66919 3.76428 4.69486 3.67925 4.7246C2.53009 5.12662 1.62656 6.03011 1.2245 7.17925C0.999755 7.82162 0.999875 8.59887 1.00007 9.88314L1.00008 15.4225C1.00008 16.3836 1.00008 17.1356 1.04943 17.7396C1.09964 18.3542 1.20342 18.8595 1.43606 19.3161C1.81955 20.0687 2.43147 20.6806 3.18412 21.0641C3.6407 21.2968 4.14602 21.4005 4.76058 21.4508C5.36459 21.5001 6.11654 21.5001 7.07763 21.5001H16.9225C17.8836 21.5001 18.6356 21.5001 19.2396 21.4508C19.7144 21.412 20.1241 21.3412 20.4964 21.2037L21.6465 22.3538C21.8418 22.5491 22.1584 22.5491 22.3536 22.3538C22.5489 22.1585 22.5489 21.842 22.3536 21.6467L20.9688 20.2618C20.9643 20.2572 20.9597 20.2526 20.9551 20.2482L15.6429 14.936C15.6398 14.9328 15.6367 14.9296 15.6335 14.9265L10.0738 9.36687C10.0707 9.36369 10.0676 9.36055 10.0644 9.35746L2.35364 1.64669ZM8.96795 9.67521L4.82092 5.52818C4.46116 5.55246 4.21605 5.59624 4.00946 5.66851C3.14759 5.97002 2.46994 6.64764 2.1684 7.5095C2.00716 7.97036 2.00008 8.56194 2.00008 10.0001V15.4001C2.00008 16.3884 2.00047 17.0996 2.04611 17.6582C2.09127 18.2109 2.17823 18.57 2.32706 18.8621C2.61469 19.4266 3.07363 19.8855 3.63811 20.1731C3.93022 20.322 4.2893 20.4089 4.84201 20.4541C5.40056 20.4997 6.11174 20.5001 7.10009 20.5001H16.9001C17.8884 20.5001 18.5996 20.4997 19.1582 20.4541C19.3554 20.438 19.5279 20.4165 19.6816 20.3889L15.3252 16.0324C14.5027 16.9337 13.3176 17.5003 12.0001 17.5003C9.5148 17.5003 7.50008 15.4856 7.50008 13.0003C7.50008 11.6828 8.06663 10.4976 8.96795 9.67521ZM14.6171 15.3244L9.67598 10.3832C8.95392 11.0249 8.50008 11.9596 8.50008 13.0003C8.50008 14.9333 10.0671 16.5003 12.0001 16.5003C13.0408 16.5003 13.9755 16.0465 14.6171 15.3244Z" fill="#000"/>
<path d="M10.1978 2.00027C9.79897 2.00003 9.49798 1.99986 9.21617 2.08412C8.96795 2.15834 8.73651 2.28009 8.53473 2.44258C8.30563 2.62707 8.13526 2.8752 7.90952 3.20395L7.56954 3.69851C7.4131 3.92606 7.47075 4.23735 7.6983 4.3938C7.92585 4.55024 8.23714 4.49259 8.39359 4.26504L8.69688 3.82389C8.97589 3.41805 9.06141 3.30238 9.16193 3.22144C9.26282 3.14019 9.37854 3.07932 9.50265 3.04221C9.6263 3.00524 9.77006 3.00029 10.2626 3.00029H13.7376C14.2301 3.00029 14.3739 3.00524 14.4975 3.04221C14.6216 3.07932 14.7373 3.14019 14.8382 3.22144C14.9388 3.30238 15.0243 3.41805 15.3033 3.82389L16.3067 5.28336C16.4 5.41904 16.5541 5.5001 16.7187 5.5001H16.9001C17.8884 5.5001 18.5996 5.50049 19.1582 5.54612C19.7109 5.59128 20.0699 5.67824 20.3621 5.82708C20.9265 6.1147 21.3855 6.57364 21.6731 7.13813C21.8219 7.43024 21.9089 7.78931 21.9541 8.34202C21.9997 8.90057 22.0001 9.61176 22.0001 10.6001V15.4001C22.0001 16.8175 21.9976 17.6534 21.8732 18.2634C21.818 18.534 21.9926 18.798 22.2632 18.8532C22.5338 18.9084 22.7978 18.7338 22.853 18.4632C23.0002 17.7416 23.0001 16.8007 23.0001 15.4671V10.5776C23.0001 9.61655 23.0001 8.86461 22.9507 8.26059C22.9005 7.64604 22.7967 7.14072 22.5641 6.68414C22.1806 5.93149 21.5687 5.31957 20.816 4.93607C20.3595 4.70343 19.8541 4.59965 19.2396 4.54944C18.648 4.50111 17.9146 4.50012 16.9817 4.5001L16.0906 3.20395C15.8649 2.8752 15.6945 2.62707 15.4654 2.44258C15.2637 2.28009 15.0322 2.15834 14.784 2.08412C14.5022 1.99986 14.2012 2.00003 13.8024 2.00027H10.1978Z" fill="#000"/>
</svg>
