<svg width="24" height="24" viewBox="0 0 24 24" fill="none" xmlns="http://www.w3.org/2000/svg">
<path d="M10 13C9.72386 13 9.5 13.2239 9.5 13.5C9.5 13.7762 9.72386 14 10 14H14C14.2761 14 14.5 13.7762 14.5 13.5C14.5 13.2239 14.2761 13 14 13H10Z" fill="#000"/>
<path d="M5.25 13.5C5.25 13.0858 5.58579 12.75 6 12.75C6.41421 12.75 6.7501 13.0858 6.7501 13.5C6.7501 13.9142 6.41431 14.25 6.0001 14.25C5.58589 14.25 5.25 13.9142 5.25 13.5Z" fill="#000"/>
<path d="M18 12.75C17.5858 12.75 17.25 13.0858 17.25 13.5C17.25 13.9142 17.5858 14.25 18 14.25C18.4142 14.25 18.7501 13.9142 18.7501 13.5C18.7501 13.0858 18.4142 12.75 18 12.75Z" fill="#000"/>
<path fill-rule="evenodd" clip-rule="evenodd" d="M3.04724 9.27719L3.63963 7.50003H2C1.72386 7.50003 1.5 7.27617 1.5 7.00003C1.5 6.72389 1.72386 6.50003 2 6.50003H3.97296L4.14789 5.97517C4.44262 5.09007 4.63482 4.51286 5.00056 4.07552C5.32274 3.69024 5.7365 3.39203 6.20389 3.20821C6.73444 2.99954 7.34281 2.99973 8.27569 3.00002H15.7243C16.6572 2.99973 17.2656 2.99954 17.7961 3.20821C18.2635 3.39203 18.6773 3.69024 18.9995 4.07551C19.3652 4.51286 19.5574 5.09007 19.8521 5.97518L20.027 6.50003H22C22.2761 6.50003 22.5 6.72389 22.5 7.00003C22.5 7.27617 22.2761 7.50003 22 7.50003H20.3604L20.9528 9.27719C20.9681 9.28451 20.9833 9.29203 20.9985 9.29976C21.5159 9.56341 21.9366 9.98411 22.2003 10.5016C22.3648 10.8244 22.4345 11.1754 22.4677 11.5815C22.5 11.9771 22.5 12.4665 22.5 13.0781V13.9217C22.5 14.5333 22.5 15.023 22.4677 15.4185C22.4345 15.8247 22.3648 16.1756 22.2003 16.4985C22.0269 16.8388 21.7855 17.1373 21.4934 17.3768C21.4977 17.4035 21.5 17.4306 21.5 17.458V19.75C21.5 20.4404 20.9404 21 20.25 21H18.75C18.0596 21 17.5 20.4404 17.5 19.75V18H6.5V19.75C6.5 20.4404 5.94036 21 5.25 21H3.75C3.05964 21 2.5 20.4404 2.5 19.75V17.4579C2.5 17.4305 2.50224 17.4034 2.50661 17.3768C2.21449 17.1373 1.97314 16.8388 1.79973 16.4985C1.63521 16.1756 1.5655 15.8247 1.53232 15.4185C1.49999 15.0229 1.5 14.5334 1.5 13.9217V13.0784C1.5 12.4667 1.49999 11.9771 1.53232 11.5815C1.5655 11.1754 1.63521 10.8244 1.79973 10.5016C2.06338 9.98411 2.48408 9.56341 3.00153 9.29976C3.0167 9.29203 3.03194 9.28451 3.04724 9.27719ZM6.56989 4.13882C6.90138 4.00845 7.30366 4.00004 8.38304 4.00004H15.617C16.6964 4.00004 17.0986 4.00845 17.4301 4.13882C17.7417 4.26137 18.0175 4.46018 18.2323 4.71703C18.4608 4.99027 18.596 5.36925 18.9374 6.39324L19.8145 9.02471C19.7885 9.023 19.7622 9.02142 19.7358 9.01996C19.6036 9.01264 19.4614 9.00802 19.3082 9.00509C19.0452 9.00004 18.7511 9.00003 18.4217 9.00003H5.57833C5.17453 9.00003 4.82394 9.00003 4.51848 9.00932C4.42981 9.01201 4.34513 9.01548 4.26426 9.01996L4.22453 9.02226L4.18549 9.02472L5.06265 6.39325C5.40398 5.36925 5.53917 4.99027 5.76767 4.71702C5.98246 4.46018 6.2583 4.26137 6.56989 4.13882ZM19.8371 16.971C19.487 16.9996 19.0383 17 18.4 17H5.6C4.96169 17 4.51303 16.9996 4.16292 16.971C3.81865 16.9429 3.61393 16.89 3.45552 16.8093C3.12623 16.6415 2.85852 16.3738 2.69074 16.0445C2.61002 15.8861 2.55712 15.6814 2.52899 15.3371C2.50039 14.987 2.5 14.5383 2.5 13.9V13.1C2.5 12.4617 2.50039 12.0131 2.52899 11.663C2.55712 11.3187 2.61002 11.114 2.69074 10.9555C2.85852 10.6263 3.12623 10.3585 3.45552 10.1908C3.50016 10.168 3.54848 10.1475 3.60257 10.1291L3.60787 10.1273C3.65467 10.1117 3.70547 10.0976 3.76163 10.0851C3.77341 10.0825 3.78543 10.08 3.7977 10.0775C3.8244 10.0721 3.85228 10.067 3.88147 10.0622L3.90299 10.0588C4.01907 10.0408 4.15539 10.0275 4.31953 10.0184C4.48406 10.0093 4.66824 10.0047 4.87926 10.0024C4.99674 10.0011 5.12255 10.0005 5.25791 10.0003C5.36569 10.0001 5.47953 10 5.60006 10L18.5004 10C18.823 10.0001 19.096 10.0006 19.3324 10.0058C19.4581 10.0085 19.5735 10.0125 19.6805 10.0184C19.8125 10.0257 19.9266 10.0358 20.0265 10.0488C20.1441 10.064 20.2422 10.0834 20.3273 10.1074C20.3498 10.1137 20.3714 10.1203 20.3922 10.1273C20.4484 10.1462 20.4984 10.1673 20.5445 10.1908C20.8738 10.3585 21.1415 10.6263 21.3093 10.9555C21.39 11.114 21.4429 11.3187 21.471 11.663C21.4996 12.0131 21.5 12.4617 21.5 13.1V13.9C21.5 14.5383 21.4996 14.987 21.471 15.3371C21.4429 15.6814 21.39 15.8861 21.3093 16.0445C21.1415 16.3738 20.8738 16.6415 20.5445 16.8093C20.3861 16.89 20.1814 16.9429 19.8371 16.971ZM3.5 17.9901V19.75C3.5 19.8881 3.61193 20 3.75 20H5.25C5.38807 20 5.5 19.8881 5.5 19.75V18H4.57059C4.16311 18 3.80911 18 3.5 17.9901ZM19.4303 18H18.5V19.75C18.5 19.8881 18.6119 20 18.75 20H20.25C20.3881 20 20.5 19.8881 20.5 19.75V17.9902C20.1911 18 19.8374 18 19.4303 18Z" fill="#000"/>
</svg>
