<svg width="24" height="24" viewBox="0 0 24 24" fill="none" xmlns="http://www.w3.org/2000/svg">
<g clip-path="url(#clip0_9002_8013)">
<path fill-rule="evenodd" clip-rule="evenodd" d="M8.08154 13.0891C7.49674 12.4808 7.49674 11.5192 8.08155 10.9109L11.8986 6.94044C12.7901 6.01307 14.3571 6.64414 14.3571 7.93053V16.0695C14.3571 17.3559 12.7901 17.987 11.8986 17.0596L8.08154 13.0891ZM8.80245 11.604C8.58978 11.8252 8.58978 12.1749 8.80245 12.3961L12.6195 16.3666C12.8869 16.6448 13.3571 16.4555 13.3571 16.0695V7.93053C13.3571 7.54457 12.8869 7.35524 12.6195 7.63347L8.80245 11.604Z" fill="#000"/>
<path fill-rule="evenodd" clip-rule="evenodd" d="M12 0.5C5.64873 0.5 0.5 5.64873 0.5 12C0.5 18.3513 5.64873 23.5 12 23.5C18.3513 23.5 23.5 18.3513 23.5 12C23.5 5.64873 18.3513 0.5 12 0.5ZM1.5 12C1.5 6.20101 6.20101 1.5 12 1.5C17.799 1.5 22.5 6.20101 22.5 12C22.5 17.799 17.799 22.5 12 22.5C6.20101 22.5 1.5 17.799 1.5 12Z" fill="#000"/>
</g>
<defs>
<clipPath id="clip0_9002_8013">
<rect width="24" height="24" fill="white"/>
</clipPath>
</defs>
</svg>
