<svg width="24" height="24" viewBox="0 0 24 24" fill="none" xmlns="http://www.w3.org/2000/svg">
<path fill-rule="evenodd" clip-rule="evenodd" d="M1 1.5C0.723858 1.5 0.5 1.72386 0.5 2C0.5 2.27614 0.723858 2.5 1 2.5H2.18189C2.68448 2.5 3.10899 2.87303 3.1736 3.37145L4.52822 13.8214C4.58612 14.268 4.75963 14.6744 5.01629 15.012C3.88347 15.1289 3 16.0863 3 17.25C3 18.4926 4.00736 19.5 5.25 19.5H5.76756C5.59739 19.7942 5.5 20.1357 5.5 20.5C5.5 21.6046 6.39543 22.5 7.5 22.5C8.60457 22.5 9.5 21.6046 9.5 20.5C9.5 20.1357 9.40261 19.7942 9.23244 19.5H10.252C10.5282 19.5 10.752 19.2761 10.752 19C10.752 18.7239 10.5282 18.5 10.252 18.5H5.25C4.55964 18.5 4 17.9404 4 17.25C4 16.5596 4.55964 16 5.25 16H10.1404C10.4165 16 10.6404 15.7761 10.6404 15.5C10.6404 15.2239 10.4165 15 10.1404 15H7.00747C6.25359 15 5.61684 14.4405 5.51992 13.6928L4.39307 5H20.004C20.3 5 20.5312 5.2557 20.5015 5.5502L20.1144 9.38588C20.0867 9.66063 20.287 9.90583 20.5617 9.93356C20.8365 9.96128 21.0817 9.76103 21.1094 9.48628L21.4964 5.6506C21.5856 4.76711 20.892 4 20.004 4H4.26344L4.1653 3.24289C4.03608 2.24606 3.18707 1.5 2.18189 1.5H1ZM6.5 20.5C6.5 19.9477 6.94772 19.5 7.5 19.5H7.51009L7.51582 19.5001C8.06072 19.5085 8.5 19.953 8.5 20.5C8.5 21.0523 8.05228 21.5 7.5 21.5C6.94772 21.5 6.5 21.0523 6.5 20.5Z" fill="#000"/>
<path d="M20.3536 15.3964C20.5488 15.5917 20.5488 15.9083 20.3536 16.1036L17.8536 18.6036C17.7595 18.6976 17.6319 18.7503 17.499 18.75C17.366 18.7497 17.2386 18.6965 17.145 18.6021L15.645 17.0898C15.4505 16.8937 15.4518 16.5771 15.6479 16.3827C15.844 16.1882 16.1605 16.1895 16.355 16.3856L17.5015 17.5414L19.6464 15.3964C19.8417 15.2012 20.1583 15.2012 20.3536 15.3964Z" fill="#000"/>
<path fill-rule="evenodd" clip-rule="evenodd" d="M12.5 17C12.5 13.9624 14.9624 11.5 18 11.5C21.0376 11.5 23.5 13.9624 23.5 17C23.5 20.0376 21.0376 22.5 18 22.5C14.9624 22.5 12.5 20.0376 12.5 17ZM18 12.5C15.5147 12.5 13.5 14.5147 13.5 17C13.5 19.4853 15.5147 21.5 18 21.5C20.4853 21.5 22.5 19.4853 22.5 17C22.5 14.5147 20.4853 12.5 18 12.5Z" fill="#000"/>
</svg>
