<svg width="24" height="24" viewBox="0 0 24 24" fill="none" xmlns="http://www.w3.org/2000/svg">
<path fill-rule="evenodd" clip-rule="evenodd" d="M0.5 2C0.5 1.72386 0.723858 1.5 1 1.5H2.18189C3.18707 1.5 4.03608 2.24606 4.1653 3.24289L4.26344 4H20.004C20.892 4 21.5856 4.76711 21.4964 5.6506L21.1094 9.48628C21.0817 9.76103 20.8365 9.96128 20.5617 9.93356C20.287 9.90583 20.0867 9.66063 20.1144 9.38588L20.5015 5.5502C20.5312 5.2557 20.3 5 20.004 5H4.39307L5.51992 13.6928C5.61684 14.4405 6.25359 15 7.00747 15H10.1404C10.4165 15 10.6404 15.2239 10.6404 15.5C10.6404 15.7761 10.4165 16 10.1404 16H5.25C4.55964 16 4 16.5596 4 17.25C4 17.9404 4.55964 18.5 5.25 18.5H10.252C10.5282 18.5 10.752 18.7239 10.752 19C10.752 19.2761 10.5282 19.5 10.252 19.5H9.23244C9.40261 19.7942 9.5 20.1357 9.5 20.5C9.5 21.6046 8.60457 22.5 7.5 22.5C6.39543 22.5 5.5 21.6046 5.5 20.5C5.5 20.1357 5.59739 19.7942 5.76756 19.5H5.25C4.00736 19.5 3 18.4926 3 17.25C3 16.0863 3.88347 15.1289 5.01629 15.012C4.75963 14.6744 4.58612 14.268 4.52822 13.8214L3.1736 3.37145C3.10899 2.87303 2.68448 2.5 2.18189 2.5H1C0.723858 2.5 0.5 2.27614 0.5 2ZM7.5 19.5C6.94772 19.5 6.5 19.9477 6.5 20.5C6.5 21.0523 6.94772 21.5 7.5 21.5C8.05228 21.5 8.5 21.0523 8.5 20.5C8.5 19.953 8.06072 19.5085 7.51582 19.5001L7.51009 19.5H7.5Z" fill="#000"/>
<path d="M20 17.5C20.2761 17.5 20.5 17.2761 20.5 17C20.5 16.7239 20.2761 16.5 20 16.5H16C15.7239 16.5 15.5 16.7239 15.5 17C15.5 17.2761 15.7239 17.5 16 17.5H20Z" fill="#000"/>
<path fill-rule="evenodd" clip-rule="evenodd" d="M12.5 17C12.5 13.9624 14.9624 11.5 18 11.5C21.0376 11.5 23.5 13.9624 23.5 17C23.5 20.0376 21.0376 22.5 18 22.5C14.9624 22.5 12.5 20.0376 12.5 17ZM18 12.5C15.5147 12.5 13.5 14.5147 13.5 17C13.5 19.4853 15.5147 21.5 18 21.5C20.4853 21.5 22.5 19.4853 22.5 17C22.5 14.5147 20.4853 12.5 18 12.5Z" fill="#000"/>
</svg>
