<svg width="24" height="24" viewBox="0 0 24 24" fill="none" xmlns="http://www.w3.org/2000/svg">
<path fill-rule="evenodd" clip-rule="evenodd" d="M2 1.5C1.72386 1.5 1.5 1.72386 1.5 2C1.5 2.27614 1.72386 2.5 2 2.5H3.18189C3.68448 2.5 4.10899 2.87303 4.1736 3.37145L5.52822 13.8214C5.58612 14.268 5.75963 14.6744 6.01629 15.012C4.88347 15.1289 4 16.0863 4 17.25C4 18.4926 5.00736 19.5 6.25 19.5H6.76756C6.59739 19.7942 6.5 20.1357 6.5 20.5C6.5 21.6046 7.39543 22.5 8.5 22.5C9.60457 22.5 10.5 21.6046 10.5 20.5C10.5 20.1357 10.4026 19.7942 10.2324 19.5H16.7676C16.5974 19.7942 16.5 20.1357 16.5 20.5C16.5 21.6046 17.3954 22.5 18.5 22.5C19.6046 22.5 20.5 21.6046 20.5 20.5C20.5 20.1357 20.4026 19.7942 20.2324 19.5H21C21.2761 19.5 21.5 19.2761 21.5 19C21.5 18.7239 21.2761 18.5 21 18.5H6.25C5.55964 18.5 5 17.9404 5 17.25C5 16.5596 5.55964 16 6.25 16H18.7396C20.2798 16 21.5698 14.8336 21.7244 13.3012L22.4964 5.6506C22.5856 4.76711 21.892 4 21.004 4H5.26344L5.1653 3.24289C5.03608 2.24606 4.18707 1.5 3.18189 1.5H2ZM18.5 19.5C17.9477 19.5 17.5 19.9477 17.5 20.5C17.5 21.0523 17.9477 21.5 18.5 21.5C19.0523 21.5 19.5 21.0523 19.5 20.5C19.5 19.9477 19.0523 19.5 18.5 19.5ZM7.5 20.5C7.5 19.9477 7.94772 19.5 8.5 19.5C9.05228 19.5 9.5 19.9477 9.5 20.5C9.5 21.0523 9.05228 21.5 8.5 21.5C7.94772 21.5 7.5 21.0523 7.5 20.5ZM18.7396 15C19.7664 15 20.6264 14.2224 20.7295 13.2008L21.5015 5.5502C21.5312 5.2557 21.3 5 21.004 5H5.39307L6.51992 13.6928C6.61684 14.4405 7.25359 15 8.00747 15H18.7396Z" fill="#000"/>
</svg>
