<svg width="24" height="24" viewBox="0 0 24 24" fill="none" xmlns="http://www.w3.org/2000/svg">
<path d="M3.5 2.75C3.5 2.61193 3.61193 2.5 3.75 2.5H6.25C6.38807 2.5 6.5 2.61193 6.5 2.75V4.75C6.5 5.44036 7.05964 6 7.75 6H9.25C9.94036 6 10.5 5.44036 10.5 4.75V2.75C10.5 2.61193 10.6119 2.5 10.75 2.5H13.25C13.3881 2.5 13.5 2.61193 13.5 2.75V4.75C13.5 5.44036 14.0596 6 14.75 6H16.25C16.9404 6 17.5 5.44036 17.5 4.75V2.75C17.5 2.61193 17.6119 2.5 17.75 2.5H20.25C20.3881 2.5 20.5 2.61193 20.5 2.75V7.99621C20.5 8.55847 20.342 9.10942 20.044 9.58621L18.304 12.3702C18.1053 12.6881 18 13.0554 18 13.4302V22C18 22.2761 18.2239 22.5 18.5 22.5C18.7761 22.5 19 22.2761 19 22V13.4302C19 13.2428 19.0527 13.0591 19.152 12.9002L20.892 10.1162C21.2893 9.48048 21.5 8.74589 21.5 7.99621V2.75C21.5 2.05964 20.9404 1.5 20.25 1.5H17.75C17.0596 1.5 16.5 2.05964 16.5 2.75V4.75C16.5 4.88807 16.3881 5 16.25 5H14.75C14.6119 5 14.5 4.88807 14.5 4.75V2.75C14.5 2.05964 13.9404 1.5 13.25 1.5H10.75C10.0596 1.5 9.5 2.05964 9.5 2.75V4.75C9.5 4.88807 9.38807 5 9.25 5H7.75C7.61193 5 7.5 4.88807 7.5 4.75V2.75C7.5 2.05964 6.94036 1.5 6.25 1.5H3.75C3.05964 1.5 2.5 2.05964 2.5 2.75V7.99621C2.5 8.74589 2.71068 9.48048 3.10801 10.1162L4.848 12.9002C4.94733 13.0591 5 13.2428 5 13.4302V22C5 22.2761 5.22386 22.5 5.5 22.5C5.77614 22.5 6 22.2761 6 22V13.4302C6 13.0554 5.89466 12.6881 5.696 12.3702L3.956 9.58621C3.65801 9.10942 3.5 8.55847 3.5 7.99621V2.75Z" fill="#000"/>
<path fill-rule="evenodd" clip-rule="evenodd" d="M12 11.5C10.6193 11.5 9.5 12.6193 9.5 14V17.5C9.5 17.7761 9.72386 18 10 18H14C14.2761 18 14.5 17.7761 14.5 17.5V14C14.5 12.6193 13.3807 11.5 12 11.5ZM10.5 14C10.5 13.1716 11.1716 12.5 12 12.5C12.8284 12.5 13.5 13.1716 13.5 14V17H10.5V14Z" fill="#000"/>
</svg>
