<svg width="24" height="24" viewBox="0 0 24 24" fill="none" xmlns="http://www.w3.org/2000/svg">
<path d="M6.5 7.5C6.5 7.22386 6.72386 7 7 7H17C17.2761 7 17.5 7.22386 17.5 7.5C17.5 7.77614 17.2761 8 17 8H7C6.72386 8 6.5 7.77614 6.5 7.5Z" fill="#000"/>
<path d="M7 11C6.72386 11 6.5 11.2239 6.5 11.5C6.5 11.7761 6.72386 12 7 12H13C13.2761 12 13.5 11.7761 13.5 11.5C13.5 11.2239 13.2761 11 13 11H7Z" fill="#000"/>
<path fill-rule="evenodd" clip-rule="evenodd" d="M16.4224 1.5H7.57755C6.61647 1.5 5.86451 1.49999 5.26049 1.54935C4.64594 1.59956 4.14062 1.70334 3.68404 1.93597C2.93139 2.31947 2.31947 2.93139 1.93597 3.68404C1.70334 4.14062 1.59956 4.64594 1.54935 5.26049C1.49999 5.86451 1.5 6.61646 1.5 7.57755V11.4224C1.5 12.3835 1.49999 13.1355 1.54935 13.7395C1.59956 14.3541 1.70334 14.8594 1.93597 15.316C2.31947 16.0686 2.93139 16.6805 3.68404 17.064C4.14062 17.2967 4.64594 17.4004 5.26049 17.4507C5.85656 17.4994 6.59669 17.5 7.5397 17.5L4.59043 21.7133C4.43207 21.9395 4.48709 22.2512 4.71331 22.4096C4.93954 22.568 5.2513 22.5129 5.40966 22.2867L8.76036 17.5H11.5V20.5C11.5 20.7761 11.7239 21 12 21C12.2761 21 12.5 20.7761 12.5 20.5V17.5H15.2396L18.5903 22.2867C18.7487 22.5129 19.0605 22.568 19.2867 22.4096C19.5129 22.2512 19.5679 21.9395 19.4096 21.7133L16.4603 17.5C17.4033 17.5 18.1434 17.4994 18.7395 17.4507C19.3541 17.4004 19.8594 17.2967 20.316 17.064C21.0686 16.6805 21.6805 16.0686 22.064 15.316C22.2967 14.8594 22.4004 14.3541 22.4507 13.7395C22.5 13.1355 22.5 12.3835 22.5 11.4225V7.57754C22.5 6.61646 22.5 5.86451 22.4507 5.26049C22.4004 4.64594 22.2967 4.14062 22.064 3.68404C21.6805 2.93139 21.0686 2.31947 20.316 1.93597C19.8594 1.70334 19.3541 1.59956 18.7395 1.54935C18.1355 1.49999 17.3835 1.5 16.4224 1.5ZM16.4 16.5C17.3883 16.5 18.0995 16.4996 18.6581 16.454C19.2108 16.4088 19.5699 16.3219 19.862 16.173C20.4265 15.8854 20.8854 15.4265 21.173 14.862C21.3219 14.5699 21.4088 14.2108 21.454 13.6581C21.4996 13.0995 21.5 12.3883 21.5 11.4V7.6C21.5 6.61166 21.4996 5.90047 21.454 5.34192C21.4088 4.78921 21.3219 4.43014 21.173 4.13803C20.8854 3.57354 20.4265 3.1146 19.862 2.82698C19.5699 2.67814 19.2108 2.59118 18.6581 2.54602C18.0995 2.50039 17.3883 2.5 16.4 2.5H7.6C6.61166 2.5 5.90047 2.50039 5.34192 2.54602C4.78921 2.59118 4.43014 2.67814 4.13803 2.82698C3.57354 3.1146 3.1146 3.57354 2.82698 4.13803C2.67814 4.43014 2.59118 4.78921 2.54602 5.34192C2.50039 5.90047 2.5 6.61166 2.5 7.6V11.4C2.5 12.3883 2.50039 13.0995 2.54602 13.6581C2.59118 14.2108 2.67814 14.5699 2.82698 14.862C3.1146 15.4265 3.57354 15.8854 4.13803 16.173C4.43014 16.3219 4.78921 16.4088 5.34192 16.454C5.90047 16.4996 6.61166 16.5 7.6 16.5H16.4Z" fill="#000"/>
</svg>
