<svg width="24" height="24" viewBox="0 0 24 24" fill="none" xmlns="http://www.w3.org/2000/svg">
<path fill-rule="evenodd" clip-rule="evenodd" d="M11.5217 1.01118C10.9481 0.986625 10.5 1.45304 10.5 2.00004V3.01228C5.20944 3.2728 1 7.64481 1 13C1 18.5228 5.47715 23 11 23C16.3552 23 20.7272 18.7906 20.9877 13.5H22C22.547 13.5 23.0134 13.052 22.9889 12.4783C22.7229 6.26572 17.7343 1.27713 11.5217 1.01118ZM20.506 12.5C20.506 12.5 20.502 12.5 20.5 12.5C20.498 12.5 20.494 12.5 20.494 12.5H11.5V2.01119C17.1771 2.26497 21.7351 6.82291 21.9888 12.5H20.506ZM10.5 4.01365V12.5C10.5 13.0523 10.9477 13.5 11.5 13.5H19.9863C19.7269 18.238 15.8028 22 11 22C6.02944 22 2 17.9706 2 13C2 8.19722 5.76201 4.2731 10.5 4.01365Z" fill="#000"/>
</svg>
