<svg width="24" height="24" viewBox="0 0 24 24" fill="none" xmlns="http://www.w3.org/2000/svg">
<path d="M2 1.5C2.27614 1.5 2.5 1.72386 2.5 2V18.5C2.5 20.1569 3.84315 21.5 5.5 21.5H22C22.2761 21.5 22.5 21.7239 22.5 22C22.5 22.2761 22.2761 22.5 22 22.5H5.5C3.29086 22.5 1.5 20.7091 1.5 18.5V2C1.5 1.72386 1.72386 1.5 2 1.5Z" fill="#000"/>
<path d="M6.5 18V16.5C6.5 16.2239 6.72386 16 7 16C7.27614 16 7.5 16.2239 7.5 16.5V18C7.5 18.2761 7.27614 18.5 7 18.5C6.72386 18.5 6.5 18.2761 6.5 18Z" fill="#000"/>
<path d="M10.5 14.65V18C10.5 18.2761 10.7239 18.5 11 18.5C11.2761 18.5 11.5 18.2761 11.5 18L11.5 14.65C11.5 14.3739 11.2761 14.15 11 14.15C10.7239 14.15 10.5 14.3739 10.5 14.65Z" fill="#000"/>
<path d="M15 18.5C14.7239 18.5 14.5 18.2761 14.5 18V12.8C14.5 12.5239 14.7239 12.3 15 12.3C15.2761 12.3 15.5 12.5239 15.5 12.8V18C15.5 18.2761 15.2761 18.5 15 18.5Z" fill="#000"/>
<path d="M18.5 18C18.5 18.2761 18.7239 18.5 19 18.5C19.2761 18.5 19.5 18.2761 19.5 18L19.5 11C19.5 10.7239 19.2761 10.5 19 10.5C18.7239 10.5 18.5 10.7239 18.5 11L18.5 18Z" fill="#000"/>
<path d="M15.75 3C15.75 2.72386 15.9739 2.5 16.25 2.5H20C20.2761 2.5 20.5 2.72386 20.5 3V6.75C20.5 7.02614 20.2761 7.25 20 7.25C19.7239 7.25 19.5 7.02614 19.5 6.75V4.24312C17.3781 6.55077 15.4402 8.21651 13.3689 9.37398C11.1709 10.6023 8.85017 11.243 6.0453 11.498C5.77029 11.523 5.52709 11.3203 5.50209 11.0453C5.47708 10.7703 5.67976 10.5271 5.95476 10.5021C8.64989 10.257 10.8291 9.64773 12.8811 8.50103C14.8457 7.40321 16.7185 5.79899 18.8247 3.5H16.25C15.9739 3.5 15.75 3.27614 15.75 3Z" fill="#000"/>
</svg>
