<svg width="24" height="24" viewBox="0 0 24 24" fill="none" xmlns="http://www.w3.org/2000/svg">
<path d="M2.5 2C2.5 1.72386 2.27614 1.5 2 1.5C1.72386 1.5 1.5 1.72386 1.5 2V18.5C1.5 20.7091 3.29086 22.5 5.5 22.5H22C22.2761 22.5 22.5 22.2761 22.5 22C22.5 21.7239 22.2761 21.5 22 21.5H5.5C3.84315 21.5 2.5 20.1569 2.5 18.5V2Z" fill="#000"/>
<path d="M21.3536 8.35355C21.5488 8.15829 21.5488 7.84171 21.3536 7.64645C21.1583 7.45118 20.8417 7.45118 20.6464 7.64645L15.5 12.7929L11.8536 9.14645C11.6583 8.95118 11.3417 8.95118 11.1464 9.14645L5.64645 14.6464C5.45118 14.8417 5.45118 15.1583 5.64645 15.3536C5.84171 15.5488 6.15829 15.5488 6.35355 15.3536L11.5 10.2071L15.1464 13.8536C15.3417 14.0488 15.6583 14.0488 15.8536 13.8536L21.3536 8.35355Z" fill="#000"/>
</svg>
