<svg width="24" height="24" viewBox="0 0 24 24" fill="none" xmlns="http://www.w3.org/2000/svg">
<path d="M2 1.5C2.27614 1.5 2.5 1.72386 2.5 2V18.5C2.5 20.1569 3.84315 21.5 5.5 21.5H22C22.2761 21.5 22.5 21.7239 22.5 22C22.5 22.2761 22.2761 22.5 22 22.5H5.5C3.29086 22.5 1.5 20.7091 1.5 18.5V2C1.5 1.72386 1.72386 1.5 2 1.5Z" fill="#000"/>
<path d="M7.50001 17L7.5 13C7.5 12.7239 7.72386 12.5 8 12.5C8.27614 12.5 8.5 12.7239 8.5 13L8.50001 17C8.50001 17.2761 8.27615 17.5 8.00001 17.5C7.72386 17.5 7.50001 17.2761 7.50001 17Z" fill="#000"/>
<path d="M11.5 7L11.5 17C11.5 17.2761 11.7239 17.5 12 17.5C12.2761 17.5 12.5 17.2761 12.5 17L12.5 7C12.5 6.72386 12.2761 6.5 12 6.5C11.7239 6.5 11.5 6.72386 11.5 7Z" fill="#000"/>
<path d="M15.5 17L15.5 11C15.5 10.7239 15.7239 10.5 16 10.5C16.2761 10.5 16.5 10.7239 16.5 11L16.5 17C16.5 17.2761 16.2761 17.5 16 17.5C15.7239 17.5 15.5 17.2761 15.5 17Z" fill="#000"/>
<path d="M19.5 17C19.5 17.2761 19.7239 17.5 20 17.5C20.2761 17.5 20.5 17.2761 20.5 17V4C20.5 3.72386 20.2761 3.5 20 3.5C19.7239 3.5 19.5 3.72386 19.5 4V17Z" fill="#000"/>
</svg>
