<svg width="24" height="24" viewBox="0 0 24 24" fill="none" xmlns="http://www.w3.org/2000/svg">
<path d="M15.5 10.5C15.5 10.7761 15.2761 11 15 11H12.5V13.5C12.5 13.7761 12.2761 14 12 14C11.7239 14 11.5 13.7761 11.5 13.5V11H9C8.72386 11 8.5 10.7761 8.5 10.5C8.5 10.2239 8.72386 10 9 10H11.5V7.5C11.5 7.22386 11.7239 7 12 7C12.2761 7 12.5 7.22386 12.5 7.5V10H15C15.2761 10 15.5 10.2239 15.5 10.5Z" fill="#000"/>
<path fill-rule="evenodd" clip-rule="evenodd" d="M8.37737 1.5H15.6226C16.7236 1.5 17.5805 1.5 18.2679 1.55616C18.9658 1.61318 19.5329 1.73058 20.043 1.99047C20.8897 2.4219 21.5781 3.11031 22.0095 3.95704C22.2694 4.4671 22.3868 5.03416 22.4438 5.73209C22.5 6.41947 22.5 7.27638 22.5 8.37731V12.7868C22.5 13.811 22.5 14.6082 22.4512 15.2491C22.4017 15.8996 22.2998 16.4299 22.0739 16.9114C21.6276 17.8626 20.8626 18.6276 19.9114 19.0739C19.4299 19.2998 18.8996 19.4017 18.2491 19.4512C17.6082 19.5 16.811 19.5 15.7869 19.5H15.7658C15.2946 19.5 15.1568 19.5045 15.0385 19.5382C14.8975 19.5783 14.767 19.6489 14.6563 19.7451C14.5634 19.8258 14.4843 19.9387 14.2268 20.3333L13.7456 21.0704C13.5332 21.3958 13.3553 21.6685 13.194 21.8724C13.0291 22.0809 12.8384 22.2755 12.58 22.3839C12.209 22.5394 11.791 22.5394 11.42 22.3839C11.1616 22.2755 10.9709 22.0809 10.806 21.8724C10.6447 21.6685 10.4668 21.3959 10.2544 21.0704L9.77319 20.3333C9.51566 19.9387 9.43655 19.8258 9.3437 19.7451C9.233 19.6489 9.10252 19.5783 8.96148 19.5382C8.84317 19.5045 8.70536 19.5 8.23421 19.5H8.21317C7.18901 19.5 6.39179 19.5 5.7509 19.4512C5.10037 19.4017 4.57006 19.2998 4.08863 19.0739C3.13743 18.6276 2.37238 17.8626 1.9261 16.9114C1.70022 16.4299 1.59831 15.8996 1.54879 15.2491C1.5 14.6082 1.5 13.811 1.5 12.7868V8.37737C1.5 7.27642 1.5 6.41948 1.55616 5.73209C1.61318 5.03416 1.73058 4.4671 1.99047 3.95704C2.4219 3.11031 3.11031 2.4219 3.95704 1.99047C4.4671 1.73058 5.03416 1.61318 5.73209 1.55616C6.41948 1.5 7.27642 1.5 8.37737 1.5ZM5.81352 2.55284C5.17744 2.60481 4.75662 2.70539 4.41103 2.88148C3.75247 3.21703 3.21703 3.75247 2.88148 4.41103C2.70539 4.75662 2.60481 5.17744 2.55284 5.81352C2.50039 6.45545 2.5 7.27164 2.5 8.4V12.7658C2.5 13.8154 2.50034 14.5747 2.5459 15.1732C2.59107 15.7665 2.67853 16.1608 2.83141 16.4866C3.17852 17.2264 3.77356 17.8215 4.51338 18.1686C4.83922 18.3215 5.23354 18.4089 5.82681 18.4541C6.42532 18.4997 7.18457 18.5 8.23421 18.5L8.2963 18.5C8.67773 18.4998 8.9654 18.4996 9.23513 18.5763C9.5172 18.6566 9.77817 18.7979 9.99955 18.9902C10.2112 19.1741 10.3683 19.4151 10.5766 19.7346L11.0789 20.5041C11.3075 20.8544 11.4607 21.0882 11.5903 21.2521C11.7196 21.4155 11.7821 21.4513 11.8067 21.4616C11.9303 21.5135 12.0697 21.5135 12.1933 21.4616C12.2179 21.4513 12.2804 21.4155 12.4097 21.2521C12.5393 21.0882 12.6925 20.8544 12.9211 20.5041L13.4233 19.7346C13.6317 19.4151 13.7888 19.1741 14.0004 18.9902C14.2218 18.7979 14.4828 18.6566 14.7649 18.5763C15.0346 18.4996 15.3223 18.4998 15.7037 18.5L15.7658 18.5C16.8154 18.5 17.5747 18.4997 18.1732 18.4541C18.7665 18.4089 19.1608 18.3215 19.4866 18.1686C20.2264 17.8215 20.8215 17.2264 21.1686 16.4866C21.3215 16.1608 21.4089 15.7665 21.4541 15.1732C21.4997 14.5747 21.5 13.8154 21.5 12.7658V8.4C21.5 7.27164 21.4996 6.45545 21.4472 5.81352C21.3952 5.17744 21.2946 4.75662 21.1185 4.41103C20.783 3.75247 20.2475 3.21703 19.589 2.88148C19.2434 2.70539 18.8226 2.60481 18.1865 2.55284C17.5446 2.50039 16.7284 2.5 15.6 2.5H8.4C7.27164 2.5 6.45545 2.50039 5.81352 2.55284Z" fill="#000"/>
</svg>
