<svg width="24" height="24" viewBox="0 0 24 24" fill="none" xmlns="http://www.w3.org/2000/svg">
<path d="M10.346 7.13904C10.5453 7.33012 10.552 7.64663 10.361 7.84599L9.08294 9.17932C8.98977 9.27652 8.86134 9.33204 8.72671 9.33331C8.59207 9.33458 8.46261 9.2815 8.36762 9.18608L7.64564 8.46079C7.45082 8.26508 7.45155 7.9485 7.64726 7.75369C7.84296 7.55887 8.15954 7.55959 8.35436 7.7553L8.71522 8.11782L9.63904 7.15401C9.83012 6.95466 10.1466 6.94796 10.346 7.13904Z" fill="#000"/>
<path d="M12.5 7.59998C12.2239 7.59998 12 7.82383 12 8.09998C12 8.37612 12.2239 8.59998 12.5 8.59998H16C16.2761 8.59998 16.5 8.37612 16.5 8.09998C16.5 7.82383 16.2761 7.59998 16 7.59998H12.5Z" fill="#000"/>
<path d="M10.346 10.9691C10.5453 11.1601 10.552 11.4767 10.361 11.676L9.08294 13.0093C8.98977 13.1065 8.86134 13.1621 8.72671 13.1633C8.59207 13.1646 8.46261 13.1115 8.36762 13.0161L7.64564 12.2908C7.45082 12.0951 7.45155 11.7785 7.64726 11.5837C7.84296 11.3889 8.15954 11.3896 8.35436 11.5853L8.71522 11.9478L9.63904 10.984C9.83012 10.7847 10.1466 10.778 10.346 10.9691Z" fill="#000"/>
<path d="M12.5 11.43C12.2239 11.43 12 11.6539 12 11.93C12 12.2061 12.2239 12.43 12.5 12.43H16C16.2761 12.43 16.5 12.2061 16.5 11.93C16.5 11.6539 16.2761 11.43 16 11.43H12.5Z" fill="#000"/>
<path d="M10.346 14.799C10.5453 14.9901 10.552 15.3066 10.361 15.506L9.08294 16.8393C8.98977 16.9365 8.86134 16.992 8.72671 16.9933C8.59207 16.9946 8.46261 16.9415 8.36762 16.8461L7.64564 16.1208C7.45082 15.9251 7.45155 15.6085 7.64726 15.4137C7.84296 15.2188 8.15954 15.2196 8.35436 15.4153L8.71522 15.7778L9.63904 14.814C9.83012 14.6146 10.1466 14.6079 10.346 14.799Z" fill="#000"/>
<path d="M12.5 15.26C12.2239 15.26 12 15.4839 12 15.76C12 16.0362 12.2239 16.26 12.5 16.26H16C16.2761 16.26 16.5 16.0362 16.5 15.76C16.5 15.4839 16.2761 15.26 16 15.26H12.5Z" fill="#000"/>
<path fill-rule="evenodd" clip-rule="evenodd" d="M8.37737 1.5H15.6226C16.7236 1.5 17.5805 1.5 18.2679 1.55616C18.9658 1.61318 19.5329 1.73058 20.043 1.99047C20.8897 2.4219 21.5781 3.11031 22.0095 3.95704C22.2694 4.4671 22.3868 5.03416 22.4438 5.73209C22.5 6.41945 22.5 7.27633 22.5 8.37721V15.6226C22.5 16.7235 22.5 17.5806 22.4438 18.2679C22.3868 18.9658 22.2694 19.5329 22.0095 20.043C21.5781 20.8897 20.8897 21.5781 20.043 22.0095C19.5329 22.2694 18.9658 22.3868 18.2679 22.4438C17.5805 22.5 16.7236 22.5 15.6227 22.5H8.37747C7.27653 22.5 6.41947 22.5 5.73209 22.4438C5.03416 22.3868 4.4671 22.2694 3.95704 22.0095C3.11031 21.5781 2.4219 20.8897 1.99047 20.043C1.73058 19.5329 1.61318 18.9658 1.55616 18.2679C1.5 17.5805 1.5 16.7236 1.5 15.6226V8.37737C1.5 7.27642 1.5 6.41948 1.55616 5.73209C1.61318 5.03416 1.73058 4.4671 1.99047 3.95704C2.4219 3.11031 3.11031 2.4219 3.95704 1.99047C4.4671 1.73058 5.03416 1.61318 5.73209 1.55616C6.41948 1.5 7.27642 1.5 8.37737 1.5ZM5.81352 2.55284C5.17744 2.60481 4.75662 2.70539 4.41103 2.88148C3.75247 3.21703 3.21703 3.75247 2.88148 4.41103C2.70539 4.75662 2.60481 5.17744 2.55284 5.81352C2.50039 6.45545 2.5 7.27164 2.5 8.4V15.6C2.5 16.7284 2.50039 17.5446 2.55284 18.1865C2.60481 18.8226 2.70539 19.2434 2.88148 19.589C3.21703 20.2475 3.75247 20.783 4.41103 21.1185C4.75662 21.2946 5.17744 21.3952 5.81352 21.4472C6.45545 21.4996 7.27164 21.5 8.4 21.5H15.6C16.7284 21.5 17.5446 21.4996 18.1865 21.4472C18.8226 21.3952 19.2434 21.2946 19.589 21.1185C20.2475 20.783 20.783 20.2475 21.1185 19.589C21.2946 19.2434 21.3952 18.8226 21.4472 18.1865C21.4996 17.5446 21.5 16.7284 21.5 15.6V8.4C21.5 7.27164 21.4996 6.45545 21.4472 5.81352C21.3952 5.17744 21.2946 4.75662 21.1185 4.41103C20.783 3.75247 20.2475 3.21703 19.589 2.88148C19.2434 2.70539 18.8226 2.60481 18.1865 2.55284C17.5446 2.50039 16.7284 2.5 15.6 2.5H8.4C7.27164 2.5 6.45545 2.50039 5.81352 2.55284Z" fill="#000"/>
</svg>
