<svg width="24" height="24" viewBox="0 0 24 24" fill="none" xmlns="http://www.w3.org/2000/svg">
<path fill-rule="evenodd" clip-rule="evenodd" d="M11.87 11.7679C10.9138 11.1146 9.5 11.7296 9.5 12.9537V17.046C9.5 18.2701 10.9138 18.8851 11.87 18.2318L14.8649 16.1857C15.7117 15.6072 15.7117 14.3925 14.8649 13.814L11.87 11.7679ZM10.5 12.9537C10.5 12.626 10.9357 12.3406 11.3059 12.5936L14.3008 14.6397C14.5664 14.8211 14.5664 15.1785 14.3008 15.36L11.3059 17.4061C10.9357 17.659 10.5 17.3737 10.5 17.046V12.9537Z" fill="#000"/>
<path fill-rule="evenodd" clip-rule="evenodd" d="M15.6226 1.5C15.9214 1.5 16.2023 1.5 16.4666 1.50112C16.4902 1.49954 16.514 1.49962 16.5379 1.50145C17.2159 1.50492 17.7839 1.51662 18.2679 1.55616C18.9658 1.61318 19.5329 1.73058 20.043 1.99047C20.8897 2.4219 21.5781 3.11031 22.0095 3.95704C22.2694 4.4671 22.3868 5.03416 22.4438 5.73209C22.4932 6.33668 22.4992 7.07244 22.4999 7.99003L22.5 8L22.4999 8.00922L22.5 15.6226C22.5 16.7235 22.5 17.5805 22.4438 18.2679C22.3868 18.9658 22.2694 19.5329 22.0095 20.043C21.5781 20.8897 20.8897 21.5781 20.043 22.0095C19.5329 22.2694 18.9658 22.3868 18.2679 22.4438C17.5805 22.5 16.7236 22.5 15.6227 22.5H8.37736C7.27645 22.5 6.41946 22.5 5.73209 22.4438C5.03416 22.3868 4.4671 22.2694 3.95704 22.0095C3.11031 21.5781 2.4219 20.8897 1.99047 20.043C1.73058 19.5329 1.61318 18.9658 1.55616 18.2679C1.5 17.5805 1.5 16.7236 1.5 15.6226L1.50008 8.00921L1.5 8L1.5001 7.99004C1.50081 7.07244 1.50676 6.33669 1.55616 5.73209C1.61318 5.03416 1.73058 4.4671 1.99047 3.95704C2.4219 3.11031 3.11031 2.4219 3.95704 1.99047C4.4671 1.73058 5.03416 1.61318 5.73209 1.55616C6.41948 1.5 7.27641 1.5 8.37737 1.5H15.6226ZM15.8063 2.50002L14.1397 7.5H8.19377L9.86044 2.5L15.8063 2.50002ZM14.5165 8.5C14.5056 8.50036 14.4947 8.50036 14.4837 8.5H7.51649C7.50559 8.50036 7.49465 8.50036 7.48368 8.5H2.5V15.6C2.5 16.7284 2.50039 17.5446 2.55284 18.1865C2.60481 18.8226 2.70539 19.2434 2.88148 19.589C3.21703 20.2475 3.75247 20.783 4.41103 21.1185C4.75662 21.2946 5.17744 21.3952 5.81352 21.4472C6.45545 21.4996 7.27164 21.5 8.4 21.5H15.6C16.7284 21.5 17.5446 21.4996 18.1865 21.4472C18.8226 21.3952 19.2434 21.2946 19.589 21.1185C20.2475 20.783 20.783 20.2475 21.1185 19.589C21.2946 19.2434 21.3952 18.8226 21.4472 18.1865C21.4996 17.5446 21.5 16.7284 21.5 15.6V8.5H14.5165ZM16.8591 2.50395L15.1938 7.5H21.4987C21.4955 6.81625 21.4845 6.27069 21.4472 5.81352C21.3952 5.17744 21.2946 4.75662 21.1185 4.41103C20.783 3.75247 20.2475 3.21703 19.589 2.88148C19.2434 2.70539 18.8226 2.60481 18.1865 2.55284C17.8123 2.52227 17.379 2.50938 16.8591 2.50395ZM8.80635 2.5H8.4C7.27164 2.5 6.45545 2.50039 5.81352 2.55284C5.17744 2.60481 4.75662 2.70539 4.41103 2.88148C3.75247 3.21703 3.21703 3.75247 2.88148 4.41103C2.70539 4.75662 2.60481 5.17744 2.55284 5.81352C2.51548 6.27069 2.50454 6.81625 2.50133 7.5H7.13968L8.80635 2.5Z" fill="#000"/>
</svg>
