<svg width="24" height="24" viewBox="0 0 24 24" fill="none" xmlns="http://www.w3.org/2000/svg">
<path fill-rule="evenodd" clip-rule="evenodd" d="M9 1C8.17157 1 7.5 1.67157 7.5 2.5V2.75045C7.03797 2.75182 6.65211 2.75735 6.3245 2.7797C5.88067 2.80999 5.50734 2.8728 5.16061 3.01642C4.30301 3.37165 3.62165 4.05301 3.26642 4.91061C3.1228 5.25734 3.05999 5.63067 3.02971 6.0745C3 6.50993 3 7.04826 3 7.73157V17.7222C3 18.5435 2.99999 19.1905 3.04253 19.7111C3.08593 20.2423 3.17609 20.6859 3.38148 21.089C3.71703 21.7475 4.25247 22.283 4.91103 22.6185C5.31413 22.8239 5.75771 22.9141 6.28889 22.9575C6.80954 23 7.45651 23 8.27778 23H15.7222C16.5435 23 17.1905 23 17.7111 22.9575C18.2423 22.9141 18.6859 22.8239 19.089 22.6185C19.7475 22.283 20.283 21.7475 20.6185 21.089C20.8239 20.6859 20.9141 20.2423 20.9575 19.7111C21 19.1905 21 18.5435 21 17.7222V7.73157C21 7.04827 21 6.50992 20.9703 6.0745C20.94 5.63067 20.8772 5.25734 20.7336 4.91061C20.3783 4.05301 19.697 3.37165 18.8394 3.01642C18.4927 2.8728 18.1193 2.80999 17.6755 2.7797C17.3479 2.75735 16.962 2.75182 16.5 2.75045V2.5C16.5 1.67157 15.8284 1 15 1H9ZM16.5 3.75049C16.9549 3.75187 17.3109 3.75715 17.6074 3.77739C18.0003 3.80419 18.2521 3.85556 18.4567 3.9403C19.0693 4.19404 19.556 4.68072 19.8097 5.29329C19.8944 5.49787 19.9458 5.74966 19.9726 6.14257C19.9997 6.53997 20 7.04425 20 7.75V17.7C20 18.5483 19.9996 19.1545 19.9608 19.6297C19.9224 20.099 19.8491 20.3963 19.7275 20.635C19.4878 21.1054 19.1054 21.4878 18.635 21.7275C18.3963 21.8491 18.099 21.9224 17.6297 21.9608C17.1545 21.9996 16.5483 22 15.7 22H8.3C7.45167 22 6.84549 21.9996 6.37032 21.9608C5.90099 21.9224 5.60366 21.8491 5.36502 21.7275C4.89462 21.4878 4.51217 21.1054 4.27248 20.635C4.15089 20.3963 4.07756 20.099 4.03921 19.6297C4.00039 19.1545 4 18.5483 4 17.7V7.75C4 7.04425 4.00027 6.53997 4.02739 6.14257C4.05419 5.74966 4.10556 5.49787 4.1903 5.29329C4.44404 4.68072 4.93072 4.19404 5.54329 3.9403C5.74787 3.85556 5.99966 3.80419 6.39257 3.77739C6.68911 3.75715 7.04515 3.75187 7.5 3.75049V4C7.5 4.82843 8.17157 5.5 9 5.5H15C15.8284 5.5 16.5 4.82843 16.5 4V3.75049ZM15.5 2.5C15.5 2.22386 15.2761 2 15 2H9C8.72386 2 8.5 2.22386 8.5 2.5V4C8.5 4.27614 8.72386 4.5 9 4.5H15C15.2761 4.5 15.5 4.27614 15.5 4V2.5Z" fill="#000"/>
</svg>
