<svg width="24" height="24" viewBox="0 0 24 24" fill="none" xmlns="http://www.w3.org/2000/svg">
<path d="M15 14C15.2761 14 15.5 13.7761 15.5 13.5C15.5 13.2239 15.2761 13 15 13H9C8.72386 13 8.5 13.2239 8.5 13.5C8.5 13.7761 8.72386 14 9 14H15Z" fill="#000"/>
<path fill-rule="evenodd" clip-rule="evenodd" d="M12 3.5C7.85786 3.5 4.5 6.85786 4.5 11C4.5 11.1766 4.50611 11.3518 4.51814 11.5255C2.25944 11.7659 0.5 13.6775 0.5 16C0.5 18.4853 2.51472 20.5 5 20.5H18C21.0376 20.5 23.5 18.0376 23.5 15C23.5 12.4399 21.7513 10.2892 19.3833 9.67556C18.7576 6.16494 15.6904 3.5 12 3.5ZM5.5 11C5.5 7.41015 8.41015 4.5 12 4.5C15.3026 4.5 18.0306 6.9635 18.4454 10.1529C18.4732 10.3671 18.6355 10.5392 18.8476 10.5796C20.9277 10.9758 22.5 12.8048 22.5 15C22.5 17.4853 20.4853 19.5 18 19.5H5C3.067 19.5 1.5 17.933 1.5 16C1.5 14.067 3.067 12.5 5 12.5C5.02074 12.5 5.0415 12.5002 5.06227 12.5005C5.20874 12.5031 5.34896 12.4413 5.44588 12.3314C5.54281 12.2216 5.58669 12.0748 5.56593 11.9298C5.52251 11.6264 5.5 11.316 5.5 11Z" fill="#000"/>
</svg>
