<svg width="24" height="24" viewBox="0 0 24 24" fill="none" xmlns="http://www.w3.org/2000/svg">
<path d="M15.5 13.5C15.5 13.7761 15.2761 14 15 14H12.5V16.5C12.5 16.7761 12.2761 17 12 17C11.7239 17 11.5 16.7761 11.5 16.5V14H9C8.72386 14 8.5 13.7761 8.5 13.5C8.5 13.2239 8.72386 13 9 13H11.5V10.5C11.5 10.2239 11.7239 10 12 10C12.2761 10 12.5 10.2239 12.5 10.5V13H15C15.2761 13 15.5 13.2239 15.5 13.5Z" fill="#000"/>
<path fill-rule="evenodd" clip-rule="evenodd" d="M4.5 11C4.5 6.85786 7.85786 3.5 12 3.5C15.6904 3.5 18.7576 6.16494 19.3833 9.67556C21.7513 10.2892 23.5 12.4399 23.5 15C23.5 18.0376 21.0376 20.5 18 20.5H5C2.51472 20.5 0.5 18.4853 0.5 16C0.5 13.6775 2.25944 11.7659 4.51814 11.5255C4.50611 11.3518 4.5 11.1766 4.5 11ZM12 4.5C8.41015 4.5 5.5 7.41015 5.5 11C5.5 11.316 5.52251 11.6264 5.56593 11.9298C5.58669 12.0748 5.54281 12.2216 5.44588 12.3314C5.34896 12.4413 5.20874 12.5031 5.06227 12.5005C5.0415 12.5002 5.02074 12.5 5 12.5C3.067 12.5 1.5 14.067 1.5 16C1.5 17.933 3.067 19.5 5 19.5H18C20.4853 19.5 22.5 17.4853 22.5 15C22.5 12.8048 20.9277 10.9758 18.8476 10.5796C18.6355 10.5392 18.4732 10.3671 18.4454 10.1529C18.0306 6.9635 15.3026 4.5 12 4.5Z" fill="#000"/>
</svg>
