<svg width="24" height="24" viewBox="0 0 24 24" fill="none" xmlns="http://www.w3.org/2000/svg">
<path d="M14.4851 4.12126C14.552 3.85337 14.3892 3.5819 14.1213 3.51492C13.8534 3.44795 13.5819 3.61083 13.5149 3.87873L9.51493 19.8787C9.44795 20.1466 9.61083 20.4181 9.87873 20.4851C10.1466 20.552 10.4181 20.3892 10.4851 20.1213L14.4851 4.12126Z" fill="#000"/>
<path d="M6.35711 7.65004C6.55039 7.84726 6.54719 8.16383 6.34996 8.35711L2.70714 11.9271L6.35696 15.65C6.55028 15.8472 6.54714 16.1637 6.34996 16.357C6.15277 16.5504 5.8362 16.5472 5.64288 16.35L1.64296 12.27C1.55011 12.1753 1.4987 12.0476 1.50003 11.915C1.50135 11.7824 1.55531 11.6557 1.65004 11.5629L5.65004 7.64289C5.84726 7.44961 6.16383 7.45281 6.35711 7.65004Z" fill="#000"/>
<path d="M17.6427 7.65022C17.8359 7.4529 18.1525 7.44954 18.3498 7.64271L22.3498 11.5587C22.4446 11.6515 22.4986 11.7781 22.5 11.9107C22.5014 12.0434 22.45 12.1711 22.3572 12.2659L18.3572 16.3499C18.164 16.5471 17.8474 16.5504 17.6501 16.3572C17.4529 16.164 17.4496 15.8474 17.6428 15.6501L21.2929 11.9234L17.6502 8.35729C17.4529 8.16411 17.4495 7.84754 17.6427 7.65022Z" fill="#000"/>
</svg>
