<svg width="24" height="24" viewBox="0 0 24 24" fill="none" xmlns="http://www.w3.org/2000/svg">
<path fill-rule="evenodd" clip-rule="evenodd" d="M3.66676 2.58489C2.42469 3.2537 1.5 4.26143 1.5 5.5V13.5L1.50009 13.5232L1.50009 17.5C1.50009 18.8354 2.41294 19.8473 3.67462 20.4984C4.94132 21.152 6.65075 21.4999 8.50009 21.4999C9.15397 21.4999 9.78764 21.4447 10.3889 21.3412C10.4819 21.3957 10.5772 21.4481 10.6745 21.4984C11.9412 22.152 13.6507 22.5 15.5 22.5C17.3493 22.5 19.0588 22.152 20.3255 21.4984C21.5871 20.8473 22.5 19.8354 22.5 18.5L22.4995 14.5487C22.4998 14.5325 22.5 14.5163 22.5 14.5C22.5 13.2614 21.5753 12.2537 20.3332 11.5849C19.0708 10.9051 17.3611 10.5 15.5 10.5C15.4999 10.5 15.5001 10.5 15.5 10.5L15.4998 9.53392L15.5 9.5L15.5 8.5001L15.4999 8.48974L15.4995 5.54873C15.4998 5.53252 15.5 5.51628 15.5 5.5C15.5 4.26143 14.5753 3.2537 13.3332 2.58489C12.0708 1.90512 10.3611 1.5 8.5 1.5C6.63889 1.5 4.92919 1.90512 3.66676 2.58489ZM4.14086 3.46536C3.03039 4.06331 2.5 4.80558 2.5 5.5C2.50041 6.19419 3.03081 6.93692 4.14086 7.53464C5.23096 8.12162 6.77126 8.5 8.5 8.5C10.2287 8.5 11.769 8.12162 12.8591 7.53464C13.9503 6.94708 14.4814 6.22016 14.4995 5.53622L14.4995 5.50061C14.4995 5.49422 14.4996 5.48733 14.4999 5.481C14.4903 4.79206 13.9595 4.05786 12.8591 3.46536C11.769 2.87838 10.2287 2.5 8.5 2.5C6.77126 2.5 5.23096 2.87838 4.14086 3.46536ZM14.1821 10.5691C14.3881 10.2315 14.4946 9.88169 14.4998 9.5272L14.4998 7.58815C14.1679 7.90261 13.7702 8.17983 13.3332 8.41511C12.0708 9.09488 10.3611 9.5 8.5 9.5C6.63889 9.5 4.92919 9.09488 3.66676 8.41511C3.22973 8.17979 2.83199 7.9025 2.5 7.58797L2.5 9.5C2.50039 10.3084 3.04261 11.047 4.13309 11.6097C5.21892 12.17 6.75949 12.5 8.5 12.5C8.82471 12.5 9.14327 12.4851 9.45384 12.4564C9.79486 12.1235 10.2093 11.8312 10.6668 11.5849C11.6243 11.0693 12.8391 10.7117 14.1821 10.5691ZM8.71203 13.498C8.64161 13.4993 8.57092 13.5 8.5 13.5C6.65066 13.5 4.94123 13.152 3.67453 12.4984C3.23199 12.27 2.83237 11.9973 2.5 11.6817L2.5 12.9903L2.50009 13L2.50009 13.5182C2.50817 14.3198 3.05041 15.051 4.13309 15.6097C5.21892 16.17 6.75949 16.5 8.5 16.5L8.5 14.5C8.5 14.1463 8.57539 13.8115 8.71203 13.498ZM9.5 16.9919C9.50001 16.99 9.50001 16.9881 9.5 16.9862V16.588C9.83199 16.9025 10.2297 17.1798 10.6668 17.4151C11.9292 18.0949 13.6389 18.5 15.5 18.5C17.3611 18.5 19.0708 18.0949 20.3332 17.4151C20.7702 17.1798 21.1679 16.9026 21.4998 16.5882L21.5 18.5C21.5 19.3087 20.9578 20.0468 19.8669 20.6097C18.7811 21.17 17.2405 21.5 15.5 21.5C13.7595 21.5 12.2189 21.17 11.1331 20.6097C10.0422 20.0468 9.5 19.3087 9.5 18.5V16.9919ZM8.5 17.5C6.65066 17.5 4.94123 17.152 3.67453 16.4984C3.23203 16.27 2.83244 15.9973 2.50009 15.6818L2.50009 17.5C2.50009 18.3087 3.04232 19.0468 4.13318 19.6097C5.21901 20.17 6.75958 20.4999 8.50009 20.4999C8.76904 20.4999 9.03372 20.4897 9.29308 20.47C8.79973 19.9242 8.5 19.2652 8.5 18.5L8.5 17.5ZM11.1409 12.4654C10.0304 13.0633 9.5 13.8056 9.5 14.5C9.50041 15.1942 10.0308 15.9369 11.1409 16.5346C12.231 17.1216 13.7713 17.5 15.5 17.5C17.2287 17.5 18.769 17.1216 19.8591 16.5346C20.9503 15.9471 21.4814 15.2202 21.4995 14.5362L21.4995 14.5006C21.4995 14.4942 21.4996 14.4873 21.4999 14.481C21.4903 13.7921 20.9595 13.0579 19.8591 12.4654C18.769 11.8784 17.2287 11.5 15.5 11.5C13.7713 11.5 12.231 11.8784 11.1409 12.4654Z" fill="#000"/>
</svg>
