<svg width="24" height="24" viewBox="0 0 24 24" fill="none" xmlns="http://www.w3.org/2000/svg">
<path d="M14.8535 14.8535C14.6583 15.0488 14.3417 15.0488 14.1464 14.8535L12 12.7071L9.85354 14.8536C9.65828 15.0488 9.34169 15.0488 9.14643 14.8536C8.95117 14.6583 8.95117 14.3417 9.14643 14.1464L11.2929 12L9.14645 9.85357C8.95118 9.65831 8.95119 9.34173 9.14645 9.14646C9.34171 8.9512 9.65829 8.9512 9.85355 9.14646L12 11.2929L14.1464 9.14648C14.3417 8.95122 14.6582 8.95122 14.8535 9.14648C15.0488 9.34174 15.0488 9.65832 14.8535 9.85358L12.7071 12L14.8535 14.1464C15.0488 14.3417 15.0488 14.6583 14.8535 14.8535Z" fill="#000"/>
<path fill-rule="evenodd" clip-rule="evenodd" d="M1.49997 12C1.49997 6.20101 6.20098 1.5 12 1.5C17.799 1.5 22.5 6.20101 22.5 12C22.5 17.799 17.799 22.5 12 22.5C9.96643 22.5 8.06649 21.9214 6.45756 20.9197C6.45019 20.9151 6.4456 20.9156 6.44489 20.9157L4.18468 21.7376C2.98764 22.1729 1.82709 21.0123 2.26238 19.8153L3.08427 17.5551C3.08439 17.5544 3.0849 17.5498 3.08031 17.5424C2.07855 15.9335 1.49997 14.0335 1.49997 12ZM12 2.5C6.75326 2.5 2.49997 6.75329 2.49997 12C2.49997 13.8414 3.02334 15.5589 3.92922 17.0139C4.09028 17.2725 4.13298 17.5973 4.02422 17.8964L3.20217 20.157C3.05708 20.556 3.44393 20.9429 3.84294 20.7978L6.10356 19.9758C6.40267 19.867 6.72743 19.9097 6.98611 20.0708C8.44104 20.9766 10.1586 21.5 12 21.5C17.2467 21.5 21.5 17.2467 21.5 12C21.5 6.75329 17.2467 2.5 12 2.5Z" fill="#000"/>
</svg>
