<svg width="24" height="24" viewBox="0 0 24 24" fill="none" xmlns="http://www.w3.org/2000/svg">
<path d="M12 11.25C11.5858 11.25 11.25 11.5858 11.25 12C11.25 12.4142 11.5858 12.75 12 12.75C12.4142 12.75 12.7501 12.4142 12.7501 12C12.7501 11.5858 12.4142 11.25 12 11.25Z" fill="#000"/>
<path d="M7.25 12C7.25 11.5858 7.58579 11.25 8 11.25C8.41421 11.25 8.7501 11.5858 8.7501 12C8.7501 12.4142 8.41431 12.75 8.0001 12.75C7.58589 12.75 7.25 12.4142 7.25 12Z" fill="#000"/>
<path d="M16 11.25C15.5858 11.25 15.25 11.5858 15.25 12C15.25 12.4142 15.5858 12.75 16 12.75C16.4142 12.75 16.7501 12.4142 16.7501 12C16.7501 11.5858 16.4142 11.25 16 11.25Z" fill="#000"/>
<path fill-rule="evenodd" clip-rule="evenodd" d="M12 1.5C6.20101 1.5 1.5 6.20101 1.5 12C1.5 14.0335 2.07859 15.9335 3.08034 17.5424C3.08493 17.5498 3.08442 17.5544 3.08431 17.5551L2.26241 19.8153C1.82712 21.0123 2.98767 22.1729 4.18471 21.7376L6.44485 20.9157C6.44556 20.9156 6.45022 20.9151 6.45759 20.9197C8.06652 21.9214 9.96646 22.5 12 22.5C17.799 22.5 22.5 17.799 22.5 12C22.5 6.20101 17.799 1.5 12 1.5ZM2.5 12C2.5 6.75329 6.75329 2.5 12 2.5C17.2467 2.5 21.5 6.75329 21.5 12C21.5 17.2467 17.2467 21.5 12 21.5C10.1586 21.5 8.44107 20.9766 6.98614 20.0708C6.72746 19.9097 6.4027 19.867 6.10359 19.9758L3.84297 20.7978C3.44396 20.9429 3.05711 20.556 3.2022 20.157L4.02425 17.8964C4.13301 17.5973 4.09031 17.2725 3.92925 17.0139C3.02337 15.5589 2.5 13.8414 2.5 12Z" fill="#000"/>
</svg>
