<svg width="24" height="24" viewBox="0 0 24 24" fill="none" xmlns="http://www.w3.org/2000/svg">
<path d="M15.8536 10.1036C16.0488 9.90829 16.0488 9.59171 15.8536 9.39645C15.6583 9.20118 15.3417 9.20118 15.1464 9.39645L11 13.5429L8.85355 11.3964C8.65829 11.2012 8.34171 11.2012 8.14645 11.3964C7.95118 11.5917 7.95118 11.9083 8.14645 12.1036L10.6464 14.6036C10.8417 14.7988 11.1583 14.7988 11.3536 14.6036L15.8536 10.1036Z" fill="#000"/>
<path fill-rule="evenodd" clip-rule="evenodd" d="M12 1.5C6.20101 1.5 1.5 6.20101 1.5 12C1.5 14.0335 2.07859 15.9335 3.08034 17.5424C3.08493 17.5498 3.08442 17.5544 3.08431 17.5551L2.26241 19.8153C1.82712 21.0123 2.98767 22.1729 4.18471 21.7376L6.44485 20.9157C6.44556 20.9156 6.45022 20.9151 6.45759 20.9197C8.06652 21.9214 9.96646 22.5 12 22.5C17.799 22.5 22.5 17.799 22.5 12C22.5 6.20101 17.799 1.5 12 1.5ZM2.5 12C2.5 6.75329 6.75329 2.5 12 2.5C17.2467 2.5 21.5 6.75329 21.5 12C21.5 17.2467 17.2467 21.5 12 21.5C10.1586 21.5 8.44107 20.9766 6.98614 20.0708C6.72746 19.9097 6.4027 19.867 6.10359 19.9758L3.84297 20.7978C3.44396 20.9429 3.05711 20.556 3.2022 20.157L4.02425 17.8964C4.13301 17.5973 4.09031 17.2725 3.92925 17.0139C3.02337 15.5589 2.5 13.8414 2.5 12Z" fill="#000"/>
</svg>
