<svg width="24" height="24" viewBox="0 0 24 24" fill="none" xmlns="http://www.w3.org/2000/svg">
<path fill-rule="evenodd" clip-rule="evenodd" d="M1.5 12C1.5 6.20101 6.20101 1.5 12 1.5C17.799 1.5 22.5 6.20101 22.5 12C22.5 17.799 17.799 22.5 12 22.5C9.96646 22.5 8.06652 21.9214 6.45759 20.9197C6.45022 20.9151 6.44563 20.9156 6.44492 20.9157C6.44489 20.9157 6.44494 20.9157 6.44492 20.9157L4.18471 21.7376C2.98767 22.1729 1.82712 21.0123 2.26241 19.8153L3.08431 17.5551C3.08442 17.5544 3.08493 17.5498 3.08034 17.5424C2.07859 15.9335 1.5 14.0335 1.5 12ZM12 2.5C6.75329 2.5 2.5 6.75329 2.5 12C2.5 13.8414 3.02337 15.5589 3.92925 17.0139C4.09031 17.2725 4.13301 17.5973 4.02425 17.8964L3.2022 20.157C3.05711 20.556 3.44396 20.9429 3.84297 20.7978L6.10359 19.9758C6.4027 19.867 6.72746 19.9097 6.98614 20.0708C8.44107 20.9766 10.1586 21.5 12 21.5C17.2467 21.5 21.5 17.2467 21.5 12C21.5 6.75329 17.2467 2.5 12 2.5Z" fill="#000"/>
</svg>
