<svg width="24" height="24" viewBox="0 0 24 24" fill="none" xmlns="http://www.w3.org/2000/svg">
<path d="M11.9999 11.25C11.5857 11.25 11.2499 11.5858 11.2499 12C11.2499 12.4142 11.5857 12.75 11.9999 12.75C12.4141 12.75 12.75 12.4142 12.75 12C12.75 11.5858 12.4141 11.25 11.9999 11.25Z" fill="#000"/>
<path fill-rule="evenodd" clip-rule="evenodd" d="M17.0082 6.19036C17.388 6.3141 17.6857 6.61186 17.8095 6.9916C17.9044 7.28291 17.8359 7.58587 17.7572 7.83853C17.6752 8.10167 17.5391 8.43209 17.375 8.83076L15.4479 13.5106C15.2817 13.9146 15.1667 14.1942 14.9915 14.4358C14.8366 14.6493 14.6489 14.837 14.4354 14.9918C14.1938 15.167 13.9142 15.2821 13.5102 15.4483L8.83055 17.3752C8.43189 17.5393 8.10148 17.6754 7.83835 17.7574C7.58569 17.8361 7.28273 17.9046 6.99143 17.8096C6.61169 17.6859 6.31394 17.3882 6.1902 17.0084C6.09528 16.7171 6.16373 16.4142 6.24247 16.1615C6.32447 15.8984 6.46053 15.568 6.62469 15.1693L8.55156 10.4896C8.71777 10.0856 8.83282 9.806 9.00804 9.5644C9.16288 9.3509 9.35053 9.16324 9.56404 9.0084C9.80563 8.83317 10.0853 8.71812 10.4893 8.55191L15.1691 6.62489C15.5677 6.46072 15.8982 6.32465 16.1613 6.24264C16.414 6.1639 16.7169 6.09545 17.0082 6.19036ZM16.706 7.14376L16.7044 7.14379C16.6917 7.14404 16.6259 7.14529 16.4589 7.19735C16.2433 7.26452 15.9543 7.38303 15.5271 7.55892L10.923 9.45477C10.4459 9.65121 10.2844 9.72123 10.1511 9.8179C10.023 9.91081 9.91046 10.0234 9.81755 10.1515C9.72088 10.2848 9.65087 10.4463 9.45443 10.9234L7.55872 15.5273C7.38284 15.9545 7.26435 16.2435 7.19718 16.459C7.14513 16.626 7.14388 16.6918 7.14363 16.7046L7.14359 16.7061C7.16884 16.776 7.22386 16.831 7.2937 16.8563L7.29528 16.8562C7.30804 16.856 7.37381 16.8547 7.54081 16.8027C7.75634 16.7355 8.04537 16.617 8.47252 16.4411L13.0765 14.5454C13.5535 14.349 13.7151 14.279 13.8483 14.1823C13.9764 14.0894 14.089 13.9768 14.1819 13.8487C14.2786 13.7154 14.3486 13.5539 14.5451 13.0768L16.4409 8.47272C16.6168 8.04556 16.7353 7.75652 16.8025 7.54099C16.8545 7.37397 16.8558 7.3082 16.8561 7.29545L16.8561 7.29386C16.8308 7.22402 16.7758 7.169 16.706 7.14376Z" fill="#000"/>
<path fill-rule="evenodd" clip-rule="evenodd" d="M0.499878 12C0.499878 5.64873 5.6486 0.5 11.9999 0.5C18.3512 0.5 23.4999 5.64873 23.4999 12C23.4999 18.3513 18.3512 23.5 11.9999 23.5C5.6486 23.5 0.499878 18.3513 0.499878 12ZM11.9999 1.5C6.20089 1.5 1.49988 6.20101 1.49988 12C1.49988 17.799 6.20089 22.5 11.9999 22.5C17.7989 22.5 22.4999 17.799 22.4999 12C22.4999 6.20101 17.7989 1.5 11.9999 1.5Z" fill="#000"/>
</svg>
