<svg width="24" height="24" viewBox="0 0 24 24" fill="none" xmlns="http://www.w3.org/2000/svg">
<path d="M5.5 15C5.22386 15 5 15.2239 5 15.5C5 15.7761 5.22386 16 5.5 16H10C10.2761 16 10.5 15.7761 10.5 15.5C10.5 15.2239 10.2761 15 10 15H5.5Z" fill="#000"/>
<path fill-rule="evenodd" clip-rule="evenodd" d="M2.35355 1.64645C2.15829 1.45118 1.84171 1.45118 1.64645 1.64645C1.45118 1.84171 1.45118 2.15829 1.64645 2.35355L3.0912 3.7983C3.03019 3.82369 2.97019 3.85134 2.91103 3.88148C2.25247 4.21703 1.71703 4.75247 1.38148 5.41103C1.17609 5.81414 1.08593 6.25771 1.04253 6.78889C0.999994 7.30954 0.999997 7.95652 1 8.77779V15.2222C0.999997 16.0435 0.999994 16.6905 1.04253 17.2111C1.08593 17.7423 1.17609 18.1859 1.38148 18.589C1.71703 19.2475 2.25247 19.783 2.91103 20.1185C3.31413 20.3239 3.75771 20.4141 4.28889 20.4575C4.80954 20.5 5.45651 20.5 6.27778 20.5H17.7373C18.5648 20.5 19.218 20.5 19.7473 20.4544L21.6464 22.3536C21.8417 22.5488 22.1583 22.5488 22.3536 22.3536C22.5488 22.1583 22.5488 21.8417 22.3536 21.6464L20.2893 19.5822C20.2872 19.5801 20.2851 19.578 20.283 19.5759L4.42478 3.71767C4.42258 3.71543 4.42036 3.71321 4.41812 3.71101L2.35355 1.64645ZM3.89359 4.6007C3.67823 4.64202 3.51052 4.69835 3.36502 4.77248C2.89462 5.01217 2.51217 5.39462 2.27248 5.86502C2.15089 6.10366 2.07756 6.40099 2.03921 6.87032C2.00039 7.3455 2 7.95167 2 8.8V9H8.29289L3.89359 4.6007ZM9.29289 10H2V15.2C2 16.0483 2.00039 16.6545 2.03921 17.1297C2.07756 17.599 2.15089 17.8963 2.27248 18.135C2.51217 18.6054 2.89462 18.9878 3.36502 19.2275C3.60366 19.3491 3.90099 19.4224 4.37032 19.4608C4.84549 19.4996 5.45167 19.5 6.3 19.5H17.7C18.1177 19.5 18.476 19.4998 18.7881 19.4952L14.9683 15.6755C14.8973 15.865 14.7144 16 14.5 16H13C12.7239 16 12.5 15.7761 12.5 15.5C12.5 15.2239 12.7239 15 13 15H14.2929L9.29289 10Z" fill="#000"/>
<path d="M17.7 4.5C18.5483 4.5 19.1545 4.50039 19.6297 4.53921C20.099 4.57756 20.3963 4.65089 20.635 4.77248C21.1054 5.01217 21.4878 5.39462 21.7275 5.86502C21.8491 6.10366 21.9224 6.40099 21.9608 6.87032C21.9996 7.3455 22 7.95167 22 8.8V9H13.5C13.2239 9 13 9.22386 13 9.5C13 9.77614 13.2239 10 13.5 10H22V15.2C22 15.9918 21.9997 16.5735 21.9678 17.036C21.9361 17.4958 21.875 17.798 21.7731 18.0372C21.6649 18.2913 21.7832 18.585 22.0372 18.6932C22.2913 18.8014 22.585 18.6831 22.6932 18.4291C22.8581 18.0417 22.9305 17.6125 22.9655 17.1048C23 16.6039 23 15.9879 23 15.218V8.77778C23 7.95651 23 7.30954 22.9575 6.78889C22.9141 6.25771 22.8239 5.81413 22.6185 5.41103C22.283 4.75247 21.7475 4.21703 21.089 3.88148C20.6859 3.67609 20.2423 3.58593 19.7111 3.54253C19.1905 3.49999 18.5435 3.5 17.7222 3.5L8 3.5C7.72386 3.5 7.5 3.72386 7.5 4C7.5 4.27614 7.72386 4.5 8 4.5H17.7Z" fill="#000"/>
</svg>
