<svg width="24" height="24" viewBox="0 0 24 24" fill="none" xmlns="http://www.w3.org/2000/svg">
<path fill-rule="evenodd" clip-rule="evenodd" d="M20.4992 6.06386C20.4997 6.04264 20.4999 6.02135 20.4999 6C20.4999 4.60402 19.3813 3.47479 17.8804 2.72436C16.3496 1.95897 14.2699 1.5 11.9999 1.5C9.73002 1.5 7.65026 1.95897 6.11949 2.72436C4.62387 3.47217 3.50778 4.59612 3.49999 5.98536C3.49983 5.99048 3.49976 5.99561 3.49976 6.00077L3.49993 10.9876C3.49981 10.9921 3.49976 10.9965 3.49976 11.0009L3.49995 17.5C3.49983 19.0104 4.5773 20.2699 6.09821 21.1235C7.634 21.9855 9.72166 22.5 11.9997 22.5C14.2778 22.5 16.3655 21.9855 17.9014 21.1235C19.4224 20.2699 20.4999 19.0104 20.4999 17.5L20.4992 11.5677C20.4997 11.5452 20.4999 11.5226 20.4999 11.5L20.4992 6.06386ZM17.4332 3.61879C16.0685 2.93646 14.1483 2.5 11.9999 2.5C9.8516 2.5 7.93136 2.93646 6.5667 3.61879C5.17214 4.31607 4.49995 5.18684 4.49995 6C4.49995 6.81316 5.17214 7.68393 6.5667 8.38121C7.93135 9.06354 9.8516 9.5 11.9999 9.5C14.1483 9.5 16.0685 9.06354 17.4332 8.38121C18.8003 7.69768 19.4732 6.84743 19.4992 6.04817L19.4992 6.00014C19.4992 5.9919 19.4994 5.9837 19.4997 5.97555C19.4864 5.16942 18.8138 4.30909 17.4332 3.61879ZM19.4995 8.15307C19.0608 8.58721 18.5035 8.96407 17.8804 9.27564C16.3496 10.041 14.2699 10.5 11.9999 10.5C9.73002 10.5 7.65026 10.041 6.11949 9.27564C5.49606 8.96393 4.93859 8.58687 4.49983 8.15247L4.49995 11.5C4.49987 12.4896 5.21317 13.4801 6.58763 14.2515C7.94722 15.0145 9.85956 15.5 11.9998 15.5C14.1399 15.5 16.0523 15.0145 17.412 14.2515C18.7613 13.4943 19.4735 12.526 19.4992 11.5546L19.4992 11.0001C19.4992 10.9911 19.4994 10.982 19.4999 10.9731L19.4995 8.15307ZM19.4995 13.8855C19.0695 14.3588 18.5224 14.775 17.9014 15.1235C16.3655 15.9855 14.2778 16.5 11.9998 16.5C9.72166 16.5 7.634 15.9855 6.09821 15.1235C5.47705 14.7749 4.92986 14.3586 4.49984 13.8851L4.49995 17.5C4.49987 18.4896 5.21317 19.4801 6.58763 20.2515C7.94722 21.0145 9.85956 21.5 11.9998 21.5C14.1399 21.5 16.0523 21.0145 17.412 20.2515C18.7866 19.4801 19.4999 18.4896 19.4999 17.5L19.4995 13.8855Z" fill="#000"/>
</svg>
