<svg width="24" height="24" viewBox="0 0 24 24" fill="none" xmlns="http://www.w3.org/2000/svg">
<path fill-rule="evenodd" clip-rule="evenodd" d="M9 1.5H7.07755C6.11647 1.5 5.36451 1.49999 4.76049 1.54935C4.14594 1.59956 3.64062 1.70334 3.18404 1.93597C2.43139 2.31947 1.81947 2.93139 1.43597 3.68404C1.20334 4.14062 1.09956 4.64594 1.04935 5.26049C0.999995 5.86451 0.999997 6.61646 1 7.57755V12.4224C1 12.7935 1 13.1342 1.00284 13.4464C1.00096 13.464 1 13.4819 1 13.5C1 13.5217 1.00139 13.5431 1.00407 13.5641C1.00935 14.0104 1.02149 14.3985 1.04935 14.7395C1.09956 15.3541 1.20334 15.8594 1.43597 16.316C1.81947 17.0686 2.43139 17.6805 3.18404 18.064C3.64062 18.2967 4.14594 18.4004 4.76049 18.4507C5.36451 18.5 6.11646 18.5 7.07754 18.5H9.5V20C9.5 20.8284 8.82843 21.5 8 21.5H7.5C7.22386 21.5 7 21.7239 7 22C7 22.2761 7.22386 22.5 7.5 22.5H16.5C16.7761 22.5 17 22.2761 17 22C17 21.7239 16.7761 21.5 16.5 21.5H16C15.1716 21.5 14.5 20.8284 14.5 20V18.5H16.9225C17.8835 18.5 18.6355 18.5 19.2395 18.4507C19.8541 18.4004 20.3594 18.2967 20.816 18.064C21.5686 17.6805 22.1805 17.0686 22.564 16.316C22.7967 15.8594 22.9004 15.3541 22.9507 14.7395C22.9785 14.3985 22.9906 14.0104 22.9959 13.5641C22.9986 13.5431 23 13.5217 23 13.5C23 13.4819 22.999 13.464 22.9972 13.4464C23 13.1341 23 12.7943 23 12.4232V7.57754C23 6.61646 23 5.86451 22.9507 5.26049C22.9004 4.64594 22.7967 4.14062 22.564 3.68404C22.1805 2.93139 21.5686 2.31947 20.816 1.93597C20.3594 1.70334 19.8541 1.59956 19.2395 1.54935C18.6355 1.49999 17.8835 1.5 16.9225 1.5H15C14.7239 1.5 14.5 1.72386 14.5 2C14.5 2.27614 14.7239 2.5 15 2.5H16.9C17.8883 2.5 18.5995 2.50039 19.1581 2.54602C19.7108 2.59118 20.0699 2.67814 20.362 2.82698C20.9265 3.1146 21.3854 3.57354 21.673 4.13803C21.8219 4.43014 21.9088 4.78921 21.954 5.34192C21.9996 5.90047 22 6.61166 22 7.6V12.4C22 12.6124 22 12.812 21.9995 13H2.0005C2.00002 12.812 2 12.6124 2 12.4V7.6C2 6.61166 2.00039 5.90047 2.04602 5.34192C2.09118 4.78921 2.17814 4.43014 2.32698 4.13803C2.6146 3.57354 3.07354 3.1146 3.63803 2.82698C3.93014 2.67814 4.28921 2.59118 4.84192 2.54602C5.40047 2.50039 6.11166 2.5 7.1 2.5H9C9.27614 2.5 9.5 2.27614 9.5 2C9.5 1.72386 9.27614 1.5 9 1.5ZM2.01252 14C2.01933 14.2423 2.02982 14.4598 2.04602 14.6581C2.09118 15.2108 2.17814 15.5699 2.32698 15.862C2.6146 16.4265 3.07354 16.8854 3.63803 17.173C3.93014 17.3219 4.28921 17.4088 4.84192 17.454C5.40047 17.4996 6.11166 17.5 7.1 17.5H16.9C17.8883 17.5 18.5995 17.4996 19.1581 17.454C19.7108 17.4088 20.0699 17.3219 20.362 17.173C20.9265 16.8854 21.3854 16.4265 21.673 15.862C21.8219 15.5699 21.9088 15.2108 21.954 14.6581C21.9702 14.4598 21.9807 14.2423 21.9875 14H2.01252ZM10.5 18.5V20C10.5 20.5628 10.314 21.0822 10.0002 21.5H13.9998C13.686 21.0822 13.5 20.5628 13.5 20V18.5H10.5Z" fill="#000"/>
<path d="M12 1.5C12.2761 1.5 12.5 1.72386 12.5 2V8.79289L14.6464 6.64645C14.8417 6.45118 15.1583 6.45118 15.3536 6.64645C15.5488 6.84171 15.5488 7.15829 15.3536 7.35355L12.3536 10.3536C12.2598 10.4473 12.1326 10.5 12 10.5C11.8674 10.5 11.7402 10.4473 11.6464 10.3536L8.64645 7.35355C8.45118 7.15829 8.45118 6.84171 8.64645 6.64645C8.84171 6.45118 9.15829 6.45118 9.35355 6.64645L11.5 8.79289V2C11.5 1.72386 11.7239 1.5 12 1.5Z" fill="#000"/>
</svg>
