<svg width="24" height="24" viewBox="0 0 24 24" fill="none" xmlns="http://www.w3.org/2000/svg">
<path d="M12.0001 2.50006C6.20107 2.50006 1.50006 7.20107 1.50006 13.0001C1.50006 18.7991 6.20107 23.5001 12.0001 23.5001C17.7991 23.5001 22.5001 18.7991 22.5001 13.0001C22.5001 12.3317 22.4375 11.6774 22.3179 11.043C22.2667 10.7716 22.0053 10.5931 21.7339 10.6443C21.4626 10.6955 21.2841 10.9569 21.3352 11.2283C21.4434 11.8019 21.5001 12.3942 21.5001 13.0001C21.5001 18.2468 17.2468 22.5001 12.0001 22.5001C6.75336 22.5001 2.50006 18.2468 2.50006 13.0001C2.50006 7.75336 6.75336 3.50006 12.0001 3.50006C12.606 3.50006 13.1982 3.55672 13.7718 3.6649C14.0432 3.71607 14.3046 3.53757 14.3558 3.26621C14.407 2.99485 14.2285 2.73339 13.9571 2.68222C13.3227 2.56258 12.6685 2.50006 12.0001 2.50006Z" fill="#000"/>
<path d="M12.5001 9.40053C12.7516 9.42915 12.9871 9.4845 13.2261 9.5793C13.6041 9.72921 13.9607 9.9663 14.3852 10.2877C14.6054 10.4544 14.6487 10.768 14.482 10.9882C14.3153 11.2083 14.0017 11.2517 13.7816 11.085C13.3727 10.7754 13.1044 10.6068 12.8574 10.5089C12.6221 10.4155 12.3771 10.3751 12.0001 10.3751C11.4461 10.3751 11.0381 10.5058 10.7829 10.6905C10.5428 10.8645 10.4167 11.0981 10.4167 11.4015C10.4167 11.7736 10.5898 11.9914 10.8901 12.1595C11.222 12.3453 11.6624 12.4369 12.0823 12.5069C12.4958 12.5758 13.097 12.6873 13.5985 12.968C14.1315 13.2664 14.5834 13.7784 14.5834 14.5986C14.5834 15.2358 14.2928 15.7653 13.8038 16.1195C13.4461 16.3785 12.9976 16.5345 12.5001 16.5954V17.1667C12.5001 17.4429 12.2762 17.6667 12.0001 17.6667C11.7239 17.6667 11.5001 17.4429 11.5001 17.1667V16.5996C11.2485 16.571 11.0131 16.5156 10.774 16.4208C10.3961 16.2709 10.0394 16.0338 9.61489 15.7124C9.39474 15.5457 9.35141 15.2321 9.51811 15.0119C9.68481 14.7918 9.99841 14.7484 10.2186 14.9151C10.6274 15.2247 10.8957 15.3933 11.1427 15.4913C11.3781 15.5846 11.623 15.6251 12.0001 15.6251C12.5541 15.6251 12.9621 15.4944 13.2172 15.3096C13.4574 15.1356 13.5834 14.902 13.5834 14.5986C13.5834 14.2266 13.4103 14.0087 13.11 13.8406C12.7781 13.6548 12.3377 13.5632 11.9179 13.4933C11.5044 13.4243 10.9031 13.3128 10.4017 13.0321C9.86861 12.7337 9.41673 12.2217 9.41673 11.4015C9.41673 10.7643 9.70736 10.2348 10.1964 9.88064C10.554 9.62163 11.0025 9.46567 11.5001 9.40469V8.83341C11.5001 8.55727 11.7239 8.33341 12.0001 8.33341C12.2762 8.33341 12.5001 8.55727 12.5001 8.83341V9.40053Z" fill="#000"/>
<path d="M19.4968 8.16998C19.2206 8.16998 18.9968 7.94613 18.9968 7.66998V2.2104L17.3503 3.85685C17.1551 4.05211 16.8385 4.05211 16.6432 3.85685C16.4479 3.66159 16.4479 3.345 16.6432 3.14974L19.1432 0.649742C19.3385 0.454481 19.6551 0.454481 19.8503 0.649742L22.3503 3.14974C22.5456 3.345 22.5456 3.66159 22.3503 3.85685C22.1551 4.05211 21.8385 4.05211 21.6432 3.85685L19.9968 2.2104V7.66998C19.9968 7.94613 19.7729 8.16998 19.4968 8.16998Z" fill="#000"/>
</svg>
