<svg width="24" height="24" viewBox="0 0 24 24" fill="none" xmlns="http://www.w3.org/2000/svg">
<path d="M11.5 7.77493V7.00002C11.5 6.72388 11.7239 6.50002 12 6.50002C12.2761 6.50002 12.5 6.72388 12.5 7.00002V7.77081C12.8289 7.80102 13.1295 7.8671 13.4344 7.98804C13.8749 8.16274 14.294 8.44039 14.8019 8.82492C15.022 8.99162 15.0653 9.30522 14.8987 9.52537C14.732 9.74552 14.4183 9.78885 14.1982 9.62215C13.706 9.24947 13.3752 9.04035 13.0657 8.91759C12.7679 8.79947 12.4604 8.75 12 8.75C11.321 8.75 10.8089 8.90999 10.4808 9.14759C10.1677 9.37433 10 9.68431 10 10.0817C10 10.573 10.2356 10.8639 10.6193 11.0786C11.0345 11.311 11.5791 11.4229 12.0822 11.5068C12.5791 11.5896 13.2845 11.7214 13.8693 12.0488C14.4856 12.3938 15 12.9788 15 13.9183C15 14.6495 14.6677 15.2554 14.1058 15.6623C13.6725 15.9761 13.1194 16.1616 12.5 16.2251V17C12.5 17.2761 12.2761 17.5 12 17.5C11.7239 17.5 11.5 17.2761 11.5 17V16.2292C11.1711 16.199 10.8706 16.1329 10.5657 16.0119C10.1252 15.8372 9.70601 15.5596 9.19819 15.175C8.97804 15.0083 8.93471 14.6947 9.10141 14.4746C9.26811 14.2544 9.58171 14.2111 9.80186 14.3778C10.294 14.7505 10.6249 14.9596 10.9344 15.0824C11.2322 15.2005 11.5396 15.25 12 15.25C12.679 15.25 13.1912 15.09 13.5193 14.8524C13.8323 14.6257 14 14.3157 14 13.9183C14 13.427 13.7644 13.1361 13.3808 12.9214C12.9656 12.689 12.421 12.5771 11.9178 12.4932C11.421 12.4104 10.7156 12.2786 10.1308 11.9512C9.51441 11.6062 9.00003 11.0212 9.00003 10.0817C9.00003 9.35051 9.33233 8.74465 9.89425 8.33768C10.3275 8.02387 10.8806 7.83844 11.5 7.77493Z" fill="#000"/>
<path fill-rule="evenodd" clip-rule="evenodd" d="M12 0.5C5.64873 0.5 0.5 5.64873 0.5 12C0.5 18.3513 5.64873 23.5 12 23.5C18.3513 23.5 23.5 18.3513 23.5 12C23.5 5.64873 18.3513 0.5 12 0.5ZM1.5 12C1.5 6.20101 6.20101 1.5 12 1.5C17.799 1.5 22.5 6.20101 22.5 12C22.5 17.799 17.799 22.5 12 22.5C6.20101 22.5 1.5 17.799 1.5 12Z" fill="#000"/>
</svg>
