<svg width="24" height="24" viewBox="0 0 24 24" fill="none" xmlns="http://www.w3.org/2000/svg">
<path fill-rule="evenodd" clip-rule="evenodd" d="M6.17767 2.5H16.8223C17.7135 2.5 18.413 2.49999 18.9753 2.54594C19.5482 2.59274 20.0226 2.68971 20.4525 2.90873C21.1581 3.26825 21.7317 3.84193 22.0913 4.54754C22.3103 4.97738 22.4073 5.45183 22.4541 6.02469C22.4658 6.16894 22.4746 6.32221 22.4811 6.48543L22.4818 6.50201C22.5 6.97138 22.5 7.52258 22.5 8.17724V12.5814C22.5 12.8576 22.2761 13.0814 22 13.0814C21.7239 13.0814 21.5 12.8576 21.5 12.5814V8.2C21.5 7.95191 21.5 7.72276 21.4991 7.51025L13.6584 13.4842C13.0458 13.9514 12.6234 14.2735 12.1437 14.4014C11.7219 14.5138 11.2781 14.5138 10.8563 14.4014C10.3766 14.2736 9.95426 13.9514 9.34162 13.4842L1.5009 7.51025C1.50003 7.72277 1.5 7.95191 1.5 8.2V14.3C1.5 15.2183 1.50039 15.877 1.54262 16.3939C1.58437 16.9049 1.66452 17.2331 1.79973 17.4985C2.06338 18.0159 2.48408 18.4366 3.00153 18.7003C3.2669 18.8355 3.5951 18.9156 4.10612 18.9574C4.62298 18.9996 5.28166 19 6.2 19H12.8C13.0761 19 13.3 19.2239 13.3 19.5C13.3 19.7761 13.0761 20 12.8 20H6.17765C5.28648 20 4.58703 20 4.02469 19.9541C3.45183 19.9073 2.97738 19.8103 2.54754 19.5913C1.84193 19.2317 1.26825 18.6581 0.908726 17.9525C0.689711 17.5226 0.592744 17.0482 0.545939 16.4753C0.499994 15.913 0.499997 15.2135 0.5 14.3223V8.17767C0.499998 7.52315 0.499996 6.97205 0.518196 6.50273C0.518325 6.49672 0.518561 6.49071 0.518906 6.48471C0.525417 6.32176 0.534171 6.16873 0.545939 6.02469C0.592744 5.45183 0.689711 4.97738 0.908726 4.54754C1.26825 3.84193 1.84193 3.26825 2.54754 2.90873C2.97738 2.68971 3.45183 2.59274 4.02469 2.54594C4.58703 2.49999 5.28649 2.5 6.17767 2.5ZM21.4574 6.10612C21.4619 6.16098 21.4659 6.21744 21.4695 6.27564L13.1363 12.6247C12.4057 13.1814 12.1497 13.3649 11.8863 13.4351C11.6332 13.5025 11.3668 13.5025 11.1138 13.4351C10.8503 13.3649 10.5943 13.1814 9.86369 12.6247L1.53053 6.27565C1.53412 6.21745 1.53814 6.16099 1.54262 6.10612C1.58437 5.5951 1.66452 5.2669 1.79973 5.00153C2.06338 4.48408 2.48408 4.06338 3.00153 3.79973C3.2669 3.66452 3.5951 3.58437 4.10612 3.54262C4.62298 3.50039 5.28166 3.5 6.2 3.5H16.8C17.7183 3.5 18.377 3.50039 18.8939 3.54262C19.4049 3.58437 19.7331 3.66452 19.9985 3.79973C20.5159 4.06338 20.9366 4.48408 21.2003 5.00153C21.3355 5.2669 21.4156 5.5951 21.4574 6.10612Z" fill="#000"/>
<path d="M23.3536 16.8536C23.5488 16.6583 23.5488 16.3417 23.3536 16.1464C23.1583 15.9512 22.8417 15.9512 22.6464 16.1464L18.5 20.2929L16.3536 18.1464C16.1583 17.9512 15.8417 17.9512 15.6464 18.1464C15.4512 18.3417 15.4512 18.6583 15.6464 18.8536L18.1464 21.3536C18.3417 21.5488 18.6583 21.5488 18.8536 21.3536L23.3536 16.8536Z" fill="#000"/>
</svg>
