<svg width="24" height="24" viewBox="0 0 24 24" fill="none" xmlns="http://www.w3.org/2000/svg">
<path d="M23.5 18C23.5 18.2761 23.2761 18.5 23 18.5H17.2071L19.3536 20.6464C19.5488 20.8417 19.5488 21.1583 19.3536 21.3536C19.1583 21.5488 18.8417 21.5488 18.6464 21.3536L15.6464 18.3536C15.5527 18.2598 15.5 18.1326 15.5 18C15.5 17.8674 15.5527 17.7402 15.6464 17.6464L18.6464 14.6464C18.8417 14.4512 19.1583 14.4512 19.3536 14.6464C19.5488 14.8417 19.5488 15.1583 19.3536 15.3536L17.2071 17.5H23C23.2761 17.5 23.5 17.7239 23.5 18Z" fill="#000"/>
<path fill-rule="evenodd" clip-rule="evenodd" d="M16.8223 2.5L6.17767 2.5C5.28651 2.5 4.58702 2.5 4.02469 2.54594C3.45183 2.59274 2.97738 2.68971 2.54754 2.90873C1.84193 3.26825 1.26825 3.84193 0.908726 4.54754C0.689711 4.97738 0.592745 5.45183 0.545939 6.02469C0.53418 6.16863 0.525429 6.32154 0.518919 6.48436C0.518729 6.48764 0.518572 6.49093 0.518448 6.49421C0.518341 6.49706 0.518258 6.4999 0.518196 6.50275C0.5 6.97196 0.5 7.52293 0.5 8.17726L0.5 14.3223C0.499998 15.2134 0.499996 15.913 0.54594 16.4753C0.592745 17.0482 0.689711 17.5226 0.908726 17.9525C1.26825 18.6581 1.84193 19.2317 2.54754 19.5913C2.97738 19.8103 3.45183 19.9073 4.02469 19.9541C4.58703 20 5.28648 20 6.17765 20H12.8171C13.0932 20 13.3171 19.7761 13.3171 19.5C13.3171 19.2239 13.0932 19 12.8171 19H6.2C5.28167 19 4.62298 18.9996 4.10612 18.9574C3.5951 18.9156 3.2669 18.8355 3.00153 18.7003C2.48408 18.4366 2.06338 18.0159 1.79973 17.4985C1.66452 17.2331 1.58437 16.9049 1.54262 16.3939C1.50039 15.877 1.5 15.2183 1.5 14.3L1.5 8.2C1.5 7.95191 1.50003 7.72277 1.5009 7.51025L9.34161 13.4842C9.95425 13.9514 10.3766 14.2736 10.8563 14.4014C11.2781 14.5138 11.7219 14.5138 12.1437 14.4014C12.6234 14.2735 13.0458 13.9514 13.6584 13.4842L21.4991 7.51025C21.5 7.72276 21.5 7.95191 21.5 8.2V12.0814C21.5 12.3576 21.7239 12.5814 22 12.5814C22.2761 12.5814 22.5 12.3576 22.5 12.0814V8.17765C22.5 7.5228 22.5 6.97147 22.4818 6.502L22.4811 6.48544C22.4746 6.32222 22.4658 6.16894 22.4541 6.02469C22.4073 5.45183 22.3103 4.97738 22.0913 4.54754C21.7317 3.84193 21.1581 3.26825 20.4525 2.90873C20.0226 2.68971 19.5482 2.59274 18.9753 2.54594C18.413 2.5 17.7135 2.5 16.8223 2.5ZM21.4695 6.27564C21.4659 6.21744 21.4619 6.16098 21.4574 6.10612C21.4156 5.5951 21.3355 5.2669 21.2003 5.00153C20.9366 4.48408 20.5159 4.06338 19.9985 3.79973C19.7331 3.66452 19.4049 3.58437 18.8939 3.54262C18.377 3.50039 17.7183 3.5 16.8 3.5H6.2C5.28166 3.5 4.62298 3.50039 4.10612 3.54262C3.5951 3.58437 3.2669 3.66452 3.00153 3.79973C2.48408 4.06338 2.06338 4.48408 1.79973 5.00153C1.66452 5.2669 1.58437 5.5951 1.54262 6.10612C1.53814 6.16099 1.53412 6.21745 1.53054 6.27565L9.86369 12.6247C10.5943 13.1814 10.8503 13.3649 11.1138 13.4351C11.3668 13.5025 11.6332 13.5025 11.8863 13.4351C12.1497 13.3649 12.4057 13.1814 13.1363 12.6247L21.4695 6.27564Z" fill="#000"/>
</svg>
