<svg width="24" height="24" viewBox="0 0 24 24" fill="none" xmlns="http://www.w3.org/2000/svg">
<path fill-rule="evenodd" clip-rule="evenodd" d="M1.08294 9.94524C1.08005 9.95823 1.07769 9.9713 1.07585 9.98441C0.999829 10.4188 0.999902 10.9179 1.00001 11.6343L1.00002 16.8224C1.00001 17.7136 1.00001 18.413 1.04595 18.9754C1.09276 19.5482 1.18973 20.0227 1.40874 20.4525C1.76827 21.1581 2.34194 21.7318 3.04755 22.0913C3.47739 22.3103 3.95184 22.4073 4.52471 22.4541C5.08704 22.5001 5.7865 22.5001 6.67767 22.5001H17.3224C18.2135 22.5001 18.913 22.5001 19.4753 22.4541C20.0482 22.4073 20.5226 22.3103 20.9525 22.0913C21.6581 21.7318 22.2318 21.1581 22.5913 20.4525C22.8103 20.0227 22.9073 19.5482 22.9541 18.9754C23 18.413 23 17.7136 23 16.8224L23 11.6343C23.0001 10.9178 23.0002 10.4186 22.9241 9.98418C22.9223 9.97116 22.92 9.95819 22.9171 9.94529C22.8987 9.84686 22.8761 9.75159 22.8486 9.65763C22.7145 9.20018 22.4944 8.77248 22.2001 8.39746C21.8672 7.97334 21.4135 7.64934 20.6796 7.12531L14.0701 2.40423C13.4794 1.98183 13.0717 1.69038 12.6139 1.57441C12.211 1.47235 11.789 1.47235 11.3861 1.57441C10.9283 1.69038 10.5207 1.98183 9.92988 2.40423L3.32042 7.12531C2.58655 7.64934 2.1328 7.97334 1.79996 8.39746C1.50566 8.77248 1.28556 9.20018 1.15146 9.65763C1.12392 9.75157 1.10138 9.84683 1.08294 9.94524ZM11.6317 2.54379C11.8734 2.48255 12.1266 2.48255 12.3684 2.54379C12.62 2.60754 12.8657 2.77288 13.5694 3.27547L20.0318 7.89152C20.8536 8.47852 21.1801 8.71755 21.4134 9.01482C21.6114 9.2672 21.7637 9.5521 21.8634 9.85655L13.6363 16.1248C12.9056 16.6815 12.6497 16.865 12.3862 16.9352C12.1331 17.0026 11.8668 17.0026 11.6137 16.9352C11.3502 16.865 11.0943 16.6815 10.3636 16.1248L2.13661 9.85663C2.23634 9.55215 2.38857 9.26722 2.58664 9.01482C2.81993 8.71755 3.14639 8.47852 3.9682 7.89152L10.4307 3.27547C11.1343 2.77288 11.38 2.60754 11.6317 2.54379ZM21.997 11.012C21.9997 11.2091 22 11.44 22 11.7161V16.8001C22 17.7184 21.9996 18.3771 21.9574 18.8939C21.9156 19.405 21.8355 19.7332 21.7003 19.9985C21.4366 20.516 21.0159 20.9367 20.4985 21.2003C20.2331 21.3355 19.9049 21.4157 19.3939 21.4574C18.877 21.4997 18.2184 21.5001 17.3 21.5001H6.70002C5.78168 21.5001 5.123 21.4997 4.60614 21.4574C4.09511 21.4157 3.76691 21.3355 3.50154 21.2003C2.9841 20.9367 2.5634 20.516 2.29975 19.9985C2.16453 19.7332 2.08439 19.405 2.04263 18.8939C2.0004 18.3771 2.00002 17.7184 2.00002 16.8001V11.7161C2.00002 11.44 2.00037 11.2092 2.00306 11.012L9.84157 16.9843C10.4542 17.4515 10.8766 17.7737 11.3562 17.9015C11.778 18.0139 12.2219 18.0139 12.6437 17.9015C13.1233 17.7737 13.5457 17.4515 14.1584 16.9843L21.997 11.012Z" fill="#000"/>
</svg>
