<svg width="24" height="24" viewBox="0 0 24 24" fill="none" xmlns="http://www.w3.org/2000/svg">
<path fill-rule="evenodd" clip-rule="evenodd" d="M16.8223 2.5L6.17767 2.5C5.28649 2.5 4.58703 2.49999 4.02469 2.54594C3.45183 2.59274 2.97738 2.68971 2.54754 2.90873C1.84193 3.26825 1.26825 3.84193 0.908726 4.54753C0.689711 4.97738 0.592744 5.45183 0.545939 6.02469C0.534149 6.169 0.525384 6.32234 0.518869 6.48563L0.518232 6.50181C0.499996 6.97133 0.499998 7.52273 0.5 8.17767L0.5 14.3223C0.499997 15.2135 0.499995 15.913 0.545939 16.4753C0.592744 17.0482 0.689711 17.5226 0.908726 17.9525C1.26825 18.6581 1.84193 19.2317 2.54754 19.5913C2.97738 19.8103 3.45183 19.9073 4.02469 19.9541C4.58703 20 5.28648 20 6.17765 20H12.8171C13.0932 20 13.3171 19.7761 13.3171 19.5C13.3171 19.2239 13.0932 19 12.8171 19H6.2C5.28167 19 4.62298 18.9996 4.10612 18.9574C3.5951 18.9156 3.2669 18.8355 3.00153 18.7003C2.48408 18.4366 2.06338 18.0159 1.79973 17.4985C1.66452 17.2331 1.58437 16.9049 1.54262 16.3939C1.50039 15.877 1.5 15.2183 1.5 14.3V8.2C1.5 7.9519 1.50003 7.72276 1.5009 7.51024L9.34162 13.4842C9.95427 13.9514 10.3767 14.2735 10.8563 14.4014C11.2781 14.5138 11.722 14.5138 12.1438 14.4014C12.6234 14.2735 13.0458 13.9514 13.6584 13.4842L21.4991 7.51026C21.5 7.72277 21.5 7.95191 21.5 8.2V12.0814C21.5 12.3576 21.7239 12.5814 22 12.5814C22.2761 12.5814 22.5 12.3576 22.5 12.0814V8.17765C22.5 7.5235 22.5 6.97204 22.4818 6.50291C22.4817 6.49654 22.4814 6.49017 22.4811 6.4838C22.4746 6.32119 22.4658 6.16846 22.4541 6.02469C22.4073 5.45183 22.3103 4.97738 22.0913 4.54754C21.7317 3.84193 21.1581 3.26825 20.4525 2.90873C20.0226 2.68971 19.5482 2.59275 18.9753 2.54594C18.413 2.49999 17.7135 2.5 16.8223 2.5ZM21.4695 6.27565C21.4659 6.21745 21.4619 6.16099 21.4574 6.10612C21.4156 5.5951 21.3355 5.2669 21.2003 5.00153C20.9366 4.48408 20.5159 4.06338 19.9985 3.79973C19.7331 3.66452 19.4049 3.58437 18.8939 3.54262C18.377 3.50039 17.7183 3.5 16.8 3.5L6.2 3.5C5.28166 3.5 4.62298 3.50039 4.10612 3.54262C3.5951 3.58437 3.2669 3.66452 3.00153 3.79973C2.48408 4.06338 2.06338 4.48408 1.79973 5.00153C1.66452 5.2669 1.58437 5.5951 1.54262 6.10612C1.53814 6.16098 1.53412 6.21744 1.53054 6.27564L9.8637 12.6247C10.5944 13.1814 10.8503 13.3649 11.1138 13.4351C11.3669 13.5025 11.6332 13.5025 11.8863 13.4351C12.1497 13.3649 12.4057 13.1814 13.1363 12.6247L21.4695 6.27565Z" fill="#000"/>
<path d="M15.5 18C15.5 17.7239 15.7239 17.5 16 17.5H21.7929L19.6464 15.3536C19.4512 15.1583 19.4512 14.8417 19.6464 14.6464C19.8417 14.4512 20.1583 14.4512 20.3536 14.6464L23.3536 17.6464C23.4473 17.7402 23.5 17.8674 23.5 18C23.5 18.1326 23.4473 18.2598 23.3536 18.3536L20.3536 21.3536C20.1583 21.5488 19.8417 21.5488 19.6464 21.3536C19.4512 21.1583 19.4512 20.8417 19.6464 20.6464L21.7929 18.5H16C15.7239 18.5 15.5 18.2761 15.5 18Z" fill="#000"/>
</svg>
