<svg width="24" height="24" viewBox="0 0 24 24" fill="none" xmlns="http://www.w3.org/2000/svg">
<path fill-rule="evenodd" clip-rule="evenodd" d="M18.9916 12.4081C18.9755 12.0933 18.885 11.7811 18.7195 11.4988L13.2894 2.23833C12.7099 1.24998 11.281 1.24998 10.7015 2.23833L5.27143 11.4988C4.8859 12.1563 4.90758 12.9757 5.32734 13.6119L10.7434 21.8204C11.3363 22.719 12.6546 22.719 13.2475 21.8204L18.6636 13.6119C18.8694 13.2999 18.9795 12.9438 18.9928 12.5844C19.0027 12.5265 19.0026 12.4668 18.9916 12.4081ZM12.4268 2.74416C12.2336 2.41471 11.7573 2.41471 11.5641 2.74416L6.13407 12.0046C6.08989 12.08 6.0564 12.1596 6.03356 12.2413L11.7379 15.7517C11.8986 15.8506 12.1013 15.8506 12.262 15.7517L17.9587 12.2461C17.9358 12.1627 17.9019 12.0814 17.8568 12.0046L12.4268 2.74416ZM17.3412 13.8002L12.7861 16.6034C12.6947 16.6596 12.5987 16.7052 12.5 16.7402V21.1376L17.3412 13.8002ZM11.5 16.7402C11.4012 16.7052 11.3053 16.6596 11.2138 16.6034L6.64348 13.7909L11.5 21.1513V16.7402Z" fill="#000"/>
</svg>
