<svg width="24" height="24" viewBox="0 0 24 24" fill="none" xmlns="http://www.w3.org/2000/svg">
<path fill-rule="evenodd" clip-rule="evenodd" d="M12.8225 6.57133L15.791 11.4912C16.0923 11.9906 16.0768 12.6195 15.7511 13.1035L12.8014 17.4875L12.7946 17.4968C12.4037 18.0237 11.5757 18.0982 11.1843 17.4695L8.24703 13.1037C7.92131 12.6195 7.90591 11.9904 8.20755 11.4909L11.1785 6.57137C11.3554 6.27152 11.6597 6.0833 12.0004 6.08325C12.3411 6.08321 12.6455 6.27142 12.8225 6.57133ZM9.07283 11.9925L12.0005 7.14461L14.9255 11.9924L11.9991 13.6647L9.07283 11.9925ZM14.2642 13.522L12.4952 14.5329C12.1878 14.7086 11.8104 14.7086 11.5029 14.5329L9.73368 13.5219L11.9989 16.8889L14.2642 13.522Z" fill="#000"/>
<path fill-rule="evenodd" clip-rule="evenodd" d="M0.5 12C0.5 5.64873 5.64873 0.5 12 0.5C18.3513 0.5 23.5 5.64873 23.5 12C23.5 18.3513 18.3513 23.5 12 23.5C5.64873 23.5 0.5 18.3513 0.5 12ZM12 1.5C6.20101 1.5 1.5 6.20101 1.5 12C1.5 17.799 6.20101 22.5 12 22.5C17.799 22.5 22.5 17.799 22.5 12C22.5 6.20101 17.799 1.5 12 1.5Z" fill="#000"/>
</svg>
