<svg width="24" height="24" viewBox="0 0 24 24" fill="none" xmlns="http://www.w3.org/2000/svg">
<path d="M11.4595 2.33191C13.1153 1.52019 14.9455 1.29488 16.7167 1.68948C18.4866 2.08382 20.1054 3.0764 21.3752 4.52794C21.557 4.73578 21.5359 5.05166 21.3281 5.23348C21.1203 5.4153 20.8044 5.3942 20.6226 5.18637C19.4812 3.88171 18.045 3.00994 16.4992 2.66555C14.9546 2.32142 13.356 2.51589 11.8997 3.22982C10.4418 3.94455 9.18471 5.15196 8.29559 6.713C7.97486 7.27611 7.70768 7.8754 7.49714 8.50001L14.9989 8.50001C15.275 8.50001 15.4989 8.72387 15.4989 9.00001C15.4989 9.27615 15.275 9.50001 14.9989 9.50001L7.21356 9.50001C7.02566 10.3097 6.9287 11.1501 6.9287 12C6.9287 12.8499 7.02566 13.6903 7.21356 14.5H14.9989C15.275 14.5 15.4989 14.7239 15.4989 15C15.4989 15.2761 15.275 15.5 14.9989 15.5H7.49714C7.70768 16.1246 7.97486 16.7239 8.29559 17.287C9.18471 18.8481 10.4418 20.0555 11.8997 20.7702C13.356 21.4841 14.9546 21.6786 16.4992 21.3345C18.045 20.9901 19.4812 20.1183 20.6226 18.8136C20.8044 18.6058 21.1203 18.5847 21.3281 18.7665C21.5359 18.9484 21.557 19.2642 21.3752 19.4721C20.1054 20.9236 18.4866 21.9162 16.7167 22.3105C14.9455 22.7051 13.1153 22.4798 11.4595 21.6681C9.8054 20.8572 8.40578 19.501 7.42665 17.7819C7.01886 17.066 6.69088 16.2993 6.44698 15.5H3C2.72386 15.5 2.5 15.2761 2.5 15C2.5 14.7239 2.72386 14.5 3 14.5H6.18931C6.01695 13.6854 5.9287 12.8462 5.9287 12C5.9287 11.1539 6.01695 10.3146 6.18931 9.50001H3C2.72386 9.50001 2.5 9.27615 2.5 9.00001C2.5 8.72386 2.72386 8.50001 3 8.50001L6.44698 8.50001C6.69088 7.70075 7.01886 6.93405 7.42665 6.21808C8.40578 4.49901 9.8054 3.14282 11.4595 2.33191Z" fill="#000"/>
</svg>
