<svg width="24" height="24" viewBox="0 0 24 24" fill="none" xmlns="http://www.w3.org/2000/svg">
<path d="M11.125 17.5C11.125 17.0168 11.5168 16.625 12 16.625C12.4833 16.625 12.8751 17.0168 12.8751 17.5C12.8751 17.9832 12.4834 18.375 12.0001 18.375C11.5169 18.375 11.125 17.9832 11.125 17.5Z" fill="#000"/>
<path d="M11.5 8L11.5 14C11.5 14.2761 11.7239 14.5 12 14.5C12.2762 14.5 12.5 14.2761 12.5 14L12.5 8C12.5 7.72386 12.2762 7.5 12 7.5C11.7239 7.5 11.5 7.72386 11.5 8Z" fill="#000"/>
<path fill-rule="evenodd" clip-rule="evenodd" d="M9.39558 4.0035C10.5503 1.99883 13.4498 1.99884 14.6045 4.0035L22.0971 17.0117C23.2489 19.0113 21.7993 21.5 19.4926 21.5H4.50742C2.20073 21.5 0.751208 19.0113 1.90296 17.0117L9.39558 4.0035ZM13.7379 4.50262C12.9679 3.16579 11.0321 3.16579 10.2621 4.50262L2.7695 17.5108C2.00442 18.8391 2.9647 20.5 4.50742 20.5H19.4926C21.0354 20.5 21.9956 18.8391 21.2306 17.5108L13.7379 4.50262Z" fill="#000"/>
</svg>
