<svg width="24" height="24" viewBox="0 0 24 24" fill="none" xmlns="http://www.w3.org/2000/svg">
<path d="M3.08073 3L7.5 3C7.77614 3 8 3.22386 8 3.5C8 3.77614 7.77614 4 7.5 4H3.1C2.81172 4 2.62559 4.00039 2.48392 4.01196C2.34809 4.02306 2.29773 4.0419 2.27301 4.0545C2.17892 4.10243 2.10243 4.17892 2.0545 4.27301C2.0419 4.29773 2.02306 4.34809 2.01196 4.48392C2.00039 4.62559 2 4.81172 2 5.1V9.5C2 9.77614 1.77614 10 1.5 10C1.22386 10 1 9.77614 1 9.5L1 5.08073C0.999991 4.81715 0.999984 4.58977 1.01529 4.40249C1.03144 4.20481 1.06709 4.0082 1.16349 3.81902C1.3073 3.53677 1.53677 3.3073 1.81902 3.16349C2.0082 3.06709 2.20481 3.03144 2.40249 3.01529C2.58977 2.99998 2.81715 2.99999 3.08073 3Z" fill="#000"/>
<path d="M21.5161 4.01196C21.3744 4.00039 21.1883 4 20.9 4H16.5C16.2239 4 16 3.77614 16 3.5C16 3.22386 16.2239 3 16.5 3L20.9193 3C21.1828 2.99999 21.4102 2.99998 21.5975 3.01529C21.7952 3.03144 21.9918 3.06709 22.181 3.16349C22.4632 3.3073 22.6927 3.53677 22.8365 3.81902C22.9329 4.0082 22.9686 4.20481 22.9847 4.40249C23 4.58977 23 4.81715 23 5.08072V9.5C23 9.77614 22.7761 10 22.5 10C22.2239 10 22 9.77614 22 9.5V5.1C22 4.81172 21.9996 4.62559 21.988 4.48392C21.9769 4.34809 21.9581 4.29773 21.9455 4.27301C21.8976 4.17892 21.8211 4.10243 21.727 4.0545C21.7023 4.0419 21.6519 4.02306 21.5161 4.01196Z" fill="#000"/>
<path d="M1.5 14C1.77614 14 2 14.2239 2 14.5V18.9C2 19.1883 2.00039 19.3744 2.01196 19.5161C2.02306 19.6519 2.0419 19.7023 2.0545 19.727C2.10243 19.8211 2.17892 19.8976 2.27301 19.9455C2.29773 19.9581 2.34809 19.9769 2.48392 19.988C2.62559 19.9996 2.81172 20 3.1 20H7.5C7.77614 20 8 20.2239 8 20.5C8 20.7761 7.77614 21 7.5 21H3.08072C2.81715 21 2.58977 21 2.40249 20.9847C2.20481 20.9686 2.0082 20.9329 1.81902 20.8365C1.53677 20.6927 1.3073 20.4632 1.16349 20.181C1.06709 19.9918 1.03144 19.7952 1.01529 19.5975C0.999984 19.4102 0.999991 19.1828 1 18.9193L1 14.5C1 14.2239 1.22386 14 1.5 14Z" fill="#000"/>
<path d="M22.5 14C22.7761 14 23 14.2239 23 14.5V18.9193C23 19.1829 23 19.4102 22.9847 19.5975C22.9686 19.7952 22.9329 19.9918 22.8365 20.181C22.6927 20.4632 22.4632 20.6927 22.181 20.8365C21.9918 20.9329 21.7952 20.9686 21.5975 20.9847C21.4102 21 21.1829 21 20.9193 21H16.5C16.2239 21 16 20.7761 16 20.5C16 20.2239 16.2239 20 16.5 20H20.9C21.1883 20 21.3744 19.9996 21.5161 19.988C21.6519 19.9769 21.7023 19.9581 21.727 19.9455C21.8211 19.8976 21.8976 19.8211 21.9455 19.727C21.9581 19.7023 21.9769 19.6519 21.988 19.5161C21.9996 19.3744 22 19.1883 22 18.9V14.5C22 14.2239 22.2239 14 22.5 14Z" fill="#000"/>
</svg>
