<svg width="24" height="24" viewBox="0 0 24 24" fill="none" xmlns="http://www.w3.org/2000/svg">
<path fill-rule="evenodd" clip-rule="evenodd" d="M2.35355 1.64645C2.15829 1.45118 1.84171 1.45118 1.64645 1.64645C1.45118 1.84171 1.45118 2.15829 1.64645 2.35355L5.18184 5.88895C3.68236 7.10209 2.45366 8.77273 1.69268 10.8917C1.43577 11.607 1.43577 12.3929 1.69268 13.1083C4.33299 20.4601 12.5363 22.3269 18.002 18.7091L21.6464 22.3536C21.8417 22.5488 22.1583 22.5488 22.3536 22.3536C22.5488 22.1583 22.5488 21.8417 22.3536 21.6464L18.4208 17.7137C18.4163 17.709 18.4117 17.7044 18.4071 17.7L14.8326 14.1255L14.8295 14.1223L14.8263 14.1192L9.88076 9.17366L9.87765 9.17051L9.8745 9.16739L6.29915 5.59205C6.29465 5.58737 6.29008 5.58279 6.28543 5.57832L2.35355 1.64645ZM5.89329 6.6004C4.50048 7.70214 3.34767 9.24198 2.63382 11.2297C2.45539 11.7265 2.45539 12.2734 2.63382 12.7703C5.00982 19.3862 12.3132 21.125 17.2789 17.986L14.4538 15.1609C13.7766 15.6868 12.9249 16 12 16C9.7881 16 8 14.2119 8 12C8 11.075 8.31316 10.2233 8.8391 9.54621L5.89329 6.6004ZM9.55362 10.2607C9.20476 10.7509 9 11.3506 9 12C9 13.6596 10.3404 15 12 15C12.6493 15 13.249 14.7952 13.7392 14.4463L9.55362 10.2607Z" fill="#000"/>
<path d="M8.73665 5.04581C13.4869 3.40357 19.2948 5.46209 21.3662 11.2297C21.5446 11.7265 21.5446 12.2734 21.3662 12.7703C20.9495 13.9305 20.3837 14.9369 19.7093 15.7923C19.5383 16.0091 19.5755 16.3235 19.7923 16.4945C20.0092 16.6655 20.3236 16.6283 20.4945 16.4115C21.2374 15.4692 21.8551 14.3673 22.3073 13.1083C22.5642 12.3929 22.5642 11.607 22.3073 10.8917C20.0343 4.56244 13.63 2.29602 8.40991 4.1007C8.14892 4.19092 8.0105 4.47564 8.10072 4.73662C8.19095 4.99761 8.47567 5.13604 8.73665 5.04581Z" fill="#000"/>
<path d="M12.6179 8.04731C12.345 8.00509 12.0896 8.19209 12.0473 8.46498C12.0051 8.73788 12.1921 8.99333 12.465 9.03555C13.751 9.23452 14.7654 10.249 14.9644 11.535C15.0066 11.8079 15.2621 11.9949 15.535 11.9526C15.8079 11.9104 15.9949 11.655 15.9527 11.3821C15.687 9.66531 14.3347 8.31292 12.6179 8.04731Z" fill="#000"/>
</svg>
