<svg width="24" height="24" viewBox="0 0 24 24" fill="none" xmlns="http://www.w3.org/2000/svg">
<path fill-rule="evenodd" clip-rule="evenodd" d="M12 8C9.7881 8 8 9.7881 8 12C8 14.2119 9.7881 16 12 16C14.2119 16 16 14.2119 16 12C16 9.7881 14.2119 8 12 8ZM9 12C9 10.3404 10.3404 9 12 9C13.6596 9 15 10.3404 15 12C15 13.6596 13.6596 15 12 15C10.3404 15 9 13.6596 9 12Z" fill="#000"/>
<path fill-rule="evenodd" clip-rule="evenodd" d="M22.3073 10.8917C18.7678 1.0361 5.23217 1.0361 1.69268 10.8917C1.43577 11.607 1.43577 12.393 1.69268 13.1083C5.23217 22.9639 18.7678 22.9639 22.3073 13.1083C22.5642 12.393 22.5642 11.607 22.3073 10.8917ZM2.63382 11.2297C5.85632 2.25677 18.1437 2.25677 21.3662 11.2297C21.5446 11.7265 21.5446 12.2735 21.3662 12.7703C18.1437 21.7432 5.85632 21.7432 2.63382 12.7703C2.45539 12.2735 2.45539 11.7265 2.63382 11.2297Z" fill="#000"/>
</svg>
