<svg width="24" height="24" viewBox="0 0 24 24" fill="none" xmlns="http://www.w3.org/2000/svg">
<g clip-path="url(#clip0_9002_7438)">
<path d="M16.3997 15.3003C16.5656 15.0796 16.5211 14.7661 16.3003 14.6003C16.0796 14.4344 15.7661 14.4789 15.6003 14.6997C14.7784 15.7935 13.4717 16.4995 12 16.4995C10.5283 16.4995 9.2216 15.7935 8.39975 14.6997C8.23387 14.4789 7.92044 14.4344 7.69966 14.6003C7.47889 14.7661 7.43438 15.0796 7.60025 15.3003C8.60286 16.6348 10.2005 17.4995 12 17.4995C13.7995 17.4995 15.3971 16.6348 16.3997 15.3003Z" fill="#000"/>
<path d="M8.19923 8.56929C8.31629 8.33517 8.57051 8 9 8C9.42949 8 9.68371 8.33517 9.80077 8.56929C9.93278 8.83331 10 9.16307 10 9.5C10 9.83693 9.93278 10.1667 9.80077 10.4307C9.68371 10.6648 9.42949 11 9 11C8.57051 11 8.31629 10.6648 8.19923 10.4307C8.06722 10.1667 8 9.83693 8 9.5C8 9.16307 8.06722 8.83331 8.19923 8.56929Z" fill="#000"/>
<path d="M15 8C14.5705 8 14.3163 8.33517 14.1992 8.56929C14.0672 8.83331 14 9.16307 14 9.5C14 9.83693 14.0672 10.1667 14.1992 10.4307C14.3163 10.6648 14.5705 11 15 11C15.4295 11 15.6837 10.6648 15.8008 10.4307C15.9328 10.1667 16 9.83693 16 9.5C16 9.16307 15.9328 8.83331 15.8008 8.56929C15.6837 8.33517 15.4295 8 15 8Z" fill="#000"/>
<path fill-rule="evenodd" clip-rule="evenodd" d="M12 0.5C5.64873 0.5 0.5 5.64873 0.5 12C0.5 18.3513 5.64873 23.5 12 23.5C18.3513 23.5 23.5 18.3513 23.5 12C23.5 5.64873 18.3513 0.5 12 0.5ZM1.5 12C1.5 6.20101 6.20101 1.5 12 1.5C17.799 1.5 22.5 6.20101 22.5 12C22.5 17.799 17.799 22.5 12 22.5C6.20101 22.5 1.5 17.799 1.5 12Z" fill="#000"/>
</g>
<defs>
<clipPath id="clip0_9002_7438">
<rect width="24" height="24" fill="white"/>
</clipPath>
</defs>
</svg>
