<svg width="24" height="24" viewBox="0 0 24 24" fill="none" xmlns="http://www.w3.org/2000/svg">
<path d="M7.5 13.0001C7.5 13.2762 7.72386 13.5001 8 13.5001H16C16.2761 13.5001 16.5 13.2762 16.5 13.0001C16.5 12.7239 16.2761 12.5001 16 12.5001H8C7.72386 12.5001 7.5 12.7239 7.5 13.0001Z" fill="#000"/>
<path d="M8 17.5001C7.72386 17.5001 7.5 17.2762 7.5 17.0001C7.5 16.7239 7.72386 16.5001 8 16.5001H12C12.2761 16.5001 12.5 16.7239 12.5 17.0001C12.5 17.2762 12.2761 17.5001 12 17.5001H8Z" fill="#000"/>
<path fill-rule="evenodd" clip-rule="evenodd" d="M13.5956 1.55529C13.3642 1.49975 13.1243 1.49986 12.8068 1.50002L8.77779 1.50003C7.95661 1.50003 7.30951 1.50003 6.78889 1.54256C6.25771 1.58596 5.81413 1.67612 5.41103 1.88151C4.75247 2.21707 4.21703 2.7525 3.88148 3.41106C3.67609 3.81417 3.58593 4.25774 3.54253 4.78892C3.49999 5.30958 3.5 5.95654 3.5 6.77781V17.2222C3.5 18.0435 3.49999 18.6905 3.54253 19.2111C3.58593 19.7423 3.67609 20.1859 3.88148 20.589C4.21703 21.2476 4.75247 21.783 5.41103 22.1186C5.81413 22.3239 6.25771 22.4141 6.78889 22.4575C7.30954 22.5 7.95651 22.5 8.77778 22.5H15.2222C16.0435 22.5 16.6905 22.5 17.2111 22.4575C17.7423 22.4141 18.1859 22.3239 18.589 22.1186C19.2475 21.783 19.783 21.2476 20.1185 20.589C20.3239 20.1859 20.4141 19.7423 20.4575 19.2111C20.5 18.6905 20.5 18.0435 20.5 17.2222L20.5 9.1932C20.5002 8.8757 20.5003 8.63581 20.4447 8.40446C20.3957 8.20039 20.3149 8.0053 20.2053 7.82635C20.081 7.62349 19.9113 7.45394 19.6866 7.22954L14.7705 2.31339C14.5461 2.08878 14.3765 1.91906 14.1737 1.79475C13.9947 1.68509 13.7996 1.60428 13.5956 1.55529ZM13 2.5009C12.933 2.50023 12.853 2.50003 12.7559 2.50003H8.8C7.95167 2.50003 7.34549 2.50042 6.87032 2.53924C6.40099 2.57759 6.10366 2.65092 5.86502 2.77252C5.39462 3.0122 5.01217 3.39465 4.77248 3.86506C4.65089 4.10369 4.57756 4.40102 4.53921 4.87035C4.50039 5.34553 4.5 5.9517 4.5 6.80003V17.2C4.5 18.0484 4.50039 18.6545 4.53921 19.1297C4.57756 19.599 4.65089 19.8964 4.77248 20.135C5.01217 20.6054 5.39462 20.9879 5.86502 21.2275C6.10366 21.3491 6.40099 21.4225 6.87032 21.4608C7.34549 21.4996 7.95167 21.5 8.8 21.5H15.2C16.0483 21.5 16.6545 21.4996 17.1297 21.4608C17.599 21.4225 17.8963 21.3491 18.135 21.2275C18.6054 20.9879 18.9878 20.6054 19.2275 20.135C19.3491 19.8964 19.4224 19.599 19.4608 19.1297C19.4996 18.6545 19.5 18.0484 19.5 17.2V9.24414C19.5 9.14703 19.4998 9.06703 19.4991 9.00006H15.5C14.1193 9.00006 13 7.88077 13 6.50006V2.5009ZM19.0426 8.00006L18.9435 7.90064L14.0994 3.05653L14 2.95743V6.50006C14 7.32849 14.6716 8.00006 15.5 8.00006H19.0426Z" fill="#000"/>
</svg>
