<svg width="24" height="24" viewBox="0 0 24 24" fill="none" xmlns="http://www.w3.org/2000/svg">
<path fill-rule="evenodd" clip-rule="evenodd" d="M10.7559 2.50003C10.853 2.50003 10.933 2.50023 11 2.5009V6.50006C11 7.88077 12.1193 9.00006 13.5 9.00006H17.4991C17.4998 9.06703 17.5 9.14703 17.5 9.24414V13C17.5 13.2762 17.7239 13.5 18 13.5C18.2761 13.5 18.5 13.2762 18.5 13L18.5 9.1932C18.5002 8.8757 18.5003 8.63581 18.4447 8.40446C18.3957 8.20039 18.3149 8.0053 18.2053 7.82635C18.081 7.62349 17.9112 7.45393 17.6866 7.22953L12.7705 2.31338C12.5461 2.08878 12.3765 1.91906 12.1737 1.79475C11.9947 1.68509 11.7996 1.60429 11.5956 1.55529C11.3642 1.49975 11.1243 1.49986 10.8068 1.50002L6.77779 1.50003C5.95652 1.50003 5.30954 1.50003 4.78889 1.54256C4.25771 1.58596 3.81414 1.67612 3.41103 1.88151C2.75247 2.21707 2.21703 2.7525 1.88148 3.41106C1.67609 3.81417 1.58593 4.25774 1.54253 4.78892C1.49999 5.30957 1.5 5.95655 1.5 6.77781V17.2222C1.5 18.0435 1.49999 18.6905 1.54253 19.2111C1.58593 19.7423 1.67609 20.1859 1.88148 20.589C2.21703 21.2476 2.75247 21.783 3.41103 22.1186C3.78956 22.3114 4.20335 22.4025 4.69166 22.4489C5.17421 22.4948 5.76343 22.4994 6.49961 22.5C6.77575 22.5002 6.99978 22.2765 7 22.0003C7.00022 21.7242 6.77653 21.5002 6.50039 21.5C5.75405 21.4994 5.21346 21.494 4.78624 21.4534C4.36478 21.4134 4.08884 21.3416 3.86502 21.2275C3.39462 20.9879 3.01217 20.6054 2.77248 20.135C2.65089 19.8964 2.57756 19.599 2.53921 19.1297C2.50039 18.6545 2.5 18.0484 2.5 17.2V6.80003C2.5 5.9517 2.50039 5.34553 2.53921 4.87035C2.57756 4.40102 2.65089 4.10369 2.77248 3.86506C3.01217 3.39465 3.39462 3.0122 3.86502 2.77252C4.10366 2.65093 4.40099 2.57759 4.87032 2.53924C5.34549 2.50042 5.95167 2.50003 6.8 2.50003H10.7559ZM16.9435 7.90064L17.0426 8.00006H13.5C12.6716 8.00006 12 7.32849 12 6.50006V2.95743L12.0994 3.05653L16.9435 7.90064ZM12.0994 3.05653C12.0933 3.05042 12.0873 3.04416 12.0816 3.03775L12.4529 2.70296L12.0994 3.05653Z" fill="#000"/>
<path d="M9.5 15.5001C9.22386 15.5001 9 15.7239 9 16.0001C9 16.2762 9.22386 16.5001 9.5 16.5001H12.1295L9.06811 21.7481C8.9779 21.9028 8.97726 22.0938 9.06643 22.2491C9.1556 22.4043 9.32097 22.5001 9.5 22.5001H13C13.2761 22.5001 13.5 22.2762 13.5 22.0001C13.5 21.7239 13.2761 21.5001 13 21.5001H10.3705L13.4319 16.252C13.5221 16.0974 13.5227 15.9063 13.4336 15.751C13.3444 15.5958 13.179 15.5001 13 15.5001H9.5Z" fill="#000"/>
<path d="M15.5 15.5001C15.7761 15.5001 16 15.7239 16 16.0001V22.0001C16 22.2762 15.7761 22.5001 15.5 22.5001C15.2239 22.5001 15 22.2762 15 22.0001V16.0001C15 15.7239 15.2239 15.5001 15.5 15.5001Z" fill="#000"/>
<path fill-rule="evenodd" clip-rule="evenodd" d="M18.5 15.5001C18.2239 15.5001 18 15.7239 18 16.0001V22.0001C18 22.2762 18.2239 22.5001 18.5 22.5001C18.7761 22.5001 19 22.2762 19 22.0001V20.0001H20.25C21.4926 20.0001 22.5 18.9927 22.5 17.7501C22.5 16.5074 21.4926 15.5001 20.25 15.5001H18.5ZM20.25 19.0001H19V16.5001H20.25C20.9404 16.5001 21.5 17.0597 21.5 17.7501C21.5 18.4404 20.9404 19.0001 20.25 19.0001Z" fill="#000"/>
</svg>
