<svg width="24" height="24" viewBox="0 0 24 24" fill="none" xmlns="http://www.w3.org/2000/svg">
<path fill-rule="evenodd" clip-rule="evenodd" d="M4.5 2C4.5 1.72386 4.27614 1.5 4 1.5C3.72386 1.5 3.5 1.72386 3.5 2V22C3.5 22.2761 3.72386 22.5 4 22.5C4.27614 22.5 4.5 22.2761 4.5 22V15.5H19.4945C20.2771 15.5 20.7564 14.6415 20.3458 13.9753L17.7491 9.76235C17.6499 9.6015 17.6499 9.3985 17.7491 9.23765L20.3458 5.0247C20.7564 4.35845 20.2771 3.5 19.4945 3.5H4.5V2ZM4.5 4.5V14.5H19.4945L16.8978 10.2871C16.6003 9.8045 16.6003 9.1955 16.8978 8.71295L19.4945 4.5H4.5Z" fill="#000"/>
</svg>
