<svg width="24" height="24" viewBox="0 0 24 24" fill="none" xmlns="http://www.w3.org/2000/svg">
<path fill-rule="evenodd" clip-rule="evenodd" d="M15.5 8.7889V2.5H16.5C16.7761 2.5 17 2.27614 17 2C17 1.72386 16.7761 1.5 16.5 1.5H7.5C7.22386 1.5 7 1.72386 7 2C7 2.27614 7.22386 2.5 7.5 2.5H8.5V8.7889C8.5 9.25627 8.49822 9.42993 8.46896 9.59404C8.44142 9.74858 8.39577 9.89935 8.33296 10.0432C8.26627 10.196 8.17143 10.3415 7.91218 10.7303L2.97073 18.1425C2.66379 18.6029 2.5 19.1439 2.5 19.6972C2.5 21.2452 3.75485 22.5 5.30278 22.5H18.6972C20.2452 22.5 21.5 21.2452 21.5 19.6972C21.5 19.1439 21.3362 18.6029 21.0293 18.1425L16.0878 10.7303C15.8286 10.3415 15.7337 10.196 15.667 10.0432C15.6042 9.89935 15.5586 9.74858 15.531 9.59404C15.5018 9.42993 15.5 9.25627 15.5 8.7889ZM9.5 2.5L9.5 8.83353C9.50006 9.24108 9.5001 9.50778 9.45344 9.76952C9.41212 10.0013 9.34365 10.2275 9.24944 10.4433C9.14308 10.687 8.99511 10.9088 8.769 11.2479L7.26759 13.5H16.7324L15.231 11.2479C15.0049 10.9088 14.8569 10.687 14.7506 10.4433C14.6563 10.2275 14.5879 10.0013 14.5466 9.76952C14.4999 9.50778 14.4999 9.24109 14.5 8.83354L14.5 2.5H9.5ZM17.3991 14.5H6.60093L3.80278 18.6972C3.60535 18.9934 3.5 19.3413 3.5 19.6972C3.5 20.6929 4.30713 21.5 5.30278 21.5H18.6972C19.6929 21.5 20.5 20.6929 20.5 19.6972C20.5 19.3413 20.3946 18.9934 20.1972 18.6972L17.3991 14.5Z" fill="#000"/>
</svg>
