<svg width="24" height="24" viewBox="0 0 24 24" fill="none" xmlns="http://www.w3.org/2000/svg">
<path fill-rule="evenodd" clip-rule="evenodd" d="M11.5 16.5001H7.47811C6.79661 16.5001 6.25457 16.5001 5.81729 16.4643C5.36949 16.4278 4.98765 16.3512 4.63803 16.1731C4.07354 15.8855 3.6146 15.4265 3.32698 14.862C3.14884 14.5124 3.07231 14.1306 3.03572 13.6828C2.99999 13.2455 3 12.7035 3 12.0219V5.97818C3 5.29666 2.99999 4.75464 3.03572 4.31735C3.07231 3.86955 3.14884 3.48771 3.32698 3.13809C3.6146 2.5736 4.07354 2.11466 4.63803 1.82704C4.98765 1.6489 5.36949 1.57237 5.81729 1.53578C6.25458 1.50005 6.7966 1.50006 7.47812 1.50006L9.81036 1.50003C10.0352 1.4998 10.2334 1.4996 10.4237 1.54996C10.5908 1.59417 10.7491 1.66694 10.8914 1.76505C11.0535 1.87679 11.1823 2.02738 11.3285 2.19826L11.9007 2.86593C12.0941 3.0916 12.1351 3.13346 12.1762 3.16173C12.2236 3.19444 12.2763 3.21869 12.332 3.23343C12.3802 3.24617 12.4387 3.25006 12.7359 3.25006H16.5219C17.2034 3.25006 17.7454 3.25005 18.1827 3.28578C18.6305 3.32237 19.0123 3.3989 19.362 3.57704C19.9265 3.86466 20.3854 4.3236 20.673 4.88809C20.8512 5.23771 20.9277 5.61955 20.9643 6.06735C21 6.50463 21 7.04663 21 7.72813V12.022C21 12.7034 21 13.2455 20.9643 13.6828C20.9277 14.1306 20.8512 14.5124 20.673 14.862C20.3854 15.4265 19.9265 15.8855 19.362 16.1731C19.0123 16.3512 18.6305 16.4278 18.1827 16.4643C17.7454 16.5001 17.2034 16.5001 16.5219 16.5001H12.5V19.563C13.2028 19.7439 13.7561 20.2972 13.937 21H19C19.2761 21 19.5 21.2239 19.5 21.5C19.5 21.7761 19.2761 22 19 22H13.937C13.715 22.8626 12.9319 23.5 12 23.5C11.0681 23.5 10.285 22.8626 10.063 22H5C4.72386 22 4.5 21.7761 4.5 21.5C4.5 21.2239 4.72386 21 5 21H10.063C10.2439 20.2972 10.7972 19.7439 11.5 19.563V16.5001ZM9.7641 2.50006C10.0613 2.50006 10.1198 2.50395 10.168 2.51669C10.2237 2.53143 10.2764 2.55569 10.3238 2.58839C10.3649 2.61667 10.4059 2.65852 10.5993 2.88419L11.1715 3.55187C11.3177 3.72274 11.4465 3.87333 11.6086 3.98508C11.7509 4.08318 11.9092 4.15595 12.0763 4.20017C12.2666 4.25053 12.4648 4.25032 12.6896 4.25009L16.5 4.25006C17.2083 4.25006 17.7095 4.25045 18.1013 4.28246C18.4872 4.314 18.7228 4.37371 18.908 4.46805C19.2843 4.6598 19.5903 4.96576 19.782 5.34208C19.8764 5.52724 19.9361 5.76282 19.9676 6.14878C19.9996 6.54058 20 7.04175 20 7.75006V12.0001C20 12.7084 19.9996 13.2095 19.9676 13.6013C19.9361 13.9873 19.8764 14.2229 19.782 14.408C19.5903 14.7844 19.2843 15.0903 18.908 15.2821C18.7228 15.3764 18.4872 15.4361 18.1013 15.4677C17.7095 15.4997 17.2083 15.5001 16.5 15.5001H12.008C12.0053 15.5 12.0027 15.5 12 15.5C11.9973 15.5 11.9947 15.5 11.992 15.5001H7.5C6.79168 15.5001 6.29052 15.4997 5.89872 15.4677C5.51276 15.4361 5.27717 15.3764 5.09202 15.2821C4.71569 15.0903 4.40973 14.7844 4.21799 14.408C4.12365 14.2229 4.06393 13.9873 4.0324 13.6013C4.00039 13.2095 4 12.7084 4 12.0001V6.00006C4 5.29175 4.00039 4.79058 4.0324 4.39878C4.06393 4.01282 4.12365 3.77724 4.21799 3.59208C4.40973 3.21576 4.71569 2.9098 5.09202 2.71805C5.27717 2.62371 5.51276 2.564 5.89872 2.53246C6.29052 2.50045 6.79168 2.50006 7.5 2.50006H9.7641ZM12 20.5C12.5523 20.5 13 20.9477 13 21.5C13 22.0523 12.5523 22.5 12 22.5C11.4477 22.5 11 22.0523 11 21.5C11 20.9477 11.4477 20.5 12 20.5Z" fill="#000"/>
</svg>
