<svg width="24" height="24" viewBox="0 0 24 24" fill="none" xmlns="http://www.w3.org/2000/svg">
<path fill-rule="evenodd" clip-rule="evenodd" d="M8.55683 3.00002C8.87433 2.99986 9.11422 2.99975 9.34557 3.05529C9.54964 3.10429 9.74473 3.18509 9.92368 3.29475C10.1265 3.41907 10.2961 3.58878 10.5205 3.81339C10.5323 3.82525 10.5443 3.83726 10.5565 3.84942L11.1506 4.44353C11.4269 4.71979 11.5096 4.79802 11.5988 4.85267C11.6883 4.9075 11.7858 4.9479 11.8879 4.9724C11.9896 4.99682 12.1034 5.00003 12.4941 5.00003H17.6221C18.3734 5.00003 18.9679 5.00002 19.4469 5.03916C19.9364 5.07915 20.3491 5.16249 20.7255 5.35426C21.337 5.66585 21.8342 6.16304 22.1458 6.77456C22.3375 7.15092 22.4209 7.56363 22.4609 8.05312C22.5 8.53209 22.5 9.12658 22.5 9.87796V16.1221C22.5 16.8735 22.5 17.468 22.4609 17.9469C22.4209 18.4364 22.3375 18.8491 22.1458 19.2255C21.8342 19.837 21.337 20.3342 20.7255 20.6458C20.3491 20.8376 19.9364 20.9209 19.4469 20.9609C18.9679 21 18.3735 21 17.6221 21H6.37793C5.62655 21 5.03206 21 4.55309 20.9609C4.0636 20.9209 3.65089 20.8376 3.27453 20.6458C2.663 20.3342 2.16582 19.837 1.85423 19.2255C1.66246 18.8491 1.57912 18.4364 1.53913 17.9469C1.49999 17.468 1.5 16.8735 1.5 16.1221V7.87798C1.5 7.12659 1.49999 6.5321 1.53913 6.05312C1.57912 5.56363 1.66246 5.15093 1.85423 4.77456C2.16582 4.16304 2.663 3.66585 3.27453 3.35426C3.65089 3.16249 4.0636 3.07915 4.55309 3.03916C5.03206 3.00002 5.62656 3.00003 6.37794 3.00003L8.50589 3.00003C8.52309 3.00003 8.54007 3.00002 8.55683 3.00002ZM9.11212 4.02766C9.01042 4.00324 8.89657 4.00003 8.50589 4.00003H6.4C5.62168 4.00003 5.06801 4.00042 4.63452 4.03584C4.20687 4.07078 3.94042 4.1373 3.72852 4.24527C3.30516 4.46098 2.96095 4.80519 2.74524 5.22855C2.63727 5.44045 2.57075 5.70691 2.53581 6.13455C2.50039 6.56804 2.5 7.12171 2.5 7.90003V16.1C2.5 16.8784 2.50039 17.432 2.53581 17.8655C2.57075 18.2932 2.63727 18.5596 2.74524 18.7715C2.96095 19.1949 3.30516 19.5391 3.72852 19.7548C3.94042 19.8628 4.20687 19.9293 4.63452 19.9642C5.06801 19.9996 5.62168 20 6.4 20H17.6C18.3783 20 18.932 19.9996 19.3655 19.9642C19.7931 19.9293 20.0596 19.8628 20.2715 19.7548C20.6948 19.5391 21.039 19.1949 21.2548 18.7715C21.3627 18.5596 21.4293 18.2932 21.4642 17.8655C21.4996 17.432 21.5 16.8784 21.5 16.1V9.90003C21.5 9.12171 21.4996 8.56804 21.4642 8.13455C21.4293 7.7069 21.3627 7.44045 21.2548 7.22855C21.039 6.80519 20.6948 6.46098 20.2715 6.24527C20.0596 6.1373 19.7931 6.07078 19.3655 6.03584C18.932 6.00042 18.3783 6.00003 17.6 6.00003H12.4941C12.4769 6.00003 12.4599 6.00004 12.4432 6.00005C12.1257 6.0002 11.8858 6.00031 11.6544 5.94477C11.4504 5.89578 11.2553 5.81497 11.0763 5.70531C10.8735 5.581 10.7039 5.41129 10.4795 5.18667C10.4677 5.17482 10.4557 5.16281 10.4435 5.15064L9.84939 4.55653C9.57313 4.28027 9.49036 4.20204 9.40118 4.14739C9.31171 4.09256 9.21416 4.05216 9.11212 4.02766Z" fill="#000"/>
</svg>
