<svg width="24" height="24" viewBox="0 0 24 24" fill="none" xmlns="http://www.w3.org/2000/svg">
<path d="M15.8536 11.1036C16.0488 10.9083 16.0488 10.5917 15.8536 10.3964C15.6583 10.2012 15.3417 10.2012 15.1464 10.3964L11 14.5429L8.85355 12.3964C8.65829 12.2012 8.34171 12.2012 8.14645 12.3964C7.95118 12.5917 7.95118 12.9083 8.14645 13.1036L10.6464 15.6036C10.8417 15.7988 11.1583 15.7988 11.3536 15.6036L15.8536 11.1036Z" fill="#000"/>
<path fill-rule="evenodd" clip-rule="evenodd" d="M9.34557 3.05529C9.11422 2.99975 8.87433 2.99986 8.55683 3.00002L6.37794 3.00003C5.62656 3.00003 5.03206 3.00002 4.55309 3.03916C4.0636 3.07915 3.65089 3.16249 3.27453 3.35426C2.663 3.66585 2.16582 4.16304 1.85423 4.77456C1.66246 5.15093 1.57912 5.56363 1.53913 6.05312C1.49999 6.53209 1.5 7.12658 1.5 7.87796V16.1221C1.5 16.8735 1.49999 17.468 1.53913 17.9469C1.57912 18.4364 1.66246 18.8491 1.85423 19.2255C2.16582 19.837 2.663 20.3342 3.27453 20.6458C3.65089 20.8376 4.0636 20.9209 4.55309 20.9609C5.03205 21 5.62653 21 6.37789 21H17.6221C18.3734 21 18.9679 21 19.4469 20.9609C19.9364 20.9209 20.3491 20.8376 20.7255 20.6458C21.337 20.3342 21.8342 19.837 22.1458 19.2255C22.3375 18.8491 22.4209 18.4364 22.4609 17.9469C22.5 17.468 22.5 16.8735 22.5 16.1221V9.87796C22.5 9.1266 22.5 8.53208 22.4609 8.05312C22.4209 7.56363 22.3375 7.15092 22.1458 6.77456C21.8342 6.16304 21.337 5.66585 20.7255 5.35426C20.3491 5.16249 19.9364 5.07915 19.4469 5.03916C18.9679 5.00002 18.3734 5.00003 17.6221 5.00003H12.4941C12.1034 5.00003 11.9896 4.99682 11.8879 4.9724C11.7858 4.9479 11.6883 4.9075 11.5988 4.85267C11.5096 4.79802 11.4269 4.71979 11.1506 4.44353L10.5205 3.81339C10.2961 3.58878 10.1265 3.41907 9.92368 3.29475C9.74473 3.18509 9.54964 3.10429 9.34557 3.05529ZM8.50589 4.00003C8.89657 4.00003 9.01042 4.00324 9.11212 4.02766C9.21416 4.05216 9.31171 4.09256 9.40118 4.14739C9.49036 4.20204 9.57313 4.28027 9.84939 4.55653L10.4795 5.18667C10.7039 5.41129 10.8735 5.581 11.0763 5.70531C11.2553 5.81497 11.4504 5.89578 11.6544 5.94477C11.8858 6.00031 12.1257 6.0002 12.4432 6.00005L17.6 6.00003C18.3783 6.00003 18.932 6.00042 19.3655 6.03584C19.7931 6.07078 20.0596 6.1373 20.2715 6.24527C20.6948 6.46098 21.039 6.80519 21.2548 7.22855C21.3627 7.44045 21.4293 7.7069 21.4642 8.13455C21.4996 8.56804 21.5 9.12171 21.5 9.90003V16.1C21.5 16.8784 21.4996 17.432 21.4642 17.8655C21.4293 18.2932 21.3627 18.5596 21.2548 18.7715C21.039 19.1949 20.6948 19.5391 20.2715 19.7548C20.0596 19.8628 19.7931 19.9293 19.3655 19.9642C18.932 19.9996 18.3783 20 17.6 20H6.4C5.62168 20 5.06801 19.9996 4.63452 19.9642C4.20687 19.9293 3.94042 19.8628 3.72852 19.7548C3.30516 19.5391 2.96095 19.1949 2.74524 18.7715C2.63727 18.5596 2.57075 18.2932 2.53581 17.8655C2.50039 17.432 2.5 16.8784 2.5 16.1V7.90003C2.5 7.12171 2.50039 6.56804 2.53581 6.13455C2.57075 5.70691 2.63727 5.44045 2.74524 5.22855C2.96095 4.80519 3.30516 4.46098 3.72852 4.24527C3.94042 4.1373 4.20687 4.07078 4.63452 4.03584C5.06801 4.00042 5.62168 4.00003 6.4 4.00003H8.50589Z" fill="#000"/>
</svg>
