<svg width="24" height="24" viewBox="0 0 24 24" fill="none" xmlns="http://www.w3.org/2000/svg">
<path d="M15.3041 9.62265C15.0849 9.45471 14.7711 9.49627 14.6031 9.71547C14.4352 9.93467 14.4767 10.2485 14.6959 10.4165C15.2992 10.8786 15.7857 11.4923 16.1008 12.2027C16.2127 12.4551 16.5081 12.569 16.7606 12.457C17.013 12.345 17.1268 12.0496 17.0149 11.7972C16.6318 10.9336 16.04 10.1865 15.3041 9.62265Z" fill="#000"/>
<path fill-rule="evenodd" clip-rule="evenodd" d="M14 4.5C14 4.92745 13.8659 5.32357 13.6375 5.64861C17.8262 6.41857 21 10.0886 21 14.5V16.5H21.2632C21.3683 16.5 21.4706 16.5 21.5576 16.5059C21.6528 16.5124 21.7657 16.5276 21.8827 16.5761C22.1277 16.6776 22.3224 16.8723 22.4239 17.1173C22.4724 17.2343 22.4876 17.3472 22.4941 17.4424C22.5 17.5294 22.5 17.6317 22.5 17.7368V17.7671C22.5 18.102 22.5 18.3785 22.4846 18.6048C22.4686 18.8394 22.4343 19.0565 22.3478 19.2654C22.1448 19.7554 21.7554 20.1448 21.2654 20.3478C21.0565 20.4343 20.8394 20.4686 20.6048 20.4846C20.3785 20.5 20.1021 20.5 19.7673 20.5H4.23287C3.89803 20.5 3.62151 20.5 3.39523 20.4846C3.16059 20.4686 2.94354 20.4343 2.73464 20.3478C2.24458 20.1448 1.85523 19.7554 1.65224 19.2654C1.56571 19.0565 1.53144 18.8394 1.51543 18.6048C1.5 18.3785 1.5 18.1021 1.5 17.7672V17.7368C1.49999 17.6318 1.49998 17.5294 1.50592 17.4424C1.51241 17.3472 1.52765 17.2343 1.57612 17.1173C1.67762 16.8723 1.87229 16.6776 2.11732 16.5761C2.23434 16.5276 2.3472 16.5124 2.44239 16.5059C2.52942 16.5 2.63171 16.5 2.73672 16.5L3 16.5V14.5C3 10.0886 6.17378 6.41857 10.3625 5.64861C10.1341 5.32357 10 4.92745 10 4.5C10 3.39543 10.8954 2.5 12 2.5C13.1046 2.5 14 3.39543 14 4.5ZM12 3.5C11.4477 3.5 11 3.94772 11 4.5C11 5.05228 11.4477 5.5 12 5.5C12.5523 5.5 13 5.05228 13 4.5C13 3.94772 12.5523 3.5 12 3.5ZM4 14.5C4 10.0817 7.58172 6.5 12 6.5C16.4183 6.5 20 10.0817 20 14.5V16.5H4V14.5ZM2.5036 17.5105L2.50407 17.5041L2.51046 17.5036C2.55922 17.5003 2.62668 17.5 2.75 17.5H21.25C21.3733 17.5 21.4408 17.5003 21.4895 17.5036L21.4959 17.5041L21.4964 17.5105C21.4997 17.5592 21.5 17.6267 21.5 17.75C21.5 18.1063 21.4997 18.3485 21.4869 18.5367C21.4744 18.7204 21.4515 18.8159 21.4239 18.8827C21.3224 19.1277 21.1277 19.3224 20.8827 19.4239C20.8159 19.4515 20.7204 19.4744 20.5367 19.4869C20.3485 19.4997 20.1063 19.5 19.75 19.5H4.25C3.89371 19.5 3.65152 19.4997 3.4633 19.4869C3.27958 19.4744 3.18407 19.4515 3.11732 19.4239C2.87229 19.3224 2.67762 19.1277 2.57612 18.8827C2.54847 18.8159 2.52565 18.7204 2.51312 18.5367C2.50027 18.3485 2.5 18.1063 2.5 17.75C2.5 17.6267 2.50027 17.5592 2.5036 17.5105Z" fill="#000"/>
</svg>
