<svg width="24" height="24" viewBox="0 0 24 24" fill="none" xmlns="http://www.w3.org/2000/svg">
<path d="M17.5659 2.38763C17.7799 2.2132 17.8121 1.89825 17.6376 1.68418C17.4632 1.4701 17.1483 1.43797 16.9342 1.6124L13.4732 4.43244C11.615 5.94653 11.3599 8.651 12.813 10.4799L1.64645 21.6462C1.45119 21.8415 1.45118 22.1581 1.64644 22.3533C1.8417 22.5486 2.15829 22.5486 2.35355 22.3533L13.5201 11.187C15.349 12.6401 18.0535 12.385 19.5676 10.5268L22.3876 7.06585C22.5621 6.85178 22.5299 6.53683 22.3159 6.3624C22.1018 6.18797 21.7868 6.2201 21.6124 6.43418L18.7924 9.89514C17.5456 11.4253 15.2493 11.5422 13.8536 10.1465C12.4579 8.75076 12.5747 6.45448 14.1049 5.20767L17.5659 2.38763Z" fill="#000"/>
<path d="M2.892 3.59902C2.74734 3.45436 2.5 3.55681 2.5 3.76139C2.5 6.98295 3.77976 10.0726 6.05775 12.3505L6.8536 13.1464C7.04886 13.3417 7.04886 13.6582 6.8536 13.8535C6.65834 14.0488 6.34176 14.0488 6.14649 13.8535L5.35064 13.0577C2.88512 10.5921 1.5 7.24817 1.5 3.76139C1.5 2.66591 2.82449 2.11729 3.59911 2.89191L10.3536 9.6464C10.5489 9.84167 10.5489 10.1582 10.3536 10.3535C10.1583 10.5488 9.84176 10.5488 9.64649 10.3535L2.892 3.59902Z" fill="#000"/>
<path d="M13.6465 13.6464C13.8418 13.4511 14.1583 13.4511 14.3536 13.6464L22.3536 21.6464C22.5488 21.8416 22.5488 22.1582 22.3536 22.3535C22.1583 22.5487 21.8417 22.5487 21.6464 22.3535L15 15.707L12.5607 18.1464C11.9749 18.7321 11.0251 18.7321 10.4393 18.1464L10.1465 17.8535C9.95123 17.6582 9.95123 17.3417 10.1465 17.1464C10.3418 16.9511 10.6583 16.9511 10.8536 17.1464L11.1464 17.4392C11.3417 17.6345 11.6583 17.6345 11.8536 17.4392L14.2929 14.9999L13.6465 14.3535C13.4512 14.1582 13.4512 13.8417 13.6465 13.6464Z" fill="#000"/>
<path d="M18.7415 3.59114C18.9371 3.78607 18.9377 4.10265 18.7428 4.29825L15.5539 7.49825C15.359 7.69385 15.0424 7.6944 14.8468 7.49948C14.6512 7.30456 14.6506 6.98798 14.8455 6.79237L18.0344 3.59237C18.2294 3.39677 18.5459 3.39622 18.7415 3.59114Z" fill="#000"/>
<path d="M20.4098 5.96427C20.6047 5.76866 20.6041 5.45208 20.4085 5.25716C20.2129 5.06224 19.8963 5.06279 19.7014 5.25839L16.5125 8.45839C16.3176 8.65399 16.3182 8.97057 16.5138 9.1655C16.7094 9.36042 17.0259 9.35987 17.2209 9.16427L20.4098 5.96427Z" fill="#000"/>
</svg>
