<svg width="24" height="24" viewBox="0 0 24 24" fill="none" xmlns="http://www.w3.org/2000/svg">
<path fill-rule="evenodd" clip-rule="evenodd" d="M14.8149 5.38407C13.4243 4.39757 11.4999 5.39188 11.4999 7.09685V10.1264L4.81494 5.38407C3.42434 4.39757 1.49988 5.39188 1.49988 7.09685V16.8933C1.49988 18.5983 3.42434 19.5926 4.81494 18.6061L11.4999 13.8638V16.8933C11.4999 18.5983 13.4243 19.5926 14.8149 18.6061L21.5472 13.8302C22.8114 12.9334 22.8114 11.0568 21.5472 10.16L14.8149 5.38407ZM12.4999 7.09685C12.4999 6.20377 13.5079 5.68294 14.2363 6.19968L20.9686 10.9756C21.6709 11.4738 21.6709 12.5164 20.9686 13.0146L14.2363 17.7905C13.5079 18.3072 12.4999 17.7864 12.4999 16.8933V7.09685ZM2.49988 7.09685C2.49988 6.20377 3.50793 5.68294 4.23634 6.19968L10.9686 10.9756C11.6709 11.4738 11.6709 12.5164 10.9686 13.0146L4.23634 17.7905C3.50793 18.3072 2.49988 17.7864 2.49988 16.8933V7.09685Z" fill="#000"/>
</svg>
