<svg width="24" height="24" viewBox="0 0 24 24" fill="none" xmlns="http://www.w3.org/2000/svg">
<path fill-rule="evenodd" clip-rule="evenodd" d="M14.8151 5.38407C13.4245 4.39757 11.5 5.39188 11.5 7.09685V10.1264L4.81506 5.38407C3.42447 4.39757 1.5 5.39188 1.5 7.09685V16.8933C1.5 18.5983 3.42446 19.5926 4.81506 18.6061L11.5 13.8638V16.8933C11.5 18.5983 13.4245 19.5926 14.8151 18.6061L21.5473 13.8302C22.8115 12.9334 22.8115 11.0568 21.5473 10.16L14.8151 5.38407ZM12.5 7.09685C12.5 6.20377 13.5081 5.68294 14.2365 6.19968L20.9687 10.9756C21.671 11.4738 21.671 12.5164 20.9687 13.0146L14.2365 17.7905C13.5081 18.3072 12.5 17.7864 12.5 16.8933V7.09685ZM2.5 7.09685C2.5 6.20377 3.50805 5.68294 4.23646 6.19968L10.9687 10.9756C11.671 11.4738 11.671 12.5164 10.9687 13.0146L4.23646 17.7905C3.50805 18.3072 2.5 17.7864 2.5 16.8933V7.09685Z" fill="#000"/>
</svg>
