<svg width="24" height="24" viewBox="0 0 24 24" fill="none" xmlns="http://www.w3.org/2000/svg">
<path fill-rule="evenodd" clip-rule="evenodd" d="M12 8.5C10.067 8.5 8.5 10.067 8.5 12C8.5 13.933 10.067 15.5 12 15.5C13.933 15.5 15.5 13.933 15.5 12C15.5 10.067 13.933 8.5 12 8.5ZM9.5 12C9.5 10.6193 10.6193 9.5 12 9.5C13.3807 9.5 14.5 10.6193 14.5 12C14.5 13.3807 13.3807 14.5 12 14.5C10.6193 14.5 9.5 13.3807 9.5 12Z" fill="#000"/>
<path fill-rule="evenodd" clip-rule="evenodd" d="M3.12759 13.0899C2.04893 13.7137 1.68003 15.0947 2.30225 16.1743L3.54169 18.3249C4.1642 19.4051 5.54371 19.7758 6.62288 19.1517C7.45833 18.6685 8.50534 19.2716 8.50534 20.2416C8.50534 21.488 9.5142 22.5 10.7606 22.5H13.2394C14.4858 22.5 15.4947 21.488 15.4947 20.2416C15.4947 19.2715 16.5417 18.6684 17.3771 19.1516C18.4563 19.7757 19.8358 19.405 20.4583 18.3248L21.6978 16.1741C22.32 15.0945 21.9511 13.7136 20.8725 13.0898C20.0353 12.6056 20.0353 11.3942 20.8725 10.91C21.9511 10.2861 22.32 8.90522 21.6978 7.82562L20.4583 5.67494C19.8358 4.59479 18.4563 4.22404 17.3771 4.84821C16.5416 5.33142 15.4947 4.72831 15.4947 3.7583C15.4947 2.51192 14.4858 1.5 13.2395 1.5H10.7605C9.51416 1.5 8.50534 2.5119 8.50534 3.75827C8.50534 4.72822 7.45836 5.33132 6.62291 4.84811C5.54376 4.22395 4.16421 4.59468 3.54169 5.67484L2.30225 7.82544C1.68003 8.90508 2.04893 10.286 3.12759 10.9099C3.96486 11.3942 3.96486 12.6056 3.12759 13.0899ZM3.16866 15.675C2.8215 15.0726 3.02788 14.3027 3.62825 13.9555C5.1313 13.0862 5.1313 10.9136 3.62825 10.0443C3.02788 9.69702 2.8215 8.92716 3.16866 8.32477L4.4081 6.17417C4.75495 5.57234 5.5224 5.36681 6.12225 5.71375C7.62698 6.58406 9.50534 5.49534 9.50534 3.75827C9.50534 3.0625 10.0681 2.5 10.7605 2.5L13.2395 2.5C13.9319 2.5 14.4947 3.06252 14.4947 3.7583C14.4947 5.49538 16.373 6.58418 17.8778 5.71385C18.4776 5.36691 19.245 5.57243 19.5919 6.17428L20.8314 8.32495C21.1785 8.9273 20.9721 9.69711 20.3718 10.0443C18.8688 10.9136 18.8688 13.0861 20.3718 13.9554C20.9721 14.3026 21.1785 15.0725 20.8314 15.6748L19.5919 17.8255C19.245 18.4273 18.4776 18.6328 17.8778 18.2859C16.373 17.4156 14.4947 18.5045 14.4947 20.2416C14.4947 20.9374 13.9318 21.5 13.2394 21.5H10.7606C10.0682 21.5 9.50534 20.9374 9.50534 20.2416C9.50534 18.5046 7.62702 17.4157 6.12221 18.286C5.52238 18.633 4.75496 18.4274 4.4081 17.8256L3.16866 15.675Z" fill="#000"/>
</svg>
