<svg width="24" height="24" viewBox="0 0 24 24" fill="none" xmlns="http://www.w3.org/2000/svg">
<path fill-rule="evenodd" clip-rule="evenodd" d="M12.0001 8.5C10.0671 8.5 8.50006 10.067 8.50006 12C8.50006 13.933 10.0671 15.5 12.0001 15.5C13.9331 15.5 15.5001 13.933 15.5001 12C15.5001 10.067 13.9331 8.5 12.0001 8.5ZM9.50006 12C9.50006 10.6193 10.6193 9.5 12.0001 9.5C13.3808 9.5 14.5001 10.6193 14.5001 12C14.5001 13.3807 13.3808 14.5 12.0001 14.5C10.6193 14.5 9.50006 13.3807 9.50006 12Z" fill="#000"/>
<path fill-rule="evenodd" clip-rule="evenodd" d="M3.12765 13.0899C2.04899 13.7137 1.68009 15.0947 2.30231 16.1743L3.54175 18.3249C4.16426 19.4051 5.54378 19.7758 6.62294 19.1517C7.45839 18.6685 8.50541 19.2716 8.50541 20.2416C8.50541 21.488 9.51426 22.5 10.7606 22.5H13.2395C14.4859 22.5 15.4947 21.488 15.4947 20.2416C15.4947 19.2715 16.5417 18.6684 17.3772 19.1516C18.4563 19.7757 19.8358 19.405 20.4584 18.3248L21.6978 16.1741C22.32 15.0945 21.9512 13.7136 20.8725 13.0898C20.0353 12.6056 20.0353 11.3942 20.8725 10.91C21.9512 10.2861 22.32 8.90522 21.6978 7.82562L20.4584 5.67494C19.8358 4.59479 18.4563 4.22404 17.3772 4.84821C16.5417 5.33142 15.4947 4.72831 15.4947 3.7583C15.4947 2.51192 14.4859 1.5 13.2395 1.5H10.7605C9.51422 1.5 8.50541 2.5119 8.50541 3.75827C8.50541 4.72822 7.45843 5.33132 6.62298 4.84811C5.54382 4.22395 4.16427 4.59468 3.54175 5.67484L2.30231 7.82544C1.68009 8.90508 2.04899 10.286 3.12765 10.9099C3.96492 11.3942 3.96492 12.6056 3.12765 13.0899ZM3.16873 15.675C2.82156 15.0726 3.02794 14.3027 3.62832 13.9555C5.13136 13.0862 5.13136 10.9136 3.62832 10.0443C3.02794 9.69702 2.82156 8.92716 3.16873 8.32477L4.40816 6.17417C4.75501 5.57234 5.52246 5.36681 6.12231 5.71375C7.62704 6.58406 9.50541 5.49534 9.50541 3.75827C9.50541 3.0625 10.0682 2.5 10.7605 2.5L13.2395 2.5C13.9319 2.5 14.4947 3.06252 14.4947 3.7583C14.4947 5.49538 16.3731 6.58418 17.8778 5.71385C18.4777 5.36691 19.2451 5.57243 19.5919 6.17428L20.8314 8.32495C21.1786 8.9273 20.9722 9.69711 20.3719 10.0443C18.8689 10.9136 18.8689 13.0861 20.3719 13.9554C20.9722 14.3026 21.1786 15.0725 20.8314 15.6748L19.5919 17.8255C19.2451 18.4273 18.4777 18.6328 17.8778 18.2859C16.373 17.4156 14.4947 18.5045 14.4947 20.2416C14.4947 20.9374 13.9319 21.5 13.2395 21.5H10.7606C10.0682 21.5 9.50541 20.9374 9.50541 20.2416C9.50541 18.5046 7.62709 17.4157 6.12227 18.286C5.52244 18.633 4.75502 18.4274 4.40816 17.8256L3.16873 15.675Z" fill="#000"/>
</svg>
