<svg width="24" height="24" viewBox="0 0 24 24" fill="none" xmlns="http://www.w3.org/2000/svg">
<path fill-rule="evenodd" clip-rule="evenodd" d="M0.5 12C0.5 5.64873 5.64873 0.5 12 0.5H12.0051C18.354 0.502759 23.5 5.65043 23.5 12V12.0032C23.4983 18.353 18.3502 23.5 12 23.5C5.64873 23.5 0.5 18.3513 0.5 12ZM10.5055 2.28296C10.9949 1.74843 11.4955 1.5 12 1.5C12.5045 1.5 13.0051 1.74843 13.4945 2.28296C13.9871 2.82093 14.4357 3.61673 14.8137 4.61461C15.522 6.48466 15.9456 8.96612 15.9951 11.5H8.00493C8.05446 8.96612 8.478 6.48466 9.18635 4.61461C9.56433 3.61673 10.0129 2.82093 10.5055 2.28296ZM7.00475 11.5C7.05422 8.87213 7.49174 6.26534 8.25119 4.26039C8.62271 3.27958 9.08015 2.419 9.62608 1.76948C5.12712 2.80925 1.73484 6.74025 1.5117 11.5H7.00475ZM1.5117 12.5H7.00475C7.05422 15.1279 7.49174 17.7347 8.25119 19.7396C8.62271 20.7204 9.08015 21.581 9.62608 22.2305C5.12712 21.1908 1.73484 17.2598 1.5117 12.5ZM22.4883 11.5C22.2652 6.74025 18.8729 2.80926 14.3739 1.76949C14.9199 2.41901 15.3773 3.27958 15.7488 4.26039C16.5083 6.26533 16.9458 8.87213 16.9953 11.5H22.4883ZM16.9938 12.5H22.4883C22.2632 17.302 18.8124 21.2605 14.2539 22.2575C14.8532 21.5342 15.3518 20.5454 15.7515 19.4407C16.4997 17.3721 16.9374 14.7933 16.9938 12.5ZM15.9935 12.5C15.937 14.6908 15.5162 17.1511 14.8111 19.1005C14.4308 20.1518 13.9784 21.0248 13.4788 21.6255C12.9786 22.2271 12.4821 22.4989 12.0028 22.5H12C11.4955 22.5 10.9949 22.2516 10.5055 21.717C10.0129 21.1791 9.56433 20.3833 9.18635 19.3854C8.478 17.5153 8.05446 15.0339 8.00493 12.5H15.9935Z" fill="#000"/>
</svg>
