<svg width="24" height="24" viewBox="0 0 24 24" fill="none" xmlns="http://www.w3.org/2000/svg">
<path fill-rule="evenodd" clip-rule="evenodd" d="M19.6206 1.5H16.3794C15.9769 1.49999 15.6447 1.49999 15.3741 1.5221C15.093 1.54506 14.8347 1.59434 14.592 1.71799C14.2157 1.90973 13.9097 2.2157 13.718 2.59202C13.5943 2.83469 13.5451 3.09304 13.5221 3.37409C13.5 3.64467 13.5 3.97684 13.5 4.3793V7.62065C13.5 8.02311 13.5 8.35533 13.5221 8.62591C13.5451 8.90696 13.5943 9.16531 13.718 9.40798C13.9097 9.78431 14.2157 10.0903 14.592 10.282C14.8347 10.4057 15.093 10.4549 15.3741 10.4779C15.6447 10.5 15.9769 10.5 16.3793 10.5H19.6207C20.0231 10.5 20.3553 10.5 20.6259 10.4779C20.907 10.4549 21.1653 10.4057 21.408 10.282C21.7843 10.0903 22.0903 9.78431 22.282 9.40798C22.4057 9.16531 22.4549 8.90696 22.4779 8.62591C22.5 8.35532 22.5 8.02314 22.5 7.62066V4.37934C22.5 3.97686 22.5 3.64468 22.4779 3.37409C22.4549 3.09304 22.4057 2.83469 22.282 2.59202C22.0903 2.2157 21.7843 1.90973 21.408 1.71799C21.1653 1.59434 20.907 1.54506 20.6259 1.5221C20.3553 1.49999 20.0231 1.49999 19.6206 1.5ZM15.046 2.60899C15.1242 2.56915 15.2363 2.53669 15.4555 2.51878C15.6806 2.50039 15.9717 2.5 16.4 2.5H19.6C20.0283 2.5 20.3194 2.50039 20.5445 2.51878C20.7637 2.53669 20.8758 2.56915 20.954 2.60899C21.1422 2.70487 21.2951 2.85785 21.391 3.04601C21.4309 3.12421 21.4633 3.23631 21.4812 3.45552C21.4996 3.68056 21.5 3.97171 21.5 4.4V7.6C21.5 8.02829 21.4996 8.31944 21.4812 8.54448C21.4633 8.76369 21.4309 8.87579 21.391 8.95399C21.2951 9.14215 21.1422 9.29513 20.954 9.39101C20.8758 9.43085 20.7637 9.46331 20.5445 9.48122C20.3194 9.49961 20.0283 9.5 19.6 9.5H16.4C15.9717 9.5 15.6806 9.49961 15.4555 9.48122C15.2363 9.46331 15.1242 9.43085 15.046 9.39101C14.8578 9.29513 14.7049 9.14215 14.609 8.95399C14.5691 8.87579 14.5367 8.76369 14.5188 8.54448C14.5004 8.31944 14.5 8.02829 14.5 7.6V4.4C14.5 3.97171 14.5004 3.68056 14.5188 3.45552C14.5367 3.23631 14.5691 3.12421 14.609 3.04601C14.7049 2.85785 14.8578 2.70487 15.046 2.60899Z" fill="#000"/>
<path fill-rule="evenodd" clip-rule="evenodd" d="M19.6206 13.5H16.3794C15.9769 13.5 15.6447 13.5 15.3741 13.5221C15.093 13.5451 14.8347 13.5943 14.592 13.718C14.2157 13.9097 13.9097 14.2157 13.718 14.592C13.5943 14.8347 13.5451 15.093 13.5221 15.3741C13.5 15.6447 13.5 15.9768 13.5 16.3793V19.6206C13.5 20.0231 13.5 20.3553 13.5221 20.6259C13.5451 20.907 13.5943 21.1653 13.718 21.408C13.9097 21.7843 14.2157 22.0903 14.592 22.282C14.8347 22.4057 15.093 22.4549 15.3741 22.4779C15.6447 22.5 15.9769 22.5 16.3793 22.5H19.6207C20.0231 22.5 20.3553 22.5 20.6259 22.4779C20.907 22.4549 21.1653 22.4057 21.408 22.282C21.7843 22.0903 22.0903 21.7843 22.282 21.408C22.4057 21.1653 22.4549 20.907 22.4779 20.6259C22.5 20.3553 22.5 20.0231 22.5 19.6207V16.3793C22.5 15.9769 22.5 15.6447 22.4779 15.3741C22.4549 15.093 22.4057 14.8347 22.282 14.592C22.0903 14.2157 21.7843 13.9097 21.408 13.718C21.1653 13.5943 20.907 13.5451 20.6259 13.5221C20.3553 13.5 20.0231 13.5 19.6206 13.5ZM15.046 14.609C15.1242 14.5691 15.2363 14.5367 15.4555 14.5188C15.6806 14.5004 15.9717 14.5 16.4 14.5H19.6C20.0283 14.5 20.3194 14.5004 20.5445 14.5188C20.7637 14.5367 20.8758 14.5691 20.954 14.609C21.1422 14.7049 21.2951 14.8578 21.391 15.046C21.4309 15.1242 21.4633 15.2363 21.4812 15.4555C21.4996 15.6806 21.5 15.9717 21.5 16.4V19.6C21.5 20.0283 21.4996 20.3194 21.4812 20.5445C21.4633 20.7637 21.4309 20.8758 21.391 20.954C21.2951 21.1422 21.1422 21.2951 20.954 21.391C20.8758 21.4309 20.7637 21.4633 20.5445 21.4812C20.3194 21.4996 20.0283 21.5 19.6 21.5H16.4C15.9717 21.5 15.6806 21.4996 15.4555 21.4812C15.2363 21.4633 15.1242 21.4309 15.046 21.391C14.8578 21.2951 14.7049 21.1422 14.609 20.954C14.5691 20.8758 14.5367 20.7637 14.5188 20.5445C14.5004 20.3194 14.5 20.0283 14.5 19.6V16.4C14.5 15.9717 14.5004 15.6806 14.5188 15.4555C14.5367 15.2363 14.5691 15.1242 14.609 15.046C14.7049 14.8578 14.8578 14.7049 15.046 14.609Z" fill="#000"/>
<path fill-rule="evenodd" clip-rule="evenodd" d="M4.37935 1.5H7.62065C8.02313 1.49999 8.35532 1.49999 8.62591 1.5221C8.90696 1.54506 9.16531 1.59434 9.40798 1.71799C9.78431 1.90973 10.0903 2.2157 10.282 2.59202C10.4057 2.83469 10.4549 3.09304 10.4779 3.37409C10.5 3.64468 10.5 3.97686 10.5 4.37934V7.62066C10.5 8.02314 10.5 8.35532 10.4779 8.62591C10.4549 8.90696 10.4057 9.16531 10.282 9.40798C10.0903 9.78431 9.78431 10.0903 9.40798 10.282C9.16531 10.4057 8.90696 10.4549 8.62591 10.4779C8.35532 10.5 8.02314 10.5 7.62066 10.5H4.37934C3.97686 10.5 3.64468 10.5 3.37409 10.4779C3.09304 10.4549 2.83469 10.4057 2.59202 10.282C2.2157 10.0903 1.90973 9.78431 1.71799 9.40798C1.59434 9.16531 1.54506 8.90696 1.5221 8.62591C1.49999 8.35532 1.49999 8.02314 1.5 7.62066V4.37935C1.49999 3.97687 1.49999 3.64468 1.5221 3.37409C1.54506 3.09304 1.59434 2.83469 1.71799 2.59202C1.90973 2.2157 2.2157 1.90973 2.59202 1.71799C2.83469 1.59434 3.09304 1.54506 3.37409 1.5221C3.64468 1.49999 3.97687 1.49999 4.37935 1.5ZM3.45552 2.51878C3.23631 2.53669 3.12421 2.56915 3.04601 2.60899C2.85785 2.70487 2.70487 2.85785 2.60899 3.04601C2.56915 3.12421 2.53669 3.23631 2.51878 3.45552C2.50039 3.68056 2.5 3.97171 2.5 4.4V7.6C2.5 8.02829 2.50039 8.31944 2.51878 8.54448C2.53669 8.76369 2.56915 8.87579 2.60899 8.95399C2.70487 9.14215 2.85785 9.29513 3.04601 9.39101C3.12421 9.43085 3.23631 9.46331 3.45552 9.48122C3.68056 9.49961 3.97171 9.5 4.4 9.5H7.6C8.02829 9.5 8.31944 9.49961 8.54448 9.48122C8.76369 9.46331 8.87579 9.43085 8.95399 9.39101C9.14215 9.29513 9.29513 9.14215 9.39101 8.95399C9.43085 8.87579 9.46331 8.76369 9.48122 8.54448C9.49961 8.31944 9.5 8.02829 9.5 7.6V4.4C9.5 3.97171 9.49961 3.68056 9.48122 3.45552C9.46331 3.23631 9.43085 3.12421 9.39101 3.04601C9.29513 2.85785 9.14215 2.70487 8.95399 2.60899C8.87579 2.56915 8.76369 2.53669 8.54448 2.51878C8.31944 2.50039 8.02829 2.5 7.6 2.5H4.4C3.97171 2.5 3.68056 2.50039 3.45552 2.51878Z" fill="#000"/>
<path fill-rule="evenodd" clip-rule="evenodd" d="M7.62065 13.5H4.37935C3.97689 13.5 3.64467 13.5 3.37409 13.5221C3.09304 13.5451 2.83469 13.5943 2.59202 13.718C2.2157 13.9097 1.90973 14.2157 1.71799 14.592C1.59434 14.8347 1.54506 15.093 1.5221 15.3741C1.49999 15.6447 1.49999 15.9769 1.5 16.3793V19.6206C1.49999 20.0231 1.49999 20.3553 1.5221 20.6259C1.54506 20.907 1.59434 21.1653 1.71799 21.408C1.90973 21.7843 2.2157 22.0903 2.59202 22.282C2.83469 22.4057 3.09304 22.4549 3.37409 22.4779C3.64468 22.5 3.97686 22.5 4.37934 22.5H7.62066C8.02314 22.5 8.35532 22.5 8.62591 22.4779C8.90696 22.4549 9.16531 22.4057 9.40798 22.282C9.78431 22.0903 10.0903 21.7843 10.282 21.408C10.4057 21.1653 10.4549 20.907 10.4779 20.6259C10.5 20.3553 10.5 20.0231 10.5 19.6207V16.3793C10.5 15.9769 10.5 15.6447 10.4779 15.3741C10.4549 15.093 10.4057 14.8347 10.282 14.592C10.0903 14.2157 9.78431 13.9097 9.40798 13.718C9.16531 13.5943 8.90696 13.5451 8.62591 13.5221C8.35533 13.5 8.02311 13.5 7.62065 13.5ZM3.04601 14.609C3.12421 14.5691 3.23631 14.5367 3.45552 14.5188C3.68056 14.5004 3.97171 14.5 4.4 14.5H7.6C8.02829 14.5 8.31944 14.5004 8.54448 14.5188C8.76369 14.5367 8.87579 14.5691 8.95399 14.609C9.14215 14.7049 9.29513 14.8578 9.39101 15.046C9.43085 15.1242 9.46331 15.2363 9.48122 15.4555C9.49961 15.6806 9.5 15.9717 9.5 16.4V19.6C9.5 20.0283 9.49961 20.3194 9.48122 20.5445C9.46331 20.7637 9.43085 20.8758 9.39101 20.954C9.29513 21.1422 9.14215 21.2951 8.95399 21.391C8.87579 21.4309 8.76369 21.4633 8.54448 21.4812C8.31944 21.4996 8.02829 21.5 7.6 21.5H4.4C3.97171 21.5 3.68056 21.4996 3.45552 21.4812C3.23631 21.4633 3.12421 21.4309 3.04601 21.391C2.85785 21.2951 2.70487 21.1422 2.60899 20.954C2.56915 20.8758 2.53669 20.7637 2.51878 20.5445C2.50039 20.3194 2.5 20.0283 2.5 19.6V16.4C2.5 15.9717 2.50039 15.6806 2.51878 15.4555C2.53669 15.2363 2.56915 15.1242 2.60899 15.046C2.70487 14.8578 2.85785 14.7049 3.04601 14.609Z" fill="#000"/>
</svg>
