<svg width="24" height="24" viewBox="0 0 24 24" fill="none" xmlns="http://www.w3.org/2000/svg">
<path d="M12.5 2.00012V2.77092C12.8289 2.80113 13.1295 2.8672 13.4344 2.98814C13.8749 3.16285 14.294 3.4405 14.8019 3.82502C15.022 3.99172 15.0653 4.30533 14.8987 4.52548C14.732 4.74563 14.4183 4.78896 14.1982 4.62226C13.706 4.24957 13.3752 4.04046 13.0657 3.9177C12.7679 3.79957 12.4604 3.7501 12 3.7501C11.321 3.7501 10.8089 3.9101 10.4808 4.14769C10.1677 4.37443 10 4.68441 10 5.0818C10 5.57312 10.2356 5.86398 10.6193 6.07872C11.0345 6.31114 11.5791 6.42304 12.0822 6.50691C12.5791 6.58971 13.2845 6.72155 13.8693 7.0489C14.4856 7.39395 15 7.97891 15 8.91841C15 9.64959 14.6677 10.2555 14.1058 10.6624C13.6725 10.9762 13.1194 11.1617 12.5 11.2252V12.0001C12.5 12.2762 12.2761 12.5001 12 12.5001C11.7239 12.5001 11.5 12.2762 11.5 12.0001V11.2293C11.1711 11.1991 10.8706 11.133 10.5657 11.012C10.1252 10.8373 9.70601 10.5597 9.19819 10.1751C8.97804 10.0084 8.93471 9.69483 9.10141 9.47468C9.26811 9.25453 9.58171 9.2112 9.80186 9.3779C10.294 9.75059 10.6249 9.95972 10.9344 10.0825C11.2322 10.2006 11.5396 10.2501 12 10.2501C12.679 10.2501 13.1912 10.0901 13.5193 9.85252C13.8323 9.62577 14 9.31579 14 8.91841C14 8.42709 13.7644 8.13623 13.3808 7.92149C12.9656 7.68907 12.421 7.57716 11.9178 7.4933C11.421 7.4105 10.7156 7.27866 10.1308 6.9513C9.51441 6.60626 9.00003 6.0213 9.00003 5.0818C9.00003 4.35062 9.33233 3.74475 9.89425 3.33779C10.3275 3.02398 10.8806 2.83854 11.5 2.77503V2.00012C11.5 1.72398 11.7239 1.50012 12 1.50012C12.2761 1.50012 12.5 1.72398 12.5 2.00012Z" fill="#000"/>
<path d="M21.5 16.3879C21.5 15.4044 20.5137 14.7265 19.5955 15.0791L14.9753 16.8533C14.8037 18.0668 13.7609 19.0002 12.5 19.0002H8C7.72386 19.0002 7.5 18.7764 7.5 18.5002C7.5 18.2241 7.72386 18.0002 8 18.0002H12.5C13.325 18.0002 13.9945 17.3341 14 16.5104L14 16.5002L14 16.4902C13.9946 15.6664 13.3251 15.0002 12.5 15.0002H8.26712C7.56534 15.0002 6.88577 15.2462 6.34663 15.6955L5.29353 16.573C4.57468 17.172 3.66859 17.5001 2.73288 17.5001H2C1.72386 17.5001 1.5 17.2762 1.5 17.0001C1.5 16.7239 1.72386 16.5001 2 16.5001H2.73288C3.43466 16.5001 4.11423 16.254 4.65337 15.8048L5.70647 14.9273C6.42532 14.3283 7.33141 14.0002 8.26712 14.0002H12.5C13.6412 14.0002 14.6038 14.7648 14.9034 15.8097L19.237 14.1456C20.8101 13.5415 22.5 14.7028 22.5 16.3879C22.5 17.2556 22.032 18.0559 21.2756 18.4813L15.5008 21.7297C14.6027 22.2348 13.5897 22.5002 12.5593 22.5002H2C1.72386 22.5002 1.5 22.2764 1.5 22.0002C1.5 21.7241 1.72386 21.5002 2 21.5002H12.5593C13.418 21.5002 14.2622 21.2791 15.0106 20.8581L20.7854 17.6098C21.2268 17.3615 21.5 16.8944 21.5 16.3879Z" fill="#000"/>
</svg>
