<svg width="24" height="24" viewBox="0 0 24 24" fill="none" xmlns="http://www.w3.org/2000/svg">
<path d="M17.25 17C17.25 16.5858 17.5858 16.25 18 16.25C18.4142 16.25 18.7501 16.5858 18.7501 17C18.7501 17.4142 18.4143 17.75 18.0001 17.75C17.5859 17.75 17.25 17.4142 17.25 17Z" fill="#000"/>
<path d="M15 16.25C14.5858 16.25 14.25 16.5858 14.25 17C14.25 17.4142 14.5858 17.75 15 17.75C15.4142 17.75 15.7501 17.4142 15.7501 17C15.7501 16.5858 15.4142 16.25 15 16.25Z" fill="#000"/>
<path fill-rule="evenodd" clip-rule="evenodd" d="M9.51577 2.50001C8.14666 2.49978 7.31321 2.49963 6.59506 2.78788C5.96191 3.04201 5.40428 3.45386 4.97519 3.98427C4.4885 4.58589 4.24353 5.38253 3.84112 6.69117L1.31351 14.9059C1.26532 15.0626 1.23779 15.152 1.21305 15.2424C1.08821 15.6983 1.01768 16.1673 1.00292 16.6398C1 16.7334 1 16.827 1 16.9909V17C1 19.4853 3.01472 21.5 5.5 21.5H18.5C20.9853 21.5 23 19.4853 23 17V16.9909C23 16.827 23 16.7334 22.9971 16.6398C22.9823 16.1673 22.9118 15.6983 22.787 15.2424C22.7622 15.1521 22.7347 15.0628 22.6866 14.9064L20.1589 6.69116C19.7565 5.38253 19.5115 4.58589 19.0248 3.98427C18.5957 3.45386 18.0381 3.04201 17.4049 2.78788C16.6868 2.49963 15.8533 2.49978 14.4842 2.50001H9.51577ZM21.1699 13.3773L19.2385 7.10019C18.7889 5.63921 18.5971 5.04558 18.2474 4.61321C17.9255 4.2154 17.5073 3.90651 17.0325 3.71592C16.5163 3.50876 15.8926 3.50003 14.364 3.50003H9.63602C8.10744 3.50003 7.48366 3.50876 6.96755 3.71592C6.49268 3.90651 6.07447 4.2154 5.75265 4.61321C5.40288 5.04558 5.21108 5.63921 4.76154 7.10019L2.83014 13.3773C3.577 12.8259 4.50044 12.5 5.5 12.5H18.5C19.4996 12.5 20.423 12.8259 21.1699 13.3773ZM2 17C2 15.067 3.567 13.5 5.5 13.5H18.5C20.433 13.5 22 15.067 22 17C22 18.933 20.433 20.5 18.5 20.5H5.5C3.567 20.5 2 18.933 2 17Z" fill="#000"/>
</svg>
