<svg width="24" height="24" viewBox="0 0 24 24" fill="none" xmlns="http://www.w3.org/2000/svg">
<path fill-rule="evenodd" clip-rule="evenodd" d="M11.2318 3.13395C11.3057 2.86788 11.1499 2.59228 10.8838 2.51837C10.6178 2.44446 10.3422 2.60024 10.2682 2.8663L9.05052 7.25012H4C3.72386 7.25012 3.5 7.47398 3.5 7.75012C3.5 8.02626 3.72386 8.25012 4 8.25012H8.77274L6.68941 15.7501H2C1.72386 15.7501 1.5 15.974 1.5 16.2501C1.5 16.5263 1.72386 16.7501 2 16.7501H6.41163L5.26825 20.8663C5.19434 21.1324 5.35011 21.408 5.61618 21.4819C5.88225 21.5558 6.15786 21.4 6.23176 21.1339L7.44949 16.7501H13.9116L12.7682 20.8663C12.6943 21.1324 12.8501 21.408 13.1162 21.4819C13.3823 21.5558 13.6579 21.4 13.7318 21.1339L14.9495 16.7501H20C20.2761 16.7501 20.5 16.5263 20.5 16.2501C20.5 15.974 20.2761 15.7501 20 15.7501H15.2273L17.3106 8.25012H22.0003C22.2765 8.25012 22.5003 8.02626 22.5003 7.75012C22.5003 7.47398 22.2765 7.25012 22.0003 7.25012H17.5884L18.7318 3.13395C18.8057 2.86788 18.6499 2.59228 18.3838 2.51837C18.1178 2.44446 17.8422 2.60024 17.7682 2.8663L16.5505 7.25012H10.0884L11.2318 3.13395ZM14.1894 15.7501L16.2727 8.25012H9.8106L7.72727 15.7501H14.1894Z" fill="#000"/>
</svg>
