<svg width="24" height="24" viewBox="0 0 24 24" fill="none" xmlns="http://www.w3.org/2000/svg">
<path fill-rule="evenodd" clip-rule="evenodd" d="M12 2.5C6.20101 2.5 1.5 7.20101 1.5 13V16.7629C1.5 16.782 1.5 16.8015 1.5 16.8216V18.1785C1.49997 18.4761 1.49995 18.6681 1.51887 18.8359C1.67558 20.2268 2.77325 21.3244 4.16411 21.4812C4.33195 21.5001 4.52391 21.5 4.82149 21.5L4.88111 21.5C4.98986 21.5001 5.08336 21.5001 5.16795 21.4906C5.86338 21.4122 6.41222 20.8634 6.49057 20.168C6.5001 20.0834 6.50006 19.9899 6.50001 19.8811V15.1189C6.50006 15.0102 6.5001 14.9167 6.49057 14.8321C6.41222 14.1366 5.86338 13.5878 5.16795 13.5094C5.08336 13.4999 4.98986 13.5 4.88111 13.5L4.82155 13.5C4.52397 13.5 4.33195 13.5 4.16411 13.5189C3.52719 13.5906 2.95175 13.8597 2.5 14.2639V13C2.5 7.7533 6.7533 3.5 12 3.5C17.2467 3.5 21.5 7.7533 21.5 13V14.2639C21.0483 13.8597 20.4728 13.5906 19.8359 13.5189C19.6681 13.5 19.4761 13.5 19.1785 13.5L19.1189 13.5C19.0101 13.5 18.9166 13.4999 18.8321 13.5094C18.1366 13.5878 17.5878 14.1366 17.5094 14.8321C17.4999 14.9167 17.4999 15.0101 17.5 15.1189V19.8811C17.4999 19.9899 17.4999 20.0834 17.5094 20.168C17.5878 20.8634 18.1366 21.4122 18.8321 21.4906C18.9166 21.5001 19.0101 21.5001 19.1189 21.5L19.1785 21.5C19.476 21.5 19.6681 21.5001 19.8359 21.4812C21.2268 21.3244 22.3244 20.2268 22.4811 18.8359C22.5 18.6681 22.5 18.4761 22.5 18.1785L22.5 17.0014C22.5 17.0009 22.5 17.0005 22.5 17V16.8216C22.5 16.8017 22.5 16.7823 22.5 16.7634V13C22.5 7.20101 17.799 2.5 12 2.5ZM21.5 16.8572C21.5 16.5119 21.4992 16.3807 21.4874 16.2761C21.3829 15.3488 20.6512 14.6171 19.7239 14.5126C19.6194 14.5008 19.4882 14.5 19.1429 14.5C18.9966 14.5 18.9649 14.5008 18.944 14.5032C18.7122 14.5293 18.5293 14.7122 18.5031 14.944C18.5008 14.9649 18.5 14.9966 18.5 15.1429V19.8572C18.5 20.0034 18.5008 20.0351 18.5031 20.056C18.5293 20.2878 18.7122 20.4708 18.944 20.4969C18.9649 20.4992 18.9966 20.5 19.1429 20.5C19.4882 20.5 19.6194 20.4992 19.7239 20.4874C20.6512 20.383 21.3829 19.6512 21.4874 18.7239C21.4992 18.6194 21.5 18.4882 21.5 18.1429V16.8572ZM4.85715 14.5C5.00343 14.5 5.03512 14.5008 5.05598 14.5032C5.2878 14.5293 5.47074 14.7122 5.49686 14.944C5.49921 14.9649 5.5 14.9966 5.5 15.1429V19.8572C5.5 20.0034 5.49921 20.0351 5.49686 20.056C5.47074 20.2878 5.2878 20.4708 5.05598 20.4969C5.03512 20.4992 5.00343 20.5 4.85715 20.5C4.51185 20.5 4.38065 20.4992 4.27607 20.4874C3.34883 20.383 2.61705 19.6512 2.51258 18.7239C2.5008 18.6194 2.5 18.4882 2.5 18.1429L2.5 16.8572C2.5 16.5119 2.5008 16.3807 2.51258 16.2761C2.61705 15.3488 3.34884 14.6171 4.27608 14.5126C4.38065 14.5008 4.51185 14.5 4.85715 14.5Z" fill="#000"/>
</svg>
