<svg width="24" height="24" viewBox="0 0 24 24" fill="none" xmlns="http://www.w3.org/2000/svg">
<path fill-rule="evenodd" clip-rule="evenodd" d="M2.35355 1.64645C2.15829 1.45118 1.84171 1.45118 1.64645 1.64645C1.45118 1.84171 1.45118 2.15829 1.64645 2.35355L3.56208 4.26919C2.24754 5.57438 1.5 7.46039 1.5 9.47438C1.5 13.1964 3.74864 16.2028 6.1044 18.3072C8.4609 20.4122 11.0191 21.7001 11.8419 21.9743C11.9445 22.0086 12.0555 22.0086 12.1581 21.9743C12.9614 21.7066 15.4253 20.4699 17.7387 18.4458L21.6464 22.3536C21.8417 22.5488 22.1583 22.5488 22.3536 22.3536C22.5488 22.1583 22.5488 21.8417 22.3536 21.6464L4.64302 3.93591C4.64037 3.9332 4.63769 3.93052 4.63499 3.92788L2.35355 1.64645ZM4.26924 4.97635C3.15973 6.07705 2.5 7.69858 2.5 9.47438C2.5 12.7779 4.50136 15.5343 6.7706 17.5614C8.88811 19.4529 11.1566 20.6349 12 20.9675C12.8178 20.6451 14.9722 19.5253 17.03 17.7371L4.26924 4.97635Z" fill="#000"/>
<path d="M7.12785 3.55303C7.37474 3.51817 7.63005 3.5 7.89333 3.5C9.7073 3.5 10.9046 4.47766 11.618 5.32255C11.713 5.43508 11.8527 5.5 12 5.5C12.1473 5.5 12.287 5.43508 12.382 5.32255C13.0954 4.47766 14.2927 3.5 16.1067 3.5C19.296 3.5 21.5 6.20946 21.5 9.47438C21.5 11.7089 20.5862 13.6921 19.2855 15.3755C19.1167 15.594 19.1569 15.908 19.3755 16.0768C19.594 16.2457 19.908 16.2054 20.0768 15.9869C21.4677 14.1868 22.5 11.9941 22.5 9.47438C22.5 5.79054 19.9729 2.5 16.1067 2.5C14.1987 2.5 12.8582 3.3934 12 4.25953C11.1418 3.3934 9.80129 2.5 7.89333 2.5C7.58395 2.5 7.2819 2.52136 6.98803 2.56285C6.7146 2.60146 6.52424 2.85442 6.56285 3.12785C6.60146 3.40128 6.85442 3.59164 7.12785 3.55303Z" fill="#000"/>
</svg>
