<svg width="24" height="24" viewBox="0 0 24 24" fill="none" xmlns="http://www.w3.org/2000/svg">
<path fill-rule="evenodd" clip-rule="evenodd" d="M20.5 2C20.5 2.27614 20.2761 2.5 20 2.5H18.5433C18.674 4.08838 18.7323 5.03759 18.5563 5.92315C18.3075 7.17468 17.7213 8.3344 16.8611 9.27692C16.1973 10.0043 15.3072 10.552 13.7143 11.5321L12.954 12L13.7143 12.4679C15.3072 13.448 16.1973 13.9957 16.8611 14.7231C17.7213 15.6656 18.3075 16.8253 18.5563 18.0768C18.7323 18.9624 18.674 19.9116 18.5433 21.5H20C20.2761 21.5 20.5 21.7239 20.5 22C20.5 22.2761 20.2761 22.5 20 22.5H18.002C18.0013 22.5 18.0007 22.5 18 22.5L4 22.5C3.72386 22.5 3.5 22.2761 3.5 22C3.5 21.7239 3.72386 21.5 4 21.5H5.45674C5.32603 19.9116 5.26766 18.9624 5.44371 18.0769C5.69253 16.8253 6.27871 15.6656 7.13889 14.7231C7.80268 13.9957 8.69281 13.448 10.2857 12.4679L11.046 12L10.2857 11.5321C8.69281 10.552 7.80268 10.0043 7.13889 9.27692C6.27871 8.3344 5.69253 7.17468 5.44372 5.92315C5.26766 5.03759 5.32603 4.08838 5.45674 2.5H4C3.72386 2.5 3.5 2.27614 3.5 2C3.5 1.72386 3.72386 1.5 4 1.5H20C20.2761 1.5 20.5 1.72386 20.5 2ZM6.46027 21.5L17.5397 21.5C17.6767 19.8323 17.7237 19.0175 17.5755 18.2718C17.3622 17.1991 16.8598 16.2051 16.1225 15.3972C15.5651 14.7864 14.8049 14.3132 13.1103 13.2703L12 12.5871L10.8897 13.2703C9.1951 14.3132 8.43494 14.7864 7.87753 15.3972C7.14023 16.2051 6.63779 17.1991 6.42452 18.2719C6.27627 19.0175 6.32329 19.8323 6.46027 21.5ZM6.46027 2.5H17.5397C17.6767 4.16771 17.7237 4.98247 17.5755 5.72816C17.3622 6.8009 16.8598 7.79494 16.1225 8.60282C15.5651 9.21359 14.8049 9.68682 13.1103 10.7297L12 11.4129L10.8897 10.7297C9.1951 9.68682 8.43493 9.21359 7.87752 8.60282C7.14023 7.79494 6.63779 6.8009 6.42452 5.72816C6.27627 4.98247 6.32329 4.16771 6.46027 2.5Z" fill="#000"/>
</svg>
