<svg width="24" height="24" viewBox="0 0 24 24" fill="none" xmlns="http://www.w3.org/2000/svg">
<path d="M7.34032 12.3295C8.56278 11.1938 10.1995 10.5 11.9993 10.5C13.7998 10.5 15.437 11.1943 16.6596 12.3307C16.8619 12.5187 17.1782 12.5071 17.3662 12.3049C17.5542 12.1026 17.5427 11.7862 17.3404 11.5982C15.9401 10.2967 14.0622 9.5 11.9993 9.5C9.93716 9.5 8.05981 10.2961 6.65969 11.5969C6.45738 11.7849 6.44574 12.1012 6.63369 12.3035C6.82164 12.5058 7.13801 12.5175 7.34032 12.3295Z" fill="#000"/>
<path d="M12.0032 13.8334C11.1459 13.8334 10.3645 14.1951 9.7897 14.7915C9.59807 14.9903 9.28154 14.9961 9.08272 14.8045C8.88388 14.6129 8.87805 14.2963 9.06967 14.0975C9.8194 13.3196 10.8553 12.8334 12.0032 12.8334C13.1511 12.8334 14.187 13.3196 14.9368 14.0975C15.1284 14.2963 15.1225 14.6129 14.9237 14.8045C14.7249 14.9961 14.4084 14.9903 14.2167 14.7915C13.6419 14.1951 12.8605 13.8334 12.0032 13.8334Z" fill="#000"/>
<path d="M12 15.625C11.5168 15.625 11.125 16.0168 11.125 16.5C11.125 16.9832 11.5168 17.375 12 17.375C12.4832 17.375 12.8751 16.9832 12.8751 16.5C12.8751 16.0168 12.4832 15.625 12 15.625Z" fill="#000"/>
<path fill-rule="evenodd" clip-rule="evenodd" d="M12.8646 1.60517C12.2973 1.46055 11.7027 1.46055 11.1354 1.60517C10.4918 1.76924 9.91495 2.18479 8.99475 2.84765L4.29916 6.22852C3.3906 6.88254 2.84889 7.27249 2.45262 7.78021C2.10205 8.22936 1.83997 8.741 1.68031 9.28794C1.49983 9.90619 1.49989 10.5737 1.50001 11.6931L1.50001 16.4224C1.50001 17.3835 1.50001 18.1355 1.54936 18.7395C1.59957 19.354 1.70335 19.8593 1.93598 20.3159C2.31948 21.0686 2.9314 21.6805 3.68405 22.064C4.14063 22.2966 4.64595 22.4004 5.2605 22.4506C5.86452 22.5 6.61647 22.5 7.57755 22.5H16.4225C17.3836 22.5 18.1355 22.5 18.7395 22.4506C19.3541 22.4004 19.8594 22.2966 20.316 22.064C21.0686 21.6805 21.6805 21.0686 22.064 20.3159C22.2967 19.8593 22.4005 19.354 22.4507 18.7395C22.5 18.1355 22.5 17.3835 22.5 16.4224L22.5 11.6931C22.5001 10.5737 22.5002 9.90619 22.3197 9.28794C22.16 8.741 21.898 8.22936 21.5474 7.78021C21.1511 7.27249 20.6094 6.88255 19.7009 6.22852L15.0053 2.84766C14.0851 2.1848 13.5082 1.76924 12.8646 1.60517ZM11.3824 2.57418C11.7877 2.47088 12.2123 2.47088 12.6176 2.57418C13.0542 2.6855 13.4693 2.97403 14.5125 3.72514L19.0474 6.99028C20.0461 7.70931 20.4615 8.01426 20.7591 8.39549C21.0318 8.74483 21.2356 9.14277 21.3598 9.56817C21.4953 10.0324 21.5 10.5477 21.5 11.7783V16.4C21.5 17.3883 21.4996 18.0995 21.454 18.658C21.4088 19.2108 21.3219 19.5698 21.173 19.8619C20.8854 20.4264 20.4265 20.8854 19.862 21.173C19.5699 21.3218 19.2108 21.4088 18.6581 21.4539C18.0995 21.4996 17.3884 21.5 16.4 21.5H7.60001C6.61167 21.5 5.90048 21.4996 5.34193 21.4539C4.78922 21.4088 4.43015 21.3218 4.13804 21.173C3.57355 20.8854 3.11461 20.4264 2.82699 19.8619C2.67815 19.5698 2.59119 19.2108 2.54604 18.658C2.5004 18.0995 2.50001 17.3883 2.50001 16.4V11.7783C2.50001 10.5477 2.50473 10.0324 2.64024 9.56817C2.76443 9.14277 2.96827 8.74483 3.24093 8.39549C3.53847 8.01426 3.95395 7.70931 4.9526 6.99028L9.48749 3.72514C10.5307 2.97403 10.9458 2.6855 11.3824 2.57418Z" fill="#000"/>
</svg>
