<svg width="24" height="24" viewBox="0 0 24 24" fill="none" xmlns="http://www.w3.org/2000/svg">
<path fill-rule="evenodd" clip-rule="evenodd" d="M11.1535 1.60624C11.7093 1.46768 12.2907 1.46768 12.8466 1.60624C13.4769 1.76337 14.0445 2.16083 14.9496 2.79469C14.9791 2.8154 15.0091 2.83636 15.0394 2.85757L19.8981 6.25871C19.9214 6.27497 19.9443 6.29105 19.9671 6.30696C20.7755 6.87273 21.2686 7.21777 21.6302 7.67228C21.95 8.07421 22.1894 8.53397 22.3352 9.02643C22.5002 9.58331 22.5001 10.1851 22.5 11.1719C22.5 11.1996 22.5 11.2277 22.5 11.256V17.2225C22.5 18.0438 22.5 18.6907 22.4575 19.2114C22.4141 19.7426 22.3239 20.1861 22.1185 20.5892C21.783 21.2478 21.2475 21.7832 20.589 22.1188C20.1859 22.3242 19.7423 22.4144 19.2111 22.4577C18.6905 22.5003 18.0435 22.5003 17.2222 22.5003H16.5807C16.3172 22.5003 16.0898 22.5003 15.9025 22.485C15.7048 22.4688 15.5082 22.4332 15.319 22.3368C15.0368 22.193 14.8073 21.9635 14.6635 21.6813C14.5671 21.4921 14.5314 21.2955 14.5153 21.0978C14.5 20.9105 14.5 20.6831 14.5 20.4196V16.4004C14.5 15.9721 14.4996 15.6809 14.4812 15.4559C14.4633 15.2367 14.4309 15.1246 14.391 15.0464C14.2951 14.8582 14.1422 14.7052 13.954 14.6093C13.8758 14.5695 13.7637 14.537 13.5445 14.5191C13.3195 14.5007 13.0283 14.5004 12.6 14.5004H11.4C10.9717 14.5004 10.6806 14.5007 10.4555 14.5191C10.2363 14.537 10.1242 14.5695 10.046 14.6093C9.85786 14.7052 9.70488 14.8582 9.60901 15.0464C9.56916 15.1246 9.5367 15.2367 9.51879 15.4559C9.5004 15.6809 9.50001 15.9721 9.50001 16.4004V20.4195C9.50002 20.6831 9.50003 20.9105 9.48473 21.0978C9.46858 21.2955 9.43292 21.4921 9.33652 21.6813C9.19271 21.9635 8.96324 22.193 8.681 22.3368C8.49181 22.4332 8.2952 22.4688 8.09753 22.485C7.91024 22.5003 7.68287 22.5003 7.4193 22.5003H6.7778C5.95653 22.5003 5.30956 22.5003 4.7889 22.4577C4.25773 22.4144 3.81415 22.3242 3.41105 22.1188C2.75248 21.7832 2.21705 21.2478 1.88149 20.5892C1.6761 20.1861 1.58595 19.7426 1.54255 19.2114C1.50001 18.6907 1.50001 18.0438 1.50001 17.2225L1.50001 11.256C1.50001 11.2277 1.50001 11.1996 1.50001 11.1718C1.49988 10.1851 1.4998 9.58331 1.66478 9.02643C1.81068 8.53397 2.05005 8.07421 2.36982 7.67228C2.73143 7.21777 3.22448 6.87274 4.03292 6.30698C4.05566 6.29107 4.07865 6.27498 4.10189 6.25871L8.96066 2.85757C8.99097 2.83636 9.0209 2.8154 9.05047 2.79469C9.95555 2.16083 10.5231 1.76337 11.1535 1.60624ZM12.6047 2.57655C12.2076 2.47758 11.7924 2.47758 11.3953 2.57655C10.9676 2.68318 10.5598 2.95886 9.53412 3.6768L4.67536 7.07794C3.77623 7.70733 3.41259 7.9678 3.15237 8.29487C2.91254 8.59632 2.73301 8.94114 2.62359 9.31048C2.50487 9.71122 2.50001 10.1585 2.50001 11.256V17.2003C2.50001 18.0486 2.5004 18.6548 2.53923 19.13C2.57757 19.5993 2.65091 19.8966 2.7725 20.1353C3.01218 20.6057 3.39463 20.9881 3.86504 21.2278C4.10367 21.3494 4.401 21.4227 4.87034 21.4611C5.34551 21.4999 5.95169 21.5003 6.80001 21.5003H7.40001C7.68829 21.5003 7.87443 21.4999 8.0161 21.4883C8.15193 21.4772 8.20229 21.4584 8.22701 21.4458C8.32109 21.3978 8.39758 21.3214 8.44552 21.2273C8.45811 21.2026 8.47695 21.1522 8.48805 21.0164C8.49963 20.8747 8.50001 20.6886 8.50001 20.4003V16.3797C8.50001 15.9772 8.5 15.645 8.52211 15.3744C8.54507 15.0934 8.59436 14.835 8.718 14.5924C8.90975 14.216 9.21571 13.9101 9.59203 13.7183C9.8347 13.5947 10.0931 13.5454 10.3741 13.5224C10.6447 13.5003 10.9769 13.5003 11.3794 13.5004H12.6207C13.0232 13.5003 13.3553 13.5003 13.6259 13.5224C13.907 13.5454 14.1653 13.5947 14.408 13.7183C14.7843 13.9101 15.0903 14.216 15.282 14.5924C15.4057 14.835 15.455 15.0934 15.4779 15.3744C15.5 15.645 15.5 15.9772 15.5 16.3797V20.4003C15.5 20.6886 15.5004 20.8747 15.512 21.0164C15.5231 21.1522 15.5419 21.2026 15.5545 21.2273C15.6024 21.3214 15.6789 21.3978 15.773 21.4458C15.7977 21.4584 15.8481 21.4772 15.9839 21.4883C16.1256 21.4999 16.3117 21.5003 16.6 21.5003H17.2C18.0483 21.5003 18.6545 21.4999 19.1297 21.4611C19.599 21.4227 19.8964 21.3494 20.135 21.2278C20.6054 20.9881 20.9878 20.6057 21.2275 20.1353C21.3491 19.8966 21.4225 19.5993 21.4608 19.13C21.4996 18.6548 21.5 18.0486 21.5 17.2003V11.256C21.5 10.1585 21.4952 9.71122 21.3764 9.31048C21.267 8.94114 21.0875 8.59632 20.8477 8.29487C20.5874 7.9678 20.2238 7.70733 19.3247 7.07794L14.4659 3.6768C13.4403 2.95885 13.0325 2.68318 12.6047 2.57655Z" fill="#000"/>
</svg>
