<svg width="24" height="24" viewBox="0 0 24 24" fill="none" xmlns="http://www.w3.org/2000/svg">
<path d="M14.8536 16.8535C14.6583 17.0487 14.3417 17.0487 14.1464 16.8535L12 14.7071L9.85357 16.8536C9.65831 17.0488 9.34172 17.0488 9.14646 16.8536C8.9512 16.6583 8.9512 16.3417 9.14646 16.1464L11.2929 14L9.14648 11.8535C8.95122 11.6582 8.95122 11.3417 9.14648 11.1464C9.34174 10.9511 9.65832 10.9511 9.85358 11.1464L12 13.2929L14.1464 11.1465C14.3417 10.9512 14.6583 10.9512 14.8535 11.1465C15.0488 11.3417 15.0488 11.6583 14.8535 11.8536L12.7072 14L14.8536 16.1464C15.0488 16.3416 15.0488 16.6582 14.8536 16.8535Z" fill="#000"/>
<path fill-rule="evenodd" clip-rule="evenodd" d="M11.1354 1.60517C11.7027 1.46055 12.2973 1.46055 12.8646 1.60517C13.5082 1.76924 14.0851 2.1848 15.0053 2.84766L19.7009 6.22852C20.6094 6.88255 21.1511 7.27249 21.5474 7.78021C21.898 8.22936 22.16 8.741 22.3197 9.28794C22.5002 9.90619 22.5001 10.5737 22.5 11.6931L22.5 16.4224C22.5 17.3835 22.5 18.1355 22.4507 18.7395C22.4005 19.354 22.2967 19.8593 22.064 20.3159C21.6805 21.0686 21.0686 21.6805 20.316 22.064C19.8594 22.2966 19.3541 22.4004 18.7395 22.4506C18.1355 22.5 17.3836 22.5 16.4225 22.5H7.57755C6.61647 22.5 5.86452 22.5 5.2605 22.4506C4.64595 22.4004 4.14063 22.2966 3.68405 22.064C2.9314 21.6805 2.31948 21.0686 1.93598 20.3159C1.70335 19.8593 1.59957 19.354 1.54936 18.7395C1.50001 18.1355 1.50001 17.3835 1.50001 16.4224L1.50001 11.6931C1.49989 10.5737 1.49983 9.90619 1.68031 9.28794C1.83997 8.741 2.10205 8.22936 2.45262 7.78021C2.84889 7.27249 3.3906 6.88254 4.29916 6.22852L8.99475 2.84766C9.91495 2.1848 10.4918 1.76924 11.1354 1.60517ZM12.6176 2.57418C12.2123 2.47088 11.7877 2.47088 11.3824 2.57418C10.9458 2.6855 10.5307 2.97403 9.48749 3.72514L4.9526 6.99028C3.95395 7.70931 3.53847 8.01426 3.24093 8.39549C2.96827 8.74483 2.76443 9.14277 2.64024 9.56817C2.50473 10.0324 2.50001 10.5477 2.50001 11.7783V16.4C2.50001 17.3883 2.5004 18.0995 2.54604 18.658C2.59119 19.2108 2.67815 19.5698 2.82699 19.8619C3.11461 20.4264 3.57355 20.8854 4.13804 21.173C4.43015 21.3218 4.78922 21.4088 5.34193 21.4539C5.90048 21.4996 6.61167 21.5 7.60001 21.5H16.4C17.3884 21.5 18.0995 21.4996 18.6581 21.4539C19.2108 21.4088 19.5699 21.3218 19.862 21.173C20.4265 20.8854 20.8854 20.4264 21.173 19.8619C21.3219 19.5698 21.4088 19.2108 21.454 18.658C21.4996 18.0995 21.5 17.3883 21.5 16.4V11.7783C21.5 10.5477 21.4953 10.0324 21.3598 9.56817C21.2356 9.14277 21.0318 8.74483 20.7591 8.39549C20.4615 8.01426 20.0461 7.70931 19.0474 6.99028L14.5125 3.72514C13.4693 2.97403 13.0542 2.6855 12.6176 2.57418Z" fill="#000"/>
</svg>
