<svg width="24" height="24" viewBox="0 0 24 24" fill="none" xmlns="http://www.w3.org/2000/svg">
<path d="M9.29582 15.5969C9.0732 15.4335 8.76028 15.4815 8.59689 15.7041C8.4335 15.9267 8.48151 16.2397 8.70413 16.4031C10.6968 17.8656 13.3031 17.8656 15.2958 16.4031C15.5184 16.2397 15.5664 15.9267 15.4031 15.7041C15.2397 15.4815 14.9267 15.4335 14.7041 15.5969C13.0635 16.801 10.9364 16.801 9.29582 15.5969Z" fill="#000"/>
<path fill-rule="evenodd" clip-rule="evenodd" d="M12.8646 1.60523C12.2973 1.46061 11.7027 1.46061 11.1354 1.60523C10.4918 1.7693 9.91495 2.18486 8.99475 2.84772L4.29916 6.22858C3.3906 6.88261 2.84889 7.27255 2.45262 7.78027C2.10205 8.22942 1.83997 8.74106 1.68031 9.288C1.49983 9.90625 1.49989 10.5737 1.50001 11.6932L1.50001 16.4225C1.50001 17.3836 1.50001 18.1355 1.54936 18.7395C1.59957 19.3541 1.70335 19.8594 1.93598 20.316C2.31948 21.0686 2.9314 21.6806 3.68405 22.0641C4.14063 22.2967 4.64595 22.4005 5.2605 22.4507C5.86452 22.5 6.61647 22.5 7.57755 22.5H16.4225C17.3836 22.5 18.1355 22.5 18.7395 22.4507C19.3541 22.4005 19.8594 22.2967 20.316 22.0641C21.0686 21.6806 21.6805 21.0686 22.064 20.316C22.2967 19.8594 22.4005 19.3541 22.4507 18.7395C22.5 18.1355 22.5 17.3836 22.5 16.4225L22.5 11.6932C22.5001 10.5737 22.5002 9.90625 22.3197 9.288C22.16 8.74106 21.898 8.22942 21.5474 7.78027C21.1511 7.27256 20.6094 6.88261 19.7009 6.22858L15.0053 2.84772C14.0851 2.18486 13.5082 1.7693 12.8646 1.60523ZM11.3824 2.57424C11.7877 2.47094 12.2123 2.47094 12.6176 2.57424C13.0542 2.68556 13.4693 2.97409 14.5125 3.7252L19.0474 6.99034C20.0461 7.70937 20.4615 8.01433 20.7591 8.39555C21.0318 8.74489 21.2356 9.14283 21.3598 9.56823C21.4953 10.0324 21.5 10.5478 21.5 11.7784V16.4C21.5 17.3884 21.4996 18.0996 21.454 18.6581C21.4088 19.2108 21.3219 19.5699 21.173 19.862C20.8854 20.4265 20.4265 20.8854 19.862 21.173C19.5699 21.3219 19.2108 21.4088 18.6581 21.454C18.0995 21.4996 17.3884 21.5 16.4 21.5H7.60001C6.61167 21.5 5.90048 21.4996 5.34193 21.454C4.78922 21.4088 4.43015 21.3219 4.13804 21.173C3.57355 20.8854 3.11461 20.4265 2.82699 19.862C2.67815 19.5699 2.59119 19.2108 2.54604 18.6581C2.5004 18.0996 2.50001 17.3884 2.50001 16.4V11.7784C2.50001 10.5478 2.50473 10.0324 2.64024 9.56823C2.76443 9.14283 2.96827 8.74489 3.24093 8.39555C3.53847 8.01433 3.95395 7.70937 4.9526 6.99034L9.48749 3.7252C10.5307 2.97409 10.9458 2.68556 11.3824 2.57424Z" fill="#000"/>
</svg>
