<svg width="24" height="24" viewBox="0 0 24 24" fill="none" xmlns="http://www.w3.org/2000/svg">
<path d="M19.9999 21.5C19.7238 21.5 19.4999 21.2761 19.4999 21L19.4999 15.2071L17.3535 17.3536C17.1582 17.5488 16.8416 17.5488 16.6464 17.3536C16.4511 17.1583 16.4511 16.8417 16.6464 16.6464L19.6464 13.6464C19.7402 13.5527 19.8673 13.5 19.9999 13.5C20.1325 13.5 20.2597 13.5527 20.3535 13.6464L23.3535 16.6464C23.5488 16.8417 23.5488 17.1583 23.3535 17.3536C23.1582 17.5488 22.8417 17.5488 22.6464 17.3536L20.4999 15.2071L20.4999 21C20.4999 21.2761 20.2761 21.5 19.9999 21.5Z" fill="#000"/>
<path d="M16.4224 2.5L6.57749 2.5C5.6164 2.5 4.86445 2.5 4.26043 2.54935C3.64588 2.59956 3.14056 2.70334 2.68398 2.93597C1.93133 3.31947 1.31941 3.93139 0.935913 4.68404C0.703274 5.14062 0.599495 5.64594 0.549284 6.26049C0.499935 6.86448 0.499937 7.61637 0.499939 8.57738L0.49994 14.4224C0.499936 15.3835 0.499935 16.1355 0.549285 16.7395C0.599496 17.3541 0.703275 17.8594 0.935914 18.316L0.953145 18.3494L0.957059 18.3569C1.34171 19.0908 1.94501 19.6875 2.68398 20.064C3.14056 20.2967 3.64588 20.4004 4.26043 20.4507C4.86445 20.5 5.61639 20.5 6.57748 20.5H13.1658C13.442 20.5 13.6658 20.2761 13.6658 20C13.6658 19.7239 13.442 19.5 13.1658 19.5H6.59994C5.6116 19.5 4.90041 19.4996 4.34186 19.454C3.78915 19.4088 3.43008 19.3219 3.13797 19.173C2.69069 18.9451 2.30968 18.6097 2.02765 18.1994L6.16543 14.0609C6.3607 13.8656 6.67734 13.8656 6.87261 14.0609L8.64557 15.8343C8.73934 15.9281 8.86652 15.9808 8.99913 15.9808C9.13175 15.9808 9.25894 15.9282 9.35271 15.8344L15.6464 9.54097C15.8417 9.34572 16.1582 9.34572 16.3535 9.54098L17.9027 11.0902C18.098 11.2854 18.4145 11.2854 18.6098 11.0902C18.8051 10.8949 18.8051 10.5783 18.6098 10.3831L17.0606 8.83387C16.4748 8.24809 15.5251 8.24808 14.9393 8.83385L8.99922 14.7737L7.5798 13.3539C6.994 12.768 6.04409 12.768 5.45826 13.3539L1.61427 17.1985C1.5851 17.0406 1.56267 16.8626 1.54596 16.6581C1.50033 16.0995 1.49994 15.3883 1.49994 14.4L1.49994 8.6C1.49994 7.61166 1.50033 6.90047 1.54596 6.34192C1.59112 5.78921 1.67808 5.43014 1.82692 5.13803C2.11454 4.57354 2.57348 4.1146 3.13797 3.82698C3.43008 3.67814 3.78915 3.59118 4.34186 3.54603C4.90041 3.50039 5.6116 3.5 6.59994 3.5L16.3999 3.5C17.3883 3.5 18.0995 3.50039 18.658 3.54602C19.2107 3.59118 19.5698 3.67814 19.8619 3.82698C20.4264 4.1146 20.8853 4.57354 21.173 5.13803C21.3218 5.43014 21.4088 5.78921 21.4539 6.34192C21.4995 6.90047 21.4999 7.61166 21.4999 8.6V10.548C21.4999 10.8241 21.7238 11.048 21.9999 11.048C22.2761 11.048 22.4999 10.8241 22.4999 10.548V8.57754C22.4999 7.61646 22.4999 6.86451 22.4506 6.26049C22.4004 5.64594 22.2966 5.14062 22.064 4.68404C21.6805 3.93139 21.0685 3.31947 20.3159 2.93597C19.8593 2.70334 19.354 2.59956 18.7394 2.54935C18.1355 2.5 17.3834 2.5 16.4224 2.5Z" fill="#000"/>
<path fill-rule="evenodd" clip-rule="evenodd" d="M6.99994 6.5C5.89537 6.5 4.99994 7.39543 4.99994 8.5C4.99994 9.60457 5.89537 10.5 6.99994 10.5C8.10451 10.5 8.99994 9.60457 8.99994 8.5C8.99994 7.39543 8.10451 6.5 6.99994 6.5ZM5.99994 8.5C5.99994 7.94772 6.44765 7.5 6.99994 7.5C7.55222 7.5 7.99994 7.94772 7.99994 8.5C7.99994 9.05229 7.55222 9.5 6.99994 9.5C6.44765 9.5 5.99994 9.05229 5.99994 8.5Z" fill="#000"/>
</svg>
