<svg width="24" height="24" viewBox="0 0 24 24" fill="none" xmlns="http://www.w3.org/2000/svg">
<path d="M16.4224 2.5H6.57755C5.61647 2.5 4.86451 2.49999 4.26049 2.54935C3.64594 2.59956 3.14062 2.70334 2.68404 2.93597C1.93139 3.31947 1.31947 3.93139 0.935974 4.68404C0.703335 5.14062 0.599556 5.64594 0.549345 6.26049C0.499995 6.86451 0.499997 7.61646 0.5 8.57755V14.4224C0.499997 15.3835 0.499995 16.1355 0.549345 16.7395C0.599556 17.3541 0.703335 17.8594 0.935974 18.316L0.953205 18.3494L0.957119 18.3569C1.34177 19.0908 1.94507 19.6875 2.68404 20.064C3.14062 20.2967 3.64594 20.4004 4.26049 20.4507C4.86451 20.5 5.61646 20.5 6.57754 20.5H13.1659C13.442 20.5 13.6659 20.2761 13.6659 20C13.6659 19.7239 13.442 19.5 13.1659 19.5H6.6C5.61166 19.5 4.90047 19.4996 4.34192 19.454C3.78921 19.4088 3.43014 19.3219 3.13803 19.173C2.69075 18.9451 2.30974 18.6097 2.02771 18.1994L6.16549 14.0609C6.36076 13.8656 6.6774 13.8656 6.87267 14.0609L8.64563 15.8343C8.7394 15.9281 8.86658 15.9808 8.99919 15.9808C9.13181 15.9808 9.259 15.9282 9.35277 15.8344L15.6465 9.54097C15.8417 9.34572 16.1583 9.34572 16.3536 9.54098L17.9028 11.0902C18.098 11.2854 18.4146 11.2854 18.6099 11.0902C18.8051 10.8949 18.8051 10.5783 18.6099 10.3831L17.0607 8.83387C16.4749 8.24809 15.5252 8.24808 14.9394 8.83385L8.99928 14.7737L7.57986 13.3539C6.99406 12.768 6.04415 12.768 5.45833 13.3539L1.61433 17.1985C1.58516 17.0406 1.56273 16.8626 1.54602 16.6581C1.50039 16.0995 1.5 15.3883 1.5 14.4V8.6C1.5 7.61166 1.50039 6.90047 1.54602 6.34192C1.59118 5.78921 1.67814 5.43014 1.82698 5.13803C2.1146 4.57354 2.57354 4.1146 3.13803 3.82698C3.43014 3.67814 3.78921 3.59118 4.34192 3.54602C4.90047 3.50039 5.61166 3.5 6.6 3.5H16.4C17.3883 3.5 18.0995 3.50039 18.6581 3.54602C19.2108 3.59118 19.5699 3.67814 19.862 3.82698C20.4265 4.1146 20.8854 4.57354 21.173 5.13803C21.3219 5.43014 21.4088 5.78921 21.454 6.34192C21.4996 6.90047 21.5 7.61166 21.5 8.6V10.548C21.5 10.8241 21.7239 11.048 22 11.048C22.2761 11.048 22.5 10.8241 22.5 10.548V8.57754C22.5 7.61646 22.5 6.86451 22.4507 6.26049C22.4004 5.64594 22.2967 5.14062 22.064 4.68404C21.6805 3.93139 21.0686 3.31947 20.316 2.93597C19.8594 2.70334 19.3541 2.59956 18.7395 2.54935C18.1355 2.49999 17.3835 2.5 16.4224 2.5Z" fill="#000"/>
<path fill-rule="evenodd" clip-rule="evenodd" d="M7 6.5C5.89543 6.5 5 7.39543 5 8.5C5 9.60457 5.89543 10.5 7 10.5C8.10457 10.5 9 9.60457 9 8.5C9 7.39543 8.10457 6.5 7 6.5ZM6 8.5C6 7.94772 6.44772 7.5 7 7.5C7.55228 7.5 8 7.94772 8 8.5C8 9.05228 7.55228 9.5 7 9.5C6.44772 9.5 6 9.05228 6 8.5Z" fill="#000"/>
<path d="M20 13.5C20.2761 13.5 20.5 13.7239 20.5 14V19.7929L22.6464 17.6464C22.8417 17.4512 23.1583 17.4512 23.3536 17.6464C23.5488 17.8417 23.5488 18.1583 23.3536 18.3536L20.3536 21.3536C20.2598 21.4473 20.1326 21.5 20 21.5C19.8674 21.5 19.7402 21.4473 19.6464 21.3536L16.6464 18.3536C16.4512 18.1583 16.4512 17.8417 16.6464 17.6464C16.8417 17.4512 17.1583 17.4512 17.3536 17.6464L19.5 19.7929V14C19.5 13.7239 19.7239 13.5 20 13.5Z" fill="#000"/>
</svg>
