<svg width="24" height="24" viewBox="0 0 24 24" fill="none" xmlns="http://www.w3.org/2000/svg">
<path d="M6.57755 3H16.4224C17.3835 3 18.1355 2.99999 18.7395 3.04935C19.3541 3.09956 19.8594 3.20334 20.316 3.43597C21.0686 3.81947 21.6805 4.43139 22.064 5.18404C22.2967 5.64062 22.4004 6.14594 22.4507 6.76049C22.5 7.36451 22.5 8.11646 22.5 9.07754V12.048C22.5 12.3241 22.2761 12.548 22 12.548C21.7239 12.548 21.5 12.3241 21.5 12.048V9.1C21.5 8.11166 21.4996 7.40047 21.454 6.84192C21.4088 6.28921 21.3219 5.93014 21.173 5.63803C20.8854 5.07354 20.4265 4.6146 19.862 4.32698C19.5699 4.17814 19.2108 4.09118 18.6581 4.04602C18.0995 4.00039 17.3883 4 16.4 4H6.6C5.61166 4 4.90047 4.00039 4.34192 4.04602C3.78921 4.09118 3.43014 4.17814 3.13803 4.32698C2.57354 4.6146 2.1146 5.07354 1.82698 5.63803C1.67814 5.93014 1.59118 6.28921 1.54602 6.84192C1.50039 7.40047 1.5 8.11166 1.5 9.1V14.9C1.5 15.8883 1.50039 16.5995 1.54602 17.1581C1.56273 17.3626 1.58516 17.5406 1.61433 17.6985L5.45833 13.8539C6.04415 13.268 6.99406 13.268 7.57986 13.8539L8.99928 15.2737L14.9394 9.33385C15.5252 8.74808 16.4749 8.74809 17.0607 9.33387L19.4101 11.6833C19.6054 11.8786 19.6054 12.1952 19.4101 12.3904C19.2149 12.5857 18.8983 12.5857 18.703 12.3904L16.3536 10.041C16.1583 9.84572 15.8417 9.84572 15.6465 10.041L9.35277 16.3344C9.259 16.4282 9.13181 16.4808 8.99919 16.4808C8.86658 16.4808 8.7394 16.4281 8.64563 16.3343L6.87267 14.5609C6.6774 14.3656 6.36076 14.3656 6.16549 14.5609L2.02771 18.6994C2.30974 19.1097 2.69075 19.4451 3.13803 19.673C3.43014 19.8219 3.78921 19.9088 4.34192 19.954C4.90047 19.9996 5.61166 20 6.6 20H12.9652C13.2413 20 13.4652 20.2239 13.4652 20.5C13.4652 20.7761 13.2413 21 12.9652 21H6.57754C5.61646 21 4.86451 21 4.26049 20.9507C3.64594 20.9004 3.14062 20.7967 2.68404 20.564C1.94507 20.1875 1.34177 19.5908 0.957119 18.8569L0.953205 18.8494L0.935974 18.816C0.703335 18.3594 0.599556 17.8541 0.549345 17.2395C0.499995 16.6355 0.499997 15.8835 0.5 14.9225V9.07756C0.499997 8.11647 0.499995 7.36451 0.549345 6.76049C0.599556 6.14594 0.703335 5.64062 0.935974 5.18404C1.31947 4.43139 1.93139 3.81947 2.68404 3.43597C3.14062 3.20334 3.64594 3.09956 4.26049 3.04935C4.86451 2.99999 5.61647 3 6.57755 3Z" fill="#000"/>
<path fill-rule="evenodd" clip-rule="evenodd" d="M5 9C5 7.89543 5.89543 7 7 7C8.10457 7 9 7.89543 9 9C9 10.1046 8.10457 11 7 11C5.89543 11 5 10.1046 5 9ZM7 8C6.44772 8 6 8.44772 6 9C6 9.55228 6.44772 10 7 10C7.55228 10 8 9.55228 8 9C8 8.44772 7.55228 8 7 8Z" fill="#000"/>
<path d="M23 19C23.2761 19 23.5 18.7761 23.5 18.5C23.5 18.2239 23.2761 18 23 18H17C16.7239 18 16.5 18.2239 16.5 18.5C16.5 18.7761 16.7239 19 17 19H23Z" fill="#000"/>
</svg>
