<svg width="24" height="24" viewBox="0 0 24 24" fill="none" xmlns="http://www.w3.org/2000/svg">
<path fill-rule="evenodd" clip-rule="evenodd" d="M7.5 7C6.39543 7 5.5 7.89543 5.5 9C5.5 10.1046 6.39543 11 7.5 11C8.60457 11 9.5 10.1046 9.5 9C9.5 7.89543 8.60457 7 7.5 7ZM6.5 9C6.5 8.44772 6.94772 8 7.5 8C8.05228 8 8.5 8.44772 8.5 9C8.5 9.55228 8.05228 10 7.5 10C6.94772 10 6.5 9.55228 6.5 9Z" fill="#000"/>
<path fill-rule="evenodd" clip-rule="evenodd" d="M7.07755 3H16.9224C17.8835 3 18.6355 2.99999 19.2395 3.04935C19.8541 3.09956 20.3594 3.20334 20.816 3.43597C21.5686 3.81947 22.1805 4.43139 22.564 5.18404C22.7967 5.64062 22.9004 6.14594 22.9507 6.76049C23 7.36451 23 8.11646 23 9.07754V14.9668L23.0002 14.9805C23.0002 15.9263 22.9992 16.6679 22.9487 17.2651C22.8977 17.8681 22.7937 18.3657 22.5642 18.8161C22.1807 19.5687 21.5688 20.1806 20.8162 20.5641C20.3596 20.7968 19.8542 20.9006 19.2397 20.9508C18.6357 21.0001 17.8838 21.0001 16.9228 21.0001H7.07773C6.11672 21.0001 5.36466 21.0001 4.76068 20.9508C4.14613 20.9006 3.64081 20.7968 3.18423 20.5641C3.09014 20.5162 2.99807 20.4646 2.90856 20.4097C2.28198 20.0254 1.77153 19.4745 1.43597 18.816C1.20334 18.3594 1.09956 17.8541 1.04935 17.2395C0.999995 16.6355 0.999997 15.8835 1 14.9224V9.07756C0.999997 8.11647 0.999995 7.36451 1.04935 6.76049C1.09956 6.14594 1.20334 5.64062 1.43597 5.18404C1.81947 4.43139 2.43139 3.81947 3.18404 3.43597C3.64062 3.20334 4.14594 3.09956 4.76049 3.04935C5.36451 2.99999 6.11646 3 7.07755 3ZM22 9.1V13.7732L17.5607 9.33387C16.9749 8.74809 16.0252 8.74808 15.4394 9.33385L9.49928 15.2737L8.07986 13.8539C7.49406 13.268 6.54415 13.268 5.95832 13.8539L2.11433 17.6985C2.08516 17.5406 2.06273 17.3626 2.04602 17.1581C2.00039 16.5995 2 15.8883 2 14.9V9.1C2 8.11166 2.00039 7.40047 2.04602 6.84192C2.09118 6.28921 2.17814 5.93014 2.32698 5.63803C2.6146 5.07354 3.07354 4.6146 3.63803 4.32698C3.93014 4.17814 4.28921 4.09118 4.84192 4.04602C5.40047 4.00039 6.11166 4 7.1 4H16.9C17.8883 4 18.5995 4.00039 19.1581 4.04602C19.7108 4.09118 20.0699 4.17814 20.362 4.32698C20.9265 4.6146 21.3854 5.07354 21.673 5.63803C21.8219 5.93014 21.9088 6.28921 21.954 6.84192C21.9996 7.40047 22 8.11166 22 9.1ZM3.63803 19.673C3.53235 19.6192 3.43037 19.5593 3.33252 19.4939C3.01625 19.2824 2.74315 19.0127 2.52778 18.6993L6.66549 14.5609C6.86076 14.3656 7.1774 14.3656 7.37266 14.5609L9.14563 16.3343C9.23939 16.4281 9.36657 16.4808 9.49919 16.4808C9.63181 16.4808 9.759 16.4282 9.85277 16.3344L16.1465 10.041C16.3417 9.84572 16.6583 9.84572 16.8536 10.041L21.9999 15.1874C21.9995 16.0286 21.9951 16.6552 21.954 17.1581C21.9088 17.7108 21.8219 18.0699 21.673 18.362C21.3854 18.9265 20.9265 19.3854 20.362 19.673C20.0699 19.8219 19.7108 19.9088 19.1581 19.954C18.5995 19.9996 17.8883 20 16.9 20H7.1C6.11166 20 5.40047 19.9996 4.84192 19.954C4.28921 19.9088 3.93014 19.8219 3.63803 19.673Z" fill="#000"/>
</svg>
