<svg width="24" height="24" viewBox="0 0 24 24" fill="none" xmlns="http://www.w3.org/2000/svg">
<path d="M6.57755 2.5H16.4224C17.3835 2.5 18.1355 2.49999 18.7395 2.54935C19.3541 2.59956 19.8594 2.70334 20.316 2.93597C21.0686 3.31947 21.6805 3.93139 22.064 4.68404C22.2967 5.14062 22.4004 5.64594 22.4507 6.26049C22.5 6.86451 22.5 7.61646 22.5 8.57754V11.8208C22.5 12.0969 22.2761 12.3208 22 12.3208C21.7239 12.3208 21.5 12.0969 21.5 11.8208V8.6C21.5 7.61166 21.4996 6.90047 21.454 6.34192C21.4088 5.78921 21.3219 5.43014 21.173 5.13803C20.8854 4.57354 20.4265 4.1146 19.862 3.82698C19.5699 3.67814 19.2108 3.59118 18.6581 3.54602C18.0995 3.50039 17.3883 3.5 16.4 3.5H6.6C5.61166 3.5 4.90047 3.50039 4.34192 3.54602C3.78921 3.59118 3.43014 3.67814 3.13803 3.82698C2.57354 4.1146 2.1146 4.57354 1.82698 5.13803C1.67814 5.43014 1.59118 5.78921 1.54602 6.34192C1.50039 6.90047 1.5 7.61166 1.5 8.6V14.4C1.5 15.3883 1.50039 16.0995 1.54602 16.6581C1.56273 16.8626 1.58516 17.0406 1.61433 17.1985L5.45833 13.3539C6.04415 12.768 6.99406 12.768 7.57986 13.3539L8.99928 14.7737L14.9394 8.83385C15.5252 8.24808 16.4749 8.24809 17.0607 8.83387L19.2936 11.0668C19.4888 11.262 19.4888 11.5786 19.2936 11.7739C19.0983 11.9691 18.7817 11.9691 18.5864 11.7739L16.3536 9.54098C16.1583 9.34572 15.8417 9.34572 15.6465 9.54097L9.35277 15.8344C9.259 15.9282 9.13181 15.9808 8.99919 15.9808C8.86658 15.9808 8.7394 15.9281 8.64563 15.8343L6.87267 14.0609C6.6774 13.8656 6.36076 13.8656 6.16549 14.0609L2.02771 18.1994C2.30974 18.6097 2.69075 18.9451 3.13803 19.173C3.43014 19.3219 3.78921 19.4088 4.34192 19.454C4.90047 19.4996 5.61166 19.5 6.6 19.5H11.9652C12.2413 19.5 12.4652 19.7239 12.4652 20C12.4652 20.2761 12.2413 20.5 11.9652 20.5H6.57754C5.61646 20.5 4.86451 20.5 4.26049 20.4507C3.64594 20.4004 3.14062 20.2967 2.68404 20.064C1.94507 19.6875 1.34177 19.0908 0.957119 18.3569L0.953205 18.3494L0.935974 18.316C0.703335 17.8594 0.599556 17.3541 0.549345 16.7395C0.499995 16.1355 0.499997 15.3835 0.5 14.4225V8.57756C0.499997 7.61647 0.499995 6.86451 0.549345 6.26049C0.599556 5.64594 0.703335 5.14062 0.935974 4.68404C1.31947 3.93139 1.93139 3.31947 2.68404 2.93597C3.14062 2.70334 3.64594 2.59956 4.26049 2.54935C4.86451 2.49999 5.61647 2.5 6.57755 2.5Z" fill="#000"/>
<path fill-rule="evenodd" clip-rule="evenodd" d="M5 8.5C5 7.39543 5.89543 6.5 7 6.5C8.10457 6.5 9 7.39543 9 8.5C9 9.60457 8.10457 10.5 7 10.5C5.89543 10.5 5 9.60457 5 8.5ZM7 7.5C6.44772 7.5 6 7.94772 6 8.5C6 9.05228 6.44772 9.5 7 9.5C7.55228 9.5 8 9.05228 8 8.5C8 7.94772 7.55228 7.5 7 7.5Z" fill="#000"/>
<path d="M23.3536 16.8536C23.5488 16.6583 23.5488 16.3417 23.3536 16.1464C23.1583 15.9512 22.8417 15.9512 22.6464 16.1464L18.5 20.2929L16.3536 18.1464C16.1583 17.9512 15.8417 17.9512 15.6464 18.1464C15.4512 18.3417 15.4512 18.6583 15.6464 18.8536L18.1464 21.3536C18.3417 21.5488 18.6583 21.5488 18.8536 21.3536L23.3536 16.8536Z" fill="#000"/>
</svg>
