<svg width="24" height="24" viewBox="0 0 24 24" fill="none" xmlns="http://www.w3.org/2000/svg">
<path fill-rule="evenodd" clip-rule="evenodd" d="M7.50289 2.50002C6.65523 2.49977 6.10197 2.49961 5.60792 2.67759C5.17225 2.83454 4.77882 3.09022 4.45846 3.4246C4.09517 3.80379 3.87061 4.30942 3.52657 5.08412L0.739376 11.3553C0.67229 11.5062 0.621539 11.6203 0.585105 11.7412C0.5529 11.848 0.529694 11.9574 0.51573 12.0681C0.499931 12.1933 0.499963 12.3182 0.500004 12.4833L0.500008 16.2222C0.500005 17.0435 0.500002 17.6905 0.542542 18.2111C0.58594 18.7423 0.676095 19.1859 0.881486 19.589C1.21704 20.2476 1.75247 20.783 2.41104 21.1186C2.81414 21.3239 3.25772 21.4141 3.7889 21.4575C4.30955 21.5 4.95652 21.5 5.77779 21.5H18.2222C19.0435 21.5 19.6905 21.5 20.2111 21.4575C20.7423 21.4141 21.1859 21.3239 21.589 21.1186C22.2475 20.783 22.783 20.2476 23.1185 19.589C23.3239 19.1859 23.4141 18.7423 23.4575 18.2111C23.5 17.6905 23.5 17.0435 23.5 16.2223L23.5 12.4833C23.5001 12.3182 23.5001 12.1933 23.4843 12.0681C23.4703 11.9574 23.4471 11.848 23.4149 11.7412C23.3785 11.6203 23.3277 11.5062 23.2607 11.3554L20.4735 5.08414C20.1294 4.30943 19.9049 3.80379 19.5416 3.4246C19.2212 3.09022 18.8278 2.83454 18.3921 2.67759C17.898 2.49961 17.3448 2.49977 16.4971 2.50002H7.50289ZM5.94685 3.61841C6.25574 3.50713 6.62035 3.50004 7.5995 3.50004H16.4005C17.3797 3.50004 17.7443 3.50713 18.0532 3.61841C18.3436 3.72304 18.6059 3.89349 18.8195 4.11641C19.0466 4.35349 19.2012 4.68379 19.5989 5.57855L22.3363 11.7377C22.4035 11.889 22.4311 11.9527 22.4478 12H17.0662C16.5393 12 16.0511 12.2765 15.78 12.7283L14.8626 14.2573C14.7722 14.4079 14.6095 14.5 14.4338 14.5H9.56621C9.39057 14.5 9.22782 14.4079 9.13746 14.2573L8.22006 12.7283C7.94898 12.2765 7.46072 12 6.93383 12H1.55226C1.56888 11.9527 1.59651 11.889 1.66377 11.7377L4.40116 5.57855C4.79883 4.68379 4.9534 4.35349 5.18054 4.11641C5.39411 3.89349 5.6564 3.72304 5.94685 3.61841ZM1.50002 13L1.50001 16.2C1.50001 17.0484 1.5004 17.6545 1.53922 18.1297C1.57757 18.5991 1.6509 18.8964 1.77249 19.135C2.01218 19.6054 2.39463 19.9879 2.86503 20.2276C3.10367 20.3491 3.40099 20.4225 3.87033 20.4608C4.3455 20.4996 4.95168 20.5 5.80001 20.5H18.2C19.0483 20.5 19.6545 20.4996 20.1297 20.4608C20.599 20.4225 20.8964 20.3491 21.135 20.2276C21.6054 19.9879 21.9878 19.6054 22.2275 19.135C22.3491 18.8964 22.4224 18.5991 22.4608 18.1297C22.4996 17.6545 22.5 17.0484 22.5 16.2L22.5 13H17.0662C16.8906 13 16.7278 13.0922 16.6375 13.2428L15.7201 14.7718C15.449 15.2236 14.9607 15.5 14.4338 15.5H9.56621C9.03931 15.5 8.55105 15.2236 8.27997 14.7718L7.36257 13.2428C7.27221 13.0922 7.10946 13 6.93383 13H1.50002Z" fill="#000"/>
</svg>
