<svg width="24" height="24" viewBox="0 0 24 24" fill="none" xmlns="http://www.w3.org/2000/svg">
<path d="M11.125 7.5C11.125 7.01675 11.5168 6.625 12 6.625C12.4832 6.625 12.8751 7.01675 12.8751 7.5C12.8751 7.98325 12.4833 8.375 12.0001 8.375C11.5169 8.375 11.125 7.98325 11.125 7.5Z" fill="#000"/>
<path d="M10.5 10.5C10.2239 10.5 10 10.7239 10 11C10 11.2761 10.2239 11.5 10.5 11.5L11.5 11.5L11.5 17C11.5 17.2761 11.7239 17.5 12 17.5C12.2762 17.5 12.5 17.2761 12.5 17L12.5 11C12.5 10.7239 12.2761 10.5 12 10.5L10.5 10.5Z" fill="#000"/>
<path fill-rule="evenodd" clip-rule="evenodd" d="M0.5 12C0.5 5.64873 5.64873 0.5 12 0.5C18.3513 0.5 23.5 5.64873 23.5 12C23.5 18.3513 18.3513 23.5 12 23.5C5.64873 23.5 0.5 18.3513 0.5 12ZM12 1.5C6.20101 1.5 1.5 6.20101 1.5 12C1.5 17.799 6.20101 22.5 12 22.5C17.799 22.5 22.5 17.799 22.5 12C22.5 6.20101 17.799 1.5 12 1.5Z" fill="#000"/>
</svg>
