<svg width="24" height="24" viewBox="0 0 24 24" fill="none" xmlns="http://www.w3.org/2000/svg">
<path d="M11.0757 10.9061C11.6694 10.6698 12.331 10.6698 12.9246 10.9061L15.1472 11.7907C15.4038 11.8928 15.6946 11.7676 15.7967 11.5111C15.8988 11.2545 15.7736 10.9637 15.517 10.8616L13.2944 9.97698C12.4633 9.64619 11.537 9.64618 10.7059 9.97697L8.4832 10.8616C8.22663 10.9637 8.10142 11.2545 8.20354 11.511C8.30565 11.7676 8.59642 11.8928 8.85299 11.7907L11.0757 10.9061Z" fill="#000"/>
<path fill-rule="evenodd" clip-rule="evenodd" d="M1.50007 10.4939C1.49981 10.4847 1.49981 10.4755 1.50007 10.4664L1.50005 8.36229C1.49979 7.48027 1.49962 6.90478 1.68986 6.39567C1.85755 5.9469 2.13028 5.54481 2.48523 5.22305C2.88791 4.85804 3.42268 4.64539 4.24227 4.31948L10.0978 1.98904C10.6987 1.74977 11.0764 1.59938 11.4719 1.53899C11.8221 1.48554 12.1783 1.48554 12.5285 1.539C12.924 1.59939 13.3017 1.74979 13.9027 1.98906L19.7579 4.31946C20.5775 4.64538 21.1123 4.85803 21.5149 5.22305C21.8699 5.54481 22.1426 5.94689 22.3103 6.39566C22.5005 6.90477 22.5004 7.48026 22.5001 8.36227L22.5001 10.4714C22.5002 10.4772 22.5002 10.4831 22.5001 10.4889V13.9714C22.5002 13.9772 22.5002 13.9831 22.5001 13.9889L22.5001 15.6378C22.5004 16.5198 22.5005 17.0953 22.3103 17.6044C22.1426 18.0532 21.8699 18.4552 21.5149 18.777C21.1122 19.142 20.5775 19.3547 19.7579 19.6806L13.9027 22.011C13.3017 22.2502 12.924 22.4006 12.5285 22.461C12.1783 22.5145 11.8221 22.5145 11.472 22.461C11.0764 22.4007 10.6987 22.2503 10.0978 22.011L4.2423 19.6806C3.42271 19.3547 2.88791 19.142 2.48524 18.777C2.13028 18.4552 1.85755 18.0532 1.68986 17.6044C1.49962 17.0953 1.49979 16.5198 1.50005 15.6378L1.50007 13.9939C1.49981 13.9847 1.49981 13.9755 1.50007 13.9664V10.4939ZM12.3775 2.52754C12.1274 2.48936 11.873 2.48935 11.6229 2.52754C11.3539 2.5686 11.0872 2.67156 10.4101 2.94102L4.70583 5.21129C3.75857 5.5883 3.40854 5.7358 3.15685 5.96396C2.92021 6.17846 2.73839 6.44652 2.62659 6.7457C2.50768 7.06392 2.50007 7.44369 2.50007 8.46321V9.74284L10.0977 6.71902C10.6986 6.47975 11.0764 6.32936 11.4719 6.26898C11.822 6.21552 12.1783 6.21552 12.5284 6.26898C12.9239 6.32937 13.3017 6.47977 13.9026 6.71904L21.5001 9.74288V8.46318C21.5001 7.44367 21.4925 7.0639 21.3735 6.74569C21.2618 6.44651 21.0799 6.17845 20.8433 5.96395C20.5916 5.7358 20.2416 5.58829 19.2943 5.21128L13.5903 2.94104C12.9133 2.67157 12.6465 2.56861 12.3775 2.52754ZM2.50007 14.3191L4.4076 13.5599C4.66417 13.4578 4.78938 13.1671 4.68726 12.9105C4.58515 12.6539 4.29438 12.5287 4.03781 12.6308L2.50007 13.2428V10.8191L10.4101 7.671C11.0871 7.40155 11.3539 7.29858 11.6228 7.25752C11.8729 7.21933 12.1274 7.21934 12.3775 7.25752C12.6464 7.29859 12.9132 7.40155 13.5902 7.67102L21.5001 10.8192V13.2429L19.9623 12.6308C19.7057 12.5287 19.4149 12.6539 19.3128 12.9105C19.2107 13.1671 19.3359 13.4578 19.5925 13.5599L21.5001 14.3192V15.5369C21.5001 16.5564 21.4925 16.9361 21.3735 17.2544C21.2618 17.5535 21.0799 17.8216 20.8433 18.0361C20.5916 18.2643 20.2416 18.4118 19.2943 18.7888L13.5903 21.059C12.9133 21.3285 12.6465 21.4314 12.3775 21.4725C12.1274 21.5107 11.873 21.5107 11.6229 21.4725C11.3539 21.4314 11.0872 21.3285 10.4101 21.059L4.70584 18.7888C3.75858 18.4118 3.40854 18.2642 3.15685 18.0361C2.92021 17.8216 2.73839 17.5535 2.6266 17.2544C2.50768 16.9361 2.50007 16.5564 2.50007 15.5368V14.3191Z" fill="#000"/>
</svg>
