<svg width="24" height="24" viewBox="0 0 24 24" fill="none" xmlns="http://www.w3.org/2000/svg">
<path fill-rule="evenodd" clip-rule="evenodd" d="M0.5 12C0.5 5.64873 5.64873 0.5 12 0.5C18.3513 0.5 23.5 5.64873 23.5 12C23.5 18.3513 18.3513 23.5 12 23.5C5.64873 23.5 0.5 18.3513 0.5 12ZM4.2302 4.9373C2.53395 6.80228 1.5 9.28039 1.5 12C1.5 14.7196 2.53395 17.1977 4.2302 19.0627L8.12853 15.1644C7.42318 14.3024 7 13.2006 7 12C7 10.7994 7.42318 9.69757 8.12853 8.83563L4.2302 4.9373ZM4.9373 4.2302L8.83563 8.12853C9.69757 7.42318 10.7994 7 12 7C13.2006 7 14.3024 7.42318 15.1644 8.12853L19.0627 4.2302C17.1977 2.53395 14.7196 1.5 12 1.5C9.28039 1.5 6.80228 2.53395 4.9373 4.2302ZM19.7698 4.9373L15.8715 8.83564C16.5768 9.69757 17 10.7994 17 12C17 13.2006 16.5768 14.3024 15.8715 15.1644L19.7698 19.0627C21.4661 17.1977 22.5 14.7196 22.5 12C22.5 9.28039 21.4661 6.80228 19.7698 4.9373ZM19.0627 19.7698L15.1644 15.8715C14.3024 16.5768 13.2006 17 12 17C10.7994 17 9.69757 16.5768 8.83564 15.8715L4.9373 19.7698C6.80228 21.4661 9.28039 22.5 12 22.5C14.7196 22.5 17.1977 21.4661 19.0627 19.7698ZM12 8C9.79086 8 8 9.79086 8 12C8 14.2091 9.79086 16 12 16C14.2091 16 16 14.2091 16 12C16 9.79086 14.2091 8 12 8Z" fill="#000"/>
</svg>
