<svg width="24" height="24" viewBox="0 0 24 24" fill="none" xmlns="http://www.w3.org/2000/svg">
<path d="M10.1464 6.85378C9.95113 6.65851 9.95113 6.34193 10.1464 6.14667L13.1964 3.09668C15.3246 0.968424 18.7752 0.968423 20.9035 3.09668C23.0317 5.22494 23.0317 8.67553 20.9035 10.8038L17.8535 13.8538C17.6582 14.049 17.3417 14.049 17.1464 13.8538C16.9511 13.6585 16.9511 13.3419 17.1464 13.1467L20.1964 10.0967C21.9341 8.35895 21.9341 5.54152 20.1964 3.80379C18.4586 2.06605 15.6412 2.06605 13.9035 3.80379L10.8535 6.85378C10.6582 7.04904 10.3417 7.04904 10.1464 6.85378Z" fill="#000"/>
<path d="M15.3535 8.64667C15.5488 8.84193 15.5488 9.15851 15.3535 9.35378L9.3535 15.3538C9.15824 15.549 8.84166 15.549 8.6464 15.3538C8.45113 15.1585 8.45113 14.8419 8.6464 14.6467L14.6464 8.64667C14.8417 8.45141 15.1582 8.45141 15.3535 8.64667Z" fill="#000"/>
<path d="M13.8535 17.8538C14.0488 17.6585 14.0488 17.3419 13.8535 17.1467C13.6582 16.9514 13.3417 16.9514 13.1464 17.1467L10.0964 20.1967C8.35867 21.9344 5.54125 21.9344 3.80351 20.1967C2.06578 18.4589 2.06578 15.6415 3.80351 13.9038L6.8535 10.8538C7.04876 10.6585 7.04876 10.3419 6.8535 10.1467C6.65824 9.95141 6.34166 9.95141 6.1464 10.1467L3.09641 13.1967C0.968149 15.3249 0.968148 18.7755 3.09641 20.9038C5.22467 23.032 8.67526 23.032 10.8035 20.9038L13.8535 17.8538Z" fill="#000"/>
</svg>
