<svg width="24" height="24" viewBox="0 0 24 24" fill="none" xmlns="http://www.w3.org/2000/svg">
<path d="M2.35349 1.64645C2.15823 1.45118 1.84165 1.45118 1.64639 1.64645C1.45112 1.84171 1.45112 2.15829 1.64639 2.35355L11.2928 12L8.64639 14.6464C8.45112 14.8417 8.45112 15.1583 8.64639 15.3536C8.84165 15.5488 9.15823 15.5488 9.35349 15.3536L11.9999 12.7071L21.6464 22.3536C21.8416 22.5488 22.1582 22.5488 22.3535 22.3536C22.5488 22.1583 22.5488 21.8417 22.3535 21.6464L12.3572 11.6502L12.3535 11.6464L12.3498 11.6427L2.35349 1.64645Z" fill="#000"/>
<path d="M20.1964 3.80354C18.4586 2.06581 15.6412 2.06581 13.9035 3.80355L10.8535 6.85353C10.6582 7.04879 10.3416 7.04879 10.1464 6.85353C9.95112 6.65827 9.95112 6.34169 10.1464 6.14643L13.1964 3.09644C15.3246 0.96818 18.7752 0.968179 20.9035 3.09644C23.0317 5.2247 23.0317 8.67529 20.9035 10.8035L17.8535 13.8535C17.6582 14.0488 17.3416 14.0488 17.1464 13.8535C16.9511 13.6583 16.9511 13.3417 17.1464 13.1464L20.1964 10.0964C21.9341 8.3587 21.9341 5.54128 20.1964 3.80354Z" fill="#000"/>
<path d="M15.3535 8.64645C15.5488 8.84171 15.5488 9.15829 15.3535 9.35355L14.3535 10.3535C14.1582 10.5488 13.8417 10.5488 13.6464 10.3535C13.4511 10.1583 13.4511 9.84169 13.6464 9.64643L14.6464 8.64645C14.8416 8.45118 15.1582 8.45118 15.3535 8.64645Z" fill="#000"/>
<path d="M13.8535 17.1464C14.0487 17.3417 14.0487 17.6583 13.8535 17.8536L10.8035 20.9035C8.67523 23.0318 5.22464 23.0318 3.09638 20.9035C0.968124 18.7753 0.968125 15.3247 3.09638 13.1964L6.14637 10.1464C6.34163 9.95118 6.65822 9.95118 6.85348 10.1464C7.04874 10.3417 7.04874 10.6583 6.85348 10.8536L3.80349 13.9035C2.06576 15.6413 2.06576 18.4587 3.80349 20.1964C5.54122 21.9342 8.35865 21.9342 10.0964 20.1964L13.1464 17.1464C13.3416 16.9512 13.6582 16.9512 13.8535 17.1464Z" fill="#000"/>
</svg>
