<svg width="24" height="24" viewBox="0 0 24 24" fill="none" xmlns="http://www.w3.org/2000/svg">
<path d="M10.1462 6.85365C9.95092 6.65839 9.95092 6.34181 10.1462 6.14655L13.1962 3.09656C15.3244 0.968302 18.775 0.968301 20.9033 3.09656C23.0315 5.22482 23.0315 8.67541 20.9033 10.8037L17.8533 13.8537C17.658 14.0489 17.3414 14.0489 17.1462 13.8537C16.9509 13.6584 16.9509 13.3418 17.1462 13.1465L20.1962 10.0966C21.9339 8.35883 21.9339 5.5414 20.1962 3.80367C18.4584 2.06593 15.641 2.06593 13.9033 3.80367L10.8533 6.85365C10.658 7.04892 10.3414 7.04892 10.1462 6.85365Z" fill="#000"/>
<path d="M15.3533 8.64655C15.5485 8.84181 15.5485 9.15839 15.3533 9.35365L9.35329 15.3537C9.15803 15.5489 8.84144 15.5489 8.64618 15.3537C8.45092 15.1584 8.45092 14.8418 8.64618 14.6465L14.6462 8.64655C14.8414 8.45129 15.158 8.45129 15.3533 8.64655Z" fill="#000"/>
<path d="M13.8533 17.8537C14.0486 17.6584 14.0486 17.3418 13.8533 17.1465C13.658 16.9513 13.3414 16.9513 13.1462 17.1465L10.0962 20.1965C8.35846 21.9343 5.54104 21.9343 3.8033 20.1965C2.06557 18.4588 2.06557 15.6414 3.8033 13.9036L6.85329 10.8537C7.04855 10.6584 7.04855 10.3418 6.85329 10.1465C6.65803 9.95129 6.34144 9.95129 6.14618 10.1465L3.09619 13.1965C0.967936 15.3248 0.967935 18.7754 3.09619 20.9036C5.22445 23.0319 8.67504 23.0319 10.8033 20.9036L13.8533 17.8537Z" fill="#000"/>
</svg>
