<svg width="24" height="24" viewBox="0 0 24 24" fill="none" xmlns="http://www.w3.org/2000/svg">
<path d="M10.346 7.37903C10.5453 7.57011 10.552 7.88662 10.361 8.08598L9.08294 9.41931C8.98977 9.51651 8.86134 9.57203 8.72671 9.5733C8.59207 9.57457 8.46261 9.52149 8.36762 9.42607L7.64564 8.70078C7.45082 8.50507 7.45155 8.18849 7.64726 7.99368C7.84296 7.79886 8.15954 7.79958 8.35436 7.99529L8.71522 8.35781L9.63904 7.394C9.83012 7.19465 10.1466 7.18795 10.346 7.37903Z" fill="#000"/>
<path d="M12.5 7.83997C12.2239 7.83997 12 8.06382 12 8.33997C12 8.61611 12.2239 8.83997 12.5 8.83997H16C16.2761 8.83997 16.5 8.61611 16.5 8.33997C16.5 8.06382 16.2761 7.83997 16 7.83997H12.5Z" fill="#000"/>
<path d="M10.346 11.209C10.5453 11.4001 10.552 11.7166 10.361 11.9159L9.08294 13.2493C8.98977 13.3465 8.86134 13.402 8.72671 13.4033C8.59207 13.4045 8.46261 13.3514 8.36762 13.256L7.64564 12.5307C7.45082 12.335 7.45155 12.0184 7.64726 11.8236C7.84296 11.6288 8.15954 11.6295 8.35436 11.8252L8.71522 12.1878L9.63904 11.224C9.83012 11.0246 10.1466 11.0179 10.346 11.209Z" fill="#000"/>
<path d="M12.5 11.6699C12.2239 11.6699 12 11.8938 12 12.1699C12 12.4461 12.2239 12.6699 12.5 12.6699H16C16.2761 12.6699 16.5 12.4461 16.5 12.1699C16.5 11.8938 16.2761 11.6699 16 11.6699H12.5Z" fill="#000"/>
<path d="M8.25 16C8.25 15.5858 8.58579 15.25 9 15.25C9.41421 15.25 9.7501 15.5858 9.7501 16C9.7501 16.4142 9.41431 16.75 9.0001 16.75C8.58589 16.75 8.25 16.4142 8.25 16Z" fill="#000"/>
<path d="M11.75 15.5C11.4739 15.5 11.25 15.7239 11.25 16C11.25 16.2761 11.4739 16.5 11.75 16.5H16C16.2761 16.5 16.5 16.2761 16.5 16C16.5 15.7239 16.2761 15.5 16 15.5H11.75Z" fill="#000"/>
<path fill-rule="evenodd" clip-rule="evenodd" d="M8.37737 1.5H15.6226C16.7236 1.5 17.5805 1.5 18.2679 1.55616C18.9658 1.61318 19.5329 1.73058 20.043 1.99047C20.8897 2.4219 21.5781 3.11031 22.0095 3.95704C22.2694 4.4671 22.3868 5.03416 22.4438 5.73209C22.5 6.41945 22.5 7.27633 22.5 8.37721V15.6226C22.5 16.7235 22.5 17.5806 22.4438 18.2679C22.3868 18.9658 22.2694 19.5329 22.0095 20.043C21.5781 20.8897 20.8897 21.5781 20.043 22.0095C19.5329 22.2694 18.9658 22.3868 18.2679 22.4438C17.5805 22.5 16.7236 22.5 15.6227 22.5H8.37747C7.27653 22.5 6.41947 22.5 5.73209 22.4438C5.03416 22.3868 4.4671 22.2694 3.95704 22.0095C3.11031 21.5781 2.4219 20.8897 1.99047 20.043C1.73058 19.5329 1.61318 18.9658 1.55616 18.2679C1.5 17.5805 1.5 16.7236 1.5 15.6226V8.37737C1.5 7.27642 1.5 6.41948 1.55616 5.73209C1.61318 5.03416 1.73058 4.4671 1.99047 3.95704C2.4219 3.11031 3.11031 2.4219 3.95704 1.99047C4.4671 1.73058 5.03416 1.61318 5.73209 1.55616C6.41948 1.5 7.27642 1.5 8.37737 1.5ZM5.81352 2.55284C5.17744 2.60481 4.75662 2.70539 4.41103 2.88148C3.75247 3.21703 3.21703 3.75247 2.88148 4.41103C2.70539 4.75662 2.60481 5.17744 2.55284 5.81352C2.50039 6.45545 2.5 7.27164 2.5 8.4V15.6C2.5 16.7284 2.50039 17.5446 2.55284 18.1865C2.60481 18.8226 2.70539 19.2434 2.88148 19.589C3.21703 20.2475 3.75247 20.783 4.41103 21.1185C4.75662 21.2946 5.17744 21.3952 5.81352 21.4472C6.45545 21.4996 7.27164 21.5 8.4 21.5H15.6C16.7284 21.5 17.5446 21.4996 18.1865 21.4472C18.8226 21.3952 19.2434 21.2946 19.589 21.1185C20.2475 20.783 20.783 20.2475 21.1185 19.589C21.2946 19.2434 21.3952 18.8226 21.4472 18.1865C21.4996 17.5446 21.5 16.7284 21.5 15.6V8.4C21.5 7.27164 21.4996 6.45545 21.4472 5.81352C21.3952 5.17744 21.2946 4.75662 21.1185 4.41103C20.783 3.75247 20.2475 3.21703 19.589 2.88148C19.2434 2.70539 18.8226 2.60481 18.1865 2.55284C17.5446 2.50039 16.7284 2.5 15.6 2.5H8.4C7.27164 2.5 6.45545 2.50039 5.81352 2.55284Z" fill="#000"/>
</svg>
