<svg width="24" height="24" viewBox="0 0 24 24" fill="none" xmlns="http://www.w3.org/2000/svg">
<path d="M2 4.25C1.58579 4.25 1.25 4.58579 1.25 5C1.25 5.41421 1.58579 5.75 2 5.75C2.41421 5.75 2.7501 5.41421 2.7501 5C2.7501 4.58579 2.41421 4.25 2 4.25Z" fill="#000"/>
<path d="M7 4.5C6.72386 4.5 6.5 4.72386 6.5 5C6.5 5.27614 6.72386 5.5 7 5.5H22C22.2761 5.5 22.5 5.27614 22.5 5C22.5 4.72386 22.2761 4.5 22 4.5H7Z" fill="#000"/>
<path d="M7 11.5C6.72386 11.5 6.5 11.7239 6.5 12C6.5 12.2761 6.72386 12.5 7 12.5H22C22.2761 12.5 22.5 12.2761 22.5 12C22.5 11.7239 22.2761 11.5 22 11.5H7Z" fill="#000"/>
<path d="M6.5 19C6.5 18.7239 6.72386 18.5 7 18.5H22C22.2761 18.5 22.5 18.7239 22.5 19C22.5 19.2761 22.2761 19.5 22 19.5H7C6.72386 19.5 6.5 19.2761 6.5 19Z" fill="#000"/>
<path d="M1.25 12C1.25 11.5858 1.58579 11.25 2 11.25C2.41421 11.25 2.7501 11.5858 2.7501 12C2.7501 12.4142 2.41431 12.75 2.0001 12.75C1.58589 12.75 1.25 12.4142 1.25 12Z" fill="#000"/>
<path d="M2 18.25C1.58579 18.25 1.25 18.5858 1.25 19C1.25 19.4142 1.58579 19.75 2 19.75C2.41421 19.75 2.7501 19.4142 2.7501 19C2.7501 18.5858 2.41421 18.25 2 18.25Z" fill="#000"/>
</svg>
