<svg width="24" height="24" viewBox="0 0 24 24" fill="none" xmlns="http://www.w3.org/2000/svg">
<path d="M6.86096 4.34599C7.05204 4.14663 7.04534 3.83012 6.84599 3.63904C6.64663 3.44796 6.33012 3.45466 6.13904 3.65401L3.6177 6.28448L2.35436 5.01536C2.15954 4.81965 1.84296 4.81893 1.64726 5.01374C1.45155 5.20856 1.45082 5.52514 1.64564 5.72085L3.2701 7.35275C3.36509 7.44817 3.49455 7.50125 3.62918 7.49998C3.76382 7.49871 3.89225 7.44319 3.98542 7.34599L6.86096 4.34599Z" fill="#000"/>
<path d="M3.75 18.75C3.33579 18.75 3 19.0858 3 19.5C3 19.9142 3.33579 20.25 3.75 20.25C4.16421 20.25 4.5001 19.9142 4.5001 19.5C4.5001 19.0858 4.16421 18.75 3.75 18.75Z" fill="#000"/>
<path d="M6.84599 10.639C7.04534 10.8301 7.05204 11.1466 6.86096 11.346L3.98542 14.346C3.89225 14.4432 3.76382 14.4987 3.62918 14.5C3.49455 14.5013 3.36509 14.4482 3.2701 14.3527L1.64564 12.7208C1.45082 12.5251 1.45155 12.2086 1.64726 12.0137C1.84296 11.8189 2.15954 11.8196 2.35436 12.0154L3.6177 13.2845L6.13904 10.654C6.33012 10.4547 6.64663 10.448 6.84599 10.639Z" fill="#000"/>
<path d="M10.5 12.5C10.2239 12.5 10 12.7239 10 13C10 13.2761 10.2239 13.5 10.5 13.5H22C22.2761 13.5 22.5 13.2761 22.5 13C22.5 12.7239 22.2761 12.5 22 12.5H10.5Z" fill="#000"/>
<path d="M10 6C10 5.72386 10.2239 5.5 10.5 5.5H22C22.2761 5.5 22.5 5.72386 22.5 6C22.5 6.27614 22.2761 6.5 22 6.5H10.5C10.2239 6.5 10 6.27614 10 6Z" fill="#000"/>
<path d="M8 19C7.72386 19 7.5 19.2239 7.5 19.5C7.5 19.7761 7.72386 20 8 20H22C22.2761 20 22.5 19.7761 22.5 19.5C22.5 19.2239 22.2761 19 22 19H8Z" fill="#000"/>
</svg>
