<svg width="24" height="24" viewBox="0 0 24 24" fill="none" xmlns="http://www.w3.org/2000/svg">
<path fill-rule="evenodd" clip-rule="evenodd" d="M2.35355 1.64645C2.15829 1.45118 1.84171 1.45118 1.64645 1.64645C1.45118 1.84171 1.45118 2.15829 1.64645 2.35355L4.78966 5.49677C3.97244 6.80269 3.5 8.3468 3.5 10C3.5 14.1069 6.11262 17.007 7.97199 19.0709L8.00642 19.1091L8.12829 19.2445C8.8006 19.9915 10.3677 21.4446 11.1618 22.1725C11.6368 22.6079 12.3632 22.6079 12.8381 22.1725C13.6322 21.4446 15.1993 19.9915 15.8716 19.2445L15.9878 19.1155L15.991 19.1119C16.3416 18.7227 16.7279 18.2939 17.1208 17.8279L21.6464 22.3536C21.8417 22.5488 22.1583 22.5488 22.3536 22.3536C22.5488 22.1583 22.5488 21.8417 22.3536 21.6464L17.4435 16.7364C17.4409 16.7337 17.4382 16.731 17.4354 16.7283L5.79188 5.08478C5.78784 5.08059 5.78372 5.07647 5.77951 5.07241L2.35355 1.64645ZM5.51783 6.22494C4.87073 7.33351 4.5 8.6229 4.5 10C4.5 13.6968 6.85523 16.3371 8.74941 18.4398L8.87159 18.5755C9.50437 19.2786 11.0298 20.695 11.8375 21.4354C11.9302 21.5203 12.0698 21.5203 12.1624 21.4354C12.9701 20.695 14.4955 19.2786 15.1283 18.5755L15.2448 18.4462C15.6148 18.0355 16.0117 17.5947 16.411 17.1181L5.51783 6.22494Z" fill="#000"/>
<path d="M7.71758 3.84197C8.93164 2.99599 10.4071 2.5 12 2.5C16.1421 2.5 19.4999 5.8579 19.4999 10C19.4999 11.677 18.9967 13.1594 18.2736 14.4699C18.1403 14.7117 18.2281 15.0159 18.4699 15.1493C18.7117 15.2826 19.0158 15.1948 19.1492 14.953C19.9322 13.5337 20.4999 11.8857 20.4999 10C20.4999 5.30563 16.6944 1.5 12 1.5C10.1962 1.5 8.52223 2.06244 7.14587 3.02151C6.91931 3.17938 6.86362 3.49103 7.0215 3.71759C7.17937 3.94415 7.49102 3.99984 7.71758 3.84197Z" fill="#000"/>
<path d="M11.6329 8.03352C11.7516 8.01155 11.8742 8 12 8C13.1046 8 14 8.89543 14 10C14 10.1258 13.9884 10.2484 13.9665 10.3671C13.9162 10.6386 14.0955 10.8995 14.3671 10.9498C14.6386 11.0001 14.8995 10.8207 14.9498 10.5492C14.9828 10.3708 15 10.1872 15 10C15 8.34315 13.6569 7 12 7C11.8128 7 11.6292 7.0172 11.4508 7.05024C11.1793 7.10053 10.9999 7.36141 11.0502 7.63293C11.1005 7.90446 11.3614 8.08381 11.6329 8.03352Z" fill="#000"/>
</svg>
