<svg width="24" height="24" viewBox="0 0 24 24" fill="none" xmlns="http://www.w3.org/2000/svg">
<path fill-rule="evenodd" clip-rule="evenodd" d="M11.9999 7C10.3431 7 8.99994 8.34315 8.99994 10C8.99994 11.6569 10.3431 13 11.9999 13C13.6568 13 14.9999 11.6569 14.9999 10C14.9999 8.34315 13.6568 7 11.9999 7ZM9.99994 10C9.99994 8.89543 10.8954 8 11.9999 8C13.1045 8 13.9999 8.89543 13.9999 10C13.9999 11.1046 13.1045 12 11.9999 12C10.8954 12 9.99994 11.1046 9.99994 10Z" fill="#000"/>
<path fill-rule="evenodd" clip-rule="evenodd" d="M12 1.5C7.30558 1.5 3.5 5.30561 3.5 10C3.5 14.1095 6.1173 17.0133 7.97871 19.0784L8.12829 19.2445C8.8006 19.9915 10.3677 21.4446 11.1618 22.1725C11.6368 22.6079 12.3632 22.6079 12.8381 22.1725C13.6322 21.4446 15.1993 19.9915 15.8716 19.2445L16.0147 19.0856C17.797 17.1085 20.4999 14.1099 20.4999 10C20.4999 5.30562 16.6944 1.5 12 1.5ZM4.5 10C4.5 5.85789 7.85787 2.5 12 2.5C16.1421 2.5 19.4999 5.8579 19.4999 10C19.4999 13.7203 17.0296 16.4639 15.2129 18.4815L15.1283 18.5755C14.4955 19.2786 12.9701 20.695 12.1624 21.4354C12.0698 21.5203 11.9302 21.5203 11.8375 21.4354C11.0298 20.695 9.50437 19.2786 8.87159 18.5755L8.78201 18.476C6.88396 16.368 4.5 13.7203 4.5 10Z" fill="#000"/>
</svg>
