<svg width="24" height="24" viewBox="0 0 24 24" fill="none" xmlns="http://www.w3.org/2000/svg">
<path fill-rule="evenodd" clip-rule="evenodd" d="M8.5 12C8.5 10.067 10.067 8.5 12 8.5C13.933 8.5 15.5 10.067 15.5 12C15.5 13.933 13.933 15.5 12 15.5C10.067 15.5 8.5 13.933 8.5 12ZM12 9.5C10.6193 9.5 9.5 10.6193 9.5 12C9.5 13.3807 10.6193 14.5 12 14.5C13.3807 14.5 14.5 13.3807 14.5 12C14.5 10.6193 13.3807 9.5 12 9.5Z" fill="#000"/>
<path fill-rule="evenodd" clip-rule="evenodd" d="M12.5 2C12.5 1.72386 12.2761 1.5 12 1.5C11.7239 1.5 11.5 1.72386 11.5 2V3.51446C7.20375 3.76367 3.76367 7.20375 3.51446 11.5H2C1.72386 11.5 1.5 11.7239 1.5 12C1.5 12.2761 1.72386 12.5 2 12.5H3.51446C3.76367 16.7962 7.20375 20.2363 11.5 20.4855V22C11.5 22.2761 11.7239 22.5 12 22.5C12.2761 22.5 12.5 22.2761 12.5 22V20.4855C16.7962 20.2363 20.2363 16.7962 20.4855 12.5H22C22.2761 12.5 22.5 12.2761 22.5 12C22.5 11.7239 22.2761 11.5 22 11.5H20.4855C20.2363 7.20375 16.7962 3.76367 12.5 3.51446V2ZM19.5 12C19.5 7.85786 16.1421 4.5 12 4.5C7.85786 4.5 4.5 7.85786 4.5 12C4.5 16.1421 7.85786 19.5 12 19.5C16.1421 19.5 19.5 16.1421 19.5 12Z" fill="#000"/>
</svg>
