<svg width="24" height="24" viewBox="0 0 24 24" fill="none" xmlns="http://www.w3.org/2000/svg">
<path fill-rule="evenodd" clip-rule="evenodd" d="M12 7C10.3431 7 9 8.34315 9 10C9 11.6569 10.3431 13 12 13C13.6569 13 15 11.6569 15 10C15 8.34315 13.6569 7 12 7ZM10 10C10 8.89543 10.8954 8 12 8C13.1046 8 14 8.89543 14 10C14 11.1046 13.1046 12 12 12C10.8954 12 10 11.1046 10 10Z" fill="#000"/>
<path fill-rule="evenodd" clip-rule="evenodd" d="M12 1.5C7.30564 1.5 3.50006 5.30561 3.50006 10C3.50006 14.1095 6.11736 17.0133 7.97878 19.0784L8.12835 19.2445C8.80066 19.9915 10.3677 21.4446 11.1619 22.1725C11.6368 22.6079 12.3632 22.6079 12.8382 22.1725C13.6323 21.4446 15.1993 19.9915 15.8716 19.2445L16.0148 19.0856C17.797 17.1085 20.5 14.1099 20.5 10C20.5 5.30562 16.6944 1.5 12 1.5ZM4.50006 10C4.50006 5.85789 7.85793 2.5 12 2.5C16.1421 2.5 19.5 5.8579 19.5 10C19.5 13.7203 17.0296 16.4639 15.213 18.4815L15.1284 18.5755C14.4956 19.2786 12.9702 20.695 12.1625 21.4354C12.0698 21.5203 11.9302 21.5203 11.8376 21.4354C11.0299 20.695 9.50444 19.2786 8.87165 18.5755L8.78207 18.476C6.88402 16.368 4.50006 13.7203 4.50006 10Z" fill="#000"/>
</svg>
