<svg width="24" height="24" viewBox="0 0 24 24" fill="none" xmlns="http://www.w3.org/2000/svg">
<path fill-rule="evenodd" clip-rule="evenodd" d="M2.35355 1.64645C2.15829 1.45118 1.84171 1.45118 1.64645 1.64645C1.45118 1.84171 1.45118 2.15829 1.64645 2.35355L5.64639 6.3535C4.41494 7.73826 3.62885 9.5293 3.51447 11.5H2C1.72386 11.5 1.5 11.7239 1.5 12C1.5 12.2761 1.72386 12.5 2 12.5H3.51446C3.76367 16.7962 7.20375 20.2363 11.5 20.4855V22C11.5 22.2761 11.7239 22.5 12 22.5C12.2761 22.5 12.5 22.2761 12.5 22V20.4855C14.4707 20.3711 16.2617 19.5851 17.6465 18.3536L21.6464 22.3536C21.8417 22.5488 22.1583 22.5488 22.3536 22.3536C22.5488 22.1583 22.5488 21.8417 22.3536 21.6464L2.35355 1.64645ZM6.35486 7.06197C5.19952 8.38155 4.5 10.1087 4.5 12C4.5 16.1421 7.85786 19.5 12 19.5C13.8913 19.5 15.6184 18.8005 16.938 17.6451L14.0961 14.8032C13.5119 15.2405 12.786 15.5 12 15.5C10.067 15.5 8.5 13.933 8.5 12C8.5 11.214 8.7595 10.4881 9.19684 9.90395L6.35486 7.06197ZM9.91414 10.6212C9.65221 11.0166 9.5 11.4902 9.5 12C9.5 13.3807 10.6193 14.5 12 14.5C12.5098 14.5 12.9834 14.3478 13.3788 14.0859L9.91414 10.6212Z" fill="#000"/>
<path d="M12.5 2C12.5 1.72386 12.2761 1.5 12 1.5C11.7239 1.5 11.5 1.72386 11.5 2V3.51448C10.4367 3.57621 9.42495 3.83358 8.50098 4.25143C8.24937 4.36522 8.13764 4.66143 8.25143 4.91304C8.36522 5.16465 8.66143 5.27638 8.91304 5.16259C9.85387 4.73711 10.8986 4.5 12 4.5C16.1421 4.5 19.5 7.85786 19.5 12C19.5 13.1014 19.2629 14.1461 18.8374 15.087C18.7236 15.3386 18.8354 15.6348 19.087 15.7486C19.3386 15.8624 19.6348 15.7506 19.7486 15.499C20.1664 14.5751 20.4238 13.5633 20.4855 12.5H22C22.2761 12.5 22.5 12.2761 22.5 12C22.5 11.7239 22.2761 11.5 22 11.5H20.4855C20.2363 7.20375 16.7962 3.76367 12.5 3.51446V2Z" fill="#000"/>
</svg>
