<svg width="24" height="24" viewBox="0 0 24 24" fill="none" xmlns="http://www.w3.org/2000/svg">
<path d="M16.2 2.5C17.0483 2.5 17.6545 2.50039 18.1297 2.53921C18.599 2.57756 18.8963 2.65089 19.135 2.77248C19.6054 3.01217 19.9878 3.39462 20.2275 3.86502C20.3491 4.10366 20.4224 4.40099 20.4608 4.87032C20.4996 5.34549 20.5 5.95167 20.5 6.8V17.2C20.5 18.0483 20.4996 18.6545 20.4608 19.1297C20.4224 19.599 20.3491 19.8963 20.2275 20.135C19.9878 20.6054 19.6054 20.9878 19.135 21.2275C18.8963 21.3491 18.599 21.4224 18.1297 21.4608C17.6545 21.4996 17.0483 21.5 16.2 21.5H13C12.7239 21.5 12.5 21.7239 12.5 22C12.5 22.2761 12.7239 22.5 13 22.5H16.2222C17.0435 22.5 17.6905 22.5 18.2111 22.4575C18.7423 22.4141 19.1859 22.3239 19.589 22.1185C20.2475 21.783 20.783 21.2475 21.1185 20.589C21.3239 20.1859 21.4141 19.7423 21.4575 19.2111C21.5 18.6905 21.5 18.0435 21.5 17.2223V6.77778C21.5 5.95654 21.5 5.30953 21.4575 4.78889C21.4141 4.25771 21.3239 3.81413 21.1185 3.41103C20.783 2.75247 20.2475 2.21703 19.589 1.88148C19.1859 1.67609 18.7423 1.58593 18.2111 1.54253C17.6905 1.49999 17.0435 1.5 16.2222 1.5H13C12.7239 1.5 12.5 1.72386 12.5 2C12.5 2.27614 12.7239 2.5 13 2.5H16.2Z" fill="#000"/>
<path d="M8.64645 6.64645C8.84171 6.45118 9.15829 6.45118 9.35355 6.64645L14.3536 11.6464C14.5488 11.8417 14.5488 12.1583 14.3536 12.3536L9.35355 17.3536C9.15829 17.5488 8.84171 17.5488 8.64645 17.3536C8.45118 17.1583 8.45118 16.8417 8.64645 16.6464L12.7929 12.5H3C2.72386 12.5 2.5 12.2761 2.5 12C2.5 11.7239 2.72386 11.5 3 11.5H12.7929L8.64645 7.35355C8.45118 7.15829 8.45118 6.84171 8.64645 6.64645Z" fill="#000"/>
</svg>
