<svg width="24" height="24" viewBox="0 0 24 24" fill="none" xmlns="http://www.w3.org/2000/svg">
<path d="M22.5 4C22.5 4.27614 22.2761 4.5 22 4.5H2C1.72386 4.5 1.5 4.27614 1.5 4C1.5 3.72386 1.72386 3.5 2 3.5H22C22.2761 3.5 22.5 3.72386 22.5 4Z" fill="#000"/>
<path d="M22.5 12C22.5 12.2761 22.2761 12.5 22 12.5H2C1.72386 12.5 1.5 12.2761 1.5 12C1.5 11.7239 1.72386 11.5 2 11.5H22C22.2761 11.5 22.5 11.7239 22.5 12Z" fill="#000"/>
<path d="M22 20.5C22.2761 20.5 22.5 20.2761 22.5 20C22.5 19.7239 22.2761 19.5 22 19.5H2C1.72386 19.5 1.5 19.7239 1.5 20C1.5 20.2761 1.72386 20.5 2 20.5H22Z" fill="#000"/>
</svg>
