<svg width="24" height="24" viewBox="0 0 24 24" fill="none" xmlns="http://www.w3.org/2000/svg">
<g clip-path="url(#clip0_9002_8318)">
<path d="M8 7.5C7.72386 7.5 7.5 7.72386 7.5 8C7.5 8.27614 7.72386 8.5 8 8.5H16C16.2761 8.5 16.5 8.27614 16.5 8C16.5 7.72386 16.2761 7.5 16 7.5H8Z" fill="#000"/>
<path d="M7.5 12C7.5 11.7239 7.72386 11.5 8 11.5H16C16.2761 11.5 16.5 11.7239 16.5 12C16.5 12.2761 16.2761 12.5 16 12.5H8C7.72386 12.5 7.5 12.2761 7.5 12Z" fill="#000"/>
<path d="M8 15.5C7.72386 15.5 7.5 15.7239 7.5 16C7.5 16.2761 7.72386 16.5 8 16.5H16C16.2761 16.5 16.5 16.2761 16.5 16C16.5 15.7239 16.2761 15.5 16 15.5H8Z" fill="#000"/>
<path fill-rule="evenodd" clip-rule="evenodd" d="M12 0.5C5.64873 0.5 0.5 5.64873 0.5 12C0.5 18.3513 5.64873 23.5 12 23.5C18.3513 23.5 23.5 18.3513 23.5 12C23.5 5.64873 18.3513 0.5 12 0.5ZM1.5 12C1.5 6.20101 6.20101 1.5 12 1.5C17.799 1.5 22.5 6.20101 22.5 12C22.5 17.799 17.799 22.5 12 22.5C6.20101 22.5 1.5 17.799 1.5 12Z" fill="#000"/>
</g>
<defs>
<clipPath id="clip0_9002_8318">
<rect width="24" height="24" fill="white"/>
</clipPath>
</defs>
</svg>
