<svg width="24" height="24" viewBox="0 0 24 24" fill="none" xmlns="http://www.w3.org/2000/svg">
<path d="M15.8536 8.60355C16.0488 8.40829 16.0488 8.09171 15.8536 7.89645C15.6583 7.70118 15.3417 7.70118 15.1464 7.89645L11 12.0429L8.85355 9.89645C8.65829 9.70118 8.34171 9.70118 8.14645 9.89645C7.95119 10.0917 7.95119 10.4083 8.14645 10.6036L10.6464 13.1036C10.8417 13.2988 11.1583 13.2988 11.3536 13.1036L15.8536 8.60355Z" fill="#000"/>
<path fill-rule="evenodd" clip-rule="evenodd" d="M16.4224 1.5H7.57756C6.61647 1.5 5.86451 1.49999 5.26049 1.54935C4.64594 1.59956 4.14062 1.70334 3.68404 1.93597C2.93139 2.31947 2.31947 2.93139 1.93598 3.68404C1.70334 4.14062 1.59956 4.64594 1.54935 5.26049C1.5 5.86446 1.5 6.61634 1.5 7.57733V20.9078C1.49999 21.1524 1.49998 21.3694 1.5156 21.5412C1.5309 21.7095 1.56704 21.9353 1.71667 22.1239C1.90515 22.3614 2.1912 22.5006 2.49439 22.5023C2.7351 22.5036 2.93514 22.3926 3.07696 22.3008C3.22175 22.2071 3.39244 22.0732 3.58485 21.9223L6.15633 19.9051C6.41368 19.7032 6.49003 19.6462 6.56915 19.6065C6.64852 19.5666 6.73285 19.5375 6.8199 19.5198C6.9067 19.5023 7.00194 19.5 7.32902 19.5H16.4225C17.3835 19.5 18.1355 19.5 18.7395 19.4507C19.3541 19.4004 19.8594 19.2967 20.316 19.064C21.0686 18.6805 21.6805 18.0686 22.064 17.316C22.2967 16.8594 22.4004 16.3541 22.4507 15.7395C22.5 15.1355 22.5 14.3835 22.5 13.4225V7.57754C22.5 6.61646 22.5 5.86451 22.4507 5.26049C22.4004 4.64594 22.2967 4.14062 22.064 3.68404C21.6805 2.93139 21.0686 2.31947 20.316 1.93597C19.8594 1.70334 19.3541 1.59956 18.7395 1.54935C18.1355 1.49999 17.3835 1.5 16.4224 1.5ZM4.13803 2.82698C4.43014 2.67814 4.78921 2.59118 5.34193 2.54602C5.90047 2.50039 6.61166 2.5 7.6 2.5H16.4C17.3883 2.5 18.0995 2.50039 18.6581 2.54602C19.2108 2.59118 19.5699 2.67814 19.862 2.82698C20.4265 3.1146 20.8854 3.57354 21.173 4.13803C21.3219 4.43014 21.4088 4.78921 21.454 5.34192C21.4996 5.90047 21.5 6.61166 21.5 7.6V13.4C21.5 14.3883 21.4996 15.0995 21.454 15.6581C21.4088 16.2108 21.3219 16.5699 21.173 16.862C20.8854 17.4265 20.4265 17.8854 19.862 18.173C19.5699 18.3219 19.2108 18.4088 18.6581 18.454C18.0995 18.4996 17.3883 18.5 16.4 18.5L7.28658 18.5C7.02024 18.4999 6.8189 18.4998 6.62167 18.5397C6.44755 18.5749 6.2789 18.6332 6.12017 18.7129C5.94036 18.8033 5.782 18.9276 5.57251 19.0921L2.98516 21.1217C2.76989 21.2906 2.6354 21.3954 2.53357 21.4614L2.51384 21.4739L2.51149 21.4506C2.5005 21.3298 2.5 21.1593 2.5 20.8857V7.59999C2.5 6.61165 2.50039 5.90047 2.54603 5.34192C2.59118 4.78921 2.67814 4.43014 2.82698 4.13803C3.1146 3.57354 3.57354 3.1146 4.13803 2.82698Z" fill="#000"/>
</svg>
