<svg width="24" height="24" viewBox="0 0 24 24" fill="none" xmlns="http://www.w3.org/2000/svg">
<path d="M14.8536 13.3535C14.6583 13.5488 14.3417 13.5488 14.1464 13.3535L12 11.2071L9.85357 13.3536C9.65831 13.5488 9.34172 13.5488 9.14646 13.3536C8.9512 13.1583 8.9512 12.8417 9.14646 12.6464L11.2929 10.5L9.14648 8.35357C8.95122 8.15831 8.95122 7.84173 9.14648 7.64646C9.34174 7.4512 9.65832 7.4512 9.85359 7.64646L12 9.79289L14.1464 7.64648C14.3417 7.45122 14.6583 7.45122 14.8535 7.64648C15.0488 7.84174 15.0488 8.15832 14.8535 8.35358L12.7071 10.5L14.8536 12.6464C15.0488 12.8417 15.0488 13.1583 14.8536 13.3535Z" fill="#000"/>
<path fill-rule="evenodd" clip-rule="evenodd" d="M7.57756 1.5H16.4224C17.3835 1.5 18.1355 1.49999 18.7395 1.54935C19.3541 1.59956 19.8594 1.70334 20.316 1.93597C21.0686 2.31947 21.6805 2.93139 22.064 3.68404C22.2967 4.14062 22.4004 4.64594 22.4507 5.26049C22.5 5.86451 22.5 6.61646 22.5 7.57754V13.4225C22.5 14.3835 22.5 15.1355 22.4507 15.7395C22.4004 16.3541 22.2967 16.8594 22.064 17.316C21.6805 18.0686 21.0686 18.6805 20.316 19.064C19.8594 19.2967 19.3541 19.4004 18.7395 19.4507C18.1355 19.5 17.3835 19.5 16.4225 19.5H7.32902C7.00194 19.5 6.9067 19.5023 6.8199 19.5198C6.73285 19.5375 6.64852 19.5666 6.56915 19.6065C6.49003 19.6462 6.41368 19.7032 6.15633 19.9051L3.58485 21.9223C3.39244 22.0732 3.22175 22.2071 3.07696 22.3008C2.93514 22.3926 2.7351 22.5036 2.49439 22.5023C2.1912 22.5006 1.90515 22.3614 1.71667 22.1239C1.56704 21.9353 1.5309 21.7095 1.5156 21.5412C1.49998 21.3694 1.49999 21.1525 1.5 20.9079V7.57755C1.5 6.61656 1.5 5.86446 1.54935 5.26049C1.59956 4.64594 1.70334 4.14062 1.93598 3.68404C2.31947 2.93139 2.93139 2.31947 3.68404 1.93597C4.14062 1.70334 4.64594 1.59956 5.26049 1.54935C5.86451 1.49999 6.61647 1.5 7.57756 1.5ZM5.34193 2.54602C4.78921 2.59118 4.43014 2.67814 4.13803 2.82698C3.57354 3.1146 3.1146 3.57354 2.82698 4.13803C2.67814 4.43014 2.59118 4.78921 2.54603 5.34192C2.50039 5.90047 2.5 6.61165 2.5 7.59999V20.8857C2.5 21.1593 2.5005 21.3298 2.51149 21.4506L2.51384 21.4739L2.53357 21.4614C2.6354 21.3954 2.76989 21.2906 2.98516 21.1217L5.57251 19.0921C5.782 18.9276 5.94036 18.8033 6.12017 18.7129C6.2789 18.6332 6.44755 18.5749 6.62167 18.5397C6.8189 18.4998 7.02024 18.4999 7.28658 18.5L16.4 18.5C17.3883 18.5 18.0995 18.4996 18.6581 18.454C19.2108 18.4088 19.5699 18.3219 19.862 18.173C20.4265 17.8854 20.8854 17.4265 21.173 16.862C21.3219 16.5699 21.4088 16.2108 21.454 15.6581C21.4996 15.0995 21.5 14.3883 21.5 13.4V7.6C21.5 6.61166 21.4996 5.90047 21.454 5.34192C21.4088 4.78921 21.3219 4.43014 21.173 4.13803C20.8854 3.57354 20.4265 3.1146 19.862 2.82698C19.5699 2.67814 19.2108 2.59118 18.6581 2.54602C18.0995 2.50039 17.3883 2.5 16.4 2.5H7.6C6.61166 2.5 5.90047 2.50039 5.34193 2.54602Z" fill="#000"/>
</svg>
