<svg width="24" height="24" viewBox="0 0 24 24" fill="none" xmlns="http://www.w3.org/2000/svg">
<path fill-rule="evenodd" clip-rule="evenodd" d="M2.35355 1.64645C2.15829 1.45118 1.84171 1.45118 1.64645 1.64645C1.45118 1.84171 1.45118 2.15829 1.64645 2.35355L7.5 8.20711V12C7.5 14.4853 9.51472 16.5 12 16.5C13.0623 16.5 14.0392 16.1314 14.8088 15.5159L16.2291 16.9362C15.0932 17.9104 13.6182 18.4988 12.005 18.5L12 18.5L11.995 18.5C8.40743 18.4973 5.5 15.5882 5.5 12C5.5 11.7239 5.27614 11.5 5 11.5C4.72386 11.5 4.5 11.7239 4.5 12C4.5 15.9741 7.59098 19.2263 11.5 19.4836V21.5H8C7.72386 21.5 7.5 21.7239 7.5 22C7.5 22.2761 7.72386 22.5 8 22.5H16C16.2761 22.5 16.5 22.2761 16.5 22C16.5 21.7239 16.2761 21.5 16 21.5H12.5V19.4836C14.1948 19.372 15.7363 18.6971 16.938 17.6451L21.6464 22.3536C21.8417 22.5488 22.1583 22.5488 22.3536 22.3536C22.5488 22.1583 22.5488 21.8417 22.3536 21.6464L15.1823 14.4752L2.35355 1.64645ZM14.0961 14.8032L8.5 9.20711V12C8.5 13.933 10.067 15.5 12 15.5C12.7864 15.5 13.5117 15.2411 14.0961 14.8032Z" fill="#000"/>
<path d="M12 1.5C10.1743 1.5 8.60352 2.58725 7.89793 4.14747C7.78414 4.39908 7.89587 4.6953 8.14747 4.80908C8.39908 4.92287 8.6953 4.81114 8.80908 4.55953C9.35876 3.34408 10.5813 2.5 12 2.5C13.933 2.5 15.5 4.067 15.5 6V12C15.5 12.2761 15.7239 12.5 16 12.5C16.2761 12.5 16.5 12.2761 16.5 12V6C16.5 3.51472 14.4853 1.5 12 1.5Z" fill="#000"/>
<path d="M19.5 12C19.5 11.7239 19.2761 11.5 19 11.5C18.7239 11.5 18.5 11.7239 18.5 12C18.5 12.829 18.345 13.6207 18.0629 14.3484C17.9631 14.6059 18.091 14.8955 18.3484 14.9953C18.6059 15.0952 18.8955 14.9673 18.9953 14.7099C19.3214 13.8687 19.5 12.9546 19.5 12Z" fill="#000"/>
</svg>
