<svg width="24" height="24" viewBox="0 0 24 24" fill="none" xmlns="http://www.w3.org/2000/svg">
<path d="M14.2222 1.5H9.77779C8.95653 1.5 8.30954 1.49999 7.78889 1.54253C7.25771 1.58593 6.81414 1.67609 6.41103 1.88148C6.33159 1.92196 6.25393 1.96535 6.17819 2.01152C5.94241 2.15525 5.86778 2.46291 6.01152 2.6987C6.15525 2.93449 6.46291 3.00911 6.6987 2.86537C6.75279 2.8324 6.80827 2.8014 6.86502 2.77248C7.10366 2.65089 7.40099 2.57756 7.87032 2.53921C8.3455 2.50039 8.95167 2.5 9.8 2.5H14.2C15.0483 2.5 15.6545 2.50039 16.1297 2.53921C16.599 2.57756 16.8963 2.65089 17.135 2.77248C17.6054 3.01217 17.9878 3.39462 18.2275 3.86502C18.3491 4.10366 18.4224 4.40099 18.4608 4.87032C18.4996 5.34549 18.5 5.95167 18.5 6.8V15C18.5 15.2761 18.7239 15.5 19 15.5C19.2761 15.5 19.5 15.2761 19.5 15V6.77778C19.5 5.95658 19.5 5.30951 19.4575 4.78889C19.4141 4.25771 19.3239 3.81413 19.1185 3.41103C18.783 2.75247 18.2475 2.21703 17.589 1.88148C17.1859 1.67609 16.7423 1.58593 16.2111 1.54253C15.6905 1.49999 15.0435 1.5 14.2222 1.5Z" fill="#000"/>
<path d="M12 17.75C11.5858 17.75 11.25 18.0858 11.25 18.5C11.25 18.9142 11.5858 19.25 12 19.25C12.4142 19.25 12.7501 18.9142 12.7501 18.5C12.7501 18.0858 12.4142 17.75 12 17.75Z" fill="#000"/>
<path fill-rule="evenodd" clip-rule="evenodd" d="M4.5171 5.22421L1.64645 2.35355C1.45118 2.15829 1.45118 1.84171 1.64645 1.64645C1.84171 1.45118 2.15829 1.45118 2.35355 1.64645L5.37898 4.67187C5.38006 4.67294 5.38113 4.67402 5.3822 4.67509L19.3459 18.6388C19.3462 18.6391 19.3465 18.6394 19.3468 18.6397L22.3536 21.6464C22.5488 21.8417 22.5488 22.1583 22.3536 22.3536C22.1583 22.5488 21.8417 22.5488 21.6464 22.3536L19.3398 20.0469C18.9737 21.2156 18.0192 22.1147 16.8171 22.4033C16.4135 22.5002 15.9402 22.5001 15.1788 22.5L9.77778 22.5C8.95652 22.5 8.30954 22.5 7.78889 22.4575C7.25771 22.4141 6.81413 22.3239 6.41103 22.1185C5.75247 21.783 5.21703 21.2475 4.88148 20.589C4.67609 20.1859 4.58593 19.7423 4.54253 19.2111C4.49999 18.6905 4.5 18.0435 4.5 17.2222L4.5 6.78531C4.5 6.17372 4.5 5.65977 4.5171 5.22421ZM5.50065 6.20776C5.50002 6.39136 5.5 6.58819 5.5 6.8V17.2C5.5 18.0483 5.50039 18.6545 5.53921 19.1297C5.57756 19.599 5.65089 19.8963 5.77248 20.135C6.01217 20.6054 6.39462 20.9878 6.86502 21.2275C7.10366 21.3491 7.40099 21.4224 7.87032 21.4608C8.3455 21.4996 8.95167 21.5 9.8 21.5H15.1C15.9656 21.5 16.3104 21.4965 16.5836 21.4309C17.4977 21.2115 18.2115 20.4977 18.4309 19.5836C18.4559 19.4797 18.4728 19.3587 18.4835 19.1906L5.50065 6.20776Z" fill="#000"/>
<path d="M10 5C10 4.72386 10.2239 4.5 10.5 4.5H13.5C13.7761 4.5 14 4.72386 14 5C14 5.27614 13.7761 5.5 13.5 5.5H10.5C10.2239 5.5 10 5.27614 10 5Z" fill="#000"/>
</svg>
