<svg width="24" height="25" viewBox="0 0 24 25" fill="none" xmlns="http://www.w3.org/2000/svg">
<path d="M11.25 18.1827C11.25 17.7685 11.5858 17.4327 12 17.4327C12.4142 17.4327 12.7501 17.7685 12.7501 18.1827C12.7501 18.597 12.4143 18.9327 12.0001 18.9327C11.5859 18.9327 11.25 18.597 11.25 18.1827Z" fill="#000"/>
<path d="M10.5 4.18274C10.2239 4.18274 10 4.4066 10 4.68274C10 4.95888 10.2239 5.18274 10.5 5.18274H13.5C13.7761 5.18274 14 4.95888 14 4.68274C14 4.4066 13.7761 4.18274 13.5 4.18274H10.5Z" fill="#000"/>
<path fill-rule="evenodd" clip-rule="evenodd" d="M10.1777 1.18274H13.8223C14.7135 1.18274 15.413 1.18273 15.9753 1.22868C16.5482 1.27548 17.0226 1.37245 17.4525 1.59146C18.1581 1.95099 18.7317 2.52467 19.0913 3.23027C19.3103 3.66012 19.4073 4.13456 19.4541 4.70743C19.5 5.26976 19.5 5.9692 19.5 6.86036V16.5051C19.5 17.3962 19.5 18.0957 19.4541 18.658C19.4073 19.2309 19.3103 19.7054 19.0913 20.1352C18.7317 20.8408 18.1581 21.4145 17.4525 21.774C17.0226 21.993 16.5482 22.09 15.9753 22.1368C15.413 22.1827 14.7135 22.1827 13.8223 22.1827H10.1777C9.28648 22.1827 8.58703 22.1827 8.02469 22.1368C7.45183 22.09 6.97738 21.993 6.54754 21.774C5.84193 21.4145 5.26825 20.8408 4.90873 20.1352C4.68971 19.7054 4.59274 19.2309 4.54594 18.658C4.49999 18.0957 4.5 17.3962 4.5 16.5051V6.86041C4.5 5.96923 4.49999 5.26977 4.54594 4.70743C4.59274 4.13456 4.68971 3.66012 4.90873 3.23027C5.26825 2.52467 5.84193 1.95099 6.54754 1.59146C6.97738 1.37245 7.45183 1.27548 8.02469 1.22868C8.58703 1.18273 9.28649 1.18274 10.1777 1.18274ZM8.10612 2.22536C7.5951 2.26711 7.2669 2.34726 7.00153 2.48247C6.48408 2.74612 6.06338 3.16682 5.79973 3.68427C5.66452 3.94964 5.58437 4.27784 5.54262 4.78886C5.50039 5.30572 5.5 5.9644 5.5 6.88274V16.4827C5.5 17.4011 5.50039 18.0598 5.54262 18.5766C5.58437 19.0876 5.66452 19.4158 5.79973 19.6812C6.06338 20.1987 6.48408 20.6194 7.00153 20.883C7.2669 21.0182 7.5951 21.0984 8.10612 21.1401C8.62298 21.1824 9.28166 21.1827 10.2 21.1827H13.8C14.7183 21.1827 15.377 21.1824 15.8939 21.1401C16.4049 21.0984 16.7331 21.0182 16.9985 20.883C17.5159 20.6194 17.9366 20.1987 18.2003 19.6812C18.3355 19.4158 18.4156 19.0876 18.4574 18.5766C18.4996 18.0598 18.5 17.4011 18.5 16.4827V6.88274C18.5 5.9644 18.4996 5.30572 18.4574 4.78886C18.4156 4.27784 18.3355 3.94964 18.2003 3.68427C17.9366 3.16682 17.5159 2.74612 16.9985 2.48247C16.7331 2.34726 16.4049 2.26711 15.8939 2.22536C15.377 2.18313 14.7183 2.18274 13.8 2.18274H10.2C9.28166 2.18274 8.62298 2.18313 8.10612 2.22536Z" fill="#000"/>
</svg>
