<svg width="24" height="25" viewBox="0 0 24 25" fill="none" xmlns="http://www.w3.org/2000/svg">
<path d="M11.25 18.5C11.25 18.0858 11.5858 17.75 12 17.75C12.4142 17.75 12.7501 18.0858 12.7501 18.5C12.7501 18.9142 12.4143 19.25 12.0001 19.25C11.5859 19.25 11.25 18.9142 11.25 18.5Z" fill="#000"/>
<path d="M10.5 4.5C10.2239 4.5 10 4.72386 10 5C10 5.27614 10.2239 5.5 10.5 5.5H13.5C13.7761 5.5 14 5.27614 14 5C14 4.72386 13.7761 4.5 13.5 4.5H10.5Z" fill="#000"/>
<path fill-rule="evenodd" clip-rule="evenodd" d="M10.1777 1.5H13.8223C14.7135 1.5 15.413 1.49999 15.9753 1.54594C16.5482 1.59274 17.0226 1.68971 17.4525 1.90873C18.1581 2.26825 18.7317 2.84193 19.0913 3.54754C19.3103 3.97738 19.4073 4.45183 19.4541 5.02469C19.5 5.58702 19.5 6.28646 19.5 7.17762V16.8223C19.5 17.7135 19.5 18.413 19.4541 18.9753C19.4073 19.5482 19.3103 20.0226 19.0913 20.4525C18.7317 21.1581 18.1581 21.7317 17.4525 22.0913C17.0226 22.3103 16.5482 22.4073 15.9753 22.4541C15.413 22.5 14.7135 22.5 13.8223 22.5H10.1777C9.28648 22.5 8.58703 22.5 8.02469 22.4541C7.45183 22.4073 6.97738 22.3103 6.54754 22.0913C5.84193 21.7317 5.26825 21.1581 4.90873 20.4525C4.68971 20.0226 4.59274 19.5482 4.54594 18.9753C4.49999 18.413 4.5 17.7135 4.5 16.8223V7.17767C4.5 6.28649 4.49999 5.58703 4.54594 5.02469C4.59274 4.45183 4.68971 3.97738 4.90873 3.54754C5.26825 2.84193 5.84193 2.26825 6.54754 1.90873C6.97738 1.68971 7.45183 1.59274 8.02469 1.54594C8.58703 1.49999 9.28649 1.5 10.1777 1.5ZM8.10612 2.54262C7.5951 2.58437 7.2669 2.66452 7.00153 2.79973C6.48408 3.06338 6.06338 3.48408 5.79973 4.00153C5.66452 4.2669 5.58437 4.5951 5.54262 5.10612C5.50039 5.62298 5.5 6.28166 5.5 7.2V16.8C5.5 17.7183 5.50039 18.377 5.54262 18.8939C5.58437 19.4049 5.66452 19.7331 5.79973 19.9985C6.06338 20.5159 6.48408 20.9366 7.00153 21.2003C7.2669 21.3355 7.5951 21.4156 8.10612 21.4574C8.62298 21.4996 9.28166 21.5 10.2 21.5H13.8C14.7183 21.5 15.377 21.4996 15.8939 21.4574C16.4049 21.4156 16.7331 21.3355 16.9985 21.2003C17.5159 20.9366 17.9366 20.5159 18.2003 19.9985C18.3355 19.7331 18.4156 19.4049 18.4574 18.8939C18.4996 18.377 18.5 17.7183 18.5 16.8V7.2C18.5 6.28166 18.4996 5.62298 18.4574 5.10612C18.4156 4.5951 18.3355 4.2669 18.2003 4.00153C17.9366 3.48408 17.5159 3.06338 16.9985 2.79973C16.7331 2.66452 16.4049 2.58437 15.8939 2.54262C15.377 2.50039 14.7183 2.5 13.8 2.5H10.2C9.28166 2.5 8.62298 2.50039 8.10612 2.54262Z" fill="#000"/>
</svg>
