<svg width="24" height="24" viewBox="0 0 24 24" fill="none" xmlns="http://www.w3.org/2000/svg">
<path d="M9.77779 2.75H18.222C19.0433 2.75 19.6903 2.74999 20.2109 2.79253C20.7421 2.83593 21.1857 2.92609 21.5888 3.13148C22.2474 3.46703 22.7828 4.00247 23.1184 4.66103C23.3237 5.06413 23.4139 5.50771 23.4573 6.03889C23.4998 6.55954 23.4998 7.20651 23.4998 8.02778V12.9722C23.4998 13.7935 23.4998 14.4405 23.4573 14.9611C23.4139 15.4923 23.3237 15.9359 23.1184 16.339C22.8101 16.944 22.3332 17.445 21.7471 17.7827C21.5078 17.9205 21.2021 17.8383 21.0642 17.599C20.9264 17.3598 21.0086 17.054 21.2479 16.9162C21.6665 16.675 22.0072 16.3171 22.2273 15.885C22.3489 15.6463 22.4223 15.349 22.4606 14.8797C22.4994 14.4045 22.4998 13.7983 22.4998 12.95V8.05C22.4998 7.20167 22.4994 6.59549 22.4606 6.12032C22.4223 5.65099 22.3489 5.35366 22.2273 5.11502C21.9877 4.64462 21.6052 4.26217 21.1348 4.02248C20.8962 3.90089 20.5988 3.82756 20.1295 3.78921C19.6543 3.75039 19.0482 3.75 18.1998 3.75H9.79999C8.95166 3.75 8.34549 3.75039 7.87031 3.78921C7.40098 3.82756 7.10365 3.90089 6.86502 4.02248C6.43285 4.24268 6.07492 4.58338 5.83373 5.00207C5.69589 5.24135 5.39018 5.32359 5.1509 5.18575C4.91162 5.04791 4.82938 4.7422 4.96722 4.50292C5.30489 3.91674 5.80599 3.43976 6.41103 3.13148C6.81413 2.92609 7.2577 2.83593 7.78888 2.79253C8.30954 2.74999 8.95652 2.75 9.77779 2.75Z" fill="#000"/>
<path fill-rule="evenodd" clip-rule="evenodd" d="M10 10.75C8.20507 10.75 6.75 12.2051 6.75 14C6.75 15.7949 8.20507 17.25 10 17.25C11.7949 17.25 13.25 15.7949 13.25 14C13.25 12.2051 11.7949 10.75 10 10.75ZM7.75 14C7.75 12.7574 8.75736 11.75 10 11.75C11.2426 11.75 12.25 12.7574 12.25 14C12.25 15.2426 11.2426 16.25 10 16.25C8.75736 16.25 7.75 15.2426 7.75 14Z" fill="#000"/>
<path d="M15.25 14C15.25 13.5858 15.5858 13.25 16 13.25C16.4142 13.25 16.7501 13.5858 16.7501 14C16.7501 14.4142 16.4143 14.75 16.0001 14.75C15.5859 14.75 15.25 14.4142 15.25 14Z" fill="#000"/>
<path d="M4 13.25C3.58579 13.25 3.25 13.5858 3.25 14C3.25 14.4142 3.58579 14.75 4 14.75C4.41421 14.75 4.7501 14.4142 4.7501 14C4.7501 13.5858 4.41421 13.25 4 13.25Z" fill="#000"/>
<path fill-rule="evenodd" clip-rule="evenodd" d="M5.77779 6.75H14.222C15.0433 6.75 15.6903 6.74999 16.2109 6.79253C16.7421 6.83593 17.1857 6.92609 17.5888 7.13148C18.2474 7.46703 18.7828 8.00247 19.1184 8.66103C19.3238 9.06413 19.4139 9.50771 19.4573 10.0389C19.4998 10.5595 19.4998 11.2065 19.4998 12.0278V15.9722C19.4998 16.7935 19.4998 17.4405 19.4573 17.9611C19.4139 18.4923 19.3238 18.9359 19.1184 19.339C18.7828 19.9975 18.2474 20.533 17.5888 20.8685C17.1857 21.0739 16.7421 21.1641 16.2109 21.2075C15.6903 21.25 15.0434 21.25 14.2222 21.25H5.77778C4.95661 21.25 4.3095 21.25 3.78889 21.2075C3.25771 21.1641 2.81414 21.0739 2.41103 20.8685C1.75247 20.533 1.21703 19.9975 0.881477 19.339C0.676087 18.9359 0.585932 18.4923 0.542533 17.9611C0.499994 17.4405 0.499997 16.7935 0.5 15.9722V12.0278C0.499997 11.2065 0.499994 10.5595 0.542533 10.0389C0.585932 9.50771 0.676087 9.06413 0.881477 8.66103C1.21703 8.00247 1.75247 7.46703 2.41103 7.13148C2.81413 6.92609 3.25771 6.83593 3.78889 6.79253C4.30955 6.74999 4.95652 6.75 5.77779 6.75ZM3.87032 7.78921C3.40099 7.82756 3.10366 7.90089 2.86502 8.02248C2.39462 8.26217 2.01217 8.64462 1.77248 9.11502C1.65089 9.35366 1.57756 9.65099 1.53921 10.1203C1.50039 10.5955 1.5 11.2017 1.5 12.05V15.95C1.5 16.7983 1.50039 17.4045 1.53921 17.8797C1.57756 18.349 1.65089 18.6463 1.77248 18.885C2.01217 19.3554 2.39462 19.7378 2.86502 19.9775C3.10366 20.0991 3.40099 20.1724 3.87032 20.2108C4.3455 20.2496 4.95167 20.25 5.8 20.25H14.1998C15.0482 20.25 15.6543 20.2496 16.1295 20.2108C16.5989 20.1724 16.8962 20.0991 17.1348 19.9775C17.6052 19.7378 17.9877 19.3554 18.2274 18.885C18.3489 18.6463 18.4223 18.349 18.4606 17.8797C18.4995 17.4045 18.4998 16.7983 18.4998 15.95V12.05C18.4998 11.2017 18.4995 10.5955 18.4606 10.1203C18.4223 9.65099 18.3489 9.35366 18.2274 9.11502C17.9877 8.64462 17.6052 8.26217 17.1348 8.02248C16.8962 7.90089 16.5989 7.82756 16.1295 7.78921C15.6543 7.75039 15.0482 7.75 14.1998 7.75H5.8C4.95167 7.75 4.34549 7.75039 3.87032 7.78921Z" fill="#000"/>
</svg>
