<svg width="24" height="24" viewBox="0 0 24 24" fill="none" xmlns="http://www.w3.org/2000/svg">
<path d="M11.5 8.5308V8.00001C11.5 7.72387 11.7239 7.50001 12 7.50001C12.2761 7.50001 12.5 7.72387 12.5 8.00001V8.52664C12.7363 8.55485 12.9586 8.60795 13.1844 8.69747C13.5499 8.84243 13.894 9.07141 14.3019 9.38021C14.522 9.54691 14.5653 9.86052 14.3986 10.0807C14.232 10.3008 13.9183 10.3441 13.6982 10.1774C13.306 9.88048 13.0502 9.72004 12.8157 9.62703C12.5929 9.53865 12.3604 9.5 12 9.5C11.471 9.5 11.0839 9.62484 10.8433 9.79906C10.6177 9.96243 10.5 10.1808 10.5 10.4654C10.5 10.8136 10.6606 11.0169 10.9443 11.1756C11.2595 11.3521 11.6791 11.4396 12.0822 11.5068C12.4791 11.5729 13.0595 11.6804 13.5443 11.9518C14.0606 12.2408 14.5 12.7382 14.5 13.5346C14.5 14.153 14.2177 14.6673 13.7433 15.0108C13.4009 15.2588 12.9734 15.4089 12.5 15.4692V16C12.5 16.2761 12.2761 16.5 12 16.5C11.7239 16.5 11.5 16.2761 11.5 16V15.4733C11.2637 15.4451 11.0414 15.392 10.8157 15.3025C10.4502 15.1575 10.106 14.9285 9.69819 14.6197C9.47804 14.453 9.43471 14.1394 9.60141 13.9193C9.76811 13.6991 10.0817 13.6558 10.3019 13.8225C10.694 14.1195 10.9499 14.2799 11.1844 14.373C11.4072 14.4613 11.6396 14.5 12 14.5C12.529 14.5 12.9162 14.3752 13.1568 14.2009C13.3823 14.0376 13.5 13.8192 13.5 13.5346C13.5 13.1864 13.3394 12.9831 13.0558 12.8244C12.7406 12.6479 12.321 12.5604 11.9178 12.4932C11.521 12.4271 10.9406 12.3196 10.4558 12.0482C9.93941 11.7592 9.50003 11.2618 9.50003 10.4654C9.50003 9.84703 9.78233 9.33275 10.2567 8.98916C10.5991 8.7412 11.0267 8.59116 11.5 8.5308Z" fill="#000"/>
<path fill-rule="evenodd" clip-rule="evenodd" d="M17.7637 3.5C15.6065 3.5 13.825 4.00941 12.0923 4.50488L12.0131 4.52754C10.2485 5.03199 8.5214 5.51656 6.39081 5.51656C5.28493 5.51656 4.26036 5.29661 3.16627 4.98508C2.67035 4.84387 2.14597 4.90749 1.73228 5.15091C1.3095 5.39969 1 5.84281 1 6.4108V17.6449C1 18.2065 1.15941 18.6839 1.46088 19.072C1.75643 19.4525 2.16284 19.7145 2.60692 19.8989C3.56493 20.3024 4.36109 20.5 6.2363 20.5C8.39351 20.5 10.175 19.9906 11.9077 19.4951L11.9869 19.4725C13.7515 18.968 15.4786 18.4834 17.6092 18.4834C18.7151 18.4834 19.7396 18.7034 20.8337 19.0149C21.3297 19.1561 21.854 19.0925 22.2677 18.8491C22.6905 18.6003 23 18.1572 23 17.5892L23 6.35513C23 5.7935 22.8406 5.31609 22.5391 4.92797C22.2436 4.54748 21.8372 4.28556 21.3932 4.10114C20.4351 3.69766 19.639 3.5 17.7637 3.5ZM6.39081 6.51656C8.67668 6.51656 10.5255 5.99285 12.288 5.48902L12.3264 5.47804C14.0816 4.97624 15.7474 4.5 17.7637 4.5C19.5359 4.5 20.195 4.6815 21.0061 5.02319L21.0086 5.02424C21.3484 5.16522 21.5914 5.33802 21.7494 5.54139C21.9017 5.73752 22 5.99375 22 6.35513V17.5892C22 17.7603 21.9166 17.8954 21.7606 17.9872C21.5955 18.0844 21.3552 18.1236 21.1076 18.0531C19.9775 17.7314 18.8502 17.4834 17.6092 17.4834C15.3233 17.4834 13.4745 18.0072 11.712 18.511L11.6736 18.522C9.9184 19.0238 8.25256 19.5 6.2363 19.5C4.46407 19.5 3.805 19.3185 2.99392 18.9768L2.99141 18.9758C2.6516 18.8348 2.4086 18.662 2.25063 18.4586C2.09829 18.2625 2 18.0063 2 17.6449L2 6.4108C2 6.23973 2.08342 6.10458 2.23943 6.01277C2.40453 5.91562 2.64482 5.87635 2.89242 5.94685C4.0225 6.26863 5.14982 6.51656 6.39081 6.51656Z" fill="#000"/>
</svg>
