<svg width="24" height="24" viewBox="0 0 24 24" fill="none" xmlns="http://www.w3.org/2000/svg">
<path d="M16.4224 2.5H6.57755C5.61647 2.5 4.86451 2.49999 4.26049 2.54935C3.64594 2.59956 3.14062 2.70334 2.68404 2.93597C1.93139 3.31947 1.31947 3.93139 0.935974 4.68404C0.703335 5.14062 0.599556 5.64594 0.549345 6.26049C0.499995 6.86451 0.499997 7.61646 0.5 8.57755V13.4224C0.499997 14.3835 0.499995 15.1355 0.549345 15.7395C0.599556 16.3541 0.703335 16.8594 0.935974 17.316C1.31947 18.0686 1.93139 18.6805 2.68404 19.064C3.14062 19.2967 3.64594 19.4004 4.26049 19.4507C4.86451 19.5 5.61646 19.5 6.57754 19.5H12.9162C13.1923 19.5 13.4162 19.2761 13.4162 19C13.4162 18.7239 13.1923 18.5 12.9162 18.5H6.6C5.61166 18.5 4.90047 18.4996 4.34192 18.454C3.78921 18.4088 3.43014 18.3219 3.13803 18.173C2.57354 17.8854 2.1146 17.4265 1.82698 16.862C1.67814 16.5699 1.59118 16.2108 1.54602 15.6581C1.50039 15.0995 1.5 14.3883 1.5 13.4V8.6C1.5 7.61166 1.50039 6.90047 1.54602 6.34192C1.59118 5.78921 1.67814 5.43014 1.82698 5.13803C2.1146 4.57354 2.57354 4.1146 3.13803 3.82698C3.43014 3.67814 3.78921 3.59118 4.34192 3.54602C4.90047 3.50039 5.61166 3.5 6.6 3.5H16.4C17.3883 3.5 18.0995 3.50039 18.6581 3.54602C19.2108 3.59118 19.5699 3.67814 19.862 3.82698C20.4265 4.1146 20.8854 4.57354 21.173 5.13803C21.3219 5.43014 21.4088 5.78921 21.454 6.34192C21.4996 6.90047 21.5 7.61166 21.5 8.6V11.048C21.5 11.3241 21.7239 11.548 22 11.548C22.2761 11.548 22.5 11.3241 22.5 11.048V8.57754C22.5 7.61646 22.5 6.86451 22.4507 6.26049C22.4004 5.64594 22.2967 5.14062 22.064 4.68404C21.6805 3.93139 21.0686 3.31947 20.316 2.93597C19.8594 2.70334 19.3541 2.59956 18.7395 2.54935C18.1355 2.49999 17.3835 2.5 16.4224 2.5Z" fill="#000"/>
<path fill-rule="evenodd" clip-rule="evenodd" d="M11.5092 14.5L11.5046 14.5L11.5 14.5C9.567 14.5 8 12.933 8 11C8 9.067 9.567 7.5 11.5 7.5C13.433 7.5 15 9.067 15 11C15 12.8463 13.4504 14.5 11.5092 14.5ZM9 11C9 9.61929 10.1193 8.5 11.5 8.5C12.8807 8.5 14 9.61929 14 11C14 12.3142 12.8781 13.5 11.5092 13.5L11.5046 13.5L11.5 13.5C10.1193 13.5 9 12.3807 9 11Z" fill="#000"/>
<path d="M5 10.25C4.58579 10.25 4.25 10.5858 4.25 11C4.25 11.4142 4.58579 11.75 5 11.75C5.41421 11.75 5.7501 11.4142 5.7501 11C5.7501 10.5858 5.41421 10.25 5 10.25Z" fill="#000"/>
<path d="M23.5 18C23.5 18.2761 23.2761 18.5 23 18.5H20.5V21C20.5 21.2761 20.2761 21.5 20 21.5C19.7239 21.5 19.5 21.2761 19.5 21V18.5H17C16.7239 18.5 16.5 18.2761 16.5 18C16.5 17.7239 16.7239 17.5 17 17.5H19.5V15C19.5 14.7239 19.7239 14.5 20 14.5C20.2761 14.5 20.5 14.7239 20.5 15V17.5H23C23.2761 17.5 23.5 17.7239 23.5 18Z" fill="#000"/>
</svg>
