<svg width="24" height="24" viewBox="0 0 24 24" fill="none" xmlns="http://www.w3.org/2000/svg">
<path d="M12 0.5C12.2761 0.5 12.5 0.723858 12.5 1V7.79289L14.6464 5.64645C14.8417 5.45118 15.1583 5.45118 15.3536 5.64645C15.5488 5.84171 15.5488 6.15829 15.3536 6.35355L12.3536 9.35355C12.2598 9.44732 12.1326 9.5 12 9.5C11.8674 9.5 11.7402 9.44732 11.6464 9.35355L8.64645 6.35355C8.45118 6.15829 8.45118 5.84171 8.64645 5.64645C8.84171 5.45118 9.15829 5.45118 9.35355 5.64645L11.5 7.79289V1C11.5 0.723858 11.7239 0.5 12 0.5Z" fill="#000"/>
<path d="M7.26387 7.99989C7.26406 8.27603 7.04037 8.50005 6.76422 8.50024C5.88969 8.50087 5.25194 8.50685 4.7467 8.55456C4.24723 8.60173 3.91278 8.68715 3.63803 8.82715C3.07354 9.11477 2.6146 9.57371 2.32698 10.1382C2.17814 10.4303 2.09118 10.7894 2.04602 11.3421C2.00039 11.9006 2 12.6118 2 13.6002V17.4002C2 18.3885 2.00039 19.0997 2.04602 19.6582C2.09118 20.211 2.17814 20.57 2.32698 20.8621C2.6146 21.4266 3.07354 21.8856 3.63803 22.1732C3.93014 22.322 4.28921 22.409 4.84192 22.4541C5.40047 22.4998 6.11166 22.5002 7.1 22.5002H16.9C17.8883 22.5002 18.5995 22.4998 19.1581 22.4541C19.7108 22.409 20.0699 22.322 20.362 22.1732C20.9265 21.8856 21.3854 21.4266 21.673 20.8621C21.8219 20.57 21.9088 20.211 21.954 19.6582C21.9996 19.0997 22 18.3885 22 17.4002V13.6002C22 12.6118 21.9996 11.9006 21.954 11.3421C21.9088 10.7894 21.8219 10.4303 21.673 10.1382C21.3854 9.57371 20.9265 9.11477 20.362 8.82715C20.0872 8.68715 19.7528 8.60173 19.2533 8.55456C18.7481 8.50685 18.1103 8.50087 17.2358 8.50024C16.9596 8.50005 16.7359 8.27603 16.7361 7.99989C16.7363 7.72374 16.9604 7.50005 17.2365 7.50024C18.1006 7.50086 18.787 7.50607 19.3473 7.55899C19.9135 7.61246 20.3861 7.71711 20.816 7.93614C21.5686 8.31963 22.1805 8.93156 22.564 9.6842C22.7967 10.1408 22.9004 10.6461 22.9507 11.2607C23 11.8647 23 12.6166 23 13.5777V17.4226C23 18.3837 23 19.1357 22.9507 19.7397C22.9004 20.3542 22.7967 20.8595 22.564 21.3161C22.1805 22.0688 21.5686 22.6807 20.816 23.0642C20.3594 23.2968 19.8541 23.4006 19.2395 23.4508C18.6355 23.5002 17.8837 23.5002 16.9227 23.5002H7.07754C6.11656 23.5002 5.36447 23.5002 4.76049 23.4508C4.14594 23.4006 3.64062 23.2968 3.18404 23.0642C2.43139 22.6807 1.81947 22.0688 1.43597 21.3161C1.20334 20.8595 1.09956 20.3542 1.04935 19.7397C0.999995 19.1357 0.999997 18.3837 1 17.4226V13.5777C0.999997 12.6166 0.999995 11.8647 1.04935 11.2607C1.09956 10.6461 1.20334 10.1408 1.43597 9.6842C1.81947 8.93156 2.43139 8.31963 3.18404 7.93614C3.6139 7.71711 4.08655 7.61246 4.65268 7.55899C5.21305 7.50607 5.8994 7.50086 6.76351 7.50024C7.03965 7.50005 7.26367 7.72374 7.26387 7.99989Z" fill="#000"/>
<path fill-rule="evenodd" clip-rule="evenodd" d="M12.0043 12.0002L12 12.0002C10.067 12.0002 8.5 13.5672 8.5 15.5002C8.5 17.4332 10.067 19.0002 12 19.0002C13.933 19.0002 15.5 17.4332 15.5 15.5002C15.5 13.6598 13.94 12.0002 12.0086 12.0002L12.0043 12.0002ZM12 13.0002C10.6193 13.0002 9.5 14.1195 9.5 15.5002C9.5 16.8809 10.6193 18.0002 12 18.0002C13.3807 18.0002 14.5 16.8809 14.5 15.5002C14.5 14.1929 13.3686 13.0002 12.0086 13.0002L12.0043 13.0001L12 13.0002Z" fill="#000"/>
<path d="M4.75 15.5002C4.75 15.086 5.08579 14.7502 5.5 14.7502C5.91421 14.7502 6.2501 15.086 6.2501 15.5002C6.2501 15.9145 5.91431 16.2502 5.5001 16.2502C5.08589 16.2502 4.75 15.9145 4.75 15.5002Z" fill="#000"/>
<path d="M18.5 14.7502C18.0858 14.7502 17.75 15.086 17.75 15.5002C17.75 15.9145 18.0858 16.2502 18.5 16.2502C18.9142 16.2502 19.2501 15.9145 19.2501 15.5002C19.2501 15.086 18.9142 14.7502 18.5 14.7502Z" fill="#000"/>
</svg>
