<svg width="24" height="24" viewBox="0 0 24 24" fill="none" xmlns="http://www.w3.org/2000/svg">
<path d="M7.07756 7.50049H9C9.27614 7.50049 9.5 7.72435 9.5 8.00049C9.5 8.27663 9.27614 8.50049 9 8.50049H7.1C6.11166 8.50049 5.40047 8.50088 4.84192 8.54651C4.28921 8.59167 3.93014 8.67863 3.63803 8.82747C3.07354 9.11509 2.6146 9.57403 2.32698 10.1385C2.17814 10.4306 2.09118 10.7897 2.04602 11.3424C2.00039 11.901 2 12.6121 2 13.6005L2 17.4005C2 18.3888 2.00039 19.1 2.04602 19.6586C2.09118 20.2113 2.17814 20.5703 2.32698 20.8625C2.6146 21.4269 3.07354 21.8859 3.63803 22.1735C3.93014 22.3223 4.28921 22.4093 4.84192 22.4545C5.40047 22.5001 6.11166 22.5005 7.1 22.5005L16.9 22.5005C17.8883 22.5005 18.5995 22.5001 19.1581 22.4545C19.7108 22.4093 20.0699 22.3223 20.362 22.1735C20.9265 21.8859 21.3854 21.4269 21.673 20.8625C21.8219 20.5703 21.9088 20.2113 21.954 19.6586C21.9996 19.1 22 18.3888 22 17.4005V13.6005C22 12.6121 21.9996 11.901 21.954 11.3424C21.9088 10.7897 21.8219 10.4306 21.673 10.1385C21.3854 9.57403 20.9265 9.11509 20.362 8.82747C20.0699 8.67863 19.7108 8.59167 19.1581 8.54651C18.5995 8.50088 17.8883 8.50049 16.9 8.50049H15C14.7239 8.50049 14.5 8.27663 14.5 8.00049C14.5 7.72435 14.7239 7.50049 15 7.50049H16.9224C17.8834 7.50049 18.6355 7.50048 19.2395 7.54983C19.8541 7.60005 20.3594 7.70382 20.816 7.93646C21.5686 8.31996 22.1805 8.93188 22.564 9.68453C22.7967 10.1411 22.9004 10.6464 22.9507 11.261C23 11.865 23 12.6169 23 13.578V17.4229C23 18.384 23 19.136 22.9507 19.74C22.9004 20.3546 22.7967 20.8599 22.564 21.3165C22.1805 22.0691 21.5686 22.681 20.816 23.0645C20.3594 23.2972 19.8541 23.4009 19.2395 23.4511C18.6355 23.5005 17.8836 23.5005 16.9226 23.5005H7.0776C6.11651 23.5005 5.36451 23.5005 4.76049 23.4511C4.14594 23.4009 3.64062 23.2972 3.18404 23.0645C2.43139 22.681 1.81947 22.0691 1.43598 21.3165C1.20334 20.8599 1.09956 20.3546 1.04935 19.74C0.999996 19.136 0.999998 18.3841 1 17.423L1 13.578C0.999999 12.617 0.999997 11.865 1.04935 11.261C1.09956 10.6464 1.20334 10.1411 1.43597 9.68453C1.81947 8.93188 2.43139 8.31996 3.18404 7.93646C3.64062 7.70382 4.14594 7.60005 4.76049 7.54983C5.36451 7.50048 6.11646 7.50049 7.07756 7.50049Z" fill="#000"/>
<path fill-rule="evenodd" clip-rule="evenodd" d="M12.0043 12.0005L12 12.0005C10.067 12.0005 8.5 13.5675 8.5 15.5005C8.5 17.4335 10.067 19.0005 12 19.0005C13.933 19.0005 15.5 17.4335 15.5 15.5005C15.5 13.6602 13.94 12.0005 12.0086 12.0005L12.0043 12.0005ZM12 13.0005C10.6193 13.0005 9.5 14.1198 9.5 15.5005C9.5 16.8812 10.6193 18.0005 12 18.0005C13.3807 18.0005 14.5 16.8812 14.5 15.5005C14.5 14.1932 13.3686 13.0005 12.0086 13.0005L12.0043 13.0005L12 13.0005Z" fill="#000"/>
<path d="M4.75 15.5005C4.75 15.0863 5.08579 14.7505 5.5 14.7505C5.91422 14.7505 6.2501 15.0863 6.2501 15.5005C6.2501 15.9147 5.91431 16.2505 5.5001 16.2505C5.08589 16.2505 4.75 15.9147 4.75 15.5005Z" fill="#000"/>
<path d="M18.5 14.7505C18.0858 14.7505 17.75 15.0863 17.75 15.5005C17.75 15.9147 18.0858 16.2505 18.5 16.2505C18.9142 16.2505 19.2501 15.9147 19.2501 15.5005C19.2501 15.0863 18.9142 14.7505 18.5 14.7505Z" fill="#000"/>
<path d="M12 9.50025C11.7239 9.50025 11.5 9.27639 11.5 9.00025V2.20735L9.35355 4.3538C9.15829 4.54906 8.84171 4.54906 8.64645 4.3538C8.45119 4.15853 8.45119 3.84195 8.64645 3.64669L11.6464 0.64669C11.7402 0.552923 11.8674 0.500244 12 0.500244C12.1326 0.500244 12.2598 0.552923 12.3536 0.64669L15.3536 3.64669C15.5488 3.84195 15.5488 4.15854 15.3536 4.3538C15.1583 4.54906 14.8417 4.54906 14.6464 4.3538L12.5 2.20735V9.00025C12.5 9.27639 12.2761 9.50025 12 9.50025Z" fill="#000"/>
</svg>
