<svg width="24" height="24" viewBox="0 0 24 24" fill="none" xmlns="http://www.w3.org/2000/svg">
<g clip-path="url(#clip0_9002_8328)">
<path d="M17.25 12C17.25 11.5858 16.9142 11.25 16.5 11.25C16.0858 11.25 15.75 11.5858 15.75 12C15.75 12.4142 16.0858 12.7501 16.5 12.7501C16.9142 12.7501 17.25 12.4142 17.25 12Z" fill="#000"/>
<path d="M12 11.25C12.4142 11.25 12.75 11.5858 12.75 12C12.75 12.4142 12.4142 12.7501 12 12.7501C11.5858 12.7501 11.25 12.4143 11.25 12.0001C11.25 11.5859 11.5858 11.25 12 11.25Z" fill="#000"/>
<path d="M8.25 12C8.25 11.5858 7.91421 11.25 7.5 11.25C7.08579 11.25 6.75 11.5858 6.75 12C6.75 12.4142 7.08579 12.7501 7.5 12.7501C7.91421 12.7501 8.25 12.4142 8.25 12Z" fill="#000"/>
<path fill-rule="evenodd" clip-rule="evenodd" d="M12 0.5C5.64873 0.5 0.5 5.64873 0.5 12C0.5 18.3513 5.64873 23.5 12 23.5C18.3513 23.5 23.5 18.3513 23.5 12C23.5 5.64873 18.3513 0.5 12 0.5ZM1.5 12C1.5 6.20101 6.20101 1.5 12 1.5C17.799 1.5 22.5 6.20101 22.5 12C22.5 17.799 17.799 22.5 12 22.5C6.20101 22.5 1.5 17.799 1.5 12Z" fill="#000"/>
</g>
<defs>
<clipPath id="clip0_9002_8328">
<rect width="24" height="24" fill="white"/>
</clipPath>
</defs>
</svg>
