<svg width="24" height="24" viewBox="0 0 24 24" fill="none" xmlns="http://www.w3.org/2000/svg">
<path fill-rule="evenodd" clip-rule="evenodd" d="M19.26 1.5667C20.38 1.24004 21.5 2.08004 21.5 3.24671V6.98935C21.5002 6.99671 21.5002 7.00405 21.5 7.01136V15.5C21.5 16.299 21.1327 17.0761 20.4414 17.6521C19.0844 18.783 16.9156 18.783 15.5586 17.6521C14.8673 17.0761 14.5 16.2992 14.5 15.5002C14.5 14.7013 14.8673 13.9244 15.5586 13.3484C16.9156 12.2175 19.0844 12.2175 20.4414 13.3484C20.4612 13.3649 20.4807 13.3815 20.5 13.3983V7.66679L9.5 10.8751L9.5 19.5002C9.5 20.2992 9.13266 21.0761 8.44141 21.6521C7.08441 22.783 4.91558 22.783 3.55859 21.6521C2.86734 21.0761 2.5 20.2992 2.5 19.5002C2.5 18.7013 2.86734 17.9244 3.55859 17.3484C4.91559 16.2175 7.08442 16.2175 8.44141 17.3484C8.46121 17.3649 8.48074 17.3815 8.5 17.3983V10.5116C8.49982 10.5038 8.49982 10.496 8.5 10.4882V6.58004C8.5 5.46893 9.23333 4.49115 10.3 4.18004L19.26 1.5667ZM9.5 9.83346L20.5 6.62513V3.24671C20.5 2.74671 20.02 2.3867 19.54 2.5267L10.58 5.14004C9.94 5.3267 9.5 5.91337 9.5 6.58004V9.83346ZM7.80123 18.1166C8.28114 18.5165 8.49963 19.0187 8.5 19.499L8.5 19.5002C8.5 19.9809 8.28155 20.4836 7.80123 20.8839C6.81508 21.7057 5.18492 21.7057 4.19877 20.8839C3.71845 20.4836 3.5 19.9809 3.5 19.5002C3.5 19.0196 3.71845 18.5169 4.19877 18.1166C5.18492 17.2948 6.81508 17.2948 7.80123 18.1166ZM16.1988 14.1166C17.1849 13.2948 18.8151 13.2948 19.8012 14.1166C20.2816 14.5169 20.5 15.0196 20.5 15.5002C20.5 15.9809 20.2816 16.4836 19.8012 16.8839C18.8151 17.7057 17.1849 17.7057 16.1988 16.8839C15.7184 16.4836 15.5 15.9809 15.5 15.5002C15.5 15.0196 15.7184 14.5169 16.1988 14.1166Z" fill="#000"/>
</svg>
