<svg width="24" height="24" viewBox="0 0 24 24" fill="none" xmlns="http://www.w3.org/2000/svg">
<path d="M6.00002 16.5C5.72387 16.5 5.50002 16.7239 5.50002 17C5.50002 17.2761 5.72387 17.5 6.00002 17.5H9.00002C9.27616 17.5 9.50002 17.2761 9.50002 17C9.50002 16.7239 9.27616 16.5 9.00002 16.5H6.00002Z" fill="#000"/>
<path fill-rule="evenodd" clip-rule="evenodd" d="M12.0058 1.50003L12 1.5L11.9942 1.50003L7.88034 1.50002C7.07148 1.49979 6.54337 1.49965 6.06688 1.664C5.64651 1.80899 5.26362 2.04563 4.94594 2.35678C4.58585 2.70946 4.3498 3.18189 3.98826 3.90545L1.79321 8.29559C1.71115 8.4596 1.64907 8.58367 1.60442 8.71636C1.56497 8.83363 1.53648 8.95431 1.51933 9.07684C1.49992 9.2155 1.49995 9.35422 1.50001 9.53762L1.50001 17.2222C1.50001 18.0435 1.5 18.6905 1.54254 19.2111C1.58594 19.7423 1.6761 20.1859 1.88149 20.589C2.21704 21.2476 2.75248 21.783 3.41104 22.1186C3.81415 22.3239 4.25772 22.4141 4.7889 22.4575C5.30955 22.5 5.95653 22.5 6.77779 22.5H17.2222C18.0435 22.5 18.6905 22.5 19.2111 22.4575C19.7423 22.4141 20.1859 22.3239 20.589 22.1186C21.2475 21.783 21.783 21.2476 22.1185 20.589C22.3239 20.1859 22.4141 19.7423 22.4575 19.2111C22.5 18.6905 22.5 18.0435 22.5 17.2223L22.5 9.53763C22.5001 9.35422 22.5001 9.2155 22.4807 9.07684C22.4635 8.95431 22.4351 8.83363 22.3956 8.71636C22.3509 8.58366 22.2889 8.45959 22.2068 8.29555L20.0117 3.90543C19.6502 3.18188 19.4142 2.70946 19.0541 2.35678C18.7364 2.04563 18.3535 1.80899 17.9331 1.664C17.4567 1.49965 16.9285 1.49979 16.1197 1.50002L12.0058 1.50003ZM12.5 2.50003V8.5H21.191L19.1584 4.43479C18.7408 3.59971 18.5796 3.29177 18.3544 3.0712C18.1426 2.86376 17.8873 2.70601 17.6071 2.60934C17.3091 2.50656 16.9615 2.50003 16.0279 2.50003H12.5ZM2.80904 8.5H11.5V2.50003H7.97215C7.0385 2.50003 6.69095 2.50656 6.39295 2.60934C6.1127 2.70601 5.85745 2.86376 5.64566 3.0712C5.42045 3.29177 5.25919 3.59971 4.84165 4.43479L2.80904 8.5ZM2.50006 9.5L2.50001 17.2C2.50001 18.0484 2.5004 18.6545 2.53922 19.1297C2.57757 19.599 2.6509 19.8964 2.77249 20.135C3.01218 20.6054 3.39463 20.9879 3.86503 21.2275C4.10367 21.3491 4.401 21.4225 4.87033 21.4608C5.34551 21.4996 5.95168 21.5 6.80001 21.5H17.2C18.0483 21.5 18.6545 21.4996 19.1297 21.4608C19.599 21.4225 19.8964 21.3491 20.135 21.2275C20.6054 20.9879 20.9878 20.6054 21.2275 20.135C21.3491 19.8964 21.4225 19.599 21.4608 19.1297C21.4996 18.6545 21.5 18.0484 21.5 17.2L21.5 9.5H2.50006Z" fill="#000"/>
</svg>
