<svg width="24" height="24" viewBox="0 0 24 24" fill="none" xmlns="http://www.w3.org/2000/svg">
<path fill-rule="evenodd" clip-rule="evenodd" d="M17.6221 1.5H11.8779C11.1266 1.5 10.5321 1.49999 10.0531 1.53913C9.5636 1.57912 9.15089 1.66246 8.77453 1.85423C8.163 2.16582 7.66582 2.663 7.35423 3.27453C7.16246 3.65089 7.07912 4.0636 7.03913 4.55309C6.99999 5.03206 7 5.62654 7 6.3779V7H6.37794C5.62658 7 5.03206 6.99999 4.55309 7.03913C4.0636 7.07912 3.65089 7.16246 3.27453 7.35423C2.663 7.66582 2.16582 8.163 1.85423 8.77453C1.66246 9.15089 1.57912 9.5636 1.53913 10.0531C1.49999 10.5321 1.5 11.1266 1.5 11.8779V17.6221C1.5 18.3734 1.49999 18.9679 1.53913 19.4469C1.57912 19.9364 1.66246 20.3491 1.85423 20.7255C2.16582 21.337 2.663 21.8342 3.27453 22.1458C3.65089 22.3375 4.0636 22.4209 4.55309 22.4609C5.03205 22.5 5.62653 22.5 6.37788 22.5H12.1221C12.8734 22.5 13.4679 22.5 13.9469 22.4609C14.4364 22.4209 14.8491 22.3375 15.2255 22.1458C15.837 21.8342 16.3342 21.337 16.6458 20.7255C16.8375 20.3491 16.9209 19.9364 16.9609 19.4469C17 18.9679 17 18.3735 17 17.6221V17H17.6221C18.3734 17 18.9679 17 19.4469 16.9609C19.9364 16.9209 20.3491 16.8375 20.7255 16.6458C21.337 16.3342 21.8342 15.837 22.1458 15.2255C22.3375 14.8491 22.4209 14.4364 22.4609 13.9469C22.5 13.4679 22.5 12.8735 22.5 12.1221V6.37793C22.5 5.62657 22.5 5.03205 22.4609 4.55309C22.4209 4.0636 22.3375 3.65089 22.1458 3.27453C21.8342 2.663 21.337 2.16582 20.7255 1.85423C20.3491 1.66246 19.9364 1.57912 19.4469 1.53913C18.9679 1.49999 18.3734 1.5 17.6221 1.5ZM16 17V17.6C16 18.3783 15.9996 18.932 15.9642 19.3655C15.9293 19.7931 15.8627 20.0596 15.7548 20.2715C15.539 20.6948 15.1948 21.039 14.7715 21.2548C14.5596 21.3627 14.2931 21.4293 13.8655 21.4642C13.432 21.4996 12.8783 21.5 12.1 21.5H6.4C5.62168 21.5 5.06801 21.4996 4.63452 21.4642C4.20687 21.4293 3.94042 21.3627 3.72852 21.2548C3.30516 21.039 2.96095 20.6948 2.74524 20.2715C2.63727 20.0596 2.57075 19.7931 2.53581 19.3655C2.50039 18.932 2.5 18.3783 2.5 17.6V11.9C2.5 11.1217 2.50039 10.568 2.53581 10.1345C2.57075 9.70687 2.63727 9.44042 2.74524 9.22852C2.96095 8.80516 3.30516 8.46095 3.72852 8.24524C3.94042 8.13727 4.20687 8.07075 4.63452 8.03581C5.06801 8.00039 5.62168 8 6.4 8H7V12.1221C7 12.8734 6.99999 13.4679 7.03913 13.9469C7.07912 14.4364 7.16246 14.8491 7.35423 15.2255C7.66582 15.837 8.163 16.3342 8.77453 16.6458C9.15089 16.8375 9.5636 16.9209 10.0531 16.9609C10.5321 17 11.1266 17 11.8779 17H16ZM8 12.1C8 12.8783 8.00039 13.432 8.03581 13.8655C8.07075 14.2931 8.13727 14.5596 8.24524 14.7715C8.46095 15.1948 8.80516 15.539 9.22852 15.7548C9.44042 15.8627 9.70687 15.9293 10.1345 15.9642C10.568 15.9996 11.1217 16 11.9 16H17.6C18.3783 16 18.932 15.9996 19.3655 15.9642C19.7931 15.9293 20.0596 15.8627 20.2715 15.7548C20.6948 15.539 21.039 15.1948 21.2548 14.7715C21.3627 14.5596 21.4293 14.2931 21.4642 13.8655C21.4996 13.432 21.5 12.8783 21.5 12.1V6.4C21.5 5.62168 21.4996 5.06801 21.4642 4.63452C21.4293 4.20687 21.3627 3.94042 21.2548 3.72852C21.039 3.30516 20.6948 2.96095 20.2715 2.74524C20.0596 2.63727 19.7931 2.57075 19.3655 2.53581C18.932 2.50039 18.3783 2.5 17.6 2.5H11.9C11.1217 2.5 10.568 2.50039 10.1345 2.53581C9.70687 2.57075 9.44042 2.63727 9.22852 2.74524C8.80516 2.96095 8.46095 3.30516 8.24524 3.72852C8.13727 3.94042 8.07075 4.20687 8.03581 4.63452C8.00039 5.06801 8 5.62168 8 6.4V12.1Z" fill="#000"/>
</svg>
