<svg width="24" height="24" viewBox="0 0 24 24" fill="none" xmlns="http://www.w3.org/2000/svg">
<path fill-rule="evenodd" clip-rule="evenodd" d="M9.58333 6.5C8.98503 6.5 8.5 6.98502 8.5 7.58333V17C8.5 17.2761 8.72386 17.5 9 17.5C9.27614 17.5 9.5 17.2761 9.5 17V13H13.25C15.0449 13 16.5 11.5449 16.5 9.75C16.5 7.95507 15.0449 6.5 13.25 6.5H9.58333ZM13.25 12H9.5V7.58333C9.5 7.53731 9.53731 7.5 9.58333 7.5H13.25C14.4926 7.5 15.5 8.50736 15.5 9.75C15.5 10.9926 14.4926 12 13.25 12Z" fill="#000"/>
<path fill-rule="evenodd" clip-rule="evenodd" d="M15.6226 1.5H8.37737C7.27642 1.5 6.41948 1.5 5.73209 1.55616C5.03416 1.61318 4.4671 1.73058 3.95704 1.99047C3.11031 2.4219 2.4219 3.11031 1.99047 3.95704C1.73058 4.4671 1.61318 5.03416 1.55616 5.73209C1.5 6.41948 1.5 7.27641 1.5 8.37737V15.6226C1.5 16.7236 1.5 17.5805 1.55616 18.2679C1.61318 18.9658 1.73058 19.5329 1.99047 20.043C2.4219 20.8897 3.11031 21.5781 3.95704 22.0095C4.4671 22.2694 5.03416 22.3868 5.73209 22.4438C6.4195 22.5 7.27645 22.5 8.37744 22.5H15.6225C16.7235 22.5 17.5805 22.5 18.2679 22.4438C18.9658 22.3868 19.5329 22.2694 20.043 22.0095C20.8897 21.5781 21.5781 20.8897 22.0095 20.043C22.2694 19.5329 22.3868 18.9658 22.4438 18.2679C22.5 17.5805 22.5 16.7236 22.5 15.6227V8.37736C22.5 7.27642 22.5 6.41947 22.4438 5.73209C22.3868 5.03416 22.2694 4.4671 22.0095 3.95704C21.5781 3.11031 20.8897 2.4219 20.043 1.99047C19.5329 1.73058 18.9658 1.61318 18.2679 1.55616C17.5805 1.5 16.7236 1.5 15.6226 1.5ZM4.41103 2.88148C4.75662 2.70539 5.17744 2.60481 5.81352 2.55284C6.45545 2.50039 7.27164 2.5 8.4 2.5H15.6C16.7284 2.5 17.5446 2.50039 18.1865 2.55284C18.8226 2.60481 19.2434 2.70539 19.589 2.88148C20.2475 3.21703 20.783 3.75247 21.1185 4.41103C21.2946 4.75662 21.3952 5.17744 21.4472 5.81352C21.4996 6.45545 21.5 7.27164 21.5 8.4V15.6C21.5 16.7284 21.4996 17.5446 21.4472 18.1865C21.3952 18.8226 21.2946 19.2434 21.1185 19.589C20.783 20.2475 20.2475 20.783 19.589 21.1185C19.2434 21.2946 18.8226 21.3952 18.1865 21.4472C17.5446 21.4996 16.7284 21.5 15.6 21.5H8.4C7.27164 21.5 6.45545 21.4996 5.81352 21.4472C5.17744 21.3952 4.75662 21.2946 4.41103 21.1185C3.75247 20.783 3.21703 20.2475 2.88148 19.589C2.70539 19.2434 2.60481 18.8226 2.55284 18.1865C2.50039 17.5446 2.5 16.7284 2.5 15.6V8.4C2.5 7.27164 2.50039 6.45545 2.55284 5.81352C2.60481 5.17744 2.70539 4.75662 2.88148 4.41103C3.21703 3.75247 3.75247 3.21703 4.41103 2.88148Z" fill="#000"/>
</svg>
