<svg width="24" height="24" viewBox="0 0 24 24" fill="none" xmlns="http://www.w3.org/2000/svg">
<path fill-rule="evenodd" clip-rule="evenodd" d="M17.6206 1.5H16.3794C15.9769 1.49999 15.6447 1.49999 15.3741 1.5221C15.093 1.54506 14.8347 1.59434 14.592 1.71799C14.2157 1.90973 13.9097 2.2157 13.718 2.59202C13.5943 2.83469 13.5451 3.09304 13.5221 3.37409C13.5 3.64467 13.5 3.97684 13.5 4.3793V19.6207C13.5 20.0231 13.5 20.3553 13.5221 20.6259C13.5451 20.907 13.5943 21.1653 13.718 21.408C13.9097 21.7843 14.2157 22.0903 14.592 22.282C14.8347 22.4057 15.093 22.4549 15.3741 22.4779C15.6447 22.5 15.9768 22.5 16.3793 22.5H17.6207C18.0231 22.5 18.3553 22.5 18.6259 22.4779C18.907 22.4549 19.1653 22.4057 19.408 22.282C19.7843 22.0903 20.0903 21.7843 20.282 21.408C20.4057 21.1653 20.4549 20.907 20.4779 20.6259C20.5 20.3553 20.5 20.0231 20.5 19.6207V4.37934C20.5 3.97686 20.5 3.64468 20.4779 3.37409C20.4549 3.09304 20.4057 2.83469 20.282 2.59202C20.0903 2.2157 19.7843 1.90973 19.408 1.71799C19.1653 1.59434 18.907 1.54506 18.6259 1.5221C18.3553 1.49999 18.0231 1.49999 17.6206 1.5ZM15.046 2.60899C15.1242 2.56915 15.2363 2.53669 15.4555 2.51878C15.6806 2.50039 15.9717 2.5 16.4 2.5H17.6C18.0283 2.5 18.3194 2.50039 18.5445 2.51878C18.7637 2.53669 18.8758 2.56915 18.954 2.60899C19.1422 2.70487 19.2951 2.85785 19.391 3.04601C19.4309 3.12421 19.4633 3.23631 19.4812 3.45552C19.4996 3.68056 19.5 3.97171 19.5 4.4V19.6C19.5 20.0283 19.4996 20.3194 19.4812 20.5445C19.4633 20.7637 19.4309 20.8758 19.391 20.954C19.2951 21.1422 19.1422 21.2951 18.954 21.391C18.8758 21.4309 18.7637 21.4633 18.5445 21.4812C18.3194 21.4996 18.0283 21.5 17.6 21.5H16.4C15.9717 21.5 15.6806 21.4996 15.4555 21.4812C15.2363 21.4633 15.1242 21.4309 15.046 21.391C14.8578 21.2951 14.7049 21.1422 14.609 20.954C14.5691 20.8758 14.5367 20.7637 14.5188 20.5445C14.5004 20.3194 14.5 20.0283 14.5 19.6V4.4C14.5 3.97171 14.5004 3.68056 14.5188 3.45552C14.5367 3.23631 14.5691 3.12421 14.609 3.04601C14.7049 2.85785 14.8578 2.70487 15.046 2.60899Z" fill="#000"/>
<path fill-rule="evenodd" clip-rule="evenodd" d="M7.62065 1.5H6.37935C5.97687 1.49999 5.64468 1.49999 5.37409 1.5221C5.09304 1.54506 4.83469 1.59434 4.59202 1.71799C4.2157 1.90973 3.90973 2.2157 3.71799 2.59202C3.59434 2.83469 3.54506 3.09304 3.5221 3.37409C3.49999 3.64468 3.49999 3.97686 3.5 4.37934V19.6207C3.49999 20.0231 3.49999 20.3553 3.5221 20.6259C3.54506 20.907 3.59434 21.1653 3.71799 21.408C3.90973 21.7843 4.2157 22.0903 4.59202 22.282C4.83469 22.4057 5.09304 22.4549 5.37409 22.4779C5.64467 22.5 5.97683 22.5 6.37928 22.5H7.62066C8.02312 22.5 8.35533 22.5 8.62591 22.4779C8.90696 22.4549 9.16531 22.4057 9.40798 22.282C9.78431 22.0903 10.0903 21.7843 10.282 21.408C10.4057 21.1653 10.4549 20.907 10.4779 20.6259C10.5 20.3553 10.5 20.0231 10.5 19.6207V4.37934C10.5 3.97686 10.5 3.64468 10.4779 3.37409C10.4549 3.09304 10.4057 2.83469 10.282 2.59202C10.0903 2.2157 9.78431 1.90973 9.40798 1.71799C9.16531 1.59434 8.90696 1.54506 8.62591 1.5221C8.35532 1.49999 8.02313 1.49999 7.62065 1.5ZM5.04601 2.60899C5.12421 2.56915 5.23631 2.53669 5.45552 2.51878C5.68056 2.50039 5.97171 2.5 6.4 2.5H7.6C8.02829 2.5 8.31944 2.50039 8.54448 2.51878C8.76369 2.53669 8.87579 2.56915 8.95399 2.60899C9.14215 2.70487 9.29513 2.85785 9.39101 3.04601C9.43085 3.12421 9.46332 3.23631 9.48123 3.45552C9.49961 3.68056 9.5 3.97171 9.5 4.4V19.6C9.5 20.0283 9.49961 20.3194 9.48123 20.5445C9.46332 20.7637 9.43085 20.8758 9.39101 20.954C9.29513 21.1422 9.14215 21.2951 8.95399 21.391C8.87579 21.4309 8.76369 21.4633 8.54448 21.4812C8.31944 21.4996 8.02829 21.5 7.6 21.5H6.4C5.97171 21.5 5.68056 21.4996 5.45552 21.4812C5.23631 21.4633 5.12421 21.4309 5.04601 21.391C4.85785 21.2951 4.70487 21.1422 4.60899 20.954C4.56915 20.8758 4.53669 20.7637 4.51878 20.5445C4.50039 20.3194 4.5 20.0283 4.5 19.6V4.4C4.5 3.97171 4.50039 3.68056 4.51878 3.45552C4.53669 3.23631 4.56915 3.12421 4.60899 3.04601C4.70487 2.85785 4.85785 2.70487 5.04601 2.60899Z" fill="#000"/>
</svg>
