<svg width="24" height="24" viewBox="0 0 24 24" fill="none" xmlns="http://www.w3.org/2000/svg">
<path fill-rule="evenodd" clip-rule="evenodd" d="M19.3332 10.3728L19.263 10.4431L18.1976 14.8937C17.9507 15.9256 17.8002 16.5548 17.4802 17.086C17.1974 17.5555 16.821 17.9619 16.3746 18.2799C15.8694 18.6397 15.2536 18.838 14.2436 19.1633L5.72408 21.9082C5.0257 22.1332 4.46824 22.3129 4.02587 22.412C3.58472 22.5109 3.16613 22.5535 2.78536 22.416C2.22603 22.214 1.7856 21.7736 1.5836 21.2143C1.44609 20.8335 1.48869 20.4149 1.58759 19.9738C1.68677 19.5314 1.86637 18.9739 2.09138 18.2756L4.83639 9.75566C5.1616 8.74581 5.35988 8.1301 5.71963 7.62501C6.03758 7.1786 6.44389 6.80229 6.91333 6.51943C7.44447 6.1994 8.07354 6.04883 9.10533 5.80187L13.5558 4.73598L15.4011 2.89073C15.7349 2.55688 16.0069 2.28489 16.2457 2.08213C16.4926 1.87256 16.7367 1.70771 17.0243 1.61428C17.4762 1.46744 17.963 1.46744 18.4149 1.61427C18.7025 1.70771 18.9466 1.87255 19.1935 2.08212C19.4323 2.28488 19.7043 2.55685 20.0381 2.89071L21.1082 3.96074C21.442 4.29459 21.714 4.56655 21.9168 4.80539C22.1263 5.05225 22.2912 5.29642 22.3846 5.58399C22.5314 6.03588 22.5314 6.52266 22.3846 6.97456C22.2912 7.26212 22.1263 7.5063 21.9168 7.75315C21.714 7.99199 21.4421 8.26394 21.1082 8.59778L19.3728 10.3332C19.3666 10.3401 19.3602 10.3469 19.3536 10.3536C19.3469 10.3602 19.3401 10.3666 19.3332 10.3728ZM17.3333 2.56533C17.5844 2.48376 17.8548 2.48376 18.1059 2.56533C18.2179 2.60172 18.3468 2.67505 18.5463 2.84446C18.7503 3.01766 18.9936 3.26038 19.346 3.61273L20.3862 4.65294C20.7385 5.00528 20.9812 5.24855 21.1544 5.45257C21.3238 5.65213 21.3972 5.78099 21.4336 5.893C21.5151 6.14406 21.5151 6.41449 21.4336 6.66554C21.3972 6.77755 21.3238 6.90642 21.1544 7.10598C20.9812 7.31 20.7385 7.55327 20.3862 7.90562L18.9995 9.29235L14.7066 4.99945L16.0933 3.61274C16.4456 3.26039 16.6889 3.01766 16.8929 2.84446C17.0925 2.67505 17.2213 2.60173 17.3333 2.56533ZM13.9593 5.6664C13.9483 5.66984 13.9372 5.67291 13.926 5.6756L9.42672 6.75318C8.27834 7.02822 7.81155 7.14572 7.42942 7.37597C7.07734 7.58811 6.77261 7.87034 6.53415 8.20515C6.27533 8.56854 6.12244 9.02497 5.76032 10.1489L3.05126 18.5572C2.81637 19.2863 2.65134 19.8001 2.56337 20.1925C2.49469 20.4989 2.48683 20.6773 2.50342 20.7895L8.4142 14.8787C8.15244 14.4835 8 14.0095 8 13.5C8 12.1193 9.11929 11 10.5 11C11.8807 11 13 12.1193 13 13.5C13 14.8807 11.8807 16 10.5 16C9.99046 16 9.51652 15.8476 9.1213 15.5858L3.21081 21.4963C3.32297 21.5128 3.50136 21.5048 3.8071 21.4363C4.19949 21.3483 4.71335 21.1832 5.44238 20.9484L13.8504 18.2394C14.9745 17.8772 15.431 17.7243 15.7944 17.4654C16.1292 17.2269 16.4115 16.9221 16.6236 16.57C16.8539 16.1878 16.9713 15.7209 17.2463 14.5724L18.3233 10.073C18.326 10.0617 18.3291 10.0506 18.3325 10.0396L13.9593 5.6664ZM9 13.5C9 12.6716 9.67157 12 10.5 12C11.3284 12 12 12.6716 12 13.5C12 14.3284 11.3284 15 10.5 15C9.67157 15 9 14.3284 9 13.5Z" fill="#000"/>
</svg>
