<svg width="24" height="24" viewBox="0 0 24 24" fill="none" xmlns="http://www.w3.org/2000/svg">
<path fill-rule="evenodd" clip-rule="evenodd" d="M13.1408 5.1523L13.1464 5.14652L13.1522 5.14083L15.2297 3.06338C15.6126 2.68042 15.9215 2.37152 16.1922 2.1418C16.4708 1.90525 16.7416 1.72347 17.0576 1.62077C17.5598 1.45763 18.1006 1.45763 18.6027 1.62077C18.9188 1.72348 19.1897 1.90534 19.4684 2.14197C19.7391 2.37179 20.0482 2.68084 20.4313 3.06401L20.9362 3.56887C21.3193 3.95199 21.6284 4.26108 21.8582 4.53177C22.0948 4.81052 22.2767 5.08134 22.3794 5.39744C22.5425 5.89955 22.5425 6.44042 22.3794 6.94253C22.2767 7.25863 22.0948 7.52946 21.8582 7.8082C21.6284 8.07891 21.3193 8.38796 20.9362 8.77112L8.96009 20.7472C8.79492 20.9125 8.66998 21.0375 8.52455 21.139C8.3961 21.2287 8.25755 21.3029 8.11176 21.3602C7.94675 21.4251 7.77355 21.4599 7.54452 21.506L3.11875 22.3968C2.93853 22.433 2.77143 22.4667 2.63238 22.4818C2.48733 22.4975 2.30276 22.5026 2.1168 22.4257C1.8711 22.3242 1.67593 22.1291 1.57442 21.8834C1.49759 21.6974 1.50268 21.5128 1.5184 21.3678C1.53346 21.2287 1.5671 21.0617 1.6034 20.8814L2.49416 16.4558C2.5402 16.2267 2.575 16.0535 2.63991 15.8884C2.69724 15.7426 2.7715 15.6041 2.86116 15.4756C2.96266 15.3302 3.08646 15.2065 3.24995 15.0431L13.1408 5.1523ZM18.2937 2.57183C17.9924 2.47394 17.6679 2.47394 17.3667 2.57183C17.2261 2.61751 17.0706 2.70781 16.8393 2.90416C16.6035 3.10431 16.3233 3.38399 15.9217 3.78562L14.2072 5.50012L18.5 9.79301L20.2139 8.07917C20.6157 7.67732 20.8956 7.39692 21.0959 7.16102C21.2923 6.92958 21.3827 6.77406 21.4283 6.63351C21.5262 6.33225 21.5262 6.00773 21.4283 5.70646C21.3827 5.56591 21.2923 5.41039 21.0959 5.17895C20.8956 4.94305 20.6157 4.66265 20.2139 4.2608L19.7394 3.78628C19.3375 3.38443 19.0571 3.10458 18.8212 2.90431C18.5898 2.70783 18.4343 2.6175 18.2937 2.57183ZM17.7929 10.5001L13.5 6.20723L3.98282 15.7244C3.78271 15.9246 3.72592 15.9838 3.68117 16.0479C3.63634 16.1122 3.59921 16.1814 3.57055 16.2543C3.54196 16.327 3.52376 16.4085 3.46719 16.6895L2.58767 21.0592C2.5461 21.2657 2.52213 21.3873 2.51258 21.4755L2.51123 21.4889L2.52467 21.4876C2.61286 21.478 2.73442 21.4541 2.94097 21.4125L7.31063 20.533C7.59167 20.4764 7.67313 20.4582 7.74581 20.4296C7.81871 20.4009 7.88798 20.3638 7.95221 20.319C8.01625 20.2743 8.07651 20.2165 8.27922 20.0138L17.7929 10.5001Z" fill="#000"/>
<path d="M13 21.5001C12.7239 21.5001 12.5 21.7239 12.5 22.0001C12.5 22.2762 12.7239 22.5001 13 22.5001H22C22.2761 22.5001 22.5 22.2762 22.5 22.0001C22.5 21.7239 22.2761 21.5001 22 21.5001H13Z" fill="#000"/>
</svg>
