<svg width="24" height="24" viewBox="0 0 24 24" fill="none" xmlns="http://www.w3.org/2000/svg">
<path fill-rule="evenodd" clip-rule="evenodd" d="M13.1403 5.15265L3.24999 15.0429C3.0865 15.2063 2.96268 15.33 2.86117 15.4755C2.77151 15.6039 2.69725 15.7425 2.63993 15.8883C2.57502 16.0533 2.54021 16.2266 2.49418 16.4557L1.60341 20.8813C1.56712 21.0615 1.53348 21.2286 1.51841 21.3676C1.5027 21.5127 1.4976 21.6973 1.57443 21.8832C1.67594 22.1289 1.87111 22.3241 2.11681 22.4256C2.30278 22.5024 2.48734 22.4974 2.6324 22.4816C2.77144 22.4666 2.93848 22.4329 3.1187 22.3966L7.54435 21.5059C7.77342 21.4598 7.94674 21.425 8.11178 21.3601C8.25757 21.3028 8.39611 21.2285 8.52457 21.1389C8.67 21.0374 8.7949 20.9124 8.96008 20.7471L20.9362 8.77099C21.3193 8.38784 21.6284 8.07879 21.8582 7.80807C22.0948 7.52933 22.2767 7.25851 22.3794 6.94241C22.5426 6.4403 22.5426 5.89943 22.3794 5.39732C22.2767 5.08122 22.0948 4.81039 21.8582 4.53165C21.6284 4.26095 21.3194 3.95193 20.9362 3.5688L20.4313 3.06389C20.0482 2.68072 19.7391 2.37167 19.4684 2.14185C19.1897 1.90522 18.9188 1.72336 18.6027 1.62065C18.1006 1.4575 17.5598 1.4575 17.0577 1.62065C16.7416 1.72335 16.4708 1.90513 16.1922 2.14167C15.9215 2.37139 15.6127 2.6803 15.2297 3.06326L13.1527 5.14026C13.1506 5.14228 13.1485 5.14433 13.1464 5.1464C13.1444 5.14847 13.1423 5.15055 13.1403 5.15265ZM17.3667 2.57171C17.6679 2.47382 17.9925 2.47382 18.2937 2.57171C18.4343 2.61737 18.5898 2.70771 18.8212 2.90419C19.0571 3.10446 19.3375 3.38431 19.7394 3.78616L20.2139 4.26067C20.6158 4.66253 20.8956 4.94293 21.0959 5.17883C21.2924 5.41027 21.3827 5.56579 21.4284 5.70634C21.5262 6.0076 21.5262 6.33212 21.4284 6.63339C21.3827 6.77394 21.2924 6.92946 21.0959 7.1609C20.8956 7.3968 20.6158 7.6772 20.2139 8.07905L18.5001 9.7929L14.2072 5.50001L15.9217 3.7855C16.3233 3.38387 16.6035 3.10419 16.8393 2.90404C17.0706 2.70769 17.2261 2.61738 17.3667 2.57171ZM13.5001 6.20711L17.7929 10.5L8.27924 20.0137C8.07653 20.2164 8.01626 20.2742 7.95222 20.3189C7.88799 20.3637 7.81872 20.4008 7.74583 20.4295C7.67315 20.4581 7.59169 20.4763 7.31065 20.5328L2.94099 21.4124C2.73444 21.4539 2.61287 21.4779 2.52469 21.4875L2.51124 21.4888L2.51259 21.4754C2.52215 21.3872 2.54611 21.2656 2.58769 21.0591L3.4672 16.6894C3.52377 16.4084 3.54198 16.3269 3.57056 16.2542C3.59922 16.1813 3.63635 16.1121 3.68118 16.0478C3.72593 15.9837 3.78272 15.9244 3.98283 15.7243L13.5001 6.20711Z" fill="#000"/>
</svg>
