<svg width="24" height="24" viewBox="0 0 24 24" fill="none" xmlns="http://www.w3.org/2000/svg">
<path d="M15.3536 9.35355C15.5488 9.15829 15.5488 8.84171 15.3536 8.64645C15.1583 8.45118 14.8417 8.45118 14.6464 8.64645L8.64645 14.6464C8.45118 14.8417 8.45118 15.1583 8.64645 15.3536C8.84171 15.5488 9.15829 15.5488 9.35355 15.3536L15.3536 9.35355Z" fill="#000"/>
<path d="M8.75 9.5C8.75 9.08579 9.08579 8.75 9.5 8.75C9.91421 8.75 10.2501 9.08579 10.2501 9.5C10.2501 9.91421 9.91431 10.25 9.5001 10.25C9.08589 10.25 8.75 9.91421 8.75 9.5Z" fill="#000"/>
<path d="M14.5 13.75C14.0858 13.75 13.75 14.0858 13.75 14.5C13.75 14.9142 14.0858 15.25 14.5 15.25C14.9142 15.25 15.2501 14.9142 15.2501 14.5C15.2501 14.0858 14.9142 13.75 14.5 13.75Z" fill="#000"/>
<path fill-rule="evenodd" clip-rule="evenodd" d="M12 0.5C5.64873 0.5 0.5 5.64873 0.5 12C0.5 18.3513 5.64873 23.5 12 23.5C18.3513 23.5 23.5 18.3513 23.5 12C23.5 5.64873 18.3513 0.5 12 0.5ZM1.5 12C1.5 6.20101 6.20101 1.5 12 1.5C17.799 1.5 22.5 6.20101 22.5 12C22.5 17.799 17.799 22.5 12 22.5C6.20101 22.5 1.5 17.799 1.5 12Z" fill="#000"/>
</svg>
