<svg width="24" height="24" viewBox="0 0 24 24" fill="none" xmlns="http://www.w3.org/2000/svg">
<path d="M15.3536 7.85355C15.5488 7.65829 15.5488 7.34171 15.3536 7.14645C15.1583 6.95118 14.8417 6.95118 14.6464 7.14645L8.64645 13.1464C8.45118 13.3417 8.45118 13.6583 8.64645 13.8536C8.84171 14.0488 9.15829 14.0488 9.35355 13.8536L15.3536 7.85355Z" fill="#000"/>
<path d="M8.75 8C8.75 7.58579 9.08579 7.25 9.5 7.25C9.91421 7.25 10.2501 7.58579 10.2501 8C10.2501 8.41421 9.91431 8.75 9.5001 8.75C9.08589 8.75 8.75 8.41421 8.75 8Z" fill="#000"/>
<path d="M14.5 12.25C14.0858 12.25 13.75 12.5858 13.75 13C13.75 13.4142 14.0858 13.75 14.5 13.75C14.9142 13.75 15.2501 13.4142 15.2501 13C15.2501 12.5858 14.9142 12.25 14.5 12.25Z" fill="#000"/>
<path fill-rule="evenodd" clip-rule="evenodd" d="M15.6226 0.5H8.37737C7.27642 0.499997 6.41948 0.499995 5.73209 0.556157C5.03416 0.61318 4.4671 0.730584 3.95704 0.990471C3.11031 1.4219 2.4219 2.11031 1.99047 2.95704C1.73058 3.4671 1.61318 4.03416 1.55616 4.73209C1.5 5.41948 1.5 6.27641 1.5 7.37737V13.6226C1.5 14.7236 1.5 15.5805 1.55616 16.2679C1.61318 16.9658 1.73058 17.5329 1.99047 18.043C2.4219 18.8897 3.11031 19.5781 3.95704 20.0095C4.4671 20.2694 5.03416 20.3868 5.73209 20.4438C6.41946 20.5 7.27637 20.5 8.37729 20.5H9.06685C9.15145 20.5 9.19444 20.5002 9.22559 20.5019L9.22814 20.5021L9.22966 20.5042C9.24817 20.5293 9.27182 20.5652 9.31807 20.636L10.2543 22.0704C10.4667 22.3958 10.6447 22.6685 10.806 22.8724C10.9709 23.0809 11.1616 23.2755 11.42 23.3839C11.791 23.5394 12.209 23.5394 12.58 23.3839C12.8384 23.2755 13.0291 23.0809 13.194 22.8724C13.3553 22.6685 13.5332 22.3959 13.7456 22.0705L14.6819 20.636C14.7282 20.5652 14.7518 20.5293 14.7703 20.5042L14.7719 20.5021L14.7744 20.5019C14.8056 20.5002 14.8486 20.5 14.9332 20.5H15.6226C16.7236 20.5 17.5805 20.5 18.2679 20.4438C18.9658 20.3868 19.5329 20.2694 20.043 20.0095C20.8897 19.5781 21.5781 18.8897 22.0095 18.043C22.2694 17.5329 22.3868 16.9658 22.4438 16.2679C22.5 15.5805 22.5 14.7236 22.5 13.6227V7.37736C22.5 6.27644 22.5 5.41946 22.4438 4.73209C22.3868 4.03416 22.2694 3.4671 22.0095 2.95704C21.5781 2.11031 20.8897 1.4219 20.043 0.990471C19.5329 0.730584 18.9658 0.61318 18.2679 0.556157C17.5805 0.499995 16.7236 0.499997 15.6226 0.5ZM4.41103 1.88148C4.75662 1.70539 5.17744 1.60481 5.81352 1.55284C6.45545 1.50039 7.27164 1.5 8.4 1.5H15.6C16.7284 1.5 17.5446 1.50039 18.1865 1.55284C18.8226 1.60481 19.2434 1.70539 19.589 1.88148C20.2475 2.21703 20.783 2.75247 21.1185 3.41103C21.2946 3.75662 21.3952 4.17744 21.4472 4.81352C21.4996 5.45545 21.5 6.27164 21.5 7.4V13.6C21.5 14.7284 21.4996 15.5446 21.4472 16.1865C21.3952 16.8226 21.2946 17.2434 21.1185 17.589C20.783 18.2475 20.2475 18.783 19.589 19.1185C19.2434 19.2946 18.8226 19.3952 18.1865 19.4472C17.5446 19.4996 16.7284 19.5 15.6 19.5H14.9332L14.8999 19.4999C14.7777 19.4995 14.624 19.499 14.4774 19.544C14.3504 19.583 14.2325 19.6468 14.1305 19.7318C14.0127 19.83 13.9291 19.959 13.8626 20.0616L13.8445 20.0894L12.9211 21.5041C12.6925 21.8544 12.5393 22.0882 12.4097 22.2521C12.2804 22.4155 12.2179 22.4513 12.1933 22.4616C12.0697 22.5135 11.9303 22.5135 11.8067 22.4616C11.7821 22.4513 11.7196 22.4155 11.5903 22.2521C11.4607 22.0882 11.3075 21.8544 11.0789 21.5041L10.1555 20.0894L10.1374 20.0615C10.0709 19.959 9.98734 19.83 9.86947 19.7318C9.76748 19.6468 9.64958 19.583 9.52265 19.544C9.37597 19.499 9.22227 19.4995 9.1001 19.4999L9.06685 19.5H8.4C7.27164 19.5 6.45545 19.4996 5.81352 19.4472C5.17744 19.3952 4.75662 19.2946 4.41103 19.1185C3.75247 18.783 3.21703 18.2475 2.88148 17.589C2.70539 17.2434 2.60481 16.8226 2.55284 16.1865C2.50039 15.5446 2.5 14.7284 2.5 13.6V7.4C2.5 6.27164 2.50039 5.45545 2.55284 4.81352C2.60481 4.17744 2.70539 3.75662 2.88148 3.41103C3.21703 2.75247 3.75247 2.21703 4.41103 1.88148Z" fill="#000"/>
</svg>
