<svg width="24" height="24" viewBox="0 0 24 24" fill="none" xmlns="http://www.w3.org/2000/svg">
<path fill-rule="evenodd" clip-rule="evenodd" d="M4.63601 1.66827C5.16455 1.39932 5.80193 1.46701 6.2622 1.84098C6.40896 1.96023 6.53468 2.12934 6.68107 2.32625C6.69182 2.34071 6.70268 2.35532 6.71367 2.37007L10.0482 6.84591C10.1128 6.93257 10.1767 7.01832 10.2258 7.09592C10.2805 7.18222 10.3368 7.28801 10.3658 7.41896C10.4067 7.60315 10.3947 7.79516 10.3311 7.9728C10.2859 8.0991 10.2169 8.19704 10.1519 8.27584C10.0934 8.34669 10.0193 8.42378 9.94441 8.5017L8.13394 10.3858C8.81248 11.7003 9.50036 12.696 10.3486 13.5442C11.1967 14.3923 12.223 15.1111 13.6001 15.8516L15.3341 13.9887C15.412 13.905 15.4886 13.8226 15.5595 13.7575C15.638 13.6853 15.7369 13.6077 15.8674 13.5553C16.05 13.482 16.2502 13.4642 16.4428 13.5042C16.5805 13.5327 16.6915 13.5917 16.7815 13.6489C16.8628 13.7006 16.9528 13.7681 17.0442 13.8368L21.638 17.2859C21.6527 17.2969 21.6672 17.3078 21.6817 17.3186C21.8782 17.4659 22.047 17.5924 22.1659 17.7399C22.5363 18.1998 22.6025 18.8342 22.335 19.3606C22.2491 19.5295 22.11 19.6881 21.9481 19.8728C21.9362 19.8863 21.9242 19.9 21.9121 19.9138L21.3417 20.5657C21.2924 20.622 21.2645 20.6539 21.2379 20.6834C19.8669 22.2062 17.7629 22.8405 15.7786 22.3293C15.7409 22.3196 15.6911 22.306 15.6032 22.2821L15.5541 22.2687C13.8499 21.8028 12.2316 21.0662 10.761 20.0871L10.7141 20.0558C8.03432 18.2664 5.73386 15.9659 3.94444 13.2862L3.91314 13.2392C2.93405 11.7686 2.19749 10.1503 1.7316 8.44618L1.71806 8.39657C1.69418 8.30901 1.68063 8.25931 1.67092 8.22163C1.15978 6.23733 1.7941 4.1334 3.31688 2.76231C3.34579 2.73627 3.37697 2.70899 3.43114 2.66159L4.08347 2.09073C4.09732 2.07862 4.111 2.06662 4.12455 2.05474C4.30903 1.89297 4.46747 1.75404 4.63601 1.66827ZM5.63159 2.61709C5.47817 2.49243 5.26571 2.46987 5.08953 2.55952C5.04812 2.58059 4.99149 2.62496 4.74202 2.84327L4.09312 3.41112C4.03457 3.46237 4.00901 3.48474 3.986 3.50546C2.74009 4.62726 2.2211 6.34866 2.63931 7.97217C2.64701 8.00206 2.65852 8.04433 2.68454 8.13972L2.6962 8.18247C3.13385 9.78336 3.82577 11.3036 4.74553 12.685L4.77608 12.7308C6.49246 15.3012 8.69902 17.5078 11.2694 19.2242L11.3152 19.2547C12.6967 20.1745 14.2169 20.8664 15.8178 21.3041L15.8605 21.3157C15.9559 21.3417 15.9982 21.3533 16.0281 21.361C17.6516 21.7792 19.373 21.2602 20.4948 20.0143C20.5155 19.9912 20.5379 19.9657 20.5891 19.9071L21.1596 19.2553C21.378 19.0056 21.4224 18.949 21.4435 18.9075C21.5327 18.732 21.5106 18.5205 21.3872 18.3673C21.3579 18.331 21.3028 18.2847 21.0375 18.0855L16.4556 14.6454C16.3477 14.5643 16.2894 14.521 16.2451 14.4928L16.2404 14.4899L16.2363 14.4936C16.1977 14.5291 16.1479 14.5821 16.0559 14.6809L14.0712 16.8133C13.9181 16.9777 13.6741 17.0199 13.4747 16.9163C11.8728 16.0841 10.6539 15.2637 9.64153 14.2513C8.62796 13.2378 7.84226 12.0528 7.07983 10.5175C6.98596 10.3284 7.02089 10.1008 7.16713 9.94863L9.21351 7.81905C9.30215 7.72682 9.34922 7.67736 9.38062 7.63931L9.3838 7.63542L9.38113 7.63117C9.35472 7.58949 9.3142 7.53454 9.23778 7.43196L5.91175 2.9675C5.7137 2.70166 5.66766 2.64639 5.63159 2.61709Z" fill="#000"/>
</svg>
