<svg width="24" height="24" viewBox="0 0 24 24" fill="none" xmlns="http://www.w3.org/2000/svg">
<path fill-rule="evenodd" clip-rule="evenodd" d="M23.4358 15.135C23.2867 15.5917 22.8979 15.9289 22.4247 16.012C22.218 16.0482 21.986 16.0147 21.741 15.9793C21.7207 15.9763 21.7003 15.9734 21.6797 15.9704L16.6019 15.2453C16.4925 15.2297 16.3845 15.2143 16.2932 15.1941C16.1917 15.1716 16.0749 15.136 15.9599 15.0623C15.7985 14.9586 15.6702 14.8108 15.5905 14.6363C15.5337 14.512 15.515 14.3914 15.5071 14.2878C15.5 14.1944 15.5 14.0854 15.5 13.9749L15.5 11.637C13.0175 10.9195 11.1478 10.919 8.49999 11.6431L8.49999 13.9749C8.50001 14.0854 8.50002 14.1945 8.49288 14.2878C8.48495 14.3914 8.4663 14.512 8.4095 14.6363C8.32976 14.8108 8.20152 14.9586 8.04007 15.0623C7.92507 15.136 7.80825 15.1716 7.70679 15.1941C7.61544 15.2143 7.50746 15.2297 7.3981 15.2453L2.3212 15.9703C2.30062 15.9732 2.28012 15.9762 2.25972 15.9791C2.01399 16.0147 1.78138 16.0483 1.57409 16.0118C1.10182 15.9284 0.713777 15.5919 0.564528 15.1361C0.499015 14.9361 0.499439 14.701 0.499891 14.4527C0.499928 14.4321 0.499965 14.4114 0.499965 14.3907L0.499967 13.1003C0.499967 11.2487 1.51596 9.533 3.12219 8.62286C4.51466 7.83383 6.04141 7.26182 7.61212 6.94768C10.5057 6.36895 13.488 6.36952 16.3815 6.94822C17.9493 7.26179 19.4762 7.83305 20.8668 8.6194C22.4785 9.53076 23.5 11.2521 23.5 13.1093L23.5 14.3916C23.5 14.4124 23.5 14.433 23.5001 14.4536C23.5005 14.7011 23.5009 14.9355 23.4358 15.135ZM22.2519 15.027C22.3611 15.0079 22.4508 14.93 22.4852 14.8246C22.4936 14.7987 22.5 14.7442 22.5 14.3916L22.5 13.1093C22.5 11.6183 21.6775 10.2266 20.3746 9.48987C19.0751 8.75503 17.648 8.22133 16.1854 7.92881C13.4212 7.37597 10.5723 7.37545 7.80823 7.92826C6.34304 8.2213 4.91636 8.75559 3.61519 9.49289C2.31762 10.2281 1.49997 11.6142 1.49997 13.1003L1.49997 14.3907C1.49997 14.7442 1.50636 14.7989 1.51486 14.8249C1.54931 14.9301 1.63885 15.0077 1.74784 15.027C1.77476 15.0317 1.82979 15.0303 2.17983 14.9803L7.2424 14.2574C7.37173 14.2389 7.44094 14.2287 7.49029 14.2178L7.49537 14.2166L7.4958 14.2114C7.49965 14.161 7.49999 14.0911 7.49999 13.9604L7.49999 11.2646C7.49999 11.0421 7.64701 10.8464 7.8607 10.7844C11.0063 9.87199 13.174 9.86946 16.1474 10.7869C16.357 10.8515 16.5 11.0453 16.5 11.2646V13.9604C16.5 14.0911 16.5003 14.161 16.5042 14.2114L16.5046 14.2166L16.5097 14.2178C16.559 14.2287 16.6283 14.2389 16.7576 14.2574L21.8211 14.9805C22.1701 15.0303 22.225 15.0317 22.2519 15.027Z" fill="#000"/>
</svg>
