<svg width="24" height="24" viewBox="0 0 24 24" fill="none" xmlns="http://www.w3.org/2000/svg">
<path fill-rule="evenodd" clip-rule="evenodd" d="M22.3535 1.64645C22.1583 1.45118 21.8417 1.45118 21.6464 1.64645L9.72946 13.5634C9.71786 13.5732 9.7066 13.5836 9.69573 13.5947C9.68664 13.6039 9.67799 13.6134 9.66976 13.6231L7.02418 16.2687C7.01605 16.2758 7.00809 16.2833 7.00033 16.291C6.99257 16.2988 6.98512 16.3068 6.97798 16.3149L1.64642 21.6464C1.45115 21.8417 1.45115 22.1583 1.64642 22.3536C1.84168 22.5488 2.15826 22.5488 2.35352 22.3536L7.35824 17.3488C8.39432 18.3436 9.51777 19.2477 10.7183 20.0488L10.7194 20.0495L10.7635 20.0792L10.7659 20.0808C12.236 21.0592 13.8535 21.7954 15.5576 22.2615L15.559 22.2619L15.5995 22.2732C15.68 22.2957 15.7291 22.3086 15.7617 22.3172L15.7799 22.322L15.7831 22.3228C17.7666 22.834 19.8698 22.2002 21.2405 20.6793C21.2631 20.6547 21.2876 20.6268 21.3181 20.5919L21.9163 19.9077L21.959 19.8585C22.1172 19.6769 22.2532 19.5206 22.3377 19.356L22.3388 19.3537C22.6057 18.8274 22.5396 18.1943 22.1695 17.7342L22.1676 17.7318C22.0471 17.5839 21.8774 17.4568 21.675 17.3052L17.0591 13.8397L17.0538 13.8357C16.96 13.765 16.8681 13.6958 16.7849 13.6429C16.6948 13.5856 16.5845 13.5271 16.4481 13.4984L16.4459 13.4979C16.2532 13.4582 16.0527 13.4757 15.8692 13.5501C15.7398 13.6025 15.6413 13.6795 15.5626 13.7518C15.4907 13.8178 15.4132 13.9011 15.3343 13.9859L13.6029 15.8456C12.4453 15.2233 11.5361 14.6165 10.7719 13.9352L22.3535 2.35355C22.5488 2.15829 22.5488 1.84171 22.3535 1.64645ZM10.0637 14.6434L8.0655 16.6416C9.05565 17.5906 10.1285 18.4532 11.2744 19.2177L11.2763 19.219L11.3199 19.2483L11.3211 19.2492C12.7023 20.1681 14.2218 20.8595 15.8228 21.2973L15.8253 21.298L15.8683 21.31C15.9408 21.3303 15.9828 21.3413 16.0152 21.3498L16.0341 21.3548C17.6573 21.7726 19.3783 21.2532 20.4993 20.0081L20.5035 20.0034C20.517 19.9887 20.5303 19.9736 20.5584 19.9415L20.5937 19.9012L21.1623 19.2509L21.1629 19.2501C21.379 19.0011 21.4252 18.9432 21.4476 18.9002C21.5357 18.7253 21.514 18.5157 21.3914 18.3623C21.3604 18.3246 21.3011 18.2748 21.0409 18.0796L16.4587 14.6395C16.3516 14.5587 16.2924 14.5148 16.2484 14.4868L16.2438 14.4839L16.2389 14.4884C16.2004 14.5238 16.1505 14.5767 16.059 14.6751L14.0738 16.8073C13.9207 16.9717 13.6768 17.0139 13.4774 16.9103C12.0904 16.1899 10.9911 15.4785 10.0637 14.6434Z" fill="#000"/>
<path d="M4.63925 1.66291C5.16736 1.39436 5.80456 1.46194 6.26485 1.83527L6.26564 1.83591C6.41425 1.95695 6.54078 2.12753 6.69054 2.32943L6.71712 2.36525L10.0483 6.83751C10.1137 6.92522 10.1784 7.0119 10.2282 7.09043C10.2825 7.17625 10.3386 7.28159 10.3677 7.41172C10.4097 7.59702 10.3973 7.78951 10.3337 7.967C10.2885 8.0934 10.2197 8.19123 10.1546 8.27003C10.0969 8.3399 10.0237 8.41616 9.94984 8.49309L8.13688 10.3805C8.33138 10.758 8.52697 11.1091 8.72697 11.4376C8.87056 11.6735 8.79576 11.9811 8.55989 12.1247C8.32402 12.2683 8.0164 12.1935 7.87281 11.9576C7.60098 11.5111 7.34006 11.0311 7.0828 10.5114C6.98927 10.3225 7.02427 10.0952 7.17029 9.94322L9.21615 7.81337C9.30506 7.72073 9.35206 7.6714 9.38342 7.63341L9.38619 7.63003L9.38337 7.62552C9.35704 7.58395 9.31644 7.52886 9.24014 7.4266L5.9149 2.96227C5.71918 2.69876 5.67106 2.64147 5.63449 2.61157C5.48109 2.48744 5.26903 2.465 5.0935 2.55379C5.05084 2.57588 4.99131 2.62221 4.74537 2.83768L4.05601 3.44104C4.02386 3.46918 4.00872 3.48244 3.99403 3.496L3.98932 3.50034C2.74348 4.62115 2.22482 6.34195 2.64169 7.96533L2.68712 8.13348L2.69919 8.17672C3.13695 9.77766 3.82838 11.2972 4.74734 12.6784L4.74814 12.6796L4.77879 12.7251C5.12038 13.237 5.4826 13.7353 5.86249 14.217C6.03349 14.4338 5.99633 14.7482 5.7795 14.9192C5.56267 15.0902 5.24828 15.053 5.07728 14.8362C4.6814 14.3342 4.30383 13.8148 3.94759 13.281L3.94698 13.2801L3.91563 13.2336C2.93723 11.7634 2.20106 10.1459 1.73494 8.44173L1.73459 8.44048L1.72201 8.3954L1.67453 8.21954L1.67364 8.21615C1.16356 6.23301 1.79614 4.12975 3.31824 2.7589C3.34286 2.73626 3.37062 2.71197 3.40557 2.68139L4.11925 2.05671C4.30905 1.89023 4.46789 1.7509 4.63748 1.66381L4.63925 1.66291Z" fill="#000"/>
</svg>
