<svg width="24" height="24" viewBox="0 0 24 24" fill="none" xmlns="http://www.w3.org/2000/svg">
<path fill-rule="evenodd" clip-rule="evenodd" d="M22.3536 1.64645C22.1583 1.45118 21.8417 1.45118 21.6465 1.64645L9.72952 13.5634C9.71792 13.5732 9.70666 13.5836 9.69579 13.5947C9.6867 13.6039 9.67805 13.6134 9.66982 13.6231L7.02424 16.2687C7.01611 16.2758 7.00816 16.2833 7.00039 16.291C6.99263 16.2988 6.98518 16.3068 6.97804 16.3149L1.64648 21.6464C1.45122 21.8417 1.45122 22.1583 1.64648 22.3536C1.84174 22.5488 2.15832 22.5488 2.35358 22.3536L7.3583 17.3488C8.39438 18.3436 9.51783 19.2477 10.7184 20.0488L10.7195 20.0495L10.7635 20.0792L10.7659 20.0808C12.2361 21.0592 13.8536 21.7954 15.5576 22.2615L15.5591 22.2619L15.5996 22.2732C15.68 22.2957 15.7291 22.3086 15.7618 22.3172L15.78 22.322L15.7831 22.3228C17.7667 22.834 19.8699 22.2002 21.2406 20.6793C21.2632 20.6547 21.2876 20.6268 21.3182 20.5919L21.9164 19.9077L21.9591 19.8585C22.1172 19.6769 22.2532 19.5206 22.3377 19.356L22.3389 19.3537C22.6058 18.8274 22.5397 18.1943 22.1695 17.7342L22.1676 17.7318C22.0471 17.5839 21.8774 17.4568 21.6751 17.3052L17.0591 13.8397L17.0538 13.8357C16.96 13.765 16.8682 13.6958 16.7849 13.6429C16.6948 13.5856 16.5845 13.5271 16.4482 13.4984L16.4459 13.4979C16.2532 13.4582 16.0527 13.4757 15.8693 13.5501C15.7399 13.6025 15.6414 13.6795 15.5627 13.7518C15.4908 13.8178 15.4133 13.9011 15.3344 13.9859L13.6029 15.8456C12.4454 15.2233 11.5362 14.6165 10.7719 13.9352L22.3536 2.35355C22.5488 2.15829 22.5488 1.84171 22.3536 1.64645ZM10.0638 14.6434L8.06556 16.6416C9.05571 17.5906 10.1286 18.4532 11.2744 19.2177L11.2764 19.219L11.32 19.2483L11.3212 19.2492C12.7023 20.1681 14.2219 20.8595 15.8228 21.2973L15.8253 21.298L15.8683 21.31C15.9409 21.3303 15.9828 21.3413 16.0153 21.3498L16.0342 21.3548C17.6573 21.7726 19.3783 21.2532 20.4994 20.0081L20.5035 20.0034C20.5171 19.9887 20.5304 19.9736 20.5585 19.9415L20.5938 19.9012L21.1623 19.2509L21.163 19.2501C21.3791 19.0011 21.4253 18.9432 21.4477 18.9002C21.5357 18.7253 21.514 18.5157 21.3914 18.3623C21.3604 18.3246 21.3012 18.2748 21.0409 18.0796L16.4588 14.6395C16.3516 14.5587 16.2924 14.5148 16.2485 14.4868L16.2439 14.4839L16.2389 14.4884C16.2004 14.5238 16.1506 14.5767 16.0591 14.6751L14.0739 16.8073C13.9208 16.9717 13.6768 17.0139 13.4775 16.9103C12.0905 16.1899 10.9912 15.4785 10.0638 14.6434Z" fill="#000"/>
<path d="M4.63931 1.66291C5.16742 1.39436 5.80462 1.46194 6.26491 1.83527L6.2657 1.83591C6.41431 1.95695 6.54084 2.12753 6.6906 2.32943L6.71718 2.36525L10.0483 6.83751C10.1138 6.92522 10.1785 7.0119 10.2282 7.09043C10.2826 7.17625 10.3386 7.28159 10.3677 7.41172C10.4097 7.59702 10.3974 7.78951 10.3337 7.967C10.2886 8.0934 10.2197 8.19123 10.1547 8.27003C10.097 8.3399 10.0238 8.41616 9.9499 8.49309L8.13694 10.3805C8.33144 10.758 8.52704 11.1091 8.72703 11.4376C8.87063 11.6735 8.79582 11.9811 8.55995 12.1247C8.32408 12.2683 8.01646 12.1935 7.87287 11.9576C7.60104 11.5111 7.34012 11.0311 7.08286 10.5114C6.98933 10.3225 7.02433 10.0952 7.17036 9.94322L9.21621 7.81337C9.30513 7.72073 9.35213 7.6714 9.38348 7.63341L9.38626 7.63003L9.38343 7.62552C9.3571 7.58395 9.3165 7.52886 9.2402 7.4266L5.91496 2.96227C5.71924 2.69876 5.67112 2.64147 5.63455 2.61157C5.48115 2.48744 5.26909 2.465 5.09356 2.55379C5.0509 2.57588 4.99137 2.62221 4.74544 2.83768L4.05607 3.44104C4.02392 3.46918 4.00878 3.48244 3.99409 3.496L3.98938 3.50034C2.74354 4.62115 2.22488 6.34195 2.64175 7.96533L2.68718 8.13348L2.69925 8.17672C3.13702 9.77766 3.82844 11.2972 4.7474 12.6784L4.7482 12.6796L4.77885 12.7251C5.12044 13.237 5.48266 13.7353 5.86255 14.217C6.03355 14.4338 5.99639 14.7482 5.77956 14.9192C5.56273 15.0902 5.24834 15.053 5.07734 14.8362C4.68146 14.3342 4.30389 13.8148 3.94766 13.281L3.94705 13.2801L3.91569 13.2336C2.93729 11.7634 2.20112 10.1459 1.735 8.44173L1.73465 8.44048L1.72207 8.3954L1.6746 8.21954L1.6737 8.21615C1.16362 6.23301 1.7962 4.12975 3.3183 2.7589C3.34292 2.73626 3.37068 2.71197 3.40563 2.68139L4.11931 2.05671C4.30911 1.89023 4.46795 1.7509 4.63755 1.66381L4.63931 1.66291Z" fill="#000"/>
</svg>
