<svg width="24" height="24" viewBox="0 0 24 24" fill="none" xmlns="http://www.w3.org/2000/svg">
<path d="M8.75 1.5C9.02614 1.5 9.25 1.72386 9.25 2V5.5H8.25V2C8.25 1.72386 8.47386 1.5 8.75 1.5Z" fill="#000"/>
<path fill-rule="evenodd" clip-rule="evenodd" d="M5 12V8H4C3.72386 8 3.5 7.77614 3.5 7.5C3.5 7.22386 3.72386 7 4 7L20 7C20.2761 7 20.5 7.22386 20.5 7.5C20.5 7.77614 20.2761 8 20 8H19V12C19 15.6979 16.1326 18.726 12.5 18.9824V22C12.5 22.2761 12.2761 22.5 12 22.5C11.7239 22.5 11.5 22.2761 11.5 22V18.9824C7.86736 18.726 5 15.6979 5 12ZM18 8H6V12C6 15.3137 8.68629 18 12 18C15.3137 18 18 15.3137 18 12V8Z" fill="#000"/>
<path d="M15.75 2C15.75 1.72386 15.5261 1.5 15.25 1.5C14.9739 1.5 14.75 1.72386 14.75 2V5.5H15.75V2Z" fill="#000"/>
</svg>
