<svg width="24" height="24" viewBox="0 0 24 24" fill="none" xmlns="http://www.w3.org/2000/svg">
<path fill-rule="evenodd" clip-rule="evenodd" d="M17.5 4C17.5 2.61929 18.6193 1.5 20 1.5C21.3807 1.5 22.5 2.61929 22.5 4C22.5 5.38071 21.3807 6.5 20 6.5C18.6193 6.5 17.5 5.38071 17.5 4ZM20 2.5C19.1716 2.5 18.5 3.17157 18.5 4C18.5 4.82843 19.1716 5.5 20 5.5C20.8284 5.5 21.5 4.82843 21.5 4C21.5 3.17157 20.8284 2.5 20 2.5Z" fill="#000"/>
<path d="M8.37739 2.5L15.1 2.5C15.3762 2.5 15.6 2.72386 15.6 3C15.6 3.27614 15.3762 3.5 15.1 3.5L8.40002 3.5C7.27166 3.5 6.45546 3.50039 5.81354 3.55283C5.17745 3.60481 4.75664 3.70539 4.41105 3.88148C3.75248 4.21703 3.21705 4.75247 2.88149 5.41103C2.70541 5.75662 2.60482 6.17744 2.55285 6.81352C2.5004 7.45545 2.50002 8.27164 2.50002 9.4L2.50002 15.6C2.50002 16.7284 2.5004 17.5446 2.55285 18.1865C2.60482 18.8226 2.70541 19.2434 2.88149 19.589C3.21705 20.2475 3.75248 20.783 4.41105 21.1185C4.75664 21.2946 5.17745 21.3952 5.81354 21.4472C6.45547 21.4996 7.27166 21.5 8.40001 21.5H14.6C15.7284 21.5 16.5446 21.4996 17.1865 21.4472C17.8226 21.3952 18.2434 21.2946 18.589 21.1185C19.2476 20.783 19.783 20.2475 20.1185 19.589C20.2946 19.2434 20.3952 18.8226 20.4472 18.1865C20.4996 17.5446 20.5 16.7284 20.5 15.6V8.89998C20.5 8.62384 20.7239 8.39998 21 8.39998C21.2762 8.39998 21.5 8.62384 21.5 8.89998V15.6226C21.5 16.7236 21.5 17.5805 21.4439 18.2679C21.3868 18.9658 21.2694 19.5329 21.0095 20.043C20.5781 20.8897 19.8897 21.5781 19.043 22.0095C18.5329 22.2694 17.9659 22.3868 17.2679 22.4438C16.5806 22.5 15.7237 22.5 14.6228 22.5H8.37737C7.27652 22.5 6.41945 22.5 5.73211 22.4438C5.03418 22.3868 4.46712 22.2694 3.95706 22.0095C3.11033 21.5781 2.42192 20.8897 1.99049 20.043C1.7306 19.5329 1.6132 18.9658 1.55617 18.2679C1.50001 17.5805 1.50001 16.7236 1.50002 15.6227L1.50002 9.37737C1.50001 8.27646 1.50001 7.41946 1.55617 6.73209C1.6132 6.03416 1.7306 5.4671 1.99049 4.95704C2.42192 4.11031 3.11033 3.4219 3.95706 2.99047C4.46712 2.73058 5.03418 2.61318 5.73211 2.55616C6.41945 2.5 7.27653 2.5 8.37739 2.5Z" fill="#000"/>
<path d="M11 16.5C11 16.7761 11.2239 17 11.5 17C11.7762 17 12 16.7761 12 16.5V8.5C12 8.22386 11.7762 8 11.5 8C11.2239 8 11 8.22386 11 8.5V16.5Z" fill="#000"/>
<path d="M8.00002 17C7.72387 17 7.50002 16.7761 7.50002 16.5V13.5C7.50002 13.2239 7.72387 13 8.00002 13C8.27616 13 8.50002 13.2239 8.50002 13.5V16.5C8.50002 16.7761 8.27616 17 8.00002 17Z" fill="#000"/>
<path d="M14.5 16.5C14.5 16.7761 14.7239 17 15 17C15.2762 17 15.5 16.7761 15.5 16.5L15.5 10.5C15.5 10.2239 15.2762 10 15 10C14.7239 10 14.5 10.2239 14.5 10.5L14.5 16.5Z" fill="#000"/>
</svg>
