<svg width="24" height="24" viewBox="0 0 24 24" fill="none" xmlns="http://www.w3.org/2000/svg">
<path fill-rule="evenodd" clip-rule="evenodd" d="M17.5 4C17.5 2.61929 18.6193 1.5 20 1.5C21.3807 1.5 22.5 2.61929 22.5 4C22.5 5.38071 21.3807 6.5 20 6.5C18.6193 6.5 17.5 5.38071 17.5 4ZM20 2.5C19.1716 2.5 18.5 3.17157 18.5 4C18.5 4.82843 19.1716 5.5 20 5.5C20.8284 5.5 21.5 4.82843 21.5 4C21.5 3.17157 20.8284 2.5 20 2.5Z" fill="#000"/>
<path d="M8.37737 2.5L15.1 2.5C15.3762 2.5 15.6 2.72386 15.6 3C15.6 3.27614 15.3762 3.5 15.1 3.5L8.4 3.5C7.27165 3.5 6.45545 3.50039 5.81352 3.55283C5.17744 3.60481 4.75662 3.70539 4.41103 3.88148C3.75247 4.21703 3.21703 4.75247 2.88148 5.41103C2.70539 5.75662 2.60481 6.17744 2.55284 6.81352C2.50039 7.45545 2.5 8.27164 2.5 9.4L2.5 15.6C2.5 16.7284 2.50039 17.5446 2.55284 18.1865C2.60481 18.8226 2.70539 19.2434 2.88148 19.589C3.21704 20.2475 3.75247 20.783 4.41103 21.1185C4.75662 21.2946 5.17744 21.3952 5.81352 21.4472C6.45545 21.4996 7.27164 21.5 8.4 21.5H14.6C15.7284 21.5 16.5446 21.4996 17.1865 21.4472C17.8226 21.3952 18.2434 21.2946 18.589 21.1185C19.2475 20.783 19.783 20.2475 20.1185 19.589C20.2946 19.2434 20.3952 18.8226 20.4472 18.1865C20.4996 17.5446 20.5 16.7284 20.5 15.6V8.89998C20.5 8.62384 20.7239 8.39998 21 8.39998C21.2761 8.39998 21.5 8.62384 21.5 8.89998V15.6226C21.5 16.7236 21.5 17.5805 21.4438 18.2679C21.3868 18.9658 21.2694 19.5329 21.0095 20.043C20.5781 20.8897 19.8897 21.5781 19.043 22.0095C18.5329 22.2694 17.9658 22.3868 17.2679 22.4438C16.5806 22.5 15.7237 22.5 14.6228 22.5H8.37736C7.27651 22.5 6.41944 22.5 5.73209 22.4438C5.03416 22.3868 4.4671 22.2694 3.95704 22.0095C3.11031 21.5781 2.4219 20.8897 1.99047 20.043C1.73058 19.5329 1.61318 18.9658 1.55616 18.2679C1.5 17.5805 1.5 16.7236 1.5 15.6227L1.5 9.37737C1.5 8.27646 1.5 7.41946 1.55616 6.73209C1.61318 6.03416 1.73058 5.4671 1.99047 4.95704C2.4219 4.11031 3.11031 3.4219 3.95704 2.99047C4.4671 2.73058 5.03416 2.61318 5.73209 2.55616C6.41944 2.5 7.27652 2.5 8.37737 2.5Z" fill="#000"/>
<path d="M11 16.5C11 16.7761 11.2239 17 11.5 17C11.7761 17 12 16.7761 12 16.5V8.5C12 8.22386 11.7761 8 11.5 8C11.2239 8 11 8.22386 11 8.5V16.5Z" fill="#000"/>
<path d="M8 17C7.72386 17 7.5 16.7761 7.5 16.5V13.5C7.5 13.2239 7.72386 13 8 13C8.27614 13 8.5 13.2239 8.5 13.5V16.5C8.5 16.7761 8.27614 17 8 17Z" fill="#000"/>
<path d="M14.5 16.5C14.5 16.7761 14.7239 17 15 17C15.2761 17 15.5 16.7761 15.5 16.5L15.5 10.5C15.5 10.2239 15.2761 10 15 10C14.7239 10 14.5 10.2239 14.5 10.5L14.5 16.5Z" fill="#000"/>
</svg>
