<svg width="24" height="24" viewBox="0 0 24 24" fill="none" xmlns="http://www.w3.org/2000/svg">
<path fill-rule="evenodd" clip-rule="evenodd" d="M11.8646 5.84268C11.3735 5.51655 10.7887 5.51845 10.3314 5.73492C9.87279 5.95195 9.5 6.4089 9.5 7.01069V10.9893C9.5 11.5911 9.87279 12.048 10.3314 12.2651C10.7887 12.4815 11.3735 12.4834 11.8646 12.1573L14.8595 10.168C15.7135 9.60078 15.7135 8.39919 14.8595 7.83197L11.8646 5.84268ZM10.5 7.01069C10.5 6.85811 10.5896 6.71905 10.7592 6.6388C10.9299 6.55797 11.1391 6.56131 11.3113 6.67567L14.3062 8.66496C14.5646 8.83656 14.5646 9.16341 14.3062 9.335L11.3113 11.3243C11.1391 11.4387 10.9299 11.442 10.7591 11.3612C10.5896 11.2809 10.5 11.1419 10.5 10.9893V7.01069Z" fill="#000"/>
<path fill-rule="evenodd" clip-rule="evenodd" d="M1 2C1 1.72386 1.22386 1.5 1.5 1.5H22.5C22.7761 1.5 23 1.72386 23 2C23 2.27614 22.7761 2.5 22.5 2.5H21.5V10.4225C21.5 11.3835 21.5 12.1355 21.4507 12.7395C21.4004 13.3541 21.2967 13.8594 21.064 14.316C20.6805 15.0686 20.0686 15.6805 19.316 16.064C18.8594 16.2967 18.3541 16.4004 17.7395 16.4507C17.1355 16.5 16.3836 16.5 15.4225 16.5H12.5V18.75L16.3 21.6C16.5209 21.7657 16.5657 22.0791 16.4 22.3C16.2343 22.5209 15.9209 22.5657 15.7 22.4L12 19.625L8.30003 22.4C8.07912 22.5657 7.76571 22.5209 7.60003 22.3C7.43434 22.0791 7.47912 21.7657 7.70003 21.6L11.5 18.75V16.5H8.57754C7.61647 16.5 6.8645 16.5 6.26049 16.4507C5.64594 16.4004 5.14062 16.2967 4.68404 16.064C3.93139 15.6805 3.31947 15.0686 2.93597 14.316C2.70334 13.8594 2.59956 13.3541 2.54935 12.7395C2.49999 12.1355 2.5 11.3835 2.5 10.4224V2.5H1.5C1.22386 2.5 1 2.27614 1 2ZM15.4 15.5C16.3883 15.5 17.0995 15.4996 17.6581 15.454C18.2108 15.4088 18.5699 15.3219 18.862 15.173C19.4265 14.8854 19.8854 14.4265 20.173 13.862C20.3219 13.5699 20.4088 13.2108 20.454 12.6581C20.4996 12.0995 20.5 11.3883 20.5 10.4V2.5H3.5V10.4C3.5 11.3883 3.50039 12.0995 3.54602 12.6581C3.59118 13.2108 3.67814 13.5699 3.82698 13.862C4.1146 14.4265 4.57354 14.8854 5.13803 15.173C5.43014 15.3219 5.78921 15.4088 6.34192 15.454C6.90047 15.4996 7.61166 15.5 8.6 15.5H15.4Z" fill="#000"/>
</svg>
