<svg width="24" height="24" viewBox="0 0 24 24" fill="none" xmlns="http://www.w3.org/2000/svg">
<path fill-rule="evenodd" clip-rule="evenodd" d="M12.75 4.25C12.75 2.73122 11.5188 1.5 10 1.5C8.48122 1.5 7.25 2.73122 7.25 4.25V6H4C2.61929 6 1.5 7.11929 1.5 8.5V11.25C1.5 11.5261 1.72386 11.75 2 11.75H4.25C5.2165 11.75 6 12.5335 6 13.5C6 14.4665 5.2165 15.25 4.25 15.25H2C1.72386 15.25 1.5 15.4739 1.5 15.75V20C1.5 21.3807 2.61929 22.5 4 22.5H7.75C8.02614 22.5 8.25 22.2761 8.25 22V19.75C8.25 18.7835 9.0335 18 10 18C10.9665 18 11.75 18.7835 11.75 19.75V22C11.75 22.2761 11.9739 22.5 12.25 22.5H15.5C16.8807 22.5 18 21.3807 18 20V16.25H19.75C21.2688 16.25 22.5 15.0188 22.5 13.5C22.5 11.9812 21.2688 10.75 19.75 10.75H18V8.5C18 7.11929 16.8807 6 15.5 6H12.75V4.25ZM10 2.5C10.9665 2.5 11.75 3.2835 11.75 4.25V6.5C11.75 6.77614 11.9739 7 12.25 7H15.5C16.3284 7 17 7.67157 17 8.5V11.25C17 11.5261 17.2239 11.75 17.5 11.75H19.75C20.7165 11.75 21.5 12.5335 21.5 13.5C21.5 14.4665 20.7165 15.25 19.75 15.25H17.5C17.2239 15.25 17 15.4739 17 15.75V20C17 20.8284 16.3284 21.5 15.5 21.5H12.75V19.75C12.75 18.2312 11.5188 17 10 17C8.48122 17 7.25 18.2312 7.25 19.75V21.5H4C3.17157 21.5 2.5 20.8284 2.5 20V16.25H4.25C5.76878 16.25 7 15.0188 7 13.5C7 11.9812 5.76878 10.75 4.25 10.75H2.5V8.5C2.5 7.67157 3.17157 7 4 7H7.75C8.02614 7 8.25 6.77614 8.25 6.5V4.25C8.25 3.2835 9.0335 2.5 10 2.5Z" fill="#000"/>
</svg>
