<svg width="24" height="24" viewBox="0 0 24 24" fill="none" xmlns="http://www.w3.org/2000/svg">
<path fill-rule="evenodd" clip-rule="evenodd" d="M11.1843 2.00975C11.5143 1.33009 12.4857 1.33008 12.8157 2.00975L13.4666 3.3502L14.9601 3.54366C15.7143 3.64135 16.0258 4.57342 15.4625 5.09887L14.3783 6.11026L14.6511 7.55763C14.7931 8.31151 13.996 8.87442 13.3329 8.52077L12 7.80989L10.6671 8.52077C10.004 8.87442 9.20687 8.31151 9.34893 7.55763L9.62166 6.11026L8.53745 5.09887C7.97416 4.57342 8.28573 3.64135 9.0399 3.54366L10.5334 3.3502L11.1843 2.00975ZM12 2.61924L11.3914 3.87257C11.2697 4.12326 11.0298 4.29425 10.7552 4.32983L9.37123 4.5091L10.3754 5.44587C10.5809 5.63756 10.6749 5.92122 10.6226 6.19849L10.3686 7.54665L11.6109 6.88408C11.854 6.75442 12.146 6.75442 12.3891 6.88408L13.6314 7.54665L13.3774 6.19849C13.3251 5.92122 13.4191 5.63756 13.6246 5.44587L14.6288 4.5091L13.2448 4.32983C12.9702 4.29425 12.7303 4.12326 12.6086 3.87257L12 2.61924ZM9.21958 4.36763C9.21953 4.36759 9.21962 4.36768 9.21958 4.36763Z" fill="#000"/>
<path fill-rule="evenodd" clip-rule="evenodd" d="M8.5 12C8.5 10.8954 9.39543 10 10.5 10H13.5C14.6046 10 15.5 10.8954 15.5 12V13.5H19.5C20.6046 13.5 21.5 14.3954 21.5 15.5V21.5H22C22.2761 21.5 22.5 21.7239 22.5 22C22.5 22.2761 22.2761 22.5 22 22.5H2C1.72386 22.5 1.5 22.2761 1.5 22C1.5 21.7239 1.72386 21.5 2 21.5H2.5V17.5C2.5 16.3954 3.39543 15.5 4.5 15.5H8.5V12ZM9.5 21.5H14.5V12C14.5 11.4477 14.0523 11 13.5 11H10.5C9.94772 11 9.5 11.4477 9.5 12V21.5ZM15.5 21.5H20.5V15.5C20.5 14.9477 20.0523 14.5 19.5 14.5H15.5V21.5ZM8.5 21.5V16.5H4.5C3.94772 16.5 3.5 16.9477 3.5 17.5V21.5H8.5Z" fill="#000"/>
</svg>
