<svg width="24" height="24" viewBox="0 0 24 24" fill="none" xmlns="http://www.w3.org/2000/svg">
<path d="M15 15.9968C15.2761 15.9968 15.5 15.773 15.5 15.4968C15.5 15.2207 15.2761 14.9968 15 14.9968L9 14.9968C8.72386 14.9968 8.5 15.2207 8.5 15.4968C8.5 15.773 8.72386 15.9968 9 15.9968L15 15.9968Z" fill="#000"/>
<path d="M16 12.4982C16.2761 12.4982 16.5 12.2744 16.5 11.9982C16.5 11.7221 16.2761 11.4982 16 11.4982L8 11.4982C7.72386 11.4982 7.5 11.7221 7.5 11.9982C7.5 12.2744 7.72386 12.4982 8 12.4982L16 12.4982Z" fill="#000"/>
<path d="M14 8.99964C14.2761 8.99964 14.5 8.77579 14.5 8.49964C14.5 8.2235 14.2761 7.99964 14 7.99964L10 7.99965C9.72386 7.99965 9.5 8.2235 9.5 8.49965C9.5 8.77579 9.72386 8.99965 10 8.99965L14 8.99964Z" fill="#000"/>
<path fill-rule="evenodd" clip-rule="evenodd" d="M10.9108 2.19867C10.1041 1.32256 8.74236 1.25933 7.85796 2.05692L7.03236 2.80147C6.64951 3.14674 6.0628 3.12981 5.70049 2.76305C4.80104 1.85253 3.25 2.48944 3.25 3.76931V20.2405C3.25 21.5203 4.80109 22.1572 5.70052 21.2467C6.06282 20.8799 6.64954 20.8629 7.0324 21.2082L7.84762 21.9434C8.73698 22.7455 10.1088 22.6721 10.9076 21.7798L11.0146 21.6604C11.5403 21.0731 12.4597 21.0731 12.9854 21.6604L13.0924 21.7798C13.8912 22.6721 15.263 22.7455 16.1524 21.9434L16.9676 21.2082C17.3505 20.8629 17.9372 20.8799 18.2995 21.2467C19.1989 22.1572 20.75 21.5203 20.75 20.2405V3.76931C20.75 2.48944 19.199 1.85253 18.2995 2.76305C17.9372 3.12981 17.3505 3.14674 16.9676 2.80147L16.142 2.05692C15.2576 1.25933 13.8959 1.32256 13.0892 2.19867L12.9811 2.31616C12.4528 2.88986 11.5472 2.88986 11.0189 2.31616L10.9108 2.19867ZM8.52768 2.79953C9.00494 2.36912 9.73978 2.40324 10.1751 2.87603L10.2833 2.99352C11.2076 3.9974 12.7924 3.9974 13.7167 2.99352L13.8249 2.87603C14.2602 2.40324 14.9951 2.36912 15.4723 2.79953L16.2979 3.54409C17.0778 4.2474 18.2729 4.21292 19.0109 3.46582C19.2822 3.1912 19.75 3.3833 19.75 3.76931V20.2405C19.75 20.6265 19.2822 20.8186 19.0109 20.5439C18.2729 19.7968 17.0778 19.7623 16.2979 20.4656L15.4827 21.2008C15.0045 21.632 14.2669 21.5926 13.8375 21.1128L13.7305 20.9934C12.8073 19.9621 11.1927 19.9621 10.2695 20.9934L10.1625 21.1128C9.73306 21.5926 8.99551 21.632 8.51734 21.2008L7.70212 20.4656C6.92223 19.7623 5.72708 19.7968 4.98907 20.5439C4.71781 20.8186 4.25 20.6265 4.25 20.2405V3.76931C4.25 3.3833 4.7178 3.1912 4.98907 3.46582C5.7271 4.21292 6.92221 4.2474 7.70208 3.54409L8.52768 2.79953Z" fill="#000"/>
</svg>
