<svg width="24" height="24" viewBox="0 0 24 24" fill="none" xmlns="http://www.w3.org/2000/svg">
<path d="M14.6464 8.35355C14.4512 8.15829 14.4512 7.84171 14.6464 7.64645L16.7929 5.5H9C5.41015 5.5 2.5 8.41015 2.5 12C2.5 13.3817 2.93054 14.6613 3.66478 15.714C3.82276 15.9404 3.76723 16.2521 3.54074 16.4101C3.31425 16.5681 3.00258 16.5125 2.8446 16.286C1.99709 15.071 1.5 13.5928 1.5 12C1.5 7.85786 4.85786 4.5 9 4.5H16.7929L14.6464 2.35355C14.4512 2.15829 14.4512 1.84171 14.6464 1.64645C14.8417 1.45118 15.1583 1.45118 15.3536 1.64645L18.3536 4.64645C18.4473 4.74021 18.5 4.86739 18.5 5C18.5 5.13261 18.4473 5.25978 18.3536 5.35355L15.3536 8.35355C15.1583 8.54882 14.8417 8.54882 14.6464 8.35355Z" fill="#000"/>
<path d="M9.35355 15.6464C9.54882 15.8417 9.54882 16.1583 9.35355 16.3536L7.20711 18.5H15C18.5899 18.5 21.5 15.5899 21.5 12C21.5 10.6183 21.0695 9.3387 20.3352 8.28605C20.1772 8.05956 20.2328 7.74789 20.4593 7.58991C20.6857 7.43193 20.9974 7.48746 21.1554 7.71395C22.0029 8.92897 22.5 10.4072 22.5 12C22.5 16.1421 19.1421 19.5 15 19.5H7.2071L9.35355 21.6464C9.54881 21.8417 9.54881 22.1583 9.35355 22.3536C9.15829 22.5488 8.84171 22.5488 8.64644 22.3536L5.64645 19.3536C5.55268 19.2598 5.5 19.1326 5.5 19C5.5 18.8674 5.55268 18.7402 5.64645 18.6464L8.64645 15.6464C8.84171 15.4512 9.15829 15.4512 9.35355 15.6464Z" fill="#000"/>
</svg>
