<svg width="24" height="24" viewBox="0 0 24 24" fill="none" xmlns="http://www.w3.org/2000/svg">
<path d="M16.4 5.6001C16.4 5.04781 16.8477 4.6001 17.4 4.6001C17.9522 4.6001 18.4001 5.04781 18.4001 5.6001C18.4001 6.15238 17.9523 6.6001 17.4001 6.6001C16.8478 6.6001 16.4 6.15238 16.4 5.6001Z" fill="#000"/>
<path fill-rule="evenodd" clip-rule="evenodd" d="M13.2999 5.60183C13.2999 3.33775 15.1353 1.5 17.4 1.5C19.6644 1.5 21.4999 3.33561 21.4999 5.6C21.4999 8.11667 19.4999 10.05 17.6999 11.4C17.5221 11.5333 17.2777 11.5333 17.0999 11.4C15.3 10.0501 13.2999 8.11672 13.2999 5.60183ZM17.4 2.5C15.6882 2.5 14.2999 3.88939 14.2999 5.60183C14.2999 7.47242 15.7258 9.06246 17.3999 10.3704C19.074 9.06251 20.4999 7.47237 20.4999 5.6C20.4999 3.88787 19.1121 2.5 17.4 2.5Z" fill="#000"/>
<path d="M13.5 10.5C13.7761 10.5 14 10.7239 14 11C14 11.2761 13.7761 11.5 13.5 11.5H8.75C7.50736 11.5 6.5 12.5074 6.5 13.75C6.5 14.9926 7.50736 16 8.75 16H10C10.2761 16 10.5 16.2239 10.5 16.5C10.5 16.7761 10.2761 17 10 17H8.75C6.95507 17 5.5 15.5449 5.5 13.75C5.5 11.9551 6.95507 10.5 8.75 10.5H13.5Z" fill="#000"/>
<path d="M20.5 19.25C20.5 18.0074 19.4926 17 18.25 17H17C16.7239 17 16.5 16.7761 16.5 16.5C16.5 16.2239 16.7239 16 17 16H18.25C20.0449 16 21.5 17.4551 21.5 19.25C21.5 21.0449 20.0449 22.5 18.25 22.5H6.5C6.22386 22.5 6 22.2761 6 22C6 21.7239 6.22386 21.5 6.5 21.5H18.25C19.4926 21.5 20.5 20.4926 20.5 19.25Z" fill="#000"/>
<path d="M12.5 16.5C12.5 15.9477 12.9477 15.5 13.5 15.5C14.0523 15.5 14.5001 15.9477 14.5001 16.5C14.5001 17.0523 14.0524 17.5 13.5001 17.5C12.9478 17.5 12.5 17.0523 12.5 16.5Z" fill="#000"/>
<path d="M3 21C2.44772 21 2 21.4477 2 22C2 22.5523 2.44772 23 3 23C3.55228 23 4.0001 22.5523 4.0001 22C4.0001 21.4477 3.55228 21 3 21Z" fill="#000"/>
</svg>
