<svg width="24" height="24" viewBox="0 0 24 24" fill="none" xmlns="http://www.w3.org/2000/svg">
<path d="M13.5 11C13.7761 11 14 10.7761 14 10.5C14 10.2239 13.7761 10 13.5 10H7.5C7.22386 10 7 10.2239 7 10.5C7 10.7761 7.22386 11 7.5 11H13.5Z" fill="#000"/>
<path fill-rule="evenodd" clip-rule="evenodd" d="M10.5 19.5C12.8054 19.5 14.9083 18.6332 16.5006 17.2077L21.6464 22.3536C21.8417 22.5488 22.1583 22.5488 22.3536 22.3536C22.5488 22.1583 22.5488 21.8417 22.3536 21.6464L17.2077 16.5006C18.6332 14.9083 19.5 12.8054 19.5 10.5C19.5 5.52944 15.4706 1.5 10.5 1.5C5.52944 1.5 1.5 5.52944 1.5 10.5C1.5 15.4706 5.52944 19.5 10.5 19.5ZM10.5 2.5C6.08172 2.5 2.5 6.08172 2.5 10.5C2.5 14.9183 6.08172 18.5 10.5 18.5C12.6669 18.5 14.6326 17.6385 16.0732 16.2393C16.0934 16.2062 16.1179 16.175 16.1464 16.1464C16.175 16.1179 16.2062 16.0934 16.2393 16.0732C17.6385 14.6326 18.5 12.6669 18.5 10.5C18.5 6.08172 14.9183 2.5 10.5 2.5Z" fill="#000"/>
</svg>
