<svg width="24" height="24" viewBox="0 0 24 24" fill="none" xmlns="http://www.w3.org/2000/svg">
<path fill-rule="evenodd" clip-rule="evenodd" d="M16.5006 17.2077C14.9083 18.6332 12.8054 19.5 10.5 19.5C5.52944 19.5 1.5 15.4706 1.5 10.5C1.5 5.52944 5.52944 1.5 10.5 1.5C15.4706 1.5 19.5 5.52944 19.5 10.5C19.5 12.8054 18.6332 14.9083 17.2077 16.5006L22.3536 21.6464C22.5488 21.8417 22.5488 22.1583 22.3536 22.3536C22.1583 22.5488 21.8417 22.5488 21.6464 22.3536L16.5006 17.2077ZM2.5 10.5C2.5 6.08172 6.08172 2.5 10.5 2.5C14.9183 2.5 18.5 6.08172 18.5 10.5C18.5 12.6669 17.6385 14.6326 16.2393 16.0732C16.2062 16.0934 16.175 16.1179 16.1464 16.1464C16.1179 16.175 16.0934 16.2062 16.0732 16.2393C14.6326 17.6385 12.6669 18.5 10.5 18.5C6.08172 18.5 2.5 14.9183 2.5 10.5Z" fill="#000"/>
</svg>
