<svg width="24" height="24" viewBox="0 0 24 24" fill="none" xmlns="http://www.w3.org/2000/svg">
<path d="M1.76065 4.9862C0.64252 2.31486 3.35393 -0.47862 5.9971 0.824525L20.7454 8.09578C22.2188 8.82222 22.7505 10.4371 22.3912 11.8085C22.3212 12.0756 22.0479 12.2354 21.7808 12.1654C21.5137 12.0955 21.3539 11.8222 21.4238 11.555C21.6802 10.5768 21.2919 9.48015 20.3032 8.9927L5.55489 1.72144C3.83081 0.871427 1.88688 2.68681 2.68106 4.59521L4.95953 9.71727C5.06087 9.95939 5.13145 10.2112 5.17158 10.4669H11C11.2762 10.4669 11.5 10.6907 11.5 10.9669C11.5 11.243 11.2762 11.4669 11 11.4669H5.17404C5.13125 11.7491 5.05148 12.0269 4.93487 12.2925L2.7924 17.391C1.94663 19.3103 3.88171 21.1412 5.62623 20.2712L8.85319 18.662C9.10031 18.5388 9.40054 18.6392 9.52378 18.8863C9.64701 19.1334 9.54658 19.4337 9.29946 19.5569L6.0725 21.1661C3.40125 22.4982 0.697848 19.6733 1.87544 16.9918L4.0179 11.8934C4.26829 11.3252 4.27533 10.6767 4.03898 10.1083L1.76065 4.9862Z" fill="#000"/>
<path d="M17.5 15.5C17.5 15.2239 17.2761 15 17 15C16.7239 15 16.5 15.2239 16.5 15.5V18.0001C16.5 18.1672 16.5836 18.3234 16.7227 18.4161L18.2227 19.416C18.4524 19.5692 18.7629 19.5071 18.916 19.2773C19.0692 19.0476 19.0071 18.7371 18.7773 18.584L17.5 17.7325V15.5Z" fill="#000"/>
<path fill-rule="evenodd" clip-rule="evenodd" d="M11.5 18C11.5 14.9624 13.9624 12.5 17 12.5C20.0376 12.5 22.5 14.9624 22.5 18C22.5 21.0376 20.0376 23.5 17 23.5C13.9624 23.5 11.5 21.0376 11.5 18ZM17 13.5C14.5147 13.5 12.5 15.5147 12.5 18C12.5 20.4853 14.5147 22.5 17 22.5C19.4853 22.5 21.5 20.4853 21.5 18C21.5 15.5147 19.4853 13.5 17 13.5Z" fill="#000"/>
</svg>
