<svg width="24" height="24" viewBox="0 0 24 24" fill="none" xmlns="http://www.w3.org/2000/svg">
<path d="M10.6426 2.32735C11.4949 1.89551 12.5019 1.89544 13.3542 2.32716L20.4519 5.92231C20.7881 6.09261 21 6.4375 21 6.81439V8.83905C21 9.25188 20.91 10.1588 20.793 11.1511C20.6105 12.6989 20.1119 14.1882 19.3561 15.5508C19.2222 15.7923 19.3093 16.0966 19.5508 16.2306C19.7923 16.3645 20.0966 16.2773 20.2306 16.0359C21.0458 14.5663 21.5875 12.9527 21.7861 11.2682C21.9011 10.2935 22 9.32281 22 8.83905V6.81439C22 6.0606 21.5762 5.37083 20.9037 5.03022L13.8061 1.43507C12.6696 0.859443 11.327 0.859539 10.1906 1.43533L7.18057 2.96054C6.93425 3.08535 6.83574 3.38622 6.96056 3.63255C7.08537 3.87887 7.38624 3.97738 7.63256 3.85256L10.6426 2.32735Z" fill="#000"/>
<path fill-rule="evenodd" clip-rule="evenodd" d="M5.11379 4.40668L18.4972 17.7901C18.5002 17.793 18.5031 17.796 18.506 17.7989L22.3536 21.6464C22.5488 21.8417 22.5488 22.1583 22.3536 22.3536C22.1583 22.5488 21.8417 22.5488 21.6464 22.3536L18.1711 18.8782C16.8723 20.3074 15.3293 21.5013 13.6094 22.4012L12.859 22.7939C12.3199 23.0759 11.6768 23.076 11.1377 22.794L10.3889 22.4024C8.10183 21.2061 6.12751 19.4895 4.62489 17.3909C3.3325 15.5859 2.47619 13.4917 2.2146 11.2744C2.09935 10.2974 2 9.32378 2 8.83905V6.81425C2 6.06055 2.42371 5.37086 3.09602 5.0302L3.91043 4.61754L1.64645 2.35355C1.45118 2.15829 1.45118 1.84171 1.64645 1.64645C1.84171 1.45118 2.15829 1.45118 2.35355 1.64645L5.0967 4.3896C5.10252 4.39514 5.10822 4.40083 5.11379 4.40668ZM17.4631 18.1702L4.65447 5.36158L3.54801 5.92222C3.21185 6.09255 3 6.4374 3 6.81425V8.83905C3 9.25278 3.09037 10.1626 3.20771 11.1572C3.44805 13.1944 4.23636 15.1305 5.43796 16.8087C6.84945 18.7801 8.70403 20.3925 10.8524 21.5163L11.6011 21.9079C11.8499 22.038 12.1467 22.038 12.3954 21.9078L13.1458 21.5152C14.7756 20.6624 16.2364 19.5286 17.4631 18.1702Z" fill="#000"/>
</svg>
