<svg width="24" height="24" viewBox="0 0 24 24" fill="none" xmlns="http://www.w3.org/2000/svg">
<path d="M19.1464 8.64645C18.9512 8.84171 18.9512 9.15829 19.1464 9.35355C19.3417 9.54882 19.6583 9.54882 19.8536 9.35355L22.3536 6.85355C22.5488 6.65829 22.5488 6.34171 22.3536 6.14645L19.8536 3.64645C19.6583 3.45118 19.3417 3.45118 19.1464 3.64645C18.9512 3.84171 18.9512 4.15829 19.1464 4.35355L20.7929 6H16.5678C14.7995 6 13.1628 6.934 12.2632 8.45636L11.9166 9.04282C11.7762 9.28056 11.855 9.58716 12.0927 9.72764C12.3305 9.86813 12.6371 9.78928 12.7776 9.55155L13.1241 8.96509C13.8438 7.7472 15.1532 7 16.5678 7H20.7929L19.1464 8.64645Z" fill="#000"/>
<path d="M19.1464 15.3536C18.9512 15.1583 18.9512 14.8417 19.1464 14.6464C19.3417 14.4512 19.6583 14.4512 19.8536 14.6464L22.3536 17.1464C22.5488 17.3417 22.5488 17.6583 22.3536 17.8536L19.8536 20.3536C19.6583 20.5488 19.3417 20.5488 19.1464 20.3536C18.9512 20.1583 18.9512 19.8417 19.1464 19.6464L20.7929 18H16.5678C14.7995 18 13.1628 17.066 12.2632 15.5436L8.37587 8.96509C7.65621 7.74719 6.34679 7 4.93216 7L2 7C1.72386 7 1.5 6.77614 1.5 6.5C1.5 6.22385 1.72386 6 2 6L4.93216 6C6.70044 6 8.33722 6.93399 9.2368 8.45636L13.1241 15.0349C13.8438 16.2528 15.1532 17 16.5678 17H20.7929L19.1464 15.3536Z" fill="#000"/>
<path d="M9.40724 14.2724C9.64498 14.4128 9.72382 14.7194 9.58334 14.9572L9.2368 15.5436C8.33722 17.066 6.70044 18 4.93216 18H2C1.72386 18 1.5 17.7761 1.5 17.5C1.5 17.2239 1.72386 17 2 17H4.93216C6.34679 17 7.65621 16.2528 8.37587 15.0349L8.72241 14.4485C8.86289 14.2107 9.1695 14.1319 9.40724 14.2724Z" fill="#000"/>
</svg>
