<svg width="24" height="24" viewBox="0 0 24 24" fill="none" xmlns="http://www.w3.org/2000/svg">
<path d="M12.5 7.99988C12.5 7.72374 12.2761 7.49988 12 7.49988C11.7239 7.49988 11.5 7.72374 11.5 7.99988V11.9999C11.5 12.1755 11.5921 12.3383 11.7428 12.4286L14.2428 13.9286C14.4795 14.0707 14.7867 13.9939 14.9287 13.7571C15.0708 13.5203 14.994 13.2132 14.7572 13.0711L12.5 11.7168V7.99988Z" fill="#000"/>
<path fill-rule="evenodd" clip-rule="evenodd" d="M4.93597 6.18392C5.29586 5.4776 5.85692 4.89522 6.54666 4.50925L7.26943 1.79885C7.47372 1.03278 8.16751 0.499756 8.96035 0.499756H15.0397C15.8325 0.499756 16.5263 1.03278 16.7306 1.79885L17.4533 4.50925C18.1431 4.89522 18.7041 5.4776 19.064 6.18392C19.2967 6.6405 19.4004 7.14582 19.4507 7.76037C19.5 8.36438 19.5 9.11632 19.5 10.0774V13.9223C19.5 14.8834 19.5 15.6354 19.4507 16.2394C19.4004 16.8539 19.2967 17.3593 19.064 17.8158C18.7041 18.5222 18.1431 19.1045 17.4533 19.4905L16.7306 22.2009C16.5263 22.967 15.8325 23.5 15.0397 23.5H8.96035C8.16751 23.5 7.47372 22.967 7.26944 22.2009L6.54666 19.4905C5.85692 19.1045 5.29586 18.5222 4.93597 17.8158C4.70334 17.3593 4.59956 16.8539 4.54935 16.2394C4.49999 15.6354 4.5 14.8834 4.5 13.9223V10.0774C4.5 9.11635 4.49999 8.36439 4.54935 7.76037C4.59956 7.14582 4.70334 6.6405 4.93597 6.18392ZM8.26049 4.04923C8.0577 4.06579 7.86681 4.0882 7.68564 4.11913L8.23567 2.05651C8.32322 1.72819 8.62056 1.49976 8.96035 1.49976L15.0397 1.49976C15.3794 1.49976 15.6768 1.72819 15.7643 2.05651L16.3144 4.11913C16.1332 4.0882 15.9423 4.06579 15.7395 4.04923C15.1355 3.99988 14.3835 3.99988 13.4225 3.99988H10.5776C9.61647 3.99988 8.86451 3.99988 8.26049 4.04923ZM15.7395 19.9505C15.9423 19.934 16.1332 19.9116 16.3144 19.8806L15.7643 21.9433C15.6768 22.2716 15.3794 22.5 15.0397 22.5H8.96035C8.62056 22.5 8.32322 22.2716 8.23567 21.9433L7.68564 19.8806C7.86681 19.9116 8.05771 19.934 8.26049 19.9505C8.86448 19.9999 9.61637 19.9999 10.5774 19.9999H13.4225C14.3835 19.9999 15.1355 19.9999 15.7395 19.9505ZM8.34192 5.04591C7.78921 5.09106 7.43014 5.17802 7.13803 5.32686C6.57354 5.61448 6.1146 6.07342 5.82698 6.63791C5.67814 6.93002 5.59118 7.28909 5.54602 7.8418C5.50039 8.40035 5.5 9.11154 5.5 10.0999V13.8999C5.5 14.8882 5.50039 15.5994 5.54602 16.158C5.59118 16.7107 5.67814 17.0697 5.82698 17.3619C6.1146 17.9263 6.57354 18.3853 7.13803 18.6729C7.43014 18.8217 7.78921 18.9087 8.34192 18.9539C8.90047 18.9995 9.61166 18.9999 10.6 18.9999H13.4C14.3883 18.9999 15.0995 18.9995 15.6581 18.9539C16.2108 18.9087 16.5699 18.8217 16.862 18.6729C17.4265 18.3853 17.8854 17.9263 18.173 17.3619C18.3219 17.0697 18.4088 16.7107 18.454 16.158C18.4996 15.5994 18.5 14.8882 18.5 13.8999V10.0999C18.5 9.11154 18.4996 8.40035 18.454 7.8418C18.4088 7.28909 18.3219 6.93002 18.173 6.63791C17.8854 6.07342 17.4265 5.61448 16.862 5.32686C16.5699 5.17802 16.2108 5.09106 15.6581 5.04591C15.0995 5.00027 14.3883 4.99988 13.4 4.99988H10.6C9.61166 4.99988 8.90047 5.00027 8.34192 5.04591Z" fill="#000"/>
</svg>
