<svg width="24" height="24" viewBox="0 0 24 24" fill="none" xmlns="http://www.w3.org/2000/svg">
<path fill-rule="evenodd" clip-rule="evenodd" d="M13.3856 9.94108C12.6115 10.6853 11.3877 10.6853 10.6135 9.94108L5.05518 4.59762C3.88675 3.47436 4.68186 1.5 6.30265 1.5L17.6965 1.5C19.3173 1.5 20.1124 3.47436 18.944 4.59763L13.3856 9.94108ZM11.3065 9.22018C11.6936 9.59231 12.3055 9.59231 12.6926 9.22018L18.2509 3.87672C18.7702 3.37749 18.4168 2.5 17.6965 2.5L6.30265 2.5C5.58229 2.5 5.22891 3.3775 5.74822 3.87672L11.3065 9.22018Z" fill="#000"/>
<path fill-rule="evenodd" clip-rule="evenodd" d="M13.3856 14.0589C12.6115 13.3147 11.3877 13.3147 10.6135 14.0589L5.05518 19.4024C3.88675 20.5257 4.68186 22.5 6.30265 22.5H17.6965C19.3173 22.5 20.1124 20.5257 18.944 19.4024L13.3856 14.0589ZM11.3065 14.7798C11.6936 14.4077 12.3055 14.4077 12.6926 14.7798L18.2509 20.1233C18.7702 20.6225 18.4168 21.5 17.6965 21.5H6.30265C5.58229 21.5 5.22891 20.6225 5.74822 20.1233L11.3065 14.7798Z" fill="#000"/>
</svg>
