<svg width="24" height="24" viewBox="0 0 24 24" fill="none" xmlns="http://www.w3.org/2000/svg">
<path fill-rule="evenodd" clip-rule="evenodd" d="M13.3856 2.05819C12.6115 1.31393 11.3877 1.31394 10.6135 2.05819L5.05518 7.40165C3.88675 8.52492 4.68186 10.4993 6.30265 10.4993L17.6965 10.4993C19.3173 10.4993 20.1124 8.52492 18.944 7.40165L13.3856 2.05819ZM11.3065 2.7791C11.6936 2.40697 12.3055 2.40697 12.6926 2.7791L18.2509 8.12255C18.7702 8.62178 18.4168 9.49928 17.6965 9.49928L6.30265 9.49928C5.58229 9.49928 5.22891 8.62178 5.74822 8.12255L11.3065 2.7791Z" fill="#000"/>
<path fill-rule="evenodd" clip-rule="evenodd" d="M13.3856 21.9418C12.6115 22.6861 11.3877 22.6861 10.6135 21.9418L5.05518 16.5983C3.88675 15.4751 4.68186 13.5007 6.30265 13.5007L17.6965 13.5007C19.3173 13.5007 20.1124 15.4751 18.944 16.5983L13.3856 21.9418ZM11.3065 21.2209C11.6936 21.593 12.3055 21.593 12.6926 21.2209L18.2509 15.8774C18.7702 15.3782 18.4168 14.5007 17.6965 14.5007L6.30265 14.5007C5.58229 14.5007 5.22891 15.3782 5.74822 15.8774L11.3065 21.2209Z" fill="#000"/>
</svg>
