<svg width="24" height="24" viewBox="0 0 24 24" fill="none" xmlns="http://www.w3.org/2000/svg">
<g clip-path="url(#clip0_9002_7288)">
<path fill-rule="evenodd" clip-rule="evenodd" d="M19.0441 0.616702C19.3281 0.461099 19.6719 0.461099 19.9559 0.616702C20.2011 0.75105 20.3206 1.00795 20.3897 1.1712C20.4692 1.35878 20.5523 1.61161 20.65 1.90864L20.9723 2.88868C20.9829 2.92097 20.9911 2.94586 20.9984 2.96733L21.0073 2.99272L21.0327 3.00155C21.0541 3.00887 21.079 3.01706 21.1113 3.02768L22.0914 3.35C22.3884 3.44767 22.6412 3.53082 22.8288 3.61025C22.9921 3.67938 23.249 3.79891 23.3833 4.04412C23.5389 4.32812 23.5389 4.67188 23.3833 4.95588C23.249 5.20109 22.9921 5.32062 22.8288 5.38975C22.6412 5.46918 22.3884 5.55233 22.0914 5.65L21.1113 5.97232C21.079 5.98294 21.0541 5.99113 21.0327 5.99845L21.0073 6.00728L20.9984 6.03267C20.9911 6.05414 20.9829 6.07903 20.9723 6.11132L20.65 7.09136C20.5524 7.38828 20.4692 7.64127 20.3897 7.8288C20.3206 7.99205 20.2011 8.24895 19.9559 8.3833C19.6719 8.5389 19.3281 8.5389 19.0441 8.3833C18.7989 8.24895 18.6794 7.99205 18.6103 7.8288C18.5308 7.64122 18.4477 7.38839 18.35 7.09137L18.0277 6.11132C18.0171 6.07903 18.0089 6.05414 18.0016 6.03267L17.9927 6.00728L17.9673 5.99845C17.9459 5.99113 17.921 5.98294 17.8887 5.97232L16.9086 5.65C16.6116 5.55233 16.3588 5.46918 16.1712 5.38975C16.0079 5.32062 15.751 5.20109 15.6167 4.95588C15.4611 4.67188 15.4611 4.32812 15.6167 4.04412C15.751 3.79891 16.0079 3.67938 16.1712 3.61025C16.3588 3.53082 16.6116 3.44767 16.9086 3.35L17.8887 3.02768C17.921 3.01706 17.9459 3.00887 17.9673 3.00155L17.9927 2.99272L18.0016 2.96733C18.0089 2.94586 18.0171 2.92097 18.0277 2.88868L18.35 1.90863C18.4477 1.61161 18.5308 1.35878 18.6103 1.17119C18.6794 1.00795 18.7989 0.75105 19.0441 0.616702ZM19.5 1.63824C19.4457 1.77866 19.382 1.97155 19.2929 2.2425L18.9776 3.2011L18.9689 3.22787C18.9375 3.32457 18.8952 3.4547 18.8178 3.56827C18.751 3.66632 18.6663 3.75097 18.5683 3.81781C18.4547 3.89523 18.3246 3.93749 18.2279 3.96889L18.2011 3.97762L17.2425 4.29289C16.9716 4.382 16.7787 4.44575 16.6382 4.5C16.7787 4.55425 16.9716 4.618 17.2425 4.70711L18.2011 5.02238L18.2279 5.03111C18.3246 5.06251 18.4547 5.10477 18.5683 5.18219C18.6663 5.24903 18.751 5.33368 18.8178 5.43173C18.8952 5.5453 18.9375 5.67544 18.9689 5.77213L18.9776 5.7989L19.2929 6.7575C19.382 7.02844 19.4457 7.22134 19.5 7.36176C19.5542 7.22134 19.618 7.02844 19.7071 6.7575L20.0224 5.7989L20.0311 5.77213C20.0625 5.67544 20.1048 5.5453 20.1822 5.43173C20.249 5.33368 20.3337 5.24903 20.4317 5.18219C20.5453 5.10477 20.6754 5.06251 20.7721 5.03111L20.7989 5.02238L21.7575 4.70711C22.0284 4.618 22.2213 4.55425 22.3618 4.5C22.2213 4.44575 22.0284 4.382 21.7575 4.29289L20.7989 3.97762L20.7721 3.96889C20.6754 3.93749 20.5453 3.89523 20.4317 3.81781C20.3337 3.75097 20.249 3.66632 20.1822 3.56827C20.1048 3.4547 20.0625 3.32457 20.0311 3.22788L20.0224 3.2011L19.7071 2.2425C19.618 1.97155 19.5543 1.77866 19.5 1.63824Z" fill="#000"/>
<path fill-rule="evenodd" clip-rule="evenodd" d="M9.20527 3.70345C9.70037 3.43218 10.2996 3.43218 10.7947 3.70345C11.162 3.90466 11.3833 4.31887 11.5644 4.7466C11.7558 5.19853 11.961 5.82249 12.2209 6.61277L13.0396 9.10209C13.1555 9.45456 13.187 9.53571 13.2297 9.5983C13.2758 9.66588 13.3341 9.72423 13.4017 9.7703C13.4643 9.81297 13.5454 9.84449 13.8979 9.96042L16.3872 10.7791C17.1774 11.039 17.8015 11.2442 18.2534 11.4356C18.6811 11.6167 19.0953 11.838 19.2966 12.2053C19.5678 12.7004 19.5678 13.2996 19.2966 13.7947C19.0953 14.162 18.6811 14.3833 18.2534 14.5644C17.8015 14.7558 17.1775 14.961 16.3872 15.2209L13.8979 16.0396C13.5454 16.1555 13.4643 16.187 13.4017 16.2297C13.3341 16.2758 13.2758 16.3341 13.2297 16.4017C13.187 16.4643 13.1555 16.5454 13.0396 16.8979L12.2209 19.3872C11.961 20.1775 11.7558 20.8015 11.5644 21.2534C11.3833 21.6811 11.162 22.0953 10.7947 22.2966C10.2996 22.5678 9.70037 22.5678 9.20527 22.2966C8.83801 22.0953 8.61672 21.6811 8.43559 21.2534C8.24421 20.8015 8.039 20.1775 7.77908 19.3872L6.96042 16.8979C6.84449 16.5454 6.81297 16.4643 6.7703 16.4017C6.72423 16.3341 6.66588 16.2758 6.5983 16.2297C6.53571 16.187 6.45456 16.1555 6.10208 16.0396L3.61278 15.2209C2.82249 14.961 2.19853 14.7558 1.7466 14.5644C1.31887 14.3833 0.904663 14.162 0.703446 13.7947C0.432185 13.2996 0.432185 12.7004 0.703446 12.2053C0.904663 11.838 1.31887 11.6167 1.7466 11.4356C2.19852 11.2442 2.82248 11.039 3.61275 10.7791L6.10209 9.96042C6.45456 9.84449 6.53571 9.81297 6.5983 9.7703C6.66588 9.72423 6.72423 9.66588 6.7703 9.5983C6.81297 9.53571 6.84449 9.45456 6.96042 9.10208L7.77909 6.61283C8.03898 5.82258 8.24422 5.19851 8.43559 4.7466C8.61672 4.31887 8.83801 3.90466 9.20527 3.70345ZM10.3142 4.58044C10.1185 4.47319 9.88153 4.47319 9.68577 4.58044C9.65359 4.59807 9.54184 4.69871 9.35643 5.13654C9.18324 5.54553 8.99068 6.12967 8.72104 6.94953L7.89324 9.46667C7.8036 9.74004 7.72915 9.96708 7.59657 10.1616C7.48005 10.3325 7.3325 10.48 7.16156 10.5966C6.96708 10.7292 6.74004 10.8036 6.46667 10.8932L3.94954 11.721C3.12967 11.9907 2.54554 12.1832 2.13654 12.3564C1.69871 12.5418 1.59807 12.6536 1.58044 12.6858C1.47319 12.8815 1.47319 13.1185 1.58044 13.3142C1.59807 13.3464 1.69871 13.4582 2.13654 13.6436C2.54553 13.8168 3.12967 14.0093 3.94953 14.279L6.46668 15.1068C6.74004 15.1964 6.96708 15.2708 7.16156 15.4034C7.3325 15.5199 7.48005 15.6675 7.59657 15.8384C7.72915 16.0329 7.8036 16.26 7.89324 16.5333L8.72104 19.0505C8.99068 19.8703 9.18324 20.4545 9.35643 20.8635C9.54184 21.3013 9.65359 21.4019 9.68577 21.4196C9.88153 21.5268 10.1185 21.5268 10.3142 21.4196C10.3464 21.4019 10.4582 21.3013 10.6436 20.8635C10.8168 20.4545 11.0093 19.8703 11.279 19.0505L12.1068 16.5333C12.1964 16.26 12.2709 16.0329 12.4034 15.8384C12.5199 15.6675 12.6675 15.5199 12.8384 15.4034C13.0329 15.2708 13.26 15.1964 13.5333 15.1068L16.0505 14.279C16.8703 14.0093 17.4545 13.8168 17.8635 13.6436C18.3013 13.4582 18.4019 13.3464 18.4196 13.3142C18.5268 13.1185 18.5268 12.8815 18.4196 12.6858C18.4019 12.6536 18.3013 12.5418 17.8635 12.3564C17.4545 12.1832 16.8703 11.9907 16.0505 11.721L13.5333 10.8932C13.26 10.8036 13.0329 10.7292 12.8384 10.5966C12.6675 10.48 12.5199 10.3325 12.4034 10.1616C12.2708 9.96708 12.1964 9.74004 12.1068 9.46667L11.279 6.94954C11.0093 6.12967 10.8168 5.54554 10.6436 5.13654C10.4582 4.69871 10.3464 4.59807 10.3142 4.58044Z" fill="#000"/>
<path fill-rule="evenodd" clip-rule="evenodd" d="M20.2671 18.0666C20.2183 17.9514 20.1173 17.7231 19.8943 17.6009C19.6486 17.4664 19.3514 17.4664 19.1057 17.6009C18.8827 17.7231 18.7817 17.9514 18.7329 18.0666C18.6738 18.2061 18.6128 18.3917 18.5444 18.5998L18.3106 19.3106L17.5998 19.5444C17.3917 19.6128 17.2061 19.6738 17.0666 19.7329C16.9514 19.7817 16.7231 19.8827 16.6009 20.1057C16.4664 20.3514 16.4664 20.6486 16.6009 20.8943C16.7231 21.1173 16.9514 21.2183 17.0666 21.2671C17.2061 21.3262 17.3917 21.3872 17.5998 21.4556L18.3106 21.6894L18.5444 22.4002C18.6128 22.6083 18.6738 22.7939 18.7329 22.9334C18.7817 23.0486 18.8827 23.2769 19.1057 23.3991C19.3514 23.5336 19.6486 23.5336 19.8943 23.3991C20.1173 23.2769 20.2183 23.0486 20.2671 22.9334C20.3262 22.7939 20.3872 22.6083 20.4556 22.4002L20.6894 21.6894L21.4002 21.4556C21.6083 21.3872 21.7939 21.3262 21.9334 21.2671C22.0486 21.2183 22.2769 21.1173 22.3991 20.8943C22.5336 20.6486 22.5336 20.3514 22.3991 20.1057C22.2769 19.8827 22.0486 19.7817 21.9334 19.7329C21.7939 19.6738 21.6083 19.6128 21.4002 19.5444L20.6894 19.3106L20.4556 18.5998C20.3872 18.3917 20.3262 18.2061 20.2671 18.0666ZM19.5 18.895L19.7374 19.6168L19.7435 19.6357C19.765 19.7024 19.8015 19.8156 19.8692 19.9149C19.927 19.9997 20.0003 20.073 20.0851 20.1308C20.1844 20.1985 20.2976 20.235 20.3643 20.2565L20.3832 20.2626L21.105 20.5L20.3832 20.7374L20.3643 20.7435C20.2976 20.765 20.1844 20.8015 20.0851 20.8692C20.0003 20.927 19.927 21.0003 19.8692 21.0851C19.8015 21.1844 19.765 21.2976 19.7435 21.3643L19.7374 21.3832L19.5 22.105L19.2626 21.3832L19.2565 21.3643C19.235 21.2976 19.1985 21.1844 19.1308 21.0851C19.073 21.0003 18.9997 20.927 18.9149 20.8692C18.8156 20.8015 18.7024 20.765 18.6357 20.7435L18.6168 20.7374L17.895 20.5L18.6168 20.2626L18.6357 20.2565C18.7024 20.235 18.8156 20.1985 18.9149 20.1308C18.9997 20.073 19.073 19.9997 19.1308 19.9149C19.1985 19.8156 19.235 19.7024 19.2565 19.6357L19.2626 19.6168L19.5 18.895Z" fill="#000"/>
</g>
<defs>
<clipPath id="clip0_9002_7288">
<rect width="24" height="24" fill="white"/>
</clipPath>
</defs>
</svg>
