<svg width="24" height="24" viewBox="0 0 24 24" fill="none" xmlns="http://www.w3.org/2000/svg">
<path d="M12 5.5C8.41015 5.5 5.5 8.41015 5.5 12C5.5 13.8189 6.24643 15.4625 7.45097 16.6429C7.6482 16.8362 7.65141 17.1527 7.45814 17.3499C7.26487 17.5472 6.9483 17.5504 6.75107 17.3571C5.3625 15.9964 4.5 14.0985 4.5 12C4.5 7.85786 7.85786 4.5 12 4.5C12.3633 4.5 12.7208 4.52587 13.0708 4.57593C13.3442 4.61503 13.5341 4.86833 13.495 5.14169C13.4559 5.41505 13.2026 5.60495 12.9292 5.56585C12.626 5.52248 12.3158 5.5 12 5.5Z" fill="#000"/>
<path d="M18.8583 10.505C19.1317 10.4659 19.385 10.6558 19.4241 10.9292C19.4741 11.2792 19.5 11.6367 19.5 12C19.5 14.0985 18.6375 15.9964 17.2489 17.3571C17.0517 17.5504 16.7351 17.5472 16.5419 17.3499C16.3486 17.1527 16.3518 16.8362 16.549 16.6429C17.7536 15.4625 18.5 13.8189 18.5 12C18.5 11.6842 18.4775 11.374 18.4342 11.0708C18.3951 10.7974 18.585 10.5441 18.8583 10.505Z" fill="#000"/>
<path fill-rule="evenodd" clip-rule="evenodd" d="M17.2803 7.49848L17.4261 7.26125C17.5468 7.06414 17.5167 6.80989 17.3533 6.64645C17.1899 6.48301 16.9356 6.45296 16.7385 6.5737L16.5013 6.71946C16.3501 6.81251 16.1336 6.94605 15.8719 7.1081C15.3487 7.43215 14.6446 7.87053 13.922 8.32745C13.1998 8.78402 12.4567 9.26061 11.8561 9.66067C11.5561 9.86052 11.2887 10.0432 11.0762 10.1959C10.8743 10.3409 10.692 10.4796 10.5857 10.5859C9.80462 11.367 9.80462 12.6333 10.5857 13.4143C11.3667 14.1954 12.633 14.1954 13.4141 13.4143C13.5204 13.308 13.6591 13.1257 13.8041 12.9238C13.9568 12.7112 14.1395 12.4439 14.3393 12.1438C14.7393 11.5433 15.2159 10.8001 15.6724 10.0779C16.1293 9.35519 16.5677 8.65111 16.8917 8.12788C17.0538 7.86622 17.1873 7.64967 17.2803 7.49848ZM14.8272 9.54355C15.0437 9.20102 15.2562 8.86257 15.4542 8.54566C15.1373 8.74369 14.7989 8.95614 14.4564 9.17268C13.7366 9.62775 13.0012 10.0994 12.4105 10.4929C12.1149 10.6898 11.8584 10.8652 11.6595 11.0081C11.4499 11.1587 11.3329 11.2529 11.2928 11.293C10.9022 11.6835 10.9022 12.3167 11.2928 12.7072C11.6833 13.0977 12.3165 13.0977 12.707 12.7072C12.7471 12.6671 12.8413 12.5502 12.9918 12.3405C13.1347 12.1416 13.3101 11.8851 13.507 11.5895C13.9005 10.9987 14.3722 10.2633 14.8272 9.54355Z" fill="#000"/>
<path fill-rule="evenodd" clip-rule="evenodd" d="M0.5 12C0.5 5.64873 5.64873 0.5 12 0.5C18.3513 0.5 23.5 5.64873 23.5 12C23.5 18.3513 18.3513 23.5 12 23.5C5.64873 23.5 0.5 18.3513 0.5 12ZM12 1.5C6.20101 1.5 1.5 6.20101 1.5 12C1.5 17.799 6.20101 22.5 12 22.5C17.799 22.5 22.5 17.799 22.5 12C22.5 6.20101 17.799 1.5 12 1.5Z" fill="#000"/>
</svg>
