<svg width="24" height="24" viewBox="0 0 24 24" fill="none" xmlns="http://www.w3.org/2000/svg">
<path fill-rule="evenodd" clip-rule="evenodd" d="M2.35364 1.64645C2.15838 1.45118 1.8418 1.45118 1.64654 1.64645C1.45128 1.84171 1.45128 2.15829 1.64654 2.35355L7.08889 7.79591L3.02461 8.32625C1.55987 8.51738 0.976202 10.3253 2.05266 11.3368L5.60945 14.6791C5.73368 14.7959 5.78987 14.9678 5.75853 15.1354L4.86307 19.9224C4.59279 21.3674 6.11656 22.4815 7.41148 21.7858L11.7637 19.4475C11.9114 19.3681 12.0892 19.3681 12.237 19.4475L16.5891 21.7858C17.8841 22.4815 19.4078 21.3674 19.1376 19.9224L19.1196 19.8267L21.6465 22.3536C21.8418 22.5488 22.1584 22.5488 22.3536 22.3536C22.5489 22.1583 22.5489 21.8417 22.3536 21.6464L18.6899 17.9827C18.6867 17.9794 18.6835 17.9762 18.6803 17.9731L8.50725 7.80005C8.50256 7.79517 8.49778 7.79039 8.49291 7.78571L2.35364 1.64645ZM7.98096 8.68798L3.15401 9.31784C2.52626 9.39975 2.27611 10.1746 2.73746 10.6081L6.29424 13.9504C6.66694 14.3006 6.83551 14.8166 6.74148 15.3193L5.84603 20.1063C5.73019 20.7256 6.38323 21.2031 6.9382 20.9049L11.2904 18.5666C11.7337 18.3284 12.2669 18.3284 12.7102 18.5666L17.0624 20.9049C17.6174 21.2031 18.2704 20.7256 18.1546 20.1063L17.8716 18.5932C17.8705 18.5873 17.8695 18.5815 17.8686 18.5756L7.98096 8.68798Z" fill="#000"/>
<path d="M13.5767 2.9901C12.9404 1.66996 11.0603 1.66997 10.4239 2.99011L9.2312 5.4644C9.11129 5.71315 9.21574 6.012 9.46449 6.13191C9.71324 6.25182 10.0121 6.14737 10.132 5.89862L11.3247 3.42433C11.5974 2.85856 12.4032 2.85856 12.6759 3.42433L14.8067 7.84464C15.0266 8.30076 15.4617 8.61517 15.9638 8.68069L20.8466 9.31784C21.4744 9.39975 21.7245 10.1746 21.2632 10.6081L17.8436 13.8215C17.6423 14.0106 17.6325 14.327 17.8216 14.5283C18.0107 14.7295 18.3271 14.7393 18.5283 14.5502L21.948 11.3368C23.0244 10.3253 22.4408 8.51738 20.976 8.32625L16.0932 7.6891C15.9258 7.66726 15.7808 7.56245 15.7075 7.41041L13.5767 2.9901Z" fill="#000"/>
</svg>
