<svg width="24" height="24" viewBox="0 0 24 24" fill="none" xmlns="http://www.w3.org/2000/svg">
<path fill-rule="evenodd" clip-rule="evenodd" d="M10.4239 2.98886C11.0603 1.66872 12.9404 1.66871 13.5767 2.98885L15.7075 7.40916C15.7808 7.5612 15.9258 7.66601 16.0932 7.68784L20.976 8.32499C22.4408 8.51613 23.0244 10.324 21.948 11.3356L18.3912 14.6779C18.267 14.7946 18.2108 14.9666 18.2421 15.1342L19.1376 19.9212C19.4078 21.3661 17.8841 22.4803 16.5891 21.7846L12.237 19.4463C12.0892 19.3669 11.9114 19.3669 11.7637 19.4463L7.41148 21.7846C6.11656 22.4803 4.59279 21.3661 4.86307 19.9212L5.75853 15.1342C5.78987 14.9666 5.73368 14.7946 5.60945 14.6779L2.05266 11.3356C0.976202 10.324 1.55987 8.51613 3.02461 8.32499L7.90743 7.68784C8.0748 7.66601 8.21985 7.5612 8.29314 7.40916L10.4239 2.98886ZM12.6759 3.42308C12.4032 2.85731 11.5974 2.8573 11.3247 3.42308L9.19394 7.84339C8.97407 8.29951 8.53892 8.61392 8.03682 8.67944L3.15401 9.31659C2.52626 9.3985 2.27611 10.1733 2.73746 10.6068L6.29424 13.9491C6.66694 14.2993 6.83551 14.8153 6.74148 15.318L5.84603 20.1051C5.73019 20.7243 6.38323 21.2018 6.9382 20.9036L11.2904 18.5654C11.7337 18.3272 12.2669 18.3272 12.7102 18.5654L17.0624 20.9036C17.6174 21.2018 18.2704 20.7243 18.1546 20.1051L17.2592 15.318C17.1651 14.8153 17.3337 14.2993 17.7064 13.9491L21.2632 10.6068C21.7245 10.1733 21.4744 9.3985 20.8466 9.31659L15.9638 8.67944C15.4617 8.61392 15.0266 8.29951 14.8067 7.84339L12.6759 3.42308Z" fill="#000"/>
</svg>
