<svg width="24" height="24" viewBox="0 0 24 24" fill="none" xmlns="http://www.w3.org/2000/svg">
<path fill-rule="evenodd" clip-rule="evenodd" d="M13.0133 7.13647C12.6043 6.28784 11.3957 6.28784 10.9866 7.13647L9.9213 9.34645L7.48009 9.665C6.53851 9.78786 6.1633 10.95 6.85529 11.6003L8.63354 13.2713L8.18585 15.6646C8.0121 16.5935 8.99162 17.3097 9.82405 16.8625L12 15.6934L14.1759 16.8625C15.0083 17.3097 15.9878 16.5935 15.8141 15.6646L15.3664 13.2713L17.1446 11.6003C17.8366 10.95 17.4614 9.78786 16.5198 9.665L14.0786 9.34645L13.0133 7.13647ZM11.8874 7.5707C11.9328 7.47643 12.0671 7.47644 12.1125 7.5707L13.1778 9.78069C13.3244 10.0848 13.6145 10.2944 13.9492 10.338L16.3905 10.6566C16.495 10.6702 16.5367 10.7993 16.4599 10.8716L14.6816 12.5426C14.4331 12.7761 14.3208 13.12 14.3834 13.4552L14.8311 15.8485C14.8504 15.9517 14.7416 16.0312 14.6492 15.9815L12.4732 14.8125C12.1777 14.6537 11.8222 14.6537 11.5267 14.8125L9.35076 15.9815C9.2583 16.0312 9.1495 15.9517 9.1688 15.8485L9.61649 13.4552C9.67918 13.12 9.5668 12.7761 9.31834 12.5426L7.54008 10.8716C7.46322 10.7993 7.50489 10.6702 7.60948 10.6566L10.0507 10.338C10.3854 10.2944 10.6755 10.0848 10.8221 9.78069L11.8874 7.5707Z" fill="#000"/>
<path fill-rule="evenodd" clip-rule="evenodd" d="M11.9999 0.5C5.64866 0.5 0.499939 5.64873 0.499939 12C0.499939 18.3513 5.64866 23.5 11.9999 23.5C18.3512 23.5 23.4999 18.3513 23.4999 12C23.4999 5.64873 18.3512 0.5 11.9999 0.5ZM1.49994 12C1.49994 6.20101 6.20095 1.5 11.9999 1.5C17.7989 1.5 22.4999 6.20101 22.4999 12C22.4999 17.799 17.7989 22.5 11.9999 22.5C6.20095 22.5 1.49994 17.799 1.49994 12Z" fill="#000"/>
</svg>
