<svg width="24" height="24" viewBox="0 0 24 24" fill="none" xmlns="http://www.w3.org/2000/svg">
<path fill-rule="evenodd" clip-rule="evenodd" d="M2.35358 1.64645C2.15832 1.45118 1.84174 1.45118 1.64648 1.64645C1.45121 1.84171 1.45121 2.15829 1.64648 2.35355L7.08883 7.79591L3.02455 8.32625C1.55981 8.51738 0.976141 10.3253 2.0526 11.3368L5.60939 14.6791C5.73362 14.7959 5.78981 14.9678 5.75846 15.1354L4.86301 19.9224C4.59273 21.3674 6.1165 22.4815 7.41142 21.7858L11.7636 19.4475C11.9114 19.3681 12.0891 19.3681 12.2369 19.4475L16.5891 21.7858C17.884 22.4815 19.4078 21.3674 19.1375 19.9224L19.1196 19.8267L21.6465 22.3536C21.8417 22.5488 22.1583 22.5488 22.3536 22.3536C22.5488 22.1583 22.5488 21.8417 22.3536 21.6464L18.6898 17.9827C18.6867 17.9794 18.6835 17.9762 18.6802 17.9731L8.50719 7.80005C8.5025 7.79517 8.49772 7.79039 8.49285 7.78571L2.35358 1.64645ZM7.9809 8.68798L3.15394 9.31784C2.5262 9.39975 2.27605 10.1746 2.73739 10.6081L6.29418 13.9504C6.66688 14.3006 6.83545 14.8166 6.74142 15.3193L5.84596 20.1063C5.73013 20.7256 6.38317 21.2031 6.93814 20.9049L11.2903 18.5666C11.7336 18.3284 12.2669 18.3284 12.7102 18.5666L17.0624 20.9049C17.6173 21.2031 18.2704 20.7256 18.1545 20.1063L17.8715 18.5932C17.8704 18.5873 17.8694 18.5815 17.8685 18.5756L7.9809 8.68798Z" fill="#000"/>
<path d="M13.5767 2.9901C12.9403 1.66996 11.0602 1.66997 10.4238 2.99011L9.23114 5.4644C9.11123 5.71315 9.21568 6.012 9.46443 6.13191C9.71318 6.25182 10.012 6.14737 10.1319 5.89862L11.3247 3.42433C11.5974 2.85856 12.4031 2.85856 12.6759 3.42433L14.8066 7.84464C15.0265 8.30076 15.4617 8.61517 15.9638 8.68069L20.8466 9.31784C21.4743 9.39975 21.7245 10.1746 21.2631 10.6081L17.8435 13.8215C17.6423 14.0106 17.6324 14.327 17.8215 14.5283C18.0106 14.7295 18.327 14.7393 18.5283 14.5502L21.9479 11.3368C23.0244 10.3253 22.4407 8.51738 20.976 8.32625L16.0931 7.6891C15.9258 7.66726 15.7807 7.56245 15.7074 7.41041L13.5767 2.9901Z" fill="#000"/>
</svg>
