<svg width="24" height="24" viewBox="0 0 24 24" fill="none" xmlns="http://www.w3.org/2000/svg">
<path fill-rule="evenodd" clip-rule="evenodd" d="M10.4238 2.98883C11.0601 1.66869 12.9402 1.66868 13.5766 2.98882L15.7074 7.40913C15.7807 7.56117 15.9257 7.66598 16.0931 7.68781L20.9759 8.32496C22.4406 8.5161 23.0243 10.324 21.9478 11.3355L18.3911 14.6778C18.2668 14.7946 18.2106 14.9666 18.242 15.1341L19.1374 19.9212C19.4077 21.3661 17.884 22.4802 16.589 21.7845L12.2368 19.4462C12.0891 19.3668 11.9113 19.3668 11.7636 19.4462L7.41136 21.7845C6.11643 22.4802 4.59267 21.3661 4.86295 19.9212L5.7584 15.1341C5.78975 14.9666 5.73356 14.7946 5.60932 14.6778L2.05254 11.3355C0.97608 10.324 1.55975 8.51609 3.02449 8.32496L7.90731 7.68781C8.07467 7.66598 8.21973 7.56117 8.29302 7.40913L10.4238 2.98883ZM12.6758 3.42305C12.4031 2.85728 11.5973 2.85727 11.3246 3.42305L9.19382 7.84335C8.97395 8.29948 8.5388 8.61389 8.0367 8.67941L3.15388 9.31656C2.52614 9.39847 2.27599 10.1733 2.73733 10.6068L6.29412 13.9491C6.66681 14.2993 6.83539 14.8153 6.74135 15.318L5.8459 20.105C5.73007 20.7243 6.38311 21.2018 6.93808 20.9036L11.2903 18.5653C11.7336 18.3272 12.2668 18.3272 12.7101 18.5653L17.0623 20.9036C17.6173 21.2018 18.2703 20.7243 18.1545 20.105L17.259 15.318C17.165 14.8153 17.3336 14.2993 17.7063 13.9491L21.2631 10.6068C21.7244 10.1733 21.4743 9.39847 20.8465 9.31656L15.9637 8.67941C15.4616 8.61389 15.0264 8.29948 14.8066 7.84335L12.6758 3.42305Z" fill="#000"/>
</svg>
