<svg width="24" height="24" viewBox="0 0 24 24" fill="none" xmlns="http://www.w3.org/2000/svg">
<path d="M9.00006 1C8.72392 1 8.50006 1.22386 8.50006 1.5C8.50006 1.77614 8.72392 2 9.00006 2H11.5001V4.01294C10.5735 4.06103 9.68144 4.24198 8.84288 4.53736C8.58243 4.62911 8.44566 4.91463 8.53741 5.17508C8.62915 5.43554 8.91467 5.57231 9.17513 5.48056C10.0583 5.16945 11.0089 5 12.0001 5C16.6945 5 20.5001 8.80558 20.5001 13.5C20.5001 14.4912 20.3306 15.4418 20.0195 16.3249C19.9278 16.5854 20.0645 16.8709 20.325 16.9627C20.5854 17.0544 20.8709 16.9176 20.9627 16.6572C21.3109 15.6687 21.5001 14.6059 21.5001 13.5C21.5001 10.9293 20.479 8.59712 18.8203 6.88683L20.3536 5.35355C20.5489 5.15829 20.5489 4.84171 20.3536 4.64645C20.1584 4.45118 19.8418 4.45118 19.6465 4.64645L18.087 6.20594C16.5579 4.9285 14.621 4.12291 12.5001 4.01293V2H15.0001C15.2762 2 15.5001 1.77614 15.5001 1.5C15.5001 1.22386 15.2762 1 15.0001 1H9.00006Z" fill="#000"/>
<path fill-rule="evenodd" clip-rule="evenodd" d="M6.7895 6.08239L19.4177 18.7105C19.4219 18.7147 19.4261 18.7188 19.4302 18.723L22.3536 21.6464C22.5488 21.8417 22.5488 22.1583 22.3536 22.3536C22.1583 22.5488 21.8417 22.5488 21.6464 22.3536L19.1023 19.8095C17.3628 21.7661 14.8254 23 12.0001 23C6.75336 23 2.50006 18.7467 2.50006 13.5C2.50006 10.6746 3.73394 8.13723 5.69061 6.39771L1.64645 2.35355C1.45118 2.15829 1.45118 1.84171 1.64645 1.64645C1.84171 1.45118 2.15829 1.45118 2.35355 1.64645L6.77703 6.06993C6.78125 6.074 6.7854 6.07815 6.7895 6.08239ZM18.3939 19.101L6.39907 7.10617C4.62129 8.66476 3.50006 10.9513 3.50006 13.5C3.50006 18.1944 7.30564 22 12.0001 22C14.5487 22 16.8353 20.8788 18.3939 19.101Z" fill="#000"/>
</svg>
