<svg width="24" height="24" viewBox="0 0 24 24" fill="none" xmlns="http://www.w3.org/2000/svg">
<path fill-rule="evenodd" clip-rule="evenodd" d="M7.57756 1.5H16.4224C17.3835 1.5 18.1355 1.49999 18.7395 1.54935C19.3541 1.59956 19.8594 1.70334 20.316 1.93597C21.0686 2.31947 21.6805 2.93139 22.064 3.68404C22.2967 4.14062 22.4004 4.64594 22.4507 5.26049C22.5 5.86451 22.5 6.61646 22.5 7.57754V16.4225C22.5 17.3835 22.5 18.1355 22.4507 18.7395C22.4004 19.3541 22.2967 19.8594 22.064 20.316C21.6805 21.0686 21.0686 21.6805 20.316 22.064C19.8594 22.2967 19.3541 22.4004 18.7395 22.4507C18.1355 22.5 17.3835 22.5 16.4225 22.5H7.57754C6.61646 22.5 5.86451 22.5 5.26049 22.4507C4.64594 22.4004 4.14062 22.2967 3.68404 22.064C2.93139 21.6805 2.31947 21.0686 1.93597 20.316C1.70334 19.8594 1.59956 19.3541 1.54935 18.7395C1.49999 18.1355 1.5 17.3835 1.5 16.4224V7.57756C1.5 6.61646 1.49999 5.86451 1.54935 5.26049C1.59956 4.64594 1.70334 4.14062 1.93597 3.68404C2.31947 2.93139 2.93139 2.31947 3.68404 1.93597C4.14062 1.70334 4.64594 1.59956 5.26049 1.54935C5.86451 1.49999 6.61646 1.5 7.57756 1.5ZM5.34192 2.54602C4.78921 2.59118 4.43014 2.67814 4.13803 2.82698C3.57354 3.1146 3.1146 3.57354 2.82698 4.13803C2.67814 4.43014 2.59118 4.78921 2.54602 5.34192C2.50039 5.90047 2.5 6.61166 2.5 7.6V16.4C2.5 17.3883 2.50039 18.0995 2.54602 18.6581C2.59118 19.2108 2.67814 19.5699 2.82698 19.862C3.1146 20.4265 3.57354 20.8854 4.13803 21.173C4.43014 21.3219 4.78921 21.4088 5.34192 21.454C5.90047 21.4996 6.61166 21.5 7.6 21.5H16.4C17.3883 21.5 18.0995 21.4996 18.6581 21.454C19.2108 21.4088 19.5699 21.3219 19.862 21.173C20.4265 20.8854 20.8854 20.4265 21.173 19.862C21.3219 19.5699 21.4088 19.2108 21.454 18.6581C21.4996 18.0995 21.5 17.3883 21.5 16.4V7.6C21.5 6.61166 21.4996 5.90047 21.454 5.34192C21.4088 4.78921 21.3219 4.43014 21.173 4.13803C20.8854 3.57354 20.4265 3.1146 19.862 2.82698C19.5699 2.67814 19.2108 2.59118 18.6581 2.54602C18.0995 2.50039 17.3883 2.5 16.4 2.5H7.6C6.61166 2.5 5.90047 2.50039 5.34192 2.54602Z" fill="#000"/>
</svg>
