<svg width="24" height="24" viewBox="0 0 24 24" fill="none" xmlns="http://www.w3.org/2000/svg">
<path d="M12.5 9C12.5 8.72386 12.2761 8.5 12 8.5C11.7239 8.5 11.5 8.72386 11.5 9V13.5C11.5 13.7761 11.7239 14 12 14C12.2761 14 12.5 13.7761 12.5 13.5V9Z" fill="#000"/>
<path fill-rule="evenodd" clip-rule="evenodd" d="M12.5 2V4.01293C14.6209 4.12291 16.5579 4.92851 18.087 6.20594L19.6465 4.64645C19.8417 4.45118 20.1583 4.45118 20.3536 4.64645C20.5488 4.84171 20.5488 5.15829 20.3536 5.35355L18.8203 6.88684C20.479 8.59713 21.5 10.9293 21.5 13.5C21.5 18.7467 17.2467 23 12 23C6.75329 23 2.5 18.7467 2.5 13.5C2.5 8.42101 6.48572 4.27294 11.5 4.01293V2H9C8.72386 2 8.5 1.77614 8.5 1.5C8.5 1.22386 8.72386 1 9 1H15C15.2761 1 15.5 1.22386 15.5 1.5C15.5 1.77614 15.2761 2 15 2H12.5ZM3.5 13.5C3.5 8.80558 7.30558 5 12 5C16.6944 5 20.5 8.80558 20.5 13.5C20.5 18.1944 16.6944 22 12 22C7.30558 22 3.5 18.1944 3.5 13.5Z" fill="#000"/>
</svg>
