<svg width="24" height="24" viewBox="0 0 24 24" fill="none" xmlns="http://www.w3.org/2000/svg">
<path fill-rule="evenodd" clip-rule="evenodd" d="M5.80337 1.49991C5.09849 1.49959 4.61325 1.49938 4.19016 1.65671C3.70698 1.8364 3.29115 2.16107 2.99964 2.58625C2.74439 2.95854 2.62691 3.42934 2.45625 4.11325L1.75746 6.90852C1.58647 7.59251 1.5 8.29489 1.5 8.99993C1.5 10.0142 2.09912 11.0201 3 11.5708L3 17.6219C3 18.3733 2.99999 18.9678 3.03913 19.4468C3.07912 19.9363 3.16246 20.349 3.35423 20.7253C3.66582 21.3369 4.163 21.8341 4.77453 22.1456C5.15089 22.3374 5.5636 22.4208 6.05309 22.4607C6.53206 22.4999 7.12655 22.4999 7.87793 22.4999H9.49392L9.5 22.4999L9.50608 22.4999H14.4939L14.5 22.4999L14.5061 22.4999H16.1221C16.8734 22.4999 17.4679 22.4999 17.9469 22.4607C18.4364 22.4208 18.8491 22.3374 19.2255 22.1456C19.837 21.8341 20.3342 21.3369 20.6458 20.7253C20.8375 20.349 20.9209 19.9363 20.9609 19.4468C21 18.9678 21 18.3733 21 17.622V11.5708C21.9009 11.0201 22.5 10.0142 22.5 8.99993C22.5 8.29489 22.4135 7.59251 22.2425 6.90852L21.5437 4.11326C21.3731 3.42935 21.2556 2.95854 21.0004 2.58625C20.7089 2.16107 20.293 1.8364 19.8098 1.65671C19.3868 1.49938 18.9015 1.49959 18.1966 1.49991H5.80337ZM20 11.955C19.8376 11.9844 19.6706 11.9999 19.5 11.9999C18.509 11.9999 17.5566 11.581 17 10.8911C16.4434 11.581 15.491 11.9999 14.5 11.9999C13.509 11.9999 12.5566 11.581 12 10.8911C11.4434 11.581 10.491 11.9999 9.5 11.9999C8.50903 11.9999 7.55661 11.581 7 10.8911C6.44339 11.581 5.49097 11.9999 4.5 11.9999C4.32938 11.9999 4.16237 11.9844 4 11.955V17.5999C4 18.3782 4.00039 18.9319 4.03581 19.3654C4.07075 19.793 4.13727 20.0595 4.24524 20.2714C4.46095 20.6947 4.80516 21.0389 5.22852 21.2546C5.44042 21.3626 5.70687 21.4291 6.13452 21.4641C6.56801 21.4995 7.12168 21.4999 7.9 21.4999H9V17.0806C8.99999 16.8171 8.99998 16.5897 9.01528 16.4024C9.03144 16.2047 9.06709 16.0081 9.16349 15.8189C9.3073 15.5367 9.53677 15.3072 9.81901 15.1634C10.0082 15.067 10.2048 15.0313 10.4025 15.0152C10.5898 14.9999 10.8172 14.9999 11.0807 14.9999H12.9193C13.1828 14.9999 13.4102 14.9999 13.5975 15.0152C13.7952 15.0313 13.9918 15.067 14.181 15.1634C14.4632 15.3072 14.6927 15.5367 14.8365 15.8189C14.9329 16.0081 14.9686 16.2047 14.9847 16.4024C15 16.5897 15 16.8171 15 17.0806V21.4999H16.1C16.8783 21.4999 17.432 21.4995 17.8655 21.4641C18.2931 21.4291 18.5596 21.3626 18.7715 21.2546C19.1948 21.0389 19.5391 20.6947 19.7548 20.2714C19.8627 20.0595 19.9293 19.793 19.9642 19.3654C19.9996 18.9319 20 18.3782 20 17.5999V11.955ZM9.5 10.9999C8.28555 10.9999 7.5 10.23 7.5 9.49993C7.5 9.22379 7.27614 8.99993 7 8.99993C6.72386 8.99993 6.5 9.22379 6.5 9.49993C6.5 10.23 5.71445 10.9999 4.5 10.9999C3.412 10.9999 2.5 9.99066 2.5 8.99993C2.5 8.37666 2.57644 7.75573 2.72761 7.15106L3.40293 4.44975C3.60672 3.63462 3.68422 3.35618 3.8244 3.15172C3.99931 2.89661 4.24881 2.70181 4.53872 2.594C4.77107 2.50759 5.05999 2.49993 5.90022 2.49993H18.0998C18.94 2.49993 19.2289 2.50759 19.4613 2.594C19.7512 2.70181 20.0007 2.89661 20.1756 3.15172C20.3158 3.35618 20.3933 3.63462 20.5971 4.44975L21.2724 7.15106C21.4236 7.75573 21.5 8.37666 21.5 8.99993C21.5 9.99066 20.588 10.9999 19.5 10.9999C18.2855 10.9999 17.5 10.23 17.5 9.49993C17.5 9.22379 17.2761 8.99993 17 8.99993C16.7239 8.99993 16.5 9.22379 16.5 9.49993C16.5 10.23 15.7145 10.9999 14.5 10.9999C13.2855 10.9999 12.5 10.23 12.5 9.49993C12.5 9.22379 12.2761 8.99993 12 8.99993C11.7239 8.99993 11.5 9.22379 11.5 9.49993C11.5 10.23 10.7145 10.9999 9.5 10.9999ZM14 17.0999V21.4999H10V17.0999C10 16.8116 10.0004 16.6255 10.012 16.4838C10.0231 16.348 10.0419 16.2976 10.0545 16.2729C10.1024 16.1788 10.1789 16.1023 10.273 16.0544C10.2977 16.0418 10.3481 16.023 10.4839 16.0119C10.6256 16.0003 10.8117 15.9999 11.1 15.9999H12.9C13.1883 15.9999 13.3744 16.0003 13.5161 16.0119C13.6519 16.023 13.7023 16.0418 13.727 16.0544C13.8211 16.1023 13.8976 16.1788 13.9455 16.2729C13.9581 16.2976 13.9769 16.348 13.988 16.4838C13.9996 16.6255 14 16.8116 14 17.0999Z" fill="#000"/>
</svg>
