<svg width="24" height="24" viewBox="0 0 24 24" fill="none" xmlns="http://www.w3.org/2000/svg">
<path d="M5.5 11.5C5.5 11.2239 5.72386 11 6 11H13C13.2761 11 13.5 11.2239 13.5 11.5C13.5 11.7761 13.2761 12 13 12H6C5.72386 12 5.5 11.7761 5.5 11.5Z" fill="#000"/>
<path d="M15 11.5C15 11.2239 15.2239 11 15.5 11H18C18.2761 11 18.5 11.2239 18.5 11.5C18.5 11.7761 18.2761 12 18 12H15.5C15.2239 12 15 11.7761 15 11.5Z" fill="#000"/>
<path d="M18 15C18.2761 15 18.5 15.2239 18.5 15.5C18.5 15.7761 18.2761 16 18 16H11C10.7239 16 10.5 15.7761 10.5 15.5C10.5 15.2239 10.7239 15 11 15H18Z" fill="#000"/>
<path d="M8.5 15C8.77614 15 9 15.2239 9 15.5C9 15.7761 8.77614 16 8.5 16H6C5.72386 16 5.5 15.7761 5.5 15.5C5.5 15.2239 5.72386 15 6 15H8.5Z" fill="#000"/>
<path fill-rule="evenodd" clip-rule="evenodd" d="M7.07755 3.5H16.9224C17.8835 3.5 18.6355 3.49999 19.2395 3.54935C19.8541 3.59956 20.3594 3.70334 20.816 3.93597C21.5686 4.31947 22.1805 4.93139 22.564 5.68404C22.7967 6.14062 22.9004 6.64594 22.9507 7.26049C23 7.86453 23 8.61651 23 9.57765V14.4223C23 15.3835 23 16.1355 22.9507 16.7395C22.9004 17.3541 22.7967 17.8594 22.564 18.316C22.1805 19.0686 21.5686 19.6805 20.816 20.064C20.3594 20.2967 19.8541 20.4004 19.2395 20.4507C18.6355 20.5 17.8835 20.5 16.9225 20.5H7.07754C6.11646 20.5 5.36451 20.5 4.76049 20.4507C4.14594 20.4004 3.64062 20.2967 3.18404 20.064C2.43139 19.6805 1.81947 19.0686 1.43597 18.316C1.20334 17.8594 1.09956 17.3541 1.04935 16.7395C0.999995 16.1355 0.999997 15.3835 1 14.4225V9.57756C0.999997 8.61647 0.999995 7.86451 1.04935 7.26049C1.09956 6.64594 1.20334 6.14062 1.43597 5.68404C1.81947 4.93139 2.43139 4.31947 3.18404 3.93597C3.64062 3.70334 4.14594 3.59956 4.76049 3.54935C5.36451 3.49999 6.11647 3.5 7.07755 3.5ZM4.84192 4.54602C4.28921 4.59118 3.93014 4.67814 3.63803 4.82698C3.07354 5.1146 2.6146 5.57354 2.32698 6.13803C2.17814 6.43014 2.09118 6.78921 2.04602 7.34192C2.00039 7.90047 2 8.61166 2 9.6V14.4C2 15.3883 2.00039 16.0995 2.04602 16.6581C2.09118 17.2108 2.17814 17.5699 2.32698 17.862C2.6146 18.4265 3.07354 18.8854 3.63803 19.173C3.93014 19.3219 4.28921 19.4088 4.84192 19.454C5.40047 19.4996 6.11166 19.5 7.1 19.5H16.9C17.8883 19.5 18.5995 19.4996 19.1581 19.454C19.7108 19.4088 20.0699 19.3219 20.362 19.173C20.9265 18.8854 21.3854 18.4265 21.673 17.862C21.8219 17.5699 21.9088 17.2108 21.954 16.6581C21.9996 16.0995 22 15.3883 22 14.4V9.6C22 8.61166 21.9996 7.90047 21.954 7.34192C21.9088 6.78921 21.8219 6.43014 21.673 6.13803C21.3854 5.57354 20.9265 5.1146 20.362 4.82698C20.0699 4.67814 19.7108 4.59118 19.1581 4.54602C18.5995 4.50039 17.8883 4.5 16.9 4.5H7.1C6.11166 4.5 5.40047 4.50039 4.84192 4.54602Z" fill="#000"/>
</svg>
