<svg width="24" height="24" viewBox="0 0 24 24" fill="none" xmlns="http://www.w3.org/2000/svg">
<path d="M11.5 4.5C11.5 4.77614 11.7239 5 12 5C12.2761 5 12.5 4.77614 12.5 4.5V2C12.5 1.72386 12.2761 1.5 12 1.5C11.7239 1.5 11.5 1.72386 11.5 2V4.5Z" fill="#000"/>
<path fill-rule="evenodd" clip-rule="evenodd" d="M12 7C9.23858 7 7 9.23858 7 12C7 14.7614 9.23858 17 12 17C14.7614 17 17 14.7614 17 12C17 9.23858 14.7614 7 12 7ZM8 12C8 9.79086 9.79086 8 12 8C14.2091 8 16 9.79086 16 12C16 14.2091 14.2091 16 12 16C9.79086 16 8 14.2091 8 12Z" fill="#000"/>
<path d="M22 12.5C22.2761 12.5 22.5 12.2761 22.5 12C22.5 11.7239 22.2761 11.5 22 11.5H19.5C19.2239 11.5 19 11.7239 19 12C19 12.2761 19.2239 12.5 19.5 12.5H22Z" fill="#000"/>
<path d="M1.5 12C1.5 12.2761 1.72386 12.5 2 12.5H4.5C4.77614 12.5 5 12.2761 5 12C5 11.7239 4.77614 11.5 4.5 11.5H2C1.72386 11.5 1.5 11.7239 1.5 12Z" fill="#000"/>
<path d="M12 22.5C11.7239 22.5 11.5 22.2761 11.5 22V19.5C11.5 19.2239 11.7239 19 12 19C12.2761 19 12.5 19.2239 12.5 19.5V22C12.5 22.2761 12.2761 22.5 12 22.5Z" fill="#000"/>
<path d="M19.4246 5.28251C19.6199 5.08725 19.6199 4.77066 19.4246 4.5754C19.2294 4.38014 18.9128 4.38014 18.7175 4.5754L16.9497 6.34317C16.7545 6.53843 16.7545 6.85501 16.9497 7.05028C17.145 7.24554 17.4616 7.24554 17.6568 7.05028L19.4246 5.28251Z" fill="#000"/>
<path d="M5.28248 4.5754C5.08722 4.38014 4.77063 4.38014 4.57537 4.5754C4.38011 4.77066 4.38011 5.08725 4.57537 5.28251L6.34314 7.05028C6.5384 7.24554 6.85498 7.24554 7.05025 7.05028C7.24551 6.85501 7.24551 6.53843 7.05025 6.34317L5.28248 4.5754Z" fill="#000"/>
<path d="M7.05025 17.6569C7.24551 17.4616 7.24551 17.145 7.05025 16.9498C6.85498 16.7545 6.5384 16.7545 6.34314 16.9498L4.57537 18.7175C4.38011 18.9128 4.38011 19.2294 4.57537 19.4246C4.77063 19.6199 5.08722 19.6199 5.28248 19.4246L7.05025 17.6569Z" fill="#000"/>
<path d="M17.6568 16.9498C17.4616 16.7545 17.145 16.7545 16.9497 16.9498C16.7545 17.145 16.7545 17.4616 16.9497 17.6569L18.7175 19.4246C18.9128 19.6199 19.2294 19.6199 19.4246 19.4246C19.6199 19.2294 19.6199 18.9128 19.4246 18.7175L17.6568 16.9498Z" fill="#000"/>
</svg>
