<svg width="24" height="24" viewBox="0 0 24 24" fill="none" xmlns="http://www.w3.org/2000/svg">
<path d="M11.5 4.49997C11.5 4.77611 11.7239 4.99997 12 4.99997C12.2761 4.99997 12.5 4.77611 12.5 4.49997V1.99997C12.5 1.72383 12.2761 1.49997 12 1.49997C11.7239 1.49997 11.5 1.72383 11.5 1.99997V4.49997Z" fill="#000"/>
<path fill-rule="evenodd" clip-rule="evenodd" d="M12 6.99997C9.23858 6.99997 7 9.23855 7 12C7 14.7614 9.23858 17 12 17C14.7614 17 17 14.7614 17 12C17 9.23855 14.7614 6.99997 12 6.99997ZM8 12C8 9.79083 9.79086 7.99997 12 7.99997C14.2091 7.99997 16 9.79083 16 12C16 14.2091 14.2091 16 12 16C9.79086 16 8 14.2091 8 12Z" fill="#000"/>
<path d="M22 12.5C22.2761 12.5 22.5 12.2761 22.5 12C22.5 11.7238 22.2761 11.5 22 11.5H19.5C19.2239 11.5 19 11.7238 19 12C19 12.2761 19.2239 12.5 19.5 12.5H22Z" fill="#000"/>
<path d="M1.5 12C1.5 12.2761 1.72386 12.5 2 12.5H4.5C4.77614 12.5 5 12.2761 5 12C5 11.7238 4.77614 11.5 4.5 11.5H2C1.72386 11.5 1.5 11.7238 1.5 12Z" fill="#000"/>
<path d="M12 22.5C11.7239 22.5 11.5 22.2761 11.5 22V19.5C11.5 19.2238 11.7239 19 12 19C12.2761 19 12.5 19.2238 12.5 19.5V22C12.5 22.2761 12.2761 22.5 12 22.5Z" fill="#000"/>
<path d="M19.4246 5.28248C19.6199 5.08722 19.6199 4.77063 19.4246 4.57537C19.2294 4.38011 18.9128 4.38011 18.7175 4.57537L16.9497 6.34314C16.7545 6.5384 16.7545 6.85498 16.9497 7.05025C17.145 7.24551 17.4616 7.24551 17.6568 7.05025L19.4246 5.28248Z" fill="#000"/>
<path d="M5.28248 4.57537C5.08722 4.38011 4.77063 4.38011 4.57537 4.57537C4.38011 4.77063 4.38011 5.08722 4.57537 5.28248L6.34314 7.05025C6.5384 7.24551 6.85498 7.24551 7.05025 7.05025C7.24551 6.85498 7.24551 6.5384 7.05025 6.34314L5.28248 4.57537Z" fill="#000"/>
<path d="M7.05025 17.6568C7.24551 17.4616 7.24551 17.145 7.05025 16.9497C6.85498 16.7545 6.5384 16.7545 6.34314 16.9497L4.57537 18.7175C4.38011 18.9128 4.38011 19.2294 4.57537 19.4246C4.77063 19.6199 5.08722 19.6199 5.28248 19.4246L7.05025 17.6568Z" fill="#000"/>
<path d="M17.6568 16.9497C17.4616 16.7545 17.145 16.7545 16.9497 16.9497C16.7545 17.145 16.7545 17.4616 16.9497 17.6568L18.7175 19.4246C18.9128 19.6199 19.2294 19.6199 19.4246 19.4246C19.6199 19.2294 19.6199 18.9128 19.4246 18.7175L17.6568 16.9497Z" fill="#000"/>
</svg>
