<svg width="24" height="24" viewBox="0 0 24 24" fill="none" xmlns="http://www.w3.org/2000/svg">
<path fill-rule="evenodd" clip-rule="evenodd" d="M19.0001 7.24988C19.0001 6.00724 17.9927 4.99988 16.7501 4.99988C15.5075 4.99988 14.5001 6.00724 14.5001 7.24988C14.5001 8.49252 15.5075 9.49988 16.7501 9.49988C17.9927 9.49988 19.0001 8.49252 19.0001 7.24988ZM16.7501 5.99988C17.4404 5.99988 18.0001 6.55952 18.0001 7.24988C18.0001 7.94023 17.4404 8.49988 16.7501 8.49988C16.0597 8.49988 15.5001 7.94023 15.5001 7.24988C15.5001 6.55952 16.0597 5.99988 16.7501 5.99988Z" fill="#000"/>
<path fill-rule="evenodd" clip-rule="evenodd" d="M21.1334 1.77355C20.837 1.62275 20.5166 1.56008 20.1519 1.53062C19.7976 1.502 19.3602 1.50242 18.8178 1.50294L13.7723 1.50774C12.9815 1.50841 12.4988 1.50881 12.0388 1.61952C11.6314 1.71754 11.242 1.87897 10.8847 2.09788C10.4813 2.34509 10.1399 2.68624 9.5805 3.24526L4.14228 8.67858C3.4624 9.35785 2.93046 9.88931 2.53805 10.3511C2.13879 10.821 1.85467 11.2515 1.6961 11.7388C1.4347 12.5421 1.4343 13.4074 1.69495 14.2109C1.85307 14.6983 2.13679 15.1292 2.53561 15.5994C2.92759 16.0616 3.45902 16.5935 4.13826 17.2734L6.71986 19.8575C7.39911 20.5374 7.93056 21.0693 8.39237 21.4617C8.86225 21.861 9.29282 22.1452 9.7801 22.3037C10.5834 22.5652 11.4488 22.5656 12.2523 22.3049C12.7397 22.1468 13.1705 21.863 13.6408 21.4642C14.103 21.0722 14.635 20.5407 15.3149 19.8613L20.7586 14.4225C21.3196 13.8622 21.6619 13.5202 21.9099 13.1159C22.1294 12.7579 22.2912 12.3675 22.3893 11.9591C22.5001 11.4979 22.5001 11.0141 22.5 10.2212L22.4999 5.18165C22.4999 4.63923 22.4999 4.20175 22.471 3.84751C22.4412 3.48282 22.3782 3.1625 22.2271 2.8662C21.9872 2.39558 21.6043 2.01306 21.1334 1.77355ZM18.7974 2.50296C19.3662 2.50242 19.7627 2.50243 20.0714 2.52737C20.3742 2.55183 20.5482 2.59781 20.68 2.66486C20.9625 2.80856 21.1923 3.03807 21.3363 3.32045C21.4034 3.45218 21.4496 3.62614 21.4743 3.92898C21.4995 4.23766 21.4999 4.63416 21.4999 5.20295L21.5 10.1544C21.5 11.0348 21.4968 11.3935 21.417 11.7256C21.3434 12.0318 21.2221 12.3246 21.0574 12.5931C20.8789 12.8843 20.6274 13.14 20.0046 13.7623L14.624 19.1381C13.9248 19.8367 13.4214 20.339 12.994 20.7015C12.571 21.0603 12.2555 21.2525 11.9437 21.3537C11.3411 21.5492 10.692 21.5489 10.0896 21.3528C9.77781 21.2514 9.4625 21.0588 9.03991 20.6997C8.61285 20.3368 8.10992 19.834 7.41137 19.1347L4.8616 16.5825C4.16309 15.8834 3.66073 15.38 3.29826 14.9526C2.93957 14.5297 2.74731 14.2142 2.64615 13.9023C2.45066 13.2997 2.45097 12.6507 2.64701 12.0483C2.74846 11.7365 2.94102 11.4212 3.30009 10.9986C3.66296 10.5716 4.16579 10.0687 4.86495 9.37014L10.2401 3.9998C10.8614 3.37912 11.1167 3.12854 11.4072 2.95053C11.6752 2.78635 11.9672 2.66528 12.2728 2.59176C12.604 2.51205 12.9617 2.50851 13.8399 2.50768L18.7974 2.50296Z" fill="#000"/>
</svg>
