<svg width="24" height="24" viewBox="0 0 24 24" fill="none" xmlns="http://www.w3.org/2000/svg">
<path d="M7.14645 7.64645C7.34171 7.45118 7.65829 7.45118 7.85355 7.64645L11.8536 11.6464C12.0488 11.8417 12.0488 12.1583 11.8536 12.3536L7.85355 16.3536C7.65829 16.5488 7.34171 16.5488 7.14645 16.3536C6.95118 16.1583 6.95118 15.8417 7.14645 15.6464L10.7929 12L7.14645 8.35355C6.95118 8.15829 6.95118 7.84171 7.14645 7.64645Z" fill="#000"/>
<path d="M11.5 15.5C11.2239 15.5 11 15.7239 11 16C11 16.2761 11.2239 16.5 11.5 16.5H16.5C16.7761 16.5 17 16.2761 17 16C17 15.7239 16.7761 15.5 16.5 15.5H11.5Z" fill="#000"/>
<path fill-rule="evenodd" clip-rule="evenodd" d="M8.37737 1.5H15.6226C16.7236 1.5 17.5805 1.5 18.2679 1.55616C18.9658 1.61318 19.5329 1.73058 20.043 1.99047C20.8897 2.4219 21.5781 3.11031 22.0095 3.95704C22.2694 4.4671 22.3868 5.03416 22.4438 5.73209C22.5 6.41947 22.5 7.27638 22.5 8.37731V15.6226C22.5 16.7236 22.5 17.5805 22.4438 18.2679C22.3868 18.9658 22.2694 19.5329 22.0095 20.043C21.5781 20.8897 20.8897 21.5781 20.043 22.0095C19.5329 22.2694 18.9658 22.3868 18.2679 22.4438C17.5805 22.5 16.7236 22.5 15.6226 22.5H8.37747C7.27649 22.5 6.41949 22.5 5.73209 22.4438C5.03416 22.3868 4.4671 22.2694 3.95704 22.0095C3.11031 21.5781 2.4219 20.8897 1.99047 20.043C1.73058 19.5329 1.61318 18.9658 1.55616 18.2679C1.5 17.5805 1.5 16.7236 1.5 15.6226V8.37737C1.5 7.27642 1.5 6.41948 1.55616 5.73209C1.61318 5.03416 1.73058 4.4671 1.99047 3.95704C2.4219 3.11031 3.11031 2.4219 3.95704 1.99047C4.4671 1.73058 5.03416 1.61318 5.73209 1.55616C6.41948 1.5 7.27642 1.5 8.37737 1.5ZM5.81352 2.55284C5.17744 2.60481 4.75662 2.70539 4.41103 2.88148C3.75247 3.21703 3.21703 3.75247 2.88148 4.41103C2.70539 4.75662 2.60481 5.17744 2.55284 5.81352C2.50039 6.45545 2.5 7.27164 2.5 8.4V15.6C2.5 16.7284 2.50039 17.5446 2.55284 18.1865C2.60481 18.8226 2.70539 19.2434 2.88148 19.589C3.21703 20.2475 3.75247 20.783 4.41103 21.1185C4.75662 21.2946 5.17744 21.3952 5.81352 21.4472C6.45545 21.4996 7.27164 21.5 8.4 21.5H15.6C16.7284 21.5 17.5446 21.4996 18.1865 21.4472C18.8226 21.3952 19.2434 21.2946 19.589 21.1185C20.2475 20.783 20.783 20.2475 21.1185 19.589C21.2946 19.2434 21.3952 18.8226 21.4472 18.1865C21.4996 17.5446 21.5 16.7284 21.5 15.6V8.4C21.5 7.27164 21.4996 6.45545 21.4472 5.81352C21.3952 5.17744 21.2946 4.75662 21.1185 4.41103C20.783 3.75247 20.2475 3.21703 19.589 2.88148C19.2434 2.70539 18.8226 2.60481 18.1865 2.55284C17.5446 2.50039 16.7284 2.5 15.6 2.5H8.4C7.27164 2.5 6.45545 2.50039 5.81352 2.55284Z" fill="#000"/>
</svg>
