<svg width="24" height="24" viewBox="0 0 24 24" fill="none" xmlns="http://www.w3.org/2000/svg">
<path fill-rule="evenodd" clip-rule="evenodd" d="M7.3825 9.8414L11.8168 2.1823C12.0613 1.75999 12.5127 1.50048 13.0006 1.50171C14.6262 1.50123 15.88 2.93286 15.6652 4.54426L15.0711 8.99939H17.7129C18.535 8.99939 19.1851 8.99939 19.7018 9.04465C20.2277 9.09072 20.6713 9.1871 21.0585 9.41551C21.6771 9.78043 22.1442 10.3552 22.3751 11.0353C22.5195 11.461 22.5232 11.9149 22.4608 12.4392C22.3996 12.9542 22.2667 13.5905 22.0987 14.3953L21.4158 17.6665C21.2534 18.4444 21.1259 19.0551 20.9854 19.5443C20.842 20.0435 20.6764 20.4496 20.4216 20.81C19.9986 21.4083 19.4195 21.8789 18.7473 22.1705C18.3424 22.3461 17.9111 22.4252 17.393 22.4634C16.8855 22.5009 16.2616 22.5007 15.4669 22.5005L14.7308 22.5003C13.3646 22.5 12.6284 22.4999 11.9043 22.3984C11.2613 22.3083 10.6281 22.1587 10.0128 21.9516C9.32394 21.7198 8.66919 21.3931 7.46117 20.7891C7.43296 21.0086 7.38161 21.2142 7.28201 21.4097C7.09027 21.786 6.78431 22.092 6.40798 22.2837C6.16531 22.4074 5.90696 22.4566 5.62591 22.4796C5.35533 22.5017 5.02317 22.5017 4.62072 22.5017H4.37934C3.97688 22.5017 3.64467 22.5017 3.37409 22.4796C3.09304 22.4566 2.83469 22.4074 2.59202 22.2837C2.2157 22.092 1.90973 21.786 1.71799 21.4097C1.59434 21.167 1.54506 20.9087 1.5221 20.6276C1.49999 20.357 1.49999 20.0248 1.5 19.6224V11.3811C1.49999 10.9786 1.49999 10.6464 1.5221 10.3758C1.54506 10.0947 1.59434 9.8364 1.71799 9.59373C1.90973 9.2174 2.2157 8.91144 2.59202 8.7197C2.83469 8.59605 3.09304 8.54677 3.37409 8.52381C3.64468 8.5017 3.97686 8.5017 4.37934 8.50171H4.62065C5.02313 8.5017 5.35532 8.5017 5.62591 8.52381C5.90696 8.54677 6.16531 8.59605 6.40798 8.7197C6.78431 8.91144 7.09027 9.2174 7.28201 9.59373C7.32315 9.67447 7.35606 9.75694 7.3825 9.8414ZM12.6822 2.68334C12.7475 2.57056 12.8681 2.50129 12.9984 2.50171L13 2.00171L13.0003 2.50171C14.0213 2.50106 14.8089 3.40011 14.6739 4.41208L14.0044 9.43331C13.9853 9.57617 14.0289 9.72031 14.1238 9.82876C14.2187 9.9372 14.3559 9.9994 14.5 9.9994H17.6887C18.5404 9.9994 19.1466 9.99985 19.6145 10.0408C20.0782 10.0814 20.3498 10.1585 20.5504 10.2768C20.9628 10.5201 21.2742 10.9032 21.4281 11.3567C21.503 11.5772 21.5228 11.8589 21.4678 12.321C21.4123 12.7874 21.2889 13.3809 21.1148 14.2146L20.4409 17.4427C20.2736 18.2442 20.1534 18.8188 20.0243 19.2682C19.8969 19.7116 19.7699 19.9995 19.605 20.2327C19.2878 20.6814 18.8535 21.0344 18.3493 21.2531C18.0874 21.3667 17.7796 21.4322 17.3195 21.4661C16.8531 21.5005 16.2661 21.5007 15.4474 21.5005L14.7752 21.5004C13.3539 21.5 12.6902 21.4988 12.0431 21.4081C11.4614 21.3265 10.8885 21.1912 10.3317 21.0038C9.71241 20.7954 9.11828 20.4996 7.84706 19.864L7.5 19.6905V19.6682C7.5 19.653 7.5 19.6377 7.5 19.6223L7.5 11.6343L12.6822 2.68334ZM6.5 11.4993V11.4017C6.5 10.9734 6.49961 10.6823 6.48122 10.4572C6.46331 10.238 6.43085 10.1259 6.39101 10.0477C6.29513 9.85956 6.14215 9.70658 5.95399 9.6107C5.87579 9.57086 5.76369 9.53839 5.54448 9.52048C5.31944 9.5021 5.02829 9.50171 4.6 9.50171H4.4C3.97171 9.50171 3.68056 9.5021 3.45552 9.52048C3.23631 9.53839 3.12421 9.57086 3.04601 9.6107C2.85785 9.70658 2.70487 9.85956 2.60899 10.0477C2.56915 10.1259 2.53669 10.238 2.51878 10.4572C2.50039 10.6823 2.5 10.9734 2.5 11.4017V19.6017C2.5 20.03 2.50039 20.3211 2.51878 20.5462C2.53669 20.7654 2.56915 20.8775 2.60899 20.9557C2.70487 21.1439 2.85785 21.2968 3.04601 21.3927C3.12421 21.4326 3.23631 21.465 3.45552 21.4829C3.68056 21.5013 3.97171 21.5017 4.4 21.5017H4.6C5.02829 21.5017 5.31944 21.5013 5.54448 21.4829C5.76369 21.465 5.87579 21.4326 5.95399 21.3927C6.14215 21.2968 6.29513 21.1439 6.39101 20.9557C6.43085 20.8775 6.46331 20.7654 6.48122 20.5462C6.49928 20.3252 6.49998 20.0404 6.5 19.6246C6.5 19.617 6.5 19.6094 6.5 19.6017V11.4993C6.5 11.4995 6.5 11.4991 6.5 11.4993Z" fill="#000"/>
</svg>
