<svg width="24" height="24" viewBox="0 0 24 24" fill="none" xmlns="http://www.w3.org/2000/svg">
<path fill-rule="evenodd" clip-rule="evenodd" d="M7.3825 14.1603L11.8168 21.8194C12.0613 22.2417 12.5127 22.5012 13.0006 22.5C14.6262 22.5005 15.88 21.0689 15.6652 19.4575L15.0711 15.0023H17.7129C18.535 15.0023 19.1851 15.0023 19.7018 14.9571C20.2277 14.911 20.6713 14.8146 21.0585 14.5862C21.6771 14.2213 22.1442 13.6465 22.3751 12.9664C22.5195 12.5407 22.5232 12.0868 22.4608 11.5625C22.3996 11.0475 22.2667 10.4112 22.0987 9.6064L21.4158 6.33517C21.2534 5.55734 21.1259 4.94659 20.9854 4.45744C20.842 3.95816 20.6764 3.55213 20.4216 3.19173C19.9986 2.59346 19.4195 2.12284 18.7473 1.83124C18.3424 1.65558 17.9111 1.57649 17.393 1.53828C16.8855 1.50085 16.2616 1.501 15.4669 1.50119L14.7308 1.50136C13.3646 1.50167 12.6284 1.50184 11.9043 1.60333C11.2613 1.69345 10.6281 1.84301 10.0128 2.05009C9.32394 2.28191 8.66919 2.60862 7.46117 3.21264C7.43296 2.99315 7.38161 2.78749 7.28201 2.59202C7.09027 2.21569 6.78431 1.90973 6.40798 1.71799C6.16531 1.59434 5.90696 1.54506 5.62591 1.5221C5.35533 1.49999 5.02317 1.49999 4.62072 1.5H4.37934C3.97688 1.49999 3.64467 1.49999 3.37409 1.5221C3.09304 1.54506 2.83469 1.59434 2.59202 1.71799C2.2157 1.90973 1.90973 2.21569 1.71799 2.59202C1.59434 2.83469 1.54506 3.09304 1.5221 3.37409C1.49999 3.64469 1.49999 3.97687 1.5 4.37935V12.6206C1.49999 13.0231 1.49999 13.3553 1.5221 13.6259C1.54506 13.907 1.59434 14.1653 1.71799 14.408C1.90973 14.7843 2.2157 15.0903 2.59202 15.282C2.83469 15.4057 3.09304 15.4549 3.37409 15.4779C3.64468 15.5 3.97686 15.5 4.37934 15.5H4.62065C5.02313 15.5 5.35532 15.5 5.62591 15.4779C5.90696 15.4549 6.16531 15.4057 6.40798 15.282C6.78431 15.0903 7.09027 14.7843 7.28201 14.408C7.32315 14.3272 7.35606 14.2448 7.3825 14.1603ZM12.6822 21.3184C12.7475 21.4311 12.8681 21.5004 12.9984 21.5L13 22L13.0003 21.5C14.0213 21.5007 14.8089 20.6016 14.6739 19.5896L14.0044 14.5684C13.9853 14.4255 14.0289 14.2814 14.1238 14.173C14.2187 14.0645 14.3559 14.0023 14.5 14.0023H17.6887C18.5404 14.0023 19.1466 14.0019 19.6145 13.9609C20.0782 13.9203 20.3498 13.8433 20.5504 13.7249C20.9628 13.4816 21.2742 13.0985 21.4281 12.645C21.503 12.4245 21.5228 12.1429 21.4678 11.6807C21.4123 11.2143 21.2889 10.6208 21.1148 9.78706L20.4409 6.55897C20.2736 5.75751 20.1534 5.18293 20.0243 4.73347C19.8969 4.29008 19.7699 4.00218 19.605 3.769C19.2878 3.32029 18.8535 2.96733 18.3493 2.74863C18.0874 2.63497 17.7796 2.5695 17.3195 2.53557C16.8531 2.50118 16.2661 2.501 15.4474 2.50119L14.7752 2.50135C13.3539 2.50168 12.6902 2.50295 12.0431 2.59365C11.4614 2.67519 10.8885 2.81051 10.3317 2.99786C9.71241 3.20629 9.11828 3.50212 7.84706 4.13773L7.5 4.31126V4.3335C7.5 4.34869 7.5 4.36397 7.5 4.37936L7.5 12.3674L12.6822 21.3184ZM6.5 12.5024V12.6C6.5 13.0283 6.49961 13.3194 6.48122 13.5445C6.46331 13.7637 6.43085 13.8758 6.39101 13.954C6.29513 14.1422 6.14215 14.2951 5.95399 14.391C5.87579 14.4309 5.76369 14.4633 5.54448 14.4812C5.31944 14.4996 5.02829 14.5 4.6 14.5H4.4C3.97171 14.5 3.68056 14.4996 3.45552 14.4812C3.23631 14.4633 3.12421 14.4309 3.04601 14.391C2.85785 14.2951 2.70487 14.1422 2.60899 13.954C2.56915 13.8758 2.53669 13.7637 2.51878 13.5445C2.50039 13.3194 2.5 13.0283 2.5 12.6V4.4C2.5 3.97171 2.50039 3.68057 2.51878 3.45552C2.53669 3.23631 2.56915 3.12421 2.60899 3.04601C2.70487 2.85785 2.85785 2.70487 3.04601 2.60899C3.12421 2.56915 3.23631 2.53669 3.45552 2.51878C3.68056 2.50039 3.97171 2.5 4.4 2.5H4.6C5.02829 2.5 5.31944 2.50039 5.54448 2.51878C5.76369 2.53669 5.87579 2.56915 5.95399 2.60899C6.14215 2.70487 6.29513 2.85785 6.39101 3.04601C6.43085 3.12421 6.46331 3.23631 6.48122 3.45552C6.49928 3.67653 6.49998 3.96129 6.5 4.37708C6.5 4.38468 6.5 4.39232 6.5 4.4V12.5024C6.5 12.5026 6.5 12.5022 6.5 12.5024Z" fill="#000"/>
</svg>
