<svg width="24" height="24" viewBox="0 0 24 24" fill="none" xmlns="http://www.w3.org/2000/svg">
<path d="M15.5 10C15.5 9.72386 15.2761 9.5 15 9.5C14.7239 9.5 14.5 9.72386 14.5 10V14C14.5 14.2761 14.7239 14.5 15 14.5C15.2761 14.5 15.5 14.2761 15.5 14V10Z" fill="#000"/>
<path fill-rule="evenodd" clip-rule="evenodd" d="M7.07755 3C6.11647 3 5.36451 2.99999 4.76049 3.04935C4.14594 3.09956 3.64062 3.20334 3.18404 3.43597C2.43139 3.81947 1.81947 4.43139 1.43597 5.18404C1.20334 5.64062 1.09956 6.14594 1.04935 6.76049C0.999995 7.36451 0.999997 8.11646 1 9.07755V9.26121C1 9.51996 1.19742 9.73597 1.45512 9.75919C2.60138 9.86249 3.5 10.8266 3.5 12C3.5 13.1734 2.60138 14.1375 1.45512 14.2408C1.19742 14.264 1 14.48 1 14.7388V14.9224C0.999997 15.8835 0.999995 16.6355 1.04935 17.2395C1.09956 17.8541 1.20334 18.3594 1.43597 18.816C1.81947 19.5686 2.43139 20.1805 3.18404 20.564C3.64062 20.7967 4.14594 20.9004 4.76049 20.9507C5.36451 21 6.11646 21 7.07754 21H16.9225C17.8835 21 18.6355 21 19.2395 20.9507C19.8541 20.9004 20.3594 20.7967 20.816 20.564C21.5686 20.1805 22.1805 19.5686 22.564 18.816C22.7967 18.3594 22.9004 17.8541 22.9507 17.2395C23 16.6355 23 15.8835 23 14.9225V14.7388C23 14.48 22.8026 14.264 22.5449 14.2408C21.3986 14.1375 20.5 13.1734 20.5 12C20.5 10.8266 21.3986 9.86249 22.5449 9.75919C22.8026 9.73597 23 9.51996 23 9.26121V9.07754C23 8.11646 23 7.36451 22.9507 6.76049C22.9004 6.14594 22.7967 5.64062 22.564 5.18404C22.1805 4.43139 21.5686 3.81947 20.816 3.43597C20.3594 3.20334 19.8541 3.09956 19.2395 3.04935C18.6355 2.99999 17.8835 3 16.9225 3H7.07755ZM14.5 4V6.5C14.5 6.77614 14.7239 7 15 7C15.2761 7 15.5 6.77614 15.5 6.5V4H16.9C17.8883 4 18.5995 4.00039 19.1581 4.04602C19.7108 4.09118 20.0699 4.17814 20.362 4.32698C20.9265 4.6146 21.3854 5.07354 21.673 5.63803C21.8219 5.93014 21.9088 6.28921 21.954 6.84192C21.9955 7.34966 21.9996 7.98353 22 8.83707C20.5665 9.17582 19.5 10.4631 19.5 12C19.5 13.5369 20.5665 14.8242 22 15.1629C21.9996 16.0165 21.9955 16.6503 21.954 17.1581C21.9088 17.7108 21.8219 18.0699 21.673 18.362C21.3854 18.9265 20.9265 19.3854 20.362 19.673C20.0699 19.8219 19.7108 19.9088 19.1581 19.954C18.5995 19.9996 17.8883 20 16.9 20H15.5V17.5C15.5 17.2239 15.2761 17 15 17C14.7239 17 14.5 17.2239 14.5 17.5V20H7.1C6.11166 20 5.40047 19.9996 4.84192 19.954C4.28921 19.9088 3.93014 19.8219 3.63803 19.673C3.07354 19.3854 2.6146 18.9265 2.32698 18.362C2.17814 18.0699 2.09118 17.7108 2.04602 17.1581C2.00454 16.6503 2.00045 16.0165 2.00004 15.1629C3.43355 14.8242 4.5 13.5369 4.5 12C4.5 10.4631 3.43355 9.17582 2.00004 8.83707C2.00045 7.98353 2.00454 7.34966 2.04602 6.84192C2.09118 6.28921 2.17814 5.93014 2.32698 5.63803C2.6146 5.07354 3.07354 4.6146 3.63803 4.32698C3.93014 4.17814 4.28921 4.09118 4.84192 4.04602C5.40047 4.00039 6.11166 4 7.1 4H14.5Z" fill="#000"/>
</svg>
