<svg width="24" height="24" viewBox="0 0 24 24" fill="none" xmlns="http://www.w3.org/2000/svg">
<path d="M12 2.5C9.86077 2.5 7.88798 3.20648 6.30027 4.39907C5.65279 4.88541 4.92893 5.6069 4.29533 6.33867C3.94237 6.74632 3.62643 7.14673 3.37305 7.5H7.5C7.77614 7.5 8 7.72386 8 8C8 8.27614 7.77614 8.5 7.5 8.5H2.46716C2.46064 8.50013 2.45411 8.50013 2.44757 8.5H2C1.72386 8.5 1.5 8.27614 1.5 8V2.5C1.5 2.22386 1.72386 2 2 2C2.27614 2 2.5 2.22386 2.5 2.5V7.00222C2.78947 6.59147 3.14891 6.13501 3.53933 5.6841C4.19801 4.92335 4.97415 4.14448 5.69969 3.5995C7.45463 2.28131 9.6368 1.5 12 1.5C17.799 1.5 22.5 6.20101 22.5 12C22.5 17.799 17.799 22.5 12 22.5C7.29772 22.5 3.31862 19.4093 1.98078 15.1498C1.89804 14.8864 2.04453 14.6057 2.30798 14.523C2.57143 14.4402 2.85208 14.5867 2.93483 14.8502C4.14552 18.7049 7.747 21.5 12 21.5C17.2467 21.5 21.5 17.2467 21.5 12C21.5 6.75329 17.2467 2.5 12 2.5Z" fill="#000"/>
<path d="M12.5 7C12.5 6.72386 12.2761 6.5 12 6.5C11.7239 6.5 11.5 6.72386 11.5 7V12C11.5 12.1724 11.5888 12.3326 11.735 12.424L14.935 14.424C15.1692 14.5704 15.4776 14.4992 15.624 14.265C15.7704 14.0308 15.6992 13.7224 15.465 13.576L12.5 11.7229V7Z" fill="#000"/>
</svg>
