<svg width="24" height="24" viewBox="0 0 24 24" fill="none" xmlns="http://www.w3.org/2000/svg">
<path fill-rule="evenodd" clip-rule="evenodd" d="M10.2185 1.49996C9.81317 1.49972 9.50727 1.49954 9.22161 1.58629C8.97003 1.66269 8.73598 1.78795 8.53286 1.9549C8.30222 2.14446 8.13269 2.39909 7.90805 2.73648L7.29645 3.65392C7.01869 4.07056 6.93336 4.18938 6.83218 4.27254C6.73062 4.35601 6.6136 4.41864 6.48781 4.45684C6.36249 4.4949 6.2163 4.49999 5.71556 4.49999H5C4.99895 4.49999 4.99789 4.49999 4.99684 4.5H3C2.72386 4.5 2.5 4.72386 2.5 5C2.5 5.27614 2.72386 5.5 3 5.5L5.78149 5.50002C5.82207 5.50004 5.86166 5.50006 5.90033 5.5H18.0997C18.1383 5.50006 18.1779 5.50004 18.2185 5.50002L21 5.5C21.2761 5.5 21.5 5.27614 21.5 5C21.5 4.72386 21.2761 4.5 21 4.5H19.0032C19.0021 4.49999 19.0011 4.49999 19 4.49999H18.2844C17.7837 4.49999 17.6375 4.4949 17.5122 4.45684C17.3864 4.41864 17.2694 4.35601 17.1678 4.27254C17.0666 4.18938 16.9813 4.07056 16.7035 3.65392L16.092 2.73649C15.8673 2.39909 15.6978 2.14446 15.4671 1.9549C15.264 1.78795 15.03 1.66269 14.7784 1.58629C14.4927 1.49954 14.1868 1.49972 13.7815 1.49996H10.2185ZM16.0671 4.5C16.0163 4.4261 15.9639 4.34735 15.908 4.2635L15.2965 3.34606C15.0187 2.92942 14.9334 2.8106 14.8322 2.72744C14.7306 2.64397 14.6136 2.58134 14.4878 2.54314C14.3625 2.50508 14.2163 2.49999 13.7156 2.49999H10.2844C9.7837 2.49999 9.63751 2.50508 9.51219 2.54314C9.3864 2.58134 9.26938 2.64397 9.16782 2.72744C9.06664 2.8106 8.98131 2.92942 8.70355 3.34606L8.09195 4.2635C8.03612 4.34735 7.98369 4.4261 7.93288 4.5H16.0671Z" fill="#000"/>
<path d="M4.64726 7.50217C4.92221 7.47651 5.1659 7.6786 5.19155 7.95355L6.09155 17.5995C6.164 18.3759 6.21602 18.9296 6.29095 19.3628C6.36483 19.7899 6.45515 20.0605 6.58415 20.2775C6.83772 20.7041 7.21248 21.0455 7.66071 21.2583C7.88875 21.3666 8.1666 21.4314 8.59872 21.4653C9.03699 21.4996 9.59312 21.5 10.373 21.5H13.627C14.4068 21.5 14.963 21.4996 15.4012 21.4653C15.8333 21.4314 16.1112 21.3666 16.3392 21.2583C16.7875 21.0455 17.1622 20.7041 17.4158 20.2775C17.5448 20.0606 17.6351 19.7899 17.709 19.3628C17.7839 18.9296 17.8359 18.376 17.9084 17.5995L18.8085 7.95355C18.8341 7.6786 19.0778 7.47651 19.3527 7.50217C19.6277 7.52782 19.8298 7.77151 19.8041 8.04646L18.9021 17.7134C18.8321 18.4643 18.7768 19.0569 18.6944 19.5333C18.6101 20.0201 18.4919 20.4244 18.2754 20.7886C17.9204 21.3857 17.3957 21.8637 16.7682 22.1617C16.3855 22.3434 15.972 22.4236 15.4794 22.4622C14.9975 22.5 14.4022 22.5 13.6481 22.5H10.3519C9.59777 22.5 9.00247 22.5 8.52055 22.4622C8.02799 22.4236 7.61447 22.3434 7.23176 22.1617C6.60423 21.8637 6.07957 21.3857 5.72458 20.7885C5.50808 20.4244 5.3898 20.0201 5.30558 19.5333C5.22319 19.0569 5.16789 18.4642 5.09783 17.7133L4.19588 8.04645C4.17022 7.7715 4.37231 7.52782 4.64726 7.50217Z" fill="#000"/>
</svg>
