<svg width="24" height="24" viewBox="0 0 24 24" fill="none" xmlns="http://www.w3.org/2000/svg">
<path fill-rule="evenodd" clip-rule="evenodd" d="M10.2185 1.49996C9.81317 1.49972 9.50727 1.49954 9.22161 1.58629C8.97003 1.66269 8.73598 1.78795 8.53286 1.9549C8.30222 2.14446 8.13269 2.39909 7.90805 2.73648L7.29645 3.65392C7.01869 4.07056 6.93336 4.18938 6.83218 4.27254C6.73062 4.35601 6.6136 4.41864 6.48781 4.45684C6.36249 4.4949 6.2163 4.49999 5.71556 4.49999H5L4.99684 4.5H3C2.72386 4.5 2.5 4.72386 2.5 5C2.5 5.27614 2.72386 5.5 3 5.5H21C21.2761 5.5 21.5 5.27614 21.5 5C21.5 4.72386 21.2761 4.5 21 4.5H19.0032L19 4.49999H18.2844C17.7837 4.49999 17.6375 4.4949 17.5122 4.45684C17.3864 4.41864 17.2694 4.35601 17.1678 4.27254C17.0666 4.18938 16.9813 4.07056 16.7035 3.65392L16.092 2.73649C15.8673 2.39909 15.6978 2.14446 15.4671 1.9549C15.264 1.78795 15.03 1.66269 14.7784 1.58629C14.4927 1.49954 14.1868 1.49972 13.7815 1.49996H10.2185ZM16.0671 4.5C16.0163 4.42612 15.9639 4.34741 15.9081 4.26359L15.2965 3.34606C15.0187 2.92942 14.9334 2.8106 14.8322 2.72744C14.7306 2.64397 14.6136 2.58134 14.4878 2.54314C14.3625 2.50508 14.2163 2.49999 13.7156 2.49999H10.2844C9.7837 2.49999 9.63751 2.50508 9.51219 2.54314C9.3864 2.58134 9.26938 2.64397 9.16782 2.72744C9.06664 2.8106 8.98131 2.92942 8.70355 3.34606L8.09195 4.2635C8.03616 4.3473 7.98366 4.42614 7.93288 4.5H16.0671Z" fill="#000"/>
<path d="M4.64725 7.50217C4.9222 7.47651 5.16588 7.6786 5.19154 7.95355L6.09154 17.5995C6.16398 18.3759 6.216 18.9296 6.29094 19.3628C6.36482 19.7899 6.45514 20.0605 6.58414 20.2775C6.8377 20.7041 7.21246 21.0455 7.6607 21.2583C7.88874 21.3666 8.16658 21.4314 8.5987 21.4653C9.03698 21.4996 9.5931 21.5 10.3729 21.5H13.627C14.4068 21.5 14.9629 21.4996 15.4012 21.4653C15.8333 21.4314 16.1112 21.3666 16.3392 21.2583C16.7874 21.0455 17.1622 20.7041 17.4158 20.2775C17.5448 20.0606 17.6351 19.7899 17.709 19.3628C17.7839 18.9296 17.8359 18.376 17.9084 17.5995L18.8084 7.95355C18.8341 7.6786 19.0778 7.47651 19.3527 7.50217C19.6277 7.52782 19.8298 7.77151 19.8041 8.04646L18.9021 17.7134C18.832 18.4643 18.7767 19.0569 18.6943 19.5333C18.6101 20.0201 18.4918 20.4244 18.2753 20.7886C17.9204 21.3857 17.3957 21.8637 16.7682 22.1617C16.3855 22.3434 15.9719 22.4236 15.4794 22.4622C14.9975 22.5 14.4022 22.5 13.6481 22.5H10.3519C9.59778 22.5 9.00244 22.5 8.52053 22.4622C8.02798 22.4236 7.61446 22.3434 7.23175 22.1617C6.60422 21.8637 6.07956 21.3857 5.72457 20.7885C5.50807 20.4244 5.38978 20.0201 5.30557 19.5333C5.22317 19.0569 5.16788 18.4642 5.09782 17.7133L4.19586 8.04645C4.17021 7.7715 4.3723 7.52782 4.64725 7.50217Z" fill="#000"/>
<path d="M13.5 17.5L13.5 10.5C13.5 10.2239 13.7239 10 14 10C14.2761 10 14.5 10.2239 14.5 10.5L14.5 17.5C14.5 17.7762 14.2761 18 14 18C13.7239 18 13.5 17.7762 13.5 17.5Z" fill="#000"/>
<path d="M9.5 10.5V17.5001C9.5 17.7763 9.72386 18.0001 10 18.0001C10.2761 18.0001 10.5 17.7763 10.5 17.5001L10.5 10.5C10.5 10.2239 10.2761 10 10 10C9.72386 10 9.5 10.2239 9.5 10.5Z" fill="#000"/>
</svg>
