<svg width="24" height="24" viewBox="0 0 24 24" fill="none" xmlns="http://www.w3.org/2000/svg">
<path fill-rule="evenodd" clip-rule="evenodd" d="M1.5 5.5C1.5 3.84315 2.84315 2.5 4.5 2.5H12.5C14.1569 2.5 15.5 3.84315 15.5 5.5V6H18.5341C19.3184 6 20.0303 6.45841 20.3549 7.17239L22.4552 11.7931C22.4847 11.8581 22.5 11.9286 22.5 12V16.5C22.5 17.6046 21.6046 18.5 20.5 18.5H19.45C19.4828 18.6616 19.5 18.8288 19.5 19C19.5 20.3807 18.3807 21.5 17 21.5C15.6193 21.5 14.5 20.3807 14.5 19C14.5 18.8288 14.5172 18.6616 14.55 18.5H9.44999C9.48279 18.6616 9.5 18.8288 9.5 19C9.5 20.3807 8.38071 21.5 7 21.5C5.61929 21.5 4.5 20.3807 4.5 19C4.5 18.8288 4.51722 18.6616 4.55001 18.5H3.5C2.39543 18.5 1.5 17.6046 1.5 16.5V5.5ZM4.99982 17.5C5.45592 16.8928 6.18209 16.5 7 16.5C7.81791 16.5 8.54408 16.8928 9.00018 17.5H14.5V5.5C14.5 4.39543 13.6046 3.5 12.5 3.5H4.5C3.39543 3.5 2.5 4.39543 2.5 5.5V16.5C2.5 17.0523 2.94772 17.5 3.5 17.5H4.99982ZM15.5 7V11.5H21.2235L19.4445 7.5862C19.2822 7.2292 18.9263 7 18.5341 7H15.5ZM21.5 12.5H15.5V16.9998C15.9178 16.686 16.4372 16.5 17 16.5C17.8179 16.5 18.5441 16.8928 19.0002 17.5H20.5C21.0523 17.5 21.5 17.0523 21.5 16.5V12.5ZM7 17.5C6.17157 17.5 5.5 18.1716 5.5 19C5.5 19.8284 6.17157 20.5 7 20.5C7.82843 20.5 8.5 19.8284 8.5 19C8.5 18.1716 7.82843 17.5 7 17.5ZM17 17.5C16.1716 17.5 15.5 18.1716 15.5 19C15.5 19.8284 16.1716 20.5 17 20.5C17.8284 20.5 18.5 19.8284 18.5 19C18.5 18.1716 17.8284 17.5 17 17.5Z" fill="#000"/>
</svg>
