<svg width="24" height="24" viewBox="0 0 24 24" fill="none" xmlns="http://www.w3.org/2000/svg">
<path fill-rule="evenodd" clip-rule="evenodd" d="M17.7222 2.5H6.27779C5.45653 2.5 4.80954 2.49999 4.28889 2.54253C3.75771 2.58593 3.31413 2.67609 2.91103 2.88148C2.25247 3.21703 1.71703 3.75247 1.38148 4.41103C1.17609 4.81413 1.08593 5.25771 1.04253 5.78889C0.999994 6.30954 0.999997 6.95652 1 7.77779V13.2222C0.999997 14.0435 0.999994 14.6905 1.04253 15.2111C1.08593 15.7423 1.17609 16.1859 1.38148 16.589C1.71703 17.2475 2.25247 17.783 2.91103 18.1185C3.31413 18.3239 3.75771 18.4141 4.28889 18.4575C4.80953 18.5 5.45649 18.5 6.27773 18.5H17.7222C18.5435 18.5 19.1905 18.5 19.7111 18.4575C20.2423 18.4141 20.6859 18.3239 21.089 18.1185C21.7475 17.783 22.283 17.2475 22.6185 16.589C22.8239 16.1859 22.9141 15.7423 22.9575 15.2111C23 14.6905 23 14.0435 23 13.2222V7.77778C23 6.95651 23 6.30954 22.9575 5.78889C22.9141 5.25771 22.8239 4.81413 22.6185 4.41103C22.283 3.75247 21.7475 3.21703 21.089 2.88148C20.6859 2.67609 20.2423 2.58593 19.7111 2.54253C19.1905 2.49999 18.5435 2.5 17.7222 2.5ZM3.36502 3.77248C3.60366 3.65089 3.90099 3.57756 4.37032 3.53921C4.84549 3.50039 5.45167 3.5 6.3 3.5H17.7C18.5483 3.5 19.1545 3.50039 19.6297 3.53921C20.099 3.57756 20.3963 3.65089 20.635 3.77248C21.1054 4.01217 21.4878 4.39462 21.7275 4.86502C21.8491 5.10366 21.9224 5.40099 21.9608 5.87032C21.9996 6.34549 22 6.95167 22 7.8V13.2C22 14.0483 21.9996 14.6545 21.9608 15.1297C21.9224 15.599 21.8491 15.8963 21.7275 16.135C21.4878 16.6054 21.1054 16.9878 20.635 17.2275C20.3963 17.3491 20.099 17.4224 19.6297 17.4608C19.1545 17.4996 18.5483 17.5 17.7 17.5H6.3C5.45167 17.5 4.84549 17.4996 4.37032 17.4608C3.90099 17.4224 3.60366 17.3491 3.36502 17.2275C2.89462 16.9878 2.51217 16.6054 2.27248 16.135C2.15089 15.8963 2.07756 15.599 2.03921 15.1297C2.00039 14.6545 2 14.0483 2 13.2V7.8C2 6.95167 2.00039 6.34549 2.03921 5.87032C2.07756 5.40099 2.15089 5.10366 2.27248 4.86502C2.51217 4.39462 2.89462 4.01217 3.36502 3.77248Z" fill="#000"/>
<path d="M6.5 20.5C6.22386 20.5 6 20.7239 6 21C6 21.2761 6.22386 21.5 6.5 21.5H17.5C17.7761 21.5 18 21.2761 18 21C18 20.7239 17.7761 20.5 17.5 20.5H6.5Z" fill="#000"/>
</svg>
