<svg width="24" height="24" viewBox="0 0 24 24" fill="none" xmlns="http://www.w3.org/2000/svg">
<path d="M2.35355 1.64645C2.15829 1.45118 1.84171 1.45118 1.64645 1.64645C1.45118 1.84171 1.45118 2.15829 1.64645 2.35355L13.9945 14.7016C13.3487 14.5693 12.6799 14.5 12.0005 14.5C7.823 14.5 4.0495 17.118 3.50503 20.9293C3.46598 21.2027 3.65593 21.4559 3.92929 21.495C4.20266 21.534 4.45592 21.3441 4.49498 21.0707C4.95051 17.882 8.17701 15.5 12.0005 15.5C13.2638 15.5 14.4618 15.76 15.5162 16.2233L19.2085 19.9156C19.3478 20.286 19.4481 20.672 19.505 21.0707C19.5441 21.3441 19.7973 21.534 20.0707 21.495C20.258 21.4682 20.4062 21.3409 20.4683 21.1754L21.6464 22.3536C21.8417 22.5488 22.1583 22.5488 22.3536 22.3536C22.5488 22.1583 22.5488 21.8417 22.3536 21.6464L2.35355 1.64645Z" fill="#000"/>
<path d="M12 3.5C10.7824 3.5 9.69227 4.04339 8.95785 4.90266C8.77844 5.11257 8.46282 5.1373 8.25291 4.95788C8.04299 4.77846 8.01827 4.46285 8.19768 4.25293C9.11398 3.18087 10.4777 2.5 12 2.5C14.7614 2.5 17 4.73858 17 7.5C17 9.02224 16.3191 10.386 15.247 11.3023C15.0371 11.4817 14.7215 11.457 14.5421 11.2471C14.3627 11.0372 14.3874 10.7215 14.5973 10.5421C15.4566 9.8077 16 8.71757 16 7.5C16 5.29086 14.2091 3.5 12 3.5Z" fill="#000"/>
</svg>
