<svg width="24" height="24" viewBox="0 0 24 24" fill="none" xmlns="http://www.w3.org/2000/svg">
<path fill-rule="evenodd" clip-rule="evenodd" d="M4 7.5C4 4.73858 6.23858 2.5 9 2.5C11.7614 2.5 14 4.73858 14 7.5C14 10.2614 11.7614 12.5 9 12.5C6.23858 12.5 4 10.2614 4 7.5ZM9 3.5C6.79086 3.5 5 5.29086 5 7.5C5 9.70914 6.79086 11.5 9 11.5C11.2091 11.5 13 9.70914 13 7.5C13 5.29086 11.2091 3.5 9 3.5Z" fill="#000"/>
<path d="M9.00047 15.5C5.17701 15.5 1.95051 17.882 1.49498 21.0707C1.45592 21.3441 1.20266 21.534 0.929292 21.495C0.655925 21.4559 0.465975 21.2027 0.505028 20.9293C1.0495 17.118 4.823 14.5 9.00047 14.5C13.178 14.5 16.9505 17.118 17.495 20.9293C17.534 21.2027 17.3441 21.4559 17.0707 21.495C16.7973 21.534 16.5441 21.3441 16.505 21.0707C16.0495 17.882 12.8239 15.5 9.00047 15.5Z" fill="#000"/>
<path d="M23.3536 9.35355C23.5488 9.15829 23.5488 8.84171 23.3536 8.64645C23.1583 8.45118 22.8417 8.45118 22.6464 8.64645L18.5 12.7929L16.3536 10.6464C16.1583 10.4512 15.8417 10.4512 15.6464 10.6464C15.4512 10.8417 15.4512 11.1583 15.6464 11.3536L18.1464 13.8536C18.3417 14.0488 18.6583 14.0488 18.8536 13.8536L23.3536 9.35355Z" fill="#000"/>
</svg>
