<svg width="24" height="24" viewBox="0 0 24 24" fill="none" xmlns="http://www.w3.org/2000/svg">
<path fill-rule="evenodd" clip-rule="evenodd" d="M5 6.5C5 3.73858 7.23858 1.5 10 1.5C12.7614 1.5 15 3.73858 15 6.5C15 9.26142 12.7614 11.5 10 11.5C7.23858 11.5 5 9.26142 5 6.5ZM10 2.5C7.79086 2.5 6 4.29086 6 6.5C6 8.70914 7.79086 10.5 10 10.5C12.2091 10.5 14 8.70914 14 6.5C14 4.29086 12.2091 2.5 10 2.5Z" fill="#000"/>
<path d="M10.0771 13.9872C10.0893 14.2631 9.87557 14.4966 9.5997 14.5088C5.94983 14.6701 2.93437 16.9945 2.49492 20.0707C2.45586 20.344 2.2026 20.534 1.92923 20.4949C1.65586 20.4559 1.46591 20.2026 1.50497 19.9292C2.03012 16.2532 5.56205 13.6863 9.55555 13.5098C9.83142 13.4976 10.0649 13.7113 10.0771 13.9872Z" fill="#000"/>
<path fill-rule="evenodd" clip-rule="evenodd" d="M22.5 17C22.5 13.9624 20.0376 11.5 17 11.5C13.9624 11.5 11.5 13.9624 11.5 17C11.5 20.0376 13.9624 22.5 17 22.5C20.0376 22.5 22.5 20.0376 22.5 17ZM17 12.5C19.4853 12.5 21.5 14.5147 21.5 17C21.5 18.0625 21.1318 19.039 20.5159 19.8088L14.1912 13.484C14.961 12.8682 15.9375 12.5 17 12.5ZM17 21.5C18.0625 21.5 19.039 21.1318 19.8088 20.5159L13.484 14.1912C12.8682 14.961 12.5 15.9375 12.5 17C12.5 19.4853 14.5147 21.5 17 21.5Z" fill="#000"/>
</svg>
