<svg width="24" height="24" viewBox="0 0 24 24" fill="none" xmlns="http://www.w3.org/2000/svg">
<path fill-rule="evenodd" clip-rule="evenodd" d="M4.00012 7.5C4.00012 4.73858 6.2387 2.5 9.00012 2.5C11.7615 2.5 14.0001 4.73858 14.0001 7.5C14.0001 10.2614 11.7615 12.5 9.00012 12.5C6.2387 12.5 4.00012 10.2614 4.00012 7.5ZM9.00012 3.5C6.79098 3.5 5.00012 5.29086 5.00012 7.5C5.00012 9.70914 6.79098 11.5 9.00012 11.5C11.2093 11.5 13.0001 9.70914 13.0001 7.5C13.0001 5.29086 11.2093 3.5 9.00012 3.5Z" fill="#000"/>
<path d="M9.00053 15.5C5.17707 15.5 1.95057 17.882 1.49504 21.0707C1.45599 21.3441 1.20272 21.534 0.929353 21.495C0.655986 21.4559 0.466037 21.2027 0.505089 20.9293C1.04956 17.118 4.82306 14.5 9.00053 14.5C13.1781 14.5 16.9506 17.118 17.495 20.9293C17.5341 21.2027 17.3441 21.4559 17.0708 21.495C16.7974 21.534 16.5441 21.3441 16.5051 21.0707C16.0496 17.882 12.8239 15.5 9.00053 15.5Z" fill="#000"/>
<path d="M23.0001 12.5C23.2763 12.5 23.5001 12.2761 23.5001 12C23.5001 11.7239 23.2763 11.5 23.0001 11.5H17.0001C16.724 11.5 16.5001 11.7239 16.5001 12C16.5001 12.2761 16.724 12.5 17.0001 12.5H23.0001Z" fill="#000"/>
</svg>
