<svg width="24" height="24" viewBox="0 0 24 24" fill="none" xmlns="http://www.w3.org/2000/svg">
<path fill-rule="evenodd" clip-rule="evenodd" d="M10 1.5C7.23858 1.5 5 3.73858 5 6.5C5 9.26142 7.23858 11.5 10 11.5C12.7614 11.5 15 9.26142 15 6.5C15 3.73858 12.7614 1.5 10 1.5ZM6 6.5C6 4.29086 7.79086 2.5 10 2.5C12.2091 2.5 14 4.29086 14 6.5C14 8.70914 12.2091 10.5 10 10.5C7.79086 10.5 6 8.70914 6 6.5Z" fill="#000"/>
<path d="M2.49492 20.0707C2.95044 16.882 6.17695 14.5 10.0004 14.5C10.9068 14.5 11.7849 14.6354 12.6021 14.8859C12.8661 14.9669 13.1457 14.8185 13.2267 14.5545C13.3076 14.2905 13.1592 14.0108 12.8952 13.9299C11.983 13.6502 11.0061 13.5 10.0004 13.5C5.82294 13.5 2.04944 16.118 1.50497 19.9293C1.46591 20.2027 1.65586 20.4559 1.92923 20.495C2.2026 20.534 2.45586 20.3441 2.49492 20.0707Z" fill="#000"/>
<path fill-rule="evenodd" clip-rule="evenodd" d="M18.8776 11.8592C19.5638 11.3819 20.4745 11.3817 21.1609 11.8587C21.3081 11.9611 21.4496 12.1026 21.6405 12.2935L21.7066 12.3595C21.8976 12.5503 22.0393 12.6918 22.1417 12.839C22.6192 13.5253 22.6194 14.4363 22.1422 15.1228C22.0398 15.2701 21.8982 15.4116 21.7072 15.6025L15.7308 21.58C15.6643 21.6465 15.5804 21.6929 15.4888 21.7139L12.1116 22.4873C11.9438 22.5258 11.7681 22.4752 11.6464 22.3534C11.5247 22.2317 11.4742 22.0559 11.5127 21.8881L12.287 18.5147C12.308 18.4232 12.3543 18.3395 12.4207 18.2731L18.3981 12.2941C18.5889 12.1032 18.7304 11.9616 18.8776 11.8592ZM20.5902 12.6799C20.247 12.4414 19.7917 12.4415 19.4486 12.6802C19.3846 12.7246 19.3107 12.7958 19.0723 13.0342L18.4169 13.6898L20.3113 15.5842L20.967 14.9285C21.2054 14.69 21.2766 14.616 21.3211 14.552C21.5597 14.2088 21.5596 13.7533 21.3208 13.4101C21.2763 13.3462 21.2052 13.2722 20.9666 13.0338C20.7282 12.7955 20.6542 12.7244 20.5902 12.6799ZM19.6043 16.2914L17.7099 14.397L13.2295 18.8785L12.6658 21.3345L15.1253 20.7712L19.6043 16.2914Z" fill="#000"/>
</svg>
