<svg width="24" height="24" viewBox="0 0 24 24" fill="none" xmlns="http://www.w3.org/2000/svg">
<path fill-rule="evenodd" clip-rule="evenodd" d="M3.75 7.25004C3.75 4.90281 5.65278 3 8 3C10.3472 3 12.25 4.90281 12.25 7.25004C12.25 9.59726 10.3472 11.5001 8 11.5001C5.65278 11.5001 3.75 9.59726 3.75 7.25004ZM8 4C6.20508 4 4.75 5.45509 4.75 7.25004C4.75 9.04499 6.20508 10.5001 8 10.5001C9.79492 10.5001 11.25 9.04499 11.25 7.25004C11.25 5.45509 9.79492 4 8 4Z" fill="#000"/>
<path d="M15.509 14.8841C16.1093 14.6401 16.7793 14.5 17.5003 14.5C20.4241 14.5 22.5 16.7956 22.5 19C22.5 19.2761 22.7239 19.5 23 19.5C23.2762 19.5 23.5 19.2761 23.5 19C23.5 16.2044 20.9366 13.5 17.5003 13.5C16.6483 13.5 15.8505 13.6658 15.1324 13.9578C14.8766 14.0618 14.7535 14.3535 14.8575 14.6093C14.9615 14.8651 15.2532 14.9881 15.509 14.8841Z" fill="#000"/>
<path d="M1.5 20.5C1.5 17.8223 4.1807 15 8.00041 15C11.82 15 14.5 17.8223 14.5 20.5C14.5 20.7761 14.7239 21 15 21C15.2761 21 15.5 20.7761 15.5 20.5C15.5 17.1777 12.2753 14 8.00041 14C3.72555 14 0.5 17.1777 0.5 20.5C0.5 20.7761 0.723858 21 1 21C1.27614 21 1.5 20.7761 1.5 20.5Z" fill="#000"/>
<path fill-rule="evenodd" clip-rule="evenodd" d="M17.5 5C15.705 5 14.25 6.45508 14.25 8.25C14.25 10.0449 15.705 11.5 17.5 11.5C19.2949 11.5 20.7499 10.0449 20.7499 8.25C20.7499 6.45508 19.2949 5 17.5 5ZM15.25 8.25C15.25 7.00735 16.2573 6 17.5 6C18.7426 6 19.7499 7.00735 19.7499 8.25C19.7499 9.49265 18.7426 10.5 17.5 10.5C16.2573 10.5 15.25 9.49265 15.25 8.25Z" fill="#000"/>
</svg>
