<svg width="24" height="24" viewBox="0 0 24 24" fill="none" xmlns="http://www.w3.org/2000/svg">
<path fill-rule="evenodd" clip-rule="evenodd" d="M9 2.5C6.23858 2.5 4 4.73858 4 7.5C4 10.2614 6.23858 12.5 9 12.5C11.7614 12.5 14 10.2614 14 7.5C14 4.73858 11.7614 2.5 9 2.5ZM5 7.5C5 5.29086 6.79086 3.5 9 3.5C11.2091 3.5 13 5.29086 13 7.5C13 9.70914 11.2091 11.5 9 11.5C6.79086 11.5 5 9.70914 5 7.5Z" fill="#000"/>
<path d="M1.49498 21.0707C1.95051 17.882 5.17701 15.5 9.00047 15.5C12.8239 15.5 16.0495 17.882 16.505 21.0707C16.5441 21.3441 16.7973 21.534 17.0707 21.495C17.3441 21.4559 17.534 21.2027 17.495 20.9293C16.9505 17.118 13.178 14.5 9.00047 14.5C4.823 14.5 1.0495 17.118 0.505028 20.9293C0.465975 21.2027 0.655925 21.4559 0.929292 21.495C1.20266 21.534 1.45592 21.3441 1.49498 21.0707Z" fill="#000"/>
<path d="M23.3536 14.3535C23.1583 14.5487 22.8417 14.5487 22.6464 14.3535L20.5 12.2071L18.3536 14.3536C18.1583 14.5488 17.8417 14.5488 17.6465 14.3536C17.4512 14.1583 17.4512 13.8417 17.6465 13.6464L19.7929 11.5L17.6465 9.35351C17.4512 9.15825 17.4512 8.84166 17.6465 8.6464C17.8417 8.45114 18.1583 8.45114 18.3536 8.6464L20.5 10.7929L22.6464 8.64648C22.8417 8.45122 23.1583 8.45122 23.3535 8.64648C23.5488 8.84174 23.5488 9.15832 23.3535 9.35358L21.2072 11.5L23.3536 13.6464C23.5488 13.8416 23.5488 14.1582 23.3536 14.3535Z" fill="#000"/>
</svg>
