<svg width="24" height="24" viewBox="0 0 24 24" fill="none" xmlns="http://www.w3.org/2000/svg">
<path fill-rule="evenodd" clip-rule="evenodd" d="M9 2.5C6.23858 2.5 4 4.73858 4 7.5C4 10.2614 6.23858 12.5 9 12.5C11.7614 12.5 14 10.2614 14 7.5C14 4.73858 11.7614 2.5 9 2.5ZM5 7.5C5 5.29086 6.79086 3.5 9 3.5C11.2091 3.5 13 5.29086 13 7.5C13 9.70914 11.2091 11.5 9 11.5C6.79086 11.5 5 9.70914 5 7.5Z" fill="#000"/>
<path d="M1.49498 21.0707C1.95051 17.882 5.17701 15.5 9.00047 15.5C12.8239 15.5 16.0495 17.882 16.505 21.0707C16.5441 21.3441 16.7973 21.534 17.0707 21.495C17.3441 21.4559 17.534 21.2027 17.495 20.9293C16.9505 17.118 13.178 14.5 9.00047 14.5C4.823 14.5 1.0495 17.118 0.505028 20.9293C0.465975 21.2027 0.655925 21.4559 0.929292 21.495C1.20266 21.534 1.45592 21.3441 1.49498 21.0707Z" fill="#000"/>
<path d="M23.5 12C23.5 12.2761 23.2761 12.5 23 12.5H20.5V15C20.5 15.2761 20.2761 15.5 20 15.5C19.7239 15.5 19.5 15.2761 19.5 15V12.5H17C16.7239 12.5 16.5 12.2761 16.5 12C16.5 11.7239 16.7239 11.5 17 11.5H19.5V9C19.5 8.72386 19.7239 8.5 20 8.5C20.2761 8.5 20.5 8.72386 20.5 9V11.5H23C23.2761 11.5 23.5 11.7239 23.5 12Z" fill="#000"/>
</svg>
