<svg width="24" height="24" viewBox="0 0 24 24" fill="none" xmlns="http://www.w3.org/2000/svg">
<path fill-rule="evenodd" clip-rule="evenodd" d="M12 2.5C9.23858 2.5 7 4.73858 7 7.5C7 10.2614 9.23858 12.5 12 12.5C14.7614 12.5 17 10.2614 17 7.5C17 4.73858 14.7614 2.5 12 2.5ZM8 7.5C8 5.29086 9.79086 3.5 12 3.5C14.2091 3.5 16 5.29086 16 7.5C16 9.70914 14.2091 11.5 12 11.5C9.79086 11.5 8 9.70914 8 7.5Z" fill="#000"/>
<path d="M4.49498 21.0707C4.95051 17.882 8.17701 15.5 12.0005 15.5C15.8239 15.5 19.0495 17.882 19.505 21.0707C19.5441 21.3441 19.7973 21.534 20.0707 21.495C20.3441 21.4559 20.534 21.2027 20.495 20.9293C19.9505 17.118 16.178 14.5 12.0005 14.5C7.823 14.5 4.0495 17.118 3.50503 20.9293C3.46598 21.2027 3.65592 21.4559 3.92929 21.495C4.20266 21.534 4.45592 21.3441 4.49498 21.0707Z" fill="#000"/>
</svg>
