<svg width="24" height="24" viewBox="0 0 24 24" fill="none" xmlns="http://www.w3.org/2000/svg">
<path fill-rule="evenodd" clip-rule="evenodd" d="M4 7.5C4 4.73858 6.23858 2.5 9 2.5C11.7614 2.5 14 4.73858 14 7.5C14 10.2614 11.7614 12.5 9 12.5C6.23858 12.5 4 10.2614 4 7.5ZM9 3.5C6.79086 3.5 5 5.29086 5 7.5C5 9.70914 6.79086 11.5 9 11.5C11.2091 11.5 13 9.70914 13 7.5C13 5.29086 11.2091 3.5 9 3.5Z" fill="#000"/>
<path d="M9.00041 15.5C5.17695 15.5 1.95044 17.882 1.49492 21.0707C1.45586 21.3441 1.2026 21.534 0.929231 21.495C0.655864 21.4559 0.465914 21.2027 0.504967 20.9293C1.04944 17.118 4.82294 14.5 9.00041 14.5C13.178 14.5 16.9505 17.118 17.4949 20.9293C17.534 21.2027 17.344 21.4559 17.0707 21.495C16.7973 21.534 16.544 21.3441 16.505 21.0707C16.0494 17.882 12.8238 15.5 9.00041 15.5Z" fill="#000"/>
<path d="M23 12.5C23.2761 12.5 23.5 12.2761 23.5 12C23.5 11.7239 23.2761 11.5 23 11.5H17C16.7239 11.5 16.5 11.7239 16.5 12C16.5 12.2761 16.7239 12.5 17 12.5H23Z" fill="#000"/>
</svg>
