<svg width="24" height="24" viewBox="0 0 24 24" fill="none" xmlns="http://www.w3.org/2000/svg">
<path fill-rule="evenodd" clip-rule="evenodd" d="M20.25 7H20.75C21.7165 7 22.5 6.2165 22.5 5.25V3.25C22.5 2.2835 21.7165 1.5 20.75 1.5H18.75C17.7835 1.5 17 2.2835 17 3.25V3.75H7V3.25C7 2.2835 6.2165 1.5 5.25 1.5H3.25C2.2835 1.5 1.5 2.2835 1.5 3.25V5.25C1.5 6.2165 2.2835 7 3.25 7H3.75V17H3.25C2.2835 17 1.5 17.7835 1.5 18.75V20.75C1.5 21.7165 2.2835 22.5 3.25 22.5H5.25C6.2165 22.5 7 21.7165 7 20.75V20.25H17V20.75C17 21.7165 17.7835 22.5 18.75 22.5H20.75C21.7165 22.5 22.5 21.7165 22.5 20.75V18.75C22.5 17.7835 21.7165 17 20.75 17H20.25V7ZM18.75 2.5C18.3358 2.5 18 2.83579 18 3.25V5.25C18 5.66421 18.3358 6 18.75 6H20.75C21.1642 6 21.5 5.66421 21.5 5.25V3.25C21.5 2.83579 21.1642 2.5 20.75 2.5H18.75ZM19.25 7H18.75C17.7835 7 17 6.2165 17 5.25V4.75H7V5.25C7 6.2165 6.2165 7 5.25 7H4.75V17H5.25C6.2165 17 7 17.7835 7 18.75V19.25H17V18.75C17 17.7835 17.7835 17 18.75 17H19.25V7ZM18.75 18C18.3358 18 18 18.3358 18 18.75V20.75C18 21.1642 18.3358 21.5 18.75 21.5H20.75C21.1642 21.5 21.5 21.1642 21.5 20.75V18.75C21.5 18.3358 21.1642 18 20.75 18H18.75ZM6 3.25C6 2.83579 5.66421 2.5 5.25 2.5H3.25C2.83579 2.5 2.5 2.83579 2.5 3.25V5.25C2.5 5.66421 2.83579 6 3.25 6H5.25C5.66421 6 6 5.66421 6 5.25V3.25ZM6 18.75C6 18.3358 5.66421 18 5.25 18H3.25C2.83579 18 2.5 18.3358 2.5 18.75V20.75C2.5 21.1642 2.83579 21.5 3.25 21.5H5.25C5.66421 21.5 6 21.1642 6 20.75V18.75Z" fill="#000"/>
</svg>
