<svg width="24" height="24" viewBox="0 0 24 24" fill="none" xmlns="http://www.w3.org/2000/svg">
<path fill-rule="evenodd" clip-rule="evenodd" d="M12.3223 4H6.17767C5.28649 4 4.58703 3.99999 4.02469 4.04594C3.45183 4.09274 2.97738 4.18971 2.54754 4.40873C1.84193 4.76825 1.26825 5.34193 0.908726 6.04754C0.689711 6.47738 0.592744 6.95183 0.545939 7.52469C0.499994 8.08703 0.499997 8.78649 0.5 9.67767V14.3223C0.499997 15.2135 0.499994 15.913 0.545939 16.4753C0.592744 17.0482 0.689711 17.5226 0.908726 17.9525C1.26825 18.6581 1.84193 19.2317 2.54754 19.5913C2.97738 19.8103 3.45183 19.9073 4.02469 19.9541C4.58703 20 5.28648 20 6.17765 20H12.3223C13.2135 20 13.913 20 14.4753 19.9541C15.0482 19.9073 15.5226 19.8103 15.9525 19.5913C16.6581 19.2317 17.2317 18.6581 17.5913 17.9525C17.8103 17.5226 17.9073 17.0482 17.9541 16.4753C17.9946 15.9794 17.9994 15.3769 17.9999 14.6303L21.1583 17.5015C22.0576 18.3191 23.5 17.681 23.5 16.4656V7.53459C23.5 6.31919 22.0576 5.68111 21.1583 6.49868L17.9999 9.36989C17.9994 8.62321 17.9946 8.02062 17.9541 7.52469C17.9073 6.95183 17.8103 6.47738 17.5913 6.04754C17.2317 5.34193 16.6581 4.76825 15.9525 4.40873C15.5226 4.18971 15.0482 4.09274 14.4753 4.04594C13.913 3.99999 13.2135 4 12.3223 4ZM18 10.7213V13.2789L21.8309 16.7616C22.0879 16.9952 22.5 16.8129 22.5 16.4656V7.53459C22.5 7.18734 22.0879 7.00502 21.8309 7.23862L18 10.7213ZM17 9.7C17 8.78166 16.9996 8.12298 16.9574 7.60612C16.9156 7.0951 16.8355 6.7669 16.7003 6.50153C16.4366 5.98408 16.0159 5.56338 15.4985 5.29973C15.2331 5.16452 14.9049 5.08437 14.3939 5.04262C13.877 5.00039 13.2183 5 12.3 5H6.2C5.28166 5 4.62298 5.00039 4.10612 5.04262C3.5951 5.08437 3.2669 5.16452 3.00153 5.29973C2.48408 5.56338 2.06338 5.98408 1.79973 6.50153C1.66452 6.7669 1.58437 7.0951 1.54262 7.60612C1.50039 8.12298 1.5 8.78166 1.5 9.7V14.3C1.5 15.2183 1.50039 15.877 1.54262 16.3939C1.58437 16.9049 1.66452 17.2331 1.79973 17.4985C2.06338 18.0159 2.48408 18.4366 3.00153 18.7003C3.2669 18.8355 3.5951 18.9156 4.10612 18.9574C4.62298 18.9996 5.28166 19 6.2 19H12.3C13.2183 19 13.877 18.9996 14.3939 18.9574C14.9049 18.9156 15.2331 18.8355 15.4985 18.7003C16.0159 18.4366 16.4366 18.0159 16.7003 17.4985C16.8355 17.2331 16.9156 16.9049 16.9574 16.3939C16.9996 15.877 17 15.2183 17 14.3V9.7Z" fill="#000"/>
</svg>
