<svg width="24" height="24" viewBox="0 0 24 24" fill="none" xmlns="http://www.w3.org/2000/svg">
<path fill-rule="evenodd" clip-rule="evenodd" d="M2.35355 1.64645C2.15829 1.45118 1.84171 1.45118 1.64645 1.64645C1.45118 1.84171 1.45118 2.15829 1.64645 2.35355L6.55393 7.26104C6.51173 7.2933 6.47658 7.31659 6.44071 7.33696C6.33358 7.39779 6.21805 7.44246 6.09787 7.4695C5.97492 7.49717 5.83992 7.5 5.4175 7.5H3.87936C3.47687 7.49999 3.14469 7.49999 2.87409 7.5221C2.59304 7.54506 2.33469 7.59434 2.09202 7.71799C1.7157 7.90973 1.40973 8.2157 1.21799 8.59202C1.09434 8.83469 1.04506 9.09304 1.0221 9.37409C0.999989 9.64468 0.999994 9.97686 1 10.3793V13.6207C0.999994 14.0231 0.999989 14.3553 1.0221 14.6259C1.04506 14.907 1.09434 15.1653 1.21799 15.408C1.40973 15.7843 1.7157 16.0903 2.09202 16.282C2.33469 16.4057 2.59304 16.4549 2.87409 16.4779C3.14468 16.5 3.47686 16.5 3.87934 16.5H5.4175C5.83992 16.5 5.97492 16.5028 6.09787 16.5305C6.21805 16.5575 6.33358 16.6022 6.4407 16.663C6.55029 16.7253 6.65209 16.814 6.96465 17.0981L11.3542 21.0886C11.6454 21.3533 12.0247 21.5 12.4182 21.5C13.2918 21.5 14 20.7918 14 19.9182V14.7071L21.6464 22.3536C21.8417 22.5488 22.1583 22.5488 22.3536 22.3536C22.5488 22.1583 22.5488 21.8417 22.3536 21.6464L7.64116 6.93406C7.63972 6.93259 7.63827 6.93114 7.63681 6.9297L2.35355 1.64645ZM7.26511 7.97222C7.1538 8.06461 7.04853 8.14179 6.93452 8.20653C6.7417 8.31603 6.53374 8.39642 6.31741 8.44511C6.0725 8.50022 5.81959 8.50013 5.46811 8.50001L3.9 8.5C3.47171 8.5 3.18056 8.50039 2.95552 8.51878C2.73631 8.53669 2.62421 8.56915 2.54601 8.60899C2.35785 8.70487 2.20487 8.85785 2.10899 9.04601C2.06915 9.12421 2.03669 9.23631 2.01878 9.45552C2.00039 9.68056 2 9.97171 2 10.4V13.6C2 14.0283 2.00039 14.3194 2.01878 14.5445C2.03669 14.7637 2.06915 14.8758 2.10899 14.954C2.20487 15.1422 2.35785 15.2951 2.54601 15.391C2.62421 15.4309 2.73631 15.4633 2.95552 15.4812C3.18056 15.4996 3.47171 15.5 3.9 15.5L5.46811 15.5C5.81959 15.4999 6.0725 15.4998 6.31741 15.5549C6.53374 15.6036 6.7417 15.684 6.93452 15.7935C7.15281 15.9174 7.33989 16.0876 7.59989 16.3242L12.0269 20.3487C12.134 20.4461 12.2735 20.5 12.4182 20.5C12.7395 20.5 13 20.2395 13 19.9182V13.7071L7.26511 7.97222Z" fill="#000"/>
<path d="M12.4182 2.5C12.0247 2.5 11.6454 2.64667 11.3542 2.91136L9.04461 5.01098C8.84029 5.19674 8.82523 5.51296 9.01098 5.71729C9.19674 5.92162 9.51296 5.93668 9.71729 5.75092L12.0269 3.6513C12.134 3.55394 12.2735 3.5 12.4182 3.5C12.7395 3.5 13 3.76047 13 4.08178L13 9.5C13 9.77614 13.2239 10 13.5 10C13.7761 10 14 9.77614 14 9.5L14 4.08178C14 3.20819 13.2918 2.5 12.4182 2.5Z" fill="#000"/>
<path d="M18.8003 3.60023C18.5795 3.43438 18.2661 3.47891 18.1002 3.69969C17.9344 3.92048 17.9789 4.23392 18.1997 4.39977C20.5081 6.13386 22 8.89248 22 12C22 13.7714 21.5156 15.4282 20.6724 16.8468C20.5313 17.0841 20.6094 17.3909 20.8468 17.532C21.0841 17.6731 21.3909 17.5951 21.532 17.3577C22.4646 15.7888 23 13.9562 23 12C23 8.56456 21.3493 5.51499 18.8003 3.60023Z" fill="#000"/>
<path d="M16.8335 7.15526C16.6277 6.9711 16.3116 6.98861 16.1274 7.19438C15.9433 7.40014 15.9608 7.71624 16.1665 7.9004C17.2925 8.9082 18 10.3712 18 12C18 12.6838 17.8755 13.3372 17.6483 13.9398C17.5509 14.1982 17.6814 14.4866 17.9398 14.584C18.1982 14.6814 18.4866 14.5509 18.584 14.2926C18.853 13.579 19 12.8061 19 12C19 10.0749 18.1624 8.34474 16.8335 7.15526Z" fill="#000"/>
</svg>
