<svg width="24" height="24" viewBox="0 0 24 24" fill="none" xmlns="http://www.w3.org/2000/svg">
<path fill-rule="evenodd" clip-rule="evenodd" d="M3.50003 9.98349L3.5 9.98857V10.5815C3.5 10.8577 3.27614 11.0815 3 11.0815C2.72386 11.0815 2.5 10.8577 2.5 10.5815V9C2.5 8.9079 2.50311 8.81652 2.50924 8.72597C2.52862 8.03195 2.5884 7.512 2.77211 7.03969C3.01242 6.4219 3.40248 5.87352 3.90725 5.44385C4.47955 4.95669 5.24027 4.69265 6.48955 4.25904L15.6407 1.08107C16.2477 0.870281 16.7353 0.700928 17.1331 0.601743C17.5381 0.500737 17.913 0.454922 18.2789 0.543404C18.8412 0.679386 19.3295 1.02674 19.6425 1.51333C19.8461 1.82996 19.9258 2.19909 19.9632 2.61487C20 3.02313 20 3.53931 20 4.18179V5.03095C21.9732 5.27701 23.5 6.9602 23.5 9V17.5C23.5 19.7091 21.7091 21.5 19.5 21.5H13.4185C13.1423 21.5 12.9185 21.2761 12.9185 21C12.9185 20.7239 13.1423 20.5 13.4185 20.5H19.5C21.1569 20.5 22.5 19.1569 22.5 17.5V9C22.5 7.34616 21.1617 6.00489 19.509 6.00001L19.5 6.00009L19.4903 6H6.5C4.92535 6 3.63404 7.21318 3.50979 8.75585C3.50097 9.0851 3.50003 9.48432 3.50003 9.98349ZM17.375 1.57203C17.0262 1.65901 16.5811 1.81307 15.9455 2.03381L7.40419 5H19V4.20652C19 3.53364 18.9995 3.06267 18.9673 2.70462C18.9352 2.34886 18.8759 2.17005 18.8014 2.05424C18.6275 1.78391 18.3562 1.59093 18.0438 1.51539C17.91 1.48302 17.7216 1.48561 17.375 1.57203Z" fill="#000"/>
<path d="M19 12.25C18.4477 12.25 18 12.6977 18 13.25C18 13.8023 18.4477 14.25 19 14.25C19.5523 14.25 20.0001 13.8023 20.0001 13.25C20.0001 12.6977 19.5523 12.25 19 12.25Z" fill="#000"/>
<path d="M8.5 18C8.5 18.2761 8.27614 18.5 8 18.5H6.5V20C6.5 20.2761 6.27614 20.5 6 20.5C5.72386 20.5 5.5 20.2761 5.5 20V18.5H4C3.72386 18.5 3.5 18.2761 3.5 18C3.5 17.7239 3.72386 17.5 4 17.5H5.5V16C5.5 15.7239 5.72386 15.5 6 15.5C6.27614 15.5 6.5 15.7239 6.5 16V17.5H8C8.27614 17.5 8.5 17.7239 8.5 18Z" fill="#000"/>
<path fill-rule="evenodd" clip-rule="evenodd" d="M6 12.5C2.96243 12.5 0.5 14.9624 0.5 18C0.5 21.0376 2.96243 23.5 6 23.5C9.03757 23.5 11.5 21.0376 11.5 18C11.5 14.9624 9.03757 12.5 6 12.5ZM1.5 18C1.5 15.5147 3.51472 13.5 6 13.5C8.48528 13.5 10.5 15.5147 10.5 18C10.5 20.4853 8.48528 22.5 6 22.5C3.51472 22.5 1.5 20.4853 1.5 18Z" fill="#000"/>
</svg>
