<svg width="24" height="24" viewBox="0 0 24 24" fill="none" xmlns="http://www.w3.org/2000/svg">
<path d="M18 13.25C17.4477 13.25 17 13.6977 17 14.25C17 14.8023 17.4477 15.25 18 15.25C18.5523 15.25 19.0001 14.8023 19.0001 14.25C19.0001 13.6977 18.5523 13.25 18 13.25Z" fill="#000"/>
<path fill-rule="evenodd" clip-rule="evenodd" d="M1.49999 13.0001L1.5 13.0024V16.4224C1.5 17.3835 1.49999 18.1355 1.54935 18.7395C1.59956 19.3541 1.70334 19.8594 1.93597 20.316C2.31947 21.0686 2.93139 21.6805 3.68404 22.064C4.14062 22.2967 4.64594 22.4004 5.26049 22.4507C5.86451 22.5 6.61646 22.5 7.57754 22.5H16.4225C17.3835 22.5 18.1355 22.5 18.7395 22.4507C19.3541 22.4004 19.8594 22.2967 20.316 22.064C21.0686 21.6805 21.6805 21.0686 22.064 20.316C22.2967 19.8594 22.4004 19.3541 22.4507 18.7395C22.5 18.1355 22.5 17.3835 22.5 16.4225V12.0775C22.5 11.1165 22.5 10.3645 22.4507 9.76049C22.4004 9.14594 22.2967 8.64062 22.064 8.18404C21.6805 7.43139 21.0686 6.81947 20.316 6.43597C19.9256 6.23705 19.4995 6.13234 19 6.07478V5.18185C19 4.53936 19 4.02313 18.9632 3.61487C18.9257 3.19909 18.8461 2.82996 18.6424 2.51333C18.3295 2.02674 17.8412 1.67939 17.2788 1.5434C16.9129 1.45492 16.5381 1.50074 16.133 1.60174C15.7353 1.70093 15.2476 1.87028 14.6407 2.08107L5.48953 5.25903C4.24024 5.69265 3.47952 5.95668 2.90722 6.44385C2.40245 6.87352 2.01239 7.4219 1.77208 8.03969C1.49963 8.74014 1.49976 9.54538 1.49998 10.8678L1.49999 13.0001ZM16.375 2.57203C16.0262 2.65901 15.5811 2.81307 14.9455 3.03381L6.39083 6.00463C6.74701 6 7.14065 6 7.57751 6H16.4224C17.0256 6 17.5464 6 18 6.0122V5.20652C18 4.53364 17.9995 4.06267 17.9672 3.70462C17.9352 3.34886 17.8758 3.17005 17.8013 3.05424C17.6275 2.78391 17.3562 2.59093 17.0438 2.51539C16.91 2.48302 16.7216 2.48561 16.375 2.57203ZM5.34192 7.04602C4.78921 7.09118 4.43014 7.17814 4.13803 7.32698C3.57354 7.6146 3.1146 8.07354 2.82698 8.63803C2.67814 8.93014 2.59118 9.28921 2.54602 9.84192C2.50039 10.4005 2.5 11.1117 2.5 12.1V16.4C2.5 17.3883 2.50039 18.0995 2.54602 18.6581C2.59118 19.2108 2.67814 19.5699 2.82698 19.862C3.1146 20.4265 3.57354 20.8854 4.13803 21.173C4.43014 21.3219 4.78921 21.4088 5.34192 21.454C5.90047 21.4996 6.61166 21.5 7.6 21.5H16.4C17.3883 21.5 18.0995 21.4996 18.6581 21.454C19.2108 21.4088 19.5699 21.3219 19.862 21.173C20.4265 20.8854 20.8854 20.4265 21.173 19.862C21.3219 19.5699 21.4088 19.2108 21.454 18.6581C21.4996 18.0995 21.5 17.3883 21.5 16.4V12.1C21.5 11.1117 21.4996 10.4005 21.454 9.84192C21.4088 9.28921 21.3219 8.93014 21.173 8.63803C20.8854 8.07354 20.4265 7.6146 19.862 7.32698C19.5699 7.17814 19.2108 7.09118 18.6581 7.04602C18.0995 7.00039 17.3883 7 16.4 7H7.6C6.61166 7 5.90047 7.00039 5.34192 7.04602Z" fill="#000"/>
</svg>
