<svg width="24" height="24" viewBox="0 0 24 24" fill="none" xmlns="http://www.w3.org/2000/svg">
<path fill-rule="evenodd" clip-rule="evenodd" d="M3.5 9.98857L3.50003 9.98349C3.50003 9.48432 3.50097 9.0851 3.50979 8.75585C3.63404 7.21318 4.92535 6 6.5 6H19.4903L19.5 6.00009L19.509 6.00001C21.1617 6.00489 22.5 7.34616 22.5 9V17.5C22.5 19.1569 21.1569 20.5 19.5 20.5H13.4185C13.1423 20.5 12.9185 20.7239 12.9185 21C12.9185 21.2761 13.1423 21.5 13.4185 21.5H19.5C21.7091 21.5 23.5 19.7091 23.5 17.5V9C23.5 6.9602 21.9732 5.27701 20 5.03095V4.18185C20 3.53936 20 3.02313 19.9632 2.61487C19.9258 2.19909 19.8461 1.82996 19.6425 1.51333C19.3295 1.02674 18.8412 0.679386 18.2789 0.543404C17.913 0.454922 17.5381 0.500737 17.1331 0.601743C16.7353 0.700928 16.2477 0.870275 15.6407 1.08107L6.48956 4.25903C5.24029 4.69264 4.47955 4.95669 3.90725 5.44385C3.40248 5.87352 3.01242 6.4219 2.77211 7.03969C2.5884 7.512 2.52862 8.03195 2.50924 8.72597C2.50311 8.81652 2.5 8.9079 2.5 9V10.5815C2.5 10.8577 2.72386 11.0815 3 11.0815C3.27614 11.0815 3.5 10.8577 3.5 10.5815V9.98857ZM15.9455 2.03381C16.5811 1.81307 17.0262 1.65901 17.375 1.57203C17.7216 1.48561 17.91 1.48302 18.0438 1.51539C18.3562 1.59093 18.6275 1.78391 18.8014 2.05424C18.8759 2.17005 18.9352 2.34886 18.9673 2.70462C18.9995 3.06267 19 3.53364 19 4.20652V5H7.40419L15.9455 2.03381Z" fill="#000"/>
<path d="M18 13.25C18 12.6977 18.4477 12.25 19 12.25C19.5523 12.25 20.0001 12.6977 20.0001 13.25C20.0001 13.8023 19.5524 14.25 19.0001 14.25C18.4478 14.25 18 13.8023 18 13.25Z" fill="#000"/>
<path d="M8 18.5C8.27614 18.5 8.5 18.2761 8.5 18C8.5 17.7239 8.27614 17.5 8 17.5H4C3.72386 17.5 3.5 17.7239 3.5 18C3.5 18.2761 3.72386 18.5 4 18.5H8Z" fill="#000"/>
<path fill-rule="evenodd" clip-rule="evenodd" d="M0.5 18C0.5 14.9624 2.96243 12.5 6 12.5C9.03757 12.5 11.5 14.9624 11.5 18C11.5 21.0376 9.03757 23.5 6 23.5C2.96243 23.5 0.5 21.0376 0.5 18ZM6 13.5C3.51472 13.5 1.5 15.5147 1.5 18C1.5 20.4853 3.51472 22.5 6 22.5C8.48528 22.5 10.5 20.4853 10.5 18C10.5 15.5147 8.48528 13.5 6 13.5Z" fill="#000"/>
</svg>
