<svg width="24" height="24" viewBox="0 0 24 24" fill="none" xmlns="http://www.w3.org/2000/svg">
<path d="M13.5 6.99982C13.5 7.27596 13.2761 7.49982 13 7.49982H11C10.7239 7.49982 10.5 7.27596 10.5 6.99982C10.5 6.72367 10.7239 6.49982 11 6.49982H13C13.2761 6.49982 13.5 6.72367 13.5 6.99982Z" fill="#000"/>
<path fill-rule="evenodd" clip-rule="evenodd" d="M12.8646 1.60499C12.2973 1.46036 11.7027 1.46036 11.1354 1.60499C10.4918 1.76906 9.91496 2.18461 8.99476 2.84747L3.63844 6.70405C2.96951 7.1855 2.54935 7.48791 2.24093 7.88306C1.96827 8.2324 1.76443 8.63035 1.64025 9.05574C1.49978 9.53693 1.49987 10.0546 1.50001 10.8788L1.50002 18.8213C1.50001 19.3632 1.50001 19.8003 1.52893 20.1542C1.5587 20.5186 1.62161 20.8387 1.7725 21.1349C2.01218 21.6053 2.39464 21.9877 2.86504 22.2274C3.16119 22.3783 3.48128 22.4412 3.84571 22.471C4.19964 22.4999 4.63672 22.4999 5.1786 22.4999H18.8214C19.3633 22.4999 19.8004 22.4999 20.1543 22.471C20.5188 22.4412 20.8388 22.3783 21.135 22.2274C21.6054 21.9877 21.9879 21.6053 22.2275 21.1349C22.3784 20.8387 22.4413 20.5186 22.4711 20.1542C22.5 19.8003 22.5 19.3632 22.5 18.8213L22.5 10.8788C22.5002 10.0546 22.5003 9.53692 22.3598 9.05574C22.2356 8.63035 22.0318 8.2324 21.7591 7.88306C21.4507 7.48791 21.0305 7.1855 20.3616 6.70404L15.0053 2.84747C14.0851 2.18461 13.5082 1.76906 12.8646 1.60499ZM11.3825 2.574C11.7877 2.4707 12.2124 2.4707 12.6176 2.574C13.0542 2.68532 13.4693 2.97384 14.5125 3.72495L19.7125 7.46897C20.4676 8.01258 20.7612 8.22983 20.9708 8.49834C21.1655 8.74787 21.3111 9.03212 21.3999 9.33597C21.4953 9.66294 21.5 10.0282 21.5 10.9586V18.7999C21.5 19.3682 21.4996 19.7643 21.4744 20.0728C21.4497 20.3753 21.4036 20.5492 21.3365 20.6809C21.1927 20.9631 20.9632 21.1926 20.681 21.3364C20.5493 21.4035 20.3755 21.4496 20.0729 21.4743C19.802 21.4964 19.4634 21.4994 19 21.4998V12.4998C19 11.6714 18.3284 10.9998 17.5 10.9998H6.5C5.67157 10.9998 5 11.6714 5 12.4998V21.4998C4.53658 21.4994 4.19802 21.4964 3.92714 21.4743C3.62455 21.4496 3.45071 21.4035 3.31903 21.3364C3.03679 21.1926 2.80732 20.9631 2.66351 20.6809C2.59641 20.5492 2.55033 20.3753 2.52561 20.0728C2.50041 19.7643 2.50002 19.3682 2.50002 18.7999V10.9586C2.50002 10.0282 2.50473 9.66294 2.60018 9.33597C2.68889 9.03212 2.83449 8.74787 3.02924 8.49834C3.23882 8.22983 3.53248 8.01258 4.2875 7.46897L9.4875 3.72495C10.5307 2.97384 10.9458 2.68532 11.3825 2.574ZM6 19V21.4998H18V19H6ZM18 18H6V15.5H18V18ZM18 12.4998V14.5H6V12.4998C6 12.2237 6.22386 11.9998 6.5 11.9998H17.5C17.7761 11.9998 18 12.2237 18 12.4998Z" fill="#000"/>
</svg>
