<svg width="24" height="24" viewBox="0 0 24 24" fill="none" xmlns="http://www.w3.org/2000/svg">
<path d="M1.35355 0.646447C1.15829 0.451184 0.841709 0.451184 0.646447 0.646447C0.451184 0.841709 0.451184 1.15829 0.646447 1.35355L4.55836 5.26546C3.10525 6.0133 1.78531 6.98421 0.64288 8.15005C0.449608 8.34728 0.452818 8.66385 0.65005 8.85712C0.847282 9.05039 1.16385 9.04718 1.35712 8.84995C2.49873 7.68495 3.83073 6.72769 5.30354 6.01064L8.38223 9.08934C6.79116 9.62411 5.35452 10.5016 4.15642 11.6349C3.9558 11.8246 3.94699 12.1411 4.13675 12.3417C4.3265 12.5423 4.64296 12.5511 4.84358 12.3614C6.05894 11.2118 7.54017 10.3524 9.18153 9.88864L12.8515 13.5586C12.5758 13.52 12.2918 13.5 11.9999 13.5C10.3619 13.5 8.98311 14.1286 7.90826 15.135C7.70668 15.3238 7.69628 15.6402 7.88502 15.8417C8.07376 16.0433 8.39017 16.0537 8.59174 15.865C9.49838 15.0161 10.6382 14.5 11.9999 14.5C12.9145 14.5 13.7247 14.7325 14.4301 15.1372L22.6464 23.3536C22.8417 23.5488 23.1583 23.5488 23.3536 23.3536C23.5488 23.1583 23.5488 22.8417 23.3536 22.6464L15.0993 14.3922C15.0943 14.3869 15.0891 14.3818 15.0838 14.3767L9.69113 8.98402C9.68706 8.97981 9.68292 8.97567 9.67871 8.97161L5.77008 5.06297C5.76473 5.05737 5.75926 5.0519 5.75368 5.04657L1.35355 0.646447Z" fill="#000"/>
<path d="M12 4.5C10.7966 4.5 9.62795 4.6324 8.50953 4.88639C8.24025 4.94754 7.97237 4.77882 7.91122 4.50953C7.85007 4.24025 8.01879 3.97237 8.28808 3.91122C9.48015 3.6405 10.7232 3.5 12 3.5C16.4388 3.5 20.4647 5.19841 23.3571 8.15005C23.5504 8.34728 23.5472 8.66385 23.35 8.85712C23.1527 9.05039 22.8362 9.04718 22.6429 8.84995C19.945 6.09677 16.1794 4.5 12 4.5Z" fill="#000"/>
<path d="M12.5527 9.00244C12.5792 8.72757 12.8235 8.52622 13.0984 8.5527C15.6954 8.80295 18.04 9.92999 19.8437 11.6368C20.0442 11.8266 20.053 12.1431 19.8632 12.3437C19.6734 12.5442 19.3569 12.553 19.1563 12.3632C17.5072 10.8026 15.3683 9.77606 13.0024 9.54809C12.7276 9.52161 12.5262 9.27731 12.5527 9.00244Z" fill="#000"/>
<path d="M11.25 19C11.25 18.5858 11.5858 18.25 12 18.25C12.4142 18.25 12.7501 18.5858 12.7501 19C12.7501 19.4142 12.4143 19.75 12.0001 19.75C11.5859 19.75 11.25 19.4142 11.25 19Z" fill="#000"/>
</svg>
