<svg width="24" height="24" viewBox="0 0 24 24" fill="none" xmlns="http://www.w3.org/2000/svg">
<path d="M15.3535 15.3536C15.1583 15.5489 14.8417 15.5489 14.6464 15.3536L12 12.7071L9.35354 15.3536C9.15828 15.5488 8.84169 15.5488 8.64643 15.3536C8.45117 15.1583 8.45117 14.8417 8.64643 14.6464L11.2928 12L8.64642 9.3536C8.45115 9.15834 8.45115 8.84175 8.64642 8.64649C8.84168 8.45123 9.15826 8.45123 9.35352 8.64649L12 11.2929L14.6464 8.64645C14.8417 8.45118 15.1583 8.45118 15.3535 8.64645C15.5488 8.84171 15.5488 9.15829 15.3535 9.35355L12.7071 12L15.3535 14.6465C15.5488 14.8418 15.5488 15.1583 15.3535 15.3536Z" fill="#000"/>
<path fill-rule="evenodd" clip-rule="evenodd" d="M0.499969 12C0.499969 5.64873 5.64869 0.5 12 0.5C18.3512 0.5 23.5 5.64873 23.5 12C23.5 18.3513 18.3512 23.5 12 23.5C5.64869 23.5 0.499969 18.3513 0.499969 12ZM12 1.5C6.20098 1.5 1.49997 6.20101 1.49997 12C1.49997 17.799 6.20098 22.5 12 22.5C17.799 22.5 22.5 17.799 22.5 12C22.5 6.20101 17.799 1.5 12 1.5Z" fill="#000"/>
</svg>
