<svg width="24" height="24" viewBox="0 0 24 24" fill="none" xmlns="http://www.w3.org/2000/svg">
<path d="M13.5 14.75C11.9588 14.75 10.5803 15.8117 10.2263 17.1869C10.1231 17.5881 9.71419 17.8296 9.31305 17.7263C8.91191 17.6231 8.67042 17.2142 8.77367 16.8131C9.30779 14.7379 11.3135 13.25 13.5 13.25C15.6865 13.25 17.6922 14.7379 18.2263 16.8131C18.3296 17.2142 18.0881 17.6231 17.6869 17.7263C17.2858 17.8296 16.8769 17.5881 16.7737 17.1869C16.4197 15.8117 15.0412 14.75 13.5 14.75Z" fill="#000"/>
<path fill-rule="evenodd" clip-rule="evenodd" d="M13.5 6.25C11.8431 6.25 10.5 7.59315 10.5 9.25C10.5 10.9069 11.8431 12.25 13.5 12.25C15.1569 12.25 16.5 10.9069 16.5 9.25C16.5 7.59315 15.1569 6.25 13.5 6.25ZM12 9.25C12 8.42157 12.6716 7.75 13.5 7.75C14.3284 7.75 15 8.42157 15 9.25C15 10.0784 14.3284 10.75 13.5 10.75C12.6716 10.75 12 10.0784 12 9.25Z" fill="#000"/>
<path fill-rule="evenodd" clip-rule="evenodd" d="M16.4326 0.75H10.5674C9.61495 0.749994 8.85439 0.749989 8.24013 0.800176C7.61012 0.85165 7.06824 0.959634 6.57054 1.21322C5.77085 1.62068 5.12068 2.27085 4.71322 3.07054C4.45963 3.56824 4.35165 4.11012 4.30018 4.74013C4.24999 5.3544 4.24999 6.11495 4.25 7.06739V16.9326C4.24999 17.8851 4.24999 18.6456 4.30018 19.2599C4.35165 19.8899 4.45963 20.4318 4.71322 20.9295C5.12068 21.7291 5.77085 22.3793 6.57054 22.7868C7.06824 23.0404 7.61012 23.1484 8.24013 23.1998C8.85438 23.25 9.6149 23.25 10.5673 23.25H16.4326C17.385 23.25 18.1456 23.25 18.7599 23.1998C19.3899 23.1484 19.9318 23.0404 20.4295 22.7868C21.2291 22.3793 21.8793 21.7291 22.2868 20.9295C22.5404 20.4318 22.6483 19.8899 22.6998 19.2599C22.75 18.6456 22.75 17.8851 22.75 16.9327V7.06737C22.75 6.11496 22.75 5.35438 22.6998 4.74013C22.6483 4.11012 22.5404 3.56824 22.2868 3.07054C21.8793 2.27085 21.2291 1.62068 20.4295 1.21322C19.9318 0.959634 19.3899 0.85165 18.7599 0.800176C18.1456 0.749989 17.3851 0.749994 16.4326 0.75ZM7.25153 2.54973C7.50252 2.42184 7.82503 2.33909 8.36228 2.29519C8.90829 2.25058 9.60753 2.25 10.6 2.25H16.4C17.3925 2.25 18.0917 2.25058 18.6377 2.29519C19.175 2.33909 19.4975 2.42184 19.7485 2.54973C20.2659 2.81338 20.6866 3.23408 20.9503 3.75153C21.0782 4.00252 21.1609 4.32503 21.2048 4.86228C21.2494 5.40829 21.25 6.10753 21.25 7.1V16.9C21.25 17.8925 21.2494 18.5917 21.2048 19.1377C21.1609 19.675 21.0782 19.9975 20.9503 20.2485C20.6866 20.7659 20.2659 21.1866 19.7485 21.4503C19.4975 21.5782 19.175 21.6609 18.6377 21.7048C18.0917 21.7494 17.3925 21.75 16.4 21.75H10.6C9.60753 21.75 8.90829 21.7494 8.36228 21.7048C7.82503 21.6609 7.50252 21.5782 7.25153 21.4503C6.73408 21.1866 6.31338 20.7659 6.04973 20.2485C5.92184 19.9975 5.83909 19.675 5.79519 19.1377C5.75058 18.5917 5.75 17.8925 5.75 16.9V7.1C5.75 6.10753 5.75058 5.40829 5.79519 4.86228C5.83909 4.32503 5.92184 4.00252 6.04973 3.75153C6.31338 3.23408 6.73408 2.81338 7.25153 2.54973Z" fill="#000"/>
<path d="M2.75 5C2.75 4.58579 2.41421 4.25 2 4.25C1.58579 4.25 1.25 4.58579 1.25 5V7.5C1.25 7.91421 1.58579 8.25 2 8.25C2.41421 8.25 2.75 7.91421 2.75 7.5V5Z" fill="#000"/>
<path d="M2.75 10.75C2.75 10.3358 2.41421 10 2 10C1.58579 10 1.25 10.3358 1.25 10.75V13.25C1.25 13.6642 1.58579 14 2 14C2.41421 14 2.75 13.6642 2.75 13.25V10.75Z" fill="#000"/>
<path d="M2 15.75C2.41421 15.75 2.75 16.0858 2.75 16.5V19C2.75 19.4142 2.41421 19.75 2 19.75C1.58579 19.75 1.25 19.4142 1.25 19V16.5C1.25 16.0858 1.58579 15.75 2 15.75Z" fill="#000"/>
</svg>
