<svg width="24" height="24" viewBox="0 0 24 24" fill="none" xmlns="http://www.w3.org/2000/svg">
<path d="M13.5 10C13.5 9.58579 13.8358 9.25 14.25 9.25H18.75C19.1642 9.25 19.5 9.58579 19.5 10C19.5 10.4142 19.1642 10.75 18.75 10.75H14.25C13.8358 10.75 13.5 10.4142 13.5 10Z" fill="#000"/>
<path d="M15.75 13.25C15.3358 13.25 15 13.5858 15 14C15 14.4142 15.3358 14.75 15.75 14.75H18.75C19.1642 14.75 19.5 14.4142 19.5 14C19.5 13.5858 19.1642 13.25 18.75 13.25H15.75Z" fill="#000"/>
<path d="M8.45005 14.35C7.28164 14.35 6.24154 15.1568 5.97639 16.187C5.87314 16.5881 5.46426 16.8296 5.06312 16.7264C4.66198 16.6231 4.42049 16.2142 4.52373 15.8131C4.96904 14.0829 6.63631 12.85 8.45005 12.85C10.2638 12.85 11.9311 14.0829 12.3764 15.8131C12.4796 16.2142 12.2381 16.6231 11.837 16.7264C11.4359 16.8296 11.027 16.5881 10.9237 16.187C10.6586 15.1568 9.61846 14.35 8.45005 14.35Z" fill="#000"/>
<path fill-rule="evenodd" clip-rule="evenodd" d="M8.45002 7.25C7.0417 7.25 5.90002 8.39167 5.90002 9.8C5.90002 11.2083 7.0417 12.35 8.45002 12.35C9.85835 12.35 11 11.2083 11 9.8C11 8.39167 9.85835 7.25 8.45002 7.25ZM7.40002 9.8C7.40002 9.2201 7.87013 8.75 8.45002 8.75C9.02992 8.75 9.50002 9.2201 9.50002 9.8C9.50002 10.3799 9.02992 10.85 8.45002 10.85C7.87013 10.85 7.40002 10.3799 7.40002 9.8Z" fill="#000"/>
<path fill-rule="evenodd" clip-rule="evenodd" d="M7.06739 3.25H16.9326C17.8851 3.24999 18.6456 3.24999 19.2599 3.30018C19.8899 3.35165 20.4318 3.45963 20.9295 3.71322C21.7291 4.12068 22.3793 4.77085 22.7868 5.57054C23.0404 6.06824 23.1483 6.61012 23.1998 7.24013C23.25 7.8544 23.25 8.61495 23.25 9.56741V14.4325C23.25 15.385 23.25 16.1456 23.1998 16.7599C23.1483 17.3899 23.0404 17.9318 22.7868 18.4295C22.3793 19.2291 21.7291 19.8793 20.9295 20.2868C20.4318 20.5404 19.8899 20.6484 19.2599 20.6998C18.6456 20.75 17.8851 20.75 16.9327 20.75H7.06737C6.11496 20.75 5.35438 20.75 4.74013 20.6998C4.11012 20.6484 3.56824 20.5404 3.07054 20.2868C2.27085 19.8793 1.62068 19.2291 1.21322 18.4295C0.959634 17.9318 0.85165 17.3899 0.800176 16.7599C0.749989 16.1456 0.749994 15.3851 0.75 14.4326V9.56739C0.749994 8.61494 0.749989 7.8544 0.800176 7.24013C0.85165 6.61012 0.959634 6.06824 1.21322 5.57054C1.62068 4.77085 2.27085 4.12068 3.07054 3.71322C3.56824 3.45963 4.11012 3.35165 4.74013 3.30018C5.3544 3.24999 6.11494 3.24999 7.06739 3.25ZM4.86228 4.79519C4.32503 4.83909 4.00252 4.92184 3.75153 5.04973C3.23408 5.31338 2.81338 5.73408 2.54973 6.25153C2.42184 6.50252 2.33909 6.82503 2.29519 7.36228C2.25058 7.90829 2.25 8.60753 2.25 9.6V14.4C2.25 15.3925 2.25058 16.0917 2.29519 16.6377C2.33909 17.175 2.42184 17.4975 2.54973 17.7485C2.81338 18.2659 3.23408 18.6866 3.75153 18.9503C4.00252 19.0782 4.32503 19.1609 4.86228 19.2048C5.40829 19.2494 6.10753 19.25 7.1 19.25H16.9C17.8925 19.25 18.5917 19.2494 19.1377 19.2048C19.675 19.1609 19.9975 19.0782 20.2485 18.9503C20.7659 18.6866 21.1866 18.2659 21.4503 17.7485C21.5782 17.4975 21.6609 17.175 21.7048 16.6377C21.7494 16.0917 21.75 15.3925 21.75 14.4V9.6C21.75 8.60753 21.7494 7.90829 21.7048 7.36228C21.6609 6.82503 21.5782 6.50252 21.4503 6.25153C21.1866 5.73408 20.7659 5.31338 20.2485 5.04973C19.9975 4.92184 19.675 4.83909 19.1377 4.79519C18.5917 4.75058 17.8925 4.75 16.9 4.75H7.1C6.10753 4.75 5.40829 4.75058 4.86228 4.79519Z" fill="#000"/>
</svg>
