<svg width="24" height="24" viewBox="0 0 24 24" fill="none" xmlns="http://www.w3.org/2000/svg">
<path d="M5.67818 2.94702C5.41291 2.821 5.11578 2.75012 4.8 2.75012C3.66782 2.75012 2.75 3.66794 2.75 4.80012C2.75 5.1159 2.82088 5.41303 2.9469 5.6783C3.12463 6.05245 2.96541 6.49983 2.59127 6.67757C2.21713 6.8553 1.76974 6.69608 1.59201 6.32194C1.37247 5.85981 1.25 5.34322 1.25 4.80012C1.25 2.83951 2.83939 1.25012 4.8 1.25012C5.3431 1.25012 5.85969 1.37259 6.32182 1.59213C6.69596 1.76986 6.85518 2.21725 6.67745 2.59139C6.49971 2.96554 6.05232 3.12476 5.67818 2.94702Z" fill="#000"/>
<path d="M19.2 2.75012C18.8842 2.75012 18.5871 2.821 18.3218 2.94702C17.9477 3.12476 17.5003 2.96554 17.3225 2.59139C17.1448 2.21725 17.304 1.76986 17.6782 1.59213C18.1403 1.37259 18.6569 1.25012 19.2 1.25012C21.1606 1.25012 22.75 2.83951 22.75 4.80012C22.75 5.34322 22.6275 5.85981 22.408 6.32194C22.2302 6.69608 21.7829 6.8553 21.4087 6.67757C21.0346 6.49983 20.8754 6.05245 21.0531 5.6783C21.1791 5.41303 21.25 5.1159 21.25 4.80012C21.25 3.66794 20.3322 2.75012 19.2 2.75012Z" fill="#000"/>
<path d="M15.0303 15.5303C14.7374 15.8232 14.2626 15.8232 13.9697 15.5303L12 13.5607L10.0303 15.5305C9.73742 15.8233 9.26255 15.8233 8.96965 15.5305C8.67676 15.2376 8.67676 14.7627 8.96965 14.4698L10.9394 12.5001L8.96969 10.5304C8.6768 10.2375 8.6768 9.7626 8.96969 9.46971C9.26259 9.17682 9.73746 9.17682 10.0304 9.46971L12 11.4394L13.9696 9.46982C14.2625 9.17693 14.7374 9.17693 15.0303 9.46982C15.3232 9.76272 15.3232 10.2376 15.0303 10.5305L13.0607 12.5001L15.0303 14.4697C15.3232 14.7626 15.3232 15.2374 15.0303 15.5303Z" fill="#000"/>
<path fill-rule="evenodd" clip-rule="evenodd" d="M2.24999 12.5001C2.24999 7.11535 6.61522 2.75012 12 2.75012C17.3848 2.75012 21.75 7.11535 21.75 12.5001C21.75 15.0499 20.7712 17.3711 19.1689 19.1084L21.5303 21.4698C21.8232 21.7627 21.8232 22.2376 21.5303 22.5305C21.2374 22.8233 20.7626 22.8233 20.4697 22.5305L18.0699 20.1307C16.4044 21.4573 14.2948 22.2501 12 22.2501C9.7052 22.2501 7.59558 21.4573 5.93007 20.1307L3.53032 22.5305C3.23743 22.8233 2.76256 22.8233 2.46966 22.5305C2.17677 22.2376 2.17677 21.7627 2.46966 21.4698L4.83104 19.1084C3.22874 17.3711 2.24999 15.0499 2.24999 12.5001ZM12 4.25012C7.44364 4.25012 3.74999 7.94377 3.74999 12.5001C3.74999 17.0565 7.44364 20.7501 12 20.7501C16.5563 20.7501 20.25 17.0565 20.25 12.5001C20.25 7.94377 16.5563 4.25012 12 4.25012Z" fill="#000"/>
</svg>
