<svg width="24" height="24" viewBox="0 0 24 24" fill="none" xmlns="http://www.w3.org/2000/svg">
<path fill-rule="evenodd" clip-rule="evenodd" d="M2.53033 1.46967C2.23744 1.17678 1.76256 1.17678 1.46967 1.46967C1.17678 1.76256 1.17678 2.23744 1.46967 2.53033L1.81592 2.87658C1.45817 3.43072 1.25006 4.09143 1.25006 4.8C1.25006 5.3431 1.37253 5.85968 1.59207 6.32182C1.7698 6.69596 2.21719 6.85518 2.59133 6.67745C2.96548 6.49971 3.12469 6.05232 2.94696 5.67818C2.82094 5.41291 2.75006 5.11578 2.75006 4.8C2.75006 4.50854 2.81062 4.2316 2.9201 3.98076L4.83109 5.89175C3.22953 7.6285 2.25006 9.95032 2.25006 12.5C2.25006 15.0498 3.22881 17.3709 4.83111 19.1083L2.46973 21.4697C2.17684 21.7626 2.17684 22.2374 2.46973 22.5303C2.76262 22.8232 3.2375 22.8232 3.53039 22.5303L5.93014 20.1306C7.59565 21.4572 9.70527 22.25 12.0001 22.25C14.5497 22.25 16.8716 21.2705 18.6083 19.669L21.4697 22.5303C21.7626 22.8232 22.2374 22.8232 22.5303 22.5303C22.8232 22.2374 22.8232 21.7626 22.5303 21.4697L19.1454 18.0847C19.1417 18.081 19.138 18.0773 19.1343 18.0736L6.42644 5.36578C6.42279 5.36205 6.41911 5.35837 6.4154 5.35474L3.35521 2.29455C3.35364 2.29296 3.35207 2.29136 3.35048 2.28978C3.3489 2.28819 3.34731 2.28662 3.34571 2.28505L2.53033 1.46967ZM5.89275 6.95341C4.56075 8.41902 3.75006 10.3644 3.75006 12.5C3.75006 17.0563 7.44371 20.75 12.0001 20.75C14.1357 20.75 16.081 19.9393 17.5466 18.6073L5.89275 6.95341Z" fill="#000"/>
<path d="M18.3219 2.9469C18.5872 2.82088 18.8843 2.75 19.2001 2.75C20.3322 2.75 21.2501 3.66782 21.2501 4.8C21.2501 5.11578 21.1792 5.41291 21.0532 5.67818C20.8754 6.05232 21.0346 6.49971 21.4088 6.67744C21.7829 6.85518 22.2303 6.69596 22.4081 6.32182C22.6276 5.85969 22.7501 5.3431 22.7501 4.8C22.7501 2.83939 21.1607 1.25 19.2001 1.25C18.657 1.25 18.1404 1.37247 17.6782 1.59201C17.3041 1.76974 17.1449 2.21713 17.3226 2.59127C17.5004 2.96541 17.9477 3.12463 18.3219 2.9469Z" fill="#000"/>
<path d="M8.60448 4.97876C9.63912 4.51085 10.7881 4.25 12.0001 4.25C16.5564 4.25 20.2501 7.94365 20.2501 12.5C20.2501 13.7119 19.9892 14.8609 19.5213 15.8956C19.3506 16.273 19.5182 16.7173 19.8956 16.888C20.273 17.0587 20.7174 16.8911 20.888 16.5137C21.442 15.2887 21.7501 13.9293 21.7501 12.5C21.7501 7.11522 17.3848 2.75 12.0001 2.75C10.5708 2.75 9.2114 3.05802 7.98639 3.61202C7.60897 3.78271 7.44138 4.22702 7.61207 4.60444C7.78275 4.98185 8.22707 5.14944 8.60448 4.97876Z" fill="#000"/>
</svg>
