<svg width="24" height="24" viewBox="0 0 24 24" fill="none" xmlns="http://www.w3.org/2000/svg">
<path d="M12.5303 4.53033C12.8232 4.23744 12.8232 3.76256 12.5303 3.46967C12.2374 3.17678 11.7626 3.17678 11.4697 3.46967L3.46967 11.4697C3.17678 11.7626 3.17678 12.2374 3.46967 12.5303L11.4697 20.5303C11.7626 20.8232 12.2374 20.8232 12.5303 20.5303C12.8232 20.2374 12.8232 19.7626 12.5303 19.4697L5.06066 12L12.5303 4.53033Z" fill="#000"/>
<path d="M20.5303 4.53033C20.8232 4.23744 20.8232 3.76256 20.5303 3.46967C20.2374 3.17678 19.7626 3.17678 19.4697 3.46967L11.4697 11.4697C11.1768 11.7626 11.1768 12.2374 11.4697 12.5303L19.4697 20.5303C19.7626 20.8232 20.2374 20.8232 20.5303 20.5303C20.8232 20.2374 20.8232 19.7626 20.5303 19.4697L13.0607 12L20.5303 4.53033Z" fill="#000"/>
</svg>
