<svg width="24" height="24" viewBox="0 0 24 24" fill="none" xmlns="http://www.w3.org/2000/svg">
<path d="M11.4697 4.53033C11.1768 4.23744 11.1768 3.76256 11.4697 3.46967C11.7626 3.17678 12.2374 3.17678 12.5303 3.46967L20.5303 11.4697C20.8232 11.7626 20.8232 12.2374 20.5303 12.5303L12.5303 20.5303C12.2374 20.8232 11.7626 20.8232 11.4697 20.5303C11.1768 20.2374 11.1768 19.7626 11.4697 19.4697L18.9393 12L11.4697 4.53033Z" fill="#000"/>
<path d="M3.46967 4.53033C3.17678 4.23744 3.17678 3.76256 3.46967 3.46967C3.76256 3.17678 4.23744 3.17678 4.53033 3.46967L12.5303 11.4697C12.8232 11.7626 12.8232 12.2374 12.5303 12.5303L4.53033 20.5303C4.23744 20.8232 3.76256 20.8232 3.46967 20.5303C3.17678 20.2374 3.17678 19.7626 3.46967 19.4697L10.9393 12L3.46967 4.53033Z" fill="#000"/>
</svg>
