<svg width="24" height="24" viewBox="0 0 24 24" fill="none" xmlns="http://www.w3.org/2000/svg">
<path d="M14 12.75C14.4142 12.75 14.75 12.4142 14.75 12C14.75 11.5858 14.4142 11.25 14 11.25H10C9.58579 11.25 9.25 11.5858 9.25 12C9.25 12.4142 9.58579 12.75 10 12.75H14Z" fill="#000"/>
<path fill-rule="evenodd" clip-rule="evenodd" d="M4.37109 2.25H19.6289C20.0243 2.24999 20.3654 2.24998 20.6463 2.27293C20.9428 2.29715 21.2377 2.35064 21.5215 2.49524C21.9448 2.71095 22.2891 3.05516 22.5048 3.47852C22.6494 3.76231 22.7029 4.05722 22.7271 4.35373C22.75 4.63463 22.75 4.97567 22.75 5.37098V5.62893C22.75 6.02424 22.75 6.36537 22.7271 6.64627C22.7029 6.94278 22.6494 7.2377 22.5048 7.52148C22.2891 7.94485 21.9448 8.28905 21.5215 8.50477C21.432 8.55036 21.3414 8.5869 21.25 8.61632V16.2321C21.25 17.045 21.25 17.7006 21.2066 18.2315C21.162 18.7781 21.0676 19.2582 20.8413 19.7025C20.4817 20.4081 19.9081 20.9818 19.2025 21.3413C18.7582 21.5676 18.2781 21.662 17.7315 21.7066C17.2006 21.75 16.545 21.75 15.7321 21.75H8.26788C7.45505 21.75 6.79944 21.75 6.26853 21.7066C5.7219 21.662 5.24176 21.5676 4.79754 21.3413C4.09193 20.9818 3.51825 20.4081 3.15873 19.7025C2.93239 19.2582 2.83803 18.7781 2.79336 18.2315C2.74999 17.7006 2.74999 17.0449 2.75 16.2321L2.75 8.61631C2.6586 8.5869 2.56801 8.55036 2.47852 8.50477C2.05516 8.28905 1.71095 7.94485 1.49524 7.52148C1.35064 7.2377 1.29715 6.94278 1.27293 6.64627C1.24998 6.36535 1.24999 6.02429 1.25 5.62894V5.37109C1.24999 4.97574 1.24998 4.63465 1.27293 4.35373C1.29715 4.05722 1.35064 3.76231 1.49524 3.47852C1.71095 3.05516 2.05516 2.71095 2.47852 2.49524C2.76231 2.35064 3.05722 2.29715 3.35373 2.27293C3.63465 2.24998 3.97574 2.24999 4.37109 2.25ZM19.75 8.74998V16.2C19.75 17.0525 19.7494 17.6467 19.7116 18.1093C19.6745 18.5632 19.6054 18.824 19.5048 19.0215C19.289 19.4448 18.9448 19.789 18.5215 20.0048C18.324 20.1054 18.0632 20.1745 17.6093 20.2116C17.1467 20.2494 16.5525 20.25 15.7 20.25H8.3C7.44755 20.25 6.85331 20.2494 6.39068 20.2116C5.93681 20.1745 5.67604 20.1054 5.47852 20.0048C5.05516 19.789 4.71095 19.4448 4.49524 19.0215C4.3946 18.824 4.32547 18.5632 4.28838 18.1093C4.25058 17.6467 4.25 17.0525 4.25 16.2V8.74998H19.75ZM3.47588 3.76795C3.27213 3.78459 3.19659 3.81285 3.15951 3.83175C3.01839 3.90365 2.90365 4.01839 2.83175 4.15951C2.81285 4.19659 2.78459 4.27213 2.76795 4.47588C2.75059 4.68838 2.75 4.96759 2.75 5.4V5.6C2.75 6.03242 2.75059 6.31162 2.76795 6.52412C2.78459 6.72787 2.81285 6.80341 2.83175 6.84049C2.90365 6.98162 3.01839 7.09635 3.15951 7.16826C3.19659 7.18715 3.27213 7.21541 3.47588 7.23206C3.68838 7.24942 3.96759 7.25 4.4 7.25H19.6C20.0324 7.25 20.3116 7.24942 20.5241 7.23206C20.7279 7.21541 20.8034 7.18715 20.8405 7.16826C20.9816 7.09635 21.0964 6.98162 21.1683 6.84049C21.1872 6.80341 21.2154 6.72787 21.2321 6.52412C21.2494 6.31162 21.25 6.03242 21.25 5.6V5.4C21.25 4.96759 21.2494 4.68838 21.2321 4.47588C21.2154 4.27213 21.1872 4.19659 21.1683 4.15951C21.0964 4.01839 20.9816 3.90365 20.8405 3.83175C20.8034 3.81285 20.7279 3.78459 20.5241 3.76795C20.3116 3.75059 20.0324 3.75 19.6 3.75H4.4C3.96759 3.75 3.68838 3.75059 3.47588 3.76795Z" fill="#000"/>
</svg>
