<svg width="24" height="24" viewBox="0 0 24 24" fill="none" xmlns="http://www.w3.org/2000/svg">
<path d="M16.0303 7.96967C15.8897 7.82902 15.6989 7.75 15.5 7.75H10C9.58579 7.75 9.25 8.08579 9.25 8.5C9.25 8.91421 9.58579 9.25 10 9.25H13.6893L7.96967 14.9697C7.67678 15.2626 7.67678 15.7374 7.96967 16.0303C8.26256 16.3232 8.73744 16.3232 9.03033 16.0303L14.75 10.3107V14C14.75 14.4142 15.0858 14.75 15.5 14.75C15.9142 14.75 16.25 14.4142 16.25 14V8.5C16.25 8.30109 16.171 8.11032 16.0303 7.96967Z" fill="#000"/>
<path fill-rule="evenodd" clip-rule="evenodd" d="M0.25 12C0.25 5.51065 5.51065 0.25 12 0.25C18.4893 0.25 23.75 5.51065 23.75 12C23.75 18.4893 18.4893 23.75 12 23.75C5.51065 23.75 0.25 18.4893 0.25 12ZM12 1.75C6.33908 1.75 1.75 6.33908 1.75 12C1.75 17.6609 6.33908 22.25 12 22.25C17.6609 22.25 22.25 17.6609 22.25 12C22.25 6.33908 17.6609 1.75 12 1.75Z" fill="#000"/>
</svg>
