<svg width="24" height="24" viewBox="0 0 24 24" fill="none" xmlns="http://www.w3.org/2000/svg">
<g clip-path="url(#clip0_9002_7964)">
<path d="M7.96967 16.0303C8.11032 16.171 8.30109 16.25 8.5 16.25H14C14.4142 16.25 14.75 15.9142 14.75 15.5C14.75 15.0858 14.4142 14.75 14 14.75H10.3107L16.0303 9.03033C16.3232 8.73744 16.3232 8.26256 16.0303 7.96967C15.7374 7.67678 15.2626 7.67678 14.9697 7.96967L9.25 13.6893V10C9.25 9.58579 8.91421 9.25 8.5 9.25C8.08579 9.25 7.75 9.58579 7.75 10V15.5C7.75 15.6989 7.82902 15.8897 7.96967 16.0303Z" fill="#000"/>
<path fill-rule="evenodd" clip-rule="evenodd" d="M0.25 12C0.25 5.51065 5.51065 0.25 12 0.25C18.4893 0.25 23.75 5.51065 23.75 12C23.75 18.4893 18.4893 23.75 12 23.75C5.51065 23.75 0.25 18.4893 0.25 12ZM12 1.75C6.33908 1.75 1.75 6.33908 1.75 12C1.75 17.6609 6.33908 22.25 12 22.25C17.6609 22.25 22.25 17.6609 22.25 12C22.25 6.33908 17.6609 1.75 12 1.75Z" fill="#000"/>
</g>
<defs>
<clipPath id="clip0_9002_7964">
<rect width="24" height="24" fill="white"/>
</clipPath>
</defs>
</svg>
