<svg width="24" height="24" viewBox="0 0 24 24" fill="none" xmlns="http://www.w3.org/2000/svg">
<g clip-path="url(#clip0_9002_7884)">
<path d="M16.5303 12.4697C16.2374 12.1768 15.7626 12.1768 15.4697 12.4697L12.75 15.1893V7C12.75 6.58579 12.4142 6.25 12 6.25C11.5858 6.25 11.25 6.58579 11.25 7V15.1893L8.53033 12.4697C8.23744 12.1768 7.76256 12.1768 7.46967 12.4697C7.17678 12.7626 7.17678 13.2374 7.46967 13.5303L11.4697 17.5303C11.6103 17.671 11.8011 17.75 12 17.75C12.1989 17.75 12.3897 17.671 12.5303 17.5303L16.5303 13.5303C16.8232 13.2374 16.8232 12.7626 16.5303 12.4697Z" fill="#000"/>
<path fill-rule="evenodd" clip-rule="evenodd" d="M0.25 12C0.25 5.51065 5.51065 0.25 12 0.25C18.4893 0.25 23.75 5.51065 23.75 12C23.75 18.4893 18.4893 23.75 12 23.75C5.51065 23.75 0.25 18.4893 0.25 12ZM12 1.75C6.33908 1.75 1.75 6.33908 1.75 12C1.75 17.6609 6.33908 22.25 12 22.25C17.6609 22.25 22.25 17.6609 22.25 12C22.25 6.33908 17.6609 1.75 12 1.75Z" fill="#000"/>
</g>
<defs>
<clipPath id="clip0_9002_7884">
<rect width="24" height="24" fill="white"/>
</clipPath>
</defs>
</svg>
