<svg width="24" height="24" viewBox="0 0 24 24" fill="none" xmlns="http://www.w3.org/2000/svg">
<path d="M17.5496 4.59896C16.0037 3.43778 14.0832 2.75 12 2.75C6.89136 2.75 2.75 6.89137 2.75 12C2.75 17.1086 6.89136 21.25 12 21.25C16.1407 21.25 19.6478 18.5288 20.8267 14.7753C20.9508 14.3801 21.3718 14.1603 21.7669 14.2845C22.1621 14.4086 22.3819 14.8296 22.2577 15.2247C20.8881 19.5854 16.8146 22.75 12 22.75C6.06294 22.75 1.25 17.9371 1.25 12C1.25 6.06294 6.06294 1.25 12 1.25C14.4192 1.25 16.6537 2.05002 18.4505 3.39961C19.1955 3.95925 19.9847 4.75246 20.6497 5.52046C20.8599 5.76322 21.062 6.00856 21.25 6.24857V2.5C21.25 2.08579 21.5858 1.75 22 1.75C22.4142 1.75 22.75 2.08579 22.75 2.5V8C22.75 8.41421 22.4142 8.75 22 8.75H21.5575C21.5477 8.75019 21.538 8.75019 21.5282 8.75H16.5C16.0858 8.75 15.75 8.41421 15.75 8C15.75 7.58579 16.0858 7.25 16.5 7.25H20.1286C19.9443 7.01164 19.738 6.75904 19.5157 6.50232C18.8883 5.77778 18.1775 5.07064 17.5496 4.59896Z" fill="#000"/>
</svg>
