<svg width="24" height="24" viewBox="0 0 24 24" fill="none" xmlns="http://www.w3.org/2000/svg">
<path d="M12.001 21.25C16.4752 21.25 20.2089 18.0726 21.0659 13.8508C21.1483 13.4449 21.5442 13.1826 21.9501 13.265C22.3561 13.3474 22.6184 13.7433 22.5359 14.1492C21.5399 19.0563 17.2026 22.75 12.001 22.75C8.06397 22.75 4.62259 20.6338 2.75 17.4785L2.75 20C2.75 20.4142 2.41421 20.75 2 20.75C1.58579 20.75 1.25 20.4142 1.25 20L1.25 15.5C1.25 15.0858 1.58579 14.75 2 14.75H2.61301C2.62468 14.7497 2.63633 14.7497 2.64795 14.75H6.5C6.91421 14.75 7.25 15.0858 7.25 15.5C7.25 15.9142 6.91421 16.25 6.5 16.25H3.78276C5.32242 19.2211 8.42553 21.25 12.001 21.25Z" fill="#000"/>
<path d="M2.93492 10.1492C3.79191 5.92737 7.52568 2.75 11.9999 2.75C15.5753 2.75 18.6784 4.77887 20.2181 7.75L17.5004 7.75C17.0862 7.75 16.7504 8.08579 16.7504 8.5C16.7504 8.91421 17.0862 9.25 17.5004 9.25L21.353 9.25C21.3645 9.25027 21.3762 9.25027 21.3878 9.25H22.0009C22.1998 9.25 22.3906 9.17097 22.5312 9.0303C22.6719 8.88963 22.7509 8.69884 22.7509 8.49992L22.7504 3.99992C22.7503 3.5857 22.4145 3.24996 22.0003 3.25C21.5861 3.25004 21.2503 3.58587 21.2504 4.00008L21.2506 6.52113C19.378 3.36599 15.9367 1.25 11.9999 1.25C6.79825 1.25 2.461 4.94367 1.46491 9.8508C1.3825 10.2567 1.64478 10.6526 2.05072 10.735C2.45665 10.8174 2.85252 10.5551 2.93492 10.1492Z" fill="#000"/>
</svg>
