<svg width="24" height="24" viewBox="0 0 24 24" fill="none" xmlns="http://www.w3.org/2000/svg">
<path d="M12.001 21.2499C16.4752 21.2499 20.2089 18.0725 21.0659 13.8507C21.1483 13.4447 21.5442 13.1825 21.9501 13.2649C22.3561 13.3473 22.6184 13.7431 22.5359 14.1491C21.5399 19.0562 17.2026 22.7499 12.001 22.7499C8.06397 22.7499 4.62259 20.6337 2.75 17.4784L2.75 19.9999C2.75 20.4141 2.41421 20.7499 2 20.7499C1.58579 20.7499 1.25 20.4141 1.25 19.9999L1.25 15.4999C1.25 15.0857 1.58579 14.7499 2 14.7499H2.61301C2.62468 14.7496 2.63633 14.7496 2.64795 14.7499H6.5C6.91421 14.7499 7.25 15.0857 7.25 15.4999C7.25 15.9141 6.91421 16.2499 6.5 16.2499H3.78276C5.32242 19.221 8.42553 21.2499 12.001 21.2499Z" fill="#000"/>
<path d="M2.93492 10.1491C3.79191 5.92725 7.52568 2.74988 11.9999 2.74988C15.5753 2.74988 18.6784 4.77875 20.2181 7.74988L17.5004 7.74988C17.0862 7.74988 16.7504 8.08566 16.7504 8.49988C16.7504 8.91409 17.0862 9.24988 17.5004 9.24988L21.353 9.24988C21.3645 9.25015 21.3762 9.25015 21.3878 9.24988H22.0009C22.1998 9.24988 22.3906 9.17085 22.5312 9.03018C22.6719 8.88951 22.7509 8.69872 22.7509 8.4998L22.7504 3.99979C22.7503 3.58558 22.4145 3.24983 22.0003 3.24988C21.5861 3.24992 21.2503 3.58575 21.2504 3.99996L21.2506 6.52101C19.378 3.36587 15.9367 1.24988 11.9999 1.24988C6.79825 1.24988 2.461 4.94355 1.46491 9.85068C1.3825 10.2566 1.64478 10.6525 2.05072 10.7349C2.45665 10.8173 2.85252 10.555 2.93492 10.1491Z" fill="#000"/>
</svg>
