<svg width="24" height="24" viewBox="0 0 24 24" fill="none" xmlns="http://www.w3.org/2000/svg">
<path fill-rule="evenodd" clip-rule="evenodd" d="M2.75 12C2.75 6.89137 6.89137 2.75 12 2.75C17.1086 2.75 21.25 6.89137 21.25 12C21.25 13.1734 21.0383 14.1378 20.6629 14.8134C20.3008 15.465 19.795 15.8431 19.1228 15.9391C18.4556 16.0344 17.8841 15.7884 17.4575 15.3333C17.0194 14.8661 16.75 14.1888 16.75 13.5V8.25C16.75 7.83579 16.4142 7.5 16 7.5C15.5858 7.5 15.25 7.83579 15.25 8.25V8.53588C14.4003 7.73843 13.2572 7.25 12 7.25C9.37665 7.25 7.25 9.37665 7.25 12C7.25 14.6234 9.37665 16.75 12 16.75C13.4256 16.75 14.7045 16.122 15.5752 15.1275C15.7637 15.5835 16.0301 16.004 16.3633 16.3593C17.0817 17.1255 18.1247 17.5969 19.3349 17.4241C20.5402 17.2519 21.42 16.5391 21.9741 15.542C22.5148 14.5689 22.75 13.3266 22.75 12C22.75 6.06294 17.9371 1.25 12 1.25C6.06294 1.25 1.25 6.06294 1.25 12C1.25 17.9371 6.06294 22.75 12 22.75C12.4142 22.75 12.75 22.4142 12.75 22C12.75 21.5858 12.4142 21.25 12 21.25C6.89137 21.25 2.75 17.1086 2.75 12ZM15.25 12C15.25 13.7949 13.7949 15.25 12 15.25C10.2051 15.25 8.75 13.7949 8.75 12C8.75 10.2051 10.2051 8.75 12 8.75C13.7949 8.75 15.25 10.2051 15.25 12Z" fill="#000"/>
</svg>
