<svg width="24" height="24" viewBox="0 0 24 24" fill="none" xmlns="http://www.w3.org/2000/svg">
<path fill-rule="evenodd" clip-rule="evenodd" d="M9.04404 5.18597C10.6002 4.08204 12.7538 5.19471 12.7538 7.10266V9.64834L19.044 5.18597C20.6002 4.08204 22.7538 5.19471 22.7538 7.10266V16.8991C22.7538 18.8071 20.6002 19.9198 19.044 18.8158L12.7538 14.3534V16.8991C12.7538 18.8071 10.6002 19.9198 9.04405 18.8158L2.3118 14.0399C0.907135 13.0434 0.907132 10.9583 2.3118 9.96186L9.04404 5.18597ZM11.2538 7.10266C11.2538 6.41255 10.4748 6.01009 9.91194 6.40939L3.1797 11.1853C2.61783 11.5839 2.61783 12.4179 3.1797 12.8165L9.91195 17.5924C10.4748 17.9917 11.2538 17.5892 11.2538 16.8991V7.10266ZM21.2538 7.10266C21.2538 6.41255 20.4748 6.01009 19.9119 6.40939L13.1797 11.1853C12.6178 11.5839 12.6178 12.4179 13.1797 12.8165L19.9119 17.5924C20.4748 17.9917 21.2538 17.5892 21.2538 16.8991V7.10266Z" fill="#000"/>
</svg>
