<svg width="24" height="24" viewBox="0 0 24 24" fill="none" xmlns="http://www.w3.org/2000/svg">
<path d="M9.75 9C9.75 8.58579 10.0858 8.25 10.5 8.25H13.5C13.9142 8.25 14.25 8.58579 14.25 9C14.25 9.41421 13.9142 9.75 13.5 9.75H10.5C10.0858 9.75 9.75 9.41421 9.75 9Z" fill="#000"/>
<path fill-rule="evenodd" clip-rule="evenodd" d="M12.6289 1.25H11.3711C10.9757 1.24999 10.6347 1.24998 10.3537 1.27293C10.0572 1.29715 9.76231 1.35064 9.47852 1.49524C9.05516 1.71095 8.71095 2.05516 8.49524 2.47852C8.35064 2.76231 8.29715 3.05722 8.27293 3.35373C8.24998 3.63466 8.24999 3.97573 8.25 4.37109V4.38878C7.91847 4.44039 7.61627 4.51118 7.33031 4.60825C5.34317 5.28279 3.78279 6.84317 3.10825 8.83031C2.74961 9.88682 2.74976 11.1652 2.75001 13.3244L2.75003 18.0314C2.75002 18.7048 2.75001 19.2555 2.78658 19.7031C2.82443 20.1664 2.90516 20.5848 3.10426 20.9755C3.41584 21.587 3.91303 22.0842 4.52456 22.3958C4.9153 22.5949 5.3337 22.6756 5.79696 22.7135C6.12859 22.7406 6.51684 22.7476 6.96967 22.7494C6.97973 22.7498 6.98984 22.75 7 22.75H17C17.0102 22.75 17.0203 22.7498 17.0303 22.7494C17.4832 22.7476 17.8715 22.7406 18.2031 22.7135C18.6664 22.6756 19.0848 22.5949 19.4755 22.3958C20.087 22.0842 20.5842 21.587 20.8958 20.9755C21.0949 20.5848 21.1756 20.1664 21.2135 19.7031C21.25 19.2555 21.25 18.7048 21.25 18.0315L21.25 13.3244C21.2503 11.1652 21.2504 9.88681 20.8918 8.83031C20.2173 6.84317 18.6569 5.28279 16.6697 4.60825C16.3838 4.51118 16.0815 4.44039 15.75 4.38877V4.3711C15.75 3.97574 15.75 3.63466 15.7271 3.35373C15.7028 3.05722 15.6494 2.76231 15.5048 2.47852C15.2891 2.05516 14.9448 1.71095 14.5215 1.49524C14.2377 1.35064 13.9428 1.29715 13.6463 1.27293C13.3653 1.24998 13.0243 1.24999 12.6289 1.25ZM14.25 4.26813C14.2497 3.9094 14.2476 3.66596 14.2321 3.47588C14.2154 3.27213 14.1872 3.19659 14.1683 3.15951C14.0964 3.01839 13.9816 2.90365 13.8405 2.83175C13.8034 2.81285 13.7279 2.78459 13.5241 2.76795C13.3116 2.75059 13.0324 2.75 12.6 2.75H11.4C10.9676 2.75 10.6884 2.75059 10.4759 2.76795C10.2721 2.78459 10.1966 2.81285 10.1595 2.83175C10.0184 2.90365 9.90365 3.01839 9.83175 3.15951C9.81285 3.19659 9.78459 3.27213 9.76795 3.47588C9.75242 3.66596 9.75031 3.9094 9.75004 4.26813C10.3426 4.24984 11.0228 4.24992 11.8244 4.25001H12.1757C12.9773 4.24992 13.6575 4.24984 14.25 4.26813ZM18.0809 21.2185C17.9793 21.2268 17.8697 21.2329 17.75 21.2374V16.1695C17.75 15.6354 17.75 15.1896 17.7203 14.8253C17.6892 14.4454 17.6221 14.0888 17.4503 13.7515C17.1866 13.2341 16.7659 12.8134 16.2485 12.5497C15.9112 12.3779 15.5546 12.3108 15.1747 12.2797C14.8104 12.25 14.3646 12.25 13.8304 12.25H10.1696C9.63541 12.25 9.18956 12.25 8.82533 12.2797C8.44545 12.3108 8.08879 12.3779 7.75153 12.5497C7.23408 12.8134 6.81338 13.2341 6.54973 13.7515C6.37789 14.0888 6.31078 14.4454 6.27974 14.8253C6.24998 15.1896 6.24999 15.6354 6.25 16.1696V16.4991C6.25 16.4988 6.25 16.4994 6.25 16.4991C6.25 16.4994 6.25 16.5006 6.25 16.5009L6.25 21.2374C6.13035 21.2329 6.02077 21.2268 5.91911 21.2185C5.54861 21.1882 5.34958 21.1327 5.20554 21.0593C4.87626 20.8915 4.60854 20.6238 4.44077 20.2945C4.36737 20.1505 4.31187 19.9514 4.2816 19.5809C4.25061 19.2017 4.25003 18.7125 4.25003 18V13.5C4.25003 11.112 4.26006 10.1037 4.52864 9.31247C5.05329 7.76692 6.26692 6.55329 7.81247 6.02864C8.60369 5.76006 9.61202 5.75003 12 5.75003C14.388 5.75003 15.3964 5.76006 16.1876 6.02864C17.7331 6.55329 18.9468 7.76692 19.4714 9.31247C19.74 10.1037 19.75 11.112 19.75 13.5V18C19.75 18.7125 19.7494 19.2017 19.7185 19.5809C19.6882 19.9514 19.6327 20.1505 19.5593 20.2945C19.3915 20.6238 19.1238 20.8915 18.7945 21.0593C18.6505 21.1327 18.4514 21.1882 18.0809 21.2185ZM7.75 17.25V21.25H16.25V17.25H7.75ZM16.2493 15.75C16.2477 15.4137 16.2425 15.1582 16.2252 14.9475C16.2018 14.6604 16.1599 14.5231 16.1138 14.4325C15.9939 14.1973 15.8027 14.0061 15.5675 13.8862C15.4769 13.8401 15.3396 13.7982 15.0525 13.7748C14.7566 13.7506 14.3724 13.75 13.8 13.75H10.2C9.62757 13.75 9.24336 13.7506 8.94748 13.7748C8.66036 13.7982 8.52307 13.8401 8.43251 13.8862C8.19731 14.0061 8.00608 14.1973 7.88624 14.4325C7.8401 14.5231 7.79822 14.6604 7.77476 14.9475C7.75754 15.1582 7.75229 15.4137 7.7507 15.75H16.2493Z" fill="#000"/>
</svg>
