<svg width="24" height="24" viewBox="0 0 24 24" fill="none" xmlns="http://www.w3.org/2000/svg">
<path fill-rule="evenodd" clip-rule="evenodd" d="M14.0442 5.18011C15.6003 4.07618 17.7539 5.18885 17.7539 7.0968V16.8933C17.7539 18.8012 15.6003 19.9139 14.0442 18.81L7.31195 14.0341C7.29099 14.0192 7.27034 14.0041 7.25 13.9887L7.25 18.4999C7.25 18.9141 6.91421 19.2499 6.5 19.2499C6.08579 19.2499 5.75 18.9141 5.75 18.4999V5.49988C5.75 5.08566 6.08579 4.74988 6.5 4.74988C6.91421 4.74988 7.25 5.08566 7.25 5.49988L7.25 10.0013C7.27034 9.98599 7.29099 9.97088 7.31195 9.956L14.0442 5.18011ZM16.2539 7.0968C16.2539 6.40669 15.475 6.00423 14.9121 6.40353L8.17985 11.1794C7.61798 11.578 7.61798 12.4121 8.17985 12.8106L14.9121 17.5865C15.475 17.9858 16.2539 17.5834 16.2539 16.8933V7.0968Z" fill="#000"/>
</svg>
