<svg width="24" height="24" viewBox="0 0 24 24" fill="none" xmlns="http://www.w3.org/2000/svg">
<path fill-rule="evenodd" clip-rule="evenodd" d="M12 0.25C18.4893 0.25 23.75 5.51065 23.75 12C23.75 18.4893 18.4893 23.75 12 23.75C5.51065 23.75 0.25 18.4893 0.25 12C0.25 5.51065 5.51065 0.25 12 0.25ZM22.25 12C22.25 6.33908 17.6609 1.75 12 1.75C9.43949 1.75 7.09826 2.68887 5.30179 4.24113L19.7589 18.6982C21.3111 16.9017 22.25 14.5605 22.25 12ZM18.6982 19.7589C16.9017 21.3111 14.5605 22.25 12 22.25C6.33908 22.25 1.75 17.6609 1.75 12C1.75 9.43949 2.68887 7.09826 4.24113 5.30179L18.6982 19.7589Z" fill="#000"/>
</svg>
