<svg width="24" height="24" viewBox="0 0 24 24" fill="none" xmlns="http://www.w3.org/2000/svg">
<path d="M12.7498 6C12.7498 5.58579 12.414 5.25 11.9998 5.25C11.5856 5.25 11.2498 5.58579 11.2498 6V7.5C11.2498 7.91421 11.5856 8.25 11.9998 8.25C12.414 8.25 12.7498 7.91421 12.7498 7.5V6Z" fill="#000"/>
<path fill-rule="evenodd" clip-rule="evenodd" d="M13.7834 1.78378C12.7005 1.07272 11.2987 1.07272 10.2158 1.78378L2.15299 7.07791C0.492826 8.168 1.26468 10.7497 3.25073 10.7497H20.7485C22.7345 10.7497 23.5064 8.168 21.8462 7.07791L13.7834 1.78378ZM11.0391 3.03765C11.6222 2.65477 12.377 2.65477 12.9601 3.03765L21.0229 8.33178C21.438 8.6043 21.245 9.24973 20.7485 9.24973H3.25073C2.75421 9.24973 2.56125 8.6043 2.97629 8.33178L11.0391 3.03765Z" fill="#000"/>
<path d="M18.7498 12.25C19.164 12.25 19.4998 12.5858 19.4998 13V16C19.4998 16.4142 19.164 16.75 18.7498 16.75C18.3356 16.75 17.9998 16.4142 17.9998 16V13C17.9998 12.5858 18.3356 12.25 18.7498 12.25Z" fill="#000"/>
<path d="M14.9998 13C14.9998 12.5858 14.664 12.25 14.2498 12.25C13.8356 12.25 13.4998 12.5858 13.4998 13V16C13.4998 16.4142 13.8356 16.75 14.2498 16.75C14.664 16.75 14.9998 16.4142 14.9998 16V13Z" fill="#000"/>
<path d="M9.74979 12.25C10.164 12.25 10.4998 12.5858 10.4998 13V16C10.4998 16.4142 10.164 16.75 9.74979 16.75C9.33557 16.75 8.99979 16.4142 8.99979 16V13C8.99979 12.5858 9.33557 12.25 9.74979 12.25Z" fill="#000"/>
<path d="M5.99979 13C5.99979 12.5858 5.664 12.25 5.24979 12.25C4.83557 12.25 4.49979 12.5858 4.49979 13V16C4.49979 16.4142 4.83557 16.75 5.24979 16.75C5.664 16.75 5.99979 16.4142 5.99979 16V13Z" fill="#000"/>
<path d="M2.74979 19C2.74979 18.5858 3.08557 18.25 3.49979 18.25H20.4998C20.914 18.25 21.2498 18.5858 21.2498 19C21.2498 19.4142 20.914 19.75 20.4998 19.75H3.49979C3.08557 19.75 2.74979 19.4142 2.74979 19Z" fill="#000"/>
<path d="M1.99979 21.25C1.58557 21.25 1.24979 21.5858 1.24979 22C1.24979 22.4142 1.58557 22.75 1.99979 22.75H21.9998C22.414 22.75 22.7498 22.4142 22.7498 22C22.7498 21.5858 22.414 21.25 21.9998 21.25H1.99979Z" fill="#000"/>
</svg>
