<svg width="24" height="24" viewBox="0 0 24 24" fill="none" xmlns="http://www.w3.org/2000/svg">
<path d="M12.75 6C12.75 5.58579 12.4142 5.25 12 5.25C11.5858 5.25 11.25 5.58579 11.25 6V7.5C11.25 7.91421 11.5858 8.25 12 8.25C12.4142 8.25 12.75 7.91421 12.75 7.5V6Z" fill="#000"/>
<path fill-rule="evenodd" clip-rule="evenodd" d="M13.7837 1.78378C12.7007 1.07272 11.299 1.07272 10.216 1.78378L2.15323 7.07791C0.49307 8.168 1.26492 10.7497 3.25097 10.7497H20.7487C22.7348 10.7497 23.5066 8.168 21.8465 7.07791L13.7837 1.78378ZM11.0393 3.03765C11.6224 2.65477 12.3773 2.65477 12.9604 3.03765L21.0232 8.33178C21.4382 8.6043 21.2452 9.24973 20.7487 9.24973H3.25097C2.75445 9.24973 2.5615 8.6043 2.97654 8.33178L11.0393 3.03765Z" fill="#000"/>
<path d="M18.75 12.25C19.1642 12.25 19.5 12.5858 19.5 13V16C19.5 16.4142 19.1642 16.75 18.75 16.75C18.3358 16.75 18 16.4142 18 16V13C18 12.5858 18.3358 12.25 18.75 12.25Z" fill="#000"/>
<path d="M15 13C15 12.5858 14.6642 12.25 14.25 12.25C13.8358 12.25 13.5 12.5858 13.5 13V16C13.5 16.4142 13.8358 16.75 14.25 16.75C14.6642 16.75 15 16.4142 15 16V13Z" fill="#000"/>
<path d="M9.75003 12.25C10.1642 12.25 10.5 12.5858 10.5 13V16C10.5 16.4142 10.1642 16.75 9.75003 16.75C9.33582 16.75 9.00003 16.4142 9.00003 16V13C9.00003 12.5858 9.33582 12.25 9.75003 12.25Z" fill="#000"/>
<path d="M6.00003 13C6.00003 12.5858 5.66424 12.25 5.25003 12.25C4.83582 12.25 4.50003 12.5858 4.50003 13V16C4.50003 16.4142 4.83582 16.75 5.25003 16.75C5.66424 16.75 6.00003 16.4142 6.00003 16V13Z" fill="#000"/>
<path d="M2.75003 19C2.75003 18.5858 3.08582 18.25 3.50003 18.25H20.5C20.9142 18.25 21.25 18.5858 21.25 19C21.25 19.4142 20.9142 19.75 20.5 19.75H3.50003C3.08582 19.75 2.75003 19.4142 2.75003 19Z" fill="#000"/>
<path d="M2.00003 21.25C1.58582 21.25 1.25003 21.5858 1.25003 22C1.25003 22.4142 1.58582 22.75 2.00003 22.75H22C22.4142 22.75 22.75 22.4142 22.75 22C22.75 21.5858 22.4142 21.25 22 21.25H2.00003Z" fill="#000"/>
</svg>
