<svg width="24" height="24" viewBox="0 0 24 24" fill="none" xmlns="http://www.w3.org/2000/svg">
<path d="M8.75001 14.5C8.75001 14.0858 8.41423 13.75 8.00001 13.75C7.5858 13.75 7.25001 14.0858 7.25001 14.5L7.25 18C7.25 18.4142 7.58578 18.75 8 18.75C8.41421 18.75 8.75 18.4142 8.75 18L8.75001 14.5Z" fill="#000"/>
<path d="M12.75 14.5C12.75 14.0858 12.4142 13.75 12 13.75C11.5858 13.75 11.25 14.0858 11.25 14.5L11.25 18C11.25 18.4142 11.5858 18.75 12 18.75C12.4142 18.75 12.75 18.4142 12.75 18L12.75 14.5Z" fill="#000"/>
<path d="M16.75 14.5C16.75 14.0858 16.4142 13.75 16 13.75C15.5858 13.75 15.25 14.0858 15.25 14.5L15.25 18C15.25 18.4142 15.5858 18.75 16 18.75C16.4142 18.75 16.75 18.4142 16.75 18L16.75 14.5Z" fill="#000"/>
<path fill-rule="evenodd" clip-rule="evenodd" d="M9.93012 1.38564C10.2695 1.62318 10.352 2.09082 10.1144 2.43016L7.44054 6.25006H16.5595L13.8856 2.43016C13.648 2.09082 13.7305 1.62318 14.0699 1.38564C14.4092 1.1481 14.8769 1.23063 15.1144 1.56997L18.3904 6.25006L20.0838 6.25001C20.4646 6.2496 20.7931 6.24925 21.0822 6.32673C21.8587 6.53478 22.4652 7.14126 22.6732 7.91772C22.7507 8.20687 22.7503 8.5354 22.7499 8.91619L22.7499 9.00006L22.7499 9.08394C22.7503 9.46473 22.7507 9.79326 22.6732 10.0824C22.5247 10.6365 22.1733 11.1041 21.702 11.4021L20.8994 17.2879C20.7858 18.1208 20.6948 18.7882 20.5789 19.3263C20.4597 19.88 20.3035 20.3519 20.0318 20.7796C19.5925 21.4707 18.9629 22.0203 18.2188 22.3621C17.7583 22.5736 17.2697 22.6646 16.705 22.7079C16.1562 22.7501 15.4825 22.7501 14.642 22.7501H9.3581C8.51752 22.7501 7.84384 22.7501 7.29504 22.7079C6.73033 22.6646 6.24166 22.5736 5.78124 22.3621C5.03705 22.0203 4.40747 21.4707 3.96823 20.7796C3.69648 20.3519 3.54035 19.88 3.42108 19.3263C3.30517 18.7882 3.21415 18.1208 3.10058 17.2879L2.29798 11.4021C1.82668 11.1041 1.47526 10.6365 1.32678 10.0824C1.24931 9.79326 1.24965 9.46474 1.25006 9.08395L1.25012 9.00006L1.25006 8.91618C1.24965 8.53539 1.24931 8.20687 1.32678 7.91772C1.53483 7.14126 2.14131 6.53478 2.91776 6.32673C3.2069 6.24925 3.53542 6.2496 3.9162 6.25001L5.60958 6.25006L8.88561 1.56997C9.12314 1.23063 9.59079 1.1481 9.93012 1.38564ZM4.00009 7.75006C3.48682 7.75006 3.37731 7.75651 3.30598 7.77562C3.04716 7.84497 2.845 8.04713 2.77566 8.30595C2.75654 8.37728 2.7501 8.48679 2.7501 9.00006C2.7501 9.51334 2.75654 9.62284 2.77566 9.69418C2.845 9.953 3.04716 10.1552 3.30598 10.2245C3.37731 10.2436 3.48682 10.2501 4.00009 10.2501H19.9999C20.5132 10.2501 20.6227 10.2436 20.694 10.2245C20.9528 10.1552 21.155 9.953 21.2243 9.69418C21.2435 9.62284 21.2499 9.51334 21.2499 9.00006C21.2499 8.48679 21.2435 8.37728 21.2243 8.30595C21.155 8.04713 20.9528 7.84497 20.694 7.77562C20.6227 7.75651 20.5132 7.75006 19.9999 7.75006H4.00009ZM3.85932 11.7502L4.58274 17.0554C4.70132 17.9249 4.78507 18.5353 4.88743 19.0105C4.98781 19.4765 5.09545 19.7567 5.23421 19.975C5.51842 20.4223 5.9258 20.7779 6.40733 20.9991C6.64243 21.107 6.93458 21.1758 7.40989 21.2123C7.89455 21.2496 8.5106 21.2501 9.38822 21.2501H14.6118C15.4894 21.2501 16.1054 21.2496 16.5901 21.2123C17.0654 21.1758 17.3576 21.107 17.5927 20.9991C18.0742 20.7779 18.4816 20.4223 18.7658 19.975C18.9046 19.7567 19.0122 19.4765 19.1126 19.0105C19.2149 18.5353 19.2987 17.9249 19.4173 17.0554L20.1407 11.7502H3.85932Z" fill="#000"/>
</svg>
