<svg width="24" height="24" viewBox="0 0 24 24" fill="none" xmlns="http://www.w3.org/2000/svg">
<path fill-rule="evenodd" clip-rule="evenodd" d="M8.93009 0.385518C9.26943 0.623054 9.35195 1.0907 9.11442 1.43004L6.44049 5.24994H15.5595L12.8856 1.43004C12.648 1.0907 12.7306 0.623054 13.0699 0.385518C13.4092 0.147983 13.8769 0.230509 14.1144 0.569846L17.3905 5.24994L19.0839 5.24988C19.4647 5.24948 19.7932 5.24913 20.0823 5.32661C20.8588 5.53466 21.4653 6.14114 21.6733 6.9176C21.7508 7.20675 21.7505 7.53527 21.7501 7.91607L21.75 7.99994L21.7501 8.08382C21.7505 8.46461 21.7508 8.79314 21.6733 9.08229C21.5246 9.63745 21.1721 10.1057 20.6995 10.4036C20.6172 10.7823 20.256 11.0399 19.8654 10.9867C19.6838 10.9619 19.5263 10.8741 19.412 10.7483C19.3071 10.7502 19.1979 10.7501 19.084 10.75L2.85919 10.7501L3.8303 17.8715C4.01611 19.2341 5.17989 20.25 6.55509 20.25H10.5815C10.9957 20.25 11.3315 20.5858 11.3315 21C11.3315 21.4142 10.9957 21.75 10.5815 21.75H6.55509C4.42979 21.75 2.63121 20.18 2.34406 18.0742L1.29784 10.4019C0.826545 10.104 0.475139 9.63641 0.326661 9.08229C0.249184 8.79314 0.249532 8.46462 0.249935 8.08382L0.249994 7.99994L0.249935 7.91606C0.249532 7.53527 0.249184 7.20675 0.326661 6.9176C0.534712 6.14114 1.14119 5.53466 1.91765 5.32661C2.2068 5.24913 2.53532 5.24948 2.91611 5.24988L4.6095 5.24994L7.88557 0.569846C8.12311 0.230509 8.59075 0.147983 8.93009 0.385518ZM2.99999 6.74994C2.48672 6.74994 2.37721 6.75638 2.30588 6.7755C2.04706 6.84485 1.8449 7.04701 1.77555 7.30583C1.75644 7.37716 1.74999 7.48667 1.74999 7.99994C1.74999 8.51321 1.75644 8.62272 1.77555 8.69406C1.8449 8.95288 2.04706 9.15504 2.30588 9.22439C2.37721 9.2435 2.48672 9.24994 2.99999 9.24994H19C19.5133 9.24994 19.6228 9.2435 19.6941 9.22439C19.9529 9.15504 20.1551 8.95288 20.2244 8.69406C20.2436 8.62272 20.25 8.51321 20.25 7.99994C20.25 7.48667 20.2436 7.37716 20.2244 7.30583C20.1551 7.04701 19.9529 6.84485 19.6941 6.7755C19.6228 6.75638 19.5133 6.74994 19 6.74994H2.99999Z" fill="#000"/>
<path d="M7.0001 12.751C7.41431 12.751 7.7501 13.0868 7.7501 13.501L7.75009 17.0011C7.75009 17.4153 7.4143 17.7511 7.00009 17.7511C6.58587 17.7511 6.25009 17.4153 6.25009 17.0011L6.2501 13.501C6.2501 13.0868 6.58589 12.751 7.0001 12.751Z" fill="#000"/>
<path d="M11.0002 12.751C11.4144 12.751 11.7502 13.0868 11.7502 13.501L11.7502 14.1235C11.7502 14.5378 11.4144 14.8735 11.0002 14.8735C10.586 14.8735 10.2502 14.5378 10.2502 14.1235L10.2502 13.501C10.2502 13.0868 10.586 12.751 11.0002 12.751Z" fill="#000"/>
<path d="M18.625 17.0089L19.558 17.9419C19.8021 18.186 20.1978 18.186 20.4419 17.9419C20.686 17.6978 20.686 17.3021 20.4419 17.058L18.4419 15.058C18.3247 14.9408 18.1658 14.875 18 14.875C17.8342 14.875 17.6753 14.9408 17.5581 15.058L15.558 17.0581C15.314 17.3021 15.314 17.6979 15.558 17.9419C15.8021 18.186 16.1978 18.186 16.4419 17.9419L17.375 17.0089V20.5C17.375 20.8452 17.6548 21.125 18 21.125C18.3452 21.125 18.625 20.8452 18.625 20.5V17.0089Z" fill="#000"/>
<path fill-rule="evenodd" clip-rule="evenodd" d="M18 12.25C14.8244 12.25 12.25 14.8244 12.25 18C12.25 21.1756 14.8244 23.75 18 23.75C21.1756 23.75 23.75 21.1756 23.75 18C23.75 14.8244 21.1756 12.25 18 12.25ZM13.75 18C13.75 15.6528 15.6528 13.75 18 13.75C20.3472 13.75 22.25 15.6528 22.25 18C22.25 20.3472 20.3472 22.25 18 22.25C15.6528 22.25 13.75 20.3472 13.75 18Z" fill="#000"/>
</svg>
