<svg width="24" height="24" viewBox="0 0 24 24" fill="none" xmlns="http://www.w3.org/2000/svg">
<path fill-rule="evenodd" clip-rule="evenodd" d="M2.53033 1.46967C2.23744 1.17678 1.76256 1.17678 1.46967 1.46967C1.17678 1.76256 1.17678 2.23744 1.46967 2.53033L5.09002 6.15068C4.8952 6.70779 4.76542 7.29636 4.70987 7.90746L4.532 9.86398C4.36027 11.753 3.7192 13.5691 2.66706 15.1473L2.6338 15.1972C2.38354 15.5726 2.25 16.0137 2.25 16.4648C2.25 17.7269 3.27311 18.75 4.53518 18.75H17.6893L21.4697 22.5303C21.7626 22.8232 22.2374 22.8232 22.5303 22.5303C22.8232 22.2374 22.8232 21.7626 22.5303 21.4697L6.50879 5.44813C6.50086 5.43982 6.49272 5.43168 6.48438 5.42372L2.53033 1.46967ZM6.30526 7.36592C6.25876 7.58695 6.22464 7.81296 6.2037 8.04326L6.02584 9.99978C5.83148 12.1377 5.10593 14.1932 3.91513 15.9794L3.88187 16.0293C3.79588 16.1583 3.75 16.3098 3.75 16.4648C3.75 16.8985 4.10154 17.25 4.53518 17.25H16.1893L6.30526 7.36592Z" fill="#000"/>
<path d="M7.15119 3.08619C8.44663 1.94063 10.1492 1.25 12 1.25C15.786 1.25 18.9474 4.13698 19.2901 7.90746L19.468 9.86397C19.6397 11.753 20.2808 13.5691 21.3329 15.1473L21.3662 15.1972C21.6165 15.5726 21.75 16.0137 21.75 16.4648V16.5C21.75 16.7261 21.7164 16.9456 21.6535 17.1533C21.5333 17.5497 21.1146 17.7736 20.7182 17.6535C20.3218 17.5333 20.0978 17.1146 20.218 16.7182C20.2386 16.6501 20.25 16.577 20.25 16.5V16.4648C20.25 16.3098 20.2041 16.1583 20.1181 16.0293L20.0849 15.9794C18.8941 14.1932 18.1685 12.1377 17.9742 9.99977L17.7963 8.04326C17.5238 5.0454 15.0102 2.75 12 2.75C10.528 2.75 9.17584 3.29815 8.14485 4.20986C7.83456 4.48425 7.36058 4.45514 7.08618 4.14485C6.81179 3.83456 6.8409 3.36058 7.15119 3.08619Z" fill="#000"/>
<path d="M9.02583 19.8507C9.38437 19.6433 9.84317 19.7658 10.0506 20.1243C10.4407 20.7988 11.1681 21.2499 12 21.2499C12.8319 21.2499 13.5593 20.7988 13.9495 20.1243C14.1569 19.7658 14.6157 19.6433 14.9742 19.8507C15.3328 20.0581 15.4553 20.5169 15.2479 20.8754C14.6006 21.9943 13.389 22.7499 12 22.7499C10.611 22.7499 9.39943 21.9943 8.75217 20.8754C8.54476 20.5169 8.66728 20.0581 9.02583 19.8507Z" fill="#000"/>
</svg>
