<svg width="24" height="24" viewBox="0 0 24 24" fill="none" xmlns="http://www.w3.org/2000/svg">
<g clip-path="url(#clip0_9002_8204)">
<path fill-rule="evenodd" clip-rule="evenodd" d="M8.75 7.75C8.33579 7.75 8 8.08579 8 8.5C8 8.91421 8.33579 9.25 8.75 9.25H9.08618V14.75H8.75C8.33579 14.75 8 15.0858 8 15.5C8 15.9142 8.33579 16.25 8.75 16.25H9.875V17C9.875 17.3452 10.1548 17.625 10.5 17.625C10.8452 17.625 11.125 17.3452 11.125 17V16.25H11.875V17C11.875 17.3452 12.1548 17.625 12.5 17.625C12.8452 17.625 13.125 17.3452 13.125 17V16.25H13.5C14.8807 16.25 16 15.1307 16 13.75C16 12.859 15.5339 12.0769 14.8322 11.6341C15.0962 11.2378 15.25 10.7619 15.25 10.25C15.25 8.99675 14.3278 7.95888 13.125 7.77794V7C13.125 6.65482 12.8452 6.375 12.5 6.375C12.1548 6.375 11.875 6.65482 11.875 7V7.75H11.125V7C11.125 6.65482 10.8452 6.375 10.5 6.375C10.1548 6.375 9.875 6.65482 9.875 7V7.75H8.75ZM10.5862 9.25V11.25H12.76C13.3077 11.2446 13.75 10.799 13.75 10.25C13.75 9.69772 13.3023 9.25 12.75 9.25H10.5862ZM10.5862 12.75V14.75H13.5C14.0523 14.75 14.5 14.3023 14.5 13.75C14.5 13.1977 14.0523 12.75 13.5 12.75H12.7657L12.75 12.75H10.5862Z" fill="#000"/>
<path fill-rule="evenodd" clip-rule="evenodd" d="M12 0.25C5.51065 0.25 0.25 5.51065 0.25 12C0.25 18.4893 5.51065 23.75 12 23.75C18.4893 23.75 23.75 18.4893 23.75 12C23.75 5.51065 18.4893 0.25 12 0.25ZM1.75 12C1.75 6.33908 6.33908 1.75 12 1.75C17.6609 1.75 22.25 6.33908 22.25 12C22.25 17.6609 17.6609 22.25 12 22.25C6.33908 22.25 1.75 17.6609 1.75 12Z" fill="#000"/>
</g>
<defs>
<clipPath id="clip0_9002_8204">
<rect width="24" height="24" fill="white"/>
</clipPath>
</defs>
</svg>
