<svg width="24" height="24" viewBox="0 0 24 24" fill="none" xmlns="http://www.w3.org/2000/svg">
<path fill-rule="evenodd" clip-rule="evenodd" d="M9 1.25C9.41421 1.25 9.75 1.58579 9.75 2V3.75H12.25V2C12.25 1.58579 12.5858 1.25 13 1.25C13.4142 1.25 13.75 1.58579 13.75 2V3.77747C15.9999 4.02619 17.75 5.93373 17.75 8.25002C17.75 9.54536 17.2027 10.7129 16.3267 11.5339C18.0343 12.1728 19.25 13.8194 19.25 15.7499C19.25 18.2352 17.2352 20.25 14.75 20.25H13.75V22C13.75 22.4142 13.4142 22.75 13 22.75C12.5858 22.75 12.25 22.4142 12.25 22V20.25H9.75V22C9.75 22.4142 9.41421 22.75 9 22.75C8.58579 22.75 8.25 22.4142 8.25 22V20.25H7.50725L7.49999 20.25L7.49274 20.25H5.5C5.08579 20.25 4.75 19.9142 4.75 19.5C4.75 19.0858 5.08579 18.75 5.5 18.75H6.74999V5.25H5.5C5.08579 5.25 4.75 4.91421 4.75 4.5C4.75 4.08579 5.08579 3.75 5.5 3.75H8.25V2C8.25 1.58579 8.58579 1.25 9 1.25ZM8.24999 5.25V11.25L13.2716 11.25C14.9185 11.2384 16.25 9.89966 16.25 8.25002C16.25 6.59315 14.9068 5.25 13.25 5.25H8.24999ZM13.25 12.75L13.2741 12.75L14.75 12.7499C16.4068 12.7499 17.75 14.0931 17.75 15.7499C17.75 17.4068 16.4068 18.75 14.75 18.75H8.24999V12.75H13.25Z" fill="#000"/>
</svg>
