<svg width="24" height="24" viewBox="0 0 24 24" fill="none" xmlns="http://www.w3.org/2000/svg">
<path fill-rule="evenodd" clip-rule="evenodd" d="M11.6788 1.32226C11.9407 1.19816 12.2506 1.23603 12.4749 1.41954L17.9749 5.91954C18.1389 6.05372 18.2385 6.25101 18.2491 6.46265C18.2596 6.67428 18.1802 6.8805 18.0303 7.03034L13.0607 12L18.0303 16.9697C18.1802 17.1195 18.2596 17.3257 18.2491 17.5374C18.2385 17.749 18.1389 17.9463 17.9749 18.0805L12.4749 22.5805C12.2506 22.764 11.9407 22.8019 11.6788 22.6778C11.417 22.5537 11.25 22.2898 11.25 22V13.8107L6.53033 18.5303C6.23744 18.8232 5.76256 18.8232 5.46967 18.5303C5.17678 18.2374 5.17678 17.7626 5.46967 17.4697L10.9393 12L5.46967 6.53034C5.17678 6.23744 5.17678 5.76257 5.46967 5.46968C5.76256 5.17678 6.23744 5.17678 6.53033 5.46968L11.25 10.1893V2.00001C11.25 1.71022 11.417 1.44635 11.6788 1.32226ZM12.75 13.8107L16.3837 17.4443L12.75 20.4173V13.8107ZM12.75 10.1893V3.58269L16.3837 6.55569L12.75 10.1893Z" fill="#000"/>
</svg>
