<svg width="24" height="24" viewBox="0 0 24 24" fill="none" xmlns="http://www.w3.org/2000/svg">
<path fill-rule="evenodd" clip-rule="evenodd" d="M12.7278 1.27339C13.3082 1.18201 13.8958 1.38806 14.2921 1.82195C14.6099 2.16994 14.6819 2.65469 14.7145 3.03973C14.7499 3.45725 14.7499 4.00805 14.7499 4.67687V8.40455C14.7499 8.69695 14.7505 8.87114 14.7611 9.00027C14.7675 9.07908 14.776 9.11221 14.7787 9.12108C14.8023 9.16572 14.8387 9.2022 14.8834 9.22572C14.8923 9.22848 14.9254 9.23697 15.0042 9.24341C15.1333 9.25396 15.3075 9.25455 15.5999 9.25455H17.7873C18.2897 9.25453 18.7177 9.25451 19.0525 9.28492C19.3813 9.31479 19.7733 9.38282 20.0915 9.63678C20.508 9.9692 20.7503 10.4733 20.7498 11.0062C20.7495 11.4133 20.5578 11.7619 20.3757 12.0374C20.1904 12.3178 19.9231 12.6521 19.6093 13.0445L13.4125 20.7937C12.9949 21.316 12.6509 21.7462 12.3625 22.0501C12.0966 22.3304 11.7376 22.6641 11.2721 22.7374C10.6916 22.8288 10.104 22.6227 9.70774 22.1888C9.38992 21.8408 9.31796 21.3561 9.28531 20.971C9.2499 20.5535 9.24991 20.0027 9.24992 19.3339V15.6062C9.24992 15.3138 9.24934 15.1396 9.23879 15.0105C9.23235 14.9317 9.22386 14.8986 9.2211 14.8897C9.19758 14.845 9.1611 14.8086 9.11646 14.785C9.10757 14.7823 9.07445 14.7738 8.99565 14.7674C8.86652 14.7568 8.69232 14.7562 8.39992 14.7562H6.21257C5.71014 14.7562 5.28213 14.7562 4.94735 14.7258C4.61854 14.696 4.22654 14.6279 3.90834 14.374C3.49184 14.0416 3.2495 13.5375 3.25 13.0046C3.25038 12.5975 3.44207 12.2488 3.6241 11.9734C3.80943 11.6929 4.07674 11.3587 4.39053 10.9663L10.5873 3.21712C11.0049 2.69478 11.3489 2.26462 11.6373 1.96065C11.9033 1.68033 12.2622 1.34668 12.7278 1.27339ZM9.11905 14.7859L9.11753 14.7854ZM9.2202 14.8871L9.22075 14.8886ZM14.8808 9.22482L14.8823 9.22537ZM14.7796 9.12367L14.7791 9.12218ZM12.9906 2.75227C12.9681 2.76768 12.8857 2.82421 12.7255 2.99309C12.4863 3.24516 12.1821 3.62456 11.7361 4.18228L5.5842 11.8754C5.24215 12.3031 5.01865 12.5838 4.87554 12.8004C4.78465 12.9379 4.7577 13.005 4.75065 13.0242C4.7552 13.0875 4.78367 13.1467 4.83023 13.1897C4.8496 13.1962 4.91887 13.2171 5.08305 13.232C5.34156 13.2555 5.70036 13.2562 6.24805 13.2562L8.42616 13.2562C8.68364 13.2562 8.92011 13.2562 9.11779 13.2723C9.33093 13.2897 9.5641 13.3296 9.79441 13.447C10.1237 13.6147 10.3914 13.8825 10.5592 14.2117C10.6765 14.442 10.7164 14.6752 10.7338 14.8883C10.75 15.086 10.7499 15.3225 10.7499 15.58L10.7499 19.2976C10.7499 20.0117 10.7506 20.4981 10.7799 20.8443C10.7996 21.0762 10.8287 21.1719 10.8366 21.1979C10.8844 21.2392 10.9462 21.2608 11.0093 21.2585C11.0317 21.2431 11.1142 21.1865 11.2744 21.0177C11.5135 20.7656 11.8178 20.3862 12.2638 19.8285L18.4156 12.1354C18.7577 11.7077 18.9812 11.427 19.1243 11.2104C19.2152 11.0729 19.2421 11.0057 19.2492 10.9866C19.2446 10.9233 19.2162 10.8641 19.1696 10.821C19.1502 10.8146 19.081 10.7937 18.9168 10.7788C18.6583 10.7553 18.2995 10.7545 17.7518 10.7545L15.5737 10.7545C15.3162 10.7546 15.0797 10.7546 14.8821 10.7384C14.6689 10.721 14.4357 10.6812 14.2054 10.5638C13.8762 10.396 13.6084 10.1283 13.4407 9.79903C13.3233 9.56872 13.2835 9.33555 13.266 9.12242C13.2499 8.92474 13.2499 8.68826 13.2499 8.43078L13.2499 4.71313C13.2499 3.99902 13.2493 3.5127 13.2199 3.16648C13.2002 2.9345 13.1711 2.83887 13.1632 2.81281C13.1154 2.77156 13.0537 2.74991 12.9906 2.75227Z" fill="#000"/>
</svg>
