<svg width="24" height="24" viewBox="0 0 24 24" fill="none" xmlns="http://www.w3.org/2000/svg">
<path d="M9.15475 6.20719C8.83075 5.94828 8.77875 5.47642 9.03675 5.15352L10.5638 3.24512C11.5887 1.96353 12.0568 1.37871 12.7268 1.27274C13.3118 1.18177 13.8947 1.38571 14.2917 1.82057C14.7498 2.32141 14.7498 3.07018 14.7498 4.71066V8.40051C14.7498 8.71441 14.7498 9.0393 14.7788 9.11928C14.7998 9.16127 14.8398 9.20025 14.8857 9.22325C14.9607 9.25024 15.2847 9.25024 15.5988 9.25024H17.7507C18.9897 9.25024 19.6117 9.25024 20.0898 9.63212C20.5088 9.96601 20.7487 10.4659 20.7477 11.0017C20.7477 11.6125 20.3608 12.0973 19.5888 13.062L18.5198 14.3986C18.3717 14.5846 18.1537 14.6805 17.9338 14.6805C17.7698 14.6805 17.6038 14.6265 17.4657 14.5166C17.1417 14.2577 17.0897 13.7858 17.3477 13.4629L18.4128 12.1303C18.8067 11.6375 19.2098 11.1326 19.2488 10.9717C19.2467 10.9227 19.2118 10.8517 19.1518 10.8038C19.0258 10.7498 18.4048 10.7498 17.7488 10.7498H15.5968C14.9608 10.7498 14.5767 10.7498 14.2028 10.5598C13.8758 10.3929 13.6038 10.122 13.4377 9.79507C13.2478 9.42118 13.2478 9.0373 13.2478 8.40051V4.71066C13.2478 3.82394 13.2478 2.9862 13.1538 2.79327C13.1258 2.77027 13.0407 2.74028 12.9587 2.75328C12.8117 2.83325 12.2878 3.48705 11.7338 4.17983L10.2067 6.08823C9.94775 6.41213 9.47575 6.46411 9.15275 6.20619L9.15475 6.20719ZM22.5298 22.5231C22.3838 22.669 22.1917 22.743 21.9998 22.743C21.8078 22.743 21.6157 22.67 21.4697 22.5231L16.2207 17.2757L13.4348 20.7576C12.4098 22.0392 11.9418 22.623 11.2718 22.729C11.1798 22.744 11.0878 22.75 10.9978 22.75C10.5107 22.75 10.0428 22.5471 9.70775 22.1802C9.24975 21.6793 9.24975 20.9306 9.24975 19.2891V15.5992C9.24975 15.2853 9.24975 14.9604 9.22075 14.8815C9.19875 14.8395 9.16075 14.8015 9.11475 14.7775C9.03775 14.7495 8.71375 14.7495 8.40075 14.7495H6.24875C5.00975 14.7495 4.38875 14.7495 3.90975 14.3676C3.48975 14.0327 3.24975 13.5339 3.25075 12.9981C3.25075 12.3853 3.63975 11.8994 4.41375 10.9327L6.84175 7.89666L1.46975 2.52935C1.17675 2.23644 1.17675 1.76259 1.46975 1.46968C1.76275 1.17677 2.23675 1.17677 2.52975 1.46968L22.5298 21.4634C22.8228 21.7563 22.8228 22.2302 22.5298 22.5231ZM15.1538 16.2091L7.90875 8.96633L5.58475 11.8714C5.19175 12.3623 4.78675 12.8691 4.74775 13.0301C4.74975 13.077 4.78575 13.15 4.84475 13.197C4.97075 13.251 5.59175 13.251 6.24875 13.251H8.40075C9.03675 13.251 9.42175 13.251 9.79575 13.4419C10.1257 13.6089 10.3908 13.8738 10.5598 14.2057C10.7508 14.5806 10.7508 14.9644 10.7508 15.6002V19.2901C10.7508 20.1768 10.7508 21.0155 10.8448 21.2085C10.8738 21.2315 10.9577 21.2595 11.0387 21.2485C11.1858 21.1685 11.7098 20.5147 12.2638 19.8219L15.1538 16.2091Z" fill="#000"/>
</svg>
