<svg width="24" height="24" viewBox="0 0 24 24" fill="none" xmlns="http://www.w3.org/2000/svg">
<path d="M15.0303 13.0303C14.7374 13.3232 14.2626 13.3232 13.9697 13.0303L12 11.0606L10.0303 13.0303C9.73743 13.3232 9.26255 13.3232 8.96966 13.0303C8.67677 12.7374 8.67677 12.2625 8.96966 11.9696L10.9393 9.99997L8.9697 8.03034C8.67681 7.73745 8.67681 7.26257 8.9697 6.96968C9.26259 6.67679 9.73747 6.67679 10.0304 6.96968L12 8.93931L13.9696 6.96967C14.2625 6.67678 14.7374 6.67678 15.0303 6.96967C15.3232 7.26256 15.3232 7.73744 15.0303 8.03033L13.0607 9.99997L15.0303 11.9696C15.3232 12.2625 15.3232 12.7374 15.0303 13.0303Z" fill="#000"/>
<path fill-rule="evenodd" clip-rule="evenodd" d="M9.66763 1.25H14.306C14.4846 1.25144 14.6584 1.25221 14.8267 1.25294C15.2866 1.25493 15.7067 1.25675 16.0785 1.27187C16.5911 1.29272 17.0708 1.34003 17.5169 1.46639C18.4799 1.73917 19.1408 2.3384 19.7841 3.37985C19.7949 3.39735 19.805 3.41528 19.8143 3.4336C20.0541 3.90445 20.1552 4.41538 20.2033 5.00372C20.25 5.57634 20.25 6.28458 20.25 7.16762V21.281C20.25 22.0922 19.5922 22.75 18.781 22.75C18.4115 22.75 18.0556 22.611 17.7838 22.3596L12.5763 17.5531C12.5671 17.5446 12.5582 17.5359 12.5494 17.527C12.3584 17.3322 12.2202 17.2204 12.1194 17.1592C12.0717 17.1302 12.0399 17.1173 12.022 17.1116C12.0056 17.1063 11.9993 17.1066 11.9993 17.1066L11.9978 17.1067L11.9942 17.1071C11.9913 17.1076 11.9856 17.1087 11.977 17.1115C11.9592 17.1171 11.9276 17.13 11.8801 17.1588C11.7797 17.2198 11.6418 17.3315 11.4512 17.5264C11.4423 17.5355 11.4331 17.5444 11.4237 17.5531L6.21623 22.3596C5.94443 22.611 5.58852 22.75 5.219 22.75C4.40779 22.75 3.75 22.0922 3.75 21.281V7.1937C3.75152 7.01249 3.75235 6.83631 3.75313 6.66562C3.75522 6.20851 3.75713 5.79078 3.77215 5.42111C3.79296 4.90866 3.84013 4.42896 3.96633 3.98293C4.23885 3.01979 4.83802 2.35913 5.88 1.71583C5.89745 1.70506 5.91533 1.695 5.9336 1.6857C6.40445 1.44587 6.91538 1.34477 7.50372 1.29674C8.07634 1.24999 8.78459 1.24999 9.66763 1.25ZM6.63976 3.00969C5.81679 3.52271 5.54511 3.91264 5.40967 4.39132C5.33112 4.66891 5.29004 5.01115 5.27091 5.48198C5.25707 5.82275 5.25535 6.19979 5.25331 6.64459C5.25251 6.81963 5.25166 7.0052 5.25 7.20314V21.2102L10.3926 16.4636C10.8208 16.028 11.3415 15.6064 11.9999 15.6066C12.6578 15.6069 13.1787 16.0284 13.6071 16.4633L18.75 21.2102V7.2C18.75 6.27713 18.7494 5.63018 18.7082 5.12578C18.6693 4.64865 18.5975 4.36064 18.4903 4.13983C17.9774 3.31738 17.5871 3.04529 17.1081 2.90961C16.8305 2.83097 16.4882 2.78978 16.0175 2.77063C15.675 2.7567 15.2956 2.75505 14.8477 2.7531C14.6749 2.75235 14.492 2.75156 14.297 2.75H9.7C8.77713 2.75 8.13018 2.75058 7.62578 2.79176C7.1486 2.83072 6.86057 2.90252 6.63976 3.00969Z" fill="#000"/>
</svg>
