<svg width="24" height="24" viewBox="0 0 24 24" fill="none" xmlns="http://www.w3.org/2000/svg">
<path fill-rule="evenodd" clip-rule="evenodd" d="M11.5265 21.0816L10.3204 20.1168C9.61902 19.5557 8.74758 19.25 7.84941 19.25H7.38104C5.97655 19.25 4.60349 19.6657 3.43488 20.4448C2.50095 21.0674 1.25 20.3979 1.25 19.2755V6.15248C1.25 5.49408 1.57905 4.87925 2.12687 4.51403L2.42391 4.31601C3.95558 3.29489 5.75524 2.75 7.59608 2.75C9.29734 2.75 10.9088 3.50297 12 4.80205C13.0912 3.50297 14.7027 2.75 16.4039 2.75C18.2448 2.75 20.0444 3.29489 21.5761 4.31601L21.8731 4.51403C22.4209 4.87925 22.75 5.49408 22.75 6.15248V19.2755C22.75 20.3979 21.499 21.0674 20.5651 20.4448C19.3965 19.6657 18.0234 19.25 16.619 19.25H16.1506C15.2524 19.25 14.381 19.5557 13.6796 20.1168L12.4735 21.0816C12.458 21.0943 12.442 21.1063 12.4254 21.1177C12.4083 21.1295 12.3907 21.1406 12.3725 21.151C12.1605 21.2723 11.8997 21.2839 11.6751 21.176C11.6597 21.1686 11.6446 21.1607 11.6298 21.1523C11.8414 21.2724 12.1012 21.2835 12.3249 21.176M3.25596 5.56408C4.54123 4.70723 6.05137 4.25 7.59608 4.25C8.88766 4.25 10.1092 4.83711 10.9161 5.84567L11.25 6.26309V18.9395C10.2839 18.1695 9.08503 17.75 7.84941 17.75H7.38104C5.73902 17.75 4.13248 18.2193 2.75 19.1008V6.15248C2.75 5.99561 2.8284 5.84912 2.95892 5.76211L3.25596 5.56408ZM12.75 18.9395C13.7161 18.1695 14.915 17.75 16.1506 17.75H16.619C18.261 17.75 19.8675 18.2193 21.25 19.1008V6.15248C21.25 5.99561 21.1716 5.84912 21.0411 5.76211L20.744 5.56408C19.4588 4.70723 17.9486 4.25 16.4039 4.25C15.1123 4.25 13.8908 4.83711 13.0839 5.84567L12.75 6.26309V18.9395Z" fill="#000"/>
</svg>
