<svg width="24" height="24" viewBox="0 0 24 24" fill="none" xmlns="http://www.w3.org/2000/svg">
<path fill-rule="evenodd" clip-rule="evenodd" d="M12.8082 3.08048C12.2737 2.98912 11.7263 2.98912 11.1918 3.08048C10.5863 3.18398 10.0166 3.44256 9.13271 3.84377L2.49412 6.85555C2.00039 7.07953 1.5847 7.26811 1.27466 7.44292C0.973936 7.61248 0.629985 7.84315 0.440082 8.21423C0.186639 8.70948 0.186639 9.29064 0.440082 9.78588C0.629985 10.157 0.973936 10.3876 1.27466 10.5572C1.5847 10.732 2.00038 10.9206 2.49411 11.1446L4.25 11.9412V16.2574C4.25 17.2371 4.64087 18.276 5.56759 18.8859C6.77352 19.6796 8.96404 20.75 12 20.75C15.0359 20.75 17.2264 19.6796 18.4324 18.8859C19.3591 18.276 19.75 17.2371 19.75 16.2574V11.9412L21.25 11.2606V16.0001C21.25 16.4143 21.5858 16.7501 22 16.7501C22.4142 16.7501 22.75 16.4143 22.75 16.0001V10.5432C23.0447 10.375 23.3752 10.1469 23.5599 9.78588C23.8134 9.29064 23.8134 8.70948 23.5599 8.21423C23.37 7.84315 23.0261 7.61248 22.7253 7.44292C22.4153 7.26811 21.9996 7.07955 21.5059 6.85558L14.8673 3.84377C13.9834 3.44256 13.4137 3.18398 12.8082 3.08048ZM18.25 12.6217L14.8673 14.1563C13.9834 14.5576 13.4137 14.8161 12.8082 14.9196C12.2737 15.011 11.7263 15.011 11.1918 14.9196C10.5863 14.8161 10.0166 14.5576 9.1327 14.1563L5.75 12.6217V16.2574C5.75 16.869 5.98968 17.368 6.39222 17.6329C7.42168 18.3104 9.32948 19.25 12 19.25C14.6705 19.25 16.5783 18.3104 17.6078 17.6329C18.0103 17.368 18.25 16.869 18.25 16.2574V12.6217ZM11.4446 4.55904C11.8118 4.49627 12.1882 4.49627 12.5554 4.55904C12.9468 4.62592 13.3318 4.79434 14.3407 5.25203L20.8541 8.20702C21.3884 8.44941 21.743 8.61104 21.9886 8.74953C22.1591 8.84567 22.2181 8.89991 22.2317 8.91265C22.2561 8.96959 22.2561 9.03052 22.2317 9.08746C22.2181 9.1002 22.1591 9.15445 21.9886 9.25059C21.743 9.38907 21.3884 9.55071 20.8541 9.79309L14.3407 12.7481C13.3318 13.2058 12.9468 13.3742 12.5554 13.4411C12.1882 13.5038 11.8118 13.5038 11.4446 13.4411C11.0532 13.3742 10.6682 13.2058 9.65932 12.7481L3.14587 9.79309C2.61159 9.55071 2.257 9.38907 2.01139 9.25059C1.84089 9.15445 1.78188 9.1002 1.76831 9.08746C1.7439 9.03052 1.7439 8.96959 1.76831 8.91265C1.78188 8.89991 1.84089 8.84566 2.01139 8.74953C2.257 8.61104 2.61159 8.44941 3.14587 8.20702L9.65932 5.25203C10.6682 4.79434 11.0532 4.62592 11.4446 4.55904Z" fill="#000"/>
</svg>
