<svg width="24" height="24" viewBox="0 0 24 24" fill="none" xmlns="http://www.w3.org/2000/svg">
<path d="M6.64988 3.00483C6.87513 2.89764 7.1704 2.82651 7.66371 2.78877C8.16372 2.75051 8.80128 2.75 9.7 2.75H14.297C14.4844 2.7515 14.6638 2.75228 14.8336 2.75301C16.0469 2.75827 16.7087 2.77011 17.2162 2.94325C17.6383 3.08726 18.0088 3.3679 18.4903 4.13984C18.5975 4.36064 18.6693 4.64865 18.7082 5.12578C18.7494 5.63018 18.75 6.27713 18.75 7.2C18.75 7.20837 18.7501 7.2167 18.7504 7.225C18.7501 7.2333 18.75 7.24163 18.75 7.25V15.5C18.75 15.9142 19.0858 16.25 19.5 16.25C19.9142 16.25 20.25 15.9142 20.25 15.5V7.25C20.25 7.24163 20.2499 7.2333 20.2496 7.225C20.2499 7.2167 20.25 7.20837 20.25 7.2V7.16762C20.25 6.28458 20.25 5.57634 20.2033 5.00372C20.1552 4.41538 20.0541 3.90445 19.8143 3.4336C19.805 3.41528 19.7949 3.39735 19.7841 3.37985C19.1889 2.41626 18.5739 1.82155 17.7005 1.52359C16.9325 1.26157 16.0171 1.25784 14.9458 1.25347L14.8403 1.25303C14.6691 1.25229 14.4916 1.25149 14.306 1.25H9.67005C8.80808 1.24999 8.11321 1.24999 7.54928 1.29314C6.97212 1.33729 6.46848 1.42997 6.00532 1.65038C5.6313 1.82837 5.47238 2.27586 5.65038 2.64988C5.82837 3.02391 6.27586 3.18282 6.64988 3.00483Z" fill="#000"/>
<path fill-rule="evenodd" clip-rule="evenodd" d="M3.80856 4.86922L1.46967 2.53033C1.17678 2.23744 1.17678 1.76256 1.46967 1.46967C1.76256 1.17678 2.23744 1.17678 2.53033 1.46967L5.12196 4.0613C5.12629 4.06553 5.13057 4.06981 5.1348 4.07414L22.5303 21.4697C22.8232 21.7626 22.8232 22.2374 22.5303 22.5303C22.2374 22.8232 21.7626 22.8232 21.4697 22.5303L20.2497 21.3104C20.2341 22.108 19.5824 22.75 18.781 22.75C18.4115 22.75 18.0557 22.611 17.7839 22.3597L12.5763 17.5531C12.5671 17.5446 12.5582 17.5359 12.5494 17.527C12.3584 17.3322 12.2202 17.2204 12.1194 17.1592C12.0717 17.1302 12.0399 17.1173 12.022 17.1116C12.0056 17.1063 11.9993 17.1066 11.9993 17.1066L11.9977 17.1067L11.9942 17.1071C11.9929 17.1073 11.991 17.1077 11.9885 17.1083C11.9856 17.109 11.9817 17.11 11.977 17.1115C11.9592 17.1171 11.9276 17.13 11.8801 17.1588C11.7797 17.2198 11.6418 17.3315 11.4512 17.5264C11.4423 17.5355 11.4331 17.5444 11.4237 17.5531L6.21622 22.3596C5.94443 22.611 5.58852 22.75 5.219 22.75C4.40779 22.75 3.75 22.0922 3.75 21.281V7.1937C3.75158 7.00534 3.75243 6.82537 3.75323 6.65181L3.75346 6.60192C3.75636 5.96088 3.75898 5.38264 3.80856 4.86922ZM5.25508 6.31574C5.25432 6.42508 5.25376 6.53925 5.25321 6.65867C5.25242 6.83075 5.25159 7.01288 5.25 7.20314V21.2102L10.3926 16.4636C10.8208 16.028 11.3415 15.6064 11.9999 15.6066C12.6578 15.6069 13.1787 16.0284 13.6071 16.4633L18.75 21.2102V19.8107L5.25508 6.31574Z" fill="#000"/>
</svg>
