<svg width="24" height="24" viewBox="0 0 24 24" fill="none" xmlns="http://www.w3.org/2000/svg">
<path fill-rule="evenodd" clip-rule="evenodd" d="M13.7927 1.6467C12.656 1.11793 11.344 1.11793 10.2073 1.6467L3.70733 4.67059C2.20852 5.36786 1.25 6.87095 1.25 8.52401V15.5453C1.25 17.2111 2.22311 18.7232 3.73915 19.4134L10.2392 22.3724C11.3578 22.8816 12.6422 22.8816 13.7609 22.3724L20.2609 19.4134C21.7769 18.7232 22.75 17.2111 22.75 15.5453V8.52401C22.75 6.87095 21.7915 5.36786 20.2927 4.67059L13.7927 1.6467ZM10.84 3.00673C11.5755 2.66459 12.4245 2.66459 13.16 3.00673L19.66 6.03062C20.0458 6.21012 20.3763 6.47215 20.6344 6.78999L17.5273 8.18259L8.72489 3.99073L10.84 3.00673ZM6.96012 4.81172L4.34004 6.03062C3.9542 6.21012 3.62369 6.47215 3.36556 6.78999L12 10.6599L15.73 8.98811L6.96012 4.81172ZM16.7501 10.1747L12.7511 11.967L12.751 21.1498C12.883 21.1123 13.0128 21.0648 13.1394 21.0072L19.6394 18.0482C20.6203 17.6016 21.25 16.6232 21.25 15.5453V8.52401C21.25 8.40398 21.2422 8.28518 21.227 8.16819L18.2501 9.5024V13.0002C18.2501 13.4144 17.9143 13.7502 17.5001 13.7502C17.0859 13.7502 16.7501 13.4144 16.7501 13.0002V10.1747ZM2.77305 8.1682L11.2511 11.968L11.251 21.1504C11.1184 21.1128 10.9878 21.0651 10.8606 21.0072L4.36063 18.0482C3.37966 17.6016 2.75 16.6232 2.75 15.5453V8.52401C2.75 8.40399 2.75781 8.28518 2.77305 8.1682Z" fill="#000"/>
</svg>
