<svg width="24" height="24" viewBox="0 0 24 24" fill="none" xmlns="http://www.w3.org/2000/svg">
<path fill-rule="evenodd" clip-rule="evenodd" d="M13.6289 1.25H10.3711C9.97574 1.24999 9.63465 1.24998 9.35373 1.27293C9.05722 1.29715 8.76231 1.35064 8.47852 1.49524C8.05516 1.71095 7.71095 2.05516 7.49524 2.47852C7.35064 2.76231 7.29715 3.05722 7.27293 3.35373C7.25235 3.60556 7.25023 3.90573 7.25002 4.25H5.96858C5.2952 4.24999 4.74449 4.24999 4.29693 4.28655C3.83367 4.3244 3.41527 4.40514 3.02453 4.60423C2.41301 4.91582 1.91582 5.413 1.60423 6.02453C1.40514 6.41527 1.3244 6.83367 1.28655 7.29693C1.24999 7.74449 1.24999 8.29519 1.25 8.96856V11.1913C1.24999 11.8368 1.24998 12.3665 1.28519 12.7974C1.32168 13.244 1.39969 13.65 1.59333 14.0301C1.64114 14.1239 1.69345 14.215 1.75 14.3029L1.75 16.8324C1.74999 17.715 1.74999 18.4231 1.79677 18.9956C1.84484 19.584 1.94601 20.095 2.18597 20.5659C2.56947 21.3186 3.18139 21.9305 3.93404 22.314C4.405 22.554 4.91601 22.6551 5.50433 22.7032C6.07691 22.75 6.78499 22.75 7.66761 22.75H16.3324C17.215 22.75 17.9231 22.75 18.4957 22.7032C19.084 22.6551 19.595 22.554 20.066 22.314C20.8186 21.9305 21.4305 21.3186 21.814 20.5659C22.054 20.095 22.1552 19.584 22.2032 18.9956C22.25 18.4231 22.25 17.715 22.25 16.8324V14.303C22.3065 14.215 22.3589 14.1239 22.4067 14.0301C22.6003 13.65 22.6783 13.244 22.7148 12.7974C22.75 12.3665 22.75 11.8368 22.75 11.1913V8.96856C22.75 8.29519 22.75 7.74449 22.7134 7.29693C22.6756 6.83367 22.5949 6.41527 22.3958 6.02453C22.0842 5.41301 21.587 4.91582 20.9755 4.60423C20.5847 4.40514 20.1663 4.3244 19.7031 4.28655C19.2555 4.24998 18.7048 4.24999 18.0314 4.25H16.75C16.7498 3.90573 16.7476 3.60556 16.7271 3.35373C16.7028 3.05722 16.6494 2.76231 16.5048 2.47852C16.2891 2.05516 15.9448 1.71095 15.5215 1.49524C15.2377 1.35064 14.9428 1.29715 14.6463 1.27293C14.3653 1.24998 14.0243 1.24999 13.6289 1.25ZM15.9988 5.75C15.9992 5.75 15.9996 5.75 16 5.75C16.0004 5.75 16.0008 5.75 16.0012 5.75H18C18.7124 5.75 19.2017 5.75058 19.5809 5.78157C19.9514 5.81184 20.1504 5.86735 20.2945 5.94074C20.6238 6.10852 20.8915 6.37623 21.0593 6.70552C21.1327 6.84956 21.1882 7.04858 21.2184 7.41908C21.2494 7.79833 21.25 8.28756 21.25 9V11.16C21.25 11.8444 21.2494 12.3127 21.2198 12.6752C21.1909 13.0291 21.1381 13.2157 21.0702 13.3491C20.912 13.6596 20.6596 13.912 20.3491 14.0702C20.2157 14.1381 20.0291 14.1909 19.6752 14.2198C19.3127 14.2494 18.8444 14.25 18.16 14.25H14.25C14.25 13.0074 13.2426 12 12 12C10.7574 12 9.75 13.0074 9.75 14.25L5.84 14.25C5.15556 14.25 4.68734 14.2494 4.32476 14.2198C3.97093 14.1909 3.78426 14.1381 3.65092 14.0702C3.34045 13.912 3.08803 13.6596 2.92984 13.3491C2.8619 13.2157 2.80912 13.0291 2.78021 12.6752C2.75058 12.3127 2.75 11.8444 2.75 11.16L2.75 9C2.75 8.28756 2.75058 7.79834 2.78157 7.41908C2.81184 7.04858 2.86735 6.84956 2.94074 6.70552C3.10852 6.37624 3.37623 6.10852 3.70552 5.94074C3.84956 5.86735 4.04858 5.81184 4.41908 5.78157C4.79834 5.75059 5.28756 5.75 6 5.75H7.99879C7.9992 5.75 7.9996 5.75 8 5.75C8.0004 5.75 8.00081 5.75 8.00121 5.75H15.9988ZM15.2499 4.25C15.2496 3.90117 15.2473 3.66274 15.2321 3.47588C15.2154 3.27213 15.1872 3.19659 15.1683 3.15951C15.0964 3.01839 14.9816 2.90365 14.8405 2.83175C14.8034 2.81285 14.7279 2.78459 14.5241 2.76795C14.3116 2.75059 14.0324 2.75 13.6 2.75H10.4C9.96759 2.75 9.68838 2.75059 9.47588 2.76795C9.27213 2.78459 9.19659 2.81285 9.15951 2.83175C9.01839 2.90365 8.90365 3.01839 8.83175 3.15951C8.81285 3.19659 8.78459 3.27213 8.76795 3.47588C8.75268 3.66274 8.75039 3.90117 8.75006 4.25L15.2499 4.25ZM3.25 16.8V15.5278C3.54844 15.6356 3.86387 15.6871 4.20261 15.7148C4.63351 15.75 5.16326 15.75 5.80878 15.75L9.75 15.75C9.75 16.9926 10.7574 18 12 18C13.2426 18 14.25 16.9926 14.25 15.75H18.1913C18.8368 15.75 19.3665 15.75 19.7974 15.7148C20.1361 15.6871 20.4516 15.6356 20.75 15.5278V16.8C20.75 17.7224 20.7494 18.3692 20.7082 18.8735C20.6677 19.3691 20.5918 19.6607 20.4775 19.8849C20.2378 20.3554 19.8554 20.7378 19.385 20.9775C19.1607 21.0918 18.8691 21.1677 18.3735 21.2082C17.8692 21.2494 17.2225 21.25 16.3 21.25H7.7C6.77754 21.25 6.1308 21.2494 5.62648 21.2082C5.13092 21.1677 4.83928 21.0918 4.61502 20.9775C4.14462 20.7378 3.76217 20.3554 3.52248 19.8849C3.40822 19.6607 3.33228 19.3691 3.29179 18.8735C3.25058 18.3692 3.25 17.7224 3.25 16.8ZM12 16.5C11.5858 16.5 11.25 16.1642 11.25 15.75V14.25C11.25 13.8358 11.5858 13.5 12 13.5C12.4142 13.5 12.75 13.8358 12.75 14.25V14.99L12.75 14.995L12.75 15V15.75C12.75 16.1642 12.4142 16.5 12 16.5Z" fill="#000"/>
</svg>
