<svg width="24" height="24" viewBox="0 0 24 24" fill="none" xmlns="http://www.w3.org/2000/svg">
<path d="M18.5 12.5C17.9477 12.5 17.5 12.9477 17.5 13.5C17.5 14.0523 17.9477 14.5 18.5 14.5C19.0523 14.5 19.5001 14.0523 19.5001 13.5C19.5001 12.9477 19.0523 12.5 18.5 12.5Z" fill="#000"/>
<path d="M4.5 13.5C4.5 12.9477 4.94772 12.5 5.5 12.5C6.05229 12.5 6.5001 12.9477 6.5001 13.5C6.5001 14.0523 6.05239 14.5 5.5001 14.5C4.94782 14.5 4.5 14.0523 4.5 13.5Z" fill="#000"/>
<path d="M11.25 9.81723V9.50001C11.25 9.0858 11.5858 8.75001 12 8.75001C12.4142 8.75001 12.75 9.0858 12.75 9.50001V9.81231C12.9266 9.8459 13.1003 9.89518 13.2765 9.96509C13.6747 10.123 14.041 10.3691 14.4527 10.6809C14.783 10.931 14.848 11.4014 14.5979 11.7316C14.3479 12.0618 13.8775 12.1268 13.5472 11.8768C13.159 11.5828 12.9252 11.4394 12.7235 11.3594C12.5392 11.2863 12.3406 11.25 12 11.25C11.5065 11.25 11.1757 11.3669 10.9899 11.5015C10.8265 11.6199 10.75 11.7643 10.75 11.9654C10.75 12.2016 10.8409 12.3313 11.0663 12.4575C11.3391 12.6102 11.7185 12.6927 12.1233 12.7602C12.5185 12.8261 13.1391 12.9385 13.6663 13.2336C14.2409 13.5553 14.75 14.1262 14.75 15.0346C14.75 15.7364 14.4265 16.3247 13.8899 16.7133C13.5626 16.9503 13.1725 17.1031 12.75 17.1828V17.5C12.75 17.9142 12.4142 18.25 12 18.25C11.5858 18.25 11.25 17.9142 11.25 17.5V17.1877C11.0734 17.1541 10.8997 17.1048 10.7235 17.0349C10.3252 16.8769 9.95895 16.6308 9.54723 16.3191C9.217 16.069 9.15201 15.5986 9.40206 15.2684C9.65211 14.9382 10.1225 14.8732 10.4527 15.1232C10.841 15.4172 11.0747 15.5605 11.2765 15.6406C11.4608 15.7137 11.6594 15.75 12 15.75C12.4935 15.75 12.8242 15.6331 13.0101 15.4985C13.1734 15.3801 13.25 15.2357 13.25 15.0346C13.25 14.7984 13.1591 14.6687 12.9336 14.5425C12.6608 14.3898 12.2814 14.3073 11.8767 14.2398C11.4814 14.1739 10.8608 14.0615 10.3336 13.7664C9.75906 13.4447 9.24998 12.8738 9.24998 11.9654C9.24998 11.2636 9.57343 10.6753 10.1101 10.2867C10.4373 10.0497 10.8274 9.89693 11.25 9.81723Z" fill="#000"/>
<path fill-rule="evenodd" clip-rule="evenodd" d="M10.3711 1.75H13.6289C14.0243 1.74999 14.3654 1.74998 14.6463 1.77293C14.9428 1.79715 15.2377 1.85064 15.5215 1.99524C15.9448 2.21095 16.2891 2.55516 16.5048 2.97852C16.6494 3.26231 16.7028 3.55722 16.7271 3.85373C16.7477 4.10556 16.7498 4.40573 16.75 4.75H16.9326C17.885 4.75 18.6456 4.74999 19.2599 4.80018C19.8899 4.85165 20.4318 4.95964 20.9295 5.21323C21.7291 5.62069 22.3793 6.27085 22.7868 7.07054C23.0404 7.56824 23.1483 8.11012 23.1998 8.74014C23.25 9.3544 23.25 10.115 23.25 11.0674V15.9325C23.25 16.885 23.25 17.6456 23.1998 18.2599C23.1483 18.8899 23.0404 19.4318 22.7868 19.9295C22.3793 20.7291 21.7291 21.3793 20.9295 21.7868C20.4318 22.0404 19.8899 22.1483 19.2599 22.1998C18.6456 22.25 17.885 22.25 16.9326 22.25H7.06737C6.11497 22.25 5.35438 22.25 4.74013 22.1998C4.11012 22.1483 3.56824 22.0404 3.07054 21.7868C2.27085 21.3793 1.62068 20.7291 1.21322 19.9295C0.959634 19.4318 0.85165 18.8899 0.800176 18.2599C0.749989 17.6456 0.749994 16.8851 0.75 15.9326V11.0674C0.749994 10.115 0.74999 9.35439 0.800176 8.74013C0.851651 8.11012 0.959634 7.56824 1.21322 7.07054C1.62069 6.27085 2.27085 5.62069 3.07054 5.21322C3.56824 4.95963 4.11012 4.85165 4.74013 4.80018C5.3544 4.74999 6.11495 4.74999 7.06739 4.75H7.25002C7.25023 4.40573 7.25235 4.10556 7.27293 3.85373C7.29715 3.55722 7.35064 3.26231 7.49524 2.97852C7.71095 2.55516 8.05516 2.21095 8.47852 1.99524C8.76231 1.85064 9.05722 1.79715 9.35373 1.77293C9.63465 1.74998 9.97575 1.74999 10.3711 1.75ZM15.2321 3.97588C15.2473 4.16274 15.2496 4.40117 15.2499 4.75L8.75006 4.75C8.75039 4.40117 8.75268 4.16274 8.76795 3.97588C8.78459 3.77213 8.81285 3.69659 8.83175 3.65951C8.90365 3.51839 9.01839 3.40365 9.15951 3.33175C9.19659 3.31285 9.27213 3.28459 9.47588 3.26795C9.68838 3.25059 9.96759 3.25 10.4 3.25H13.6C14.0324 3.25 14.3116 3.25059 14.5241 3.26795C14.7279 3.28459 14.8034 3.31285 14.8405 3.33175C14.9816 3.40365 15.0964 3.51839 15.1683 3.65951C15.1872 3.69659 15.2154 3.77213 15.2321 3.97588ZM7.1 6.25C6.10753 6.25 5.40829 6.25058 4.86228 6.2952C4.32503 6.33909 4.00252 6.42184 3.75153 6.54973C3.23408 6.81339 2.81339 7.23408 2.54973 7.75153C2.42184 8.00252 2.33909 8.32503 2.29519 8.86228C2.25058 9.40829 2.25 10.1075 2.25 11.1V15.9C2.25 16.8925 2.25058 17.5917 2.29519 18.1377C2.33909 18.675 2.42184 18.9975 2.54973 19.2485C2.81338 19.7659 3.23408 20.1866 3.75153 20.4503C4.00252 20.5782 4.32503 20.6609 4.86228 20.7048C5.40829 20.7494 6.10753 20.75 7.1 20.75H16.9C17.8925 20.75 18.5917 20.7494 19.1377 20.7048C19.675 20.6609 19.9975 20.5782 20.2485 20.4503C20.7659 20.1866 21.1866 19.7659 21.4503 19.2485C21.5782 18.9975 21.6609 18.675 21.7048 18.1377C21.7494 17.5917 21.75 16.8925 21.75 15.9V11.1C21.75 10.1075 21.7494 9.40829 21.7048 8.86228C21.6609 8.32503 21.5782 8.00252 21.4503 7.75153C21.1866 7.23408 20.7659 6.81339 20.2485 6.54974C19.9975 6.42185 19.675 6.33909 19.1377 6.2952C18.5917 6.25059 17.8925 6.25 16.9 6.25L7.1 6.25Z" fill="#000"/>
</svg>
