<svg width="24" height="24" viewBox="0 0 24 24" fill="none" xmlns="http://www.w3.org/2000/svg">
<path d="M10.1303 11.5697C10.4232 11.8626 10.4232 12.3375 10.1303 12.6304L8.26067 14.5L10.1303 16.3697C10.4232 16.6626 10.4232 17.1375 10.1303 17.4304C9.83745 17.7233 9.36258 17.7233 9.06968 17.4304L6.66968 15.0304C6.37679 14.7375 6.37679 14.2626 6.66968 13.9697L9.06968 11.5697C9.36258 11.2768 9.83745 11.2768 10.1303 11.5697Z" fill="#000"/>
<path d="M14.9304 11.5697C14.6375 11.2768 14.1626 11.2768 13.8697 11.5697C13.5768 11.8626 13.5768 12.3375 13.8697 12.6304L15.7394 14.5L13.8697 16.3697C13.5768 16.6626 13.5768 17.1375 13.8697 17.4304C14.1626 17.7233 14.6375 17.7233 14.9304 17.4304L17.3304 15.0304C17.6232 14.7375 17.6232 14.2626 17.3304 13.9697L14.9304 11.5697Z" fill="#000"/>
<path fill-rule="evenodd" clip-rule="evenodd" d="M18.1318 2.25006H5.86821C5.12513 2.25005 4.52196 2.25005 4.03273 2.29002C3.52778 2.33128 3.07851 2.41882 2.66103 2.63154C2.00247 2.9671 1.46703 3.50253 1.13148 4.1611C0.918762 4.57857 0.831214 5.02784 0.789958 5.53279C0.749986 6.02202 0.749993 6.62518 0.75 7.36825V16.6319C0.749993 17.3749 0.749986 17.9781 0.789958 18.4673C0.831214 18.9723 0.918762 19.4215 1.13148 19.839C1.46703 20.4976 2.00247 21.033 2.66103 21.3686C3.07851 21.5813 3.52778 21.6688 4.03273 21.7101C4.52195 21.7501 5.12507 21.7501 5.86811 21.7501H18.1318C18.8748 21.7501 19.4781 21.7501 19.9673 21.7101C20.4722 21.6688 20.9215 21.5813 21.339 21.3686C21.9975 21.033 22.533 20.4976 22.8685 19.839C23.0812 19.4215 23.1688 18.9723 23.21 18.4673C23.25 17.9781 23.25 17.375 23.25 16.632V7.36825C23.25 6.62521 23.25 6.02201 23.21 5.53279C23.1688 5.02784 23.0812 4.57857 22.8685 4.1611C22.533 3.50253 21.9975 2.9671 21.339 2.63154C20.9215 2.41882 20.4722 2.33128 19.9673 2.29002C19.478 2.25005 18.8749 2.25005 18.1318 2.25006ZM21.75 7.25006C21.7498 6.54749 21.7472 6.04844 21.715 5.65494C21.6813 5.24275 21.619 5.01286 21.532 4.84208C21.3403 4.46576 21.0343 4.1598 20.658 3.96805C20.4872 3.88103 20.2573 3.81871 19.8451 3.78504C19.4242 3.75065 18.8824 3.75006 18.1 3.75006H5.9C5.11755 3.75006 4.57582 3.75065 4.15488 3.78504C3.74269 3.81871 3.5128 3.88103 3.34202 3.96805C2.9657 4.1598 2.65973 4.46576 2.46799 4.84208C2.38097 5.01286 2.31865 5.24275 2.28498 5.65494C2.25283 6.04844 2.25022 6.54749 2.25002 7.25006H21.75ZM2.25 8.75006H21.75V16.6001C21.75 17.3825 21.7494 17.9242 21.715 18.3452C21.6813 18.7574 21.619 18.9873 21.532 19.158C21.3403 19.5344 21.0343 19.8403 20.658 20.0321C20.4872 20.1191 20.2573 20.1814 19.8451 20.2151C19.4242 20.2495 18.8824 20.2501 18.1 20.2501H5.9C5.11755 20.2501 4.57582 20.2495 4.15488 20.2151C3.74269 20.1814 3.5128 20.1191 3.34202 20.0321C2.9657 19.8403 2.65973 19.5344 2.46799 19.158C2.38097 18.9873 2.31865 18.7574 2.28498 18.3452C2.25058 17.9242 2.25 17.3825 2.25 16.6001V8.75006Z" fill="#000"/>
</svg>
