<svg width="24" height="24" viewBox="0 0 24 24" fill="none" xmlns="http://www.w3.org/2000/svg">
<path fill-rule="evenodd" clip-rule="evenodd" d="M8.25 5C8.25 2.92893 9.92893 1.25 12 1.25C14.0711 1.25 15.75 2.92893 15.75 5V5.52941C15.75 6.20352 15.2035 6.75 14.5294 6.75H9.47059C8.79648 6.75 8.25 6.20352 8.25 5.52941V5ZM12 2.75C10.7574 2.75 9.75 3.75736 9.75 5V5.25H14.25V5C14.25 3.75736 13.2426 2.75 12 2.75Z" fill="#000"/>
<path fill-rule="evenodd" clip-rule="evenodd" d="M9.61677 7.74992H14.3831C15.417 7.74949 16.1235 7.7492 16.7176 7.95314C17.7197 8.29718 18.5251 9.04723 18.942 10.0117C19.769 9.56645 20.25 8.56566 20.25 7.49986C20.25 7.08565 20.5858 6.74986 21 6.74986C21.4142 6.74986 21.75 7.08565 21.75 7.49986C21.75 9.03768 20.9718 10.8807 19.2376 11.5254C19.2503 11.8465 19.2502 12.2057 19.25 12.6167L19.25 14.25H22C22.4142 14.25 22.75 14.5858 22.75 15C22.75 15.4142 22.4142 15.75 22 15.75H19.2457C19.2265 16.3166 19.1423 16.8667 19.0003 17.3931C19.7937 17.6302 20.4151 18.1393 20.8566 18.7464C21.4561 19.5708 21.75 20.6026 21.75 21.5C21.75 21.9142 21.4142 22.25 21 22.25C20.5858 22.25 20.25 21.9142 20.25 21.5C20.25 20.8974 20.0439 20.1792 19.6434 19.6286C19.3433 19.2159 18.9511 18.9152 18.4567 18.8008C17.2569 21.1429 14.8203 22.7466 12.0087 22.75L12 22.75L11.9913 22.75C9.17972 22.7467 6.743 21.1429 5.54323 18.8008C5.0489 18.9152 4.65668 19.216 4.35655 19.6286C3.95611 20.1792 3.75 20.8974 3.75 21.5C3.75 21.9142 3.41421 22.25 3 22.25C2.58579 22.25 2.25 21.9142 2.25 21.5C2.25 20.6026 2.54389 19.5708 3.14345 18.7464C3.58491 18.1394 4.2063 17.6303 4.99962 17.3931C4.85761 16.8667 4.77339 16.3166 4.75419 15.75H2C1.58579 15.75 1.25 15.4142 1.25 15C1.25 14.5858 1.58579 14.25 2 14.25H4.74996L4.74992 12.6168C4.74975 12.2057 4.7496 11.8465 4.7623 11.5254C3.02816 10.8806 2.25 9.03765 2.25 7.49986C2.25 7.08565 2.58579 6.74986 3 6.74986C3.41421 6.74986 3.75 7.08565 3.75 7.49986C3.75 8.56563 4.23095 9.5664 5.05794 10.0116C5.47485 9.04721 6.28019 8.29718 7.28233 7.95314C7.87641 7.7492 8.58294 7.74949 9.61677 7.74992ZM17.3267 17.6691C17.3131 17.6968 17.3012 17.7254 17.291 17.7549C16.508 19.5898 14.7983 20.9346 12.75 21.2015V13C12.75 12.5858 12.4142 12.25 12 12.25C11.5858 12.25 11.25 12.5858 11.25 13V21.2015C9.20202 20.9347 7.49261 19.5903 6.70938 17.7559C6.699 17.7257 6.68675 17.6964 6.67276 17.6681C6.40016 16.999 6.24996 16.267 6.24996 15.5V15.0082L6.25 15L6.24996 14.9918V12.7631C6.24996 11.5257 6.2602 11.0947 6.37187 10.7694C6.59723 10.1129 7.11293 9.59723 7.76938 9.37187C8.09466 9.2602 8.52566 9.24996 9.76311 9.24996H14.2368C15.4743 9.24996 15.9053 9.2602 16.2305 9.37187C16.887 9.59723 17.4027 10.1129 17.628 10.7694C17.7397 11.0947 17.75 11.5257 17.75 12.7631V15.5C17.75 16.2674 17.5996 16.9998 17.3267 17.6691Z" fill="#000"/>
</svg>
