<svg width="24" height="24" viewBox="0 0 24 24" fill="none" xmlns="http://www.w3.org/2000/svg">
<path d="M15.75 10C15.75 10.4142 15.4142 10.75 15 10.75H14C13.5858 10.75 13.25 10.4142 13.25 10C13.25 9.58579 13.5858 9.25 14 9.25H15C15.4142 9.25 15.75 9.58579 15.75 10Z" fill="#000"/>
<path d="M15 7.75C15.4142 7.75 15.75 7.41421 15.75 7C15.75 6.58579 15.4142 6.25 15 6.25H14C13.5858 6.25 13.25 6.58579 13.25 7C13.25 7.41421 13.5858 7.75 14 7.75H15Z" fill="#000"/>
<path d="M15.75 13C15.75 13.4142 15.4142 13.75 15 13.75H14C13.5858 13.75 13.25 13.4142 13.25 13C13.25 12.5858 13.5858 12.25 14 12.25H15C15.4142 12.25 15.75 12.5858 15.75 13Z" fill="#000"/>
<path d="M10 10.75C10.4142 10.75 10.75 10.4142 10.75 10C10.75 9.58579 10.4142 9.25 10 9.25H9C8.58579 9.25 8.25 9.58579 8.25 10C8.25 10.4142 8.58579 10.75 9 10.75H10Z" fill="#000"/>
<path d="M10.75 7C10.75 7.41421 10.4142 7.75 10 7.75H9C8.58579 7.75 8.25 7.41421 8.25 7C8.25 6.58579 8.58579 6.25 9 6.25H10C10.4142 6.25 10.75 6.58579 10.75 7Z" fill="#000"/>
<path d="M10 13.75C10.4142 13.75 10.75 13.4142 10.75 13C10.75 12.5858 10.4142 12.25 10 12.25H9C8.58579 12.25 8.25 12.5858 8.25 13C8.25 13.4142 8.58579 13.75 9 13.75H10Z" fill="#000"/>
<path fill-rule="evenodd" clip-rule="evenodd" d="M8.7679 1.25H15.2321C16.0449 1.24999 16.7006 1.24999 17.2315 1.29336C17.7781 1.33803 18.2582 1.43239 18.7025 1.65873C19.4081 2.01825 19.9818 2.59193 20.3413 3.29754C20.5676 3.74175 20.662 4.2219 20.7066 4.76853C20.75 5.29944 20.75 5.95505 20.75 6.76788V21.25H22C22.4142 21.25 22.75 21.5858 22.75 22C22.75 22.4142 22.4142 22.75 22 22.75H2C1.58579 22.75 1.25 22.4142 1.25 22C1.25 21.5858 1.58579 21.25 2 21.25H3.25L3.25 6.7679C3.24999 5.95506 3.24999 5.29944 3.29336 4.76853C3.33803 4.2219 3.43239 3.74175 3.65873 3.29754C4.01825 2.59193 4.59193 2.01825 5.29754 1.65873C5.74175 1.43239 6.2219 1.33803 6.76853 1.29336C7.29944 1.24999 7.95506 1.24999 8.7679 1.25ZM4.75 21.25H8.75V17C8.75 16.0335 9.5335 15.25 10.5 15.25H13.5C14.4665 15.25 15.25 16.0335 15.25 17V21.25H19.25V6.8C19.25 5.94755 19.2494 5.35331 19.2116 4.89068C19.1745 4.43681 19.1054 4.17604 19.0048 3.97852C18.789 3.55516 18.4448 3.21095 18.0215 2.99524C17.824 2.8946 17.5632 2.82547 17.1093 2.78838C16.6467 2.75058 16.0525 2.75 15.2 2.75H8.8C7.94755 2.75 7.35331 2.75058 6.89068 2.78838C6.4368 2.82547 6.17604 2.8946 5.97852 2.99524C5.55516 3.21095 5.21095 3.55516 4.99524 3.97852C4.8946 4.17604 4.82547 4.43681 4.78838 4.89068C4.75058 5.35331 4.75 5.94755 4.75 6.8V21.25ZM13.75 21.25V17C13.75 16.8619 13.6381 16.75 13.5 16.75H10.5C10.3619 16.75 10.25 16.8619 10.25 17V21.25H13.75Z" fill="#000"/>
</svg>
