<svg width="24" height="24" viewBox="0 0 24 24" fill="none" xmlns="http://www.w3.org/2000/svg">
<path fill-rule="evenodd" clip-rule="evenodd" d="M5.7679 1.25H12.2321C13.0449 1.24999 13.7006 1.24999 14.2315 1.29336C14.7781 1.33803 15.2582 1.43239 15.7025 1.65873C16.4081 2.01825 16.9818 2.59193 17.3413 3.29754C17.5676 3.74176 17.662 4.2219 17.7066 4.76853C17.75 5.29944 17.75 5.95505 17.75 6.76788V9.70854C17.75 10.1228 17.4142 10.4585 17 10.4585C16.5858 10.4585 16.25 10.1228 16.25 9.70854V6.8C16.25 5.94755 16.2494 5.35331 16.2116 4.89068C16.1745 4.43681 16.1054 4.17604 16.0048 3.97852C15.7891 3.55516 15.4448 3.21095 15.0215 2.99524C14.824 2.8946 14.5632 2.82547 14.1093 2.78838C13.6467 2.75058 13.0525 2.75 12.2 2.75H5.8C4.94755 2.75 4.35331 2.75058 3.89068 2.78838C3.43681 2.82547 3.17604 2.8946 2.97852 2.99524C2.55516 3.21095 2.21095 3.55516 1.99524 3.97852C1.8946 4.17604 1.82547 4.43681 1.78838 4.89068C1.75058 5.35331 1.75 5.94755 1.75 6.8V17.2C1.75 18.0525 1.75058 18.6467 1.78838 19.1093C1.82547 19.5632 1.8946 19.824 1.99524 20.0215C2.21095 20.4448 2.55516 20.789 2.97852 21.0048C3.17604 21.1054 3.43681 21.1745 3.89068 21.2116C4.34421 21.2487 4.92422 21.25 5.75 21.25V17C5.75 16.0335 6.5335 15.25 7.5 15.25H10.5C11.4665 15.25 12.25 16.0335 12.25 17V21.25L12.6156 21.25C13.0298 21.2499 13.3656 21.5857 13.3657 21.9999C13.3658 22.4141 13.03 22.7499 12.6158 22.75L5.76788 22.75C4.95505 22.75 4.29944 22.75 3.76853 22.7066C3.2219 22.662 2.74176 22.5676 2.29754 22.3413C1.59193 21.9817 1.01825 21.4081 0.658726 20.7025C0.432386 20.2582 0.338026 19.7781 0.293364 19.2315C0.249988 18.7006 0.249993 18.045 0.25 17.2321V6.7679C0.249993 5.95507 0.249988 5.29944 0.293364 4.76853C0.338026 4.2219 0.432386 3.74176 0.658726 3.29754C1.01825 2.59193 1.59193 2.01825 2.29754 1.65873C2.74176 1.43239 3.2219 1.33803 3.76853 1.29336C4.29944 1.24999 4.95507 1.24999 5.7679 1.25ZM7.25 21.25H10.75V17C10.75 16.8619 10.6381 16.75 10.5 16.75H7.5C7.36193 16.75 7.25 16.8619 7.25 17V21.25Z" fill="#000"/>
<path d="M10.25 13C10.25 12.5858 10.5858 12.25 11 12.25H12C12.4142 12.25 12.75 12.5858 12.75 13C12.75 13.4142 12.4142 13.75 12 13.75H11C10.5858 13.75 10.25 13.4142 10.25 13Z" fill="#000"/>
<path d="M12.75 10C12.75 10.4142 12.4142 10.75 12 10.75H11C10.5858 10.75 10.25 10.4142 10.25 10C10.25 9.58579 10.5858 9.25 11 9.25H12C12.4142 9.25 12.75 9.58579 12.75 10Z" fill="#000"/>
<path d="M12 7.75C12.4142 7.75 12.75 7.41421 12.75 7C12.75 6.58579 12.4142 6.25 12 6.25H11C10.5858 6.25 10.25 6.58579 10.25 7C10.25 7.41421 10.5858 7.75 11 7.75H12Z" fill="#000"/>
<path d="M7.75 10C7.75 10.4142 7.41421 10.75 7 10.75H6C5.58579 10.75 5.25 10.4142 5.25 10C5.25 9.58579 5.58579 9.25 6 9.25H7C7.41421 9.25 7.75 9.58579 7.75 10Z" fill="#000"/>
<path d="M7 7.75C7.41421 7.75 7.75 7.41421 7.75 7C7.75 6.58579 7.41421 6.25 7 6.25H6C5.58579 6.25 5.25 6.58579 5.25 7C5.25 7.41421 5.58579 7.75 6 7.75H7Z" fill="#000"/>
<path d="M7.75 13C7.75 13.4142 7.41421 13.75 7 13.75H6C5.58579 13.75 5.25 13.4142 5.25 13C5.25 12.5858 5.58579 12.25 6 12.25H7C7.41421 12.25 7.75 12.5858 7.75 13Z" fill="#000"/>
<path fill-rule="evenodd" clip-rule="evenodd" d="M22.1646 12.417C22.969 12.8204 23.75 13.5159 23.75 14.5057C23.75 16.265 23.7502 18.0242 23.7505 19.7834C23.7505 20.8461 23.039 21.6077 22.1809 22.0635C21.3194 22.5211 20.1899 22.7503 19.001 22.7503C17.8121 22.7503 16.6825 22.5211 15.8211 22.0635C14.9629 21.6077 14.2515 20.8461 14.2515 19.7834L14.2512 17.2514C14.2512 16.8235 14.2509 16.3955 14.2506 15.9676C14.2503 15.4803 14.25 14.993 14.25 14.5057C14.25 13.5159 15.031 12.8204 15.8354 12.417C16.684 11.9915 17.8039 11.75 19 11.75C20.1961 11.75 21.316 11.9915 22.1646 12.417ZM21.4923 13.7579C20.8932 13.4575 20.0131 13.25 19 13.25C17.9869 13.25 17.1068 13.4575 16.5077 13.7579C15.8644 14.0805 15.75 14.3878 15.75 14.5057C15.75 14.6236 15.8644 14.931 16.5077 15.2535C17.1068 15.5539 17.9869 15.7614 19 15.7614C20.0131 15.7614 20.8932 15.5539 21.4923 15.2535C22.1356 14.931 22.25 14.6236 22.25 14.5057C22.25 14.3878 22.1356 14.0805 21.4923 13.7579ZM19 17.2614C20.1059 17.2614 21.2634 17.0722 22.2499 16.5505L22.25 17.2532C22.25 17.5487 22.0661 17.8955 21.4768 18.2086C20.8907 18.5199 20.0204 18.7201 19.0005 18.7201C17.9805 18.7201 17.1103 18.5199 16.5242 18.2086C15.9523 17.9048 15.7622 17.5692 15.7515 17.2796L15.7514 16.5512C16.7376 17.0723 17.8945 17.2614 19 17.2614ZM22.2505 19.4952C21.3743 19.9825 20.2218 20.2201 19.0005 20.2201C17.7796 20.2201 16.6275 19.9826 15.7515 19.4958V19.7834C15.7515 20.0789 15.9353 20.4257 16.5247 20.7388C17.1108 21.0501 17.981 21.2503 19.001 21.2503C20.0209 21.2503 20.8912 21.0501 21.4772 20.7388C22.0666 20.4257 22.2505 20.0789 22.2505 19.7834L22.2505 19.4952Z" fill="#000"/>
</svg>
