<svg width="24" height="24" viewBox="0 0 24 24" fill="none" xmlns="http://www.w3.org/2000/svg">
<path d="M12 1.25C12.4142 1.25 12.75 1.58579 12.75 2C12.75 2.41421 12.4142 2.75 12 2.75C6.89137 2.75 2.75 6.89137 2.75 12C2.75 17.1086 6.89137 21.25 12 21.25C17.1086 21.25 21.25 17.1086 21.25 12C21.25 11.5858 21.5858 11.25 22 11.25C22.4142 11.25 22.75 11.5858 22.75 12C22.75 17.9371 17.9371 22.75 12 22.75C6.06294 22.75 1.25 17.9371 1.25 12C1.25 6.06294 6.06294 1.25 12 1.25Z" fill="#000"/>
<path d="M10.8507 6.36462C11.2567 6.28222 11.6525 6.5445 11.7349 6.95044C11.8173 7.35637 11.5551 7.75224 11.1491 7.83464C9.20954 8.22836 7.74993 9.94437 7.74993 11.9996C7.74993 14.3468 9.65272 16.2496 11.9999 16.2496C14.0552 16.2496 15.7712 14.79 16.1649 12.8504C16.2473 12.4445 16.6432 12.1822 17.0491 12.2646C17.455 12.347 17.7173 12.7429 17.6349 13.1488C17.1021 15.7737 14.7826 17.7496 11.9999 17.7496C8.82429 17.7496 6.24993 15.1753 6.24993 11.9996C6.24993 9.21694 8.22583 6.89745 10.8507 6.36462Z" fill="#000"/>
<path fill-rule="evenodd" clip-rule="evenodd" d="M15.3106 9.75001H18.3787C18.9754 9.75001 19.5477 9.51296 19.9697 9.091L22.1036 6.95712C22.7335 6.32716 22.2874 5.25001 21.3964 5.25001H18.75V2.60357C18.75 1.71266 17.6729 1.2665 17.0429 1.89646L14.909 4.03034C14.4871 4.4523 14.25 5.0246 14.25 5.62133V8.68934L11.4697 11.4697C11.1768 11.7626 11.1768 12.2374 11.4697 12.5303C11.7626 12.8232 12.2374 12.8232 12.5303 12.5303L15.3106 9.75001ZM17.25 5.68934V3.81067L15.9697 5.091C15.829 5.23166 15.75 5.42242 15.75 5.62133V7.18934L17.25 5.68934ZM16.8106 8.25001L18.3106 6.75001H20.1893L18.909 8.03034C18.7684 8.171 18.5776 8.25001 18.3787 8.25001H16.8106Z" fill="#000"/>
</svg>
