<svg width="24" height="24" viewBox="0 0 24 24" fill="none" xmlns="http://www.w3.org/2000/svg">
<path fill-rule="evenodd" clip-rule="evenodd" d="M21.25 16.8383V12.122C22.1239 11.8131 22.75 10.9797 22.75 10C22.75 9.02034 22.1239 8.18691 21.25 7.87803V3.16171C21.25 2.1059 20.3941 1.25 19.3383 1.25C18.9747 1.25 18.6187 1.35368 18.3119 1.54887L16.1683 2.91302C14.283 4.11276 12.0947 4.75 9.85999 4.75H6.5C3.60051 4.75 1.25 7.10051 1.25 10C1.25 12.874 3.55936 15.2086 6.42366 15.2495L8.07737 21.4509C8.28165 22.2169 8.97544 22.7499 9.76828 22.7499H11C11.9665 22.7499 12.75 21.9664 12.75 20.9999V15.611C13.9547 15.9167 15.1093 16.4131 16.1683 17.087L18.3119 18.4511C18.6187 18.6463 18.9747 18.75 19.3383 18.75C20.3941 18.75 21.25 17.8941 21.25 16.8383ZM19.3383 2.75C19.26 2.75 19.1833 2.77233 19.1173 2.81437L16.9736 4.17851C15.6717 5.00698 14.2417 5.59759 12.75 5.93099L12.75 14.069C14.2417 14.4024 15.6717 14.993 16.9736 15.8215L19.1173 17.1856C19.1833 17.2277 19.26 17.25 19.3383 17.25C19.5657 17.25 19.75 17.0657 19.75 16.8383V3.16171C19.75 2.93433 19.5657 2.75 19.3383 2.75ZM11.25 13.8231L11.25 6.1769C10.7897 6.22545 10.3257 6.25 9.85999 6.25H6.5C4.42893 6.25 2.75 7.92893 2.75 10C2.75 12.0711 4.42893 13.75 6.5 13.75H6.98143C6.99417 13.7497 7.00687 13.7497 7.01953 13.75H9.85999C10.3257 13.75 10.7897 13.7745 11.25 13.8231ZM9.52672 21.0644L7.97623 15.25H9.85999C10.3261 15.25 10.7902 15.2777 11.25 15.3325V20.9999C11.25 21.138 11.1381 21.2499 11 21.2499H9.76828C9.65502 21.2499 9.55591 21.1738 9.52672 21.0644Z" fill="#000"/>
</svg>
