<svg width="24" height="24" viewBox="0 0 24 24" fill="none" xmlns="http://www.w3.org/2000/svg">
<path d="M9.25 5.75C9.66421 5.75 10 6.08579 10 6.5V7.25H14V6.5C14 6.08579 14.3358 5.75 14.75 5.75C15.1642 5.75 15.5 6.08579 15.5 6.5V7.5C15.5 8.19036 14.9404 8.75 14.25 8.75H9.75C9.05964 8.75 8.5 8.19036 8.5 7.5V6.5C8.5 6.08579 8.83579 5.75 9.25 5.75Z" fill="#000"/>
<path d="M10 16C10 15.5858 9.66421 15.25 9.25 15.25C8.83579 15.25 8.5 15.5858 8.5 16V17C8.5 17.6904 9.05964 18.25 9.75 18.25H14.25C14.9404 18.25 15.5 17.6904 15.5 17V16C15.5 15.5858 15.1642 15.25 14.75 15.25C14.3358 15.25 14 15.5858 14 16V16.75H10V16Z" fill="#000"/>
<path fill-rule="evenodd" clip-rule="evenodd" d="M16.2321 1.25H7.7679C6.95506 1.24999 6.29944 1.24999 5.76853 1.29336C5.2219 1.33803 4.74175 1.43239 4.29754 1.65873C3.59193 2.01825 3.01825 2.59193 2.65873 3.29754C2.43239 3.74175 2.33803 4.2219 2.29336 4.76853C2.24999 5.29944 2.24999 5.95505 2.25 6.76788V17.2321C2.24999 18.0449 2.24999 18.7006 2.29336 19.2315C2.33803 19.7781 2.43239 20.2582 2.65873 20.7025C3.01825 21.4081 3.59193 21.9817 4.29754 22.3413C4.74175 22.5676 5.2219 22.662 5.76853 22.7066C6.29946 22.75 6.9551 22.75 7.76798 22.75H16.232C17.0449 22.75 17.7005 22.75 18.2315 22.7066C18.7781 22.662 19.2582 22.5676 19.7025 22.3413C20.4081 21.9817 20.9817 21.4081 21.3413 20.7025C21.5676 20.2582 21.662 19.7781 21.7066 19.2315C21.75 18.7006 21.75 18.045 21.75 17.2321V6.76788C21.75 5.95505 21.75 5.29944 21.7066 4.76853C21.662 4.2219 21.5676 3.74175 21.3413 3.29754C20.9817 2.59193 20.4081 2.01825 19.7025 1.65873C19.2582 1.43239 18.7781 1.33803 18.2315 1.29336C17.7006 1.24999 17.0449 1.24999 16.2321 1.25ZM20.25 11.25V6.8C20.25 5.94755 20.2494 5.35331 20.2116 4.89068C20.1745 4.43681 20.1054 4.17604 20.0048 3.97852C19.789 3.55516 19.4448 3.21095 19.0215 2.99524C18.824 2.8946 18.5632 2.82547 18.1093 2.78838C17.6467 2.75058 17.0525 2.75 16.2 2.75H7.8C6.94755 2.75 6.35331 2.75058 5.89068 2.78838C5.43681 2.82547 5.17604 2.8946 4.97852 2.99524C4.55516 3.21095 4.21095 3.55516 3.99524 3.97852C3.8946 4.17604 3.82547 4.43681 3.78838 4.89068C3.75058 5.35331 3.75 5.94755 3.75 6.8V11.25H20.25ZM3.75 12.75H20.25V17.2C20.25 18.0525 20.2494 18.6467 20.2116 19.1093C20.1745 19.5632 20.1054 19.824 20.0048 20.0215C19.789 20.4448 19.4448 20.789 19.0215 21.0048C18.824 21.1054 18.5632 21.1745 18.1093 21.2116C17.6467 21.2494 17.0525 21.25 16.2 21.25H7.8C6.94755 21.25 6.35331 21.2494 5.89068 21.2116C5.43681 21.1745 5.17604 21.1054 4.97852 21.0048C4.55516 20.789 4.21095 20.4448 3.99524 20.0215C3.8946 19.824 3.82547 19.5632 3.78838 19.1093C3.75058 18.6467 3.75 18.0525 3.75 17.2V12.75Z" fill="#000"/>
</svg>
