<svg width="24" height="24" viewBox="0 0 24 24" fill="none" xmlns="http://www.w3.org/2000/svg">
<path d="M9.03033 14.9697C9.32322 15.2626 9.32322 15.7374 9.03033 16.0303L8.06066 17L9.03033 17.9697C9.32322 18.2626 9.32322 18.7374 9.03033 19.0303C8.73744 19.3232 8.26256 19.3232 7.96967 19.0303L7 18.0607L6.03033 19.0303C5.73744 19.3232 5.26256 19.3232 4.96967 19.0303C4.67678 18.7374 4.67678 18.2626 4.96967 17.9697L5.93934 17L4.96967 16.0303C4.67678 15.7374 4.67678 15.2626 4.96967 14.9697C5.26256 14.6768 5.73744 14.6768 6.03033 14.9697L7 15.9393L7.96967 14.9697C8.26256 14.6768 8.73744 14.6768 9.03033 14.9697Z" fill="#000"/>
<path d="M9 7.75C9.41421 7.75 9.75 7.41421 9.75 7C9.75 6.58579 9.41421 6.25 9 6.25H5C4.58579 6.25 4.25 6.58579 4.25 7C4.25 7.41421 4.58579 7.75 5 7.75H9Z" fill="#000"/>
<path d="M19 16.5C19.4142 16.5 19.75 16.1642 19.75 15.75C19.75 15.3358 19.4142 15 19 15H15C14.5858 15 14.25 15.3358 14.25 15.75C14.25 16.1642 14.5858 16.5 15 16.5H19Z" fill="#000"/>
<path d="M19.75 18.25C19.75 18.6642 19.4142 19 19 19H15C14.5858 19 14.25 18.6642 14.25 18.25C14.25 17.8358 14.5858 17.5 15 17.5H19C19.4142 17.5 19.75 17.8358 19.75 18.25Z" fill="#000"/>
<path d="M17 9.75C16.5858 9.75 16.25 9.41421 16.25 9V7.75H15C14.5858 7.75 14.25 7.41421 14.25 7C14.25 6.58579 14.5858 6.25 15 6.25H16.25V5C16.25 4.58579 16.5858 4.25 17 4.25C17.4142 4.25 17.75 4.58579 17.75 5V6.25H19C19.4142 6.25 19.75 6.58579 19.75 7C19.75 7.41421 19.4142 7.75 19 7.75H17.75V9C17.75 9.41421 17.4142 9.75 17 9.75Z" fill="#000"/>
<path fill-rule="evenodd" clip-rule="evenodd" d="M7.56739 1.25C6.61495 1.24999 5.85439 1.24999 5.24013 1.30018C4.61012 1.35165 4.06824 1.45963 3.57054 1.71322C2.77085 2.12068 2.12068 2.77085 1.71322 3.57054C1.45963 4.06824 1.35165 4.61012 1.30018 5.24013C1.24999 5.8544 1.24999 6.61494 1.25 7.56738V16.4326C1.24999 17.3851 1.24999 18.1456 1.30018 18.7599C1.35165 19.3899 1.45963 19.9318 1.71322 20.4295C2.12068 21.2291 2.77085 21.8793 3.57054 22.2868C4.06824 22.5404 4.61012 22.6483 5.24013 22.6998C5.85438 22.75 6.6149 22.75 7.5673 22.75H16.4326C17.385 22.75 18.1456 22.75 18.7599 22.6998C19.3899 22.6483 19.9318 22.5404 20.4295 22.2868C21.2291 21.8793 21.8793 21.2291 22.2868 20.4295C22.5404 19.9318 22.6483 19.3899 22.6998 18.7599C22.75 18.1456 22.75 17.3851 22.75 16.4327V7.56737C22.75 6.61496 22.75 5.85438 22.6998 5.24013C22.6483 4.61012 22.5404 4.06824 22.2868 3.57054C21.8793 2.77085 21.2291 2.12068 20.4295 1.71322C19.9318 1.45963 19.3899 1.35165 18.7599 1.30018C18.1456 1.24999 17.3851 1.24999 16.4326 1.25H7.56739ZM2.75 16.4V12.75H11.25V21.25H7.6C6.60753 21.25 5.90829 21.2494 5.36228 21.2048C4.82503 21.1609 4.50252 21.0782 4.25153 20.9503C3.73408 20.6866 3.31338 20.2659 3.04973 19.7485C2.92184 19.4975 2.83909 19.175 2.79519 18.6377C2.75058 18.0917 2.75 17.3925 2.75 16.4ZM2.75 11.25H11.25V2.75H7.6C6.60753 2.75 5.90829 2.75058 5.36228 2.79519C4.82503 2.83909 4.50252 2.92184 4.25153 3.04973C3.73408 3.31338 3.31338 3.73408 3.04973 4.25153C2.92184 4.50252 2.83909 4.82503 2.79519 5.36228C2.75058 5.90829 2.75 6.60753 2.75 7.6V11.25ZM16.4 21.25H12.75V12.75H21.25V16.4C21.25 17.3925 21.2494 18.0917 21.2048 18.6377C21.1609 19.175 21.0782 19.4975 20.9503 19.7485C20.6866 20.2659 20.2659 20.6866 19.7485 20.9503C19.4975 21.0782 19.175 21.1609 18.6377 21.2048C18.0917 21.2494 17.3925 21.25 16.4 21.25ZM21.25 11.25V7.6C21.25 6.60753 21.2494 5.90829 21.2048 5.36228C21.1609 4.82503 21.0782 4.50252 20.9503 4.25153C20.6866 3.73408 20.2659 3.31338 19.7485 3.04973C19.4975 2.92184 19.175 2.83909 18.6377 2.79519C18.0917 2.75058 17.3925 2.75 16.4 2.75H12.75V11.25H21.25Z" fill="#000"/>
</svg>
