<svg width="24" height="24" viewBox="0 0 24 24" fill="none" xmlns="http://www.w3.org/2000/svg">
<path d="M16.0303 13.7803C16.3232 13.4874 16.3232 13.0126 16.0303 12.7197C15.7374 12.4268 15.2626 12.4268 14.9697 12.7197L11 16.6893L9.03033 14.7197C8.73744 14.4268 8.26256 14.4268 7.96967 14.7197C7.67678 15.0126 7.67678 15.4874 7.96967 15.7803L10.4697 18.2803C10.7626 18.5732 11.2374 18.5732 11.5303 18.2803L16.0303 13.7803Z" fill="#000"/>
<path fill-rule="evenodd" clip-rule="evenodd" d="M8 0.25C8.41421 0.25 8.75 0.585786 8.75 1V2.25H15.25V1C15.25 0.585786 15.5858 0.25 16 0.25C16.4142 0.25 16.75 0.585786 16.75 1V2.25007C17.5561 2.25064 18.2154 2.25569 18.7599 2.30018C19.3899 2.35165 19.9318 2.45963 20.4295 2.71322C21.2291 3.12068 21.8793 3.77085 22.2868 4.57054C22.5404 5.06824 22.6483 5.61012 22.6998 6.24013C22.75 6.85438 22.75 7.6149 22.75 8.5673V17.4326C22.75 18.385 22.75 19.1456 22.6998 19.7599C22.6483 20.3899 22.5404 20.9318 22.2868 21.4295C21.8793 22.2291 21.2291 22.8793 20.4295 23.2868C19.9318 23.5404 19.3899 23.6483 18.7599 23.6998C18.1456 23.75 17.3851 23.75 16.4327 23.75H7.56737C6.61496 23.75 5.85438 23.75 5.24013 23.6998C4.61012 23.6483 4.06824 23.5404 3.57054 23.2868C2.77085 22.8793 2.12068 22.2291 1.71322 21.4295C1.45963 20.9318 1.35165 20.3899 1.30018 19.7599C1.24999 19.1456 1.24999 18.3851 1.25 17.4326V8.56739C1.24999 7.61495 1.24999 6.85439 1.30018 6.24013C1.35165 5.61012 1.45963 5.06824 1.71322 4.57054C2.12068 3.77085 2.77085 3.12068 3.57054 2.71322C4.06824 2.45963 4.61012 2.35165 5.24013 2.30018C5.78458 2.25569 6.44395 2.25064 7.25 2.25007V1C7.25 0.585786 7.58579 0.25 8 0.25ZM7.6 3.75C6.60753 3.75 5.90829 3.75058 5.36228 3.79519C4.82503 3.83909 4.50252 3.92184 4.25153 4.04973C3.73408 4.31338 3.31338 4.73408 3.04973 5.25153C2.92184 5.50252 2.83909 5.82503 2.79519 6.36228C2.76455 6.7374 2.75468 7.18484 2.7515 7.75H21.2485C21.2453 7.18484 21.2355 6.7374 21.2048 6.36228C21.1609 5.82503 21.0782 5.50252 20.9503 5.25153C20.6866 4.73408 20.2659 4.31338 19.7485 4.04973C19.4975 3.92184 19.175 3.83909 18.6377 3.79519C18.0917 3.75058 17.3925 3.75 16.4 3.75H7.6ZM2.75 17.4V9.25H21.25V17.4C21.25 18.3925 21.2494 19.0917 21.2048 19.6377C21.1609 20.175 21.0782 20.4975 20.9503 20.7485C20.6866 21.2659 20.2659 21.6866 19.7485 21.9503C19.4975 22.0782 19.175 22.1609 18.6377 22.2048C18.0917 22.2494 17.3925 22.25 16.4 22.25H7.6C6.60753 22.25 5.90829 22.2494 5.36228 22.2048C4.82503 22.1609 4.50252 22.0782 4.25153 21.9503C3.73408 21.6866 3.31338 21.2659 3.04973 20.7485C2.92184 20.4975 2.83909 20.175 2.79519 19.6377C2.75058 19.0917 2.75 18.3925 2.75 17.4Z" fill="#000"/>
</svg>
