<svg width="24" height="24" viewBox="0 0 24 24" fill="none" xmlns="http://www.w3.org/2000/svg">
<path fill-rule="evenodd" clip-rule="evenodd" d="M2.53039 1.46943C2.2375 1.17653 1.76262 1.17653 1.46973 1.46943C1.17684 1.76232 1.17684 2.23719 1.46973 2.53009L3.4732 4.53356C2.31111 4.98085 1.40119 5.91677 0.988511 7.09627C0.74937 7.77978 0.749632 8.59807 0.750032 9.84271L0.750065 15.4323C0.750059 16.3847 0.750054 17.1453 0.800241 17.7595C0.851715 18.3896 0.959699 18.9314 1.21329 19.4291C1.62075 20.2288 2.27092 20.879 3.07061 21.2865C3.5683 21.54 4.11019 21.648 4.7402 21.6995C5.35444 21.7497 6.11496 21.7497 7.06737 21.7497H16.9327C17.8851 21.7497 18.6457 21.7497 19.2599 21.6995C19.6856 21.6647 20.0711 21.6041 20.4299 21.4903L21.4697 22.5301C21.7626 22.823 22.2375 22.823 22.5304 22.5301C22.8233 22.2372 22.8233 21.7623 22.5304 21.4694L21.1481 20.0871C21.1419 20.0807 21.1357 20.0745 21.1293 20.0683L15.821 14.7601C15.8172 14.7561 15.8133 14.7523 15.8094 14.7484L10.2515 9.19055C10.2477 9.18663 10.2438 9.18275 10.2399 9.17892L2.53039 1.46943ZM8.61122 9.67157L4.72542 5.78578C4.44106 5.81021 4.24974 5.84889 4.09199 5.90407C3.30194 6.18045 2.68077 6.8016 2.40435 7.59164C2.26067 8.00231 2.25007 8.5406 2.25007 9.99968V15.3997C2.25007 16.3921 2.25065 17.0914 2.29526 17.6374C2.33915 18.1747 2.42191 18.4972 2.5498 18.7482C2.81345 19.2656 3.23415 19.6863 3.75159 19.9499C4.00259 20.0778 4.32509 20.1606 4.86235 20.2045C5.40835 20.2491 6.1076 20.2497 7.10007 20.2497H16.9001C17.8925 20.2497 18.5918 20.2491 19.1378 20.2045C19.1397 20.2043 19.1417 20.2042 19.1437 20.204L15.3284 16.3887C14.4719 17.2298 13.2968 17.7499 12.0001 17.7499C9.37671 17.7499 7.25007 15.6232 7.25007 12.9999C7.25007 11.7032 7.77009 10.528 8.61122 9.67157ZM14.2677 15.3281L9.67185 10.7322C9.1007 11.3184 8.75007 12.1182 8.75007 12.9999C8.75007 14.7948 10.2051 16.2499 12.0001 16.2499C12.8817 16.2499 13.6816 15.8992 14.2677 15.3281Z" fill="#000"/>
<path d="M10.1832 1.74982C9.80017 1.74937 9.4629 1.74899 9.14453 1.84418C8.86528 1.92768 8.60491 2.06464 8.37791 2.24745C8.11909 2.45587 7.92834 2.73402 7.71172 3.04988L7.36352 3.55646C7.12885 3.89779 7.21532 4.36473 7.55665 4.59939C7.89798 4.83405 8.36491 4.74758 8.59958 4.40625L8.90287 3.9651C9.19054 3.54667 9.2534 3.46833 9.31871 3.41573C9.39438 3.3548 9.48117 3.30914 9.57425 3.28131C9.65459 3.25729 9.75476 3.24988 10.2625 3.24988H13.7376C14.2454 3.24988 14.3455 3.25729 14.4259 3.28131C14.519 3.30914 14.6058 3.3548 14.6814 3.41573C14.7467 3.46833 14.8096 3.54667 15.0973 3.9651L16.1006 5.42458C16.2406 5.62809 16.4717 5.74968 16.7187 5.74968H16.9001C17.8925 5.74968 18.5918 5.75026 19.1378 5.79487C19.675 5.83877 19.9975 5.92152 20.2485 6.04941C20.766 6.31306 21.1867 6.73376 21.4503 7.25121C21.5782 7.5022 21.661 7.82471 21.7049 8.36196C21.7495 8.90797 21.7501 9.60721 21.7501 10.5997V15.3997C21.7501 16.8291 21.7463 17.6339 21.6282 18.213C21.5454 18.6189 21.8074 19.015 22.2132 19.0978C22.6191 19.1805 23.0152 18.9186 23.0979 18.5127C23.2502 17.766 23.2502 16.8029 23.2501 15.4939L23.2501 10.567C23.2501 9.61465 23.2501 8.85406 23.1999 8.23981C23.1484 7.6098 23.0404 7.06792 22.7868 6.57022C22.3794 5.77053 21.7292 5.12036 20.9295 4.7129C20.4318 4.45931 19.8899 4.35133 19.2599 4.29986C18.685 4.25288 17.9819 4.24988 17.1132 4.24969L16.2884 3.04986C16.0718 2.73401 15.881 2.45587 15.6222 2.24745C15.3952 2.06464 15.1349 1.92768 14.8556 1.84418C14.5372 1.74899 14.2 1.74937 13.817 1.74982H10.1832Z" fill="#000"/>
</svg>
