<svg width="24" height="24" viewBox="0 0 24 24" fill="none" xmlns="http://www.w3.org/2000/svg">
<path fill-rule="evenodd" clip-rule="evenodd" d="M12 8.25C14.6234 8.25 16.75 10.3766 16.75 13C16.75 15.6234 14.6234 17.75 12 17.75C9.37665 17.75 7.25 15.6234 7.25 13C7.25 10.3766 9.37665 8.25 12 8.25ZM15.25 13C15.25 11.2051 13.7949 9.75 12 9.75C10.2051 9.75 8.75 11.2051 8.75 13C8.75 14.7949 10.2051 16.25 12 16.25C13.7949 16.25 15.25 14.7949 15.25 13Z" fill="#000"/>
<path fill-rule="evenodd" clip-rule="evenodd" d="M9.78905 1.75C9.04813 1.75 8.3547 2.11476 7.93495 2.72531L6.88685 4.24982C6.01819 4.25 5.31508 4.25301 4.74013 4.29998C4.11012 4.35145 3.56824 4.45944 3.07054 4.71303C2.27085 5.12049 1.62068 5.77066 1.21322 6.57035C0.959634 7.06804 0.85165 7.60992 0.800176 8.23994C0.749989 8.8542 0.749994 9.61475 0.75 10.5672V15.4324C0.749994 16.3849 0.749989 17.1454 0.800176 17.7597C0.85165 18.3897 0.959634 18.9316 1.21322 19.4293C1.62068 20.229 2.27085 20.8791 3.07054 21.2866C3.56824 21.5402 4.11012 21.6482 4.74013 21.6996C5.35438 21.7498 6.1149 21.7498 7.0673 21.7498H16.9326C17.885 21.7498 18.6456 21.7498 19.2599 21.6996C19.8899 21.6482 20.4318 21.5402 20.9295 21.2866C21.7291 20.8791 22.3793 20.229 22.7868 19.4293C23.0404 18.9316 23.1483 18.3897 23.1998 17.7597C23.25 17.1454 23.25 16.3849 23.25 15.4325V10.5672C23.25 9.61477 23.25 8.85418 23.1998 8.23994C23.1483 7.60992 23.0404 7.06804 22.7868 6.57035C22.3793 5.77066 21.7291 5.12049 20.9295 4.71303C20.4318 4.45944 19.8899 4.35145 19.2599 4.29998C18.6849 4.25301 17.9818 4.25 17.1131 4.24982L16.065 2.72531C15.6453 2.11476 14.9519 1.75 14.211 1.75H9.78905ZM9.17101 3.5751C9.31093 3.37159 9.54207 3.25 9.78905 3.25H14.211C14.4579 3.25 14.6891 3.37159 14.829 3.5751L16.1006 5.4247C16.2405 5.62822 16.4716 5.7498 16.7186 5.7498H16.9C17.8925 5.7498 18.5917 5.75039 19.1377 5.795C19.675 5.83889 19.9975 5.92165 20.2485 6.04954C20.7659 6.31319 21.1866 6.73389 21.4503 7.25133C21.5782 7.50233 21.6609 7.82483 21.7048 8.36209C21.7494 8.90809 21.75 9.60734 21.75 10.5998V15.3998C21.75 16.3923 21.7494 17.0915 21.7048 17.6375C21.6609 18.1748 21.5782 18.4973 21.4503 18.7483C21.1866 19.2657 20.7659 19.6864 20.2485 19.9501C19.9975 20.078 19.675 20.1607 19.1377 20.2046C18.5917 20.2492 17.8925 20.2498 16.9 20.2498H7.1C6.10753 20.2498 5.40829 20.2492 4.86228 20.2046C4.32503 20.1607 4.00252 20.078 3.75153 19.9501C3.23408 19.6864 2.81338 19.2657 2.54973 18.7483C2.42184 18.4973 2.33909 18.1748 2.29519 17.6375C2.25058 17.0915 2.25 16.3923 2.25 15.3998V10.5998C2.25 9.60734 2.25058 8.90809 2.29519 8.36209C2.33909 7.82483 2.42184 7.50233 2.54973 7.25133C2.81338 6.73389 3.23408 6.31319 3.75153 6.04954C4.00252 5.92165 4.32503 5.83889 4.86228 5.795C5.40829 5.75039 6.10753 5.7498 7.1 5.7498H7.28138C7.52836 5.7498 7.7595 5.62822 7.89942 5.4247L9.17101 3.5751Z" fill="#000"/>
</svg>
