<svg width="24" height="24" viewBox="0 0 24 24" fill="none" xmlns="http://www.w3.org/2000/svg">
<path d="M10 12.75C9.58579 12.75 9.25 13.0858 9.25 13.5C9.25 13.9142 9.58579 14.25 10 14.25H14C14.4142 14.25 14.75 13.9142 14.75 13.5C14.75 13.0858 14.4142 12.75 14 12.75H10Z" fill="#000"/>
<path d="M5 13.5C5 12.9477 5.44772 12.5 6 12.5C6.55229 12.5 7.0001 12.9477 7.0001 13.5C7.0001 14.0523 6.55239 14.5 6.0001 14.5C5.44782 14.5 5 14.0523 5 13.5Z" fill="#000"/>
<path d="M18 12.5C17.4477 12.5 17 12.9477 17 13.5C17 14.0523 17.4477 14.5 18 14.5C18.5523 14.5 19.0001 14.0523 19.0001 13.5C19.0001 12.9477 18.5523 12.5 18 12.5Z" fill="#000"/>
<path fill-rule="evenodd" clip-rule="evenodd" d="M2.84256 9.10064L3.29277 7.75H2C1.58579 7.75 1.25 7.41421 1.25 7C1.25 6.58579 1.58579 6.25 2 6.25H3.79277L3.92091 5.86542C4.205 5.01133 4.41169 4.38994 4.80879 3.91509C5.15782 3.49771 5.60606 3.17464 6.11239 2.9755C6.68845 2.74894 7.34332 2.74936 8.24341 2.74993H15.7566C16.6567 2.74936 17.3116 2.74894 17.8876 2.9755C18.394 3.17464 18.8422 3.49771 19.1912 3.91509C19.5883 4.38994 19.795 5.01134 20.0791 5.86542L20.2073 6.25H22C22.4142 6.25 22.75 6.58579 22.75 7C22.75 7.41421 22.4142 7.75 22 7.75H20.7073L21.1575 9.10066C21.7011 9.38946 22.1432 9.83879 22.423 10.388C22.6085 10.752 22.6824 11.1396 22.7169 11.5611C22.75 11.967 22.75 12.4653 22.75 13.069V13.931C22.75 14.5347 22.75 15.033 22.7169 15.4389C22.6824 15.8604 22.6085 16.248 22.423 16.612C22.2536 16.9444 22.0248 17.2403 21.75 17.4861V19.75C21.75 20.5784 21.0784 21.25 20.25 21.25H18.75C17.9216 21.25 17.25 20.5784 17.25 19.75V18.25H6.75V19.75C6.75 20.5784 6.07843 21.25 5.25 21.25H3.75C2.92157 21.25 2.25 20.5784 2.25 19.75V17.4861C1.97519 17.2403 1.74638 16.9444 1.57698 16.612C1.39151 16.248 1.31759 15.8604 1.28315 15.4389C1.24998 15.033 1.24999 14.5347 1.25 13.931V13.069C1.24999 12.4653 1.24998 11.967 1.28315 11.5611C1.31759 11.1396 1.39151 10.752 1.57698 10.388C1.85684 9.83878 2.2989 9.38945 2.84256 9.10064ZM6.6614 4.37142C6.9381 4.2626 7.28233 4.24999 8.38305 4.24999H15.617C16.7177 4.24999 17.0619 4.2626 17.3386 4.37142C17.6113 4.47865 17.8526 4.65261 18.0406 4.87735C18.2313 5.10544 18.3521 5.42802 18.7002 6.47225L19.4623 8.7586C19.4244 8.75753 19.3857 8.75659 19.3464 8.75576C19.1106 8.75081 18.8505 8.75011 18.5648 8.75001L5.31858 8.75009C5.10525 8.75035 4.90685 8.75126 4.72276 8.75444C4.65939 8.75554 4.59771 8.7569 4.53771 8.75861L5.29983 6.47225C5.64791 5.42802 5.76872 5.10544 5.95946 4.87735C6.1474 4.65261 6.38876 4.47865 6.6614 4.37142ZM19.8167 16.7218C19.4792 16.7494 19.0424 16.75 18.4 16.75H5.6C4.95757 16.75 4.52085 16.7494 4.18328 16.7218C3.85447 16.695 3.68631 16.6463 3.56902 16.5865C3.28677 16.4427 3.0573 16.2132 2.91349 15.931C2.85372 15.8137 2.80503 15.6455 2.77816 15.3167C2.75058 14.9792 2.75 14.5424 2.75 13.9V13.1C2.75 12.4576 2.75058 12.0208 2.77816 11.6833C2.80503 11.3545 2.85372 11.1863 2.91349 11.069C3.0573 10.7868 3.28677 10.5573 3.56902 10.4135C3.60191 10.3967 3.63881 10.3808 3.68213 10.3661L3.68735 10.3643C3.7094 10.3569 3.73293 10.3499 3.75826 10.3431C3.83097 10.3238 3.91943 10.3071 4.03067 10.2935C4.11676 10.283 4.21648 10.2745 4.33336 10.268C4.43528 10.2624 4.5452 10.2585 4.66529 10.2558C4.92105 10.2502 5.22559 10.25 5.6 10.25H18.4C18.7429 10.25 19.0272 10.2502 19.2691 10.2545C19.3299 10.2556 19.3882 10.257 19.4442 10.2587C19.5226 10.2611 19.5966 10.2641 19.6667 10.268C19.763 10.2733 19.8476 10.2801 19.9225 10.2881C20.183 10.3162 20.327 10.3605 20.431 10.4135C20.7132 10.5573 20.9427 10.7868 21.0865 11.069C21.1463 11.1863 21.195 11.3545 21.2218 11.6833C21.2494 12.0208 21.25 12.4576 21.25 13.1V13.9C21.25 14.5424 21.2494 14.9792 21.2218 15.3167C21.195 15.6455 21.1463 15.8137 21.0865 15.931C20.9427 16.2132 20.7132 16.4427 20.431 16.5865C20.3137 16.6463 20.1455 16.695 19.8167 16.7218ZM3.75 18.246V19.75H5.25V18.25L4.55821 18.25C4.26511 18.25 3.99624 18.25 3.75 18.246ZM19.4427 18.25L18.75 18.25V19.75H20.25V18.246C20.004 18.25 19.7354 18.25 19.4427 18.25Z" fill="#000"/>
</svg>
