<svg width="24" height="24" viewBox="0 0 24 24" fill="none" xmlns="http://www.w3.org/2000/svg">
<path fill-rule="evenodd" clip-rule="evenodd" d="M12.2891 6.76713C11.8121 6.27013 11.0901 6.11513 10.4521 6.37313C9.81407 6.63113 9.40007 7.24213 9.40007 7.93013V16.0691C9.40007 16.7581 9.81307 17.3691 10.4521 17.6261C10.6571 17.7081 10.8711 17.7491 11.0821 17.7491C11.5291 17.7491 11.9651 17.5691 12.2891 17.2321L16.1061 13.2621C16.7871 12.5541 16.7871 11.4451 16.1061 10.7371L12.2891 6.76713ZM11.0131 16.2351C10.9391 16.2051 10.9011 16.1491 10.9011 16.0691V7.93113C10.9011 7.85013 10.9391 7.79513 11.0131 7.76513C11.0891 7.73413 11.1541 7.74913 11.2091 7.80713L15.0261 11.7771C15.1461 11.9031 15.1461 12.0981 15.0261 12.2231L11.2091 16.1931C11.1541 16.2521 11.0881 16.2631 11.0131 16.2351Z" fill="#000"/>
<path fill-rule="evenodd" clip-rule="evenodd" d="M0.25 12C0.25 5.51065 5.51065 0.25 12 0.25C18.4893 0.25 23.75 5.51065 23.75 12C23.75 18.4893 18.4893 23.75 12 23.75C5.51065 23.75 0.25 18.4893 0.25 12ZM12 1.75C6.33908 1.75 1.75 6.33908 1.75 12C1.75 17.6609 6.33908 22.25 12 22.25C17.6609 22.25 22.25 17.6609 22.25 12C22.25 6.33908 17.6609 1.75 12 1.75Z" fill="#000"/>
</svg>
