<svg width="24" height="24" viewBox="0 0 24 24" fill="none" xmlns="http://www.w3.org/2000/svg">
<g clip-path="url(#clip0_9002_8014)">
<path fill-rule="evenodd" clip-rule="evenodd" d="M11.7278 6.76713C12.2048 6.27013 12.9268 6.11513 13.5648 6.37313C14.2028 6.63113 14.6168 7.24213 14.6168 7.93013V16.0691C14.6168 16.7581 14.2038 17.3691 13.5648 17.6261C13.3598 17.7081 13.1458 17.7491 12.9348 17.7491C12.4878 17.7491 12.0518 17.5691 11.7278 17.2321L7.91077 13.2621C7.22977 12.5541 7.22977 11.4451 7.91077 10.7371L11.7278 6.76713ZM13.0038 16.2351C13.0778 16.2051 13.1158 16.1491 13.1158 16.0691V7.93113C13.1158 7.85013 13.0778 7.79513 13.0038 7.76513C12.9278 7.73413 12.8628 7.74913 12.8078 7.80713L8.99077 11.7771C8.87077 11.9031 8.87077 12.0981 8.99077 12.2231L12.8078 16.1931C12.8628 16.2521 12.9288 16.2631 13.0038 16.2351Z" fill="#000"/>
<path fill-rule="evenodd" clip-rule="evenodd" d="M0.25 12C0.25 5.51065 5.51065 0.25 12 0.25C18.4893 0.25 23.75 5.51065 23.75 12C23.75 18.4893 18.4893 23.75 12 23.75C5.51065 23.75 0.25 18.4893 0.25 12ZM12 1.75C6.33908 1.75 1.75 6.33908 1.75 12C1.75 17.6609 6.33908 22.25 12 22.25C17.6609 22.25 22.25 17.6609 22.25 12C22.25 6.33908 17.6609 1.75 12 1.75Z" fill="#000"/>
</g>
<defs>
<clipPath id="clip0_9002_8014">
<rect width="24" height="24" fill="white"/>
</clipPath>
</defs>
</svg>
