<svg width="24" height="24" viewBox="0 0 24 24" fill="none" xmlns="http://www.w3.org/2000/svg">
<path fill-rule="evenodd" clip-rule="evenodd" d="M11.7278 6.76713C12.2048 6.27013 12.9268 6.11513 13.5648 6.37313C14.2028 6.63113 14.6168 7.24213 14.6168 7.93013V16.0691C14.6168 16.7581 14.2038 17.3691 13.5648 17.6261C13.3598 17.7081 13.1458 17.7491 12.9348 17.7491C12.4878 17.7491 12.0518 17.5691 11.7278 17.2321L7.91077 13.2621C7.22977 12.5541 7.22977 11.4451 7.91077 10.7371L11.7278 6.76713ZM13.0038 16.2351C13.0778 16.2051 13.1158 16.1491 13.1158 16.0691V7.93113C13.1158 7.85013 13.0778 7.79513 13.0038 7.76513C12.9278 7.73413 12.8628 7.74913 12.8078 7.80713L8.99077 11.7771C8.87077 11.9031 8.87077 12.0981 8.99077 12.2231L12.8078 16.1931C12.8628 16.2521 12.9288 16.2631 13.0038 16.2351Z" fill="#000"/>
<path fill-rule="evenodd" clip-rule="evenodd" d="M8.367 1.25H15.633C16.7251 1.24999 17.5906 1.24999 18.2883 1.30699C19.0017 1.36527 19.6053 1.48688 20.1565 1.76772C21.0502 2.22312 21.7769 2.94978 22.2323 3.84355C22.5131 4.39472 22.6347 4.99834 22.693 5.71173C22.75 6.40935 22.75 7.27484 22.75 8.36698V15.633C22.75 16.7252 22.75 17.5906 22.693 18.2883C22.6347 19.0017 22.5131 19.6053 22.2323 20.1565C21.7769 21.0502 21.0502 21.7769 20.1565 22.2323C19.6053 22.5131 19.0017 22.6347 18.2883 22.693C17.5906 22.75 16.7252 22.75 15.633 22.75H8.36698C7.27484 22.75 6.40935 22.75 5.71173 22.693C4.99834 22.6347 4.39472 22.5131 3.84355 22.2323C2.94978 21.7769 2.22312 21.0502 1.76772 20.1565C1.48688 19.6053 1.36527 19.0017 1.30699 18.2883C1.24999 17.5906 1.24999 16.7251 1.25 15.633V8.36699C1.24999 7.27485 1.24999 6.40935 1.30699 5.71173C1.36527 4.99834 1.48688 4.39472 1.76772 3.84355C2.22312 2.94978 2.94978 2.22312 3.84355 1.76772C4.39472 1.48688 4.99834 1.36527 5.71173 1.30699C6.40935 1.24999 7.27486 1.24999 8.367 1.25ZM5.83388 2.80201C5.21325 2.85271 4.829 2.94909 4.52453 3.10423C3.913 3.41582 3.41582 3.913 3.10423 4.52453C2.94909 4.829 2.85271 5.21325 2.80201 5.83388C2.75058 6.46327 2.75 7.26752 2.75 8.4V15.6C2.75 16.7325 2.75058 17.5367 2.80201 18.1661C2.85271 18.7867 2.94909 19.171 3.10423 19.4755C3.41582 20.087 3.913 20.5842 4.52453 20.8958C4.829 21.0509 5.21325 21.1473 5.83388 21.198C6.46327 21.2494 7.26752 21.25 8.4 21.25H15.6C16.7325 21.25 17.5367 21.2494 18.1661 21.198C18.7867 21.1473 19.171 21.0509 19.4755 20.8958C20.087 20.5842 20.5842 20.087 20.8958 19.4755C21.0509 19.171 21.1473 18.7867 21.198 18.1661C21.2494 17.5367 21.25 16.7325 21.25 15.6V8.4C21.25 7.26752 21.2494 6.46327 21.198 5.83388C21.1473 5.21325 21.0509 4.829 20.8958 4.52453C20.5842 3.913 20.087 3.41582 19.4755 3.10423C19.171 2.94909 18.7867 2.85271 18.1661 2.80201C17.5367 2.75058 16.7325 2.75 15.6 2.75H8.4C7.26752 2.75 6.46327 2.75058 5.83388 2.80201Z" fill="#000"/>
</svg>
