<svg width="24" height="24" viewBox="0 0 24 24" fill="none" xmlns="http://www.w3.org/2000/svg">
<path fill-rule="evenodd" clip-rule="evenodd" d="M0.25 2C0.25 1.58579 0.585786 1.25 1 1.25H2.18189C3.31272 1.25 4.26785 2.08931 4.41322 3.21075L4.48313 3.75H20.004C21.04 3.75 21.8492 4.64496 21.7452 5.6757L21.3581 9.51138C21.3165 9.9235 20.9487 10.2239 20.5366 10.1823C20.1245 10.1407 19.8241 9.77291 19.8657 9.36078L20.2528 5.5251C20.2676 5.37785 20.152 5.25 20.004 5.25H4.67757L5.76785 13.6607C5.84861 14.2837 6.37924 14.75 7.00747 14.75H10.1404C10.5546 14.75 10.8904 15.0858 10.8904 15.5C10.8904 15.9142 10.5546 16.25 10.1404 16.25H5.25C4.69772 16.25 4.25 16.6977 4.25 17.25C4.25 17.8023 4.69772 18.25 5.25 18.25H10.252C10.6662 18.25 11.002 18.5858 11.002 19C11.002 19.4142 10.6662 19.75 10.252 19.75H9.62198C9.70489 19.9846 9.75 20.237 9.75 20.5C9.75 21.7426 8.74264 22.75 7.5 22.75C6.25736 22.75 5.25 21.7426 5.25 20.5C5.25 20.237 5.29512 19.9846 5.37803 19.75H5.25C3.86929 19.75 2.75 18.6307 2.75 17.25C2.75 16.0932 3.53571 15.1199 4.60258 14.8346C4.43805 14.5384 4.32617 14.2075 4.28029 13.8535L2.92567 3.40358C2.87721 3.02977 2.55884 2.75 2.18189 2.75H1C0.585786 2.75 0.25 2.41421 0.25 2ZM7.5 19.75C7.08579 19.75 6.75 20.0858 6.75 20.5C6.75 20.9142 7.08579 21.25 7.5 21.25C7.91421 21.25 8.25 20.9142 8.25 20.5C8.25 20.0898 7.92053 19.7564 7.51198 19.7501L7.50705 19.75H7.5Z" fill="#000"/>
<path d="M20 17.625C20.3452 17.625 20.625 17.3452 20.625 17C20.625 16.6548 20.3452 16.375 20 16.375H16C15.6548 16.375 15.375 16.6548 15.375 17C15.375 17.3452 15.6548 17.625 16 17.625H20Z" fill="#000"/>
<path fill-rule="evenodd" clip-rule="evenodd" d="M12.25 17C12.25 13.8244 14.8244 11.25 18 11.25C21.1756 11.25 23.75 13.8244 23.75 17C23.75 20.1756 21.1756 22.75 18 22.75C14.8244 22.75 12.25 20.1756 12.25 17ZM18 12.75C15.6528 12.75 13.75 14.6528 13.75 17C13.75 19.3472 15.6528 21.25 18 21.25C20.3472 21.25 22.25 19.3472 22.25 17C22.25 14.6528 20.3472 12.75 18 12.75Z" fill="#000"/>
</svg>
