<svg width="24" height="24" viewBox="0 0 24 24" fill="none" xmlns="http://www.w3.org/2000/svg">
<path fill-rule="evenodd" clip-rule="evenodd" d="M1 1.25C0.585786 1.25 0.25 1.58579 0.25 2C0.25 2.41421 0.585786 2.75 1 2.75H2.18189C2.55884 2.75 2.87721 3.02977 2.92567 3.40358L4.28029 13.8535C4.32617 14.2075 4.43805 14.5384 4.60258 14.8346C3.53571 15.1199 2.75 16.0932 2.75 17.25C2.75 18.6307 3.86929 19.75 5.25 19.75H5.37803C5.29512 19.9846 5.25 20.237 5.25 20.5C5.25 21.7426 6.25736 22.75 7.5 22.75C8.74264 22.75 9.75 21.7426 9.75 20.5C9.75 20.237 9.70489 19.9846 9.62198 19.75H10.252C10.6662 19.75 11.002 19.4142 11.002 19C11.002 18.5858 10.6662 18.25 10.252 18.25H5.25C4.69772 18.25 4.25 17.8023 4.25 17.25C4.25 16.6977 4.69772 16.25 5.25 16.25H10.1404C10.5546 16.25 10.8904 15.9142 10.8904 15.5C10.8904 15.0858 10.5546 14.75 10.1404 14.75H7.00747C6.37924 14.75 5.84861 14.2837 5.76785 13.6607L4.67757 5.25H20.004C20.152 5.25 20.2676 5.37785 20.2528 5.5251L19.8657 9.36078C19.8241 9.77291 20.1245 10.1407 20.5366 10.1823C20.9487 10.2239 21.3165 9.9235 21.3581 9.51138L21.7452 5.6757C21.8492 4.64496 21.04 3.75 20.004 3.75H4.48313L4.41322 3.21075C4.26785 2.08931 3.31272 1.25 2.18189 1.25H1ZM6.75 20.5C6.75 20.0858 7.08579 19.75 7.5 19.75H7.50705L7.51198 19.7501C7.92053 19.7564 8.25 20.0898 8.25 20.5C8.25 20.9142 7.91421 21.25 7.5 21.25C7.08579 21.25 6.75 20.9142 6.75 20.5Z" fill="#000"/>
<path d="M18.8839 16.9999L19.9419 15.9419C20.186 15.6979 20.186 15.3021 19.9419 15.0581C19.6978 14.814 19.3021 14.814 19.058 15.0581L18 16.116L16.9419 15.058C16.6979 14.8139 16.3021 14.8139 16.0581 15.058C15.814 15.3021 15.814 15.6978 16.0581 15.9419L17.1161 16.9999L16.058 18.0581C15.8139 18.3021 15.8139 18.6979 16.058 18.9419C16.3021 19.186 16.6978 19.186 16.9419 18.9419L18 17.8838L19.0581 18.9419C19.3022 19.186 19.6979 19.186 19.942 18.9419C20.1861 18.6978 20.1861 18.3021 19.942 18.058L18.8839 16.9999Z" fill="#000"/>
<path fill-rule="evenodd" clip-rule="evenodd" d="M18 11.25C14.8244 11.25 12.25 13.8244 12.25 17C12.25 20.1756 14.8244 22.75 18 22.75C21.1756 22.75 23.75 20.1756 23.75 17C23.75 13.8244 21.1756 11.25 18 11.25ZM13.75 17C13.75 14.6528 15.6528 12.75 18 12.75C20.3472 12.75 22.25 14.6528 22.25 17C22.25 19.3472 20.3472 21.25 18 21.25C15.6528 21.25 13.75 19.3472 13.75 17Z" fill="#000"/>
</svg>
