<svg width="24" height="24" viewBox="0 0 24 24" fill="none" xmlns="http://www.w3.org/2000/svg">
<path fill-rule="evenodd" clip-rule="evenodd" d="M1 1.25C0.585786 1.25 0.25 1.58579 0.25 2C0.25 2.41421 0.585786 2.75 1 2.75H2.18189C2.55884 2.75 2.87721 3.02977 2.92567 3.40358L4.28029 13.8535C4.32617 14.2075 4.43805 14.5384 4.60258 14.8346C3.53571 15.1199 2.75 16.0932 2.75 17.25C2.75 18.6307 3.86929 19.75 5.25 19.75H5.37803C5.29512 19.9846 5.25 20.237 5.25 20.5C5.25 21.7426 6.25736 22.75 7.5 22.75C8.74264 22.75 9.75 21.7426 9.75 20.5C9.75 20.237 9.70489 19.9846 9.62198 19.75H10.252C10.6662 19.75 11.002 19.4142 11.002 19C11.002 18.5858 10.6662 18.25 10.252 18.25H5.25C4.69772 18.25 4.25 17.8023 4.25 17.25C4.25 16.6977 4.69772 16.25 5.25 16.25H10.1404C10.5546 16.25 10.8904 15.9142 10.8904 15.5C10.8904 15.0858 10.5546 14.75 10.1404 14.75H7.00747C6.37924 14.75 5.84861 14.2837 5.76785 13.6607L4.67757 5.25H20.004C20.152 5.25 20.2676 5.37785 20.2528 5.5251L19.8657 9.36078C19.8241 9.77291 20.1245 10.1407 20.5366 10.1823C20.9487 10.2239 21.3165 9.9235 21.3581 9.51138L21.7452 5.6757C21.8492 4.64496 21.04 3.75 20.004 3.75H4.48313L4.41322 3.21075C4.26785 2.08931 3.31272 1.25 2.18189 1.25H1ZM6.75 20.5C6.75 20.0858 7.08579 19.75 7.5 19.75H7.50705L7.51198 19.7501C7.92053 19.7564 8.25 20.0898 8.25 20.5C8.25 20.9142 7.91421 21.25 7.5 21.25C7.08579 21.25 6.75 20.9142 6.75 20.5Z" fill="#000"/>
<path d="M20.4419 15.3081C20.686 15.5521 20.686 15.9479 20.4419 16.1919L17.9419 18.6919C17.8244 18.8095 17.6649 18.8753 17.4987 18.875C17.3325 18.8747 17.1733 18.8081 17.0563 18.6901L15.5563 17.1778C15.3132 16.9327 15.3148 16.537 15.5599 16.2939C15.8049 16.0508 16.2007 16.0525 16.4437 16.2975L17.5018 17.3643L19.5581 15.3081C19.8021 15.064 20.1979 15.064 20.4419 15.3081Z" fill="#000"/>
<path fill-rule="evenodd" clip-rule="evenodd" d="M12.25 17C12.25 13.8244 14.8244 11.25 18 11.25C21.1756 11.25 23.75 13.8244 23.75 17C23.75 20.1756 21.1756 22.75 18 22.75C14.8244 22.75 12.25 20.1756 12.25 17ZM18 12.75C15.6528 12.75 13.75 14.6528 13.75 17C13.75 19.3472 15.6528 21.25 18 21.25C20.3472 21.25 22.25 19.3472 22.25 17C22.25 14.6528 20.3472 12.75 18 12.75Z" fill="#000"/>
</svg>
