<svg width="24" height="24" viewBox="0 0 24 24" fill="none" xmlns="http://www.w3.org/2000/svg">
<path d="M3.75 1.25C2.92157 1.25 2.25 1.92157 2.25 2.75V7.99621C2.25 8.79275 2.47384 9.57325 2.89601 10.2487L4.636 13.0327C4.7105 13.1519 4.75 13.2896 4.75 13.4302V22C4.75 22.4142 5.08579 22.75 5.5 22.75C5.91421 22.75 6.25 22.4142 6.25 22V13.4302C6.25 13.0085 6.13149 12.5953 5.908 12.2377L4.168 9.45371C3.89484 9.01665 3.75 8.51162 3.75 7.99621V2.75H6.25V4.75C6.25 5.57843 6.92157 6.25 7.75 6.25H9.25C10.0784 6.25 10.75 5.57843 10.75 4.75V2.75H13.25V4.75C13.25 5.57843 13.9216 6.25 14.75 6.25H16.25C17.0784 6.25 17.75 5.57843 17.75 4.75V2.75H20.25V7.99621C20.25 8.51162 20.1052 9.01665 19.832 9.45371L18.092 12.2377C17.8685 12.5953 17.75 13.0085 17.75 13.4302V22C17.75 22.4142 18.0858 22.75 18.5 22.75C18.9142 22.75 19.25 22.4142 19.25 22V13.4302C19.25 13.2896 19.2895 13.1519 19.364 13.0327L21.104 10.2487C21.5262 9.57325 21.75 8.79275 21.75 7.99621V2.75C21.75 1.92157 21.0784 1.25 20.25 1.25H17.75C16.9216 1.25 16.25 1.92157 16.25 2.75V4.75H14.75V2.75C14.75 1.92157 14.0784 1.25 13.25 1.25H10.75C9.92157 1.25 9.25 1.92157 9.25 2.75V4.75H7.75V2.75C7.75 1.92157 7.07843 1.25 6.25 1.25H3.75Z" fill="#000"/>
<path fill-rule="evenodd" clip-rule="evenodd" d="M12 11.25C10.4812 11.25 9.25 12.4812 9.25 14V17.5C9.25 17.9142 9.58579 18.25 10 18.25H14C14.4142 18.25 14.75 17.9142 14.75 17.5V14C14.75 12.4812 13.5188 11.25 12 11.25ZM10.75 14C10.75 13.3096 11.3096 12.75 12 12.75C12.6904 12.75 13.25 13.3096 13.25 14V16.75H10.75V14Z" fill="#000"/>
</svg>
