<svg width="24" height="24" viewBox="0 0 24 24" fill="none" xmlns="http://www.w3.org/2000/svg">
<path d="M6.25 7.5C6.25 7.08579 6.58579 6.75 7 6.75H17C17.4142 6.75 17.75 7.08579 17.75 7.5C17.75 7.91421 17.4142 8.25 17 8.25H7C6.58579 8.25 6.25 7.91421 6.25 7.5Z" fill="#000"/>
<path d="M7 10.75C6.58579 10.75 6.25 11.0858 6.25 11.5C6.25 11.9142 6.58579 12.25 7 12.25H13C13.4142 12.25 13.75 11.9142 13.75 11.5C13.75 11.0858 13.4142 10.75 13 10.75H7Z" fill="#000"/>
<path fill-rule="evenodd" clip-rule="evenodd" d="M16.4326 1.25H7.56739C6.61495 1.24999 5.85439 1.24999 5.24013 1.30018C4.61012 1.35165 4.06824 1.45963 3.57054 1.71322C2.77085 2.12068 2.12068 2.77085 1.71322 3.57054C1.45963 4.06824 1.35165 4.61012 1.30018 5.24013C1.24999 5.85439 1.24999 6.61494 1.25 7.56738V11.4326C1.24999 12.3851 1.24999 13.1456 1.30018 13.7599C1.35165 14.3899 1.45963 14.9318 1.71322 15.4295C2.12068 16.2291 2.77085 16.8793 3.57054 17.2868C4.06824 17.5404 4.61012 17.6484 5.24013 17.6998C5.7411 17.7408 6.33936 17.7483 7.05967 17.7497L4.38552 21.5699C4.14798 21.9092 4.23051 22.3769 4.56985 22.6144C4.90918 22.852 5.37683 22.7694 5.61437 22.4301L8.89044 17.75H11.25V20.5C11.25 20.9142 11.5858 21.25 12 21.25C12.4142 21.25 12.75 20.9142 12.75 20.5V17.75H15.1096L18.3856 22.4301C18.6232 22.7694 19.0908 22.852 19.4302 22.6144C19.7695 22.3769 19.852 21.9092 19.6145 21.5699L16.9403 17.7497C17.6606 17.7483 18.2589 17.7408 18.7599 17.6998C19.3899 17.6484 19.9318 17.5404 20.4295 17.2868C21.2291 16.8793 21.8793 16.2291 22.2868 15.4295C22.5404 14.9318 22.6483 14.3899 22.6998 13.7599C22.75 13.1456 22.75 12.3851 22.75 11.4327V7.56737C22.75 6.61496 22.75 5.85438 22.6998 5.24013C22.6483 4.61012 22.5404 4.06824 22.2868 3.57054C21.8793 2.77085 21.2291 2.12068 20.4295 1.71322C19.9318 1.45963 19.3899 1.35165 18.7599 1.30018C18.1456 1.24999 17.3851 1.24999 16.4326 1.25ZM16.4 16.25C17.3925 16.25 18.0917 16.2494 18.6377 16.2048C19.175 16.1609 19.4975 16.0782 19.7485 15.9503C20.2659 15.6866 20.6866 15.2659 20.9503 14.7485C21.0782 14.4975 21.1609 14.175 21.2048 13.6377C21.2494 13.0917 21.25 12.3925 21.25 11.4V7.6C21.25 6.60753 21.2494 5.90829 21.2048 5.36228C21.1609 4.82503 21.0782 4.50252 20.9503 4.25153C20.6866 3.73408 20.2659 3.31338 19.7485 3.04973C19.4975 2.92184 19.175 2.83909 18.6377 2.79519C18.0917 2.75058 17.3925 2.75 16.4 2.75H7.6C6.60753 2.75 5.90829 2.75058 5.36228 2.79519C4.82503 2.83909 4.50252 2.92184 4.25153 3.04973C3.73408 3.31338 3.31338 3.73408 3.04973 4.25153C2.92184 4.50252 2.83909 4.82503 2.79519 5.36228C2.75058 5.90829 2.75 6.60753 2.75 7.6V11.4C2.75 12.3925 2.75058 13.0917 2.79519 13.6377C2.83909 14.175 2.92184 14.4975 3.04973 14.7485C3.31338 15.2659 3.73408 15.6866 4.25153 15.9503C4.50252 16.0782 4.82503 16.1609 5.36228 16.2048C5.90829 16.2494 6.60753 16.25 7.6 16.25H16.4Z" fill="#000"/>
</svg>
