<svg width="24" height="24" viewBox="0 0 24 24" fill="none" xmlns="http://www.w3.org/2000/svg">
<path d="M2 1.25C2.41421 1.25 2.75 1.58579 2.75 2V18.5C2.75 20.0188 3.98122 21.25 5.5 21.25H22C22.4142 21.25 22.75 21.5858 22.75 22C22.75 22.4142 22.4142 22.75 22 22.75H5.5C3.15279 22.75 1.25 20.8472 1.25 18.5V2C1.25 1.58579 1.58579 1.25 2 1.25Z" fill="#000"/>
<path d="M7.25001 17L7.25 13C7.25 12.5858 7.58579 12.25 8 12.25C8.41421 12.25 8.75 12.5858 8.75 13L8.75001 17C8.75001 17.4142 8.41422 17.75 8.00001 17.75C7.58579 17.75 7.25001 17.4142 7.25001 17Z" fill="#000"/>
<path d="M11.25 7L11.25 17C11.25 17.4142 11.5858 17.75 12 17.75C12.4142 17.75 12.75 17.4142 12.75 17L12.75 7C12.75 6.58579 12.4142 6.25 12 6.25C11.5858 6.25 11.25 6.58579 11.25 7Z" fill="#000"/>
<path d="M15.25 17L15.25 11C15.25 10.5858 15.5858 10.25 16 10.25C16.4142 10.25 16.75 10.5858 16.75 11L16.75 17C16.75 17.4142 16.4142 17.75 16 17.75C15.5858 17.75 15.25 17.4142 15.25 17Z" fill="#000"/>
<path d="M19.25 17C19.25 17.4142 19.5858 17.75 20 17.75C20.4142 17.75 20.75 17.4142 20.75 17V4C20.75 3.58579 20.4142 3.25 20 3.25C19.5858 3.25 19.25 3.58579 19.25 4V17Z" fill="#000"/>
</svg>
