<svg width="24" height="24" viewBox="0 0 24 24" fill="none" xmlns="http://www.w3.org/2000/svg">
<path d="M2 1.25C2.41421 1.25 2.75 1.58579 2.75 2V18.5C2.75 20.0188 3.98122 21.25 5.5 21.25H22C22.4142 21.25 22.75 21.5858 22.75 22C22.75 22.4142 22.4142 22.75 22 22.75H5.5C3.15279 22.75 1.25 20.8472 1.25 18.5V2C1.25 1.58579 1.58579 1.25 2 1.25Z" fill="#000"/>
<path d="M6.25 18V16.5C6.25 16.0858 6.58579 15.75 7 15.75C7.41421 15.75 7.75 16.0858 7.75 16.5V18C7.75 18.4142 7.41421 18.75 7 18.75C6.58579 18.75 6.25 18.4142 6.25 18Z" fill="#000"/>
<path d="M10.25 14.65V18C10.25 18.4142 10.5858 18.75 11 18.75C11.4142 18.75 11.75 18.4142 11.75 18L11.75 14.65C11.75 14.2358 11.4142 13.9 11 13.9C10.5858 13.9 10.25 14.2358 10.25 14.65Z" fill="#000"/>
<path d="M15 18.75C14.5858 18.75 14.25 18.4142 14.25 18V12.8C14.25 12.3858 14.5858 12.05 15 12.05C15.4142 12.05 15.75 12.3858 15.75 12.8V18C15.75 18.4142 15.4142 18.75 15 18.75Z" fill="#000"/>
<path d="M18.25 18C18.25 18.4142 18.5858 18.75 19 18.75C19.4142 18.75 19.75 18.4142 19.75 18L19.75 11C19.75 10.5858 19.4142 10.25 19 10.25C18.5858 10.25 18.25 10.5858 18.25 11L18.25 18Z" fill="#000"/>
<path d="M15.5 3C15.5 2.58579 15.8358 2.25 16.25 2.25H20C20.4142 2.25 20.75 2.58579 20.75 3V6.75C20.75 7.16421 20.4142 7.5 20 7.5C19.5858 7.5 19.25 7.16421 19.25 6.75V4.87811C17.2841 6.9587 15.4501 8.49736 13.4909 9.59221C11.2564 10.8409 8.90026 11.4894 6.06795 11.7469C5.65544 11.7844 5.29063 11.4804 5.25313 11.0679C5.21563 10.6554 5.51963 10.2906 5.93215 10.2531C8.59984 10.0106 10.7437 9.40909 12.7592 8.2828C14.5718 7.26989 16.3134 5.81424 18.2519 3.75H16.25C15.8358 3.75 15.5 3.41421 15.5 3Z" fill="#000"/>
</svg>
