<svg width="24" height="24" viewBox="0 0 24 24" fill="none" xmlns="http://www.w3.org/2000/svg">
<path d="M2.75 2C2.75 1.58579 2.41421 1.25 2 1.25C1.58579 1.25 1.25 1.58579 1.25 2V18.5C1.25 20.8472 3.15279 22.75 5.5 22.75H22C22.4142 22.75 22.75 22.4142 22.75 22C22.75 21.5858 22.4142 21.25 22 21.25H5.5C3.98122 21.25 2.75 20.0188 2.75 18.5V2Z" fill="#000"/>
<path d="M21.5303 8.53033C21.8232 8.23744 21.8232 7.76256 21.5303 7.46967C21.2374 7.17678 20.7626 7.17678 20.4697 7.46967L15.5 12.4393L12.0303 8.96967C11.7374 8.67678 11.2626 8.67678 10.9697 8.96967L5.46967 14.4697C5.17678 14.7626 5.17678 15.2374 5.46967 15.5303C5.76256 15.8232 6.23744 15.8232 6.53033 15.5303L11.5 10.5607L14.9697 14.0303C15.2626 14.3232 15.7374 14.3232 16.0303 14.0303L21.5303 8.53033Z" fill="#000"/>
</svg>
