<svg width="24" height="24" viewBox="0 0 24 24" fill="none" xmlns="http://www.w3.org/2000/svg">
<g clip-path="url(#clip0_9002_7329)">
<path fill-rule="evenodd" clip-rule="evenodd" d="M11.5324 0.761423C10.8099 0.730493 10.25 1.31763 10.25 2.00005V2.77702C4.93924 3.16108 0.75 7.59131 0.75 13C0.75 18.6609 5.33908 23.25 11 23.25C16.4087 23.25 20.8389 19.0608 21.223 13.75H22C22.6824 13.75 23.2696 13.1902 23.2386 12.4676C22.9671 6.12537 17.8747 1.03292 11.5324 0.761423ZM20.5086 12.25C20.5058 12.25 20.5029 12.25 20.5 12.25C20.4971 12.25 20.4942 12.25 20.4914 12.25H11.75V2.27578C17.0891 2.64349 21.3566 6.91097 21.7243 12.25H20.5086ZM10.25 4.28169V12.5C10.25 13.1904 10.8096 13.75 11.5 13.75H19.7183C19.3379 18.2314 15.5798 21.75 11 21.75C6.16751 21.75 2.25 17.8325 2.25 13C2.25 8.42015 5.7686 4.66212 10.25 4.28169Z" fill="#000"/>
</g>
<defs>
<clipPath id="clip0_9002_7329">
<rect width="24" height="24" fill="white"/>
</clipPath>
</defs>
</svg>
