<svg width="24" height="24" viewBox="0 0 24 24" fill="none" xmlns="http://www.w3.org/2000/svg">
<path d="M15.75 10.5C15.75 10.9142 15.4142 11.25 15 11.25H12.75V13.5C12.75 13.9142 12.4142 14.25 12 14.25C11.5858 14.25 11.25 13.9142 11.25 13.5V11.25H9C8.58579 11.25 8.25 10.9142 8.25 10.5C8.25 10.0858 8.58579 9.75 9 9.75H11.25V7.5C11.25 7.08579 11.5858 6.75 12 6.75C12.4142 6.75 12.75 7.08579 12.75 7.5V9.75H15C15.4142 9.75 15.75 10.0858 15.75 10.5Z" fill="#000"/>
<path fill-rule="evenodd" clip-rule="evenodd" d="M8.367 1.25H15.633C16.7251 1.24999 17.5906 1.24999 18.2883 1.30699C19.0017 1.36527 19.6053 1.48688 20.1565 1.76772C21.0502 2.22312 21.7769 2.94978 22.2323 3.84355C22.5131 4.39472 22.6347 4.99834 22.693 5.71173C22.75 6.40935 22.75 7.27484 22.75 8.36698V12.7964C22.75 13.8124 22.75 14.6176 22.7005 15.2681C22.6499 15.9329 22.5444 16.4972 22.3002 17.0176C21.8292 18.0216 21.0216 18.8292 20.0176 19.3002C19.4972 19.5444 18.9329 19.6499 18.2681 19.7005C17.6176 19.75 16.8124 19.75 15.7964 19.75H15.7658C15.28 19.75 15.1838 19.7568 15.1069 19.7786C15.0012 19.8087 14.9033 19.8617 14.8203 19.9338C14.76 19.9862 14.7017 20.0631 14.4362 20.4699L13.9501 21.2146C13.742 21.5334 13.5585 21.8145 13.3901 22.0275C13.2162 22.2473 12.9935 22.4815 12.6766 22.6144C12.2438 22.7959 11.7562 22.7959 11.3234 22.6144C11.0065 22.4815 10.7838 22.2473 10.6099 22.0275C10.4414 21.8145 10.2581 21.5335 10.05 21.2146L9.56384 20.4699C9.29832 20.0631 9.24004 19.9862 9.17973 19.9338C9.09671 19.8617 8.99885 19.8087 8.89307 19.7786C8.81623 19.7568 8.71998 19.75 8.23421 19.75H8.20358C7.18757 19.75 6.38237 19.75 5.73192 19.7005C5.06708 19.6499 4.50277 19.5444 3.98244 19.3002C2.9784 18.8292 2.17084 18.0216 1.69977 17.0176C1.45565 16.4972 1.35012 15.9329 1.29951 15.2681C1.24999 14.6176 1.25 13.8125 1.25 12.7965V8.367C1.24999 7.27486 1.24999 6.40935 1.30699 5.71173C1.36527 4.99834 1.48688 4.39472 1.76772 3.84355C2.22312 2.94978 2.94978 2.22312 3.84355 1.76772C4.39472 1.48688 4.99834 1.36527 5.71173 1.30699C6.40935 1.24999 7.27486 1.24999 8.367 1.25ZM5.83388 2.80201C5.21325 2.85271 4.829 2.94909 4.52453 3.10423C3.913 3.41582 3.41582 3.913 3.10423 4.52453C2.94909 4.829 2.85271 5.21325 2.80201 5.83388C2.75058 6.46326 2.75 7.26752 2.75 8.4V12.7658C2.75 13.8193 2.75051 14.5674 2.79518 15.1542C2.83926 15.7332 2.92311 16.0935 3.05774 16.3804C3.38005 17.0674 3.93259 17.6199 4.61956 17.9423C4.90651 18.0769 5.26684 18.1607 5.84579 18.2048C6.43261 18.2495 7.18074 18.25 8.23421 18.25L8.31026 18.2499C8.67656 18.2495 8.99882 18.2492 9.30354 18.3359C9.62087 18.4262 9.91446 18.5851 10.1635 18.8015C10.4027 19.0093 10.5785 19.2793 10.7784 19.5863L11.2882 20.3674C11.5195 20.7218 11.6656 20.9442 11.7864 21.097C11.861 21.1912 11.901 21.2256 11.9127 21.2348C11.969 21.2558 12.031 21.2558 12.0873 21.2348C12.099 21.2256 12.139 21.1912 12.2136 21.097C12.3344 20.9442 12.4805 20.7218 12.7118 20.3674L13.2216 19.5863C13.4215 19.2793 13.5973 19.0093 13.8365 18.8015C14.0855 18.5851 14.3791 18.4262 14.6965 18.3359C15.0012 18.2492 15.3234 18.2495 15.6897 18.2499L15.7658 18.25C16.8193 18.25 17.5674 18.2495 18.1542 18.2048C18.7332 18.1607 19.0935 18.0769 19.3804 17.9423C20.0674 17.6199 20.6199 17.0674 20.9423 16.3804C21.0769 16.0935 21.1607 15.7332 21.2048 15.1542C21.2495 14.5674 21.25 13.8193 21.25 12.7658V8.4C21.25 7.26752 21.2494 6.46327 21.198 5.83388C21.1473 5.21325 21.0509 4.829 20.8958 4.52453C20.5842 3.913 20.087 3.41582 19.4755 3.10423C19.171 2.94909 18.7867 2.85271 18.1661 2.80201C17.5367 2.75058 16.7325 2.75 15.6 2.75H8.4C7.26752 2.75 6.46327 2.75058 5.83388 2.80201Z" fill="#000"/>
</svg>
