<svg width="24" height="24" viewBox="0 0 24 24" fill="none" xmlns="http://www.w3.org/2000/svg">
<path d="M12 9.5C11.4477 9.5 11 9.94771 11 10.5C11 11.0523 11.4477 11.5 12 11.5C12.5523 11.5 13.0001 11.0523 13.0001 10.5C13.0001 9.94771 12.5523 9.5 12 9.5Z" fill="#000"/>
<path d="M7 10.5C7 9.94771 7.44772 9.5 8 9.5C8.55228 9.5 9.0001 9.94771 9.0001 10.5C9.0001 11.0523 8.55238 11.5 8.0001 11.5C7.44782 11.5 7 11.0523 7 10.5Z" fill="#000"/>
<path d="M16 9.5C15.4477 9.5 15 9.94771 15 10.5C15 11.0523 15.4477 11.5 16 11.5C16.5523 11.5 17.0001 11.0523 17.0001 10.5C17.0001 9.94771 16.5523 9.5 16 9.5Z" fill="#000"/>
<path fill-rule="evenodd" clip-rule="evenodd" d="M15.633 1.25H8.367C7.27486 1.24999 6.40935 1.24999 5.71173 1.30699C4.99834 1.36527 4.39472 1.48688 3.84355 1.76772C2.94978 2.22312 2.22312 2.94978 1.76772 3.84355C1.48688 4.39472 1.36527 4.99834 1.30699 5.71173C1.24999 6.40935 1.24999 7.27485 1.25 8.36699V12.7965C1.25 13.8124 1.24999 14.6176 1.29951 15.2681C1.35012 15.9329 1.45565 16.4972 1.69977 17.0176C2.17084 18.0216 2.9784 18.8292 3.98244 19.3002C4.50277 19.5444 5.06708 19.6499 5.73192 19.7005C6.38237 19.75 7.18757 19.75 8.20358 19.75H8.23421C8.71998 19.75 8.81623 19.7568 8.89307 19.7786C8.99885 19.8087 9.09671 19.8617 9.17973 19.9338C9.24004 19.9862 9.29832 20.0631 9.56384 20.4699L10.05 21.2146C10.2581 21.5335 10.4414 21.8145 10.6099 22.0275C10.7838 22.2473 11.0065 22.4815 11.3234 22.6144C11.7562 22.7959 12.2438 22.7959 12.6766 22.6144C12.9935 22.4815 13.2162 22.2473 13.3901 22.0275C13.5585 21.8145 13.7419 21.5336 13.95 21.2147L14.4362 20.4699C14.7017 20.0631 14.76 19.9862 14.8203 19.9338C14.9033 19.8617 15.0012 19.8087 15.1069 19.7786C15.1838 19.7568 15.28 19.75 15.7658 19.75H15.7964C16.8124 19.75 17.6176 19.75 18.2681 19.7005C18.9329 19.6499 19.4972 19.5444 20.0176 19.3002C21.0216 18.8292 21.8292 18.0216 22.3002 17.0176C22.5444 16.4972 22.6499 15.9329 22.7005 15.2681C22.75 14.6176 22.75 13.8124 22.75 12.7964V8.36698C22.75 7.27484 22.75 6.40935 22.693 5.71173C22.6347 4.99834 22.5131 4.39472 22.2323 3.84355C21.7769 2.94978 21.0502 2.22312 20.1565 1.76772C19.6053 1.48688 19.0017 1.36527 18.2883 1.30699C17.5906 1.24999 16.7251 1.24999 15.633 1.25ZM4.52453 3.10423C4.829 2.94909 5.21325 2.85271 5.83388 2.80201C6.46327 2.75058 7.26752 2.75 8.4 2.75H15.6C16.7325 2.75 17.5367 2.75058 18.1661 2.80201C18.7867 2.85271 19.171 2.94909 19.4755 3.10423C20.087 3.41582 20.5842 3.913 20.8958 4.52453C21.0509 4.829 21.1473 5.21325 21.198 5.83388C21.2494 6.46327 21.25 7.26752 21.25 8.4V12.7658C21.25 13.8193 21.2495 14.5674 21.2048 15.1542C21.1607 15.7332 21.0769 16.0935 20.9423 16.3804C20.6199 17.0674 20.0674 17.6199 19.3804 17.9423C19.0935 18.0769 18.7332 18.1607 18.1542 18.2048C17.5674 18.2495 16.8193 18.25 15.7658 18.25L15.6897 18.2499C15.3234 18.2495 15.0012 18.2492 14.6965 18.3359C14.3791 18.4262 14.0855 18.5851 13.8365 18.8015C13.5973 19.0093 13.4215 19.2793 13.2216 19.5863L12.7118 20.3674C12.4805 20.7218 12.3344 20.9442 12.2136 21.097C12.139 21.1912 12.099 21.2256 12.0873 21.2348C12.031 21.2558 11.969 21.2558 11.9127 21.2348C11.901 21.2256 11.861 21.1912 11.7864 21.097C11.6656 20.9442 11.5195 20.7218 11.2882 20.3674L10.7784 19.5863C10.5785 19.2793 10.4027 19.0093 10.1635 18.8015C9.91446 18.5851 9.62087 18.4262 9.30354 18.3359C8.99882 18.2492 8.67656 18.2495 8.31026 18.2499L8.23421 18.25C7.18074 18.25 6.43261 18.2495 5.84579 18.2048C5.26684 18.1607 4.90651 18.0769 4.61956 17.9423C3.93259 17.6199 3.38005 17.0674 3.05774 16.3804C2.92311 16.0935 2.83926 15.7332 2.79518 15.1542C2.75051 14.5674 2.75 13.8193 2.75 12.7658V8.4C2.75 7.26752 2.75058 6.46326 2.80201 5.83388C2.85271 5.21325 2.94909 4.829 3.10423 4.52453C3.41582 3.913 3.913 3.41582 4.52453 3.10423Z" fill="#000"/>
</svg>
