<svg width="24" height="24" viewBox="0 0 24 24" fill="none" xmlns="http://www.w3.org/2000/svg">
<path d="M7.04144 4.01898C7.32807 3.71995 7.31801 3.24518 7.01898 2.95856C6.71995 2.67193 6.24518 2.68199 5.95856 2.98102L3.61432 5.42672L2.53154 4.33899C2.23932 4.04542 1.76444 4.04434 1.47088 4.33656C1.17732 4.62879 1.17624 5.10366 1.46846 5.39722L3.09292 7.02912C3.2354 7.17225 3.42959 7.25188 3.63154 7.24997C3.8335 7.24806 4.02615 7.16478 4.1659 7.01898L7.04144 4.01898Z" fill="#000"/>
<path d="M7.04144 11.019C7.32807 10.72 7.31801 10.2452 7.01898 9.95856C6.71995 9.67193 6.24518 9.68199 5.95856 9.98102L3.61432 12.4267L2.53154 11.339C2.23932 11.0454 1.76444 11.0443 1.47088 11.3366C1.17732 11.6288 1.17624 12.1037 1.46846 12.3972L3.09292 14.0291C3.2354 14.1723 3.42959 14.2519 3.63154 14.25C3.8335 14.2481 4.02615 14.1648 4.1659 14.019L7.04144 11.019Z" fill="#000"/>
<path d="M7.01898 16.9586C7.31801 17.2452 7.32807 17.72 7.04144 18.019L4.1659 21.019C4.02615 21.1648 3.8335 21.2481 3.63154 21.25C3.42959 21.2519 3.2354 21.1723 3.09292 21.0291L1.46846 19.3972C1.17624 19.1037 1.17732 18.6288 1.47088 18.3366C1.76444 18.0443 2.23932 18.0454 2.53154 18.339L3.61432 19.4267L5.95856 16.981C6.24518 16.682 6.71995 16.6719 7.01898 16.9586Z" fill="#000"/>
<path d="M10.5 11.75C10.0858 11.75 9.75 12.0858 9.75 12.5C9.75 12.9142 10.0858 13.25 10.5 13.25H22C22.4142 13.25 22.75 12.9142 22.75 12.5C22.75 12.0858 22.4142 11.75 22 11.75H10.5Z" fill="#000"/>
<path d="M9.75 5.5C9.75 5.08579 10.0858 4.75 10.5 4.75H22C22.4142 4.75 22.75 5.08579 22.75 5.5C22.75 5.91421 22.4142 6.25 22 6.25H10.5C10.0858 6.25 9.75 5.91421 9.75 5.5Z" fill="#000"/>
<path d="M10.5 18.75C10.0858 18.75 9.75 19.0858 9.75 19.5C9.75 19.9142 10.0858 20.25 10.5 20.25H22C22.4142 20.25 22.75 19.9142 22.75 19.5C22.75 19.0858 22.4142 18.75 22 18.75H10.5Z" fill="#000"/>
</svg>
