<svg width="24" height="24" viewBox="0 0 24 24" fill="none" xmlns="http://www.w3.org/2000/svg">
<path d="M10.519 6.95856C10.818 7.24518 10.8281 7.71995 10.5414 8.01898L9.26342 9.35231C9.12367 9.49812 8.93102 9.58139 8.72907 9.5833C8.52711 9.58521 8.33292 9.50559 8.19044 9.36245L7.46846 8.63716C7.17624 8.3436 7.17732 7.86873 7.47088 7.57651C7.76444 7.28428 8.23932 7.28537 8.53154 7.57893L8.71184 7.76006L9.45856 6.98102C9.74518 6.68199 10.2199 6.67193 10.519 6.95856Z" fill="#000"/>
<path d="M12.5 7.34998C12.0858 7.34998 11.75 7.68576 11.75 8.09998C11.75 8.51419 12.0858 8.84998 12.5 8.84998H16C16.4142 8.84998 16.75 8.51419 16.75 8.09998C16.75 7.68576 16.4142 7.34998 16 7.34998H12.5Z" fill="#000"/>
<path d="M10.519 10.7886C10.818 11.0752 10.8281 11.55 10.5414 11.849L9.26342 13.1823C9.12367 13.3281 8.93102 13.4114 8.72907 13.4133C8.52711 13.4152 8.33292 13.3356 8.19044 13.1925L7.46846 12.4672C7.17624 12.1736 7.17732 11.6987 7.47088 11.4065C7.76444 11.1143 8.23932 11.1154 8.53154 11.4089L8.71184 11.5901L9.45856 10.811C9.74518 10.512 10.2199 10.502 10.519 10.7886Z" fill="#000"/>
<path d="M12.5 11.18C12.0858 11.18 11.75 11.5158 11.75 11.93C11.75 12.3442 12.0858 12.68 12.5 12.68H16C16.4142 12.68 16.75 12.3442 16.75 11.93C16.75 11.5158 16.4142 11.18 16 11.18H12.5Z" fill="#000"/>
<path d="M10.519 14.6185C10.818 14.9052 10.8281 15.3799 10.5414 15.679L9.26342 17.0123C9.12367 17.1581 8.93102 17.2414 8.72907 17.2433C8.52711 17.2452 8.33292 17.1656 8.19044 17.0224L7.46846 16.2971C7.17624 16.0036 7.17732 15.5287 7.47088 15.2365C7.76444 14.9443 8.23932 14.9453 8.53154 15.2389L8.71184 15.42L9.45856 14.641C9.74518 14.342 10.2199 14.3319 10.519 14.6185Z" fill="#000"/>
<path d="M12.5 15.01C12.0858 15.01 11.75 15.3458 11.75 15.76C11.75 16.1742 12.0858 16.51 12.5 16.51H16C16.4142 16.51 16.75 16.1742 16.75 15.76C16.75 15.3458 16.4142 15.01 16 15.01H12.5Z" fill="#000"/>
<path fill-rule="evenodd" clip-rule="evenodd" d="M8.367 1.25H15.633C16.7251 1.24999 17.5906 1.24999 18.2883 1.30699C19.0017 1.36527 19.6053 1.48688 20.1565 1.76772C21.0502 2.22312 21.7769 2.94978 22.2323 3.84355C22.5131 4.39472 22.6347 4.99834 22.693 5.71173C22.75 6.40935 22.75 7.27484 22.75 8.36698V15.633C22.75 16.7252 22.75 17.5906 22.693 18.2883C22.6347 19.0017 22.5131 19.6053 22.2323 20.1565C21.7769 21.0502 21.0502 21.7769 20.1565 22.2323C19.6053 22.5131 19.0017 22.6347 18.2883 22.693C17.5906 22.75 16.7252 22.75 15.633 22.75H8.36698C7.27484 22.75 6.40935 22.75 5.71173 22.693C4.99834 22.6347 4.39472 22.5131 3.84355 22.2323C2.94978 21.7769 2.22312 21.0502 1.76772 20.1565C1.48688 19.6053 1.36527 19.0017 1.30699 18.2883C1.24999 17.5906 1.24999 16.7252 1.25 15.633V8.367C1.24999 7.27486 1.24999 6.40935 1.30699 5.71173C1.36527 4.99834 1.48688 4.39472 1.76772 3.84355C2.22312 2.94978 2.94978 2.22312 3.84355 1.76772C4.39472 1.48688 4.99834 1.36527 5.71173 1.30699C6.40935 1.24999 7.27486 1.24999 8.367 1.25ZM5.83388 2.80201C5.21325 2.85271 4.829 2.94909 4.52453 3.10423C3.913 3.41582 3.41582 3.913 3.10423 4.52453C2.94909 4.829 2.85271 5.21325 2.80201 5.83388C2.75058 6.46327 2.75 7.26752 2.75 8.4V15.6C2.75 16.7325 2.75058 17.5367 2.80201 18.1661C2.85271 18.7867 2.94909 19.171 3.10423 19.4755C3.41582 20.087 3.913 20.5842 4.52453 20.8958C4.829 21.0509 5.21325 21.1473 5.83388 21.198C6.46327 21.2494 7.26752 21.25 8.4 21.25H15.6C16.7325 21.25 17.5367 21.2494 18.1661 21.198C18.7867 21.1473 19.171 21.0509 19.4755 20.8958C20.087 20.5842 20.5842 20.087 20.8958 19.4755C21.0509 19.171 21.1473 18.7867 21.198 18.1661C21.2494 17.5367 21.25 16.7325 21.25 15.6V8.4C21.25 7.26752 21.2494 6.46327 21.198 5.83388C21.1473 5.21325 21.0509 4.829 20.8958 4.52453C20.5842 3.913 20.087 3.41582 19.4755 3.10423C19.171 2.94909 18.7867 2.85271 18.1661 2.80201C17.5367 2.75058 16.7325 2.75 15.6 2.75H8.4C7.26752 2.75 6.46327 2.75058 5.83388 2.80201Z" fill="#000"/>
</svg>
