<svg width="24" height="24" viewBox="0 0 24 24" fill="none" xmlns="http://www.w3.org/2000/svg">
<path fill-rule="evenodd" clip-rule="evenodd" d="M12.011 11.5614C10.9083 10.808 9.25 11.5054 9.25 12.9536V17.0459C9.25 18.4941 10.9083 19.1915 12.011 18.4381L15.006 16.392C15.998 15.7143 15.998 14.2852 15.006 13.6075L12.011 11.5614ZM10.75 12.9536C10.75 12.891 10.7811 12.8256 10.8735 12.7806C10.9677 12.7348 11.0753 12.7388 11.1648 12.7999L14.1598 14.846C14.2293 14.8936 14.25 14.9512 14.25 14.9998C14.25 15.0484 14.2293 15.106 14.1598 15.1535L11.1648 17.1996C11.0753 17.2607 10.9677 17.2648 10.8735 17.2189C10.7811 17.1739 10.75 17.1085 10.75 17.0459V12.9536Z" fill="#000"/>
<path fill-rule="evenodd" clip-rule="evenodd" d="M8.367 1.25H15.6353C15.9258 1.25 16.2003 1.25 16.4598 1.25108C16.4886 1.24953 16.5177 1.24964 16.5468 1.25148C17.224 1.25501 17.7976 1.2669 18.2883 1.30699C19.0017 1.36527 19.6053 1.48688 20.1565 1.76772C21.0502 2.22312 21.7769 2.94978 22.2323 3.84355C22.5131 4.39472 22.6347 4.99834 22.693 5.71173C22.7433 6.32666 22.7492 7.07202 22.7499 7.98807L22.75 8L22.7499 8.01083L22.75 15.633C22.75 16.7252 22.75 17.5906 22.693 18.2883C22.6347 19.0017 22.5131 19.6053 22.2323 20.1565C21.7769 21.0502 21.0502 21.7769 20.1565 22.2323C19.6053 22.5131 19.0017 22.6347 18.2883 22.693C17.5906 22.75 16.7252 22.75 15.633 22.75H8.36698C7.27484 22.75 6.40935 22.75 5.71173 22.693C4.99834 22.6347 4.39472 22.5131 3.84355 22.2323C2.94978 21.7769 2.22312 21.0502 1.76772 20.1565C1.48688 19.6053 1.36527 19.0017 1.30699 18.2883C1.24999 17.5906 1.24999 16.7252 1.25 15.633L1.25008 8.01084L1.25 8L1.25009 7.98807C1.25079 7.07202 1.25675 6.32666 1.30699 5.71173C1.36527 4.99834 1.48688 4.39472 1.76772 3.84355C2.22312 2.94978 2.94978 2.22312 3.84355 1.76772C4.39472 1.48688 4.99834 1.36527 5.71173 1.30699C6.40935 1.24999 7.27486 1.24999 8.367 1.25ZM10.0406 2.75H15.4595L13.9595 7.25H8.5406L10.0406 2.75ZM14.5247 8.75C14.5083 8.75054 14.4919 8.75055 14.4755 8.75H7.52468C7.50833 8.75054 7.49192 8.75055 7.47545 8.75H2.75V15.6C2.75 16.7325 2.75058 17.5367 2.80201 18.1661C2.85271 18.7867 2.94909 19.171 3.10423 19.4755C3.41582 20.087 3.913 20.5842 4.52453 20.8958C4.829 21.0509 5.21325 21.1473 5.83388 21.198C6.46327 21.2494 7.26752 21.25 8.4 21.25H15.6C16.7325 21.25 17.5367 21.2494 18.1661 21.198C18.7867 21.1473 19.171 21.0509 19.4755 20.8958C20.087 20.5842 20.5842 20.087 20.8958 19.4755C21.0509 19.171 21.1473 18.7867 21.198 18.1661C21.2494 17.5367 21.25 16.7325 21.25 15.6V8.75H14.5247ZM17.0385 2.75622L15.5406 7.25H21.2471C21.2423 6.68548 21.23 6.22578 21.198 5.83388C21.1473 5.21325 21.0509 4.829 20.8958 4.52453C20.5842 3.913 20.087 3.41582 19.4755 3.10423C19.171 2.94909 18.7867 2.85271 18.1661 2.80201C17.8432 2.77562 17.4742 2.76262 17.0385 2.75622ZM8.45946 2.75L6.95946 7.25H2.75295C2.75768 6.68548 2.76999 6.22578 2.80201 5.83388C2.85271 5.21325 2.94909 4.829 3.10423 4.52453C3.41582 3.913 3.913 3.41582 4.52453 3.10423C4.829 2.94909 5.21325 2.85271 5.83388 2.80201C6.46327 2.75058 7.26752 2.75 8.4 2.75H8.45946Z" fill="#000"/>
</svg>
