<svg width="24" height="24" viewBox="0 0 24 24" fill="none" xmlns="http://www.w3.org/2000/svg">
<path fill-rule="evenodd" clip-rule="evenodd" d="M9 0.75C8.0335 0.75 7.25 1.5335 7.25 2.5V2.50171C6.89278 2.50447 6.58088 2.51163 6.30748 2.53029C5.85092 2.56144 5.44721 2.62711 5.06494 2.78545C4.14608 3.16605 3.41605 3.89608 3.03545 4.81494C2.87711 5.19721 2.81144 5.60092 2.78029 6.05748C2.74999 6.50148 2.75 7.04704 2.75 7.72335V17.7321C2.74999 18.5449 2.74999 19.2006 2.79336 19.7315C2.83803 20.2781 2.93239 20.7582 3.15873 21.2025C3.51825 21.9081 4.09193 22.4817 4.79754 22.8413C5.24175 23.0676 5.7219 23.162 6.26853 23.2066C6.79944 23.25 7.45505 23.25 8.26788 23.25H15.7321C16.545 23.25 17.2006 23.25 17.7315 23.2066C18.2781 23.162 18.7582 23.0676 19.2025 22.8413C19.9081 22.4817 20.4817 21.9081 20.8413 21.2025C21.0676 20.7582 21.162 20.2781 21.2066 19.7315C21.25 19.2006 21.25 18.545 21.25 17.7321V7.72336C21.25 7.04704 21.25 6.50148 21.2197 6.05748C21.1886 5.60092 21.1229 5.19721 20.9645 4.81494C20.5839 3.89608 19.8539 3.16605 18.9351 2.78545C18.5528 2.62711 18.1491 2.56144 17.6925 2.53029C17.4191 2.51163 17.1072 2.50447 16.75 2.50171V2.5C16.75 1.5335 15.9665 0.75 15 0.75H9ZM16.75 4.0018C17.0849 4.00442 17.3572 4.01089 17.5904 4.02681C17.9706 4.05275 18.192 4.10125 18.361 4.17127C18.9123 4.39963 19.3504 4.83765 19.5787 5.38896C19.6487 5.558 19.6973 5.7794 19.7232 6.15959C19.7496 6.54651 19.75 7.04083 19.75 7.75V17.7C19.75 18.5525 19.7494 19.1467 19.7116 19.6093C19.6745 20.0632 19.6054 20.324 19.5048 20.5215C19.289 20.9448 18.9448 21.289 18.5215 21.5048C18.324 21.6054 18.0632 21.6745 17.6093 21.7116C17.1467 21.7494 16.5525 21.75 15.7 21.75H8.3C7.44755 21.75 6.85331 21.7494 6.39068 21.7116C5.93681 21.6745 5.67604 21.6054 5.47852 21.5048C5.05516 21.289 4.71095 20.9448 4.49524 20.5215C4.3946 20.324 4.32547 20.0632 4.28838 19.6093C4.25058 19.1467 4.25 18.5525 4.25 17.7V7.75C4.25 7.04083 4.25041 6.54651 4.27681 6.15959C4.30275 5.7794 4.35125 5.558 4.42127 5.38896C4.64963 4.83765 5.08765 4.39963 5.63896 4.17127C5.808 4.10125 6.0294 4.05275 6.40959 4.02681C6.64284 4.01089 6.91513 4.00442 7.25 4.0018C7.25097 4.96747 8.0341 5.75 9 5.75H15C15.9659 5.75 16.749 4.96747 16.75 4.0018ZM15.25 2.5C15.25 2.36193 15.1381 2.25 15 2.25H9C8.86193 2.25 8.75 2.36193 8.75 2.5V4C8.75 4.13807 8.86193 4.25 9 4.25H15C15.1381 4.25 15.25 4.13807 15.25 4V2.5Z" fill="#000"/>
</svg>
