<svg width="24" height="24" viewBox="0 0 24 24" fill="none" xmlns="http://www.w3.org/2000/svg">
<path d="M12 17.7501C11.5858 17.7501 11.25 17.4143 11.25 17.0001V10.8108L9.53033 12.5305C9.23743 12.8233 8.76256 12.8233 8.46967 12.5305C8.17677 12.2376 8.17677 11.7627 8.46967 11.4698L11.4697 8.46979C11.6103 8.32914 11.8011 8.25012 12 8.25012C12.1989 8.25012 12.3897 8.32914 12.5303 8.46979L15.5303 11.4698C15.8232 11.7627 15.8232 12.2376 15.5303 12.5305C15.2374 12.8233 14.7626 12.8233 14.4697 12.5305L12.75 10.8108V17.0001C12.75 17.4143 12.4142 17.7501 12 17.7501Z" fill="#000"/>
<path fill-rule="evenodd" clip-rule="evenodd" d="M4.25 11.0001C4.25 6.71992 7.71979 3.25012 12 3.25012C15.7587 3.25012 18.8916 5.92533 19.6 9.47588C21.9971 10.1691 23.75 12.3792 23.75 15.0001C23.75 18.1758 21.1756 20.7501 18 20.7501H5C2.37665 20.7501 0.25 18.6235 0.25 16.0001C0.249998 13.6299 1.98608 11.6651 4.25602 11.308C4.25202 11.2059 4.25 11.1032 4.25 11.0001ZM12 4.75012C8.54822 4.75012 5.75 7.54834 5.75 11.0001C5.75 11.3042 5.77166 11.6028 5.81341 11.8945C5.84454 12.112 5.77872 12.3322 5.63334 12.497C5.48795 12.6617 5.27762 12.7545 5.05792 12.7506C5.03857 12.7503 5.01926 12.7501 5 12.7501C3.20507 12.7501 1.75 14.2052 1.75 16.0001C1.75 17.795 3.20507 19.2501 5 19.2501H18C20.3472 19.2501 22.25 17.3473 22.25 15.0001C22.25 12.9272 20.7652 11.1995 18.8009 10.8253C18.4826 10.7647 18.2392 10.5066 18.1974 10.1853C17.7987 7.1188 15.1754 4.75012 12 4.75012Z" fill="#000"/>
</svg>
