<svg width="24" height="24" viewBox="0 0 24 24" fill="none" xmlns="http://www.w3.org/2000/svg">
<path fill-rule="evenodd" clip-rule="evenodd" d="M12 1.25C8.18138 1.25 5.06551 4.25883 4.89382 8.03505C2.82493 8.38781 1.25 10.1894 1.25 12.3588C1.25 14.7813 3.21384 16.7452 5.63636 16.7452C5.67565 16.7452 5.71485 16.7447 5.75394 16.7436H11.25V19.378C10.6107 19.604 10.104 20.1107 9.87803 20.75H5C4.58579 20.75 4.25 21.0858 4.25 21.5C4.25 21.9142 4.58579 22.25 5 22.25H9.87803C10.1869 23.1239 11.0203 23.75 12 23.75C12.9797 23.75 13.8131 23.1239 14.122 22.25H19C19.4142 22.25 19.75 21.9142 19.75 21.5C19.75 21.0858 19.4142 20.75 19 20.75H14.122C13.896 20.1107 13.3893 19.604 12.75 19.378V16.7436H17.333C17.3734 16.7446 17.414 16.745 17.4546 16.745C20.3792 16.745 22.7501 14.3742 22.7501 11.4496C22.7501 8.99629 21.0825 6.93381 18.819 6.33173C17.9445 3.3932 15.2233 1.25 12 1.25ZM6.38636 8.36364C6.38636 5.26331 8.89967 2.75 12 2.75C14.676 2.75 16.9163 4.62315 17.4779 7.13049C17.5446 7.42828 17.7851 7.65595 18.0861 7.70628C19.8816 8.00651 21.2501 9.56895 21.2501 11.4496C21.2501 13.5457 19.5508 15.245 17.4546 15.245C17.423 15.245 17.3915 15.2446 17.3601 15.2439L17.3418 15.2436H5.74359C5.73635 15.2436 5.72911 15.2437 5.72187 15.244C5.6935 15.2448 5.665 15.2452 5.63636 15.2452C4.04227 15.2452 2.75 13.9529 2.75 12.3588C2.75 10.7647 4.04227 9.47246 5.63636 9.47246L5.64512 9.47248C5.85147 9.4728 6.04883 9.3881 6.19075 9.23831C6.33267 9.08852 6.40661 8.88688 6.39515 8.68085C6.38932 8.57593 6.38636 8.47017 6.38636 8.36364ZM12 20.75C12.4142 20.75 12.75 21.0858 12.75 21.5C12.75 21.9142 12.4142 22.25 12 22.25C11.5858 22.25 11.25 21.9142 11.25 21.5C11.25 21.0858 11.5858 20.75 12 20.75Z" fill="#000"/>
</svg>
