<svg width="24" height="24" viewBox="0 0 24 24" fill="none" xmlns="http://www.w3.org/2000/svg">
<path d="M16.2501 3C16.2501 2.58579 15.9143 2.25 15.5001 2.25C15.0859 2.25 14.7501 2.58579 14.7501 3V4.875C14.7501 5.28921 15.0859 5.625 15.5001 5.625C15.9143 5.625 16.2501 5.28921 16.2501 4.875V3Z" fill="#000"/>
<path d="M10.7271 4.66637C10.4342 4.37348 9.95934 4.37348 9.66645 4.66637C9.37355 4.95926 9.37355 5.43414 9.66645 5.72703L10.9923 7.05285C11.2852 7.34575 11.76 7.34575 12.0529 7.05285C12.3458 6.75996 12.3458 6.28509 12.0529 5.99219L10.7271 4.66637Z" fill="#000"/>
<path d="M21.3337 5.72703C21.6266 5.43414 21.6266 4.95926 21.3337 4.66637C21.0408 4.37348 20.5659 4.37348 20.273 4.66637L18.9472 5.99219C18.6543 6.28509 18.6543 6.75996 18.9472 7.05285C19.2401 7.34575 19.715 7.34575 20.0079 7.05285L21.3337 5.72703Z" fill="#000"/>
<path d="M21.1251 9.75C20.7109 9.75 20.3751 10.0858 20.3751 10.5C20.3751 10.9142 20.7109 11.25 21.1251 11.25H23.0001C23.4143 11.25 23.7501 10.9142 23.7501 10.5C23.7501 10.0858 23.4143 9.75 23.0001 9.75H21.1251Z" fill="#000"/>
<path d="M20.0079 13.9471C19.715 13.6543 19.2401 13.6543 18.9472 13.9471C18.6543 14.24 18.6543 14.7149 18.9472 15.0078L20.273 16.3336C20.5659 16.6265 21.0408 16.6265 21.3337 16.3336C21.6266 16.0407 21.6266 15.5659 21.3337 15.273L20.0079 13.9471Z" fill="#000"/>
<path d="M15.4999 8.25C14.7589 8.25 14.1016 8.60741 13.6904 9.16246C13.4438 9.4953 12.9741 9.56523 12.6413 9.31867C12.3085 9.0721 12.2385 8.60241 12.4851 8.26957C13.167 7.34908 14.2636 6.75 15.4999 6.75C17.571 6.75 19.2499 8.42893 19.2499 10.5C19.2499 11.4194 18.9181 12.2632 18.3686 12.9153C18.1017 13.232 17.6285 13.2725 17.3118 13.0055C16.995 12.7386 16.9546 12.2655 17.2215 11.9487C17.5517 11.557 17.7499 11.0526 17.7499 10.5C17.7499 9.25736 16.7426 8.25 15.4999 8.25Z" fill="#000"/>
<path fill-rule="evenodd" clip-rule="evenodd" d="M3.11056 14.8083C3.26616 11.7123 5.82563 9.25 8.96021 9.25C11.5197 9.25 13.6944 10.8911 14.4919 13.1779C16.8442 13.195 18.7458 15.1071 18.7458 17.4634C18.7458 19.6615 17.0916 21.4724 14.9597 21.7203C14.8932 21.7396 14.8228 21.75 14.75 21.75H3.75C1.817 21.75 0.25 20.183 0.25 18.25C0.25 16.5354 1.48292 15.1088 3.11056 14.8083ZM8.96021 10.75C6.55383 10.75 4.60307 12.7008 4.60307 15.1071C4.60307 15.2211 4.60742 15.3338 4.61595 15.4452C4.63232 15.659 4.55643 15.8695 4.40746 16.0237C4.25848 16.1778 4.05066 16.2609 3.83647 16.2518C3.8078 16.2506 3.77897 16.25 3.75 16.25C2.64543 16.25 1.75 17.1454 1.75 18.25C1.75 19.3546 2.64543 20.25 3.75 20.25H14.6131C14.6381 20.2454 14.6635 20.242 14.6893 20.2399C16.1202 20.1238 17.2458 18.9247 17.2458 17.4634C17.2458 15.9249 15.9986 14.6777 14.4601 14.6777C14.3199 14.6777 14.1827 14.688 14.0489 14.7078C13.6615 14.765 13.2953 14.5145 13.2082 14.1327C12.7659 12.1952 11.0309 10.75 8.96021 10.75Z" fill="#000"/>
</svg>
