<svg width="24" height="24" viewBox="0 0 24 24" fill="none" xmlns="http://www.w3.org/2000/svg">
<path d="M15.75 13.5C15.75 13.9142 15.4142 14.25 15 14.25H12.75V16.5C12.75 16.9142 12.4142 17.25 12 17.25C11.5858 17.25 11.25 16.9142 11.25 16.5V14.25H9C8.58579 14.25 8.25 13.9142 8.25 13.5C8.25 13.0858 8.58579 12.75 9 12.75H11.25V10.5C11.25 10.0858 11.5858 9.75 12 9.75C12.4142 9.75 12.75 10.0858 12.75 10.5V12.75H15C15.4142 12.75 15.75 13.0858 15.75 13.5Z" fill="#000"/>
<path fill-rule="evenodd" clip-rule="evenodd" d="M4.25 11C4.25 6.71979 7.71979 3.25 12 3.25C15.7587 3.25 18.8916 5.92521 19.6 9.47575C21.9971 10.169 23.75 12.3791 23.75 15C23.75 18.1756 21.1756 20.75 18 20.75H5C2.37665 20.75 0.25 18.6234 0.25 16C0.25 13.6298 1.98608 11.665 4.25602 11.3079C4.25202 11.2057 4.25 11.1031 4.25 11ZM12 4.75C8.54822 4.75 5.75 7.54822 5.75 11C5.75 11.3041 5.77166 11.6026 5.81341 11.8944C5.84454 12.1119 5.77872 12.3321 5.63334 12.4969C5.48795 12.6616 5.27762 12.7543 5.05792 12.7505C5.03857 12.7502 5.01926 12.75 5 12.75C3.20507 12.75 1.75 14.2051 1.75 16C1.75 17.7949 3.20507 19.25 5 19.25H18C20.3472 19.25 22.25 17.3472 22.25 15C22.25 12.9271 20.7652 11.1994 18.8009 10.8252C18.4826 10.7646 18.2392 10.5064 18.1974 10.1852C17.7987 7.11868 15.1754 4.75 12 4.75Z" fill="#000"/>
</svg>
