<svg width="24" height="24" viewBox="0 0 24 24" fill="none" xmlns="http://www.w3.org/2000/svg">
<path d="M16.0303 11.7803C16.3232 11.4874 16.3232 11.0126 16.0303 10.7197C15.7374 10.4268 15.2626 10.4268 14.9697 10.7197L11 14.6893L9.03033 12.7197C8.73744 12.4268 8.26256 12.4268 7.96967 12.7197C7.67678 13.0126 7.67678 13.4874 7.96967 13.7803L10.4697 16.2803C10.7626 16.5732 11.2374 16.5732 11.5303 16.2803L16.0303 11.7803Z" fill="#000"/>
<path fill-rule="evenodd" clip-rule="evenodd" d="M12 3.25C7.71979 3.25 4.25 6.71979 4.25 11C4.25 11.1031 4.25202 11.2057 4.25602 11.3079C1.98608 11.665 0.25 13.6298 0.25 16C0.25 18.6234 2.37665 20.75 5 20.75H18C21.1756 20.75 23.75 18.1756 23.75 15C23.75 12.3791 21.9971 10.169 19.6 9.47575C18.8916 5.92521 15.7587 3.25 12 3.25ZM5.75 11C5.75 7.54822 8.54822 4.75 12 4.75C15.1754 4.75 17.7987 7.11868 18.1974 10.1852C18.2392 10.5064 18.4826 10.7646 18.8009 10.8252C20.7652 11.1994 22.25 12.9271 22.25 15C22.25 17.3472 20.3472 19.25 18 19.25H5C3.20507 19.25 1.75 17.7949 1.75 16C1.75 14.2051 3.20507 12.75 5 12.75C5.01926 12.75 5.03857 12.7502 5.05792 12.7505C5.27762 12.7543 5.48795 12.6616 5.63334 12.4969C5.77872 12.3321 5.84454 12.1119 5.81341 11.8944C5.77166 11.6026 5.75 11.3041 5.75 11Z" fill="#000"/>
</svg>
