<svg width="24" height="24" viewBox="0 0 24 24" fill="none" xmlns="http://www.w3.org/2000/svg">
<path d="M14.7277 4.1819C14.8281 3.78005 14.5838 3.37285 14.182 3.27239C13.7801 3.17193 13.3729 3.41625 13.2724 3.81809L9.27245 19.8181C9.17199 20.2199 9.41631 20.6271 9.81815 20.7276C10.22 20.8281 10.6272 20.5837 10.7277 20.1819L14.7277 4.1819Z" fill="#000"/>
<path d="M6.53566 7.47505C6.82558 7.77089 6.82078 8.24574 6.52495 8.53566L3.06071 11.9306L6.53548 15.475C6.82546 15.7707 6.82075 16.2456 6.52497 16.5356C6.22919 16.8255 5.75434 16.8208 5.46436 16.525L1.46444 12.445C1.32517 12.303 1.24805 12.1114 1.25004 11.9125C1.25203 11.7136 1.33297 11.5236 1.47505 11.3843L5.47505 7.46434C5.77089 7.17442 6.24574 7.17922 6.53566 7.47505Z" fill="#000"/>
<path d="M17.4641 7.47533C17.7538 7.17934 18.2287 7.1743 18.5247 7.46407L22.5247 11.3801C22.6668 11.5192 22.7479 11.7092 22.75 11.9081C22.752 12.1071 22.675 12.2987 22.5358 12.4408L18.5358 16.5248C18.246 16.8207 17.7711 16.8256 17.4752 16.5358C17.1793 16.246 17.1744 15.7711 17.4642 15.4752L20.9393 11.9271L17.4753 8.53593C17.1793 8.24616 17.1743 7.77131 17.4641 7.47533Z" fill="#000"/>
</svg>
