<svg width="24" height="24" viewBox="0 0 24 24" fill="none" xmlns="http://www.w3.org/2000/svg">
<path d="M14.7277 4.18183C14.8281 3.77999 14.5838 3.37279 14.182 3.27233C13.7801 3.17186 13.3729 3.41619 13.2724 3.81803L9.27245 19.818C9.17199 20.2199 9.41631 20.6271 9.81815 20.7275C10.22 20.828 10.6272 20.5837 10.7277 20.1818L14.7277 4.18183Z" fill="#000"/>
<path d="M6.53566 7.47499C6.82558 7.77083 6.82078 8.24568 6.52495 8.5356L3.06071 11.9306L6.53548 15.4749C6.82546 15.7707 6.82075 16.2455 6.52497 16.5355C6.22919 16.8255 5.75434 16.8208 5.46436 16.525L1.46444 12.445C1.32517 12.3029 1.24805 12.1114 1.25004 11.9124C1.25203 11.7135 1.33297 11.5235 1.47505 11.3843L5.47505 7.46428C5.77089 7.17436 6.24574 7.17916 6.53566 7.47499Z" fill="#000"/>
<path d="M17.4641 7.47527C17.7538 7.17928 18.2287 7.17424 18.5247 7.46401L22.5247 11.38C22.6668 11.5192 22.7479 11.7091 22.75 11.9081C22.752 12.107 22.675 12.2986 22.5358 12.4407L18.5358 16.5247C18.246 16.8207 17.7711 16.8256 17.4752 16.5358C17.1793 16.2459 17.1744 15.7711 17.4642 15.4751L20.9393 11.9271L17.4753 8.53587C17.1793 8.2461 17.1743 7.77125 17.4641 7.47527Z" fill="#000"/>
</svg>
