<svg width="24" height="24" viewBox="0 0 24 24" fill="none" xmlns="http://www.w3.org/2000/svg">
<path fill-rule="evenodd" clip-rule="evenodd" d="M1.25 5.501C1.25 4.12638 2.27327 3.05129 3.54823 2.36477C4.85374 1.6618 6.6058 1.25 8.5 1.25C10.3942 1.25 12.1463 1.6618 13.4518 2.36477C14.7267 3.05129 15.75 4.12539 15.75 5.5C15.75 5.51717 15.7498 5.5343 15.7495 5.55138L15.7499 8.48742L15.75 8.50015L15.75 9.5L15.7498 9.53541L15.7497 10.2524C17.5478 10.2869 19.2038 10.6928 20.4518 11.3648C21.7267 12.0513 22.75 13.1254 22.75 14.5C22.75 14.5172 22.7498 14.5343 22.7495 14.5514L22.75 18.5C22.75 19.9671 21.7445 21.0475 20.4401 21.7205C19.1282 22.3975 17.3765 22.75 15.5 22.75C13.6235 22.75 11.8718 22.3975 10.5599 21.7205C10.4862 21.6825 10.4135 21.6432 10.3419 21.6026C9.75314 21.6989 9.13567 21.7499 8.50009 21.7499C6.62355 21.7499 4.8719 21.3975 3.55998 20.7205C2.2556 20.0475 1.25009 18.9671 1.25009 17.5L1.25009 13.5242L1.25 13.5L1.25 5.501ZM4.25938 3.68548C3.18181 4.26571 2.75 4.94161 2.75 5.5C2.75037 6.05825 3.18227 6.73454 4.25938 7.31452C5.30641 7.8783 6.80435 8.25 8.5 8.25C10.1957 8.25 11.6936 7.8783 12.7406 7.31452C13.7975 6.74545 14.2332 6.08435 14.2495 5.53235L14.2495 5.50065L14.2498 5.4791C14.2392 4.92481 13.8048 4.25849 12.7406 3.68548C11.6936 3.1217 10.1957 2.75 8.5 2.75C6.80435 2.75 5.30641 3.1217 4.25938 3.68548ZM8.79774 20.2456C8.45413 19.7435 8.25 19.161 8.25 18.5V17.7479C6.46827 17.7179 4.81337 17.3673 3.55989 16.7205C3.27299 16.5725 3.00055 16.4047 2.75009 16.2175L2.75009 17.5C2.75009 18.1771 3.19966 18.8467 4.24782 19.3875C5.28843 19.9245 6.78678 20.2499 8.50009 20.2499C8.59995 20.2499 8.69919 20.2485 8.79774 20.2456ZM8.25 16.2476V14.501C8.25 14.2397 8.28698 13.9882 8.35563 13.7493C6.53375 13.7316 4.83811 13.3801 3.55989 12.7205C3.27295 12.5725 3.00049 12.4047 2.75 12.2174V12.9882L2.75009 13L2.75009 13.5167C2.75745 14.1881 3.2082 14.8511 4.24773 15.3875C5.23741 15.8982 6.64112 16.2176 8.25 16.2476ZM9.34499 12.215C9.69437 11.8874 10.1062 11.6028 10.5482 11.3648C11.5075 10.8482 12.7079 10.4889 14.0285 10.3347C14.1736 10.0654 14.2456 9.79442 14.2498 9.52525L14.2499 8.12573C14.0016 8.31377 13.7328 8.48391 13.4518 8.63523C12.1463 9.3382 10.3942 9.75 8.5 9.75C6.6058 9.75 4.85374 9.3382 3.54823 8.63523C3.26717 8.48388 2.99833 8.31371 2.75 8.12563V9.5C2.75035 10.1768 3.19998 10.8469 4.24773 11.3875C5.28834 11.9245 6.78669 12.25 8.5 12.25C8.78718 12.25 9.06929 12.238 9.34499 12.215ZM11.2594 12.6855C10.1818 13.2657 9.75 13.9416 9.75 14.5C9.75037 15.0582 10.1823 15.7345 11.2594 16.3145C12.3064 16.8783 13.8043 17.25 15.5 17.25C17.1957 17.25 18.6936 16.8783 19.7406 16.3145C20.7975 15.7454 21.2332 15.0844 21.2495 14.5323L21.2495 14.5007L21.2498 14.4791C21.2392 13.9248 20.8048 13.2585 19.7406 12.6855C18.6936 12.1217 17.1957 11.75 15.5 11.75C13.8043 11.75 12.3064 12.1217 11.2594 12.6855ZM21.25 18.5L21.2499 17.1257C21.0016 17.3138 20.7328 17.4839 20.4518 17.6352C19.1463 18.3382 17.3942 18.75 15.5 18.75C13.6058 18.75 11.8537 18.3382 10.5482 17.6352C10.2672 17.4839 9.99833 17.3137 9.75 17.1256V18.5C9.75 19.1771 10.1996 19.8467 11.2477 20.3875C12.2883 20.9245 13.7867 21.25 15.5 21.25C17.2133 21.25 18.7117 20.9245 19.7523 20.3875C20.8004 19.8467 21.25 19.1771 21.25 18.5Z" fill="#000"/>
</svg>
