<svg width="24" height="24" viewBox="0 0 24 24" fill="none" xmlns="http://www.w3.org/2000/svg">
<path d="M16.0303 10.2803C16.3232 9.98744 16.3232 9.51256 16.0303 9.21967C15.7374 8.92678 15.2626 8.92678 14.9697 9.21967L11 13.1893L9.03033 11.2197C8.73744 10.9268 8.26256 10.9268 7.96967 11.2197C7.67678 11.5126 7.67678 11.9874 7.96967 12.2803L10.4697 14.7803C10.7626 15.0732 11.2374 15.0732 11.5303 14.7803L16.0303 10.2803Z" fill="#000"/>
<path fill-rule="evenodd" clip-rule="evenodd" d="M12 1.25C6.06294 1.25 1.25 6.06294 1.25 12C1.25 14.0416 1.81985 15.9523 2.80949 17.5793L2.02746 19.7298C1.51963 21.1264 2.8736 22.4804 4.27015 21.9725L6.42072 21.1905C8.04768 22.1802 9.9584 22.75 12 22.75C17.9371 22.75 22.75 17.9371 22.75 12C22.75 6.06294 17.9371 1.25 12 1.25ZM2.75 12C2.75 6.89137 6.89137 2.75 12 2.75C17.1086 2.75 21.25 6.89137 21.25 12C21.25 17.1086 17.1086 21.25 12 21.25C10.2067 21.25 8.53471 20.7404 7.11828 19.8585C6.79731 19.6587 6.39258 19.6047 6.01816 19.7408L3.75754 20.5628C3.55803 20.6354 3.3646 20.442 3.43715 20.2425L4.2592 17.9818C4.39535 17.6074 4.34132 17.2027 4.14147 16.8817C3.25957 15.4653 2.75 13.7933 2.75 12Z" fill="#000"/>
</svg>
