<svg width="24" height="24" viewBox="0 0 24 24" fill="none" xmlns="http://www.w3.org/2000/svg">
<path d="M15.75 12C15.75 12.4142 15.4142 12.75 15 12.75H12.75V15C12.75 15.4142 12.4142 15.75 12 15.75C11.5858 15.75 11.25 15.4142 11.25 15V12.75H9C8.58579 12.75 8.25 12.4142 8.25 12C8.25 11.5858 8.58579 11.25 9 11.25H11.25V9C11.25 8.58579 11.5858 8.25 12 8.25C12.4142 8.25 12.75 8.58579 12.75 9V11.25H15C15.4142 11.25 15.75 11.5858 15.75 12Z" fill="#000"/>
<path fill-rule="evenodd" clip-rule="evenodd" d="M1.25 12C1.25 6.06294 6.06294 1.25 12 1.25C17.9371 1.25 22.75 6.06294 22.75 12C22.75 17.9371 17.9371 22.75 12 22.75C9.9584 22.75 8.04768 22.1802 6.42072 21.1905L4.27015 21.9725C2.8736 22.4804 1.51963 21.1264 2.02746 19.7298L2.80949 17.5793C1.81985 15.9523 1.25 14.0416 1.25 12ZM12 2.75C6.89137 2.75 2.75 6.89137 2.75 12C2.75 13.7933 3.25957 15.4653 4.14147 16.8817C4.34132 17.2027 4.39535 17.6074 4.2592 17.9818L3.43715 20.2425C3.3646 20.442 3.55803 20.6354 3.75754 20.5628L6.01816 19.7408C6.39258 19.6047 6.79731 19.6587 7.11828 19.8585C8.53471 20.7404 10.2067 21.25 12 21.25C17.1086 21.25 21.25 17.1086 21.25 12C21.25 6.89137 17.1086 2.75 12 2.75Z" fill="#000"/>
</svg>
