<svg width="24" height="24" viewBox="0 0 24 24" fill="none" xmlns="http://www.w3.org/2000/svg">
<path d="M12 11C11.4477 11 11 11.4477 11 12C11 12.5523 11.4477 13 12 13C12.5523 13 13.0001 12.5523 13.0001 12C13.0001 11.4477 12.5523 11 12 11Z" fill="#000"/>
<path fill-rule="evenodd" clip-rule="evenodd" d="M17.0858 5.9527C17.5415 6.10119 17.8988 6.45849 18.0473 6.91419C18.1683 7.2855 18.0764 7.65488 17.996 7.91296C17.9106 8.18687 17.7709 8.52616 17.6099 8.9171L15.6733 13.6202C15.5132 14.0096 15.3872 14.3161 15.1939 14.5826C15.0236 14.8175 14.8172 15.0239 14.5823 15.1942C14.3158 15.3875 14.0093 15.5135 13.6199 15.6736L8.91693 17.61C8.52602 17.771 8.18674 17.9107 7.91285 17.9961C7.65478 18.0765 7.28541 18.1684 6.9141 18.0474C6.45841 17.8989 6.10111 17.5416 5.95263 17.0859C5.83164 16.7146 5.92349 16.3452 6.00391 16.0872C6.08927 15.8133 6.22898 15.474 6.38996 15.0831L8.32643 10.3801C8.48649 9.99069 8.61249 9.68418 8.80578 9.41766C8.97611 9.18281 9.18253 8.97639 9.41738 8.80606C9.68389 8.61276 9.99039 8.48676 10.3798 8.32669L15.0829 6.39009C15.4739 6.22909 15.8131 6.08937 16.087 6.004C16.3451 5.92357 16.7145 5.83171 17.0858 5.9527ZM16.5334 7.43606C16.331 7.49914 16.0542 7.61235 15.6224 7.79013L11.0183 9.68597C10.5302 9.88698 10.4016 9.94518 10.298 10.0203C10.1913 10.0977 10.0975 10.1916 10.0201 10.2983C9.94491 10.4019 9.88672 10.5305 9.68572 11.0186L7.79002 15.6225C7.61225 16.0543 7.49905 16.3311 7.43598 16.5335C7.43107 16.5492 7.42673 16.5638 7.42291 16.5771C7.43625 16.5733 7.45078 16.5689 7.46655 16.564C7.66893 16.501 7.94573 16.3878 8.37746 16.21L12.9814 14.3143C13.4696 14.1133 13.5981 14.0551 13.7017 13.98C13.8084 13.9025 13.9023 13.8087 13.9797 13.702C14.0548 13.5984 14.113 13.4698 14.314 12.9817L16.2099 8.37757C16.3877 7.94583 16.5009 7.66903 16.5639 7.46664C16.5689 7.45086 16.5732 7.43633 16.577 7.42299C16.5637 7.42681 16.5491 7.43115 16.5334 7.43606Z" fill="#000"/>
<path fill-rule="evenodd" clip-rule="evenodd" d="M0.25 12C0.25 5.51065 5.51065 0.25 12 0.25C18.4893 0.25 23.75 5.51065 23.75 12C23.75 18.4893 18.4893 23.75 12 23.75C5.51065 23.75 0.25 18.4893 0.25 12ZM12 1.75C6.33908 1.75 1.75 6.33908 1.75 12C1.75 17.6609 6.33908 22.25 12 22.25C17.6609 22.25 22.25 17.6609 22.25 12C22.25 6.33908 17.6609 1.75 12 1.75Z" fill="#000"/>
</svg>
