<svg width="24" height="24" viewBox="0 0 24 24" fill="none" xmlns="http://www.w3.org/2000/svg">
<path fill-rule="evenodd" clip-rule="evenodd" d="M7.5 2.75C7.91421 2.75 8.25 3.08579 8.25 3.5L8.25 7.92621C8.25002 8.1837 8.25004 8.42018 8.23388 8.61787C8.21647 8.831 8.17661 9.06418 8.05926 9.29448C7.89148 9.62377 7.62377 9.89148 7.29448 10.0593C7.06418 10.1766 6.831 10.2165 6.61787 10.2339C6.42018 10.25 6.1837 10.25 5.92621 10.25L1.5 10.25C1.08579 10.25 0.75 9.91421 0.75 9.5C0.75 9.08579 1.08579 8.75 1.5 8.75H5.9C6.1924 8.75 6.3666 8.74942 6.49572 8.73887C6.57453 8.73243 6.60766 8.72393 6.61654 8.72118C6.66118 8.69766 6.69766 8.66118 6.72118 8.61654C6.72393 8.60766 6.73243 8.57453 6.73887 8.49572C6.74942 8.3666 6.75 8.1924 6.75 7.9V3.5C6.75 3.08579 7.08579 2.75 7.5 2.75ZM6.72027 8.61912L6.72083 8.61761L6.72027 8.61912ZM6.61913 8.72027L6.61764 8.72082L6.61913 8.72027Z" fill="#000"/>
<path fill-rule="evenodd" clip-rule="evenodd" d="M16.5 2.75C16.9142 2.75 17.25 3.08579 17.25 3.5V7.9C17.25 8.1924 17.2506 8.3666 17.2611 8.49572C17.2676 8.57454 17.2761 8.60766 17.2788 8.61654C17.3023 8.66118 17.3388 8.69766 17.3835 8.72118C17.3923 8.72393 17.4255 8.73243 17.5043 8.73887C17.6334 8.74942 17.8076 8.75 18.1 8.75H22.5C22.9142 8.75 23.25 9.08579 23.25 9.5C23.25 9.91421 22.9142 10.25 22.5 10.25L18.0738 10.25C17.8163 10.25 17.5798 10.25 17.3821 10.2339C17.169 10.2165 16.9358 10.1766 16.7055 10.0593C16.3762 9.89148 16.1085 9.62377 15.9407 9.29448C15.8234 9.06418 15.7835 8.831 15.7661 8.61787C15.75 8.42019 15.75 8.18371 15.75 7.92623L15.75 3.5C15.75 3.08579 16.0858 2.75 16.5 2.75ZM17.3809 8.72027L17.3824 8.72083L17.3809 8.72027ZM17.2797 8.61912L17.2792 8.61764L17.2797 8.61912Z" fill="#000"/>
<path fill-rule="evenodd" clip-rule="evenodd" d="M6.49572 15.2611C6.3666 15.2506 6.1924 15.25 5.9 15.25H1.5C1.08579 15.25 0.75 14.9142 0.75 14.5C0.75 14.0858 1.08579 13.75 1.5 13.75L5.92623 13.75C6.18371 13.75 6.42019 13.75 6.61787 13.7661C6.831 13.7835 7.06418 13.8234 7.29448 13.9407C7.62377 14.1085 7.89148 14.3762 8.05926 14.7055C8.17661 14.9358 8.21647 15.169 8.23388 15.3821C8.25004 15.5798 8.25002 15.8163 8.25 16.0738L8.25 20.5C8.25 20.9142 7.91421 21.25 7.5 21.25C7.08579 21.25 6.75 20.9142 6.75 20.5V16.1C6.75 15.8076 6.74942 15.6334 6.73887 15.5043C6.73243 15.4255 6.72393 15.3923 6.72118 15.3835C6.69766 15.3388 6.66118 15.3023 6.61654 15.2788C6.60766 15.2761 6.57453 15.2676 6.49572 15.2611ZM6.61912 15.2797L6.61764 15.2792L6.61912 15.2797ZM6.72027 15.3809L6.72083 15.3824L6.72027 15.3809Z" fill="#000"/>
<path fill-rule="evenodd" clip-rule="evenodd" d="M18.0738 13.75L22.5 13.75C22.9142 13.75 23.25 14.0858 23.25 14.5C23.25 14.9142 22.9142 15.25 22.5 15.25H18.1C17.8076 15.25 17.6334 15.2506 17.5043 15.2611C17.4255 15.2676 17.3923 15.2761 17.3835 15.2788C17.3388 15.3023 17.3023 15.3388 17.2788 15.3835C17.2761 15.3923 17.2676 15.4255 17.2611 15.5043C17.2506 15.6334 17.25 15.8076 17.25 16.1V20.5C17.25 20.9142 16.9142 21.25 16.5 21.25C16.0858 21.25 15.75 20.9142 15.75 20.5L15.75 16.0738C15.75 15.8163 15.75 15.5798 15.7661 15.3821C15.7835 15.169 15.8234 14.9358 15.9407 14.7055C16.1085 14.3762 16.3762 14.1085 16.7055 13.9407C16.9358 13.8234 17.169 13.7835 17.3821 13.7661C17.5798 13.75 17.8163 13.75 18.0738 13.75ZM17.2797 15.3809L17.2792 15.3824L17.2797 15.3809ZM17.3809 15.2797L17.3824 15.2792L17.3809 15.2797Z" fill="#000"/>
</svg>
