<svg width="24" height="24" viewBox="0 0 24 24" fill="none" xmlns="http://www.w3.org/2000/svg">
<path d="M5.5 14.75C5.08579 14.75 4.75 15.0858 4.75 15.5C4.75 15.9142 5.08579 16.25 5.5 16.25H10C10.4142 16.25 10.75 15.9142 10.75 15.5C10.75 15.0858 10.4142 14.75 10 14.75H5.5Z" fill="#000"/>
<path fill-rule="evenodd" clip-rule="evenodd" d="M2.53033 1.46967C2.23744 1.17678 1.76256 1.17678 1.46967 1.46967C1.17678 1.76256 1.17678 2.23744 1.46967 2.53033L2.66755 3.72821C2.02146 4.09006 1.49591 4.63577 1.15873 5.29754C0.932386 5.74175 0.838026 6.2219 0.793364 6.76853C0.749987 7.29944 0.749993 7.95505 0.75 8.76788V15.2321C0.749993 16.0449 0.749987 16.7006 0.793364 17.2315C0.838026 17.7781 0.932385 18.2582 1.15873 18.7025C1.51825 19.4081 2.09193 19.9818 2.79754 20.3413C3.24175 20.5676 3.7219 20.662 4.26853 20.7066C4.79944 20.75 5.45505 20.75 6.26788 20.75H17.7531C18.5095 20.75 19.1332 20.75 19.652 20.7126L21.4697 22.5303C21.7626 22.8232 22.2374 22.8232 22.5303 22.5303C22.8232 22.2374 22.8232 21.7626 22.5303 21.4697L20.468 19.4073C20.4647 19.404 20.4614 19.4007 20.4581 19.3974L4.60338 3.54272C4.60006 3.53934 4.59671 3.53598 4.59333 3.53267L2.53033 1.46967ZM3.81338 4.87404C3.67853 4.90746 3.57136 4.94793 3.47852 4.99524C3.05516 5.21095 2.71095 5.55516 2.49524 5.97852C2.3946 6.17604 2.32547 6.4368 2.28838 6.89068C2.25133 7.34421 2.25004 7.92422 2.25 8.75H7.68934L3.81338 4.87404ZM9.18934 10.25H2.25V15.2C2.25 16.0525 2.25058 16.6467 2.28838 17.1093C2.32547 17.5632 2.3946 17.824 2.49524 18.0215C2.71095 18.4448 3.05516 18.7891 3.47852 19.0048C3.67604 19.1054 3.93681 19.1745 4.39068 19.2116C4.85331 19.2494 5.44755 19.25 6.3 19.25H17.7C17.8735 19.25 18.0361 19.25 18.1889 19.2496L14.9991 16.0598C14.8666 16.1781 14.6917 16.25 14.5 16.25H13C12.5858 16.25 12.25 15.9142 12.25 15.5C12.25 15.0858 12.5858 14.75 13 14.75H13.6893L9.18934 10.25Z" fill="#000"/>
<path d="M17.7 4.75C18.5525 4.75 19.1467 4.75058 19.6093 4.78838C20.0632 4.82547 20.324 4.8946 20.5215 4.99524C20.9448 5.21095 21.289 5.55516 21.5048 5.97852C21.6054 6.17604 21.6745 6.4368 21.7116 6.89068C21.7487 7.34421 21.75 7.92422 21.75 8.75H13.5C13.0858 8.75 12.75 9.08579 12.75 9.5C12.75 9.91421 13.0858 10.25 13.5 10.25H21.75V15.2C21.75 15.9952 21.7496 16.5668 21.7184 17.0188C21.6875 17.4666 21.6292 17.7371 21.5431 17.9393C21.3808 18.3204 21.5582 18.7609 21.9393 18.9232C22.3204 19.0855 22.7609 18.9081 22.9232 18.527C23.1039 18.1026 23.179 17.6416 23.2149 17.122C23.25 16.6124 23.25 15.9893 23.25 15.2263V8.76788C23.25 7.95505 23.25 7.29944 23.2066 6.76853C23.162 6.2219 23.0676 5.74175 22.8413 5.29754C22.4817 4.59193 21.9081 4.01825 21.2025 3.65873C20.7582 3.43239 20.2781 3.33803 19.7315 3.29336C19.2006 3.24999 18.5449 3.24999 17.7321 3.25L8 3.25C7.58578 3.25 7.25 3.58579 7.25 4C7.25 4.41421 7.58578 4.75 8 4.75H17.7Z" fill="#000"/>
</svg>
