<svg width="24" height="24" viewBox="0 0 24 24" fill="none" xmlns="http://www.w3.org/2000/svg">
<path fill-rule="evenodd" clip-rule="evenodd" d="M9.75 4.5C9.75 3.25736 10.7574 2.25 12 2.25C13.2426 2.25 14.25 3.25736 14.25 4.5C14.25 5.31026 13.8217 6.02048 13.1792 6.41663L16.0951 10.7906C16.1692 10.9016 16.3174 10.935 16.4318 10.8663L19.729 8.88798C19.4289 8.50564 19.25 8.02372 19.25 7.5C19.25 6.25736 20.2574 5.25 21.5 5.25C22.7426 5.25 23.75 6.25736 23.75 7.5C23.75 8.69696 22.8153 9.67562 21.636 9.74595L20.4916 16.6126C20.4904 16.6204 20.4891 16.6281 20.4877 16.6357L20.1576 18.6165C19.8563 20.4247 18.2918 21.75 16.4586 21.75H7.54141C5.70826 21.75 4.1438 20.4247 3.84243 18.6165L3.51276 16.6385C3.51099 16.629 3.5094 16.6195 3.50799 16.6099L2.36401 9.74596C1.18469 9.67565 0.25 8.69698 0.25 7.5C0.25 6.25736 1.25736 5.25 2.5 5.25C3.74264 5.25 4.75 6.25736 4.75 7.5C4.75 8.02371 4.57108 8.50562 4.27102 8.88796L7.56826 10.8663C7.6827 10.935 7.83088 10.9016 7.9049 10.7906L10.8209 6.41665C10.1783 6.02051 9.75 5.31027 9.75 4.5ZM12 3.75C11.5858 3.75 11.25 4.08579 11.25 4.5C11.25 4.91421 11.5858 5.25 12 5.25C12.4142 5.25 12.75 4.91421 12.75 4.5C12.75 4.08579 12.4142 3.75 12 3.75ZM5.13537 17.25L5.32202 18.3699C5.50284 19.4548 6.44152 20.25 7.54141 20.25H16.4586C17.5585 20.25 18.4972 19.4548 18.678 18.3699L18.8647 17.25H5.13537ZM19.1147 15.75H4.88537L4.00682 10.4787L6.79652 12.1525C7.59754 12.6332 8.63481 12.3999 9.15298 11.6227L12 7.35208L14.8471 11.6227C15.3652 12.3999 16.4025 12.6332 17.2035 12.1525L19.9932 10.4787L19.1147 15.75ZM2.5 6.75C2.08579 6.75 1.75 7.08579 1.75 7.5C1.75 7.91421 2.08579 8.25 2.5 8.25C2.91421 8.25 3.25 7.91421 3.25 7.5C3.25 7.08579 2.91421 6.75 2.5 6.75ZM20.75 7.5C20.75 7.08579 21.0858 6.75 21.5 6.75C21.9142 6.75 22.25 7.08579 22.25 7.5C22.25 7.91421 21.9142 8.25 21.5 8.25C21.0858 8.25 20.75 7.91421 20.75 7.5Z" fill="#000"/>
</svg>
