<svg width="24" height="24" viewBox="0 0 24 24" fill="none" xmlns="http://www.w3.org/2000/svg">
<path fill-rule="evenodd" clip-rule="evenodd" d="M20.7492 6.06722C20.7497 6.04489 20.7499 6.02248 20.7499 6C20.7499 4.45831 19.5197 3.26447 17.9922 2.50075C16.4199 1.7146 14.3003 1.25 11.9999 1.25C9.69962 1.25 7.57999 1.7146 6.00768 2.50075C4.48649 3.26135 3.26003 4.44854 3.25001 5.98108C3.24984 5.98763 3.24976 5.9942 3.24976 6.00079L3.24993 10.9847C3.24981 10.9901 3.24976 10.9955 3.24976 11.001L3.24995 17.4999C3.24982 19.1406 4.41833 20.4674 5.97585 21.3415C7.5557 22.2282 9.68718 22.75 11.9997 22.75C14.3123 22.75 16.4438 22.2282 18.0238 21.3415C19.5813 20.4674 20.7499 19.1406 20.7499 17.5L20.7492 11.5706C20.7497 11.5471 20.7499 11.5236 20.7499 11.5L20.7492 6.06722ZM17.3214 3.84239C15.9983 3.18083 14.1179 2.75 11.9999 2.75C9.882 2.75 8.00163 3.18083 6.6785 3.84239C5.31052 4.52639 4.74995 5.33255 4.74995 6C4.74995 6.66745 5.31052 7.47361 6.6785 8.15761C8.00163 8.81917 9.88199 9.25 11.9999 9.25C14.1179 9.25 15.9983 8.81917 17.3214 8.15761C18.6599 7.48837 19.2254 6.70218 19.2492 6.04339L19.2492 6.00019C19.2492 5.99104 19.2493 5.98193 19.2496 5.97286C19.2346 5.31078 18.6709 4.51714 17.3214 3.84239ZM19.2495 8.70754C18.8729 9.00791 18.4456 9.27253 17.9922 9.49925C16.4199 10.2854 14.3003 10.75 11.9999 10.75C9.69962 10.75 7.57999 10.2854 6.00768 9.49925C5.55405 9.27243 5.12662 9.00768 4.74985 8.70714L4.74995 11.5001C4.74988 12.3594 5.37214 13.2826 6.70999 14.0335C8.02553 14.7718 9.89404 15.25 11.9998 15.25C14.1055 15.25 15.974 14.7718 17.2896 14.0335C18.6013 13.2974 19.2252 12.3957 19.2492 11.5508L19.2492 11.0002C19.2492 10.9891 19.2494 10.978 19.2499 10.967L19.2495 8.70754ZM19.2496 14.481C18.8852 14.8029 18.4705 15.0908 18.0238 15.3415C16.4438 16.2282 14.3123 16.75 11.9998 16.75C9.68718 16.75 7.5557 16.2282 5.97585 15.3415C5.52904 15.0908 5.11424 14.8027 4.74986 14.4807L4.74995 17.5001C4.74988 18.3594 5.37214 19.2826 6.70999 20.0335C8.02553 20.7718 9.89404 21.25 11.9998 21.25C14.1055 21.25 15.974 20.7718 17.2896 20.0335C18.6276 19.2826 19.2499 18.3594 19.2499 17.5L19.2496 14.481Z" fill="#000"/>
</svg>
