<svg width="24" height="24" viewBox="0 0 24 24" fill="none" xmlns="http://www.w3.org/2000/svg">
<path fill-rule="evenodd" clip-rule="evenodd" d="M16.9326 1.25H7.06739C6.11495 1.24999 5.35439 1.24999 4.74013 1.30018C4.11012 1.35165 3.56824 1.45963 3.07054 1.71322C2.27085 2.12068 1.62068 2.77085 1.21322 3.57054C0.959634 4.06824 0.85165 4.61012 0.800176 5.24013C0.749989 5.85439 0.749994 6.61494 0.75 7.56738V12.4326C0.749998 12.7937 0.749995 13.1272 0.752728 13.4356C0.750922 13.4568 0.75 13.4783 0.75 13.5C0.75 13.5271 0.751439 13.5539 0.754243 13.5803C0.759669 14.0248 0.772028 14.4154 0.800176 14.7599C0.85165 15.3899 0.959634 15.9318 1.21322 16.4295C1.62068 17.2291 2.27085 17.8793 3.07054 18.2868C3.56824 18.5404 4.11012 18.6483 4.74013 18.6998C5.35438 18.75 6.1149 18.75 7.0673 18.75H9.25V20C9.25 20.6904 8.69036 21.25 8 21.25H7.5C7.08579 21.25 6.75 21.5858 6.75 22C6.75 22.4142 7.08579 22.75 7.5 22.75H16.5C16.9142 22.75 17.25 22.4142 17.25 22C17.25 21.5858 16.9142 21.25 16.5 21.25H16C15.3096 21.25 14.75 20.6904 14.75 20V18.75H16.9326C17.885 18.75 18.6456 18.75 19.2599 18.6998C19.8899 18.6483 20.4318 18.5404 20.9295 18.2868C21.7291 17.8793 22.3793 17.2291 22.7868 16.4295C23.0404 15.9318 23.1483 15.3899 23.1998 14.7599C23.228 14.4154 23.2403 14.0248 23.2458 13.5803C23.2486 13.5539 23.25 13.5271 23.25 13.5C23.25 13.4783 23.2491 13.4568 23.2473 13.4356C23.25 13.1272 23.25 12.7937 23.25 12.4327V7.56737C23.25 6.61496 23.25 5.85438 23.1998 5.24013C23.1483 4.61012 23.0404 4.06824 22.7868 3.57054C22.3793 2.77085 21.7291 2.12068 20.9295 1.71322C20.4318 1.45963 19.8899 1.35165 19.2599 1.30018C18.6456 1.24999 17.8851 1.24999 16.9326 1.25ZM21.7499 12.75C21.75 12.6375 21.75 12.5209 21.75 12.4V7.6C21.75 6.60753 21.7494 5.90829 21.7048 5.36228C21.6609 4.82503 21.5782 4.50252 21.4503 4.25153C21.1866 3.73408 20.7659 3.31338 20.2485 3.04973C19.9975 2.92184 19.675 2.83909 19.1377 2.79519C18.5917 2.75058 17.8925 2.75 16.9 2.75H7.1C6.10753 2.75 5.40829 2.75058 4.86228 2.79519C4.32503 2.83909 4.00252 2.92184 3.75153 3.04973C3.23408 3.31338 2.81338 3.73408 2.54973 4.25153C2.42184 4.50252 2.33909 4.82503 2.29519 5.36228C2.25058 5.90829 2.25 6.60753 2.25 7.6V12.4C2.25 12.5209 2.25001 12.6375 2.2501 12.75H21.7499ZM2.27152 14.25C2.27756 14.3878 2.28529 14.5165 2.29519 14.6377C2.33909 15.175 2.42184 15.4975 2.54973 15.7485C2.81338 16.2659 3.23408 16.6866 3.75153 16.9503C4.00252 17.0782 4.32503 17.1609 4.86228 17.2048C5.40829 17.2494 6.10753 17.25 7.1 17.25H16.9C17.8925 17.25 18.5917 17.2494 19.1377 17.2048C19.675 17.1609 19.9975 17.0782 20.2485 16.9503C20.7659 16.6866 21.1866 16.2659 21.4503 15.7485C21.5782 15.4975 21.6609 15.175 21.7048 14.6377C21.7147 14.5165 21.7224 14.3878 21.7285 14.25H2.27152ZM13.25 18.75H10.75V20C10.75 20.4501 10.6419 20.875 10.4501 21.25H13.5499C13.3581 20.875 13.25 20.4501 13.25 20V18.75Z" fill="#000"/>
</svg>
