<svg width="24" height="24" viewBox="0 0 24 24" fill="none" xmlns="http://www.w3.org/2000/svg">
<path d="M12.0001 1.25C12.4143 1.25 12.7501 1.58579 12.7501 2V3.77272C13.4807 3.82072 14.1246 3.94984 14.7766 4.20843C15.6248 4.54486 16.4411 5.08303 17.4528 5.84912C17.783 6.09917 17.848 6.56957 17.598 6.8998C17.3479 7.23003 16.8775 7.29502 16.5473 7.04497C15.559 6.29664 14.8753 5.86127 14.2235 5.60277C13.5893 5.35121 12.9407 5.24997 12.0001 5.24997C10.6066 5.24997 9.52581 5.57785 8.81496 6.09267C8.1266 6.59121 7.75004 7.28514 7.75004 8.16337C7.75004 9.25806 8.29097 9.9133 9.11639 10.3754C9.9892 10.8639 11.1186 11.0927 12.1234 11.2602C13.1186 11.4261 14.4892 11.6848 15.6164 12.3157C16.791 12.9732 17.7501 14.0696 17.7501 15.8366C17.7501 17.2155 17.1266 18.3533 16.065 19.1222C15.1907 19.7553 14.0475 20.1214 12.7501 20.2216V22C12.7501 22.4142 12.4143 22.75 12.0001 22.75C11.5858 22.75 11.2501 22.4142 11.2501 22V20.2272C10.5194 20.1792 9.87551 20.0501 9.22351 19.7915C8.37529 19.455 7.55901 18.9168 6.54729 18.1507C6.21706 17.9007 6.15207 17.4303 6.40212 17.1001C6.65217 16.7698 7.12257 16.7048 7.4528 16.9549C8.44108 17.7032 9.1248 18.1386 9.77658 18.3972C10.4108 18.6487 11.0594 18.75 12.0001 18.75C13.3935 18.75 14.4743 18.4221 15.1851 17.9073C15.8735 17.4088 16.2501 16.7148 16.2501 15.8366C16.2501 14.7419 15.7091 14.0867 14.8837 13.6246C14.0109 13.136 12.8815 12.9072 11.8768 12.7398C10.8815 12.5739 9.51089 12.3152 8.3837 11.6842C7.20912 11.0267 6.25004 9.93032 6.25004 8.16337C6.25004 6.78445 6.87349 5.64668 7.93512 4.87781C8.80935 4.24466 9.9526 3.87859 11.2501 3.77833V2C11.2501 1.58579 11.5858 1.25 12.0001 1.25Z" fill="#000"/>
</svg>
