<svg width="24" height="24" viewBox="0 0 24 24" fill="none" xmlns="http://www.w3.org/2000/svg">
<path d="M19.4967 0.253174C19.9109 0.253174 20.2467 0.58896 20.2467 1.00317V5.8592L21.4664 4.63953C21.7593 4.34664 22.2341 4.34664 22.527 4.63953C22.8199 4.93242 22.8199 5.4073 22.527 5.70019L20.027 8.20019C19.7341 8.49308 19.2593 8.49308 18.9664 8.20019L16.4664 5.70019C16.1735 5.4073 16.1735 4.93242 16.4664 4.63953C16.7593 4.34664 17.2341 4.34664 17.527 4.63953L18.7467 5.8592V1.00317C18.7467 0.58896 19.0825 0.253174 19.4967 0.253174Z" fill="#000"/>
<path d="M12 2.24994C6.06294 2.24994 1.25 7.06288 1.25 12.9999C1.25 18.937 6.06294 23.7499 12 23.7499C17.9371 23.7499 22.75 18.937 22.75 12.9999C22.75 12.3159 22.686 11.6462 22.5635 10.9965C22.4868 10.5895 22.0946 10.3218 21.6875 10.3985C21.2805 10.4753 21.0127 10.8675 21.0895 11.2745C21.1948 11.833 21.25 12.4097 21.25 12.9999C21.25 18.1086 17.1086 22.2499 12 22.2499C6.89137 22.2499 2.75 18.1086 2.75 12.9999C2.75 7.8913 6.89137 3.74994 12 3.74994C12.5903 3.74994 13.167 3.80514 13.7254 3.91045C14.1325 3.9872 14.5247 3.71946 14.6014 3.31242C14.6782 2.90538 14.4104 2.51318 14.0034 2.43642C13.3538 2.31392 12.684 2.24994 12 2.24994Z" fill="#000"/>
<path d="M12.75 8.83329C12.75 8.41907 12.4142 8.08328 12 8.08328C11.5858 8.08328 11.25 8.41907 11.25 8.83329V9.18971C10.8038 9.27066 10.3928 9.42955 10.0497 9.67804C9.49845 10.0772 9.16667 10.6808 9.16667 11.4014C9.16667 12.3337 9.68824 12.9192 10.2795 13.2501C10.8233 13.5546 11.4648 13.6711 11.8767 13.7397C12.2981 13.81 12.6984 13.8966 12.9878 14.0586C13.2299 14.1941 13.3333 14.3385 13.3333 14.5985C13.3333 14.8184 13.2485 14.9781 13.0705 15.107C12.8701 15.2521 12.5185 15.3749 12 15.3749C11.6427 15.3749 11.4316 15.3368 11.2349 15.2587C11.0206 15.1738 10.7744 15.0223 10.3694 14.7157C10.0392 14.4656 9.56879 14.5306 9.31874 14.8609C9.06869 15.1911 9.13369 15.6615 9.46391 15.9115C9.8923 16.2359 10.2711 16.4901 10.6818 16.6531C10.8718 16.7284 11.059 16.7806 11.25 16.8153V17.1666C11.25 17.5808 11.5858 17.9166 12 17.9166C12.4142 17.9166 12.75 17.5808 12.75 17.1666V16.8102C13.1962 16.7292 13.6072 16.5703 13.9503 16.3218C14.5016 15.9226 14.8333 15.3191 14.8333 14.5985C14.8333 13.6662 14.3118 13.0807 13.7205 12.7497C13.1767 12.4453 12.5352 12.3288 12.1233 12.2601C11.7019 12.1899 11.3017 12.1033 11.0122 11.9412C10.7701 11.8057 10.6667 11.6614 10.6667 11.4014C10.6667 11.1815 10.7516 11.0218 10.9295 10.8929C11.1299 10.7477 11.4815 10.6249 12 10.6249C12.3573 10.6249 12.5684 10.6631 12.7652 10.7411C12.9794 10.8261 13.2256 10.9775 13.6306 11.2841C13.9608 11.5342 14.4312 11.4692 14.6813 11.139C14.9313 10.8087 14.8663 10.3383 14.5361 10.0883C14.1077 9.76391 13.7289 9.50969 13.3182 9.34678C13.1282 9.27143 12.941 9.21927 12.75 9.18456V8.83329Z" fill="#000"/>
</svg>
