<svg width="24" height="24" viewBox="0 0 24 24" fill="none" xmlns="http://www.w3.org/2000/svg">
<path d="M2.93499 10.1492C3.79197 5.92737 7.52574 2.75 11.9999 2.75C16.2794 2.75 19.8818 5.65682 20.937 9.60483C20.9809 9.91622 21.2192 10.1785 21.5456 10.2379C21.5875 10.2455 21.6293 10.2495 21.6705 10.2501C21.7369 10.2513 21.8045 10.2437 21.8718 10.2263C22.1945 10.1433 22.4138 9.86253 22.4336 9.54711L23.2369 5.13431C23.3111 4.72679 23.0408 4.3363 22.6333 4.26212C22.2258 4.18794 21.8353 4.45816 21.7611 4.86568L21.4094 6.79788C19.5767 3.48981 16.0505 1.25 11.9999 1.25C6.79831 1.25 2.46106 4.94367 1.46497 9.8508C1.38257 10.2567 1.64484 10.6526 2.05078 10.735C2.45671 10.8174 2.85259 10.5551 2.93499 10.1492Z" fill="#000"/>
<path d="M22.5349 14.1492C22.6173 13.7433 22.355 13.3474 21.9491 13.265C21.5432 13.1826 21.1473 13.4449 21.0649 13.8508C20.2079 18.0726 16.4741 21.25 11.9999 21.25C7.7201 21.25 4.11743 18.3427 3.06259 14.3942C3.01834 14.0833 2.78027 13.8216 2.45434 13.7622C2.41252 13.7545 2.37087 13.7505 2.32973 13.75C2.26328 13.7487 2.19555 13.7563 2.12804 13.7737C1.8058 13.8566 1.58659 14.1368 1.56634 14.4517L0.762036 18.8656C0.68778 19.2731 0.95793 19.6636 1.36543 19.7379C1.77294 19.8121 2.16348 19.542 2.23774 19.1345L2.59 17.2013C4.42259 20.5098 7.94903 22.75 11.9999 22.75C17.2016 22.75 21.5388 19.0563 22.5349 14.1492Z" fill="#000"/>
<path d="M12.7499 7C12.7499 6.58579 12.4141 6.25 11.9999 6.25C11.5857 6.25 11.2499 6.58579 11.2499 7V7.55475C10.6845 7.64081 10.1688 7.83007 9.7475 8.13519C9.12337 8.58721 8.74992 9.26705 8.74992 10.0817C8.74992 11.1332 9.334 11.7917 10.0086 12.1693C10.6358 12.5204 11.3814 12.6572 11.8766 12.7398C12.3814 12.8239 12.8858 12.9308 13.2586 13.1395C13.584 13.3217 13.7499 13.539 13.7499 13.9183C13.7499 14.2322 13.6234 14.4682 13.3725 14.6499C13.0992 14.8479 12.6434 15 11.9999 15C11.5593 15 11.2857 14.9528 11.0264 14.85C10.7497 14.7402 10.441 14.5482 9.95267 14.1785C9.62245 13.9284 9.15204 13.9934 8.902 14.3236C8.65195 14.6539 8.71694 15.1243 9.04716 15.3743C9.55889 15.7618 10.0002 16.0566 10.4734 16.2443C10.7315 16.3467 10.9856 16.4121 11.2499 16.4511V17C11.2499 17.4142 11.5857 17.75 11.9999 17.75C12.4141 17.75 12.7499 17.4142 12.7499 17V16.4452C13.3153 16.3592 13.831 16.1699 14.2523 15.8648C14.8765 15.4128 15.2499 14.7329 15.2499 13.9183C15.2499 12.8667 14.6658 12.2083 13.9913 11.8306C13.3641 11.4795 12.6185 11.3427 12.1232 11.2602C11.6185 11.1761 11.1141 11.0691 10.7413 10.8604C10.4158 10.6783 10.2499 10.461 10.2499 10.0817C10.2499 9.76774 10.3765 9.53173 10.6273 9.35005C10.9007 9.15208 11.3564 8.99998 11.9999 8.99998C12.4405 8.99998 12.7142 9.04714 12.9734 9.14996C13.2502 9.25974 13.5589 9.45172 14.0472 9.82145C14.3774 10.0715 14.8478 10.0065 15.0979 9.67627C15.3479 9.34605 15.2829 8.87564 14.9527 8.62559C14.4409 8.23811 13.9997 7.94332 13.5264 7.75563C13.2683 7.65327 13.0142 7.58786 12.7499 7.54886V7Z" fill="#000"/>
</svg>
