<svg width="24" height="24" viewBox="0 0 24 24" fill="none" xmlns="http://www.w3.org/2000/svg">
<path d="M11.25 13.1893L11.25 2C11.25 1.58579 11.5858 1.25 12 1.25C12.4142 1.25 12.75 1.58579 12.75 2L12.75 13.1893L16.4697 9.46967C16.7626 9.17678 17.2374 9.17678 17.5303 9.46967C17.8232 9.76256 17.8232 10.2374 17.5303 10.5303L12.5303 15.5303C12.3897 15.671 12.1989 15.75 12 15.75C11.8011 15.75 11.6103 15.671 11.4697 15.5303L6.46967 10.5303C6.17678 10.2374 6.17678 9.76256 6.46967 9.46967C6.76256 9.17678 7.23744 9.17678 7.53033 9.46967L11.25 13.1893Z" fill="#000"/>
<path d="M21.2116 19.1093C21.2494 18.6467 21.25 18.0525 21.25 17.2V14C21.25 13.5858 21.5858 13.25 22 13.25C22.4142 13.25 22.75 13.5858 22.75 14V17.2321C22.75 18.0449 22.75 18.7006 22.7066 19.2315C22.662 19.7781 22.5676 20.2582 22.3413 20.7025C21.9817 21.4081 21.4081 21.9818 20.7025 22.3413C20.2582 22.5676 19.7781 22.662 19.2315 22.7066C18.7006 22.75 18.045 22.75 17.2321 22.75H6.76788C5.95505 22.75 5.29944 22.75 4.76853 22.7066C4.2219 22.662 3.74175 22.5676 3.29753 22.3413C2.59193 21.9817 2.01825 21.4081 1.65873 20.7025C1.43238 20.2582 1.33803 19.7781 1.29336 19.2315C1.24999 18.7006 1.24999 18.045 1.25 17.2321V14C1.25 13.5858 1.58579 13.25 2 13.25C2.41421 13.25 2.75 13.5858 2.75 14L2.75 17.2C2.75 18.0525 2.75058 18.6467 2.78838 19.1093C2.82546 19.5632 2.8946 19.824 2.99524 20.0215C3.21095 20.4448 3.55516 20.789 3.97852 21.0048C4.17604 21.1054 4.4368 21.1745 4.89068 21.2116C5.35331 21.2494 5.94755 21.25 6.8 21.25H17.2C18.0525 21.25 18.6467 21.2494 19.1093 21.2116C19.5632 21.1745 19.824 21.1054 20.0215 21.0048C20.4448 20.7891 20.789 20.4448 21.0048 20.0215C21.1054 19.824 21.1745 19.5632 21.2116 19.1093Z" fill="#000"/>
</svg>
