<svg width="24" height="24" viewBox="0 0 24 24" fill="none" xmlns="http://www.w3.org/2000/svg">
<path fill-rule="evenodd" clip-rule="evenodd" d="M11.1132 1.62054C11.6019 1.12649 12.3981 1.12645 12.8869 1.62062C14.7997 3.55464 16.6323 5.56326 17.9869 7.67623C19.3439 9.79302 20.25 12.0585 20.25 14.5C20.25 18.7812 16.9525 22.75 12 22.75C7.04746 22.75 3.75 18.7812 3.75 14.5C3.75 12.0586 4.6558 9.79308 6.01273 7.67625C7.3672 5.56325 9.19981 3.55461 11.1132 1.62054ZM12 2.85747C10.1725 4.71475 8.50151 6.57322 7.27555 8.48575C6.01199 10.4569 5.25 12.4414 5.25 14.5C5.25 18.0316 7.95254 21.25 12 21.25C16.0475 21.25 18.75 18.0316 18.75 14.5C18.75 12.4415 17.9878 10.457 16.7241 8.48578C15.498 6.57324 13.827 4.71477 12 2.85747Z" fill="#000"/>
</svg>
