<svg width="24" height="24" viewBox="0 0 24 24" fill="none" xmlns="http://www.w3.org/2000/svg">
<path fill-rule="evenodd" clip-rule="evenodd" d="M4.25 6.25C4.25 5.14543 5.14543 4.25 6.25 4.25H7.75C8.85457 4.25 9.75 5.14543 9.75 6.25V11.25H14.25V6.25C14.25 5.14543 15.1454 4.25 16.25 4.25H17.75C18.8546 4.25 19.75 5.14543 19.75 6.25V6.75H20.75C21.8546 6.75 22.75 7.64543 22.75 8.75V11.25H23C23.4142 11.25 23.75 11.5858 23.75 12C23.75 12.4142 23.4142 12.75 23 12.75H22.75V15.25C22.75 16.3546 21.8546 17.25 20.75 17.25H19.75V17.75C19.75 18.8546 18.8546 19.75 17.75 19.75H16.25C15.1454 19.75 14.25 18.8546 14.25 17.75V12.75H9.75V17.75C9.75 18.8546 8.85457 19.75 7.75 19.75H6.25C5.14543 19.75 4.25 18.8546 4.25 17.75V17.25H3.25C2.14543 17.25 1.25 16.3546 1.25 15.25V12.75H1C0.585786 12.75 0.25 12.4142 0.25 12C0.25 11.5858 0.585786 11.25 1 11.25H1.25V8.75C1.25 7.64543 2.14543 6.75 3.25 6.75H4.25V6.25ZM18.25 6.25C18.25 5.97386 18.0261 5.75 17.75 5.75H16.25C15.9739 5.75 15.75 5.97386 15.75 6.25V17.75C15.75 18.0261 15.9739 18.25 16.25 18.25H17.75C18.0261 18.25 18.25 18.0261 18.25 17.75V6.25ZM19.75 15.75H20.75C21.0261 15.75 21.25 15.5261 21.25 15.25V8.75C21.25 8.47386 21.0261 8.25 20.75 8.25H19.75V15.75ZM3.25 8.25H4.25V15.75H3.25C2.97386 15.75 2.75 15.5261 2.75 15.25V8.75C2.75 8.47386 2.97386 8.25 3.25 8.25ZM5.75 17.75V6.25C5.75 5.97386 5.97386 5.75 6.25 5.75H7.75C8.02614 5.75 8.25 5.97386 8.25 6.25V17.75C8.25 18.0261 8.02614 18.25 7.75 18.25H6.25C5.97386 18.25 5.75 18.0261 5.75 17.75Z" fill="#000"/>
</svg>
