<svg width="24" height="24" viewBox="0 0 24 24" fill="none" xmlns="http://www.w3.org/2000/svg">
<path fill-rule="evenodd" clip-rule="evenodd" d="M6.66767 3C5.78504 2.99999 5.07696 2.99999 4.50438 3.04677C3.91605 3.09484 3.40504 3.19601 2.93408 3.43597C2.18143 3.81947 1.56951 4.43139 1.18602 5.18404C0.86574 5.81262 0.797222 6.52642 0.769302 7.22127C0.742346 7.7037 0.750038 8.26094 0.750043 8.91762V15.0824C0.750036 15.965 0.75003 16.6731 0.796812 17.2457C0.84488 17.834 0.946052 18.345 1.18602 18.816C1.56951 19.5686 2.18143 20.1805 2.93408 20.564C3.40504 20.804 3.91605 20.9052 4.50438 20.9532C5.07696 21 5.78503 21 6.66765 21H17.3324C18.2151 21 18.9231 21 19.4957 20.9532C20.084 20.9052 20.595 20.804 21.066 20.564C21.8187 20.1805 22.4306 19.5686 22.8141 18.816C23.054 18.345 23.1552 17.834 23.2033 17.2457C23.2501 16.6731 23.25 15.965 23.25 15.0824V8.91761C23.2501 7.7011 23.3827 6.29995 22.8141 5.18404C22.4306 4.43139 21.8187 3.81947 21.066 3.43597C20.595 3.19601 20.084 3.09484 19.4957 3.04677C18.9231 2.99999 18.215 2.99999 17.3324 3H6.66767ZM21.7108 6.90845C21.71 6.89773 21.7091 6.88707 21.7083 6.87648C21.6678 6.38092 21.5918 6.08928 21.4776 5.86502C21.2379 5.39462 20.8554 5.01217 20.385 4.77248C20.1608 4.65822 19.8691 4.58228 19.3736 4.54179C18.8692 4.50058 18.2225 4.5 17.3 4.5H6.70004C5.77758 4.5 5.13084 4.50058 4.62652 4.54179C4.13096 4.58228 3.83932 4.65822 3.61507 4.77248C3.14466 5.01217 2.76221 5.39462 2.52253 5.86502C2.40826 6.08928 2.33232 6.38092 2.29183 6.87648C2.29097 6.88707 2.29012 6.89772 2.28929 6.90843L10.5153 13.1758C11.2639 13.7462 11.4742 13.8891 11.6782 13.9435C11.8891 13.9997 12.111 13.9997 12.3219 13.9435C12.526 13.8891 12.7362 13.7462 13.4849 13.1758L21.7108 6.90845ZM2.25006 8.76431C2.25005 8.82494 2.25004 8.88683 2.25004 8.95V15.05C2.25004 15.9725 2.25063 16.6192 2.29183 17.1235C2.33232 17.6191 2.40826 17.9107 2.52253 18.135C2.76221 18.6054 3.14466 18.9878 3.61507 19.2275C3.83932 19.3418 4.13096 19.4177 4.62652 19.4582C5.13084 19.4994 5.77758 19.5 6.70004 19.5H17.3C18.2225 19.5 18.8692 19.4994 19.3736 19.4582C19.8691 19.4177 20.1608 19.3418 20.385 19.2275C20.8554 18.9878 21.2379 18.6054 21.4776 18.135C21.5918 17.9107 21.6678 17.6191 21.7083 17.1235C21.7495 16.6192 21.75 15.9725 21.75 15.05V8.95C21.75 8.88683 21.75 8.82496 21.75 8.76433L14.2875 14.4502C13.6987 14.8997 13.2374 15.2519 12.7082 15.3929C12.2442 15.5165 11.7559 15.5165 11.292 15.3929C10.7628 15.2519 10.3015 14.8997 9.71262 14.4502L2.25006 8.76431Z" fill="#000"/>
</svg>
