<svg width="24" height="24" viewBox="0 0 24 24" fill="none" xmlns="http://www.w3.org/2000/svg">
<path fill-rule="evenodd" clip-rule="evenodd" d="M0.838016 9.8957C0.85778 9.79057 0.881972 9.68825 0.911581 9.58724C1.05463 9.09929 1.2894 8.64308 1.60332 8.24306C1.95886 7.79002 2.4408 7.44599 3.15269 6.93783L9.80615 2.18529C10.3742 1.77872 10.8196 1.45996 11.3247 1.33201C11.7679 1.21974 12.2321 1.21974 12.6753 1.33201C13.1805 1.45996 13.6259 1.77872 14.1939 2.18529L20.8474 6.93783C21.5593 7.44599 22.0412 7.79002 22.3968 8.24306C22.7107 8.64308 22.9455 9.09929 23.0885 9.58724C23.1181 9.68824 23.1423 9.79055 23.1621 9.89567C23.1638 9.90369 23.1654 9.91175 23.1669 9.91986C23.1968 10.0839 23.2158 10.2568 23.2281 10.4438C23.2503 10.7783 23.2502 11.1548 23.2501 11.6067L23.25 16.8324C23.25 17.0949 23.25 17.3419 23.2488 17.5745C23.2485 17.6352 23.2481 17.695 23.2476 17.7538C23.2454 18.0096 23.2411 18.2472 23.2331 18.4681C23.2263 18.6557 23.2167 18.8313 23.2033 18.9957C23.2006 19.0285 23.1978 19.0609 23.1948 19.0929C23.1842 19.2057 23.1715 19.3156 23.1559 19.423C23.096 19.8369 22.9942 20.2126 22.8141 20.5662C22.4306 21.3188 21.8187 21.9307 21.066 22.3142C20.595 22.5542 20.084 22.6554 19.4957 22.7034C18.9232 22.7502 18.2151 22.7502 17.3326 22.7502H6.6677C5.78514 22.7502 5.07693 22.7502 4.50438 22.7034C3.91605 22.6554 3.40504 22.5542 2.93408 22.3142C2.18143 21.9307 1.56951 21.3188 1.18602 20.5662C0.946052 20.0952 0.84488 19.5842 0.796812 18.9959C0.75003 18.4233 0.750035 17.7152 0.750042 16.8326L0.750021 11.6067C0.749873 11.1226 0.749752 10.725 0.777143 10.3728C0.789431 10.212 0.807276 10.0623 0.833186 9.91996C0.834666 9.91183 0.836277 9.90374 0.838016 9.8957ZM11.6931 2.78608C11.8945 2.73504 12.1055 2.73504 12.307 2.78608C12.502 2.83547 12.7033 2.96397 13.4241 3.47884L19.8866 8.09489C20.7205 8.69058 21.0108 8.90671 21.2167 9.1691C21.3605 9.35233 21.4778 9.55443 21.5653 9.76937L13.4848 15.926C12.7362 16.4964 12.5259 16.6393 12.3219 16.6936C12.111 16.7498 11.889 16.7498 11.6781 16.6936C11.4741 16.6393 11.2638 16.4964 10.5152 15.926L2.43474 9.76944C2.5223 9.55447 2.63953 9.35236 2.78334 9.1691C2.98926 8.90671 3.27958 8.69058 4.11353 8.09489L10.576 3.47884C11.2968 2.96397 11.4981 2.83547 11.6931 2.78608ZM2.25012 11.5574C2.25013 11.543 2.25015 11.5287 2.25017 11.5146L9.71253 17.2003C10.3014 17.6499 10.7627 18.002 11.2919 18.143C11.7559 18.2667 12.2441 18.2667 12.7081 18.143C13.2373 18.002 13.6986 17.6499 14.2875 17.2003L21.7499 11.5145C21.7499 11.5327 21.75 11.5511 21.75 11.5697V17.0743C21.7498 17.3017 21.7494 17.5111 21.7479 17.7049C21.7455 18.0119 21.7405 18.2789 21.7301 18.5155C21.7245 18.6428 21.7174 18.7617 21.7083 18.8735C21.6678 19.3691 21.5918 19.6607 21.4776 19.885C21.2379 20.3554 20.8554 20.7378 20.385 20.9775C20.1608 21.0918 19.8691 21.1677 19.3736 21.2082C18.8692 21.2494 18.2225 21.25 17.3 21.25H6.70004C5.77758 21.25 5.13084 21.2494 4.62652 21.2082C4.13096 21.1677 3.83932 21.0918 3.61507 20.9775C3.14466 20.7378 2.76221 20.3554 2.52253 19.885C2.40826 19.6607 2.33232 19.3691 2.29183 18.8735C2.28668 18.8105 2.28216 18.7452 2.27821 18.6775C2.25049 18.2032 2.25004 17.6073 2.25004 16.8002C2.25004 16.8001 2.25004 16.8003 2.25004 16.8002V11.716C2.25004 11.7155 2.25004 11.7149 2.25004 11.7144C2.25004 11.6602 2.25006 11.6079 2.25012 11.5574Z" fill="#000"/>
</svg>
