<svg width="24" height="24" viewBox="0 0 24 24" fill="none" xmlns="http://www.w3.org/2000/svg">
<path fill-rule="evenodd" clip-rule="evenodd" d="M6.16762 2.25H16.8324C17.715 2.24999 18.4231 2.24999 18.9957 2.29677C19.584 2.34484 20.095 2.44601 20.566 2.68597C21.3186 3.06947 21.9305 3.68139 22.314 4.43404C22.554 4.905 22.6552 5.41601 22.7032 6.00433C22.7151 6.15018 22.724 6.30482 22.7306 6.4689C22.7312 6.47862 22.7316 6.48834 22.7318 6.49806C22.75 6.97164 22.75 7.52308 22.75 8.16761V12.5814C22.75 12.9956 22.4142 13.3314 22 13.3314C21.5858 13.3314 21.25 12.9956 21.25 12.5814L21.25 8.01438L13.7875 13.7002C13.1986 14.1498 12.7374 14.5019 12.2081 14.6429C11.7442 14.7666 11.2559 14.7666 10.7919 14.6429C10.2627 14.5019 9.80145 14.1498 9.21257 13.7002L1.75002 8.01434L1.75 14.3C1.75 15.2225 1.75058 15.8692 1.79179 16.3735C1.83228 16.8691 1.90822 17.1607 2.02248 17.385C2.26217 17.8554 2.64462 18.2378 3.11502 18.4775C3.33928 18.5918 3.63092 18.6677 4.12648 18.7082C4.6308 18.7494 5.27754 18.75 6.2 18.75H12.8C13.2142 18.75 13.55 19.0858 13.55 19.5C13.55 19.9142 13.2142 20.25 12.8 20.25H6.16761C5.28499 20.25 4.57691 20.25 4.00433 20.2032C3.41601 20.1552 2.905 20.054 2.43404 19.814C1.68139 19.4305 1.06947 18.8186 0.685975 18.066C0.44601 17.595 0.344838 17.084 0.29677 16.4957C0.249988 15.9231 0.249994 15.215 0.25 14.3324V8.16762C0.249995 7.52186 0.249991 6.96953 0.268311 6.49534C0.268496 6.48756 0.268803 6.47978 0.26923 6.47201C0.275861 6.30677 0.284779 6.1511 0.29677 6.00433C0.344838 5.41601 0.44601 4.905 0.685975 4.43404C1.06947 3.68139 1.68139 3.06947 2.43404 2.68597C2.905 2.44601 3.41601 2.34484 4.00433 2.29677C4.57692 2.24999 5.285 2.24999 6.16762 2.25ZM21.2082 6.12648L21.2108 6.15849L12.9848 12.4259C12.2362 12.9963 12.0259 13.1392 11.8219 13.1935C11.611 13.2497 11.3891 13.2497 11.1782 13.1935C10.9741 13.1392 10.7639 12.9963 10.0152 12.4259L1.78924 6.15846L1.79179 6.12648C1.83228 5.63092 1.90822 5.33928 2.02248 5.11502C2.26217 4.64462 2.64462 4.26217 3.11502 4.02248C3.33928 3.90822 3.63092 3.83228 4.12648 3.79179C4.6308 3.75058 5.27754 3.75 6.2 3.75H16.8C17.7225 3.75 18.3692 3.75058 18.8735 3.79179C19.3691 3.83228 19.6607 3.90822 19.885 4.02248C20.3554 4.26217 20.7378 4.64462 20.9775 5.11502C21.0918 5.33928 21.1677 5.63092 21.2082 6.12648Z" fill="#000"/>
<path d="M23.5303 17.0303C23.8232 16.7374 23.8232 16.2626 23.5303 15.9697C23.2374 15.6768 22.7626 15.6768 22.4697 15.9697L18.5 19.9393L16.5303 17.9697C16.2374 17.6768 15.7626 17.6768 15.4697 17.9697C15.1768 18.2626 15.1768 18.7374 15.4697 19.0303L17.9697 21.5303C18.2626 21.8232 18.7374 21.8232 19.0303 21.5303L23.5303 17.0303Z" fill="#000"/>
</svg>
