<svg width="24" height="24" viewBox="0 0 24 24" fill="none" xmlns="http://www.w3.org/2000/svg">
<path fill-rule="evenodd" clip-rule="evenodd" d="M9.52794 2.25C8.75696 2.24999 8.13282 2.24999 7.62691 2.29132C7.10529 2.33394 6.64367 2.42421 6.2155 2.64238C5.53811 2.98752 4.98738 3.53825 4.64224 4.21563C4.37827 4.7337 4.29953 5.30664 4.26931 5.9809C4.26905 5.98661 4.26886 5.99231 4.26874 5.998C4.24999 6.42998 4.24999 6.93568 4.25 7.52808V12.4719C4.24999 13.2429 4.24999 13.867 4.29132 14.3729C4.33394 14.8946 4.42421 15.3562 4.64238 15.7844C4.98752 16.4617 5.53825 17.0125 6.21563 17.3576C6.64381 17.5758 7.10543 17.6661 7.62705 17.7087C8.13295 17.75 8.75707 17.75 9.52803 17.75H18.4719C19.2429 17.75 19.8671 17.75 20.3729 17.7087C20.8946 17.6661 21.3562 17.5758 21.7844 17.3576C22.4618 17.0125 23.0125 16.4617 23.3576 15.7844C23.5758 15.3562 23.6661 14.8946 23.7087 14.3729C23.75 13.8671 23.75 13.243 23.75 12.472V7.52806C23.75 6.75712 23.75 6.13293 23.7087 5.62705C23.6661 5.10543 23.5758 4.64381 23.3576 4.21563C23.0125 3.53825 22.4618 2.98752 21.7844 2.64238C21.3562 2.42421 20.8946 2.33394 20.3729 2.29132C19.9302 2.25515 19.3969 2.25064 18.7539 2.25008C18.6621 2.25 18.5682 2.25 18.4719 2.25C18.4719 2.25 18.472 2.25 18.4719 2.25H9.52794ZM20.3291 3.79326C20.3037 3.79084 20.2776 3.78853 20.2508 3.78634C20.2508 3.78634 20.2508 3.78634 20.2508 3.78634C20.1961 3.78187 20.1394 3.77795 20.0806 3.77451C19.6686 3.75045 19.1491 3.75 18.44 3.75C18.44 3.75 18.44 3.75 18.44 3.75H9.56M20.3291 3.79326C20.7096 3.82962 20.9331 3.89221 21.1032 3.97889C21.4984 4.18022 21.8196 4.50148 22.021 4.89662C22.1082 5.06789 22.1693 5.28881 22.2056 5.662L15.4844 10.783C14.7357 11.3534 14.5255 11.4963 14.3214 11.5506C14.1105 11.6068 13.8886 11.6068 13.6777 11.5506C13.4737 11.4963 13.2634 11.3534 12.5148 10.783L5.79408 5.66247C5.83055 5.28697 5.89285 5.06549 5.97889 4.89662C6.18022 4.50148 6.50148 4.18022 6.89662 3.97889C7.07809 3.88642 7.32034 3.82138 7.7492 3.78634C7.89968 3.77404 8.06495 3.76591 8.25 3.76052C8.56947 3.75123 8.94789 3.75014 9.41091 3.75002M5.75 7.51466L11.6065 11.9767L11.7121 12.0573C12.301 12.5069 12.7622 12.859 13.2914 13.0001C13.7554 13.1237 14.2437 13.1237 14.7077 13.0001C15.2369 12.859 15.6981 12.5069 16.287 12.0573L22.25 7.51397C22.25 7.52922 22.25 7.54457 22.25 7.56V12.44C22.25 13.2505 22.2494 13.8132 22.2137 14.2508C22.1786 14.6797 22.1136 14.9219 22.0211 15.1034C21.8198 15.4985 21.4985 15.8198 21.1034 16.0211C20.9219 16.1136 20.6797 16.1786 20.2508 16.2137C19.8132 16.2494 19.2505 16.25 18.44 16.25H9.56C8.74955 16.25 8.18682 16.2494 7.7492 16.2137C7.32034 16.1786 7.07809 16.1136 6.89662 16.0211C6.50148 15.8198 6.18022 15.4985 5.97889 15.1034C5.88642 14.9219 5.82138 14.6797 5.78634 14.2508C5.75058 13.8132 5.75 13.2505 5.75 12.44V7.56C5.75 7.5448 5.75 7.52969 5.75 7.51466Z" fill="#000"/>
<path d="M1 6.25C1.41421 6.25 1.75 6.58579 1.75 7V14.6C1.75 15.7325 1.75058 16.5367 1.80201 17.1661C1.85271 17.7867 1.94909 18.171 2.10423 18.4755C2.41582 19.087 2.913 19.5842 3.52453 19.8958C3.829 20.0509 4.21325 20.1473 4.83388 20.198C5.46327 20.2494 6.26752 20.25 7.4 20.25H19C19.4142 20.25 19.75 20.5858 19.75 21C19.75 21.4142 19.4142 21.75 19 21.75H7.36698C6.27488 21.75 5.40934 21.75 4.71173 21.693C3.99834 21.6347 3.39472 21.5131 2.84355 21.2323C1.94978 20.7769 1.22312 20.0502 0.767719 19.1565C0.486882 18.6053 0.365274 18.0017 0.306988 17.2883C0.24999 16.5906 0.249995 15.7251 0.25 14.633V7C0.25 6.58579 0.585787 6.25 1 6.25Z" fill="#000"/>
</svg>
