<svg width="24" height="24" viewBox="0 0 24 24" fill="none" xmlns="http://www.w3.org/2000/svg">
<path d="M23.75 18C23.75 18.4142 23.4142 18.75 23 18.75H17.8107L19.5303 20.4697C19.8232 20.7626 19.8232 21.2374 19.5303 21.5303C19.2374 21.8232 18.7626 21.8232 18.4697 21.5303L15.4697 18.5303C15.329 18.3897 15.25 18.1989 15.25 18C15.25 17.8011 15.329 17.6103 15.4697 17.4697L18.4697 14.4697C18.7626 14.1768 19.2374 14.1768 19.5303 14.4697C19.8232 14.7626 19.8232 15.2374 19.5303 15.5303L17.8107 17.25H23C23.4142 17.25 23.75 17.5858 23.75 18Z" fill="#000"/>
<path fill-rule="evenodd" clip-rule="evenodd" d="M16.8324 2.25L6.16763 2.25C5.28502 2.24999 4.57691 2.24999 4.00433 2.29677C3.41601 2.34484 2.905 2.44601 2.43404 2.68598C1.68139 3.06947 1.06947 3.68139 0.685975 4.43404C0.446009 4.905 0.344838 5.41601 0.296771 6.00433C0.284781 6.15108 0.275864 6.30673 0.269234 6.47193L0.268685 6.48357L0.268309 6.49542C0.249993 6.96955 0.249997 7.52179 0.25 8.16744L0.25 14.3324C0.249994 15.215 0.249991 15.9231 0.29677 16.4957C0.344839 17.084 0.446011 17.595 0.685974 18.066C1.06947 18.8186 1.68139 19.4305 2.43404 19.814C2.905 20.054 3.41601 20.1552 4.00433 20.2032C4.57692 20.25 5.28499 20.25 6.16761 20.25H12.8171C13.2313 20.25 13.5671 19.9142 13.5671 19.5C13.5671 19.0858 13.2313 18.75 12.8171 18.75H6.2C5.27754 18.75 4.6308 18.7494 4.12648 18.7082C3.63092 18.6677 3.33928 18.5918 3.11502 18.4775C2.64462 18.2378 2.26217 17.8554 2.02248 17.385C1.90822 17.1607 1.83228 16.8691 1.79179 16.3735C1.75058 15.8692 1.75 15.2225 1.75 14.3L1.75002 8.01434L9.21257 13.7002C9.80145 14.1498 10.2627 14.5019 10.7919 14.6429C11.2559 14.7666 11.7442 14.7666 12.2081 14.6429C12.7374 14.5019 13.1986 14.1498 13.7875 13.7002L21.25 8.01438L21.25 12.0814C21.25 12.4956 21.5858 12.8314 22 12.8314C22.4142 12.8314 22.75 12.4956 22.75 12.0814V8.16761C22.75 7.52308 22.75 6.97163 22.7318 6.49805C22.7316 6.48847 22.7312 6.47888 22.7307 6.4693C22.724 6.30507 22.7152 6.1503 22.7032 6.00433C22.6552 5.41601 22.554 4.905 22.314 4.43404C21.9305 3.68139 21.3186 3.06947 20.566 2.68598C20.095 2.44601 19.584 2.34484 18.9957 2.29677C18.4231 2.24999 17.715 2.24999 16.8324 2.25ZM21.2108 6.15849L21.2082 6.12648C21.1677 5.63092 21.0918 5.33928 20.9775 5.11502C20.7378 4.64462 20.3554 4.26217 19.885 4.02248C19.6607 3.90822 19.3691 3.83228 18.8735 3.79179C18.3692 3.75058 17.7225 3.75 16.8 3.75H6.2C5.27754 3.75 4.6308 3.75058 4.12648 3.79179C3.63092 3.83228 3.33928 3.90822 3.11503 4.02248C2.64462 4.26217 2.26217 4.64462 2.02248 5.11502C1.90822 5.33928 1.83228 5.63092 1.79179 6.12648L1.78924 6.15846L10.0152 12.4259C10.7639 12.9963 10.9741 13.1392 11.1782 13.1935C11.3891 13.2497 11.611 13.2497 11.8219 13.1935C12.0259 13.1392 12.2362 12.9963 12.9848 12.4259L21.2108 6.15849Z" fill="#000"/>
</svg>
