<svg width="24" height="24" viewBox="0 0 24 24" fill="none" xmlns="http://www.w3.org/2000/svg">
<path fill-rule="evenodd" clip-rule="evenodd" d="M16.8324 2.25L6.16762 2.25C5.285 2.24999 4.57692 2.24999 4.00433 2.29677C3.41601 2.34484 2.905 2.44601 2.43404 2.68597C1.68139 3.06947 1.06947 3.68139 0.685975 4.43404C0.44601 4.905 0.344838 5.41601 0.29677 6.00433C0.284825 6.15053 0.27593 6.30557 0.269307 6.47009C0.268787 6.47914 0.26843 6.48819 0.268238 6.49725C0.249991 6.97101 0.249995 7.52272 0.25 8.16761L0.25 14.3324C0.249994 15.215 0.249988 15.9231 0.29677 16.4957C0.344838 17.084 0.44601 17.595 0.685975 18.066C1.06947 18.8186 1.68139 19.4305 2.43404 19.814C2.905 20.054 3.41601 20.1552 4.00433 20.2032C4.57691 20.25 5.28499 20.25 6.16761 20.25H12.8171C13.2313 20.25 13.5671 19.9142 13.5671 19.5C13.5671 19.0858 13.2313 18.75 12.8171 18.75H6.2C5.27754 18.75 4.6308 18.7494 4.12648 18.7082C3.63092 18.6677 3.33928 18.5918 3.11502 18.4775C2.64462 18.2378 2.26217 17.8554 2.02248 17.385C1.90822 17.1607 1.83228 16.8691 1.79179 16.3735C1.75058 15.8692 1.75 15.2225 1.75 14.3L1.75002 8.01437L9.21254 13.7002C9.80141 14.1498 10.2627 14.5019 10.7919 14.6429C11.2559 14.7666 11.7441 14.7666 12.2081 14.6429C12.7373 14.5019 13.1986 14.1498 13.7875 13.7002L21.25 8.01436L21.25 12.0814C21.25 12.4956 21.5858 12.8314 22 12.8314C22.4142 12.8314 22.75 12.4956 22.75 12.0814V8.16761C22.75 7.52227 22.75 6.97025 22.7317 6.49627C22.7315 6.48787 22.7312 6.47947 22.7307 6.47107C22.7241 6.30619 22.7152 6.15083 22.7032 6.00433C22.6552 5.41601 22.554 4.905 22.314 4.43404C21.9305 3.68139 21.3186 3.06947 20.566 2.68597C20.095 2.44601 19.584 2.34484 18.9957 2.29677C18.4231 2.24999 17.715 2.24999 16.8324 2.25ZM21.2108 6.15847L21.2082 6.12648C21.1677 5.63092 21.0918 5.33928 20.9775 5.11502C20.7378 4.64462 20.3554 4.26217 19.885 4.02248C19.6607 3.90822 19.3691 3.83228 18.8735 3.79179C18.3692 3.75058 17.7225 3.75 16.8 3.75L6.2 3.75C5.27754 3.75 4.6308 3.75058 4.12648 3.79179C3.63092 3.83228 3.33928 3.90822 3.11502 4.02248C2.64462 4.26217 2.26217 4.64462 2.02248 5.11502C1.90822 5.33928 1.83228 5.63092 1.79179 6.12648L1.78924 6.15848L10.0152 12.4259C10.7638 12.9963 10.9741 13.1392 11.1781 13.1935C11.389 13.2497 11.611 13.2497 11.8219 13.1935C12.0259 13.1392 12.2362 12.9963 12.9848 12.4259L21.2108 6.15847Z" fill="#000"/>
<path d="M15.25 18C15.25 17.5858 15.5858 17.25 16 17.25H21.1893L19.4697 15.5303C19.1768 15.2374 19.1768 14.7626 19.4697 14.4697C19.7626 14.1768 20.2374 14.1768 20.5303 14.4697L23.5303 17.4697C23.671 17.6103 23.75 17.8011 23.75 18C23.75 18.1989 23.671 18.3897 23.5303 18.5303L20.5303 21.5303C20.2374 21.8232 19.7626 21.8232 19.4697 21.5303C19.1768 21.2374 19.1768 20.7626 19.4697 20.4697L21.1893 18.75H16C15.5858 18.75 15.25 18.4142 15.25 18Z" fill="#000"/>
</svg>
