<svg width="24" height="24" viewBox="0 0 24 24" fill="none" xmlns="http://www.w3.org/2000/svg">
<path fill-rule="evenodd" clip-rule="evenodd" d="M12.9298 6.50726L15.898 11.4266C16.2244 11.9677 16.2076 12.6489 15.8549 13.1732L12.9035 17.5597L12.895 17.5712C12.4602 18.1574 11.5246 18.2503 11.0793 17.5374L8.14332 13.1734C7.79045 12.649 7.77377 11.9674 8.10055 11.4263L11.0712 6.50726C11.2686 6.17315 11.6118 5.9583 12.0004 5.95825C12.389 5.9582 12.7323 6.17305 12.9298 6.50726ZM9.24603 11.9475L12.0004 7.3865L14.7523 11.9474L11.9991 13.5207L9.24603 11.9475ZM13.8621 13.8958L12.5572 14.6415C12.2114 14.8391 11.7868 14.8391 11.4409 14.6415L10.1358 13.8957L11.9989 16.6649L13.8621 13.8958Z" fill="#000"/>
<path fill-rule="evenodd" clip-rule="evenodd" d="M0.25 12C0.25 5.51065 5.51065 0.25 12 0.25C18.4893 0.25 23.75 5.51065 23.75 12C23.75 18.4893 18.4893 23.75 12 23.75C5.51065 23.75 0.25 18.4893 0.25 12ZM12 1.75C6.33908 1.75 1.75 6.33908 1.75 12C1.75 17.6609 6.33908 22.25 12 22.25C17.6609 22.25 22.25 17.6609 22.25 12C22.25 6.33908 17.6609 1.75 12 1.75Z" fill="#000"/>
</svg>
