<svg width="24" height="24" viewBox="0 0 24 24" fill="none" xmlns="http://www.w3.org/2000/svg">
<path fill-rule="evenodd" clip-rule="evenodd" d="M19.24 12.3792C19.2197 12.0306 19.1182 11.6851 18.9348 11.3723L13.5047 2.11188C12.8286 0.958799 11.1616 0.958804 10.4855 2.11188L5.05541 11.3723C4.62169 12.112 4.64608 13.0339 5.1183 13.7496L10.5344 21.9581C11.2261 23.0064 12.7641 23.0064 13.4558 21.9581L18.8719 13.7496C19.1005 13.4031 19.2241 13.0083 19.2417 12.6092C19.2528 12.5335 19.2525 12.4559 19.24 12.3792ZM12.2107 2.87061C12.1142 2.70589 11.876 2.70589 11.7794 2.87061L6.34936 12.1311C6.34773 12.1338 6.34612 12.1366 6.34453 12.1394L11.8686 15.5388C11.9489 15.5883 12.0503 15.5883 12.1306 15.5388L17.648 12.1436C17.6456 12.1394 17.6432 12.1352 17.6408 12.1311L12.2107 2.87061ZM16.5105 14.6048L12.9168 16.8163C12.8623 16.8498 12.8065 16.8801 12.7496 16.9071V20.3047L16.5105 14.6048ZM11.2496 16.9071C11.1927 16.8801 11.1369 16.8498 11.0824 16.8163L7.4735 14.5954L11.2496 20.3184V16.9071Z" fill="#000"/>
</svg>
