<svg width="24" height="24" viewBox="0 0 24 24" fill="none" xmlns="http://www.w3.org/2000/svg">
<path d="M13.4671 6.35671C12.4682 6.13417 11.4373 6.26225 10.5097 6.71701C9.58451 7.17056 8.81342 7.92304 8.27886 8.86159C8.11744 9.14499 7.97922 9.44238 7.86491 9.75001H6.5C6.08579 9.75001 5.75 10.0858 5.75 10.5C5.75 10.9142 6.08579 11.25 6.5 11.25H7.50726C7.47876 11.4981 7.46435 11.7486 7.46435 12C7.46435 12.2514 7.47876 12.502 7.50726 12.75H6.5C6.08579 12.75 5.75 13.0858 5.75 13.5C5.75 13.9142 6.08579 14.25 6.5 14.25H7.86491C7.97922 14.5576 8.11744 14.855 8.27886 15.1384C8.81342 16.077 9.58451 16.8295 10.5097 17.283C11.4373 17.7378 12.4682 17.8658 13.4671 17.6433C14.4641 17.4212 15.3648 16.8645 16.0639 16.0653C16.3367 15.7535 16.305 15.2797 15.9933 15.007C15.6815 14.7342 15.2077 14.7659 14.935 15.0776C14.4285 15.6565 13.8017 16.032 13.1409 16.1792C12.4819 16.326 11.7984 16.2442 11.17 15.9362C10.5391 15.6269 9.98182 15.0976 9.58227 14.3961C9.55488 14.348 9.52835 14.2993 9.50269 14.25H12.4994C12.9137 14.25 13.2494 13.9142 13.2494 13.5C13.2494 13.0858 12.9137 12.75 12.4994 12.75H9.0201C8.98324 12.5041 8.96435 12.2532 8.96435 12C8.96435 11.7468 8.98324 11.4959 9.0201 11.25H12.4994C12.9137 11.25 13.2494 10.9142 13.2494 10.5C13.2494 10.0858 12.9137 9.75001 12.4994 9.75001H9.50269C9.52835 9.70073 9.55488 9.65204 9.58227 9.60397C9.98182 8.90246 10.5391 8.37314 11.17 8.06387C11.7984 7.7558 12.4819 7.67399 13.1409 7.82082C13.8017 7.96804 14.4285 8.34352 14.935 8.9224C15.2077 9.23416 15.6815 9.2658 15.9933 8.99307C16.305 8.72034 16.3367 8.24652 16.0639 7.93476C15.3648 7.13555 14.4641 6.57885 13.4671 6.35671Z" fill="#000"/>
<path fill-rule="evenodd" clip-rule="evenodd" d="M12 0.25C5.51065 0.25 0.25 5.51065 0.25 12C0.25 18.4893 5.51065 23.75 12 23.75C18.4893 23.75 23.75 18.4893 23.75 12C23.75 5.51065 18.4893 0.25 12 0.25ZM1.75 12C1.75 6.33908 6.33908 1.75 12 1.75C17.6609 1.75 22.25 6.33908 22.25 12C22.25 17.6609 17.6609 22.25 12 22.25C6.33908 22.25 1.75 17.6609 1.75 12Z" fill="#000"/>
</svg>
