<svg width="24" height="24" viewBox="0 0 24 24" fill="none" xmlns="http://www.w3.org/2000/svg">
<path d="M11.3495 2.10744C13.0551 1.27127 14.9433 1.03825 16.771 1.44547C18.597 1.85229 20.2614 2.87507 21.5634 4.36334C21.8361 4.67509 21.8045 5.14891 21.4927 5.42164C21.1809 5.69437 20.7071 5.66273 20.4344 5.35098C19.3252 4.08305 17.9346 3.24148 16.4448 2.90957C14.9569 2.57806 13.4162 2.76482 12.0098 3.4543C10.6009 4.14498 9.37944 5.3152 8.51283 6.83673C8.25702 7.28585 8.03601 7.75889 7.85154 8.25001L14.9989 8.25001C15.4131 8.25001 15.7489 8.5858 15.7489 9.00001C15.7489 9.41422 15.4131 9.75001 14.9989 9.75001L7.41409 9.75001C7.25876 10.481 7.1787 11.2364 7.1787 12C7.1787 12.7636 7.25876 13.519 7.41409 14.25H14.9989C15.4131 14.25 15.7489 14.5858 15.7489 15C15.7489 15.4142 15.4131 15.75 14.9989 15.75H7.85154C8.03601 16.2411 8.25702 16.7142 8.51283 17.1633C9.37944 18.6848 10.6009 19.855 12.0098 20.5457C13.4162 21.2352 14.9569 21.422 16.4448 21.0905C17.9346 20.7585 19.3252 19.917 20.4344 18.649C20.7071 18.3373 21.1809 18.3056 21.4927 18.5784C21.8045 18.8511 21.8361 19.3249 21.5634 19.6367C20.2614 21.1249 18.597 22.1477 16.771 22.5546C14.9433 22.9618 13.0551 22.7288 11.3495 21.8926C9.64631 21.0576 8.21104 19.6642 7.20942 17.9057C6.82251 17.2264 6.50607 16.5029 6.2634 15.75H3C2.58579 15.75 2.25 15.4142 2.25 15C2.25 14.5858 2.58579 14.25 3 14.25H5.88486C5.74833 13.5133 5.6787 12.7593 5.6787 12C5.6787 11.2408 5.74833 10.4867 5.88486 9.75001H3C2.58579 9.75001 2.25 9.41422 2.25 9.00001C2.25 8.5858 2.58579 8.25001 3 8.25001L6.2634 8.25001C6.50607 7.49715 6.82251 6.77366 7.20942 6.09435C8.21104 4.33578 9.64631 2.9424 11.3495 2.10744Z" fill="#000"/>
</svg>
