<svg width="24" height="24" viewBox="0 0 24 24" fill="none" xmlns="http://www.w3.org/2000/svg">
<g clip-path="url(#clip0_9002_8334)">
<path d="M11 16.5C11 15.9477 11.4477 15.5 12 15.5C12.5523 15.5 13.0001 15.9477 13.0001 16.5C13.0001 17.0523 12.5524 17.5 12.0001 17.5C11.4478 17.5 11 17.0523 11 16.5Z" fill="#000"/>
<path d="M11.25 7L11.25 13C11.25 13.4142 11.5858 13.75 12 13.75C12.4142 13.75 12.75 13.4142 12.75 13L12.75 7C12.75 6.58579 12.4142 6.25 12 6.25C11.5858 6.25 11.25 6.58579 11.25 7Z" fill="#000"/>
<path fill-rule="evenodd" clip-rule="evenodd" d="M0.25 12C0.25 5.51065 5.51065 0.25 12 0.25C18.4893 0.25 23.75 5.51065 23.75 12C23.75 18.4893 18.4893 23.75 12 23.75C5.51065 23.75 0.25 18.4893 0.25 12ZM12 1.75C6.33908 1.75 1.75 6.33908 1.75 12C1.75 17.6609 6.33908 22.25 12 22.25C17.6609 22.25 22.25 17.6609 22.25 12C22.25 6.33908 17.6609 1.75 12 1.75Z" fill="#000"/>
</g>
<defs>
<clipPath id="clip0_9002_8334">
<rect width="24" height="24" fill="white"/>
</clipPath>
</defs>
</svg>
