<svg width="24" height="24" viewBox="0 0 24 24" fill="none" xmlns="http://www.w3.org/2000/svg">
<path d="M0.75 3.5C0.75 3.08579 1.08579 2.75 1.5 2.75H7.5C7.91421 2.75 8.25 3.08579 8.25 3.5C8.25 3.91421 7.91421 4.25 7.5 4.25H2.25V9.5C2.25 9.91421 1.91421 10.25 1.5 10.25C1.08579 10.25 0.75 9.91421 0.75 9.5V3.5Z" fill="#000"/>
<path d="M15.75 3.5C15.75 3.08579 16.0858 2.75 16.5 2.75H22.5C22.9142 2.75 23.25 3.08579 23.25 3.5V9.5C23.25 9.91421 22.9142 10.25 22.5 10.25C22.0858 10.25 21.75 9.91421 21.75 9.5V4.25H16.5C16.0858 4.25 15.75 3.91421 15.75 3.5Z" fill="#000"/>
<path d="M1.5 13.75C1.91421 13.75 2.25 14.0858 2.25 14.5V19.75H7.5C7.91421 19.75 8.25 20.0858 8.25 20.5C8.25 20.9142 7.91421 21.25 7.5 21.25H1.5C1.08579 21.25 0.75 20.9142 0.75 20.5V14.5C0.75 14.0858 1.08579 13.75 1.5 13.75Z" fill="#000"/>
<path d="M22.5 13.75C22.9142 13.75 23.25 14.0858 23.25 14.5V20.5C23.25 20.9142 22.9142 21.25 22.5 21.25H16.5C16.0858 21.25 15.75 20.9142 15.75 20.5C15.75 20.0858 16.0858 19.75 16.5 19.75H21.75V14.5C21.75 14.0858 22.0858 13.75 22.5 13.75Z" fill="#000"/>
</svg>
