<svg width="24" height="24" viewBox="0 0 24 24" fill="none" xmlns="http://www.w3.org/2000/svg">
<path fill-rule="evenodd" clip-rule="evenodd" d="M2.53033 1.46967C2.23744 1.17678 1.76256 1.17678 1.46967 1.46967C1.17678 1.76256 1.17678 2.23744 1.46967 2.53033L4.81119 5.87185C3.3729 7.09754 2.19742 8.74664 1.45739 10.8072C1.18087 11.5772 1.18087 12.4229 1.45739 13.1928C4.12942 20.633 12.3794 22.5781 17.9683 19.029L21.4697 22.5303C21.7626 22.8232 22.2374 22.8232 22.5303 22.5303C22.8232 22.2374 22.8232 21.7626 22.5303 21.4697L18.5991 17.5384C18.5935 17.5326 18.5877 17.5269 18.5819 17.5213L6.47746 5.4168C6.47182 5.41097 6.46609 5.40525 6.46029 5.39963L2.53033 1.46967ZM5.87577 6.93643C4.59713 7.99816 3.53748 9.45315 2.86911 11.3142C2.7103 11.7564 2.7103 12.2436 2.86911 12.6858C5.14419 19.0207 12.0453 20.7717 16.8774 17.938L14.4289 15.4895C13.7406 15.9689 12.903 16.25 12 16.25C9.65003 16.25 7.75 14.35 7.75 12C7.75 11.097 8.03116 10.2594 8.5105 9.57116L5.87577 6.93643ZM9.59756 10.6582C9.37601 11.0547 9.25 11.5119 9.25 12C9.25 13.5216 10.4785 14.75 12 14.75C12.4881 14.75 12.9454 14.624 13.3418 14.4025L9.59756 10.6582Z" fill="#000"/>
<path d="M8.81834 5.28214C13.4511 3.68051 19.11 5.68705 21.1309 11.3142C21.2897 11.7564 21.2897 12.2436 21.1309 12.6858C20.7231 13.8213 20.1703 14.8039 19.513 15.6376C19.2565 15.9628 19.3123 16.4344 19.6375 16.6909C19.9628 16.9473 20.4344 16.8916 20.6909 16.5663C21.4509 15.6024 22.0816 14.4766 22.5426 13.1928C22.8191 12.4229 22.8191 11.5772 22.5426 10.8072C20.2191 4.33758 13.6658 2.01918 8.32822 3.86447C7.93675 3.99981 7.7291 4.42688 7.86445 4.81836C7.99979 5.20984 8.42686 5.41748 8.81834 5.28214Z" fill="#000"/>
<path d="M12.6561 7.8003C12.2468 7.73697 11.8636 8.01746 11.8003 8.42681C11.7369 8.83615 12.0174 9.21933 12.4268 9.28266C13.6051 9.46497 14.535 10.3949 14.7174 11.5732C14.7807 11.9826 15.1639 12.2631 15.5732 12.1997C15.9826 12.1364 16.2631 11.7532 16.1997 11.3439C15.9174 9.51945 14.4806 8.08257 12.6561 7.8003Z" fill="#000"/>
</svg>
