<svg width="24" height="24" viewBox="0 0 24 24" fill="none" xmlns="http://www.w3.org/2000/svg">
<path fill-rule="evenodd" clip-rule="evenodd" d="M12 7.75C9.65003 7.75 7.75 9.65003 7.75 12C7.75 14.35 9.65003 16.25 12 16.25C14.35 16.25 16.25 14.35 16.25 12C16.25 9.65003 14.35 7.75 12 7.75ZM9.25 12C9.25 10.4785 10.4785 9.25 12 9.25C13.5215 9.25 14.75 10.4785 14.75 12C14.75 13.5215 13.5215 14.75 12 14.75C10.4785 14.75 9.25 13.5215 9.25 12Z" fill="#000"/>
<path fill-rule="evenodd" clip-rule="evenodd" d="M22.5426 10.8072C18.9239 0.730934 5.07613 0.730935 1.45739 10.8072C1.18087 11.5772 1.18087 12.4228 1.45739 13.1928C5.07613 23.2691 18.9239 23.2691 22.5426 13.1928C22.8191 12.4228 22.8191 11.5772 22.5426 10.8072ZM2.86911 11.3142C6.01235 2.56193 17.9876 2.56194 21.1309 11.3142C21.2897 11.7564 21.2897 12.2436 21.1309 12.6858C17.9876 21.4381 6.01235 21.4381 2.86911 12.6858C2.7103 12.2436 2.7103 11.7564 2.86911 11.3142Z" fill="#000"/>
</svg>
