<svg width="24" height="24" viewBox="0 0 24 24" fill="none" xmlns="http://www.w3.org/2000/svg">
<path d="M8.59963 14.5495C8.35083 14.2183 7.88067 14.1516 7.54951 14.4004C7.21835 14.6492 7.15159 15.1194 7.40039 15.4505C8.44819 16.8451 10.1186 17.7495 12 17.7495C13.8814 17.7495 15.5518 16.8451 16.5996 15.4505C16.8484 15.1194 16.7817 14.6492 16.4505 14.4004C16.1194 14.1516 15.6492 14.2183 15.4004 14.5495C14.6237 15.5832 13.3898 16.2495 12 16.2495C10.6102 16.2495 9.3763 15.5832 8.59963 14.5495Z" fill="#000"/>
<path d="M9 11.25C9.57519 11.25 9.89403 10.8032 10.0244 10.5425C10.1772 10.237 10.25 9.86733 10.25 9.5C10.25 9.13267 10.1772 8.76304 10.0244 8.45748C9.89403 8.19679 9.57519 7.75 9 7.75C8.42481 7.75 8.10597 8.19679 7.97563 8.45748C7.82285 8.76304 7.75 9.13267 7.75 9.5C7.75 9.86733 7.82285 10.237 7.97563 10.5425C8.10597 10.8032 8.42481 11.25 9 11.25Z" fill="#000"/>
<path d="M15 11.25C15.5752 11.25 15.894 10.8032 16.0244 10.5425C16.1772 10.237 16.25 9.86733 16.25 9.5C16.25 9.13267 16.1772 8.76304 16.0244 8.45748C15.894 8.19679 15.5752 7.75 15 7.75C14.4248 7.75 14.106 8.19679 13.9756 8.45748C13.8228 8.76304 13.75 9.13267 13.75 9.5C13.75 9.86733 13.8228 10.237 13.9756 10.5425C14.106 10.8032 14.4248 11.25 15 11.25Z" fill="#000"/>
<path fill-rule="evenodd" clip-rule="evenodd" d="M12 0.25C5.51065 0.25 0.25 5.51065 0.25 12C0.25 18.4893 5.51065 23.75 12 23.75C18.4893 23.75 23.75 18.4893 23.75 12C23.75 5.51065 18.4893 0.25 12 0.25ZM1.75 12C1.75 6.33908 6.33908 1.75 12 1.75C17.6609 1.75 22.25 6.33908 22.25 12C22.25 17.6609 17.6609 22.25 12 22.25C6.33908 22.25 1.75 17.6609 1.75 12Z" fill="#000"/>
</svg>
