<svg width="24" height="24" viewBox="0 0 24 24" fill="none" xmlns="http://www.w3.org/2000/svg">
<path d="M12 18.7499C11.5858 18.7499 11.25 18.4141 11.25 17.9999L11.25 12.8105L9.53033 14.5302C9.23744 14.8231 8.76257 14.8231 8.46967 14.5302C8.17678 14.2373 8.17678 13.7624 8.46967 13.4695L11.4697 10.4695C11.6103 10.3289 11.8011 10.2499 12 10.2499C12.1989 10.2499 12.3897 10.3289 12.5303 10.4695L15.5303 13.4695C15.8232 13.7624 15.8232 14.2373 15.5303 14.5302C15.2374 14.8231 14.7626 14.8231 14.4697 14.5302L12.75 12.8105L12.75 17.9999C12.75 18.4141 12.4142 18.7499 12 18.7499Z" fill="#000"/>
<path fill-rule="evenodd" clip-rule="evenodd" d="M13.5635 1.32591C13.2451 1.24947 12.9156 1.24966 12.497 1.2499L8.7679 1.24993C7.95506 1.24992 7.29944 1.24992 6.76853 1.29329C6.2219 1.33796 5.74176 1.43232 5.29754 1.65866C4.59193 2.01818 4.01825 2.59186 3.65873 3.29747C3.43239 3.74169 3.33803 4.22183 3.29336 4.76846C3.24999 5.29937 3.24999 5.95499 3.25 6.76783L3.25 17.232C3.24999 18.0449 3.24999 18.7005 3.29336 19.2314C3.33803 19.778 3.43239 20.2582 3.65873 20.7024C4.01825 21.408 4.59193 21.9817 5.29754 22.3412C5.74176 22.5675 6.2219 22.6619 6.76853 22.7066C7.29944 22.7499 7.95505 22.7499 8.76788 22.7499H15.2321C16.0449 22.7499 16.7006 22.7499 17.2315 22.7066C17.7781 22.6619 18.2582 22.5675 18.7025 22.3412C19.4081 21.9817 19.9818 21.408 20.3413 20.7024C20.5676 20.2582 20.662 19.778 20.7066 19.2314C20.75 18.7005 20.75 18.0449 20.75 17.2321L20.75 9.50294C20.7503 9.08433 20.7505 8.7548 20.674 8.43638C20.6067 8.15578 20.4955 7.88754 20.3448 7.64149C20.1737 7.36228 19.9405 7.12941 19.6443 6.83357L15.1664 2.3556C14.8705 2.05942 14.6377 1.82627 14.3584 1.65517C14.1124 1.50439 13.8441 1.39328 13.5635 1.32591ZM14.25 3.56059V6.49988C14.25 7.19023 14.8096 7.74988 15.5 7.74988L18.4393 7.74988L14.25 3.56059ZM19.2488 9.24988C19.2497 9.33842 19.25 9.44505 19.25 9.57542V17.1999C19.25 18.0524 19.2494 18.6466 19.2116 19.1093C19.1745 19.5631 19.1054 19.8239 19.0048 20.0214C18.7891 20.4448 18.4448 20.789 18.0215 21.0047C17.824 21.1053 17.5632 21.1745 17.1093 21.2116C16.6467 21.2493 16.0525 21.2499 15.2 21.2499H8.8C7.94755 21.2499 7.35331 21.2493 6.89068 21.2116C6.43681 21.1745 6.17604 21.1053 5.97852 21.0047C5.55516 20.789 5.21095 20.4448 4.99524 20.0214C4.8946 19.8239 4.82547 19.5631 4.78838 19.1093C4.75058 18.6466 4.75 18.0524 4.75 17.1999L4.75 6.79993C4.75 5.94748 4.75058 5.35324 4.78838 4.89061C4.82547 4.43674 4.8946 4.17597 4.99524 3.97845C5.21095 3.55509 5.55516 3.21088 5.97852 2.99517C6.17604 2.89453 6.43681 2.8254 6.89068 2.78831C7.35331 2.75051 7.94755 2.74993 8.8 2.74993L12.4245 2.74993C12.5549 2.74993 12.6615 2.75023 12.75 2.75113L12.75 6.49988C12.75 8.01866 13.9812 9.24988 15.5 9.24988L19.2488 9.24988Z" fill="#000"/>
</svg>
