<svg width="24" height="24" viewBox="0 0 24 24" fill="none" xmlns="http://www.w3.org/2000/svg">
<path fill-rule="evenodd" clip-rule="evenodd" d="M17.25 13V9.24994H13.5C11.9812 9.24994 10.75 8.01872 10.75 6.49994V2.74995H6.8C5.94755 2.74995 5.35331 2.75054 4.89068 2.78834C4.43681 2.82542 4.17604 2.89455 3.97852 2.99519C3.55516 3.2109 3.21095 3.55511 2.99524 3.97848C2.8946 4.17599 2.82547 4.43676 2.78838 4.89063C2.75058 5.35327 2.75 5.9475 2.75 6.79995V17.2C2.75 18.0524 2.75058 18.6466 2.78838 19.1093C2.82547 19.5632 2.8946 19.8239 2.99524 20.0214C3.21095 20.4448 3.55516 20.789 3.97852 21.0047C4.16366 21.0991 4.40514 21.166 4.80989 21.2044C5.22327 21.2437 5.7517 21.2493 6.50059 21.2499C6.9148 21.2502 7.25032 21.5862 7.25 22.0005C7.24968 22.4147 6.91363 22.7502 6.49942 22.7499C5.76578 22.7493 5.1644 22.7449 4.66801 22.6977C4.16299 22.6497 3.71475 22.5538 3.29754 22.3412C2.59193 21.9817 2.01825 21.408 1.65873 20.7024C1.43239 20.2582 1.33803 19.7781 1.29336 19.2314C1.24999 18.7005 1.24999 18.0449 1.25 17.2321V6.76785C1.24999 5.95502 1.24999 5.29939 1.29336 4.76849C1.33803 4.22185 1.43239 3.74171 1.65873 3.29749C2.01825 2.59188 2.59193 2.0182 3.29754 1.65868C3.74176 1.43234 4.2219 1.33798 4.76853 1.29332C5.29944 1.24994 5.95506 1.24995 6.7679 1.24995L10.8184 1.24992C11.1235 1.24963 11.3926 1.24938 11.6539 1.31212C11.8835 1.36724 12.103 1.45815 12.3043 1.58151C12.5335 1.72194 12.7235 1.91237 12.9391 2.12835L17.8716 7.06082C18.0876 7.27642 18.278 7.4665 18.4184 7.69565C18.5418 7.89696 18.6327 8.11644 18.6878 8.34602C18.7506 8.60736 18.7503 8.87642 18.75 9.18159L18.75 13C18.75 13.4142 18.4142 13.75 18 13.75C17.5858 13.75 17.25 13.4142 17.25 13ZM12.25 6.49994V3.56061L16.4393 7.74994H13.5C12.8096 7.74994 12.25 7.19029 12.25 6.49994ZM12.4529 2.70289L12.25 2.90583V2.88582L12.4529 2.70289Z" fill="#000"/>
<path d="M9.5 15.2499C9.08579 15.2499 8.75 15.5857 8.75 15.9999C8.75 16.4142 9.08579 16.7499 9.5 16.7499H11.6942L8.85217 21.622C8.71685 21.854 8.71589 22.1406 8.84964 22.3735C8.9834 22.6064 9.23145 22.7499 9.5 22.7499H13C13.4142 22.7499 13.75 22.4142 13.75 21.9999C13.75 21.5857 13.4142 21.2499 13 21.2499H10.8058L13.6478 16.3778C13.7831 16.1459 13.7841 15.8593 13.6504 15.6264C13.5166 15.3935 13.2685 15.2499 13 15.2499H9.5Z" fill="#000"/>
<path d="M15.5 15.2499C15.9142 15.2499 16.25 15.5857 16.25 15.9999V21.9999C16.25 22.4142 15.9142 22.7499 15.5 22.7499C15.0858 22.7499 14.75 22.4142 14.75 21.9999V15.9999C14.75 15.5857 15.0858 15.2499 15.5 15.2499Z" fill="#000"/>
<path fill-rule="evenodd" clip-rule="evenodd" d="M18.5 15.2499C18.0858 15.2499 17.75 15.5857 17.75 15.9999V21.9999C17.75 22.4142 18.0858 22.7499 18.5 22.7499C18.9142 22.7499 19.25 22.4142 19.25 21.9999V20.2499H20.25C21.6307 20.2499 22.75 19.1307 22.75 17.7499C22.75 16.3692 21.6307 15.2499 20.25 15.2499H18.5ZM20.25 18.7499H19.25V16.7499H20.25C20.8023 16.7499 21.25 17.1977 21.25 17.7499C21.25 18.3022 20.8023 18.7499 20.25 18.7499Z" fill="#000"/>
</svg>
