<svg width="24" height="24" viewBox="0 0 24 24" fill="none" xmlns="http://www.w3.org/2000/svg">
<path d="M7.25 12.9999C7.25 13.4142 7.58579 13.7499 8 13.7499H16C16.4142 13.7499 16.75 13.4142 16.75 12.9999C16.75 12.5857 16.4142 12.2499 16 12.2499H8C7.58579 12.2499 7.25 12.5857 7.25 12.9999Z" fill="#000"/>
<path d="M8 17.7499C7.58579 17.7499 7.25 17.4142 7.25 16.9999C7.25 16.5857 7.58579 16.2499 8 16.2499H12C12.4142 16.2499 12.75 16.5857 12.75 16.9999C12.75 17.4142 12.4142 17.7499 12 17.7499H8Z" fill="#000"/>
<path fill-rule="evenodd" clip-rule="evenodd" d="M12.497 1.2499L8.7679 1.24993C7.95506 1.24993 7.29944 1.24992 6.76853 1.2933C6.2219 1.33796 5.74175 1.43232 5.29754 1.65866C4.59193 2.01818 4.01825 2.59186 3.65873 3.29747C3.43239 3.74169 3.33803 4.22183 3.29336 4.76847C3.24999 5.29937 3.24999 5.95498 3.25 6.76782V17.232C3.24999 18.0449 3.24999 18.7005 3.29336 19.2314C3.33803 19.778 3.43239 20.2582 3.65873 20.7024C4.01825 21.408 4.59193 21.9817 5.29754 22.3412C5.74175 22.5675 6.2219 22.6619 6.76853 22.7066C7.29944 22.7499 7.95505 22.7499 8.76788 22.7499H15.2321C16.045 22.7499 16.7006 22.7499 17.2315 22.7066C17.7781 22.6619 18.2582 22.5675 18.7025 22.3412C19.4081 21.9817 19.9817 21.408 20.3413 20.7024C20.5676 20.2582 20.662 19.778 20.7066 19.2314C20.75 18.7005 20.75 18.0449 20.75 17.2321L20.75 9.50294C20.7503 9.08433 20.7505 8.7548 20.674 8.43639C20.6067 8.15579 20.4955 7.88754 20.3448 7.64149C20.1737 7.36228 19.9405 7.12941 19.6443 6.83357L15.1664 2.35559C14.8705 2.05942 14.6376 1.82627 14.3584 1.65517C14.1124 1.50439 13.8441 1.39328 13.5635 1.32592C13.2451 1.24947 12.9156 1.24966 12.497 1.2499ZM12.75 2.75113C12.6615 2.75023 12.5549 2.74993 12.4245 2.74993H8.8C7.94755 2.74993 7.35331 2.75052 6.89068 2.78831C6.43681 2.8254 6.17604 2.89453 5.97852 2.99517C5.55516 3.21088 5.21095 3.55509 4.99524 3.97845C4.8946 4.17597 4.82547 4.43674 4.78838 4.89061C4.75058 5.35324 4.75 5.94748 4.75 6.79993V17.1999C4.75 18.0524 4.75058 18.6466 4.78838 19.1093C4.82547 19.5631 4.8946 19.8239 4.99524 20.0214C5.21095 20.4448 5.55516 20.789 5.97852 21.0047C6.17604 21.1053 6.43681 21.1745 6.89068 21.2116C7.35331 21.2493 7.94755 21.2499 8.8 21.2499H15.2C16.0525 21.2499 16.6467 21.2493 17.1093 21.2116C17.5632 21.1745 17.824 21.1053 18.0215 21.0047C18.4448 20.789 18.789 20.4448 19.0048 20.0214C19.1054 19.8239 19.1745 19.5631 19.2116 19.1093C19.2494 18.6466 19.25 18.0524 19.25 17.1999V9.57542C19.25 9.44508 19.2497 9.33847 19.2488 9.24994H15.5C13.9812 9.24994 12.75 8.01872 12.75 6.49994V2.75113ZM18.4393 7.74994L14.25 3.56059V6.49994C14.25 7.19029 14.8096 7.74994 15.5 7.74994H18.4393Z" fill="#000"/>
</svg>
