<svg width="24" height="24" viewBox="0 0 24 24" fill="none" xmlns="http://www.w3.org/2000/svg">
<path d="M15 15.25C15.4142 15.25 15.75 14.9142 15.75 14.5C15.75 14.0858 15.4142 13.75 15 13.75H9C8.58579 13.75 8.25 14.0858 8.25 14.5C8.25 14.9142 8.58579 15.25 9 15.25H15Z" fill="#000"/>
<path fill-rule="evenodd" clip-rule="evenodd" d="M12.497 1.25003C12.9156 1.24978 13.2451 1.24959 13.5635 1.32604C13.8441 1.3934 14.1124 1.50452 14.3584 1.65529C14.6376 1.82639 14.8705 2.05953 15.1663 2.3557L19.6443 6.8337C19.9405 7.12953 20.1737 7.3624 20.3448 7.64161C20.4955 7.88766 20.6067 8.15591 20.674 8.43651C20.7505 8.75492 20.7503 9.08445 20.75 9.50307L20.75 17.2322C20.75 18.045 20.75 18.7006 20.7066 19.2315C20.662 19.7782 20.5676 20.2583 20.3413 20.7025C19.9818 21.4081 19.4081 21.9818 18.7025 22.3413C18.2582 22.5677 17.7781 22.662 17.2315 22.7067C16.7006 22.7501 16.045 22.7501 15.2321 22.7501H8.76788C7.95505 22.7501 7.29944 22.7501 6.76853 22.7067C6.2219 22.662 5.74175 22.5677 5.29754 22.3413C4.59193 21.9818 4.01825 21.4081 3.65873 20.7025C3.43239 20.2583 3.33803 19.7782 3.29336 19.2315C3.24999 18.7006 3.24999 18.045 3.25 17.2322V6.76795C3.24999 5.95512 3.24999 5.29949 3.29336 4.76859C3.33803 4.22195 3.43239 3.74181 3.65873 3.29759C4.01825 2.59198 4.59193 2.01831 5.29754 1.65878C5.74176 1.43244 6.2219 1.33808 6.76853 1.29342C7.29944 1.25004 7.95506 1.25005 8.7679 1.25005L12.497 1.25003ZM12.4245 2.75005C12.5549 2.75005 12.6615 2.75035 12.75 2.75125V6.5C12.75 8.01878 13.9812 9.25 15.5 9.25H19.2488C19.2497 9.33854 19.25 9.44518 19.25 9.57554V17.2001C19.25 18.0525 19.2494 18.6467 19.2116 19.1094C19.1745 19.5633 19.1054 19.824 19.0048 20.0215C18.789 20.4449 18.4448 20.7891 18.0215 21.0048C17.824 21.1055 17.5632 21.1746 17.1093 21.2117C16.6467 21.2495 16.0525 21.2501 15.2 21.2501H8.8C7.94755 21.2501 7.35331 21.2495 6.89068 21.2117C6.43681 21.1746 6.17604 21.1055 5.97852 21.0048C5.55516 20.7891 5.21095 20.4449 4.99524 20.0215C4.8946 19.824 4.82547 19.5633 4.78838 19.1094C4.75058 18.6467 4.75 18.0525 4.75 17.2001V6.80006C4.75 5.9476 4.75058 5.35337 4.78838 4.89073C4.82547 4.43686 4.8946 4.17609 4.99524 3.97858C5.21095 3.55521 5.55516 3.21101 5.97852 2.99529C6.17604 2.89465 6.43681 2.82552 6.89068 2.78844C7.35331 2.75064 7.94755 2.75005 8.8 2.75005H12.4245ZM14.25 3.56071L18.4393 7.75H15.5C14.8096 7.75 14.25 7.19036 14.25 6.5V3.56071Z" fill="#000"/>
</svg>
