<svg width="24" height="24" viewBox="0 0 24 24" fill="none" xmlns="http://www.w3.org/2000/svg">
<path fill-rule="evenodd" clip-rule="evenodd" d="M1.25 4.12132C1.25 2.53553 2.53553 1.25 4.12132 1.25H19.8787C21.4645 1.25 22.75 2.53553 22.75 4.12132C22.75 4.88284 22.4475 5.61317 21.909 6.15165L15.4697 12.591C15.329 12.7316 15.25 12.9224 15.25 13.1213V22C15.25 22.2883 15.0847 22.5511 14.8249 22.676C14.565 22.8009 14.2566 22.7658 14.0315 22.5857L9.40678 18.8859C8.99166 18.5538 8.75 18.051 8.75 17.5194V13.1213C8.75 12.9224 8.67098 12.7316 8.53033 12.591L2.09099 6.15165C1.55251 5.61317 1.25 4.88284 1.25 4.12132ZM4.12132 2.75C3.36396 2.75 2.75 3.36396 2.75 4.12132C2.75 4.48502 2.89448 4.83382 3.15165 5.09099L9.59099 11.5303C10.0129 11.9523 10.25 12.5246 10.25 13.1213V17.5194C10.25 17.5953 10.2845 17.6671 10.3438 17.7146L13.75 20.4395V13.1213C13.75 12.5246 13.9871 11.9523 14.409 11.5303L20.8483 5.09099C21.1055 4.83382 21.25 4.48502 21.25 4.12132C21.25 3.36396 20.636 2.75 19.8787 2.75H4.12132Z" fill="#000"/>
</svg>
