<svg width="24" height="24" viewBox="0 0 24 24" fill="none" xmlns="http://www.w3.org/2000/svg">
<path d="M5.81282 3.92268C7.45376 2.28174 9.67936 1.35986 12 1.35986C13.9974 1.35986 15.9244 2.04281 17.4688 3.27937C17.7921 3.53826 17.8443 4.01026 17.5855 4.33359C17.3266 4.65693 16.8546 4.70918 16.5312 4.45029C15.2516 3.42572 13.655 2.85986 12 2.85986C10.0772 2.85986 8.23312 3.6237 6.87348 4.98334C5.51384 6.34298 4.75 8.18704 4.75 10.1099V17C4.75 17.4142 4.41421 17.75 4 17.75C3.58579 17.75 3.25 17.4142 3.25 17V10.1099C3.25 7.78922 4.17187 5.56362 5.81282 3.92268Z" fill="#000"/>
<path d="M8.64124 6.64124C9.53204 5.75045 10.7402 5.25 12 5.25C13.2598 5.25 14.468 5.75045 15.3588 6.64124C16.2496 7.53204 16.75 8.74022 16.75 10V18.1099C16.75 19.3696 16.2496 20.5778 15.3588 21.4686C14.468 22.3594 13.2598 22.8599 12 22.8599C11.5858 22.8599 11.25 22.5241 11.25 22.1099C11.25 21.6957 11.5858 21.3599 12 21.3599C12.862 21.3599 13.6886 21.0175 14.2981 20.408C14.9076 19.7985 15.25 18.9718 15.25 18.1099V10C15.25 9.13805 14.9076 8.3114 14.2981 7.7019C13.6886 7.09241 12.862 6.75 12 6.75C11.138 6.75 10.3114 7.09241 9.7019 7.7019C9.09241 8.3114 8.75 9.13805 8.75 10V11.1099C8.75 11.5241 8.41421 11.8599 8 11.8599C7.58579 11.8599 7.25 11.5241 7.25 11.1099V10C7.25 8.74022 7.75044 7.53204 8.64124 6.64124Z" fill="#000"/>
<path d="M19.5585 7.38368C19.9595 7.28012 20.3686 7.52129 20.4722 7.92234C20.6552 8.63099 20.75 9.36557 20.75 10.1099V18.1099C20.75 18.5241 20.4142 18.8599 20 18.8599C19.5858 18.8599 19.25 18.5241 19.25 18.1099V10.1099C19.25 9.49309 19.1714 8.8845 19.0198 8.29738C18.9162 7.89633 19.1574 7.48725 19.5585 7.38368Z" fill="#000"/>
<path d="M12 9.25C12.4142 9.25 12.75 9.58579 12.75 10L12.75 18.1099C12.75 18.5241 12.4142 18.8599 12 18.8599C11.5858 18.8599 11.25 18.5241 11.25 18.1099L11.25 10C11.25 9.58579 11.5858 9.25 12 9.25Z" fill="#000"/>
<path d="M8 14.8599C8.41421 14.8599 8.75 15.1957 8.75 15.6099V18.1099C8.75 18.5241 8.41421 18.8599 8 18.8599C7.58579 18.8599 7.25 18.5241 7.25 18.1099V15.6099C7.25 15.1957 7.58579 14.8599 8 14.8599Z" fill="#000"/>
</svg>
