<svg width="24" height="24" viewBox="0 0 24 24" fill="none" xmlns="http://www.w3.org/2000/svg">
<path d="M20.75 13.9995C20.75 9.4015 18.048 5.0405 12.936 1.3895C12.766 1.2675 12.554 1.2235 12.347 1.2655C12.142 1.3075 11.964 1.4345 11.857 1.6145L9.4 5.7085C8.92 5.2315 8.249 4.7505 7.5 4.7505C7.271 4.7505 7.054 4.8555 6.912 5.0355C4.482 8.1065 3.25 11.1225 3.25 13.9995C3.25 19.1515 6.848 22.7495 12 22.7495H12.003C17.153 22.7475 20.75 19.1505 20.75 13.9995ZM12.001 21.2495C11.133 21.2495 8.751 20.4515 8.751 17.8815C8.751 16.0435 10.804 13.9505 12.001 12.9535C13.199 13.9495 15.251 16.0375 15.251 17.8815C15.251 20.4505 12.869 21.2485 12.001 21.2495ZM16.283 19.9985C16.572 19.4005 16.751 18.6995 16.751 17.8815C16.751 14.5985 12.621 11.5245 12.445 11.3945C12.18 11.2005 11.821 11.2005 11.556 11.3945C11.38 11.5235 7.25 14.5985 7.25 17.8815C7.25 18.6995 7.429 19.4015 7.718 19.9995C5.871 18.7395 4.749 16.6135 4.749 13.9995C4.749 11.5835 5.773 9.0095 7.793 6.3445C8.166 6.5495 8.627 7.0475 8.876 7.4165C9.019 7.6295 9.245 7.7565 9.518 7.7485C9.774 7.7425 10.01 7.6055 10.142 7.3855L12.718 3.0925C17.052 6.3765 19.249 10.0435 19.249 14.0005C19.249 16.6135 18.128 18.7405 16.282 19.9995L16.283 19.9985Z" fill="#000"/>
</svg>
