<svg width="24" height="24" viewBox="0 0 24 24" fill="none" xmlns="http://www.w3.org/2000/svg">
<path fill-rule="evenodd" clip-rule="evenodd" d="M4.75 2C4.75 1.58579 4.41421 1.25 4 1.25C3.58579 1.25 3.25 1.58579 3.25 2V22C3.25 22.4142 3.58579 22.75 4 22.75C4.41421 22.75 4.75 22.4142 4.75 22V15.75H19.4945C20.4728 15.75 21.0719 14.6769 20.5586 13.8441L17.9619 9.63118C17.9123 9.55075 17.9123 9.44925 17.9619 9.36882L20.5586 5.15588C21.0719 4.32307 20.4728 3.25 19.4945 3.25H4.75V2ZM4.75 4.75V14.25H19.0467L16.6849 10.4182C16.3379 9.85525 16.3379 9.14475 16.6849 8.58177L19.0467 4.75H4.75Z" fill="#000"/>
</svg>
