<svg width="24" height="24" viewBox="0 0 24 24" fill="none" xmlns="http://www.w3.org/2000/svg">
<path d="M16.0303 11.2803C16.3232 10.9874 16.3232 10.5126 16.0303 10.2197C15.7374 9.92678 15.2626 9.92678 14.9697 10.2197L11 14.1893L9.03033 12.2197C8.73744 11.9268 8.26256 11.9268 7.96967 12.2197C7.67678 12.5126 7.67678 12.9874 7.96967 13.2803L10.4697 15.7803C10.7626 16.0732 11.2374 16.0732 11.5303 15.7803L16.0303 11.2803Z" fill="#000"/>
<path fill-rule="evenodd" clip-rule="evenodd" d="M9.40393 2.81224C9.1426 2.7495 8.87354 2.74975 8.56837 2.75004L6.36821 2.75008C5.62512 2.75007 5.02197 2.75006 4.53273 2.79003C4.02778 2.83129 3.57851 2.91884 3.16103 3.13155C2.50247 3.46711 1.96703 4.00254 1.63148 4.66111C1.41876 5.07859 1.33121 5.52786 1.28996 6.03281C1.24999 6.52204 1.24999 7.12519 1.25 7.86827V16.1319C1.24999 16.8749 1.24999 17.4781 1.28996 17.9673C1.33121 18.4723 1.41876 18.9216 1.63148 19.339C1.96703 19.9976 2.50247 20.533 3.16103 20.8686C3.57851 21.0813 4.02778 21.1689 4.53273 21.2101C5.02195 21.2501 5.62507 21.2501 6.36811 21.2501H17.6318C18.3748 21.2501 18.9781 21.2501 19.4673 21.2101C19.9722 21.1689 20.4215 21.0813 20.839 20.8686C21.4975 20.533 22.033 19.9976 22.3685 19.339C22.5812 18.9216 22.6688 18.4723 22.71 17.9673C22.75 17.4781 22.75 16.875 22.75 16.132V9.86827C22.75 9.12523 22.75 8.52202 22.71 8.03281C22.6688 7.52786 22.5812 7.07859 22.3685 6.66111C22.033 6.00254 21.4975 5.46711 20.839 5.13155C20.4215 4.91884 19.9722 4.83129 19.4673 4.79003C18.978 4.75006 18.3749 4.75007 17.6318 4.75008L12.4941 4.75008C12.0915 4.75008 12.0125 4.74526 11.9462 4.72935C11.8697 4.71098 11.7966 4.68068 11.7294 4.63956C11.6714 4.60396 11.6121 4.55147 11.3274 4.2668L10.6891 3.62849C10.4735 3.4125 10.2835 3.22206 10.0543 3.08164C9.85299 2.95827 9.63351 2.86736 9.40393 2.81224ZM8.50589 4.25008C8.90847 4.25008 8.98753 4.2549 9.05376 4.2708C9.13029 4.28917 9.20345 4.31947 9.27055 4.3606C9.32864 4.39619 9.38794 4.44868 9.67261 4.73335L10.3109 5.37166C10.5265 5.58766 10.7165 5.77809 10.9457 5.91852C11.147 6.04188 11.3665 6.13279 11.5961 6.18791C11.8574 6.25065 12.1265 6.2504 12.4316 6.25011L17.6 6.25008C18.3824 6.25008 18.9242 6.25066 19.3451 6.28505C19.7573 6.31873 19.9872 6.38105 20.158 6.46806C20.5343 6.65981 20.8403 6.96577 21.032 7.3421C21.119 7.51287 21.1813 7.74277 21.215 8.15496C21.2494 8.5759 21.25 9.11763 21.25 9.90008V16.1001C21.25 16.8825 21.2494 17.4243 21.215 17.8452C21.1813 18.2574 21.119 18.4873 21.032 18.6581C20.8403 19.0344 20.5343 19.3403 20.158 19.5321C19.9872 19.6191 19.7573 19.6814 19.3451 19.7151C18.9242 19.7495 18.3824 19.7501 17.6 19.7501H6.4C5.61755 19.7501 5.07582 19.7495 4.65488 19.7151C4.24269 19.6814 4.0128 19.6191 3.84202 19.5321C3.4657 19.3403 3.15973 19.0344 2.96799 18.6581C2.88097 18.4873 2.81865 18.2574 2.78498 17.8452C2.75058 17.4243 2.75 16.8825 2.75 16.1001V7.90008C2.75 7.11763 2.75058 6.5759 2.78498 6.15496C2.81865 5.74277 2.88097 5.51287 2.96799 5.3421C3.15973 4.96577 3.4657 4.65981 3.84202 4.46806C4.0128 4.38105 4.24269 4.31873 4.65488 4.28505C5.07582 4.25066 5.61755 4.25008 6.4 4.25008H8.50589Z" fill="#000"/>
</svg>
