<svg width="24" height="24" viewBox="0 0 24 24" fill="none" xmlns="http://www.w3.org/2000/svg">
<path fill-rule="evenodd" clip-rule="evenodd" d="M8.56837 2.75004C8.87354 2.74975 9.1426 2.7495 9.40393 2.81224C9.63351 2.86736 9.85299 2.95827 10.0543 3.08164C10.2835 3.22206 10.4735 3.4125 10.6891 3.62849C10.7037 3.64311 10.7184 3.65784 10.7333 3.67269L11.3274 4.2668C11.6121 4.55147 11.6714 4.60396 11.7294 4.63956C11.7966 4.68068 11.8697 4.71098 11.9462 4.72935C12.0125 4.74526 12.0915 4.75008 12.4941 4.75008L17.6318 4.75008C18.3749 4.75007 18.978 4.75006 19.4673 4.79003C19.9722 4.83129 20.4215 4.91884 20.839 5.13155C21.4975 5.46711 22.033 6.00254 22.3685 6.66111C22.5812 7.07859 22.6688 7.52786 22.71 8.03281C22.75 8.52204 22.75 9.12519 22.75 9.86827V16.1319C22.75 16.875 22.75 17.4781 22.71 17.9673C22.6688 18.4723 22.5812 18.9216 22.3685 19.339C22.033 19.9976 21.4975 20.533 20.839 20.8686C20.4215 21.0813 19.9722 21.1689 19.4673 21.2101C18.978 21.2501 18.3749 21.2501 17.6318 21.2501H6.36819C5.62511 21.2501 5.02196 21.2501 4.53273 21.2101C4.02778 21.1689 3.57851 21.0813 3.16103 20.8686C2.50247 20.533 1.96703 19.9976 1.63148 19.339C1.41876 18.9216 1.33121 18.4723 1.28996 17.9673C1.24999 17.4781 1.24999 16.875 1.25 16.1319V7.86829C1.24999 7.1252 1.24999 6.52204 1.28996 6.03281C1.33121 5.52786 1.41876 5.07859 1.63148 4.66111C1.96703 4.00254 2.50247 3.46711 3.16103 3.13155C3.57851 2.91884 4.02778 2.83129 4.53273 2.79003C5.02197 2.75006 5.62512 2.75007 6.36821 2.75008L8.50589 2.75008C8.52689 2.75008 8.54771 2.75006 8.56837 2.75004ZM9.05376 4.2708C8.98753 4.2549 8.90847 4.25008 8.50589 4.25008H6.4C5.61755 4.25008 5.07582 4.25066 4.65488 4.28505C4.24269 4.31873 4.0128 4.38105 3.84202 4.46806C3.4657 4.65981 3.15973 4.96577 2.96799 5.3421C2.88097 5.51287 2.81865 5.74277 2.78498 6.15496C2.75058 6.5759 2.75 7.11763 2.75 7.90008V16.1001C2.75 16.8825 2.75058 17.4243 2.78498 17.8452C2.81865 18.2574 2.88097 18.4873 2.96799 18.6581C3.15973 19.0344 3.4657 19.3403 3.84202 19.5321C4.0128 19.6191 4.24269 19.6814 4.65488 19.7151C5.07582 19.7495 5.61755 19.7501 6.4 19.7501H17.6C18.3824 19.7501 18.9242 19.7495 19.3451 19.7151C19.7573 19.6814 19.9872 19.6191 20.158 19.5321C20.5343 19.3403 20.8403 19.0344 21.032 18.6581C21.119 18.4873 21.1813 18.2574 21.215 17.8452C21.2494 17.4243 21.25 16.8825 21.25 16.1001V9.90008C21.25 9.11763 21.2494 8.5759 21.215 8.15496C21.1813 7.74277 21.119 7.51287 21.032 7.3421C20.8403 6.96577 20.5343 6.65981 20.158 6.46806C19.9872 6.38105 19.7573 6.31873 19.3451 6.28505C18.9242 6.25066 18.3824 6.25008 17.6 6.25008H12.4941C12.4731 6.25008 12.4523 6.2501 12.4316 6.25011C12.1265 6.2504 11.8574 6.25065 11.5961 6.18791C11.3665 6.13279 11.147 6.04188 10.9457 5.91852C10.7165 5.77809 10.5265 5.58766 10.3109 5.37166C10.2963 5.35704 10.2816 5.34231 10.2667 5.32746L9.67261 4.73335C9.38794 4.44868 9.32864 4.39619 9.27055 4.3606C9.20345 4.31947 9.13029 4.28917 9.05376 4.2708Z" fill="#000"/>
</svg>
