<svg width="24" height="24" viewBox="0 0 24 24" fill="none" xmlns="http://www.w3.org/2000/svg">
<path d="M12 17.2499C11.5858 17.2499 11.25 16.9141 11.25 16.4999L11.25 11.3105L9.53033 13.0302C9.23744 13.3231 8.76256 13.3231 8.46967 13.0302C8.17678 12.7373 8.17678 12.2624 8.46967 11.9695L11.4697 8.96955C11.6103 8.8289 11.8011 8.74988 12 8.74988C12.1989 8.74988 12.3897 8.8289 12.5303 8.96955L15.5303 11.9695C15.8232 12.2624 15.8232 12.7373 15.5303 13.0302C15.2374 13.3231 14.7626 13.3231 14.4697 13.0302L12.75 11.3105L12.75 16.4999C12.75 16.9141 12.4142 17.2499 12 17.2499Z" fill="#000"/>
<path fill-rule="evenodd" clip-rule="evenodd" d="M8.56841 2.74992C8.87356 2.74963 9.14261 2.74939 9.40393 2.81212C9.63351 2.86724 9.85299 2.95815 10.0543 3.08151C10.2835 3.22194 10.4735 3.41238 10.6891 3.62837L11.3274 4.26668C11.6121 4.55135 11.6714 4.60384 11.7294 4.63943C11.7966 4.68056 11.8697 4.71086 11.9462 4.72923C12.0125 4.74513 12.0915 4.74996 12.4941 4.74995L17.6318 4.74995C18.3748 4.74995 18.9781 4.74994 19.4673 4.78991C19.9722 4.83117 20.4215 4.91871 20.839 5.13143C21.4975 5.46699 22.033 6.00242 22.3685 6.66099C22.5812 7.07847 22.6688 7.52774 22.71 8.03269C22.75 8.52189 22.75 9.12499 22.75 9.86801V16.1318C22.75 16.8748 22.75 17.478 22.71 17.9672C22.6688 18.4722 22.5812 18.9214 22.3685 19.3389C22.033 19.9975 21.4975 20.5329 20.839 20.8685C20.4215 21.0812 19.9722 21.1687 19.4673 21.21C18.9781 21.25 18.375 21.25 17.632 21.25L6.36819 21.25C5.62516 21.25 5.02194 21.25 4.53273 21.21C4.02778 21.1687 3.57851 21.0812 3.16103 20.8685C2.50247 20.5329 1.96703 19.9975 1.63148 19.3389C1.41876 18.9214 1.33121 18.4722 1.28996 17.9672C1.24999 17.478 1.24999 16.8749 1.25 16.1318L1.25 7.86816C1.24999 7.12508 1.24999 6.52192 1.28996 6.03269C1.33122 5.52774 1.41876 5.07847 1.63148 4.66099C1.96704 4.00242 2.50247 3.46699 3.16103 3.13143C3.57851 2.91872 4.02778 2.83117 4.53273 2.78991C5.02197 2.74994 5.62512 2.74995 6.36821 2.74996L8.56841 2.74992ZM9.05376 4.27068C8.98753 4.25478 8.90847 4.24996 8.50589 4.24996L6.4 4.24996C5.61755 4.24996 5.07582 4.25054 4.65488 4.28493C4.24269 4.31861 4.0128 4.38093 3.84202 4.46794C3.46569 4.65969 3.15974 4.96565 2.96799 5.34197C2.88097 5.51275 2.81865 5.74265 2.78498 6.15483C2.75058 6.57578 2.75 7.11751 2.75 7.89995L2.75 16.1C2.75 16.8824 2.75058 17.4241 2.78498 17.8451C2.81865 18.2573 2.88097 18.4872 2.96799 18.6579C3.15973 19.0343 3.4657 19.3402 3.84202 19.532C4.0128 19.619 4.24269 19.6813 4.65488 19.715C5.07582 19.7494 5.61755 19.75 6.4 19.75H17.6C18.3824 19.75 18.9242 19.7494 19.3451 19.715C19.7573 19.6813 19.9872 19.619 20.158 19.532C20.5343 19.3402 20.8403 19.0343 21.032 18.6579C21.119 18.4872 21.1813 18.2573 21.215 17.8451C21.2494 17.4241 21.25 16.8824 21.25 16.1V9.89995C21.25 9.11751 21.2494 8.57578 21.215 8.15483C21.1813 7.74265 21.119 7.51275 21.032 7.34197C20.8403 6.96565 20.5343 6.65969 20.158 6.46794C19.9872 6.38093 19.7573 6.31861 19.3451 6.28493C18.9242 6.25054 18.3824 6.24995 17.6 6.24996L12.4316 6.24999C12.1265 6.25028 11.8574 6.25053 11.5961 6.18779C11.3665 6.13267 11.147 6.04176 10.9457 5.9184C10.7165 5.77797 10.5265 5.58754 10.3109 5.37155L9.67261 4.73323C9.38794 4.44856 9.32864 4.39607 9.27055 4.36047C9.20345 4.31935 9.13029 4.28905 9.05376 4.27068Z" fill="#000"/>
</svg>
