<svg width="24" height="24" viewBox="0 0 24 24" fill="none" xmlns="http://www.w3.org/2000/svg">
<path d="M20.896 4.774C20.582 4.158 20.091 3.667 19.477 3.355C18.782 3 18.019 3 16.501 3H12.737C12.588 3 12.434 3 12.32 2.957C12.289 2.934 12.185 2.812 12.092 2.704L11.544 2.065C11.349 1.838 11.221 1.688 11.034 1.559C10.867 1.444 10.683 1.36 10.492 1.31C10.271 1.25 10.081 1.25 9.76595 1.25H7.50195C5.98295 1.25 5.22195 1.25 4.52695 1.604C3.91195 1.917 3.42095 2.408 3.10595 3.024C2.75195 3.719 2.75195 4.481 2.75195 5.999V11.999C2.75195 13.518 2.75195 14.28 3.10595 14.975C3.41995 15.591 3.91095 16.082 4.52595 16.395C5.22095 16.749 5.98295 16.749 7.50095 16.749H11.251V19.377C10.612 19.603 10.105 20.11 9.87895 20.749H4.99995C4.58595 20.749 4.24995 21.085 4.24995 21.499C4.24995 21.913 4.58595 22.249 4.99995 22.249H9.87795C10.187 23.123 11.02 23.749 12 23.749C12.98 23.749 13.813 23.123 14.122 22.249H19C19.414 22.249 19.75 21.913 19.75 21.499C19.75 21.085 19.414 20.749 19 20.749H14.122C13.896 20.11 13.389 19.603 12.75 19.377V16.749H16.5C18.019 16.749 18.781 16.749 19.476 16.395C20.091 16.082 20.582 15.591 20.896 14.975C21.25 14.28 21.25 13.518 21.25 11.999V7.749C21.25 6.231 21.25 5.47 20.896 4.774ZM12 22.25C11.586 22.25 11.25 21.914 11.25 21.5C11.25 21.086 11.586 20.75 12 20.75C12.414 20.75 12.75 21.086 12.75 21.5C12.75 21.914 12.414 22.25 12 22.25ZM19.75 12C19.75 13.238 19.75 13.92 19.56 14.294C19.391 14.626 19.126 14.89 18.795 15.059C18.42 15.25 17.738 15.25 16.5 15.25H7.49995C6.26195 15.25 5.57995 15.25 5.20595 15.059C4.87895 14.893 4.60795 14.621 4.44095 14.295C4.24995 13.92 4.24995 13.238 4.24995 12V6C4.24995 4.762 4.24995 4.08 4.43995 3.706C4.60695 3.379 4.87795 3.107 5.20595 2.941C5.57995 2.75 6.26195 2.75 7.49995 2.75H9.76395C9.91095 2.75 10.064 2.75 10.181 2.794C10.211 2.817 10.309 2.931 10.409 3.047L10.951 3.678C11.148 3.908 11.278 4.061 11.466 4.19C11.633 4.305 11.818 4.39 12.012 4.441C12.232 4.499 12.422 4.499 12.736 4.499H16.5C17.738 4.499 18.42 4.499 18.795 4.69C19.126 4.858 19.39 5.123 19.559 5.454C19.75 5.829 19.75 6.51 19.75 7.748V11.998V12Z" fill="#000"/>
</svg>
