<svg width="24" height="24" viewBox="0 0 24 24" fill="none" xmlns="http://www.w3.org/2000/svg">
<path d="M17.7238 2.58145C18.0449 2.3198 18.0931 1.84738 17.8315 1.52627C17.5698 1.20516 17.0974 1.15695 16.7763 1.4186L13.3153 4.23863C11.4094 5.79164 11.0979 8.52865 12.4824 10.457L1.46967 21.4694C1.17678 21.7623 1.17677 22.2372 1.46966 22.5301C1.76256 22.823 2.23743 22.823 2.53033 22.5301L13.543 11.5176C15.4713 12.9022 18.2084 12.5907 19.7614 10.6847L22.5815 7.22378C22.8431 6.90267 22.7949 6.43024 22.4738 6.1686C22.1527 5.90695 21.6802 5.95516 21.4186 6.27627L18.5986 9.73723C17.4453 11.1526 15.3213 11.2607 14.0304 9.96969C12.7394 8.67872 12.8475 6.55474 14.2628 5.40149L17.7238 2.58145Z" fill="#000"/>
<path d="M2.7501 3.81069L9.46972 10.5303C9.76261 10.8232 10.2375 10.8232 10.5304 10.5303C10.8233 10.2374 10.8233 9.76253 10.5304 9.46964L3.77588 2.71515C2.84377 1.78303 1.25 2.4432 1.25 3.7614C1.25 7.31448 2.66146 10.722 5.17386 13.2344L5.96972 14.0303C6.26261 14.3232 6.73748 14.3232 7.03038 14.0303C7.32327 13.7374 7.32327 13.2625 7.03038 12.9696L6.23452 12.1738C4.01504 9.9543 2.76308 6.94815 2.7501 3.81069Z" fill="#000"/>
<path d="M13.4697 13.4696C13.7626 13.1767 14.2375 13.1767 14.5304 13.4696L22.5303 21.4696C22.8232 21.7625 22.8232 22.2374 22.5303 22.5303C22.2374 22.8231 21.7626 22.8231 21.4697 22.5303L15 16.0606L12.7374 18.3231C12.054 19.0066 10.946 19.0066 10.2626 18.3231L9.96972 18.0303C9.67682 17.7374 9.67682 17.2625 9.96972 16.9696C10.2626 16.6767 10.7375 16.6767 11.0304 16.9696L11.3232 17.2625C11.4209 17.3601 11.5791 17.3601 11.6768 17.2625L13.9393 14.9999L13.4697 14.5303C13.1768 14.2374 13.1768 13.7625 13.4697 13.4696Z" fill="#000"/>
<path d="M18.918 3.41406C19.2114 3.70644 19.2122 4.18132 18.9198 4.47472L15.731 7.67472C15.4386 7.96812 14.9637 7.96895 14.6703 7.67656C14.3769 7.38418 14.3761 6.90931 14.6685 6.61591L17.8573 3.41591C18.1497 3.1225 18.6246 3.12168 18.918 3.41406Z" fill="#000"/>
<path d="M20.5868 6.14074C20.8792 5.84733 20.8784 5.37246 20.585 5.08008C20.2916 4.78769 19.8167 4.78852 19.5243 5.08192L16.3354 8.28192C16.0431 8.57532 16.0439 9.0502 16.3373 9.34258C16.6307 9.63496 17.1056 9.63414 17.398 9.34073L20.5868 6.14074Z" fill="#000"/>
</svg>
