<svg width="24" height="24" viewBox="0 0 24 24" fill="none" xmlns="http://www.w3.org/2000/svg">
<path fill-rule="evenodd" clip-rule="evenodd" d="M9.95971 5.18011C8.40357 4.07618 6.25 5.18885 6.25 7.0968V16.8933C6.25 18.8012 8.40356 19.9139 9.95971 18.81L16.692 14.0341C16.7129 14.0192 16.7336 14.0041 16.7539 13.9887V18.4999C16.7539 18.9141 17.0897 19.2499 17.5039 19.2499C17.9181 19.2499 18.2539 18.9141 18.2539 18.4999V5.49988C18.2539 5.08566 17.9181 4.74988 17.5039 4.74988C17.0897 4.74988 16.7539 5.08566 16.7539 5.49988V10.0013C16.7336 9.98599 16.7129 9.97088 16.692 9.956L9.95971 5.18011ZM7.75 7.0968C7.75 6.40669 8.52895 6.00423 9.09181 6.40353L15.8241 11.1794C16.3859 11.578 16.3859 12.4121 15.8241 12.8106L9.09181 17.5865C8.52895 17.9858 7.75 17.5834 7.75 16.8933V7.0968Z" fill="#000"/>
</svg>
