<svg width="24" height="24" viewBox="0 0 24 24" fill="none" xmlns="http://www.w3.org/2000/svg">
<path fill-rule="evenodd" clip-rule="evenodd" d="M14.9595 5.18011C13.4033 4.07618 11.2498 5.18885 11.2498 7.0968V9.64248L4.95947 5.18011C3.40333 4.07618 1.24976 5.18885 1.24976 7.0968V16.8933C1.24976 18.8012 3.40332 19.9139 4.95947 18.81L11.2498 14.3476V16.8933C11.2498 18.8012 13.4033 19.9139 14.9595 18.81L21.6917 14.0341C23.0964 13.0376 23.0964 10.9525 21.6917 9.956L14.9595 5.18011ZM12.7498 7.0968C12.7498 6.40669 13.5287 6.00423 14.0916 6.40353L20.8238 11.1794C21.3857 11.578 21.3857 12.4121 20.8238 12.8106L14.0916 17.5865C13.5287 17.9858 12.7498 17.5834 12.7498 16.8933V7.0968ZM2.74976 7.0968C2.74976 6.40669 3.52871 6.00423 4.09157 6.40353L10.8238 11.1794C11.3857 11.578 11.3857 12.4121 10.8238 12.8106L4.09157 17.5865C3.52871 17.9858 2.74976 17.5834 2.74976 16.8933V7.0968Z" fill="#000"/>
</svg>
