<svg width="24" height="24" viewBox="0 0 24 24" fill="none" xmlns="http://www.w3.org/2000/svg">
<path fill-rule="evenodd" clip-rule="evenodd" d="M14.9597 5.18011C13.4036 4.07618 11.25 5.18885 11.25 7.0968V9.64248L4.95971 5.18011C3.40357 4.07618 1.25 5.18885 1.25 7.0968V16.8933C1.25 18.8012 3.40356 19.9139 4.95971 18.81L11.25 14.3476V16.8933C11.25 18.8012 13.4036 19.9139 14.9597 18.81L21.692 14.0341C23.0966 13.0376 23.0966 10.9525 21.692 9.956L14.9597 5.18011ZM12.75 7.0968C12.75 6.40669 13.5289 6.00423 14.0918 6.40353L20.8241 11.1794C21.3859 11.578 21.3859 12.4121 20.8241 12.8106L14.0918 17.5865C13.529 17.9858 12.75 17.5834 12.75 16.8933V7.0968ZM2.75 7.0968C2.75 6.40669 3.52895 6.00423 4.09181 6.40353L10.8241 11.1794C11.3859 11.578 11.3859 12.4121 10.8241 12.8106L4.09181 17.5865C3.52895 17.9858 2.75 17.5834 2.75 16.8933V7.0968Z" fill="#000"/>
</svg>
