<svg width="24" height="24" viewBox="0 0 24 24" fill="none" xmlns="http://www.w3.org/2000/svg">
<path d="M16.5 12.5C16.5 11.9477 16.9477 11.5 17.5 11.5C18.0523 11.5 18.5001 11.9477 18.5001 12.5C18.5001 13.0523 18.0524 13.5 17.5001 13.5C16.9478 13.5 16.5 13.0523 16.5 12.5Z" fill="#000"/>
<path d="M15 14C14.4477 14 14 14.4477 14 15C14 15.5523 14.4477 16 15 16C15.5523 16 16.0001 15.5523 16.0001 15C16.0001 14.4477 15.5523 14 15 14Z" fill="#000"/>
<path d="M8 11.25C8.41421 11.25 8.75 11.5858 8.75 12V13.25H10C10.4142 13.25 10.75 13.5858 10.75 14C10.75 14.4142 10.4142 14.75 10 14.75H8.75V16C8.75 16.4142 8.41421 16.75 8 16.75C7.58579 16.75 7.25 16.4142 7.25 16V14.75H6C5.58579 14.75 5.25 14.4142 5.25 14C5.25 13.5858 5.58579 13.25 6 13.25H7.25V12C7.25 11.5858 7.58579 11.25 8 11.25Z" fill="#000"/>
<path fill-rule="evenodd" clip-rule="evenodd" d="M17 1.25C17.4142 1.25 17.75 1.58579 17.75 2C17.75 3.51878 16.5188 4.75 15 4.75H14C13.3096 4.75 12.75 5.30964 12.75 6V6.25H16C20.2802 6.25 23.75 9.71979 23.75 14C23.75 18.2802 20.2802 21.75 16 21.75H8C3.71979 21.75 0.25 18.2802 0.25 14C0.25 9.71979 3.71979 6.25 8 6.25H11.25V6C11.25 4.48122 12.4812 3.25 14 3.25H15C15.6904 3.25 16.25 2.69036 16.25 2C16.25 1.58579 16.5858 1.25 17 1.25ZM8 7.75C4.54822 7.75 1.75 10.5482 1.75 14C1.75 17.4518 4.54822 20.25 8 20.25H16C19.4518 20.25 22.25 17.4518 22.25 14C22.25 10.5482 19.4518 7.75 16 7.75H8Z" fill="#000"/>
</svg>
