<svg width="24" height="24" viewBox="0 0 24 24" fill="none" xmlns="http://www.w3.org/2000/svg">
<path fill-rule="evenodd" clip-rule="evenodd" d="M11.9999 8.25C9.92881 8.25 8.24988 9.92893 8.24988 12C8.24988 14.0711 9.92881 15.75 11.9999 15.75C14.0709 15.75 15.7499 14.0711 15.7499 12C15.7499 9.92893 14.0709 8.25 11.9999 8.25ZM9.74988 12C9.74988 10.7574 10.7572 9.75 11.9999 9.75C13.2425 9.75 14.2499 10.7574 14.2499 12C14.2499 13.2426 13.2425 14.25 11.9999 14.25C10.7572 14.25 9.74988 13.2426 9.74988 12Z" fill="#000"/>
<path fill-rule="evenodd" clip-rule="evenodd" d="M3.00227 12.8734C1.80404 13.5665 1.39452 15.1002 2.0855 16.2991L3.32494 18.4497C4.01637 19.6495 5.5489 20.0616 6.7479 19.3681C7.41601 18.9816 8.2552 19.4633 8.2552 20.2416C8.2552 21.6257 9.37555 22.75 10.7604 22.75H13.2392C14.6241 22.75 15.7445 21.6256 15.7445 20.2416C15.7445 19.4632 16.5837 18.9816 17.2518 19.368C18.4508 20.0614 19.9833 19.6494 20.6747 18.4496L21.9142 16.299C22.6052 15.1 22.1957 13.5664 20.9975 12.8734C20.3267 12.4854 20.3267 11.5143 20.9975 11.1264C22.1957 10.4334 22.6052 8.8997 21.9142 7.70078L20.6747 5.55011C19.9833 4.35038 18.4508 3.93833 17.2518 4.6318C16.5837 5.01823 15.7445 4.53654 15.7445 3.7583C15.7445 2.37427 14.6242 1.25 13.2393 1.25H10.7603C9.37552 1.25 8.2552 2.37425 8.2552 3.75827C8.2552 4.53644 7.41606 5.01814 6.74793 4.6317C5.54896 3.93824 4.01638 4.35027 3.32494 5.55001L2.0855 7.70061C1.39452 8.89956 1.80404 10.4333 3.00227 11.1263C3.6731 11.5143 3.6731 12.4854 3.00227 12.8734ZM3.38512 15.5502C3.10671 15.0671 3.27247 14.45 3.75327 14.1719C5.42276 13.2063 5.42276 10.7935 3.75327 9.82786C3.27247 9.54977 3.10671 8.93268 3.38512 8.4496L4.62456 6.29901C4.90249 5.81675 5.51691 5.65253 5.99693 5.93016C7.66898 6.89724 9.7552 5.68712 9.7552 3.75827C9.7552 3.20015 10.2065 2.75 10.7603 2.75L13.2393 2.75C13.7932 2.75 14.2445 3.20017 14.2445 3.7583C14.2445 5.68715 16.3307 6.89737 18.0028 5.93026C18.4828 5.65263 19.0972 5.81685 19.3751 6.29911L20.6146 8.44978C20.893 8.93282 20.7273 9.54986 20.2465 9.82792C18.577 10.7935 18.577 13.2063 20.2465 14.1718C20.7273 14.4499 20.893 15.0669 20.6146 15.55L19.3751 17.7006C19.0972 18.1829 18.4828 18.3471 18.0028 18.0695C16.3306 17.1023 14.2445 18.3128 14.2445 20.2416C14.2445 20.7998 13.7932 21.25 13.2392 21.25H10.7604C10.2065 21.25 9.7552 20.7998 9.7552 20.2416C9.7552 18.3128 7.66905 17.1025 5.99689 18.0696C5.51689 18.3472 4.9025 18.183 4.62456 17.7008L3.38512 15.5502Z" fill="#000"/>
</svg>
