<svg width="24" height="24" viewBox="0 0 24 24" fill="none" xmlns="http://www.w3.org/2000/svg">
<path fill-rule="evenodd" clip-rule="evenodd" d="M21.25 12.6163C21.3414 12.5869 21.432 12.5504 21.5215 12.5048C21.9448 12.2891 22.2891 11.9448 22.5048 11.5215C22.6494 11.2377 22.7028 10.9428 22.7271 10.6463C22.75 10.3654 22.75 10.0243 22.75 9.62902V9.37108C22.75 8.97576 22.75 8.63463 22.7271 8.35373C22.7028 8.05722 22.6494 7.76231 22.5048 7.47852C22.2891 7.05516 21.9448 6.71095 21.5215 6.49524C21.2377 6.35064 20.9428 6.29715 20.6463 6.27293C20.3653 6.24998 20.0243 6.24999 19.6289 6.25H18.9287C20.1247 4.49927 19.3173 1.71839 16.8182 1.29484C15.8332 1.12789 14.8269 1.4326 14.1 2.11793L12.0013 4.09654L9.90259 2.11793C9.17567 1.4326 8.1694 1.12789 7.1844 1.29484C4.68533 1.71839 3.87791 4.49927 5.07388 6.25H4.37109C3.97573 6.24999 3.63466 6.24998 3.35373 6.27293C3.05722 6.29715 2.76231 6.35064 2.47852 6.49524C2.05516 6.71095 1.71095 7.05516 1.49524 7.47852C1.35064 7.76231 1.29715 8.05722 1.27293 8.35373C1.24998 8.63465 1.24999 8.97572 1.25 9.37107V9.62891C1.24999 10.0243 1.24998 10.3653 1.27293 10.6463C1.29715 10.9428 1.35064 11.2377 1.49524 11.5215C1.71095 11.9448 2.05516 12.2891 2.47852 12.5048C2.56801 12.5504 2.6586 12.5869 2.75 12.6163L2.75 17.2321C2.74999 18.0449 2.74999 18.7006 2.79336 19.2315C2.83803 19.7781 2.93239 20.2582 3.15873 20.7025C3.51825 21.4081 4.09193 21.9818 4.79754 22.3413C5.24176 22.5676 5.7219 22.662 6.26853 22.7066C6.79944 22.75 7.45505 22.75 8.26788 22.75H15.7321C16.545 22.75 17.2006 22.75 17.7315 22.7066C18.2781 22.662 18.7582 22.5676 19.2025 22.3413C19.9081 21.9818 20.4817 21.4081 20.8413 20.7025C21.0676 20.2582 21.162 19.7781 21.2066 19.2315C21.25 18.7006 21.25 18.045 21.25 17.2321V12.6163ZM7.43506 2.77374C7.95635 2.68539 8.48891 2.84666 8.87362 3.20935L11.25 5.44976V6.25H7.76479L7.13633 6.01956C5.51294 5.42432 5.7303 3.06268 7.43506 2.77374ZM12.75 6.25V5.4522L15.129 3.20935C15.5137 2.84666 16.0462 2.68539 16.5675 2.77374C18.2723 3.06268 18.4896 5.42432 16.8663 6.01956L16.2378 6.25H12.75ZM7.64929 7.75H11.25L11.25 11.25H4.4C3.96759 11.25 3.68838 11.2494 3.47588 11.2321C3.27213 11.2154 3.19659 11.1872 3.15951 11.1683C3.01839 11.0964 2.90365 10.9816 2.83175 10.8405C2.81285 10.8034 2.78459 10.7279 2.76795 10.5241C2.75059 10.3116 2.75 10.0324 2.75 9.6V9.4C2.75 8.96759 2.75059 8.68838 2.76795 8.47588C2.78459 8.27213 2.81285 8.19659 2.83175 8.15951C2.90365 8.01839 3.01839 7.90365 3.15951 7.83175C3.19659 7.81285 3.27213 7.78459 3.47588 7.76795C3.68838 7.75058 3.96759 7.75 4.4 7.75H7.61387C7.6257 7.75028 7.63751 7.75028 7.64929 7.75ZM12.75 7.75L12.75 11.25H19.6C20.0324 11.25 20.3116 11.2494 20.5241 11.2321C20.7279 11.2154 20.8034 11.1872 20.8405 11.1683C20.9816 11.0964 21.0964 10.9816 21.1683 10.8405C21.1872 10.8034 21.2154 10.7279 21.2321 10.5241C21.2494 10.3116 21.25 10.0324 21.25 9.6V9.4C21.25 8.96759 21.2494 8.68838 21.2321 8.47588C21.2154 8.27213 21.1872 8.19659 21.1683 8.15951C21.0964 8.01839 20.9816 7.90365 20.8405 7.83175C20.8034 7.81285 20.7279 7.78459 20.5241 7.76795C20.3116 7.75058 20.0324 7.75 19.6 7.75H16.3887C16.3769 7.75028 16.3651 7.75028 16.3533 7.75H12.75ZM19.6289 12.75H12.75L12.75 21.25H15.7C16.5525 21.25 17.1467 21.2494 17.6093 21.2116C18.0632 21.1745 18.324 21.1054 18.5215 21.0048C18.9448 20.789 19.289 20.4448 19.5048 20.0215C19.6054 19.824 19.6745 19.5632 19.7116 19.1093C19.7494 18.6467 19.75 18.0525 19.75 17.2V12.75C19.7102 12.75 19.6699 12.75 19.6289 12.75ZM11.25 21.25L11.25 12.75H4.3711C4.33015 12.75 4.28978 12.75 4.25 12.75V17.2C4.25 18.0525 4.25058 18.6467 4.28838 19.1093C4.32547 19.5632 4.3946 19.824 4.49524 20.0215C4.71095 20.4448 5.05516 20.789 5.47852 21.0048C5.67604 21.1054 5.93681 21.1745 6.39068 21.2116C6.85331 21.2494 7.44755 21.25 8.3 21.25H11.25Z" fill="#000"/>
</svg>
