<svg width="24" height="24" viewBox="0 0 24 24" fill="none" xmlns="http://www.w3.org/2000/svg">
<path fill-rule="evenodd" clip-rule="evenodd" d="M3.20516 4.91802C3.5926 3.13424 5.57851 2.216 7.18848 3.07624L8.35345 3.6987C8.71878 3.89391 8.8567 4.34831 8.66149 4.71364C8.46629 5.07898 8.01188 5.21689 7.64655 5.02169L6.48159 4.39923C5.74978 4.00821 4.84709 4.42559 4.67099 5.2364L3.2 12.0089C3.17594 12.1197 3.15284 12.2306 3.1307 12.3417C3.98582 11.6583 5.0702 11.2496 6.25003 11.2496C8.48889 11.2496 10.3841 12.7211 11.0212 14.7498H12.979C13.6162 12.7214 15.5113 11.2501 17.75 11.2501C18.9299 11.2501 20.0143 11.6587 20.8695 12.3422C20.8473 12.231 20.8241 12.1198 20.8 12.0089L19.3291 5.2364C19.153 4.42559 18.2503 4.00821 17.5185 4.39923L16.3535 5.02169C15.9882 5.21689 15.5338 5.07898 15.3386 4.71364C15.1434 4.34831 15.2813 3.89391 15.6466 3.6987L16.8116 3.07624C18.4215 2.216 20.4074 3.13424 20.7949 4.91802L22.2659 11.6905C22.5877 13.1724 22.75 14.6844 22.75 16.2008V16.2499C22.75 19.0113 20.5114 21.2501 17.75 21.2501C14.9886 21.2501 12.75 19.0115 12.75 16.2501L11.25 16.2498C11.25 19.0111 9.01141 21.2496 6.25003 21.2496C3.48868 21.2496 1.25015 19.0112 1.25003 16.2499L1.25 16.2008C1.25 14.6844 1.41232 13.1724 1.73418 11.6905L3.20516 4.91802ZM6.25003 12.7496C4.31703 12.7496 2.75003 14.3166 2.75003 16.2496C2.75003 18.1826 4.31703 19.7496 6.25003 19.7496C8.18302 19.7496 9.75002 18.1826 9.75002 16.2496C9.75002 14.3166 8.18302 12.7496 6.25003 12.7496ZM17.75 12.7501C15.817 12.7501 14.25 14.3171 14.25 16.2501C14.25 18.1831 15.817 19.7501 17.75 19.7501C19.683 19.7501 21.25 18.1831 21.25 16.2501C21.25 14.3171 19.683 12.7501 17.75 12.7501Z" fill="#000"/>
</svg>
