<svg width="24" height="24" viewBox="0 0 24 24" fill="none" xmlns="http://www.w3.org/2000/svg">
<path fill-rule="evenodd" clip-rule="evenodd" d="M3.20504 4.91802C3.59248 3.13424 5.57839 2.216 7.18836 3.07624L8.35333 3.6987C8.71866 3.89391 8.85658 4.34831 8.66137 4.71364C8.46617 5.07898 8.01176 5.21689 7.64643 5.02169L6.48146 4.39923C5.74966 4.00821 4.84697 4.42559 4.67086 5.2364L3.19988 12.0089C3.17582 12.1197 3.15272 12.2306 3.13058 12.3417C3.9857 11.6583 5.07008 11.2496 6.2499 11.2496C8.48877 11.2496 10.3839 12.7211 11.021 14.7498H12.9789C13.6161 12.7214 15.5112 11.2501 17.7499 11.2501C18.9298 11.2501 20.0142 11.6587 20.8693 12.3422C20.8472 12.231 20.824 12.1198 20.7999 12.0089L19.3289 5.2364C19.1528 4.42559 18.2501 4.00821 17.5183 4.39923L16.3534 5.02169C15.988 5.21689 15.5336 5.07898 15.3384 4.71364C15.1432 4.34831 15.2811 3.89391 15.6465 3.6987L16.8114 3.07624C18.4214 2.216 20.4073 3.13424 20.7948 4.91802L22.2657 11.6905C22.5876 13.1724 22.7499 14.6844 22.7499 16.2008V16.2499C22.7499 19.0113 20.5113 21.2501 17.7499 21.2501C14.9885 21.2501 12.7499 19.0115 12.7499 16.2501L11.2499 16.2498C11.2498 19.0111 9.01129 21.2496 6.2499 21.2496C3.48856 21.2496 1.25003 19.0112 1.2499 16.2499L1.24988 16.2008C1.24988 14.6844 1.41219 13.1724 1.73406 11.6905L3.20504 4.91802ZM6.2499 12.7496C4.31691 12.7496 2.7499 14.3166 2.7499 16.2496C2.7499 18.1826 4.31691 19.7496 6.2499 19.7496C8.1829 19.7496 9.7499 18.1826 9.7499 16.2496C9.7499 14.3166 8.1829 12.7496 6.2499 12.7496ZM17.7499 12.7501C15.8169 12.7501 14.2499 14.3171 14.2499 16.2501C14.2499 18.1831 15.8169 19.7501 17.7499 19.7501C19.6829 19.7501 21.2499 18.1831 21.2499 16.2501C21.2499 14.3171 19.6829 12.7501 17.7499 12.7501Z" fill="#000"/>
</svg>
