<svg width="24" height="24" viewBox="0 0 24 24" fill="none" xmlns="http://www.w3.org/2000/svg">
<g clip-path="url(#clip0_9002_7359)">
<path fill-rule="evenodd" clip-rule="evenodd" d="M0.25 12C0.25 5.51065 5.51065 0.25 12 0.25C18.4891 0.25 23.7497 5.51033 23.75 11.9994C23.75 11.9996 23.75 11.9992 23.75 11.9994C23.75 12.0002 23.75 12.0016 23.75 12.0024C23.7487 18.4907 18.4885 23.75 12 23.75C5.51065 23.75 0.25 18.4893 0.25 12ZM1.77702 11.25C2.08691 6.96476 5.03122 3.40971 8.99828 2.19654C8.61955 2.77051 8.29368 3.44238 8.01737 4.17184C7.26941 6.14646 6.83219 8.6834 6.7605 11.25H1.77702ZM22.223 11.25C21.9131 6.96474 18.9688 3.40968 15.0017 2.19652C15.3804 2.7705 15.7063 3.44237 15.9826 4.17184C16.7306 6.14646 17.1678 8.68339 17.2395 11.25H22.223ZM17.2363 12.75H22.223C21.9096 17.0831 18.9026 20.6697 14.8683 21.8433C15.3054 21.1784 15.6769 20.3815 15.9865 19.5257C16.7184 17.5024 17.1555 15.0049 17.2363 12.75ZM15.7389 11.25C15.6673 8.82754 15.2524 6.47853 14.5799 4.70318C14.2082 3.72199 13.7735 2.95797 13.3101 2.45179C12.8514 1.95079 12.413 1.75001 12 1.75001C11.587 1.75001 11.1486 1.95079 10.6899 2.45179C10.2264 2.95797 9.79177 3.72198 9.42011 4.70318C8.74763 6.47853 8.33271 8.82753 8.2611 11.25H15.7389ZM8.2611 12.75H15.7353C15.6546 14.8507 15.2437 17.1694 14.576 19.0155C14.2009 20.0524 13.7605 20.8958 13.2866 21.4657C12.8125 22.0358 12.3806 22.248 12.0054 22.25H11.9937C11.5826 22.248 11.1463 22.0467 10.6899 21.5482C10.2264 21.0421 9.79177 20.278 9.42011 19.2968C8.74763 17.5215 8.3327 15.1725 8.2611 12.75ZM6.7605 12.75C6.83219 15.3166 7.26941 17.8536 8.01737 19.8282C8.29367 20.5576 8.61954 21.2295 8.99825 21.8035C5.03121 20.5903 2.08691 17.0352 1.77702 12.75H6.7605Z" fill="#000"/>
</g>
<defs>
<clipPath id="clip0_9002_7359">
<rect width="24" height="24" fill="white"/>
</clipPath>
</defs>
</svg>
