<svg width="24" height="24" viewBox="0 0 24 24" fill="none" xmlns="http://www.w3.org/2000/svg">
<path fill-rule="evenodd" clip-rule="evenodd" d="M4.37109 1.25H7.62891C8.02426 1.24999 8.36535 1.24998 8.64627 1.27293C8.94278 1.29715 9.2377 1.35064 9.52148 1.49524C9.94485 1.71095 10.2891 2.05516 10.5048 2.47852C10.6494 2.76231 10.7028 3.05722 10.7271 3.35373C10.75 3.63466 10.75 3.97572 10.75 4.37108V7.62893C10.75 8.02428 10.75 8.36535 10.7271 8.64627C10.7028 8.94278 10.6494 9.2377 10.5048 9.52148C10.2891 9.94485 9.94485 10.2891 9.52148 10.5048C9.2377 10.6494 8.94278 10.7028 8.64627 10.7271C8.36535 10.75 8.02428 10.75 7.62893 10.75H4.37108C3.97572 10.75 3.63466 10.75 3.35373 10.7271C3.05722 10.7028 2.76231 10.6494 2.47852 10.5048C2.05516 10.2891 1.71095 9.94485 1.49524 9.52148C1.35064 9.2377 1.29715 8.94278 1.27293 8.64627C1.24998 8.36535 1.24999 8.02429 1.25 7.62894V4.37109C1.24999 3.97574 1.24998 3.63465 1.27293 3.35373C1.29715 3.05722 1.35064 2.76231 1.49524 2.47852C1.71095 2.05516 2.05516 1.71095 2.47852 1.49524C2.76231 1.35064 3.05722 1.29715 3.35373 1.27293C3.63465 1.24998 3.97574 1.24999 4.37109 1.25ZM3.47588 2.76795C3.27213 2.78459 3.19659 2.81285 3.15951 2.83175C3.01839 2.90365 2.90365 3.01839 2.83175 3.15951C2.81285 3.19659 2.78459 3.27213 2.76795 3.47588C2.75059 3.68838 2.75 3.96759 2.75 4.4V7.6C2.75 8.03242 2.75059 8.31162 2.76795 8.52413C2.78459 8.72787 2.81285 8.80341 2.83175 8.84049C2.90365 8.98162 3.01839 9.09635 3.15951 9.16826C3.19659 9.18715 3.27213 9.21541 3.47588 9.23206C3.68838 9.24942 3.96759 9.25 4.4 9.25H7.6C8.03242 9.25 8.31162 9.24942 8.52413 9.23206C8.72787 9.21541 8.80341 9.18715 8.84049 9.16826C8.98162 9.09635 9.09635 8.98162 9.16826 8.84049C9.18715 8.80341 9.21541 8.72787 9.23206 8.52413C9.24942 8.31162 9.25 8.03242 9.25 7.6V4.4C9.25 3.96759 9.24942 3.68838 9.23206 3.47588C9.21541 3.27213 9.18715 3.19659 9.16826 3.15951C9.09635 3.01839 8.98162 2.90365 8.84049 2.83175C8.80341 2.81285 8.72787 2.78459 8.52413 2.76795C8.31162 2.75059 8.03242 2.75 7.6 2.75H4.4C3.96759 2.75 3.68838 2.75059 3.47588 2.76795Z" fill="#000"/>
<path fill-rule="evenodd" clip-rule="evenodd" d="M19.6289 1.25H16.3711C15.9757 1.24999 15.6347 1.24998 15.3537 1.27293C15.0572 1.29715 14.7623 1.35064 14.4785 1.49524C14.0552 1.71095 13.711 2.05516 13.4952 2.47852C13.3506 2.76231 13.2972 3.05722 13.2729 3.35373C13.25 3.63465 13.25 3.97571 13.25 4.37105V7.62891C13.25 8.02425 13.25 8.36535 13.2729 8.64627C13.2972 8.94278 13.3506 9.2377 13.4952 9.52148C13.711 9.94485 14.0552 10.2891 14.4785 10.5048C14.7623 10.6494 15.0572 10.7028 15.3537 10.7271C15.6347 10.75 15.9757 10.75 16.3711 10.75H19.6289C20.0243 10.75 20.3653 10.75 20.6463 10.7271C20.9428 10.7028 21.2377 10.6494 21.5215 10.5048C21.9448 10.2891 22.2891 9.94485 22.5048 9.52148C22.6494 9.2377 22.7028 8.94278 22.7271 8.64627C22.75 8.36535 22.75 8.02428 22.75 7.62893V4.37108C22.75 3.97572 22.75 3.63466 22.7271 3.35373C22.7028 3.05722 22.6494 2.76231 22.5048 2.47852C22.2891 2.05516 21.9448 1.71095 21.5215 1.49524C21.2377 1.35064 20.9428 1.29715 20.6463 1.27293C20.3654 1.24998 20.0243 1.24999 19.6289 1.25ZM15.1595 2.83175C15.1966 2.81285 15.2721 2.78459 15.4759 2.76795C15.6884 2.75059 15.9676 2.75 16.4 2.75H19.6C20.0324 2.75 20.3116 2.75059 20.5241 2.76795C20.7279 2.78459 20.8034 2.81285 20.8405 2.83175C20.9816 2.90365 21.0964 3.01839 21.1683 3.15951C21.1872 3.19659 21.2154 3.27213 21.2321 3.47588C21.2494 3.68838 21.25 3.96759 21.25 4.4V7.6C21.25 8.03242 21.2494 8.31162 21.2321 8.52413C21.2154 8.72787 21.1872 8.80341 21.1683 8.84049C21.0964 8.98162 20.9816 9.09635 20.8405 9.16826C20.8034 9.18715 20.7279 9.21541 20.5241 9.23206C20.3116 9.24942 20.0324 9.25 19.6 9.25H16.4C15.9676 9.25 15.6884 9.24942 15.4759 9.23206C15.2721 9.21541 15.1966 9.18715 15.1595 9.16826C15.0184 9.09635 14.9037 8.98162 14.8317 8.84049C14.8129 8.80341 14.7846 8.72787 14.7679 8.52413C14.7506 8.31162 14.75 8.03242 14.75 7.6V4.4C14.75 3.96759 14.7506 3.68838 14.7679 3.47588C14.7846 3.27213 14.8129 3.19659 14.8317 3.15951C14.9037 3.01839 15.0184 2.90365 15.1595 2.83175Z" fill="#000"/>
<path fill-rule="evenodd" clip-rule="evenodd" d="M19.6289 13.25H16.3711C15.9758 13.25 15.6346 13.25 15.3537 13.2729C15.0572 13.2972 14.7623 13.3506 14.4785 13.4952C14.0552 13.711 13.711 14.0552 13.4952 14.4785C13.3506 14.7623 13.2972 15.0572 13.2729 15.3537C13.25 15.6346 13.25 15.9757 13.25 16.371V19.6289C13.25 20.0243 13.25 20.3654 13.2729 20.6463C13.2972 20.9428 13.3506 21.2377 13.4952 21.5215C13.711 21.9448 14.0552 22.2891 14.4785 22.5048C14.7623 22.6494 15.0572 22.7028 15.3537 22.7271C15.6347 22.75 15.9757 22.75 16.3711 22.75H19.6289C20.0243 22.75 20.3653 22.75 20.6463 22.7271C20.9428 22.7028 21.2377 22.6494 21.5215 22.5048C21.9448 22.2891 22.2891 21.9448 22.5048 21.5215C22.6494 21.2377 22.7028 20.9428 22.7271 20.6463C22.75 20.3653 22.75 20.0243 22.75 19.6289V16.3711C22.75 15.9757 22.75 15.6347 22.7271 15.3537C22.7028 15.0572 22.6494 14.7623 22.5048 14.4785C22.2891 14.0552 21.9448 13.711 21.5215 13.4952C21.2377 13.3506 20.9428 13.2972 20.6463 13.2729C20.3654 13.25 20.0243 13.25 19.6289 13.25ZM15.1595 14.8317C15.1966 14.8129 15.2721 14.7846 15.4759 14.7679C15.6884 14.7506 15.9676 14.75 16.4 14.75H19.6C20.0324 14.75 20.3116 14.7506 20.5241 14.7679C20.7279 14.7846 20.8034 14.8129 20.8405 14.8317C20.9816 14.9037 21.0964 15.0184 21.1683 15.1595C21.1872 15.1966 21.2154 15.2721 21.2321 15.4759C21.2494 15.6884 21.25 15.9676 21.25 16.4V19.6C21.25 20.0324 21.2494 20.3116 21.2321 20.5241C21.2154 20.7279 21.1872 20.8034 21.1683 20.8405C21.0964 20.9816 20.9816 21.0964 20.8405 21.1683C20.8034 21.1872 20.7279 21.2154 20.5241 21.2321C20.3116 21.2494 20.0324 21.25 19.6 21.25H16.4C15.9676 21.25 15.6884 21.2494 15.4759 21.2321C15.2721 21.2154 15.1966 21.1872 15.1595 21.1683C15.0184 21.0964 14.9037 20.9816 14.8317 20.8405C14.8129 20.8034 14.7846 20.7279 14.7679 20.5241C14.7506 20.3116 14.75 20.0324 14.75 19.6V16.4C14.75 15.9676 14.7506 15.6884 14.7679 15.4759C14.7846 15.2721 14.8129 15.1966 14.8317 15.1595C14.9037 15.0184 15.0184 14.9037 15.1595 14.8317Z" fill="#000"/>
<path fill-rule="evenodd" clip-rule="evenodd" d="M7.62891 13.25H4.37109C3.97575 13.25 3.63465 13.25 3.35373 13.2729C3.05722 13.2972 2.76231 13.3506 2.47852 13.4952C2.05516 13.711 1.71095 14.0552 1.49524 14.4785C1.35064 14.7623 1.29715 15.0572 1.27293 15.3537C1.24998 15.6347 1.24999 15.9757 1.25 16.3711V19.6289C1.24999 20.0243 1.24998 20.3654 1.27293 20.6463C1.29715 20.9428 1.35064 21.2377 1.49524 21.5215C1.71095 21.9448 2.05516 22.2891 2.47852 22.5048C2.76231 22.6494 3.05722 22.7028 3.35373 22.7271C3.63466 22.75 3.97572 22.75 4.37108 22.75H7.62893C8.02428 22.75 8.36535 22.75 8.64627 22.7271C8.94278 22.7028 9.2377 22.6494 9.52148 22.5048C9.94485 22.2891 10.2891 21.9448 10.5048 21.5215C10.6494 21.2377 10.7028 20.9428 10.7271 20.6463C10.75 20.3653 10.75 20.0243 10.75 19.6289V16.3711C10.75 15.9757 10.75 15.6347 10.7271 15.3537C10.7028 15.0572 10.6494 14.7623 10.5048 14.4785C10.2891 14.0552 9.94485 13.711 9.52148 13.4952C9.2377 13.3506 8.94278 13.2972 8.64627 13.2729C8.36536 13.25 8.02425 13.25 7.62891 13.25ZM3.15951 14.8317C3.19659 14.8129 3.27213 14.7846 3.47588 14.7679C3.68838 14.7506 3.96759 14.75 4.4 14.75H7.6C8.03242 14.75 8.31162 14.7506 8.52413 14.7679C8.72787 14.7846 8.80341 14.8129 8.84049 14.8317C8.98162 14.9037 9.09635 15.0184 9.16826 15.1595C9.18715 15.1966 9.21541 15.2721 9.23206 15.4759C9.24942 15.6884 9.25 15.9676 9.25 16.4V19.6C9.25 20.0324 9.24942 20.3116 9.23206 20.5241C9.21541 20.7279 9.18715 20.8034 9.16826 20.8405C9.09635 20.9816 8.98162 21.0964 8.84049 21.1683C8.80341 21.1872 8.72787 21.2154 8.52413 21.2321C8.31162 21.2494 8.03242 21.25 7.6 21.25H4.4C3.96759 21.25 3.68838 21.2494 3.47588 21.2321C3.27213 21.2154 3.19659 21.1872 3.15951 21.1683C3.01839 21.0964 2.90365 20.9816 2.83175 20.8405C2.81285 20.8034 2.78459 20.7279 2.76795 20.5241C2.75059 20.3116 2.75 20.0324 2.75 19.6V16.4C2.75 15.9676 2.75059 15.6884 2.76795 15.4759C2.78459 15.2721 2.81285 15.1966 2.83175 15.1595C2.90365 15.0184 3.01839 14.9037 3.15951 14.8317Z" fill="#000"/>
</svg>
