<svg width="24" height="24" viewBox="0 0 24 24" fill="none" xmlns="http://www.w3.org/2000/svg">
<path d="M9.75 7.5C9.75 7.08579 9.41421 6.75 9 6.75C8.58579 6.75 8.25 7.08579 8.25 7.5V16.5C8.25 16.9142 8.58579 17.25 9 17.25C9.41421 17.25 9.75 16.9142 9.75 16.5V12.75H14.25V16.5C14.25 16.9142 14.5858 17.25 15 17.25C15.4142 17.25 15.75 16.9142 15.75 16.5V7.5C15.75 7.08579 15.4142 6.75 15 6.75C14.5858 6.75 14.25 7.08579 14.25 7.5V11.25H9.75V7.5Z" fill="#000"/>
<path fill-rule="evenodd" clip-rule="evenodd" d="M12 0.25C5.51065 0.25 0.25 5.51065 0.25 12C0.25 18.4893 5.51065 23.75 12 23.75C18.4893 23.75 23.75 18.4893 23.75 12C23.75 5.51065 18.4893 0.25 12 0.25ZM1.75 12C1.75 6.33908 6.33908 1.75 12 1.75C17.6609 1.75 22.25 6.33908 22.25 12C22.25 17.6609 17.6609 22.25 12 22.25C6.33908 22.25 1.75 17.6609 1.75 12Z" fill="#000"/>
</svg>
