<svg width="24" height="24" viewBox="0 0 24 24" fill="none" xmlns="http://www.w3.org/2000/svg">
<path d="M12.75 2C12.75 1.58579 12.4143 1.25 12 1.25C11.5858 1.25 11.25 1.58579 11.25 2V2.55475C10.6846 2.64081 10.1689 2.83007 9.74762 3.13519C9.12349 3.58721 8.75004 4.26705 8.75004 5.08168C8.75004 6.13322 9.33412 6.79171 10.0087 7.16933C10.6359 7.52042 11.3815 7.65724 11.8767 7.73978C12.3815 7.8239 12.8859 7.93083 13.2587 8.13952C13.5841 8.32168 13.75 8.53901 13.75 8.91828C13.75 9.23222 13.6235 9.46823 13.3726 9.64992C13.0993 9.84788 12.6435 9.99998 12 9.99998C11.5594 9.99998 11.2858 9.95282 11.0266 9.84998C10.7498 9.7402 10.4411 9.5482 9.9528 9.17847C9.62257 8.92842 9.15217 8.99342 8.90212 9.32364C8.65207 9.65387 8.71706 10.1243 9.04729 10.3743C9.55901 10.7618 10.0003 11.0566 10.4735 11.2443C10.7316 11.3467 10.9857 11.4121 11.25 11.4511V12C11.25 12.4142 11.5858 12.75 12 12.75C12.4143 12.75 12.75 12.4142 12.75 12V11.4452C13.3154 11.3592 13.8312 11.1699 14.2525 10.8648C14.8766 10.4128 15.25 9.73292 15.25 8.91828C15.25 7.86674 14.666 7.20825 13.9914 6.83064C13.3642 6.47955 12.6186 6.34273 12.1233 6.26019C11.6186 6.17606 11.1142 6.06914 10.7414 5.86045C10.416 5.67828 10.25 5.46096 10.25 5.08168C10.25 4.76774 10.3766 4.53173 10.6275 4.35004C10.9008 4.15208 11.3566 3.99998 12 3.99998C12.4407 3.99998 12.7143 4.04714 12.9735 4.14996C13.2503 4.25974 13.559 4.45172 14.0473 4.82144C14.3775 5.07149 14.8479 5.0065 15.098 4.67627C15.348 4.34605 15.283 3.87564 14.9528 3.62559C14.4411 3.23811 13.9998 2.94332 13.5266 2.75563C13.2685 2.65327 13.0143 2.58786 12.75 2.54886V2Z" fill="#000"/>
<path d="M19.6851 15.3124C20.4396 15.0227 21.25 15.5797 21.25 16.3878C21.25 16.804 21.0255 17.1878 20.6628 17.3918L14.888 20.6401C14.177 21.0401 13.375 21.2501 12.5593 21.2501H2C1.58579 21.2501 1.25 21.5859 1.25 22.0001C1.25 22.4144 1.58579 22.7501 2 22.7501H12.5593C13.6326 22.7501 14.6879 22.4737 15.6234 21.9475L21.3982 18.6992C22.2332 18.2295 22.75 17.3459 22.75 16.3878C22.75 14.5273 20.8842 13.2452 19.1474 13.9121L15.0559 15.4833C14.6515 14.4679 13.6596 13.7501 12.5 13.7501H8.26712C7.27293 13.7501 6.3102 14.0987 5.54643 14.7351L4.49333 15.6127C3.99912 16.0245 3.37618 16.25 2.73288 16.25H2C1.58579 16.25 1.25 16.5858 1.25 17C1.25 17.4142 1.58579 17.75 2 17.75H2.73288C3.72707 17.75 4.6898 17.4015 5.45357 16.765L6.50667 15.8875C7.00088 15.4757 7.62382 15.2501 8.26712 15.2501H12.5C13.1858 15.2501 13.7426 15.8024 13.7499 16.4865C13.7498 16.4956 13.7498 16.5048 13.7499 16.514C13.7425 17.198 13.1857 17.7501 12.5 17.7501H8C7.58579 17.7501 7.25 18.0859 7.25 18.5001C7.25 18.9144 7.58579 19.2501 8 19.2501H12.5C13.8356 19.2501 14.9488 18.298 15.1979 17.0355L19.6851 15.3124Z" fill="#000"/>
</svg>
