<svg width="24" height="24" viewBox="0 0 24 24" fill="none" xmlns="http://www.w3.org/2000/svg">
<path d="M17 16.9999C17 16.4477 17.4477 15.9999 18 15.9999C18.5523 15.9999 19.0001 16.4477 19.0001 16.9999C19.0001 17.5522 18.5524 17.9999 18.0001 17.9999C17.4478 17.9999 17 17.5522 17 16.9999Z" fill="#000"/>
<path d="M15 15.9999C14.4477 15.9999 14 16.4477 14 16.9999C14 17.5522 14.4477 17.9999 15 17.9999C15.5523 17.9999 16.0001 17.5522 16.0001 16.9999C16.0001 16.4477 15.5523 15.9999 15 15.9999Z" fill="#000"/>
<path fill-rule="evenodd" clip-rule="evenodd" d="M9.47441 2.24991C8.14626 2.24944 7.26601 2.24912 6.50194 2.5558C5.82922 2.82581 5.23674 3.2634 4.78083 3.82696C4.26301 4.46706 4.00445 5.30847 3.61431 6.57803L1.07352 14.8357C1.02631 14.9891 0.997719 15.0821 0.971924 15.1763C0.841882 15.6512 0.768413 16.1398 0.753045 16.6319C0.75 16.7294 0.75 16.8265 0.75 16.9868V17C0.75 19.6233 2.87665 21.75 5.5 21.75H18.5C21.1234 21.75 23.25 19.6233 23.25 17V16.9871C23.25 16.8269 23.25 16.7294 23.247 16.6319C23.2316 16.1398 23.1581 15.6512 23.0281 15.1763C23.0023 15.0821 22.9737 14.9893 22.9266 14.836L20.3857 6.57803C19.9956 5.30847 19.737 4.46706 19.2192 3.82696C18.7633 3.2634 18.1708 2.82581 17.4981 2.5558C16.734 2.24912 15.8537 2.24944 14.5256 2.24991H9.47441ZM20.7326 12.8063L18.9995 7.17364C18.5435 5.69174 18.365 5.15607 18.053 4.77037C17.758 4.40571 17.3746 4.12257 16.9393 3.94785C16.4789 3.76306 15.9144 3.74995 14.364 3.74995H9.63602C8.08556 3.74995 7.52107 3.76306 7.06067 3.94785C6.62538 4.12257 6.24201 4.40571 5.94701 4.77037C5.63499 5.15607 5.45646 5.69174 5.00049 7.17364L3.26736 12.8063C3.93293 12.4512 4.69296 12.25 5.5 12.25H18.5C19.307 12.25 20.0671 12.4512 20.7326 12.8063ZM2.25 17C2.25 15.205 3.70507 13.75 5.5 13.75H18.5C20.2949 13.75 21.75 15.205 21.75 17C21.75 18.7949 20.2949 20.25 18.5 20.25H5.5C3.70507 20.25 2.25 18.7949 2.25 17Z" fill="#000"/>
</svg>
