<svg width="24" height="24" viewBox="0 0 24 24" fill="none" xmlns="http://www.w3.org/2000/svg">
<path fill-rule="evenodd" clip-rule="evenodd" d="M11.4726 3.20068C11.5835 2.80158 11.3498 2.38817 10.9507 2.27731C10.5516 2.16645 10.1382 2.40011 10.0274 2.79921L8.8605 6.99994H4C3.58579 6.99994 3.25 7.33573 3.25 7.74994C3.25 8.16415 3.58579 8.49994 4 8.49994H8.44383L6.49939 15.4999H2C1.58579 15.4999 1.25 15.8357 1.25 16.2499C1.25 16.6642 1.58579 16.9999 2 16.9999H6.08272L5.02737 20.7992C4.91651 21.1983 5.15017 21.6117 5.54927 21.7226C5.94838 21.8334 6.36178 21.5998 6.47265 21.2007L7.63952 16.9999H13.5827L12.5274 20.7992C12.4165 21.1983 12.6502 21.6117 13.0493 21.7226C13.4484 21.8334 13.8618 21.5998 13.9726 21.2007L15.1395 16.9999H20C20.4142 16.9999 20.75 16.6642 20.75 16.2499C20.75 15.8357 20.4142 15.4999 20 15.4999H15.5562L17.5006 8.49994H22.0003C22.4145 8.49994 22.7503 8.16415 22.7503 7.74994C22.7503 7.33573 22.4145 6.99994 22.0003 6.99994H17.9173L18.9726 3.20068C19.0835 2.80158 18.8498 2.38817 18.4507 2.27731C18.0516 2.16645 17.6382 2.40011 17.5274 2.79921L16.3605 6.99994H10.4173L11.4726 3.20068ZM13.9994 15.4999L15.9438 8.49994H10.0006L8.05618 15.4999H13.9994Z" fill="#000"/>
</svg>
