<svg width="24" height="24" viewBox="0 0 24 24" fill="none" xmlns="http://www.w3.org/2000/svg">
<path fill-rule="evenodd" clip-rule="evenodd" d="M12 2.25C6.06295 2.25 1.25001 7.06294 1.25001 13V16.7242C1.24999 16.7523 1.25 16.7811 1.25001 16.8109L1.25001 18.1891C1.24995 18.4759 1.24991 18.6816 1.27045 18.8639C1.44022 20.3706 2.62936 21.5598 4.13613 21.7295C4.31839 21.7501 4.52402 21.75 4.81088 21.75L4.88465 21.75C4.98859 21.7501 5.09654 21.7502 5.19595 21.739C6.00728 21.6476 6.64759 21.0072 6.73901 20.1959C6.75021 20.0965 6.75011 19.9886 6.75003 19.8846L6.75003 15.1153C6.75011 15.0114 6.75021 14.9034 6.73901 14.804C6.64759 13.9927 6.00728 13.3524 5.19595 13.261C5.09654 13.2498 4.98859 13.2499 4.88465 13.25L4.81092 13.25C4.52404 13.2499 4.3184 13.2499 4.13613 13.2704C3.62924 13.3275 3.15829 13.5 2.75001 13.7611V13C2.75001 7.89137 6.89138 3.75 12 3.75C17.1086 3.75 21.25 7.89137 21.25 13V13.7611C20.8417 13.5 20.3708 13.3275 19.8639 13.2704C19.6816 13.2499 19.476 13.2499 19.1891 13.25L19.1154 13.25C19.0114 13.2499 18.9035 13.2498 18.8041 13.261C17.9927 13.3524 17.3524 13.9927 17.261 14.804C17.2498 14.9034 17.2499 15.0114 17.25 15.1153V19.8846C17.2499 19.9886 17.2498 20.0965 17.261 20.1959C17.3524 21.0072 17.9927 21.6476 18.8041 21.739C18.9035 21.7502 19.0114 21.7501 19.1154 21.75L19.1891 21.75C19.476 21.75 19.6816 21.7501 19.8639 21.7295C21.3707 21.5598 22.5598 20.3706 22.7296 18.8639C22.7501 18.6816 22.7501 18.476 22.75 18.1892V16.8109C22.75 16.7814 22.75 16.7527 22.75 16.7249V13C22.75 7.06294 17.9371 2.25 12 2.25ZM21.25 16.8571C21.25 16.505 21.2488 16.3911 21.239 16.304C21.1476 15.4927 20.5073 14.8524 19.6959 14.761C19.6088 14.7512 19.495 14.75 19.1429 14.75C19.0736 14.75 19.0324 14.75 19.0013 14.7506C18.9815 14.751 18.9729 14.7515 18.9709 14.7517C18.8559 14.7652 18.7652 14.8558 18.7517 14.9708C18.7516 14.9729 18.751 14.9815 18.7507 15.0013C18.75 15.0324 18.75 15.0736 18.75 15.1428V19.8571C18.75 19.9264 18.75 19.9676 18.7507 19.9987C18.751 20.0185 18.7516 20.0271 18.7517 20.0291C18.7652 20.1441 18.8559 20.2348 18.9709 20.2483C18.9719 20.2483 18.9749 20.2485 18.9803 20.2487C18.9851 20.2489 18.992 20.2491 19.0013 20.2493C19.0324 20.2499 19.0736 20.25 19.1429 20.25C19.495 20.25 19.6088 20.2488 19.6959 20.239C20.5073 20.1476 21.1476 19.5072 21.239 18.6959C21.2488 18.6088 21.25 18.4949 21.25 18.1428V16.8571ZM2.75001 17.0011C2.75001 17.0007 2.75001 17.0004 2.75001 17V16.8414C2.75005 16.5016 2.75135 16.3898 2.76102 16.304C2.85243 15.4927 3.49274 14.8524 4.30407 14.761C4.39118 14.7512 4.50505 14.75 4.85715 14.75C4.92639 14.75 4.96761 14.75 4.99871 14.7506C5.01849 14.751 5.02711 14.7515 5.02917 14.7517C5.14413 14.7652 5.23481 14.8558 5.2483 14.9708C5.24845 14.9729 5.24898 14.9815 5.24937 15.0013C5.24998 15.0324 5.25001 15.0736 5.25001 15.1428V19.8571C5.25001 19.9264 5.24998 19.9676 5.24937 19.9987C5.24898 20.0185 5.24845 20.0271 5.2483 20.0291C5.23481 20.1441 5.14413 20.2348 5.02917 20.2483C5.02712 20.2484 5.01851 20.2489 4.99871 20.2493C4.96761 20.2499 4.92639 20.25 4.85715 20.25C4.50505 20.25 4.39118 20.2488 4.30407 20.239C3.49274 20.1476 2.85243 19.5072 2.76101 18.6959C2.7512 18.6088 2.75001 18.4949 2.75001 18.1428L2.75001 17.0011Z" fill="#000"/>
</svg>
