<svg width="24" height="24" viewBox="0 0 24 24" fill="none" xmlns="http://www.w3.org/2000/svg">
<path fill-rule="evenodd" clip-rule="evenodd" d="M1.25 9.47438C1.25 5.6858 3.85795 2.25 7.89333 2.25C9.76025 2.25 11.1058 3.06969 12 3.91063C12.8942 3.06969 14.2398 2.25 16.1067 2.25C20.1421 2.25 22.75 5.6858 22.75 9.47438C22.75 13.301 20.4395 16.37 18.0621 18.4936C15.6837 20.6183 13.0963 21.9251 12.2372 22.2115L12 22.2906L11.7628 22.2115C10.9037 21.9251 8.31635 20.6183 5.93786 18.4936C3.56046 16.37 1.25 13.301 1.25 9.47438ZM7.89333 3.75C4.87317 3.75 2.75 6.3142 2.75 9.47438C2.75 12.6733 4.68954 15.3672 6.93714 17.375C8.96385 19.1854 11.1258 20.3336 12 20.6978C12.8742 20.3336 15.0361 19.1854 17.0629 17.375C19.3105 15.3672 21.25 12.6733 21.25 9.47438C21.25 6.3142 19.1268 3.75 16.1067 3.75C14.3941 3.75 13.2603 4.66987 12.5731 5.48383L12 6.16259L11.4269 5.48383C10.7397 4.66987 9.60595 3.75 7.89333 3.75Z" fill="#000"/>
</svg>
