<svg width="24" height="24" viewBox="0 0 24 24" fill="none" xmlns="http://www.w3.org/2000/svg">
<path fill-rule="evenodd" clip-rule="evenodd" d="M9.8 6.75C8.6837 6.75 7.77243 7.23354 7.15568 7.99516C6.55066 8.74229 6.25 9.72655 6.25 10.7372C6.25 12.6826 7.43638 14.2475 8.61778 15.3321C9.81466 16.431 11.133 17.155 11.6646 17.4208L12 17.5885L12.3354 17.4208C12.867 17.155 14.1853 16.431 15.3822 15.3321C16.5636 14.2475 17.75 12.6826 17.75 10.7372C17.75 9.72655 17.4493 8.74229 16.8443 7.99516C16.2276 7.23354 15.3163 6.75 14.2 6.75C13.4957 6.75 12.8954 7.02751 12.4436 7.33485C12.2819 7.44481 12.1337 7.56235 12 7.67966C11.8663 7.56235 11.7181 7.44481 11.5564 7.33485C11.1046 7.02751 10.5043 6.75 9.8 6.75ZM7.75 10.7372C7.75 10.0106 7.96739 9.3763 8.3214 8.93914C8.66368 8.51646 9.15241 8.25 9.8 8.25C10.104 8.25 10.4124 8.3708 10.7128 8.57512C11.012 8.77863 11.2599 9.03605 11.4269 9.23383L12 9.91259L12.5731 9.23383C12.7401 9.03605 12.988 8.77863 13.2872 8.57512C13.5876 8.3708 13.896 8.25 14.2 8.25C14.8476 8.25 15.3363 8.51646 15.6786 8.93914C16.0326 9.3763 16.25 10.0106 16.25 10.7372C16.25 12.0546 15.4364 13.2461 14.3678 14.2272C13.5132 15.0117 12.574 15.5883 12 15.9029C11.4259 15.5883 10.4868 15.0117 9.63222 14.2272C8.56362 13.2461 7.75 12.0546 7.75 10.7372Z" fill="#000"/>
<path fill-rule="evenodd" clip-rule="evenodd" d="M12 0.25C5.51065 0.25 0.25 5.51065 0.25 12C0.25 18.4893 5.51065 23.75 12 23.75C18.4893 23.75 23.75 18.4893 23.75 12C23.75 5.51065 18.4893 0.25 12 0.25ZM1.75 12C1.75 6.33908 6.33908 1.75 12 1.75C17.6609 1.75 22.25 6.33908 22.25 12C22.25 17.6609 17.6609 22.25 12 22.25C6.33908 22.25 1.75 17.6609 1.75 12Z" fill="#000"/>
</svg>
