<svg width="24" height="24" viewBox="0 0 24 24" fill="none" xmlns="http://www.w3.org/2000/svg">
<path fill-rule="evenodd" clip-rule="evenodd" d="M9.8 6.75C8.6837 6.75 7.77243 7.23354 7.15568 7.99516C6.55066 8.74229 6.25 9.72655 6.25 10.7372C6.25 12.6826 7.43638 14.2475 8.61778 15.3321C9.81466 16.431 11.133 17.155 11.6646 17.4208L12 17.5885L12.3354 17.4208C12.867 17.155 14.1853 16.431 15.3822 15.3321C16.5636 14.2475 17.75 12.6826 17.75 10.7372C17.75 9.72655 17.4493 8.74229 16.8443 7.99516C16.2276 7.23354 15.3163 6.75 14.2 6.75C13.4957 6.75 12.8954 7.02751 12.4436 7.33485C12.2819 7.44481 12.1337 7.56235 12 7.67966C11.8663 7.56235 11.7181 7.44481 11.5564 7.33485C11.1046 7.02751 10.5043 6.75 9.8 6.75ZM7.75 10.7372C7.75 10.0106 7.96739 9.3763 8.3214 8.93914C8.66368 8.51646 9.15241 8.25 9.8 8.25C10.104 8.25 10.4124 8.3708 10.7128 8.57512C11.012 8.77863 11.2599 9.03605 11.4269 9.23383L12 9.91259L12.5731 9.23383C12.7401 9.03605 12.988 8.77863 13.2872 8.57512C13.5876 8.3708 13.896 8.25 14.2 8.25C14.8476 8.25 15.3363 8.51646 15.6786 8.93914C16.0326 9.3763 16.25 10.0106 16.25 10.7372C16.25 12.0546 15.4364 13.2461 14.3678 14.2272C13.5132 15.0117 12.574 15.5883 12 15.9029C11.4259 15.5883 10.4868 15.0117 9.63222 14.2272C8.56362 13.2461 7.75 12.0546 7.75 10.7372Z" fill="#000"/>
<path fill-rule="evenodd" clip-rule="evenodd" d="M15.633 1.25H8.367C7.27486 1.24999 6.40935 1.24999 5.71173 1.30699C4.99834 1.36527 4.39472 1.48688 3.84355 1.76772C2.94978 2.22312 2.22312 2.94978 1.76772 3.84355C1.48688 4.39472 1.36527 4.99834 1.30699 5.71173C1.24999 6.40935 1.24999 7.27485 1.25 8.36699V15.633C1.24999 16.7251 1.24999 17.5906 1.30699 18.2883C1.36527 19.0017 1.48688 19.6053 1.76772 20.1565C2.22312 21.0502 2.94978 21.7769 3.84355 22.2323C4.39472 22.5131 4.99834 22.6347 5.71173 22.693C6.40935 22.75 7.27484 22.75 8.36698 22.75H15.633C16.7252 22.75 17.5906 22.75 18.2883 22.693C19.0017 22.6347 19.6053 22.5131 20.1565 22.2323C21.0502 21.7769 21.7769 21.0502 22.2323 20.1565C22.5131 19.6053 22.6347 19.0017 22.693 18.2883C22.75 17.5906 22.75 16.7252 22.75 15.633V8.36698C22.75 7.27484 22.75 6.40935 22.693 5.71173C22.6347 4.99834 22.5131 4.39472 22.2323 3.84355C21.7769 2.94978 21.0502 2.22312 20.1565 1.76772C19.6053 1.48688 19.0017 1.36527 18.2883 1.30699C17.5906 1.24999 16.7251 1.24999 15.633 1.25ZM4.52453 3.10423C4.829 2.94909 5.21325 2.85271 5.83388 2.80201C6.46327 2.75058 7.26752 2.75 8.4 2.75H15.6C16.7325 2.75 17.5367 2.75058 18.1661 2.80201C18.7867 2.85271 19.171 2.94909 19.4755 3.10423C20.087 3.41582 20.5842 3.913 20.8958 4.52453C21.0509 4.829 21.1473 5.21325 21.198 5.83388C21.2494 6.46327 21.25 7.26752 21.25 8.4V15.6C21.25 16.7325 21.2494 17.5367 21.198 18.1661C21.1473 18.7867 21.0509 19.171 20.8958 19.4755C20.5842 20.087 20.087 20.5842 19.4755 20.8958C19.171 21.0509 18.7867 21.1473 18.1661 21.198C17.5367 21.2494 16.7325 21.25 15.6 21.25H8.4C7.26752 21.25 6.46327 21.2494 5.83388 21.198C5.21325 21.1473 4.829 21.0509 4.52453 20.8958C3.913 20.5842 3.41582 20.087 3.10423 19.4755C2.94909 19.171 2.85271 18.7867 2.80201 18.1661C2.75058 17.5367 2.75 16.7325 2.75 15.6V8.4C2.75 7.26752 2.75058 6.46327 2.80201 5.83388C2.85271 5.21325 2.94909 4.829 3.10423 4.52453C3.41582 3.913 3.913 3.41582 4.52453 3.10423Z" fill="#000"/>
</svg>
