<svg width="24" height="24" viewBox="0 0 24 24" fill="none" xmlns="http://www.w3.org/2000/svg">
<path fill-rule="evenodd" clip-rule="evenodd" d="M2.53033 1.46967C2.23744 1.17678 1.76256 1.17678 1.46967 1.46967C1.17678 1.76256 1.17678 2.23744 1.46967 2.53033L3.21124 4.2719C1.95431 5.61799 1.25 7.49061 1.25 9.47437C1.25 13.301 3.56046 16.37 5.93786 18.4936C8.31635 20.6183 10.9037 21.9251 11.7628 22.2115C11.9168 22.2628 12.0832 22.2628 12.2372 22.2115C13.0542 21.9392 15.4429 20.7402 17.7264 18.7871L21.4697 22.5303C21.7626 22.8232 22.2374 22.8232 22.5303 22.5303C22.8232 22.2374 22.8232 21.7626 22.5303 21.4697L18.2905 17.2298C18.2885 17.2279 18.2866 17.2259 18.2846 17.224L4.8216 3.76094C4.81762 3.75687 4.81361 3.75285 4.80956 3.74889L2.53033 1.46967ZM4.27285 5.33351C3.3186 6.37679 2.75 7.85387 2.75 9.47437C2.75 12.6733 4.68954 15.3672 6.93714 17.375C8.96386 19.1854 11.1258 20.3336 12 20.6978C12.8178 20.3572 14.7591 19.3317 16.6623 17.723L4.27285 5.33351Z" fill="#000"/>
<path d="M7.1628 3.80057C7.39795 3.76737 7.64158 3.75 7.89333 3.75C9.60595 3.75 10.7397 4.66987 11.4269 5.48383C11.5694 5.65262 11.7791 5.75 12 5.75C12.2209 5.75 12.4306 5.65262 12.5731 5.48383C13.2603 4.66987 14.3941 3.75 16.1067 3.75C19.1268 3.75 21.25 6.3142 21.25 9.47437C21.25 11.6376 20.3658 13.5684 19.0877 15.2226C18.8344 15.5504 18.8948 16.0214 19.2226 16.2747C19.5504 16.5279 20.0214 16.4675 20.2747 16.1397C21.6881 14.3104 22.75 12.0654 22.75 9.47437C22.75 5.6858 20.1421 2.25 16.1067 2.25C14.2398 2.25 12.8942 3.06969 12 3.91063C11.1058 3.06969 9.76025 2.25 7.89333 2.25C7.57242 2.25 7.25869 2.27216 6.95308 2.31531C6.54294 2.37322 6.2574 2.75265 6.31531 3.1628C6.37322 3.57294 6.75265 3.85849 7.1628 3.80057Z" fill="#000"/>
</svg>
