<svg width="24" height="24" viewBox="0 0 24 24" fill="none" xmlns="http://www.w3.org/2000/svg">
<path fill-rule="evenodd" clip-rule="evenodd" d="M20.75 2C20.75 2.41421 20.4142 2.75 20 2.75H18.8145C18.9293 4.17673 18.9744 5.1022 18.8015 5.9719C18.5438 7.26813 17.9367 8.46926 17.0458 9.44545C16.3579 10.1991 15.4395 10.7642 13.8778 11.7251L13.431 12L13.8778 12.2749C15.4395 13.2358 16.358 13.8009 17.0458 14.5546C17.9367 15.5307 18.5438 16.7319 18.8015 18.0281C18.9744 18.8978 18.9293 19.8233 18.8145 21.25H20C20.4142 21.25 20.75 21.5858 20.75 22C20.75 22.4142 20.4142 22.75 20 22.75H18.0024C18.0016 22.75 18.0008 22.75 18 22.75L4 22.75C3.58578 22.75 3.25 22.4142 3.25 22C3.25 21.5858 3.58578 21.25 4 21.25H5.18547C5.07067 19.8233 5.02561 18.8978 5.19851 18.0281C5.45622 16.7319 6.06333 15.5307 6.95423 14.5546C7.64206 13.8009 8.5605 13.2358 10.1222 12.2749L10.569 12L10.1222 11.7251C8.5605 10.7642 7.64206 10.1991 6.95423 9.44545C6.06333 8.46926 5.45622 7.26813 5.19852 5.9719C5.02561 5.1022 5.07066 4.17673 5.18547 2.75H4C3.58579 2.75 3.25 2.41421 3.25 2C3.25 1.58579 3.58579 1.25 4 1.25H20C20.4142 1.25 20.75 1.58579 20.75 2ZM6.6908 21.25L17.3092 21.25C17.4315 19.7315 17.4642 18.9943 17.3303 18.3206C17.1259 17.2925 16.6444 16.3399 15.9378 15.5657C15.4098 14.9871 14.6867 14.534 12.9793 13.4833L12 12.8806L11.0207 13.4833C9.31327 14.534 8.59025 14.9871 8.06219 15.5657C7.35561 16.3399 6.8741 17.2925 6.66972 18.3206C6.53578 18.9943 6.56846 19.7315 6.6908 21.25ZM6.6908 2.75H17.3092C17.4315 4.26847 17.4642 5.00568 17.3303 5.67941C17.1259 6.70745 16.6444 7.66008 15.9378 8.43429C15.4098 9.0129 14.6867 9.46599 12.9793 10.5167L12 11.1194L11.0207 10.5167C9.31327 9.46599 8.59024 9.0129 8.06218 8.43429C7.35561 7.66008 6.87411 6.70745 6.66972 5.67941C6.53578 5.00568 6.56846 4.26847 6.6908 2.75Z" fill="#000"/>
</svg>
