<svg width="24" height="24" viewBox="0 0 24 24" fill="none" xmlns="http://www.w3.org/2000/svg">
<path d="M12.0001 16.3501C10.8317 16.3501 9.79159 17.1568 9.52644 18.187C9.42319 18.5882 9.0143 18.8297 8.61316 18.7264C8.21202 18.6232 7.97053 18.2143 8.07378 17.8132C8.51909 16.083 10.1864 14.8501 12.0001 14.8501C13.8138 14.8501 15.4811 16.083 15.9264 17.8132C16.0297 18.2143 15.7882 18.6232 15.3871 18.7264C14.9859 18.8297 14.577 18.5882 14.4738 18.187C14.2086 17.1568 13.1685 16.3501 12.0001 16.3501Z" fill="#000"/>
<path fill-rule="evenodd" clip-rule="evenodd" d="M12.0001 9.25C10.5917 9.25 9.45007 10.3917 9.45007 11.8C9.45007 13.2083 10.5917 14.35 12.0001 14.35C13.4084 14.35 14.5501 13.2083 14.5501 11.8C14.5501 10.3917 13.4084 9.25 12.0001 9.25ZM10.9501 11.8C10.9501 11.2201 11.4202 10.75 12.0001 10.75C12.58 10.75 13.0501 11.2201 13.0501 11.8C13.0501 12.3799 12.58 12.85 12.0001 12.85C11.4202 12.85 10.9501 12.3799 10.9501 11.8Z" fill="#000"/>
<path fill-rule="evenodd" clip-rule="evenodd" d="M11.0737 1.36292C11.6815 1.20797 12.3185 1.20797 12.9264 1.36292C13.6171 1.53901 14.2313 1.98167 15.1216 2.62331L19.8719 6.0436C20.7563 6.68003 21.3258 7.08991 21.7445 7.62639C22.1145 8.10049 22.3912 8.64056 22.5597 9.21788C22.7504 9.87116 22.7503 10.5728 22.75 11.6624L22.75 16.4326C22.75 17.385 22.75 18.1456 22.6999 18.7598C22.6484 19.3898 22.5404 19.9317 22.2868 20.4294C21.8793 21.2291 21.2292 21.8793 20.4295 22.2867C19.9318 22.5403 19.3899 22.6483 18.7599 22.6998C18.1457 22.75 17.3851 22.75 16.4327 22.75H7.5674C6.615 22.75 5.85441 22.75 5.24016 22.6998C4.61015 22.6483 4.06827 22.5403 3.57057 22.2867C2.77088 21.8793 2.12072 21.2291 1.71325 20.4294C1.45966 19.9317 1.35168 19.3898 1.30021 18.7598C1.25002 18.1456 1.25003 17.385 1.25003 16.4326L1.25002 11.6624C1.24979 10.5728 1.24964 9.87116 1.44035 9.21788C1.60888 8.64056 1.88552 8.10049 2.25556 7.62639C2.67428 7.08991 3.24381 6.68003 4.12813 6.0436L8.87845 2.62331C9.76874 1.98167 10.3829 1.53901 11.0737 1.36292ZM12.5558 2.81643C12.1911 2.72346 11.8089 2.72346 11.4442 2.81643C11.0646 2.91322 10.6941 3.16446 9.63359 3.92802L5.0987 7.19316C4.08798 7.92088 3.7084 8.20289 3.43803 8.54931C3.18484 8.87369 2.99556 9.24321 2.88025 9.63822C2.7571 10.0601 2.75003 10.5329 2.75003 11.7783V16.4C2.75003 17.3924 2.75061 18.0917 2.79523 18.6377C2.83912 19.1749 2.92188 19.4974 3.04976 19.7484C3.31342 20.2659 3.73411 20.6866 4.25156 20.9502C4.50255 21.0781 4.82506 21.1609 5.36231 21.2048C5.90832 21.2494 6.60756 21.25 7.60003 21.25H16.4C17.3925 21.25 18.0917 21.2494 18.6378 21.2048C19.175 21.1609 19.4975 21.0781 19.7485 20.9502C20.266 20.6866 20.6866 20.2659 20.9503 19.7484C21.0782 19.4974 21.1609 19.1749 21.2048 18.6377C21.2494 18.0917 21.25 17.3924 21.25 16.4V11.7783C21.25 10.5329 21.243 10.0601 21.1198 9.63822C21.0045 9.24321 20.8152 8.87369 20.562 8.54931C20.2917 8.20289 19.9121 7.92088 18.9014 7.19316L14.3665 3.92802C13.306 3.16446 12.9355 2.91322 12.5558 2.81643Z" fill="#000"/>
</svg>
