<svg width="24" height="24" viewBox="0 0 24 24" fill="none" xmlns="http://www.w3.org/2000/svg">
<path d="M15.0303 17.0303C14.7374 17.3232 14.2625 17.3232 13.9696 17.0303L11.9999 15.0606L10.0303 17.0303C9.73737 17.3232 9.26249 17.3232 8.9696 17.0303C8.67671 16.7374 8.67671 16.2625 8.9696 15.9696L10.9393 13.9999L8.96964 12.0303C8.67675 11.7374 8.67675 11.2625 8.96964 10.9696C9.26253 10.6768 9.73741 10.6768 10.0303 10.9696L11.9999 12.9393L13.9696 10.9696C14.2625 10.6767 14.7373 10.6767 15.0302 10.9696C15.3231 11.2625 15.3231 11.7374 15.0302 12.0303L13.0606 13.9999L15.0303 15.9696C15.3232 16.2625 15.3232 16.7374 15.0303 17.0303Z" fill="#000"/>
<path fill-rule="evenodd" clip-rule="evenodd" d="M11.0736 1.36298C11.6814 1.20803 12.3184 1.20803 12.9263 1.36298C13.617 1.53907 14.2312 1.98173 15.1215 2.62337L19.8718 6.04366C20.7561 6.68009 21.3257 7.08997 21.7444 7.62645C22.1144 8.10056 22.3911 8.64062 22.5596 9.21794C22.7503 9.87122 22.7502 10.5729 22.7499 11.6624L22.7499 16.4327C22.7499 17.3851 22.7499 18.1456 22.6997 18.7599C22.6483 19.3899 22.5403 19.9318 22.2867 20.4295C21.8792 21.2292 21.2291 21.8793 20.4294 22.2868C19.9317 22.5404 19.3898 22.6484 18.7598 22.6999C18.1455 22.75 17.385 22.75 16.4326 22.75H7.56728C6.61487 22.75 5.85429 22.75 5.24004 22.6999C4.61003 22.6484 4.06815 22.5404 3.57045 22.2868C2.77076 21.8793 2.12059 21.2292 1.71313 20.4295C1.45954 19.9318 1.35156 19.3899 1.30009 18.7599C1.2499 18.1456 1.2499 17.3851 1.24991 16.4326L1.24989 11.6624C1.24966 10.5729 1.24952 9.87122 1.44023 9.21794C1.60876 8.64062 1.8854 8.10056 2.25544 7.62645C2.67416 7.08997 3.24368 6.6801 4.12799 6.04367L8.87833 2.62338C9.76862 1.98173 10.3828 1.53907 11.0736 1.36298ZM12.5557 2.8165C12.191 2.72352 11.8088 2.72352 11.4441 2.8165C11.0644 2.91328 10.694 3.16452 9.63347 3.92808L5.09858 7.19322C4.08786 7.92094 3.70828 8.20296 3.4379 8.54937C3.18472 8.87376 2.99544 9.24327 2.88013 9.63828C2.75698 10.0601 2.74991 10.5329 2.74991 11.7784V16.4C2.74991 17.3925 2.75049 18.0917 2.7951 18.6377C2.839 19.175 2.92175 19.4975 3.04964 19.7485C3.31329 20.2659 3.73399 20.6866 4.25144 20.9503C4.50243 21.0782 4.82494 21.1609 5.36219 21.2048C5.9082 21.2494 6.60744 21.25 7.59991 21.25H16.3999C17.3924 21.25 18.0916 21.2494 18.6376 21.2048C19.1749 21.1609 19.4974 21.0782 19.7484 20.9503C20.2658 20.6866 20.6865 20.2659 20.9502 19.7485C21.0781 19.4975 21.1608 19.175 21.2047 18.6377C21.2493 18.0917 21.2499 17.3925 21.2499 16.4V11.7784C21.2499 10.5329 21.2428 10.0601 21.1197 9.63828C21.0044 9.24327 20.8151 8.87376 20.5619 8.54937C20.2915 8.20296 19.912 7.92094 18.9012 7.19322L14.3664 3.92808C13.3059 3.16452 12.9354 2.91328 12.5557 2.8165Z" fill="#000"/>
</svg>
