<svg width="24" height="24" viewBox="0 0 24 24" fill="none" xmlns="http://www.w3.org/2000/svg">
<path d="M9.44382 15.3954C9.10989 15.1503 8.64051 15.2223 8.39542 15.5562C8.15034 15.8902 8.22236 16.3595 8.55628 16.6046C10.637 18.1318 13.3631 18.1318 15.4438 16.6046C15.7777 16.3595 15.8498 15.8902 15.6047 15.5562C15.3596 15.2223 14.8902 15.1503 14.5563 15.3954C13.0037 16.5349 10.9964 16.5349 9.44382 15.3954Z" fill="#000"/>
<path fill-rule="evenodd" clip-rule="evenodd" d="M12.9264 1.36298C12.3185 1.20803 11.6815 1.20803 11.0737 1.36298C10.3829 1.53907 9.76874 1.98173 8.87845 2.62338L4.12813 6.04366C3.24381 6.68009 2.67428 7.08997 2.25556 7.62645C1.88552 8.10056 1.60888 8.64062 1.44035 9.21794C1.24964 9.87122 1.24979 10.5729 1.25002 11.6624L1.25003 16.4326C1.25003 17.3851 1.25002 18.1456 1.30021 18.7599C1.35168 19.3899 1.45966 19.9318 1.71325 20.4295C2.12072 21.2292 2.77088 21.8793 3.57057 22.2868C4.06827 22.5404 4.61015 22.6484 5.24016 22.6999C5.85441 22.75 6.61493 22.75 7.56734 22.75H16.4327C17.3851 22.75 18.1457 22.75 18.7599 22.6999C19.3899 22.6484 19.9318 22.5404 20.4295 22.2868C21.2292 21.8793 21.8793 21.2292 22.2868 20.4295C22.5404 19.9318 22.6484 19.3899 22.6999 18.7599C22.75 18.1456 22.75 17.3851 22.75 16.4327L22.75 11.6624C22.7503 10.5729 22.7504 9.87122 22.5597 9.21794C22.3912 8.64062 22.1145 8.10056 21.7445 7.62645C21.3258 7.08997 20.7563 6.68009 19.8719 6.04366L15.1216 2.62337C14.2313 1.98173 13.6171 1.53907 12.9264 1.36298ZM11.4442 2.8165C11.8089 2.72352 12.1911 2.72352 12.5558 2.8165C12.9355 2.91328 13.306 3.16452 14.3665 3.92808L18.9014 7.19322C19.9121 7.92094 20.2917 8.20296 20.562 8.54937C20.8152 8.87376 21.0045 9.24327 21.1198 9.63828C21.243 10.0601 21.25 10.5329 21.25 11.7784V16.4C21.25 17.3925 21.2494 18.0917 21.2048 18.6377C21.1609 19.175 21.0782 19.4975 20.9503 19.7485C20.6866 20.2659 20.266 20.6866 19.7485 20.9503C19.4975 21.0782 19.175 21.1609 18.6378 21.2048C18.0917 21.2494 17.3925 21.25 16.4 21.25H7.60003C6.60756 21.25 5.90832 21.2494 5.36231 21.2048C4.82506 21.1609 4.50255 21.0782 4.25156 20.9503C3.73411 20.6866 3.31342 20.2659 3.04976 19.7485C2.92188 19.4975 2.83912 19.175 2.79523 18.6377C2.75061 18.0917 2.75003 17.3925 2.75003 16.4V11.7784C2.75003 10.5329 2.7571 10.0601 2.88025 9.63828C2.99556 9.24327 3.18484 8.87376 3.43803 8.54937C3.7084 8.20296 4.08798 7.92094 5.0987 7.19322L9.63359 3.92808C10.6941 3.16452 11.0646 2.91328 11.4442 2.8165Z" fill="#000"/>
</svg>
