<svg width="24" height="24" viewBox="0 0 24 24" fill="none" xmlns="http://www.w3.org/2000/svg">
<path d="M9.44369 15.3954C9.10977 15.1503 8.64039 15.2223 8.3953 15.5562C8.15022 15.8902 8.22224 16.3595 8.55616 16.6046C10.6369 18.1318 13.3629 18.1318 15.4437 16.6046C15.7776 16.3595 15.8496 15.8902 15.6046 15.5562C15.3595 15.2223 14.8901 15.1503 14.5562 15.3954C13.0036 16.5349 10.9963 16.5349 9.44369 15.3954Z" fill="#000"/>
<path fill-rule="evenodd" clip-rule="evenodd" d="M12.9263 1.36298C12.3184 1.20803 11.6814 1.20803 11.0736 1.36298C10.3828 1.53907 9.76862 1.98173 8.87833 2.62338L4.12801 6.04366C3.24369 6.68009 2.67416 7.08997 2.25544 7.62645C1.8854 8.10056 1.60876 8.64062 1.44023 9.21794C1.24952 9.87122 1.24966 10.5729 1.24989 11.6624L1.24991 16.4326C1.2499 17.3851 1.2499 18.1456 1.30009 18.7599C1.35156 19.3899 1.45954 19.9318 1.71313 20.4295C2.12059 21.2292 2.77076 21.8793 3.57045 22.2868C4.06815 22.5404 4.61003 22.6484 5.24004 22.6999C5.85429 22.75 6.61481 22.75 7.56721 22.75H16.4325C17.3849 22.75 18.1455 22.75 18.7598 22.6999C19.3898 22.6484 19.9317 22.5404 20.4294 22.2868C21.2291 21.8793 21.8792 21.2292 22.2867 20.4295C22.5403 19.9318 22.6483 19.3899 22.6997 18.7599C22.7499 18.1456 22.7499 17.3851 22.7499 16.4327L22.7499 11.6624C22.7502 10.5729 22.7503 9.87122 22.5596 9.21794C22.3911 8.64062 22.1144 8.10056 21.7444 7.62645C21.3257 7.08997 20.7561 6.68009 19.8718 6.04366L15.1215 2.62337C14.2312 1.98173 13.617 1.53907 12.9263 1.36298ZM11.4441 2.8165C11.8088 2.72352 12.191 2.72352 12.5557 2.8165C12.9354 2.91328 13.3059 3.16452 14.3664 3.92808L18.9012 7.19322C19.912 7.92094 20.2915 8.20296 20.5619 8.54937C20.8151 8.87376 21.0044 9.24327 21.1197 9.63828C21.2428 10.0601 21.2499 10.5329 21.2499 11.7784V16.4C21.2499 17.3925 21.2493 18.0917 21.2047 18.6377C21.1608 19.175 21.0781 19.4975 20.9502 19.7485C20.6865 20.2659 20.2658 20.6866 19.7484 20.9503C19.4974 21.0782 19.1749 21.1609 18.6376 21.2048C18.0916 21.2494 17.3924 21.25 16.3999 21.25H7.59991C6.60744 21.25 5.9082 21.2494 5.36219 21.2048C4.82494 21.1609 4.50243 21.0782 4.25144 20.9503C3.73399 20.6866 3.31329 20.2659 3.04964 19.7485C2.92175 19.4975 2.839 19.175 2.7951 18.6377C2.75049 18.0917 2.74991 17.3925 2.74991 16.4V11.7784C2.74991 10.5329 2.75698 10.0601 2.88013 9.63828C2.99544 9.24327 3.18472 8.87376 3.4379 8.54937C3.70828 8.20296 4.08786 7.92094 5.09858 7.19322L9.63347 3.92808C10.694 3.16452 11.0644 2.91328 11.4441 2.8165Z" fill="#000"/>
</svg>
