<svg width="24" height="24" viewBox="0 0 24 24" fill="none" xmlns="http://www.w3.org/2000/svg">
<path d="M7.51042 12.5127C8.68846 11.4182 10.265 10.75 11.9993 10.75C13.7342 10.75 15.3112 11.4187 16.4893 12.5138C16.7927 12.7958 17.2673 12.7785 17.5493 12.4751C17.8313 12.1717 17.8139 11.6971 17.5106 11.4151C16.0659 10.0723 14.1278 9.25 11.9993 9.25C9.87152 9.25 7.93401 10.0717 6.48947 11.4138C6.186 11.6957 6.16855 12.1702 6.45047 12.4737C6.7324 12.7772 7.20695 12.7946 7.51042 12.5127Z" fill="#000"/>
<path d="M12.0032 14.0834C11.2185 14.0834 10.5007 14.4139 9.96965 14.9649C9.68221 15.2632 9.20741 15.2719 8.90917 14.9845C8.61092 14.6971 8.60217 14.2223 8.88961 13.924C9.68306 13.1008 10.7826 12.5834 12.0032 12.5834C13.2237 12.5834 14.3233 13.1008 15.1167 13.924C15.4041 14.2223 15.3954 14.6971 15.0971 14.9845C14.7989 15.2719 14.3241 15.2632 14.0367 14.9649C13.5056 14.4139 12.7878 14.0834 12.0032 14.0834Z" fill="#000"/>
<path d="M11.9999 15.5C11.4477 15.5 10.9999 15.9477 10.9999 16.5C10.9999 17.0523 11.4477 17.5 11.9999 17.5C12.5522 17.5 13 17.0523 13 16.5C13 15.9477 12.5522 15.5 11.9999 15.5Z" fill="#000"/>
<path fill-rule="evenodd" clip-rule="evenodd" d="M12.9263 1.36292C12.3184 1.20797 11.6814 1.20797 11.0736 1.36292C10.3828 1.53901 9.76862 1.98167 8.87833 2.62331L4.12801 6.0436C3.24369 6.68003 2.67416 7.08991 2.25544 7.62639C1.8854 8.10049 1.60876 8.64056 1.44023 9.21788C1.24952 9.87116 1.24966 10.5728 1.24989 11.6624L1.24991 16.4326C1.2499 17.385 1.2499 18.1456 1.30009 18.7598C1.35156 19.3898 1.45954 19.9317 1.71313 20.4294C2.12059 21.2291 2.77076 21.8793 3.57045 22.2867C4.06815 22.5403 4.61003 22.6483 5.24004 22.6998C5.85429 22.75 6.61481 22.75 7.56721 22.75H16.4325C17.3849 22.75 18.1455 22.75 18.7598 22.6998C19.3898 22.6483 19.9317 22.5403 20.4294 22.2867C21.2291 21.8793 21.8792 21.2291 22.2867 20.4294C22.5403 19.9317 22.6483 19.3898 22.6997 18.7598C22.7499 18.1456 22.7499 17.3851 22.7499 16.4327L22.7499 11.6624C22.7502 10.5728 22.7503 9.87116 22.5596 9.21788C22.3911 8.64056 22.1144 8.10049 21.7444 7.62639C21.3257 7.08991 20.7561 6.68003 19.8718 6.0436L15.1215 2.62331C14.2312 1.98167 13.617 1.53901 12.9263 1.36292ZM11.4441 2.81643C11.8088 2.72346 12.191 2.72346 12.5557 2.81643C12.9354 2.91322 13.3059 3.16446 14.3664 3.92802L18.9012 7.19316C19.912 7.92088 20.2915 8.20289 20.5619 8.54931C20.8151 8.87369 21.0044 9.24321 21.1197 9.63822C21.2428 10.0601 21.2499 10.5329 21.2499 11.7783V16.4C21.2499 17.3924 21.2493 18.0917 21.2047 18.6377C21.1608 19.1749 21.0781 19.4974 20.9502 19.7484C20.6865 20.2659 20.2658 20.6866 19.7484 20.9502C19.4974 21.0781 19.1749 21.1609 18.6376 21.2048C18.0916 21.2494 17.3924 21.25 16.3999 21.25H7.59991C6.60744 21.25 5.9082 21.2494 5.36219 21.2048C4.82494 21.1609 4.50243 21.0781 4.25144 20.9502C3.73399 20.6866 3.31329 20.2659 3.04964 19.7484C2.92175 19.4974 2.839 19.1749 2.7951 18.6377C2.75049 18.0917 2.74991 17.3924 2.74991 16.4V11.7783C2.74991 10.5329 2.75698 10.0601 2.88013 9.63822C2.99544 9.24321 3.18472 8.87369 3.4379 8.54931C3.70828 8.20289 4.08786 7.92088 5.09858 7.19316L9.63347 3.92802C10.694 3.16446 11.0644 2.91322 11.4441 2.81643Z" fill="#000"/>
</svg>
