<svg width="24" height="24" viewBox="0 0 24 24" fill="none" xmlns="http://www.w3.org/2000/svg">
<path fill-rule="evenodd" clip-rule="evenodd" d="M11.093 1.36345C11.6886 1.21499 12.3115 1.21499 12.907 1.36345C13.5836 1.53209 14.188 1.95555 15.0637 2.56918C15.1029 2.59659 15.1425 2.62438 15.1828 2.65255L20.0415 6.05369C20.0729 6.07563 20.1038 6.09727 20.1343 6.11864C20.9195 6.66793 21.4412 7.03288 21.8259 7.51642C22.1656 7.94347 22.42 8.43196 22.575 8.9552C22.7505 9.54764 22.7503 10.1843 22.7501 11.1425C22.75 11.1798 22.75 11.2175 22.75 11.2558V17.2322C22.75 18.045 22.7501 18.7006 22.7067 19.2315C22.662 19.7782 22.5677 20.2583 22.3413 20.7025C21.9818 21.4081 21.4081 21.9818 20.7025 22.3413C20.2583 22.5677 19.7781 22.662 19.2315 22.7067C18.7006 22.7501 18.045 22.7501 17.2322 22.7501H16.5738C16.3163 22.7501 16.0799 22.7501 15.8822 22.734C15.669 22.7165 15.4359 22.6767 15.2056 22.5593C14.8763 22.3916 14.6086 22.1238 14.4408 21.7946C14.3234 21.5642 14.2836 21.3311 14.2662 21.1179C14.25 20.9203 14.25 20.6838 14.25 20.4263L14.25 16.4001C14.25 15.9677 14.2495 15.6885 14.2321 15.476C14.2154 15.2723 14.1872 15.1967 14.1683 15.1596C14.0964 15.0185 13.9817 14.9038 13.8405 14.8319C13.8034 14.813 13.7279 14.7847 13.5242 14.7681C13.3117 14.7507 13.0325 14.7501 12.6 14.7501H11.4C10.9676 14.7501 10.6884 14.7507 10.4759 14.7681C10.2722 14.7847 10.1966 14.813 10.1595 14.8319C10.0184 14.9038 9.90369 15.0185 9.83179 15.1596C9.81289 15.1967 9.78463 15.2723 9.76799 15.476C9.75062 15.6885 9.75004 15.9677 9.75004 16.4001L9.75004 20.4263C9.75006 20.6838 9.75008 20.9203 9.73392 21.1179C9.71651 21.3311 9.67665 21.5642 9.5593 21.7946C9.39152 22.1238 9.12381 22.3916 8.79452 22.5593C8.56422 22.6767 8.33104 22.7165 8.11791 22.734C7.92023 22.7501 7.68375 22.7501 7.42627 22.7501H6.76792C5.95509 22.7501 5.29948 22.7501 4.76857 22.7067C4.22193 22.662 3.74179 22.5677 3.29758 22.3413C2.59197 21.9818 2.01829 21.4081 1.65877 20.7025C1.43242 20.2583 1.33807 19.7782 1.2934 19.2315C1.25003 18.7006 1.25003 18.045 1.25004 17.2322L1.25004 11.2558C1.25004 11.2175 1.25003 11.1798 1.25002 11.1425C1.24976 10.1843 1.24959 9.54765 1.42511 8.9552C1.58012 8.43196 1.83445 7.94347 2.17421 7.51642C2.55891 7.03289 3.08057 6.66794 3.86571 6.11865C3.89626 6.09728 3.9272 6.07563 3.95855 6.05369L8.81732 2.65255C8.85756 2.62439 8.89722 2.59659 8.93634 2.56918C9.81211 1.95556 10.4165 1.53209 11.093 1.36345ZM12.5442 2.81891C12.1869 2.72984 11.8132 2.72984 11.4558 2.81891C11.0839 2.91163 10.7201 3.15159 9.67751 3.8814L4.81875 7.28254C3.90723 7.9206 3.58036 8.15829 3.34803 8.45031C3.12819 8.72663 2.96362 9.04272 2.86332 9.38128C2.75732 9.73907 2.75004 10.1432 2.75004 11.2558V17.2001C2.75004 18.0525 2.75062 18.6468 2.78842 19.1094C2.8255 19.5633 2.89464 19.824 2.99528 20.0215C3.21099 20.4449 3.5552 20.7891 3.97856 21.0048C4.17608 21.1055 4.43684 21.1746 4.89072 21.2117C5.35335 21.2495 5.94759 21.2501 6.80004 21.2501H7.40004C7.69244 21.2501 7.86664 21.2495 7.99576 21.2389C8.07458 21.2325 8.1077 21.224 8.11658 21.2212C8.16122 21.1977 8.1977 21.1612 8.22122 21.1166C8.22397 21.1077 8.23247 21.0746 8.23891 20.9958C8.24946 20.8667 8.25004 20.6925 8.25004 20.4001L8.25004 16.3712C8.25003 15.9759 8.25001 15.6348 8.27297 15.3539C8.29719 15.0574 8.35068 14.7624 8.49528 14.4787C8.71099 14.0553 9.0552 13.7111 9.47856 13.4954C9.76235 13.3508 10.0573 13.2973 10.3538 13.2731C10.6347 13.2501 10.9758 13.2501 11.3711 13.2501H12.629C13.0243 13.2501 13.3654 13.2501 13.6463 13.2731C13.9428 13.2973 14.2377 13.3508 14.5215 13.4954C14.9449 13.7111 15.2891 14.0553 15.5048 14.4787C15.6494 14.7624 15.7029 15.0574 15.7271 15.3539C15.7501 15.6348 15.7501 15.9759 15.75 16.3712V20.4001C15.75 20.6925 15.7506 20.8667 15.7612 20.9958C15.7676 21.0746 15.7761 21.1077 15.7789 21.1166C15.8024 21.1612 15.8389 21.1977 15.8835 21.2212C15.8924 21.224 15.9255 21.2325 16.0043 21.2389C16.1334 21.2495 16.3076 21.2501 16.6 21.2501H17.2C18.0525 21.2501 18.6467 21.2495 19.1094 21.2117C19.5632 21.1746 19.824 21.1055 20.0215 21.0048C20.4449 20.7891 20.7891 20.4449 21.0048 20.0215C21.1054 19.824 21.1746 19.5633 21.2117 19.1094C21.2495 18.6468 21.25 18.0525 21.25 17.2001V11.2558C21.25 10.1432 21.2428 9.73907 21.1368 9.38128C21.0365 9.04272 20.8719 8.72663 20.652 8.45031C20.4197 8.15829 20.0928 7.9206 19.1813 7.28253L14.3226 3.8814C13.28 3.15159 12.9162 2.91163 12.5442 2.81891ZM15.8809 21.2203L15.8824 21.2209ZM8.22031 21.1192L8.22087 21.1177ZM8.11916 21.2203L8.11768 21.2209Z" fill="#000"/>
</svg>
