<svg width="24" height="24" viewBox="0 0 24 24" fill="none" xmlns="http://www.w3.org/2000/svg">
<path d="M16.0304 12.2803C16.3233 11.9874 16.3233 11.5126 16.0304 11.2197C15.7375 10.9268 15.2626 10.9268 14.9697 11.2197L11 15.1893L9.03036 13.2197C8.73747 12.9268 8.26259 12.9268 7.9697 13.2197C7.67681 13.5126 7.67681 13.9874 7.9697 14.2803L10.4697 16.7803C10.7626 17.0732 11.2375 17.0732 11.5304 16.7803L16.0304 12.2803Z" fill="#000"/>
<path fill-rule="evenodd" clip-rule="evenodd" d="M12.9264 1.36292C12.3185 1.20797 11.6815 1.20797 11.0737 1.36292C10.3829 1.53901 9.76874 1.98167 8.87845 2.62331L4.12813 6.0436C3.24381 6.68003 2.67428 7.08991 2.25556 7.62639C1.88552 8.10049 1.60888 8.64056 1.44035 9.21788C1.24964 9.87116 1.24979 10.5728 1.25002 11.6624L1.25003 16.4326C1.25003 17.385 1.25002 18.1456 1.30021 18.7598C1.35168 19.3898 1.45966 19.9317 1.71325 20.4294C2.12072 21.2291 2.77088 21.8793 3.57057 22.2867C4.06827 22.5403 4.61015 22.6483 5.24016 22.6998C5.85441 22.75 6.61493 22.75 7.56734 22.75H16.4327C17.3851 22.75 18.1457 22.75 18.7599 22.6998C19.3899 22.6483 19.9318 22.5403 20.4295 22.2867C21.2292 21.8793 21.8793 21.2291 22.2868 20.4294C22.5404 19.9317 22.6484 19.3898 22.6999 18.7598C22.75 18.1456 22.75 17.3851 22.75 16.4327L22.75 11.6624C22.7503 10.5728 22.7504 9.87116 22.5597 9.21788C22.3912 8.64056 22.1145 8.10049 21.7445 7.62639C21.3258 7.08991 20.7563 6.68003 19.8719 6.0436L15.1216 2.62331C14.2313 1.98167 13.6171 1.53901 12.9264 1.36292ZM11.4442 2.81643C11.8089 2.72346 12.1911 2.72346 12.5558 2.81643C12.9355 2.91322 13.306 3.16446 14.3665 3.92802L18.9014 7.19316C19.9121 7.92088 20.2917 8.20289 20.562 8.54931C20.8152 8.8737 21.0045 9.24321 21.1198 9.63822C21.243 10.0601 21.25 10.5329 21.25 11.7783V16.4C21.25 17.3924 21.2494 18.0917 21.2048 18.6377C21.1609 19.1749 21.0782 19.4974 20.9503 19.7484C20.6866 20.2659 20.266 20.6866 19.7485 20.9502C19.4975 21.0781 19.175 21.1609 18.6378 21.2048C18.0917 21.2494 17.3925 21.25 16.4 21.25H7.60003C6.60756 21.25 5.90832 21.2494 5.36231 21.2048C4.82506 21.1609 4.50255 21.0781 4.25156 20.9502C3.73411 20.6866 3.31342 20.2659 3.04976 19.7484C2.92188 19.4974 2.83912 19.1749 2.79523 18.6377C2.75061 18.0917 2.75003 17.3924 2.75003 16.4V11.7783C2.75003 10.5329 2.7571 10.0601 2.88025 9.63822C2.99556 9.24321 3.18484 8.8737 3.43803 8.54931C3.7084 8.20289 4.08798 7.92088 5.0987 7.19316L9.63359 3.92802C10.6941 3.16446 11.0646 2.91322 11.4442 2.81643Z" fill="#000"/>
</svg>
