<svg width="24" height="24" viewBox="0 0 24 24" fill="none" xmlns="http://www.w3.org/2000/svg">
<path d="M16.4326 2.25H6.56739C5.61495 2.24999 4.85439 2.24999 4.24013 2.30018C3.61012 2.35165 3.06824 2.45963 2.57054 2.71322C1.77085 3.12068 1.12068 3.77085 0.713223 4.57054C0.459634 5.06824 0.35165 5.61012 0.300176 6.24013C0.249989 6.85439 0.249994 7.61494 0.25 8.56738V14.4326C0.249994 15.3851 0.249989 16.1456 0.300176 16.7599C0.35165 17.3899 0.459634 17.9318 0.713223 18.4295L0.727924 18.458C0.731571 18.4653 0.735344 18.4725 0.739242 18.4797C1.14809 19.2564 1.78766 19.8879 2.57054 20.2868C3.06824 20.5404 3.61012 20.6483 4.24013 20.6998C4.85438 20.75 5.6149 20.75 6.5673 20.75H13.1659C13.5801 20.75 13.9159 20.4142 13.9159 20C13.9159 19.5858 13.5801 19.25 13.1659 19.25H6.6C5.60753 19.25 4.90829 19.2494 4.36228 19.2048C3.82503 19.1609 3.50252 19.0782 3.25153 18.9503C2.9035 18.7729 2.59924 18.5246 2.3571 18.2235L6.34228 14.2377C6.43992 14.14 6.59824 14.14 6.69587 14.2377L8.46883 16.0111C8.60948 16.1518 8.80025 16.2308 8.99918 16.2308C9.1981 16.2308 9.38888 16.1518 9.52955 16.0112L15.8232 9.71775C15.9209 9.62012 16.0792 9.62012 16.1768 9.71776L17.726 11.267C18.0189 11.5598 18.4937 11.5598 18.7866 11.267C19.0795 10.9741 19.0795 10.4992 18.7866 10.2063L17.2374 8.65709C16.554 7.97369 15.446 7.97368 14.7626 8.65707L8.9993 14.4201L7.75666 13.1772C7.07323 12.4936 5.965 12.4935 5.28154 13.1771L1.79722 16.662L1.79519 16.6377C1.75058 16.0917 1.75 15.3925 1.75 14.4V8.6C1.75 7.60753 1.75058 6.90829 1.79519 6.36228C1.83909 5.82503 1.92184 5.50252 2.04973 5.25153C2.31338 4.73408 2.73408 4.31338 3.25153 4.04973C3.50252 3.92184 3.82503 3.83909 4.36228 3.79519C4.90829 3.75058 5.60753 3.75 6.6 3.75H16.4C17.3925 3.75 18.0917 3.75058 18.6377 3.79519C19.175 3.83909 19.4975 3.92184 19.7485 4.04973C20.2659 4.31338 20.6866 4.73408 20.9503 5.25153C21.0782 5.50252 21.1609 5.82503 21.2048 6.36228C21.2494 6.90829 21.25 7.60753 21.25 8.6V10.548C21.25 10.9622 21.5858 11.298 22 11.298C22.4142 11.298 22.75 10.9622 22.75 10.548V8.56737C22.75 7.61496 22.75 6.85438 22.6998 6.24013C22.6483 5.61012 22.5404 5.06824 22.2868 4.57054C21.8793 3.77085 21.2291 3.12068 20.4295 2.71322C19.9318 2.45963 19.3899 2.35165 18.7599 2.30018C18.1456 2.24999 17.3851 2.24999 16.4326 2.25Z" fill="#000"/>
<path fill-rule="evenodd" clip-rule="evenodd" d="M7 6.25C5.75736 6.25 4.75 7.25736 4.75 8.5C4.75 9.74264 5.75736 10.75 7 10.75C8.24264 10.75 9.25 9.74264 9.25 8.5C9.25 7.25736 8.24264 6.25 7 6.25ZM6.25 8.5C6.25 8.08579 6.58579 7.75 7 7.75C7.41421 7.75 7.75 8.08579 7.75 8.5C7.75 8.91421 7.41421 9.25 7 9.25C6.58579 9.25 6.25 8.91421 6.25 8.5Z" fill="#000"/>
<path d="M20 13.25C20.4142 13.25 20.75 13.5858 20.75 14V19.1893L22.4697 17.4697C22.7626 17.1768 23.2374 17.1768 23.5303 17.4697C23.8232 17.7626 23.8232 18.2374 23.5303 18.5303L20.5303 21.5303C20.3897 21.671 20.1989 21.75 20 21.75C19.8011 21.75 19.6103 21.671 19.4697 21.5303L16.4697 18.5303C16.1768 18.2374 16.1768 17.7626 16.4697 17.4697C16.7626 17.1768 17.2374 17.1768 17.5303 17.4697L19.25 19.1893V14C19.25 13.5858 19.5858 13.25 20 13.25Z" fill="#000"/>
</svg>
