<svg width="24" height="24" viewBox="0 0 24 24" fill="none" xmlns="http://www.w3.org/2000/svg">
<path d="M6.56739 2.25H16.4326C17.3851 2.24999 18.1456 2.24999 18.7599 2.30018C19.3899 2.35165 19.9318 2.45963 20.4295 2.71322C21.2291 3.12068 21.8793 3.77085 22.2868 4.57054C22.5404 5.06824 22.6483 5.61012 22.6998 6.24013C22.75 6.85438 22.75 7.6149 22.75 8.5673V11.8208C22.75 12.235 22.4142 12.5708 22 12.5708C21.5858 12.5708 21.25 12.235 21.25 11.8208V8.6C21.25 7.60753 21.2494 6.90829 21.2048 6.36228C21.1609 5.82503 21.0782 5.50252 20.9503 5.25153C20.6866 4.73408 20.2659 4.31338 19.7485 4.04973C19.4975 3.92184 19.175 3.83909 18.6377 3.79519C18.0917 3.75058 17.3925 3.75 16.4 3.75H6.6C5.60753 3.75 4.90829 3.75058 4.36228 3.79519C3.82503 3.83909 3.50252 3.92184 3.25153 4.04973C2.73408 4.31338 2.31338 4.73408 2.04973 5.25153C1.92184 5.50252 1.83909 5.82503 1.79519 6.36228C1.75058 6.90829 1.75 7.60753 1.75 8.6V14.4C1.75 15.3925 1.75058 16.0917 1.79519 16.6377L1.79722 16.662L5.28154 13.1771C5.965 12.4935 7.07323 12.4936 7.75666 13.1772L8.9993 14.4201L14.7626 8.65707C15.446 7.97368 16.554 7.97369 17.2374 8.65709L19.4703 10.89C19.7632 11.1829 19.7632 11.6578 19.4703 11.9506C19.1774 12.2435 18.7026 12.2435 18.4097 11.9506L16.1768 9.71776C16.0792 9.62012 15.9209 9.62012 15.8232 9.71775L9.52955 16.0112C9.38888 16.1518 9.1981 16.2308 8.99918 16.2308C8.80025 16.2308 8.60948 16.1518 8.46883 16.0111L6.69587 14.2377C6.59824 14.14 6.43992 14.14 6.34228 14.2377L2.3571 18.2235C2.59924 18.5246 2.9035 18.7729 3.25153 18.9503C3.50252 19.0782 3.82503 19.1609 4.36228 19.2048C4.90829 19.2494 5.60753 19.25 6.6 19.25H11.9652C12.3794 19.25 12.7152 19.5858 12.7152 20C12.7152 20.4142 12.3794 20.75 11.9652 20.75H6.56737C5.61496 20.75 4.85438 20.75 4.24013 20.6998C3.61012 20.6483 3.06824 20.5404 2.57054 20.2868C1.78766 19.8879 1.14809 19.2564 0.739242 18.4797C0.735344 18.4725 0.731571 18.4653 0.727924 18.458L0.713223 18.4295C0.459634 17.9318 0.35165 17.3899 0.300176 16.7599C0.249989 16.1456 0.249994 15.3851 0.25 14.4326V8.56739C0.249994 7.61495 0.249989 6.85439 0.300176 6.24013C0.35165 5.61012 0.459634 5.06824 0.713223 4.57054C1.12068 3.77085 1.77085 3.12068 2.57054 2.71322C3.06824 2.45963 3.61012 2.35165 4.24013 2.30018C4.85439 2.24999 5.61495 2.24999 6.56739 2.25Z" fill="#000"/>
<path fill-rule="evenodd" clip-rule="evenodd" d="M4.75 8.5C4.75 7.25736 5.75736 6.25 7 6.25C8.24264 6.25 9.25 7.25736 9.25 8.5C9.25 9.74264 8.24264 10.75 7 10.75C5.75736 10.75 4.75 9.74264 4.75 8.5ZM7 7.75C6.58579 7.75 6.25 8.08579 6.25 8.5C6.25 8.91421 6.58579 9.25 7 9.25C7.41421 9.25 7.75 8.91421 7.75 8.5C7.75 8.08579 7.41421 7.75 7 7.75Z" fill="#000"/>
<path d="M23.5303 17.0303C23.8232 16.7374 23.8232 16.2626 23.5303 15.9697C23.2374 15.6768 22.7626 15.6768 22.4697 15.9697L18.5 19.9393L16.5303 17.9697C16.2374 17.6768 15.7626 17.6768 15.4697 17.9697C15.1768 18.2626 15.1768 18.7374 15.4697 19.0303L17.9697 21.5303C18.2626 21.8232 18.7374 21.8232 19.0303 21.5303L23.5303 17.0303Z" fill="#000"/>
</svg>
