<svg width="24" height="24" viewBox="0 0 24 24" fill="none" xmlns="http://www.w3.org/2000/svg">
<path fill-rule="evenodd" clip-rule="evenodd" d="M7.5 6.75C6.25736 6.75 5.25 7.75736 5.25 9C5.25 10.2426 6.25736 11.25 7.5 11.25C8.74264 11.25 9.75 10.2426 9.75 9C9.75 7.75736 8.74264 6.75 7.5 6.75ZM6.75 9C6.75 8.58579 7.08579 8.25 7.5 8.25C7.91421 8.25 8.25 8.58579 8.25 9C8.25 9.41421 7.91421 9.75 7.5 9.75C7.08579 9.75 6.75 9.41421 6.75 9Z" fill="#000"/>
<path fill-rule="evenodd" clip-rule="evenodd" d="M7.06739 2.75H16.9326C17.8851 2.74999 18.6456 2.74999 19.2599 2.80018C19.8899 2.85165 20.4318 2.95963 20.9295 3.21322C21.7291 3.62068 22.3793 4.27085 22.7868 5.07054C23.0404 5.56824 23.1483 6.11012 23.1998 6.74013C23.25 7.35438 23.25 8.1149 23.25 9.0673V14.9642L23.2502 14.9805C23.2501 15.9226 23.2494 16.6761 23.1978 17.2861C23.1455 17.9049 23.0371 18.4386 22.787 18.9296C22.3795 19.7293 21.7293 20.3794 20.9296 20.7869C20.4319 21.0405 19.8901 21.1485 19.26 21.1999C18.6458 21.2501 17.8853 21.2501 16.9329 21.2501H7.06755C6.11514 21.2501 5.35456 21.2501 4.74031 21.1999C4.1103 21.1485 3.56842 21.0405 3.07072 20.7869L3.03315 20.7675C2.9462 20.7221 2.86106 20.6738 2.77785 20.6228C2.1121 20.2144 1.56975 19.6292 1.21322 18.9295C0.959634 18.4318 0.85165 17.8899 0.800176 17.2599C0.749989 16.6456 0.749994 15.8851 0.75 14.9326V9.06739C0.749994 8.11495 0.749989 7.35439 0.800176 6.74013C0.85165 6.11012 0.959634 5.56824 1.21322 5.07054C1.62068 4.27085 2.27085 3.62068 3.07054 3.21322C3.56824 2.95963 4.11012 2.85165 4.74013 2.80018C5.35439 2.74999 6.11495 2.74999 7.06739 2.75ZM21.75 9.1V13.1697L17.7374 9.15709C17.054 8.47369 15.946 8.47368 15.2626 9.15707L9.49929 14.9201L8.25665 13.6772C7.57322 12.9936 6.46498 12.9935 5.78152 13.6771L2.29721 17.162L2.29519 17.1377C2.25058 16.5917 2.25 15.8925 2.25 14.9V9.1C2.25 8.10753 2.25058 7.40829 2.29519 6.86228C2.33909 6.32503 2.42184 6.00252 2.54973 5.75153C2.81338 5.23408 3.23408 4.81338 3.75153 4.54973C4.00252 4.42184 4.32503 4.33909 4.86228 4.29519C5.40829 4.25058 6.10753 4.25 7.1 4.25H16.9C17.8925 4.25 18.5917 4.25058 19.1377 4.29519C19.675 4.33909 19.9975 4.42184 20.2485 4.54973C20.7659 4.81338 21.1866 5.23408 21.4503 5.75153C21.5782 6.00252 21.6609 6.32503 21.7048 6.86228C21.7494 7.40829 21.75 8.10753 21.75 9.1ZM3.65565 19.399C3.57282 19.3526 3.49269 19.3021 3.41553 19.2477C3.20564 19.0997 3.01773 18.9231 2.85714 18.7234L6.84227 14.7377C6.93991 14.64 7.09822 14.64 7.19586 14.7377L8.96882 16.5111C9.10947 16.6518 9.30024 16.7308 9.49916 16.7308C9.69809 16.7308 9.88887 16.6518 10.0295 16.5112L16.3232 10.2178C16.4209 10.1201 16.5791 10.1201 16.6768 10.2178L21.7499 15.2908C21.749 16.0807 21.7433 16.6663 21.7048 17.1377C21.6609 17.675 21.5782 17.9975 21.4503 18.2485C21.1866 18.7659 20.7659 19.1866 20.2485 19.4503C19.9975 19.5782 19.675 19.6609 19.1377 19.7048C18.5917 19.7494 17.8925 19.75 16.9 19.75H7.1C6.10753 19.75 5.40829 19.7494 4.86228 19.7048C4.32503 19.6609 4.00252 19.5782 3.75153 19.4503C3.71919 19.4338 3.68722 19.4167 3.65565 19.399Z" fill="#000"/>
</svg>
