<svg width="24" height="24" viewBox="0 0 24 24" fill="none" xmlns="http://www.w3.org/2000/svg">
<path d="M6.56739 2.75H16.4326C17.3851 2.74999 18.1456 2.74999 18.7599 2.80018C19.3899 2.85165 19.9318 2.95963 20.4295 3.21322C21.2291 3.62068 21.8793 4.27085 22.2868 5.07054C22.5404 5.56824 22.6483 6.11012 22.6998 6.74013C22.75 7.35438 22.75 8.1149 22.75 9.0673V12.048C22.75 12.4622 22.4142 12.798 22 12.798C21.5858 12.798 21.25 12.4622 21.25 12.048V9.1C21.25 8.10753 21.2494 7.40829 21.2048 6.86228C21.1609 6.32503 21.0782 6.00252 20.9503 5.75153C20.6866 5.23408 20.2659 4.81338 19.7485 4.54973C19.4975 4.42184 19.175 4.33909 18.6377 4.29519C18.0917 4.25058 17.3925 4.25 16.4 4.25H6.6C5.60753 4.25 4.90829 4.25058 4.36228 4.29519C3.82503 4.33909 3.50252 4.42184 3.25153 4.54973C2.73408 4.81338 2.31338 5.23408 2.04973 5.75153C1.92184 6.00252 1.83909 6.32503 1.79519 6.86228C1.75058 7.40829 1.75 8.10753 1.75 9.1V14.9C1.75 15.8925 1.75058 16.5917 1.79519 17.1377L1.79722 17.162L5.28154 13.6771C5.965 12.9935 7.07323 12.9936 7.75666 13.6772L8.9993 14.9201L14.7626 9.15707C15.446 8.47368 16.554 8.47369 17.2374 9.15709L19.5869 11.5066C19.8798 11.7995 19.8798 12.2743 19.5869 12.5672C19.294 12.8601 18.8191 12.8601 18.5262 12.5672L16.1768 10.2178C16.0792 10.1201 15.9209 10.1201 15.8232 10.2178L9.52955 16.5112C9.38888 16.6518 9.1981 16.7308 8.99918 16.7308C8.80025 16.7308 8.60948 16.6518 8.46883 16.5111L6.69587 14.7377C6.59824 14.64 6.43992 14.64 6.34228 14.7377L2.3571 18.7235C2.59924 19.0246 2.9035 19.2729 3.25153 19.4503C3.50252 19.5782 3.82503 19.6609 4.36228 19.7048C4.90829 19.7494 5.60753 19.75 6.6 19.75H12.9652C13.3794 19.75 13.7152 20.0858 13.7152 20.5C13.7152 20.9142 13.3794 21.25 12.9652 21.25H6.56737C5.61496 21.25 4.85438 21.25 4.24013 21.1998C3.61012 21.1483 3.06824 21.0404 2.57054 20.7868C1.78766 20.3879 1.14809 19.7564 0.739242 18.9797C0.735344 18.9725 0.731571 18.9653 0.727924 18.958L0.713223 18.9295C0.459634 18.4318 0.35165 17.8899 0.300176 17.2599C0.249989 16.6456 0.249994 15.8851 0.25 14.9326V9.06739C0.249994 8.11495 0.249989 7.35439 0.300176 6.74013C0.35165 6.11012 0.459634 5.56824 0.713223 5.07054C1.12068 4.27085 1.77085 3.62068 2.57054 3.21322C3.06824 2.95963 3.61012 2.85165 4.24013 2.80018C4.85439 2.74999 5.61495 2.74999 6.56739 2.75Z" fill="#000"/>
<path fill-rule="evenodd" clip-rule="evenodd" d="M4.75 9C4.75 7.75736 5.75736 6.75 7 6.75C8.24264 6.75 9.25 7.75736 9.25 9C9.25 10.2426 8.24264 11.25 7 11.25C5.75736 11.25 4.75 10.2426 4.75 9ZM7 8.25C6.58579 8.25 6.25 8.58579 6.25 9C6.25 9.41421 6.58579 9.75 7 9.75C7.41421 9.75 7.75 9.41421 7.75 9C7.75 8.58579 7.41421 8.25 7 8.25Z" fill="#000"/>
<path d="M23 19.25C23.4142 19.25 23.75 18.9142 23.75 18.5C23.75 18.0858 23.4142 17.75 23 17.75H17C16.5858 17.75 16.25 18.0858 16.25 18.5C16.25 18.9142 16.5858 19.25 17 19.25H23Z" fill="#000"/>
</svg>
