<svg width="24" height="24" viewBox="0 0 24 24" fill="none" xmlns="http://www.w3.org/2000/svg">
<path fill-rule="evenodd" clip-rule="evenodd" d="M7.47376 2.25005C6.65555 2.24957 6.0596 2.24922 5.5232 2.44245C5.05123 2.61248 4.62501 2.88946 4.27795 3.25171C3.88352 3.66339 3.6418 4.20812 3.30994 4.956L0.508511 11.2593C0.443921 11.4044 0.386906 11.5326 0.345754 11.6691C0.309524 11.7893 0.283417 11.9123 0.267707 12.0369C0.249863 12.1783 0.249932 12.3186 0.25001 12.4774L0.25002 16.2322C0.250013 17.045 0.250007 17.7007 0.293384 18.2316C0.338046 18.7782 0.432406 19.2583 0.658746 19.7026C1.01827 20.4082 1.59195 20.9818 2.29756 21.3414C2.74177 21.5677 3.22192 21.6621 3.76855 21.7067C4.29946 21.7501 4.95507 21.7501 5.7679 21.7501H18.2321C19.045 21.7501 19.7006 21.7501 20.2315 21.7067C20.7781 21.6621 21.2583 21.5677 21.7025 21.3414C22.4081 20.9818 22.9818 20.4082 23.3413 19.7026C23.5676 19.2583 23.662 18.7782 23.7067 18.2316C23.75 17.7007 23.75 17.0451 23.75 16.2322L23.75 12.4774C23.7501 12.3186 23.7502 12.1783 23.7323 12.0369C23.7166 11.9123 23.6905 11.7893 23.6543 11.6691C23.6131 11.5326 23.5561 11.4045 23.4916 11.2594L20.6901 4.95602C20.3582 4.20813 20.1165 3.66339 19.7221 3.25171C19.375 2.88946 18.9488 2.61248 18.4768 2.44245C17.9404 2.24922 17.3445 2.24957 16.5263 2.25005H7.47376ZM6.03159 3.85367C6.28956 3.76074 6.60125 3.7501 7.59951 3.7501H16.4005C17.3988 3.7501 17.7105 3.76074 17.9685 3.85367C18.2226 3.94522 18.4521 4.09437 18.639 4.28942C18.8287 4.48741 18.965 4.76792 19.3704 5.68015L22.0682 11.7501H17.0662C16.4515 11.7501 15.8819 12.0726 15.5656 12.5997L14.6482 14.1287C14.603 14.204 14.5217 14.2501 14.4338 14.2501H9.56622C9.4784 14.2501 9.39703 14.204 9.35185 14.1287L8.43445 12.5997C8.11819 12.0726 7.54855 11.7501 6.93384 11.7501H1.93187L4.62962 5.68015C5.03506 4.76792 5.17138 4.48741 5.36107 4.28942C5.54795 4.09437 5.77745 3.94522 6.03159 3.85367ZM1.75002 13.2501V16.2001C1.75002 17.0526 1.7506 17.6468 1.7884 18.1094C1.82549 18.5633 1.89462 18.8241 1.99526 19.0216C2.21097 19.4449 2.55518 19.7891 2.97854 20.0049C3.17606 20.1055 3.43683 20.1746 3.8907 20.2117C4.35333 20.2495 4.94757 20.2501 5.80002 20.2501H18.2C19.0525 20.2501 19.6467 20.2495 20.1093 20.2117C20.5632 20.1746 20.824 20.1055 21.0215 20.0049C21.4449 19.7891 21.7891 19.4449 22.0048 19.0216C22.1054 18.8241 22.1746 18.5633 22.2116 18.1094C22.2494 17.6468 22.25 17.0526 22.25 16.2001V13.2501H17.0662C16.9784 13.2501 16.897 13.2962 16.8518 13.3715L15.9345 14.9005C15.6182 15.4276 15.0486 15.7501 14.4338 15.7501H9.56622C8.95151 15.7501 8.38187 15.4276 8.06561 14.9005L7.14821 13.3715C7.10303 13.2962 7.02166 13.2501 6.93384 13.2501H1.75002Z" fill="#000"/>
</svg>
