<svg width="24" height="24" viewBox="0 0 24 24" fill="none" xmlns="http://www.w3.org/2000/svg">
<path fill-rule="evenodd" clip-rule="evenodd" d="M7.47376 2.24992C6.65555 2.24944 6.0596 2.24909 5.5232 2.44233C5.05123 2.61236 4.62501 2.88934 4.27795 3.25158C3.88352 3.66327 3.6418 4.208 3.30994 4.95588L0.508511 11.2592C0.443921 11.4043 0.386906 11.5324 0.345754 11.669C0.309524 11.7892 0.283417 11.9122 0.267707 12.0367C0.249863 12.1782 0.249932 12.3184 0.25001 12.4773L0.25002 16.2321C0.250013 17.0449 0.250007 17.7005 0.293384 18.2314C0.338046 18.7781 0.432406 19.2582 0.658746 19.7024C1.01827 20.408 1.59195 20.9817 2.29756 21.3412C2.74177 21.5676 3.22192 21.6619 3.76855 21.7066C4.29946 21.75 4.95507 21.75 5.7679 21.75H18.2321C19.045 21.75 19.7006 21.75 20.2315 21.7066C20.7781 21.6619 21.2583 21.5676 21.7025 21.3412C22.4081 20.9817 22.9818 20.408 23.3413 19.7024C23.5676 19.2582 23.662 18.7781 23.7067 18.2314C23.75 17.7005 23.75 17.0449 23.75 16.2321L23.75 12.4773C23.7501 12.3185 23.7502 12.1782 23.7323 12.0367C23.7166 11.9122 23.6905 11.7892 23.6543 11.669C23.6131 11.5325 23.5561 11.4044 23.4916 11.2593L20.6901 4.9559C20.3582 4.20801 20.1165 3.66327 19.7221 3.25158C19.375 2.88934 18.9488 2.61236 18.4768 2.44233C17.9404 2.24909 17.3445 2.24944 16.5263 2.24992H7.47376ZM6.03159 3.85355C6.28956 3.76062 6.60125 3.74997 7.59951 3.74997H16.4005C17.3988 3.74997 17.7105 3.76062 17.9685 3.85355C18.2226 3.9451 18.4521 4.09425 18.639 4.2893C18.8287 4.48729 18.965 4.7678 19.3704 5.68002L22.0682 11.75H17.0662C16.4515 11.75 15.8819 12.0725 15.5656 12.5996L14.6482 14.1286C14.603 14.2039 14.5217 14.25 14.4338 14.25H9.56622C9.4784 14.25 9.39703 14.2039 9.35185 14.1286L8.43445 12.5996C8.11819 12.0725 7.54855 11.75 6.93384 11.75H1.93187L4.62962 5.68003C5.03506 4.7678 5.17138 4.48729 5.36107 4.2893C5.54795 4.09425 5.77745 3.9451 6.03159 3.85355ZM1.75002 13.25V16.2C1.75002 17.0524 1.7506 17.6467 1.7884 18.1093C1.82549 18.5632 1.89462 18.8239 1.99526 19.0215C2.21097 19.4448 2.55518 19.789 2.97854 20.0047C3.17606 20.1054 3.43683 20.1745 3.8907 20.2116C4.35333 20.2494 4.94757 20.25 5.80002 20.25H18.2C19.0525 20.25 19.6467 20.2494 20.1093 20.2116C20.5632 20.1745 20.824 20.1054 21.0215 20.0047C21.4449 19.789 21.7891 19.4448 22.0048 19.0215C22.1054 18.8239 22.1746 18.5632 22.2116 18.1093C22.2494 17.6467 22.25 17.0524 22.25 16.2V13.25H17.0662C16.9784 13.25 16.897 13.296 16.8518 13.3713L15.9345 14.9003C15.6182 15.4274 15.0486 15.75 14.4338 15.75H9.56622C8.95151 15.75 8.38187 15.4274 8.06561 14.9003L7.14821 13.3713C7.10303 13.296 7.02166 13.25 6.93384 13.25H1.75002Z" fill="#000"/>
</svg>
