<svg width="24" height="24" viewBox="0 0 24 24" fill="none" xmlns="http://www.w3.org/2000/svg">
<path d="M14.4697 4.53033C14.7626 4.82322 15.2374 4.82322 15.5303 4.53033C15.8232 4.23744 15.8232 3.76256 15.5303 3.46967L12.5303 0.46967C12.3897 0.329017 12.1989 0.25 12 0.25C11.8011 0.25 11.6103 0.329017 11.4697 0.469669L8.46967 3.46967C8.17678 3.76256 8.17678 4.23744 8.46967 4.53033C8.76256 4.82322 9.23744 4.82322 9.53033 4.53033L11.25 2.81066L11.25 13C11.25 13.4142 11.5858 13.75 12 13.75C12.4142 13.75 12.75 13.4142 12.75 13L12.75 2.81066L14.4697 4.53033Z" fill="#000"/>
<path fill-rule="evenodd" clip-rule="evenodd" d="M7.95917 6.24997C7.3017 6.24965 6.82201 6.24942 6.37232 6.38125C5.97585 6.49748 5.60519 6.68823 5.28017 6.94329C4.91152 7.2326 4.63289 7.62307 4.251 8.15826L0.808677 12.9775C0.670144 13.1712 0.54792 13.342 0.458807 13.5342C0.380432 13.7032 0.323355 13.8813 0.288886 14.0644C0.249695 14.2726 0.249849 14.4827 0.250023 14.7208L0.250046 18.2321C0.250039 19.0449 0.250033 19.7006 0.29341 20.2315C0.338072 20.7781 0.432431 21.2582 0.658772 21.7025C1.0183 22.4081 1.59197 22.9818 2.29758 23.3413C2.7418 23.5676 3.22194 23.662 3.76858 23.7066C4.29948 23.75 4.95509 23.75 5.76792 23.75H18.2322C19.045 23.75 19.7006 23.75 20.2315 23.7066C20.7782 23.662 21.2583 23.5676 21.7025 23.3413C22.4081 22.9818 22.9818 22.4081 23.3413 21.7025C23.5677 21.2582 23.662 20.7781 23.7067 20.2315C23.7501 19.7006 23.7501 19.045 23.75 18.2321L23.7501 14.7208C23.7502 14.4827 23.7504 14.2726 23.7112 14.0644C23.6767 13.8813 23.6197 13.7032 23.5413 13.5342C23.4522 13.342 23.3299 13.1712 23.1914 12.9775L19.7491 8.15826C19.3672 7.62307 19.0886 7.2326 18.7199 6.94329C18.3949 6.68823 18.0242 6.49748 17.6278 6.38125C17.1781 6.24942 16.6984 6.24965 16.0409 6.24997L15 6.25C14.5858 6.25 14.25 6.58579 14.25 7C14.25 7.41421 14.5858 7.75 15 7.75H15.9416C16.7403 7.75 16.9891 7.75713 17.2058 7.82067C17.4193 7.88326 17.6189 7.98597 17.7939 8.12331C17.9716 8.26276 18.122 8.46106 18.5862 9.11098L21.8998 13.75H17.0662C16.4515 13.75 15.8818 14.0725 15.5656 14.5996L14.6482 16.1286C14.603 16.2039 14.5216 16.25 14.4338 16.25H9.56619C9.47837 16.25 9.397 16.2039 9.35182 16.1286L8.43442 14.5996C8.11816 14.0725 7.54852 13.75 6.93381 13.75H2.1003L5.41388 9.11098C5.87811 8.46106 6.02852 8.26276 6.20621 8.12331C6.38122 7.98597 6.58081 7.88326 6.79429 7.82067C7.01104 7.75713 7.25983 7.75 8.05852 7.75H9.00005C9.41426 7.75 9.75005 7.41421 9.75005 7C9.75005 6.58579 9.41426 6.25 9.00005 6.25L7.95917 6.24997ZM1.75005 15.25V18.2C1.75005 19.0525 1.75063 19.6467 1.78843 20.1093C1.82551 20.5632 1.89464 20.824 1.99528 21.0215C2.211 21.4448 2.5552 21.7891 2.97857 22.0048C3.17608 22.1054 3.43685 22.1745 3.89073 22.2116C4.35336 22.2494 4.94759 22.25 5.80005 22.25H18.2C19.0525 22.25 19.6467 22.2494 20.1094 22.2116C20.5632 22.1745 20.824 22.1054 21.0215 22.0048C21.4449 21.7891 21.7891 21.4448 22.0048 21.0215C22.1054 20.824 22.1746 20.5632 22.2117 20.1093C22.2495 19.6467 22.25 19.0525 22.25 18.2V15.25H17.0662C16.9784 15.25 16.897 15.2961 16.8518 15.3714L15.9344 16.9004C15.6182 17.4275 15.0485 17.75 14.4338 17.75H9.56619C8.95148 17.75 8.38184 17.4275 8.06558 16.9004L7.14818 15.3714C7.103 15.2961 7.02163 15.25 6.93381 15.25H1.75005Z" fill="#000"/>
</svg>
