<svg width="24" height="24" viewBox="0 0 24 24" fill="none" xmlns="http://www.w3.org/2000/svg">
<g clip-path="url(#clip0_9002_8384)">
<path d="M11 7.5C11 6.94772 11.4477 6.5 12 6.5C12.5523 6.5 13.0001 6.94772 13.0001 7.5C13.0001 8.05228 12.5524 8.5 12.0001 8.5C11.4478 8.5 11 8.05228 11 7.5Z" fill="#000"/>
<path d="M10.5 10.25C10.0858 10.25 9.75 10.5858 9.75 11C9.75 11.4142 10.0858 11.75 10.5 11.75L11.25 11.75L11.25 17C11.25 17.4142 11.5858 17.75 12 17.75C12.4142 17.75 12.75 17.4142 12.75 17L12.75 11C12.75 10.5858 12.4142 10.25 12 10.25L10.5 10.25Z" fill="#000"/>
<path fill-rule="evenodd" clip-rule="evenodd" d="M0.25 12C0.25 5.51065 5.51065 0.25 12 0.25C18.4893 0.25 23.75 5.51065 23.75 12C23.75 18.4893 18.4893 23.75 12 23.75C5.51065 23.75 0.25 18.4893 0.25 12ZM12 1.75C6.33908 1.75 1.75 6.33908 1.75 12C1.75 17.6609 6.33908 22.25 12 22.25C17.6609 22.25 22.25 17.6609 22.25 12C22.25 6.33908 17.6609 1.75 12 1.75Z" fill="#000"/>
</g>
<defs>
<clipPath id="clip0_9002_8384">
<rect width="24" height="24" fill="white"/>
</clipPath>
</defs>
</svg>
