<svg width="24" height="24" viewBox="0 0 24 24" fill="none" xmlns="http://www.w3.org/2000/svg">
<path d="M8.65002 5.6321V5.5C8.65002 5.08579 8.98581 4.75 9.40002 4.75C9.81424 4.75 10.15 5.08579 10.15 5.5V5.62881C10.2585 5.65509 10.3668 5.68912 10.4765 5.73262C10.8147 5.86677 11.121 6.07394 11.4527 6.32513C11.783 6.57517 11.8479 7.04558 11.5979 7.3758C11.3478 7.70603 10.8774 7.77103 10.5472 7.52098C10.2389 7.28755 10.0652 7.18318 9.92346 7.12696C9.79921 7.07768 9.6606 7.04999 9.39997 7.04999C9.02648 7.04999 8.79573 7.13881 8.67989 7.2227C8.58652 7.29032 8.54997 7.36148 8.54997 7.47228C8.54997 7.5617 8.57075 7.59956 8.58361 7.6188C8.60126 7.64523 8.64006 7.6868 8.72631 7.73509C8.91912 7.84302 9.19851 7.90607 9.52327 7.96019C9.83851 8.01273 10.3591 8.10568 10.8063 8.35601C11.3009 8.63286 11.75 9.13371 11.75 9.9277C11.75 10.5392 11.4665 11.0542 10.9999 11.3921C10.7498 11.5732 10.4601 11.6955 10.15 11.7678V11.9C10.15 12.3142 9.81424 12.65 9.40002 12.65C8.98581 12.65 8.65002 12.3142 8.65002 11.9V11.7712C8.5415 11.7449 8.43316 11.7108 8.32344 11.6673C7.98521 11.5332 7.67894 11.326 7.34721 11.0748C7.01699 10.8248 6.95199 10.3544 7.20204 10.0241C7.45209 9.69391 7.9225 9.62892 8.25272 9.87897C8.561 10.1124 8.73473 10.2168 8.8765 10.273C9.00075 10.3223 9.13936 10.35 9.39997 10.35C9.77346 10.35 10.0042 10.2612 10.1201 10.1773C10.2134 10.1097 10.25 10.0385 10.25 9.9277C10.25 9.83828 10.2292 9.80041 10.2163 9.78117C10.1987 9.75474 10.1599 9.71317 10.0736 9.66489C9.88082 9.55696 9.60143 9.49391 9.27667 9.43978C8.96143 9.38724 8.44081 9.2943 7.99363 9.04397C7.49905 8.76711 7.04997 8.26627 7.04997 7.47228C7.04997 6.86078 7.33342 6.3458 7.80005 6.00784C8.05013 5.82673 8.33987 5.70441 8.65002 5.6321Z" fill="#000"/>
<path d="M6.75 14.4998C6.75 14.0856 7.08579 13.7498 7.5 13.7498H16.5C16.9142 13.7498 17.25 14.0856 17.25 14.4998C17.25 14.914 16.9142 15.2498 16.5 15.2498H7.5C7.08579 15.2498 6.75 14.914 6.75 14.4998Z" fill="#000"/>
<path d="M14.25 7.74982C13.8358 7.74982 13.5 8.0856 13.5 8.49982C13.5 8.91403 13.8358 9.24982 14.25 9.24982H16.5C16.9142 9.24982 17.25 8.91403 17.25 8.49982C17.25 8.0856 16.9142 7.74982 16.5 7.74982H14.25Z" fill="#000"/>
<path d="M13.5 11.4998C13.5 11.0856 13.8358 10.7498 14.25 10.7498H16.5C16.9142 10.7498 17.25 11.0856 17.25 11.4998C17.25 11.914 16.9142 12.2498 16.5 12.2498H14.25C13.8358 12.2498 13.5 11.914 13.5 11.4998Z" fill="#000"/>
<path d="M7.5 16.7498C7.08579 16.7498 6.75 17.0856 6.75 17.4998C6.75 17.914 7.08579 18.2498 7.5 18.2498H16.5C16.9142 18.2498 17.25 17.914 17.25 17.4998C17.25 17.0856 16.9142 16.7498 16.5 16.7498H7.5Z" fill="#000"/>
<path fill-rule="evenodd" clip-rule="evenodd" d="M14.9326 1.25H9.06739C8.11494 1.24999 7.3544 1.24999 6.74013 1.30018C6.11012 1.35165 5.56824 1.45963 5.07054 1.71322C4.27085 2.12068 3.62068 2.77085 3.21322 3.57054C2.95963 4.06824 2.85165 4.61012 2.80018 5.24013C2.74999 5.8544 2.74999 6.61494 2.75 7.56739V16.4326C2.74999 17.3851 2.74999 18.1456 2.80018 18.7599C2.85165 19.3899 2.95963 19.9318 3.21322 20.4295C3.62068 21.2291 4.27085 21.8793 5.07054 22.2868C5.56824 22.5404 6.11012 22.6483 6.74013 22.6998C7.3544 22.75 8.11495 22.75 9.06741 22.75H14.9325C15.885 22.75 16.6456 22.75 17.2599 22.6998C17.8899 22.6483 18.4318 22.5404 18.9295 22.2868C19.7291 21.8793 20.3793 21.2291 20.7868 20.4295C21.0404 19.9318 21.1483 19.3899 21.1998 18.7599C21.25 18.1456 21.25 17.3851 21.25 16.4327V7.56737C21.25 6.61496 21.25 5.85438 21.1998 5.24013C21.1483 4.61012 21.0404 4.06824 20.7868 3.57054C20.3793 2.77085 19.7291 2.12068 18.9295 1.71322C18.4318 1.45963 17.8899 1.35165 17.2599 1.30018C16.6456 1.24999 15.8851 1.24999 14.9326 1.25ZM5.75153 3.04973C6.00252 2.92184 6.32503 2.83909 6.86228 2.79519C7.40829 2.75058 8.10753 2.75 9.1 2.75H14.9C15.8925 2.75 16.5917 2.75058 17.1377 2.79519C17.675 2.83909 17.9975 2.92184 18.2485 3.04973C18.7659 3.31338 19.1866 3.73408 19.4503 4.25153C19.5782 4.50252 19.6609 4.82503 19.7048 5.36228C19.7494 5.90829 19.75 6.60753 19.75 7.6V16.4C19.75 17.3925 19.7494 18.0917 19.7048 18.6377C19.6609 19.175 19.5782 19.4975 19.4503 19.7485C19.1866 20.2659 18.7659 20.6866 18.2485 20.9503C17.9975 21.0782 17.675 21.1609 17.1377 21.2048C16.5917 21.2494 15.8925 21.25 14.9 21.25H9.1C8.10753 21.25 7.40829 21.2494 6.86228 21.2048C6.32503 21.1609 6.00252 21.0782 5.75153 20.9503C5.23408 20.6866 4.81338 20.2659 4.54973 19.7485C4.42184 19.4975 4.33909 19.175 4.29519 18.6377C4.25058 18.0917 4.25 17.3925 4.25 16.4V7.6C4.25 6.60753 4.25058 5.90829 4.29519 5.36228C4.33909 4.82503 4.42184 4.50252 4.54973 4.25153C4.81338 3.73408 5.23408 3.31338 5.75153 3.04973Z" fill="#000"/>
</svg>
