<svg width="24" height="24" viewBox="0 0 24 24" fill="none" xmlns="http://www.w3.org/2000/svg">
<path d="M11.1681 11.1383C11.7024 10.9257 12.2978 10.9257 12.8321 11.1383L15.0547 12.0229C15.4396 12.1761 15.8757 11.9883 16.0289 11.6034C16.1821 11.2186 15.9943 10.7824 15.6094 10.6293L13.3868 9.74464C12.4963 9.39022 11.5039 9.39021 10.6134 9.74463L8.3907 10.6292C8.00585 10.7824 7.81803 11.2186 7.9712 11.6034C8.12437 11.9883 8.56052 12.1761 8.94538 12.0229L11.1681 11.1383Z" fill="#000"/>
<path fill-rule="evenodd" clip-rule="evenodd" d="M1.25001 10.4997C1.24967 10.4866 1.24967 10.4736 1.25001 10.4606L1.24996 8.33183C1.24944 7.4806 1.24906 6.86086 1.45562 6.3081C1.63728 5.82193 1.93274 5.38634 2.31727 5.03777C2.75447 4.64146 3.33043 4.41264 4.12151 4.09835L10.0241 1.74919C10.6065 1.5172 11.0097 1.3566 11.4342 1.2918C11.8093 1.23452 12.191 1.23452 12.5662 1.2918C12.9906 1.35661 13.3938 1.51721 13.9762 1.74921L19.8786 4.09834C20.6696 4.41263 21.2456 4.64145 21.6828 5.03777C22.0673 5.38633 22.3627 5.82192 22.5444 6.30809C22.751 6.86084 22.7506 7.48057 22.7501 8.33178L22.75 10.4655C22.7502 10.4753 22.7502 10.485 22.75 10.4948V13.9655C22.7502 13.9753 22.7502 13.985 22.75 13.9948L22.7501 15.6681C22.7506 16.5193 22.751 17.1391 22.5444 17.6918C22.3627 18.178 22.0673 18.6136 21.6828 18.9622C21.2456 19.3585 20.6696 19.5873 19.8785 19.9016L13.9762 22.2507C13.3938 22.4827 12.9906 22.6433 12.5662 22.7081C12.191 22.7654 11.8093 22.7654 11.4342 22.7081C11.0097 22.6433 10.6065 22.4827 10.0241 22.2507L4.12152 19.9016C3.33043 19.5873 2.75448 19.3585 2.31728 18.9622C1.93274 18.6136 1.63728 18.178 1.45562 17.6918C1.24906 17.1391 1.24944 16.5193 1.24996 15.6681L1.25001 13.9997C1.24967 13.9866 1.24967 13.9736 1.25001 13.9606V10.4997ZM12.3398 2.77462C12.1147 2.74025 11.8856 2.74025 11.6606 2.77461C11.4264 2.81037 11.1901 2.89956 10.5025 3.17324L4.79822 5.44351C3.83238 5.82791 3.53485 5.95862 3.32469 6.14912C3.11764 6.33681 2.95854 6.57136 2.86072 6.83315C2.76143 7.09885 2.75001 7.42363 2.75001 8.46315V9.37421L10.024 6.47917C10.6065 6.24718 11.0097 6.08658 11.4341 6.02178C11.8093 5.9645 12.1909 5.9645 12.5661 6.02178C12.9905 6.08659 13.3937 6.24719 13.9762 6.47919L21.25 9.37424V8.46312C21.25 7.42361 21.2386 7.09884 21.1393 6.83313C21.0415 6.57135 20.8824 6.3368 20.6753 6.14911C20.4652 5.95861 20.1677 5.8279 19.2018 5.4435L13.4978 3.17325C12.8102 2.89957 12.5739 2.81038 12.3398 2.77462ZM2.75001 14.4886L4.49999 13.7922C4.88484 13.639 5.07266 13.2028 4.91949 12.818C4.76632 12.4331 4.33017 12.2453 3.94531 12.3985L2.75001 12.8742V10.9886L10.5025 7.90322C11.1901 7.62954 11.4263 7.54035 11.6605 7.5046C11.8856 7.47023 12.1146 7.47023 12.3397 7.5046C12.5739 7.54036 12.8101 7.62955 13.4977 7.90323L21.25 10.9887V12.8742L20.0547 12.3985C19.6698 12.2453 19.2337 12.4331 19.0805 12.818C18.9273 13.2028 19.1151 13.639 19.5 13.7922L21.25 14.4887V15.5368C21.25 16.5763 21.2386 16.9011 21.1393 17.1668C21.0415 17.4286 20.8824 17.6631 20.6753 17.8508C20.4652 18.0413 20.1677 18.172 19.2018 18.5564L13.4978 20.8267C12.8102 21.1003 12.5739 21.1895 12.3398 21.2253C12.1147 21.2597 11.8856 21.2597 11.6606 21.2253C11.4264 21.1895 11.1901 21.1004 10.5025 20.8267L4.79822 18.5564C3.83238 18.172 3.53485 18.0413 3.32469 17.8508C3.11764 17.6631 2.95854 17.4286 2.86072 17.1668C2.76143 16.9011 2.75001 16.5763 2.75001 15.5368V14.4886Z" fill="#000"/>
</svg>
