<svg width="24" height="24" viewBox="0 0 24 24" fill="none" xmlns="http://www.w3.org/2000/svg">
<path d="M8 2.25C8.41421 2.25 8.75 2.58579 8.75 3V4.25H11.9829C11.9939 4.24976 12.0049 4.24976 12.016 4.25H14C14.4142 4.25 14.75 4.58579 14.75 5C14.75 5.41421 14.4142 5.75 14 5.75H12.5951C12.0785 7.83556 11.3151 9.58586 10.0899 11.1452C9.79327 11.5227 9.47146 11.8866 9.12228 12.2396C10.0146 12.9532 11.0796 13.6436 12.3591 14.3416C12.7228 14.54 12.8568 14.9955 12.6584 15.3592C12.4601 15.7228 12.0045 15.8568 11.6409 15.6584C10.2166 14.8816 9.015 14.0962 8.00008 13.2606C6.98357 14.0975 5.7815 14.8827 4.35931 15.6584C3.99568 15.8567 3.5401 15.7228 3.34175 15.3591C3.1434 14.9955 3.2774 14.5399 3.64103 14.3416C4.9224 13.6426 5.98696 12.952 6.8778 12.2396C6.00565 11.358 5.30575 10.4096 4.74209 9.35303C4.54713 8.98757 4.68535 8.53325 5.05082 8.33829C5.41628 8.14334 5.8706 8.28156 6.06555 8.64702C6.5644 9.58214 7.19121 10.4335 8.00008 11.2408C8.33344 10.9081 8.63557 10.5682 8.91043 10.2184C9.90599 8.95135 10.5718 7.51782 11.0461 5.75H2C1.58579 5.75 1.25 5.41421 1.25 5C1.25 4.58579 1.58579 4.25 2 4.25H7.25V3C7.25 2.58579 7.58579 2.25 8 2.25Z" fill="#000"/>
<path fill-rule="evenodd" clip-rule="evenodd" d="M17.5 10.25C17.7951 10.25 18.0628 10.4231 18.1839 10.6922L21.3273 17.6774C21.3321 17.6874 21.3366 17.6976 21.341 17.7078L22.6839 20.6922C22.8539 21.07 22.6855 21.514 22.3078 21.6839C21.93 21.8539 21.486 21.6855 21.3161 21.3078L20.1651 18.75H14.8349L13.6839 21.3078C13.514 21.6855 13.07 21.8539 12.6922 21.6839C12.3145 21.514 12.1461 21.07 12.3161 20.6922L13.6591 17.7078C13.6634 17.6976 13.6679 17.6874 13.6727 17.6775L16.8161 10.6922C16.9372 10.4231 17.2049 10.25 17.5 10.25ZM19.4901 17.25L17.5 12.8276L15.5099 17.25H19.4901Z" fill="#000"/>
</svg>
