<svg width="24" height="24" viewBox="0 0 24 24" fill="none" xmlns="http://www.w3.org/2000/svg">
<path d="M9 3.25H7.36821C6.62513 3.24999 6.02196 3.24999 5.53273 3.28996C5.02778 3.33121 4.57851 3.41876 4.16103 3.63148C3.50247 3.96703 2.96703 4.50247 2.63148 5.16103C2.41876 5.57851 2.33121 6.02778 2.28996 6.53273C2.24999 7.02197 2.24999 7.62512 2.25 8.36821L2.25 14C2.25 14.4142 2.58579 14.75 3 14.75C3.41421 14.75 3.75 14.4142 3.75 14V8.4C3.75 7.61755 3.75058 7.07582 3.78498 6.65488C3.81865 6.24269 3.88097 6.0128 3.96799 5.84202C4.15973 5.4657 4.4657 5.15973 4.84202 4.96799C5.0128 4.88097 5.24269 4.81865 5.65488 4.78498C6.07582 4.75058 6.61755 4.75 7.4 4.75H9C9.41421 4.75 9.75 4.41421 9.75 4C9.75 3.58579 9.41421 3.25 9 3.25Z" fill="#000"/>
<path d="M16.6 4.75C17.3824 4.75 17.9242 4.75058 18.3451 4.78498C18.7573 4.81865 18.9872 4.88097 19.158 4.96799C19.5343 5.15973 19.8403 5.4657 20.032 5.84202C20.119 6.0128 20.1813 6.24269 20.215 6.65488C20.2494 7.07582 20.25 7.61755 20.25 8.4V14C20.25 14.4142 20.5858 14.75 21 14.75C21.4142 14.75 21.75 14.4142 21.75 14V8.36819C21.75 7.62515 21.75 7.02195 21.71 6.53273C21.6688 6.02778 21.5812 5.57851 21.3685 5.16103C21.033 4.50247 20.4975 3.96703 19.839 3.63148C19.4215 3.41876 18.9722 3.33121 18.4673 3.28996C17.978 3.24999 17.3749 3.24999 16.6318 3.25H15C14.5858 3.25 14.25 3.58579 14.25 4C14.25 4.41421 14.5858 4.75 15 4.75H16.6Z" fill="#000"/>
<path fill-rule="evenodd" clip-rule="evenodd" d="M1 16.25C0.801088 16.25 0.610322 16.329 0.46967 16.4697C0.329018 16.6103 0.25 16.8011 0.25 17V17.75C0.25 19.4069 1.59315 20.75 3.25 20.75H20.75C22.4069 20.75 23.75 19.4069 23.75 17.75V17C23.75 16.5858 23.4142 16.25 23 16.25H1ZM3.25 19.25C2.42157 19.25 1.75 18.5784 1.75 17.75H22.25C22.25 18.5784 21.5784 19.25 20.75 19.25H3.25Z" fill="#000"/>
<path d="M12 3.25C12.4142 3.25 12.75 3.58579 12.75 4V10.1893L14.4697 8.46967C14.7626 8.17678 15.2374 8.17678 15.5303 8.46967C15.8232 8.76256 15.8232 9.23744 15.5303 9.53033L12.5303 12.5303C12.3897 12.671 12.1989 12.75 12 12.75C11.8011 12.75 11.6103 12.671 11.4697 12.5303L8.46967 9.53033C8.17678 9.23744 8.17678 8.76256 8.46967 8.46967C8.76256 8.17678 9.23744 8.17678 9.53033 8.46967L11.25 10.1893V4C11.25 3.58579 11.5858 3.25 12 3.25Z" fill="#000"/>
</svg>
