<svg width="24" height="24" viewBox="0 0 24 24" fill="none" xmlns="http://www.w3.org/2000/svg">
<path fill-rule="evenodd" clip-rule="evenodd" d="M13.5131 1.59529C12.5562 1.13636 11.4428 1.13637 10.486 1.5953L2.129 5.60345C0.956017 6.16603 0.956077 7.83614 2.1291 8.39864L10.4862 12.4061C11.4429 12.8649 12.5561 12.8649 13.5129 12.4061L21.8701 8.39864C23.0431 7.83615 23.0432 6.16603 21.8702 5.60344L13.5131 1.59529ZM11.1347 2.94778C11.6814 2.68554 12.3177 2.68554 12.8644 2.94778L21.2215 6.95593C21.2315 6.96069 21.2363 6.96466 21.2383 6.96649C21.2404 6.96846 21.2419 6.97034 21.2432 6.97252C21.2462 6.97741 21.2499 6.98722 21.2499 7.00102C21.2499 7.01482 21.2462 7.02463 21.2432 7.02952C21.2419 7.0317 21.2404 7.03358 21.2383 7.03554C21.2363 7.03738 21.2315 7.04135 21.2215 7.0461L12.8643 11.0536C12.3176 11.3157 11.6815 11.3157 11.1348 11.0535L2.77768 7.0461C2.76777 7.04135 2.76296 7.03738 2.76095 7.03554C2.7588 7.03358 2.75731 7.0317 2.756 7.02952C2.75307 7.02463 2.7493 7.01482 2.7493 7.00102C2.7493 6.98722 2.75306 6.97741 2.756 6.97252C2.75731 6.97034 2.7588 6.96846 2.76095 6.96649C2.76295 6.96466 2.76777 6.96069 2.77768 6.95593L11.1347 2.94778Z" fill="#000"/>
<path d="M3.95657 10.5585C4.1357 10.9319 3.97815 11.3799 3.60467 11.559L2.7774 11.9558C2.76749 11.9606 2.76268 11.9645 2.76067 11.9664C2.75853 11.9683 2.75703 11.9702 2.75572 11.9724C2.75279 11.9773 2.74902 11.9871 2.74902 12.0009C2.74902 12.0147 2.75279 12.0245 2.75573 12.0294C2.75703 12.0316 2.75853 12.0335 2.76068 12.0354C2.76268 12.0373 2.7675 12.0412 2.7774 12.046L11.1345 16.0534C11.6812 16.3156 12.3173 16.3156 12.864 16.0534L21.2213 12.046C21.2312 12.0412 21.236 12.0373 21.238 12.0354C21.2401 12.0335 21.2416 12.0316 21.2429 12.0294C21.2459 12.0245 21.2497 12.0147 21.2497 12.0009C21.2497 11.9871 21.2459 11.9773 21.243 11.9724C21.2416 11.9702 21.2401 11.9683 21.238 11.9664C21.236 11.9645 21.2312 11.9606 21.2213 11.9558L20.3943 11.5592C20.0209 11.3801 19.8633 10.9321 20.0424 10.5586C20.2216 10.1852 20.6695 10.0276 21.043 10.2067L21.8699 10.6033C23.0429 11.1659 23.0429 12.836 21.8698 13.3985L13.5126 17.406C12.5559 17.8647 11.4427 17.8647 10.4859 17.406L2.12883 13.3985C0.955802 12.836 0.955742 11.1659 2.12873 10.6033L2.95599 10.2066C3.32947 10.0274 3.77745 10.185 3.95657 10.5585Z" fill="#000"/>
<path d="M3.95657 15.5585C4.1357 15.9319 3.97815 16.3799 3.60467 16.559L2.7774 16.9558C2.76749 16.9606 2.76268 16.9645 2.76067 16.9664C2.75853 16.9683 2.75703 16.9702 2.75572 16.9724C2.75279 16.9773 2.74902 16.9871 2.74902 17.0009C2.74902 17.0147 2.75279 17.0245 2.75573 17.0294C2.75703 17.0316 2.75853 17.0335 2.76068 17.0354C2.76268 17.0373 2.7675 17.0412 2.7774 17.046L11.1345 21.0534C11.6812 21.3156 12.3173 21.3156 12.864 21.0534L21.2213 17.046C21.2312 17.0412 21.236 17.0373 21.238 17.0354C21.2401 17.0335 21.2416 17.0316 21.2429 17.0294C21.2459 17.0245 21.2497 17.0147 21.2497 17.0009C21.2497 16.9871 21.2459 16.9773 21.243 16.9724L21.2405 16.9689L21.238 16.9664C21.236 16.9645 21.2312 16.9606 21.2213 16.9558L20.3943 16.5592C20.0209 16.3801 19.8633 15.9321 20.0424 15.5586C20.2216 15.1852 20.6695 15.0276 21.043 15.2067L21.8699 15.6033C23.0429 16.1659 23.0429 17.836 21.8698 18.3985L13.5126 22.406C12.5559 22.8647 11.4427 22.8647 10.4859 22.406L2.12883 18.3985C0.955802 17.836 0.955742 16.1659 2.12873 15.6033L2.95599 15.2066C3.32947 15.0274 3.77745 15.185 3.95657 15.5585Z" fill="#000"/>
</svg>
