<svg width="24" height="24" viewBox="0 0 24 24" fill="none" xmlns="http://www.w3.org/2000/svg">
<path fill-rule="evenodd" clip-rule="evenodd" d="M6.2679 3.25C5.45506 3.24999 4.79944 3.24999 4.26853 3.29336C3.7219 3.33803 3.24175 3.43239 2.79754 3.65873C2.09193 4.01825 1.51825 4.59193 1.15873 5.29754C0.932386 5.74175 0.838026 6.2219 0.793364 6.76853C0.749987 7.29944 0.749993 7.95505 0.75 8.76788V15.2321C0.749993 16.0449 0.749987 16.7006 0.793364 17.2315C0.838026 17.7781 0.932386 18.2582 1.15873 18.7025C1.51825 19.4081 2.09193 19.9818 2.79754 20.3413C3.24175 20.5676 3.7219 20.662 4.26853 20.7066C4.79944 20.75 5.45505 20.75 6.26788 20.75H17.7321C18.545 20.75 19.2006 20.75 19.7315 20.7066C20.2781 20.662 20.7582 20.5676 21.2025 20.3413C21.9081 19.9818 22.4817 19.4081 22.8413 18.7025C23.0676 18.2582 23.162 17.7781 23.2066 17.2315C23.25 16.7005 23.25 16.0449 23.25 15.232V8.76798C23.25 7.9551 23.25 7.29946 23.2066 6.76853C23.162 6.2219 23.0676 5.74175 22.8413 5.29754C22.4817 4.59193 21.9081 4.01825 21.2025 3.65873C20.7582 3.43239 20.2781 3.33803 19.7315 3.29336C19.2006 3.24999 18.5449 3.24999 17.7321 3.25H6.2679ZM7.25 4.75H6.3C5.44755 4.75 4.85331 4.75058 4.39068 4.78838C3.93681 4.82547 3.67604 4.8946 3.47852 4.99524C3.05516 5.21095 2.71095 5.55516 2.49524 5.97852C2.3946 6.17604 2.32547 6.43681 2.28838 6.89068C2.25058 7.35331 2.25 7.94755 2.25 8.8V15.2C2.25 16.0525 2.25058 16.6467 2.28838 17.1093C2.32547 17.5632 2.3946 17.824 2.49524 18.0215C2.71095 18.4448 3.05516 18.7891 3.47852 19.0048C3.67604 19.1054 3.93681 19.1745 4.39068 19.2116C4.85331 19.2494 5.44755 19.25 6.3 19.25H7.25L7.25 4.75ZM8.75 19.25L8.75 4.75H17.7C18.5525 4.75 19.1467 4.75058 19.6093 4.78838C20.0632 4.82547 20.324 4.8946 20.5215 4.99524C20.9448 5.21095 21.289 5.55516 21.5048 5.97852C21.6054 6.17604 21.6745 6.43681 21.7116 6.89068C21.7494 7.35331 21.75 7.94755 21.75 8.8V15.2C21.75 16.0525 21.7494 16.6467 21.7116 17.1093C21.6745 17.5632 21.6054 17.824 21.5048 18.0215C21.289 18.4448 20.9448 18.7891 20.5215 19.0048C20.324 19.1054 20.0632 19.1745 19.6093 19.2116C19.1467 19.2494 18.5525 19.25 17.7 19.25H8.75Z" fill="#000"/>
</svg>
