<svg width="24" height="24" viewBox="0 0 24 24" fill="none" xmlns="http://www.w3.org/2000/svg">
<path fill-rule="evenodd" clip-rule="evenodd" d="M0.25 12C0.25 5.51065 5.51065 0.25 12 0.25C18.4893 0.25 23.75 5.51065 23.75 12C23.75 18.4893 18.4893 23.75 12 23.75C5.51065 23.75 0.25 18.4893 0.25 12ZM4.24113 5.30179C2.68887 7.09826 1.75 9.43949 1.75 12C1.75 14.5605 2.68887 16.9017 4.24113 18.6982L7.79521 15.1441C7.1388 14.2677 6.75 13.1793 6.75 12C6.75 10.8207 7.1388 9.73231 7.79521 8.85587L4.24113 5.30179ZM5.30179 4.24113L8.85587 7.79521C9.73231 7.1388 10.8207 6.75 12 6.75C13.1793 6.75 14.2677 7.1388 15.1441 7.79521L18.6982 4.24113C16.9017 2.68887 14.5605 1.75 12 1.75C9.43949 1.75 7.09826 2.68887 5.30179 4.24113ZM19.7589 5.30179L16.2048 8.85587C16.8612 9.73231 17.25 10.8207 17.25 12C17.25 13.1793 16.8612 14.2677 16.2048 15.1441L19.7589 18.6982C21.3111 16.9017 22.25 14.5605 22.25 12C22.25 9.43949 21.3111 7.09826 19.7589 5.30179ZM18.6982 19.7589L15.1441 16.2048C14.2677 16.8612 13.1793 17.25 12 17.25C10.8207 17.25 9.73231 16.8612 8.85587 16.2048L5.30179 19.7589C7.09826 21.3111 9.43949 22.25 12 22.25C14.5605 22.25 16.9017 21.3111 18.6982 19.7589ZM12 8.25C9.92893 8.25 8.25 9.92893 8.25 12C8.25 14.0711 9.92893 15.75 12 15.75C14.0711 15.75 15.75 14.0711 15.75 12C15.75 9.92893 14.0711 8.25 12 8.25Z" fill="#000"/>
</svg>
