<svg width="24" height="24" viewBox="0 0 24 24" fill="none" xmlns="http://www.w3.org/2000/svg">
<path d="M9.96942 7.03037C9.67653 6.73748 9.67653 6.2626 9.96942 5.96971L13.0194 2.91972C15.2453 0.693833 18.8542 0.693832 21.0801 2.91972C23.306 5.14561 23.306 8.75449 21.0801 10.9804L18.0301 14.0304C17.7372 14.3233 17.2623 14.3233 16.9694 14.0304C16.6765 13.7375 16.6765 13.2626 16.9694 12.9697L20.0194 9.91972C21.6595 8.27962 21.6595 5.62049 20.0194 3.98038C18.3793 2.34028 15.7202 2.34028 14.0801 3.98038L11.0301 7.03037C10.7372 7.32326 10.2623 7.32326 9.96942 7.03037Z" fill="#000"/>
<path d="M15.5301 8.46971C15.8229 8.7626 15.8229 9.23748 15.5301 9.53037L9.53006 15.5304C9.23716 15.8233 8.76229 15.8233 8.4694 15.5304C8.1765 15.2375 8.1765 14.7626 8.4694 14.4697L14.4694 8.46971C14.7623 8.17682 15.2372 8.17682 15.5301 8.46971Z" fill="#000"/>
<path d="M14.0301 18.0304C14.323 17.7375 14.323 17.2626 14.0301 16.9697C13.7372 16.6768 13.2623 16.6768 12.9694 16.9697L9.91942 20.0197C8.27931 21.6598 5.62018 21.6598 3.98008 20.0197C2.33997 18.3796 2.33997 15.7205 3.98008 14.0804L7.03007 11.0304C7.32296 10.7375 7.32296 10.2626 7.03007 9.96971C6.73717 9.67682 6.2623 9.67682 5.96941 9.96971L2.91942 13.0197C0.693528 15.2456 0.693527 18.8545 2.91942 21.0804C5.14531 23.3062 8.75419 23.3062 10.9801 21.0804L14.0301 18.0304Z" fill="#000"/>
</svg>
