<svg width="24" height="24" viewBox="0 0 24 24" fill="none" xmlns="http://www.w3.org/2000/svg">
<path d="M9.96966 7.03031C9.67677 6.73742 9.67677 6.26254 9.96966 5.96965L13.0196 2.91966C15.2455 0.693772 18.8544 0.693771 21.0803 2.91966C23.3062 5.14555 23.3062 8.75443 21.0803 10.9803L18.0303 14.0303C17.7374 14.3232 17.2626 14.3232 16.9697 14.0303C16.6768 13.7374 16.6768 13.2625 16.9697 12.9696L20.0196 9.91966C21.6598 8.27956 21.6598 5.62042 20.0196 3.98032C18.3795 2.34022 15.7204 2.34022 14.0803 3.98032L11.0303 7.03031C10.7374 7.3232 10.2626 7.3232 9.96966 7.03031Z" fill="#000"/>
<path d="M15.5303 8.46965C15.8232 8.76254 15.8232 9.23742 15.5303 9.53031L9.5303 15.5303C9.23741 15.8232 8.76253 15.8232 8.46964 15.5303C8.17675 15.2374 8.17675 14.7625 8.46964 14.4696L14.4696 8.46965C14.7625 8.17676 15.2374 8.17676 15.5303 8.46965Z" fill="#000"/>
<path d="M14.0303 18.0303C14.3232 17.7374 14.3232 17.2625 14.0303 16.9696C13.7374 16.6768 13.2625 16.6768 12.9696 16.9696L9.91966 20.0196C8.27956 21.6597 5.62043 21.6597 3.98032 20.0196C2.34022 18.3795 2.34022 15.7204 3.98032 14.0803L7.03031 11.0303C7.3232 10.7374 7.3232 10.2625 7.03031 9.96965C6.73742 9.67676 6.26254 9.67676 5.96965 9.96965L2.91966 13.0196C0.693772 15.2455 0.693771 18.8544 2.91966 21.0803C5.14555 23.3062 8.75443 23.3062 10.9803 21.0803L14.0303 18.0303Z" fill="#000"/>
</svg>
