<svg width="24" height="24" viewBox="0 0 24 24" fill="none" xmlns="http://www.w3.org/2000/svg">
<path d="M2.53033 1.46967C2.23744 1.17678 1.76256 1.17678 1.46967 1.46967C1.17678 1.76256 1.17678 2.23744 1.46967 2.53033L10.9393 12L8.46967 14.4697C8.17678 14.7626 8.17678 15.2374 8.46967 15.5303C8.76256 15.8232 9.23744 15.8232 9.53033 15.5303L12 13.0607L21.4697 22.5303C21.7626 22.8232 22.2374 22.8232 22.5303 22.5303C22.8232 22.2374 22.8232 21.7626 22.5303 21.4697L12.5349 11.4742C12.5334 11.4727 12.5319 11.4712 12.5303 11.4697C12.5288 11.4681 12.5273 11.4666 12.5258 11.4651L2.53033 1.46967Z" fill="#000"/>
<path d="M20.0197 3.98032C18.3796 2.34022 15.7204 2.34022 14.0803 3.98032L11.0303 7.03031C10.7374 7.3232 10.2626 7.3232 9.96967 7.03031C9.67678 6.73742 9.67678 6.26254 9.96967 5.96965L13.0197 2.91966C15.2455 0.693772 18.8544 0.693771 21.0803 2.91966C23.3062 5.14555 23.3062 8.75443 21.0803 10.9803L18.0303 14.0303C17.7374 14.3232 17.2626 14.3232 16.9697 14.0303C16.6768 13.7374 16.6768 13.2625 16.9697 12.9696L20.0197 9.91966C21.6598 8.27956 21.6598 5.62043 20.0197 3.98032Z" fill="#000"/>
<path d="M15.5303 8.46967C15.8232 8.76256 15.8232 9.23744 15.5303 9.53033L14.5303 10.5303C14.2375 10.8232 13.7626 10.8232 13.4697 10.5303C13.1768 10.2374 13.1768 9.76254 13.4697 9.46965L14.4697 8.46967C14.7626 8.17678 15.2374 8.17678 15.5303 8.46967Z" fill="#000"/>
<path d="M14.0303 16.9697C14.3232 17.2626 14.3232 17.7374 14.0303 18.0303L10.9804 21.0803C8.75446 23.3062 5.14558 23.3062 2.91969 21.0803C0.693801 18.8544 0.693802 15.2455 2.91969 13.0197L5.96968 9.96967C6.26257 9.67678 6.73745 9.67678 7.03034 9.96967C7.32323 10.2626 7.32323 10.7374 7.03034 11.0303L3.98035 14.0803C2.34025 15.7204 2.34025 18.3796 3.98035 20.0197C5.62045 21.6598 8.27959 21.6598 9.91969 20.0197L12.9697 16.9697C13.2626 16.6768 13.7374 16.6768 14.0303 16.9697Z" fill="#000"/>
</svg>
