<svg width="24" height="24" viewBox="0 0 24 24" fill="none" xmlns="http://www.w3.org/2000/svg">
<path d="M7.04144 4.51898C7.32807 4.21995 7.31801 3.74518 7.01898 3.45856C6.71995 3.17193 6.24518 3.18199 5.95856 3.48102L3.61432 5.92672L2.53154 4.83899C2.23932 4.54542 1.76444 4.54434 1.47088 4.83656C1.17732 5.12879 1.17624 5.60366 1.46846 5.89722L3.09292 7.52912C3.2354 7.67225 3.42959 7.75188 3.63154 7.74997C3.8335 7.74806 4.02615 7.66478 4.1659 7.51898L7.04144 4.51898Z" fill="#000"/>
<path d="M3.75 18.5C3.19772 18.5 2.75 18.9477 2.75 19.5C2.75 20.0523 3.19772 20.5 3.75 20.5C4.30228 20.5 4.7501 20.0523 4.7501 19.5C4.7501 18.9477 4.30228 18.5 3.75 18.5Z" fill="#000"/>
<path d="M7.01898 10.4586C7.31801 10.7452 7.32807 11.22 7.04144 11.519L4.1659 14.519C4.02615 14.6648 3.8335 14.7481 3.63154 14.75C3.42959 14.7519 3.2354 14.6723 3.09292 14.5291L1.46846 12.8972C1.17624 12.6037 1.17732 12.1288 1.47088 11.8366C1.76444 11.5443 2.23932 11.5454 2.53154 11.839L3.61432 12.9267L5.95856 10.481C6.24518 10.182 6.71995 10.1719 7.01898 10.4586Z" fill="#000"/>
<path d="M10.5 12.25C10.0858 12.25 9.75 12.5858 9.75 13C9.75 13.4142 10.0858 13.75 10.5 13.75H22C22.4142 13.75 22.75 13.4142 22.75 13C22.75 12.5858 22.4142 12.25 22 12.25H10.5Z" fill="#000"/>
<path d="M9.75 6C9.75 5.58579 10.0858 5.25 10.5 5.25H22C22.4142 5.25 22.75 5.58579 22.75 6C22.75 6.41421 22.4142 6.75 22 6.75H10.5C10.0858 6.75 9.75 6.41421 9.75 6Z" fill="#000"/>
<path d="M8 18.75C7.58579 18.75 7.25 19.0858 7.25 19.5C7.25 19.9142 7.58579 20.25 8 20.25H22C22.4142 20.25 22.75 19.9142 22.75 19.5C22.75 19.0858 22.4142 18.75 22 18.75H8Z" fill="#000"/>
</svg>
