<svg width="24" height="24" viewBox="0 0 24 24" fill="none" xmlns="http://www.w3.org/2000/svg">
<path d="M2 4C1.44772 4 1 4.44772 1 5C1 5.55228 1.44772 6 2 6C2.55228 6 3.0001 5.55228 3.0001 5C3.0001 4.44772 2.55228 4 2 4Z" fill="#000"/>
<path d="M7 4.25C6.58579 4.25 6.25 4.58579 6.25 5C6.25 5.41421 6.58579 5.75 7 5.75H22C22.4142 5.75 22.75 5.41421 22.75 5C22.75 4.58579 22.4142 4.25 22 4.25H7Z" fill="#000"/>
<path d="M7 11.25C6.58579 11.25 6.25 11.5858 6.25 12C6.25 12.4142 6.58579 12.75 7 12.75H22C22.4142 12.75 22.75 12.4142 22.75 12C22.75 11.5858 22.4142 11.25 22 11.25H7Z" fill="#000"/>
<path d="M6.25 19C6.25 18.5858 6.58579 18.25 7 18.25H22C22.4142 18.25 22.75 18.5858 22.75 19C22.75 19.4142 22.4142 19.75 22 19.75H7C6.58579 19.75 6.25 19.4142 6.25 19Z" fill="#000"/>
<path d="M1 12C1 11.4477 1.44772 11 2 11C2.55228 11 3.0001 11.4477 3.0001 12C3.0001 12.5523 2.55238 13 2.0001 13C1.44782 13 1 12.5523 1 12Z" fill="#000"/>
<path d="M2 18C1.44772 18 1 18.4477 1 19C1 19.5523 1.44772 20 2 20C2.55228 20 3.0001 19.5523 3.0001 19C3.0001 18.4477 2.55228 18 2 18Z" fill="#000"/>
</svg>
