<svg width="24" height="24" viewBox="0 0 24 24" fill="none" xmlns="http://www.w3.org/2000/svg">
<path fill-rule="evenodd" clip-rule="evenodd" d="M2.53033 1.46967C2.23744 1.17678 1.76256 1.17678 1.46967 1.46967C1.17678 1.76256 1.17678 2.23744 1.46967 2.53033L4.47383 5.53449C3.69648 6.84208 3.25 8.36977 3.25 10C3.25 13.7949 5.52766 16.7306 7.94247 19.4117C8.62465 20.1697 10.2022 21.632 10.9929 22.3568C11.5634 22.8798 12.4365 22.8798 13.007 22.3568C13.7978 21.632 15.3752 20.1697 16.0574 19.4117C16.4199 19.0093 16.7829 18.6073 17.1356 18.1963L21.4697 22.5303C21.7626 22.8232 22.2374 22.8232 22.5303 22.5303C22.8232 22.2374 22.8232 21.7626 22.5303 21.4697L17.6228 16.5622C17.6186 16.5579 17.6144 16.5536 17.6101 16.5495L5.97212 4.91146C5.96596 4.90507 5.95966 4.89878 5.95324 4.89258L2.53033 1.46967ZM5.57568 6.63634C5.04831 7.64126 4.75 8.7851 4.75 10C4.75 13.5879 7.03278 16.1607 8.93516 18.2725L9.05741 18.4083C9.67866 19.0986 11.1873 20.5001 12 21.2451C12.8126 20.5001 14.3212 19.0986 14.9425 18.4083L15.059 18.2788C15.3833 17.9189 15.7259 17.5385 16.0717 17.1324L5.57568 6.63634Z" fill="#000"/>
<path d="M7.86051 4.04708C9.03399 3.22938 10.4599 2.75 12 2.75C16.004 2.75 19.2499 5.99597 19.2499 10C19.2499 11.6248 18.7628 13.0658 18.0548 14.3492C17.8547 14.7118 17.9865 15.1681 18.3492 15.3681C18.7118 15.5682 19.168 15.4364 19.3681 15.0737C20.1661 13.6273 20.7499 11.9379 20.7499 10C20.7499 5.16756 16.8324 1.25 12 1.25C10.1434 1.25 8.41988 1.82905 7.00295 2.81639C6.6631 3.0532 6.57957 3.52067 6.81638 3.86052C7.05319 4.20036 7.52066 4.28389 7.86051 4.04708Z" fill="#000"/>
<path d="M11.6789 8.27946C11.7828 8.26018 11.8904 8.25 12.0011 8.25C12.9676 8.25 13.7511 9.0335 13.7511 10C13.7511 10.1107 13.7409 10.2183 13.7216 10.3222C13.646 10.7295 13.9149 11.1209 14.3222 11.1965C14.7294 11.272 15.1209 11.0032 15.1964 10.5959C15.2324 10.4022 15.2511 10.2029 15.2511 10C15.2511 8.20507 13.796 6.75 12.0011 6.75C11.7982 6.75 11.5989 6.76869 11.4052 6.80464C10.9979 6.88023 10.7291 7.27165 10.8046 7.67891C10.8802 8.08617 11.2716 8.35504 11.6789 8.27946Z" fill="#000"/>
</svg>
