<svg width="24" height="24" viewBox="0 0 24 24" fill="none" xmlns="http://www.w3.org/2000/svg">
<path fill-rule="evenodd" clip-rule="evenodd" d="M11.9999 6.75C10.205 6.75 8.74994 8.20507 8.74994 10C8.74994 11.7949 10.205 13.25 11.9999 13.25C13.7949 13.25 15.2499 11.7949 15.2499 10C15.2499 8.20507 13.7949 6.75 11.9999 6.75ZM10.2499 10C10.2499 9.0335 11.0334 8.25 11.9999 8.25C12.9664 8.25 13.7499 9.0335 13.7499 10C13.7499 10.9665 12.9664 11.75 11.9999 11.75C11.0334 11.75 10.2499 10.9665 10.2499 10Z" fill="#000"/>
<path fill-rule="evenodd" clip-rule="evenodd" d="M12 1.25C7.16751 1.25 3.25 5.16754 3.25 10C3.25 14.2073 5.92621 17.1754 7.78067 19.2322L7.94247 19.4117C8.62466 20.1697 10.2022 21.632 10.9929 22.3568C11.5634 22.8798 12.4365 22.8798 13.007 22.3568C13.7978 21.632 15.3752 20.1697 16.0574 19.4117L16.2124 19.2397C17.9881 17.2706 20.7499 14.2078 20.7499 10C20.7499 5.16755 16.8324 1.25 12 1.25ZM4.75 10C4.75 5.99596 7.99594 2.75 12 2.75C16.004 2.75 19.2499 5.99597 19.2499 10C19.2499 13.6235 16.8369 16.3039 15.0091 18.3343L14.9425 18.4083C14.3212 19.0986 12.8126 20.5001 12 21.2451C11.1873 20.5001 9.67866 19.0986 9.05741 18.4083L8.98624 18.3292C7.07627 16.2076 4.75 13.6235 4.75 10Z" fill="#000"/>
</svg>
