<svg width="24" height="24" viewBox="0 0 24 24" fill="none" xmlns="http://www.w3.org/2000/svg">
<path d="M18.1093 2.78838C17.6467 2.75058 17.0525 2.75 16.2 2.75H13C12.5858 2.75 12.25 2.41421 12.25 2C12.25 1.58579 12.5858 1.25 13 1.25H16.2321C17.0449 1.24999 17.7006 1.24999 18.2315 1.29336C18.7781 1.33803 19.2582 1.43239 19.7025 1.65873C20.4081 2.01825 20.9818 2.59193 21.3413 3.29754C21.5676 3.74175 21.662 4.2219 21.7066 4.76853C21.75 5.29944 21.75 5.95505 21.75 6.76788V17.2321C21.75 18.045 21.75 18.7006 21.7066 19.2315C21.662 19.7781 21.5676 20.2582 21.3413 20.7025C20.9818 21.4081 20.4081 21.9817 19.7025 22.3413C19.2582 22.5676 18.7781 22.662 18.2315 22.7066C17.7006 22.75 17.045 22.75 16.2321 22.75H13C12.5858 22.75 12.25 22.4142 12.25 22C12.25 21.5858 12.5858 21.25 13 21.25H16.2C17.0525 21.25 17.6467 21.2494 18.1093 21.2116C18.5632 21.1745 18.824 21.1054 19.0215 21.0048C19.4448 20.789 19.7891 20.4448 20.0048 20.0215C20.1054 19.824 20.1745 19.5632 20.2116 19.1093C20.2494 18.6467 20.25 18.0525 20.25 17.2V6.8C20.25 5.94755 20.2494 5.35331 20.2116 4.89068C20.1745 4.43681 20.1054 4.17604 20.0048 3.97852C19.7891 3.55516 19.4448 3.21095 19.0215 2.99524C18.824 2.8946 18.5632 2.82547 18.1093 2.78838Z" fill="#000"/>
<path d="M8.46967 6.46967C8.76256 6.17678 9.23744 6.17678 9.53033 6.46967L14.5303 11.4697C14.8232 11.7626 14.8232 12.2374 14.5303 12.5303L9.53033 17.5303C9.23744 17.8232 8.76256 17.8232 8.46967 17.5303C8.17678 17.2374 8.17678 16.7626 8.46967 16.4697L12.1893 12.75H3C2.58579 12.75 2.25 12.4142 2.25 12C2.25 11.5858 2.58579 11.25 3 11.25H12.1893L8.46967 7.53033C8.17678 7.23744 8.17678 6.76256 8.46967 6.46967Z" fill="#000"/>
</svg>
