<svg width="24" height="24" viewBox="0 0 24 24" fill="none" xmlns="http://www.w3.org/2000/svg">
<path d="M5.89068 2.78838C6.35331 2.75058 6.94755 2.75 7.8 2.75H11C11.4142 2.75 11.75 2.41421 11.75 2C11.75 1.58579 11.4142 1.25 11 1.25H7.76789C6.95506 1.24999 6.29944 1.24999 5.76853 1.29336C5.2219 1.33803 4.74175 1.43239 4.29754 1.65873C3.59193 2.01825 3.01825 2.59193 2.65873 3.29754C2.43238 3.74175 2.33802 4.2219 2.29336 4.76853C2.24999 5.29944 2.24999 5.95505 2.25 6.76788V17.2321C2.24999 18.045 2.24999 18.7006 2.29336 19.2315C2.33802 19.7781 2.43238 20.2582 2.65873 20.7025C3.01825 21.4081 3.59193 21.9817 4.29754 22.3413C4.74175 22.5676 5.2219 22.662 5.76853 22.7066C6.29944 22.75 6.95505 22.75 7.76788 22.75H11C11.4142 22.75 11.75 22.4142 11.75 22C11.75 21.5858 11.4142 21.25 11 21.25H7.8C6.94755 21.25 6.35331 21.2494 5.89068 21.2116C5.4368 21.1745 5.17604 21.1054 4.97852 21.0048C4.55516 20.789 4.21095 20.4448 3.99524 20.0215C3.8946 19.824 3.82546 19.5632 3.78838 19.1093C3.75058 18.6467 3.75 18.0525 3.75 17.2V6.8C3.75 5.94755 3.75058 5.35331 3.78838 4.89068C3.82546 4.43681 3.8946 4.17604 3.99524 3.97852C4.21095 3.55516 4.55516 3.21095 4.97852 2.99524C5.17604 2.8946 5.4368 2.82547 5.89068 2.78838Z" fill="#000"/>
<path d="M15.4697 6.46967C15.7626 6.17678 16.2374 6.17678 16.5303 6.46967L21.5303 11.4697C21.8232 11.7626 21.8232 12.2374 21.5303 12.5303L16.5303 17.5303C16.2374 17.8232 15.7626 17.8232 15.4697 17.5303C15.1768 17.2374 15.1768 16.7626 15.4697 16.4697L19.1893 12.75H10C9.58579 12.75 9.25 12.4142 9.25 12C9.25 11.5858 9.58579 11.25 10 11.25H19.1893L15.4697 7.53033C15.1768 7.23744 15.1768 6.76256 15.4697 6.46967Z" fill="#000"/>
</svg>
