<svg width="24" height="24" viewBox="0 0 24 24" fill="none" xmlns="http://www.w3.org/2000/svg">
<path fill-rule="evenodd" clip-rule="evenodd" d="M7.53379 2.48845C8.1415 2.16122 8.87499 2.17046 9.47426 2.5129L15.2699 5.82472C15.4198 5.91033 15.6031 5.91264 15.7551 5.83084L20.5389 3.25495C21.5382 2.71684 22.75 3.44065 22.75 4.57566V16.7841C22.75 17.6118 22.2955 18.3727 21.5667 18.7651L16.4662 21.5115C15.8585 21.8388 15.125 21.8295 14.5257 21.4871L8.73005 18.1753C8.58024 18.0897 8.39686 18.0873 8.24494 18.1692L3.46115 20.745C2.4618 21.2831 1.25 20.5593 1.25 19.4243V7.21594C1.25 6.3882 1.70448 5.62731 2.43328 5.23488L7.53379 2.48845ZM3.14442 6.55558L7.75 4.07566V16.7481C7.67651 16.777 7.6043 16.8105 7.53379 16.8484L2.75 19.4243V7.21594C2.75 6.94002 2.90149 6.68639 3.14442 6.55558ZM9.47426 16.8729C9.40134 16.8312 9.32643 16.7945 9.25 16.7627V4.11238L14.5257 7.12709C14.5987 7.16876 14.6736 7.20549 14.75 7.23729V19.8876L9.47426 16.8729ZM16.25 19.9243L20.8556 17.4444C21.0985 17.3136 21.25 17.06 21.25 16.7841V4.57566L16.4662 7.15154C16.3957 7.18951 16.3235 7.22295 16.25 7.25186V19.9243Z" fill="#000"/>
</svg>
