<svg width="24" height="24" viewBox="0 0 24 24" fill="none" xmlns="http://www.w3.org/2000/svg">
<path d="M6.56739 1.25H12.4326C13.385 1.24999 14.1456 1.24999 14.7599 1.30018C15.3899 1.35165 15.9318 1.45963 16.4295 1.71322C17.2291 2.12068 17.8793 2.77085 18.2868 3.57054C18.5404 4.06824 18.6483 4.61012 18.6998 5.24013C18.75 5.85438 18.75 6.6149 18.75 7.5673V9C18.75 9.41421 18.4142 9.75 18 9.75C17.5858 9.75 17.25 9.41421 17.25 9V7.6C17.25 6.60753 17.2494 5.90829 17.2048 5.36228C17.1609 4.82503 17.0782 4.50252 16.9503 4.25153C16.6866 3.73408 16.2659 3.31338 15.7485 3.04973C15.4975 2.92184 15.175 2.83909 14.6377 2.79519C14.0917 2.75058 13.3925 2.75 12.4 2.75H6.6C5.60753 2.75 4.90829 2.75058 4.36228 2.79519C3.82503 2.83909 3.50252 2.92184 3.25153 3.04973C2.73408 3.31338 2.31338 3.73408 2.04973 4.25153C1.92184 4.50252 1.83909 4.82503 1.79519 5.36228C1.75058 5.90829 1.75 6.60753 1.75 7.6V16.4C1.75 17.3925 1.75058 18.0917 1.79519 18.6377C1.83909 19.175 1.92184 19.4975 2.04973 19.7485C2.31338 20.2659 2.73408 20.6866 3.25153 20.9503C3.50252 21.0782 3.82503 21.1609 4.36228 21.2048C4.90829 21.2494 5.60753 21.25 6.6 21.25H11.7546C12.1688 21.25 12.5046 21.5858 12.5046 22C12.5046 22.4142 12.1688 22.75 11.7546 22.75H6.56737C5.61497 22.75 4.85438 22.75 4.24013 22.6998C3.61012 22.6483 3.06824 22.5404 2.57054 22.2868C1.77085 21.8793 1.12068 21.2291 0.713223 20.4295C0.459634 19.9318 0.35165 19.3899 0.300176 18.7599C0.249989 18.1456 0.249994 17.3851 0.25 16.4326V7.56739C0.249994 6.61495 0.249989 5.85439 0.300176 5.24013C0.35165 4.61012 0.459634 4.06824 0.713223 3.57054C1.12068 2.77085 1.77085 2.12068 2.57054 1.71322C3.06824 1.45963 3.61012 1.35165 4.24013 1.30018C4.85439 1.24999 5.61495 1.24999 6.56739 1.25Z" fill="#000"/>
<path d="M4.75 8C4.75 7.58579 5.08579 7.25 5.5 7.25H9.5C9.91421 7.25 10.25 7.58579 10.25 8C10.25 8.41421 9.91421 8.75 9.5 8.75H5.5C5.08579 8.75 4.75 8.41421 4.75 8Z" fill="#000"/>
<path d="M4.75 12C4.75 11.5858 5.08579 11.25 5.5 11.25H11.7546C12.1688 11.25 12.5046 11.5858 12.5046 12C12.5046 12.4142 12.1688 12.75 11.7546 12.75H5.5C5.08579 12.75 4.75 12.4142 4.75 12Z" fill="#000"/>
<path d="M4.75 16C4.75 15.5858 5.08579 15.25 5.5 15.25H10.0619C10.4761 15.25 10.8119 15.5858 10.8119 16C10.8119 16.4142 10.4761 16.75 10.0619 16.75H5.5C5.08579 16.75 4.75 16.4142 4.75 16Z" fill="#000"/>
<path d="M20.625 17C20.625 17.3452 20.3452 17.625 20 17.625H18.625V19C18.625 19.3452 18.3452 19.625 18 19.625C17.6548 19.625 17.375 19.3452 17.375 19V17.625H16C15.6548 17.625 15.375 17.3452 15.375 17C15.375 16.6548 15.6548 16.375 16 16.375H17.375V15C17.375 14.6548 17.6548 14.375 18 14.375C18.3452 14.375 18.625 14.6548 18.625 15V16.375H20C20.3452 16.375 20.625 16.6548 20.625 17Z" fill="#000"/>
<path fill-rule="evenodd" clip-rule="evenodd" d="M18 11.25C14.8244 11.25 12.25 13.8244 12.25 17C12.25 20.1756 14.8244 22.75 18 22.75C21.1756 22.75 23.75 20.1756 23.75 17C23.75 13.8244 21.1756 11.25 18 11.25ZM13.75 17C13.75 14.6528 15.6528 12.75 18 12.75C20.3472 12.75 22.25 14.6528 22.25 17C22.25 19.3472 20.3472 21.25 18 21.25C15.6528 21.25 13.75 19.3472 13.75 17Z" fill="#000"/>
</svg>
