<svg width="24" height="24" viewBox="0 0 24 24" fill="none" xmlns="http://www.w3.org/2000/svg">
<path d="M12.4326 1.25H6.56739C5.61495 1.24999 4.85439 1.24999 4.24013 1.30018C3.61012 1.35165 3.06824 1.45963 2.57054 1.71322C1.77085 2.12068 1.12068 2.77085 0.713223 3.57054C0.459634 4.06824 0.35165 4.61012 0.300176 5.24013C0.249989 5.85439 0.249994 6.61494 0.25 7.56738V16.4326C0.249994 17.385 0.249989 18.1456 0.300176 18.7599C0.35165 19.3899 0.459634 19.9318 0.713223 20.4295C1.12068 21.2291 1.77085 21.8793 2.57054 22.2868C3.06824 22.5404 3.61012 22.6483 4.24013 22.6998C4.85438 22.75 5.6149 22.75 6.56731 22.75H11.7546C12.1688 22.75 12.5046 22.4142 12.5046 22C12.5046 21.5858 12.1688 21.25 11.7546 21.25H6.6C5.60753 21.25 4.90829 21.2494 4.36228 21.2048C3.82503 21.1609 3.50252 21.0782 3.25153 20.9503C2.73408 20.6866 2.31338 20.2659 2.04973 19.7485C1.92184 19.4975 1.83909 19.175 1.79519 18.6377C1.75058 18.0917 1.75 17.3925 1.75 16.4V7.6C1.75 6.60753 1.75058 5.90829 1.79519 5.36228C1.83909 4.82503 1.92184 4.50252 2.04973 4.25153C2.31338 3.73408 2.73408 3.31338 3.25153 3.04973C3.50252 2.92184 3.82503 2.83909 4.36228 2.79519C4.90829 2.75058 5.60753 2.75 6.6 2.75H12.4C13.3925 2.75 14.0917 2.75058 14.6377 2.79519C15.175 2.83909 15.4975 2.92184 15.7485 3.04973C16.2659 3.31338 16.6866 3.73408 16.9503 4.25153C17.0782 4.50252 17.1609 4.82503 17.2048 5.36228C17.2494 5.90829 17.25 6.60753 17.25 7.6V9C17.25 9.41421 17.5858 9.75 18 9.75C18.4142 9.75 18.75 9.41421 18.75 9V7.56737C18.75 6.61496 18.75 5.85438 18.6998 5.24013C18.6483 4.61012 18.5404 4.06824 18.2868 3.57054C17.8793 2.77085 17.2291 2.12068 16.4295 1.71322C15.9318 1.45963 15.3899 1.35165 14.7599 1.30018C14.1456 1.24999 13.385 1.24999 12.4326 1.25Z" fill="#000"/>
<path d="M5.5 7.25C5.08579 7.25 4.75 7.58579 4.75 8C4.75 8.41421 5.08579 8.75 5.5 8.75H9.5C9.91421 8.75 10.25 8.41421 10.25 8C10.25 7.58579 9.91421 7.25 9.5 7.25H5.5Z" fill="#000"/>
<path d="M5.5 11.25C5.08579 11.25 4.75 11.5858 4.75 12C4.75 12.4142 5.08579 12.75 5.5 12.75H11.7546C12.1688 12.75 12.5046 12.4142 12.5046 12C12.5046 11.5858 12.1688 11.25 11.7546 11.25H5.5Z" fill="#000"/>
<path d="M5.5 15.25C5.08579 15.25 4.75 15.5858 4.75 16C4.75 16.4142 5.08579 16.75 5.5 16.75H10.0619C10.4761 16.75 10.8119 16.4142 10.8119 16C10.8119 15.5858 10.4761 15.25 10.0619 15.25H5.5Z" fill="#000"/>
<path d="M20 17.625C20.3452 17.625 20.625 17.3452 20.625 17C20.625 16.6548 20.3452 16.375 20 16.375H16C15.6548 16.375 15.375 16.6548 15.375 17C15.375 17.3452 15.6548 17.625 16 17.625H20Z" fill="#000"/>
<path fill-rule="evenodd" clip-rule="evenodd" d="M12.25 17C12.25 13.8244 14.8244 11.25 18 11.25C21.1756 11.25 23.75 13.8244 23.75 17C23.75 20.1756 21.1756 22.75 18 22.75C14.8244 22.75 12.25 20.1756 12.25 17ZM18 12.75C15.6528 12.75 13.75 14.6528 13.75 17C13.75 19.3472 15.6528 21.25 18 21.25C20.3472 21.25 22.25 19.3472 22.25 17C22.25 14.6528 20.3472 12.75 18 12.75Z" fill="#000"/>
</svg>
