<svg width="24" height="24" viewBox="0 0 24 24" fill="none" xmlns="http://www.w3.org/2000/svg">
<path d="M8 7.25C7.58579 7.25 7.25 7.58579 7.25 8C7.25 8.41421 7.58579 8.75 8 8.75H16C16.4142 8.75 16.75 8.41421 16.75 8C16.75 7.58579 16.4142 7.25 16 7.25H8Z" fill="#000"/>
<path d="M7.25 12C7.25 11.5858 7.58579 11.25 8 11.25H16C16.4142 11.25 16.75 11.5858 16.75 12C16.75 12.4142 16.4142 12.75 16 12.75H8C7.58579 12.75 7.25 12.4142 7.25 12Z" fill="#000"/>
<path d="M8 15.25C7.58579 15.25 7.25 15.5858 7.25 16C7.25 16.4142 7.58579 16.75 8 16.75H16C16.4142 16.75 16.75 16.4142 16.75 16C16.75 15.5858 16.4142 15.25 16 15.25H8Z" fill="#000"/>
<path fill-rule="evenodd" clip-rule="evenodd" d="M12 0.25C5.51065 0.25 0.25 5.51065 0.25 12C0.25 18.4893 5.51065 23.75 12 23.75C18.4893 23.75 23.75 18.4893 23.75 12C23.75 5.51065 18.4893 0.25 12 0.25ZM1.75 12C1.75 6.33908 6.33908 1.75 12 1.75C17.6609 1.75 22.25 6.33908 22.25 12C22.25 17.6609 17.6609 22.25 12 22.25C6.33908 22.25 1.75 17.6609 1.75 12Z" fill="#000"/>
</svg>
