<svg width="24" height="24" viewBox="0 0 24 24" fill="none" xmlns="http://www.w3.org/2000/svg">
<path d="M15 11.25C15.4142 11.25 15.75 10.9142 15.75 10.5C15.75 10.0858 15.4142 9.75 15 9.75H9C8.58579 9.75 8.25 10.0858 8.25 10.5C8.25 10.9142 8.58579 11.25 9 11.25H15Z" fill="#000"/>
<path fill-rule="evenodd" clip-rule="evenodd" d="M16.4326 1.25H7.56739C6.61495 1.24999 5.8544 1.24999 5.24014 1.30018C4.61012 1.35165 4.06824 1.45963 3.57054 1.71322C2.77086 2.12068 2.12069 2.77085 1.71323 3.57054C1.45964 4.06824 1.35165 4.61012 1.30018 5.24013C1.24999 5.85439 1.25 6.61494 1.25 7.56738L1.25 20.9152C1.24997 21.1532 1.24995 21.3804 1.26663 21.5639C1.28281 21.7418 1.32348 22.0306 1.52084 22.2793C1.75643 22.5762 2.114 22.7501 2.49299 22.7523C2.81049 22.7541 3.06282 22.6078 3.21281 22.5107C3.36743 22.4106 3.54621 22.2703 3.73345 22.1234L6.31063 20.1018C6.57573 19.8938 6.6298 19.8558 6.6814 19.8298C6.74093 19.7999 6.80417 19.7781 6.86946 19.7649C6.92607 19.7534 6.99209 19.75 7.32902 19.75H16.4326C17.385 19.75 18.1456 19.75 18.7599 19.6998C19.3899 19.6483 19.9318 19.5404 20.4295 19.2868C21.2292 18.8793 21.8793 18.2292 22.2868 17.4295C22.5404 16.9318 22.6484 16.3899 22.6998 15.7599C22.75 15.1456 22.75 14.3851 22.75 13.4327V7.56737C22.75 6.61496 22.75 5.85438 22.6998 5.24013C22.6484 4.61012 22.5404 4.06824 22.2868 3.57054C21.8793 2.77085 21.2292 2.12068 20.4295 1.71322C19.9318 1.45963 19.3899 1.35165 18.7599 1.30018C18.1456 1.24999 17.3851 1.24999 16.4326 1.25ZM4.25153 3.04973C4.50253 2.92184 4.82503 2.83909 5.36229 2.79519C5.90829 2.75058 6.60754 2.75 7.6 2.75H16.4C17.3925 2.75 18.0917 2.75058 18.6377 2.79519C19.175 2.83909 19.4975 2.92184 19.7485 3.04973C20.2659 3.31338 20.6866 3.73408 20.9503 4.25153C21.0782 4.50252 21.1609 4.82503 21.2048 5.36228C21.2494 5.90829 21.25 6.60753 21.25 7.6V13.4C21.25 14.3925 21.2494 15.0917 21.2048 15.6377C21.1609 16.175 21.0782 16.4975 20.9503 16.7485C20.6866 17.2659 20.2659 17.6866 19.7485 17.9503C19.4975 18.0782 19.175 18.1609 18.6377 18.2048C18.0917 18.2494 17.3925 18.25 16.4 18.25L7.27692 18.25C7.02082 18.2498 6.7949 18.2496 6.57211 18.2947C6.37623 18.3343 6.1865 18.3998 6.00792 18.4895C5.80482 18.5916 5.62717 18.7312 5.42579 18.8894L2.75006 20.9883L2.75 7.59999C2.75 6.60753 2.75059 5.90829 2.7952 5.36228C2.83909 4.82503 2.92185 4.50252 3.04974 4.25153C3.31339 3.73408 3.73409 3.31338 4.25153 3.04973Z" fill="#000"/>
</svg>
