<svg width="24" height="24" viewBox="0 0 24 24" fill="none" xmlns="http://www.w3.org/2000/svg">
<path fill-rule="evenodd" clip-rule="evenodd" d="M7.56739 1.25H16.4326C17.3851 1.24999 18.1456 1.24999 18.7599 1.30018C19.3899 1.35165 19.9318 1.45963 20.4295 1.71322C21.2292 2.12068 21.8793 2.77085 22.2868 3.57054C22.5404 4.06824 22.6484 4.61012 22.6998 5.24013C22.75 5.85439 22.75 6.61493 22.75 7.56737V13.4326C22.75 14.3851 22.75 15.1456 22.6998 15.7599C22.6484 16.3899 22.5404 16.9318 22.2868 17.4295C21.8793 18.2291 21.2292 18.8793 20.4295 19.2868C19.9318 19.5404 19.3899 19.6483 18.7599 19.6998C18.1456 19.75 17.3851 19.75 16.4326 19.75H7.32902C6.99209 19.75 6.92607 19.7534 6.86946 19.7649C6.80417 19.7781 6.74093 19.7999 6.6814 19.8298C6.6298 19.8558 6.57573 19.8938 6.31063 20.1018L3.73345 22.1234C3.54621 22.2703 3.36743 22.4106 3.21281 22.5107C3.06282 22.6078 2.81049 22.7541 2.49299 22.7523C2.114 22.7501 1.75643 22.5762 1.52084 22.2793C1.32348 22.0306 1.28281 21.7418 1.26663 21.5639C1.24995 21.3804 1.24997 21.1532 1.25 20.9152L1.25 7.56738C1.25 6.61494 1.24999 5.85439 1.30018 5.24013C1.35165 4.61012 1.45964 4.06824 1.71323 3.57054C2.12069 2.77085 2.77086 2.12068 3.57054 1.71322C4.06824 1.45963 4.61012 1.35165 5.24014 1.30018C5.8544 1.24999 6.61495 1.24999 7.56739 1.25ZM5.36229 2.79519C4.82503 2.83909 4.50253 2.92184 4.25153 3.04973C3.73409 3.31338 3.31339 3.73408 3.04974 4.25153C2.92185 4.50252 2.83909 4.82503 2.7952 5.36228C2.75059 5.90829 2.75 6.60753 2.75 7.59999V20.8857C2.75 20.9219 2.75002 20.9561 2.75006 20.9883C2.77547 20.9684 2.80237 20.9474 2.83086 20.925L5.38483 18.9216C5.3986 18.9108 5.41225 18.9 5.42579 18.8894C5.62717 18.7312 5.80482 18.5916 6.00792 18.4895C6.1865 18.3998 6.37623 18.3343 6.57211 18.2947C6.7949 18.2496 7.02082 18.2498 7.27692 18.25C7.29415 18.25 7.31151 18.25 7.32902 18.25H16.4C17.3925 18.25 18.0917 18.2494 18.6377 18.2048C19.175 18.1609 19.4975 18.0782 19.7485 17.9503C20.2659 17.6866 20.6866 17.2659 20.9503 16.7485C21.0782 16.4975 21.1609 16.175 21.2048 15.6377C21.2494 15.0917 21.25 14.3925 21.25 13.4V7.6C21.25 6.60753 21.2494 5.90829 21.2048 5.36228C21.1609 4.82503 21.0782 4.50252 20.9503 4.25153C20.6866 3.73408 20.2659 3.31338 19.7485 3.04973C19.4975 2.92184 19.175 2.83909 18.6377 2.79519C18.0917 2.75058 17.3925 2.75 16.4 2.75H7.6C6.60754 2.75 5.90829 2.75058 5.36229 2.79519Z" fill="#000"/>
</svg>
