<svg width="24" height="24" viewBox="0 0 24 24" fill="none" xmlns="http://www.w3.org/2000/svg">
<path fill-rule="evenodd" clip-rule="evenodd" d="M14.6463 7.27293C14.3653 7.24998 14.0243 7.24999 13.6289 7.25H10.3711C9.97573 7.24999 9.63466 7.24998 9.35373 7.27293C9.05722 7.29715 8.76231 7.35064 8.47852 7.49524C8.05516 7.71095 7.71095 8.05516 7.49524 8.47852C7.35064 8.76231 7.29715 9.05722 7.27293 9.35373C7.24998 9.63466 7.24999 9.97573 7.25 10.3711V13.6289C7.24999 14.0243 7.24998 14.3653 7.27293 14.6463C7.29715 14.9428 7.35064 15.2377 7.49524 15.5215C7.71095 15.9448 8.05516 16.2891 8.47852 16.5048C8.76231 16.6494 9.05722 16.7028 9.35373 16.7271C9.63465 16.75 9.97572 16.75 10.3711 16.75H13.6289C14.0243 16.75 14.3653 16.75 14.6463 16.7271C14.9428 16.7028 15.2377 16.6494 15.5215 16.5048C15.9448 16.2891 16.2891 15.9448 16.5048 15.5215C16.6494 15.2377 16.7028 14.9428 16.7271 14.6463C16.75 14.3653 16.75 14.0243 16.75 13.6289V10.3711C16.75 9.97572 16.75 9.63465 16.7271 9.35373C16.7028 9.05722 16.6494 8.76231 16.5048 8.47852C16.2891 8.05516 15.9448 7.71095 15.5215 7.49524C15.2377 7.35064 14.9428 7.29715 14.6463 7.27293ZM9.15951 8.83175C9.19659 8.81285 9.27213 8.78459 9.47588 8.76795C9.68838 8.75058 9.96759 8.75 10.4 8.75H13.6C14.0324 8.75 14.3116 8.75058 14.5241 8.76795C14.7279 8.78459 14.8034 8.81285 14.8405 8.83175C14.9816 8.90365 15.0964 9.01839 15.1683 9.15951C15.1872 9.19659 15.2154 9.27213 15.2321 9.47588C15.2494 9.68838 15.25 9.96759 15.25 10.4V13.6C15.25 14.0324 15.2494 14.3116 15.2321 14.5241C15.2154 14.7279 15.1872 14.8034 15.1683 14.8405C15.0964 14.9816 14.9816 15.0964 14.8405 15.1683C14.8034 15.1872 14.7279 15.2154 14.5241 15.2321C14.3116 15.2494 14.0324 15.25 13.6 15.25H10.4C9.96759 15.25 9.68838 15.2494 9.47588 15.2321C9.27213 15.2154 9.19659 15.1872 9.15951 15.1683C9.01839 15.0964 8.90365 14.9816 8.83175 14.8405C8.81285 14.8034 8.78459 14.7279 8.76795 14.5241C8.75058 14.3116 8.75 14.0324 8.75 13.6V10.4C8.75 9.96759 8.75058 9.68838 8.76795 9.47588C8.78459 9.27213 8.81285 9.19659 8.83175 9.15951C8.90365 9.01839 9.01839 8.90365 9.15951 8.83175Z" fill="#000"/>
<path fill-rule="evenodd" clip-rule="evenodd" d="M8 1.25C8.41421 1.25 8.75 1.58579 8.75 2V3.25141C9.00555 3.25 9.27759 3.25 9.56739 3.25H11.25V2C11.25 1.58579 11.5858 1.25 12 1.25C12.4142 1.25 12.75 1.58579 12.75 2V3.25H14.4326C14.7224 3.25 14.9944 3.25 15.25 3.25141V2C15.25 1.58579 15.5858 1.25 16 1.25C16.4142 1.25 16.75 1.58579 16.75 2V3.29937L16.7599 3.30018C17.3899 3.35165 17.9318 3.45963 18.4295 3.71322C19.2291 4.12068 19.8793 4.77085 20.2868 5.57054C20.5404 6.06824 20.6483 6.61012 20.6998 7.24013C20.7001 7.24342 20.7004 7.24671 20.7006 7.25H22C22.4142 7.25 22.75 7.58579 22.75 8C22.75 8.41421 22.4142 8.75 22 8.75H20.7486C20.75 9.00553 20.75 9.27754 20.75 9.5673V11.25H22C22.4142 11.25 22.75 11.5858 22.75 12C22.75 12.4142 22.4142 12.75 22 12.75H20.75V14.4339C20.75 14.7232 20.75 14.9948 20.7486 15.25H22C22.4142 15.25 22.75 15.5858 22.75 16C22.75 16.4142 22.4142 16.75 22 16.75H20.7006L20.6998 16.7599C20.6483 17.3899 20.5404 17.9318 20.2868 18.4295C19.8793 19.2291 19.2291 19.8793 18.4295 20.2868C17.9318 20.5404 17.3899 20.6484 16.7599 20.6998L16.75 20.7006V22C16.75 22.4142 16.4142 22.75 16 22.75C15.5858 22.75 15.25 22.4142 15.25 22V20.7486C14.9948 20.75 14.7232 20.75 14.4339 20.75H12.75V22C12.75 22.4142 12.4142 22.75 12 22.75C11.5858 22.75 11.25 22.4142 11.25 22V20.75H9.56613C9.2768 20.75 9.00518 20.75 8.75 20.7486V22C8.75 22.4142 8.41421 22.75 8 22.75C7.58579 22.75 7.25 22.4142 7.25 22V20.7006L7.24013 20.6998C6.61012 20.6484 6.06824 20.5404 5.57054 20.2868C4.77085 19.8793 4.12068 19.2291 3.71322 18.4295C3.45963 17.9318 3.35165 17.3899 3.30018 16.7599L3.29937 16.75H2C1.58579 16.75 1.25 16.4142 1.25 16C1.25 15.5858 1.58579 15.25 2 15.25H3.25141C3.25 14.9944 3.25 14.7224 3.25 14.4326V12.75H2C1.58579 12.75 1.25 12.4142 1.25 12C1.25 11.5858 1.58579 11.25 2 11.25H3.25V9.56739C3.25 9.27759 3.25 9.00555 3.25141 8.75H2C1.58579 8.75 1.25 8.41421 1.25 8C1.25 7.58579 1.58579 7.25 2 7.25H3.29937L3.30018 7.24013C3.35165 6.61012 3.45963 6.06824 3.71322 5.57054C4.12068 4.77085 4.77085 4.12068 5.57054 3.71322C6.06824 3.45963 6.61012 3.35165 7.24013 3.30018L7.25 3.29937V2C7.25 1.58579 7.58579 1.25 8 1.25ZM19.25 9.6V14.4C19.25 15.3925 19.2494 16.0917 19.2048 16.6377C19.1609 17.175 19.0782 17.4975 18.9503 17.7485C18.6866 18.2659 18.2659 18.6866 17.7485 18.9503C17.4975 19.0782 17.175 19.1609 16.6377 19.2048C16.0917 19.2494 15.3925 19.25 14.4 19.25H9.6C8.60753 19.25 7.90829 19.2494 7.36228 19.2048C6.82503 19.1609 6.50252 19.0782 6.25153 18.9503C5.73408 18.6866 5.31338 18.2659 5.04973 17.7485C4.92184 17.4975 4.83909 17.175 4.79519 16.6377C4.75058 16.0917 4.75 15.3925 4.75 14.4V9.6C4.75 8.60753 4.75058 7.90829 4.79519 7.36228C4.83909 6.82503 4.92184 6.50252 5.04973 6.25153C5.31338 5.73408 5.73408 5.31338 6.25153 5.04973C6.50252 4.92184 6.82503 4.83909 7.36228 4.79519C7.90829 4.75058 8.60753 4.75 9.6 4.75H14.4C15.3925 4.75 16.0917 4.75058 16.6377 4.79519C17.175 4.83909 17.4975 4.92184 17.7485 5.04973C18.2659 5.31338 18.6866 5.73408 18.9503 6.25153C19.0782 6.50252 19.1609 6.82503 19.2048 7.36228C19.2494 7.90829 19.25 8.60753 19.25 9.6Z" fill="#000"/>
</svg>
