<svg width="24" height="24" viewBox="0 0 24 24" fill="none" xmlns="http://www.w3.org/2000/svg">
<path fill-rule="evenodd" clip-rule="evenodd" d="M12 1.25C9.37665 1.25 7.25 3.37665 7.25 6V12C7.25 14.6234 9.37665 16.75 12 16.75C14.6234 16.75 16.75 14.6234 16.75 12V6C16.75 3.37665 14.6234 1.25 12 1.25ZM8.75 6C8.75 4.20507 10.2051 2.75 12 2.75C13.7949 2.75 15.25 4.20507 15.25 6V12C15.25 13.7949 13.7949 15.25 12 15.25C10.2051 15.25 8.75 13.7949 8.75 12V6Z" fill="#000"/>
<path d="M5 11.25C5.41421 11.25 5.75 11.5858 5.75 12C5.75 15.4498 8.54496 18.2468 11.994 18.25L12 18.25L12.006 18.25C15.455 18.2468 18.25 15.4498 18.25 12C18.25 11.5858 18.5858 11.25 19 11.25C19.4142 11.25 19.75 11.5858 19.75 12C19.75 16.0272 16.6783 19.337 12.75 19.7142V21.25H16C16.4142 21.25 16.75 21.5858 16.75 22C16.75 22.4142 16.4142 22.75 16 22.75H8C7.58579 22.75 7.25 22.4142 7.25 22C7.25 21.5858 7.58579 21.25 8 21.25H11.25V19.7142C7.3217 19.337 4.25 16.0272 4.25 12C4.25 11.5858 4.58579 11.25 5 11.25Z" fill="#000"/>
</svg>
