<svg width="24" height="24" viewBox="0 0 24 24" fill="none" xmlns="http://www.w3.org/2000/svg">
<path d="M14.2321 1.25H9.7679C8.95506 1.24999 8.29944 1.24999 7.76853 1.29336C7.2219 1.33803 6.74175 1.43239 6.29754 1.65873C6.21242 1.7021 6.12921 1.74859 6.04806 1.79805C5.69439 2.01366 5.58245 2.47515 5.79805 2.82883C6.01365 3.18251 6.47515 3.29444 6.82883 3.07884C6.87751 3.04916 6.92744 3.02127 6.97852 2.99524C7.17604 2.8946 7.4368 2.82547 7.89068 2.78838C8.35331 2.75058 8.94755 2.75 9.8 2.75H14.2C15.0525 2.75 15.6467 2.75058 16.1093 2.78838C16.5632 2.82547 16.824 2.8946 17.0215 2.99524C17.4448 3.21095 17.7891 3.55516 18.0048 3.97852C18.1054 4.17604 18.1745 4.43681 18.2116 4.89068C18.2494 5.35331 18.25 5.94755 18.25 6.8V15C18.25 15.4142 18.5858 15.75 19 15.75C19.4142 15.75 19.75 15.4142 19.75 15V6.76788C19.75 5.95505 19.75 5.29944 19.7066 4.76853C19.662 4.2219 19.5676 3.74175 19.3413 3.29754C18.9818 2.59193 18.4081 2.01825 17.7025 1.65873C17.2582 1.43239 16.7781 1.33803 16.2315 1.29336C15.7006 1.24999 15.0449 1.24999 14.2321 1.25Z" fill="#000"/>
<path d="M12 17.5C11.4477 17.5 11 17.9477 11 18.5C11 19.0523 11.4477 19.5 12 19.5C12.5523 19.5 13.0001 19.0523 13.0001 18.5C13.0001 17.9477 12.5523 17.5 12 17.5Z" fill="#000"/>
<path fill-rule="evenodd" clip-rule="evenodd" d="M4.26339 5.32406L1.46967 2.53033C1.17678 2.23744 1.17678 1.76256 1.46967 1.46967C1.76256 1.17678 2.23744 1.17678 2.53033 1.46967L5.55489 4.49423C5.55651 4.49583 5.55812 4.49744 5.55972 4.49906L19.5225 18.4619C19.5229 18.4622 19.5233 18.4626 19.5237 18.463L22.5303 21.4697C22.8232 21.7626 22.8232 22.2374 22.5303 22.5303C22.2374 22.8232 21.7626 22.8232 21.4697 22.5303L19.4377 20.4984C18.973 21.565 18.0309 22.369 16.8754 22.6464C16.4422 22.7504 15.9402 22.7502 15.2042 22.75L9.76788 22.75C8.95505 22.75 8.29944 22.75 7.76853 22.7066C7.2219 22.662 6.74175 22.5676 6.29754 22.3413C5.59193 21.9817 5.01825 21.4081 4.65873 20.7025C4.43239 20.2582 4.33803 19.7781 4.29336 19.2315C4.24999 18.7006 4.24999 18.0449 4.25 17.2321L4.25 6.77858C4.25 6.222 4.25 5.74045 4.26339 5.32406ZM5.75 6.81066V17.2C5.75 18.0525 5.75058 18.6467 5.78838 19.1093C5.82547 19.5632 5.8946 19.824 5.99524 20.0215C6.21095 20.4448 6.55516 20.789 6.97852 21.0048C7.17604 21.1054 7.4368 21.1745 7.89068 21.2116C8.35331 21.2494 8.94755 21.25 9.8 21.25H15.1C15.98 21.25 16.2881 21.2448 16.5253 21.1878C17.348 20.9903 17.9903 20.348 18.1878 19.5253C18.2032 19.461 18.2157 19.3859 18.2253 19.2859L5.75 6.81066Z" fill="#000"/>
<path d="M9.75 5C9.75 4.58579 10.0858 4.25 10.5 4.25H13.5C13.9142 4.25 14.25 4.58579 14.25 5C14.25 5.41421 13.9142 5.75 13.5 5.75H10.5C10.0858 5.75 9.75 5.41421 9.75 5Z" fill="#000"/>
</svg>
