<svg width="24" height="25" viewBox="0 0 24 25" fill="none" xmlns="http://www.w3.org/2000/svg">
<path d="M11 18.5C11 17.9477 11.4477 17.5 12 17.5C12.5523 17.5 13.0001 17.9477 13.0001 18.5C13.0001 19.0523 12.5524 19.5 12.0001 19.5C11.4478 19.5 11 19.0523 11 18.5Z" fill="#000"/>
<path d="M10.5 4.25C10.0858 4.25 9.75 4.58579 9.75 5C9.75 5.41421 10.0858 5.75 10.5 5.75H13.5C13.9142 5.75 14.25 5.41421 14.25 5C14.25 4.58579 13.9142 4.25 13.5 4.25H10.5Z" fill="#000"/>
<path fill-rule="evenodd" clip-rule="evenodd" d="M10.1676 1.25H13.8324C14.715 1.24999 15.4231 1.24999 15.9957 1.29677C16.584 1.34484 17.095 1.44601 17.566 1.68597C18.3186 2.06947 18.9305 2.68139 19.314 3.43404C19.554 3.905 19.6552 4.41601 19.7032 5.00433C19.75 5.57691 19.75 6.28496 19.75 7.16756V16.8324C19.75 17.715 19.75 18.4231 19.7032 18.9957C19.6552 19.584 19.554 20.095 19.314 20.566C18.9305 21.3186 18.3186 21.9305 17.566 22.314C17.095 22.554 16.584 22.6552 15.9957 22.7032C15.4231 22.75 14.715 22.75 13.8324 22.75H10.1676C9.28499 22.75 8.57691 22.75 8.00433 22.7032C7.41601 22.6552 6.905 22.554 6.43404 22.314C5.68139 21.9305 5.06947 21.3186 4.68597 20.566C4.44601 20.095 4.34484 19.584 4.29677 18.9957C4.24999 18.4231 4.24999 17.715 4.25 16.8324V7.16763C4.24999 6.285 4.24999 5.57692 4.29677 5.00433C4.34484 4.41601 4.44601 3.905 4.68597 3.43404C5.06947 2.68139 5.68139 2.06947 6.43404 1.68597C6.905 1.44601 7.41601 1.34484 8.00433 1.29677C8.57692 1.24999 9.285 1.24999 10.1676 1.25ZM8.12648 2.79179C7.63092 2.83228 7.33928 2.90822 7.11502 3.02248C6.64462 3.26217 6.26217 3.64462 6.02248 4.11502C5.90822 4.33928 5.83228 4.63092 5.79179 5.12648C5.75058 5.6308 5.75 6.27754 5.75 7.2V16.8C5.75 17.7225 5.75058 18.3692 5.79179 18.8735C5.83228 19.3691 5.90822 19.6607 6.02248 19.885C6.26217 20.3554 6.64462 20.7378 7.11502 20.9775C7.33928 21.0918 7.63092 21.1677 8.12648 21.2082C8.6308 21.2494 9.27754 21.25 10.2 21.25H13.8C14.7225 21.25 15.3692 21.2494 15.8735 21.2082C16.3691 21.1677 16.6607 21.0918 16.885 20.9775C17.3554 20.7378 17.7378 20.3554 17.9775 19.885C18.0918 19.6607 18.1677 19.3691 18.2082 18.8735C18.2494 18.3692 18.25 17.7225 18.25 16.8V7.2C18.25 6.27754 18.2494 5.6308 18.2082 5.12648C18.1677 4.63092 18.0918 4.33928 17.9775 4.11502C17.7378 3.64462 17.3554 3.26217 16.885 3.02248C16.6607 2.90822 16.3691 2.83228 15.8735 2.79179C15.3692 2.75058 14.7225 2.75 13.8 2.75H10.2C9.27754 2.75 8.6308 2.75058 8.12648 2.79179Z" fill="#000"/>
</svg>
