<svg width="24" height="24" viewBox="0 0 24 24" fill="none" xmlns="http://www.w3.org/2000/svg">
<path d="M9.76787 2.5H18.2319C19.0447 2.49999 19.7004 2.49999 20.2313 2.54336C20.7779 2.58803 21.2581 2.68239 21.7023 2.90873C22.4079 3.26825 22.9816 3.84193 23.3411 4.54754C23.5674 4.99176 23.6618 5.4719 23.7064 6.01853C23.7498 6.54944 23.7498 7.20505 23.7498 8.01788V12.9821C23.7498 13.795 23.7498 14.4506 23.7064 14.9815C23.6618 15.5281 23.5674 16.0082 23.3411 16.4525C23.0108 17.1007 22.4998 17.6375 21.8718 17.9993C21.5129 18.2061 21.0543 18.0828 20.8476 17.7238C20.6408 17.3649 20.7641 16.9064 21.123 16.6996C21.4998 16.4825 21.8064 16.1604 22.0046 15.7715C22.1052 15.574 22.1743 15.3132 22.2114 14.8593C22.2492 14.3967 22.2498 13.8025 22.2498 12.95V8.05C22.2498 7.19755 22.2492 6.60331 22.2114 6.14068C22.1743 5.68681 22.1052 5.42604 22.0046 5.22852C21.7889 4.80516 21.4447 4.46095 21.0213 4.24524C20.8238 4.1446 20.563 4.07547 20.1091 4.03838C19.6465 4.00058 19.0523 4 18.1998 4H9.79997C8.94752 4 8.35328 4.00058 7.89065 4.03838C7.43678 4.07547 7.17601 4.1446 6.97849 4.24524C6.58955 4.44341 6.26741 4.75005 6.05034 5.12686C5.84358 5.48578 5.38501 5.60914 5.02609 5.40238C4.66717 5.19562 4.54381 4.73705 4.75057 4.37813C5.11236 3.75008 5.64925 3.23903 6.29751 2.90873C6.74173 2.68239 7.22187 2.58803 7.7685 2.54336C8.29941 2.49999 8.95504 2.49999 9.76787 2.5Z" fill="#000"/>
<path fill-rule="evenodd" clip-rule="evenodd" d="M10 10.5C8.067 10.5 6.5 12.067 6.5 14C6.5 15.933 8.067 17.5 10 17.5C11.933 17.5 13.5 15.933 13.5 14C13.5 12.067 11.933 10.5 10 10.5ZM8 14C8 12.8954 8.89543 12 10 12C11.1046 12 12 12.8954 12 14C12 15.1046 11.1046 16 10 16C8.89543 16 8 15.1046 8 14Z" fill="#000"/>
<path d="M15 14C15 13.4477 15.4477 13 16 13C16.5523 13 17.0001 13.4477 17.0001 14C17.0001 14.5523 16.5524 15 16.0001 15C15.4478 15 15 14.5523 15 14Z" fill="#000"/>
<path d="M4 13C3.44772 13 3 13.4477 3 14C3 14.5523 3.44772 15 4 15C4.55229 15 5.0001 14.5523 5.0001 14C5.0001 13.4477 4.55229 13 4 13Z" fill="#000"/>
<path fill-rule="evenodd" clip-rule="evenodd" d="M5.7679 6.5H14.2319C15.0448 6.49999 15.7004 6.49999 16.2313 6.54336C16.7779 6.58803 17.2581 6.68239 17.7023 6.90873C18.4079 7.26825 18.9816 7.84193 19.3411 8.54754C19.5675 8.99175 19.6618 9.4719 19.7065 10.0185C19.7499 10.5494 19.7498 11.205 19.7498 12.0179V15.9821C19.7498 16.795 19.7499 17.4506 19.7065 17.9815C19.6618 18.5281 19.5675 19.0082 19.3411 19.4525C18.9816 20.1581 18.4079 20.7318 17.7023 21.0913C17.2581 21.3176 16.7779 21.412 16.2313 21.4566C15.7004 21.5 15.0448 21.5 14.232 21.5H5.76788C4.95505 21.5 4.29944 21.5 3.76853 21.4566C3.2219 21.412 2.74175 21.3176 2.29754 21.0913C1.59193 20.7318 1.01825 20.1581 0.658726 19.4525C0.432385 19.0082 0.338026 18.5281 0.293364 17.9815C0.249987 17.4506 0.249993 16.795 0.25 15.9821V12.0179C0.249993 11.2051 0.249987 10.5494 0.293364 10.0185C0.338026 9.4719 0.432385 8.99175 0.658726 8.54754C1.01825 7.84193 1.59193 7.26825 2.29754 6.90873C2.74175 6.68239 3.2219 6.58803 3.76853 6.54336C4.29944 6.49999 4.95506 6.49999 5.7679 6.5ZM3.89068 8.03838C3.43681 8.07547 3.17604 8.1446 2.97852 8.24524C2.55516 8.46095 2.21095 8.80516 1.99524 9.22852C1.8946 9.42604 1.82547 9.6868 1.78838 10.1407C1.75058 10.6033 1.75 11.1975 1.75 12.05V15.95C1.75 16.8025 1.75058 17.3967 1.78838 17.8593C1.82547 18.3132 1.8946 18.574 1.99524 18.7715C2.21095 19.1948 2.55516 19.539 2.97852 19.7548C3.17604 19.8554 3.43681 19.9245 3.89068 19.9616C4.35331 19.9994 4.94755 20 5.8 20H14.1998C15.0523 20 15.6465 19.9994 16.1092 19.9616C16.563 19.9245 16.8238 19.8554 17.0213 19.7548C17.4447 19.539 17.7889 19.1948 18.0046 18.7715C18.1052 18.574 18.1744 18.3132 18.2115 17.8593C18.2493 17.3967 18.2498 16.8025 18.2498 15.95V12.05C18.2498 11.1975 18.2493 10.6033 18.2115 10.1407C18.1744 9.6868 18.1052 9.42604 18.0046 9.22852C17.7889 8.80516 17.4447 8.46095 17.0213 8.24524C16.8238 8.1446 16.563 8.07547 16.1092 8.03838C15.6465 8.00058 15.0523 8 14.1998 8H5.8C4.94755 8 4.35331 8.00058 3.89068 8.03838Z" fill="#000"/>
</svg>
