<svg width="24" height="24" viewBox="0 0 24 24" fill="none" xmlns="http://www.w3.org/2000/svg">
<path d="M7.06739 7.25049H9C9.41422 7.25049 9.75 7.58628 9.75 8.00049C9.75 8.4147 9.41422 8.75049 9 8.75049L7.1 8.75049C6.10753 8.75049 5.40829 8.75107 4.86228 8.79568C4.32503 8.83958 4.00252 8.92233 3.75153 9.05022C3.23408 9.31387 2.81339 9.73457 2.54973 10.252C2.42184 10.503 2.33909 10.8255 2.29519 11.3628C2.25058 11.9088 2.25 12.608 2.25 13.6005L2.25 17.4005C2.25 18.393 2.25059 19.0922 2.29519 19.6382C2.33909 20.1755 2.42184 20.498 2.54973 20.749C2.81338 21.2664 3.23408 21.6871 3.75153 21.9508C4.00252 22.0786 4.32503 22.1614 4.86228 22.2053C5.40829 22.2499 6.10753 22.2505 7.1 22.2505H16.9C17.8925 22.2505 18.5917 22.2499 19.1377 22.2053C19.675 22.1614 19.9975 22.0786 20.2485 21.9508C20.7659 21.6871 21.1866 21.2664 21.4503 20.749C21.5782 20.498 21.6609 20.1755 21.7048 19.6382C21.7494 19.0922 21.75 18.393 21.75 17.4005V13.6005C21.75 12.608 21.7494 11.9088 21.7048 11.3628C21.6609 10.8255 21.5782 10.503 21.4503 10.252C21.1866 9.73457 20.7659 9.31387 20.2485 9.05022C19.9975 8.92233 19.675 8.83958 19.1377 8.79568C18.5917 8.75107 17.8925 8.75049 16.9 8.75049H15C14.5858 8.75049 14.25 8.4147 14.25 8.00049C14.25 7.58628 14.5858 7.25049 15 7.25049H16.9326C17.885 7.25048 18.6456 7.25048 19.2599 7.30067C19.8899 7.35214 20.4318 7.46012 20.9295 7.71371C21.7291 8.12117 22.3793 8.77134 22.7868 9.57103C23.0404 10.0687 23.1483 10.6106 23.1998 11.2406C23.25 11.8549 23.25 12.6154 23.25 13.5677V17.4331C23.25 18.3855 23.25 19.1461 23.1998 19.7604C23.1483 20.3904 23.0404 20.9323 22.7868 21.4299C22.3793 22.2296 21.7291 22.8798 20.9295 23.2873C20.4318 23.5409 19.8899 23.6488 19.2599 23.7003C18.6456 23.7505 17.8851 23.7505 16.9327 23.7505H7.06742C6.11498 23.7505 5.35439 23.7505 4.74013 23.7003C4.11012 23.6488 3.56824 23.5409 3.07054 23.2873C2.27085 22.8798 1.62068 22.2296 1.21322 21.4299C0.959634 20.9323 0.85165 20.3904 0.800176 19.7604C0.749988 19.1461 0.749994 18.3855 0.750002 17.4331L0.75 13.5679C0.749994 12.6155 0.749991 11.8549 0.800177 11.2406C0.851651 10.6106 0.959633 10.0687 1.21322 9.57103C1.62068 8.77134 2.27085 8.12117 3.07054 7.71371C3.56824 7.46012 4.11012 7.35214 4.74013 7.30066C5.3544 7.25048 6.11494 7.25048 7.06739 7.25049Z" fill="#000"/>
<path fill-rule="evenodd" clip-rule="evenodd" d="M12.0043 11.7505L12 11.7505C9.92893 11.7505 8.25 13.4294 8.25 15.5005C8.25 17.5716 9.92893 19.2505 12 19.2505C14.0711 19.2505 15.75 17.5716 15.75 15.5005C15.75 13.5269 14.0828 11.7505 12.0086 11.7505L12.0043 11.7505ZM12 13.2505C10.7574 13.2505 9.75 14.2578 9.75 15.5005C9.75 16.7431 10.7574 17.7505 12 17.7505C13.2426 17.7505 14.25 16.7431 14.25 15.5005C14.25 14.3264 13.2258 13.2505 12.0086 13.2505L12.0043 13.2505L12 13.2505Z" fill="#000"/>
<path d="M4.5 15.5005C4.5 14.9482 4.94772 14.5005 5.5 14.5005C6.05229 14.5005 6.5001 14.9482 6.5001 15.5005C6.5001 16.0528 6.05239 16.5005 5.5001 16.5005C4.94782 16.5005 4.5 16.0528 4.5 15.5005Z" fill="#000"/>
<path d="M18.5 14.5005C17.9477 14.5005 17.5 14.9482 17.5 15.5005C17.5 16.0528 17.9477 16.5005 18.5 16.5005C19.0523 16.5005 19.5001 16.0528 19.5001 15.5005C19.5001 14.9482 19.0523 14.5005 18.5 14.5005Z" fill="#000"/>
<path d="M12 9.75025C11.5858 9.75025 11.25 9.41446 11.25 9.00025V2.8109L9.53033 4.53057C9.23744 4.82347 8.76256 4.82347 8.46967 4.53057C8.17678 4.23768 8.17678 3.76281 8.46967 3.46991L11.4697 0.469913C11.6103 0.329262 11.8011 0.250244 12 0.250244C12.1989 0.250244 12.3897 0.329262 12.5303 0.469914L15.5303 3.46991C15.8232 3.76281 15.8232 4.23768 15.5303 4.53058C15.2374 4.82347 14.7626 4.82347 14.4697 4.53057L12.75 2.81091V9.00025C12.75 9.41446 12.4142 9.75025 12 9.75025Z" fill="#000"/>
</svg>
