<svg width="24" height="24" viewBox="0 0 24 24" fill="none" xmlns="http://www.w3.org/2000/svg">
<path d="M12 0.25C12.4142 0.25 12.75 0.585786 12.75 1V7.18934L14.4697 5.46967C14.7626 5.17678 15.2374 5.17678 15.5303 5.46967C15.8232 5.76256 15.8232 6.23744 15.5303 6.53033L12.5303 9.53033C12.3897 9.67098 12.1989 9.75 12 9.75C11.8011 9.75 11.6103 9.67098 11.4697 9.53033L8.46967 6.53033C8.17678 6.23744 8.17678 5.76256 8.46967 5.46967C8.76256 5.17678 9.23744 5.17678 9.53033 5.46967L11.25 7.18934V1C11.25 0.585786 11.5858 0.25 12 0.25Z" fill="#000"/>
<path d="M7.51387 7.99971C7.51416 8.41392 7.17862 8.74995 6.7644 8.75024C5.88727 8.75087 5.26166 8.75704 4.77021 8.80346C4.28741 8.84905 3.9875 8.92966 3.75153 9.0499C3.23408 9.31355 2.81338 9.73425 2.54973 10.2517C2.42184 10.5027 2.33909 10.8252 2.29519 11.3624C2.25058 11.9085 2.25 12.6077 2.25 13.6002V17.4002C2.25 18.3926 2.25058 19.0919 2.29519 19.6379C2.33909 20.1751 2.42184 20.4976 2.54973 20.7486C2.81338 21.2661 3.23408 21.6868 3.75153 21.9504C4.00252 22.0783 4.32503 22.1611 4.86228 22.205C5.40829 22.2496 6.10753 22.2502 7.1 22.2502H16.9C17.8925 22.2502 18.5917 22.2496 19.1377 22.205C19.675 22.1611 19.9975 22.0783 20.2485 21.9504C20.7659 21.6868 21.1866 21.2661 21.4503 20.7486C21.5782 20.4976 21.6609 20.1751 21.7048 19.6379C21.7494 19.0919 21.75 18.3926 21.75 17.4002V13.6002C21.75 12.6077 21.7494 11.9085 21.7048 11.3624C21.6609 10.8252 21.5782 10.5027 21.4503 10.2517C21.1866 9.73425 20.7659 9.31355 20.2485 9.0499C20.0125 8.92966 19.7126 8.84905 19.2298 8.80346C18.7383 8.75704 18.1127 8.75087 17.2356 8.75024C16.8214 8.74995 16.4858 8.41392 16.4861 7.99971C16.4864 7.58549 16.8225 7.24995 17.2367 7.25024C18.0982 7.25086 18.7967 7.25588 19.3708 7.3101C19.9536 7.36514 20.4608 7.4746 20.9295 7.71339C21.7291 8.12085 22.3793 8.77102 22.7868 9.57071C23.0404 10.0684 23.1483 10.6103 23.1998 11.2403C23.25 11.8545 23.25 12.6151 23.25 13.5675V17.4328C23.25 18.3852 23.25 19.1458 23.1998 19.76C23.1483 20.39 23.0404 20.9319 22.7868 21.4296C22.3793 22.2293 21.7291 22.8795 20.9295 23.2869C20.4318 23.5405 19.8899 23.6485 19.2599 23.7C18.6456 23.7502 17.8852 23.7502 16.9328 23.7502H7.06737C6.11502 23.7502 5.35435 23.7502 4.74013 23.7C4.11012 23.6485 3.56824 23.5405 3.07054 23.2869C2.27085 22.8795 1.62068 22.2293 1.21322 21.4296C0.959634 20.9319 0.85165 20.39 0.800176 19.76C0.749989 19.1458 0.749994 18.3852 0.75 17.4328V13.5676C0.749994 12.6151 0.749989 11.8546 0.800176 11.2403C0.85165 10.6103 0.959634 10.0684 1.21322 9.57071C1.62068 8.77102 2.27085 8.12085 3.07054 7.71339C3.53919 7.4746 4.04638 7.36514 4.62918 7.3101C5.20333 7.25588 5.90183 7.25086 6.76333 7.25024C7.17754 7.24995 7.51357 7.58549 7.51387 7.99971Z" fill="#000"/>
<path fill-rule="evenodd" clip-rule="evenodd" d="M12.0043 11.7502L12 11.7502C9.92893 11.7502 8.25 13.4291 8.25 15.5002C8.25 17.5712 9.92893 19.2502 12 19.2502C14.0711 19.2502 15.75 17.5712 15.75 15.5002C15.75 13.5266 14.0828 11.7502 12.0086 11.7502L12.0043 11.7502ZM12 13.2502C10.7574 13.2502 9.75 14.2575 9.75 15.5002C9.75 16.7428 10.7574 17.7502 12 17.7502C13.2426 17.7502 14.25 16.7428 14.25 15.5002C14.25 14.3261 13.2258 13.2502 12.0086 13.2502L12.0043 13.2502L12 13.2502Z" fill="#000"/>
<path d="M4.5 15.5002C4.5 14.948 4.94772 14.5002 5.5 14.5002C6.05228 14.5002 6.5001 14.948 6.5001 15.5002C6.5001 16.0525 6.05238 16.5002 5.5001 16.5002C4.94782 16.5002 4.5 16.0525 4.5 15.5002Z" fill="#000"/>
<path d="M18.5 14.5002C17.9477 14.5002 17.5 14.948 17.5 15.5002C17.5 16.0525 17.9477 16.5002 18.5 16.5002C19.0523 16.5002 19.5001 16.0525 19.5001 15.5002C19.5001 14.948 19.0523 14.5002 18.5 14.5002Z" fill="#000"/>
</svg>
