<svg width="24" height="24" viewBox="0 0 24 24" fill="none" xmlns="http://www.w3.org/2000/svg">
<path d="M16.4326 2.25H6.56739C5.61495 2.24999 4.85439 2.24999 4.24013 2.30018C3.61012 2.35165 3.06824 2.45963 2.57054 2.71322C1.77085 3.12068 1.12068 3.77085 0.713223 4.57054C0.459634 5.06824 0.35165 5.61012 0.300176 6.24013C0.249989 6.85439 0.249994 7.61494 0.25 8.56738V13.4326C0.249994 14.385 0.249989 15.1456 0.300176 15.7599C0.35165 16.3899 0.459634 16.9318 0.713223 17.4295C1.12068 18.2291 1.77085 18.8793 2.57054 19.2868C3.06824 19.5404 3.61012 19.6483 4.24013 19.6998C4.85438 19.75 5.6149 19.75 6.56731 19.75H12.9162C13.3304 19.75 13.6662 19.4142 13.6662 19C13.6662 18.5858 13.3304 18.25 12.9162 18.25H6.6C5.60753 18.25 4.90829 18.2494 4.36228 18.2048C3.82503 18.1609 3.50252 18.0782 3.25153 17.9503C2.73408 17.6866 2.31338 17.2659 2.04973 16.7485C1.92184 16.4975 1.83909 16.175 1.79519 15.6377C1.75058 15.0917 1.75 14.3925 1.75 13.4V8.6C1.75 7.60753 1.75058 6.90829 1.79519 6.36228C1.83909 5.82503 1.92184 5.50252 2.04973 5.25153C2.31338 4.73408 2.73408 4.31338 3.25153 4.04973C3.50252 3.92184 3.82503 3.83909 4.36228 3.79519C4.90829 3.75058 5.60753 3.75 6.6 3.75H16.4C17.3925 3.75 18.0917 3.75058 18.6377 3.79519C19.175 3.83909 19.4975 3.92184 19.7485 4.04973C20.2659 4.31338 20.6866 4.73408 20.9503 5.25153C21.0782 5.50252 21.1609 5.82503 21.2048 6.36228C21.2494 6.90829 21.25 7.60753 21.25 8.6V11.048C21.25 11.4622 21.5858 11.798 22 11.798C22.4142 11.798 22.75 11.4622 22.75 11.048V8.56737C22.75 7.61496 22.75 6.85438 22.6998 6.24013C22.6483 5.61012 22.5404 5.06824 22.2868 4.57054C21.8793 3.77085 21.2291 3.12068 20.4295 2.71322C19.9318 2.45963 19.3899 2.35165 18.7599 2.30018C18.1456 2.24999 17.3851 2.24999 16.4326 2.25Z" fill="#000"/>
<path fill-rule="evenodd" clip-rule="evenodd" d="M11.5092 14.75L11.5046 14.75L11.5 14.75C9.42893 14.75 7.75 13.0711 7.75 11C7.75 8.92893 9.42893 7.25 11.5 7.25C13.5711 7.25 15.25 8.92893 15.25 11C15.25 12.9793 13.5935 14.75 11.5092 14.75ZM9.25 11C9.25 9.75736 10.2574 8.75 11.5 8.75C12.7426 8.75 13.75 9.75736 13.75 11C13.75 12.1812 12.7351 13.25 11.5092 13.25L11.5046 13.25L11.5 13.25C10.2574 13.25 9.25 12.2426 9.25 11Z" fill="#000"/>
<path d="M5 10C4.44772 10 4 10.4477 4 11C4 11.5523 4.44772 12 5 12C5.55228 12 6.0001 11.5523 6.0001 11C6.0001 10.4477 5.55228 10 5 10Z" fill="#000"/>
<path d="M23.75 18C23.75 18.4142 23.4142 18.75 23 18.75H20.75V21C20.75 21.4142 20.4142 21.75 20 21.75C19.5858 21.75 19.25 21.4142 19.25 21V18.75H17C16.5858 18.75 16.25 18.4142 16.25 18C16.25 17.5858 16.5858 17.25 17 17.25H19.25V15C19.25 14.5858 19.5858 14.25 20 14.25C20.4142 14.25 20.75 14.5858 20.75 15V17.25H23C23.4142 17.25 23.75 17.5858 23.75 18Z" fill="#000"/>
</svg>
