<svg width="24" height="24" viewBox="0 0 24 24" fill="none" xmlns="http://www.w3.org/2000/svg">
<path d="M6.56739 3.25H16.4326C17.3851 3.24999 18.1456 3.24999 18.7599 3.30018C19.3899 3.35165 19.9318 3.45963 20.4295 3.71322C21.2291 4.12068 21.8793 4.77085 22.2868 5.57054C22.5404 6.06824 22.6483 6.61012 22.6998 7.24013C22.75 7.85438 22.75 8.6149 22.75 9.5673V12.048C22.75 12.4622 22.4142 12.798 22 12.798C21.5858 12.798 21.25 12.4622 21.25 12.048V9.6C21.25 8.60753 21.2494 7.90829 21.2048 7.36228C21.1609 6.82503 21.0782 6.50252 20.9503 6.25153C20.6866 5.73408 20.2659 5.31338 19.7485 5.04973C19.4975 4.92184 19.175 4.83909 18.6377 4.79519C18.0917 4.75058 17.3925 4.75 16.4 4.75H6.6C5.60753 4.75 4.90829 4.75058 4.36228 4.79519C3.82503 4.83909 3.50252 4.92184 3.25153 5.04973C2.73408 5.31338 2.31338 5.73408 2.04973 6.25153C1.92184 6.50252 1.83909 6.82503 1.79519 7.36228C1.75058 7.90829 1.75 8.60753 1.75 9.6V14.4C1.75 15.3925 1.75058 16.0917 1.79519 16.6377C1.83909 17.175 1.92184 17.4975 2.04973 17.7485C2.31338 18.2659 2.73408 18.6866 3.25153 18.9503C3.50252 19.0782 3.82503 19.1609 4.36228 19.2048C4.90829 19.2494 5.60753 19.25 6.6 19.25H12.9162C13.3304 19.25 13.6662 19.5858 13.6662 20C13.6662 20.4142 13.3304 20.75 12.9162 20.75H6.56737C5.61497 20.75 4.85438 20.75 4.24013 20.6998C3.61012 20.6483 3.06824 20.5404 2.57054 20.2868C1.77085 19.8793 1.12068 19.2291 0.713223 18.4295C0.459634 17.9318 0.35165 17.3899 0.300176 16.7599C0.249989 16.1456 0.249994 15.3851 0.25 14.4326V9.56739C0.249994 8.61495 0.249989 7.85439 0.300176 7.24013C0.35165 6.61012 0.459634 6.06824 0.713223 5.57054C1.12068 4.77085 1.77085 4.12068 2.57054 3.71322C3.06824 3.45963 3.61012 3.35165 4.24013 3.30018C4.85439 3.24999 5.61495 3.24999 6.56739 3.25Z" fill="#000"/>
<path fill-rule="evenodd" clip-rule="evenodd" d="M11.5046 15.75L11.5092 15.75C13.5935 15.75 15.25 13.9793 15.25 12C15.25 9.92893 13.5711 8.25 11.5 8.25C9.42893 8.25 7.75 9.92893 7.75 12C7.75 14.0711 9.42893 15.75 11.5 15.75L11.5046 15.75ZM11.5 9.75C10.2574 9.75 9.25 10.7574 9.25 12C9.25 13.2426 10.2574 14.25 11.5 14.25L11.5046 14.25L11.5092 14.25C12.7351 14.25 13.75 13.1812 13.75 12C13.75 10.7574 12.7426 9.75 11.5 9.75Z" fill="#000"/>
<path d="M4 12C4 11.4477 4.44772 11 5 11C5.55228 11 6.0001 11.4477 6.0001 12C6.0001 12.5523 5.55238 13 5.0001 13C4.44782 13 4 12.5523 4 12Z" fill="#000"/>
<path d="M23 18.75C23.4142 18.75 23.75 18.4142 23.75 18C23.75 17.5858 23.4142 17.25 23 17.25H17C16.5858 17.25 16.25 17.5858 16.25 18C16.25 18.4142 16.5858 18.75 17 18.75H23Z" fill="#000"/>
</svg>
