<svg width="24" height="24" viewBox="0 0 24 24" fill="none" xmlns="http://www.w3.org/2000/svg">
<path d="M11.25 8.31722V8.00001C11.25 7.5858 11.5858 7.25001 12 7.25001C12.4142 7.25001 12.75 7.5858 12.75 8.00001V8.3123C12.9266 8.34589 13.1003 8.39518 13.2765 8.46509C13.6747 8.62303 14.041 8.86914 14.4527 9.1809C14.783 9.43095 14.848 9.90136 14.5979 10.2316C14.3479 10.5618 13.8775 10.6268 13.5472 10.3768C13.159 10.0828 12.9252 9.93944 12.7235 9.85942C12.5392 9.78634 12.3406 9.75 12 9.75C11.5065 9.75 11.1757 9.86694 10.9899 10.0015C10.8265 10.1199 10.75 10.2643 10.75 10.4654C10.75 10.7016 10.8409 10.8313 11.0663 10.9575C11.3391 11.1102 11.7185 11.1927 12.1233 11.2602C12.5185 11.3261 13.1391 11.4385 13.6663 11.7336C14.2409 12.0553 14.75 12.6262 14.75 13.5346C14.75 14.2364 14.4265 14.8247 13.8899 15.2133C13.5626 15.4503 13.1725 15.6031 12.75 15.6828V16C12.75 16.4142 12.4142 16.75 12 16.75C11.5858 16.75 11.25 16.4142 11.25 16V15.6877C11.0734 15.6541 10.8997 15.6048 10.7235 15.5349C10.3252 15.3769 9.95895 15.1308 9.54723 14.8191C9.217 14.569 9.15201 14.0986 9.40206 13.7684C9.65211 13.4382 10.1225 13.3732 10.4527 13.6232C10.841 13.9172 11.0747 14.0605 11.2765 14.1406C11.4608 14.2137 11.6594 14.25 12 14.25C12.4935 14.25 12.8242 14.1331 13.0101 13.9985C13.1734 13.8801 13.25 13.7357 13.25 13.5346C13.25 13.2984 13.1591 13.1687 12.9336 13.0425C12.6608 12.8898 12.2814 12.8073 11.8767 12.7398C11.4814 12.6739 10.8608 12.5615 10.3336 12.2664C9.75906 11.9447 9.24998 11.3738 9.24998 10.4654C9.24998 9.76358 9.57343 9.17533 10.1101 8.78668C10.4373 8.54966 10.8274 8.39693 11.25 8.31722Z" fill="#000"/>
<path fill-rule="evenodd" clip-rule="evenodd" d="M17.7637 3.25C15.5712 3.25 13.7607 3.76773 12.0327 4.26192L11.9444 4.28717C10.1792 4.79177 8.48258 5.26656 6.39081 5.26656C5.31871 5.26656 4.31983 5.05361 3.23473 4.74464C2.67673 4.58575 2.08133 4.65545 1.60549 4.93545C1.11602 5.22347 0.75 5.74358 0.75 6.4108V17.6449C0.75 18.2566 0.924693 18.7893 1.26344 19.2254C1.5933 19.6501 2.04039 19.9342 2.51046 20.1295C3.50507 20.5484 4.3355 20.75 6.2363 20.75C8.42884 20.75 10.2393 20.2323 11.9674 19.7381L12.0556 19.7128C13.8208 19.2082 15.5174 18.7334 17.6092 18.7334C18.6813 18.7334 19.6802 18.9464 20.7653 19.2554C21.3233 19.4142 21.9187 19.3445 22.3945 19.0645C22.884 18.7765 23.25 18.2564 23.25 17.5892L23.25 6.35513C23.25 5.74344 23.0753 5.21073 22.7366 4.77461C22.4067 4.34997 21.9597 4.06581 21.4897 3.87052C20.495 3.45166 19.6646 3.25 17.7637 3.25ZM6.39081 6.76656C8.7155 6.76656 10.5948 6.23306 12.3567 5.72939L12.3835 5.72172C14.1456 5.21799 15.7826 4.75 17.7637 4.75C19.51 4.75 20.1348 4.92743 20.909 5.25358L20.9128 5.25516C21.2264 5.38527 21.4284 5.53575 21.5519 5.69475C21.667 5.84288 21.75 6.04381 21.75 6.35513V17.5892C21.75 17.661 21.7231 17.7192 21.6338 17.7718C21.5308 17.8323 21.3616 17.8655 21.176 17.8127C20.037 17.4884 18.884 17.2334 17.6092 17.2334C15.2845 17.2334 13.4052 17.7669 11.6433 18.2706L11.6165 18.2783C9.85444 18.782 8.21742 19.25 6.2363 19.25C4.49002 19.25 3.86519 19.0726 3.09098 18.7464L3.08721 18.7448C2.77359 18.6147 2.57157 18.4642 2.44807 18.3053C2.33301 18.1571 2.25 17.9562 2.25 17.6449L2.25 6.41081C2.25 6.33896 2.2769 6.2808 2.36621 6.22824C2.46917 6.16765 2.63844 6.13447 2.82395 6.18729C3.96303 6.51163 5.11604 6.76656 6.39081 6.76656Z" fill="#000"/>
</svg>
