<svg width="24" height="24" viewBox="0 0 24 24" fill="none" xmlns="http://www.w3.org/2000/svg">
<path d="M19.0314 1.25H4.96858C4.29521 1.24999 3.74449 1.24998 3.29693 1.28655C2.83367 1.3244 2.41527 1.40514 2.02453 1.60423C1.413 1.91582 0.915818 2.413 0.60423 3.02453C0.405137 3.41527 0.324402 3.83367 0.286552 4.29693C0.249985 4.74449 0.249992 5.2952 0.25 5.96857V9.03142C0.249992 9.70479 0.249985 10.2555 0.286552 10.7031C0.324402 11.1663 0.405137 11.5847 0.60423 11.9755C0.915818 12.587 1.413 13.0842 2.02453 13.3958C2.45739 13.6163 2.9264 13.6924 3.45429 13.7246C3.86774 13.7499 4.22336 13.4352 4.24861 13.0217C4.27385 12.6083 3.95915 12.2527 3.54571 12.2274C3.09307 12.1998 2.86643 12.1413 2.70552 12.0593C2.37623 11.8915 2.10852 11.6238 1.94074 11.2945C1.86735 11.1504 1.81184 10.9514 1.78157 10.5809C1.75058 10.2017 1.75 9.71244 1.75 9V6C1.75 5.28756 1.75058 4.79833 1.78157 4.41908C1.81184 4.04858 1.86735 3.84956 1.94074 3.70552C2.10852 3.37623 2.37623 3.10852 2.70552 2.94074C2.84956 2.86735 3.04858 2.81184 3.41908 2.78157C3.79833 2.75058 4.28756 2.75 5 2.75H19C19.7124 2.75 20.2017 2.75058 20.5809 2.78157C20.9514 2.81184 21.1504 2.86735 21.2945 2.94074C21.6238 3.10852 21.8915 3.37623 22.0593 3.70552C22.1327 3.84956 22.1882 4.04858 22.2184 4.41908C22.2494 4.79833 22.25 5.28756 22.25 6V9C22.25 9.71244 22.2494 10.2017 22.2184 10.5809C22.1882 10.9514 22.1327 11.1504 22.0593 11.2945C21.8915 11.6238 21.6238 11.8915 21.2945 12.0593C21.1336 12.1413 20.9069 12.1998 20.4543 12.2274C20.0408 12.2527 19.7262 12.6083 19.7514 13.0217C19.7766 13.4352 20.1323 13.7499 20.5457 13.7246C21.0736 13.6924 21.5426 13.6163 21.9755 13.3958C22.587 13.0842 23.0842 12.587 23.3958 11.9755C23.5949 11.5847 23.6756 11.1663 23.7134 10.7031C23.75 10.2555 23.75 9.70481 23.75 9.03144V5.96856C23.75 5.29519 23.75 4.74449 23.7134 4.29693C23.6756 3.83367 23.5949 3.41527 23.3958 3.02453C23.0842 2.413 22.587 1.91582 21.9755 1.60423C21.5847 1.40514 21.1663 1.3244 20.7031 1.28655C20.2555 1.24998 19.7048 1.24999 19.0314 1.25Z" fill="#000"/>
<path d="M18.75 7C18.75 6.58579 18.4142 6.25 18 6.25C17.5858 6.25 17.25 6.58579 17.25 7V18C17.25 18.7124 17.2494 19.2017 17.2184 19.5809C17.1882 19.9514 17.1327 20.1505 17.0593 20.2945C16.8915 20.6238 16.6238 20.8915 16.2945 21.0593C16.1504 21.1327 15.9514 21.1882 15.5809 21.2184C15.2017 21.2494 14.7124 21.25 14 21.25H10C9.28756 21.25 8.79834 21.2494 8.41908 21.2184C8.04858 21.1882 7.84956 21.1327 7.70552 21.0593C7.37624 20.8915 7.10852 20.6238 6.94074 20.2945C6.86735 20.1505 6.81184 19.9514 6.78157 19.5809C6.75059 19.2017 6.75 18.7124 6.75 18L6.75 7C6.75 6.58579 6.41421 6.25 6 6.25C5.58579 6.25 5.25 6.58579 5.25 7L5.25 18.0314C5.24999 18.7048 5.24999 19.2555 5.28655 19.7031C5.3244 20.1663 5.40514 20.5847 5.60423 20.9755C5.91582 21.587 6.41301 22.0842 7.02453 22.3958C7.41527 22.5949 7.83367 22.6756 8.29693 22.7135C8.74448 22.75 9.29515 22.75 9.96849 22.75H14.0314C14.7047 22.75 15.2555 22.75 15.7031 22.7135C16.1663 22.6756 16.5847 22.5949 16.9755 22.3958C17.587 22.0842 18.0842 21.587 18.3958 20.9755C18.5949 20.5847 18.6756 20.1663 18.7135 19.7031C18.75 19.2555 18.75 18.7049 18.75 18.0315V7Z" fill="#000"/>
<path d="M12 17.0005C11.4477 17.0005 11 17.4482 11 18.0005C11 18.5528 11.4477 19.0005 12 19.0005C12.5523 19.0005 13.0001 18.5528 13.0001 18.0005C13.0001 17.4482 12.5523 17.0005 12 17.0005Z" fill="#000"/>
<path fill-rule="evenodd" clip-rule="evenodd" d="M12 15.25C10.2051 15.25 8.75 13.7949 8.75 12C8.75 10.2051 10.2051 8.75 12 8.75C13.7949 8.75 15.25 10.2051 15.25 12C15.25 13.7949 13.7949 15.25 12 15.25ZM10.25 12C10.25 12.9665 11.0335 13.75 12 13.75C12.9665 13.75 13.75 12.9665 13.75 12C13.75 11.0335 12.9665 10.25 12 10.25C11.0335 10.25 10.25 11.0335 10.25 12Z" fill="#000"/>
</svg>
