<svg width="24" height="24" viewBox="0 0 24 24" fill="none" xmlns="http://www.w3.org/2000/svg">
<path fill-rule="evenodd" clip-rule="evenodd" d="M10.9972 1.25399C11.0963 1.26205 11.2768 1.28887 11.453 1.41036C11.7462 1.61254 11.9082 1.94986 11.8827 2.30508C11.8664 2.5331 11.7611 2.69826 11.7082 2.77339C11.6471 2.86035 11.5759 2.93642 11.5167 2.99576C11.4029 3.10986 11.2445 3.2488 11.0707 3.40129L11.0519 3.41785C9.64041 4.65645 8.75122 6.47136 8.75122 8.49486C8.75122 12.2239 11.7742 15.2468 15.5032 15.2468C17.5277 15.2468 19.3434 14.3567 20.5821 12.944L20.5986 12.9252C20.751 12.7513 20.8899 12.5929 21.004 12.479C21.0633 12.4198 21.1393 12.3486 21.2263 12.2874C21.3014 12.2345 21.4665 12.1291 21.6945 12.1126C22.0497 12.087 22.3871 12.2489 22.5894 12.542C22.711 12.7181 22.7379 12.8986 22.746 12.9977C22.7547 13.1042 22.7478 13.2064 22.7397 13.2858C22.7244 13.4361 22.6906 13.6271 22.655 13.8288L22.6505 13.8542C21.7576 18.9095 17.3443 22.7495 12.0326 22.7495C6.07754 22.7495 1.25 17.922 1.25 11.9669C1.25 6.65681 5.08773 2.24458 10.1408 1.34986L10.1661 1.34537C10.3678 1.30963 10.5589 1.27579 10.7092 1.26041C10.7886 1.25229 10.8907 1.24533 10.9972 1.25399ZM9.2522 3.10769C5.48394 4.28901 2.75 7.80933 2.75 11.9669C2.75 17.0936 6.90597 21.2495 12.0326 21.2495C16.1916 21.2495 19.7129 18.5137 20.893 14.7435C19.4476 15.9912 17.5633 16.7468 15.5032 16.7468C10.9457 16.7468 7.25122 13.0523 7.25122 8.49486C7.25122 6.43601 8.00587 4.55279 9.2522 3.10769Z" fill="#000"/>
</svg>
