<svg width="24" height="24" viewBox="0 0 24 24" fill="none" xmlns="http://www.w3.org/2000/svg">
<path d="M17.5 12C17.5 11.4477 17.0523 11 16.5 11C15.9477 11 15.5 11.4477 15.5 12C15.5 12.5523 15.9477 13.0001 16.5 13.0001C17.0523 13.0001 17.5 12.5523 17.5 12Z" fill="#000"/>
<path d="M12 11C12.5523 11 13 11.4477 13 12C13 12.5523 12.5523 13.0001 12 13.0001C11.4477 13.0001 11 12.5524 11 12.0001C11 11.4478 11.4477 11 12 11Z" fill="#000"/>
<path d="M8.5 12C8.5 11.4477 8.05229 11 7.5 11C6.94772 11 6.5 11.4477 6.5 12C6.5 12.5523 6.94772 13.0001 7.5 13.0001C8.05229 13.0001 8.5 12.5523 8.5 12Z" fill="#000"/>
<path fill-rule="evenodd" clip-rule="evenodd" d="M12 0.25C5.51065 0.25 0.25 5.51065 0.25 12C0.25 18.4893 5.51065 23.75 12 23.75C18.4893 23.75 23.75 18.4893 23.75 12C23.75 5.51065 18.4893 0.25 12 0.25ZM1.75 12C1.75 6.33908 6.33908 1.75 12 1.75C17.6609 1.75 22.25 6.33908 22.25 12C22.25 17.6609 17.6609 22.25 12 22.25C6.33908 22.25 1.75 17.6609 1.75 12Z" fill="#000"/>
</svg>
