<svg width="24" height="24" viewBox="0 0 24 24" fill="none" xmlns="http://www.w3.org/2000/svg">
<path fill-rule="evenodd" clip-rule="evenodd" d="M19.19 1.32686C20.47 0.953528 21.75 1.91353 21.75 3.24686V6.98297C21.7503 6.99471 21.7503 7.00642 21.75 7.01809V15.5002C21.75 16.3787 21.3454 17.2242 20.6015 17.8442C19.1517 19.0523 16.8482 19.0523 15.3985 17.8442C14.6546 17.2242 14.25 16.3788 14.25 15.5002C14.25 14.6217 14.6546 13.7763 15.3985 13.1563C16.736 12.0418 18.8 11.9555 20.25 12.8973V8.0002L9.75 11.0627L9.75 19.5002C9.75 20.3788 9.34544 21.2242 8.60146 21.8442C7.15175 23.0523 4.84825 23.0523 3.39854 21.8442C2.65456 21.2242 2.25 20.3788 2.25 19.5002C2.25 18.6217 2.65456 17.7763 3.39854 17.1563C4.73596 16.0418 6.80001 15.9555 8.25 16.8973V10.5164C8.24976 10.5053 8.24976 10.4943 8.25 10.4834V6.58019C8.25 5.35797 9.05667 4.28242 10.23 3.94019L19.19 1.32686ZM9.75 9.5002L20.25 6.4377V3.24686C20.25 2.91353 19.93 2.67353 19.61 2.76686L10.65 5.38019C10.1167 5.53575 9.75 6.02464 9.75 6.58019V9.5002ZM7.64118 18.3086C8.06838 18.6646 8.24966 19.0984 8.25 19.4991L8.25 19.5002C8.25 19.9013 8.06878 20.3355 7.64118 20.6918C6.74774 21.4364 5.25226 21.4364 4.35882 20.6918C3.93122 20.3355 3.75 19.9013 3.75 19.5002C3.75 19.0992 3.93122 18.665 4.35882 18.3086C5.25226 17.5641 6.74774 17.5641 7.64118 18.3086ZM16.3588 14.3086C17.2523 13.5641 18.7477 13.5641 19.6412 14.3086C20.0688 14.665 20.25 15.0992 20.25 15.5002C20.25 15.9013 20.0688 16.3355 19.6412 16.6918C18.7477 17.4364 17.2523 17.4364 16.3588 16.6918C15.9312 16.3355 15.75 15.9013 15.75 15.5002C15.75 15.0992 15.9312 14.665 16.3588 14.3086Z" fill="#000"/>
</svg>
