<svg width="24" height="24" viewBox="0 0 24 24" fill="none" xmlns="http://www.w3.org/2000/svg">
<path d="M6 16.25C5.58579 16.25 5.25 16.5858 5.25 17C5.25 17.4142 5.58579 17.75 6 17.75H9C9.41421 17.75 9.75 17.4142 9.75 17C9.75 16.5858 9.41421 16.25 9 16.25H6Z" fill="#000"/>
<path fill-rule="evenodd" clip-rule="evenodd" d="M7.04508 1.25H16.9549C18.1859 1.25 19.3113 1.94551 19.8618 3.04656L22.5125 8.34787C22.6687 8.6603 22.75 9.0048 22.75 9.3541V19C22.75 21.0711 21.0711 22.75 19 22.75H5C2.92893 22.75 1.25 21.0711 1.25 19V9.3541C1.25 9.0048 1.33133 8.6603 1.48754 8.34787L4.1382 3.04656C4.68872 1.94551 5.81408 1.25 7.04508 1.25ZM5.47984 3.71738C5.77627 3.1245 6.38223 2.75 7.04508 2.75H11.25V8.25H3.21353L5.47984 3.71738ZM12.75 8.25V2.75H16.9549C17.6178 2.75 18.2237 3.1245 18.5202 3.71738L20.7865 8.25H12.75ZM2.75 9.75H21.25V19C21.25 20.2426 20.2426 21.25 19 21.25H5C3.75736 21.25 2.75 20.2426 2.75 19V9.75Z" fill="#000"/>
</svg>
