<svg width="24" height="24" viewBox="0 0 24 24" fill="none" xmlns="http://www.w3.org/2000/svg">
<path fill-rule="evenodd" clip-rule="evenodd" d="M17.6318 1.25H11.8682C11.1251 1.24999 10.522 1.24999 10.0327 1.28996C9.52778 1.33121 9.07851 1.41876 8.66103 1.63148C8.00247 1.96703 7.46703 2.50247 7.13148 3.16103C6.91876 3.57851 6.83121 4.02778 6.78996 4.53273C6.74999 5.02196 6.74999 5.62511 6.75 6.36818V6.75H6.36821C5.62514 6.74999 5.02196 6.74999 4.53273 6.78996C4.02778 6.83121 3.57851 6.91876 3.16103 7.13148C2.50247 7.46703 1.96703 8.00247 1.63148 8.66103C1.41876 9.07851 1.33121 9.52778 1.28996 10.0327C1.24999 10.522 1.24999 11.1251 1.25 11.8682V17.6318C1.24999 18.3749 1.24999 18.978 1.28996 19.4673C1.33121 19.9722 1.41876 20.4215 1.63148 20.839C1.96703 21.4975 2.50247 22.033 3.16103 22.3685C3.57851 22.5812 4.02778 22.6688 4.53273 22.71C5.02195 22.75 5.62507 22.75 6.36811 22.75H12.1318C12.8748 22.75 13.4781 22.75 13.9673 22.71C14.4722 22.6688 14.9215 22.5812 15.339 22.3685C15.9975 22.033 16.533 21.4975 16.8685 20.839C17.0812 20.4215 17.1688 19.9722 17.21 19.4673C17.25 18.9781 17.25 18.3749 17.25 17.6319V17.25H17.6318C18.3748 17.25 18.9781 17.25 19.4673 17.21C19.9722 17.1688 20.4215 17.0812 20.839 16.8685C21.4975 16.533 22.033 15.9975 22.3685 15.339C22.5812 14.9215 22.6688 14.4722 22.71 13.9673C22.75 13.4781 22.75 12.8749 22.75 12.1319V6.36819C22.75 5.62515 22.75 5.02195 22.71 4.53273C22.6688 4.02778 22.5812 3.57851 22.3685 3.16103C22.033 2.50247 21.4975 1.96703 20.839 1.63148C20.4215 1.41876 19.9722 1.33121 19.4673 1.28996C18.978 1.24999 18.3749 1.24999 17.6318 1.25ZM15.75 17.25V17.6C15.75 18.3824 15.7494 18.9242 15.715 19.3451C15.6813 19.7573 15.619 19.9872 15.532 20.158C15.3403 20.5343 15.0343 20.8403 14.658 21.032C14.4872 21.119 14.2573 21.1813 13.8451 21.215C13.4242 21.2494 12.8824 21.25 12.1 21.25H6.4C5.61755 21.25 5.07582 21.2494 4.65488 21.215C4.24269 21.1813 4.0128 21.119 3.84202 21.032C3.4657 20.8403 3.15973 20.5343 2.96799 20.158C2.88097 19.9872 2.81865 19.7573 2.78498 19.3451C2.75058 18.9242 2.75 18.3824 2.75 17.6V11.9C2.75 11.1176 2.75058 10.5758 2.78498 10.1549C2.81865 9.74269 2.88097 9.5128 2.96799 9.34202C3.15973 8.9657 3.4657 8.65973 3.84202 8.46799C4.0128 8.38097 4.24269 8.31865 4.65488 8.28498C5.07582 8.25058 5.61755 8.25 6.4 8.25H6.75V12.1318C6.74999 12.8749 6.74999 13.478 6.78996 13.9673C6.83121 14.4722 6.91876 14.9215 7.13148 15.339C7.46703 15.9975 8.00247 16.533 8.66103 16.8685C9.07851 17.0812 9.52778 17.1688 10.0327 17.21C10.5219 17.25 11.1251 17.25 11.8681 17.25H15.75ZM8.25 12.1C8.25 12.8824 8.25058 13.4242 8.28498 13.8451C8.31865 14.2573 8.38097 14.4872 8.46799 14.658C8.65973 15.0343 8.9657 15.3403 9.34202 15.532C9.5128 15.619 9.74269 15.6813 10.1549 15.715C10.5758 15.7494 11.1176 15.75 11.9 15.75H17.6C18.3824 15.75 18.9242 15.7494 19.3451 15.715C19.7573 15.6813 19.9872 15.619 20.158 15.532C20.5343 15.3403 20.8403 15.0343 21.032 14.658C21.119 14.4872 21.1813 14.2573 21.215 13.8451C21.2494 13.4242 21.25 12.8824 21.25 12.1V6.4C21.25 5.61755 21.2494 5.07582 21.215 4.65488C21.1813 4.24269 21.119 4.0128 21.032 3.84202C20.8403 3.4657 20.5343 3.15973 20.158 2.96799C19.9872 2.88097 19.7573 2.81865 19.3451 2.78498C18.9242 2.75058 18.3824 2.75 17.6 2.75H11.9C11.1176 2.75 10.5758 2.75058 10.1549 2.78498C9.74269 2.81865 9.5128 2.88097 9.34202 2.96799C8.9657 3.15973 8.65973 3.4657 8.46799 3.84202C8.38097 4.0128 8.31865 4.24269 8.28498 4.65488C8.25058 5.07582 8.25 5.61755 8.25 6.4V12.1Z" fill="#000"/>
</svg>
