<svg width="24" height="24" viewBox="0 0 24 24" fill="none" xmlns="http://www.w3.org/2000/svg">
<path d="M18.8691 3.67783C17.6093 2.44073 15.5611 2.44072 14.3013 3.67782L5.27102 12.545C3.24299 14.5365 3.24299 17.7594 5.27102 19.7508C7.30609 21.7492 10.6108 21.7497 12.6466 19.7525L12.6483 19.7508L20.471 11.9683C20.7647 11.6762 21.2396 11.6774 21.5317 11.971C21.8238 12.2647 21.8226 12.7396 21.529 13.0317L13.6993 20.8211C11.0801 23.393 6.83921 23.393 4.22007 20.8211C1.59331 18.2418 1.59331 14.0541 4.22007 11.4748L13.2503 2.60755C15.0937 0.797482 18.0768 0.797486 19.9201 2.60755C21.7711 4.42509 21.7711 7.37767 19.9201 9.19521L11.2912 17.6683C10.2236 18.7166 8.49837 18.7166 7.43082 17.6683C6.35566 16.6126 6.35566 14.8951 7.43082 13.8394L14.8557 6.54853C15.1512 6.25832 15.6261 6.26265 15.9163 6.5582C16.2065 6.85374 16.2022 7.3286 15.9067 7.61881L8.48178 14.9096C8.00535 15.3775 8.00534 16.1302 8.48178 16.598C8.96583 17.0734 9.75619 17.0734 10.2402 16.598L18.8691 8.12493C20.1214 6.8953 20.1214 4.90745 18.8691 3.67783Z" fill="#000"/>
</svg>
