<svg width="24" height="24" viewBox="0 0 24 24" fill="none" xmlns="http://www.w3.org/2000/svg">
<path fill-rule="evenodd" clip-rule="evenodd" d="M7.62891 1.25H6.37109C5.97574 1.24999 5.63465 1.24998 5.35373 1.27293C5.05722 1.29715 4.76231 1.35064 4.47852 1.49524C4.05516 1.71095 3.71095 2.05516 3.49524 2.47852C3.35064 2.76231 3.29715 3.05722 3.27293 3.35373C3.24998 3.63465 3.24999 3.97572 3.25 4.37106V19.6289C3.24999 20.0243 3.24998 20.3654 3.27293 20.6463C3.29715 20.9428 3.35064 21.2377 3.49524 21.5215C3.71095 21.9448 4.05516 22.2891 4.47852 22.5048C4.76231 22.6494 5.05722 22.7029 5.35373 22.7271C5.63463 22.75 5.97567 22.75 6.37098 22.75H7.62893C8.02424 22.75 8.36537 22.75 8.64627 22.7271C8.94278 22.7029 9.2377 22.6494 9.52148 22.5048C9.94485 22.2891 10.2891 21.9448 10.5048 21.5215C10.6494 21.2377 10.7028 20.9428 10.7271 20.6463C10.75 20.3653 10.75 20.0243 10.75 19.6289V4.37108C10.75 3.97572 10.75 3.63466 10.7271 3.35373C10.7028 3.05722 10.6494 2.76231 10.5048 2.47852C10.2891 2.05516 9.94485 1.71095 9.52148 1.49524C9.2377 1.35064 8.94278 1.29715 8.64627 1.27293C8.36535 1.24998 8.02426 1.24999 7.62891 1.25ZM5.15951 2.83175C5.19659 2.81285 5.27213 2.78459 5.47588 2.76795C5.68838 2.75059 5.96759 2.75 6.4 2.75H7.6C8.03242 2.75 8.31162 2.75059 8.52413 2.76795C8.72787 2.78459 8.80341 2.81285 8.8405 2.83175C8.98162 2.90365 9.09635 3.01839 9.16826 3.15951C9.18715 3.19659 9.21541 3.27213 9.23206 3.47588C9.24942 3.68838 9.25 3.96759 9.25 4.4V19.6C9.25 20.0324 9.24942 20.3116 9.23206 20.5241C9.21541 20.7279 9.18715 20.8034 9.16826 20.8405C9.09635 20.9816 8.98162 21.0964 8.8405 21.1683C8.80341 21.1872 8.72787 21.2154 8.52413 21.2321C8.31162 21.2494 8.03242 21.25 7.6 21.25H6.4C5.96759 21.25 5.68838 21.2494 5.47588 21.2321C5.27213 21.2154 5.19659 21.1872 5.15951 21.1683C5.01839 21.0964 4.90365 20.9816 4.83175 20.8405C4.81285 20.8034 4.78459 20.7279 4.76795 20.5241C4.75059 20.3116 4.75 20.0324 4.75 19.6V4.4C4.75 3.96759 4.75059 3.68838 4.76795 3.47588C4.78459 3.27213 4.81285 3.19659 4.83175 3.15951C4.90365 3.01839 5.01839 2.90365 5.15951 2.83175Z" fill="#000"/>
<path fill-rule="evenodd" clip-rule="evenodd" d="M17.6289 1.25H16.3711C15.9757 1.24999 15.6347 1.24998 15.3537 1.27293C15.0572 1.29715 14.7623 1.35064 14.4785 1.49524C14.0552 1.71095 13.711 2.05516 13.4952 2.47852C13.3506 2.76231 13.2972 3.05722 13.2729 3.35373C13.25 3.63465 13.25 3.97571 13.25 4.37105V19.6289C13.25 20.0243 13.25 20.3654 13.2729 20.6463C13.2972 20.9428 13.3506 21.2377 13.4952 21.5215C13.711 21.9448 14.0552 22.2891 14.4785 22.5048C14.7623 22.6494 15.0572 22.7029 15.3537 22.7271C15.6346 22.75 15.9757 22.75 16.371 22.75H17.6289C18.0242 22.75 18.3654 22.75 18.6463 22.7271C18.9428 22.7029 19.2377 22.6494 19.5215 22.5048C19.9448 22.2891 20.2891 21.9448 20.5048 21.5215C20.6494 21.2377 20.7028 20.9428 20.7271 20.6463C20.75 20.3653 20.75 20.0243 20.75 19.6289V4.37108C20.75 3.97572 20.75 3.63466 20.7271 3.35373C20.7028 3.05722 20.6494 2.76231 20.5048 2.47852C20.2891 2.05516 19.9448 1.71095 19.5215 1.49524C19.2377 1.35064 18.9428 1.29715 18.6463 1.27293C18.3654 1.24998 18.0243 1.24999 17.6289 1.25ZM15.1595 2.83175C15.1966 2.81285 15.2721 2.78459 15.4759 2.76795C15.6884 2.75059 15.9676 2.75 16.4 2.75H17.6C18.0324 2.75 18.3116 2.75059 18.5241 2.76795C18.7279 2.78459 18.8034 2.81285 18.8405 2.83175C18.9816 2.90365 19.0964 3.01839 19.1683 3.15951C19.1872 3.19659 19.2154 3.27213 19.2321 3.47588C19.2494 3.68838 19.25 3.96759 19.25 4.4V19.6C19.25 20.0324 19.2494 20.3116 19.2321 20.5241C19.2154 20.7279 19.1872 20.8034 19.1683 20.8405C19.0964 20.9816 18.9816 21.0964 18.8405 21.1683C18.8034 21.1872 18.7279 21.2154 18.5241 21.2321C18.3116 21.2494 18.0324 21.25 17.6 21.25H16.4C15.9676 21.25 15.6884 21.2494 15.4759 21.2321C15.2721 21.2154 15.1966 21.1872 15.1595 21.1683C15.0184 21.0964 14.9037 20.9816 14.8317 20.8405C14.8129 20.8034 14.7846 20.7279 14.7679 20.5241C14.7506 20.3116 14.75 20.0324 14.75 19.6V4.4C14.75 3.96759 14.7506 3.68838 14.7679 3.47588C14.7846 3.27213 14.8129 3.19659 14.8317 3.15951C14.9037 3.01839 15.0184 2.90365 15.1595 2.83175Z" fill="#000"/>
</svg>
