<svg width="24" height="24" viewBox="0 0 24 24" fill="none" xmlns="http://www.w3.org/2000/svg">
<path fill-rule="evenodd" clip-rule="evenodd" d="M19.5054 10.5542L19.4896 10.5699L18.4334 14.9824C18.1939 15.9844 18.0348 16.6498 17.6943 17.215C17.3938 17.7139 16.994 18.1456 16.5196 18.4835C15.9822 18.8663 15.3309 19.076 14.3503 19.3916L5.78991 22.1497C5.10078 22.3717 4.53417 22.5543 4.08055 22.656C3.62883 22.7572 3.15112 22.8139 2.70043 22.6512C2.07118 22.4239 1.5757 21.9284 1.34845 21.2992C1.18569 20.8485 1.24236 20.3708 1.34363 19.9191C1.44533 19.4654 1.62791 18.8988 1.84996 18.2096L4.60805 9.64906C4.92365 8.66854 5.13326 8.01733 5.51598 7.47998C5.85381 7.00566 6.28551 6.60584 6.78429 6.3053C7.34936 5.96482 8.01471 5.80568 9.0165 5.56605L13.4289 4.50929L15.2304 2.70782C15.559 2.37922 15.8372 2.101 16.0839 1.89154C16.3426 1.67194 16.6156 1.48421 16.947 1.37651C17.4492 1.21336 17.99 1.21336 18.4921 1.37651C18.8236 1.4842 19.0966 1.67193 19.3553 1.89153C19.602 2.101 19.8802 2.37923 20.2088 2.70783L21.2911 3.79013C21.6197 4.11869 21.8979 4.39688 22.1073 4.6436C22.3269 4.90228 22.5147 5.17528 22.6224 5.50673C22.7855 6.00884 22.7855 6.5497 22.6224 7.05181C22.5147 7.38326 22.3269 7.65626 22.1073 7.91494C21.8979 8.16168 21.6197 8.43988 21.2911 8.76846L19.5542 10.5054C19.5465 10.5138 19.5385 10.5221 19.5303 10.5303C19.5222 10.5385 19.5138 10.5465 19.5054 10.5542ZM17.4106 2.80309C17.6114 2.73784 17.8278 2.73784 18.0286 2.80309C18.0967 2.82523 18.1968 2.87567 18.3845 3.03504C18.5789 3.2001 18.8139 3.43424 19.1692 3.78951L20.2094 4.82971C20.5646 5.18498 20.7988 5.41994 20.9638 5.61437C21.1232 5.80209 21.1736 5.90214 21.1958 5.97026C21.261 6.1711 21.261 6.38745 21.1958 6.58829C21.1736 6.65641 21.1232 6.75646 20.9638 6.94418C20.7988 7.13861 20.5646 7.37358 20.2094 7.72884L18.9994 8.93879L15.0601 4.99944L16.27 3.78952C16.6253 3.43425 16.8603 3.2001 17.0547 3.03505C17.2424 2.87568 17.3424 2.82523 17.4106 2.80309ZM13.8824 5.9431L9.48494 6.99631C8.32062 7.27516 7.89955 7.38456 7.55843 7.5901C7.23569 7.78456 6.95636 8.04328 6.73776 8.35019C6.50672 8.67457 6.36541 9.08603 5.99826 10.2256L3.2892 18.6339C3.08301 19.2739 2.93448 19.7367 2.84357 20.0958L8.09848 14.8409C7.87652 14.4442 7.75 13.9869 7.75 13.5C7.75 11.9812 8.98122 10.75 10.5 10.75C12.0188 10.75 13.25 11.9812 13.25 13.5C13.25 15.0188 12.0188 16.25 10.5 16.25C10.0131 16.25 9.55582 16.1235 9.15914 15.9015L3.90489 21.1558C4.26378 21.0648 4.72637 20.9164 5.3657 20.7104L13.7737 18.0014C14.9134 17.6342 15.3249 17.4929 15.6494 17.2618C15.9563 17.0432 16.215 16.7638 16.4095 16.441C16.615 16.0998 16.7244 15.6787 17.0031 14.5142L18.0558 10.1165L13.8824 5.9431ZM9.25 13.5C9.25 12.8096 9.80964 12.25 10.5 12.25C11.1904 12.25 11.75 12.8096 11.75 13.5C11.75 14.1904 11.1904 14.75 10.5 14.75C9.80964 14.75 9.25 14.1904 9.25 13.5Z" fill="#000"/>
</svg>
