<svg width="24" height="24" viewBox="0 0 24 24" fill="none" xmlns="http://www.w3.org/2000/svg">
<path fill-rule="evenodd" clip-rule="evenodd" d="M12.9611 4.97827L3.06727 14.872C2.90989 15.0292 2.77076 15.1681 2.65612 15.3324C2.55525 15.4769 2.47171 15.6328 2.40722 15.7968C2.3339 15.9832 2.2949 16.1777 2.2507 16.3981L1.35708 20.8379C1.32186 21.0127 1.28614 21.19 1.26981 21.3407C1.25253 21.5002 1.24259 21.7349 1.34332 21.9787C1.47021 22.2858 1.71417 22.5298 2.0213 22.6567C2.26511 22.7574 2.49975 22.7475 2.65927 22.7302C2.80998 22.7139 2.98728 22.6781 3.1621 22.6429L7.60193 21.7493C7.82231 21.7051 8.01677 21.6661 8.20321 21.5928C8.36722 21.5283 8.52309 21.4447 8.6676 21.3439C8.83188 21.2292 8.97202 21.0889 9.13085 20.9298L21.1193 8.94139C21.497 8.56371 21.8122 8.24846 22.0487 7.96987C22.2954 7.6793 22.5002 7.37965 22.6171 7.01966C22.7966 6.46734 22.7966 5.87239 22.6171 5.32007C22.5002 4.96007 22.2954 4.66042 22.0487 4.36986C21.8122 4.09126 21.497 3.77599 21.1192 3.39829L20.6017 2.88072C20.224 2.50302 19.9087 2.18777 19.6302 1.95127C19.3396 1.70459 19.0399 1.49985 18.6799 1.38289C18.1276 1.20343 17.5327 1.20343 16.9804 1.38289C16.6204 1.49984 16.3208 1.70449 16.0303 1.95108C15.7518 2.18748 15.4368 2.50258 15.0593 2.88004L12.9783 4.96107C12.9754 4.96388 12.9725 4.96673 12.9696 4.9696C12.9667 4.97247 12.9639 4.97536 12.9611 4.97827ZM17.4439 2.80947C17.6949 2.7279 17.9654 2.7279 18.2164 2.80947C18.3131 2.84088 18.4398 2.90834 18.6594 3.09478C18.8857 3.2869 19.1578 3.55817 19.5626 3.96294L20.0371 4.43745C20.4418 4.84222 20.7131 5.11431 20.9052 5.34062C21.0917 5.56024 21.1591 5.68693 21.1905 5.78359C21.2721 6.03465 21.2721 6.30508 21.1905 6.55613C21.1591 6.6528 21.0917 6.77949 20.9052 6.9991C20.7131 7.22541 20.4418 7.49751 20.0371 7.90228L18.5 9.43934L14.5607 5.5L16.0984 3.96228C16.5029 3.55773 16.7749 3.28663 17.0011 3.09463C17.2205 2.90833 17.3472 2.84089 17.4439 2.80947ZM13.5 6.56066L17.4393 10.5L8.10241 19.8369C7.89362 20.0457 7.85087 20.0847 7.80908 20.1139C7.76091 20.1475 7.70895 20.1753 7.65428 20.1968C7.60686 20.2155 7.55072 20.2295 7.26126 20.2878L2.81791 21.1821L3.71224 16.7387C3.7705 16.4493 3.78451 16.3931 3.80317 16.3457C3.82466 16.291 3.85251 16.2391 3.88613 16.1909C3.91538 16.149 3.95351 16.1071 4.15955 15.9011L13.5 6.56066Z" fill="#000"/>
</svg>
