<svg width="24" height="24" viewBox="0 0 24 24" fill="none" xmlns="http://www.w3.org/2000/svg">
<path d="M15.5303 8.03033C15.8232 7.73744 15.8232 7.26256 15.5303 6.96967C15.2374 6.67678 14.7626 6.67678 14.4697 6.96967L8.46967 12.9697C8.17678 13.2626 8.17678 13.7374 8.46967 14.0303C8.76256 14.3232 9.23744 14.3232 9.53033 14.0303L15.5303 8.03033Z" fill="#000"/>
<path d="M8.5 8C8.5 7.44772 8.94772 7 9.5 7C10.0523 7 10.5001 7.44772 10.5001 8C10.5001 8.55229 10.0524 9 9.5001 9C8.94782 9 8.5 8.55229 8.5 8Z" fill="#000"/>
<path d="M14.5 12C13.9477 12 13.5 12.4477 13.5 13C13.5 13.5523 13.9477 14 14.5 14C15.0523 14 15.5001 13.5523 15.5001 13C15.5001 12.4477 15.0523 12 14.5 12Z" fill="#000"/>
<path fill-rule="evenodd" clip-rule="evenodd" d="M15.633 0.25H8.367C7.27486 0.249995 6.40935 0.24999 5.71173 0.306988C4.99834 0.365274 4.39472 0.486882 3.84355 0.76772C2.94978 1.22312 2.22312 1.94978 1.76772 2.84355C1.48688 3.39472 1.36527 3.99835 1.30699 4.71173C1.24999 5.40935 1.24999 6.27485 1.25 7.36699V13.633C1.24999 14.7251 1.24999 15.5906 1.30699 16.2883C1.36527 17.0017 1.48688 17.6053 1.76772 18.1565C2.22312 19.0502 2.94978 19.7769 3.84355 20.2323C4.39472 20.5131 4.99835 20.6347 5.71173 20.693C6.40935 20.75 7.27484 20.75 8.36698 20.75L9.09392 20.75L10.05 22.2146C10.2581 22.5335 10.4414 22.8145 10.6099 23.0275C10.7838 23.2473 11.0065 23.4815 11.3234 23.6144C11.7562 23.7959 12.2438 23.7959 12.6766 23.6144C12.9935 23.4815 13.2162 23.2473 13.3901 23.0275C13.5585 22.8145 13.7419 22.5336 13.95 22.2147L14.9061 20.75L15.633 20.75C16.7252 20.75 17.5906 20.75 18.2883 20.693C19.0017 20.6347 19.6053 20.5131 20.1565 20.2323C21.0502 19.7769 21.7769 19.0502 22.2323 18.1565C22.5131 17.6053 22.6347 17.0017 22.693 16.2883C22.75 15.5906 22.75 14.7252 22.75 13.633V7.36698C22.75 6.27484 22.75 5.40935 22.693 4.71173C22.6347 3.99834 22.5131 3.39472 22.2323 2.84355C21.7769 1.94978 21.0502 1.22312 20.1565 0.76772C19.6053 0.486882 19.0017 0.365274 18.2883 0.306988C17.5906 0.24999 16.7251 0.249995 15.633 0.25ZM4.52453 2.10423C4.829 1.94909 5.21325 1.85271 5.83388 1.80201C6.46327 1.75058 7.26752 1.75 8.4 1.75H15.6C16.7325 1.75 17.5367 1.75058 18.1661 1.80201C18.7867 1.85271 19.171 1.94909 19.4755 2.10423C20.087 2.41582 20.5842 2.913 20.8958 3.52453C21.0509 3.829 21.1473 4.21325 21.198 4.83388C21.2494 5.46326 21.25 6.26752 21.25 7.4V13.6C21.25 14.7325 21.2494 15.5367 21.198 16.1661C21.1473 16.7867 21.0509 17.171 20.8958 17.4755C20.5842 18.087 20.087 18.5842 19.4755 18.8958C19.171 19.0509 18.7867 19.1473 18.1661 19.198C17.5367 19.2494 16.7325 19.25 15.6 19.25H14.9332L14.8998 19.2499C14.7828 19.2492 14.5897 19.248 14.404 19.305C14.2454 19.3537 14.098 19.4335 13.9705 19.5397C13.8212 19.6641 13.7167 19.8264 13.6533 19.9248L13.6352 19.9528L12.7118 21.3674C12.4805 21.7218 12.3344 21.9442 12.2136 22.097C12.139 22.1912 12.099 22.2256 12.0873 22.2348C12.031 22.2558 11.969 22.2558 11.9127 22.2348C11.901 22.2256 11.861 22.1912 11.7864 22.097C11.6656 21.9442 11.5195 21.7218 11.2882 21.3674L10.3648 19.9528L10.3467 19.9248C10.2833 19.8264 10.1788 19.6641 10.0295 19.5397C9.90203 19.4335 9.75465 19.3537 9.59599 19.305C9.41027 19.248 9.21725 19.2492 9.10017 19.2499L9.06685 19.25H8.4C7.26752 19.25 6.46326 19.2494 5.83388 19.198C5.21325 19.1473 4.829 19.0509 4.52453 18.8958C3.913 18.5842 3.41582 18.087 3.10423 17.4755C2.94909 17.171 2.85271 16.7867 2.80201 16.1661C2.75058 15.5367 2.75 14.7325 2.75 13.6V7.4C2.75 6.26752 2.75058 5.46326 2.80201 4.83388C2.85271 4.21325 2.94909 3.829 3.10423 3.52453C3.41582 2.913 3.913 2.41582 4.52453 2.10423Z" fill="#000"/>
</svg>
