<svg width="24" height="24" viewBox="0 0 24 24" fill="none" xmlns="http://www.w3.org/2000/svg">
<path fill-rule="evenodd" clip-rule="evenodd" d="M23.6734 15.2124C23.4957 15.7569 23.0321 16.1589 22.4679 16.258C22.2191 16.3016 21.9454 16.2616 21.7118 16.2275C21.6889 16.2241 21.6664 16.2208 21.6444 16.2177L16.5809 15.4946C16.5749 15.4938 16.5689 15.4929 16.5628 15.492C16.457 15.477 16.3401 15.4603 16.239 15.4379C16.123 15.4122 15.9745 15.3684 15.8249 15.2724C15.6231 15.1429 15.4628 14.9581 15.3631 14.74C15.2892 14.5783 15.2669 14.4251 15.2578 14.3066C15.2499 14.2034 15.2499 14.0853 15.25 13.9784C15.25 13.9723 15.25 13.9662 15.25 13.9602L15.25 11.8257C12.9608 11.1891 11.1943 11.1887 8.74998 11.8345L8.74998 13.9784C8.75 14.0853 8.75003 14.2034 8.74213 14.3066C8.73306 14.4251 8.71075 14.5783 8.63687 14.74C8.53719 14.9581 8.37688 15.1429 8.17507 15.2724C8.02547 15.3684 7.87691 15.4122 7.7609 15.4379C7.65984 15.4603 7.54297 15.477 7.43714 15.492L2.35652 16.2175C2.33442 16.2207 2.31187 16.224 2.28894 16.2273C2.05458 16.2616 1.78012 16.3017 1.53063 16.2577C0.967539 16.1584 0.504877 15.7571 0.326925 15.2137C0.248078 14.9729 0.249005 14.6955 0.249795 14.4587C0.249872 14.4355 0.249948 14.4127 0.249948 14.3904L0.249949 13.1C0.249949 11.1571 1.31553 9.35898 2.99893 8.4051C4.41422 7.60315 5.96599 7.02171 7.56307 6.70229C10.4891 6.11708 13.5047 6.11767 16.4305 6.70284C18.0247 7.02166 19.5765 7.60231 20.9899 8.40154C22.6787 9.35655 23.75 11.1603 23.75 13.1091L23.75 14.3914C23.75 14.4137 23.7501 14.4364 23.7501 14.4595C23.7509 14.6957 23.7518 14.9722 23.6734 15.2124ZM22.2432 14.7565C22.244 14.7483 22.2451 14.7356 22.2461 14.7171C22.2497 14.6487 22.25 14.5551 22.25 14.3914L22.25 13.1091C22.25 11.7096 21.4773 10.4004 20.2515 9.70725C18.9748 8.98528 17.5727 8.46097 16.1364 8.17371C13.4045 7.62734 10.5889 7.62683 7.85725 8.17316C6.41843 8.46092 5.01677 8.98579 3.73842 9.71015C2.51802 10.4017 1.74995 11.7054 1.74995 13.1L1.74995 14.3904C1.74995 14.5546 1.7502 14.6484 1.75385 14.7171C1.75484 14.7356 1.75593 14.7484 1.75678 14.7565C1.76233 14.766 1.77089 14.7734 1.78108 14.7776C1.78929 14.7773 1.8021 14.7766 1.82052 14.7749C1.88901 14.7688 1.98189 14.7558 2.14448 14.7326L7.20704 14.0097C7.22221 14.0075 7.23647 14.0055 7.24997 14.0035C7.24998 13.9899 7.24998 13.9755 7.24998 13.9602L7.24998 11.2644C7.24998 10.9307 7.4705 10.6371 7.79103 10.5441C10.9806 9.61888 13.1982 9.61508 16.2211 10.5477C16.5355 10.6447 16.75 10.9354 16.75 11.2644V13.9602C16.75 13.9755 16.75 13.9899 16.75 14.0035C16.7635 14.0055 16.7777 14.0075 16.7929 14.0097L21.8564 14.7327C22.0185 14.7559 22.1112 14.7689 22.1794 14.7749C22.1978 14.7766 22.2106 14.7773 22.2188 14.7776C22.229 14.7735 22.2376 14.766 22.2432 14.7565Z" fill="#000"/>
</svg>
