<svg width="24" height="24" viewBox="0 0 24 24" fill="none" xmlns="http://www.w3.org/2000/svg">
<path d="M6.4224 1.64111C5.88547 1.20561 5.14217 1.12674 4.526 1.44007L4.52336 1.44142C4.32496 1.5433 4.14301 1.70313 3.96269 1.86152L3.92173 1.89748L3.24268 2.49179C3.20776 2.52233 3.17711 2.54915 3.15008 2.57397C1.55936 4.00723 0.898456 6.20567 1.43158 8.27843L1.43293 8.28352L1.48064 8.46031L1.49404 8.50834C1.96723 10.238 2.71448 11.8799 3.70757 13.3721L3.7391 13.4189L3.74003 13.4203C4.09987 13.9595 4.48124 14.484 4.88105 14.991C5.13755 15.3163 5.60914 15.372 5.93438 15.1155C6.25963 14.859 6.31536 14.3874 6.05887 14.0622C5.68302 13.5856 5.3247 13.0926 4.98682 12.5863L4.95633 12.5411L4.95514 12.5393C4.0512 11.1806 3.37106 9.6857 2.94041 8.11078L2.92831 8.06743L2.88366 7.90221C2.49035 6.36913 2.98035 4.74442 4.15661 3.68622L4.16367 3.6797C4.17578 3.66852 4.18775 3.65804 4.21797 3.63159L4.91019 3.02572C5.0272 2.92321 5.09826 2.86141 5.15299 2.81757C5.18877 2.7889 5.20545 2.77793 5.20977 2.77521C5.29582 2.7333 5.39908 2.74422 5.47479 2.80391C5.47827 2.80731 5.49206 2.82133 5.52063 2.85642C5.56481 2.91068 5.6211 2.9859 5.71387 3.1108L9.06502 7.60987L6.99007 9.77004C6.77103 9.99808 6.71853 10.339 6.85882 10.6224C7.11872 11.1473 7.3831 11.6339 7.65934 12.0876C7.87473 12.4414 8.33616 12.5536 8.68997 12.3382C9.04377 12.1228 9.15597 11.6614 8.94058 11.3076C8.77214 11.0309 8.60649 10.7373 8.4416 10.4242L10.1324 8.66396C10.2041 8.58936 10.2835 8.50664 10.3475 8.42918C10.422 8.33894 10.5104 8.21564 10.5691 8.05138C10.6486 7.82973 10.6641 7.58908 10.6117 7.35719C10.5739 7.18784 10.5016 7.05485 10.4394 6.95665C10.3844 6.86978 10.3145 6.77608 10.2512 6.69137L6.91782 2.21609L6.88509 2.17193C6.7428 1.9798 6.59769 1.78387 6.42358 1.64206L6.4224 1.64111Z" fill="#000"/>
<path fill-rule="evenodd" clip-rule="evenodd" d="M9.55965 13.3798C9.5453 13.3923 9.53131 13.4054 9.51772 13.4192C9.50681 13.4303 9.49631 13.4416 9.48623 13.4532L6.85284 16.0866C6.84292 16.0955 6.83318 16.1047 6.82363 16.1143C6.81408 16.1238 6.80484 16.1336 6.79592 16.1435L1.46973 21.4697C1.17684 21.7626 1.17684 22.2374 1.46973 22.5303C1.76262 22.8232 2.2375 22.8232 2.53039 22.5303L7.36273 17.698C8.35974 18.6365 9.43489 19.4929 10.5795 20.2567L10.5807 20.2575L10.6238 20.2866L10.6274 20.289C12.1198 21.2821 13.7617 22.0294 15.4915 22.5026L15.4931 22.503L15.532 22.5139C15.6147 22.537 15.6656 22.5504 15.6983 22.559C15.705 22.5607 15.7108 22.5622 15.716 22.5636L15.7208 22.5649C17.794 23.0993 19.9924 22.437 21.4254 20.8476C21.4503 20.8206 21.4771 20.7899 21.5077 20.7549L22.1046 20.0722L22.1517 20.0181C22.3035 19.844 22.4608 19.6636 22.5601 19.4702L22.5619 19.4668C22.8732 18.8528 22.7961 18.1141 22.3643 17.5774L22.3615 17.574C22.2207 17.4011 22.0263 17.2557 21.8339 17.1118L21.791 17.0796L17.2104 13.6407L17.2003 13.6331C17.1099 13.5649 17.0109 13.4903 16.919 13.4319C16.8162 13.3665 16.6771 13.2912 16.4998 13.2538L16.4964 13.2531C16.2558 13.2034 16.005 13.2253 15.7753 13.3185C15.6072 13.3865 15.4835 13.4851 15.3937 13.5676C15.3142 13.6405 15.2306 13.7305 15.1544 13.8124L13.552 15.5335C12.5855 15.0038 11.8041 14.4856 11.1384 13.9223L22.5304 2.53033C22.8233 2.23744 22.8233 1.76256 22.5304 1.46967C22.2375 1.17678 21.7626 1.17678 21.4697 1.46967L9.55965 13.3798ZM10.0745 14.9862L8.42391 16.6368C9.35168 17.5067 10.3508 18.3009 11.4132 19.0097L11.4161 19.0116L11.4585 19.0402L11.4601 19.0413C12.8189 19.9453 14.3138 20.6255 15.8888 21.0562L15.8925 21.0572L15.9355 21.0692C16.0061 21.0889 16.0464 21.0995 16.0787 21.108L16.0971 21.1128C17.6299 21.5071 19.255 21.0166 20.3136 19.8408L20.3198 19.8339C20.331 19.8217 20.3415 19.8098 20.3679 19.7797L20.4061 19.736L20.9735 19.087L20.9753 19.085L20.9769 19.0831C21.0778 18.9668 21.1393 18.896 21.1837 18.8406C21.2122 18.8051 21.2235 18.7882 21.2265 18.7835C21.2675 18.6981 21.2571 18.5974 21.1989 18.5219C21.1951 18.518 21.1806 18.5037 21.1449 18.4744C21.0905 18.4297 21.0151 18.3727 20.891 18.2796L16.3087 14.8394L16.2728 14.8124L14.2569 16.9777C14.0272 17.2243 13.6613 17.2875 13.3623 17.1322C12.0501 16.4506 10.9842 15.7725 10.0745 14.9862Z" fill="#000"/>
</svg>
