<svg width="24" height="24" viewBox="0 0 24 24" fill="none" xmlns="http://www.w3.org/2000/svg">
<path fill-rule="evenodd" clip-rule="evenodd" d="M4.52257 1.44547C5.13921 1.13168 5.88282 1.21066 6.41979 1.64696C6.59229 1.78712 6.73715 1.98233 6.87679 2.17049C6.88926 2.1873 6.90169 2.20406 6.9141 2.22071L10.2508 6.69954C10.3133 6.78337 10.3825 6.87622 10.4369 6.96211C10.4995 7.06089 10.572 7.19445 10.6098 7.36476C10.661 7.595 10.6459 7.83501 10.5664 8.05706C10.5076 8.22131 10.4191 8.34477 10.3446 8.43497C10.2799 8.5134 10.1996 8.59689 10.1272 8.67228C10.123 8.6766 10.1189 8.6809 10.1148 8.68516L8.43864 10.4294C9.08193 11.6493 9.73401 12.5761 10.5254 13.3675C11.3164 14.1585 12.2714 14.839 13.5491 15.5395L15.1536 13.8156C15.229 13.7345 15.3119 13.6455 15.3902 13.5735C15.4798 13.491 15.6044 13.3914 15.7742 13.3233C16.0025 13.2317 16.2527 13.2094 16.4935 13.2594C16.6727 13.2965 16.8129 13.3726 16.9156 13.4379C17.0054 13.495 17.1027 13.5681 17.1912 13.6345L21.788 17.0859C21.8046 17.0984 21.8213 17.1109 21.8381 17.1234C22.0259 17.2639 22.2208 17.4097 22.3605 17.5831C22.7927 18.1196 22.8699 18.8597 22.5578 19.4739C22.4569 19.6724 22.2963 19.8552 22.1415 20.0314C22.1276 20.0472 22.1139 20.0628 22.1002 20.0785L21.5298 20.7303C21.481 20.7861 21.4517 20.8195 21.4237 20.8507C19.9903 22.4427 17.7907 23.1058 15.7162 22.5714C15.6767 22.5613 15.6253 22.5472 15.5396 22.5239L15.4881 22.5098C13.7581 22.0369 12.1153 21.2892 10.6224 20.2952L10.5752 20.2637C7.86809 18.4561 5.54416 16.1321 3.73648 13.425L3.70499 13.3778C2.71106 11.8849 1.96334 10.2421 1.49039 8.51211L1.47618 8.46003C1.45292 8.37471 1.43893 8.32344 1.42877 8.28399C0.894393 6.2095 1.55755 4.00993 3.14954 2.57653C3.1798 2.54929 3.21222 2.52091 3.26512 2.47462L3.91878 1.9026C3.93441 1.88892 3.95008 1.87515 3.96581 1.86134C4.14185 1.7067 4.32448 1.54627 4.52257 1.44547ZM5.20539 2.78106C5.20134 2.78365 5.18507 2.79443 5.15025 2.82238C5.09519 2.86659 5.02435 2.92837 4.90661 3.0314L4.2577 3.59926C4.19858 3.651 4.17461 3.672 4.15323 3.69125C2.97654 4.75073 2.48638 6.37649 2.88135 7.90981C2.88849 7.93753 2.89939 7.97758 2.92567 8.07394L2.9373 8.11655C3.36789 9.69161 4.04865 11.1873 4.95357 12.5465L4.98393 12.592C6.68205 15.1351 8.86515 17.3182 11.4082 19.0163L11.4537 19.0466C12.8129 19.9516 14.3086 20.6323 15.8837 21.0629L15.9263 21.0745C16.0226 21.1008 16.0627 21.1117 16.0904 21.1189C17.6237 21.5138 19.2495 21.0237 20.309 19.847C20.3282 19.8256 20.3492 19.8016 20.4009 19.7425L20.9714 19.0907C21.0745 18.9728 21.1363 18.9019 21.1805 18.8469C21.2085 18.812 21.2193 18.7957 21.2219 18.7917C21.2646 18.7053 21.2538 18.602 21.1942 18.5263C21.1908 18.5229 21.1769 18.5092 21.1424 18.4809C21.0877 18.4361 21.0126 18.3795 20.8874 18.2855L16.3055 14.8453C16.2928 14.8358 16.2808 14.8268 16.2695 14.8183C16.2599 14.8287 16.2497 14.8396 16.2389 14.8512L14.2541 16.9836C14.0245 17.2303 13.6585 17.2935 13.3594 17.1382C11.744 16.299 10.5013 15.4647 9.4647 14.4281C8.42633 13.3897 7.62619 12.1799 6.85587 10.6287C6.71506 10.3451 6.76745 10.0037 6.98681 9.77541L9.0332 7.64584C9.04357 7.63505 9.05332 7.6249 9.06254 7.61529C9.05459 7.60461 9.04618 7.59332 9.03724 7.58132L5.71122 3.11686C5.61774 2.99139 5.56146 2.91611 5.51691 2.86133C5.48874 2.82668 5.4751 2.81272 5.47168 2.80934C5.39589 2.74916 5.29213 2.73814 5.20539 2.78106Z" fill="#000"/>
</svg>
