<svg width="24" height="24" viewBox="0 0 24 24" fill="none" xmlns="http://www.w3.org/2000/svg">
<path fill-rule="evenodd" clip-rule="evenodd" d="M11.3821 7.51708C10.082 6.75943 8.45001 7.69723 8.45001 9.20197V14.7981C8.45001 16.3028 10.082 17.2406 11.3821 16.483L16.1833 13.6849C17.4743 12.9326 17.4743 11.0675 16.1833 10.3151L11.3821 7.51708ZM9.95001 9.20197C9.95001 8.85464 10.3267 8.63818 10.6268 8.81306L15.4281 11.6111C15.726 11.7848 15.726 12.2153 15.4281 12.3889L10.6268 15.187C10.3267 15.3619 9.95001 15.1454 9.95001 14.7981V9.20197Z" fill="#000"/>
<path fill-rule="evenodd" clip-rule="evenodd" d="M12 0.25C5.51065 0.25 0.25 5.51065 0.25 12C0.25 18.4893 5.51065 23.75 12 23.75C18.4893 23.75 23.75 18.4893 23.75 12C23.75 5.51065 18.4893 0.25 12 0.25ZM1.75 12C1.75 6.33908 6.33908 1.75 12 1.75C17.6609 1.75 22.25 6.33908 22.25 12C22.25 17.6609 17.6609 22.25 12 22.25C6.33908 22.25 1.75 17.6609 1.75 12Z" fill="#000"/>
</svg>
