<svg width="24" height="24" viewBox="0 0 24 24" fill="none" xmlns="http://www.w3.org/2000/svg">
<path d="M8.75 1.25C9.16421 1.25 9.5 1.58579 9.5 2V5.75H8V2C8 1.58579 8.33579 1.25 8.75 1.25Z" fill="#000"/>
<path fill-rule="evenodd" clip-rule="evenodd" d="M4.75 12V8.25H4C3.58579 8.25 3.25 7.91421 3.25 7.5C3.25 7.08578 3.58579 6.75 4 6.75L20 6.75C20.4142 6.75 20.75 7.08579 20.75 7.5C20.75 7.91421 20.4142 8.25 20 8.25H19.25V12C19.25 15.7508 16.4017 18.8364 12.75 19.2117V22C12.75 22.4142 12.4142 22.75 12 22.75C11.5858 22.75 11.25 22.4142 11.25 22V19.2117C7.59833 18.8364 4.75 15.7508 4.75 12ZM17.75 8.25H6.25V12C6.25 15.1756 8.82436 17.75 12 17.75C15.1756 17.75 17.75 15.1756 17.75 12V8.25Z" fill="#000"/>
<path d="M16 2C16 1.58579 15.6642 1.25 15.25 1.25C14.8358 1.25 14.5 1.58579 14.5 2V5.75H16V2Z" fill="#000"/>
</svg>
