<svg width="24" height="24" viewBox="0 0 24 24" fill="none" xmlns="http://www.w3.org/2000/svg">
<path d="M11.25 16C11.25 16.4142 11.5858 16.75 12 16.75C12.4142 16.75 12.75 16.4142 12.75 16V8C12.75 7.58579 12.4142 7.25 12 7.25C11.5858 7.25 11.25 7.58579 11.25 8V16Z" fill="#000"/>
<path d="M8 16.75C7.58579 16.75 7.25 16.4142 7.25 16V13C7.25 12.5858 7.58579 12.25 8 12.25C8.41421 12.25 8.75 12.5858 8.75 13V16C8.75 16.4142 8.41421 16.75 8 16.75Z" fill="#000"/>
<path d="M15.25 16C15.25 16.4142 15.5858 16.75 16 16.75C16.4142 16.75 16.75 16.4142 16.75 16L16.75 10C16.75 9.58579 16.4142 9.25 16 9.25C15.5858 9.25 15.25 9.58579 15.25 10L15.25 16Z" fill="#000"/>
<path fill-rule="evenodd" clip-rule="evenodd" d="M18.2883 1.30699C17.5906 1.24999 16.7251 1.24999 15.633 1.25H8.367C7.27485 1.24999 6.40936 1.24999 5.71173 1.30699C4.99834 1.36527 4.39472 1.48688 3.84355 1.76772C2.94978 2.22312 2.22312 2.94978 1.76772 3.84355C1.48688 4.39472 1.36527 4.99834 1.30699 5.71173C1.24999 6.40936 1.24999 7.27485 1.25 8.367V15.633C1.24999 16.7251 1.24999 17.5906 1.30699 18.2883C1.36527 19.0017 1.48688 19.6053 1.76772 20.1565C2.22312 21.0502 2.94978 21.7769 3.84355 22.2323C4.39472 22.5131 4.99834 22.6347 5.71173 22.693C6.40935 22.75 7.27485 22.75 8.36698 22.75H15.633C16.7252 22.75 17.5906 22.75 18.2883 22.693C19.0017 22.6347 19.6053 22.5131 20.1565 22.2323C21.0502 21.7769 21.7769 21.0502 22.2323 20.1565C22.5131 19.6053 22.6347 19.0017 22.693 18.2883C22.75 17.5906 22.75 16.7252 22.75 15.633V8.36698C22.75 7.27485 22.75 6.40935 22.693 5.71173C22.6347 4.99834 22.5131 4.39472 22.2323 3.84355C21.7769 2.94978 21.0502 2.22312 20.1565 1.76772C19.6053 1.48688 19.0017 1.36527 18.2883 1.30699ZM4.52453 3.10423C4.829 2.94909 5.21325 2.85271 5.83388 2.80201C6.46326 2.75058 7.26752 2.75 8.4 2.75H15.6C16.7325 2.75 17.5367 2.75058 18.1661 2.80201C18.7867 2.85271 19.171 2.94909 19.4755 3.10423C20.087 3.41582 20.5842 3.913 20.8958 4.52453C21.0509 4.829 21.1473 5.21325 21.198 5.83388C21.2494 6.46326 21.25 7.26752 21.25 8.4V15.6C21.25 16.7325 21.2494 17.5367 21.198 18.1661C21.1473 18.7867 21.0509 19.171 20.8958 19.4755C20.5842 20.087 20.087 20.5842 19.4755 20.8958C19.171 21.0509 18.7867 21.1473 18.1661 21.198C17.5367 21.2494 16.7325 21.25 15.6 21.25H8.4C7.26752 21.25 6.46326 21.2494 5.83388 21.198C5.21325 21.1473 4.829 21.0509 4.52453 20.8958C3.913 20.5842 3.41582 20.087 3.10423 19.4755C2.94909 19.171 2.85271 18.7867 2.80201 18.1661C2.75058 17.5367 2.75 16.7325 2.75 15.6V8.4C2.75 7.26752 2.75058 6.46326 2.80201 5.83388C2.85271 5.21325 2.94909 4.829 3.10423 4.52453C3.41582 3.913 3.913 3.41582 4.52453 3.10423Z" fill="#000"/>
</svg>
