<svg width="24" height="24" viewBox="0 0 24 24" fill="none" xmlns="http://www.w3.org/2000/svg">
<path fill-rule="evenodd" clip-rule="evenodd" d="M17.25 4C17.25 2.48122 18.4812 1.25 20 1.25C21.5188 1.25 22.75 2.48122 22.75 4C22.75 5.51878 21.5188 6.75 20 6.75C18.4812 6.75 17.25 5.51878 17.25 4ZM20 2.75C19.3096 2.75 18.75 3.30964 18.75 4C18.75 4.69036 19.3096 5.25 20 5.25C20.6904 5.25 21.25 4.69036 21.25 4C21.25 3.30964 20.6904 2.75 20 2.75Z" fill="#000"/>
<path d="M8.367 2.25L15.1 2.25C15.5142 2.25 15.85 2.58579 15.85 3C15.85 3.41421 15.5142 3.75 15.1 3.75L8.4 3.75C7.26752 3.75 6.46326 3.75058 5.83388 3.80201C5.21326 3.85271 4.82901 3.94909 4.52453 4.10423C3.913 4.41582 3.41582 4.913 3.10423 5.52453C2.94909 5.829 2.85271 6.21325 2.80201 6.83388C2.75058 7.46326 2.75 8.26752 2.75 9.4L2.75 15.6C2.75 16.7325 2.75058 17.5367 2.80201 18.1661C2.85271 18.7867 2.94909 19.171 3.10423 19.4755C3.41582 20.087 3.913 20.5842 4.52453 20.8958C4.829 21.0509 5.21325 21.1473 5.83388 21.198C6.46327 21.2494 7.26752 21.25 8.4 21.25H14.6C15.7325 21.25 16.5367 21.2494 17.1661 21.198C17.7867 21.1473 18.171 21.0509 18.4755 20.8958C19.087 20.5842 19.5842 20.087 19.8958 19.4755C20.0509 19.171 20.1473 18.7867 20.198 18.1661C20.2494 17.5367 20.25 16.7325 20.25 15.6V8.89998C20.25 8.48577 20.5858 8.14998 21 8.14998C21.4142 8.14998 21.75 8.48577 21.75 8.89998V15.633C21.75 16.7252 21.75 17.5907 21.693 18.2883C21.6347 19.0017 21.5131 19.6053 21.2323 20.1565C20.7769 21.0502 20.0502 21.7769 19.1565 22.2323C18.6053 22.5131 18.0017 22.6347 17.2883 22.693C16.5906 22.75 15.7252 22.75 14.633 22.75H8.36698C7.27485 22.75 6.40935 22.75 5.71173 22.693C4.99835 22.6347 4.39472 22.5131 3.84355 22.2323C2.94978 21.7769 2.22312 21.0502 1.76772 20.1565C1.48688 19.6053 1.36527 19.0017 1.30699 18.2883C1.24999 17.5906 1.24999 16.7251 1.25 15.633L1.25 9.367C1.24999 8.27485 1.24999 7.40935 1.30699 6.71173C1.36527 5.99834 1.48688 5.39472 1.76772 4.84355C2.22312 3.94977 2.94978 3.22312 3.84355 2.76772C4.39472 2.48688 4.99834 2.36527 5.71174 2.30699C6.40936 2.24999 7.27486 2.24999 8.367 2.25Z" fill="#000"/>
<path d="M10.75 16.5C10.75 16.9142 11.0858 17.25 11.5 17.25C11.9142 17.25 12.25 16.9142 12.25 16.5V8.5C12.25 8.08579 11.9142 7.75 11.5 7.75C11.0858 7.75 10.75 8.08578 10.75 8.5V16.5Z" fill="#000"/>
<path d="M8 17.25C7.58579 17.25 7.25 16.9142 7.25 16.5V13.5C7.25 13.0858 7.58579 12.75 8 12.75C8.41421 12.75 8.75 13.0858 8.75 13.5V16.5C8.75 16.9142 8.41421 17.25 8 17.25Z" fill="#000"/>
<path d="M14.25 16.5C14.25 16.9142 14.5858 17.25 15 17.25C15.4142 17.25 15.75 16.9142 15.75 16.5L15.75 10.5C15.75 10.0858 15.4142 9.75 15 9.75C14.5858 9.75 14.25 10.0858 14.25 10.5V16.5Z" fill="#000"/>
</svg>
