<svg width="24" height="24" viewBox="0 0 24 24" fill="none" xmlns="http://www.w3.org/2000/svg">
<path d="M12.75 2C12.75 1.58579 12.4142 1.25 12 1.25C11.5858 1.25 11.25 1.58579 11.25 2V9.5C11.25 9.91421 11.5858 10.25 12 10.25C12.4142 10.25 12.75 9.91421 12.75 9.5V2Z" fill="#000"/>
<path d="M8.21721 5.66625C8.58517 5.47603 8.72925 5.02355 8.53904 4.65559C8.34883 4.28764 7.89634 4.14355 7.52839 4.33376C4.39471 5.9537 2.25 9.22576 2.25 13C2.25 18.3848 6.61522 22.75 12 22.75C17.3848 22.75 21.75 18.3848 21.75 13C21.75 9.22576 19.6053 5.9537 16.4716 4.33376C16.1037 4.14355 15.6512 4.28764 15.461 4.65559C15.2707 5.02355 15.4148 5.47603 15.7828 5.66625C18.4378 7.03876 20.25 9.80838 20.25 13C20.25 17.5564 16.5563 21.25 12 21.25C7.44365 21.25 3.75 17.5564 3.75 13C3.75 9.80838 5.56218 7.03876 8.21721 5.66625Z" fill="#000"/>
</svg>
