<svg width="24" height="24" viewBox="0 0 24 24" fill="none" xmlns="http://www.w3.org/2000/svg">
<path fill-rule="evenodd" clip-rule="evenodd" d="M1.5 1.25C1.08579 1.25 0.75 1.58579 0.75 2C0.75 2.41421 1.08579 2.75 1.5 2.75H2.25L2.25 10.4326C2.24999 11.3851 2.24999 12.1456 2.30018 12.7599C2.35165 13.3899 2.45963 13.9318 2.71322 14.4295C3.12068 15.2291 3.77085 15.8793 4.57054 16.2868C5.06824 16.5404 5.61012 16.6484 6.24013 16.6998C6.85439 16.75 7.61493 16.75 8.56737 16.75H11.25V18.625L7.55001 21.4C7.21864 21.6485 7.15149 22.1186 7.40001 22.45C7.64854 22.7814 8.11864 22.8485 8.45001 22.6L12 19.9375L15.55 22.6C15.8814 22.8485 16.3515 22.7814 16.6 22.45C16.8485 22.1186 16.7814 21.6485 16.45 21.4L12.75 18.625V16.75H15.4326C16.3851 16.75 17.1456 16.75 17.7599 16.6998C18.3899 16.6484 18.9318 16.5404 19.4295 16.2868C20.2291 15.8793 20.8793 15.2291 21.2868 14.4295C21.5404 13.9318 21.6484 13.3899 21.6998 12.7599C21.75 12.1456 21.75 11.3851 21.75 10.4327V2.75H22.5C22.9142 2.75 23.25 2.41421 23.25 2C23.25 1.58579 22.9142 1.25 22.5 1.25H1.5ZM15.4 15.25H8.6C7.60753 15.25 6.90829 15.2494 6.36228 15.2048C5.82503 15.1609 5.50252 15.0782 5.25153 14.9503C4.73408 14.6866 4.31338 14.2659 4.04973 13.7485C3.92184 13.4975 3.83909 13.175 3.79519 12.6377C3.75058 12.0917 3.75 11.3925 3.75 10.4V2.75H20.25V10.4C20.25 11.3925 20.2494 12.0917 20.2048 12.6377C20.1609 13.175 20.0782 13.4975 19.9503 13.7485C19.6866 14.2659 19.2659 14.6866 18.7485 14.9503C18.4975 15.0782 18.175 15.1609 17.6377 15.2048C17.0917 15.2494 16.3925 15.25 15.4 15.25Z" fill="#000"/>
</svg>
