<svg width="24" height="24" viewBox="0 0 24 24" fill="none" xmlns="http://www.w3.org/2000/svg">
<path fill-rule="evenodd" clip-rule="evenodd" d="M12.0029 5.6344C11.4322 5.25533 10.7535 5.25854 10.2244 5.50892C9.69359 5.76015 9.25 6.29657 9.25 7.01066V10.9892C9.25 11.7033 9.69359 12.2398 10.2244 12.491C10.7534 12.7414 11.4322 12.7446 12.0029 12.3655L14.9978 10.3762C16.0007 9.7101 16.0007 8.28981 14.9978 7.62369L12.0029 5.6344ZM10.75 7.01066C10.75 6.97038 10.7688 6.9108 10.8661 6.86474C10.9652 6.81783 11.0805 6.82247 11.1729 6.88389L14.1679 8.87318C14.2376 8.91943 14.25 8.96874 14.25 8.99996C14.25 9.03117 14.2376 9.08048 14.1679 9.12673L11.1729 11.116C11.0805 11.1774 10.9652 11.1821 10.8661 11.1352C10.7688 11.0891 10.75 11.0295 10.75 10.9892V7.01066Z" fill="#000"/>
<path fill-rule="evenodd" clip-rule="evenodd" d="M0.75 2C0.75 1.58579 1.08579 1.25 1.5 1.25H22.5C22.9142 1.25 23.25 1.58579 23.25 2C23.25 2.41421 22.9142 2.75 22.5 2.75H21.75V10.4326C21.75 11.385 21.75 12.1456 21.6998 12.7599C21.6484 13.3899 21.5404 13.9318 21.2868 14.4295C20.8793 15.2291 20.2291 15.8793 19.4295 16.2868C18.9318 16.5404 18.3899 16.6484 17.7599 16.6998C17.1456 16.75 16.3851 16.75 15.4326 16.75H12.75V18.625L16.45 21.4C16.7814 21.6485 16.8486 22.1186 16.6 22.45C16.3515 22.7814 15.8814 22.8485 15.55 22.6L12 19.9375L8.45004 22.6C8.11867 22.8485 7.64857 22.7814 7.40004 22.45C7.15152 22.1186 7.21867 21.6485 7.55004 21.4L11.25 18.625V16.75H8.56737C7.61493 16.75 6.85439 16.75 6.24013 16.6998C5.61012 16.6484 5.06824 16.5404 4.57054 16.2868C3.77085 15.8793 3.12068 15.2291 2.71322 14.4295C2.45963 13.9318 2.35165 13.3899 2.30018 12.7599C2.24999 12.1456 2.24999 11.3851 2.25 10.4326L2.25 2.75H1.5C1.08579 2.75 0.75 2.41421 0.75 2ZM15.4 15.25C16.3925 15.25 17.0917 15.2494 17.6377 15.2048C18.175 15.1609 18.4975 15.0782 18.7485 14.9503C19.2659 14.6866 19.6866 14.2659 19.9503 13.7485C20.0782 13.4975 20.1609 13.175 20.2048 12.6377C20.2494 12.0917 20.25 11.3925 20.25 10.4V2.75H3.75V10.4C3.75 11.3925 3.75058 12.0917 3.79519 12.6377C3.83909 13.175 3.92184 13.4975 4.04973 13.7485C4.31338 14.2659 4.73408 14.6866 5.25153 14.9503C5.50252 15.0782 5.82503 15.1609 6.36228 15.2048C6.90829 15.2494 7.60753 15.25 8.6 15.25H15.4Z" fill="#000"/>
</svg>
