<svg width="24" height="24" viewBox="0 0 24 24" fill="none" xmlns="http://www.w3.org/2000/svg">
<path fill-rule="evenodd" clip-rule="evenodd" d="M13 4.25C13 2.59315 11.6569 1.25 10 1.25C8.34315 1.25 7 2.59315 7 4.25V5.75H4C2.48122 5.75 1.25 6.98122 1.25 8.5V11.25C1.25 11.6642 1.58579 12 2 12H4.25C5.07843 12 5.75 12.6716 5.75 13.5C5.75 14.3284 5.07843 15 4.25 15H2C1.58579 15 1.25 15.3358 1.25 15.75V20C1.25 21.5188 2.48122 22.75 4 22.75H7.75C8.16421 22.75 8.5 22.4142 8.5 22V19.75C8.5 18.9216 9.17157 18.25 10 18.25C10.8284 18.25 11.5 18.9216 11.5 19.75V22C11.5 22.4142 11.8358 22.75 12.25 22.75H15.5C17.0188 22.75 18.25 21.5188 18.25 20V16.5H19.75C21.4069 16.5 22.75 15.1569 22.75 13.5C22.75 11.8431 21.4069 10.5 19.75 10.5H18.25V8.5C18.25 6.98122 17.0188 5.75 15.5 5.75H13V4.25ZM10 2.75C10.8284 2.75 11.5 3.42157 11.5 4.25V6.5C11.5 6.91421 11.8358 7.25 12.25 7.25H15.5C16.1904 7.25 16.75 7.80964 16.75 8.5V11.25C16.75 11.6642 17.0858 12 17.5 12H19.75C20.5784 12 21.25 12.6716 21.25 13.5C21.25 14.3284 20.5784 15 19.75 15H17.5C17.0858 15 16.75 15.3358 16.75 15.75V20C16.75 20.6904 16.1904 21.25 15.5 21.25H13V19.75C13 18.0931 11.6569 16.75 10 16.75C8.34315 16.75 7 18.0931 7 19.75V21.25H4C3.30964 21.25 2.75 20.6904 2.75 20V16.5H4.25C5.90685 16.5 7.25 15.1569 7.25 13.5C7.25 11.8431 5.90685 10.5 4.25 10.5H2.75V8.5C2.75 7.80964 3.30964 7.25 4 7.25H7.75C8.16421 7.25 8.5 6.91421 8.5 6.5V4.25C8.5 3.42157 9.17157 2.75 10 2.75Z" fill="#000"/>
</svg>
