<svg width="24" height="24" viewBox="0 0 24 24" fill="none" xmlns="http://www.w3.org/2000/svg">
<path fill-rule="evenodd" clip-rule="evenodd" d="M13.0406 1.90054C12.6194 1.03315 11.3806 1.03315 10.9594 1.90054L10.3674 3.11961L9.00775 3.29573C8.04651 3.42025 7.6469 4.61004 8.36689 5.28168L9.35047 6.1992L9.10322 7.51133C8.92151 8.47568 9.94041 9.19168 10.7847 8.74135L12 8.09322L13.2152 8.74135C14.0595 9.19168 15.0784 8.47568 14.8967 7.51133L14.6495 6.1992L15.633 5.28168C16.353 4.61004 15.9534 3.42025 14.9922 3.29573L13.6325 3.11961L13.0406 1.90054ZM11.6163 3.98177L12 3.19157L12.3837 3.98177C12.5425 4.30875 12.8551 4.53144 13.2127 4.57776L14.0696 4.68876L13.454 5.26306C13.1861 5.51293 13.0635 5.88294 13.1317 6.24478L13.2892 7.08082L12.5067 6.66349C12.1901 6.49461 11.8099 6.49461 11.4932 6.66349L10.7107 7.08082L10.8683 6.24478C10.9365 5.88294 10.8138 5.51293 10.5459 5.26306L9.9303 4.68876L10.7872 4.57776C11.1448 4.53144 11.4575 4.30875 11.6163 3.98177Z" fill="#000"/>
<path fill-rule="evenodd" clip-rule="evenodd" d="M13.5 9.75C14.7426 9.75 15.75 10.7574 15.75 12V13.25H19.5C20.7426 13.25 21.75 14.2574 21.75 15.5V21.25H22C22.4142 21.25 22.75 21.5858 22.75 22C22.75 22.4142 22.4142 22.75 22 22.75H2C1.58579 22.75 1.25 22.4142 1.25 22C1.25 21.5858 1.58579 21.25 2 21.25H2.25V17.5C2.25 16.2574 3.25736 15.25 4.5 15.25H8.25V12C8.25 10.7574 9.25736 9.75 10.5 9.75H13.5ZM14.25 21.25H9.75V12C9.75 11.5858 10.0858 11.25 10.5 11.25H13.5C13.9142 11.25 14.25 11.5858 14.25 12V21.25ZM8.25 21.25H3.75V17.5C3.75 17.0858 4.08579 16.75 4.5 16.75H8.25V21.25ZM15.75 21.25H20.25V15.5C20.25 15.0858 19.9142 14.75 19.5 14.75H15.75V21.25Z" fill="#000"/>
</svg>
