<svg width="24" height="24" viewBox="0 0 24 24" fill="none" xmlns="http://www.w3.org/2000/svg">
<path d="M15 16.2471C15.4142 16.2471 15.75 15.9113 15.75 15.4971C15.75 15.0829 15.4142 14.7471 15 14.7471L9 14.7471C8.58579 14.7471 8.25 15.0829 8.25 15.4971C8.25 15.9113 8.58579 16.2471 9 16.2471L15 16.2471Z" fill="#000"/>
<path d="M16 12.7485C16.4142 12.7485 16.75 12.4127 16.75 11.9985C16.75 11.5843 16.4142 11.2485 16 11.2485H8C7.58579 11.2485 7.25 11.5843 7.25 11.9985C7.25 12.4127 7.58579 12.7485 8 12.7485L16 12.7485Z" fill="#000"/>
<path d="M14 9.24989C14.4142 9.24989 14.75 8.9141 14.75 8.49989C14.75 8.08568 14.4142 7.74989 14 7.74989H10C9.58579 7.74989 9.25 8.08568 9.25 8.49989C9.25 8.9141 9.58579 9.24989 10 9.24989H14Z" fill="#000"/>
<path fill-rule="evenodd" clip-rule="evenodd" d="M11.0947 2.02957C10.1951 1.05263 8.67672 0.982127 7.69053 1.87151L6.86493 2.61606C6.58133 2.87182 6.14673 2.85928 5.87834 2.5876C4.82185 1.51811 3 2.26622 3 3.76955V20.2407C3 21.7441 4.82191 22.4922 5.87838 21.4226C6.14675 21.1509 6.58137 21.1383 6.86497 21.3941L7.68019 22.1293C8.67235 23.0241 10.2027 22.9423 11.0939 21.9468L11.2008 21.8274C11.6272 21.3511 12.3728 21.3511 12.7992 21.8274L12.9061 21.9468C13.7973 22.9423 15.3276 23.0241 16.3198 22.1293L17.135 21.3941C17.4186 21.1383 17.8532 21.1509 18.1216 21.4226C19.1781 22.4922 21 21.7441 21 20.2407V3.76955C21 2.26623 19.1782 1.5181 18.1217 2.5876C17.8533 2.85928 17.4187 2.87182 17.1351 2.61606L16.3095 1.87151C15.3233 0.982127 13.8049 1.05263 12.9053 2.02957L12.7972 2.14706C12.3679 2.61322 11.6321 2.61322 11.2028 2.14706L11.0947 2.02957ZM8.69511 2.98543C9.07059 2.64681 9.6487 2.67366 9.99119 3.04561L10.0994 3.1631C11.1227 4.27454 12.8773 4.27454 13.9006 3.1631L14.0088 3.04561C14.3513 2.67366 14.9294 2.64681 15.3049 2.98543L16.1305 3.72999C17.0096 4.52281 18.3568 4.48394 19.1888 3.64176C19.303 3.52612 19.5 3.60701 19.5 3.76955V20.2407C19.5 20.4032 19.303 20.4841 19.1888 20.3685C18.3569 19.5262 17.0096 19.4873 16.1305 20.2802L15.3152 21.0154C14.9399 21.3539 14.3609 21.3229 14.0237 20.9463L13.9168 20.8269C12.8942 19.6846 11.1058 19.6846 10.0832 20.8269L9.97628 20.9463C9.63913 21.3229 9.06014 21.3539 8.68476 21.0154L7.86955 20.2802C6.9904 19.4873 5.64314 19.5262 4.81121 20.3685C4.69698 20.4841 4.5 20.4032 4.5 20.2407V3.76955C4.5 3.60701 4.69699 3.52612 4.81122 3.64176C5.64317 4.48394 6.99039 4.52281 7.86951 3.72998L8.69511 2.98543Z" fill="#000"/>
</svg>
