<svg width="24" height="24" viewBox="0 0 24 24" fill="none" xmlns="http://www.w3.org/2000/svg">
<path d="M14.4697 8.53033C14.1768 8.23744 14.1768 7.76256 14.4697 7.46967L16.1893 5.75H9C5.54822 5.75 2.75 8.54822 2.75 12C2.75 13.3289 3.1639 14.5589 3.86983 15.5709C4.1068 15.9107 4.02349 16.3782 3.68376 16.6151C3.34403 16.8521 2.87652 16.7688 2.63955 16.4291C1.76373 15.1735 1.25 13.6456 1.25 12C1.25 7.71979 4.71979 4.25 9 4.25H16.1893L14.4697 2.53033C14.1768 2.23744 14.1768 1.76256 14.4697 1.46967C14.7626 1.17678 15.2374 1.17678 15.5303 1.46967L18.5303 4.46967C18.671 4.61032 18.75 4.80109 18.75 5C18.75 5.19891 18.671 5.38968 18.5303 5.53033L15.5303 8.53033C15.2374 8.82322 14.7626 8.82322 14.4697 8.53033Z" fill="#000"/>
<path d="M9.53033 15.4697C9.82322 15.7626 9.82322 16.2374 9.53033 16.5303L7.81066 18.25H15C18.4518 18.25 21.25 15.4518 21.25 12C21.25 10.6711 20.8361 9.44113 20.1302 8.42907C19.8932 8.08934 19.9765 7.62183 20.3162 7.38486C20.656 7.14789 21.1235 7.23119 21.3604 7.57093C22.2363 8.82654 22.75 10.3544 22.75 12C22.75 16.2802 19.2802 19.75 15 19.75H7.81066L9.53033 21.4697C9.82322 21.7626 9.82322 22.2374 9.53033 22.5303C9.23743 22.8232 8.76256 22.8232 8.46967 22.5303L5.46967 19.5303C5.32902 19.3897 5.25 19.1989 5.25 19C5.25 18.8011 5.32902 18.6103 5.46967 18.4697L8.46967 15.4697C8.76256 15.1768 9.23744 15.1768 9.53033 15.4697Z" fill="#000"/>
</svg>
