<svg width="24" height="24" viewBox="0 0 24 24" fill="none" xmlns="http://www.w3.org/2000/svg">
<path d="M16.15 5.6001C16.15 4.90974 16.7096 4.3501 17.4 4.3501C18.0903 4.3501 18.6501 4.90974 18.6501 5.6001C18.6501 6.29045 18.0904 6.8501 17.4001 6.8501C16.7097 6.8501 16.15 6.29045 16.15 5.6001Z" fill="#000"/>
<path fill-rule="evenodd" clip-rule="evenodd" d="M13.0499 5.60183C13.0499 3.19984 14.997 1.25 17.4 1.25C19.8025 1.25 21.7499 3.19754 21.7499 5.6C21.7499 8.25 19.6499 10.25 17.8499 11.6C17.5833 11.8 17.2166 11.8 16.9499 11.6C15.1501 10.2501 13.0499 8.25009 13.0499 5.60183ZM17.4 2.75C15.8264 2.75 14.5499 4.0273 14.5499 5.60183C14.5499 7.29346 15.8066 8.77721 17.3999 10.0517C18.9932 8.77729 20.2499 7.29337 20.2499 5.6C20.2499 4.02594 18.974 2.75 17.4 2.75Z" fill="#000"/>
<path d="M13.5 10.25C13.9142 10.25 14.25 10.5858 14.25 11C14.25 11.4142 13.9142 11.75 13.5 11.75H8.75C7.64543 11.75 6.75 12.6454 6.75 13.75C6.75 14.8546 7.64543 15.75 8.75 15.75H10C10.4142 15.75 10.75 16.0858 10.75 16.5C10.75 16.9142 10.4142 17.25 10 17.25H8.75C6.817 17.25 5.25 15.683 5.25 13.75C5.25 11.817 6.817 10.25 8.75 10.25H13.5Z" fill="#000"/>
<path d="M20.25 19.25C20.25 18.1454 19.3546 17.25 18.25 17.25H17C16.5858 17.25 16.25 16.9142 16.25 16.5C16.25 16.0858 16.5858 15.75 17 15.75H18.25C20.183 15.75 21.75 17.317 21.75 19.25C21.75 21.183 20.183 22.75 18.25 22.75H6.5C6.08579 22.75 5.75 22.4142 5.75 22C5.75 21.5858 6.08579 21.25 6.5 21.25H18.25C19.3546 21.25 20.25 20.3546 20.25 19.25Z" fill="#000"/>
<path d="M12.25 16.5C12.25 15.8096 12.8096 15.25 13.5 15.25C14.1904 15.25 14.7501 15.8096 14.7501 16.5C14.7501 17.1904 14.1905 17.75 13.5001 17.75C12.8097 17.75 12.25 17.1904 12.25 16.5Z" fill="#000"/>
<path d="M3 20.75C2.30964 20.75 1.75 21.3096 1.75 22C1.75 22.6904 2.30964 23.25 3 23.25C3.69036 23.25 4.2501 22.6904 4.2501 22C4.2501 21.3096 3.69036 20.75 3 20.75Z" fill="#000"/>
</svg>
