<svg width="24" height="24" viewBox="0 0 24 24" fill="none" xmlns="http://www.w3.org/2000/svg">
<path d="M11.25 10.8172V10.5C11.25 10.0858 11.5858 9.75001 12 9.75001C12.4142 9.75001 12.75 10.0858 12.75 10.5V10.8123C12.9266 10.8459 13.1003 10.8952 13.2765 10.9651C13.6747 11.123 14.041 11.3691 14.4527 11.6809C14.783 11.931 14.848 12.4014 14.5979 12.7316C14.3479 13.0618 13.8775 13.1268 13.5472 12.8768C13.159 12.5828 12.9252 12.4394 12.7235 12.3594C12.5392 12.2863 12.3406 12.25 12 12.25C11.5065 12.25 11.1757 12.3669 10.9899 12.5015C10.8265 12.6199 10.75 12.7643 10.75 12.9654C10.75 13.2016 10.8409 13.3313 11.0663 13.4575C11.3391 13.6102 11.7185 13.6927 12.1233 13.7602C12.5185 13.8261 13.1391 13.9385 13.6663 14.2336C14.2409 14.5553 14.75 15.1262 14.75 16.0346C14.75 16.7364 14.4265 17.3247 13.8899 17.7133C13.5626 17.9503 13.1725 18.1031 12.75 18.1828V18.5C12.75 18.9142 12.4142 19.25 12 19.25C11.5858 19.25 11.25 18.9142 11.25 18.5V18.1877C11.0734 18.1541 10.8997 18.1048 10.7235 18.0349C10.3252 17.8769 9.95895 17.6308 9.54723 17.3191C9.217 17.069 9.15201 16.5986 9.40206 16.2684C9.65211 15.9382 10.1225 15.8732 10.4527 16.1232C10.841 16.4172 11.0747 16.5605 11.2765 16.6406C11.4608 16.7137 11.6594 16.75 12 16.75C12.4935 16.75 12.8242 16.6331 13.0101 16.4985C13.1734 16.3801 13.25 16.2357 13.25 16.0346C13.25 15.7984 13.1591 15.6687 12.9336 15.5425C12.6608 15.3898 12.2814 15.3073 11.8767 15.2398C11.4814 15.1739 10.8608 15.0615 10.3336 14.7664C9.75906 14.4447 9.24998 13.8738 9.24998 12.9654C9.24998 12.2636 9.57343 11.6753 10.1101 11.2867C10.4373 11.0497 10.8274 10.8969 11.25 10.8172Z" fill="#000"/>
<path fill-rule="evenodd" clip-rule="evenodd" d="M17.4297 3.81763C16.9408 4.79544 16.1386 5.57401 15.1594 6.03504C19.2165 8.20512 21.75 12.4327 21.75 17.0345V18C21.75 20.6234 19.6234 22.75 17 22.75H7C4.37665 22.75 2.25 20.6234 2.25 18V17.0345C2.25 12.4327 4.78351 8.20513 8.84055 6.03505C7.86141 5.57402 7.05918 4.79544 6.57027 3.81763C5.98044 2.63797 6.83825 1.25 8.15715 1.25H15.8428C17.1617 1.25 18.0195 2.63797 17.4297 3.81763ZM8.15715 2.75C7.95333 2.75 7.82076 2.9645 7.91191 3.14681C8.30887 3.94072 9.00494 4.54442 9.847 4.8251L10.2885 4.97226C10.8403 5.15622 11.4183 5.25 12 5.25C12.5817 5.25 13.1596 5.15622 13.7115 4.97226L14.153 4.8251C14.995 4.54442 15.6911 3.94072 16.0881 3.14681C16.1792 2.9645 16.0466 2.75 15.8428 2.75H8.15715ZM11.9655 6.75H12.0345C12.8736 6.75 13.6998 6.95655 14.4402 7.35142C18.0162 9.25866 20.25 12.9816 20.25 17.0345V18C20.25 19.7949 18.7949 21.25 17 21.25H7C5.20507 21.25 3.75 19.7949 3.75 18V17.0345C3.75 12.9816 5.98377 9.25866 9.55984 7.35142C10.3002 6.95655 11.1264 6.75 11.9655 6.75Z" fill="#000"/>
</svg>
