<svg width="24" height="24" viewBox="0 0 24 24" fill="none" xmlns="http://www.w3.org/2000/svg">
<path d="M14.25 10.5C14.25 10.9142 13.9142 11.25 13.5 11.25H11.25V13.5C11.25 13.9142 10.9142 14.25 10.5 14.25C10.0858 14.25 9.75 13.9142 9.75 13.5V11.25H7.5C7.08579 11.25 6.75 10.9142 6.75 10.5C6.75 10.0858 7.08579 9.75 7.5 9.75H9.75V7.5C9.75 7.08579 10.0858 6.75 10.5 6.75C10.9142 6.75 11.25 7.08579 11.25 7.5V9.75H13.5C13.9142 9.75 14.25 10.0858 14.25 10.5Z" fill="#000"/>
<path fill-rule="evenodd" clip-rule="evenodd" d="M16.489 17.5497C14.8753 18.922 12.7843 19.75 10.5 19.75C5.39137 19.75 1.25 15.6086 1.25 10.5C1.25 5.39137 5.39137 1.25 10.5 1.25C15.6086 1.25 19.75 5.39137 19.75 10.5C19.75 12.7843 18.922 14.8753 17.5497 16.489L22.5303 21.4697C22.8232 21.7626 22.8232 22.2374 22.5303 22.5303C22.2374 22.8232 21.7626 22.8232 21.4697 22.5303L16.489 17.5497ZM2.75 10.5C2.75 6.21979 6.21979 2.75 10.5 2.75C14.7802 2.75 18.25 6.21979 18.25 10.5C18.25 12.589 17.4235 14.485 16.0796 15.8788C16.0408 15.905 16.004 15.9353 15.9697 15.9697C15.9353 16.004 15.905 16.0408 15.8788 16.0796C14.485 17.4235 12.589 18.25 10.5 18.25C6.21979 18.25 2.75 14.7802 2.75 10.5Z" fill="#000"/>
</svg>
