<svg width="24" height="24" viewBox="0 0 24 24" fill="none" xmlns="http://www.w3.org/2000/svg">
<path d="M13.5 11.25C13.9142 11.25 14.25 10.9142 14.25 10.5C14.25 10.0858 13.9142 9.75 13.5 9.75H7.5C7.08579 9.75 6.75 10.0858 6.75 10.5C6.75 10.9142 7.08579 11.25 7.5 11.25H13.5Z" fill="#000"/>
<path fill-rule="evenodd" clip-rule="evenodd" d="M10.5 19.75C12.7843 19.75 14.8753 18.922 16.489 17.5497L21.4697 22.5303C21.7626 22.8232 22.2374 22.8232 22.5303 22.5303C22.8232 22.2374 22.8232 21.7626 22.5303 21.4697L17.5497 16.489C18.922 14.8753 19.75 12.7843 19.75 10.5C19.75 5.39137 15.6086 1.25 10.5 1.25C5.39137 1.25 1.25 5.39137 1.25 10.5C1.25 15.6086 5.39137 19.75 10.5 19.75ZM10.5 2.75C6.21979 2.75 2.75 6.21979 2.75 10.5C2.75 14.7802 6.21979 18.25 10.5 18.25C12.589 18.25 14.485 17.4235 15.8788 16.0796C15.905 16.0408 15.9353 16.004 15.9697 15.9697C16.004 15.9353 16.0408 15.905 16.0796 15.8788C17.4235 14.485 18.25 12.589 18.25 10.5C18.25 6.21979 14.7802 2.75 10.5 2.75Z" fill="#000"/>
</svg>
