<svg width="24" height="24" viewBox="0 0 24 24" fill="none" xmlns="http://www.w3.org/2000/svg">
<path d="M1.53012 5.08234C0.332342 2.22071 3.23516 -0.816334 6.10773 0.599913L20.856 7.87117C22.4506 8.65736 23.0182 10.4018 22.6331 11.8715C22.5281 12.2722 22.1182 12.5119 21.7175 12.4069C21.3168 12.3019 21.0771 11.892 21.1821 11.4913C21.4127 10.6113 21.0602 9.64425 20.1927 9.21654L5.44443 1.94529C3.95035 1.20867 2.19876 2.77894 2.91083 4.49606L5.18353 9.60516L5.19012 9.62041C5.27125 9.81425 5.33413 10.0138 5.37882 10.2165H11.0001C11.4143 10.2165 11.7501 10.5523 11.7501 10.9665C11.7501 11.3807 11.4143 11.7165 11.0001 11.7165H5.38239C5.33299 11.9464 5.26039 12.1724 5.16468 12.3908L3.02129 17.4915C2.25961 19.22 4.00224 20.8014 5.51475 20.0471L8.74171 18.4379C9.11239 18.2531 9.56274 18.4037 9.74759 18.7744C9.93244 19.1451 9.78179 19.5954 9.41111 19.7803L6.18415 21.3895C3.28162 22.8369 0.386519 19.7645 1.64581 16.8928L3.78918 11.7921C4.01174 11.2871 4.01816 10.7109 3.80937 10.2066L1.5367 5.09759L1.53012 5.08234Z" fill="#000"/>
<path d="M17.6251 15.5C17.6251 15.1548 17.3453 14.875 17.0001 14.875C16.6549 14.875 16.3751 15.1548 16.3751 15.5V18.0001C16.3751 18.209 16.4796 18.4042 16.6534 18.5201L18.1534 19.52C18.4407 19.7115 18.8287 19.6339 19.0202 19.3467C19.2116 19.0595 19.134 18.6714 18.8468 18.48L17.6251 17.6656V15.5Z" fill="#000"/>
<path fill-rule="evenodd" clip-rule="evenodd" d="M11.2501 18C11.2501 14.8244 13.8245 12.25 17.0001 12.25C20.1758 12.25 22.7501 14.8244 22.7501 18C22.7501 21.1756 20.1758 23.75 17.0001 23.75C13.8245 23.75 11.2501 21.1756 11.2501 18ZM17.0001 13.75C14.6529 13.75 12.7501 15.6528 12.7501 18C12.7501 20.3472 14.6529 22.25 17.0001 22.25C19.3473 22.25 21.2501 20.3472 21.2501 18C21.2501 15.6528 19.3473 13.75 17.0001 13.75Z" fill="#000"/>
</svg>
