<svg width="24" height="24" viewBox="0 0 24 24" fill="none" xmlns="http://www.w3.org/2000/svg">
<path fill-rule="evenodd" clip-rule="evenodd" d="M22.5615 5.64099C23.4636 3.04509 20.9861 0.522263 18.3803 1.44085L3.44476 6.70576C0.578346 7.71619 0.500509 11.7624 3.32388 12.8849L3.3397 12.891L8.29288 14.7318C8.75501 14.9178 9.12031 15.2916 9.2978 15.764L11.222 20.6243C12.3084 23.4996 16.3744 23.4454 17.3839 20.5402L22.5615 5.64099ZM18.8789 2.85553C20.2743 2.36365 21.643 3.71458 21.1447 5.14861L15.9671 20.0478C15.4171 21.6302 13.2126 21.6573 12.6238 20.0902L10.6996 15.2299C10.6224 15.0256 10.5257 14.8311 10.4119 14.6487L14.0303 11.0303C14.3232 10.7374 14.3232 10.2626 14.0303 9.96967C13.7374 9.67678 13.2626 9.67678 12.9697 9.96967L9.34872 13.5906C9.18799 13.4915 9.01788 13.4058 8.83985 13.335L8.82404 13.3289L3.87079 11.4881C2.34161 10.8732 2.38813 8.6687 3.94344 8.12043L18.8789 2.85553Z" fill="#000"/>
</svg>
