<svg width="24" height="24" viewBox="0 0 24 24" fill="none" xmlns="http://www.w3.org/2000/svg">
<path d="M13.5 6.25C13.5 5.69772 13.9477 5.25 14.5 5.25C15.0523 5.25 15.5001 5.69772 15.5001 6.25C15.5001 6.80229 15.0524 7.25 14.5001 7.25C13.9478 7.25 13.5 6.80229 13.5 6.25Z" fill="#000"/>
<path d="M17.5 5.25C16.9477 5.25 16.5 5.69772 16.5 6.25C16.5 6.80229 16.9477 7.25 17.5 7.25C18.0523 7.25 18.5001 6.80229 18.5001 6.25C18.5001 5.69772 18.0523 5.25 17.5 5.25Z" fill="#000"/>
<path fill-rule="evenodd" clip-rule="evenodd" d="M18.0314 1.25H5.96858C5.29521 1.24999 4.74449 1.24998 4.29693 1.28655C3.83367 1.3244 3.41527 1.40514 3.02453 1.60423C2.413 1.91582 1.91582 2.413 1.60423 3.02453C1.40514 3.41527 1.3244 3.83367 1.28655 4.29693C1.24998 4.74449 1.24999 5.2952 1.25 5.96857V6.53142C1.24999 7.20479 1.24998 7.75551 1.28655 8.20307C1.3244 8.66633 1.40514 9.08473 1.60423 9.47547C1.91582 10.087 2.413 10.5842 3.02453 10.8958C3.41527 11.0949 3.83367 11.1756 4.29693 11.2134C4.74448 11.25 5.29518 11.25 5.96853 11.25H18.0314C18.7048 11.25 19.2555 11.25 19.7031 11.2134C20.1663 11.1756 20.5847 11.0949 20.9755 10.8958C21.587 10.5842 22.0842 10.087 22.3958 9.47547C22.5949 9.08473 22.6756 8.66633 22.7134 8.20307C22.75 7.75551 22.75 7.20481 22.75 6.53144V5.96856C22.75 5.29519 22.75 4.74449 22.7134 4.29693C22.6756 3.83367 22.5949 3.41527 22.3958 3.02453C22.0842 2.413 21.587 1.91582 20.9755 1.60423C20.5847 1.40514 20.1663 1.3244 19.7031 1.28655C19.2555 1.24998 18.7048 1.24999 18.0314 1.25ZM3.70552 2.94074C3.84956 2.86735 4.04858 2.81184 4.41908 2.78157C4.79833 2.75058 5.28756 2.75 6 2.75H18C18.7124 2.75 19.2017 2.75058 19.5809 2.78157C19.9514 2.81184 20.1504 2.86735 20.2945 2.94074C20.6238 3.10852 20.8915 3.37623 21.0593 3.70552C21.1327 3.84956 21.1882 4.04858 21.2184 4.41908C21.2494 4.79833 21.25 5.28756 21.25 6V6.5C21.25 7.21244 21.2494 7.70167 21.2184 8.08092C21.1882 8.45142 21.1327 8.65045 21.0593 8.79448C20.8915 9.12377 20.6238 9.39148 20.2945 9.55926C20.1504 9.63265 19.9514 9.68816 19.5809 9.71843C19.2017 9.74942 18.7124 9.75 18 9.75H6C5.28756 9.75 4.79833 9.74942 4.41908 9.71843C4.04858 9.68816 3.84956 9.63265 3.70552 9.55926C3.37623 9.39148 3.10852 9.12377 2.94074 8.79448C2.86735 8.65045 2.81184 8.45142 2.78157 8.08092C2.75058 7.70167 2.75 7.21244 2.75 6.5V6C2.75 5.28756 2.75058 4.79833 2.78157 4.41908C2.81184 4.04858 2.86735 3.84956 2.94074 3.70552C3.10852 3.37623 3.37623 3.10852 3.70552 2.94074Z" fill="#000"/>
<path d="M13.5 17.75C13.5 17.1977 13.9477 16.75 14.5 16.75C15.0523 16.75 15.5001 17.1977 15.5001 17.75C15.5001 18.3023 15.0524 18.75 14.5001 18.75C13.9478 18.75 13.5 18.3023 13.5 17.75Z" fill="#000"/>
<path d="M17.5 16.75C16.9477 16.75 16.5 17.1977 16.5 17.75C16.5 18.3023 16.9477 18.75 17.5 18.75C18.0523 18.75 18.5001 18.3023 18.5001 17.75C18.5001 17.1977 18.0523 16.75 17.5 16.75Z" fill="#000"/>
<path fill-rule="evenodd" clip-rule="evenodd" d="M18.0314 12.75H5.96858C5.2952 12.75 4.7445 12.75 4.29693 12.7866C3.83367 12.8244 3.41527 12.9051 3.02453 13.1042C2.413 13.4158 1.91582 13.913 1.60423 14.5245C1.40514 14.9153 1.3244 15.3337 1.28655 15.7969C1.24998 16.2445 1.24999 16.7952 1.25 17.4686V18.0314C1.24999 18.7048 1.24998 19.2555 1.28655 19.7031C1.3244 20.1663 1.40514 20.5847 1.60423 20.9755C1.91582 21.587 2.413 22.0842 3.02453 22.3958C3.41527 22.5949 3.83367 22.6756 4.29693 22.7134C4.74449 22.75 5.29519 22.75 5.96856 22.75H18.0314C18.7048 22.75 19.2555 22.75 19.7031 22.7134C20.1663 22.6756 20.5847 22.5949 20.9755 22.3958C21.587 22.0842 22.0842 21.587 22.3958 20.9755C22.5949 20.5847 22.6756 20.1663 22.7134 19.7031C22.75 19.2555 22.75 18.7048 22.75 18.0314V17.4686C22.75 16.7952 22.75 16.2445 22.7134 15.7969C22.6756 15.3337 22.5949 14.9153 22.3958 14.5245C22.0842 13.913 21.587 13.4158 20.9755 13.1042C20.5847 12.9051 20.1663 12.8244 19.7031 12.7866C19.2555 12.75 18.7048 12.75 18.0314 12.75ZM3.70552 14.4407C3.84956 14.3673 4.04858 14.3118 4.41908 14.2816C4.79833 14.2506 5.28756 14.25 6 14.25H18C18.7124 14.25 19.2017 14.2506 19.5809 14.2816C19.9514 14.3118 20.1504 14.3673 20.2945 14.4407C20.6238 14.6085 20.8915 14.8762 21.0593 15.2055C21.1327 15.3496 21.1882 15.5486 21.2184 15.9191C21.2494 16.2983 21.25 16.7876 21.25 17.5V18C21.25 18.7124 21.2494 19.2017 21.2184 19.5809C21.1882 19.9514 21.1327 20.1504 21.0593 20.2945C20.8915 20.6238 20.6238 20.8915 20.2945 21.0593C20.1504 21.1327 19.9514 21.1882 19.5809 21.2184C19.2017 21.2494 18.7124 21.25 18 21.25H6C5.28756 21.25 4.79833 21.2494 4.41908 21.2184C4.04858 21.1882 3.84956 21.1327 3.70552 21.0593C3.37623 20.8915 3.10852 20.6238 2.94074 20.2945C2.86735 20.1504 2.81184 19.9514 2.78157 19.5809C2.75058 19.2017 2.75 18.7124 2.75 18V17.5C2.75 16.7876 2.75058 16.2983 2.78157 15.9191C2.81184 15.5486 2.86735 15.3496 2.94074 15.2055C3.10852 14.8762 3.37623 14.6085 3.70552 14.4407Z" fill="#000"/>
</svg>
