<svg width="24" height="24" viewBox="0 0 24 24" fill="none" xmlns="http://www.w3.org/2000/svg">
<path fill-rule="evenodd" clip-rule="evenodd" d="M15.2504 5C15.2504 2.92893 16.9293 1.25 19.0004 1.25C21.0714 1.25 22.7504 2.92893 22.7504 5C22.7504 7.07107 21.0714 8.75 19.0004 8.75C17.6404 8.75 16.4496 8.02611 15.7921 6.94265L8.47982 10.5988C8.65432 11.0317 8.75037 11.5046 8.75037 12C8.75037 12.4954 8.65432 12.9683 8.47982 13.4012L15.7921 17.0574C16.4496 15.9739 17.6404 15.25 19.0004 15.25C21.0714 15.25 22.7504 16.9289 22.7504 19C22.7504 21.0711 21.0714 22.75 19.0004 22.75C16.9293 22.75 15.2504 21.0711 15.2504 19C15.2504 18.824 15.2625 18.6508 15.2859 18.4813L7.665 14.6708C7.65786 14.6673 7.6508 14.6636 7.64382 14.6598C6.96586 15.3336 6.03174 15.75 5.00037 15.75C2.9293 15.75 1.25037 14.0711 1.25037 12C1.25037 9.92893 2.9293 8.25 5.00037 8.25C6.03174 8.25 6.96586 8.66636 7.64382 9.34018C7.6508 9.33641 7.65786 9.33274 7.665 9.32917L15.2859 5.51869C15.2625 5.34915 15.2504 5.17599 15.2504 5ZM19.0004 2.75C17.7577 2.75 16.7504 3.75736 16.7504 5C16.7504 6.24264 17.7577 7.25 19.0004 7.25C20.243 7.25 21.2504 6.24264 21.2504 5C21.2504 3.75736 20.243 2.75 19.0004 2.75ZM5.00037 9.75C3.75772 9.75 2.75037 10.7574 2.75037 12C2.75037 13.2426 3.75772 14.25 5.00037 14.25C6.24301 14.25 7.25037 13.2426 7.25037 12C7.25037 10.7574 6.24301 9.75 5.00037 9.75ZM16.7504 19C16.7504 17.7574 17.7577 16.75 19.0004 16.75C20.243 16.75 21.2504 17.7574 21.2504 19C21.2504 20.2426 20.243 21.25 19.0004 21.25C17.7577 21.25 16.7504 20.2426 16.7504 19Z" fill="#000"/>
</svg>
