<svg width="24" height="24" viewBox="0 0 24 24" fill="none" xmlns="http://www.w3.org/2000/svg">
<path fill-rule="evenodd" clip-rule="evenodd" d="M15.2505 5C15.2505 2.92893 16.9294 1.25 19.0005 1.25C21.0716 1.25 22.7505 2.92893 22.7505 5C22.7505 7.07107 21.0716 8.75 19.0005 8.75C17.6406 8.75 16.4497 8.02611 15.7923 6.94265L8.47995 10.5988C8.65444 11.0317 8.75049 11.5046 8.75049 12C8.75049 12.4954 8.65444 12.9683 8.47995 13.4012L15.7923 17.0574C16.4497 15.9739 17.6406 15.25 19.0005 15.25C21.0716 15.25 22.7505 16.9289 22.7505 19C22.7505 21.0711 21.0716 22.75 19.0005 22.75C16.9294 22.75 15.2505 21.0711 15.2505 19C15.2505 18.824 15.2626 18.6508 15.2861 18.4813L7.66512 14.6708C7.65798 14.6673 7.65092 14.6636 7.64394 14.6598C6.96598 15.3336 6.03186 15.75 5.00049 15.75C2.92942 15.75 1.25049 14.0711 1.25049 12C1.25049 9.92893 2.92942 8.25 5.00049 8.25C6.03186 8.25 6.96598 8.66636 7.64394 9.34018C7.65092 9.33641 7.65798 9.33274 7.66512 9.32917L15.2861 5.51869C15.2626 5.34915 15.2505 5.17599 15.2505 5ZM19.0005 2.75C17.7578 2.75 16.7505 3.75736 16.7505 5C16.7505 6.24264 17.7578 7.25 19.0005 7.25C20.2431 7.25 21.2505 6.24264 21.2505 5C21.2505 3.75736 20.2431 2.75 19.0005 2.75ZM5.00049 9.75C3.75785 9.75 2.75049 10.7574 2.75049 12C2.75049 13.2426 3.75785 14.25 5.00049 14.25C6.24313 14.25 7.25049 13.2426 7.25049 12C7.25049 10.7574 6.24313 9.75 5.00049 9.75ZM16.7505 19C16.7505 17.7574 17.7578 16.75 19.0005 16.75C20.2431 16.75 21.2505 17.7574 21.2505 19C21.2505 20.2426 20.2431 21.25 19.0005 21.25C17.7578 21.25 16.7505 20.2426 16.7505 19Z" fill="#000"/>
</svg>
