<svg width="24" height="24" viewBox="0 0 24 24" fill="none" xmlns="http://www.w3.org/2000/svg">
<path d="M10.7556 2.55036C11.5369 2.1545 12.4599 2.15444 13.2412 2.55018L20.3389 6.14533C20.5911 6.27306 20.75 6.53172 20.75 6.81439V8.83905C20.75 9.23415 20.6622 10.1251 20.5447 11.1218C20.3663 12.6354 19.8785 14.0937 19.1375 15.4295C18.9366 15.7917 19.0673 16.2483 19.4295 16.4492C19.7918 16.6501 20.2483 16.5193 20.4492 16.1571C21.2792 14.6608 21.8318 13.0161 22.0344 11.2975C22.1488 10.3271 22.25 9.34055 22.25 8.83905V6.81439C22.25 5.96637 21.7732 5.19039 21.0167 4.8072L13.919 1.21205C12.7116 0.600444 11.285 0.600546 10.0776 1.21232L7.06758 2.73754C6.69809 2.92476 6.55033 3.37606 6.73755 3.74555C6.92477 4.11503 7.37607 4.26279 7.74556 4.07557L10.7556 2.55036Z" fill="#000"/>
<path fill-rule="evenodd" clip-rule="evenodd" d="M5.29463 4.23397L18.6724 17.6117C18.6766 17.6158 18.6807 17.62 18.6848 17.6241L22.5303 21.4697C22.8232 21.7626 22.8232 22.2374 22.5303 22.5303C22.2374 22.8232 21.7626 22.8232 21.4697 22.5303L18.1783 19.239C16.8976 20.6047 15.3934 21.75 13.7253 22.6227L12.9749 23.0154C12.3632 23.3354 11.6335 23.3355 11.0218 23.0155L10.2731 22.6239C7.95128 21.4094 5.94702 19.6669 4.42162 17.5364C3.10653 15.6998 2.23322 13.566 1.96632 11.3037C1.85159 10.3311 1.75 9.34152 1.75 8.83905V6.81425C1.75 5.96634 2.22667 5.19044 2.98302 4.8072L3.48977 4.55043L1.46967 2.53033C1.17678 2.23744 1.17678 1.76256 1.46967 1.46967C1.76256 1.17678 2.23744 1.17678 2.53033 1.46967L5.26935 4.20869C5.27796 4.21689 5.28639 4.22532 5.29463 4.23397ZM17.117 18.1777L4.60583 5.66649L3.66101 6.14523C3.40889 6.27298 3.25 6.53161 3.25 6.81425V8.83905C3.25 9.23503 3.33813 10.1289 3.45599 11.1279C3.69102 13.1201 4.46232 15.0167 5.64123 16.6632C7.02993 18.6027 8.85458 20.1891 10.9683 21.2947L11.717 21.6863C11.8932 21.7785 12.1033 21.7785 12.2795 21.6863L13.0299 21.2937C14.5629 20.4916 15.944 19.4367 17.117 18.1777Z" fill="#000"/>
</svg>
