<svg width="24" height="24" viewBox="0 0 24 24" fill="none" xmlns="http://www.w3.org/2000/svg">
<path d="M10.7556 2.55042C11.5369 2.15456 12.4599 2.1545 13.2412 2.55024L20.3389 6.14539C20.5911 6.27312 20.75 6.53178 20.75 6.81445V8.83911C20.75 9.23421 20.6622 10.1252 20.5447 11.1219C20.3663 12.6355 19.8785 14.0937 19.1375 15.4296C18.9366 15.7918 19.0673 16.2483 19.4295 16.4492C19.7918 16.6502 20.2483 16.5194 20.4492 16.1572C21.2792 14.6609 21.8318 13.0162 22.0344 11.2975C22.1488 10.3272 22.25 9.34061 22.25 8.83911V6.81445C22.25 5.96643 21.7732 5.19045 21.0167 4.80726L13.919 1.21211C12.7116 0.600505 11.285 0.600607 10.0776 1.21238L7.06758 2.7376C6.69809 2.92482 6.55033 3.37612 6.73755 3.74561C6.92477 4.11509 7.37607 4.26285 7.74556 4.07563L10.7556 2.55042Z" fill="#000"/>
<path fill-rule="evenodd" clip-rule="evenodd" d="M5.29463 4.23403L18.6724 17.6118C18.6766 17.6159 18.6807 17.62 18.6848 17.6242L22.5303 21.4697C22.8232 21.7626 22.8232 22.2375 22.5303 22.5304C22.2374 22.8233 21.7626 22.8233 21.4697 22.5304L18.1783 19.239C16.8976 20.6048 15.3934 21.75 13.7253 22.6228L12.9749 23.0154C12.3632 23.3355 11.6335 23.3355 11.0218 23.0156L10.2731 22.6239C7.95128 21.4095 5.94702 19.6669 4.42162 17.5365C3.10653 15.6998 2.23322 13.5661 1.96632 11.3037C1.85159 10.3312 1.75 9.34158 1.75 8.83911V6.81431C1.75 5.9664 2.22667 5.1905 2.98302 4.80726L3.48977 4.55049L1.46967 2.53039C1.17678 2.2375 1.17678 1.76262 1.46967 1.46973C1.76256 1.17684 2.23744 1.17684 2.53033 1.46973L5.26935 4.20875C5.27796 4.21695 5.28639 4.22538 5.29463 4.23403ZM17.117 18.1778L4.60583 5.66655L3.66101 6.14529C3.40889 6.27304 3.25 6.53167 3.25 6.81431V8.83911C3.25 9.2351 3.33813 10.129 3.45599 11.128C3.69102 13.1201 4.46232 15.0168 5.64123 16.6633C7.02993 18.6028 8.85458 20.1892 10.9683 21.2948L11.717 21.6864C11.8932 21.7786 12.1033 21.7785 12.2795 21.6864L13.0299 21.2937C14.5629 20.4916 15.944 19.4367 17.117 18.1778Z" fill="#000"/>
</svg>
