<svg width="24" height="24" viewBox="0 0 24 24" fill="none" xmlns="http://www.w3.org/2000/svg">
<path fill-rule="evenodd" clip-rule="evenodd" d="M10.0776 1.21257C11.285 0.60079 12.7116 0.600688 13.919 1.21229L21.0167 4.80744C21.7732 5.19063 22.25 5.96662 22.25 6.81464V8.83929C22.25 9.34079 22.1488 10.3274 22.0344 11.2977C21.7672 13.5642 20.8916 15.7017 19.573 17.541C18.0478 19.6687 16.0449 21.4093 13.7253 22.623L12.9749 23.0156C12.3632 23.3357 11.6335 23.3357 11.0218 23.0157L10.2731 22.6241C7.95128 21.4097 5.94702 19.6671 4.42162 17.5367C3.10653 15.7 2.23322 13.5662 1.96632 11.3039C1.85159 10.3314 1.75 9.34177 1.75 8.83929V6.81449C1.75 5.96659 2.22667 5.19068 2.98302 4.80744L10.0776 1.21257ZM13.2412 2.55042C12.4599 2.15468 11.5369 2.15474 10.7556 2.5506L3.66101 6.14547C3.40889 6.27322 3.25 6.53186 3.25 6.81449V8.83929C3.25 9.23528 3.33813 10.1292 3.45599 11.1282C3.69102 13.1203 4.46232 15.0169 5.64123 16.6634C7.02993 18.603 8.85458 20.1894 10.9683 21.295L11.717 21.6866C11.8932 21.7787 12.1033 21.7787 12.2795 21.6866L13.0299 21.2939C15.1418 20.1889 16.9652 18.6042 18.3539 16.6671C19.536 15.0181 20.3094 13.118 20.5447 11.1221C20.6622 10.1254 20.75 9.23439 20.75 8.83929V6.81464C20.75 6.53196 20.5911 6.2733 20.3389 6.14557L13.2412 2.55042Z" fill="#000"/>
</svg>
