<svg width="24" height="24" viewBox="0 0 24 24" fill="none" xmlns="http://www.w3.org/2000/svg">
<path d="M18.9697 8.46967C18.6768 8.76256 18.6768 9.23744 18.9697 9.53033C19.2626 9.82322 19.7374 9.82322 20.0303 9.53033L22.5303 7.03033C22.8232 6.73744 22.8232 6.26256 22.5303 5.96967L20.0303 3.46967C19.7374 3.17678 19.2626 3.17678 18.9697 3.46967C18.6768 3.76256 18.6768 4.23744 18.9697 4.53033L20.1893 5.75H16.5678C14.7111 5.75 12.9925 6.7307 12.048 8.32918L11.7014 8.91563C11.4907 9.27224 11.609 9.73215 11.9656 9.94288C12.3222 10.1536 12.7821 10.0353 12.9928 9.67873L13.3393 9.09227C14.014 7.9505 15.2416 7.25 16.5678 7.25H20.1893L18.9697 8.46967Z" fill="#000"/>
<path d="M18.9697 15.5303C18.6768 15.2374 18.6768 14.7626 18.9697 14.4697C19.2626 14.1768 19.7374 14.1768 20.0303 14.4697L22.5303 16.9697C22.8232 17.2626 22.8232 17.7374 22.5303 18.0303L20.0303 20.5303C19.7374 20.8232 19.2626 20.8232 18.9697 20.5303C18.6768 20.2374 18.6768 19.7626 18.9697 19.4697L20.1893 18.25H16.5678C14.7111 18.25 12.9925 17.2693 12.048 15.6708L8.16064 9.09227C7.48596 7.95049 6.25837 7.24999 4.93216 7.25L2 7.25C1.58579 7.25 1.25 6.91421 1.25 6.5C1.25 6.08578 1.58579 5.75 2 5.75L4.93216 5.75C6.78886 5.74999 8.50747 6.73069 9.45203 8.32917L13.3393 14.9077C14.014 16.0495 15.2416 16.75 16.5678 16.75H20.1893L18.9697 15.5303Z" fill="#000"/>
<path d="M9.53442 14.0571C9.89103 14.2678 10.0093 14.7278 9.79857 15.0844L9.45203 15.6708C8.50747 17.2693 6.78886 18.25 4.93216 18.25H2C1.58579 18.25 1.25 17.9142 1.25 17.5C1.25 17.0858 1.58579 16.75 2 16.75H4.93216C6.25837 16.75 7.48596 16.0495 8.16064 14.9077L8.50718 14.3213C8.7179 13.9647 9.17781 13.8464 9.53442 14.0571Z" fill="#000"/>
</svg>
