<svg width="24" height="24" viewBox="0 0 24 24" fill="none" xmlns="http://www.w3.org/2000/svg">
<path d="M21.25 11.9991C21.25 9.51346 20.2054 7.24127 18.4751 5.53385C18.1803 5.24291 18.1771 4.76805 18.468 4.47321C18.759 4.17838 19.2338 4.17521 19.5287 4.46615C21.5192 6.43034 22.75 9.07782 22.75 11.9991C22.75 14.9213 21.5184 17.5696 19.5267 19.534C19.2317 19.8248 18.7569 19.8216 18.466 19.5267C18.1752 19.2317 18.1784 18.7569 18.4733 18.466C20.2047 16.7584 21.25 14.4855 21.25 11.9991Z" fill="#000"/>
<path fill-rule="evenodd" clip-rule="evenodd" d="M12 9.75C10.7574 9.75 9.75 10.7574 9.75 12C9.75 13.2426 10.7574 14.25 12 14.25C13.2426 14.25 14.25 13.2426 14.25 12C14.25 10.7574 13.2426 9.75 12 9.75ZM11.25 12C11.25 11.5858 11.5858 11.25 12 11.25C12.4142 11.25 12.75 11.5858 12.75 12C12.75 12.4142 12.4142 12.75 12 12.75C11.5858 12.75 11.25 12.4142 11.25 12Z" fill="#000"/>
<path d="M15.4727 9.0381C16.2647 9.80706 16.7451 10.8525 16.7451 12C16.7451 13.1475 16.2647 14.1929 15.4727 14.9619C15.1755 15.2504 15.1685 15.7253 15.457 16.0224C15.7456 16.3196 16.2204 16.3266 16.5176 16.0381C17.5809 15.0057 18.2451 13.5796 18.2451 12C18.2451 10.4204 17.5809 8.99429 16.5176 7.9619C16.2204 7.67336 15.7456 7.68037 15.457 7.97755C15.1685 8.27474 15.1755 8.74956 15.4727 9.0381Z" fill="#000"/>
<path d="M2.75 11.9991C2.75 9.51346 3.79459 7.24127 5.52491 5.53385C5.81975 5.24291 5.82291 4.76805 5.53197 4.47321C5.24104 4.17838 4.76617 4.17521 4.47134 4.46615C2.48081 6.43034 1.25 9.07782 1.25 11.9991C1.25 14.9213 2.48164 17.5696 4.47334 19.534C4.76825 19.8248 5.24311 19.8216 5.53398 19.5267C5.82484 19.2317 5.82156 18.7569 5.52666 18.466C3.7953 16.7584 2.75 14.4855 2.75 11.9991Z" fill="#000"/>
<path d="M8.52733 9.0381C7.73533 9.80706 7.25488 10.8525 7.25488 12C7.25488 13.1475 7.73533 14.1929 8.52733 14.9619C8.82451 15.2504 8.83152 15.7253 8.54298 16.0224C8.25444 16.3196 7.77962 16.3266 7.48244 16.0381C6.41912 15.0057 5.75488 13.5796 5.75488 12C5.75488 10.4204 6.41912 8.99429 7.48244 7.9619C7.77962 7.67336 8.25444 7.68037 8.54298 7.97755C8.83152 8.27474 8.82451 8.74956 8.52733 9.0381Z" fill="#000"/>
</svg>
