<svg width="24" height="24" viewBox="0 0 24 24" fill="none" xmlns="http://www.w3.org/2000/svg">
<path fill-rule="evenodd" clip-rule="evenodd" d="M1.25 6.5C1.25 4.42893 2.92893 2.75 5 2.75C7.07107 2.75 8.75 4.42893 8.75 6.5C8.75 8.57107 7.07107 10.25 5 10.25C2.92893 10.25 1.25 8.57107 1.25 6.5ZM5 4.25C3.75736 4.25 2.75 5.25736 2.75 6.5C2.75 7.74264 3.75736 8.75 5 8.75C6.24264 8.75 7.25 7.74264 7.25 6.5C7.25 5.25736 6.24264 4.25 5 4.25Z" fill="#000"/>
<path d="M13 7.25C12.5858 7.25 12.25 6.91421 12.25 6.5C12.25 6.08579 12.5858 5.75 13 5.75H22C22.4142 5.75 22.75 6.08579 22.75 6.5C22.75 6.91421 22.4142 7.25 22 7.25H13Z" fill="#000"/>
<path d="M11 18.25C11.4142 18.25 11.75 17.9142 11.75 17.5C11.75 17.0858 11.4142 16.75 11 16.75H2C1.58579 16.75 1.25 17.0858 1.25 17.5C1.25 17.9142 1.58579 18.25 2 18.25H11Z" fill="#000"/>
<path fill-rule="evenodd" clip-rule="evenodd" d="M19 13.75C16.9289 13.75 15.25 15.4289 15.25 17.5C15.25 19.5711 16.9289 21.25 19 21.25C21.0711 21.25 22.75 19.5711 22.75 17.5C22.75 15.4289 21.0711 13.75 19 13.75ZM16.75 17.5C16.75 16.2574 17.7574 15.25 19 15.25C20.2426 15.25 21.25 16.2574 21.25 17.5C21.25 18.7426 20.2426 19.75 19 19.75C17.7574 19.75 16.75 18.7426 16.75 17.5Z" fill="#000"/>
</svg>
