<svg width="24" height="24" viewBox="0 0 24 24" fill="none" xmlns="http://www.w3.org/2000/svg">
<path d="M12.75 7.9997C12.75 7.58549 12.4142 7.2497 12 7.2497C11.5858 7.2497 11.25 7.58549 11.25 7.9997V11.9997C11.25 12.2631 11.3882 12.5073 11.6141 12.6428L14.1141 14.1428C14.4693 14.3559 14.93 14.2408 15.1431 13.8856C15.3562 13.5304 15.2411 13.0697 14.8859 12.8566L12.75 11.5751V7.9997Z" fill="#000"/>
<path fill-rule="evenodd" clip-rule="evenodd" d="M4.71322 6.07024C5.07934 5.35169 5.64141 4.75386 6.33183 4.34435L7.02787 1.73419C7.26134 0.85868 8.05424 0.249512 8.96034 0.249512H15.0396C15.9458 0.249512 16.7387 0.858679 16.9721 1.73419L17.6682 4.34435C18.3586 4.75386 18.9207 5.35169 19.2868 6.07024C19.5404 6.56794 19.6484 7.10982 19.6998 7.73983C19.75 8.35409 19.75 9.11463 19.75 10.0671V13.9323C19.75 14.8848 19.75 15.6453 19.6998 16.2596C19.6484 16.8896 19.5404 17.4315 19.2868 17.9292C18.9207 18.6477 18.3586 19.2455 17.6682 19.655L16.9721 22.2652C16.7387 23.1407 15.9458 23.7499 15.0397 23.7499H8.96035C8.05425 23.7499 7.26135 23.1407 7.02788 22.2652L6.33184 19.6551C5.64141 19.2455 5.07934 18.6477 4.71322 17.9292C4.45963 17.4315 4.35165 16.8896 4.30018 16.2596C4.24999 15.6453 4.24999 14.8848 4.25 13.9323V10.0671C4.24999 9.11465 4.24999 8.35409 4.30018 7.73983C4.35165 7.10982 4.45963 6.56794 4.71322 6.07024ZM8.24013 3.79987C8.16693 3.80586 8.09491 3.8126 8.02401 3.82025L8.47723 2.12068C8.53559 1.9018 8.73382 1.74951 8.96034 1.74951L15.0396 1.74951C15.2662 1.74951 15.4644 1.9018 15.5228 2.12068L15.976 3.82025C15.9051 3.8126 15.8331 3.80586 15.7599 3.79987C15.1456 3.74969 14.3851 3.74969 13.4326 3.7497H10.5674C9.61494 3.74969 8.8544 3.74969 8.24013 3.79987ZM15.7599 20.1995C15.8331 20.1935 15.9051 20.1868 15.976 20.1792L15.5228 21.8787C15.4644 22.0976 15.2662 22.2499 15.0397 22.2499H8.96035C8.73382 22.2499 8.5356 22.0976 8.47723 21.8787L8.02402 20.1792C8.09491 20.1868 8.16693 20.1935 8.24013 20.1995C8.85439 20.2497 9.61493 20.2497 10.5674 20.2497H13.4326C14.3851 20.2497 15.1456 20.2497 15.7599 20.1995ZM8.36228 5.29489C7.82503 5.33879 7.50252 5.42154 7.25153 5.54943C6.73408 5.81308 6.31338 6.23378 6.04973 6.75123C5.92184 7.00222 5.83909 7.32473 5.79519 7.86198C5.75058 8.40799 5.75 9.10723 5.75 10.0997V13.8997C5.75 14.8922 5.75058 15.5914 5.79519 16.1374C5.83909 16.6747 5.92184 16.9972 6.04973 17.2482C6.31338 17.7656 6.73408 18.1863 7.25153 18.45C7.50252 18.5779 7.82503 18.6606 8.36228 18.7045C8.90829 18.7491 9.60753 18.7497 10.6 18.7497H13.4C14.3925 18.7497 15.0917 18.7491 15.6377 18.7045C16.175 18.6606 16.4975 18.5779 16.7485 18.45C17.2659 18.1863 17.6866 17.7656 17.9503 17.2482C18.0782 16.9972 18.1609 16.6747 18.2048 16.1374C18.2494 15.5914 18.25 14.8922 18.25 13.8997V10.0997C18.25 9.10723 18.2494 8.40799 18.2048 7.86198C18.1609 7.32473 18.0782 7.00222 17.9503 6.75123C17.6866 6.23378 17.2659 5.81308 16.7485 5.54943C16.4975 5.42154 16.175 5.33879 15.6377 5.29489C15.0917 5.25028 14.3925 5.2497 13.4 5.2497H10.6C9.60753 5.2497 8.90829 5.25028 8.36228 5.29489Z" fill="#000"/>
</svg>
