<svg width="24" height="24" viewBox="0 0 24 24" fill="none" xmlns="http://www.w3.org/2000/svg">
<path d="M12.75 7.99982C12.75 7.58561 12.4142 7.24982 12 7.24982C11.5858 7.24982 11.25 7.58561 11.25 7.99982V11.9998C11.25 12.2633 11.3882 12.5074 11.6141 12.6429L14.1141 14.1429C14.4693 14.3561 14.93 14.2409 15.1431 13.8857C15.3562 13.5305 15.2411 13.0698 14.8859 12.8567L12.75 11.5752V7.99982Z" fill="#000"/>
<path fill-rule="evenodd" clip-rule="evenodd" d="M4.71322 6.07036C5.07934 5.35181 5.64141 4.75399 6.33183 4.34447L7.02787 1.73431C7.26134 0.858802 8.05424 0.249634 8.96034 0.249634H15.0396C15.9458 0.249634 16.7387 0.858802 16.9721 1.73431L17.6682 4.34447C18.3586 4.75398 18.9207 5.35181 19.2868 6.07036C19.5404 6.56806 19.6484 7.10994 19.6998 7.73995C19.75 8.35421 19.75 9.11476 19.75 10.0672V13.9325C19.75 14.8849 19.75 15.6454 19.6998 16.2597C19.6484 16.8897 19.5404 17.4316 19.2868 17.9293C18.9207 18.6478 18.3586 19.2457 17.6682 19.6552L16.9721 22.2653C16.7387 23.1408 15.9458 23.75 15.0397 23.75H8.96035C8.05425 23.75 7.26135 23.1408 7.02788 22.2653L6.33184 19.6552C5.64141 19.2457 5.07934 18.6478 4.71322 17.9293C4.45963 17.4316 4.35165 16.8897 4.30018 16.2597C4.24999 15.6454 4.24999 14.8849 4.25 13.9324V10.0672C4.24999 9.11477 4.24999 8.35421 4.30018 7.73995C4.35165 7.10994 4.45963 6.56806 4.71322 6.07036ZM8.24013 3.8C8.16693 3.80598 8.09491 3.81272 8.02401 3.82037L8.47723 2.1208C8.53559 1.90193 8.73382 1.74963 8.96034 1.74963L15.0396 1.74963C15.2662 1.74963 15.4644 1.90193 15.5228 2.1208L15.976 3.82037C15.9051 3.81272 15.8331 3.80598 15.7599 3.8C15.1456 3.74981 14.3851 3.74981 13.4326 3.74982H10.5674C9.61494 3.74981 8.8544 3.74981 8.24013 3.8ZM15.7599 20.1996C15.8331 20.1937 15.9051 20.1869 15.976 20.1793L15.5228 21.8788C15.4644 22.0977 15.2662 22.25 15.0397 22.25H8.96035C8.73382 22.25 8.5356 22.0977 8.47723 21.8788L8.02402 20.1793C8.09491 20.1869 8.16693 20.1937 8.24013 20.1996C8.85439 20.2498 9.61493 20.2498 10.5674 20.2498H13.4326C14.3851 20.2498 15.1456 20.2498 15.7599 20.1996ZM8.36228 5.29502C7.82503 5.33891 7.50252 5.42167 7.25153 5.54955C6.73408 5.81321 6.31338 6.2339 6.04973 6.75135C5.92184 7.00234 5.83909 7.32485 5.79519 7.8621C5.75058 8.40811 5.75 9.10735 5.75 10.0998V13.8998C5.75 14.8923 5.75058 15.5915 5.79519 16.1375C5.83909 16.6748 5.92184 16.9973 6.04973 17.2483C6.31338 17.7657 6.73408 18.1864 7.25153 18.4501C7.50252 18.578 7.82503 18.6607 8.36228 18.7046C8.90829 18.7492 9.60753 18.7498 10.6 18.7498H13.4C14.3925 18.7498 15.0917 18.7492 15.6377 18.7046C16.175 18.6607 16.4975 18.578 16.7485 18.4501C17.2659 18.1864 17.6866 17.7657 17.9503 17.2483C18.0782 16.9973 18.1609 16.6748 18.2048 16.1375C18.2494 15.5915 18.25 14.8923 18.25 13.8998V10.0998C18.25 9.10735 18.2494 8.40811 18.2048 7.8621C18.1609 7.32485 18.0782 7.00234 17.9503 6.75135C17.6866 6.2339 17.2659 5.81321 16.7485 5.54955C16.4975 5.42167 16.175 5.33891 15.6377 5.29502C15.0917 5.2504 14.3925 5.24982 13.4 5.24982H10.6C9.60753 5.24982 8.90829 5.2504 8.36228 5.29502Z" fill="#000"/>
</svg>
