<svg width="24" height="24" viewBox="0 0 24 24" fill="none" xmlns="http://www.w3.org/2000/svg">
<path d="M19.75 4C19.75 4.41421 19.4142 4.75 19 4.75H2C1.58579 4.75 1.25 4.41421 1.25 4C1.25 3.58579 1.58579 3.25 2 3.25H19C19.4142 3.25 19.75 3.58579 19.75 4Z" fill="#000"/>
<path d="M12.75 11C12.75 11.4142 12.4142 11.75 12 11.75H2C1.58579 11.75 1.25 11.4142 1.25 11C1.25 10.5858 1.58579 10.25 2 10.25H12C12.4142 10.25 12.75 10.5858 12.75 11Z" fill="#000"/>
<path d="M5 18.75C5.41421 18.75 5.75 18.4142 5.75 18C5.75 17.5858 5.41421 17.25 5 17.25H2C1.58579 17.25 1.25 17.5858 1.25 18C1.25 18.4142 1.58579 18.75 2 18.75H5Z" fill="#000"/>
<path d="M13.4697 14.5303C13.1768 14.2374 13.1768 13.7626 13.4697 13.4697L17.4697 9.46967C17.6103 9.32902 17.8011 9.25 18 9.25C18.1989 9.25 18.3897 9.32902 18.5303 9.46967L22.5303 13.4697C22.8232 13.7626 22.8232 14.2374 22.5303 14.5303C22.2374 14.8232 21.7626 14.8232 21.4697 14.5303L18.75 11.8107L18.75 20C18.75 20.4142 18.4142 20.75 18 20.75C17.5858 20.75 17.25 20.4142 17.25 20L17.25 11.8107L14.5303 14.5303C14.2374 14.8232 13.7626 14.8232 13.4697 14.5303Z" fill="#000"/>
</svg>
