<svg width="24" height="24" viewBox="0 0 24 24" fill="none" xmlns="http://www.w3.org/2000/svg">
<path fill-rule="evenodd" clip-rule="evenodd" d="M13.5589 10.1213C12.688 10.9586 11.3112 10.9586 10.4403 10.1213L4.88193 4.77785C3.55122 3.49858 4.45677 1.25 6.30266 1.25L17.6965 1.25C19.5424 1.25 20.4479 3.49858 19.1172 4.77785L13.5589 10.1213ZM11.4798 9.03995C11.7701 9.31905 12.229 9.31905 12.5194 9.03995L18.0777 3.6965C18.4347 3.35328 18.1917 2.75 17.6965 2.75L6.30266 2.75C5.80742 2.75 5.56447 3.35328 5.92149 3.6965L11.4798 9.03995Z" fill="#000"/>
<path fill-rule="evenodd" clip-rule="evenodd" d="M13.5589 13.8787C12.688 13.0414 11.3112 13.0414 10.4403 13.8787L4.88193 19.2222C3.55122 20.5014 4.45677 22.75 6.30266 22.75H17.6965C19.5424 22.75 20.4479 20.5014 19.1172 19.2222L13.5589 13.8787ZM11.4798 14.9601C11.7701 14.681 12.229 14.681 12.5194 14.9601L18.0777 20.3035C18.4347 20.6467 18.1917 21.25 17.6965 21.25H6.30266C5.80742 21.25 5.56447 20.6467 5.92149 20.3035L11.4798 14.9601Z" fill="#000"/>
</svg>
