<svg width="24" height="24" viewBox="0 0 24 24" fill="none" xmlns="http://www.w3.org/2000/svg">
<path fill-rule="evenodd" clip-rule="evenodd" d="M13.5589 1.87797C12.688 1.04068 11.3112 1.04068 10.4403 1.87797L4.88193 7.22143C3.55122 8.5007 4.45677 10.7493 6.30266 10.7493L17.6965 10.7493C19.5424 10.7493 20.4479 8.5007 19.1172 7.22143L13.5589 1.87797ZM11.4798 2.95932C11.7701 2.68023 12.229 2.68023 12.5194 2.95932L18.0777 8.30278C18.4347 8.646 18.1917 9.24928 17.6965 9.24928L6.30266 9.24928C5.80742 9.24928 5.56447 8.646 5.92149 8.30278L11.4798 2.95932Z" fill="#000"/>
<path fill-rule="evenodd" clip-rule="evenodd" d="M13.5589 22.122C12.688 22.9593 11.3112 22.9593 10.4403 22.122L4.88193 16.7786C3.55122 15.4993 4.45677 13.2507 6.30266 13.2507L17.6965 13.2507C19.5424 13.2507 20.4479 15.4993 19.1172 16.7786L13.5589 22.122ZM11.4798 21.0407C11.7701 21.3198 12.229 21.3198 12.5194 21.0407L18.0777 15.6972C18.4347 15.354 18.1917 14.7507 17.6965 14.7507L6.30266 14.7507C5.80742 14.7507 5.56447 15.354 5.92149 15.6972L11.4798 21.0407Z" fill="#000"/>
</svg>
