<svg width="24" height="24" viewBox="0 0 24 24" fill="none" xmlns="http://www.w3.org/2000/svg">
<path d="M12 5.75C8.54822 5.75 5.75 8.54822 5.75 12C5.75 13.749 6.46742 15.3291 7.62594 16.4643C7.92179 16.7542 7.92661 17.2291 7.6367 17.5249C7.34679 17.8208 6.87194 17.8256 6.57609 17.5357C5.14152 16.1299 4.25 14.1684 4.25 12C4.25 7.71979 7.71979 4.25 12 4.25C12.3752 4.25 12.7445 4.27671 13.1062 4.32845C13.5162 4.3871 13.8011 4.76705 13.7424 5.17709C13.6838 5.58713 13.3038 5.87198 12.8938 5.81333C12.6023 5.77163 12.3039 5.75 12 5.75Z" fill="#000"/>
<path d="M18.8229 10.2576C19.233 10.1989 19.6129 10.4838 19.6716 10.8938C19.7233 11.2555 19.75 11.6248 19.75 12C19.75 14.1684 18.8585 16.1299 17.4239 17.5357C17.1281 17.8256 16.6532 17.8208 16.3633 17.5249C16.0734 17.2291 16.0782 16.7542 16.3741 16.4643C17.5326 15.3291 18.25 13.749 18.25 12C18.25 11.6961 18.2284 11.3977 18.1867 11.1062C18.128 10.6962 18.4129 10.3162 18.8229 10.2576Z" fill="#000"/>
<path fill-rule="evenodd" clip-rule="evenodd" d="M17.4932 7.62949L17.6393 7.39181C17.8204 7.09614 17.7752 6.71481 17.5301 6.46965C17.2849 6.22449 16.9036 6.17939 16.6079 6.36049L16.3702 6.50653C16.2189 6.59969 16.0021 6.73335 15.7403 6.89554C15.2167 7.21984 14.5119 7.65865 13.7884 8.11612C13.0656 8.57307 12.3205 9.05089 11.7175 9.45258C11.4164 9.65317 11.1463 9.8377 10.9303 9.99279C10.7304 10.1364 10.5317 10.2863 10.4089 10.4091C9.53021 11.2878 9.53021 12.7124 10.4089 13.5911C11.2876 14.4698 12.7122 14.4698 13.5909 13.5911C13.7137 13.4682 13.8636 13.2696 14.0072 13.0696C14.1623 12.8536 14.3468 12.5835 14.5474 12.2824C14.949 11.6794 15.4268 10.9342 15.8838 10.2115C16.3412 9.48789 16.78 8.78311 17.1043 8.25949C17.2664 7.9976 17.4001 7.78084 17.4932 7.62949ZM14.6159 9.40994L14.6604 9.33944L14.59 9.38397C13.8708 9.83866 13.1374 10.3091 12.5491 10.701C12.2546 10.8972 12.0009 11.0707 11.8053 11.2112C11.7074 11.2814 11.6279 11.3407 11.5669 11.3886C11.5366 11.4124 11.513 11.4317 11.4953 11.4468C11.4775 11.462 11.4695 11.4698 11.4695 11.4698C11.1767 11.7627 11.1767 12.2375 11.4695 12.5304C11.7624 12.8233 12.2373 12.8233 12.5302 12.5304C12.5302 12.5304 12.538 12.5224 12.5531 12.5047C12.5682 12.487 12.5876 12.4634 12.6114 12.433C12.6592 12.3721 12.7185 12.2926 12.7888 12.1947C12.9292 11.9991 13.1028 11.7454 13.299 11.4509C13.6908 10.8626 14.1612 10.1291 14.6159 9.40994Z" fill="#000"/>
<path fill-rule="evenodd" clip-rule="evenodd" d="M0.25 12C0.25 5.51065 5.51065 0.25 12 0.25C18.4893 0.25 23.75 5.51065 23.75 12C23.75 18.4893 18.4893 23.75 12 23.75C5.51065 23.75 0.25 18.4893 0.25 12ZM12 1.75C6.33908 1.75 1.75 6.33908 1.75 12C1.75 17.6609 6.33908 22.25 12 22.25C17.6609 22.25 22.25 17.6609 22.25 12C22.25 6.33908 17.6609 1.75 12 1.75Z" fill="#000"/>
</svg>
