<svg width="24" height="24" viewBox="0 0 24 24" fill="none" xmlns="http://www.w3.org/2000/svg">
<path fill-rule="evenodd" clip-rule="evenodd" d="M2.53021 1.46967C2.23731 1.17678 1.76244 1.17678 1.46955 1.46967C1.17665 1.76256 1.17665 2.23744 1.46955 2.53033L6.55292 7.6137L2.99207 8.07835C1.31808 8.29678 0.651025 10.363 1.88127 11.519L5.43805 14.8613C5.50017 14.9197 5.52826 15.0057 5.51259 15.0895L4.61714 19.8765C4.30824 21.5278 6.04969 22.8011 7.52961 22.006L11.8818 19.6678C11.9557 19.6281 12.0445 19.6281 12.1184 19.6678L16.4706 22.006C17.7675 22.7028 19.2651 21.8112 19.408 20.4688L21.4695 22.5303C21.7624 22.8232 22.2373 22.8232 22.5302 22.5303C22.8231 22.2374 22.8231 21.7626 22.5302 21.4697L18.8696 17.809C18.8645 17.8038 18.8593 17.7986 18.8541 17.7935L8.68793 7.6274C8.68066 7.61981 8.67323 7.61238 8.66566 7.60512L2.53021 1.46967ZM7.89103 8.95181L3.18615 9.56574C2.76766 9.62035 2.60089 10.1369 2.90846 10.4259L6.46524 13.7682C6.90005 14.1768 7.09672 14.7788 6.98702 15.3653L6.09156 20.1523C6.01434 20.5651 6.4497 20.8834 6.81968 20.6847L11.1719 18.3464C11.6891 18.0685 12.3112 18.0685 12.8284 18.3464L17.1806 20.6847C17.5505 20.8834 17.9859 20.5651 17.9087 20.1523L17.6365 18.6973L7.89103 8.95181Z" fill="#000"/>
<path d="M13.8017 2.88155C13.0745 1.37281 10.9258 1.37282 10.1985 2.88155L9.0058 5.35584C8.82594 5.72897 8.98261 6.17725 9.35573 6.35711C9.72886 6.53697 10.1771 6.3803 10.357 6.00718L11.5497 3.53289C11.7315 3.1557 12.2687 3.15571 12.4505 3.53289L14.5813 7.95319C14.8378 8.48534 15.3455 8.85215 15.9313 8.92859L20.8141 9.56574C21.2326 9.62035 21.3993 10.1369 21.0918 10.4259L17.6722 13.6393C17.3703 13.923 17.3555 14.3976 17.6392 14.6995C17.9228 15.0013 18.3975 15.0161 18.6993 14.7324L22.119 11.519C23.3492 10.363 22.6822 8.29678 21.0082 8.07835L16.1254 7.4412C16.0417 7.43028 15.9691 7.37788 15.9325 7.30186L13.8017 2.88155Z" fill="#000"/>
</svg>
