<svg width="24" height="24" viewBox="0 0 24 24" fill="none" xmlns="http://www.w3.org/2000/svg">
<path fill-rule="evenodd" clip-rule="evenodd" d="M10.1985 2.88027C10.9258 1.37154 13.0745 1.37153 13.8017 2.88027L15.9325 7.30057C15.9691 7.37659 16.0417 7.429 16.1254 7.43992L21.0082 8.07707C22.6822 8.2955 23.3492 10.3617 22.119 11.5177L18.5622 14.86C18.5001 14.9184 18.472 15.0044 18.4876 15.0882L19.3831 19.8752C19.692 21.5265 17.9505 22.7999 16.4706 22.0048L12.1184 19.6665C12.0446 19.6268 11.9557 19.6268 11.8818 19.6665L7.52961 22.0048C6.04969 22.7999 4.30824 21.5265 4.61714 19.8752L5.51259 15.0882C5.52826 15.0044 5.50017 14.9184 5.43805 14.86L1.88127 11.5177C0.651025 10.3617 1.31808 8.2955 2.99207 8.07706L7.87488 7.43992C7.95857 7.429 8.03109 7.37659 8.06774 7.30057L10.1985 2.88027ZM12.4505 3.5316C12.2687 3.15442 11.7315 3.15442 11.5497 3.53161L9.41894 7.95191C9.16243 8.48406 8.65475 8.85087 8.06897 8.92731L3.18615 9.56446C2.76766 9.61906 2.60089 10.1356 2.90845 10.4246L6.46524 13.7669C6.90005 14.1755 7.09672 14.7775 6.98702 15.364L6.09156 20.151C6.01434 20.5638 6.4497 20.8822 6.81968 20.6834L11.1719 18.3451C11.6891 18.0672 12.3112 18.0672 12.8284 18.3451L17.1806 20.6834C17.5505 20.8822 17.9859 20.5638 17.9087 20.151L17.0132 15.364C16.9035 14.7775 17.1002 14.1755 17.535 13.7669L21.0918 10.4246C21.3993 10.1356 21.2326 9.61906 20.8141 9.56446L15.9313 8.92731C15.3455 8.85087 14.8378 8.48406 14.5813 7.95191L12.4505 3.5316Z" fill="#000"/>
</svg>
