<svg width="24" height="24" viewBox="0 0 24 24" fill="none" xmlns="http://www.w3.org/2000/svg">
<path fill-rule="evenodd" clip-rule="evenodd" d="M13.2386 7.02791C12.7386 5.99069 11.2614 5.9907 10.7614 7.02792L9.75488 9.11605L7.44779 9.4171C6.29695 9.56727 5.83837 10.9877 6.68413 11.7825L8.36269 13.3598L7.94015 15.6187C7.72779 16.7539 8.925 17.6293 9.94241 17.0827L12 15.9772L14.0576 17.0827C15.075 17.6293 16.2722 16.7539 16.0599 15.6187L15.6373 13.3598L17.3159 11.7825C18.1617 10.9877 17.7031 9.56727 16.5522 9.4171L14.2451 9.11605L13.2386 7.02791ZM11.0473 9.88925L12 7.91293L12.9527 9.88925C13.1359 10.2693 13.4985 10.5313 13.9169 10.5859L16.0962 10.8703L14.5104 12.3604C14.1999 12.6522 14.0594 13.0822 14.1378 13.5011L14.5374 15.6377L12.5916 14.5923C12.2222 14.3938 11.7778 14.3938 11.4084 14.5923L9.46261 15.6377L9.86227 13.5011C9.94064 13.0822 9.80016 12.6522 9.48959 12.3604L7.90386 10.8703L10.0831 10.5859C10.5015 10.5313 10.8641 10.2693 11.0473 9.88925Z" fill="#000"/>
<path fill-rule="evenodd" clip-rule="evenodd" d="M12 0.25C5.51065 0.25 0.25 5.51065 0.25 12C0.25 18.4893 5.51065 23.75 12 23.75C18.4893 23.75 23.75 18.4893 23.75 12C23.75 5.51065 18.4893 0.25 12 0.25ZM1.75 12C1.75 6.33908 6.33908 1.75 12 1.75C17.6609 1.75 22.25 6.33908 22.25 12C22.25 17.6609 17.6609 22.25 12 22.25C6.33908 22.25 1.75 17.6609 1.75 12Z" fill="#000"/>
</svg>
