<svg width="24" height="24" viewBox="0 0 24 24" fill="none" xmlns="http://www.w3.org/2000/svg">
<path fill-rule="evenodd" clip-rule="evenodd" d="M10.1986 2.88027C10.9259 1.37154 13.0746 1.37153 13.8018 2.88027L15.9326 7.30057C15.9693 7.37659 16.0418 7.429 16.1255 7.43992L21.0083 8.07707C22.6823 8.2955 23.3493 10.3617 22.1191 11.5177L18.5623 14.86C18.5002 14.9184 18.4721 15.0044 18.4878 15.0882L19.3832 19.8752C19.6921 21.5265 17.9507 22.7999 16.4708 22.0048L12.1186 19.6665C12.0447 19.6268 11.9558 19.6268 11.8819 19.6665L7.52973 22.0048C6.04981 22.7999 4.30836 21.5265 4.61726 19.8752L5.51271 15.0882C5.52838 15.0044 5.50029 14.9184 5.43817 14.86L1.88139 11.5177C0.651147 10.3617 1.3182 8.2955 2.99219 8.07706L7.87501 7.43992C7.95869 7.429 8.03121 7.37659 8.06786 7.30057L10.1986 2.88027ZM12.4506 3.5316C12.2688 3.15442 11.7317 3.15442 11.5498 3.53161L9.41907 7.95191C9.16255 8.48406 8.65487 8.85087 8.06909 8.92731L3.18628 9.56446C2.76778 9.61906 2.60102 10.1356 2.90858 10.4246L6.46536 13.7669C6.90017 14.1755 7.09685 14.7775 6.98714 15.364L6.09169 20.151C6.01446 20.5638 6.44982 20.8822 6.8198 20.6834L11.172 18.3451C11.6892 18.0672 12.3113 18.0672 12.8285 18.3451L17.1807 20.6834C17.5507 20.8822 17.986 20.5638 17.9088 20.151L17.0133 15.364C16.9036 14.7775 17.1003 14.1755 17.5351 13.7669L21.0919 10.4246C21.3995 10.1356 21.2327 9.61906 20.8142 9.56446L15.9314 8.92731C15.3456 8.85087 14.8379 8.48406 14.5814 7.95191L12.4506 3.5316Z" fill="#000"/>
</svg>
