<svg width="24" height="24" viewBox="0 0 24 24" fill="none" xmlns="http://www.w3.org/2000/svg">
<path fill-rule="evenodd" clip-rule="evenodd" d="M13.2386 7.02791C12.7386 5.99069 11.2614 5.9907 10.7614 7.02792L9.75488 9.11605L7.44779 9.4171C6.29695 9.56727 5.83837 10.9877 6.68413 11.7825L8.36269 13.3598L7.94015 15.6187C7.72779 16.7539 8.925 17.6293 9.94241 17.0827L12 15.9772L14.0576 17.0827C15.075 17.6293 16.2722 16.7539 16.0599 15.6187L15.6373 13.3598L17.3159 11.7825C18.1617 10.9877 17.7031 9.56727 16.5522 9.4171L14.2451 9.11605L13.2386 7.02791ZM11.0473 9.88925L12 7.91293L12.9527 9.88925C13.1359 10.2693 13.4985 10.5313 13.9169 10.5859L16.0962 10.8703L14.5104 12.3604C14.1999 12.6522 14.0594 13.0822 14.1378 13.5011L14.5374 15.6377L12.5916 14.5923C12.2222 14.3938 11.7778 14.3938 11.4084 14.5923L9.46261 15.6377L9.86227 13.5011C9.94064 13.0822 9.80016 12.6522 9.48959 12.3604L7.90386 10.8703L10.0831 10.5859C10.5015 10.5313 10.8641 10.2693 11.0473 9.88925Z" fill="#000"/>
<path fill-rule="evenodd" clip-rule="evenodd" d="M15.633 1.25H8.367C7.27486 1.24999 6.40935 1.24999 5.71173 1.30699C4.99834 1.36527 4.39472 1.48688 3.84355 1.76772C2.94978 2.22312 2.22312 2.94978 1.76772 3.84355C1.48688 4.39472 1.36527 4.99834 1.30699 5.71173C1.24999 6.40935 1.24999 7.27485 1.25 8.36699V15.633C1.24999 16.7251 1.24999 17.5906 1.30699 18.2883C1.36527 19.0017 1.48688 19.6053 1.76772 20.1565C2.22312 21.0502 2.94978 21.7769 3.84355 22.2323C4.39472 22.5131 4.99834 22.6347 5.71173 22.693C6.40935 22.75 7.27484 22.75 8.36698 22.75H15.633C16.7252 22.75 17.5906 22.75 18.2883 22.693C19.0017 22.6347 19.6053 22.5131 20.1565 22.2323C21.0502 21.7769 21.7769 21.0502 22.2323 20.1565C22.5131 19.6053 22.6347 19.0017 22.693 18.2883C22.75 17.5906 22.75 16.7252 22.75 15.633V8.36698C22.75 7.27484 22.75 6.40935 22.693 5.71173C22.6347 4.99834 22.5131 4.39472 22.2323 3.84355C21.7769 2.94978 21.0502 2.22312 20.1565 1.76772C19.6053 1.48688 19.0017 1.36527 18.2883 1.30699C17.5906 1.24999 16.7251 1.24999 15.633 1.25ZM4.52453 3.10423C4.829 2.94909 5.21325 2.85271 5.83388 2.80201C6.46327 2.75058 7.26752 2.75 8.4 2.75H15.6C16.7325 2.75 17.5367 2.75058 18.1661 2.80201C18.7867 2.85271 19.171 2.94909 19.4755 3.10423C20.087 3.41582 20.5842 3.913 20.8958 4.52453C21.0509 4.829 21.1473 5.21325 21.198 5.83388C21.2494 6.46327 21.25 7.26752 21.25 8.4V15.6C21.25 16.7325 21.2494 17.5367 21.198 18.1661C21.1473 18.7867 21.0509 19.171 20.8958 19.4755C20.5842 20.087 20.087 20.5842 19.4755 20.8958C19.171 21.0509 18.7867 21.1473 18.1661 21.198C17.5367 21.2494 16.7325 21.25 15.6 21.25H8.4C7.26752 21.25 6.46327 21.2494 5.83388 21.198C5.21325 21.1473 4.829 21.0509 4.52453 20.8958C3.913 20.5842 3.41582 20.087 3.10423 19.4755C2.94909 19.171 2.85271 18.7867 2.80201 18.1661C2.75058 17.5367 2.75 16.7325 2.75 15.6V8.4C2.75 7.26752 2.75058 6.46327 2.80201 5.83388C2.85271 5.21325 2.94909 4.829 3.10423 4.52453C3.41582 3.913 3.913 3.41582 4.52453 3.10423Z" fill="#000"/>
</svg>
