<svg width="24" height="24" viewBox="0 0 24 24" fill="none" xmlns="http://www.w3.org/2000/svg">
<path d="M9.00006 0.75C8.58585 0.75 8.25006 1.08579 8.25006 1.5C8.25006 1.91421 8.58585 2.25 9.00006 2.25H11.2501V3.77845C10.3841 3.8444 9.54894 4.02359 8.75982 4.30157C8.36914 4.43919 8.16399 4.86746 8.30161 5.25815C8.43923 5.64883 8.8675 5.85398 9.25819 5.71636C10.1151 5.41452 11.0375 5.25 12.0001 5.25C16.5564 5.25 20.2501 8.94365 20.2501 13.5C20.2501 14.4625 20.0855 15.385 19.7837 16.2419C19.6461 16.6326 19.8512 17.0608 20.2419 17.1985C20.6326 17.3361 21.0609 17.1309 21.1985 16.7402C21.5559 15.7255 21.7501 14.6346 21.7501 13.5C21.7501 10.9502 20.7713 8.62907 19.169 6.89171L20.5304 5.53033C20.8233 5.23744 20.8233 4.76256 20.5304 4.46967C20.2375 4.17678 19.7626 4.17678 19.4697 4.46967L18.07 5.86942C16.5876 4.68867 14.7535 3.93082 12.7501 3.77842V2.25H15.0001C15.4143 2.25 15.7501 1.91421 15.7501 1.5C15.7501 1.08579 15.4143 0.75 15.0001 0.75H9.00006Z" fill="#000"/>
<path fill-rule="evenodd" clip-rule="evenodd" d="M6.96856 5.9079L19.5922 18.5315C19.5981 18.5373 19.6039 18.5431 19.6096 18.549L22.5303 21.4697C22.8232 21.7626 22.8232 22.2374 22.5303 22.5303C22.2374 22.8232 21.7626 22.8232 21.4697 22.5303L19.1105 20.1712C17.3326 22.0653 14.8045 23.25 12.0001 23.25C6.61528 23.25 2.25006 18.8848 2.25006 13.5C2.25006 10.6955 3.4348 8.16743 5.3289 6.38956L1.46967 2.53033C1.17678 2.23744 1.17678 1.76256 1.46967 1.46967C1.76256 1.17678 2.23744 1.17678 2.53033 1.46967L6.95108 5.89042C6.95699 5.89613 6.96281 5.90196 6.96856 5.9079ZM18.0492 19.1099L6.39016 7.45083C4.76528 8.95835 3.75006 11.1104 3.75006 13.5C3.75006 18.0563 7.44371 21.75 12.0001 21.75C14.3896 21.75 16.5417 20.7348 18.0492 19.1099Z" fill="#000"/>
</svg>
