<svg width="24" height="24" viewBox="0 0 24 24" fill="none" xmlns="http://www.w3.org/2000/svg">
<path d="M12.75 9C12.75 8.58579 12.4142 8.25 12 8.25C11.5858 8.25 11.25 8.58579 11.25 9V13.5C11.25 13.9142 11.5858 14.25 12 14.25C12.4142 14.25 12.75 13.9142 12.75 13.5V9Z" fill="#000"/>
<path fill-rule="evenodd" clip-rule="evenodd" d="M12.75 2.25V3.77842C14.7534 3.93082 16.5876 4.68867 18.0699 5.86941L19.4697 4.46967C19.7626 4.17678 20.2374 4.17678 20.5303 4.46967C20.8232 4.76256 20.8232 5.23744 20.5303 5.53033L19.169 6.8917C20.7712 8.62906 21.75 10.9502 21.75 13.5C21.75 18.8848 17.3848 23.25 12 23.25C6.61522 23.25 2.25 18.8848 2.25 13.5C2.25 8.36758 6.21566 4.16139 11.25 3.77842V2.25H9C8.58579 2.25 8.25 1.91421 8.25 1.5C8.25 1.08579 8.58579 0.75 9 0.75H15C15.4142 0.75 15.75 1.08579 15.75 1.5C15.75 1.91421 15.4142 2.25 15 2.25H12.75ZM3.75 13.5C3.75 8.94365 7.44365 5.25 12 5.25C16.5563 5.25 20.25 8.94365 20.25 13.5C20.25 18.0564 16.5563 21.75 12 21.75C7.44365 21.75 3.75 18.0564 3.75 13.5Z" fill="#000"/>
</svg>
