<svg width="24" height="24" viewBox="0 0 24 24" fill="none" xmlns="http://www.w3.org/2000/svg">
<path fill-rule="evenodd" clip-rule="evenodd" d="M7.56739 1.25H16.4326C17.3851 1.24999 18.1456 1.24999 18.7599 1.30018C19.3899 1.35165 19.9318 1.45963 20.4295 1.71322C21.2291 2.12068 21.8793 2.77085 22.2868 3.57054C22.5404 4.06824 22.6484 4.61012 22.6998 5.24013C22.75 5.85439 22.75 6.61493 22.75 7.56737V16.4326C22.75 17.3851 22.75 18.1456 22.6998 18.7599C22.6484 19.3899 22.5404 19.9318 22.2868 20.4295C21.8793 21.2291 21.2291 21.8793 20.4295 22.2868C19.9318 22.5404 19.3899 22.6484 18.7599 22.6998C18.1456 22.75 17.3851 22.75 16.4326 22.75H7.56737C6.61493 22.75 5.85439 22.75 5.24013 22.6998C4.61012 22.6484 4.06824 22.5404 3.57054 22.2868C2.77085 21.8793 2.12068 21.2291 1.71322 20.4295C1.45963 19.9318 1.35165 19.3899 1.30018 18.7599C1.24999 18.1456 1.24999 17.3851 1.25 16.4326V7.56739C1.24999 6.61494 1.24999 5.8544 1.30018 5.24013C1.35165 4.61012 1.45963 4.06824 1.71322 3.57054C2.12068 2.77085 2.77085 2.12068 3.57054 1.71322C4.06824 1.45963 4.61012 1.35165 5.24013 1.30018C5.8544 1.24999 6.61494 1.24999 7.56739 1.25ZM5.36228 2.79519C4.82503 2.83909 4.50252 2.92184 4.25153 3.04973C3.73408 3.31338 3.31338 3.73408 3.04973 4.25153C2.92184 4.50252 2.83909 4.82503 2.79519 5.36228C2.75058 5.90829 2.75 6.60753 2.75 7.6V16.4C2.75 17.3925 2.75058 18.0917 2.79519 18.6377C2.83909 19.175 2.92184 19.4975 3.04973 19.7485C3.31338 20.2659 3.73408 20.6866 4.25153 20.9503C4.50252 21.0782 4.82503 21.1609 5.36228 21.2048C5.90829 21.2494 6.60753 21.25 7.6 21.25H16.4C17.3925 21.25 18.0917 21.2494 18.6377 21.2048C19.175 21.1609 19.4975 21.0782 19.7485 20.9503C20.2659 20.6866 20.6866 20.2659 20.9503 19.7485C21.0782 19.4975 21.1609 19.175 21.2048 18.6377C21.2494 18.0917 21.25 17.3925 21.25 16.4V7.6C21.25 6.60753 21.2494 5.90829 21.2048 5.36228C21.1609 4.82503 21.0782 4.50252 20.9503 4.25153C20.6866 3.73408 20.2659 3.31338 19.7485 3.04973C19.4975 2.92184 19.175 2.83909 18.6377 2.79519C18.0917 2.75058 17.3925 2.75 16.4 2.75H7.6C6.60753 2.75 5.90829 2.75058 5.36228 2.79519Z" fill="#000"/>
</svg>
