<svg width="24" height="24" viewBox="0 0 24 24" fill="none" xmlns="http://www.w3.org/2000/svg">
<path fill-rule="evenodd" clip-rule="evenodd" d="M5.06155 1.25C3.79967 1.25 2.69971 2.10882 2.39366 3.33303L1.51493 6.84796C1.33897 7.55178 1.25 8.27452 1.25 9C1.25 10.0549 1.84249 11.0982 2.75 11.7079V19.25C2.75 21.183 4.317 22.75 6.25 22.75H9.49217L9.5 22.75L9.50783 22.75H14.4922L14.5 22.75L14.5078 22.75H17.75C19.683 22.75 21.25 21.183 21.25 19.25V11.7079C22.1575 11.0982 22.75 10.0549 22.75 9C22.75 8.27452 22.661 7.55178 22.4851 6.84796L21.6063 3.33303C21.3003 2.10882 20.2003 1.25 18.9384 1.25H5.06155ZM19.75 12.2398C19.6676 12.2466 19.5842 12.25 19.5 12.25C18.5606 12.25 17.6246 11.8901 17 11.2662C16.3754 11.8901 15.4394 12.25 14.5 12.25C13.5606 12.25 12.6246 11.8901 12 11.2662C11.3754 11.8901 10.4394 12.25 9.5 12.25C8.56058 12.25 7.62455 11.8901 7 11.2662C6.37545 11.8901 5.43942 12.25 4.5 12.25C4.4158 12.25 4.33243 12.2466 4.25 12.2398V19.25C4.25 20.3545 5.14543 21.25 6.25 21.25H8.75V16.5C8.75 15.5335 9.5335 14.75 10.5 14.75H13.5C14.4665 14.75 15.25 15.5335 15.25 16.5V21.25H17.75C18.8546 21.25 19.75 20.3545 19.75 19.25V12.2398ZM9.5 10.75C8.36868 10.75 7.75 10.0428 7.75 9.5C7.75 9.08579 7.41421 8.75 7 8.75C6.58579 8.75 6.25 9.08579 6.25 9.5C6.25 10.0428 5.63132 10.75 4.5 10.75C3.55836 10.75 2.75 9.86109 2.75 9C2.75 8.39716 2.82393 7.7966 2.97014 7.21176L3.84887 3.69683C3.98799 3.14037 4.48797 2.75 5.06155 2.75H18.9384C19.512 2.75 20.012 3.14037 20.1511 3.69683L21.0299 7.21176C21.1761 7.7966 21.25 8.39716 21.25 9C21.25 9.86109 20.4416 10.75 19.5 10.75C18.3687 10.75 17.75 10.0428 17.75 9.5C17.75 9.08579 17.4142 8.75 17 8.75C16.5858 8.75 16.25 9.08579 16.25 9.5C16.25 10.0428 15.6313 10.75 14.5 10.75C13.3687 10.75 12.75 10.0428 12.75 9.5C12.75 9.08579 12.4142 8.75 12 8.75C11.5858 8.75 11.25 9.08579 11.25 9.5C11.25 10.0428 10.6313 10.75 9.5 10.75ZM13.75 16.5V21.25H10.25V16.5C10.25 16.3619 10.3619 16.25 10.5 16.25H13.5C13.6381 16.25 13.75 16.3619 13.75 16.5Z" fill="#000"/>
</svg>
