<svg width="24" height="24" viewBox="0 0 24 24" fill="none" xmlns="http://www.w3.org/2000/svg">
<path d="M11.25 4.5C11.25 4.91421 11.5858 5.25 12 5.25C12.4142 5.25 12.75 4.91421 12.75 4.5V2C12.75 1.58579 12.4142 1.25 12 1.25C11.5858 1.25 11.25 1.58579 11.25 2V4.5Z" fill="#000"/>
<path fill-rule="evenodd" clip-rule="evenodd" d="M12 6.75C9.1005 6.75 6.75 9.1005 6.75 12C6.75 14.8995 9.1005 17.25 12 17.25C14.8995 17.25 17.25 14.8995 17.25 12C17.25 9.1005 14.8995 6.75 12 6.75ZM8.25 12C8.25 9.92893 9.92893 8.25 12 8.25C14.0711 8.25 15.75 9.92893 15.75 12C15.75 14.0711 14.0711 15.75 12 15.75C9.92893 15.75 8.25 14.0711 8.25 12Z" fill="#000"/>
<path d="M22 12.75C22.4142 12.75 22.75 12.4142 22.75 12C22.75 11.5858 22.4142 11.25 22 11.25H19.5C19.0858 11.25 18.75 11.5858 18.75 12C18.75 12.4142 19.0858 12.75 19.5 12.75H22Z" fill="#000"/>
<path d="M1.25 12C1.25 12.4142 1.58579 12.75 2 12.75H4.5C4.91421 12.75 5.25 12.4142 5.25 12C5.25 11.5858 4.91421 11.25 4.5 11.25H2C1.58579 11.25 1.25 11.5858 1.25 12Z" fill="#000"/>
<path d="M12 22.75C11.5858 22.75 11.25 22.4142 11.25 22V19.5C11.25 19.0858 11.5858 18.75 12 18.75C12.4142 18.75 12.75 19.0858 12.75 19.5V22C12.75 22.4142 12.4142 22.75 12 22.75Z" fill="#000"/>
<path d="M5.45925 4.39859C5.16636 4.1057 4.69149 4.1057 4.39859 4.39859C4.1057 4.69149 4.1057 5.16636 4.39859 5.45925L6.16636 7.22702C6.45925 7.51991 6.93413 7.51991 7.22702 7.22702C7.51991 6.93413 7.51991 6.45925 7.22702 6.16636L5.45925 4.39859Z" fill="#000"/>
<path d="M19.6014 5.45925C19.8943 5.16636 19.8943 4.69149 19.6014 4.39859C19.3085 4.1057 18.8336 4.1057 18.5407 4.39859L16.773 6.16636C16.4801 6.45925 16.4801 6.93413 16.773 7.22702C17.0659 7.51991 17.5407 7.51991 17.8336 7.22702L19.6014 5.45925Z" fill="#000"/>
<path d="M7.22702 17.8336C7.51991 17.5407 7.51991 17.0659 7.22702 16.773C6.93413 16.4801 6.45925 16.4801 6.16636 16.773L4.39859 18.5407C4.1057 18.8336 4.1057 19.3085 4.39859 19.6014C4.69149 19.8943 5.16636 19.8943 5.45925 19.6014L7.22702 17.8336Z" fill="#000"/>
<path d="M17.8336 16.773C17.5407 16.4801 17.0659 16.4801 16.773 16.773C16.4801 17.0659 16.4801 17.5407 16.773 17.8336L18.5407 19.6014C18.8336 19.8943 19.3085 19.8943 19.6014 19.6014C19.8943 19.3085 19.8943 18.8336 19.6014 18.5407L17.8336 16.773Z" fill="#000"/>
</svg>
