<svg width="24" height="24" viewBox="0 0 24 24" fill="none" xmlns="http://www.w3.org/2000/svg">
<path d="M11 18.5C11 17.9477 11.4477 17.5 12 17.5C12.5523 17.5 13.0001 17.9477 13.0001 18.5C13.0001 19.0523 12.5524 19.5 12.0001 19.5C11.4478 19.5 11 19.0523 11 18.5Z" fill="#000"/>
<path d="M10.5 4.25C10.0858 4.25 9.75 4.58579 9.75 5C9.75 5.41421 10.0858 5.75 10.5 5.75H13.5C13.9142 5.75 14.25 5.41421 14.25 5C14.25 4.58579 13.9142 4.25 13.5 4.25H10.5Z" fill="#000"/>
<path fill-rule="evenodd" clip-rule="evenodd" d="M8.66762 1.25H15.3324C16.215 1.24999 16.9231 1.24999 17.4957 1.29677C18.084 1.34484 18.595 1.44601 19.066 1.68597C19.8186 2.06947 20.4305 2.68139 20.814 3.43404C21.054 3.905 21.1552 4.41601 21.2032 5.00433C21.25 5.57691 21.25 6.28499 21.25 7.16761V16.8324C21.25 17.715 21.25 18.4231 21.2032 18.9957C21.1552 19.584 21.054 20.095 20.814 20.566C20.4305 21.3186 19.8186 21.9305 19.066 22.314C18.595 22.554 18.084 22.6552 17.4957 22.7032C16.9231 22.75 16.215 22.75 15.3324 22.75H8.66761C7.78499 22.75 7.07691 22.75 6.50433 22.7032C5.91601 22.6552 5.405 22.554 4.93404 22.314C4.18139 21.9305 3.56947 21.3186 3.18597 20.566C2.94601 20.095 2.84484 19.584 2.79677 18.9957C2.74999 18.4231 2.74999 17.715 2.75 16.8324V7.16763C2.74999 6.285 2.74999 5.57692 2.79677 5.00433C2.84484 4.41601 2.94601 3.905 3.18597 3.43404C3.56947 2.68139 4.18139 2.06947 4.93404 1.68597C5.405 1.44601 5.91601 1.34484 6.50433 1.29677C7.07692 1.24999 7.785 1.24999 8.66762 1.25ZM6.62648 2.79179C6.13092 2.83228 5.83928 2.90822 5.61502 3.02248C5.14462 3.26217 4.76217 3.64462 4.52248 4.11502C4.40822 4.33928 4.33228 4.63092 4.29179 5.12648C4.25058 5.6308 4.25 6.27754 4.25 7.2V16.8C4.25 17.7225 4.25058 18.3692 4.29179 18.8735C4.33228 19.3691 4.40822 19.6607 4.52248 19.885C4.76217 20.3554 5.14462 20.7378 5.61502 20.9775C5.83928 21.0918 6.13092 21.1677 6.62648 21.2082C7.1308 21.2494 7.77754 21.25 8.7 21.25H15.3C16.2225 21.25 16.8692 21.2494 17.3735 21.2082C17.8691 21.1677 18.1607 21.0918 18.385 20.9775C18.8554 20.7378 19.2378 20.3554 19.4775 19.885C19.5918 19.6607 19.6677 19.3691 19.7082 18.8735C19.7494 18.3692 19.75 17.7225 19.75 16.8V7.2C19.75 6.27754 19.7494 5.6308 19.7082 5.12648C19.6677 4.63092 19.5918 4.33928 19.4775 4.11502C19.2378 3.64462 18.8554 3.26217 18.385 3.02248C18.1607 2.90822 17.8691 2.83228 17.3735 2.79179C16.8692 2.75058 16.2225 2.75 15.3 2.75H8.7C7.77754 2.75 7.1308 2.75058 6.62648 2.79179Z" fill="#000"/>
</svg>
