<svg width="24" height="24" viewBox="0 0 24 24" fill="none" xmlns="http://www.w3.org/2000/svg">
<path fill-rule="evenodd" clip-rule="evenodd" d="M19.2501 7.24988C19.2501 5.86917 18.1308 4.74988 16.7501 4.74988C15.3694 4.74988 14.2501 5.86917 14.2501 7.24988C14.2501 8.63059 15.3694 9.74988 16.7501 9.74988C18.1308 9.74988 19.2501 8.63059 19.2501 7.24988ZM16.7501 6.24988C17.3024 6.24988 17.7501 6.69759 17.7501 7.24988C17.7501 7.80216 17.3024 8.24988 16.7501 8.24988C16.1978 8.24988 15.7501 7.80216 15.7501 7.24988C15.7501 6.69759 16.1978 6.24988 16.7501 6.24988Z" fill="#000"/>
<path fill-rule="evenodd" clip-rule="evenodd" d="M21.2468 1.55073C20.9092 1.37899 20.5522 1.31215 20.172 1.28143C19.8075 1.25199 19.3613 1.25242 18.8266 1.25294L13.749 1.25776C12.9806 1.25832 12.4697 1.25869 11.9803 1.37646C11.5475 1.48062 11.1337 1.65213 10.7541 1.88472C10.3249 2.14772 9.96357 2.5089 9.42014 3.05208L3.95839 8.50892C3.28462 9.18207 2.7466 9.7196 2.34753 10.1892C1.93824 10.6709 1.63122 11.1303 1.45837 11.6615C1.18064 12.5149 1.18021 13.4344 1.45715 14.2881C1.62951 14.8194 1.9361 15.279 2.34495 15.7611C2.74358 16.2311 3.28112 16.7692 3.95428 17.443L6.55013 20.0413C7.22327 20.7151 7.76084 21.2532 8.23048 21.6523C8.71218 22.0616 9.17157 22.3686 9.70274 22.5415C10.5562 22.8192 11.4757 22.8197 12.3294 22.5427C12.8608 22.3703 13.3204 22.0637 13.8025 21.6548C14.2725 21.2562 14.8106 20.7186 15.4844 20.0454L20.9517 14.583C21.4968 14.0387 21.8592 13.6767 22.123 13.2466C22.3563 12.8662 22.5282 12.4514 22.6324 12.0175C22.7503 11.5269 22.7502 11.0147 22.75 10.2444L22.7499 5.17261C22.75 4.63794 22.75 4.19169 22.7202 3.82715C22.6891 3.44699 22.6219 3.09008 22.4498 2.75264C22.1859 2.23496 21.7647 1.81419 21.2468 1.55073ZM18.7976 2.75297C19.3705 2.75242 19.7551 2.75264 20.0512 2.77656C20.3386 2.79978 20.476 2.84159 20.5667 2.88769C20.8021 3.00745 20.9935 3.1987 21.1135 3.43402C21.1597 3.5246 21.2017 3.66197 21.2251 3.94935C21.2494 4.24548 21.2499 4.63004 21.2499 5.20296L21.25 10.1544C21.25 11.0467 21.2451 11.3706 21.1739 11.6672C21.1065 11.9479 20.9952 12.2163 20.8443 12.4624C20.6848 12.7225 20.4591 12.9548 19.8279 13.5855L14.4473 18.9612C13.7451 19.6627 13.2501 20.1565 12.8323 20.5109C12.4212 20.8596 12.1345 21.029 11.8666 21.1159C11.3141 21.2951 10.7192 21.2948 10.1669 21.1151C9.89906 21.0279 9.61257 20.8583 9.20179 20.5092C8.78432 20.1545 8.28969 19.6602 7.58823 18.9581L5.03846 16.4058C4.33703 15.7038 3.84325 15.2087 3.48892 14.7909C3.14027 14.3798 2.97087 14.0932 2.88395 13.8252C2.70475 13.2728 2.70503 12.6779 2.88474 12.1256C2.97191 11.8578 3.14157 11.5713 3.4906 11.1605C3.84533 10.7431 4.33957 10.2485 5.04165 9.547L10.4168 4.17667C11.0465 3.54759 11.2784 3.32269 11.5378 3.1637C11.7835 3.0132 12.0512 2.90223 12.3312 2.83483C12.6271 2.76364 12.9501 2.75853 13.8401 2.75768L18.7976 2.75297Z" fill="#000"/>
</svg>
