<svg width="24" height="24" viewBox="0 0 24 24" fill="none" xmlns="http://www.w3.org/2000/svg">
<path fill-rule="evenodd" clip-rule="evenodd" d="M19.2501 7.24994C19.2501 5.86923 18.1308 4.74994 16.7501 4.74994C15.3694 4.74994 14.2501 5.86923 14.2501 7.24994C14.2501 8.63065 15.3694 9.74994 16.7501 9.74994C18.1308 9.74994 19.2501 8.63065 19.2501 7.24994ZM16.7501 6.24994C17.3024 6.24994 17.7501 6.69765 17.7501 7.24994C17.7501 7.80222 17.3024 8.24994 16.7501 8.24994C16.1978 8.24994 15.7501 7.80222 15.7501 7.24994C15.7501 6.69765 16.1978 6.24994 16.7501 6.24994Z" fill="#000"/>
<path fill-rule="evenodd" clip-rule="evenodd" d="M21.2468 1.55079C20.9092 1.37905 20.5522 1.31221 20.172 1.2815C19.8075 1.25205 19.3613 1.25248 18.8266 1.253L13.749 1.25782C12.9806 1.25838 12.4697 1.25875 11.9803 1.37652C11.5475 1.48068 11.1337 1.65219 10.7541 1.88478C10.3249 2.14778 9.96357 2.50896 9.42014 3.05215L3.95839 8.50898C3.28462 9.18213 2.7466 9.71966 2.34753 10.1893C1.93824 10.671 1.63122 11.1304 1.45837 11.6615C1.18064 12.515 1.18021 13.4344 1.45715 14.2881C1.62951 14.8194 1.9361 15.2791 2.34495 15.7612C2.74358 16.2312 3.28112 16.7692 3.95428 17.443L6.55013 20.0414C7.22327 20.7152 7.76084 21.2532 8.23048 21.6523C8.71218 22.0616 9.17157 22.3687 9.70274 22.5415C10.5562 22.8193 11.4757 22.8197 12.3294 22.5428C12.8608 22.3704 13.3204 22.0638 13.8025 21.6549C14.2725 21.2562 14.8106 20.7187 15.4844 20.0455L20.9517 14.5831C21.4968 14.0387 21.8592 13.6768 22.123 13.2467C22.3563 12.8663 22.5282 12.4515 22.6324 12.0176C22.7503 11.527 22.7502 11.0148 22.75 10.2445L22.7499 5.17267C22.75 4.638 22.75 4.19175 22.7202 3.82721C22.6891 3.44706 22.6219 3.09015 22.4498 2.75271C22.1859 2.23502 21.7647 1.81425 21.2468 1.55079ZM18.7976 2.75303C19.3705 2.75249 19.7551 2.7527 20.0512 2.77663C20.3386 2.79984 20.476 2.84165 20.5667 2.88775C20.8021 3.00751 20.9935 3.19877 21.1135 3.43408C21.1597 3.52467 21.2017 3.66204 21.2251 3.94942C21.2494 4.24554 21.2499 4.6301 21.2499 5.20302L21.25 10.1545C21.25 11.0468 21.2451 11.3707 21.1739 11.6672C21.1065 11.948 20.9952 12.2164 20.8443 12.4625C20.6848 12.7225 20.4591 12.9548 19.8279 13.5855L14.4473 18.9613C13.7451 19.6628 13.2501 20.1566 12.8323 20.511C12.4212 20.8596 12.1345 21.029 11.8666 21.116C11.3141 21.2952 10.7192 21.2949 10.1669 21.1152C9.89906 21.028 9.61257 20.8583 9.20179 20.5093C8.78432 20.1545 8.28969 19.6602 7.58823 18.9581L5.03846 16.4059C4.33703 15.7038 3.84325 15.2087 3.48892 14.7909C3.14027 14.3799 2.97087 14.0932 2.88395 13.8253C2.70475 13.2729 2.70503 12.6779 2.88474 12.1257C2.97191 11.8578 3.14157 11.5714 3.4906 11.1606C3.84533 10.7431 4.33957 10.2485 5.04165 9.54706L10.4168 4.17673C11.0465 3.54765 11.2784 3.32275 11.5378 3.16376C11.7835 3.01326 12.0512 2.90229 12.3312 2.83489C12.6271 2.7637 12.9501 2.75859 13.8401 2.75775L18.7976 2.75303Z" fill="#000"/>
</svg>
