<svg width="24" height="24" viewBox="0 0 24 24" fill="none" xmlns="http://www.w3.org/2000/svg">
<path fill-rule="evenodd" clip-rule="evenodd" d="M7.40475 14.6977L11.6004 21.9447C11.8897 22.4444 12.4239 22.7514 13.0012 22.75C14.778 22.7493 16.1478 21.1841 15.9129 19.4228L15.3567 15.2523H17.7236C18.5366 15.2523 19.1959 15.2523 19.7236 15.2061C20.2651 15.1587 20.7517 15.0574 21.1855 14.8015C21.8557 14.4062 22.3618 13.7836 22.6118 13.0468C22.7737 12.5698 22.7733 12.0728 22.7091 11.533C22.6465 11.007 22.5118 10.3617 22.3456 9.56583L21.6587 6.27532C21.4979 5.50496 21.3688 4.88651 21.2257 4.38844C21.0783 3.87519 20.903 3.43961 20.6257 3.04742C20.1763 2.41175 19.561 1.91172 18.8468 1.6019C18.4062 1.41073 17.944 1.32823 17.4114 1.28896C16.8946 1.25084 16.2629 1.25099 15.4759 1.25119L14.7116 1.25136C13.3636 1.25166 12.6111 1.25182 11.8696 1.35575C11.2113 1.44802 10.563 1.60114 9.93305 1.81315C9.28427 2.03148 8.66609 2.33149 7.64352 2.84202C7.61033 2.71936 7.56562 2.59795 7.50477 2.47852C7.28905 2.05516 6.94485 1.71095 6.52148 1.49524C6.2377 1.35064 5.94278 1.29715 5.64627 1.27293C5.36535 1.24997 5.02428 1.24999 4.62893 1.25H4.37108C3.97572 1.24999 3.63466 1.24997 3.35373 1.27293C3.05722 1.29715 2.76231 1.35064 2.47852 1.49524C2.05516 1.71095 1.71095 2.05516 1.49524 2.47852C1.35064 2.76231 1.29715 3.05722 1.27293 3.35373C1.24998 3.63465 1.24999 3.97572 1.25 4.37106V12.6289C1.24999 13.0243 1.24998 13.3653 1.27293 13.6463C1.29715 13.9428 1.35064 14.2377 1.49524 14.5215C1.71095 14.9448 2.05516 15.289 2.47852 15.5048C2.76231 15.6494 3.05722 15.7028 3.35373 15.7271C3.63466 15.75 3.97573 15.75 4.37109 15.75H4.62891C5.02427 15.75 5.36534 15.75 5.64627 15.7271C5.94278 15.7028 6.2377 15.6494 6.52148 15.5048C6.88445 15.3198 7.18923 15.0404 7.40475 14.6977ZM12.8985 21.1931C12.919 21.2284 12.9568 21.2501 12.9976 21.25L13 22V21.25C13.8701 21.25 14.5411 20.4836 14.4261 19.6211L13.7566 14.6015C13.728 14.3872 13.7933 14.171 13.9357 14.0083C14.0781 13.8456 14.2838 13.7523 14.5 13.7523H17.6887C18.5449 13.7523 19.1383 13.7516 19.5927 13.7118C20.0408 13.6726 20.2694 13.6004 20.4234 13.5096C20.7842 13.2967 21.0567 12.9614 21.1914 12.5647C21.2488 12.3954 21.2727 12.1569 21.2196 11.7102C21.1657 11.2573 21.0451 10.6763 20.8701 9.83815L20.1962 6.61006C20.0282 5.80502 19.9099 5.241 19.784 4.80248C19.6607 4.37305 19.5433 4.1147 19.4009 3.91331C19.1101 3.502 18.7119 3.17845 18.2498 2.97797C18.0236 2.87982 17.7467 2.81776 17.3011 2.7849C16.8461 2.75134 16.2698 2.751 15.4474 2.75119L14.7753 2.75135C13.3473 2.75169 12.7038 2.75349 12.0778 2.84123C11.5114 2.92062 10.9536 3.05238 10.4115 3.2348C9.81242 3.43641 9.23605 3.72274 7.95886 4.36133L7.75 4.46577V12.3003L12.8985 21.1931ZM6.25 12.5032V12.6C6.25 13.0324 6.24942 13.3116 6.23206 13.5241C6.21541 13.7279 6.18715 13.8034 6.16826 13.8405C6.09635 13.9816 5.98162 14.0963 5.84049 14.1683C5.80341 14.1871 5.72787 14.2154 5.52413 14.2321C5.31162 14.2494 5.03242 14.25 4.6 14.25H4.4C3.96759 14.25 3.68838 14.2494 3.47588 14.2321C3.27213 14.2154 3.19659 14.1871 3.15951 14.1683C3.01839 14.0963 2.90365 13.9816 2.83175 13.8405C2.81285 13.8034 2.78459 13.7279 2.76795 13.5241C2.75059 13.3116 2.75 13.0324 2.75 12.6V4.4C2.75 3.96759 2.75059 3.68838 2.76795 3.47588C2.78459 3.27213 2.81285 3.19659 2.83175 3.15951C2.90365 3.01839 3.01839 2.90365 3.15951 2.83175C3.19659 2.81285 3.27213 2.78459 3.47588 2.76795C3.68838 2.75058 3.96759 2.75 4.4 2.75H4.6C5.03242 2.75 5.31162 2.75058 5.52413 2.76795C5.72787 2.78459 5.80341 2.81285 5.84049 2.83175C5.98162 2.90365 6.09635 3.01839 6.16826 3.15951C6.18715 3.19659 6.21541 3.27213 6.23206 3.47588C6.24897 3.68292 6.24996 3.95328 6.25 4.36697V12.5017C6.25 12.5022 6.25 12.5027 6.25 12.5032Z" fill="#000"/>
</svg>
