<svg width="24" height="24" viewBox="0 0 24 24" fill="none" xmlns="http://www.w3.org/2000/svg">
<path fill-rule="evenodd" clip-rule="evenodd" d="M7.40475 9.30402L11.6004 2.05704C11.8897 1.55741 12.4237 1.25037 13.001 1.25171C14.7775 1.25142 16.1478 2.81612 15.913 4.5773L15.3566 8.7494H17.7236C18.5366 8.74939 19.1959 8.74938 19.7236 8.7956C20.2651 8.84304 20.7517 8.94426 21.1855 9.20018C21.8557 9.59552 22.3618 10.2182 22.6118 10.9549C22.7737 11.4319 22.7733 11.9289 22.7091 12.4687C22.6465 12.9947 22.5118 13.64 22.3456 14.4359L21.6587 17.7264C21.4979 18.4967 21.3688 19.1152 21.2257 19.6133C21.0783 20.1265 20.903 20.5621 20.6257 20.9543C20.1763 21.59 19.561 22.09 18.8468 22.3998C18.4062 22.591 17.944 22.6735 17.4114 22.7128C16.8946 22.7509 16.2629 22.7507 15.4759 22.7505L14.7116 22.7503C13.3636 22.7501 12.6111 22.7499 11.8696 22.646C11.2113 22.5537 10.563 22.4006 9.93305 22.1886C9.28427 21.9702 8.66609 21.6702 7.64352 21.1597C7.61033 21.2824 7.56562 21.4038 7.50477 21.5232C7.28905 21.9466 6.94485 22.2908 6.52148 22.5065C6.2377 22.6511 5.94278 22.7046 5.64627 22.7288C5.36535 22.7517 5.02428 22.7517 4.62893 22.7517H4.37108C3.97572 22.7517 3.63466 22.7517 3.35373 22.7288C3.05722 22.7046 2.76231 22.6511 2.47852 22.5065C2.05516 22.2908 1.71095 21.9466 1.49524 21.5232C1.35064 21.2394 1.29715 20.9445 1.27293 20.648C1.24998 20.3671 1.24999 20.026 1.25 19.6306V11.3728C1.24999 10.9775 1.24998 10.6364 1.27293 10.3554C1.29715 10.0589 1.35064 9.76402 1.49524 9.48023C1.71095 9.05687 2.05516 8.71266 2.47852 8.49695C2.76231 8.35235 3.05722 8.29886 3.35373 8.27464C3.63466 8.25168 3.97573 8.2517 4.37109 8.25171H4.62891C5.02427 8.2517 5.36534 8.25168 5.64627 8.27464C5.94278 8.29886 6.2377 8.35235 6.52148 8.49695C6.88445 8.68189 7.18923 8.96128 7.40475 9.30402ZM12.8985 2.8086C12.919 2.77327 12.9568 2.75158 12.9976 2.75171L13 2.00171L13.0005 2.75171C13.8702 2.75115 14.5411 3.517 14.4261 4.37903L13.7566 9.40026C13.728 9.61456 13.7933 9.83077 13.9357 9.99343C14.0781 10.1561 14.2838 10.2494 14.5 10.2494H17.6887C18.5449 10.2494 19.1383 10.2501 19.5927 10.2899C20.0408 10.3291 20.2694 10.4013 20.4234 10.4921C20.7842 10.705 21.0567 11.0403 21.1914 11.437C21.2488 11.6063 21.2727 11.8448 21.2196 12.2915C21.1657 12.7444 21.0451 13.3254 20.8701 14.1636L20.1962 17.3917C20.0282 18.1967 19.9099 18.7607 19.784 19.1992C19.6607 19.6287 19.5433 19.887 19.4009 20.0884C19.1101 20.4997 18.7119 20.8233 18.2498 21.0237C18.0236 21.1219 17.7467 21.184 17.3011 21.2168C16.8461 21.2504 16.2698 21.2507 15.4474 21.2505L14.7753 21.2504C13.3473 21.25 12.7038 21.2482 12.0778 21.1605C11.5114 21.0811 10.9536 20.9493 10.4115 20.7669C9.81242 20.5653 9.23605 20.279 7.95886 19.6404L7.75 19.5359V11.7014L12.8985 2.8086ZM6.25 11.4985V11.4017C6.25 10.9693 6.24942 10.6901 6.23206 10.4776C6.21541 10.2738 6.18715 10.1983 6.16826 10.1612C6.09635 10.0201 5.98162 9.90536 5.84049 9.83346C5.80341 9.81456 5.72787 9.7863 5.52413 9.76966C5.31162 9.75229 5.03242 9.75171 4.6 9.75171H4.4C3.96759 9.75171 3.68838 9.75229 3.47588 9.76966C3.27213 9.7863 3.19659 9.81456 3.15951 9.83346C3.01839 9.90536 2.90365 10.0201 2.83175 10.1612C2.81285 10.1983 2.78459 10.2738 2.76795 10.4776C2.75059 10.6901 2.75 10.9693 2.75 11.4017V19.6017C2.75 20.0341 2.75059 20.3133 2.76795 20.5258C2.78459 20.7296 2.81285 20.8051 2.83175 20.8422C2.90365 20.9833 3.01839 21.0981 3.15951 21.17C3.19659 21.1889 3.27213 21.2171 3.47588 21.2338C3.68838 21.2511 3.96759 21.2517 4.4 21.2517H4.6C5.03242 21.2517 5.31162 21.2511 5.52413 21.2338C5.72787 21.2171 5.80341 21.1889 5.84049 21.17C5.98162 21.0981 6.09635 20.9833 6.16826 20.8422C6.18715 20.8051 6.21541 20.7296 6.23206 20.5258C6.24897 20.3188 6.24996 20.0484 6.25 19.6347V11.5C6.25 11.4995 6.25 11.499 6.25 11.4985Z" fill="#000"/>
</svg>
