<svg width="24" height="24" viewBox="0 0 24 24" fill="none" xmlns="http://www.w3.org/2000/svg">
<path fill-rule="evenodd" clip-rule="evenodd" d="M8.17608 9.25171H8.32393C8.51321 9.25169 8.69756 9.25167 8.85368 9.26442C9.02512 9.27843 9.22742 9.31148 9.43099 9.4152C9.49957 9.45015 9.56504 9.49015 9.62692 9.53474L11.4757 6.34148C11.6875 5.97563 12.0785 5.75078 12.5012 5.75171C13.7499 5.75245 14.6862 6.89508 14.4412 8.1197L14.1649 9.50055L14.8755 9.50055C15.2702 9.50053 15.6141 9.50052 15.8945 9.52509C16.1886 9.55085 16.4964 9.60873 16.7833 9.77796C17.1957 10.0212 17.5071 10.4044 17.661 10.8578C17.768 11.1732 17.7618 11.4863 17.7269 11.7795C17.6937 12.0591 17.6234 12.3957 17.5427 12.7821L17.194 14.4521C17.1157 14.8275 17.0487 15.1484 16.9733 15.411C16.8936 15.6886 16.7914 15.9507 16.6191 16.1945C16.3547 16.5684 15.9928 16.8625 15.5727 17.0448C15.2988 17.1636 15.0213 17.21 14.7333 17.2312C14.4609 17.2513 14.133 17.2512 13.7495 17.2511L13.3312 17.251C12.6807 17.2509 12.2797 17.2508 11.8827 17.1952C11.5306 17.1458 11.1839 17.0639 10.8469 16.9505C10.581 16.8611 10.3256 16.7464 9.9967 16.5858C9.8547 16.7981 9.66026 16.9714 9.43099 17.0882C9.22742 17.1919 9.02512 17.225 8.85368 17.239C8.69756 17.2518 8.51321 17.2517 8.32392 17.2517H8.17608C7.9868 17.2517 7.80245 17.2518 7.64633 17.239C7.47489 17.225 7.27259 17.1919 7.06902 17.0882C6.78678 16.9444 6.5573 16.7149 6.41349 16.4327C6.30977 16.2291 6.27672 16.0268 6.26271 15.8554C6.24996 15.6993 6.24998 15.5149 6.25 15.3257V11.1778C6.24998 10.9885 6.24996 10.8042 6.26271 10.648C6.27672 10.4766 6.30977 10.2743 6.41349 10.0707C6.5573 9.78848 6.78678 9.55901 7.06902 9.4152C7.27259 9.31148 7.47489 9.27843 7.64633 9.26442C7.80245 9.25167 7.98679 9.25169 8.17608 9.25171ZM8.75 11.2485C8.75 11.2493 8.75 11.2501 8.75 11.2509V15.3302C8.74994 15.5346 8.74911 15.6496 8.74228 15.7332L8.74142 15.7431L8.73153 15.744C8.64409 15.7511 8.5224 15.7517 8.3 15.7517H8.2C7.97761 15.7517 7.85592 15.7511 7.76848 15.744L7.75859 15.7431L7.75773 15.7332C7.75059 15.6458 7.75 15.5241 7.75 15.3017V11.2017C7.75 10.9793 7.75059 10.8576 7.75773 10.7702L7.75859 10.7603L7.76848 10.7594C7.85592 10.7523 7.97761 10.7517 8.2 10.7517H8.3C8.5224 10.7517 8.64409 10.7523 8.73153 10.7594L8.74142 10.7603L8.74228 10.7702C8.74942 10.8576 8.75 10.9793 8.75 11.2017V11.2485ZM10.25 15.037C10.8233 15.3234 11.0709 15.4433 11.3253 15.5289C11.5744 15.6127 11.8307 15.6732 12.091 15.7097C12.3722 15.7491 12.6638 15.7509 13.3877 15.751L13.7238 15.7511C14.1405 15.7512 14.4125 15.7508 14.623 15.7353C14.824 15.7204 14.9161 15.6945 14.9757 15.6687C15.1437 15.5958 15.2885 15.4781 15.3942 15.3286C15.4317 15.2756 15.4759 15.1907 15.5316 14.997C15.5898 14.7941 15.6459 14.5279 15.731 14.12L16.068 12.506C16.1568 12.0803 16.2129 11.8086 16.2374 11.6023C16.2612 11.4022 16.2432 11.3476 16.2406 11.3399C16.2021 11.2265 16.1242 11.1307 16.0211 11.0699C16.0141 11.0658 15.9643 11.0369 15.7636 11.0194C15.5566 11.0012 15.2792 11.0006 14.8444 11.0006H13.25C13.0253 11.0006 12.8124 10.8998 12.67 10.726C12.5275 10.5522 12.4705 10.3238 12.5146 10.1034L12.9703 7.82543C13.0182 7.58586 12.8796 7.35924 12.6651 7.28075L10.25 11.4523L10.25 15.037Z" fill="#000"/>
<path fill-rule="evenodd" clip-rule="evenodd" d="M0.25 12C0.25 5.51065 5.51065 0.25 12 0.25C18.4893 0.25 23.75 5.51065 23.75 12C23.75 18.4893 18.4893 23.75 12 23.75C5.51065 23.75 0.25 18.4893 0.25 12ZM12 1.75C6.33908 1.75 1.75 6.33908 1.75 12C1.75 17.6609 6.33908 22.25 12 22.25C17.6609 22.25 22.25 17.6609 22.25 12C22.25 6.33908 17.6609 1.75 12 1.75Z" fill="#000"/>
</svg>
