<svg width="24" height="24" viewBox="0 0 24 24" fill="none" xmlns="http://www.w3.org/2000/svg">
<path fill-rule="evenodd" clip-rule="evenodd" d="M16.4514 2.03488C15.4019 0.985442 13.7004 0.985442 12.651 2.03488C12.4658 2.22005 12.3087 2.43128 12.1847 2.66188L11.1989 4.49405C11.101 4.67615 11.0625 4.74726 11.0218 4.81541C10.9839 4.8789 10.944 4.94124 10.9023 5.00234C10.8576 5.06792 10.8092 5.13268 10.6851 5.29808L10.5339 5.4996C9.81662 6.45546 9.53172 6.82609 9.18778 7.10278C8.86778 7.36022 8.50709 7.56248 8.12055 7.70126C7.70509 7.85041 7.24027 7.9002 6.05062 8.01369L5.72582 8.04467C5.15704 8.09891 4.67923 8.14448 4.31075 8.21361C3.94943 8.2814 3.53833 8.39558 3.23002 8.69659C2.8216 9.09536 2.61877 9.65949 2.67977 10.227C2.72582 10.6555 2.97009 11.0053 3.20553 11.2876C3.44563 11.5756 3.78503 11.9149 4.18906 12.3189L7.40362 15.5335L1.46967 21.4675C1.17678 21.7604 1.17678 22.2352 1.46967 22.5281C1.76256 22.821 2.23744 22.821 2.53033 22.5281L8.46428 16.5942L11.6732 19.8031C12.0767 20.2066 12.4158 20.5457 12.7035 20.7856C12.9856 21.0208 13.3351 21.2649 13.7633 21.311C14.3305 21.3722 14.8945 21.1697 15.2934 20.7618C15.5944 20.4538 15.7089 20.0432 15.777 19.6822C15.8465 19.3141 15.8925 18.8368 15.9472 18.2688L15.9786 17.943C16.0932 16.7542 16.1434 16.2897 16.2928 15.8747C16.4318 15.4885 16.6342 15.1281 16.8917 14.8085C17.1685 14.4649 17.539 14.1804 18.4946 13.4641L18.7016 13.3089C18.8657 13.1859 18.93 13.138 18.995 13.0936C19.0556 13.0522 19.1174 13.0127 19.1804 12.9751C19.248 12.9347 19.3185 12.8964 19.4991 12.7992L21.3343 11.8101C21.5643 11.6861 21.775 11.5293 21.9598 11.3446C23.0095 10.2949 23.0095 8.59299 21.9598 7.54331L16.4514 2.03488ZM13.7116 3.09554C14.1753 2.63189 14.927 2.63189 15.3907 3.09554L20.8991 8.60397C21.363 9.06787 21.363 9.82 20.8991 10.2839C20.8175 10.3655 20.7244 10.4348 20.6227 10.4896L18.7723 11.4869C18.6118 11.5734 18.5102 11.6281 18.4105 11.6877C18.322 11.7407 18.235 11.7962 18.1498 11.8544C18.0538 11.9199 17.9617 11.9889 17.8156 12.0984L17.5128 12.3254C16.6661 12.9599 16.1327 13.3596 15.7236 13.8675C15.3615 14.317 15.0769 14.8236 14.8815 15.3666C14.6605 15.9803 14.5967 16.6439 14.4953 17.697L14.4576 18.0887C14.3984 18.7025 14.3583 19.1111 14.303 19.4041C14.2599 19.6326 14.2206 19.7075 14.2142 19.7195C14.1396 19.7919 14.0372 19.829 13.9336 19.8206C13.921 19.8153 13.8426 19.7824 13.6641 19.6335C13.435 19.4425 13.1442 19.1527 12.7082 18.7167L5.27539 11.284C4.83891 10.8475 4.54877 10.5563 4.35757 10.327C4.20853 10.1482 4.17575 10.0702 4.17045 10.0576C4.1621 9.95393 4.19868 9.85127 4.27112 9.77669C4.28322 9.77034 4.35862 9.7308 4.58735 9.68789C4.88079 9.63283 5.28993 9.59306 5.90441 9.53444L6.29527 9.49717C7.34917 9.39679 8.01315 9.33356 8.6274 9.11303C9.17091 8.9179 9.67806 8.6335 10.128 8.27153C10.6365 7.86244 11.0368 7.3289 11.672 6.48203L11.8953 6.1845C12.0057 6.03738 12.0754 5.94449 12.1414 5.84769C12.2001 5.76178 12.2561 5.67413 12.3094 5.58485C12.3695 5.48426 12.4245 5.38207 12.5117 5.22008L13.5056 3.37256C13.5604 3.27068 13.6298 3.17735 13.7116 3.09554Z" fill="#000"/>
</svg>
