<svg width="24" height="24" viewBox="0 0 24 24" fill="none" xmlns="http://www.w3.org/2000/svg">
<path fill-rule="evenodd" clip-rule="evenodd" d="M8.17608 14.7483H8.32393C8.51321 14.7483 8.69756 14.7483 8.85368 14.7356C9.02512 14.7216 9.22742 14.6885 9.43099 14.5848C9.49957 14.5499 9.56504 14.5098 9.62692 14.4653L11.4757 17.6585C11.6875 18.0244 12.0785 18.2492 12.5012 18.2483C13.7499 18.2476 14.6862 17.1049 14.4412 15.8803L14.1649 14.4994L14.8755 14.4994C15.2702 14.4995 15.6141 14.4995 15.8945 14.4749C16.1886 14.4492 16.4964 14.3913 16.7833 14.222C17.1957 13.9788 17.5071 13.5956 17.661 13.1422C17.768 12.8268 17.7618 12.5137 17.7269 12.2205C17.6937 11.9409 17.6234 11.6043 17.5427 11.2179L17.194 9.5479C17.1157 9.17251 17.0487 8.85156 16.9733 8.589C16.8936 8.31142 16.7914 8.04933 16.6191 7.80552C16.3547 7.4316 15.9928 7.13747 15.5727 6.95522C15.2988 6.83639 15.0213 6.79003 14.7333 6.76879C14.4609 6.7487 14.133 6.74878 13.7495 6.74888L13.3312 6.74898C12.6807 6.74909 12.2797 6.74916 11.8827 6.8048C11.5306 6.85415 11.1839 6.93605 10.8469 7.04945C10.581 7.13894 10.3256 7.25363 9.9967 7.41417C9.8547 7.20194 9.66026 7.0286 9.43099 6.91178C9.22742 6.80806 9.02512 6.77501 8.85368 6.761C8.69756 6.74824 8.51321 6.74826 8.32392 6.74829H8.17608C7.9868 6.74826 7.80245 6.74824 7.64633 6.761C7.47489 6.77501 7.27259 6.80806 7.06902 6.91178C6.78678 7.05559 6.5573 7.28506 6.41349 7.5673C6.30977 7.77087 6.27672 7.97317 6.26271 8.14462C6.24996 8.30073 6.24998 8.48506 6.25 8.67434V12.8222C6.24998 13.0115 6.24996 13.1958 6.26271 13.352C6.27672 13.5234 6.30977 13.7257 6.41349 13.9293C6.5573 14.2115 6.78678 14.441 7.06902 14.5848C7.27259 14.6885 7.47489 14.7216 7.64633 14.7356C7.80245 14.7483 7.98679 14.7483 8.17608 14.7483ZM8.75 12.7515C8.75 12.7507 8.75 12.7499 8.75 12.7491V8.6698C8.74994 8.46536 8.74911 8.3504 8.74228 8.26676L8.74142 8.25688L8.73153 8.25602C8.64409 8.24887 8.5224 8.24829 8.3 8.24829H8.2C7.97761 8.24829 7.85592 8.24887 7.76848 8.25602L7.75859 8.25688L7.75773 8.26676C7.75059 8.3542 7.75 8.47589 7.75 8.69829V12.7983C7.75 13.0207 7.75059 13.1424 7.75773 13.2298L7.75859 13.2397L7.76848 13.2406C7.85592 13.2477 7.97761 13.2483 8.2 13.2483H8.3C8.5224 13.2483 8.64409 13.2477 8.73153 13.2406L8.74142 13.2397L8.74228 13.2298C8.74942 13.1424 8.75 13.0207 8.75 12.7983V12.7515ZM10.25 8.96296C10.8233 8.67661 11.0709 8.55672 11.3253 8.47111C11.5744 8.38729 11.8307 8.32676 12.091 8.29028C12.3722 8.25086 12.6638 8.24914 13.3877 8.24897L13.7238 8.24889C14.1405 8.24879 14.4125 8.2492 14.623 8.26472C14.824 8.27955 14.9161 8.30547 14.9757 8.3313C15.1437 8.4042 15.2885 8.52185 15.3942 8.67142C15.4317 8.72441 15.4759 8.80929 15.5316 9.00304C15.5898 9.2059 15.6459 9.47205 15.731 9.87995L16.068 11.494C16.1568 11.9197 16.2129 12.1914 16.2374 12.3977C16.2612 12.5978 16.2432 12.6524 16.2406 12.6601C16.2021 12.7735 16.1242 12.8693 16.0211 12.9301C16.0141 12.9342 15.9643 12.9631 15.7636 12.9806C15.5566 12.9988 15.2792 12.9994 14.8444 12.9994H13.25C13.0253 12.9994 12.8124 13.1002 12.67 13.274C12.5275 13.4478 12.4705 13.6762 12.5146 13.8966L12.9703 16.1746C13.0182 16.4141 12.8796 16.6408 12.6651 16.7192L10.25 12.5477L10.25 8.96296Z" fill="#000"/>
<path fill-rule="evenodd" clip-rule="evenodd" d="M0.25 12C0.25 5.51065 5.51065 0.25 12 0.25C18.4893 0.25 23.75 5.51065 23.75 12C23.75 18.4893 18.4893 23.75 12 23.75C5.51065 23.75 0.25 18.4893 0.25 12ZM12 1.75C6.33908 1.75 1.75 6.33908 1.75 12C1.75 17.6609 6.33908 22.25 12 22.25C17.6609 22.25 22.25 17.6609 22.25 12C22.25 6.33908 17.6609 1.75 12 1.75Z" fill="#000"/>
</svg>
