<svg width="24" height="24" viewBox="0 0 24 24" fill="none" xmlns="http://www.w3.org/2000/svg">
<path d="M12 2.75C9.91677 2.75 7.99633 3.43778 6.45042 4.59896C5.82246 5.07064 5.11166 5.77778 4.48433 6.50232C4.26205 6.75904 4.0557 7.01164 3.87142 7.25H7.5C7.91421 7.25 8.25 7.58579 8.25 8C8.25 8.41421 7.91421 8.75 7.5 8.75H2.47183C2.46206 8.75019 2.45227 8.75019 2.44247 8.75H2C1.58579 8.75 1.25 8.41421 1.25 8V2.5C1.25 2.08579 1.58579 1.75 2 1.75C2.41421 1.75 2.75 2.08579 2.75 2.5L2.75 6.24861C2.93794 6.00859 3.14013 5.76324 3.35033 5.52046C4.01529 4.75246 4.80449 3.95925 5.54955 3.39961C7.3463 2.05002 9.58081 1.25 12 1.25C17.9371 1.25 22.75 6.06294 22.75 12C22.75 17.9371 17.9371 22.75 12 22.75C7.18541 22.75 3.11189 19.5854 1.74227 15.2247C1.61816 14.8296 1.83789 14.4086 2.23307 14.2845C2.62825 14.1603 3.04923 14.3801 3.17335 14.7753C4.35226 18.5288 7.85932 21.25 12 21.25C17.1086 21.25 21.25 17.1086 21.25 12C21.25 6.89137 17.1086 2.75 12 2.75Z" fill="#000"/>
<path d="M12.75 7C12.75 6.58579 12.4142 6.25 12 6.25C11.5858 6.25 11.25 6.58579 11.25 7V12C11.25 12.2586 11.3832 12.4989 11.6025 12.636L14.8025 14.636C15.1538 14.8555 15.6165 14.7488 15.836 14.3975C16.0555 14.0462 15.9488 13.5835 15.5975 13.364L12.75 11.5843V7Z" fill="#000"/>
</svg>
