<svg width="24" height="24" viewBox="0 0 24 24" fill="none" xmlns="http://www.w3.org/2000/svg">
<path d="M12 2.75C14.0832 2.75 16.0037 3.43778 17.5496 4.59896C18.1775 5.07064 18.8883 5.77778 19.5157 6.50232C19.738 6.75904 19.9443 7.01164 20.1286 7.25H16.5C16.0858 7.25 15.75 7.58579 15.75 8C15.75 8.41421 16.0858 8.75 16.5 8.75H21.5282C21.538 8.75019 21.5477 8.75019 21.5575 8.75H22C22.4142 8.75 22.75 8.41421 22.75 8V2.5C22.75 2.08579 22.4142 1.75 22 1.75C21.5858 1.75 21.25 2.08579 21.25 2.5V6.24861C21.0621 6.00859 20.8599 5.76324 20.6497 5.52046C19.9847 4.75246 19.1955 3.95925 18.4505 3.39961C16.6537 2.05002 14.4192 1.25 12 1.25C6.06294 1.25 1.25 6.06294 1.25 12C1.25 17.9371 6.06294 22.75 12 22.75C16.8146 22.75 20.8881 19.5854 22.2577 15.2247C22.3819 14.8296 22.1621 14.4086 21.7669 14.2845C21.3718 14.1603 20.9508 14.3801 20.8267 14.7753C19.6478 18.5288 16.1407 21.25 12 21.25C6.89136 21.25 2.75 17.1086 2.75 12C2.75 6.89137 6.89136 2.75 12 2.75Z" fill="#000"/>
<path d="M12.75 7C12.75 6.58579 12.4142 6.25 12 6.25C11.5858 6.25 11.25 6.58579 11.25 7V12C11.25 12.2586 11.3832 12.4989 11.6025 12.636L14.8025 14.636C15.1538 14.8555 15.6165 14.7488 15.836 14.3975C16.0555 14.0462 15.9488 13.5835 15.5975 13.364L12.75 11.5843V7Z" fill="#000"/>
</svg>
