<svg width="24" height="24" viewBox="0 0 24 24" fill="none" xmlns="http://www.w3.org/2000/svg">
<path fill-rule="evenodd" clip-rule="evenodd" d="M10.2037 1.24994C9.81443 1.24948 9.47168 1.24908 9.14896 1.34709C8.86593 1.43304 8.60263 1.57396 8.37412 1.76177C8.11355 1.97593 7.92377 2.26133 7.70822 2.58547L7.08844 3.51526C6.80205 3.94485 6.73917 4.02539 6.67344 4.07941C6.59727 4.14202 6.50951 4.18899 6.41516 4.21764C6.3345 4.24214 6.23372 4.24986 5.72956 4.25H3C2.58579 4.25 2.25 4.58579 2.25 5C2.25 5.41421 2.58579 5.75 3 5.75H4.99829C4.99886 5.75 4.99943 5.75 5 5.75L5.79631 5.75006C5.84923 5.75013 5.90128 5.75019 5.95254 5.75H18.0475C18.0987 5.75019 18.1508 5.75013 18.2037 5.75006L19 5.75C19.0006 5.75 19.0011 5.75 19.0017 5.75H21C21.4142 5.75 21.75 5.41421 21.75 5C21.75 4.58579 21.4142 4.25 21 4.25H18.2704C17.7663 4.24986 17.6655 4.24214 17.5848 4.21764C17.4905 4.18899 17.4027 4.14202 17.3266 4.07941C17.2608 4.02539 17.198 3.94485 16.9116 3.51526L16.2918 2.58547C16.0762 2.26133 15.8864 1.97593 15.6259 1.76177C15.3974 1.57396 15.1341 1.43304 14.851 1.34709C14.5283 1.24908 14.1856 1.24948 13.7963 1.24994H10.2037ZM15.5986 4.25L15.0884 3.48475C14.802 3.05515 14.7392 2.97461 14.6734 2.92059C14.5973 2.85799 14.5095 2.81102 14.4152 2.78236C14.3338 2.75764 14.2319 2.75 13.7156 2.75H10.2844C9.76814 2.75 9.66625 2.75764 9.58484 2.78236C9.49049 2.81102 9.40273 2.85799 9.32656 2.92059C9.26083 2.97461 9.19795 3.05515 8.91156 3.48475L8.40139 4.25H15.5986Z" fill="#000"/>
<path d="M3.94696 8.06966C3.90848 7.65724 4.21162 7.29171 4.62404 7.25323C5.03646 7.21475 5.40199 7.51789 5.44047 7.93031L6.34047 17.5762C6.41328 18.3566 6.46442 18.8989 6.53729 19.3202C6.60859 19.7324 6.69192 19.9696 6.79905 20.1498C7.02726 20.5336 7.36454 20.8409 7.76795 21.0325C7.95732 21.1224 8.20125 21.1833 8.61826 21.216C9.0445 21.2495 9.5892 21.25 10.373 21.25H13.627C14.4108 21.25 14.9554 21.2495 15.3817 21.216C15.7987 21.1833 16.0426 21.1224 16.232 21.0325C16.6354 20.8409 16.9727 20.5336 17.2009 20.1498C17.308 19.9696 17.3914 19.7324 17.4627 19.3202C17.5355 18.8989 17.5867 18.3566 17.6595 17.5763L18.5595 7.93031C18.598 7.51789 18.9635 7.21475 19.376 7.25323C19.7884 7.29172 20.0915 7.65725 20.053 8.06967L19.1502 17.7459C19.0809 18.4888 19.0248 19.0899 18.9407 19.5759C18.8539 20.0776 18.7286 20.5153 18.4903 20.9163C18.1099 21.5561 17.5478 22.0682 16.8754 22.3875C16.454 22.5876 16.0066 22.6716 15.4989 22.7114C15.0072 22.75 14.4036 22.75 13.6575 22.75H10.3426C9.59641 22.75 8.99277 22.75 8.50101 22.7114C7.99334 22.6716 7.5459 22.5876 7.12453 22.3875C6.45218 22.0682 5.89004 21.5561 5.50969 20.9163C5.27132 20.5153 5.14604 20.0776 5.05924 19.5759C4.97517 19.0898 4.9191 18.4888 4.84978 17.7459L3.94696 8.06966Z" fill="#000"/>
</svg>
