<svg width="24" height="24" viewBox="0 0 24 24" fill="none" xmlns="http://www.w3.org/2000/svg">
<path fill-rule="evenodd" clip-rule="evenodd" d="M1.25 5.5C1.25 3.70508 2.70507 2.25 4.5 2.25H12.5C14.2949 2.25 15.75 3.70507 15.75 5.5V5.75H18.5341C19.4165 5.75 20.2173 6.26571 20.5825 7.06894L22.6828 11.6896C22.7271 11.7871 22.75 11.8929 22.75 12V16.5C22.75 17.7426 21.7426 18.75 20.5 18.75H19.7388C19.7462 18.8323 19.75 18.9157 19.75 19C19.75 20.5188 18.5188 21.75 17 21.75C15.4812 21.75 14.25 20.5188 14.25 19C14.25 18.9157 14.2538 18.8323 14.2612 18.75H9.73879C9.74621 18.8323 9.75 18.9157 9.75 19C9.75 20.5188 8.51878 21.75 7 21.75C5.48122 21.75 4.25 20.5188 4.25 19C4.25 18.9157 4.25379 18.8323 4.26121 18.75H3.5C2.25736 18.75 1.25 17.7426 1.25 16.5V5.5ZM4.87858 17.25C5.38298 16.6392 6.14603 16.25 7 16.25C7.85397 16.25 8.61702 16.6392 9.12142 17.25H14.25V5.5C14.25 4.5335 13.4665 3.75 12.5 3.75H4.5C3.5335 3.75 2.75 4.5335 2.75 5.5V16.5C2.75 16.9142 3.08579 17.25 3.5 17.25H4.87858ZM15.75 7.25V11.25H20.8352L19.2169 7.68965C19.0952 7.4219 18.8282 7.25 18.5341 7.25H15.75ZM21.25 12.75H15.75V16.5499C16.125 16.3581 16.5499 16.25 17 16.25C17.854 16.25 18.617 16.6392 19.1214 17.25H20.5C20.9142 17.25 21.25 16.9142 21.25 16.5V12.75ZM7 17.75C6.30964 17.75 5.75 18.3096 5.75 19C5.75 19.6904 6.30964 20.25 7 20.25C7.69036 20.25 8.25 19.6904 8.25 19C8.25 18.3096 7.69036 17.75 7 17.75ZM17 17.75C16.3096 17.75 15.75 18.3096 15.75 19C15.75 19.6904 16.3096 20.25 17 20.25C17.6904 20.25 18.25 19.6904 18.25 19C18.25 18.3096 17.6904 17.75 17 17.75Z" fill="#000"/>
</svg>
