<svg width="24" height="24" viewBox="0 0 24 24" fill="none" xmlns="http://www.w3.org/2000/svg">
<path fill-rule="evenodd" clip-rule="evenodd" d="M17.7321 2.25H6.2679C5.45506 2.24999 4.79944 2.24999 4.26853 2.29336C3.7219 2.33803 3.24175 2.43239 2.79754 2.65873C2.09193 3.01825 1.51825 3.59193 1.15873 4.29754C0.932386 4.74175 0.838026 5.2219 0.793364 5.76853C0.749987 6.29944 0.749993 6.95505 0.75 7.76788V13.2321C0.749993 14.0449 0.749987 14.7006 0.793364 15.2315C0.838026 15.7781 0.932386 16.2582 1.15873 16.7025C1.51825 17.4081 2.09193 17.9817 2.79754 18.3413C3.24175 18.5676 3.7219 18.662 4.26853 18.7066C4.79944 18.75 5.45505 18.75 6.26788 18.75H17.7321C18.545 18.75 19.2006 18.75 19.7315 18.7066C20.2781 18.662 20.7582 18.5676 21.2025 18.3413C21.9081 17.9817 22.4817 17.4081 22.8413 16.7025C23.0676 16.2582 23.162 15.7781 23.2066 15.2315C23.25 14.7006 23.25 14.045 23.25 13.2321V7.76788C23.25 6.95505 23.25 6.29944 23.2066 5.76853C23.162 5.2219 23.0676 4.74175 22.8413 4.29754C22.4817 3.59193 21.9081 3.01825 21.2025 2.65873C20.7582 2.43239 20.2781 2.33803 19.7315 2.29336C19.2006 2.24999 18.5449 2.24999 17.7321 2.25ZM3.47852 3.99524C3.67604 3.8946 3.93681 3.82547 4.39068 3.78838C4.85331 3.75058 5.44755 3.75 6.3 3.75H17.7C18.5525 3.75 19.1467 3.75058 19.6093 3.78838C20.0632 3.82547 20.324 3.8946 20.5215 3.99524C20.9448 4.21095 21.289 4.55516 21.5048 4.97852C21.6054 5.17604 21.6745 5.43681 21.7116 5.89068C21.7494 6.35331 21.75 6.94755 21.75 7.8V13.2C21.75 14.0525 21.7494 14.6467 21.7116 15.1093C21.6745 15.5632 21.6054 15.824 21.5048 16.0215C21.289 16.4448 20.9448 16.789 20.5215 17.0048C20.324 17.1054 20.0632 17.1745 19.6093 17.2116C19.1467 17.2494 18.5525 17.25 17.7 17.25H6.3C5.44755 17.25 4.85331 17.2494 4.39068 17.2116C3.93681 17.1745 3.67604 17.1054 3.47852 17.0048C3.05516 16.789 2.71095 16.4448 2.49524 16.0215C2.3946 15.824 2.32547 15.5632 2.28838 15.1093C2.25058 14.6467 2.25 14.0525 2.25 13.2V7.8C2.25 6.94755 2.25058 6.35331 2.28838 5.89068C2.32547 5.43681 2.3946 5.17604 2.49524 4.97852C2.71095 4.55516 3.05516 4.21095 3.47852 3.99524Z" fill="#000"/>
<path d="M6.5 20.25C6.08579 20.25 5.75 20.5858 5.75 21C5.75 21.4142 6.08579 21.75 6.5 21.75H17.5C17.9142 21.75 18.25 21.4142 18.25 21C18.25 20.5858 17.9142 20.25 17.5 20.25H6.5Z" fill="#000"/>
</svg>
