<svg width="24" height="24" viewBox="0 0 24 24" fill="none" xmlns="http://www.w3.org/2000/svg">
<path fill-rule="evenodd" clip-rule="evenodd" d="M12 1.25C9.10051 1.25 6.75 3.6005 6.75 6.5V8.2949C6.21103 8.34018 5.73673 8.43495 5.29754 8.65873C4.59193 9.01825 4.01825 9.59193 3.65873 10.2975C3.43239 10.7418 3.33803 11.2219 3.29336 11.7685C3.24999 12.2994 3.24999 12.9551 3.25 13.7679V17.2321C3.24999 18.0449 3.24999 18.7006 3.29336 19.2315C3.33803 19.7781 3.43239 20.2582 3.65873 20.7025C4.01825 21.4081 4.59193 21.9818 5.29754 22.3413C5.74175 22.5676 6.2219 22.662 6.76853 22.7066C7.29944 22.75 7.95505 22.75 8.76788 22.75H15.2321C16.045 22.75 16.7006 22.75 17.2315 22.7066C17.7781 22.662 18.2582 22.5676 18.7025 22.3413C19.4081 21.9818 19.9818 21.4081 20.3413 20.7025C20.5676 20.2582 20.662 19.7781 20.7066 19.2315C20.75 18.7006 20.75 18.045 20.75 17.2321V13.7679C20.75 12.955 20.75 12.2994 20.7066 11.7685C20.662 11.2219 20.5676 10.7418 20.3413 10.2975C19.9818 9.59193 19.4081 9.01825 18.7025 8.65873C18.2582 8.43239 17.7781 8.33803 17.2315 8.29336C16.7006 8.24999 16.045 8.24999 15.2321 8.25H8.7679C8.58766 8.25 8.41513 8.25 8.25 8.25047V6.5C8.25 4.42893 9.92893 2.75 12 2.75C13.6316 2.75 15.0217 3.79243 15.5368 5.24993C15.6748 5.64047 16.1033 5.84517 16.4939 5.70713C16.8844 5.56909 17.0891 5.1406 16.9511 4.75007C16.2307 2.71199 14.2871 1.25 12 1.25ZM5.97852 9.99524C6.17604 9.8946 6.43681 9.82547 6.89068 9.78838C7.35331 9.75058 7.94755 9.75 8.8 9.75H15.2C16.0525 9.75 16.6467 9.75058 17.1093 9.78838C17.5632 9.82547 17.824 9.8946 18.0215 9.99524C18.4448 10.211 18.789 10.5552 19.0048 10.9785C19.1054 11.176 19.1745 11.4368 19.2116 11.8907C19.2494 12.3533 19.25 12.9475 19.25 13.8V17.2C19.25 18.0525 19.2494 18.6467 19.2116 19.1093C19.1745 19.5632 19.1054 19.824 19.0048 20.0215C18.789 20.4448 18.4448 20.789 18.0215 21.0048C17.824 21.1054 17.5632 21.1745 17.1093 21.2116C16.6467 21.2494 16.0525 21.25 15.2 21.25H8.8C7.94755 21.25 7.35331 21.2494 6.89068 21.2116C6.43681 21.1745 6.17604 21.1054 5.97852 21.0048C5.55516 20.789 5.21095 20.4448 4.99524 20.0215C4.8946 19.824 4.82547 19.5632 4.78838 19.1093C4.75058 18.6467 4.75 18.0525 4.75 17.2V13.8C4.75 12.9475 4.75058 12.3533 4.78838 11.8907C4.82547 11.4368 4.8946 11.176 4.99524 10.9785C5.21095 10.5552 5.55516 10.211 5.97852 9.99524Z" fill="#000"/>
</svg>
