<svg width="24" height="24" viewBox="0 0 24 24" fill="none" xmlns="http://www.w3.org/2000/svg">
<path fill-rule="evenodd" clip-rule="evenodd" d="M4.75 6.5C4.75 3.6005 7.1005 1.25 10 1.25C12.8995 1.25 15.25 3.6005 15.25 6.5C15.25 9.3995 12.8995 11.75 10 11.75C7.1005 11.75 4.75 9.3995 4.75 6.5ZM10 2.75C7.92893 2.75 6.25 4.42893 6.25 6.5C6.25 8.57107 7.92893 10.25 10 10.25C12.0711 10.25 13.75 8.57107 13.75 6.5C13.75 4.42893 12.0711 2.75 10 2.75Z" fill="#000"/>
<path d="M10.327 13.9763C10.3453 14.3901 10.0247 14.7404 9.61088 14.7587C6.04693 14.9162 3.16059 17.1799 2.74256 20.1061C2.68398 20.5162 2.30408 20.8011 1.89403 20.7425C1.48398 20.684 1.19905 20.3041 1.25763 19.894C1.80421 16.068 5.46526 13.4404 9.54466 13.2601C9.95847 13.2419 10.3087 13.5625 10.327 13.9763Z" fill="#000"/>
<path fill-rule="evenodd" clip-rule="evenodd" d="M22.75 17C22.75 13.8244 20.1756 11.25 17 11.25C13.8244 11.25 11.25 13.8244 11.25 17C11.25 20.1756 13.8244 22.75 17 22.75C20.1756 22.75 22.75 20.1756 22.75 17ZM17 12.75C19.3472 12.75 21.25 14.6528 21.25 17C21.25 17.9027 20.9686 18.7397 20.4886 19.428L14.572 13.5114C15.2603 13.0314 16.0973 12.75 17 12.75ZM17 21.25C17.9027 21.25 18.7397 20.9686 19.428 20.4886L13.5114 14.572C13.0314 15.2603 12.75 16.0973 12.75 17C12.75 19.3472 14.6528 21.25 17 21.25Z" fill="#000"/>
</svg>
