<svg width="24" height="24" viewBox="0 0 24 24" fill="none" xmlns="http://www.w3.org/2000/svg">
<path fill-rule="evenodd" clip-rule="evenodd" d="M3.75012 7.5C3.75012 4.6005 6.10063 2.25 9.00012 2.25C11.8996 2.25 14.2501 4.6005 14.2501 7.5C14.2501 10.3995 11.8996 12.75 9.00012 12.75C6.10063 12.75 3.75012 10.3995 3.75012 7.5ZM9.00012 3.75C6.92905 3.75 5.25012 5.42893 5.25012 7.5C5.25012 9.57107 6.92905 11.25 9.00012 11.25C11.0712 11.25 12.7501 9.57107 12.7501 7.5C12.7501 5.42893 11.0712 3.75 9.00012 3.75Z" fill="#000"/>
<path d="M9.00056 15.75C5.2656 15.75 2.17585 18.073 1.74256 21.1061C1.68398 21.5161 1.30408 21.801 0.894029 21.7425C0.483979 21.6839 0.199055 21.304 0.257633 20.8939C0.824341 16.927 4.73459 14.25 9.00056 14.25C13.2666 14.25 17.1759 16.9271 17.7426 20.8939C17.8011 21.304 17.5162 21.6839 17.1062 21.7425C16.6961 21.801 16.3162 21.5161 16.2576 21.1061C15.8243 18.0729 12.7354 15.75 9.00056 15.75Z" fill="#000"/>
<path d="M23.0001 12.75C23.4143 12.75 23.7501 12.4142 23.7501 12C23.7501 11.5858 23.4143 11.25 23.0001 11.25H17.0001C16.5859 11.25 16.2501 11.5858 16.2501 12C16.2501 12.4142 16.5859 12.75 17.0001 12.75H23.0001Z" fill="#000"/>
</svg>
