<svg width="24" height="24" viewBox="0 0 24 24" fill="none" xmlns="http://www.w3.org/2000/svg">
<path d="M2.53033 1.46967C2.23744 1.17678 1.76256 1.17678 1.46967 1.46967C1.17678 1.76256 1.17678 2.23744 1.46967 2.53033L13.2685 14.3292C12.8514 14.2769 12.4277 14.25 12.0004 14.25C7.73446 14.25 3.82422 16.927 3.25751 20.8939C3.19893 21.304 3.48386 21.6839 3.89391 21.7425C4.30396 21.801 4.68386 21.5161 4.74244 21.1061C5.17573 18.073 8.26548 15.75 12.0004 15.75C13.2155 15.75 14.3623 15.9959 15.3714 16.4321L18.9922 20.0529C19.1162 20.392 19.2058 20.744 19.2575 21.1061C19.3161 21.5161 19.696 21.801 20.106 21.7425C20.258 21.7208 20.3927 21.6549 20.4992 21.5598L21.4697 22.5303C21.7626 22.8232 22.2374 22.8232 22.5303 22.5303C22.8232 22.2374 22.8232 21.7626 22.5303 21.4697L2.53033 1.46967Z" fill="#000"/>
<path d="M12 3.75C10.8586 3.75 9.83685 4.25903 9.1479 5.06509C8.87878 5.37996 8.40535 5.41705 8.09048 5.14792C7.77561 4.8788 7.73852 4.40538 8.00765 4.0905C8.96941 2.96524 10.4016 2.25 12 2.25C14.8995 2.25 17.25 4.6005 17.25 7.5C17.25 9.09841 16.5347 10.5306 15.4095 11.4923C15.0946 11.7615 14.6212 11.7244 14.3521 11.4095C14.0829 11.0946 14.12 10.6212 14.4349 10.3521C15.241 9.66313 15.75 8.64141 15.75 7.5C15.75 5.42893 14.071 3.75 12 3.75Z" fill="#000"/>
</svg>
