<svg width="24" height="24" viewBox="0 0 24 24" fill="none" xmlns="http://www.w3.org/2000/svg">
<path fill-rule="evenodd" clip-rule="evenodd" d="M12.0001 2.25C9.1006 2.25 6.75009 4.6005 6.75009 7.5C6.75009 10.3995 9.1006 12.75 12.0001 12.75C14.8996 12.75 17.2501 10.3995 17.2501 7.5C17.2501 4.6005 14.8996 2.25 12.0001 2.25ZM8.25009 7.5C8.25009 5.42893 9.92902 3.75 12.0001 3.75C14.0712 3.75 15.7501 5.42893 15.7501 7.5C15.7501 9.57107 14.0712 11.25 12.0001 11.25C9.92902 11.25 8.25009 9.57107 8.25009 7.5Z" fill="#000"/>
<path d="M4.74256 21.1061C5.17585 18.073 8.2656 15.75 12.0006 15.75C15.7354 15.75 18.8243 18.0729 19.2576 21.1061C19.3162 21.5161 19.6961 21.801 20.1062 21.7425C20.5162 21.6839 20.8011 21.304 20.7426 20.8939C20.1759 16.9271 16.2666 14.25 12.0006 14.25C7.73459 14.25 3.82434 16.927 3.25763 20.8939C3.19905 21.304 3.48398 21.6839 3.89403 21.7425C4.30408 21.801 4.68398 21.5161 4.74256 21.1061Z" fill="#000"/>
</svg>
