<svg width="24" height="24" viewBox="0 0 24 24" fill="none" xmlns="http://www.w3.org/2000/svg">
<path fill-rule="evenodd" clip-rule="evenodd" d="M10 1.25C7.1005 1.25 4.75 3.6005 4.75 6.5C4.75 9.3995 7.1005 11.75 10 11.75C12.8995 11.75 15.25 9.3995 15.25 6.5C15.25 3.6005 12.8995 1.25 10 1.25ZM6.25 6.5C6.25 4.42893 7.92893 2.75 10 2.75C12.0711 2.75 13.75 4.42893 13.75 6.5C13.75 8.57107 12.0711 10.25 10 10.25C7.92893 10.25 6.25 8.57107 6.25 6.5Z" fill="#000"/>
<path d="M2.74256 20.1062C3.17585 17.0731 6.2656 14.7501 10.0006 14.7501C10.8821 14.7501 11.7355 14.8818 12.5289 15.1251C12.9249 15.2465 13.3444 15.0239 13.4658 14.6279C13.5872 14.2318 13.3646 13.8124 12.9686 13.691C12.0326 13.404 11.0311 13.2501 10.0006 13.2501C5.73459 13.2501 1.82434 15.9271 1.25763 19.8941C1.19905 20.3041 1.48398 20.684 1.89403 20.7426C2.30408 20.8012 2.68398 20.5162 2.74256 20.1062Z" fill="#000"/>
<path fill-rule="evenodd" clip-rule="evenodd" d="M18.7348 11.654C19.5068 11.117 20.5313 11.1168 21.3036 11.6534C21.47 11.7691 21.6273 11.9265 21.81 12.1094L21.8906 12.1899C22.0736 12.3726 22.2312 12.5298 22.3469 12.6962C22.8841 13.4684 22.8843 14.4932 22.3474 15.2655C22.2317 15.4319 22.0742 15.5892 21.8913 15.772L15.9076 21.7568C15.8079 21.8565 15.6821 21.9261 15.5446 21.9576L12.1674 22.731C11.9157 22.7887 11.6521 22.7128 11.4696 22.5301C11.287 22.3475 11.2113 22.0838 11.269 21.8322L12.0433 18.4588C12.0748 18.3215 12.1444 18.1959 12.2439 18.0963L18.2286 12.1101C18.4112 11.9272 18.5684 11.7697 18.7348 11.654ZM20.4476 12.8852C20.1902 12.7063 19.8487 12.7064 19.5913 12.8854C19.5503 12.9139 19.4951 12.9649 19.2491 13.211L18.7704 13.6898L20.3113 15.2307L20.7902 14.7517C21.0363 14.5055 21.0872 14.4504 21.1158 14.4093C21.2948 14.1519 21.2947 13.8103 21.1156 13.5529C21.0871 13.5118 21.0361 13.4567 20.7899 13.2106C20.5438 12.9646 20.4886 12.9137 20.4476 12.8852ZM19.2508 16.2914L17.7099 14.7506L13.4571 19.0044L12.9986 21.0018L14.9994 20.5436L19.2508 16.2914Z" fill="#000"/>
</svg>
