<svg width="24" height="24" viewBox="0 0 24 24" fill="none" xmlns="http://www.w3.org/2000/svg">
<path fill-rule="evenodd" clip-rule="evenodd" d="M12 2.25C9.10047 2.25 6.74997 4.6005 6.74997 7.5C6.74997 10.3995 9.10047 12.75 12 12.75C14.8995 12.75 17.25 10.3995 17.25 7.5C17.25 4.6005 14.8995 2.25 12 2.25ZM8.24997 7.5C8.24997 5.42893 9.9289 3.75 12 3.75C14.071 3.75 15.75 5.42893 15.75 7.5C15.75 9.57107 14.071 11.25 12 11.25C9.9289 11.25 8.24997 9.57107 8.24997 7.5Z" fill="#000"/>
<path d="M4.74244 21.1061C5.17573 18.073 8.26548 15.75 12.0004 15.75C15.7353 15.75 18.8242 18.0729 19.2575 21.1061C19.3161 21.5161 19.696 21.801 20.106 21.7425C20.5161 21.6839 20.801 21.304 20.7424 20.8939C20.1757 16.9271 16.2665 14.25 12.0004 14.25C7.73446 14.25 3.82422 16.927 3.25751 20.8939C3.19893 21.304 3.48386 21.6839 3.89391 21.7425C4.30396 21.801 4.68386 21.5161 4.74244 21.1061Z" fill="#000"/>
</svg>
