<svg width="24" height="24" viewBox="0 0 24 24" fill="none" xmlns="http://www.w3.org/2000/svg">
<path fill-rule="evenodd" clip-rule="evenodd" d="M11.9996 6.75C9.92837 6.75 8.2496 8.42941 8.2496 10.5007C8.2496 12.572 9.92837 14.2514 11.9996 14.2514C14.0708 14.2514 15.7496 12.572 15.7496 10.5007C15.7496 8.42941 14.0708 6.75 11.9996 6.75ZM9.7496 10.5007C9.7496 9.25751 10.7571 8.25 11.9996 8.25C13.2421 8.25 14.2496 9.25751 14.2496 10.5007C14.2496 11.7439 13.2421 12.7514 11.9996 12.7514C10.7571 12.7514 9.7496 11.7439 9.7496 10.5007Z" fill="#000"/>
<path fill-rule="evenodd" clip-rule="evenodd" d="M12 23.75C14.6561 23.75 17.1064 22.8687 19.0744 21.3825C19.0821 21.3769 19.0896 21.3712 19.0971 21.3653C21.9242 19.2196 23.75 15.823 23.75 12C23.75 5.51065 18.4893 0.25 12 0.25C5.51065 0.25 0.25 5.51065 0.25 12C0.25 18.4893 5.51065 23.75 12 23.75ZM12 1.75C6.33908 1.75 1.75 6.33908 1.75 12C1.75 15.0487 3.08098 17.7865 5.19357 19.664C6.79616 17.4891 9.60503 16.25 11.9999 16.25C14.3947 16.25 17.2039 17.4891 18.8066 19.6639C20.9191 17.7864 22.25 15.0486 22.25 12C22.25 6.33908 17.6609 1.75 12 1.75ZM12 22.25C9.92697 22.25 7.99768 21.6346 6.38485 20.5765C7.67044 18.8159 10.0118 17.75 11.9999 17.75C13.988 17.75 16.3296 18.8159 17.6153 20.5764C16.0024 21.6346 14.0731 22.25 12 22.25Z" fill="#000"/>
</svg>
