<svg width="24" height="24" viewBox="0 0 24 24" fill="none" xmlns="http://www.w3.org/2000/svg">
<path d="M7.16762 1.25H8C8.41421 1.25 8.75 1.58579 8.75 2C8.75 2.41421 8.41421 2.75 8 2.75H7.2C6.27754 2.75 5.6308 2.75058 5.12648 2.79179C4.63092 2.83228 4.33928 2.90822 4.11502 3.02248C3.64462 3.26217 3.26217 3.64462 3.02248 4.11502C2.90822 4.33928 2.83228 4.63092 2.79179 5.12648C2.75058 5.6308 2.75 6.27754 2.75 7.2V8C2.75 8.41421 2.41421 8.75 2 8.75C1.58579 8.75 1.25 8.41421 1.25 8V7.16762C1.24999 6.285 1.24999 5.57692 1.29677 5.00433C1.34484 4.41601 1.44601 3.905 1.68597 3.43404C2.06947 2.68139 2.68139 2.06947 3.43404 1.68597C3.905 1.44601 4.41601 1.34484 5.00433 1.29677C5.57692 1.24999 6.285 1.24999 7.16762 1.25Z" fill="#000"/>
<path d="M18.8735 2.79179C18.3692 2.75058 17.7225 2.75 16.8 2.75H16C15.5858 2.75 15.25 2.41421 15.25 2C15.25 1.58579 15.5858 1.25 16 1.25H16.8324C17.715 1.24999 18.4231 1.24999 18.9957 1.29677C19.584 1.34484 20.095 1.44601 20.566 1.68597C21.3186 2.06947 21.9305 2.68139 22.314 3.43404C22.554 3.905 22.6552 4.41601 22.7032 5.00433C22.75 5.57691 22.75 6.28499 22.75 7.16761V8C22.75 8.41421 22.4142 8.75 22 8.75C21.5858 8.75 21.25 8.41421 21.25 8V7.2C21.25 6.27754 21.2494 5.6308 21.2082 5.12648C21.1677 4.63092 21.0918 4.33928 20.9775 4.11502C20.7378 3.64462 20.3554 3.26217 19.885 3.02248C19.6607 2.90822 19.3691 2.83228 18.8735 2.79179Z" fill="#000"/>
<path d="M2 15.25C2.41421 15.25 2.75 15.5858 2.75 16V16.8C2.75 17.7225 2.75058 18.3692 2.79179 18.8735C2.83228 19.3691 2.90822 19.6607 3.02248 19.885C3.26217 20.3554 3.64462 20.7378 4.11502 20.9775C4.33928 21.0918 4.63092 21.1677 5.12648 21.2082C5.6308 21.2494 6.27754 21.25 7.2 21.25H8C8.41421 21.25 8.75 21.5858 8.75 22C8.75 22.4142 8.41421 22.75 8 22.75H7.16761C6.28499 22.75 5.57691 22.75 5.00433 22.7032C4.41601 22.6552 3.905 22.554 3.43404 22.314C2.68139 21.9305 2.06947 21.3186 1.68597 20.566C1.44601 20.095 1.34484 19.584 1.29677 18.9957C1.24999 18.4231 1.24999 17.715 1.25 16.8324V16C1.25 15.5858 1.58579 15.25 2 15.25Z" fill="#000"/>
<path d="M22 15.25C22.4142 15.25 22.75 15.5858 22.75 16V16.8324C22.75 17.715 22.75 18.4231 22.7032 18.9957C22.6552 19.584 22.554 20.095 22.314 20.566C21.9305 21.3186 21.3186 21.9305 20.566 22.314C20.095 22.554 19.584 22.6552 18.9957 22.7032C18.4231 22.75 17.715 22.75 16.8324 22.75H16C15.5858 22.75 15.25 22.4142 15.25 22C15.25 21.5858 15.5858 21.25 16 21.25H16.8C17.7225 21.25 18.3692 21.2494 18.8735 21.2082C19.3691 21.1677 19.6607 21.0918 19.885 20.9775C20.3554 20.7378 20.7378 20.3554 20.9775 19.885C21.0918 19.6607 21.1677 19.3691 21.2082 18.8735C21.2494 18.3692 21.25 17.7225 21.25 16.8V16C21.25 15.5858 21.5858 15.25 22 15.25Z" fill="#000"/>
<path fill-rule="evenodd" clip-rule="evenodd" d="M8.75 9.5C8.75 7.70524 10.2046 6.25 11.9994 6.25C13.7942 6.25 15.2488 7.70524 15.2488 9.5C15.2488 11.2948 13.7942 12.75 11.9994 12.75C10.2046 12.75 8.75 11.2948 8.75 9.5ZM11.9994 7.75C11.0334 7.75 10.25 8.53334 10.25 9.5C10.25 10.4667 11.0334 11.25 11.9994 11.25C12.9654 11.25 13.7488 10.4667 13.7488 9.5C13.7488 8.53334 12.9654 7.75 11.9994 7.75Z" fill="#000"/>
<path d="M7.61286 17.4322C8.5879 16.0496 10.2826 15.25 11.9999 15.25C13.7173 15.25 15.412 16.0496 16.387 17.4322C16.6258 17.7707 17.0937 17.8516 17.4322 17.6129C17.7707 17.3742 17.8516 16.9063 17.6129 16.5678C16.3279 14.7457 14.1526 13.75 11.9999 13.75C9.84728 13.75 7.67195 14.7457 6.38702 16.5678C6.1483 16.9063 6.2292 17.3742 6.5677 17.6129C6.90621 17.8516 7.37414 17.7707 7.61286 17.4322Z" fill="#000"/>
</svg>
