<svg width="24" height="24" viewBox="0 0 24 24" fill="none" xmlns="http://www.w3.org/2000/svg">
<path fill-rule="evenodd" clip-rule="evenodd" d="M9.00012 2.25C6.10063 2.25 3.75012 4.6005 3.75012 7.5C3.75012 10.3995 6.10063 12.75 9.00012 12.75C11.8996 12.75 14.2501 10.3995 14.2501 7.5C14.2501 4.6005 11.8996 2.25 9.00012 2.25ZM5.25012 7.5C5.25012 5.42893 6.92905 3.75 9.00012 3.75C11.0712 3.75 12.7501 5.42893 12.7501 7.5C12.7501 9.57107 11.0712 11.25 9.00012 11.25C6.92905 11.25 5.25012 9.57107 5.25012 7.5Z" fill="#000"/>
<path d="M1.74256 21.1061C2.17585 18.073 5.2656 15.75 9.00056 15.75C12.7354 15.75 15.8243 18.0729 16.2576 21.1061C16.3162 21.5161 16.6961 21.801 17.1062 21.7425C17.5162 21.6839 17.8011 21.304 17.7426 20.8939C17.1759 16.9271 13.2666 14.25 9.00056 14.25C4.73459 14.25 0.824341 16.927 0.257633 20.8939C0.199055 21.304 0.483979 21.6839 0.894029 21.7425C1.30408 21.801 1.68398 21.5161 1.74256 21.1061Z" fill="#000"/>
<path d="M23.7501 12C23.7501 12.4142 23.4143 12.75 23.0001 12.75H20.7501V15C20.7501 15.4142 20.4143 15.75 20.0001 15.75C19.5859 15.75 19.2501 15.4142 19.2501 15V12.75H17.0001C16.5859 12.75 16.2501 12.4142 16.2501 12C16.2501 11.5858 16.5859 11.25 17.0001 11.25H19.2501V9C19.2501 8.58579 19.5859 8.25 20.0001 8.25C20.4143 8.25 20.7501 8.58579 20.7501 9V11.25H23.0001C23.4143 11.25 23.7501 11.5858 23.7501 12Z" fill="#000"/>
</svg>
