<svg width="24" height="24" viewBox="0 0 24 24" fill="none" xmlns="http://www.w3.org/2000/svg">
<path fill-rule="evenodd" clip-rule="evenodd" d="M3.75009 7.5C3.75009 4.6005 6.1006 2.25 9.00009 2.25C11.8996 2.25 14.2501 4.6005 14.2501 7.5C14.2501 10.3995 11.8996 12.75 9.00009 12.75C6.1006 12.75 3.75009 10.3995 3.75009 7.5ZM9.00009 3.75C6.92902 3.75 5.25009 5.42893 5.25009 7.5C5.25009 9.57107 6.92902 11.25 9.00009 11.25C11.0712 11.25 12.7501 9.57107 12.7501 7.5C12.7501 5.42893 11.0712 3.75 9.00009 3.75Z" fill="#000"/>
<path d="M9.00056 15.75C5.2656 15.75 2.17585 18.073 1.74256 21.1061C1.68398 21.5161 1.30408 21.801 0.894029 21.7425C0.483979 21.6839 0.199055 21.304 0.257633 20.8939C0.824341 16.927 4.73459 14.25 9.00056 14.25C13.2666 14.25 17.1759 16.9271 17.7426 20.8939C17.8011 21.304 17.5162 21.6839 17.1062 21.7425C16.6961 21.801 16.3162 21.5161 16.2576 21.1061C15.8243 18.0729 12.7354 15.75 9.00056 15.75Z" fill="#000"/>
<path d="M23.5304 9.53033C23.8233 9.23744 23.8233 8.76256 23.5304 8.46967C23.2375 8.17678 22.7627 8.17678 22.4698 8.46967L18.5001 12.4393L16.5304 10.4697C16.2375 10.1768 15.7627 10.1768 15.4698 10.4697C15.1769 10.7626 15.1769 11.2374 15.4698 11.5303L17.9698 14.0303C18.2627 14.3232 18.7375 14.3232 19.0304 14.0303L23.5304 9.53033Z" fill="#000"/>
</svg>
