<svg width="24" height="24" viewBox="0 0 24 24" fill="none" xmlns="http://www.w3.org/2000/svg">
<path fill-rule="evenodd" clip-rule="evenodd" d="M9.00012 2.25C6.10063 2.25 3.75012 4.6005 3.75012 7.5C3.75012 10.3995 6.10063 12.75 9.00012 12.75C11.8996 12.75 14.2501 10.3995 14.2501 7.5C14.2501 4.6005 11.8996 2.25 9.00012 2.25ZM5.25012 7.5C5.25012 5.42893 6.92905 3.75 9.00012 3.75C11.0712 3.75 12.7501 5.42893 12.7501 7.5C12.7501 9.57107 11.0712 11.25 9.00012 11.25C6.92905 11.25 5.25012 9.57107 5.25012 7.5Z" fill="#000"/>
<path d="M1.74256 21.1061C2.17585 18.073 5.2656 15.75 9.00056 15.75C12.7354 15.75 15.8243 18.0729 16.2576 21.1061C16.3162 21.5161 16.6961 21.801 17.1062 21.7425C17.5162 21.6839 17.8011 21.304 17.7426 20.8939C17.1759 16.9271 13.2666 14.25 9.00056 14.25C4.73459 14.25 0.824341 16.927 0.257633 20.8939C0.199055 21.304 0.483979 21.6839 0.894029 21.7425C1.30408 21.801 1.68398 21.5161 1.74256 21.1061Z" fill="#000"/>
<path d="M23.5305 14.5302C23.2376 14.8231 22.7627 14.8231 22.4698 14.5302L20.5001 12.5605L18.5304 14.5302C18.2376 14.8231 17.7627 14.8231 17.4698 14.5302C17.1769 14.2373 17.1769 13.7624 17.4698 13.4695L19.4395 11.4999L17.4698 9.53025C17.1769 9.23735 17.1769 8.76248 17.4698 8.46959C17.7627 8.17669 18.2376 8.17669 18.5305 8.46959L20.5001 10.4392L22.4698 8.46958C22.7626 8.17669 23.2375 8.17669 23.5304 8.46958C23.8233 8.76247 23.8233 9.23735 23.5304 9.53024L21.5608 11.4999L23.5305 13.4696C23.8233 13.7625 23.8233 14.2373 23.5305 14.5302Z" fill="#000"/>
</svg>
