<svg width="24" height="24" viewBox="0 0 24 24" fill="none" xmlns="http://www.w3.org/2000/svg">
<path fill-rule="evenodd" clip-rule="evenodd" d="M20.5 7.25H20.75C21.8546 7.25 22.75 6.35457 22.75 5.25V3.25C22.75 2.14543 21.8546 1.25 20.75 1.25H18.75C17.6454 1.25 16.75 2.14543 16.75 3.25V3.5H7.25V3.25C7.25 2.14543 6.35457 1.25 5.25 1.25H3.25C2.14543 1.25 1.25 2.14543 1.25 3.25V5.25C1.25 6.35457 2.14543 7.25 3.25 7.25H3.5V16.75H3.25C2.14543 16.75 1.25 17.6454 1.25 18.75V20.75C1.25 21.8546 2.14543 22.75 3.25 22.75H5.25C6.35457 22.75 7.25 21.8546 7.25 20.75V20.5H16.75V20.75C16.75 21.8546 17.6454 22.75 18.75 22.75H20.75C21.8546 22.75 22.75 21.8546 22.75 20.75V18.75C22.75 17.6454 21.8546 16.75 20.75 16.75H20.5V7.25ZM18.75 2.75C18.4739 2.75 18.25 2.97386 18.25 3.25V5.25C18.25 5.52614 18.4739 5.75 18.75 5.75H20.75C21.0261 5.75 21.25 5.52614 21.25 5.25V3.25C21.25 2.97386 21.0261 2.75 20.75 2.75H18.75ZM19 7.25H18.75C17.6454 7.25 16.75 6.35457 16.75 5.25V5H7.25V5.25C7.25 6.35457 6.35457 7.25 5.25 7.25H5V16.75H5.25C6.35457 16.75 7.25 17.6454 7.25 18.75V19H16.75V18.75C16.75 17.6454 17.6454 16.75 18.75 16.75H19V7.25ZM18.75 18.25C18.4739 18.25 18.25 18.4739 18.25 18.75V20.75C18.25 21.0261 18.4739 21.25 18.75 21.25H20.75C21.0261 21.25 21.25 21.0261 21.25 20.75V18.75C21.25 18.4739 21.0261 18.25 20.75 18.25H18.75ZM5.75 3.25C5.75 2.97386 5.52614 2.75 5.25 2.75H3.25C2.97386 2.75 2.75 2.97386 2.75 3.25V5.25C2.75 5.52614 2.97386 5.75 3.25 5.75H5.25C5.52614 5.75 5.75 5.52614 5.75 5.25V3.25ZM5.75 18.75C5.75 18.4739 5.52614 18.25 5.25 18.25H3.25C2.97386 18.25 2.75 18.4739 2.75 18.75V20.75C2.75 21.0261 2.97386 21.25 3.25 21.25H5.25C5.52614 21.25 5.75 21.0261 5.75 20.75V18.75Z" fill="#000"/>
</svg>
