<svg width="24" height="24" viewBox="0 0 24 24" fill="none" xmlns="http://www.w3.org/2000/svg">
<path fill-rule="evenodd" clip-rule="evenodd" d="M2.53039 1.46967C2.2375 1.17678 1.76262 1.17678 1.46973 1.46967C1.17684 1.76256 1.17684 2.23744 1.46973 2.53033L2.92649 3.98709C2.75627 4.03993 2.5926 4.10518 2.43404 4.18597C1.68139 4.56947 1.06947 5.18139 0.685974 5.93404C0.44601 6.405 0.344838 6.91601 0.29677 7.50433C0.249988 8.07692 0.249993 8.785 0.25 9.66763V14.3324C0.249993 15.215 0.249988 15.9231 0.29677 16.4957C0.344838 17.084 0.44601 17.595 0.685974 18.066C1.06947 18.8186 1.68139 19.4305 2.43404 19.814C2.905 20.054 3.41601 20.1552 4.00433 20.2032C4.57691 20.25 5.28499 20.25 6.16761 20.25H12.3324C13.215 20.25 13.9231 20.25 14.4957 20.2032C15.084 20.1552 15.595 20.054 16.066 19.814C16.6427 19.5202 17.1368 19.0921 17.5089 18.5695L21.4697 22.5303C21.7626 22.8232 22.2375 22.8232 22.5304 22.5303C22.8233 22.2374 22.8233 21.7626 22.5304 21.4697L17.8495 16.7888C17.8428 16.7818 17.8359 16.775 17.829 16.7682L2.53039 1.46967ZM4.22395 5.28455C3.67149 5.32295 3.35747 5.39895 3.11502 5.52248C2.64462 5.76217 2.26217 6.14462 2.02248 6.61502C1.90822 6.83928 1.83228 7.13092 1.79179 7.62648C1.75058 8.1308 1.75 8.77754 1.75 9.7V14.3C1.75 15.2225 1.75058 15.8692 1.79179 16.3735C1.83228 16.8691 1.90822 17.1607 2.02248 17.385C2.26217 17.8554 2.64462 18.2378 3.11502 18.4775C3.33928 18.5918 3.63092 18.6677 4.12648 18.7082C4.6308 18.7494 5.27754 18.75 6.2 18.75H12.3C13.2225 18.75 13.8692 18.7494 14.3735 18.7082C14.8691 18.6677 15.1607 18.5918 15.385 18.4775C15.8217 18.255 16.1827 17.9093 16.4239 17.4845L4.22395 5.28455Z" fill="#000"/>
<path fill-rule="evenodd" clip-rule="evenodd" d="M14.3735 5.29179C13.8692 5.25058 13.2225 5.25 12.3 5.25H8.50006C8.08585 5.25 7.75006 4.91421 7.75006 4.5C7.75006 4.08579 8.08585 3.75 8.50006 3.75H12.3324C13.215 3.74999 13.9231 3.74999 14.4957 3.79677C15.084 3.84484 15.595 3.94601 16.066 4.18597C16.8186 4.56947 17.4305 5.18139 17.814 5.93404C18.054 6.405 18.1552 6.91601 18.2032 7.50433C18.2337 7.8773 18.2443 8.30776 18.248 8.80649L20.9901 6.31369C22.05 5.35014 23.75 6.10216 23.75 7.53459V16.4656C23.75 17.898 22.05 18.6501 20.9901 17.6865L16.9955 14.0551L16.9889 14.0489C16.8419 13.9119 16.75 13.7167 16.75 13.4999V9.7C16.75 8.77754 16.7494 8.1308 16.7082 7.62648C16.6677 7.13092 16.5918 6.83928 16.4775 6.61502C16.2378 6.14462 15.8554 5.76217 15.385 5.52248C15.1607 5.40822 14.8691 5.33228 14.3735 5.29179ZM22.0764 7.38404C22.056 7.38686 22.0302 7.3953 21.9991 7.4236L18.25 10.8319V13.1683L21.9991 16.5766C22.0302 16.6049 22.056 16.6133 22.0764 16.6162C22.1005 16.6195 22.1303 16.6162 22.1607 16.6028C22.1911 16.5893 22.2136 16.5695 22.2273 16.5494C22.2389 16.5324 22.25 16.5077 22.25 16.4656V7.53459C22.25 7.49252 22.2389 7.46777 22.2273 7.45081C22.2136 7.43074 22.1911 7.41086 22.1607 7.39742C22.1303 7.38398 22.1005 7.38071 22.0764 7.38404Z" fill="#000"/>
</svg>
