<svg width="24" height="24" viewBox="0 0 24 24" fill="none" xmlns="http://www.w3.org/2000/svg">
<path fill-rule="evenodd" clip-rule="evenodd" d="M11.186 2.72637C11.5232 2.41985 11.9625 2.25 12.4182 2.25C13.4299 2.25 14.25 3.07012 14.25 4.08178V19.9182C14.25 20.9299 13.4299 21.75 12.4182 21.75C11.9625 21.75 11.5232 21.5802 11.186 21.2736L6.79648 17.2831C6.47572 16.9915 6.39708 16.9258 6.31725 16.8804C6.23155 16.8318 6.13913 16.796 6.04298 16.7744C5.95342 16.7542 5.851 16.75 5.4175 16.75H3.87108C3.47572 16.75 3.13466 16.75 2.85373 16.7271C2.55722 16.7028 2.26231 16.6494 1.97852 16.5048C1.55516 16.289 1.21095 15.9448 0.995237 15.5215C0.850641 15.2377 0.797154 14.9428 0.772929 14.6463C0.749976 14.3653 0.749987 14.0243 0.750001 13.6289V10.3711C0.749987 9.97574 0.749976 9.63465 0.772929 9.35373C0.797154 9.05722 0.850641 8.76231 0.995237 8.47852C1.21095 8.05516 1.55516 7.71095 1.97852 7.49524C2.26231 7.35064 2.55722 7.29715 2.85373 7.27293C3.13466 7.24997 3.47574 7.24999 3.8711 7.25L5.4175 7.25C5.851 7.25 5.95342 7.24576 6.04298 7.2256C6.13913 7.20397 6.23155 7.16823 6.31725 7.11957C6.39708 7.07424 6.47572 7.00848 6.79648 6.71688L11.186 2.72637ZM12.4182 3.75C12.3357 3.75 12.2561 3.78076 12.195 3.83628L7.75864 7.86942C7.50846 8.09717 7.30133 8.28572 7.05797 8.42392C6.84373 8.54559 6.61267 8.63492 6.37229 8.68901C6.09926 8.75045 5.81917 8.75026 5.48085 8.75003L3.9 8.75C3.46759 8.75 3.18838 8.75058 2.97588 8.76795C2.77213 8.78459 2.69659 8.81285 2.65951 8.83175C2.51839 8.90365 2.40365 9.01839 2.33175 9.15951C2.31285 9.19659 2.28459 9.27213 2.26795 9.47588C2.25058 9.68838 2.25 9.96758 2.25 10.4V13.6C2.25 14.0324 2.25058 14.3116 2.26795 14.5241C2.28459 14.7279 2.31285 14.8034 2.33175 14.8405C2.40365 14.9816 2.51839 15.0963 2.65951 15.1683C2.69659 15.1872 2.77213 15.2154 2.97588 15.2321C3.18838 15.2494 3.46759 15.25 3.9 15.25L5.48085 15.25C5.81916 15.2497 6.09926 15.2496 6.37229 15.311C6.61267 15.3651 6.84373 15.4544 7.05797 15.5761C7.30133 15.7143 7.50846 15.9028 7.75864 16.1306L12.195 20.1637C12.2561 20.2192 12.3357 20.25 12.4182 20.25C12.6015 20.25 12.75 20.1015 12.75 19.9182V4.08178C12.75 3.89854 12.6015 3.75 12.4182 3.75Z" fill="#000"/>
<path d="M17.9004 3.54958C18.1491 3.2184 18.6193 3.15161 18.9505 3.40039C21.5595 5.36032 23.25 8.48263 23.25 12C23.25 15.5171 21.5603 18.6396 18.9515 20.5997C18.6203 20.8485 18.1502 20.7817 17.9014 20.4506C17.6526 20.1194 17.7193 19.6492 18.0505 19.4004C20.2984 17.7115 21.75 15.0254 21.75 12C21.75 8.9745 20.2979 6.28862 18.0496 4.5997C17.7184 4.35092 17.6516 3.88076 17.9004 3.54958Z" fill="#000"/>
<path d="M17.0002 6.96899C16.6915 6.69274 16.2174 6.71901 15.9412 7.02765C15.6649 7.3363 15.6912 7.81045 15.9998 8.08669C17.0751 9.04907 17.75 10.4452 17.75 12.0001C17.75 13.5549 17.0751 14.951 15.9998 15.9134C15.6912 16.1897 15.6649 16.6638 15.9412 16.9724C16.2174 17.2811 16.6915 17.3074 17.0002 17.0311C18.3799 15.7962 19.25 13.9992 19.25 12.0001C19.25 10.0009 18.3799 8.20389 17.0002 6.96899Z" fill="#000"/>
</svg>
