<svg width="24" height="24" viewBox="0 0 24 24" fill="none" xmlns="http://www.w3.org/2000/svg">
<path d="M18.0001 13.2498C17.4478 13.2498 17.0001 13.6975 17.0001 14.2498C17.0001 14.802 17.4478 15.2498 18.0001 15.2498C18.5523 15.2498 19.0002 14.802 19.0002 14.2498C19.0002 13.6975 18.5523 13.2498 18.0001 13.2498Z" fill="#000"/>
<path fill-rule="evenodd" clip-rule="evenodd" d="M1.25006 16.4324C1.25005 17.3848 1.25005 18.1454 1.30024 18.7596C1.35171 19.3896 1.45969 19.9315 1.71328 20.4292C2.12075 21.2289 2.77091 21.8791 3.5706 22.2865C4.0683 22.5401 4.61018 22.6481 5.24019 22.6996C5.85444 22.7498 6.61496 22.7498 7.56737 22.7498H16.4327C17.3851 22.7498 18.1457 22.7498 18.7599 22.6996C19.3899 22.6481 19.9318 22.5401 20.4295 22.2865C21.2292 21.8791 21.8794 21.2289 22.2868 20.4292C22.5404 19.9315 22.6484 19.3896 22.6999 18.7596C22.7501 18.1454 22.7501 17.3849 22.7501 16.4325V12.0671C22.7501 11.1147 22.7501 10.3541 22.6999 9.73989C22.6484 9.10988 22.5404 8.56799 22.2868 8.0703C21.8794 7.27061 21.2292 6.62044 20.4295 6.21298C20.0657 6.0276 19.6783 5.92004 19.2501 5.85547V5.17121C19.2501 4.53763 19.2501 4.01181 19.2123 3.59218C19.1735 3.16139 19.0887 2.74468 18.8528 2.37785C18.5051 1.83719 17.9625 1.45124 17.3377 1.30015C16.9138 1.19764 16.4923 1.25426 16.0726 1.35892C15.6638 1.46085 15.1671 1.63336 14.5686 1.84121L5.36996 5.03566C4.15781 5.45613 3.35414 5.73492 2.74524 6.25323C2.20893 6.70975 1.79449 7.29241 1.53916 7.94881C1.24929 8.69404 1.24959 9.54469 1.25003 10.8277L1.25006 16.4324ZM16.4356 2.81435C16.1002 2.89796 15.6677 3.04743 15.0276 3.26972L7.88616 5.74976H16.4327C16.92 5.74975 17.3571 5.74975 17.7501 5.75647V5.20627C17.7501 4.52866 17.7494 4.071 17.7183 3.7268C17.6876 3.38604 17.6334 3.25482 17.5912 3.18921C17.4521 2.97295 17.235 2.81857 16.9851 2.75813C16.9093 2.73979 16.7675 2.73157 16.4356 2.81435ZM2.75007 12.9998L2.75006 13.0036V16.3998C2.75006 17.3922 2.75064 18.0915 2.79526 18.6375C2.83915 19.1747 2.92191 19.4972 3.04979 19.7482C3.31345 20.2657 3.73414 20.6864 4.25159 20.95C4.50258 21.0779 4.82509 21.1607 5.36234 21.2046C5.90835 21.2492 6.60759 21.2498 7.60006 21.2498H16.4001C17.3925 21.2498 18.0918 21.2492 18.6378 21.2046C19.175 21.1607 19.4975 21.0779 19.7485 20.95C20.266 20.6864 20.6867 20.2657 20.9503 19.7482C21.0782 19.4972 21.161 19.1747 21.2049 18.6375C21.2495 18.0915 21.2501 17.3922 21.2501 16.3998V12.0998C21.2501 11.1073 21.2495 10.408 21.2049 9.86204C21.161 9.32479 21.0782 9.00228 20.9503 8.75128C20.6867 8.23384 20.266 7.81314 19.7485 7.54949C19.4975 7.4216 19.175 7.33885 18.6378 7.29495C18.0918 7.25034 17.3925 7.24976 16.4001 7.24976H7.60006C6.60759 7.24976 5.90835 7.25034 5.36234 7.29495C4.82509 7.33885 4.50258 7.4216 4.25159 7.54949C3.73414 7.81314 3.31345 8.23384 3.04979 8.75128C2.92191 9.00228 2.83915 9.32479 2.79526 9.86204C2.75284 10.3812 2.75023 11.0388 2.75007 11.9553V12.9998Z" fill="#000"/>
</svg>
