<svg width="24" height="24" viewBox="0 0 24 24" fill="none" xmlns="http://www.w3.org/2000/svg">
<path fill-rule="evenodd" clip-rule="evenodd" d="M3.75 9.83017C3.75031 9.40013 3.75221 9.05332 3.75977 8.76653C3.87827 7.35702 5.05986 6.25 6.5 6.25H19.4887L19.4999 6.25008L19.5099 6.25002C21.0241 6.25535 22.25 7.48452 22.25 9V17.5C22.25 19.0188 21.0188 20.25 19.5 20.25H13.4185C13.0043 20.25 12.6685 20.5858 12.6685 21C12.6685 21.4142 13.0043 21.75 13.4185 21.75H19.5C21.8472 21.75 23.75 19.8472 23.75 17.5V9C23.75 6.90869 22.2395 5.17017 20.2499 4.81596V4.17145C20.25 3.53787 20.25 3.01205 20.2122 2.59242C20.1733 2.16163 20.0886 1.74492 19.8527 1.37809C19.505 0.837438 18.9624 0.451487 18.3376 0.300397C17.9137 0.197885 17.4922 0.254508 17.0725 0.35916C16.6637 0.461099 16.167 0.633604 15.5685 0.841459L6.36984 4.0359C5.1577 4.45637 4.35401 4.73516 3.74512 5.25347C3.20881 5.71 2.79436 6.29265 2.53904 6.94905C2.34154 7.45679 2.27874 8.01347 2.25892 8.72249C2.253 8.81423 2.25 8.90677 2.25 9V9.49592C2.24983 9.60334 2.24987 9.71393 2.24991 9.82794L2.24995 9.98348L2.25 9.99235V10.5815C2.25 10.9957 2.58579 11.3315 3 11.3315C3.41421 11.3315 3.75 10.9957 3.75 10.5815V9.83017ZM16.0274 2.26996C16.6675 2.04767 17.1001 1.89821 17.4354 1.81459C17.7674 1.73181 17.9092 1.74004 17.985 1.75837C18.2349 1.81881 18.452 1.97319 18.591 2.18945C18.6332 2.25507 18.6875 2.38629 18.7182 2.72704C18.7492 3.07124 18.7499 3.52891 18.7499 4.20651V4.75H8.88604L16.0274 2.26996Z" fill="#000"/>
<path d="M18 13.25C18 12.6977 18.4477 12.25 19 12.25C19.5523 12.25 20.0001 12.6977 20.0001 13.25C20.0001 13.8023 19.5524 14.25 19.0001 14.25C18.4478 14.25 18 13.8023 18 13.25Z" fill="#000"/>
<path d="M8 18.625C8.34518 18.625 8.625 18.3452 8.625 18C8.625 17.6548 8.34518 17.375 8 17.375H4C3.65482 17.375 3.375 17.6548 3.375 18C3.375 18.3452 3.65482 18.625 4 18.625H8Z" fill="#000"/>
<path fill-rule="evenodd" clip-rule="evenodd" d="M0.25 18C0.25 14.8244 2.82436 12.25 6 12.25C9.17564 12.25 11.75 14.8244 11.75 18C11.75 21.1756 9.17564 23.75 6 23.75C2.82436 23.75 0.25 21.1756 0.25 18ZM6 13.75C3.65279 13.75 1.75 15.6528 1.75 18C1.75 20.3472 3.65279 22.25 6 22.25C8.34721 22.25 10.25 20.3472 10.25 18C10.25 15.6528 8.34721 13.75 6 13.75Z" fill="#000"/>
</svg>
