<svg width="24" height="24" viewBox="0 0 24 24" fill="none" xmlns="http://www.w3.org/2000/svg">
<path fill-rule="evenodd" clip-rule="evenodd" d="M3.75001 9.98348L3.75 9.98731V10.5815C3.75 10.9957 3.41421 11.3315 3 11.3315C2.58579 11.3315 2.25 10.9957 2.25 10.5815V9C2.25 8.9062 2.25304 8.81311 2.25902 8.72082C2.2789 8.0126 2.34176 7.4564 2.5391 6.94905C2.79442 6.29265 3.20887 5.71 3.74518 5.25347C4.35407 4.73516 5.15776 4.45637 6.3699 4.0359L15.5686 0.841459C16.1671 0.633604 16.6638 0.461099 17.0726 0.35916C17.4922 0.254508 17.9137 0.197885 18.3376 0.300397C18.9624 0.451487 19.505 0.837438 19.8527 1.37809C20.0886 1.74492 20.1734 2.16163 20.2122 2.59242C20.25 3.01205 20.25 3.53787 20.25 4.17145V4.81597C22.2395 5.17021 23.75 6.90871 23.75 9V17.5C23.75 19.8472 21.8472 21.75 19.5 21.75H13.4185C13.0043 21.75 12.6685 21.4142 12.6685 21C12.6685 20.5858 13.0043 20.25 13.4185 20.25H19.5C21.0188 20.25 22.25 19.0188 22.25 17.5V9C22.25 7.48453 21.0242 6.25538 19.5099 6.25002L19.5 6.25008L19.4888 6.25H6.5C5.06021 6.25 3.87886 7.35647 3.75986 8.76548C3.7514 9.08578 3.75001 9.48098 3.75001 9.98348ZM17.4355 1.81459C17.1002 1.89821 16.6676 2.04767 16.0275 2.26996L8.8861 4.75H18.75V4.20651C18.75 3.52891 18.7493 3.07124 18.7183 2.72704C18.6876 2.38629 18.6333 2.25507 18.5911 2.18945C18.452 1.97319 18.235 1.81881 17.9851 1.75837C17.9092 1.74004 17.7675 1.73181 17.4355 1.81459Z" fill="#000"/>
<path d="M19 12.25C18.4477 12.25 18 12.6977 18 13.25C18 13.8023 18.4477 14.25 19 14.25C19.5523 14.25 20.0001 13.8023 20.0001 13.25C20.0001 12.6977 19.5523 12.25 19 12.25Z" fill="#000"/>
<path d="M8.625 18C8.625 18.3452 8.34518 18.625 8 18.625H6.625V20C6.625 20.3452 6.34518 20.625 6 20.625C5.65482 20.625 5.375 20.3452 5.375 20V18.625H4C3.65482 18.625 3.375 18.3452 3.375 18C3.375 17.6548 3.65482 17.375 4 17.375H5.375V16C5.375 15.6548 5.65482 15.375 6 15.375C6.34518 15.375 6.625 15.6548 6.625 16V17.375H8C8.34518 17.375 8.625 17.6548 8.625 18Z" fill="#000"/>
<path fill-rule="evenodd" clip-rule="evenodd" d="M6 12.25C2.82436 12.25 0.25 14.8244 0.25 18C0.25 21.1756 2.82436 23.75 6 23.75C9.17564 23.75 11.75 21.1756 11.75 18C11.75 14.8244 9.17564 12.25 6 12.25ZM1.75 18C1.75 15.6528 3.65279 13.75 6 13.75C8.34721 13.75 10.25 15.6528 10.25 18C10.25 20.3472 8.34721 22.25 6 22.25C3.65279 22.25 1.75 20.3472 1.75 18Z" fill="#000"/>
</svg>
