<svg width="24" height="24" viewBox="0 0 24 24" fill="none" xmlns="http://www.w3.org/2000/svg">
<path fill-rule="evenodd" clip-rule="evenodd" d="M3.75977 8.76653C3.75221 9.05332 3.75031 9.40013 3.75 9.83017V10.5815C3.75 10.9957 3.41421 11.3315 3 11.3315C2.58579 11.3315 2.25 10.9957 2.25 10.5815V9.99235L2.24995 9.98348L2.24991 9.82794C2.24987 9.71393 2.24983 9.60334 2.25 9.49592V9C2.25 8.90677 2.253 8.81423 2.25892 8.72249C2.27874 8.01347 2.34154 7.45679 2.53904 6.94905C2.79436 6.29265 3.20881 5.71 3.74512 5.25347C4.35401 4.73516 5.1577 4.45637 6.36984 4.0359L15.5685 0.841459C16.167 0.633604 16.6637 0.461099 17.0725 0.35916C17.4922 0.254508 17.9137 0.197885 18.3376 0.300397C18.9624 0.451487 19.505 0.837438 19.8527 1.37809C20.0886 1.74492 20.1733 2.16163 20.2122 2.59242C20.25 3.01205 20.25 3.53787 20.2499 4.17145V4.81596C22.2395 5.17017 23.75 6.90869 23.75 9V17.5C23.75 19.8472 21.8472 21.75 19.5 21.75H13.4185C13.0043 21.75 12.6685 21.4142 12.6685 21C12.6685 20.5858 13.0043 20.25 13.4185 20.25H19.5C21.0188 20.25 22.25 19.0188 22.25 17.5V9C22.25 7.48452 21.0241 6.25535 19.5099 6.25002L19.4999 6.25008L19.4887 6.25H6.5C5.05986 6.25 3.87827 7.35702 3.75977 8.76653ZM17.4354 1.81459C17.1001 1.89821 16.6675 2.04767 16.0274 2.26996L8.88604 4.75H18.7499V4.20651C18.7499 3.52891 18.7492 3.07124 18.7182 2.72704C18.6875 2.38629 18.6332 2.25507 18.591 2.18945C18.452 1.97319 18.2349 1.81881 17.985 1.75837C17.9092 1.74004 17.7674 1.73181 17.4354 1.81459Z" fill="#000"/>
<path d="M19 12.25C18.4477 12.25 18 12.6977 18 13.25C18 13.8023 18.4477 14.25 19 14.25C19.5523 14.25 20.0001 13.8023 20.0001 13.25C20.0001 12.6977 19.5523 12.25 19 12.25Z" fill="#000"/>
<path d="M6.625 17.0089L7.55804 17.9419C7.80212 18.186 8.19785 18.186 8.44193 17.9419C8.686 17.6978 8.686 17.3021 8.44193 17.058L6.44194 15.058C6.32473 14.9408 6.16575 14.875 5.99999 14.875C5.83423 14.875 5.67526 14.9408 5.55805 15.058L3.55803 17.0581C3.31395 17.3021 3.31395 17.6979 3.55803 17.9419C3.80211 18.186 4.19784 18.186 4.44191 17.9419L5.375 17.0089L5.375 20.5C5.375 20.8452 5.65482 21.125 6 21.125C6.34518 21.125 6.625 20.8452 6.625 20.5L6.625 17.0089Z" fill="#000"/>
<path fill-rule="evenodd" clip-rule="evenodd" d="M6 12.25C2.82436 12.25 0.25 14.8244 0.25 18C0.25 21.1756 2.82436 23.75 6 23.75C9.17564 23.75 11.75 21.1756 11.75 18C11.75 14.8244 9.17564 12.25 6 12.25ZM1.75 18C1.75 15.6528 3.65279 13.75 6 13.75C8.34721 13.75 10.25 15.6528 10.25 18C10.25 20.3472 8.34721 22.25 6 22.25C3.65279 22.25 1.75 20.3472 1.75 18Z" fill="#000"/>
</svg>
