<svg width="24" height="24" viewBox="0 0 24 24" fill="none" xmlns="http://www.w3.org/2000/svg">
<path d="M13.75 6.99982C13.75 7.41403 13.4142 7.74982 13 7.74982H11C10.5858 7.74982 10.25 7.41403 10.25 6.99982C10.25 6.5856 10.5858 6.24982 11 6.24982H13C13.4142 6.24982 13.75 6.5856 13.75 6.99982Z" fill="#000"/>
<path fill-rule="evenodd" clip-rule="evenodd" d="M12.9264 1.36274C12.3186 1.20778 11.6815 1.20778 11.0737 1.36274C10.383 1.53882 9.76876 1.98149 8.87847 2.62313L3.47119 6.51641C2.82311 6.98268 2.37487 7.30518 2.04389 7.72924C1.75175 8.10354 1.53335 8.52991 1.4003 8.98569C1.24955 9.50208 1.24974 10.0543 1.25002 10.8527L1.25005 18.8303C1.25004 19.3645 1.25003 19.8103 1.27979 20.1746C1.31083 20.5544 1.37794 20.9111 1.54978 21.2484C1.81343 21.7658 2.23413 22.1865 2.75157 22.4501C3.08884 22.622 3.44549 22.6891 3.82538 22.7201C4.18961 22.7499 4.63545 22.7499 5.1696 22.7499H18.8305C19.3646 22.7499 19.8105 22.7499 20.1747 22.7201C20.5546 22.6891 20.9113 22.622 21.2485 22.4501C21.766 22.1865 22.1867 21.7658 22.4503 21.2484C22.6222 20.9111 22.6893 20.5544 22.7203 20.1746C22.7501 19.8103 22.7501 19.3645 22.75 18.8303L22.7501 10.8527C22.7504 10.0543 22.7505 9.50208 22.5998 8.98569C22.4667 8.52991 22.2483 8.10354 21.9562 7.72924C21.6252 7.30518 21.177 6.98269 20.5289 6.51642L15.1216 2.62312C14.2313 1.98149 13.6171 1.53882 12.9264 1.36274ZM11.4442 2.81625C11.8089 2.72328 12.1911 2.72328 12.5559 2.81625C12.9355 2.91304 13.306 3.16428 14.3665 3.92783L19.5665 7.67185C20.3336 8.22415 20.5913 8.41846 20.7737 8.65216C20.949 8.87674 21.0801 9.13256 21.1599 9.40603C21.243 9.69061 21.25 10.0133 21.25 10.9586V18.7999C21.25 19.3723 21.2495 19.7565 21.2253 20.0524C21.2018 20.3395 21.1599 20.4768 21.1138 20.5674C20.994 20.8026 20.8027 20.9938 20.5675 21.1136C20.477 21.1598 20.3397 21.2017 20.0526 21.2251C19.8419 21.2423 19.5864 21.2476 19.25 21.2492V12.4998C19.25 11.5333 18.4665 10.7498 17.5 10.7498H6.5C5.5335 10.7498 4.75 11.5333 4.75 12.4998V21.2492C4.41368 21.2476 4.15821 21.2423 3.94753 21.2251C3.6604 21.2017 3.52312 21.1598 3.43256 21.1136C3.19736 20.9938 3.00613 20.8026 2.88629 20.5674C2.84015 20.4768 2.79826 20.3395 2.77481 20.0524C2.75063 19.7565 2.75005 19.3723 2.75005 18.7999V10.9586C2.75005 10.0133 2.75712 9.69061 2.8402 9.40603C2.92003 9.13256 3.05107 8.87674 3.22635 8.65216C3.40876 8.41846 3.66652 8.22415 4.43361 7.67185L9.63361 3.92783C10.6941 3.16428 11.0646 2.91304 11.4442 2.81625ZM6.25 19.25V21.2498H17.75V19.25H6.25ZM17.75 17.75H6.25V15.75H17.75V17.75ZM17.75 12.4998V14.25H6.25V12.4998C6.25 12.3617 6.36193 12.2498 6.5 12.2498H17.5C17.6381 12.2498 17.75 12.3617 17.75 12.4998Z" fill="#000"/>
</svg>
