<svg width="24" height="24" viewBox="0 0 24 24" fill="none" xmlns="http://www.w3.org/2000/svg">
<path d="M22.75 12.501C22.75 12.915 22.414 13.251 22 13.251H18.236C18.115 13.251 17.978 13.345 17.91 13.473L16.689 15.791C16.434 16.275 15.916 16.541 15.367 16.475C14.823 16.407 14.388 16.022 14.262 15.494L12.099 6.48102L9.858 18.691C9.747 19.292 9.239 19.727 8.622 19.75C8.605 19.75 8.588 19.75 8.571 19.75C7.975 19.75 7.46 19.359 7.309 18.785L5.932 13.537C5.896 13.399 5.782 13.25 5.616 13.25H2C1.586 13.25 1.25 12.914 1.25 12.5C1.25 12.086 1.586 11.75 2 11.75H5.615C6.438 11.75 7.165 12.328 7.382 13.156L8.538 17.565L10.788 5.31102C10.898 4.70502 11.412 4.26902 12.035 4.25202C12.651 4.21702 13.198 4.64102 13.343 5.24202L15.598 14.642L16.582 12.775C16.909 12.153 17.558 11.752 18.235 11.752H21.999C22.413 11.752 22.749 12.088 22.749 12.502L22.75 12.501Z" fill="#000"/>
</svg>
