<svg width="24" height="24" viewBox="0 0 24 24" fill="none" xmlns="http://www.w3.org/2000/svg">
<path d="M1.53568 9.02492C4.18496 6.32136 7.88549 4.75 12 4.75C16.1145 4.75 19.815 6.32136 22.4643 9.02492C22.7542 9.32077 23.2291 9.32559 23.5249 9.03568C23.8208 8.74577 23.8256 8.27092 23.5357 7.97507C20.5947 4.97382 16.5037 3.25 12 3.25C7.49628 3.25 3.40531 4.97382 0.46432 7.97507C0.174412 8.27092 0.179227 8.74577 0.475075 9.03568C0.770924 9.32559 1.24577 9.32077 1.53568 9.02492Z" fill="#000"/>
<path d="M5.01537 12.543C6.8499 10.8078 9.3034 9.75 11.999 9.75C14.6955 9.75 17.1498 10.8085 18.9845 12.5448C19.2854 12.8295 19.76 12.8164 20.0448 12.5155C20.3295 12.2146 20.3164 11.74 20.0155 11.4552C17.9159 9.4684 15.0975 8.25 11.999 8.25C8.90154 8.25 6.08397 9.46759 3.98463 11.4532C3.6837 11.7379 3.67049 12.2126 3.95512 12.5135C4.23975 12.8144 4.71444 12.8276 5.01537 12.543Z" fill="#000"/>
<path d="M8.76261 16.0475C9.6272 15.2379 10.7073 14.75 11.9999 14.75C13.2926 14.75 14.3728 15.238 15.2374 16.0475C15.5398 16.3306 16.0144 16.315 16.2975 16.0126C16.5806 15.7102 16.565 15.2356 16.2626 14.9525C15.1457 13.9067 13.707 13.25 11.9999 13.25C10.2928 13.25 8.85429 13.9067 7.73739 14.9525C7.43503 15.2356 7.41942 15.7102 7.70253 16.0126C7.98563 16.315 8.46025 16.3306 8.76261 16.0475Z" fill="#000"/>
<path d="M12 18C11.4477 18 11 18.4477 11 19C11 19.5523 11.4477 20 12 20C12.5523 20 13.0001 19.5523 13.0001 19C13.0001 18.4477 12.5523 18 12 18Z" fill="#000"/>
</svg>
