<svg width="24" height="24" viewBox="0 0 24 24" fill="none" xmlns="http://www.w3.org/2000/svg">
<path d="M1.53033 0.46967C1.23744 0.176777 0.762563 0.176777 0.46967 0.46967C0.176777 0.762563 0.176777 1.23744 0.46967 1.53033L4.14206 5.20272C2.78413 5.93942 1.546 6.87123 0.46432 7.97507C0.174412 8.27092 0.179227 8.74577 0.475075 9.03568C0.770924 9.32559 1.24577 9.32077 1.53568 9.02493C2.61576 7.92272 3.86948 7.00963 5.25359 6.31425L7.92568 8.98635C6.44921 9.54018 5.11311 10.3859 3.98463 11.4532C3.6837 11.7379 3.67049 12.2126 3.95512 12.5135C4.23975 12.8144 4.71444 12.8276 5.01537 12.543C6.16754 11.4532 7.56373 10.631 9.10928 10.1699L12.1921 13.2528C12.1284 13.2509 12.0643 13.25 11.9999 13.25C10.2928 13.25 8.85429 13.9067 7.73739 14.9525C7.43503 15.2356 7.41942 15.7102 7.70253 16.0126C7.98563 16.315 8.46025 16.3306 8.76261 16.0475C9.6272 15.2379 10.7073 14.75 11.9999 14.75C12.8577 14.75 13.6157 14.9645 14.2771 15.3378L22.4697 23.5303C22.7626 23.8232 23.2374 23.8232 23.5303 23.5303C23.8232 23.2374 23.8232 22.7626 23.5303 22.4697L15.2801 14.2194C15.2725 14.2115 15.2648 14.2038 15.2569 14.1962L9.87116 8.8105C9.86507 8.80419 9.85887 8.79799 9.85257 8.79191L5.95099 4.89033C5.94296 4.88191 5.93475 4.8737 5.92637 4.86571L1.53033 0.46967Z" fill="#000"/>
<path d="M12 4.75C10.815 4.75 9.6649 4.88038 8.5649 5.13018C8.16097 5.22191 7.75916 4.96883 7.66743 4.5649C7.5757 4.16097 7.82878 3.75916 8.23271 3.66743C9.4432 3.39253 10.7048 3.25 12 3.25C16.5037 3.25 20.5947 4.97382 23.5357 7.97507C23.8256 8.27092 23.8208 8.74577 23.5249 9.03568C23.2291 9.32559 22.7542 9.32077 22.4643 9.02493C19.815 6.32136 16.1145 4.75 12 4.75Z" fill="#000"/>
<path d="M12.3039 8.97846C12.3436 8.56616 12.71 8.26413 13.1223 8.30386C15.7771 8.55967 18.1732 9.71184 20.0155 11.4552C20.3164 11.74 20.3295 12.2146 20.0448 12.5155C19.76 12.8164 19.2854 12.8295 18.9845 12.5448C17.374 11.0208 15.2865 10.0193 12.9785 9.79694C12.5662 9.75721 12.2641 9.39077 12.3039 8.97846Z" fill="#000"/>
<path d="M11 19C11 18.4477 11.4477 18 12 18C12.5523 18 13.0001 18.4477 13.0001 19C13.0001 19.5523 12.5524 20 12.0001 20C11.4478 20 11 19.5523 11 19Z" fill="#000"/>
</svg>
