<svg width="24" height="24" viewBox="0 0 24 24" fill="none" xmlns="http://www.w3.org/2000/svg">
<path d="M5 5.625C4.51675 5.625 4.125 6.01675 4.125 6.5C4.125 6.98325 4.51675 7.375 5 7.375C5.48325 7.375 5.8751 6.98325 5.8751 6.5C5.8751 6.01675 5.48325 5.625 5 5.625Z" fill="#000"/>
<path d="M7.125 6.5C7.125 6.01675 7.51675 5.625 8 5.625C8.48325 5.625 8.8751 6.01675 8.8751 6.5C8.8751 6.98325 8.48335 7.375 8.0001 7.375C7.51685 7.375 7.125 6.98325 7.125 6.5Z" fill="#000"/>
<path d="M11 5.625C10.5168 5.625 10.125 6.01675 10.125 6.5C10.125 6.98325 10.5168 7.375 11 7.375C11.4832 7.375 11.8751 6.98325 11.8751 6.5C11.8751 6.01675 11.4832 5.625 11 5.625Z" fill="#000"/>
<path fill-rule="evenodd" clip-rule="evenodd" d="M18.1318 2.25H5.86821C5.12513 2.24999 4.52197 2.24999 4.03273 2.28996C3.52778 2.33121 3.07851 2.41876 2.66103 2.63148C2.00247 2.96703 1.46703 3.50247 1.13148 4.16103C0.918761 4.57851 0.831214 5.02778 0.789958 5.53273C0.749986 6.02197 0.749992 6.62512 0.75 7.3682V16.6318C0.749992 17.3749 0.749986 17.978 0.789958 18.4673C0.831214 18.9722 0.918761 19.4215 1.13148 19.839C1.46703 20.4975 2.00247 21.033 2.66103 21.3685C3.07851 21.5812 3.52778 21.6688 4.03273 21.71C4.52195 21.75 5.12507 21.75 5.86811 21.75H18.1318C18.8748 21.75 19.4781 21.75 19.9673 21.71C20.4722 21.6688 20.9215 21.5812 21.339 21.3685C21.9975 21.033 22.533 20.4975 22.8685 19.839C23.0812 19.4215 23.1688 18.9722 23.21 18.4673C23.25 17.9781 23.25 17.3749 23.25 16.6319V7.36819C23.25 6.62515 23.25 6.02195 23.21 5.53273C23.1688 5.02778 23.0812 4.57851 22.8685 4.16103C22.533 3.50247 21.9975 2.96703 21.339 2.63148C20.9215 2.41876 20.4722 2.33121 19.9673 2.28996C19.478 2.24999 18.8749 2.24999 18.1318 2.25ZM3.34202 3.96799C3.5128 3.88097 3.74269 3.81865 4.15488 3.78498C4.57582 3.75058 5.11755 3.75 5.9 3.75H18.1C18.8824 3.75 19.4242 3.75058 19.8451 3.78498C20.2573 3.81865 20.4872 3.88097 20.658 3.96799C21.0343 4.15973 21.3403 4.4657 21.532 4.84202C21.619 5.0128 21.6813 5.24269 21.715 5.65488C21.7494 6.07582 21.75 6.61755 21.75 7.4V16.6C21.75 17.3824 21.7494 17.9242 21.715 18.3451C21.6813 18.7573 21.619 18.9872 21.532 19.158C21.3403 19.5343 21.0343 19.8403 20.658 20.032C20.4872 20.119 20.2573 20.1813 19.8451 20.215C19.4242 20.2494 18.8824 20.25 18.1 20.25H5.9C5.11755 20.25 4.57582 20.2494 4.15488 20.215C3.74269 20.1813 3.5128 20.119 3.34202 20.032C2.9657 19.8403 2.65973 19.5343 2.46799 19.158C2.38097 18.9872 2.31865 18.7573 2.28498 18.3451C2.25058 17.9242 2.25 17.3824 2.25 16.6V7.4C2.25 6.61755 2.25058 6.07582 2.28498 5.65488C2.31865 5.24269 2.38097 5.0128 2.46799 4.84202C2.65973 4.4657 2.9657 4.15973 3.34202 3.96799Z" fill="#000"/>
</svg>
