<svg width="24" height="24" viewBox="0 0 24 24" fill="none" xmlns="http://www.w3.org/2000/svg">
<path d="M15.5303 15.5303C15.2374 15.8232 14.7626 15.8232 14.4697 15.5303L12 13.0607L9.53032 15.5303C9.23743 15.8232 8.76255 15.8232 8.46966 15.5303C8.17677 15.2374 8.17677 14.7626 8.46966 14.4697L10.9393 12L8.46967 9.53034C8.17678 9.23745 8.17678 8.76257 8.46967 8.46968C8.76256 8.17678 9.23744 8.17679 9.53033 8.46968L12 10.9393L14.4697 8.46967C14.7626 8.17678 15.2374 8.17678 15.5303 8.46967C15.8232 8.76256 15.8232 9.23744 15.5303 9.53033L13.0607 12L15.5303 14.4697C15.8232 14.7626 15.8232 15.2374 15.5303 15.5303Z" fill="#000"/>
<path fill-rule="evenodd" clip-rule="evenodd" d="M0.25 12C0.25 5.51065 5.51065 0.25 12 0.25C18.4893 0.25 23.75 5.51065 23.75 12C23.75 18.4893 18.4893 23.75 12 23.75C5.51065 23.75 0.25 18.4893 0.25 12ZM12 1.75C6.33908 1.75 1.75 6.33908 1.75 12C1.75 17.6609 6.33908 22.25 12 22.25C17.6609 22.25 22.25 17.6609 22.25 12C22.25 6.33908 17.6609 1.75 12 1.75Z" fill="#000"/>
</svg>
