<svg width="24" height="24" viewBox="0 0 24 24" fill="none" xmlns="http://www.w3.org/2000/svg">
<path opacity="0.4" fill-rule="evenodd" clip-rule="evenodd" d="M22.5 15.2V8.8C22.5 7.11984 22.5 6.27976 22.173 5.63803C21.8854 5.07354 21.4265 4.6146 20.862 4.32698C20.2202 4 19.3802 4 17.7 4H6.3C4.61984 4 3.77976 4 3.13803 4.32698C2.57354 4.6146 2.1146 5.07354 1.82698 5.63803C1.5 6.27976 1.5 7.11984 1.5 8.8V15.2C1.5 16.8802 1.5 17.7202 1.82698 18.362C2.1146 18.9265 2.57354 19.3854 3.13803 19.673C3.77976 20 4.61984 20 6.3 20H17.7C19.3802 20 20.2202 20 20.862 19.673C21.4265 19.3854 21.8854 18.9265 22.173 18.362C22.5 17.7202 22.5 16.8802 22.5 15.2ZM8.45 13.1C6.74381 13.1 5.18107 14.2619 4.76579 15.8754C4.72726 16.0251 4.76013 16.1842 4.85484 16.3064C4.94954 16.4285 5.09543 16.5 5.25 16.5H11.65C11.8046 16.5 11.9505 16.4285 12.0452 16.3064C12.1399 16.1842 12.1728 16.0251 12.1342 15.8754C11.7189 14.2619 10.1562 13.1 8.45 13.1ZM6.15002 9.8C6.15002 8.52975 7.17977 7.5 8.45002 7.5C9.72028 7.5 10.75 8.52975 10.75 9.8C10.75 11.0703 9.72028 12.1 8.45002 12.1C7.17977 12.1 6.15002 11.0703 6.15002 9.8Z" fill="#000"/>
<path d="M13.75 10C13.75 9.72386 13.9739 9.5 14.25 9.5H18.75C19.0261 9.5 19.25 9.72386 19.25 10C19.25 10.2761 19.0261 10.5 18.75 10.5H14.25C13.9739 10.5 13.75 10.2761 13.75 10Z" fill="#000"/>
<path d="M15.75 13.5C15.4739 13.5 15.25 13.7239 15.25 14C15.25 14.2761 15.4739 14.5 15.75 14.5H18.75C19.0261 14.5 19.25 14.2761 19.25 14C19.25 13.7239 19.0261 13.5 18.75 13.5H15.75Z" fill="#000"/>
<path d="M8.44999 14.1C7.17403 14.1 6.0294 14.9778 5.73422 16.1247C5.66539 16.3921 5.3928 16.5531 5.12537 16.4843C4.85794 16.4154 4.69695 16.1428 4.76578 15.8754C5.18107 14.2619 6.74381 13.1 8.44999 13.1C10.1562 13.1 11.7189 14.2619 12.1342 15.8754C12.203 16.1428 12.0421 16.4154 11.7746 16.4843C11.5072 16.5531 11.2346 16.3921 11.1658 16.1247C10.8706 14.9778 9.72596 14.1 8.44999 14.1Z" fill="#000"/>
<path fill-rule="evenodd" clip-rule="evenodd" d="M8.45002 7.5C7.17977 7.5 6.15002 8.52975 6.15002 9.8C6.15002 11.0703 7.17977 12.1 8.45002 12.1C9.72028 12.1 10.75 11.0703 10.75 9.8C10.75 8.52975 9.72028 7.5 8.45002 7.5ZM7.15002 9.8C7.15002 9.08203 7.73205 8.5 8.45002 8.5C9.16799 8.5 9.75002 9.08203 9.75002 9.8C9.75002 10.518 9.16799 11.1 8.45002 11.1C7.73205 11.1 7.15002 10.518 7.15002 9.8Z" fill="#000"/>
<path fill-rule="evenodd" clip-rule="evenodd" d="M7.07755 3.5H16.9224C17.8835 3.5 18.6355 3.49999 19.2395 3.54935C19.8541 3.59956 20.3594 3.70334 20.816 3.93597C21.5686 4.31947 22.1805 4.93139 22.564 5.68404C22.7967 6.14062 22.9004 6.64594 22.9507 7.26049C23 7.86453 23 8.61651 23 9.57765V14.4223C23 15.3835 23 16.1355 22.9507 16.7395C22.9004 17.3541 22.7967 17.8594 22.564 18.316C22.1805 19.0686 21.5686 19.6805 20.816 20.064C20.3594 20.2967 19.8541 20.4004 19.2395 20.4507C18.6355 20.5 17.8835 20.5 16.9225 20.5H7.07754C6.11646 20.5 5.36451 20.5 4.76049 20.4507C4.14594 20.4004 3.64062 20.2967 3.18404 20.064C2.43139 19.6805 1.81947 19.0686 1.43597 18.316C1.20334 17.8594 1.09956 17.3541 1.04935 16.7395C0.999995 16.1355 0.999997 15.3835 1 14.4225V9.57756C0.999997 8.61647 0.999995 7.86451 1.04935 7.26049C1.09956 6.64594 1.20334 6.14062 1.43597 5.68404C1.81947 4.93139 2.43139 4.31947 3.18404 3.93597C3.64062 3.70334 4.14594 3.59956 4.76049 3.54935C5.36451 3.49999 6.11647 3.5 7.07755 3.5ZM4.84192 4.54602C4.28921 4.59118 3.93014 4.67814 3.63803 4.82698C3.07354 5.1146 2.6146 5.57354 2.32698 6.13803C2.17814 6.43014 2.09118 6.78921 2.04602 7.34192C2.00039 7.90047 2 8.61166 2 9.6V14.4C2 15.3883 2.00039 16.0995 2.04602 16.6581C2.09118 17.2108 2.17814 17.5699 2.32698 17.862C2.6146 18.4265 3.07354 18.8854 3.63803 19.173C3.93014 19.3219 4.28921 19.4088 4.84192 19.454C5.40047 19.4996 6.11166 19.5 7.1 19.5H16.9C17.8883 19.5 18.5995 19.4996 19.1581 19.454C19.7108 19.4088 20.0699 19.3219 20.362 19.173C20.9265 18.8854 21.3854 18.4265 21.673 17.862C21.8219 17.5699 21.9088 17.2108 21.954 16.6581C21.9996 16.0995 22 15.3883 22 14.4V9.6C22 8.61166 21.9996 7.90047 21.954 7.34192C21.9088 6.78921 21.8219 6.43014 21.673 6.13803C21.3854 5.57354 20.9265 5.1146 20.362 4.82698C20.0699 4.67814 19.7108 4.59118 19.1581 4.54602C18.5995 4.50039 17.8883 4.5 16.9 4.5H7.1C6.11166 4.5 5.40047 4.50039 4.84192 4.54602Z" fill="#000"/>
</svg>
