<svg width="24" height="24" viewBox="0 0 24 24" fill="none" xmlns="http://www.w3.org/2000/svg">
<path opacity="0.4" d="M21 12.5C21 17.4706 16.9706 21.5 12 21.5C7.02944 21.5 3 17.4706 3 12.5C3 7.52944 7.02944 3.5 12 3.5C16.9706 3.5 21 7.52944 21 12.5Z" fill="#000"/>
<path d="M5.78545 2.72108C5.48737 2.57948 5.15367 2.5 4.8 2.5C3.52974 2.5 2.5 3.52975 2.5 4.8C2.5 5.15367 2.57948 5.48737 2.72108 5.78545C2.83957 6.03488 2.73343 6.33314 2.484 6.45163C2.23457 6.57012 1.93631 6.46397 1.81782 6.21455C1.61387 5.78522 1.5 5.30521 1.5 4.8C1.5 2.97746 2.97746 1.5 4.8 1.5C5.30521 1.5 5.78522 1.61387 6.21455 1.81782C6.46397 1.93631 6.57012 2.23457 6.45163 2.484C6.33314 2.73343 6.03488 2.83957 5.78545 2.72108Z" fill="#000"/>
<path d="M19.2 2.5C18.8463 2.5 18.5126 2.57948 18.2145 2.72108C17.9651 2.83957 17.6668 2.73343 17.5484 2.484C17.4299 2.23457 17.536 1.93631 17.7854 1.81782C18.2148 1.61387 18.6948 1.5 19.2 1.5C21.0225 1.5 22.5 2.97746 22.5 4.8C22.5 5.30521 22.3861 5.78522 22.1822 6.21455C22.0637 6.46397 21.7654 6.57012 21.516 6.45163C21.2666 6.33314 21.1604 6.03488 21.2789 5.78545C21.4205 5.48737 21.5 5.15367 21.5 4.8C21.5 3.52975 20.4702 2.5 19.2 2.5Z" fill="#000"/>
<path d="M15.5 12.5C15.5 12.7761 15.2761 13 15 13H12.5V15.5C12.5 15.7761 12.2761 16 12 16C11.7239 16 11.5 15.7761 11.5 15.5V13H8.99999C8.72385 13 8.49999 12.7761 8.49999 12.5C8.49999 12.2239 8.72385 12 8.99999 12H11.5V9.5C11.5 9.22386 11.7239 9 12 9C12.2761 9 12.5 9.22386 12.5 9.5V12H15C15.2761 12 15.5 12.2239 15.5 12.5Z" fill="#000"/>
<path fill-rule="evenodd" clip-rule="evenodd" d="M2.49999 12.5C2.49999 7.25329 6.75329 3 12 3C17.2467 3 21.5 7.25329 21.5 12.5C21.5 15.0707 20.4789 17.4029 18.8203 19.1132L21.3535 21.6464C21.5488 21.8417 21.5488 22.1583 21.3535 22.3536C21.1583 22.5488 20.8417 22.5488 20.6464 22.3536L18.087 19.7941C16.4385 21.1712 14.316 22 12 22C9.68397 22 7.56152 21.1712 5.91304 19.7941L3.35355 22.3536C3.15829 22.5488 2.8417 22.5488 2.64644 22.3536C2.45118 22.1583 2.45118 21.8417 2.64644 21.6464L5.17972 19.1132C3.52105 17.4029 2.49999 15.0707 2.49999 12.5ZM12 4C7.30557 4 3.49999 7.80558 3.49999 12.5C3.49999 17.1944 7.30557 21 12 21C16.6944 21 20.5 17.1944 20.5 12.5C20.5 7.80558 16.6944 4 12 4Z" fill="#000"/>
</svg>
