<svg width="24" height="24" viewBox="0 0 24 24" fill="none" xmlns="http://www.w3.org/2000/svg">
<path opacity="0.4" d="M21 12.5C21 17.4706 16.9706 21.5 12 21.5C7.02944 21.5 3 17.4706 3 12.5C3 7.52944 7.02944 3.5 12 3.5C16.9706 3.5 21 7.52944 21 12.5Z" fill="#000"/>
<path d="M5.78545 2.72084C5.48737 2.57924 5.15367 2.49976 4.8 2.49976C3.52974 2.49976 2.5 3.5295 2.5 4.79976C2.5 5.15342 2.57948 5.48713 2.72108 5.78521C2.83957 6.03464 2.73343 6.3329 2.484 6.45139C2.23457 6.56988 1.93631 6.46373 1.81782 6.2143C1.61387 5.78498 1.5 5.30497 1.5 4.79976C1.5 2.97722 2.97746 1.49976 4.8 1.49976C5.30521 1.49976 5.78522 1.61363 6.21455 1.81758C6.46397 1.93607 6.57012 2.23433 6.45163 2.48375C6.33314 2.73318 6.03488 2.83933 5.78545 2.72084Z" fill="#000"/>
<path d="M19.2 2.49976C18.8463 2.49976 18.5126 2.57924 18.2145 2.72084C17.9651 2.83933 17.6668 2.73318 17.5484 2.48375C17.4299 2.23433 17.536 1.93607 17.7854 1.81758C18.2148 1.61363 18.6948 1.49976 19.2 1.49976C21.0225 1.49976 22.5 2.97722 22.5 4.79976C22.5 5.30497 22.3861 5.78498 22.1822 6.2143C22.0637 6.46373 21.7654 6.56988 21.516 6.45139C21.2666 6.3329 21.1604 6.03464 21.2789 5.78521C21.4205 5.48713 21.5 5.15342 21.5 4.79976C21.5 3.5295 20.4702 2.49976 19.2 2.49976Z" fill="#000"/>
<path d="M14.8535 15.3535C14.6583 15.5487 14.3417 15.5487 14.1464 15.3535L11.9999 13.207L9.85356 15.3533C9.6583 15.5486 9.34172 15.5486 9.14646 15.3533C8.95119 15.158 8.95119 14.8415 9.14646 14.6462L11.2928 12.4998L9.14647 10.3535C8.95121 10.1582 8.95121 9.84166 9.14647 9.6464C9.34173 9.45114 9.65832 9.45114 9.85358 9.6464L11.9999 11.7927L14.1464 9.64623C14.3417 9.45097 14.6583 9.45097 14.8535 9.64623C15.0488 9.8415 15.0488 10.1581 14.8535 10.3533L12.707 12.4998L14.8535 14.6464C15.0488 14.8416 15.0488 15.1582 14.8535 15.3535Z" fill="#000"/>
<path fill-rule="evenodd" clip-rule="evenodd" d="M2.49999 12.4998C2.49999 7.25305 6.75329 2.99976 12 2.99976C17.2467 2.99976 21.5 7.25305 21.5 12.4998C21.5 15.0704 20.4789 17.4026 18.8203 19.1129L21.3535 21.6462C21.5488 21.8415 21.5488 22.158 21.3535 22.3533C21.1583 22.5486 20.8417 22.5486 20.6464 22.3533L18.087 19.7938C16.4385 21.171 14.316 21.9998 12 21.9998C9.68397 21.9998 7.56152 21.171 5.91304 19.7938L3.35355 22.3533C3.15829 22.5486 2.8417 22.5486 2.64644 22.3533C2.45118 22.158 2.45118 21.8415 2.64644 21.6462L5.17972 19.1129C3.52105 17.4026 2.49999 15.0704 2.49999 12.4998ZM12 3.99976C7.30557 3.99976 3.49999 7.80534 3.49999 12.4998C3.49999 17.1942 7.30557 20.9998 12 20.9998C16.6944 20.9998 20.5 17.1942 20.5 12.4998C20.5 7.80534 16.6944 3.99976 12 3.99976Z" fill="#000"/>
</svg>
