<svg width="24" height="24" viewBox="0 0 24 24" fill="none" xmlns="http://www.w3.org/2000/svg">
<g opacity="0.4">
<path d="M5.89091 5.89093C4.1131 7.53505 3 9.88753 3 12.5C3 17.4706 7.02944 21.5 12 21.5C14.6125 21.5 16.965 20.3869 18.6091 18.6091L5.89091 5.89093Z" fill="#000"/>
<path d="M19.6856 17.1856C20.5195 15.8208 21 14.2165 21 12.5C21 7.52944 16.9706 3.5 12 3.5C10.2835 3.5 8.67923 3.98053 7.31439 4.81441L19.6856 17.1856Z" fill="#000"/>
</g>
<path fill-rule="evenodd" clip-rule="evenodd" d="M2.35355 1.64645C2.15829 1.45118 1.84171 1.45118 1.64645 1.64645C1.45118 1.84171 1.45118 2.15829 1.64645 2.35355L2.13981 2.84692C1.73765 3.39377 1.50006 4.06914 1.50006 4.8C1.50006 5.30521 1.61393 5.78522 1.81788 6.21455C1.93637 6.46397 2.23463 6.57012 2.48406 6.45163C2.73349 6.33314 2.83963 6.03488 2.72114 5.78545C2.57954 5.48737 2.50006 5.15367 2.50006 4.8C2.50006 4.34588 2.63167 3.92251 2.85882 3.56593L5.17976 5.88686C3.5211 7.59715 2.50006 9.92934 2.50006 12.5C2.50006 15.0715 3.52174 17.4043 5.18131 19.1147C5.16934 19.1247 5.15772 19.1352 5.14651 19.1464L2.64651 21.6464C2.45125 21.8417 2.45125 22.1583 2.64651 22.3536C2.84177 22.5488 3.15835 22.5488 3.35361 22.3536L5.85361 19.8536C5.87373 19.8334 5.89178 19.812 5.90775 19.7896C7.55699 21.1694 9.68153 22 12.0001 22C14.5707 22 16.9029 20.979 18.6132 19.3203L21.6464 22.3536C21.8417 22.5488 22.1583 22.5488 22.3536 22.3536C22.5488 22.1583 22.5488 21.8417 22.3536 21.6464L2.35355 1.64645ZM17.906 18.6131L5.88696 6.59406C4.40922 8.12331 3.50006 10.2055 3.50006 12.5C3.50006 17.1944 7.30564 21 12.0001 21C14.2946 21 16.3768 20.0908 17.906 18.6131Z" fill="#000"/>
<path d="M6.95124 4.4512L7.67885 5.17881C8.94504 4.42984 10.4224 4 12.0001 4C16.6945 4 20.5001 7.80558 20.5001 12.5C20.5001 14.0777 20.0702 15.555 19.3213 16.8212L20.0489 17.5488C20.9683 16.0862 21.5001 14.3552 21.5001 12.5C21.5001 7.25329 17.2468 3 12.0001 3C10.1449 3 8.4139 3.53177 6.95124 4.4512Z" fill="#000"/>
<path d="M4.07904 1.579L5.00941 2.50937C5.28558 2.53422 5.54696 2.60776 5.78551 2.72108C6.03494 2.83957 6.3332 2.73343 6.45169 2.484C6.57018 2.23457 6.46404 1.93631 6.21461 1.81782C5.78528 1.61387 5.30527 1.5 4.80006 1.5C4.5524 1.5 4.31112 1.52728 4.07904 1.579Z" fill="#000"/>
<path d="M18.2146 2.72108C18.5127 2.57948 18.8464 2.5 19.2001 2.5C20.4703 2.5 21.5001 3.52975 21.5001 4.8C21.5001 5.15367 21.4206 5.48737 21.279 5.78545C21.1605 6.03488 21.2666 6.33314 21.5161 6.45163C21.7655 6.57012 22.0637 6.46397 22.1822 6.21455C22.3862 5.78522 22.5001 5.30521 22.5001 4.8C22.5001 2.97746 21.0226 1.5 19.2001 1.5C18.6948 1.5 18.2148 1.61387 17.7855 1.81782C17.5361 1.93631 17.4299 2.23457 17.5484 2.484C17.6669 2.73343 17.9652 2.83957 18.2146 2.72108Z" fill="#000"/>
</svg>
