<svg width="24" height="24" viewBox="0 0 24 24" fill="none" xmlns="http://www.w3.org/2000/svg">
<path opacity="0.4" d="M20.3536 3.64645C20.5488 3.84171 20.5488 4.15829 20.3536 4.35355L12.7071 12L20.3536 19.6464C20.5488 19.8417 20.5488 20.1583 20.3536 20.3536C20.1583 20.5488 19.8417 20.5488 19.6464 20.3536L11.6464 12.3536C11.4512 12.1583 11.4512 11.8417 11.6464 11.6464L19.6464 3.64645C19.8417 3.45118 20.1583 3.45118 20.3536 3.64645Z" fill="#000"/>
<path d="M12.3536 3.64645C12.5488 3.84171 12.5488 4.15829 12.3536 4.35355L4.70711 12L12.3536 19.6464C12.5488 19.8417 12.5488 20.1583 12.3536 20.3536C12.1583 20.5488 11.8417 20.5488 11.6464 20.3536L3.64645 12.3536C3.45118 12.1583 3.45118 11.8417 3.64645 11.6464L11.6464 3.64645C11.8417 3.45118 12.1583 3.45118 12.3536 3.64645Z" fill="#000"/>
</svg>
