<svg width="24" height="24" viewBox="0 0 24 24" fill="none" xmlns="http://www.w3.org/2000/svg">
<g clip-path="url(#clip0_9002_7942)">
<path opacity="0.4" d="M23 12C23 18.0751 18.0751 23 12 23C5.92487 23 1 18.0751 1 12C1 5.92487 5.92487 1 12 1C18.0751 1 23 5.92487 23 12Z" fill="#000"/>
<path d="M13.3536 8.35355C13.5488 8.15829 13.5488 7.84171 13.3536 7.64645C13.1583 7.45118 12.8417 7.45118 12.6464 7.64645L8.64645 11.6464C8.55268 11.7402 8.5 11.8674 8.5 12C8.5 12.1326 8.55268 12.2598 8.64645 12.3536L12.6464 16.3536C12.8417 16.5488 13.1583 16.5488 13.3536 16.3536C13.5488 16.1583 13.5488 15.8417 13.3536 15.6464L9.70711 12L13.3536 8.35355Z" fill="#000"/>
<path fill-rule="evenodd" clip-rule="evenodd" d="M12 0.5C5.64873 0.5 0.5 5.64873 0.5 12C0.5 18.3513 5.64873 23.5 12 23.5C18.3513 23.5 23.5 18.3513 23.5 12C23.5 5.64873 18.3513 0.5 12 0.5ZM1.5 12C1.5 6.20101 6.20101 1.5 12 1.5C17.799 1.5 22.5 6.20101 22.5 12C22.5 17.799 17.799 22.5 12 22.5C6.20101 22.5 1.5 17.799 1.5 12Z" fill="#000"/>
</g>
<defs>
<clipPath id="clip0_9002_7942">
<rect width="24" height="24" fill="white"/>
</clipPath>
</defs>
</svg>
