<svg width="24" height="24" viewBox="0 0 24 24" fill="none" xmlns="http://www.w3.org/2000/svg">
<path opacity="0.4" d="M3.64645 3.64645C3.45118 3.84171 3.45118 4.15829 3.64645 4.35355L11.2929 12L3.64645 19.6464C3.45118 19.8417 3.45118 20.1583 3.64645 20.3536C3.84171 20.5488 4.15829 20.5488 4.35355 20.3536L12.3536 12.3536C12.5488 12.1583 12.5488 11.8417 12.3536 11.6464L4.35355 3.64645C4.15829 3.45118 3.84171 3.45118 3.64645 3.64645Z" fill="#000"/>
<path d="M11.6464 3.64645C11.4512 3.84171 11.4512 4.15829 11.6464 4.35355L19.2929 12L11.6464 19.6464C11.4512 19.8417 11.4512 20.1583 11.6464 20.3536C11.8417 20.5488 12.1583 20.5488 12.3536 20.3536L20.3536 12.3536C20.5488 12.1583 20.5488 11.8417 20.3536 11.6464L12.3536 3.64645C12.1583 3.45118 11.8417 3.45118 11.6464 3.64645Z" fill="#000"/>
</svg>
