<svg width="24" height="24" viewBox="0 0 24 24" fill="none" xmlns="http://www.w3.org/2000/svg">
<path opacity="0.4" d="M5.14645 5.14645C5.34171 4.95118 5.65829 4.95118 5.85355 5.14645L19.3536 18.6464C19.5488 18.8417 19.5488 19.1583 19.3536 19.3536C19.1583 19.5488 18.8417 19.5488 18.6464 19.3536L5.14645 5.85355C4.95118 5.65829 4.95118 5.34171 5.14645 5.14645Z" fill="#000"/>
<path d="M4.5 5C4.5 4.72386 4.72386 4.5 5 4.5H13C13.2761 4.5 13.5 4.72386 13.5 5C13.5 5.27614 13.2761 5.5 13 5.5H5.5V13C5.5 13.2761 5.27614 13.5 5 13.5C4.72386 13.5 4.5 13.2761 4.5 13V5Z" fill="#000"/>
</svg>
