<svg width="24" height="24" viewBox="0 0 24 24" fill="none" xmlns="http://www.w3.org/2000/svg">
<path opacity="0.4" d="M12 21.5C12.2761 21.5 12.5 21.2761 12.5 21V3.5C12.5 3.22386 12.2761 3 12 3C11.7239 3 11.5 3.22386 11.5 3.5V21C11.5 21.2761 11.7239 21.5 12 21.5Z" fill="#000"/>
<path d="M6.64645 8.35355C6.84171 8.54882 7.15829 8.54882 7.35355 8.35355L12 3.70711L16.6464 8.35355C16.8417 8.54882 17.1583 8.54882 17.3536 8.35355C17.5488 8.15829 17.5488 7.84171 17.3536 7.64645L12.3536 2.64645C12.1583 2.45118 11.8417 2.45118 11.6464 2.64645L6.64645 7.64645C6.45118 7.84171 6.45118 8.15829 6.64645 8.35355Z" fill="#000"/>
</svg>
