<svg width="24" height="24" viewBox="0 0 24 24" fill="none" xmlns="http://www.w3.org/2000/svg">
<path opacity="0.4" d="M12 1.5C6.20101 1.5 1.5 6.20101 1.5 12C1.5 17.799 6.20101 22.5 12 22.5C17.799 22.5 22.5 17.799 22.5 12C22.5 6.20101 17.799 1.5 12 1.5Z" fill="#000"/>
<path d="M12.001 21.4999C16.5965 21.4999 20.4308 18.2365 21.311 13.9004C21.3659 13.6298 21.6298 13.4549 21.9005 13.5099C22.1711 13.5648 22.3459 13.8287 22.291 14.0993C21.3181 18.8923 17.0814 22.4999 12.001 22.4999C7.80209 22.4999 4.17987 20.0354 2.5 16.4753L2.5 19.9999C2.5 20.276 2.27614 20.4999 2 20.4999C1.72386 20.4999 1.5 20.276 1.5 19.9999L1.5 15.4999C1.5 15.2237 1.72386 14.9999 2 14.9999H2.61888C2.62669 14.9997 2.63448 14.9997 2.64224 14.9999H6.5C6.77614 14.9999 7 15.2237 7 15.4999C7 15.776 6.77614 15.9999 6.5 15.9999H3.38153C4.89169 19.2485 8.18399 21.4999 12.001 21.4999Z" fill="#000"/>
<path d="M2.68987 10.0993C3.57004 5.7633 7.40439 2.49988 11.9998 2.49988C15.8169 2.49988 19.1092 4.75123 20.6193 7.99988L17.5004 7.99988C17.2242 7.99988 17.0004 8.22373 17.0004 8.49988C17.0004 8.77602 17.2242 8.99988 17.5004 8.99988L21.3587 8.99988C21.3664 9.00006 21.3741 9.00006 21.3819 8.99988H22.0009C22.1335 8.99988 22.2607 8.94719 22.3544 8.85341C22.4482 8.75963 22.5009 8.63244 22.5009 8.49982L22.5004 3.99982C22.5003 3.72368 22.2765 3.49985 22.0003 3.49988C21.7242 3.49991 21.5003 3.72379 21.5004 3.99993L21.5007 7.52419C19.8208 3.96427 16.1987 1.49988 11.9998 1.49988C6.91944 1.49988 2.68277 5.1075 1.70986 9.90041C1.65493 10.171 1.82978 10.4349 2.1004 10.4899C2.37102 10.5448 2.63494 10.37 2.68987 10.0993Z" fill="#000"/>
</svg>
