<svg width="24" height="24" viewBox="0 0 24 24" fill="none" xmlns="http://www.w3.org/2000/svg">
<path opacity="0.4" d="M12 1.5C6.20101 1.5 1.5 6.20101 1.5 12C1.5 17.799 6.20101 22.5 12 22.5C17.799 22.5 22.5 17.799 22.5 12C22.5 6.20101 17.799 1.5 12 1.5Z" fill="#000"/>
<path d="M12.001 21.5C16.5965 21.5 20.4308 18.2366 21.311 13.9005C21.3659 13.6299 21.6298 13.4551 21.9005 13.51C22.1711 13.5649 22.3459 13.8288 22.291 14.0995C21.3181 18.8924 17.0814 22.5 12.001 22.5C7.80209 22.5 4.17987 20.0355 2.5 16.4755L2.5 20C2.5 20.2761 2.27614 20.5 2 20.5C1.72386 20.5 1.5 20.2761 1.5 20L1.5 15.5C1.5 15.2239 1.72386 15 2 15H2.61888C2.62669 14.9998 2.63448 14.9998 2.64224 15H6.5C6.77614 15 7 15.2239 7 15.5C7 15.7761 6.77614 16 6.5 16H3.38153C4.89169 19.2486 8.18399 21.5 12.001 21.5Z" fill="#000"/>
<path d="M2.68987 10.0995C3.57004 5.76342 7.40439 2.5 11.9998 2.5C15.8169 2.5 19.1092 4.75135 20.6193 8L17.5004 8C17.2242 8 17.0004 8.22386 17.0004 8.5C17.0004 8.77614 17.2242 9 17.5004 9L21.3587 9C21.3664 9.00018 21.3741 9.00018 21.3819 9H22.0009C22.1335 9 22.2607 8.94731 22.3544 8.85353C22.4482 8.75975 22.5009 8.63256 22.5009 8.49994L22.5004 3.99995C22.5003 3.7238 22.2765 3.49997 22.0003 3.5C21.7242 3.50003 21.5003 3.72391 21.5004 4.00005L21.5007 7.52431C19.8208 3.96439 16.1987 1.5 11.9998 1.5C6.91944 1.5 2.68277 5.10762 1.70986 9.90053C1.65493 10.1712 1.82978 10.4351 2.1004 10.49C2.37102 10.5449 2.63494 10.3701 2.68987 10.0995Z" fill="#000"/>
</svg>
