<svg width="24" height="24" viewBox="0 0 24 24" fill="none" xmlns="http://www.w3.org/2000/svg">
<path opacity="0.4" d="M23 12C23 18.0751 18.0751 23 12 23C5.92487 23 1 18.0751 1 12C1 5.92487 5.92487 1 12 1C18.0751 1 23 5.92487 23 12Z" fill="#000"/>
<path d="M11.3536 7.64645C11.5488 7.84171 11.5488 8.15829 11.3536 8.35355L8.20711 11.5H17C17.2761 11.5 17.5 11.7239 17.5 12C17.5 12.2761 17.2761 12.5 17 12.5H8.2071L11.3536 15.6464C11.5488 15.8417 11.5488 16.1583 11.3536 16.3536C11.1583 16.5488 10.8417 16.5488 10.6464 16.3536L6.64645 12.3536C6.55268 12.2598 6.5 12.1326 6.5 12C6.5 11.8674 6.55268 11.7402 6.64645 11.6464L10.6464 7.64645C10.8417 7.45118 11.1583 7.45118 11.3536 7.64645Z" fill="#000"/>
<path fill-rule="evenodd" clip-rule="evenodd" d="M0.5 12C0.5 5.64873 5.64873 0.5 12 0.5C18.3513 0.5 23.5 5.64873 23.5 12C23.5 18.3513 18.3513 23.5 12 23.5C5.64873 23.5 0.5 18.3513 0.5 12ZM12 1.5C6.20101 1.5 1.5 6.20101 1.5 12C1.5 17.799 6.20101 22.5 12 22.5C17.799 22.5 22.5 17.799 22.5 12C22.5 6.20101 17.799 1.5 12 1.5Z" fill="#000"/>
</svg>
