<svg width="24" height="24" viewBox="0 0 24 24" fill="none" xmlns="http://www.w3.org/2000/svg">
<path opacity="0.4" d="M5.14645 18.8536C5.34171 19.0488 5.65829 19.0488 5.85355 18.8536L19.3536 5.35355C19.5488 5.15829 19.5488 4.84171 19.3536 4.64645C19.1583 4.45118 18.8417 4.45118 18.6464 4.64645L5.14645 18.1464C4.95118 18.3417 4.95118 18.6583 5.14645 18.8536Z" fill="#000"/>
<path d="M4.5 19C4.5 19.2761 4.72386 19.5 5 19.5H13C13.2761 19.5 13.5 19.2761 13.5 19C13.5 18.7239 13.2761 18.5 13 18.5H5.5V11C5.5 10.7239 5.27614 10.5 5 10.5C4.72386 10.5 4.5 10.7239 4.5 11V19Z" fill="#000"/>
</svg>
