<svg width="24" height="24" viewBox="0 0 24 24" fill="none" xmlns="http://www.w3.org/2000/svg">
<path opacity="0.4" d="M2.5 12C2.5 12.2761 2.72386 12.5 3 12.5H20.5C20.7761 12.5 21 12.2761 21 12C21 11.7239 20.7761 11.5 20.5 11.5H3C2.72386 11.5 2.5 11.7239 2.5 12Z" fill="#000"/>
<path d="M15.6464 6.64645C15.4512 6.84171 15.4512 7.15829 15.6464 7.35355L20.2929 12L15.6464 16.6464C15.4512 16.8417 15.4512 17.1583 15.6464 17.3536C15.8417 17.5488 16.1583 17.5488 16.3536 17.3536L21.3536 12.3536C21.5488 12.1583 21.5488 11.8417 21.3536 11.6464L16.3536 6.64645C16.1583 6.45118 15.8417 6.45118 15.6464 6.64645Z" fill="#000"/>
</svg>
