<svg width="24" height="24" viewBox="0 0 24 24" fill="none" xmlns="http://www.w3.org/2000/svg">
<path opacity="0.4" d="M21.5 12C21.5 12.2761 21.2761 12.5 21 12.5H3.5C3.22386 12.5 3 12.2761 3 12C3 11.7239 3.22386 11.5 3.5 11.5H21C21.2761 11.5 21.5 11.7239 21.5 12Z" fill="#000"/>
<path d="M8.35355 6.64645C8.54882 6.84171 8.54882 7.15829 8.35355 7.35355L3.70711 12L8.35355 16.6464C8.54882 16.8417 8.54882 17.1583 8.35355 17.3536C8.15829 17.5488 7.84171 17.5488 7.64645 17.3536L2.64645 12.3536C2.45118 12.1583 2.45118 11.8417 2.64645 11.6464L7.64645 6.64645C7.84171 6.45118 8.15829 6.45118 8.35355 6.64645Z" fill="#000"/>
</svg>
