<svg width="24" height="24" viewBox="0 0 24 24" fill="none" xmlns="http://www.w3.org/2000/svg">
<g clip-path="url(#clip0_9002_7887)">
<path opacity="0.4" d="M23 12C23 18.0751 18.0751 23 12 23C5.92487 23 1 18.0751 1 12C1 5.92487 5.92487 1 12 1C18.0751 1 23 5.92487 23 12Z" fill="#000"/>
<path d="M16.3536 12.6464C16.1583 12.4512 15.8417 12.4512 15.6464 12.6464L12.5 15.7929V7C12.5 6.72386 12.2761 6.5 12 6.5C11.7239 6.5 11.5 6.72386 11.5 7V15.7929L8.35355 12.6464C8.15829 12.4512 7.84171 12.4512 7.64645 12.6464C7.45119 12.8417 7.45119 13.1583 7.64645 13.3536L11.6464 17.3536C11.7402 17.4473 11.8674 17.5 12 17.5C12.1326 17.5 12.2598 17.4473 12.3536 17.3536L16.3536 13.3536C16.5488 13.1583 16.5488 12.8417 16.3536 12.6464Z" fill="#000"/>
<path fill-rule="evenodd" clip-rule="evenodd" d="M0.5 12C0.5 5.64873 5.64873 0.5 12 0.5C18.3513 0.5 23.5 5.64873 23.5 12C23.5 18.3513 18.3513 23.5 12 23.5C5.64873 23.5 0.5 18.3513 0.5 12ZM12 1.5C6.20101 1.5 1.5 6.20101 1.5 12C1.5 17.799 6.20101 22.5 12 22.5C17.799 22.5 22.5 17.799 22.5 12C22.5 6.20101 17.799 1.5 12 1.5Z" fill="#000"/>
</g>
<defs>
<clipPath id="clip0_9002_7887">
<rect width="24" height="24" fill="white"/>
</clipPath>
</defs>
</svg>
