<svg width="24" height="24" viewBox="0 0 24 24" fill="none" xmlns="http://www.w3.org/2000/svg">
<path opacity="0.4" d="M12 2.5C12.2761 2.5 12.5 2.72386 12.5 3V20.5C12.5 20.7761 12.2761 21 12 21C11.7239 21 11.5 20.7761 11.5 20.5V3C11.5 2.72386 11.7239 2.5 12 2.5Z" fill="#000"/>
<path d="M6.64645 15.6464C6.84171 15.4512 7.15829 15.4512 7.35355 15.6464L12 20.2929L16.6464 15.6464C16.8417 15.4512 17.1583 15.4512 17.3536 15.6464C17.5488 15.8417 17.5488 16.1583 17.3536 16.3536L12.3536 21.3536C12.1583 21.5488 11.8417 21.5488 11.6464 21.3536L6.64645 16.3536C6.45118 16.1583 6.45118 15.8417 6.64645 15.6464Z" fill="#000"/>
</svg>
