<svg width="24" height="24" viewBox="0 0 24 24" fill="none" xmlns="http://www.w3.org/2000/svg">
<path opacity="0.4" d="M18.8536 5.14645C18.6583 4.95118 18.3417 4.95118 18.1464 5.14645L4.64645 18.6464C4.45118 18.8417 4.45118 19.1583 4.64645 19.3536C4.84171 19.5488 5.15829 19.5488 5.35355 19.3536L18.8536 5.85355C19.0488 5.65829 19.0488 5.34171 18.8536 5.14645Z" fill="#000"/>
<path d="M19.5 5C19.5 4.72386 19.2761 4.5 19 4.5H11C10.7239 4.5 10.5 4.72386 10.5 5C10.5 5.27614 10.7239 5.5 11 5.5H18.5V13C18.5 13.2761 18.7239 13.5 19 13.5C19.2761 13.5 19.5 13.2761 19.5 13V5Z" fill="#000"/>
</svg>
