<svg width="24" height="24" viewBox="0 0 24 24" fill="none" xmlns="http://www.w3.org/2000/svg">
<path opacity="0.4" d="M18.8536 18.8536C18.6583 19.0488 18.3417 19.0488 18.1464 18.8536L4.64645 5.35355C4.45118 5.15829 4.45118 4.84171 4.64645 4.64645C4.84171 4.45118 5.15829 4.45118 5.35355 4.64645L18.8536 18.1464C19.0488 18.3417 19.0488 18.6583 18.8536 18.8536Z" fill="#000"/>
<path d="M19.5 19C19.5 19.2761 19.2761 19.5 19 19.5H11C10.7239 19.5 10.5 19.2761 10.5 19C10.5 18.7239 10.7239 18.5 11 18.5H18.5V11C18.5 10.7239 18.7239 10.5 19 10.5C19.2761 10.5 19.5 10.7239 19.5 11V19Z" fill="#000"/>
</svg>
