<svg width="24" height="24" viewBox="0 0 24 24" fill="none" xmlns="http://www.w3.org/2000/svg">
<g opacity="0.4">
<path d="M2.74624 10.5737C1.76297 11.2713 1.76297 12.7308 2.74624 13.4284L9.47849 18.2043C10.538 18.9559 12.0042 18.1983 12.0042 16.8993V7.10281C12.0042 5.80378 10.538 5.04621 9.47848 5.79783L2.74624 10.5737Z" fill="#000"/>
<path d="M12.7462 10.5737C11.763 11.2713 11.763 12.7308 12.7462 13.4284L19.4785 18.2043C20.538 18.9559 22.0042 18.1983 22.0042 16.8993V7.10281C22.0042 5.80378 20.538 5.04621 19.4785 5.79783L12.7462 10.5737Z" fill="#000"/>
</g>
<path fill-rule="evenodd" clip-rule="evenodd" d="M9.18869 5.38992C10.5793 4.40343 12.5038 5.39773 12.5038 7.10271V10.1323L19.1887 5.38992C20.5793 4.40343 22.5038 5.39773 22.5038 7.10271V16.8992C22.5038 18.6041 20.5793 19.5985 19.1887 18.612L12.5038 13.8696V16.8992C12.5038 18.6041 10.5793 19.5985 9.1887 18.612L2.45645 13.8361C1.19225 12.9392 1.19225 11.0626 2.45645 10.1658L9.18869 5.38992ZM11.5038 7.10271C11.5038 6.20963 10.4957 5.6888 9.76729 6.20554L3.03505 10.9814C2.33272 11.4797 2.33272 12.5222 3.03505 13.0205L9.7673 17.7963C10.4957 18.3131 11.5038 17.7923 11.5038 16.8992V7.10271ZM21.5038 7.10271C21.5038 6.20963 20.4957 5.6888 19.7673 6.20554L13.0351 10.9814C12.3327 11.4797 12.3327 12.5222 13.0351 13.0205L19.7673 17.7963C20.4957 18.3131 21.5038 17.7923 21.5038 16.8992V7.10271Z" fill="#000"/>
</svg>
