<svg width="24" height="24" viewBox="0 0 24 24" fill="none" xmlns="http://www.w3.org/2000/svg">
<path opacity="0.4" d="M3.81842 9.07136C3.5 10.0094 3.5 11.1729 3.5 13.5V18C3.5 19.4001 3.5 20.1002 3.77248 20.635C4.01217 21.1054 4.39462 21.4878 4.86502 21.7275C5.33198 21.9654 5.92496 21.9956 7 21.9994V16.2C7 15.0799 7 14.5198 7.21799 14.092C7.40973 13.7157 7.71569 13.4097 8.09202 13.218C8.51984 13 9.0799 13 10.2 13H13.8C14.9201 13 15.4802 13 15.908 13.218C16.2843 13.4097 16.5903 13.7157 16.782 14.092C17 14.5198 17 15.0799 17 16.2V21.9994C18.075 21.9956 18.668 21.9654 19.135 21.7275C19.6054 21.4878 19.9878 21.1054 20.2275 20.635C20.5 20.1002 20.5 19.4001 20.5 18V13.5C20.5 11.1729 20.5 10.0094 20.1816 9.07136C19.582 7.30502 18.195 5.91801 16.4286 5.31842C15.4906 5 14.3271 5 12 5C9.67293 5 8.5094 5 7.57136 5.31842C5.80502 5.91801 4.41801 7.30502 3.81842 9.07136Z" fill="#000"/>
<path d="M10 9C10 8.72386 10.2239 8.5 10.5 8.5H13.5C13.7761 8.5 14 8.72386 14 9C14 9.27614 13.7761 9.5 13.5 9.5H10.5C10.2239 9.5 10 9.27614 10 9Z" fill="#000"/>
<path fill-rule="evenodd" clip-rule="evenodd" d="M12.6206 1.5H11.3794C10.9769 1.49999 10.6447 1.49999 10.3741 1.5221C10.093 1.54506 9.83469 1.59434 9.59202 1.71799C9.2157 1.90973 8.90973 2.2157 8.71799 2.59202C8.59434 2.83469 8.54506 3.09304 8.5221 3.37409C8.49999 3.64468 8.49999 3.97685 8.5 4.37933V4.60575C8.09616 4.65685 7.74161 4.73262 7.41065 4.84496C5.49711 5.49452 3.99452 6.99711 3.34496 8.91065C2.99982 9.92742 2.99988 11.1668 3 13.3743L3.00001 18.0219C3 18.7032 3 19.2455 3.03573 19.6827C3.07232 20.1305 3.14885 20.5124 3.32699 20.862C3.61461 21.4265 4.07355 21.8854 4.63804 22.173C4.98766 22.3512 5.3695 22.4277 5.8173 22.4643C6.14109 22.4907 6.5223 22.4976 6.97504 22.4994C6.98331 22.4998 6.99163 22.5 7 22.5H17C17.0084 22.5 17.0167 22.4998 17.025 22.4994C17.4777 22.4976 17.8589 22.4907 18.1827 22.4643C18.6305 22.4277 19.0124 22.3512 19.362 22.173C19.9265 21.8854 20.3854 21.4265 20.673 20.862C20.8512 20.5124 20.9277 20.1305 20.9643 19.6827C21 19.2455 21 18.7035 21 18.0221L21 13.3743C21.0001 11.1668 21.0002 9.92742 20.6551 8.91065C20.0055 6.99711 18.5029 5.49452 16.5894 4.84496C16.2584 4.73262 15.9039 4.65685 15.5 4.60575V4.37936C15.5 3.97687 15.5 3.64469 15.4779 3.37409C15.4549 3.09304 15.4057 2.83469 15.282 2.59202C15.0903 2.2157 14.7843 1.90973 14.408 1.71799C14.1653 1.59434 13.907 1.54506 13.6259 1.5221C13.3553 1.49999 13.0231 1.49999 12.6206 1.5ZM14.5 4.52751V4.4C14.5 3.97171 14.4996 3.68056 14.4812 3.45552C14.4633 3.23631 14.4309 3.12421 14.391 3.04601C14.2951 2.85785 14.1422 2.70487 13.954 2.60899C13.8758 2.56915 13.7637 2.53669 13.5445 2.51878C13.3194 2.50039 13.0283 2.5 12.6 2.5H11.4C10.9717 2.5 10.6806 2.50039 10.4555 2.51878C10.2363 2.53669 10.1242 2.56915 10.046 2.60899C9.85785 2.70487 9.70487 2.85785 9.60899 3.04601C9.56915 3.12421 9.53669 3.23631 9.51878 3.45552C9.50039 3.68056 9.5 3.97171 9.5 4.4V4.52751C10.1514 4.49991 10.923 4.49995 11.8743 4.5H12.1257C13.077 4.49995 13.8486 4.49991 14.5 4.52751ZM18.1013 21.4676C17.9257 21.482 17.7282 21.4899 17.5 21.4944V16.1786C17.5 15.6367 17.5 15.1996 17.4711 14.8457C17.4413 14.4813 17.3784 14.1612 17.2275 13.865C16.9878 13.3946 16.6054 13.0122 16.135 12.7725C15.8388 12.6216 15.5187 12.5587 15.1543 12.5289C14.8004 12.5 14.3633 12.5 13.8214 12.5H10.1786C9.6367 12.5 9.19963 12.5 8.84569 12.5289C8.48126 12.5587 8.16117 12.6216 7.86502 12.7725C7.39462 13.0122 7.01217 13.3946 6.77248 13.865C6.62159 14.1612 6.55868 14.4813 6.52891 14.8457C6.49999 15.1996 6.5 15.6367 6.5 16.1786V16.4995V21.4944C6.27176 21.4899 6.07427 21.482 5.89873 21.4676C5.51277 21.4361 5.27718 21.3764 5.09203 21.282C4.7157 21.0903 4.40974 20.7843 4.218 20.408C4.12365 20.2228 4.06394 19.9872 4.03241 19.6013C4.0004 19.2095 4.00001 18.7083 4.00001 18V13.5C4.00001 11.1323 4.0067 10.0723 4.29189 9.23209C4.84152 7.61294 6.11294 6.34152 7.73209 5.79189C8.57225 5.5067 9.63232 5.50001 12 5.50001C14.3677 5.50001 15.4278 5.5067 16.2679 5.79189C17.8871 6.34152 19.1585 7.61294 19.7081 9.23209C19.9933 10.0723 20 11.1323 20 13.5V18C20 18.7083 19.9996 19.2095 19.9676 19.6013C19.9361 19.9872 19.8764 20.2228 19.782 20.408C19.5903 20.7843 19.2843 21.0903 18.908 21.282C18.7228 21.3764 18.4872 21.4361 18.1013 21.4676ZM7.5 17V21.5H16.5V17H7.5ZM16.4999 16C16.4995 15.5366 16.4965 15.198 16.4744 14.9271C16.4497 14.6245 16.4036 14.4507 16.3365 14.319C16.1927 14.0368 15.9632 13.8073 15.681 13.6635C15.5493 13.5964 15.3755 13.5503 15.0729 13.5256C14.7645 13.5004 14.3683 13.5 13.8 13.5H10.2C9.6317 13.5 9.23554 13.5004 8.92712 13.5256C8.62454 13.5503 8.45069 13.5964 8.31901 13.6635C8.03677 13.8073 7.8073 14.0368 7.66349 14.319C7.5964 14.4507 7.55031 14.6245 7.52559 14.9271C7.50346 15.198 7.50046 15.5366 7.50006 16H16.4999Z" fill="#000"/>
</svg>
