<svg width="24" height="24" viewBox="0 0 24 24" fill="none" xmlns="http://www.w3.org/2000/svg">
<path opacity="0.4" d="M1 12C1 18.0751 5.92487 23 12 23C18.0751 23 23 18.0751 23 12C23 5.92487 18.0751 1 12 1C5.92487 1 1 5.92487 1 12Z" fill="#000"/>
<path fill-rule="evenodd" clip-rule="evenodd" d="M12 0.5C18.3513 0.5 23.5 5.64873 23.5 12C23.5 18.3513 18.3513 23.5 12 23.5C5.64873 23.5 0.5 18.3513 0.5 12C0.5 5.64873 5.64873 0.5 12 0.5ZM22.5 12C22.5 6.20101 17.799 1.5 12 1.5C9.28039 1.5 6.80228 2.53395 4.9373 4.2302L19.7698 19.0627C21.4661 17.1977 22.5 14.7196 22.5 12ZM19.0627 19.7698C17.1977 21.4661 14.7196 22.5 12 22.5C6.20101 22.5 1.5 17.799 1.5 12C1.5 9.28039 2.53395 6.80228 4.2302 4.9373L19.0627 19.7698Z" fill="#000"/>
</svg>
