<svg width="24" height="24" viewBox="0 0 24 24" fill="none" xmlns="http://www.w3.org/2000/svg">
<path opacity="0.4" d="M12.2322 21C11.7644 20.1025 11.5 19.0821 11.5 18C11.5 14.4101 14.4101 11.5 18 11.5C18.6108 11.5 19.202 11.5843 19.7625 11.7418L20 10H2L3.08721 17.9729C3.32369 19.7071 4.80487 21 6.55512 21H12.2322Z" fill="#000"/>
<path fill-rule="evenodd" clip-rule="evenodd" d="M8.78678 0.590427C9.013 0.748784 9.06802 1.06055 8.90966 1.28677L5.96038 5.50004H16.0397L13.0904 1.28677C12.9321 1.06055 12.9871 0.748784 13.2133 0.590427C13.4395 0.43207 13.7513 0.487087 13.9097 0.713312L17.2604 5.50004L19.0688 5.50002C19.4665 5.4998 19.7619 5.49964 20.0177 5.56819C20.7079 5.75313 21.247 6.29222 21.4319 6.98241C21.5004 7.23823 21.5003 7.53356 21.5001 7.93124V8.06884C21.5003 8.46653 21.5004 8.76186 21.4319 9.01768C21.2898 9.54787 20.9388 9.9889 20.4708 10.2487L20.2458 11.8985C19.9325 11.7831 19.6078 11.6912 19.2739 11.6248L19.4275 10.4979C19.3174 10.5002 19.1986 10.5001 19.0688 10.5001H2.93126C2.80153 10.5001 2.6827 10.5002 2.57257 10.4979L3.58269 17.9054C3.78539 19.3919 5.05497 20.5001 6.55518 20.5001H11.9982C12.1441 20.8499 12.3197 21.1843 12.5218 21.5001H6.55518C4.5549 21.5001 2.86212 20.0225 2.59186 18.0405L1.52934 10.2487C1.06133 9.98892 0.710263 9.54788 0.568197 9.01768C0.499648 8.76186 0.499808 8.46653 0.500024 8.06883V7.93125C0.499808 7.53356 0.499648 7.23823 0.568197 6.98241C0.753131 6.29222 1.29223 5.75313 1.98241 5.56819C2.23823 5.49964 2.53356 5.4998 2.93125 5.50002L4.73972 5.50004L8.09043 0.713312C8.24879 0.487087 8.56055 0.43207 8.78678 0.590427ZM3.00005 6.50004C2.50287 6.50004 2.35237 6.50434 2.24123 6.53412C1.89614 6.62658 1.62659 6.89613 1.53412 7.24122C1.50434 7.35236 1.50005 7.50287 1.50005 8.00004C1.50005 8.49722 1.50434 8.64772 1.53412 8.75886C1.62659 9.10395 1.89614 9.3735 2.24123 9.46597C2.35237 9.49575 2.50287 9.50004 3.00005 9.50004H19C19.4972 9.50004 19.6477 9.49575 19.7589 9.46597C20.104 9.3735 20.3735 9.10395 20.466 8.75886C20.4958 8.64772 20.5 8.49722 20.5 8.00004C20.5 7.50287 20.4958 7.35236 20.466 7.24122C20.3735 6.89613 20.104 6.62658 19.7589 6.53412C19.6477 6.50434 19.4972 6.50004 19 6.50004H3.00005Z" fill="#000"/>
<path d="M7.50019 13.5011C7.50019 13.2249 7.27634 13.0011 7.00019 13.0011C6.72405 13.0011 6.50019 13.2249 6.50019 13.5011L6.50018 17.0012C6.50018 17.2773 6.72404 17.5012 7.00018 17.5012C7.27632 17.5012 7.50018 17.2773 7.50018 17.0012L7.50019 13.5011Z" fill="#000"/>
<path d="M11.5003 13.5011C11.5003 13.2249 11.2764 13.0011 11.0003 13.0011C10.7242 13.0011 10.5003 13.2249 10.5003 13.5011L10.5003 17.0012C10.5003 17.2773 10.7241 17.5012 11.0003 17.5012C11.2764 17.5012 11.5003 17.2773 11.5003 17.0012L11.5003 13.5011Z" fill="#000"/>
<path d="M18.5 19.2929L19.6465 18.1464C19.8418 17.9512 20.1583 17.9512 20.3536 18.1464C20.5489 18.3417 20.5489 18.6583 20.3536 18.8536L18.3536 20.8536C18.2598 20.9473 18.1326 21 18 21C17.8674 21 17.7402 20.9473 17.6465 20.8536L15.6465 18.8536C15.4512 18.6583 15.4512 18.3417 15.6465 18.1465C15.8417 17.9512 16.1583 17.9512 16.3536 18.1465L17.5 19.2929V15.5C17.5 15.2239 17.7239 15 18 15C18.2761 15 18.5 15.2239 18.5 15.5V19.2929Z" fill="#000"/>
<path fill-rule="evenodd" clip-rule="evenodd" d="M18 12.5C14.9624 12.5 12.5 14.9624 12.5 18C12.5 21.0376 14.9624 23.5 18 23.5C21.0376 23.5 23.5 21.0376 23.5 18C23.5 14.9624 21.0376 12.5 18 12.5ZM13.5 18C13.5 15.5147 15.5147 13.5 18 13.5C20.4853 13.5 22.5 15.5147 22.5 18C22.5 20.4853 20.4853 22.5 18 22.5C15.5147 22.5 13.5 20.4853 13.5 18Z" fill="#000"/>
</svg>
