<svg width="24" height="24" viewBox="0 0 24 24" fill="none" xmlns="http://www.w3.org/2000/svg">
<path opacity="0.4" d="M18.7211 9.93187L18.5432 7.97536C18.2356 4.59119 15.3981 2 12 2C8.60187 2 5.76444 4.59119 5.45679 7.97536L5.27892 9.93188C5.09588 11.9453 4.41257 13.8811 3.29109 15.5634L3.25783 15.6132C3.08971 15.8654 3 16.1617 3 16.4648C3 17.3127 3.68732 18 4.53518 18H19.4648C20.3127 18 21 17.3127 21 16.4648C21 16.1617 20.9103 15.8654 20.7422 15.6132L20.7089 15.5634C19.5874 13.8811 18.9041 11.9453 18.7211 9.93187Z" fill="#000"/>
<path fill-rule="evenodd" clip-rule="evenodd" d="M12 1.5C8.34327 1.5 5.2899 4.28838 4.95884 7.93009L4.78097 9.88661C4.60547 11.8171 3.95033 13.6731 2.87507 15.286L2.84181 15.3359C2.61893 15.6702 2.5 16.063 2.5 16.4648C2.5 17.5888 3.41118 18.5 4.53518 18.5H19.4648C20.5888 18.5 21.5 17.5888 21.5 16.4648C21.5 16.063 21.3811 15.6702 21.1582 15.3359L21.1249 15.286C20.0497 13.6731 19.3945 11.8171 19.219 9.8866L19.0412 7.93009C18.7101 4.28838 15.6567 1.5 12 1.5ZM5.95473 8.02063C6.23897 4.894 8.86047 2.5 12 2.5C15.1395 2.5 17.761 4.89399 18.0453 8.02063L18.2231 9.97714C18.4137 12.0736 19.1252 14.0892 20.2929 15.8407L20.3261 15.8906C20.4395 16.0606 20.5 16.2604 20.5 16.4648C20.5 17.0365 20.0365 17.5 19.4648 17.5H4.53518C3.96347 17.5 3.5 17.0365 3.5 16.4648C3.5 16.2604 3.56049 16.0606 3.67386 15.8906L3.70712 15.8407C4.87481 14.0892 5.58628 12.0736 5.77687 9.97714L5.95473 8.02063Z" fill="#000"/>
<path d="M9.83416 20.2497C9.69589 20.0107 9.39003 19.929 9.151 20.0673C8.91197 20.2056 8.83028 20.5114 8.96856 20.7504C9.57297 21.7953 10.7039 22.5001 12 22.5001C13.2961 22.5001 14.4271 21.7953 15.0315 20.7504C15.1697 20.5114 15.0881 20.2056 14.849 20.0673C14.61 19.929 14.3041 20.0107 14.1659 20.2497C13.7328 20.9983 12.9247 21.5001 12 21.5001C11.0753 21.5001 10.2672 20.9983 9.83416 20.2497Z" fill="#000"/>
</svg>
