<svg width="24" height="24" viewBox="0 0 24 24" fill="none" xmlns="http://www.w3.org/2000/svg">
<g opacity="0.4">
<path d="M5.96641 5.96641C5.69728 6.59007 5.52134 7.26526 5.45679 7.97536L5.27892 9.93188C5.09588 11.9453 4.41257 13.8811 3.29109 15.5634L3.25783 15.6132C3.08971 15.8654 3 16.1617 3 16.4648C3 17.3127 3.68732 18 4.53518 18H18L5.96641 5.96641Z" fill="#000"/>
<path d="M20.2713 17.7713C20.7086 17.5008 21 17.0168 21 16.4648C21 16.1617 20.9103 15.8654 20.7422 15.6132L20.7089 15.5634C19.5874 13.8811 18.9041 11.9453 18.7211 9.93187L18.5432 7.97536C18.2356 4.59119 15.3981 2 12 2C9.96007 2 8.1222 2.93379 6.91236 4.41236L20.2713 17.7713Z" fill="#000"/>
</g>
<path fill-rule="evenodd" clip-rule="evenodd" d="M2.35355 1.64645C2.15829 1.45118 1.84171 1.45118 1.64645 1.64645C1.45118 1.84171 1.45118 2.15829 1.64645 2.35355L5.37913 6.08624C5.16149 6.66693 5.01747 7.28513 4.95884 7.93009L4.78097 9.88661C4.60547 11.8171 3.95033 13.6731 2.87507 15.286L2.84181 15.3359C2.61893 15.6702 2.5 16.063 2.5 16.4648C2.5 17.5888 3.41118 18.5 4.53518 18.5H17.7929L21.6464 22.3536C21.8417 22.5488 22.1583 22.5488 22.3536 22.3536C22.5488 22.1583 22.5488 21.8417 22.3536 21.6464L2.35355 1.64645ZM16.7929 17.5L6.16986 6.87697C6.06347 7.24434 5.99055 7.62667 5.95473 8.02063L5.77687 9.97714C5.58628 12.0736 4.87481 14.0892 3.70712 15.8407L3.67386 15.8906C3.56049 16.0606 3.5 16.2604 3.5 16.4648C3.5 17.0365 3.96347 17.5 4.53518 17.5H16.7929Z" fill="#000"/>
<path d="M19.903 17.403C20.2557 17.238 20.5 16.8799 20.5 16.4648C20.5 16.2604 20.4395 16.0606 20.3261 15.8906L20.2929 15.8407C19.1252 14.0892 18.4137 12.0736 18.2231 9.97714L18.0453 8.02063C17.761 4.89399 15.1395 2.5 12 2.5C10.0974 2.5 8.38506 3.3792 7.26785 4.76785L6.55716 4.05716C7.85935 2.48854 9.82272 1.5 12 1.5C15.6567 1.5 18.7101 4.28838 19.0412 7.93009L19.219 9.8866C19.3945 11.8171 20.0497 13.6731 21.1249 15.286L21.1582 15.3359C21.3811 15.6702 21.5 16.063 21.5 16.4648C21.5 17.1545 21.1569 17.7641 20.6322 18.1322L19.903 17.403Z" fill="#000"/>
<path d="M9.15103 20.0673C9.39006 19.929 9.69592 20.0107 9.83419 20.2497C10.2672 20.9983 11.0753 21.5001 12 21.5001C12.9248 21.5001 13.7329 20.9983 14.1659 20.2497C14.3042 20.0107 14.61 19.929 14.8491 20.0673C15.0881 20.2056 15.1698 20.5114 15.0315 20.7504C14.4271 21.7953 13.2962 22.5001 12 22.5001C10.7039 22.5001 9.573 21.7953 8.96859 20.7504C8.83031 20.5114 8.912 20.2056 9.15103 20.0673Z" fill="#000"/>
</svg>
