<svg width="24" height="24" viewBox="0 0 24 24" fill="none" xmlns="http://www.w3.org/2000/svg">
<path opacity="0.4" d="M17.5 6.5L12 12L17.5 17.5L12 22V12V2L17.5 6.5Z" fill="#000"/>
<path fill-rule="evenodd" clip-rule="evenodd" d="M11.7859 1.54817C11.9605 1.46544 12.1671 1.49069 12.3166 1.61303L17.8166 6.11303C17.926 6.20248 17.9923 6.33401 17.9994 6.4751C18.0064 6.61619 17.9534 6.75367 17.8536 6.85356L12.7071 12L17.8536 17.1465C17.9534 17.2463 18.0064 17.3838 17.9994 17.5249C17.9923 17.666 17.926 17.7975 17.8166 17.887L12.3166 22.387C12.1671 22.5093 11.9605 22.5346 11.7859 22.4518C11.6113 22.3691 11.5 22.1932 11.5 22V13.2071L6.35355 18.3536C6.15829 18.5488 5.84171 18.5488 5.64645 18.3536C5.45118 18.1583 5.45118 17.8417 5.64645 17.6465L11.2929 12L5.64645 6.35356C5.45118 6.1583 5.45118 5.84171 5.64645 5.64645C5.84171 5.45119 6.15829 5.45119 6.35355 5.64645L11.5 10.7929V2.00001C11.5 1.80681 11.6113 1.6309 11.7859 1.54817ZM12.5 13.2071L16.7558 17.4629L12.5 20.9449V13.2071ZM12.5 10.7929V3.05513L16.7558 6.53712L12.5 10.7929Z" fill="#000"/>
</svg>
