<svg width="24" height="24" viewBox="0 0 24 24" fill="none" xmlns="http://www.w3.org/2000/svg">
<path opacity="0.4" d="M8.39992 14.0062H6.24805C5.18259 14.0062 4.64986 14.0062 4.3762 13.7878C4.1382 13.5978 3.99972 13.3098 4 13.0053C4.00033 12.6551 4.33304 12.2391 4.99845 11.4069L11.1503 3.71387C12.0242 2.62101 12.4612 2.07458 12.8444 2.01426C13.1761 1.96204 13.5119 2.07978 13.7383 2.32772C13.9999 2.61416 13.9999 3.31381 13.9999 4.71312V8.40454C13.9999 8.96459 13.9999 9.24461 14.1089 9.45853C14.2048 9.64669 14.3578 9.79967 14.5459 9.89554C14.7598 10.0045 15.0399 10.0045 15.5999 10.0045H17.7518C18.8173 10.0045 19.35 10.0045 19.6236 10.223C19.8616 10.4129 20.0001 10.701 19.9998 11.0055C19.9995 11.3556 19.6668 11.7717 19.0014 12.6038L12.8495 20.2969C11.9756 21.3897 11.5386 21.9362 11.1554 21.9965C10.8237 22.0487 10.488 21.931 10.2615 21.683C9.99992 21.3966 9.99992 20.6969 9.99992 19.2976V15.6062C9.99992 15.0462 9.99992 14.7661 9.89093 14.5522C9.79506 14.3641 9.64208 14.2111 9.45391 14.1152C9.24 14.0062 8.95997 14.0062 8.39992 14.0062Z" fill="#000"/>
<path fill-rule="evenodd" clip-rule="evenodd" d="M12.7667 1.52035C13.2642 1.44202 13.7678 1.61863 14.1075 1.99054C14.363 2.27027 14.4328 2.67562 14.4654 3.06085C14.4999 3.46769 14.4999 4.00959 14.4999 4.68771V8.40454C14.4999 8.69282 14.5003 8.87896 14.5119 9.02063C14.523 9.15646 14.5418 9.20682 14.5544 9.23154C14.6024 9.32562 14.6788 9.40211 14.7729 9.45005C14.7976 9.46264 14.848 9.48148 14.9838 9.49258C15.1255 9.50415 15.3116 9.50454 15.5999 9.50454H17.7771C18.2883 9.50453 18.7066 9.50453 19.0299 9.53389C19.3493 9.56291 19.6778 9.62646 19.9355 9.83217C20.2926 10.1171 20.5003 10.5492 20.4998 11.0059C20.4995 11.3357 20.344 11.632 20.1672 11.8996C19.9882 12.1704 19.727 12.4971 19.4076 12.8964L13.2241 20.629C12.8006 21.1586 12.4622 21.5818 12.1812 21.878C11.9151 22.1585 11.6074 22.4315 11.2332 22.4904C10.7356 22.5687 10.232 22.3921 9.89234 22.0202C9.63685 21.7405 9.56708 21.3351 9.53441 20.9499C9.49991 20.5431 9.49992 20.0012 9.49992 19.323V15.6062C9.49992 15.3179 9.49953 15.1318 9.48796 14.9901C9.47686 14.8543 9.45802 14.8039 9.44543 14.7792C9.39749 14.6851 9.321 14.6086 9.22692 14.5607C9.2022 14.5481 9.15184 14.5293 9.016 14.5182C8.87434 14.5066 8.6882 14.5062 8.39992 14.5062H6.22278C5.71152 14.5062 5.29327 14.5062 4.96997 14.4769C4.65057 14.4478 4.32203 14.3843 4.06429 14.1786C3.70729 13.8937 3.49957 13.4616 3.5 13.0048C3.50031 12.675 3.65585 12.3788 3.83267 12.1112C4.01165 11.8404 4.27287 11.5137 4.59217 11.1144L10.7757 3.38178C11.1992 2.85215 11.5376 2.42892 11.8187 2.13272C12.0848 1.85226 12.3924 1.57926 12.7667 1.52035ZM13.3688 2.66456C13.2556 2.54083 13.0879 2.4821 12.9222 2.50818C12.9222 2.50818 12.8944 2.51397 12.8298 2.55974C12.7592 2.6097 12.6669 2.69164 12.5441 2.82102C12.2959 3.08265 11.9838 3.47219 11.5408 4.02614L5.38895 11.7192C5.05001 12.1431 4.81784 12.4342 4.66696 12.6625C4.51099 12.8985 4.50002 12.9854 4.5 13.0057C4.49986 13.158 4.5691 13.302 4.6881 13.397C4.70402 13.4097 4.77869 13.4554 5.06043 13.481C5.33296 13.5057 5.70535 13.5062 6.24805 13.5062H8.41921C8.68278 13.5062 8.91015 13.5062 9.09744 13.5215C9.29511 13.5376 9.49172 13.5733 9.68091 13.6697C9.96315 13.8135 10.1926 14.043 10.3364 14.3252C10.4328 14.5144 10.4685 14.711 10.4846 14.9087C10.4999 15.096 10.4999 15.3234 10.4999 15.587V19.2976C10.4999 20.0069 10.5004 20.506 10.5308 20.8654C10.5459 21.0431 10.5668 21.1648 10.5908 21.2479C10.6118 21.3211 10.6297 21.3445 10.631 21.3462C10.7443 21.4699 10.912 21.5287 11.0777 21.5026C11.0777 21.5026 11.1054 21.4968 11.1701 21.451C11.2407 21.4011 11.333 21.3191 11.4557 21.1897C11.704 20.9281 12.016 20.5386 12.459 19.9846L18.6109 12.2915C18.9498 11.8677 19.182 11.5765 19.3329 11.3482C19.4889 11.1122 19.4998 11.0254 19.4998 11.005C19.5 10.8528 19.4307 10.7087 19.3117 10.6138C19.2958 10.601 19.2212 10.5554 18.9394 10.5298C18.6669 10.505 18.2945 10.5045 17.7518 10.5045H15.5806C15.3171 10.5046 15.0897 10.5046 14.9024 10.4893C14.7047 10.4731 14.5081 10.4374 14.3189 10.3411C14.0367 10.1972 13.8072 9.96777 13.6634 9.68553C13.567 9.49634 13.5314 9.29973 13.5152 9.10206C13.4999 8.91477 13.4999 8.6874 13.4999 8.42383V4.71313C13.4999 4.00384 13.4995 3.50471 13.469 3.14535C13.4539 2.96765 13.433 2.846 13.4091 2.76289C13.388 2.68953 13.3701 2.66617 13.3688 2.66456Z" fill="#000"/>
</svg>
