<svg width="24" height="24" viewBox="0 0 24 24" fill="none" xmlns="http://www.w3.org/2000/svg">
<g opacity="0.4">
<path d="M7.84602 7.84587L4.99845 11.4068C4.33304 12.2389 4.00033 12.655 4 13.0051C3.99972 13.3097 4.1382 13.5977 4.3762 13.7877C4.64986 14.0061 5.18259 14.0061 6.24805 14.0061H8.39992C8.95998 14.0061 9.24 14.0061 9.45391 14.1151C9.64208 14.211 9.79506 14.3639 9.89093 14.5521C9.99992 14.766 9.99992 15.046 9.99992 15.6061V19.2975C9.99992 20.6968 9.99992 21.3965 10.2615 21.6829C10.488 21.9308 10.8237 22.0486 11.1554 21.9964C11.5386 21.936 11.9756 21.3896 12.8495 20.2968L16.1587 16.1585L7.84602 7.84587Z" fill="#000"/>
<path d="M17.2695 14.7694L19.0014 12.6037C19.6668 11.7715 19.9995 11.3555 19.9998 11.0053C20.0001 10.7008 19.8616 10.4128 19.6236 10.2228C19.35 10.0044 18.8173 10.0044 17.7518 10.0044H15.5999C15.0399 10.0044 14.7598 10.0044 14.5459 9.89542C14.3578 9.79955 14.2048 9.64657 14.1089 9.4584C13.9999 9.24449 13.9999 8.96447 13.9999 8.40441V4.713C13.9999 3.31369 13.9999 2.61404 13.7383 2.32759C13.5119 2.07966 13.1761 1.96192 12.8444 2.01413C12.4612 2.07446 12.0242 2.62089 11.1503 3.71374L8.95687 6.45672L17.2695 14.7694Z" fill="#000"/>
</g>
<path fill-rule="evenodd" clip-rule="evenodd" d="M2.35355 1.64645C2.15829 1.45118 1.84171 1.45118 1.64645 1.64645C1.45118 1.84171 1.45118 2.15829 1.64645 2.35355L7.17602 7.88313L4.59217 11.1143C4.27287 11.5136 4.01165 11.8402 3.83267 12.1111C3.65585 12.3786 3.50031 12.6749 3.5 13.0047C3.49957 13.4615 3.70729 13.8935 4.0643 14.1785C4.32203 14.3842 4.65057 14.4477 4.96997 14.4767C5.29326 14.5061 5.7115 14.5061 6.22274 14.5061H8.39992C8.6882 14.5061 8.87434 14.5065 9.01601 14.5181C9.15184 14.5292 9.2022 14.548 9.22692 14.5606C9.321 14.6085 9.39749 14.685 9.44543 14.7791C9.45802 14.8038 9.47686 14.8542 9.48796 14.99C9.49953 15.1317 9.49992 15.3178 9.49992 15.6061V19.3229C9.49992 20.001 9.49991 20.5429 9.53441 20.9498C9.56708 21.335 9.63685 21.7404 9.89234 22.0201C10.232 22.392 10.7356 22.5686 11.2332 22.4903C11.6074 22.4314 11.9151 22.1584 12.1812 21.8779C12.4622 21.5817 12.8006 21.1585 13.2241 20.6289L16.2002 16.9073L21.6464 22.3536C21.8417 22.5488 22.1583 22.5488 22.3536 22.3536C22.5488 22.1583 22.5488 21.8417 22.3536 21.6464L2.35355 1.64645ZM15.4887 16.1958L7.8875 8.5946L5.38895 11.7191C5.05002 12.143 4.81784 12.4341 4.66696 12.6624C4.51099 12.8984 4.50002 12.9852 4.5 13.0056C4.49986 13.1579 4.5691 13.3019 4.6881 13.3969C4.70402 13.4096 4.77869 13.4552 5.06043 13.4808C5.33296 13.5056 5.70535 13.5061 6.24805 13.5061H8.41921C8.68278 13.5061 8.91015 13.5061 9.09744 13.5214C9.29511 13.5375 9.49172 13.5732 9.68091 13.6696C9.96315 13.8134 10.1926 14.0429 10.3364 14.3251C10.4328 14.5143 10.4685 14.7109 10.4846 14.9086C10.4999 15.0959 10.4999 15.3232 10.4999 15.5868V19.2975C10.4999 20.0068 10.5004 20.5059 10.5308 20.8653C10.5459 21.043 10.5668 21.1646 10.5908 21.2477C10.6119 21.321 10.6297 21.3444 10.631 21.3461C10.7442 21.4697 10.9117 21.5284 11.0772 21.5025C11.0793 21.502 11.1079 21.4949 11.1701 21.4509C11.2407 21.4009 11.333 21.319 11.4557 21.1896C11.704 20.928 12.016 20.5385 12.459 19.9845L15.4887 16.1958Z" fill="#000"/>
<path d="M17.6253 15.1251L16.9138 14.4137L18.6109 12.2914C18.9498 11.8676 19.182 11.5764 19.3329 11.3481C19.4889 11.1121 19.4998 11.0253 19.4998 11.0049C19.5 10.8526 19.4307 10.7086 19.3117 10.6136C19.2958 10.6009 19.2212 10.5553 18.9394 10.5297C18.6669 10.5049 18.2945 10.5044 17.7518 10.5044H15.5806C15.3171 10.5044 15.0897 10.5044 14.9024 10.4891C14.7047 10.473 14.5081 10.4373 14.3189 10.3409C14.0367 10.1971 13.8072 9.96765 13.6634 9.68541C13.567 9.49622 13.5314 9.29961 13.5152 9.10193C13.4999 8.91465 13.4999 8.68727 13.4999 8.4237V4.71301C13.4999 4.00371 13.4995 3.50459 13.469 3.14523C13.4539 2.96752 13.433 2.84587 13.4091 2.76276C13.388 2.68941 13.3701 2.66605 13.3688 2.66444C13.2557 2.54082 13.0882 2.48208 12.9226 2.50799C12.9226 2.50798 12.923 2.50792 12.9226 2.50799C12.9206 2.50846 12.892 2.51555 12.8298 2.55962C12.7592 2.60958 12.6669 2.69152 12.5441 2.82089C12.2959 3.08252 11.9838 3.47206 11.5408 4.02602L9.3126 6.81247L8.60113 6.10099L10.7757 3.38165C11.1992 2.85203 11.5376 2.4288 11.8187 2.1326C12.0848 1.85213 12.3924 1.57914 12.7667 1.52022C13.2642 1.4419 13.7678 1.61851 14.1075 1.99041C14.363 2.27015 14.4328 2.67549 14.4654 3.06073C14.4999 3.46756 14.4999 4.00946 14.4999 4.68759V8.40442C14.4999 8.6927 14.5003 8.87883 14.5119 9.0205C14.523 9.15633 14.5418 9.20669 14.5544 9.23142C14.6024 9.3255 14.6788 9.40199 14.7729 9.44992C14.7977 9.46252 14.848 9.48136 14.9838 9.49246C15.1255 9.50403 15.3116 9.50442 15.5999 9.50442H17.7771C18.2883 9.50441 18.7066 9.50441 19.0299 9.53377C19.3493 9.56279 19.6778 9.62634 19.9355 9.83205C20.2926 10.117 20.5003 10.5491 20.4998 11.0058C20.4995 11.3356 20.344 11.6319 20.1672 11.8994C19.9882 12.1703 19.727 12.4969 19.4077 12.8962L17.6253 15.1251Z" fill="#000"/>
</svg>
