<svg width="24" height="24" viewBox="0 0 24 24" fill="none" xmlns="http://www.w3.org/2000/svg">
<g opacity="0.4">
<path d="M4.59952 4.59952C4.5 5.20617 4.5 6.0079 4.5 7.2V21.2811C4.5 21.6781 4.82187 22 5.21892 22C5.39964 22 5.57374 21.9319 5.70654 21.8093L10.9148 17.0018C11.2975 16.6485 11.4888 16.4718 11.7062 16.405C11.8977 16.3462 12.1023 16.3462 12.2938 16.405C12.5112 16.4718 12.7025 16.6485 13.0852 17.0018L18.2935 21.8093C18.4263 21.9319 18.6004 22 18.7811 22C19.1781 22 19.5 21.6781 19.5 21.2811V19.5L4.59952 4.59952Z" fill="#000"/>
<path d="M19.5 17V7.2C19.5 5.37983 19.5 4.46974 19.1458 3.77453C18.8342 3.163 18.337 2.66582 17.7255 2.35423C17.0303 2 16.1202 2 14.3 2H9.7C7.87983 2 6.96974 2 6.27453 2.35423C5.96877 2.51002 5.69159 2.71222 5.4519 2.9519L19.5 17Z" fill="#000"/>
</g>
<path fill-rule="evenodd" clip-rule="evenodd" d="M4.07017 4.77728L1.64645 2.35355C1.45118 2.15829 1.45118 1.84171 1.64645 1.64645C1.84171 1.45118 2.15829 1.45118 2.35355 1.64645L22.3536 21.6464C22.5488 21.8417 22.5488 22.1583 22.3536 22.3536C22.1583 22.5488 21.8417 22.5488 21.6464 22.3536L20 20.7071V21.2811C20 21.9543 19.4543 22.5 18.7811 22.5C18.4747 22.5 18.1795 22.3846 17.9543 22.1767L12.7461 17.3692C12.5489 17.1872 12.4221 17.0706 12.3183 16.9889C12.2194 16.9111 12.1729 16.891 12.1469 16.883C12.0512 16.8536 11.9488 16.8536 11.8531 16.883C11.8271 16.891 11.7806 16.9111 11.6817 16.9889C11.5779 17.0706 11.4511 17.1872 11.2539 17.3692L6.04568 22.1767C5.82052 22.3846 5.52534 22.5 5.21892 22.5C4.54573 22.5 4 21.9543 4 21.2811V7.17767C4 6.2865 3.99999 5.58703 4.04594 5.02469C4.05285 4.94013 4.06085 4.85772 4.07017 4.77728ZM19 19.7071V21.2811C19 21.402 18.902 21.5 18.7811 21.5C18.7261 21.5 18.673 21.4793 18.6326 21.4419L13.4109 16.6219C13.2311 16.4559 13.0752 16.312 12.9367 16.203C12.7899 16.0875 12.6321 15.9859 12.4407 15.9271C12.1535 15.8388 11.8465 15.8388 11.5593 15.9271C11.3679 15.9859 11.2101 16.0875 11.0633 16.203C10.9248 16.312 10.7689 16.4559 10.5891 16.6219L5.3674 21.4419C5.32696 21.4793 5.27395 21.5 5.21892 21.5C5.09801 21.5 5 21.402 5 21.2811V7.2C5 6.6092 5.00016 6.12587 5.01152 5.71863L19 19.7071Z" fill="#000"/>
<path d="M19 7.2V16.5L20 17.5V7.17765C20 6.28648 20 5.58703 19.9541 5.02469C19.9073 4.45183 19.8103 3.97738 19.5913 3.54754C19.2318 2.84193 18.6581 2.26825 17.9525 1.90873C17.5226 1.68971 17.0482 1.59274 16.4753 1.54594C15.913 1.49999 15.2135 1.5 14.3223 1.5H9.67767C8.78649 1.5 8.08703 1.49999 7.52469 1.54594C6.95183 1.59274 6.47738 1.68971 6.04754 1.90873C5.69473 2.08849 5.37491 2.32179 5.09835 2.59835L5.80546 3.30546C6.00827 3.10265 6.2428 2.93156 6.50153 2.79973C6.7669 2.66452 7.0951 2.58437 7.60612 2.54262C8.12298 2.50039 8.78166 2.5 9.7 2.5H14.3C15.2183 2.5 15.877 2.50039 16.3939 2.54262C16.9049 2.58437 17.2331 2.66452 17.4985 2.79973C18.0159 3.06338 18.4366 3.48408 18.7003 4.00153C18.8355 4.2669 18.9156 4.5951 18.9574 5.10612C18.9996 5.62298 19 6.28166 19 7.2Z" fill="#000"/>
</svg>
