<svg width="24" height="24" viewBox="0 0 24 24" fill="none" xmlns="http://www.w3.org/2000/svg">
<path opacity="0.4" d="M3 5.5V19.5C3 18.1193 4.11929 17 5.5 17H19.5C20.3284 17 21 16.3284 21 15.5V3.5C21 2.67157 20.3284 2 19.5 2H6.5C4.567 2 3 3.567 3 5.5Z" fill="#000"/>
<path fill-rule="evenodd" clip-rule="evenodd" d="M2.5 19.5V5.5C2.5 3.29086 4.29086 1.5 6.5 1.5H19.5C20.6046 1.5 21.5 2.39543 21.5 3.5V15.5C21.5 16.6046 20.6046 17.5 19.5 17.5V21.5H21C21.2761 21.5 21.5 21.7239 21.5 22C21.5 22.2761 21.2761 22.5 21 22.5H5.5C3.84315 22.5 2.5 21.1569 2.5 19.5ZM3.5 5.5C3.5 3.84315 4.84315 2.5 6.5 2.5H19.5C20.0523 2.5 20.5 2.94772 20.5 3.5V15.5C20.5 16.0523 20.0523 16.5 19.5 16.5H5.5C4.73165 16.5 4.03076 16.7889 3.5 17.2639V5.5ZM18.5 17.5H5.5C4.39543 17.5 3.5 18.3954 3.5 19.5C3.5 20.6046 4.39543 21.5 5.5 21.5H18.5V17.5Z" fill="#000"/>
</svg>
