<svg width="24" height="24" viewBox="0 0 24 24" fill="none" xmlns="http://www.w3.org/2000/svg">
<path opacity="0.4" d="M4.02368 5.35067L10.5237 2.32678C11.4597 1.89132 12.5403 1.89132 13.4763 2.32678L19.9763 5.35067C21.2106 5.92489 22 7.16272 22 8.52407V15.5454C22 16.9172 21.1986 18.1625 19.9501 18.7309L13.4501 21.6898C12.5289 22.1092 11.4711 22.1092 10.5499 21.6898L4.04989 18.7309C2.80138 18.1625 2 16.9172 2 15.5454V8.52407C2 7.16273 2.78937 5.92489 4.02368 5.35067Z" fill="#000"/>
<path fill-rule="evenodd" clip-rule="evenodd" d="M13.6872 1.87331C12.6174 1.37564 11.3825 1.37564 10.3128 1.87331L3.81278 4.8972C2.40214 5.55346 1.5 6.96813 1.5 8.52395V15.5453C1.5 17.113 2.41586 18.5363 3.84273 19.1858L10.3427 22.1448C11.3956 22.6241 12.6044 22.6241 13.6573 22.1448L20.1573 19.1858C21.5841 18.5363 22.5 17.113 22.5 15.5453V8.52395C22.5 6.96812 21.5979 5.55345 20.1872 4.8972L13.6872 1.87331ZM10.7346 2.78C11.5369 2.40675 12.4631 2.40675 13.2654 2.78L19.7654 5.80389C20.2874 6.04673 20.7165 6.42802 21.0174 6.89218L17.524 8.4579L8.13785 3.98804L10.7346 2.78ZM17.0001 9.78855V13.0002C17.0001 13.2763 17.224 13.5002 17.5001 13.5002C17.7763 13.5002 18.0001 13.2763 18.0001 13.0002V9.34035L21.414 7.81028C21.4704 8.04072 21.5 8.28002 21.5 8.52395V15.5453C21.5 16.7211 20.8131 17.7885 19.743 18.2757L13.243 21.2347C13.0042 21.3433 12.7547 21.4192 12.501 21.4621L12.5011 11.805L17.0001 9.78855ZM16.3258 8.99491L6.96134 4.53537L4.23459 5.80389C3.7126 6.04673 3.28345 6.42802 2.98259 6.89219L12 10.9337L16.3258 8.99491ZM2.586 7.81028C2.52957 8.04073 2.5 8.28003 2.5 8.52395V15.5453C2.5 16.7211 3.1869 17.7885 4.25705 18.2757L10.757 21.2347C10.9965 21.3436 11.2466 21.4196 11.501 21.4625L11.5011 11.806L2.586 7.81028Z" fill="#000"/>
</svg>
