<svg width="24" height="24" viewBox="0 0 24 24" fill="none" xmlns="http://www.w3.org/2000/svg">
<path opacity="0.4" fill-rule="evenodd" clip-rule="evenodd" d="M18 5H6C4.59987 5 3.8998 5 3.36502 5.27249C2.89462 5.51217 2.51217 5.89462 2.27248 6.36502C2 6.8998 2 7.59987 2 9V11.16C2 12.5041 2 13.1762 2.26159 13.6896C2.32955 13.823 2.40947 13.949 2.5 14.0663V16.8C2.5 18.6201 2.5 19.5302 2.85423 20.2254C3.16582 20.837 3.663 21.3341 4.27453 21.6457C4.96974 22 5.87983 22 7.7 22H16.3C18.1202 22 19.0303 22 19.7255 21.6457C20.337 21.3341 20.8342 20.837 21.1458 20.2254C21.5 19.5302 21.5 18.6201 21.5 16.8V14.0663C21.5905 13.949 21.6705 13.823 21.7384 13.6896C22 13.1762 22 12.5041 22 11.16V9C22 7.59987 22 6.8998 21.7275 6.36502C21.4878 5.89462 21.1054 5.51217 20.635 5.27248C20.1002 5 19.4001 5 18 5ZM13.5 14.25C13.5 13.4216 12.8284 12.75 12 12.75C11.1716 12.75 10.5 13.4216 10.5 14.25V15.75C10.5 16.5784 11.1716 17.25 12 17.25C12.8284 17.25 13.5 16.5784 13.5 15.75V14.25Z" fill="#000"/>
<path fill-rule="evenodd" clip-rule="evenodd" d="M13.6206 1.5H10.3794C9.97687 1.49999 9.64468 1.49999 9.37409 1.5221C9.09304 1.54506 8.83469 1.59434 8.59202 1.71799C8.2157 1.90973 7.90973 2.2157 7.71799 2.59202C7.59434 2.83469 7.54506 3.09304 7.5221 3.37409C7.49999 3.64468 7.49999 3.97686 7.5 4.37934V4.5H5.97812C5.2966 4.5 4.75458 4.49999 4.31729 4.53572C3.86949 4.57231 3.48765 4.64884 3.13803 4.82698C2.57354 5.1146 2.1146 5.57354 1.82698 6.13803C1.64884 6.48765 1.57231 6.86949 1.53572 7.31729C1.49999 7.75458 1.5 8.29659 1.5 8.97811V11.1818C1.5 11.8354 1.49999 12.3564 1.53436 12.777C1.56958 13.2082 1.64339 13.5776 1.81608 13.9166C1.8712 14.0247 1.93282 14.1289 2.00045 14.2286C2.00015 14.2357 2 14.2428 2 14.25V16.8223C2 17.7135 1.99999 18.4129 2.04594 18.9753C2.09274 19.5481 2.18971 20.0226 2.40873 20.4524C2.76825 21.158 3.34193 21.7317 4.04754 22.0912C4.47738 22.3103 4.95183 22.4072 5.52469 22.454C6.08703 22.5 6.78648 22.5 7.67765 22.5H16.3223C17.2135 22.5 17.913 22.5 18.4753 22.454C19.0482 22.4072 19.5226 22.3103 19.9525 22.0912C20.6581 21.7317 21.2317 21.158 21.5913 20.4524C21.8103 20.0226 21.9073 19.5481 21.9541 18.9753C22 18.4129 22 17.7135 22 16.8223V14.25C22 14.2453 21.9999 14.2405 21.9998 14.2358C21.9997 14.2334 21.9997 14.231 21.9995 14.2286C22.0672 14.1289 22.1288 14.0247 22.1839 13.9166C22.3566 13.5776 22.4304 13.2082 22.4656 12.777C22.5 12.3564 22.5 11.8354 22.5 11.1819V8.97811C22.5 8.29661 22.5 7.75457 22.4643 7.31729C22.4277 6.86949 22.3512 6.48765 22.173 6.13803C21.8854 5.57354 21.4265 5.1146 20.862 4.82698C20.5123 4.64884 20.1305 4.57231 19.6827 4.53572C19.2454 4.49999 18.7034 4.5 18.0219 4.5H16.5V4.37934C16.5 3.97686 16.5 3.64468 16.4779 3.37409C16.4549 3.09304 16.4057 2.83469 16.282 2.59202C16.0903 2.2157 15.7843 1.90973 15.408 1.71799C15.1653 1.59434 14.907 1.54506 14.6259 1.5221C14.3553 1.49999 14.0231 1.49999 13.6206 1.5ZM16.0003 5.5L8.00064 5.5C8.00043 5.5 8.00085 5.5 8.00064 5.5C8.00042 5.5 7.99958 5.5 7.99936 5.5H6C5.29168 5.5 4.79052 5.50039 4.39872 5.5324C4.01276 5.56394 3.77717 5.62365 3.59202 5.71799C3.2157 5.90973 2.90973 6.2157 2.71799 6.59202C2.62365 6.77717 2.56393 7.01276 2.5324 7.39872C2.50039 7.79052 2.5 8.29169 2.5 9L2.5 11.16C2.5 11.8403 2.50039 12.3205 2.53104 12.6956C2.56121 13.0649 2.6182 13.2881 2.70709 13.4626C2.88925 13.8201 3.17991 14.1108 3.53742 14.2929C3.71188 14.3818 3.93512 14.4388 4.3044 14.469C4.67952 14.4996 5.15969 14.5 5.84 14.5H10V14.25C10 13.1454 10.8954 12.25 12 12.25C13.1046 12.25 14 13.1454 14 14.25V14.5H18.16C18.8403 14.5 19.3205 14.4996 19.6956 14.469C20.0649 14.4388 20.2881 14.3818 20.4626 14.2929C20.8201 14.1108 21.1108 13.8201 21.2929 13.4626C21.3818 13.2881 21.4388 13.0649 21.469 12.6956C21.4996 12.3205 21.5 11.8403 21.5 11.16V9C21.5 8.29168 21.4996 7.79052 21.4676 7.39872C21.4361 7.01276 21.3764 6.77717 21.282 6.59202C21.0903 6.21569 20.7843 5.90973 20.408 5.71799C20.2228 5.62364 19.9872 5.56393 19.6013 5.5324C19.2095 5.50039 18.7083 5.5 18 5.5H16.0003ZM8.5 4.5L15.5 4.5V4.4C15.5 3.97171 15.4996 3.68056 15.4812 3.45552C15.4633 3.23631 15.4309 3.12421 15.391 3.04601C15.2951 2.85785 15.1422 2.70487 14.954 2.60899C14.8758 2.56915 14.7637 2.53669 14.5445 2.51878C14.3194 2.50039 14.0283 2.5 13.6 2.5H10.4C9.97171 2.5 9.68056 2.50039 9.45552 2.51878C9.23631 2.53669 9.12421 2.56915 9.04601 2.60899C8.85785 2.70487 8.70487 2.85785 8.60899 3.04601C8.56915 3.12421 8.53669 3.23631 8.51878 3.45552C8.50039 3.68056 8.5 3.97171 8.5 4.4V4.5ZM3 16.8V15.1397C3.02753 15.1549 3.05535 15.1696 3.08343 15.1839C3.42236 15.3566 3.79184 15.4304 4.22297 15.4656C4.64358 15.5 5.16459 15.5 5.81814 15.5H10V15.75C10 16.8546 10.8954 17.75 12 17.75C13.1046 17.75 14 16.8546 14 15.75V15.5H18.1818C18.8354 15.5 19.3564 15.5 19.777 15.4656C20.2082 15.4304 20.5776 15.3566 20.9166 15.1839C20.9447 15.1696 20.9725 15.1549 21 15.1397V16.8C21 17.7183 20.9996 18.377 20.9574 18.8938C20.9156 19.4049 20.8355 19.7331 20.7003 19.9984C20.4366 20.5159 20.0159 20.9366 19.4985 21.2002C19.2331 21.3355 18.9049 21.4156 18.3939 21.4574C17.877 21.4996 17.2183 21.5 16.3 21.5H7.7C6.78166 21.5 6.12298 21.4996 5.60612 21.4574C5.0951 21.4156 4.7669 21.3355 4.50153 21.2002C3.98408 20.9366 3.56338 20.5159 3.29973 19.9984C3.16452 19.7331 3.08437 19.4049 3.04262 18.8938C3.00039 18.377 3 17.7183 3 16.8ZM12 16.75C11.4477 16.75 11 16.3023 11 15.75V14.25C11 13.6977 11.4477 13.25 12 13.25C12.5523 13.25 13 13.6977 13 14.25V14.99L13 14.995L13 15V15.75C13 16.3023 12.5523 16.75 12 16.75Z" fill="#000"/>
</svg>
