<svg width="24" height="24" viewBox="0 0 24 24" fill="none" xmlns="http://www.w3.org/2000/svg">
<path opacity="0.4" d="M1.5 8H22.5V16.6C22.5 18.1401 22.5 18.9102 22.2003 19.4985C21.9366 20.0159 21.5159 20.4366 20.9985 20.7003C20.4102 21 19.6401 21 18.1 21H5.9C4.35986 21 3.58978 21 3.00153 20.7003C2.48408 20.4366 2.06338 20.0159 1.79973 19.4985C1.5 18.9102 1.5 18.1401 1.5 16.6V8Z" fill="#000"/>
<path d="M9.95357 11.7465C10.1488 11.9417 10.1488 12.2583 9.95357 12.4536L7.90712 14.5L9.95357 16.5465C10.1488 16.7417 10.1488 17.0583 9.95357 17.2536C9.7583 17.4489 9.44172 17.4489 9.24646 17.2536L6.84646 14.8536C6.6512 14.6583 6.6512 14.3417 6.84646 14.1465L9.24646 11.7465C9.44172 11.5512 9.7583 11.5512 9.95357 11.7465Z" fill="#000"/>
<path d="M14.7536 11.7465C14.5583 11.5512 14.2417 11.5512 14.0465 11.7465C13.8512 11.9417 13.8512 12.2583 14.0465 12.4536L16.0929 14.5L14.0465 16.5465C13.8512 16.7417 13.8512 17.0583 14.0465 17.2536C14.2417 17.4489 14.5583 17.4489 14.7536 17.2536L17.1536 14.8536C17.3488 14.6583 17.3488 14.3417 17.1536 14.1465L14.7536 11.7465Z" fill="#000"/>
<path fill-rule="evenodd" clip-rule="evenodd" d="M18.1221 2.50006H5.87794C5.12656 2.50006 4.53206 2.50005 4.05309 2.53919C3.5636 2.57918 3.15089 2.66252 2.77453 2.85429C2.163 3.16588 1.66582 3.66307 1.35423 4.27459C1.16246 4.65095 1.07912 5.06366 1.03913 5.55315C0.999994 6.03212 0.999997 6.62661 1 7.37799V16.6221C0.999997 17.3735 0.999994 17.968 1.03913 18.447C1.07912 18.9365 1.16246 19.3492 1.35423 19.7255C1.66582 20.3371 2.163 20.8342 2.77453 21.1458C3.15089 21.3376 3.5636 21.4209 4.05309 21.4609C4.53203 21.5001 5.12648 21.5001 5.87779 21.5001H18.1221C18.8734 21.5001 19.468 21.5001 19.9469 21.4609C20.4364 21.4209 20.8491 21.3376 21.2255 21.1458C21.837 20.8342 22.3342 20.3371 22.6458 19.7255C22.8375 19.3492 22.9209 18.9365 22.9609 18.447C23 17.968 23 17.3736 23 16.6223V7.37799C23 6.62668 23 6.03209 22.9609 5.55315C22.9209 5.06366 22.8375 4.65095 22.6458 4.27459C22.3342 3.66307 21.837 3.16588 21.2255 2.85429C20.8491 2.66252 20.4364 2.57918 19.9469 2.53919C19.4679 2.50005 18.8734 2.50006 18.1221 2.50006ZM22 7.50006V7.40006C22 6.62174 21.9996 6.06807 21.9642 5.63458C21.9293 5.20693 21.8627 4.94048 21.7548 4.72858C21.539 4.30522 21.1948 3.96101 20.7715 3.7453C20.5596 3.63733 20.2931 3.57081 19.8655 3.53587C19.432 3.50045 18.8783 3.50006 18.1 3.50006H5.9C5.12168 3.50006 4.56801 3.50045 4.13452 3.53587C3.70687 3.57081 3.44042 3.63733 3.22852 3.7453C2.80516 3.96101 2.46095 4.30522 2.24524 4.72858C2.13727 4.94048 2.07075 5.20693 2.03581 5.63458C2.00039 6.06807 2 6.62174 2 7.40006V7.50006H22ZM2 8.50006H22V16.6001C22 17.3784 21.9996 17.9321 21.9642 18.3655C21.9293 18.7932 21.8627 19.0596 21.7548 19.2715C21.539 19.6949 21.1948 20.0391 20.7715 20.2548C20.5596 20.3628 20.2931 20.4293 19.8655 20.4643C19.432 20.4997 18.8783 20.5001 18.1 20.5001H5.9C5.12168 20.5001 4.56801 20.4997 4.13452 20.4643C3.70687 20.4293 3.44042 20.3628 3.22852 20.2548C2.80516 20.0391 2.46095 19.6949 2.24524 19.2715C2.13727 19.0596 2.07075 18.7932 2.03581 18.3655C2.00039 17.9321 2 17.3784 2 16.6001V8.50006Z" fill="#000"/>
</svg>
