<svg width="24" height="24" viewBox="0 0 24 24" fill="none" xmlns="http://www.w3.org/2000/svg">
<path opacity="0.4" d="M1.5 8H22.5V16.6C22.5 18.1401 22.5 18.9102 22.2003 19.4985C21.9366 20.0159 21.5159 20.4366 20.9985 20.7003C20.4102 21 19.6401 21 18.1 21H5.9C4.35986 21 3.58978 21 3.00153 20.7003C2.48408 20.4366 2.06338 20.0159 1.79973 19.4985C1.5 18.9102 1.5 18.1401 1.5 16.6V8Z" fill="#000"/>
<path d="M7.64645 10.6464C7.84171 10.4512 8.15829 10.4512 8.35355 10.6464L11.3536 13.6464C11.5488 13.8417 11.5488 14.1583 11.3536 14.3536L8.35355 17.3536C8.15829 17.5488 7.84171 17.5488 7.64645 17.3536C7.45118 17.1583 7.45118 16.8417 7.64645 16.6464L10.2929 14L7.64645 11.3536C7.45118 11.1583 7.45118 10.8417 7.64645 10.6464Z" fill="#000"/>
<path d="M12 16.5C11.7239 16.5 11.5 16.7239 11.5 17C11.5 17.2761 11.7239 17.5 12 17.5H17C17.2761 17.5 17.5 17.2761 17.5 17C17.5 16.7239 17.2761 16.5 17 16.5H12Z" fill="#000"/>
<path fill-rule="evenodd" clip-rule="evenodd" d="M18.1221 2.5H5.87794C5.12656 2.5 4.53206 2.49999 4.05309 2.53913C3.5636 2.57912 3.15089 2.66246 2.77453 2.85423C2.163 3.16582 1.66582 3.663 1.35423 4.27453C1.16246 4.65089 1.07912 5.0636 1.03913 5.55309C0.999994 6.03206 0.999997 6.62655 1 7.37793V16.6221C0.999997 17.3734 0.999994 17.9679 1.03913 18.4469C1.07912 18.9364 1.16246 19.3491 1.35423 19.7255C1.66582 20.337 2.163 20.8342 2.77453 21.1458C3.15089 21.3375 3.5636 21.4209 4.05309 21.4609C4.53203 21.5 5.12648 21.5 5.87779 21.5H18.1221C18.8734 21.5 19.468 21.5 19.9469 21.4609C20.4364 21.4209 20.8491 21.3375 21.2255 21.1458C21.837 20.8342 22.3342 20.337 22.6458 19.7255C22.8375 19.3491 22.9209 18.9364 22.9609 18.4469C23 17.968 23 17.3735 23 16.6222V7.37793C23 6.62662 23 6.03203 22.9609 5.55309C22.9209 5.0636 22.8375 4.65089 22.6458 4.27453C22.3342 3.663 21.837 3.16582 21.2255 2.85423C20.8491 2.66246 20.4364 2.57912 19.9469 2.53913C19.4679 2.49999 18.8734 2.5 18.1221 2.5ZM22 7.5V7.4C22 6.62168 21.9996 6.06801 21.9642 5.63452C21.9293 5.20687 21.8627 4.94042 21.7548 4.72852C21.539 4.30516 21.1948 3.96095 20.7715 3.74524C20.5596 3.63727 20.2931 3.57075 19.8655 3.53581C19.432 3.50039 18.8783 3.5 18.1 3.5H5.9C5.12168 3.5 4.56801 3.50039 4.13452 3.53581C3.70687 3.57075 3.44042 3.63727 3.22852 3.74524C2.80516 3.96095 2.46095 4.30516 2.24524 4.72852C2.13727 4.94042 2.07075 5.20687 2.03581 5.63452C2.00039 6.06801 2 6.62168 2 7.4V7.5H22ZM2 8.5H22V16.6C22 17.3783 21.9996 17.932 21.9642 18.3655C21.9293 18.7931 21.8627 19.0596 21.7548 19.2715C21.539 19.6948 21.1948 20.039 20.7715 20.2548C20.5596 20.3627 20.2931 20.4293 19.8655 20.4642C19.432 20.4996 18.8783 20.5 18.1 20.5H5.9C5.12168 20.5 4.56801 20.4996 4.13452 20.4642C3.70687 20.4293 3.44042 20.3627 3.22852 20.2548C2.80516 20.039 2.46095 19.6948 2.24524 19.2715C2.13727 19.0596 2.07075 18.7931 2.03581 18.3655C2.00039 17.932 2 17.3783 2 16.6V8.5Z" fill="#000"/>
</svg>
