<svg width="24" height="24" viewBox="0 0 24 24" fill="none" xmlns="http://www.w3.org/2000/svg">
<path opacity="0.4" d="M9.5 22H4V6.8C4 5.11984 4 4.27976 4.32698 3.63803C4.6146 3.07354 5.07354 2.6146 5.63803 2.32698C6.27976 2 7.11984 2 8.8 2H15.2C16.8802 2 17.7202 2 18.362 2.32698C18.9265 2.6146 19.3854 3.07354 19.673 3.63803C20 4.27976 20 5.11984 20 6.8V22H14.5V17C14.5 16.4477 14.0523 16 13.5 16H10.5C9.94772 16 9.5 16.4477 9.5 17V22Z" fill="#000"/>
<path d="M15.5 10C15.5 10.2761 15.2761 10.5 15 10.5H14C13.7239 10.5 13.5 10.2761 13.5 10C13.5 9.72386 13.7239 9.5 14 9.5H15C15.2761 9.5 15.5 9.72386 15.5 10Z" fill="#000"/>
<path d="M15 7.5C15.2761 7.5 15.5 7.27614 15.5 7C15.5 6.72386 15.2761 6.5 15 6.5H14C13.7239 6.5 13.5 6.72386 13.5 7C13.5 7.27614 13.7239 7.5 14 7.5H15Z" fill="#000"/>
<path d="M15.5 13C15.5 13.2761 15.2761 13.5 15 13.5H14C13.7239 13.5 13.5 13.2761 13.5 13C13.5 12.7239 13.7239 12.5 14 12.5H15C15.2761 12.5 15.5 12.7239 15.5 13Z" fill="#000"/>
<path d="M10 10.5C10.2761 10.5 10.5 10.2761 10.5 10C10.5 9.72386 10.2761 9.5 10 9.5H9C8.72386 9.5 8.5 9.72386 8.5 10C8.5 10.2761 8.72386 10.5 9 10.5H10Z" fill="#000"/>
<path d="M10.5 7C10.5 7.27614 10.2761 7.5 10 7.5H9C8.72386 7.5 8.5 7.27614 8.5 7C8.5 6.72386 8.72386 6.5 9 6.5H10C10.2761 6.5 10.5 6.72386 10.5 7Z" fill="#000"/>
<path d="M10 13.5C10.2761 13.5 10.5 13.2761 10.5 13C10.5 12.7239 10.2761 12.5 10 12.5H9C8.72386 12.5 8.5 12.7239 8.5 13C8.5 13.2761 8.72386 13.5 9 13.5H10Z" fill="#000"/>
<path fill-rule="evenodd" clip-rule="evenodd" d="M8.77779 1.5H15.2222C16.0435 1.5 16.6905 1.49999 17.2111 1.54253C17.7423 1.58593 18.1859 1.67609 18.589 1.88148C19.2475 2.21703 19.783 2.75247 20.1185 3.41103C20.3239 3.81413 20.4141 4.25771 20.4575 4.78889C20.5 5.30954 20.5 5.95651 20.5 6.77778V21.5H22C22.2761 21.5 22.5 21.7239 22.5 22C22.5 22.2761 22.2761 22.5 22 22.5H2C1.72386 22.5 1.5 22.2761 1.5 22C1.5 21.7239 1.72386 21.5 2 21.5H3.5L3.5 6.77779C3.5 5.95652 3.49999 5.30955 3.54253 4.78889C3.58593 4.25771 3.67609 3.81413 3.88148 3.41103C4.21703 2.75247 4.75247 2.21703 5.41103 1.88148C5.81413 1.67609 6.25771 1.58593 6.78889 1.54253C7.30954 1.49999 7.95653 1.5 8.77779 1.5ZM4.5 21.5H9V17C9 16.1716 9.67157 15.5 10.5 15.5H13.5C14.3284 15.5 15 16.1716 15 17V21.5H19.5V6.8C19.5 5.95167 19.4996 5.34549 19.4608 4.87032C19.4224 4.40099 19.3491 4.10366 19.2275 3.86502C18.9878 3.39462 18.6054 3.01217 18.135 2.77248C17.8963 2.65089 17.599 2.57756 17.1297 2.53921C16.6545 2.50039 16.0483 2.5 15.2 2.5H8.8C7.95167 2.5 7.3455 2.50039 6.87032 2.53921C6.40099 2.57756 6.10366 2.65089 5.86502 2.77248C5.39462 3.01217 5.01217 3.39462 4.77248 3.86502C4.65089 4.10366 4.57756 4.40099 4.53921 4.87032C4.50039 5.34549 4.5 5.95167 4.5 6.8V21.5ZM14 21.5V17C14 16.7239 13.7761 16.5 13.5 16.5H10.5C10.2239 16.5 10 16.7239 10 17V21.5H14Z" fill="#000"/>
</svg>
