<svg width="24" height="24" viewBox="0 0 24 24" fill="none" xmlns="http://www.w3.org/2000/svg">
<path opacity="0.4" d="M5.8 22H6.5V17C6.5 16.4477 6.94772 16 7.5 16H10.5C11.0523 16 11.5 16.4477 11.5 17V22H12.2C13.1963 22 13.8972 22 14.4365 21.9318C13.8653 21.3605 13.5014 20.6146 13.5014 19.6645C13.5014 18.8435 13.501 17.9975 13.5007 17.1515C13.5003 16.3054 13.5 15.4594 13.5 14.6385C13.5 12.6876 15.224 11.6602 17 11.2375V6.8C17 5.11984 17 4.27976 16.673 3.63803C16.3854 3.07354 15.9265 2.6146 15.362 2.32698C14.7202 2 13.8802 2 12.2 2H5.8C4.11984 2 3.27976 2 2.63803 2.32698C2.07354 2.6146 1.6146 3.07354 1.32698 3.63803C1 4.27976 1 5.11984 1 6.8V17.2C1 18.8802 1 19.7202 1.32698 20.362C1.6146 20.9265 2.07354 21.3854 2.63803 21.673C3.27976 22 4.11984 22 5.8 22Z" fill="#000"/>
<path fill-rule="evenodd" clip-rule="evenodd" d="M5.77779 1.5C4.95653 1.5 4.30954 1.49999 3.78889 1.54253C3.25771 1.58593 2.81413 1.67609 2.41103 1.88148C1.75247 2.21703 1.21703 2.75247 0.881478 3.41103C0.676087 3.81413 0.585932 4.25771 0.542534 4.78889C0.499995 5.30954 0.499997 5.95651 0.5 6.77778V17.2222C0.499997 18.0435 0.499995 18.6905 0.542534 19.2111C0.585932 19.7423 0.676087 20.1859 0.881478 20.589C1.21703 21.2475 1.75247 21.783 2.41103 22.1185C2.81413 22.3239 3.25771 22.4141 3.78889 22.4575C4.30954 22.5 4.95652 22.5 5.77778 22.5H12.2222C13.0435 22.5 13.6905 22.5 14.2111 22.4575C14.4714 22.4362 14.7106 22.4037 14.9343 22.3519C14.587 22.1031 14.284 21.8095 14.0473 21.4671C13.5847 21.4997 13.0001 21.5 12.2 21.5H12V17C12 16.1716 11.3284 15.5 10.5 15.5H7.5C6.67157 15.5 6 16.1716 6 17V21.5H5.8C4.95167 21.5 4.34549 21.4996 3.87032 21.4608C3.40099 21.4224 3.10366 21.3491 2.86502 21.2275C2.39462 20.9878 2.01217 20.6054 1.77248 20.135C1.65089 19.8963 1.57756 19.599 1.53921 19.1297C1.50039 18.6545 1.5 18.0483 1.5 17.2V6.8C1.5 5.95167 1.50039 5.34549 1.53921 4.87032C1.57756 4.40099 1.65089 4.10366 1.77248 3.86502C2.01217 3.39462 2.39462 3.01217 2.86502 2.77248C3.10366 2.65089 3.40099 2.57756 3.87032 2.53921C4.34549 2.50039 4.95167 2.5 5.8 2.5H12.2C13.0483 2.5 13.6545 2.50039 14.1297 2.53921C14.599 2.57756 14.8963 2.65089 15.135 2.77248C15.6054 3.01217 15.9878 3.39462 16.2275 3.86502C16.3491 4.10366 16.4224 4.40099 16.4608 4.87032C16.4996 5.34549 16.5 5.95167 16.5 6.8V11.3736C16.8296 11.272 17.1667 11.1929 17.5 11.1342V6.77778C17.5 5.95651 17.5 5.30954 17.4575 4.78889C17.4141 4.25771 17.3239 3.81413 17.1185 3.41103C16.783 2.75247 16.2475 2.21703 15.589 1.88148C15.1859 1.67609 14.7423 1.58593 14.2111 1.54253C13.6905 1.49999 13.0435 1.5 12.2222 1.5H5.77779ZM7 21.5H11V17C11 16.7239 10.7761 16.5 10.5 16.5H7.5C7.22386 16.5 7 16.7239 7 17V21.5Z" fill="#000"/>
<path d="M12 10C12.2761 10 12.5 9.77614 12.5 9.5C12.5 9.22386 12.2761 9 12 9H11C10.7239 9 10.5 9.22386 10.5 9.5C10.5 9.77614 10.7239 10 11 10H12Z" fill="#000"/>
<path d="M12.5 6.5C12.5 6.77614 12.2761 7 12 7H11C10.7239 7 10.5 6.77614 10.5 6.5C10.5 6.22386 10.7239 6 11 6H12C12.2761 6 12.5 6.22386 12.5 6.5Z" fill="#000"/>
<path d="M12 13C12.2761 13 12.5 12.7761 12.5 12.5C12.5 12.2239 12.2761 12 12 12H11C10.7239 12 10.5 12.2239 10.5 12.5C10.5 12.7761 10.7239 13 11 13H12Z" fill="#000"/>
<path d="M7.5 9.5C7.5 9.77614 7.27614 10 7 10H6C5.72386 10 5.5 9.77614 5.5 9.5C5.5 9.22386 5.72386 9 6 9H7C7.27614 9 7.5 9.22386 7.5 9.5Z" fill="#000"/>
<path d="M7 7C7.27614 7 7.5 6.77614 7.5 6.5C7.5 6.22386 7.27614 6 7 6H6C5.72386 6 5.5 6.22386 5.5 6.5C5.5 6.77614 5.72386 7 6 7H7Z" fill="#000"/>
<path d="M7.5 12.5C7.5 12.7761 7.27614 13 7 13H6C5.72386 13 5.5 12.7761 5.5 12.5C5.5 12.2239 5.72386 12 6 12H7C7.27614 12 7.5 12.2239 7.5 12.5Z" fill="#000"/>
<path fill-rule="evenodd" clip-rule="evenodd" d="M23.5 14.5057C23.5 13.6612 22.8301 13.0304 22.0525 12.6405C21.2455 12.2358 20.1656 12 19 12C17.8344 12 16.7545 12.2358 15.9475 12.6405C15.1699 13.0304 14.5 13.6612 14.5 14.5057C14.5 15.1567 14.5004 16.2883 14.5008 17.3674C14.5011 18.3508 14.5015 19.2907 14.5015 19.7834C14.5015 20.7182 15.125 21.4107 15.9383 21.8427C16.7539 22.2759 17.8402 22.5003 19.001 22.5003C20.1617 22.5003 21.2481 22.2759 22.0636 21.8427C22.877 21.4107 23.5005 20.7182 23.5005 19.7834L23.5 14.5057ZM19 13C20.0436 13 20.9636 13.2132 21.6043 13.5344C22.2745 13.8705 22.5 14.2425 22.5 14.5057C22.5 14.7689 22.2745 15.141 21.6043 15.477C20.9636 15.7983 20.0436 16.0114 19 16.0114C17.9564 16.0114 17.0364 15.7983 16.3957 15.477C15.7255 15.141 15.5 14.7689 15.5 14.5057C15.5 14.2425 15.7255 13.8705 16.3957 13.5344C17.0364 13.2132 17.9564 13 19 13ZM15.5012 16.6972C15.5013 16.8929 15.5015 17.0886 15.5015 17.2843C15.5145 17.6969 15.7883 18.1007 16.407 18.4294C17.0389 18.7651 17.9524 18.9701 19.0005 18.9701C20.0486 18.9701 20.9621 18.7651 21.594 18.4294C22.2282 18.0925 22.5 17.6766 22.5 17.2532L22.4999 16.1095C21.4942 16.7939 20.193 17.0114 19 17.0114C17.8073 17.0114 16.5066 16.794 15.501 16.1101C15.501 16.3058 15.5011 16.5015 15.5012 16.6972ZM15.5015 19.7834V19.0409C16.4899 19.7613 17.8061 19.9701 19.0005 19.9701C20.1953 19.9701 21.5119 19.7612 22.5004 19.0402L22.5005 19.7834C22.5005 20.2068 22.2287 20.6227 21.5945 20.9596C20.9625 21.2953 20.0491 21.5003 19.001 21.5003C17.9529 21.5003 17.0394 21.2953 16.4074 20.9596C15.7733 20.6227 15.5015 20.2068 15.5015 19.7834Z" fill="#000"/>
</svg>
