<svg width="24" height="24" viewBox="0 0 24 24" fill="none" xmlns="http://www.w3.org/2000/svg">
<g opacity="0.4">
<path d="M12 1.50027C13.3046 1.50027 14.5536 1.73819 15.706 2.17299L14.3787 3.50027C13.8161 4.06288 13.5 4.82595 13.5 5.62159V7.75633C13.0308 7.59051 12.526 7.50027 12 7.50027C9.51472 7.50027 7.5 9.51499 7.5 12.0003C7.5 14.4856 9.51472 16.5003 12 16.5003C14.4853 16.5003 16.5 14.4856 16.5 12.0003C16.5 11.4743 16.4098 10.9694 16.2439 10.5003H18.3787C19.1743 10.5003 19.9374 10.1842 20.5 9.62159L21.8273 8.29431C22.2621 9.44672 22.5 10.6957 22.5 12.0003C22.5 17.7993 17.799 22.5003 12 22.5003C6.20101 22.5003 1.5 17.7993 1.5 12.0003C1.5 6.20128 6.20101 1.50027 12 1.50027Z" fill="#000"/>
<path d="M17.5732 2.42703L15.4393 4.56091C15.158 4.84221 15 5.22375 15 5.62157V9.00025H18.3787C18.7765 9.00025 19.158 8.84221 19.4393 8.56091L21.5732 6.42703C21.7307 6.26954 21.6192 6.00025 21.3964 6.00025H18V2.6038C18 2.38108 17.7307 2.26954 17.5732 2.42703Z" fill="#000"/>
</g>
<path d="M12 1.5C12.2761 1.5 12.5 1.72386 12.5 2C12.5 2.27614 12.2761 2.5 12 2.5C6.75329 2.5 2.5 6.75329 2.5 12C2.5 17.2467 6.75329 21.5 12 21.5C17.2467 21.5 21.5 17.2467 21.5 12C21.5 11.7239 21.7239 11.5 22 11.5C22.2761 11.5 22.5 11.7239 22.5 12C22.5 17.799 17.799 22.5 12 22.5C6.20101 22.5 1.5 17.799 1.5 12C1.5 6.20101 6.20101 1.5 12 1.5Z" fill="#000"/>
<path d="M10.9004 6.60958C11.1711 6.55465 11.435 6.7295 11.4899 7.00012C11.5449 7.27074 11.37 7.53466 11.0994 7.58959C9.04557 8.00649 7.49991 9.82309 7.49991 11.9996C7.49991 14.4848 9.51463 16.4996 11.9999 16.4996C14.1764 16.4996 15.993 14.9539 16.4099 12.9001C16.4648 12.6295 16.7287 12.4546 16.9994 12.5096C17.27 12.5645 17.4448 12.8284 17.3899 13.099C16.8803 15.6097 14.6613 17.4996 11.9999 17.4996C8.96235 17.4996 6.49991 15.0371 6.49991 11.9996C6.49991 9.33813 8.38977 7.11922 10.9004 6.60958Z" fill="#000"/>
<path fill-rule="evenodd" clip-rule="evenodd" d="M15.2071 9.5H18.3787C18.9091 9.5 19.4178 9.28929 19.7929 8.91421L21.9268 6.78033C22.3993 6.30786 22.0646 5.5 21.3964 5.5H18.5V2.60355C18.5 1.93537 17.6921 1.60075 17.2197 2.07322L15.0858 4.20711C14.7107 4.58218 14.5 5.09089 14.5 5.62132V8.79289L11.6464 11.6464C11.4512 11.8417 11.4512 12.1583 11.6464 12.3536C11.8417 12.5488 12.1583 12.5488 12.3536 12.3536L15.2071 9.5ZM17.5 5.79289V3.20711L15.7929 4.91421C15.6054 5.10175 15.5 5.3561 15.5 5.62132V7.79289L17.5 5.79289ZM16.2071 8.5L18.2071 6.5H20.7929L19.0858 8.20711C18.8983 8.39464 18.6439 8.5 18.3787 8.5H16.2071Z" fill="#000"/>
</svg>
