<svg width="24" height="24" viewBox="0 0 24 24" fill="none" xmlns="http://www.w3.org/2000/svg">
<path opacity="0.4" d="M21 17.2V6.8C21 5.11984 21 4.27976 20.673 3.63803C20.3854 3.07354 19.9265 2.6146 19.362 2.32698C18.7202 2 17.8802 2 16.2 2H7.8C6.11984 2 5.27976 2 4.63803 2.32698C4.07354 2.6146 3.6146 3.07354 3.32698 3.63803C3 4.27976 3 5.11984 3 6.8V17.2C3 18.8802 3 19.7202 3.32698 20.362C3.6146 20.9265 4.07354 21.3854 4.63803 21.673C5.27976 22 6.11984 22 7.8 22H16.2C17.8802 22 18.7202 22 19.362 21.673C19.9265 21.3854 20.3854 20.9265 20.673 20.362C21 19.7202 21 18.8802 21 17.2Z" fill="#000"/>
<path d="M9.25 6C9.52614 6 9.75 6.22386 9.75 6.5V7.5H14.25V6.5C14.25 6.22386 14.4739 6 14.75 6C15.0261 6 15.25 6.22386 15.25 6.5V7.5C15.25 8.05228 14.8023 8.5 14.25 8.5H9.75C9.19771 8.5 8.75 8.05228 8.75 7.5V6.5C8.75 6.22386 8.97386 6 9.25 6Z" fill="#000"/>
<path d="M9.75 16C9.75 15.7239 9.52614 15.5 9.25 15.5C8.97386 15.5 8.75 15.7239 8.75 16V17C8.75 17.5523 9.19771 18 9.75 18H14.25C14.8023 18 15.25 17.5523 15.25 17V16C15.25 15.7239 15.0261 15.5 14.75 15.5C14.4739 15.5 14.25 15.7239 14.25 16V17H9.75V16Z" fill="#000"/>
<path fill-rule="evenodd" clip-rule="evenodd" d="M16.2222 1.5H7.77779C6.95653 1.5 6.30954 1.49999 5.78889 1.54253C5.25771 1.58593 4.81413 1.67609 4.41103 1.88148C3.75247 2.21703 3.21703 2.75247 2.88148 3.41103C2.67609 3.81413 2.58593 4.25771 2.54253 4.78889C2.49999 5.30954 2.5 5.95652 2.5 6.77779V17.2222C2.5 18.0435 2.49999 18.6905 2.54253 19.2111C2.58593 19.7423 2.67609 20.1859 2.88148 20.589C3.21703 21.2475 3.75247 21.783 4.41103 22.1185C4.81413 22.3239 5.25771 22.4141 5.78889 22.4575C6.30957 22.5 6.95657 22.5 7.77789 22.5H16.2221C17.0434 22.5 17.6904 22.5 18.2111 22.4575C18.7423 22.4141 19.1859 22.3239 19.589 22.1185C20.2475 21.783 20.783 21.2475 21.1185 20.589C21.3239 20.1859 21.4141 19.7423 21.4575 19.2111C21.5 18.6905 21.5 18.0435 21.5 17.2222V6.77778C21.5 5.95651 21.5 5.30954 21.4575 4.78889C21.4141 4.25771 21.3239 3.81413 21.1185 3.41103C20.783 2.75247 20.2475 2.21703 19.589 1.88148C19.1859 1.67609 18.7423 1.58593 18.2111 1.54253C17.6905 1.49999 17.0435 1.5 16.2222 1.5ZM20.5 11.5V6.8C20.5 5.95167 20.4996 5.34549 20.4608 4.87032C20.4224 4.40099 20.3491 4.10366 20.2275 3.86502C19.9878 3.39462 19.6054 3.01217 19.135 2.77248C18.8963 2.65089 18.599 2.57756 18.1297 2.53921C17.6545 2.50039 17.0483 2.5 16.2 2.5H7.8C6.95167 2.5 6.34549 2.50039 5.87032 2.53921C5.40099 2.57756 5.10366 2.65089 4.86502 2.77248C4.39462 3.01217 4.01217 3.39462 3.77248 3.86502C3.65089 4.10366 3.57756 4.40099 3.53921 4.87032C3.50039 5.34549 3.5 5.95167 3.5 6.8V11.5H20.5ZM3.5 12.5H20.5V17.2C20.5 18.0483 20.4996 18.6545 20.4608 19.1297C20.4224 19.599 20.3491 19.8963 20.2275 20.135C19.9878 20.6054 19.6054 20.9878 19.135 21.2275C18.8963 21.3491 18.599 21.4224 18.1297 21.4608C17.6545 21.4996 17.0483 21.5 16.2 21.5H7.8C6.95167 21.5 6.34549 21.4996 5.87032 21.4608C5.40099 21.4224 5.10366 21.3491 4.86502 21.2275C4.39462 20.9878 4.01217 20.6054 3.77248 20.135C3.65089 19.8963 3.57756 19.599 3.53921 19.1297C3.50039 18.6545 3.5 18.0483 3.5 17.2V12.5Z" fill="#000"/>
</svg>
