<svg width="24" height="24" viewBox="0 0 24 24" fill="none" xmlns="http://www.w3.org/2000/svg">
<path opacity="0.4" d="M2 7.6V16.4C2 18.3602 2 19.3403 2.38148 20.089C2.71703 20.7475 3.25247 21.283 3.91103 21.6185C4.65972 22 5.63982 22 7.6 22H12V12H22V7.6C22 5.63982 22 4.65972 21.6185 3.91103C21.283 3.25247 20.7475 2.71703 20.089 2.38148C19.3403 2 18.3602 2 16.4 2H7.6C5.63982 2 4.65972 2 3.91103 2.38148C3.25247 2.71703 2.71703 3.25247 2.38148 3.91103C2 4.65972 2 5.63982 2 7.6Z" fill="#000"/>
<path d="M8.85355 15.1464C9.04882 15.3417 9.04882 15.6583 8.85355 15.8536L7.70711 17L8.85355 18.1464C9.04882 18.3417 9.04882 18.6583 8.85355 18.8536C8.65829 19.0488 8.34171 19.0488 8.14645 18.8536L7 17.7071L5.85355 18.8536C5.65829 19.0488 5.34171 19.0488 5.14645 18.8536C4.95118 18.6583 4.95118 18.3417 5.14645 18.1464L6.29289 17L5.14645 15.8536C4.95118 15.6583 4.95118 15.3417 5.14645 15.1464C5.34171 14.9512 5.65829 14.9512 5.85355 15.1464L7 16.2929L8.14645 15.1464C8.34171 14.9512 8.65829 14.9512 8.85355 15.1464Z" fill="#000"/>
<path d="M9 7.5C9.27614 7.5 9.5 7.27614 9.5 7C9.5 6.72386 9.27614 6.5 9 6.5H5C4.72386 6.5 4.5 6.72386 4.5 7C4.5 7.27614 4.72386 7.5 5 7.5H9Z" fill="#000"/>
<path d="M19 16.25C19.2761 16.25 19.5 16.0261 19.5 15.75C19.5 15.4739 19.2761 15.25 19 15.25H15C14.7239 15.25 14.5 15.4739 14.5 15.75C14.5 16.0261 14.7239 16.25 15 16.25H19Z" fill="#000"/>
<path d="M19.5 18.25C19.5 18.5261 19.2761 18.75 19 18.75H15C14.7239 18.75 14.5 18.5261 14.5 18.25C14.5 17.9739 14.7239 17.75 15 17.75H19C19.2761 17.75 19.5 17.9739 19.5 18.25Z" fill="#000"/>
<path d="M17 9.5C16.7239 9.5 16.5 9.27614 16.5 9V7.5H15C14.7239 7.5 14.5 7.27614 14.5 7C14.5 6.72386 14.7239 6.5 15 6.5H16.5V5C16.5 4.72386 16.7239 4.5 17 4.5C17.2761 4.5 17.5 4.72386 17.5 5V6.5H19C19.2761 6.5 19.5 6.72386 19.5 7C19.5 7.27614 19.2761 7.5 19 7.5H17.5V9C17.5 9.27614 17.2761 9.5 17 9.5Z" fill="#000"/>
<path fill-rule="evenodd" clip-rule="evenodd" d="M7.57755 1.5C6.61647 1.5 5.86451 1.49999 5.26049 1.54935C4.64594 1.59956 4.14062 1.70334 3.68404 1.93597C2.93139 2.31947 2.31947 2.93139 1.93597 3.68404C1.70334 4.14062 1.59956 4.64594 1.54935 5.26049C1.49999 5.86451 1.5 6.61646 1.5 7.57755V16.4224C1.5 17.3835 1.49999 18.1355 1.54935 18.7395C1.59956 19.3541 1.70334 19.8594 1.93597 20.316C2.31947 21.0686 2.93139 21.6805 3.68404 22.064C4.14062 22.2967 4.64594 22.4004 5.26049 22.4507C5.86451 22.5 6.61646 22.5 7.57754 22.5H16.4225C17.3835 22.5 18.1355 22.5 18.7395 22.4507C19.3541 22.4004 19.8594 22.2967 20.316 22.064C21.0686 21.6805 21.6805 21.0686 22.064 20.316C22.2967 19.8594 22.4004 19.3541 22.4507 18.7395C22.5 18.1355 22.5 17.3835 22.5 16.4225V7.57754C22.5 6.61646 22.5 5.86451 22.4507 5.26049C22.4004 4.64594 22.2967 4.14062 22.064 3.68404C21.6805 2.93139 21.0686 2.31947 20.316 1.93597C19.8594 1.70334 19.3541 1.59956 18.7395 1.54935C18.1355 1.49999 17.3835 1.5 16.4225 1.5H7.57755ZM2.5 16.4V12.5H11.5V21.5H7.6C6.61166 21.5 5.90047 21.4996 5.34192 21.454C4.78921 21.4088 4.43014 21.3219 4.13803 21.173C3.57354 20.8854 3.1146 20.4265 2.82698 19.862C2.67814 19.5699 2.59118 19.2108 2.54602 18.6581C2.50039 18.0995 2.5 17.3883 2.5 16.4ZM2.5 11.5H11.5V2.5H7.6C6.61166 2.5 5.90047 2.50039 5.34192 2.54602C4.78921 2.59118 4.43014 2.67814 4.13803 2.82698C3.57354 3.1146 3.1146 3.57354 2.82698 4.13803C2.67814 4.43014 2.59118 4.78921 2.54602 5.34192C2.50039 5.90047 2.5 6.61166 2.5 7.6V11.5ZM16.4 21.5H12.5V12.5H21.5V16.4C21.5 17.3883 21.4996 18.0995 21.454 18.6581C21.4088 19.2108 21.3219 19.5699 21.173 19.862C20.8854 20.4265 20.4265 20.8854 19.862 21.173C19.5699 21.3219 19.2108 21.4088 18.6581 21.454C18.0995 21.4996 17.3883 21.5 16.4 21.5ZM21.5 11.5V7.6C21.5 6.61166 21.4996 5.90047 21.454 5.34192C21.4088 4.78921 21.3219 4.43014 21.173 4.13803C20.8854 3.57354 20.4265 3.1146 19.862 2.82698C19.5699 2.67814 19.2108 2.59118 18.6581 2.54602C18.0995 2.50039 17.3883 2.5 16.4 2.5H12.5V11.5H21.5Z" fill="#000"/>
</svg>
