<svg width="24" height="24" viewBox="0 0 24 24" fill="none" xmlns="http://www.w3.org/2000/svg">
<path opacity="0.4" fill-rule="evenodd" clip-rule="evenodd" d="M2 9.4C2 9.13825 2 8.89179 2.0007 8.65925C2.00086 8.60358 2.00095 8.57574 2.01187 8.55441C2.02147 8.53568 2.03679 8.5204 2.05555 8.51086C2.07691 8.5 2.10479 8.5 2.16055 8.5H21.8394C21.8952 8.5 21.9231 8.5 21.9444 8.51086C21.9632 8.5204 21.9785 8.53568 21.9881 8.55441C21.9991 8.57574 21.9991 8.60358 21.9993 8.65925C22 8.89179 22 9.13825 22 9.4V16.6C22 18.8402 22 19.9603 21.564 20.816C21.1805 21.5686 20.5686 22.1805 19.816 22.564C18.9603 23 17.8402 23 15.6 23H8.4C6.15979 23 5.03969 23 4.18404 22.564C3.43139 22.1805 2.81947 21.5686 2.43597 20.816C2 19.9603 2 18.8402 2 16.6V9.4ZM14 14C13.4477 14 13 14.4477 13 15V18C13 18.5523 13.4477 19 14 19H17C17.5523 19 18 18.5523 18 18V15C18 14.4477 17.5523 14 17 14H14Z" fill="#000"/>
<path fill-rule="evenodd" clip-rule="evenodd" d="M14 13.5C13.1716 13.5 12.5 14.1716 12.5 15V18C12.5 18.8284 13.1716 19.5 14 19.5H17C17.8284 19.5 18.5 18.8284 18.5 18V15C18.5 14.1716 17.8284 13.5 17 13.5H14ZM13.5 15C13.5 14.7239 13.7239 14.5 14 14.5H17C17.2761 14.5 17.5 14.7239 17.5 15V18C17.5 18.2761 17.2761 18.5 17 18.5H14C13.7239 18.5 13.5 18.2761 13.5 18V15Z" fill="#000"/>
<path fill-rule="evenodd" clip-rule="evenodd" d="M8 0.5C8.27614 0.5 8.5 0.723858 8.5 1V2.5H15.5V1C15.5 0.723858 15.7239 0.5 16 0.5C16.2761 0.5 16.5 0.723858 16.5 1V2.5C17.4241 2.50003 18.1518 2.50133 18.7395 2.54935C19.3541 2.59956 19.8594 2.70334 20.316 2.93597C21.0686 3.31947 21.6805 3.93139 22.064 4.68404C22.2967 5.14062 22.4004 5.64594 22.4507 6.26049C22.5 6.86451 22.5 7.61646 22.5 8.57754V17.4225C22.5 18.3835 22.5 19.1355 22.4507 19.7395C22.4004 20.3541 22.2967 20.8594 22.064 21.316C21.6805 22.0686 21.0686 22.6805 20.316 23.064C19.8594 23.2967 19.3541 23.4004 18.7395 23.4507C18.1355 23.5 17.3835 23.5 16.4225 23.5H7.57754C6.61646 23.5 5.86451 23.5 5.26049 23.4507C4.64594 23.4004 4.14062 23.2967 3.68404 23.064C2.93139 22.6805 2.31947 22.0686 1.93597 21.316C1.70334 20.8594 1.59956 20.3541 1.54935 19.7395C1.49999 19.1355 1.5 18.3835 1.5 17.4224V8.57756C1.5 7.61647 1.5 6.86451 1.54935 6.26049C1.59956 5.64594 1.70334 5.14062 1.93597 4.68404C2.31947 3.93139 2.93139 3.31947 3.68404 2.93597C4.14062 2.70334 4.64594 2.59956 5.26049 2.54935C5.84817 2.50133 6.57588 2.50003 7.5 2.5V1C7.5 0.723858 7.72386 0.5 8 0.5ZM7.6 3.5C6.61166 3.5 5.90047 3.50039 5.34192 3.54602C4.78921 3.59118 4.43014 3.67814 4.13803 3.82698C3.57354 4.1146 3.1146 4.57354 2.82698 5.13803C2.67814 5.43014 2.59118 5.78921 2.54602 6.34192C2.5102 6.78044 2.50226 7.31305 2.5005 8H21.4995C21.4977 7.31305 21.4898 6.78044 21.454 6.34192C21.4088 5.78921 21.3219 5.43014 21.173 5.13803C20.8854 4.57354 20.4265 4.1146 19.862 3.82698C19.5699 3.67814 19.2108 3.59118 18.6581 3.54602C18.0995 3.50039 17.3883 3.5 16.4 3.5H7.6ZM2.5 17.4V9H21.5V17.4C21.5 18.3883 21.4996 19.0995 21.454 19.6581C21.4088 20.2108 21.3219 20.5699 21.173 20.862C20.8854 21.4265 20.4265 21.8854 19.862 22.173C19.5699 22.3219 19.2108 22.4088 18.6581 22.454C18.0995 22.4996 17.3883 22.5 16.4 22.5H7.6C6.61166 22.5 5.90047 22.4996 5.34192 22.454C4.78921 22.4088 4.43014 22.3219 4.13803 22.173C3.57354 21.8854 3.1146 21.4265 2.82698 20.862C2.67814 20.5699 2.59118 20.2108 2.54602 19.6581C2.50039 19.0995 2.5 18.3883 2.5 17.4Z" fill="#000"/>
</svg>
