<svg width="24" height="24" viewBox="0 0 24 24" fill="none" xmlns="http://www.w3.org/2000/svg">
<path opacity="0.4" d="M2.1 8.5C2.1 8.5 2.1 8.5 2.1 8.5C2.04478 8.5 2 8.54478 2 8.6C2 8.6 2 8.6 2 8.6V17.4C2 19.3602 2 20.3403 2.38148 21.089C2.71703 21.7475 3.25247 22.283 3.91103 22.6185C4.65972 23 5.63982 23 7.6 23H16.4C18.3602 23 19.3403 23 20.089 22.6185C20.7475 22.283 21.283 21.7475 21.6185 21.089C22 20.3403 22 19.3602 22 17.4V8.6C22 8.6 22 8.6 22 8.6C22 8.54477 21.9552 8.5 21.9 8.5C21.9 8.5 21.9 8.5 21.9 8.5H2.1Z" fill="#000"/>
<path d="M15.8536 13.6036C16.0488 13.4083 16.0488 13.0917 15.8536 12.8964C15.6583 12.7012 15.3417 12.7012 15.1464 12.8964L11 17.0429L8.85355 14.8964C8.65829 14.7012 8.34171 14.7012 8.14645 14.8964C7.95118 15.0917 7.95118 15.4083 8.14645 15.6036L10.6464 18.1036C10.8417 18.2988 11.1583 18.2988 11.3536 18.1036L15.8536 13.6036Z" fill="#000"/>
<path fill-rule="evenodd" clip-rule="evenodd" d="M8 0.5C8.27614 0.5 8.5 0.723858 8.5 1V2.5H15.5V1C15.5 0.723858 15.7239 0.5 16 0.5C16.2761 0.5 16.5 0.723858 16.5 1V2.5C17.4241 2.50003 18.1518 2.50133 18.7395 2.54935C19.3541 2.59956 19.8594 2.70334 20.316 2.93597C21.0686 3.31947 21.6805 3.93139 22.064 4.68404C22.2967 5.14062 22.4004 5.64594 22.4507 6.26049C22.5 6.86451 22.5 7.61646 22.5 8.57754V17.4225C22.5 18.3835 22.5 19.1355 22.4507 19.7395C22.4004 20.3541 22.2967 20.8594 22.064 21.316C21.6805 22.0686 21.0686 22.6805 20.316 23.064C19.8594 23.2967 19.3541 23.4004 18.7395 23.4507C18.1355 23.5 17.3835 23.5 16.4225 23.5H7.57754C6.61646 23.5 5.86451 23.5 5.26049 23.4507C4.64594 23.4004 4.14062 23.2967 3.68404 23.064C2.93139 22.6805 2.31947 22.0686 1.93597 21.316C1.70334 20.8594 1.59956 20.3541 1.54935 19.7395C1.49999 19.1355 1.5 18.3835 1.5 17.4224V8.57756C1.5 7.61647 1.5 6.86451 1.54935 6.26049C1.59956 5.64594 1.70334 5.14062 1.93597 4.68404C2.31947 3.93139 2.93139 3.31947 3.68404 2.93597C4.14062 2.70334 4.64594 2.59956 5.26049 2.54935C5.84817 2.50133 6.57588 2.50003 7.5 2.5V1C7.5 0.723858 7.72386 0.5 8 0.5ZM7.6 3.5C6.61166 3.5 5.90047 3.50039 5.34192 3.54602C4.78921 3.59118 4.43014 3.67814 4.13803 3.82698C3.57354 4.1146 3.1146 4.57354 2.82698 5.13803C2.67814 5.43014 2.59118 5.78921 2.54602 6.34192C2.5102 6.78044 2.50226 7.31305 2.5005 8H21.4995C21.4977 7.31305 21.4898 6.78044 21.454 6.34192C21.4088 5.78921 21.3219 5.43014 21.173 5.13803C20.8854 4.57354 20.4265 4.1146 19.862 3.82698C19.5699 3.67814 19.2108 3.59118 18.6581 3.54602C18.0995 3.50039 17.3883 3.5 16.4 3.5H7.6ZM2.5 17.4V9H21.5V17.4C21.5 18.3883 21.4996 19.0995 21.454 19.6581C21.4088 20.2108 21.3219 20.5699 21.173 20.862C20.8854 21.4265 20.4265 21.8854 19.862 22.173C19.5699 22.3219 19.2108 22.4088 18.6581 22.454C18.0995 22.4996 17.3883 22.5 16.4 22.5H7.6C6.61166 22.5 5.90047 22.4996 5.34192 22.454C4.78921 22.4088 4.43014 22.3219 4.13803 22.173C3.57354 21.8854 3.1146 21.4265 2.82698 20.862C2.67814 20.5699 2.59118 20.2108 2.54602 19.6581C2.50039 19.0995 2.5 18.3883 2.5 17.4Z" fill="#000"/>
</svg>
