<svg width="24" height="24" viewBox="0 0 24 24" fill="none" xmlns="http://www.w3.org/2000/svg">
<path opacity="0.4" fill-rule="evenodd" clip-rule="evenodd" d="M8.55298 3.15021L7.28138 4.9998H7.1C5.13982 4.9998 4.15972 4.9998 3.41103 5.38128C2.75247 5.71684 2.21703 6.25227 1.88148 6.91084C1.5 7.65953 1.5 8.63962 1.5 10.5998V15.3998C1.5 17.36 1.5 18.3401 1.88148 19.0888C2.21703 19.7473 2.75247 20.2828 3.41103 20.6183C4.15972 20.9998 5.13982 20.9998 7.1 20.9998H16.9C18.8602 20.9998 19.8403 20.9998 20.589 20.6183C21.2475 20.2828 21.783 19.7473 22.1185 19.0888C22.5 18.3401 22.5 17.36 22.5 15.3998V10.5998C22.5 8.63962 22.5 7.65953 22.1185 6.91084C21.783 6.25227 21.2475 5.71684 20.589 5.38128C19.8403 4.9998 18.8602 4.9998 16.9 4.9998H16.7186L15.447 3.15021C15.1672 2.74318 14.7049 2.5 14.211 2.5H9.78905C9.2951 2.5 8.83282 2.74317 8.55298 3.15021ZM12 17C9.79086 17 8 15.2091 8 13C8 10.7909 9.79086 9 12 9C14.2091 9 16 10.7909 16 13C16 15.2091 14.2091 17 12 17Z" fill="#000"/>
<path fill-rule="evenodd" clip-rule="evenodd" d="M12 8.5C14.4853 8.5 16.5 10.5147 16.5 13C16.5 15.4853 14.4853 17.5 12 17.5C9.51472 17.5 7.5 15.4853 7.5 13C7.5 10.5147 9.51472 8.5 12 8.5ZM15.5 13C15.5 11.067 13.933 9.5 12 9.5C10.067 9.5 8.5 11.067 8.5 13C8.5 14.933 10.067 16.5 12 16.5C13.933 16.5 15.5 14.933 15.5 13Z" fill="#000"/>
<path fill-rule="evenodd" clip-rule="evenodd" d="M9.78905 2C9.13045 2 8.51407 2.32423 8.14096 2.86694L7.01837 4.4998C6.08552 4.49982 5.35206 4.50082 4.76049 4.54915C4.14594 4.59936 3.64062 4.70314 3.18404 4.93578C2.43139 5.31927 1.81947 5.93119 1.43597 6.68384C1.20334 7.14042 1.09956 7.64574 1.04935 8.2603C0.999995 8.86432 0.999997 9.61627 1 10.5774V15.4222C0.999997 16.3833 0.999995 17.1353 1.04935 17.7393C1.09956 18.3539 1.20334 18.8592 1.43597 19.3158C1.81947 20.0684 2.43139 20.6803 3.18404 21.0638C3.64062 21.2965 4.14594 21.4002 4.76049 21.4505C5.36451 21.4998 6.11646 21.4998 7.07754 21.4998H16.9225C17.8835 21.4998 18.6355 21.4998 19.2395 21.4505C19.8541 21.4002 20.3594 21.2965 20.816 21.0638C21.5686 20.6803 22.1805 20.0684 22.564 19.3158C22.7967 18.8592 22.9004 18.3539 22.9507 17.7393C23 17.1353 23 16.3833 23 15.4223V10.5773C23 9.61626 23 8.86431 22.9507 8.2603C22.9004 7.64574 22.7967 7.14042 22.564 6.68384C22.1805 5.93119 21.5686 5.31927 20.816 4.93578C20.3594 4.70314 19.8541 4.59936 19.2395 4.54915C18.6479 4.50082 17.9145 4.49982 16.9816 4.4998L15.859 2.86694C15.4859 2.32423 14.8695 2 14.211 2H9.78905ZM8.965 3.43347C9.15156 3.16212 9.45975 3 9.78905 3H14.211C14.5403 3 14.8484 3.16212 15.035 3.43347L16.3066 5.28307C16.3999 5.41875 16.554 5.4998 16.7186 5.4998H16.9C17.8883 5.4998 18.5995 5.50019 19.1581 5.54583C19.7108 5.59099 20.0699 5.67795 20.362 5.82679C20.9265 6.11441 21.3854 6.57335 21.673 7.13783C21.8219 7.42994 21.9088 7.78902 21.954 8.34173C21.9996 8.90028 22 9.61146 22 10.5998V15.3998C22 16.3881 21.9996 17.0993 21.954 17.6579C21.9088 18.2106 21.8219 18.5697 21.673 18.8618C21.3854 19.4263 20.9265 19.8852 20.362 20.1728C20.0699 20.3217 19.7108 20.4086 19.1581 20.4538C18.5995 20.4994 17.8883 20.4998 16.9 20.4998H7.1C6.11166 20.4998 5.40047 20.4994 4.84192 20.4538C4.28921 20.4086 3.93014 20.3217 3.63803 20.1728C3.07354 19.8852 2.6146 19.4263 2.32698 18.8618C2.17814 18.5697 2.09118 18.2106 2.04602 17.6579C2.00039 17.0993 2 16.3881 2 15.3998V10.5998C2 9.61146 2.00039 8.90028 2.04602 8.34173C2.09118 7.78902 2.17814 7.42994 2.32698 7.13783C2.6146 6.57335 3.07354 6.11441 3.63803 5.82679C3.93014 5.67795 4.28921 5.59099 4.84192 5.54583C5.40047 5.50019 6.11166 5.4998 7.1 5.4998H7.28138C7.44603 5.4998 7.60013 5.41875 7.69341 5.28307L8.965 3.43347Z" fill="#000"/>
</svg>
