<svg width="24" height="24" viewBox="0 0 24 24" fill="none" xmlns="http://www.w3.org/2000/svg">
<g opacity="0.4">
<path d="M5.03151 5.03151C4.32848 5.07245 3.833 5.16628 3.41103 5.38128C2.75247 5.71684 2.21703 6.25227 1.88148 6.91084C1.5 7.65953 1.5 8.63962 1.5 10.5998V15.3998C1.5 17.36 1.5 18.3401 1.88148 19.0888C2.21703 19.7473 2.75247 20.2828 3.41103 20.6183C4.15972 20.9998 5.13982 20.9998 7.1 20.9998H16.9C18.8602 20.9998 19.8403 20.9998 20.589 20.6183C20.5954 20.615 20.6019 20.6117 20.6084 20.6084L15.2841 15.2841C14.5614 16.3213 13.36 17 12 17C9.79086 17 8 15.2091 8 13C8 11.64 8.6787 10.4386 9.71586 9.71586L5.03151 5.03151Z" fill="#000"/>
<path d="M15.9724 13.4724C15.9906 13.3175 16 13.1598 16 13C16 10.7909 14.2091 9 12 9C11.8402 9 11.6825 9.00937 11.5276 9.0276L7.37037 4.87037L8.55298 3.15021C8.83282 2.74317 9.2951 2.5 9.78905 2.5H14.211C14.7049 2.5 15.1672 2.74318 15.447 3.15021L16.7186 4.9998H16.9C18.8602 4.9998 19.8403 4.9998 20.589 5.38128C21.2475 5.71684 21.783 6.25227 22.1185 6.91084C22.5 7.65953 22.5 8.63962 22.5 10.5998V15.3998C22.5 17.36 22.5 18.3401 22.1185 19.0888C22.0596 19.2044 21.9946 19.3162 21.9238 19.4238L15.9724 13.4724Z" fill="#000"/>
</g>
<path fill-rule="evenodd" clip-rule="evenodd" d="M2.35355 1.64645C2.15829 1.45118 1.84171 1.45118 1.64645 1.64645C1.45118 1.84171 1.45118 2.15829 1.64645 2.35355L3.95687 4.66398C3.67974 4.72605 3.4251 4.81295 3.18404 4.93578C2.43139 5.31927 1.81947 5.93119 1.43597 6.68384C1.20334 7.14042 1.09956 7.64574 1.04935 8.2603C0.999995 8.86432 0.999997 9.61626 1 10.5774V15.4222C0.999997 16.3833 0.999995 17.1353 1.04935 17.7393C1.09956 18.3539 1.20334 18.8592 1.43597 19.3158C1.81947 20.0684 2.43139 20.6803 3.18404 21.0638C3.64062 21.2965 4.14594 21.4002 4.76049 21.4505C5.36451 21.4998 6.11646 21.4998 7.07754 21.4998H16.9225C17.8835 21.4998 18.6355 21.4998 19.2395 21.4505C19.7143 21.4117 20.124 21.3409 20.4963 21.2034L21.6464 22.3536C21.8417 22.5488 22.1583 22.5488 22.3536 22.3536C22.5488 22.1583 22.5488 21.8417 22.3536 21.6464L2.35355 1.64645ZM19.6815 20.3886L15.3251 16.0322C14.5021 16.9341 13.3172 17.5 12 17.5C9.51472 17.5 7.5 15.4853 7.5 13C7.5 11.6828 8.06589 10.4979 8.96782 9.67492L4.83896 5.54607C4.28793 5.5913 3.92962 5.67821 3.63803 5.82679C3.07354 6.11441 2.6146 6.57335 2.32698 7.13783C2.17814 7.42994 2.09118 7.78902 2.04602 8.34173C2.00039 8.90028 2 9.61146 2 10.5998V15.3998C2 16.3881 2.00039 17.0993 2.04602 17.6579C2.09118 18.2106 2.17814 18.5697 2.32698 18.8618C2.6146 19.4263 3.07354 19.8852 3.63803 20.1728C3.93014 20.3217 4.28921 20.4086 4.84192 20.4538C5.40047 20.4994 6.11166 20.4998 7.1 20.4998H16.9C17.8883 20.4998 18.5995 20.4994 19.1581 20.4538C19.3553 20.4377 19.5278 20.4162 19.6815 20.3886ZM9.67588 10.383C8.95449 11.0241 8.5 11.959 8.5 13C8.5 14.933 10.067 16.5 12 16.5C13.041 16.5 13.9759 16.0455 14.617 15.3241L9.67588 10.383Z" fill="#000"/>
<path d="M11.0917 8.59171L12 9.5C13.933 9.5 15.5 11.067 15.5 13L16.4083 13.9083C16.4684 13.6149 16.5 13.3111 16.5 13C16.5 10.5147 14.4853 8.5 12 8.5C11.6889 8.5 11.3851 8.53158 11.0917 8.59171Z" fill="#000"/>
<path d="M21.673 18.8618C21.6383 18.9299 21.6011 18.9965 21.5615 19.0615L22.2838 19.7838C22.3873 19.635 22.481 19.4787 22.564 19.3158C22.7967 18.8592 22.9004 18.3539 22.9507 17.7393C23 17.1353 23 16.3833 23 15.4223V10.5773C23 9.61626 23 8.86431 22.9507 8.2603C22.9004 7.64574 22.7967 7.14042 22.564 6.68384C22.1805 5.93119 21.5686 5.31927 20.816 4.93578C20.3594 4.70314 19.8541 4.59936 19.2395 4.54915C18.6479 4.50082 17.9145 4.49982 16.9816 4.4998L15.859 2.86694C15.4859 2.32423 14.8695 2 14.211 2H9.78905C9.13045 2 8.51407 2.32423 8.14096 2.86694L7.01837 4.4998L6.99981 4.49981L7.72994 5.22994L8.965 3.43347C9.15156 3.16212 9.45975 3 9.78905 3H14.211C14.5403 3 14.8484 3.16212 15.035 3.43347L16.3066 5.28307C16.3999 5.41875 16.554 5.4998 16.7186 5.4998H16.9C17.8883 5.4998 18.5995 5.50019 19.1581 5.54583C19.7108 5.59099 20.0699 5.67795 20.362 5.82679C20.9265 6.11441 21.3854 6.57335 21.673 7.13783C21.8219 7.42994 21.9088 7.78902 21.954 8.34173C21.9996 8.90028 22 9.61146 22 10.5998V15.3998C22 16.3881 21.9996 17.0993 21.954 17.6579C21.9088 18.2106 21.8219 18.5697 21.673 18.8618Z" fill="#000"/>
</svg>
