<svg width="24" height="24" viewBox="0 0 24 24" fill="none" xmlns="http://www.w3.org/2000/svg">
<path opacity="0.4" d="M5.6 9.5H18.4C19.6601 9.5 20.2902 9.5 20.7715 9.74524C21.1948 9.96095 21.539 10.3052 21.7548 10.7285C22 11.2098 22 11.8399 22 13.1V13.9C22 15.1601 22 15.7902 21.7548 16.2715C21.539 16.6948 21.1948 17.039 20.7715 17.2548C20.2962 17.4969 19.6758 17.5 18.4469 17.5H19.4005C20.1007 17.5 20.6063 17.5 21 17.4579V19.7501C21 20.1643 20.6642 20.5001 20.25 20.5001H18.75C18.3358 20.5001 18 20.1643 18 19.7501V17.5H6V19.7501C6 20.1643 5.66421 20.5001 5.25 20.5001H3.75C3.33579 20.5001 3 20.1643 3 19.7501V17.4578C3.39383 17.5 3.89974 17.5 4.60049 17.5H5.55311C4.32418 17.5 3.70382 17.4969 3.22852 17.2548C2.80516 17.039 2.46095 16.6948 2.24524 16.2715C2 15.7902 2 15.1601 2 13.9V13.1C2 11.8399 2 11.2098 2.24524 10.7285C2.46095 10.3052 2.80516 9.96095 3.22852 9.74524C3.70982 9.5 4.33988 9.5 5.6 9.5Z" fill="#000"/>
<path d="M10 13C9.72386 13 9.5 13.2239 9.5 13.5C9.5 13.7761 9.72386 14 10 14H14C14.2761 14 14.5 13.7761 14.5 13.5C14.5 13.2239 14.2761 13 14 13H10Z" fill="#000"/>
<path d="M5.25 13.5C5.25 13.0858 5.58579 12.75 6 12.75C6.41421 12.75 6.7501 13.0858 6.7501 13.5C6.7501 13.9142 6.41431 14.25 6.0001 14.25C5.58589 14.25 5.25 13.9142 5.25 13.5Z" fill="#000"/>
<path d="M18 12.75C17.5858 12.75 17.25 13.0858 17.25 13.5C17.25 13.9142 17.5858 14.25 18 14.25C18.4142 14.25 18.7501 13.9142 18.7501 13.5C18.7501 13.0858 18.4142 12.75 18 12.75Z" fill="#000"/>
<path fill-rule="evenodd" clip-rule="evenodd" d="M8.2757 2.99999C7.34281 2.9997 6.73445 2.99951 6.20389 3.20818C5.73651 3.392 5.32275 3.69021 5.00057 4.07548C4.63483 4.51283 4.44263 5.09003 4.14791 5.97513L3.97297 6.5H2C1.72386 6.5 1.5 6.72386 1.5 7C1.5 7.27614 1.72386 7.5 2 7.5H3.63964L3.04725 9.27715C3.03195 9.28447 3.01671 9.292 3.00153 9.29973C2.48408 9.56338 2.06338 9.98408 1.79973 10.5015C1.63521 10.8244 1.5655 11.1754 1.53232 11.5815C1.49999 11.9771 1.5 12.4666 1.5 13.0783V13.9217C1.5 14.5334 1.49999 15.0229 1.53232 15.4185C1.5655 15.8246 1.63521 16.1756 1.79973 16.4985C1.97314 16.8388 2.21449 17.1373 2.50661 17.3768C2.50224 17.4034 2.5 17.4305 2.5 17.4578V19.75C2.5 20.4404 3.05964 21 3.75 21H5.25C5.94036 21 6.5 20.4404 6.5 19.75V18H17.5V19.75C17.5 20.4404 18.0596 21 18.75 21H20.25C20.9404 21 21.5 20.4404 21.5 19.75V17.4579C21.5 17.4305 21.4978 17.4034 21.4934 17.3768C21.7855 17.1373 22.0269 16.8388 22.2003 16.4985C22.3648 16.1756 22.4345 15.8246 22.4677 15.4185C22.5 15.023 22.5 14.5335 22.5 13.9219V13.0783C22.5 12.4668 22.5 11.977 22.4677 11.5815C22.4345 11.1754 22.3648 10.8244 22.2003 10.5015C21.9366 9.98408 21.5159 9.56338 20.9985 9.29973C20.9833 9.292 20.9681 9.28448 20.9528 9.27717L20.3604 7.5H22C22.2761 7.5 22.5 7.27614 22.5 7C22.5 6.72386 22.2761 6.5 22 6.5H20.0271L19.8521 5.97512C19.5574 5.09005 19.3652 4.51282 18.9995 4.07548C18.6773 3.69021 18.2635 3.392 17.7961 3.20818C17.2656 2.99951 16.6572 2.9997 15.7243 2.99999H8.2757ZM6.5699 4.13879C6.90139 4.00842 7.30366 4.00001 8.38305 4.00001H15.617C16.6964 4.00001 17.0986 4.00842 17.4301 4.13879C17.7417 4.26134 18.0176 4.46015 18.2323 4.71699C18.4609 4.99024 18.596 5.36922 18.9374 6.39321L19.8064 9.00025C19.6799 8.9999 19.5472 8.9999 19.408 8.9999H4.59262C4.45335 8.9999 4.32008 8.9999 4.19365 9.00025L5.06266 6.39322C5.40399 5.36922 5.53918 4.99024 5.76768 4.71699C5.98247 4.46015 6.25831 4.26134 6.5699 4.13879ZM5.6 17C4.96169 17 4.51303 16.9996 4.16292 16.971C3.81865 16.9429 3.61393 16.89 3.45552 16.8093C3.12623 16.6415 2.85852 16.3738 2.69074 16.0445C2.61002 15.8861 2.55712 15.6814 2.52899 15.3371C2.50039 14.987 2.5 14.5383 2.5 13.9V13.1C2.5 12.4617 2.50039 12.013 2.52899 11.6629C2.55712 11.3186 2.61002 11.1139 2.69074 10.9555C2.85852 10.6262 3.12623 10.3585 3.45552 10.1907C3.61393 10.11 3.81865 10.0571 4.16292 10.029C4.51303 10.0004 4.96169 10 5.6 10H18.4C19.0383 10 19.487 10.0004 19.8371 10.029C20.1814 10.0571 20.3861 10.11 20.5445 10.1907C20.8738 10.3585 21.1415 10.6262 21.3093 10.9555C21.39 11.1139 21.4429 11.3186 21.471 11.6629C21.4996 12.013 21.5 12.4617 21.5 13.1V13.9C21.5 14.5383 21.4996 14.987 21.471 15.3371C21.4429 15.6814 21.39 15.8861 21.3093 16.0445C21.1415 16.3738 20.8738 16.6415 20.5445 16.8093C20.3861 16.89 20.1814 16.9429 19.8371 16.971C19.487 16.9996 19.0383 17 18.4 17H5.6ZM3.5 19.75V17.9901C3.80911 18 4.16311 18 4.57059 18H5.5V19.75C5.5 19.8881 5.38807 20 5.25 20H3.75C3.61193 20 3.5 19.8881 3.5 19.75ZM18.5 18H19.4303C19.8374 18 20.1911 18 20.5 17.9901V19.75C20.5 19.8881 20.3881 20 20.25 20H18.75C18.6119 20 18.5 19.8881 18.5 19.75V18Z" fill="#000"/>
</svg>
