<svg width="24" height="24" viewBox="0 0 24 24" fill="none" xmlns="http://www.w3.org/2000/svg">
<path opacity="0.4" fill-rule="evenodd" clip-rule="evenodd" d="M12 23C18.0751 23 23 18.0751 23 12C23 5.92487 18.0751 1 12 1C5.92487 1 1 5.92487 1 12C1 18.0751 5.92487 23 12 23ZM11.741 16.7131L15.558 12.7426C15.9568 12.3278 15.9568 11.6722 15.558 11.2574L11.741 7.28692C11.1615 6.68412 10.1429 7.09433 10.1429 7.9305V16.0695C10.1429 16.9057 11.1615 17.3159 11.741 16.7131Z" fill="#000"/>
<path fill-rule="evenodd" clip-rule="evenodd" d="M15.9185 13.0891C16.5033 12.4808 16.5033 11.5192 15.9185 10.9109L12.1014 6.94044C11.2099 6.01307 9.64291 6.64414 9.64291 7.93053V16.0695C9.64291 17.3559 11.2099 17.987 12.1014 17.0596L15.9185 13.0891ZM15.1976 11.604C15.4102 11.8252 15.4102 12.1749 15.1976 12.3961L11.3805 16.3666C11.1131 16.6448 10.6429 16.4555 10.6429 16.0695V7.93053C10.6429 7.54457 11.1131 7.35524 11.3805 7.63347L15.1976 11.604Z" fill="#000"/>
<path fill-rule="evenodd" clip-rule="evenodd" d="M12 0.5C5.64873 0.5 0.5 5.64873 0.5 12C0.5 18.3513 5.64873 23.5 12 23.5C18.3513 23.5 23.5 18.3513 23.5 12C23.5 5.64873 18.3513 0.5 12 0.5ZM1.5 12C1.5 6.20101 6.20101 1.5 12 1.5C17.799 1.5 22.5 6.20101 22.5 12C22.5 17.799 17.799 22.5 12 22.5C6.20101 22.5 1.5 17.799 1.5 12Z" fill="#000"/>
</svg>
