<svg width="24" height="24" viewBox="0 0 24 24" fill="none" xmlns="http://www.w3.org/2000/svg">
<path opacity="0.4" fill-rule="evenodd" clip-rule="evenodd" d="M22 9.2V14.8C22 17.3202 22 18.5804 21.5095 19.543C21.0781 20.3897 20.3897 21.0781 19.543 21.5095C18.5804 22 17.3202 22 14.8 22H9.2C6.67976 22 5.41965 22 4.45704 21.5095C3.61031 21.0781 2.9219 20.3897 2.49047 19.543C2 18.5804 2 17.3202 2 14.8V9.2C2 6.67976 2 5.41965 2.49047 4.45704C2.9219 3.61031 3.61031 2.9219 4.45704 2.49047C5.41965 2 6.67976 2 9.2 2H14.8C17.3202 2 18.5804 2 19.543 2.49047C20.3897 2.9219 21.0781 3.61031 21.5095 4.45704C22 5.41964 22 6.67978 22 9.2ZM11.741 16.7131L15.558 12.7426C15.9568 12.3278 15.9568 11.6722 15.558 11.2574L11.741 7.28692C11.1615 6.68412 10.1429 7.09433 10.1429 7.9305V16.0695C10.1429 16.9057 11.1615 17.3159 11.741 16.7131Z" fill="#000"/>
<path fill-rule="evenodd" clip-rule="evenodd" d="M15.9185 13.0891C16.5033 12.4808 16.5033 11.5192 15.9185 10.9109L12.1014 6.94044C11.2099 6.01307 9.64291 6.64414 9.64291 7.93053V16.0695C9.64291 17.3559 11.2099 17.987 12.1014 17.0596L15.9185 13.0891ZM15.1976 11.604C15.4102 11.8252 15.4102 12.1749 15.1976 12.3961L11.3805 16.3666C11.1131 16.6448 10.6429 16.4555 10.6429 16.0695V7.93053C10.6429 7.54457 11.1131 7.35524 11.3805 7.63347L15.1976 11.604Z" fill="#000"/>
<path fill-rule="evenodd" clip-rule="evenodd" d="M15.6226 1.5H8.37737C7.27641 1.5 6.41948 1.5 5.73209 1.55616C5.03416 1.61318 4.4671 1.73058 3.95704 1.99047C3.11031 2.4219 2.4219 3.11031 1.99047 3.95704C1.73058 4.4671 1.61318 5.03416 1.55616 5.73209C1.5 6.41948 1.5 7.2764 1.5 8.37735V15.6226C1.5 16.7236 1.5 17.5805 1.55616 18.2679C1.61318 18.9658 1.73058 19.5329 1.99047 20.043C2.4219 20.8897 3.11031 21.5781 3.95704 22.0095C4.4671 22.2694 5.03416 22.3868 5.73209 22.4438C6.4195 22.5 7.27645 22.5 8.37744 22.5H15.6225C16.7235 22.5 17.5805 22.5 18.2679 22.4438C18.9658 22.3868 19.5329 22.2694 20.043 22.0095C20.8897 21.5781 21.5781 20.8897 22.0095 20.043C22.2694 19.5329 22.3868 18.9658 22.4438 18.2679C22.5 17.5805 22.5 16.7236 22.5 15.6227V8.37736C22.5 7.27642 22.5 6.41947 22.4438 5.73209C22.3868 5.03416 22.2694 4.4671 22.0095 3.95704C21.5781 3.11031 20.8897 2.4219 20.043 1.99047C19.5329 1.73058 18.9658 1.61318 18.2679 1.55616C17.5805 1.5 16.7236 1.5 15.6226 1.5ZM4.41103 2.88148C4.75662 2.70539 5.17744 2.60481 5.81352 2.55284C6.45545 2.50039 7.27164 2.5 8.4 2.5H15.6C16.7284 2.5 17.5446 2.50039 18.1865 2.55284C18.8226 2.60481 19.2434 2.70539 19.589 2.88148C20.2475 3.21703 20.783 3.75247 21.1185 4.41103C21.2946 4.75662 21.3952 5.17744 21.4472 5.81352C21.4996 6.45545 21.5 7.27164 21.5 8.4V15.6C21.5 16.7284 21.4996 17.5446 21.4472 18.1865C21.3952 18.8226 21.2946 19.2434 21.1185 19.589C20.783 20.2475 20.2475 20.783 19.589 21.1185C19.2434 21.2946 18.8226 21.3952 18.1865 21.4472C17.5446 21.4996 16.7284 21.5 15.6 21.5H8.4C7.27164 21.5 6.45545 21.4996 5.81352 21.4472C5.17744 21.3952 4.75662 21.2946 4.41103 21.1185C3.75247 20.783 3.21703 20.2475 2.88148 19.589C2.70539 19.2434 2.60481 18.8226 2.55284 18.1865C2.50039 17.5446 2.5 16.7284 2.5 15.6V8.4C2.5 7.27164 2.50039 6.45545 2.55284 5.81352C2.60481 5.17744 2.70539 4.75662 2.88148 4.41103C3.21703 3.75247 3.75247 3.21703 4.41103 2.88148Z" fill="#000"/>
</svg>
