<svg width="24" height="24" viewBox="0 0 24 24" fill="none" xmlns="http://www.w3.org/2000/svg">
<path opacity="0.4" d="M16.5801 10.961L11.2367 5.40264C10.4254 4.55878 8.99951 5.13302 8.99951 6.30359L8.99951 17.6974C8.99951 18.868 10.4254 19.4423 11.2367 18.5984L16.5801 13.0401C17.1383 12.4594 17.1383 11.5416 16.5801 10.961Z" fill="#000"/>
<path fill-rule="evenodd" clip-rule="evenodd" d="M16.9406 13.3864C17.6849 12.6122 17.6849 11.3884 16.9406 10.6142L11.5971 5.05591C10.4739 3.88748 8.49951 4.68259 8.49951 6.30338L8.49951 17.6972C8.49951 19.318 10.4739 20.1131 11.5971 18.9447L16.9406 13.3864ZM16.2197 11.3073C16.5918 11.6944 16.5918 12.3062 16.2197 12.6933L10.8762 18.2517C10.377 18.771 9.49951 18.4176 9.49951 17.6972V6.30338C9.49951 5.58303 10.377 5.22965 10.8762 5.74895L16.2197 11.3073Z" fill="#000"/>
</svg>
