<svg width="24" height="24" viewBox="0 0 24 24" fill="none" xmlns="http://www.w3.org/2000/svg">
<g opacity="0.4">
<path d="M7.5 19C8.32843 19 9 19.6716 9 20.5C9 21.3284 8.32843 22 7.5 22C6.67157 22 6 21.3284 6 20.5C6 19.6716 6.67157 19 7.5 19Z" fill="#000"/>
<path d="M20.0039 4.5C20.5959 4.5 21.0585 5.0116 20.999 5.60059L20.4551 10.9805C19.6975 10.6712 18.8688 10.5 18 10.5C14.9266 10.5 12.3531 12.6335 11.6758 15.5H7.00781C6.00264 15.5 5.15363 14.7537 5.02441 13.7568L3.82422 4.5H20.0039Z" fill="#000"/>
</g>
<path fill-rule="evenodd" clip-rule="evenodd" d="M4.16504 3.24316C4.03582 2.24633 3.18682 1.5 2.18164 1.5H1C0.723858 1.5 0.5 1.72386 0.5 2C0.5 2.27614 0.723858 2.5 1 2.5H2.18164C2.68412 2.5 3.10908 2.87283 3.17383 3.37109L4.52832 13.8213C4.58627 14.2683 4.76151 14.674 5.01855 15.0117C3.88465 15.1276 3 16.0855 3 17.25C3 18.4926 4.00736 19.5 5.25 19.5H5.76953C5.59906 19.7944 5.5 20.1354 5.5 20.5C5.5 21.6046 6.39543 22.5 7.5 22.5C8.60457 22.5 9.5 21.6046 9.5 20.5C9.5 20.1354 9.40094 19.7944 9.23047 19.5H11.999C11.8651 19.1789 11.7572 18.8447 11.6758 18.5H5.25C4.55964 18.5 4 17.9404 4 17.25C4 16.5596 4.55964 16 5.25 16H11.5771C11.6301 15.657 11.7101 15.3231 11.8145 15H7.00781C6.25393 15 5.61645 14.44 5.51953 13.6924L4.39355 5H20.0039C20.2998 5 20.5314 5.25549 20.502 5.5498L19.9707 10.8047C20.3049 10.9109 20.6272 11.0438 20.9355 11.2002L21.4961 5.65039C21.5851 4.76698 20.8918 4 20.0039 4H4.26367L4.16504 3.24316ZM6.5 20.5C6.5 19.9477 6.94772 19.5 7.5 19.5C8.05228 19.5 8.5 19.9477 8.5 20.5C8.5 21.0523 8.05228 21.5 7.5 21.5C6.94772 21.5 6.5 21.0523 6.5 20.5Z" fill="#000"/>
<path d="M19.8535 15.8536C20.0488 15.6583 20.0488 15.3417 19.8535 15.1464C19.6582 14.9512 19.3417 14.9512 19.1464 15.1464L18 16.2928L16.8535 15.1464C16.6583 14.9511 16.3417 14.9511 16.1464 15.1464C15.9512 15.3417 15.9512 15.6582 16.1465 15.8535L17.2929 16.9999L16.1464 18.1464C15.9511 18.3417 15.9511 18.6583 16.1464 18.8536C16.3417 19.0488 16.6582 19.0488 16.8535 18.8536L18 17.707L19.1465 18.8535C19.3418 19.0488 19.6584 19.0488 19.8536 18.8535C20.0489 18.6582 20.0489 18.3416 19.8536 18.1464L18.7071 16.9999L19.8535 15.8536Z" fill="#000"/>
<path fill-rule="evenodd" clip-rule="evenodd" d="M18 11.5C14.9624 11.5 12.5 13.9624 12.5 17C12.5 20.0376 14.9624 22.5 18 22.5C21.0376 22.5 23.5 20.0376 23.5 17C23.5 13.9624 21.0376 11.5 18 11.5ZM13.5 17C13.5 14.5147 15.5147 12.5 18 12.5C20.4853 12.5 22.5 14.5147 22.5 17C22.5 19.4853 20.4853 21.5 18 21.5C15.5147 21.5 13.5 19.4853 13.5 17Z" fill="#000"/>
</svg>
