<svg width="24" height="24" viewBox="0 0 24 24" fill="none" xmlns="http://www.w3.org/2000/svg">
<g opacity="0.4">
<path d="M7.5 19C8.32843 19 9 19.6716 9 20.5C9 21.3284 8.32843 22 7.5 22C6.67157 22 6 21.3284 6 20.5C6 19.6716 6.67157 19 7.5 19Z" fill="#000"/>
<path d="M20.0039 4.5C20.5959 4.5 21.0585 5.0116 20.999 5.60059L20.4551 10.9805C19.6975 10.6712 18.8688 10.5 18 10.5C14.9266 10.5 12.3531 12.6335 11.6758 15.5H7.00781C6.00264 15.5 5.15363 14.7537 5.02441 13.7568L3.82422 4.5H20.0039Z" fill="#000"/>
</g>
<path fill-rule="evenodd" clip-rule="evenodd" d="M2.18164 1.5C3.18682 1.5 4.03582 2.24633 4.16504 3.24316L4.26367 4H20.0039C20.8918 4 21.5851 4.76698 21.4961 5.65039L20.9355 11.2002C20.6272 11.0438 20.3049 10.9109 19.9707 10.8047L20.502 5.5498C20.5314 5.25549 20.2998 5 20.0039 5H4.39355L5.51953 13.6924C5.61645 14.44 6.25393 15 7.00781 15H11.8145C11.7101 15.3231 11.6301 15.657 11.5771 16H5.25C4.55964 16 4 16.5596 4 17.25C4 17.9404 4.55964 18.5 5.25 18.5H11.6758C11.7572 18.8447 11.8651 19.1789 11.999 19.5H9.23047C9.40094 19.7944 9.5 20.1354 9.5 20.5C9.5 21.6046 8.60457 22.5 7.5 22.5C6.39543 22.5 5.5 21.6046 5.5 20.5C5.5 20.1354 5.59906 19.7944 5.76953 19.5H5.25C4.00736 19.5 3 18.4926 3 17.25C3 16.0855 3.88465 15.1276 5.01855 15.0117C4.76151 14.674 4.58627 14.2683 4.52832 13.8213L3.17383 3.37109C3.10908 2.87283 2.68412 2.5 2.18164 2.5H1C0.723858 2.5 0.5 2.27614 0.5 2C0.5 1.72386 0.723858 1.5 1 1.5H2.18164ZM7.5 19.5C6.94772 19.5 6.5 19.9477 6.5 20.5C6.5 21.0523 6.94772 21.5 7.5 21.5C8.05228 21.5 8.5 21.0523 8.5 20.5C8.5 19.9477 8.05228 19.5 7.5 19.5Z" fill="#000"/>
<path d="M20 17.5C20.2761 17.5 20.5 17.2761 20.5 17C20.5 16.7239 20.2761 16.5 20 16.5H16C15.7239 16.5 15.5 16.7239 15.5 17C15.5 17.2761 15.7239 17.5 16 17.5H20Z" fill="#000"/>
<path fill-rule="evenodd" clip-rule="evenodd" d="M12.5 17C12.5 13.9624 14.9624 11.5 18 11.5C21.0376 11.5 23.5 13.9624 23.5 17C23.5 20.0376 21.0376 22.5 18 22.5C14.9624 22.5 12.5 20.0376 12.5 17ZM18 12.5C15.5147 12.5 13.5 14.5147 13.5 17C13.5 19.4853 15.5147 21.5 18 21.5C20.4853 21.5 22.5 19.4853 22.5 17C22.5 14.5147 20.4853 12.5 18 12.5Z" fill="#000"/>
</svg>
