<svg width="24" height="24" viewBox="0 0 24 24" fill="none" xmlns="http://www.w3.org/2000/svg">
<g opacity="0.4">
<path d="M2 1.5C1.72386 1.5 1.5 1.72386 1.5 2C1.5 2.27614 1.72386 2.5 2 2.5H3.18189C3.68448 2.5 4.10899 2.87303 4.1736 3.37145L5.52822 13.8214C5.68974 15.0674 6.751 16 8.00747 16H18.717C20.2686 16 21.5642 14.8168 21.7046 13.2716L22.4979 4.54527C22.5107 4.40536 22.4639 4.26656 22.3692 4.16283C22.2745 4.0591 22.1405 4 22 4H5.26344L5.1653 3.24289C5.03608 2.24606 4.18707 1.5 3.18189 1.5H2Z" fill="#000"/>
<path d="M8.5 22C9.32843 22 10 21.3284 10 20.5C10 19.6716 9.32843 19 8.5 19C7.67157 19 7 19.6716 7 20.5C7 21.3284 7.67157 22 8.5 22Z" fill="#000"/>
<path d="M20 20.5C20 21.3284 19.3284 22 18.5 22C17.6716 22 17 21.3284 17 20.5C17 19.6716 17.6716 19 18.5 19C19.3284 19 20 19.6716 20 20.5Z" fill="#000"/>
</g>
<path fill-rule="evenodd" clip-rule="evenodd" d="M2 1.5C1.72386 1.5 1.5 1.72386 1.5 2C1.5 2.27614 1.72386 2.5 2 2.5H3.18189C3.68448 2.5 4.10899 2.87303 4.1736 3.37145L5.52822 13.8214C5.58612 14.268 5.75963 14.6744 6.01629 15.012C4.88347 15.1289 4 16.0863 4 17.25C4 18.4926 5.00736 19.5 6.25 19.5H6.76756C6.59739 19.7942 6.5 20.1357 6.5 20.5C6.5 21.6046 7.39543 22.5 8.5 22.5C9.60457 22.5 10.5 21.6046 10.5 20.5C10.5 20.1357 10.4026 19.7942 10.2324 19.5H16.7676C16.5974 19.7942 16.5 20.1357 16.5 20.5C16.5 21.6046 17.3954 22.5 18.5 22.5C19.6046 22.5 20.5 21.6046 20.5 20.5C20.5 20.1357 20.4026 19.7942 20.2324 19.5H21C21.2761 19.5 21.5 19.2761 21.5 19C21.5 18.7239 21.2761 18.5 21 18.5H6.25C5.55964 18.5 5 17.9404 5 17.25C5 16.5596 5.55964 16 6.25 16H18.717C20.2686 16 21.5642 14.8168 21.7046 13.2716L22.4979 4.54527C22.5229 4.27026 22.3203 4.02705 22.0453 4.00205C21.7703 3.97705 21.5271 4.17972 21.5021 4.45473L20.7087 13.1811C20.6151 14.2112 19.7514 15 18.717 15H8.00747C7.25359 15 6.61684 14.4405 6.51992 13.6928L5.1653 3.24289C5.03608 2.24606 4.18707 1.5 3.18189 1.5H2ZM18.5 19.5C17.9477 19.5 17.5 19.9477 17.5 20.5C17.5 21.0523 17.9477 21.5 18.5 21.5C19.0523 21.5 19.5 21.0523 19.5 20.5C19.5 19.9477 19.0523 19.5 18.5 19.5ZM7.5 20.5C7.5 19.9477 7.94772 19.5 8.5 19.5C9.05228 19.5 9.5 19.9477 9.5 20.5C9.5 21.0523 9.05228 21.5 8.5 21.5C7.94772 21.5 7.5 21.0523 7.5 20.5Z" fill="#000"/>
<path d="M13.5 5.5C13.7761 5.5 14 5.72386 14 6V11.7929L16.1464 9.64645C16.3417 9.45118 16.6583 9.45118 16.8536 9.64645C17.0488 9.84171 17.0488 10.1583 16.8536 10.3536L13.8536 13.3536C13.7598 13.4473 13.6326 13.5 13.5 13.5C13.3674 13.5 13.2402 13.4473 13.1464 13.3536L10.1464 10.3536C9.95118 10.1583 9.95118 9.84171 10.1464 9.64645C10.3417 9.45118 10.6583 9.45118 10.8536 9.64645L13 11.7929V6C13 5.72386 13.2239 5.5 13.5 5.5Z" fill="#000"/>
</svg>
