<svg width="24" height="24" viewBox="0 0 24 24" fill="none" xmlns="http://www.w3.org/2000/svg">
<path opacity="0.4" d="M11 3.5C5.75329 3.5 1.5 7.75329 1.5 13C1.5 18.2467 5.75329 22.5 11 22.5C16.2467 22.5 20.4999 18.2468 20.5 13.0001H11.5C11.4963 13.0001 11.4926 13.0001 11.4889 13H11V3.5Z" fill="#000"/>
<path fill-rule="evenodd" clip-rule="evenodd" d="M11.5217 1.01118C10.9481 0.986625 10.5 1.45304 10.5 2.00004V3.01216C5.20944 3.27268 1 7.64469 1 12.9999C1 18.5227 5.47715 22.9999 11 22.9999C16.3551 22.9999 20.7271 18.7905 20.9877 13.5H22C22.547 13.5 23.0134 13.052 22.9889 12.4783C22.7229 6.26572 17.7343 1.27713 11.5217 1.01118ZM20.5127 12.5C20.5085 12.4999 20.5042 12.4999 20.5 12.4999C20.4958 12.4999 20.4915 12.4999 20.4873 12.5H11.5V2.01119C17.1771 2.26497 21.7351 6.82291 21.9888 12.5H20.5127ZM10.5 4.01353V12.5C10.5 13.0523 10.9477 13.5 11.5 13.5H19.9863C19.7268 18.238 15.8027 21.9999 11 21.9999C6.02944 21.9999 2 17.9704 2 12.9999C2 8.19709 5.76201 4.27297 10.5 4.01353Z" fill="#000"/>
</svg>
