<svg width="24" height="24" viewBox="0 0 24 24" fill="none" xmlns="http://www.w3.org/2000/svg">
<path opacity="0.4" d="M2 12.7658V8.4C2 6.15979 2 5.03969 2.43597 4.18404C2.81947 3.43139 3.43139 2.81947 4.18404 2.43597C5.03969 2 6.15979 2 8.4 2H15.6C17.8402 2 18.9603 2 19.816 2.43597C20.5686 2.81947 21.1805 3.43139 21.564 4.18404C22 5.03969 22 6.15979 22 8.4V12.7658C22 14.8497 22 15.8917 21.6212 16.699C21.2246 17.5445 20.5445 18.2246 19.699 18.6212C18.8917 19 17.8497 19 15.7658 19C15.3239 19 15.1029 19 14.9017 19.0573C14.6901 19.1174 14.4944 19.2234 14.3284 19.3677C14.1704 19.5049 14.0497 19.6899 13.8081 20.06L13.3398 20.7774C12.893 21.4619 12.6697 21.8041 12.3867 21.9227C12.1393 22.0264 11.8607 22.0264 11.6133 21.9227C11.3303 21.8041 11.107 21.4619 10.6602 20.7774L10.1919 20.06C9.95034 19.6899 9.82957 19.5049 9.67162 19.3677C9.50559 19.2234 9.30986 19.1174 9.09831 19.0573C8.89707 19 8.67611 19 8.23421 19C6.15026 19 5.10828 19 4.301 18.6212C3.45549 18.2246 2.77545 17.5445 2.37876 16.699C2 15.8917 2 14.8497 2 12.7658Z" fill="#000"/>
<path d="M15 11C15.2761 11 15.5 10.7761 15.5 10.5C15.5 10.2239 15.2761 10 15 10H9C8.72386 10 8.5 10.2239 8.5 10.5C8.5 10.7761 8.72386 11 9 11H15Z" fill="#000"/>
<path fill-rule="evenodd" clip-rule="evenodd" d="M15.6226 1.5H8.37737C7.27642 1.5 6.41948 1.5 5.73209 1.55616C5.03416 1.61318 4.4671 1.73058 3.95704 1.99047C3.11031 2.4219 2.4219 3.11031 1.99047 3.95704C1.73058 4.4671 1.61318 5.03416 1.55616 5.73209C1.5 6.41948 1.5 7.27641 1.5 8.37737V12.7868C1.5 13.811 1.5 14.6082 1.54879 15.2491C1.59831 15.8996 1.70022 16.4299 1.9261 16.9114C2.37238 17.8626 3.13743 18.6276 4.08863 19.0739C4.57006 19.2998 5.10037 19.4017 5.7509 19.4512C6.39179 19.5 7.18898 19.5 8.21314 19.5H8.23421C8.70536 19.5 8.84317 19.5045 8.96148 19.5382C9.10252 19.5783 9.233 19.6489 9.3437 19.7451C9.43655 19.8258 9.51566 19.9387 9.77319 20.3333L10.2543 21.0704C10.4667 21.3958 10.6447 21.6685 10.806 21.8724C10.9709 22.0809 11.1616 22.2755 11.42 22.3839C11.791 22.5394 12.209 22.5394 12.58 22.3839C12.8384 22.2755 13.0291 22.0809 13.194 21.8724C13.3553 21.6685 13.5332 21.3959 13.7456 21.0705L14.2268 20.3333C14.4843 19.9387 14.5634 19.8258 14.6563 19.7451C14.767 19.6489 14.8975 19.5783 15.0385 19.5382C15.1568 19.5045 15.2946 19.5 15.7658 19.5H15.7868C16.811 19.5 17.6082 19.5 18.2491 19.4512C18.8996 19.4017 19.4299 19.2998 19.9114 19.0739C20.8626 18.6276 21.6276 17.8626 22.0739 16.9114C22.2998 16.4299 22.4017 15.8996 22.4512 15.2491C22.5 14.6082 22.5 13.811 22.5 12.7869V8.37736C22.5 7.27642 22.5 6.41947 22.4438 5.73209C22.3868 5.03416 22.2694 4.4671 22.0095 3.95704C21.5781 3.11031 20.8897 2.4219 20.043 1.99047C19.5329 1.73058 18.9658 1.61318 18.2679 1.55616C17.5805 1.5 16.7236 1.5 15.6226 1.5ZM4.41103 2.88148C4.75662 2.70539 5.17744 2.60481 5.81352 2.55284C6.45545 2.50039 7.27164 2.5 8.4 2.5H15.6C16.7284 2.5 17.5446 2.50039 18.1865 2.55284C18.8226 2.60481 19.2434 2.70539 19.589 2.88148C20.2475 3.21703 20.783 3.75247 21.1185 4.41103C21.2946 4.75662 21.3952 5.17744 21.4472 5.81352C21.4996 6.45545 21.5 7.27164 21.5 8.4V12.7658C21.5 13.8154 21.4997 14.5747 21.4541 15.1732C21.4089 15.7665 21.3215 16.1608 21.1686 16.4866C20.8215 17.2264 20.2264 17.8215 19.4866 18.1686C19.1608 18.3215 18.7665 18.4089 18.1732 18.4541C17.5747 18.4997 16.8154 18.5 15.7658 18.5L15.7037 18.5C15.3223 18.4998 15.0346 18.4996 14.7649 18.5763C14.4828 18.6566 14.2218 18.7979 14.0004 18.9902C13.7888 19.1741 13.6317 19.4151 13.4233 19.7346L12.9211 20.5041C12.6925 20.8544 12.5393 21.0882 12.4097 21.2521C12.2804 21.4155 12.2179 21.4513 12.1933 21.4616C12.0697 21.5135 11.9303 21.5135 11.8067 21.4616C11.7821 21.4513 11.7196 21.4155 11.5903 21.2521C11.4607 21.0882 11.3075 20.8544 11.0789 20.5041L10.5766 19.7346C10.3683 19.4151 10.2112 19.1741 9.99955 18.9902C9.77817 18.7979 9.5172 18.6566 9.23513 18.5763C8.9654 18.4996 8.67773 18.4998 8.2963 18.5L8.23421 18.5C7.18457 18.5 6.42532 18.4997 5.82681 18.4541C5.23354 18.4089 4.83922 18.3215 4.51338 18.1686C3.77356 17.8215 3.17852 17.2264 2.83141 16.4866C2.67853 16.1608 2.59107 15.7665 2.5459 15.1732C2.50034 14.5747 2.5 13.8154 2.5 12.7658V8.4C2.5 7.27164 2.50039 6.45545 2.55284 5.81352C2.60481 5.17744 2.70539 4.75662 2.88148 4.41103C3.21703 3.75247 3.75247 3.21703 4.41103 2.88148Z" fill="#000"/>
</svg>
