<svg width="24" height="24" viewBox="0 0 24 24" fill="none" xmlns="http://www.w3.org/2000/svg">
<g opacity="0.4">
<path d="M10 5.5C10 5.22386 10.2239 5 10.5 5H22C22.2761 5 22.5 5.22386 22.5 5.5C22.5 5.77614 22.2761 6 22 6H10.5C10.2239 6 10 5.77614 10 5.5Z" fill="#000"/>
<path d="M10 12.5C10 12.2239 10.2239 12 10.5 12H22C22.2761 12 22.5 12.2239 22.5 12.5C22.5 12.7761 22.2761 13 22 13H10.5C10.2239 13 10 12.7761 10 12.5Z" fill="#000"/>
<path d="M10.5 19C10.2239 19 10 19.2239 10 19.5C10 19.7761 10.2239 20 10.5 20H22C22.2761 20 22.5 19.7761 22.5 19.5C22.5 19.2239 22.2761 19 22 19H10.5Z" fill="#000"/>
</g>
<path d="M6.84599 3.13904C7.04534 3.33012 7.05204 3.64663 6.86096 3.84599L3.98542 6.84599C3.89225 6.94319 3.76382 6.99871 3.62918 6.99998C3.49455 7.00125 3.36509 6.94817 3.2701 6.85275L1.64564 5.22085C1.45082 5.02514 1.45155 4.70856 1.64726 4.51374C1.84296 4.31893 2.15954 4.31965 2.35436 4.51536L3.6177 5.78448L6.13904 3.15401C6.33012 2.95466 6.64663 2.94796 6.84599 3.13904Z" fill="#000"/>
<path d="M6.84599 10.139C7.04534 10.3301 7.05204 10.6466 6.86096 10.846L3.98542 13.846C3.89225 13.9432 3.76382 13.9987 3.62918 14C3.49455 14.0013 3.36509 13.9482 3.2701 13.8527L1.64564 12.2208C1.45082 12.0251 1.45155 11.7086 1.64726 11.5137C1.84296 11.3189 2.15954 11.3196 2.35436 11.5154L3.6177 12.7845L6.13904 10.154C6.33012 9.95466 6.64663 9.94796 6.84599 10.139Z" fill="#000"/>
<path d="M6.86096 17.846C7.05204 17.6466 7.04534 17.3301 6.84599 17.139C6.64663 16.948 6.33012 16.9547 6.13904 17.154L3.6177 19.7845L2.35436 18.5154C2.15954 18.3196 1.84296 18.3189 1.64726 18.5137C1.45155 18.7086 1.45082 19.0251 1.64564 19.2208L3.2701 20.8527C3.36509 20.9482 3.49455 21.0013 3.62918 21C3.76382 20.9987 3.89225 20.9432 3.98542 20.846L6.86096 17.846Z" fill="#000"/>
</svg>
