<svg width="24" height="24" viewBox="0 0 24 24" fill="none" xmlns="http://www.w3.org/2000/svg">
<path opacity="0.4" d="M23 12C23 18.0751 18.0751 23 12 23C5.92487 23 1 18.0751 1 12C1 5.92487 5.92487 1 12 1C18.0751 1 23 5.92487 23 12Z" fill="#000"/>
<path d="M16.8536 9.35355C17.0488 9.15829 17.0488 8.84171 16.8536 8.64645C16.6583 8.45118 16.3417 8.45118 16.1464 8.64645L10.5 14.2929L7.85355 11.6464C7.65829 11.4512 7.34171 11.4512 7.14645 11.6464C6.95118 11.8417 6.95118 12.1583 7.14645 12.3536L10.1464 15.3536C10.3417 15.5488 10.6583 15.5488 10.8536 15.3536L16.8536 9.35355Z" fill="#000"/>
<path fill-rule="evenodd" clip-rule="evenodd" d="M12 0.5C5.64873 0.5 0.5 5.64873 0.5 12C0.5 18.3513 5.64873 23.5 12 23.5C18.3513 23.5 23.5 18.3513 23.5 12C23.5 5.64873 18.3513 0.5 12 0.5ZM1.5 12C1.5 6.20101 6.20101 1.5 12 1.5C17.799 1.5 22.5 6.20101 22.5 12C22.5 17.799 17.799 22.5 12 22.5C6.20101 22.5 1.5 17.799 1.5 12Z" fill="#000"/>
</svg>
