<svg width="24" height="24" viewBox="0 0 24 24" fill="none" xmlns="http://www.w3.org/2000/svg">
<path opacity="0.4" d="M20.5 17.7V7.74999C20.5 6.35216 20.5 5.65325 20.2716 5.10194C19.9672 4.36685 19.3831 3.78283 18.6481 3.47835C18.1169 3.25832 17.4486 3.25029 16.1503 3.25C16.0674 3.24998 16 3.31715 16 3.39999C16 3.96004 16 4.24007 15.891 4.45398C15.7951 4.64214 15.6422 4.79512 15.454 4.891C15.2401 4.99999 14.9601 4.99999 14.4 4.99999H9.6C9.03995 4.99999 8.75992 4.99999 8.54601 4.891C8.35785 4.79512 8.20487 4.64214 8.10899 4.45398C8 4.24007 8 3.96004 8 3.39999C8 3.31715 7.93257 3.24998 7.84972 3.25C6.55136 3.25029 5.88314 3.25832 5.35195 3.47835C4.61687 3.78283 4.03284 4.36685 3.72836 5.10194C3.5 5.65325 3.5 6.35216 3.5 7.74999V17.7C3.5 19.3801 3.5 20.2202 3.82698 20.862C4.1146 21.4264 4.57354 21.8854 5.13803 22.173C5.77976 22.5 6.61984 22.5 8.3 22.5H15.7C17.3802 22.5 18.2202 22.5 18.862 22.173C19.4265 21.8854 19.8854 21.4264 20.173 20.862C20.5 20.2202 20.5 19.3801 20.5 17.7Z" fill="#000"/>
<path fill-rule="evenodd" clip-rule="evenodd" d="M9 1C8.17157 1 7.5 1.67157 7.5 2.5V2.75045C7.03797 2.75182 6.65211 2.75735 6.3245 2.7797C5.88067 2.80999 5.50734 2.8728 5.16061 3.01642C4.30301 3.37165 3.62165 4.05301 3.26642 4.91061C3.1228 5.25734 3.05999 5.63067 3.02971 6.0745C3 6.50993 3 7.04826 3 7.73157V17.7222C3 18.5435 2.99999 19.1905 3.04253 19.7111C3.08593 20.2423 3.17609 20.6859 3.38148 21.089C3.71703 21.7475 4.25247 22.283 4.91103 22.6185C5.31413 22.8239 5.75771 22.9141 6.28889 22.9575C6.80954 23 7.45651 23 8.27778 23H15.7222C16.5435 23 17.1905 23 17.7111 22.9575C18.2423 22.9141 18.6859 22.8239 19.089 22.6185C19.7475 22.283 20.283 21.7475 20.6185 21.089C20.8239 20.6859 20.9141 20.2423 20.9575 19.7111C21 19.1905 21 18.5435 21 17.7222V7.73157C21 7.04827 21 6.50992 20.9703 6.0745C20.94 5.63067 20.8772 5.25734 20.7336 4.91061C20.3783 4.05301 19.697 3.37165 18.8394 3.01642C18.4927 2.8728 18.1193 2.80999 17.6755 2.7797C17.3479 2.75735 16.962 2.75182 16.5 2.75045V2.5C16.5 1.67157 15.8284 1 15 1H9ZM16.1017 5.018C16.3489 4.75057 16.5 4.39293 16.5 4V3.75049C16.9549 3.75187 17.3109 3.75715 17.6074 3.77739C18.0003 3.80419 18.2521 3.85556 18.4567 3.9403C19.0693 4.19404 19.556 4.68072 19.8097 5.29329C19.8944 5.49787 19.9458 5.74966 19.9726 6.14257C19.9997 6.53997 20 7.04425 20 7.75V17.7C20 18.5483 19.9996 19.1545 19.9608 19.6297C19.9224 20.099 19.8491 20.3963 19.7275 20.635C19.4878 21.1054 19.1054 21.4878 18.635 21.7275C18.3963 21.8491 18.099 21.9224 17.6297 21.9608C17.1545 21.9996 16.5483 22 15.7 22H8.3C7.45167 22 6.84549 21.9996 6.37032 21.9608C5.90099 21.9224 5.60366 21.8491 5.36502 21.7275C4.89462 21.4878 4.51217 21.1054 4.27248 20.635C4.15089 20.3963 4.07756 20.099 4.03921 19.6297C4.00039 19.1545 4 18.5483 4 17.7V7.75C4 7.04425 4.00027 6.53997 4.02739 6.14257C4.05419 5.74966 4.10556 5.49787 4.1903 5.29329C4.44404 4.68072 4.93072 4.19404 5.54329 3.9403C5.74787 3.85556 5.99966 3.80419 6.39257 3.77739C6.68911 3.75715 7.04515 3.75187 7.5 3.75049V4C7.5 4.82843 8.17157 5.5 9 5.5H9.54227C9.555 5.5 9.56782 5.5 9.58073 5.5H14.4193C14.4322 5.5 14.445 5.5 14.4577 5.5H15C15.3948 5.5 15.754 5.34748 16.0218 5.09814C16.0494 5.07244 16.0761 5.04571 16.1017 5.018ZM15.5 2.5C15.5 2.22386 15.2761 2 15 2H9C8.72386 2 8.5 2.22386 8.5 2.5V3.4C8.5 3.68828 8.50039 3.87441 8.51196 4.01608C8.52306 4.15191 8.5419 4.20227 8.5545 4.227C8.57463 4.26652 8.59981 4.30294 8.62921 4.33544C8.64017 4.34755 8.65172 4.35912 8.66381 4.37011C8.6965 4.3998 8.73318 4.42521 8.773 4.4455C8.79773 4.4581 8.84809 4.47694 8.98392 4.48804C9.12559 4.49961 9.31172 4.5 9.6 4.5H14.4C14.6883 4.5 14.8744 4.49961 15.0161 4.48804C15.1519 4.47694 15.2023 4.4581 15.227 4.4455C15.2633 4.42699 15.297 4.40423 15.3275 4.37783C15.3425 4.3648 15.3567 4.3509 15.3701 4.33619C15.3998 4.3035 15.4252 4.26682 15.4455 4.227C15.4581 4.20227 15.4769 4.15191 15.488 4.01608C15.4996 3.87441 15.5 3.68828 15.5 3.4V2.5Z" fill="#000"/>
</svg>
