<svg width="24" height="24" viewBox="0 0 24 24" fill="none" xmlns="http://www.w3.org/2000/svg">
<g clip-path="url(#clip0_9002_7512)">
<path opacity="0.4" d="M23 12C23 18.0751 18.0751 23 12 23C5.92487 23 1 18.0751 1 12C1 5.92487 5.92487 1 12 1C18.0751 1 23 5.92487 23 12Z" fill="#000"/>
<path d="M12.5 6C12.5 5.72386 12.2761 5.5 12 5.5C11.7239 5.5 11.5 5.72386 11.5 6V12C11.5 12.1724 11.5888 12.3326 11.735 12.424L15.735 14.924C15.9692 15.0704 16.2776 14.9992 16.424 14.765C16.5704 14.5308 16.4992 14.2224 16.265 14.076L12.5 11.7229V6Z" fill="#000"/>
<path fill-rule="evenodd" clip-rule="evenodd" d="M12 0.5C5.64873 0.5 0.5 5.64873 0.5 12C0.5 18.3513 5.64873 23.5 12 23.5C18.3513 23.5 23.5 18.3513 23.5 12C23.5 5.64873 18.3513 0.5 12 0.5ZM1.5 12C1.5 6.20101 6.20101 1.5 12 1.5C17.799 1.5 22.5 6.20101 22.5 12C22.5 17.799 17.799 22.5 12 22.5C6.20101 22.5 1.5 17.799 1.5 12Z" fill="#000"/>
</g>
<defs>
<clipPath id="clip0_9002_7512">
<rect width="24" height="24" fill="white"/>
</clipPath>
</defs>
</svg>
