<svg width="24" height="24" viewBox="0 0 24 24" fill="none" xmlns="http://www.w3.org/2000/svg">
<path opacity="0.4" d="M1 16C1 18.2091 2.79086 20 5 20H18C20.7614 20 23 17.7614 23 15C23 12.5603 21.2527 10.5287 18.9412 10.0884C18.4944 6.65314 15.5571 4 12 4C8.13401 4 5 7.13401 5 11C5 11.3397 5.0242 11.6738 5.07098 12.0006C5.04737 12.0002 5.02371 12 5 12C2.79086 12 1 13.7909 1 16Z" fill="#000"/>
<path d="M12 17.5001C11.7239 17.5001 11.5 17.2763 11.5 17.0001L11.5 10.2072L9.35355 12.3537C9.15829 12.5489 8.84171 12.5489 8.64644 12.3537C8.45118 12.1584 8.45118 11.8418 8.64644 11.6466L11.6464 8.64657C11.7402 8.5528 11.8674 8.50012 12 8.50012C12.1326 8.50012 12.2598 8.5528 12.3536 8.64657L15.3536 11.6466C15.5488 11.8418 15.5488 12.1584 15.3536 12.3537C15.1583 12.5489 14.8417 12.5489 14.6464 12.3537L12.5 10.2072L12.5 17.0001C12.5 17.2763 12.2761 17.5001 12 17.5001Z" fill="#000"/>
<path fill-rule="evenodd" clip-rule="evenodd" d="M4.5 11.0001C4.5 6.85799 7.85786 3.50012 12 3.50012C15.6904 3.50012 18.7576 6.16506 19.3833 9.67568C21.7513 10.2893 23.5 12.44 23.5 15.0001C23.5 18.0377 21.0376 20.5001 18 20.5001H5C2.51472 20.5001 0.5 18.4854 0.5 16.0001C0.499998 13.6776 2.25944 11.7661 4.51814 11.5256C4.50611 11.3519 4.5 11.1767 4.5 11.0001ZM12 4.50012C8.41015 4.50012 5.5 7.41027 5.5 11.0001C5.5 11.3161 5.52251 11.6265 5.56593 11.9299C5.58669 12.0749 5.54281 12.2217 5.44588 12.3316C5.34896 12.4414 5.20874 12.5032 5.06227 12.5007C5.0415 12.5003 5.02074 12.5001 5 12.5001C3.067 12.5001 1.5 14.0671 1.5 16.0001C1.5 17.9331 3.067 19.5001 5 19.5001H18C20.4853 19.5001 22.5 17.4854 22.5 15.0001C22.5 12.805 20.9277 10.9759 18.8476 10.5797C18.6355 10.5393 18.4732 10.3672 18.4454 10.1531C18.0306 6.96362 15.3026 4.50012 12 4.50012Z" fill="#000"/>
</svg>
