<svg width="24" height="24" viewBox="0 0 24 24" fill="none" xmlns="http://www.w3.org/2000/svg">
<g opacity="0.4">
<path d="M15.5 7C14.0611 7 12.825 7.86833 12.2871 9.10958C13.553 9.8134 14.5724 10.9065 15.1844 12.227C16.1062 12.3533 16.9523 12.7173 17.6588 13.2551C18.4754 12.6144 19 11.6185 19 10.5C19 8.567 17.433 7 15.5 7Z" fill="#000"/>
<path d="M17.9958 17.4634C17.9958 19.3186 16.5671 20.84 14.75 20.9874V21H3.75C2.23122 21 1 19.7688 1 18.25C1 16.7312 2.23122 15.5 3.75 15.5C3.78958 15.5 3.82897 15.5008 3.86814 15.5025C3.85815 15.372 3.85307 15.2402 3.85307 15.1071C3.85307 12.2865 6.13961 10 8.96021 10C11.3885 10 13.4209 11.6947 13.9393 13.9658C14.1093 13.9407 14.2832 13.9277 14.4601 13.9277C16.4128 13.9277 17.9958 15.5107 17.9958 17.4634Z" fill="#000"/>
</g>
<path d="M16.0001 3C16.0001 2.72386 15.7762 2.5 15.5001 2.5C15.2239 2.5 15.0001 2.72386 15.0001 3V4.875C15.0001 5.15114 15.2239 5.375 15.5001 5.375C15.7762 5.375 16.0001 5.15114 16.0001 4.875V3Z" fill="#000"/>
<path d="M10.5503 4.84315C10.3551 4.64788 10.0385 4.64788 9.84322 4.84315C9.64796 5.03841 9.64796 5.35499 9.84322 5.55025L11.169 6.87608C11.3643 7.07134 11.6809 7.07134 11.8762 6.87608C12.0714 6.68082 12.0714 6.36423 11.8762 6.16897L10.5503 4.84315Z" fill="#000"/>
<path d="M21.1569 5.55025C21.3522 5.35499 21.3522 5.03841 21.1569 4.84315C20.9617 4.64788 20.6451 4.64788 20.4498 4.84315L19.124 6.16897C18.9287 6.36423 18.9287 6.68082 19.124 6.87608C19.3193 7.07134 19.6358 7.07134 19.8311 6.87608L21.1569 5.55025Z" fill="#000"/>
<path d="M21.1251 10C20.8489 10 20.6251 10.2239 20.6251 10.5C20.6251 10.7761 20.8489 11 21.1251 11H23.0001C23.2762 11 23.5001 10.7761 23.5001 10.5C23.5001 10.2239 23.2762 10 23.0001 10H21.1251Z" fill="#000"/>
<path d="M19.8311 14.1239C19.6358 13.9287 19.3193 13.9287 19.124 14.1239C18.9287 14.3192 18.9287 14.6358 19.124 14.831L20.4498 16.1569C20.6451 16.3521 20.9617 16.3521 21.1569 16.1569C21.3522 15.9616 21.3522 15.645 21.1569 15.4497L19.8311 14.1239Z" fill="#000"/>
<path d="M13.1406 9.67124C13.4825 8.69786 14.4097 8 15.4999 8C16.8806 8 17.9999 9.11929 17.9999 10.5C17.9999 11.4382 17.4832 12.2556 16.7188 12.6833C17.0528 12.8414 17.3676 13.0335 17.6587 13.2551C18.4753 12.6144 18.9999 11.6184 18.9999 10.5C18.9999 8.567 17.4329 7 15.4999 7C14.061 7 12.8249 7.86832 12.287 9.10956C12.586 9.27578 12.8712 9.46372 13.1406 9.67124Z" fill="#000"/>
<path fill-rule="evenodd" clip-rule="evenodd" d="M3.35367 15.0239C3.39817 11.9656 5.89126 9.5 8.96021 9.5C11.4733 9.5 13.5993 11.1529 14.3122 13.4304C14.3613 13.4286 14.4106 13.4277 14.4601 13.4277C16.6889 13.4277 18.4958 15.2346 18.4958 17.4634C18.4958 19.541 16.9263 21.2515 14.9079 21.4746C14.8583 21.4911 14.8052 21.5 14.75 21.5H3.75C1.95507 21.5 0.5 20.0449 0.5 18.25C0.5 16.5892 1.74568 15.2194 3.35367 15.0239ZM8.96021 10.5C6.41575 10.5 4.35307 12.5627 4.35307 15.1071C4.35307 15.2274 4.35767 15.3465 4.36668 15.4643C4.37759 15.6068 4.327 15.7472 4.22768 15.85C4.12837 15.9527 3.98982 16.0081 3.84703 16.002C3.81486 16.0007 3.78251 16 3.75 16C2.50736 16 1.5 17.0074 1.5 18.25C1.5 19.4926 2.50736 20.5 3.75 20.5H14.6384C14.6615 20.4947 14.6853 20.4911 14.7096 20.4891C16.2692 20.3625 17.4958 19.056 17.4958 17.4634C17.4958 15.7869 16.1366 14.4277 14.4601 14.4277C14.3077 14.4277 14.1582 14.4389 14.0124 14.4605C13.7541 14.4986 13.51 14.3316 13.4519 14.0771C12.9842 12.0284 11.1501 10.5 8.96021 10.5Z" fill="#000"/>
</svg>
