<svg width="24" height="24" viewBox="0 0 24 24" fill="none" xmlns="http://www.w3.org/2000/svg">
<path opacity="0.4" d="M5.74359 15.9936C5.70798 15.9947 5.67223 15.9952 5.63636 15.9952C3.62806 15.9952 2 14.3671 2 12.3588C2 10.3505 3.62806 8.72246 5.63636 8.72246L5.64631 8.72248C5.63971 8.6037 5.63636 8.48406 5.63636 8.36364C5.63636 4.8491 8.48546 2 12 2C15.0346 2 17.5731 4.12406 18.2098 6.96655C20.3608 7.32622 22.0001 9.19644 22.0001 11.4496C22.0001 13.9599 19.965 15.995 17.4546 15.995C17.4169 15.995 17.3793 15.9946 17.3418 15.9936H5.74359Z" fill="#000"/>
<path fill-rule="evenodd" clip-rule="evenodd" d="M12 1.5C8.24651 1.5 5.19673 4.51295 5.13725 8.25227C3.08815 8.49871 1.5 10.2433 1.5 12.3588C1.5 14.6433 3.35191 16.4952 5.63636 16.4952C5.67455 16.4952 5.71263 16.4947 5.7506 16.4936H11.5V19.563C10.7972 19.7439 10.2439 20.2972 10.063 21H5C4.72386 21 4.5 21.2239 4.5 21.5C4.5 21.7761 4.72386 22 5 22H10.063C10.285 22.8626 11.0681 23.5 12 23.5C12.9319 23.5 13.715 22.8626 13.937 22H19C19.2761 22 19.5 21.7761 19.5 21.5C19.5 21.2239 19.2761 21 19 21H13.937C13.7561 20.2972 13.2028 19.7439 12.5 19.563V16.4936H17.3359C17.3754 16.4946 17.4149 16.495 17.4546 16.495C20.2412 16.495 22.5001 14.2361 22.5001 11.4496C22.5001 9.06327 20.8439 7.06471 18.6184 6.53909C17.8192 3.63417 15.1594 1.5 12 1.5ZM6.13636 8.36364C6.13636 5.12524 8.7616 2.5 12 2.5C14.7955 2.5 17.1352 4.45679 17.7219 7.07584C17.7664 7.27437 17.9267 7.42615 18.1273 7.4597C20.0413 7.77974 21.5001 9.44478 21.5001 11.4496C21.5001 13.6838 19.6889 15.495 17.4546 15.495C17.421 15.495 17.3874 15.4945 17.354 15.4936H5.74359L5.72911 15.4938C5.69833 15.4947 5.66741 15.4952 5.63636 15.4952C3.9042 15.4952 2.5 14.091 2.5 12.3588C2.5 10.6267 3.9042 9.22246 5.63636 9.22246L5.64552 9.22248C5.78308 9.22269 5.91466 9.16623 6.00927 9.06637C6.10388 8.96651 6.15317 8.83208 6.14554 8.69473C6.13945 8.58519 6.13636 8.4748 6.13636 8.36364ZM12 20.5C12.5523 20.5 13 20.9477 13 21.5C13 22.0523 12.5523 22.5 12 22.5C11.4477 22.5 11 22.0523 11 21.5C11 20.9477 11.4477 20.5 12 20.5Z" fill="#000"/>
</svg>
