<svg width="24" height="24" viewBox="0 0 24 24" fill="none" xmlns="http://www.w3.org/2000/svg">
<g opacity="0.4">
<path d="M6.34996 8.35711C6.54719 8.16383 6.55039 7.84726 6.35711 7.65004C6.16383 7.45281 5.84726 7.44961 5.65004 7.64289L1.65004 11.5629C1.55531 11.6557 1.50135 11.7824 1.50003 11.915C1.4987 12.0476 1.55011 12.1753 1.64296 12.27L5.64288 16.35C5.8362 16.5472 6.15277 16.5504 6.34996 16.357C6.54714 16.1637 6.55028 15.8472 6.35696 15.65L2.70714 11.9271L6.34996 8.35711Z" fill="#000"/>
<path d="M18.3498 7.64272C18.1525 7.44954 17.8359 7.4529 17.6427 7.65022C17.4495 7.84754 17.4529 8.16411 17.6502 8.35729L21.2929 11.9234L17.6428 15.6501C17.4496 15.8474 17.4529 16.164 17.6501 16.3572C17.8474 16.5504 18.164 16.5471 18.3572 16.3499L22.3572 12.2659C22.45 12.1711 22.5014 12.0434 22.5 11.9107C22.4986 11.7781 22.4446 11.6515 22.3498 11.5587L18.3498 7.64272Z" fill="#000"/>
</g>
<path d="M14.1214 3.51492C14.3893 3.5819 14.5522 3.85337 14.4852 4.12126L10.4852 20.1213C10.4182 20.3892 10.1467 20.552 9.87885 20.4851C9.61095 20.4181 9.44807 20.1466 9.51505 19.8787L13.515 3.87873C13.582 3.61083 13.8535 3.44795 14.1214 3.51492Z" fill="#000"/>
</svg>
