<svg width="24" height="24" viewBox="0 0 24 24" fill="none" xmlns="http://www.w3.org/2000/svg">
<path opacity="0.4" d="M12 22C17.5228 22 22 17.5228 22 12C22 6.47715 17.5228 2 12 2C6.47715 2 2 6.47715 2 12C2 13.9374 2.55098 15.7462 3.5048 17.2781C3.5883 17.4122 3.60834 17.5771 3.55435 17.7255L2.73231 19.9862C2.44212 20.7842 3.21582 21.5579 4.01384 21.2677L6.27446 20.4457C6.42294 20.3917 6.58775 20.4117 6.72187 20.4952C8.25379 21.449 10.0626 22 12 22Z" fill="#000"/>
<path d="M15.5 12C15.5 12.2761 15.2761 12.5 15 12.5H12.5V15C12.5 15.2761 12.2761 15.5 12 15.5C11.7239 15.5 11.5 15.2761 11.5 15V12.5H9C8.72386 12.5 8.5 12.2761 8.5 12C8.5 11.7239 8.72386 11.5 9 11.5H11.5V9C11.5 8.72386 11.7239 8.5 12 8.5C12.2761 8.5 12.5 8.72386 12.5 9V11.5H15C15.2761 11.5 15.5 11.7239 15.5 12Z" fill="#000"/>
<path fill-rule="evenodd" clip-rule="evenodd" d="M1.5 12C1.5 6.20101 6.20101 1.5 12 1.5C17.799 1.5 22.5 6.20101 22.5 12C22.5 17.799 17.799 22.5 12 22.5C9.96646 22.5 8.06652 21.9214 6.45759 20.9197C6.45022 20.9151 6.44563 20.9156 6.44492 20.9157L4.18471 21.7376C2.98767 22.1729 1.82712 21.0123 2.26241 19.8153L3.08431 17.5551C3.08442 17.5544 3.08493 17.5498 3.08034 17.5424C2.07859 15.9335 1.5 14.0335 1.5 12ZM12 2.5C6.75329 2.5 2.5 6.75329 2.5 12C2.5 13.8414 3.02337 15.5589 3.92925 17.0139C4.09031 17.2725 4.13301 17.5973 4.02425 17.8964L3.2022 20.157C3.05711 20.556 3.44396 20.9429 3.84297 20.7978L6.10359 19.9758C6.4027 19.867 6.72746 19.9097 6.98614 20.0708C8.44107 20.9766 10.1586 21.5 12 21.5C17.2467 21.5 21.5 17.2467 21.5 12C21.5 6.75329 17.2467 2.5 12 2.5Z" fill="#000"/>
</svg>
