<svg width="24" height="24" viewBox="0 0 24 24" fill="none" xmlns="http://www.w3.org/2000/svg">
<path opacity="0.4" d="M12 22C17.5228 22 22 17.5228 22 12C22 6.47715 17.5228 2 12 2C6.47715 2 2 6.47715 2 12C2 13.9374 2.55098 15.7462 3.5048 17.2781C3.5883 17.4122 3.60834 17.5771 3.55435 17.7255L2.73231 19.9862C2.44212 20.7842 3.21582 21.5579 4.01384 21.2677L6.27446 20.4457C6.42294 20.3917 6.58775 20.4117 6.72187 20.4952C8.25379 21.449 10.0626 22 12 22Z" fill="#000"/>
<path d="M15.8536 10.1036C16.0488 9.90829 16.0488 9.59171 15.8536 9.39645C15.6583 9.20118 15.3417 9.20118 15.1464 9.39645L11 13.5429L8.85355 11.3964C8.65829 11.2012 8.34171 11.2012 8.14645 11.3964C7.95118 11.5917 7.95118 11.9083 8.14645 12.1036L10.6464 14.6036C10.8417 14.7988 11.1583 14.7988 11.3536 14.6036L15.8536 10.1036Z" fill="#000"/>
<path fill-rule="evenodd" clip-rule="evenodd" d="M12 1.5C6.20101 1.5 1.5 6.20101 1.5 12C1.5 14.0335 2.07859 15.9335 3.08034 17.5424C3.08493 17.5498 3.08442 17.5544 3.08431 17.5551L2.26241 19.8153C1.82712 21.0123 2.98767 22.1729 4.18471 21.7376L6.44485 20.9157C6.44556 20.9156 6.45022 20.9151 6.45759 20.9197C8.06652 21.9214 9.96646 22.5 12 22.5C17.799 22.5 22.5 17.799 22.5 12C22.5 6.20101 17.799 1.5 12 1.5ZM2.5 12C2.5 6.75329 6.75329 2.5 12 2.5C17.2467 2.5 21.5 6.75329 21.5 12C21.5 17.2467 17.2467 21.5 12 21.5C10.1586 21.5 8.44107 20.9766 6.98614 20.0708C6.72746 19.9097 6.4027 19.867 6.10359 19.9758L3.84297 20.7978C3.44396 20.9429 3.05711 20.556 3.2022 20.157L4.02425 17.8964C4.13301 17.5973 4.09031 17.2725 3.92925 17.0139C3.02337 15.5589 2.5 13.8414 2.5 12Z" fill="#000"/>
</svg>
