<svg width="24" height="24" viewBox="0 0 24 24" fill="none" xmlns="http://www.w3.org/2000/svg">
<path opacity="0.4" d="M22.5 9.5V14.5H17.5C16.9477 14.5 16.5 14.9477 16.5 15.5V20.5H7.5V15.5C7.5 14.9477 7.05228 14.5 6.5 14.5H1.5V9.5H6.5C7.05228 9.5 7.5 9.05228 7.5 8.5V3.5H16.5V8.5C16.5 9.05228 16.9477 9.5 17.5 9.5H22.5Z" fill="#000"/>
<path d="M17.4839 8.98804C17.6256 8.99961 17.8117 9 18.1 9H22.5C22.7761 9 23 9.22386 23 9.5C23 9.77614 22.7761 10 22.5 10L18.0807 10C17.8172 10 17.5898 10 17.4025 9.98471C17.2048 9.96856 17.0082 9.93291 16.819 9.83651C16.5368 9.6927 16.3073 9.46323 16.1635 9.18098C16.0671 8.9918 16.0314 8.79519 16.0153 8.59751C16 8.41022 16 8.18284 16 7.91926V3.5C16 3.22386 16.2239 3 16.5 3C16.7761 3 17 3.22386 17 3.5V7.9C17 8.18828 17.0004 8.37441 17.012 8.51608C17.0231 8.65191 17.0419 8.70227 17.0545 8.72699C17.1024 8.82108 17.1789 8.89757 17.273 8.9455C17.2977 8.9581 17.3481 8.97694 17.4839 8.98804Z" fill="#000"/>
<path d="M7 20.5C7 20.7761 7.22386 21 7.5 21C7.77614 21 8 20.7761 8 20.5L8 16.0807C8.00001 15.8172 8.00002 15.5898 7.98471 15.4025C7.96856 15.2048 7.93291 15.0082 7.83651 14.819C7.6927 14.5368 7.46323 14.3073 7.18098 14.1635C6.9918 14.0671 6.79519 14.0314 6.59751 14.0153C6.41022 14 6.18284 14 5.91926 14H1.5C1.22386 14 1 14.2239 1 14.5C1 14.7761 1.22386 15 1.5 15H5.9C6.18828 15 6.37441 15.0004 6.51608 15.012C6.65191 15.0231 6.70227 15.0419 6.72699 15.0545C6.82108 15.1024 6.89757 15.1789 6.9455 15.273C6.9581 15.2977 6.97694 15.3481 6.98804 15.4839C6.99961 15.6256 7 15.8117 7 16.1V20.5Z" fill="#000"/>
<path d="M16 20.5C16 20.7761 16.2239 21 16.5 21C16.7761 21 17 20.7761 17 20.5V16.1C17 15.8117 17.0004 15.6256 17.012 15.4839C17.0231 15.3481 17.0419 15.2977 17.0545 15.273C17.1024 15.1789 17.1789 15.1024 17.273 15.0545C17.2977 15.0419 17.3481 15.0231 17.4839 15.012C17.6256 15.0004 17.8117 15 18.1 15H22.5C22.7761 15 23 14.7761 23 14.5C23 14.2239 22.7761 14 22.5 14H18.0807C17.8172 14 17.5898 14 17.4025 14.0153C17.2048 14.0314 17.0082 14.0671 16.819 14.1635C16.5368 14.3073 16.3073 14.5368 16.1635 14.819C16.0671 15.0082 16.0314 15.2048 16.0153 15.4025C16 15.5898 16 15.8172 16 16.0807V20.5Z" fill="#000"/>
<path d="M1.5 10L5.91927 10C6.18285 10 6.41023 10 6.59751 9.98471C6.79519 9.96856 6.9918 9.93291 7.18098 9.83651C7.46323 9.6927 7.6927 9.46323 7.83651 9.18098C7.93291 8.9918 7.96856 8.79519 7.98471 8.59751C8.00002 8.41023 8.00001 8.18285 8 7.91927L8 3.5C8 3.22386 7.77614 3 7.5 3C7.22386 3 7 3.22386 7 3.5V7.9C7 8.18828 6.99961 8.37441 6.98804 8.51608C6.97694 8.65191 6.9581 8.70227 6.9455 8.72699C6.89757 8.82108 6.82108 8.89757 6.72699 8.9455C6.70227 8.9581 6.65191 8.97694 6.51608 8.98804C6.37441 8.99961 6.18828 9 5.9 9H1.5C1.22386 9 1 9.22386 1 9.5C1 9.77614 1.22386 10 1.5 10Z" fill="#000"/>
</svg>
