<svg width="24" height="24" viewBox="0 0 24 24" fill="none" xmlns="http://www.w3.org/2000/svg">
<path opacity="0.4" fill-rule="evenodd" clip-rule="evenodd" d="M12 23C18.0751 23 23 18.0751 23 12C23 5.92487 18.0751 1 12 1C5.92487 1 1 5.92487 1 12C1 18.0751 5.92487 23 12 23ZM15.3369 7.0966L10.7328 8.99245C10.2778 9.17978 10.0504 9.27344 9.85773 9.41317C9.68692 9.53704 9.5368 9.68717 9.41293 9.85797C9.2732 10.0506 9.17954 10.2781 8.99222 10.733L7.09652 15.337C6.7523 16.173 6.58018 16.591 6.66574 16.8535C6.73998 17.0814 6.91863 17.26 7.14647 17.3343C7.40904 17.4198 7.82703 17.2477 8.66302 16.9035L13.267 15.0078C13.7219 14.8205 13.9494 14.7268 14.142 14.5871C14.3128 14.4632 14.463 14.3131 14.5868 14.1423C14.7266 13.9496 14.8202 13.7222 15.0076 13.2672L16.9034 8.66312C17.2476 7.8271 17.4198 7.40909 17.3342 7.14652C17.26 6.91868 17.0813 6.74003 16.8535 6.66578C16.5909 6.58023 16.1729 6.75235 15.3369 7.0966Z" fill="#000"/>
<path d="M12 11.25C11.5858 11.25 11.25 11.5858 11.25 12C11.25 12.4142 11.5858 12.75 12 12.75C12.4142 12.75 12.7501 12.4142 12.7501 12C12.7501 11.5858 12.4142 11.25 12 11.25Z" fill="#000"/>
<path fill-rule="evenodd" clip-rule="evenodd" d="M17.0084 6.19036C17.3881 6.3141 17.6859 6.61186 17.8096 6.9916C17.9045 7.28291 17.8361 7.58587 17.7573 7.83853C17.6753 8.10167 17.5393 8.43209 17.3751 8.83076L15.4481 13.5106C15.2819 13.9146 15.1668 14.1942 14.9916 14.4358C14.8367 14.6493 14.6491 14.837 14.4356 14.9918C14.194 15.167 13.9143 15.2821 13.5103 15.4483L8.83067 17.3752C8.43201 17.5393 8.1016 17.6754 7.83847 17.7574C7.58581 17.8361 7.28285 17.9046 6.99155 17.8096C6.61181 17.6859 6.31406 17.3882 6.19033 17.0084C6.09541 16.7171 6.16385 16.4142 6.24259 16.1615C6.32459 15.8984 6.46065 15.568 6.62481 15.1693L8.55168 10.4896C8.71789 10.0856 8.83294 9.806 9.00816 9.5644C9.163 9.3509 9.35066 9.16324 9.56416 9.0084C9.80575 8.83317 10.0854 8.71812 10.4894 8.55191L15.1692 6.62489C15.5679 6.46072 15.8983 6.32465 16.1614 6.24264C16.4141 6.1639 16.7171 6.09545 17.0084 6.19036ZM16.7061 7.14376L16.7045 7.14379C16.6918 7.14404 16.626 7.14529 16.459 7.19735C16.2434 7.26452 15.9544 7.38303 15.5272 7.55892L10.9231 9.45477C10.4461 9.65121 10.2846 9.72123 10.1513 9.8179C10.0232 9.91081 9.91058 10.0234 9.81767 10.1515C9.72101 10.2848 9.65099 10.4463 9.45455 10.9234L7.55885 15.5273C7.38296 15.9545 7.26447 16.2435 7.1973 16.459C7.14526 16.626 7.144 16.6918 7.14375 16.7046L7.14372 16.7061C7.16896 16.776 7.22398 16.831 7.29382 16.8563L7.29541 16.8562C7.30816 16.856 7.37393 16.8547 7.54094 16.8027C7.75646 16.7355 8.04549 16.617 8.47264 16.4411L13.0766 14.5454C13.5537 14.349 13.7152 14.279 13.8485 14.1823C13.9766 14.0894 14.0892 13.9768 14.1821 13.8487C14.2787 13.7154 14.3488 13.5539 14.5452 13.0768L16.441 8.47272C16.6169 8.04556 16.7354 7.75652 16.8026 7.54099C16.8547 7.37397 16.8559 7.3082 16.8562 7.29545L16.8562 7.29386C16.831 7.22402 16.7759 7.169 16.7061 7.14376Z" fill="#000"/>
<path fill-rule="evenodd" clip-rule="evenodd" d="M0.5 12C0.5 5.64873 5.64873 0.5 12 0.5C18.3513 0.5 23.5 5.64873 23.5 12C23.5 18.3513 18.3513 23.5 12 23.5C5.64873 23.5 0.5 18.3513 0.5 12ZM12 1.5C6.20101 1.5 1.5 6.20101 1.5 12C1.5 17.799 6.20101 22.5 12 22.5C17.799 22.5 22.5 17.799 22.5 12C22.5 6.20101 17.799 1.5 12 1.5Z" fill="#000"/>
</svg>
