<svg width="24" height="24" viewBox="0 0 24 24" fill="none" xmlns="http://www.w3.org/2000/svg">
<g opacity="0.4">
<path d="M9.5 9.5H1.5V15.2C1.5 16.8802 1.5 17.7202 1.82698 18.362C2.1146 18.9265 2.57354 19.3854 3.13803 19.673C3.77976 20 4.61984 20 6.3 20H17.7C18.6937 20 19.3936 20 19.9323 19.9323L9.5 9.5Z" fill="#000"/>
<path d="M21.6213 19.1213C21.8426 18.9001 22.0292 18.6442 22.173 18.362C22.5 17.7202 22.5 16.8802 22.5 15.2V9.5H12L21.6213 19.1213Z" fill="#000"/>
</g>
<path d="M10 15C10.2761 15 10.5 15.2239 10.5 15.5C10.5 15.7761 10.2761 16 10 16H5.5C5.22386 16 5 15.7761 5 15.5C5 15.2239 5.22386 15 5.5 15H10Z" fill="#000"/>
<path fill-rule="evenodd" clip-rule="evenodd" d="M2.35355 1.64645C2.15829 1.45118 1.84171 1.45118 1.64645 1.64645C1.45118 1.84171 1.45118 2.15829 1.64645 2.35355L3.0912 3.79831C3.03018 3.8237 2.97017 3.85135 2.91103 3.88148C2.25247 4.21703 1.71703 4.75247 1.38148 5.41103C1.17609 5.81413 1.08593 6.25771 1.04253 6.78889C0.999994 7.30954 0.999997 7.95651 1 8.77778V15.2222C0.999997 16.0435 0.999994 16.6905 1.04253 17.2111C1.08593 17.7423 1.17609 18.1859 1.38148 18.589C1.71703 19.2475 2.25247 19.783 2.91103 20.1185C3.31413 20.3239 3.75771 20.4141 4.28889 20.4575C4.80954 20.5 5.45651 20.5 6.27778 20.5H17.7222C18.5435 20.5 19.1905 20.5 19.7111 20.4575C19.7232 20.4565 19.7353 20.4555 19.7473 20.4544L21.6464 22.3536C21.8417 22.5488 22.1583 22.5488 22.3536 22.3536C22.5488 22.1583 22.5488 21.8417 22.3536 21.6464L2.35355 1.64645ZM18.7881 19.4952L14.9683 15.6755C14.8973 15.865 14.7144 16 14.5 16H13C12.7239 16 12.5 15.7761 12.5 15.5C12.5 15.2239 12.7239 15 13 15H14.2929L9.29289 10H2V15.2C2 16.0483 2.00039 16.6545 2.03921 17.1297C2.07756 17.599 2.15089 17.8963 2.27248 18.135C2.51217 18.6054 2.89462 18.9878 3.36502 19.2275C3.60366 19.3491 3.90099 19.4224 4.37032 19.4608C4.84549 19.4996 5.45167 19.5 6.3 19.5H17.7C18.1167 19.5 18.4751 19.4999 18.7881 19.4952ZM8.29289 9L3.8936 4.60071C3.67833 4.64199 3.51073 4.69824 3.36502 4.77248C2.89462 5.01217 2.51217 5.39462 2.27248 5.86502C2.15089 6.10366 2.07756 6.40099 2.03921 6.87032C2.00039 7.3455 2 7.95167 2 8.8V9H8.29289Z" fill="#000"/>
<path d="M22 9H11.5L12.5 10H22V15.2C22 16.0483 21.9996 16.6545 21.9608 17.1297C21.9224 17.599 21.8491 17.8963 21.7275 18.135C21.6077 18.3702 21.4521 18.5834 21.2678 18.7678L21.9749 19.4749C22.233 19.2168 22.4507 18.9183 22.6185 18.589C22.8239 18.1859 22.9141 17.7423 22.9575 17.2111C23 16.6905 23 16.0435 23 15.2222V8.77778C23 7.95651 23 7.30954 22.9575 6.78889C22.9141 6.25771 22.8239 5.81413 22.6185 5.41103C22.283 4.75247 21.7475 4.21703 21.089 3.88148C20.6859 3.67609 20.2423 3.58593 19.7111 3.54253C19.1905 3.49999 18.5435 3.5 17.7222 3.5H7C6.98313 3.5 6.96644 3.50084 6.95 3.50247C6.93355 3.50084 6.91687 3.5 6.9 3.5L6.00006 3.50006L7 4.5H17.7C18.5483 4.5 19.1545 4.50039 19.6297 4.53921C20.099 4.57756 20.3963 4.65089 20.635 4.77248C21.1054 5.01217 21.4878 5.39462 21.7275 5.86502C21.8491 6.10366 21.9224 6.40099 21.9608 6.87032C21.9996 7.3455 22 7.95167 22 8.8V9Z" fill="#000"/>
</svg>
