<svg width="24" height="24" viewBox="0 0 24 24" fill="none" xmlns="http://www.w3.org/2000/svg">
<path opacity="0.4" d="M1.5 9.5H22.5V15.2C22.5 16.8802 22.5 17.7202 22.173 18.362C21.8854 18.9265 21.4265 19.3854 20.862 19.673C20.2202 20 19.3802 20 17.7 20H6.3C4.61984 20 3.77976 20 3.13803 19.673C2.57354 19.3854 2.1146 18.9265 1.82698 18.362C1.5 17.7202 1.5 16.8802 1.5 15.2V9.5Z" fill="#000"/>
<path d="M10 15C10.2761 15 10.5 15.2239 10.5 15.5C10.5 15.7761 10.2761 16 10 16H5.5C5.22386 16 5 15.7761 5 15.5C5 15.2239 5.22386 15 5.5 15H10Z" fill="#000"/>
<path d="M15 15.5C15 15.7761 14.7761 16 14.5 16H13C12.7239 16 12.5 15.7761 12.5 15.5C12.5 15.2239 12.7239 15 13 15H14.5C14.7761 15 15 15.2239 15 15.5Z" fill="#000"/>
<path fill-rule="evenodd" clip-rule="evenodd" d="M17.7222 3.5H6.27779C5.45653 3.5 4.80954 3.49999 4.28889 3.54253C3.75771 3.58593 3.31413 3.67609 2.91103 3.88148C2.25247 4.21703 1.71703 4.75247 1.38148 5.41103C1.17609 5.81413 1.08593 6.25771 1.04253 6.78889C0.999994 7.30954 0.999997 7.95652 1 8.77779V15.2222C0.999997 16.0435 0.999994 16.6905 1.04253 17.2111C1.08593 17.7423 1.17609 18.1859 1.38148 18.589C1.71703 19.2475 2.25247 19.783 2.91103 20.1185C3.31413 20.3239 3.75771 20.4141 4.28889 20.4575C4.80954 20.5 5.45651 20.5 6.27778 20.5H17.7222C18.5435 20.5 19.1905 20.5 19.7111 20.4575C20.2423 20.4141 20.6859 20.3239 21.089 20.1185C21.7475 19.783 22.283 19.2475 22.6185 18.589C22.8239 18.1859 22.9141 17.7423 22.9575 17.2111C23 16.6904 23 16.0434 23 15.2221V8.77789C23 7.95657 23 7.30957 22.9575 6.78889C22.9141 6.25771 22.8239 5.81413 22.6185 5.41103C22.283 4.75247 21.7475 4.21703 21.089 3.88148C20.6859 3.67609 20.2423 3.58593 19.7111 3.54253C19.1905 3.49999 18.5435 3.5 17.7222 3.5ZM22 9V8.8C22 7.95167 21.9996 7.34549 21.9608 6.87032C21.9224 6.40099 21.8491 6.10366 21.7275 5.86502C21.4878 5.39462 21.1054 5.01217 20.635 4.77248C20.3963 4.65089 20.099 4.57756 19.6297 4.53921C19.1545 4.50039 18.5483 4.5 17.7 4.5H6.3C5.45167 4.5 4.84549 4.50039 4.37032 4.53921C3.90099 4.57756 3.60366 4.65089 3.36502 4.77248C2.89462 5.01217 2.51217 5.39462 2.27248 5.86502C2.15089 6.10366 2.07756 6.40099 2.03921 6.87032C2.00039 7.34549 2 7.95167 2 8.8V9H22ZM2 10H22V15.2C22 16.0483 21.9996 16.6545 21.9608 17.1297C21.9224 17.599 21.8491 17.8963 21.7275 18.135C21.4878 18.6054 21.1054 18.9878 20.635 19.2275C20.3963 19.3491 20.099 19.4224 19.6297 19.4608C19.1545 19.4996 18.5483 19.5 17.7 19.5H6.3C5.45167 19.5 4.84549 19.4996 4.37032 19.4608C3.90099 19.4224 3.60366 19.3491 3.36502 19.2275C2.89462 18.9878 2.51217 18.6054 2.27248 18.135C2.15089 17.8963 2.07756 17.599 2.03921 17.1297C2.00039 16.6545 2 16.0483 2 15.2V10Z" fill="#000"/>
</svg>
