<svg width="24" height="24" viewBox="0 0 24 24" fill="none" xmlns="http://www.w3.org/2000/svg">
<g opacity="0.4">
<path d="M21 8.99988L16.8176 11.5093C16.3599 11.7839 15.7672 11.6506 15.4711 11.2065L12 5.99988L8.52891 11.2065C8.23282 11.6506 7.64009 11.7839 7.18237 11.5093L3 8.99988L4.5822 18.4931C4.82329 19.9396 6.07486 20.9999 7.54138 20.9999H16.4586C17.9251 20.9999 19.1767 19.9396 19.4178 18.4931L21 8.99988Z" fill="#000"/>
<path d="M12 5.99988C11.1716 5.99988 10.5 5.32831 10.5 4.49988C10.5 3.67145 11.1716 2.99988 12 2.99988C12.8284 2.99988 13.5 3.67145 13.5 4.49988C13.5 5.32831 12.8284 5.99988 12 5.99988Z" fill="#000"/>
<path d="M2.5 8.99988C3.32843 8.99988 4 8.32831 4 7.49988C4 6.67145 3.32843 5.99988 2.5 5.99988C1.67157 5.99988 1 6.67145 1 7.49988C1 8.32831 1.67157 8.99988 2.5 8.99988Z" fill="#000"/>
<path d="M23 7.49988C23 8.32831 22.3284 8.99988 21.5 8.99988C20.6716 8.99988 20 8.32831 20 7.49988C20 6.67145 20.6716 5.99988 21.5 5.99988C22.3284 5.99988 23 6.67145 23 7.49988Z" fill="#000"/>
</g>
<path fill-rule="evenodd" clip-rule="evenodd" d="M10 4.5C10 3.39543 10.8954 2.5 12 2.5C13.1046 2.5 14 3.39543 14 4.5C14 5.31314 13.5147 6.01294 12.818 6.32561L15.8871 10.9293C16.0352 11.1513 16.3315 11.218 16.5604 11.0807L20.1183 8.94596C19.7373 8.58181 19.5 8.06862 19.5 7.5C19.5 6.39543 20.3954 5.5 21.5 5.5C22.6046 5.5 23.5 6.39543 23.5 7.5C23.5 8.60457 22.6046 9.5 21.5 9.5C21.4745 9.5 21.4491 9.49952 21.4238 9.49858L20.2444 16.5751C20.2436 16.5803 20.2428 16.5854 20.2418 16.5905L19.911 18.5754C19.6297 20.2631 18.1696 21.5 16.4586 21.5H7.5414C5.83046 21.5 4.3703 20.2631 4.08902 18.5754L3.75851 16.5923C3.75733 16.586 3.75627 16.5796 3.75533 16.5732L2.57622 9.49857C2.55093 9.49952 2.52552 9.5 2.5 9.5C1.39543 9.5 0.5 8.60457 0.5 7.5C0.5 6.39543 1.39543 5.5 2.5 5.5C3.60457 5.5 4.5 6.39543 4.5 7.5C4.5 8.06861 4.26271 8.5818 3.88175 8.94595L7.43963 11.0807C7.66849 11.218 7.96486 11.1514 8.11291 10.9293L11.182 6.32562C10.4853 6.01295 10 5.31315 10 4.5ZM12 3.5C11.4477 3.5 11 3.94772 11 4.5C11 5.05228 11.4477 5.5 12 5.5C12.5523 5.5 13 5.05228 13 4.5C13 3.94772 12.5523 3.5 12 3.5ZM4.84025 17L5.07541 18.411C5.27632 19.6165 6.3193 20.5 7.5414 20.5H16.4586C17.6807 20.5 18.7237 19.6165 18.9246 18.411L19.1598 17H4.84025ZM19.3265 16H4.67358L3.67122 9.98582L6.92514 11.9382C7.61172 12.3501 8.50081 12.1502 8.94496 11.484L12 6.90139L15.0551 11.484C15.4992 12.1502 16.3883 12.3501 17.0749 11.9382L20.3288 9.98581L19.3265 16ZM2.5 6.5C1.94772 6.5 1.5 6.94772 1.5 7.5C1.5 8.05228 1.94772 8.5 2.5 8.5C3.05228 8.5 3.5 8.05228 3.5 7.5C3.5 6.94772 3.05228 6.5 2.5 6.5ZM20.5 7.5C20.5 6.94772 20.9477 6.5 21.5 6.5C22.0523 6.5 22.5 6.94772 22.5 7.5C22.5 8.05228 22.0523 8.5 21.5 8.5C20.9477 8.5 20.5 8.05228 20.5 7.5Z" fill="#000"/>
</svg>
