<svg width="24" height="24" viewBox="0 0 24 24" fill="none" xmlns="http://www.w3.org/2000/svg">
<path opacity="0.4" d="M4.00006 6C4.00006 8.20914 7.58178 10 12.0001 10C12 10 12.0001 10 12.0001 10C7.58178 10 4.00006 8.20914 4.00006 6C4.00006 6 4.00011 15.9964 4 17.5C3.99981 20 7.58152 22 11.9998 22C16.4181 22 20 20 20 17.5V6.01579C20 6.01053 20.0001 6.00527 20.0001 6C20.0001 3.79086 16.4183 2 12.0001 2C7.58178 2 4.00006 3.79086 4.00006 6Z" fill="#000"/>
<path fill-rule="evenodd" clip-rule="evenodd" d="M20.4989 6.06386C20.4994 6.04264 20.4997 6.02135 20.4997 6C20.4997 4.60402 19.381 3.47479 17.8802 2.72436C16.3494 1.95897 14.2696 1.5 11.9997 1.5C9.72977 1.5 7.65002 1.95897 6.11924 2.72436C4.62362 3.47217 3.50753 4.59612 3.49974 5.98536C3.49959 5.99048 3.49951 5.99561 3.49951 6.00077L3.49968 10.9876C3.49957 10.9921 3.49951 10.9965 3.49951 11.0009L3.4997 17.5C3.49959 19.0104 4.57705 20.2699 6.09796 21.1235C7.63376 21.9855 9.72141 22.5 11.9995 22.5C14.2776 22.5 16.3653 21.9855 17.9012 21.1235C19.4221 20.2699 20.4997 19.0104 20.4997 17.5L20.499 11.5677C20.4995 11.5452 20.4997 11.5226 20.4997 11.5L20.4989 6.06386ZM17.433 3.61879C16.0683 2.93646 14.148 2.5 11.9997 2.5C9.85135 2.5 7.93111 2.93646 6.56645 3.61879C5.17189 4.31607 4.4997 5.18684 4.4997 6C4.4997 6.81316 5.17189 7.68393 6.56645 8.38121C7.93111 9.06354 9.85135 9.5 11.9997 9.5C14.148 9.5 16.0683 9.06354 17.4329 8.38121C18.8 7.69768 19.4729 6.84743 19.4989 6.04817L19.4989 6.00014C19.4989 5.9919 19.4991 5.9837 19.4995 5.97555C19.4862 5.16942 18.8135 4.30909 17.433 3.61879ZM19.4992 8.15307C19.0606 8.58721 18.5033 8.96407 17.8802 9.27564C16.3494 10.041 14.2696 10.5 11.9997 10.5C9.72977 10.5 7.65002 10.041 6.11924 9.27564C5.49582 8.96393 4.93834 8.58687 4.49959 8.15247L4.4997 11.5C4.49963 12.4896 5.21292 13.4801 6.58739 14.2515C7.94698 15.0145 9.85932 15.5 11.9995 15.5C14.1397 15.5 16.0521 15.0145 17.4118 14.2515C18.761 13.4943 19.4732 12.526 19.499 11.5546L19.4989 11.0001C19.4989 10.9911 19.4991 10.982 19.4996 10.9731L19.4992 8.15307ZM19.4993 13.8855C19.0693 14.3588 18.5222 14.775 17.9012 15.1235C16.3653 15.9855 14.2776 16.5 11.9995 16.5C9.72141 16.5 7.63376 15.9855 6.09796 15.1235C5.47681 14.7749 4.92962 14.3586 4.4996 13.8851L4.4997 17.5C4.49963 18.4896 5.21292 19.4801 6.58739 20.2515C7.94698 21.0145 9.85932 21.5 11.9995 21.5C14.1397 21.5 16.0521 21.0145 17.4118 20.2515C18.7863 19.4801 19.4997 18.4896 19.4997 17.5L19.4993 13.8855Z" fill="#000"/>
</svg>
