<svg width="24" height="24" viewBox="0 0 24 24" fill="none" xmlns="http://www.w3.org/2000/svg">
<g opacity="0.4">
<path d="M1.88148 3.91103C1.5 4.65972 1.5 5.63982 1.5 7.6V13.5H22.5V7.6C22.5 5.63982 22.5 4.65972 22.1185 3.91103C21.783 3.25247 21.2475 2.71703 20.589 2.38148C19.8403 2 18.8602 2 16.9 2H7.1C5.13982 2 4.15972 2 3.41103 2.38148C2.75247 2.71703 2.21703 3.25247 1.88148 3.91103Z" fill="#000"/>
<path d="M14 18V20C14 21.1046 14.8954 22 16 22H8C9.10457 22 10 21.1046 10 20V18H14Z" fill="#000"/>
</g>
<path fill-rule="evenodd" clip-rule="evenodd" d="M16.9224 1.5H7.07755C6.11646 1.5 5.36451 1.49999 4.76049 1.54935C4.14594 1.59956 3.64062 1.70334 3.18404 1.93597C2.43139 2.31947 1.81947 2.93139 1.43597 3.68404C1.20334 4.14062 1.09956 4.64594 1.04935 5.26049C0.999995 5.86451 0.999997 6.61646 1 7.57755V12.4224C0.999999 12.7938 0.999998 13.1339 1.00284 13.4464C1.00096 13.464 1 13.4819 1 13.5V14.5C1 15.5764 1.4252 16.5536 2.1168 17.2726C2.15725 17.3146 2.19862 17.3558 2.24087 17.3961C2.9586 18.0801 3.93026 18.5 5 18.5H7.03395C7.04843 18.5 7.06296 18.5 7.07754 18.5H9.5V20C9.5 20.8284 8.82843 21.5 8 21.5H7.5C7.22386 21.5 7 21.7239 7 22C7 22.2761 7.22386 22.5 7.5 22.5H16.5C16.7761 22.5 17 22.2761 17 22C17 21.7239 16.7761 21.5 16.5 21.5H16C15.1716 21.5 14.5 20.8284 14.5 20V18.5H16.9225C16.937 18.5 16.9516 18.5 16.9661 18.5H19C20.0764 18.5 21.0536 18.0748 21.7726 17.3832C21.8243 17.3335 21.8746 17.2824 21.9235 17.23C22.5913 16.5152 23 15.5553 23 14.5V13.5C23 13.4819 22.999 13.464 22.9972 13.4464C23 13.1339 23 12.7938 23 12.4225V7.57754C23 6.61646 23 5.86451 22.9507 5.26049C22.9004 4.64594 22.7967 4.14062 22.564 3.68404C22.1805 2.93139 21.5686 2.31947 20.816 1.93597C20.3594 1.70334 19.8541 1.59956 19.2395 1.54935C18.6355 1.49999 17.8835 1.5 16.9224 1.5ZM21.9995 13C22 12.812 22 12.6124 22 12.4V7.6C22 6.61166 21.9996 5.90047 21.954 5.34192C21.9088 4.78921 21.8219 4.43014 21.673 4.13803C21.3854 3.57354 20.9265 3.1146 20.362 2.82698C20.0699 2.67814 19.7108 2.59118 19.1581 2.54602C18.5995 2.50039 17.8883 2.5 16.9 2.5H7.1C6.11166 2.5 5.40047 2.50039 4.84192 2.54602C4.28921 2.59118 3.93014 2.67814 3.63803 2.82698C3.07354 3.1146 2.6146 3.57354 2.32698 4.13803C2.17814 4.43014 2.09118 4.78921 2.04602 5.34192C2.00039 5.90047 2 6.61166 2 7.6V12.4C2 12.6124 2.00002 12.812 2.0005 13H21.9995ZM2.81862 16.5595C2.62352 16.3529 2.45759 16.1183 2.32698 15.862C2.17814 15.5699 2.09118 15.2108 2.04602 14.6581C2.02982 14.4598 2.01933 14.2423 2.01252 14H21.9875C21.9807 14.2423 21.9702 14.4598 21.954 14.6581C21.9088 15.2108 21.8219 15.5699 21.673 15.862C21.3854 16.4265 20.9265 16.8854 20.362 17.173C20.0699 17.3219 19.7108 17.4088 19.1581 17.454C18.5995 17.4996 17.8883 17.5 16.9 17.5H7.1C6.11166 17.5 5.40047 17.4996 4.84192 17.454C4.28921 17.4088 3.93014 17.3219 3.63803 17.173C3.37343 17.0382 3.13201 16.8657 2.92057 16.6624C2.88576 16.6289 2.85177 16.5946 2.81862 16.5595ZM13.5 18.5H10.5V20C10.5 20.5628 10.314 21.0822 10.0002 21.5H13.9998C13.686 21.0822 13.5 20.5628 13.5 20V18.5Z" fill="#000"/>
</svg>
