<svg width="24" height="24" viewBox="0 0 24 24" fill="none" xmlns="http://www.w3.org/2000/svg">
<g opacity="0.4">
<path d="M9 4.4C9 3.55992 9 3.13988 9.16349 2.81901C9.3073 2.53677 9.53677 2.3073 9.81901 2.16349C10.1399 2 10.5599 2 11.4 2H12.6C13.4401 2 13.8601 2 14.181 2.16349C14.4632 2.3073 14.6927 2.53677 14.8365 2.81901C15 3.13988 15 3.55992 15 4.4V5.6C15 6.44008 15 6.86012 14.8365 7.18099C14.6927 7.46323 14.4632 7.6927 14.181 7.83651C13.8601 8 13.4401 8 12.6 8H11.4C10.5599 8 10.1399 8 9.81901 7.83651C9.53677 7.6927 9.3073 7.46323 9.16349 7.18099C9 6.86012 9 6.44008 9 5.6V4.4Z" fill="#000"/>
<path d="M2 18.4C2 17.5599 2 17.1399 2.16349 16.819C2.3073 16.5368 2.53677 16.3073 2.81901 16.1635C3.13988 16 3.55992 16 4.4 16H5.6C6.44008 16 6.86012 16 7.18099 16.1635C7.46323 16.3073 7.6927 16.5368 7.83651 16.819C8 17.1399 8 17.5599 8 18.4V19.6C8 20.4401 8 20.8601 7.83651 21.181C7.6927 21.4632 7.46323 21.6927 7.18099 21.8365C6.86012 22 6.44008 22 5.6 22H4.4C3.55992 22 3.13988 22 2.81901 21.8365C2.53677 21.6927 2.3073 21.4632 2.16349 21.181C2 20.8601 2 20.4401 2 19.6V18.4Z" fill="#000"/>
<path d="M16.1635 16.819C16 17.1399 16 17.5599 16 18.4V19.6C16 20.4401 16 20.8601 16.1635 21.181C16.3073 21.4632 16.5368 21.6927 16.819 21.8365C17.1399 22 17.5599 22 18.4 22H19.6C20.4401 22 20.8601 22 21.181 21.8365C21.4632 21.6927 21.6927 21.4632 21.8365 21.181C22 20.8601 22 20.4401 22 19.6V18.4C22 17.5599 22 17.1399 21.8365 16.819C21.6927 16.5368 21.4632 16.3073 21.181 16.1635C20.8601 16 20.4401 16 19.6 16H18.4C17.5599 16 17.1399 16 16.819 16.1635C16.5368 16.3073 16.3073 16.5368 16.1635 16.819Z" fill="#000"/>
</g>
<path fill-rule="evenodd" clip-rule="evenodd" d="M12.6206 1.5H11.3794C10.9769 1.49999 10.6447 1.49999 10.3741 1.5221C10.093 1.54506 9.83469 1.59434 9.59202 1.71799C9.2157 1.90973 8.90973 2.2157 8.71799 2.59202C8.59434 2.83469 8.54506 3.09304 8.5221 3.37409C8.49999 3.64468 8.49999 3.97685 8.5 4.37933V5.62065C8.49999 6.02313 8.49999 6.35532 8.5221 6.62591C8.54506 6.90696 8.59434 7.16531 8.71799 7.40798C8.90973 7.78431 9.2157 8.09027 9.59202 8.28201C9.83469 8.40566 10.093 8.45494 10.3741 8.4779C10.6447 8.50001 10.9769 8.50001 11.3794 8.5H11.5V11.5H8.1786C7.6367 11.5 7.19963 11.5 6.84569 11.5289C6.48126 11.5587 6.16117 11.6216 5.86502 11.7725C5.39462 12.0122 5.01217 12.3946 4.77248 12.865C4.62159 13.1612 4.55868 13.4813 4.52891 13.8457C4.49999 14.1996 4.5 14.6367 4.5 15.1786V15.5H4.37935C3.97689 15.5 3.64467 15.5 3.37409 15.5221C3.09304 15.5451 2.83469 15.5943 2.59202 15.718C2.2157 15.9097 1.90973 16.2157 1.71799 16.592C1.59434 16.8347 1.54506 17.093 1.5221 17.3741C1.49999 17.6447 1.49999 17.9769 1.5 18.3794V19.6206C1.49999 20.0231 1.49999 20.3553 1.5221 20.6259C1.54506 20.907 1.59434 21.1653 1.71799 21.408C1.90973 21.7843 2.2157 22.0903 2.59202 22.282C2.83469 22.4057 3.09304 22.4549 3.37409 22.4779C3.64469 22.5 3.97687 22.5 4.37936 22.5H5.62064C6.02313 22.5 6.35531 22.5 6.62591 22.4779C6.90696 22.4549 7.16531 22.4057 7.40798 22.282C7.78431 22.0903 8.09027 21.7843 8.28201 21.408C8.40566 21.1653 8.45494 20.907 8.4779 20.6259C8.50001 20.3553 8.50001 20.0231 8.5 19.6206V18.3794C8.50001 17.9769 8.50001 17.6447 8.4779 17.3741C8.45494 17.093 8.40566 16.8347 8.28201 16.592C8.09027 16.2157 7.78431 15.9097 7.40798 15.718C7.16531 15.5943 6.90696 15.5451 6.62591 15.5221C6.35533 15.5 6.02316 15.5 5.6207 15.5H5.5V15.2C5.5 14.6317 5.50039 14.2355 5.52559 13.9271C5.55031 13.6245 5.5964 13.4507 5.66349 13.319C5.8073 13.0368 6.03677 12.8073 6.31901 12.6635C6.45069 12.5964 6.62454 12.5503 6.92712 12.5256C7.23554 12.5004 7.6317 12.5 8.2 12.5H15.8C16.3683 12.5 16.7645 12.5004 17.0729 12.5256C17.3755 12.5503 17.5493 12.5964 17.681 12.6635C17.9632 12.8073 18.1927 13.0368 18.3365 13.319C18.4036 13.4507 18.4497 13.6245 18.4744 13.9271C18.4996 14.2355 18.5 14.6317 18.5 15.2V15.5H18.3794C17.9769 15.5 17.6447 15.5 17.3741 15.5221C17.093 15.5451 16.8347 15.5943 16.592 15.718C16.2157 15.9097 15.9097 16.2157 15.718 16.592C15.5943 16.8347 15.5451 17.093 15.5221 17.3741C15.5 17.6447 15.5 17.9768 15.5 18.3793V19.6206C15.5 20.0231 15.5 20.3553 15.5221 20.6259C15.5451 20.907 15.5943 21.1653 15.718 21.408C15.9097 21.7843 16.2157 22.0903 16.592 22.282C16.8347 22.4057 17.093 22.4549 17.3741 22.4779C17.6447 22.5 17.9769 22.5 18.3794 22.5H19.6206C20.0231 22.5 20.3553 22.5 20.6259 22.4779C20.907 22.4549 21.1653 22.4057 21.408 22.282C21.7843 22.0903 22.0903 21.7843 22.282 21.408C22.4057 21.1653 22.4549 20.907 22.4779 20.6259C22.5 20.3553 22.5 20.0231 22.5 19.6206V18.3794C22.5 17.9769 22.5 17.6447 22.4779 17.3741C22.4549 17.093 22.4057 16.8347 22.282 16.592C22.0903 16.2157 21.7843 15.9097 21.408 15.718C21.1653 15.5943 20.907 15.5451 20.6259 15.5221C20.3553 15.5 20.0232 15.5 19.6207 15.5H19.5V15.1786C19.5 14.6368 19.5 14.1996 19.4711 13.8457C19.4413 13.4813 19.3784 13.1612 19.2275 12.865C18.9878 12.3946 18.6054 12.0122 18.135 11.7725C17.8388 11.6216 17.5187 11.5587 17.1543 11.5289C16.8004 11.5 16.3633 11.5 15.8214 11.5H12.5V8.5H12.6206C13.0231 8.50001 13.3553 8.50001 13.6259 8.4779C13.907 8.45494 14.1653 8.40566 14.408 8.28201C14.7843 8.09027 15.0903 7.78431 15.282 7.40798C15.4057 7.16531 15.4549 6.90696 15.4779 6.62591C15.5 6.35531 15.5 6.02313 15.5 5.62064V4.37936C15.5 3.97687 15.5 3.64469 15.4779 3.37409C15.4549 3.09304 15.4057 2.83469 15.282 2.59202C15.0903 2.2157 14.7843 1.90973 14.408 1.71799C14.1653 1.59434 13.907 1.54506 13.6259 1.5221C13.3553 1.49999 13.0231 1.49999 12.6206 1.5ZM18.4 16.5C17.9717 16.5 17.6806 16.5004 17.4555 16.5188C17.2363 16.5367 17.1242 16.5691 17.046 16.609C16.8578 16.7049 16.7049 16.8578 16.609 17.046C16.5691 17.1242 16.5367 17.2363 16.5188 17.4555C16.5004 17.6806 16.5 17.9717 16.5 18.4V19.6C16.5 20.0283 16.5004 20.3194 16.5188 20.5445C16.5367 20.7637 16.5691 20.8758 16.609 20.954C16.7049 21.1422 16.8578 21.2951 17.046 21.391C17.1242 21.4309 17.2363 21.4633 17.4555 21.4812C17.6806 21.4996 17.9717 21.5 18.4 21.5H19.6C20.0283 21.5 20.3194 21.4996 20.5445 21.4812C20.7637 21.4633 20.8758 21.4309 20.954 21.391C21.1422 21.2951 21.2951 21.1422 21.391 20.954C21.4309 20.8758 21.4633 20.7637 21.4812 20.5445C21.4996 20.3194 21.5 20.0283 21.5 19.6V18.4C21.5 17.9717 21.4996 17.6806 21.4812 17.4555C21.4633 17.2363 21.4309 17.1242 21.391 17.046C21.2951 16.8578 21.1422 16.7049 20.954 16.609C20.8758 16.5691 20.7637 16.5367 20.5445 16.5188C20.3194 16.5004 20.0283 16.5 19.6 16.5H18.4ZM4.4 16.5H5.6C6.02829 16.5 6.31944 16.5004 6.54448 16.5188C6.76369 16.5367 6.87579 16.5691 6.95399 16.609C7.14215 16.7049 7.29513 16.8578 7.39101 17.046C7.43085 17.1242 7.46331 17.2363 7.48122 17.4555C7.49961 17.6806 7.5 17.9717 7.5 18.4V19.6C7.5 20.0283 7.49961 20.3194 7.48122 20.5445C7.46331 20.7637 7.43085 20.8758 7.39101 20.954C7.29513 21.1422 7.14215 21.2951 6.95399 21.391C6.87579 21.4309 6.76369 21.4633 6.54448 21.4812C6.31944 21.4996 6.02829 21.5 5.6 21.5H4.4C3.97171 21.5 3.68056 21.4996 3.45552 21.4812C3.23631 21.4633 3.12421 21.4309 3.04601 21.391C2.85785 21.2951 2.70487 21.1422 2.60899 20.954C2.56915 20.8758 2.53669 20.7637 2.51878 20.5445C2.50039 20.3194 2.5 20.0283 2.5 19.6V18.4C2.5 17.9717 2.50039 17.6806 2.51878 17.4555C2.53669 17.2363 2.56915 17.1242 2.60899 17.046C2.70487 16.8578 2.85785 16.7049 3.04601 16.609C3.12421 16.5691 3.23631 16.5367 3.45552 16.5188C3.68056 16.5004 3.97171 16.5 4.4 16.5ZM12.6 7.5C13.0283 7.5 13.3194 7.49961 13.5445 7.48122C13.7637 7.46331 13.8758 7.43085 13.954 7.39101C14.1422 7.29513 14.2951 7.14215 14.391 6.95399C14.4309 6.87579 14.4633 6.76369 14.4812 6.54448C14.4996 6.31944 14.5 6.02829 14.5 5.6V4.4C14.5 3.97171 14.4996 3.68056 14.4812 3.45552C14.4633 3.23631 14.4309 3.12421 14.391 3.04601C14.2951 2.85785 14.1422 2.70487 13.954 2.60899C13.8758 2.56915 13.7637 2.53669 13.5445 2.51878C13.3194 2.50039 13.0283 2.5 12.6 2.5H11.4C10.9717 2.5 10.6806 2.50039 10.4555 2.51878C10.2363 2.53669 10.1242 2.56915 10.046 2.60899C9.85785 2.70487 9.70487 2.85785 9.60899 3.04601C9.56915 3.12421 9.53669 3.23631 9.51878 3.45552C9.50039 3.68056 9.5 3.97171 9.5 4.4V5.6C9.5 6.02829 9.50039 6.31944 9.51878 6.54448C9.53669 6.76369 9.56915 6.87579 9.60899 6.95399C9.70487 7.14215 9.85785 7.29513 10.046 7.39101C10.1242 7.43085 10.2363 7.46331 10.4555 7.48122C10.6806 7.49961 10.9717 7.5 11.4 7.5H12.6Z" fill="#000"/>
</svg>
