<svg width="24" height="24" viewBox="0 0 24 24" fill="none" xmlns="http://www.w3.org/2000/svg">
<path opacity="0.4" d="M15.0296 3.46716C14.8804 3.95171 14.8 4.46647 14.8 5C14.8 7.87188 17.1281 10.2 20 10.2C20.5335 10.2 21.0483 10.1196 21.5328 9.97039C21.8363 10.926 22 11.9439 22 13C22 18.5228 17.5228 23 12 23C6.47715 23 2 18.5228 2 13C2 7.47715 6.47715 3 12 3C13.0561 3 14.074 3.16372 15.0296 3.46716Z" fill="#000"/>
<path d="M19.4967 0.503296C19.7728 0.503296 19.9967 0.727154 19.9967 1.0033V6.46288L21.6432 4.81643C21.8384 4.62117 22.155 4.62117 22.3503 4.81643C22.5455 5.01169 22.5455 5.32827 22.3503 5.52354L19.8503 8.02354C19.655 8.2188 19.3384 8.2188 19.1432 8.02354L16.6432 5.52354C16.4479 5.32827 16.4479 5.01169 16.6432 4.81643C16.8384 4.62117 17.155 4.62117 17.3503 4.81643L18.9967 6.46288V1.0033C18.9967 0.727154 19.2206 0.503296 19.4967 0.503296Z" fill="#000"/>
<path d="M21.5 13.0001C21.5 11.9867 21.3413 11.0103 21.0475 10.0945C21.3787 10.0268 21.6984 9.92754 22.0035 9.80008C22.3259 10.809 22.5 11.8842 22.5 13.0001C22.5 18.7991 17.799 23.5001 12 23.5001C6.20101 23.5001 1.5 18.7991 1.5 13.0001C1.5 7.20107 6.20101 2.50006 12 2.50006C13.1159 2.50006 14.1911 2.67413 15.2 2.99659C15.0725 3.30162 14.9733 3.62138 14.9055 3.95261C13.9897 3.65874 13.0134 3.50006 12 3.50006C6.75329 3.50006 2.5 7.75336 2.5 13.0001C2.5 18.2468 6.75329 22.5001 12 22.5001C17.2467 22.5001 21.5 18.2468 21.5 13.0001Z" fill="#000"/>
<path d="M12.5 9.40053C12.7516 9.42916 12.987 9.4845 13.226 9.5793C13.604 9.72921 13.9607 9.9663 14.3852 10.2877C14.6053 10.4544 14.6487 10.768 14.482 10.9882C14.3153 11.2083 14.0017 11.2517 13.7815 11.085C13.3727 10.7754 13.1043 10.6068 12.8573 10.5089C12.622 10.4155 12.3771 10.3751 12 10.3751C11.446 10.3751 11.038 10.5058 10.7829 10.6905C10.5427 10.8645 10.4167 11.0981 10.4167 11.4015C10.4167 11.7736 10.5898 11.9914 10.8901 12.1595C11.2219 12.3453 11.6624 12.4369 12.0822 12.5069C12.4957 12.5758 13.0969 12.6873 13.5984 12.968C14.1315 13.2664 14.5833 13.7784 14.5833 14.5986C14.5833 15.2358 14.2927 15.7653 13.8037 16.1195C13.4461 16.3785 12.9976 16.5345 12.5 16.5954V17.1667C12.5 17.4429 12.2761 17.6667 12 17.6667C11.7239 17.6667 11.5 17.4429 11.5 17.1667V16.5996C11.2484 16.571 11.013 16.5156 10.774 16.4208C10.396 16.2709 10.0393 16.0338 9.61483 15.7124C9.39468 15.5457 9.35135 15.2321 9.51805 15.0119C9.68475 14.7918 9.99835 14.7484 10.2185 14.9151C10.6274 15.2247 10.8957 15.3933 11.1427 15.4913C11.378 15.5846 11.6229 15.6251 12 15.6251C12.554 15.6251 12.962 15.4944 13.2171 15.3096C13.4573 15.1356 13.5833 14.902 13.5833 14.5986C13.5833 14.2266 13.4102 14.0087 13.1099 13.8406C12.7781 13.6548 12.3376 13.5632 11.9178 13.4933C11.5043 13.4243 10.9031 13.3128 10.4016 13.0321C9.86855 12.7337 9.41667 12.2217 9.41667 11.4015C9.41667 10.7643 9.7073 10.2348 10.1963 9.88064C10.5539 9.62163 11.0024 9.46567 11.5 9.40469V8.83341C11.5 8.55727 11.7239 8.33341 12 8.33341C12.2761 8.33341 12.5 8.55727 12.5 8.83341V9.40053Z" fill="#000"/>
</svg>
