<svg width="24" height="24" viewBox="0 0 24 24" fill="none" xmlns="http://www.w3.org/2000/svg">
<path opacity="0.4" d="M15.0296 3.46716C14.8804 3.95171 14.8 4.46647 14.8 5C14.8 7.87188 17.1281 10.2 20 10.2C20.5335 10.2 21.0483 10.1196 21.5328 9.97039C21.8363 10.926 22 11.9439 22 13C22 18.5228 17.5228 23 12 23C6.47715 23 2 18.5228 2 13C2 7.47715 6.47715 3 12 3C13.0561 3 14.074 3.16372 15.0296 3.46716Z" fill="#000"/>
<path d="M21.5 12.9999C21.5 11.9865 21.3413 11.0102 21.0475 10.0944C21.3787 10.0267 21.6984 9.92742 22.0035 9.79996C22.3259 10.8088 22.5 11.8841 22.5 12.9999C22.5 18.7989 17.799 23.4999 12 23.4999C6.20101 23.4999 1.5 18.7989 1.5 12.9999C1.5 7.20095 6.20101 2.49994 12 2.49994C13.1159 2.49994 14.1911 2.67401 15.2 2.99647C15.0725 3.30149 14.9733 3.62125 14.9055 3.95249C13.9897 3.65862 13.0134 3.49994 12 3.49994C6.7533 3.49994 2.5 7.75323 2.5 12.9999C2.5 18.2466 6.7533 22.4999 12 22.4999C17.2467 22.4999 21.5 18.2466 21.5 12.9999Z" fill="#000"/>
<path d="M12.5 9.40041C12.7516 9.42903 12.987 9.48438 13.226 9.57917C13.604 9.72909 13.9607 9.96618 14.3852 10.2876C14.6053 10.4543 14.6487 10.7679 14.482 10.9881C14.3153 11.2082 14.0017 11.2515 13.7815 11.0848C13.3727 10.7753 13.1043 10.6067 12.8573 10.5087C12.622 10.4154 12.3771 10.3749 12 10.3749C11.446 10.3749 11.038 10.5056 10.7829 10.6904C10.5427 10.8644 10.4167 11.098 10.4167 11.4014C10.4167 11.7734 10.5898 11.9913 10.8901 12.1594C11.2219 12.3452 11.6624 12.4368 12.0822 12.5067C12.4957 12.5757 13.0969 12.6872 13.5984 12.9679C14.1315 13.2663 14.5833 13.7783 14.5833 14.5985C14.5833 15.2357 14.2927 15.7652 13.8037 16.1194C13.4461 16.3784 12.9976 16.5343 12.5 16.5953V17.1666C12.5 17.4427 12.2761 17.6666 12 17.6666C11.7239 17.6666 11.5 17.4427 11.5 17.1666V16.5995C11.2484 16.5708 11.013 16.5155 10.774 16.4207C10.396 16.2708 10.0393 16.0337 9.61483 15.7122C9.39468 15.5455 9.35135 15.2319 9.51805 15.0118C9.68475 14.7916 9.99835 14.7483 10.2185 14.915C10.6274 15.2246 10.8957 15.3932 11.1427 15.4911C11.378 15.5845 11.6229 15.6249 12 15.6249C12.554 15.6249 12.962 15.4942 13.2171 15.3095C13.4573 15.1355 13.5833 14.9019 13.5833 14.5985C13.5833 14.2264 13.4102 14.0086 13.1099 13.8405C12.7781 13.6547 12.3376 13.5631 11.9178 13.4931C11.5043 13.4242 10.9031 13.3127 10.4016 13.032C9.86855 12.7336 9.41667 12.2216 9.41667 11.4014C9.41667 10.7642 9.7073 10.2347 10.1963 9.88052C10.5539 9.62151 11.0024 9.46555 11.5 9.40457V8.83329C11.5 8.55715 11.7239 8.33329 12 8.33329C12.2761 8.33329 12.5 8.55715 12.5 8.83329V9.40041Z" fill="#000"/>
<path d="M19.4967 8.16986C19.2206 8.16986 18.9967 7.946 18.9967 7.66986V2.21028L17.3503 3.85673C17.155 4.05199 16.8384 4.05199 16.6431 3.85673C16.4479 3.66146 16.4479 3.34488 16.6431 3.14962L19.1432 0.64962C19.3384 0.454359 19.655 0.454359 19.8503 0.64962L22.3503 3.14962C22.5455 3.34488 22.5455 3.66146 22.3503 3.85673C22.155 4.05199 21.8384 4.05199 21.6432 3.85673L19.9967 2.21028V7.66986C19.9967 7.946 19.7728 8.16986 19.4967 8.16986Z" fill="#000"/>
</svg>
