<svg width="24" height="24" viewBox="0 0 24 24" fill="none" xmlns="http://www.w3.org/2000/svg">
<path opacity="0.4" d="M12 1.5C6.20101 1.5 1.5 6.20101 1.5 12C1.5 17.799 6.20101 22.5 12 22.5C17.799 22.5 22.5 17.799 22.5 12C22.5 6.20101 17.799 1.5 12 1.5Z" fill="#000"/>
<path d="M2.69018 10.0995C3.57035 5.76342 7.4047 2.5 12.0001 2.5C16.4019 2.5 20.1056 5.49412 21.1833 9.55757C21.2079 9.77054 21.3688 9.95154 21.5906 9.99192C21.6203 9.99733 21.6499 10 21.6791 10.0001C21.7222 10.0006 21.766 9.99546 21.8097 9.98422C22.0289 9.92781 22.1766 9.73452 22.1848 9.51939L22.9912 5.08955C23.0407 4.81787 22.8605 4.55754 22.5888 4.50809C22.3172 4.45863 22.0568 4.63878 22.0074 4.91046L21.523 7.57124C19.8527 3.98564 16.2172 1.5 12.0001 1.5C6.91974 1.5 2.68307 5.10762 1.71016 9.90053C1.65523 10.1712 1.83008 10.4351 2.10071 10.49C2.37133 10.5449 2.63524 10.3701 2.69018 10.0995Z" fill="#000"/>
<path d="M22.2901 14.0995C22.345 13.8288 22.1702 13.5649 21.8996 13.51C21.6289 13.4551 21.365 13.6299 21.3101 13.9005C20.4299 18.2366 16.5956 21.5 12.0001 21.5C7.59832 21.5 3.89459 18.5058 2.81688 14.4423C2.79222 14.2294 2.63147 14.0485 2.40972 14.0081C2.37999 14.0027 2.35039 14 2.3212 13.9999C2.27812 13.9994 2.23426 14.0045 2.19055 14.0158C1.97146 14.0722 1.8238 14.2653 1.81543 14.4804L1.00819 18.9104C0.958683 19.182 1.13878 19.4424 1.41045 19.4919C1.68212 19.5414 1.94248 19.3613 1.99199 19.0896L2.47696 16.4282C4.1472 20.0141 7.78289 22.5 12.0001 22.5C17.0805 22.5 21.3172 18.8924 22.2901 14.0995Z" fill="#000"/>
<path d="M12.5001 7.77081C12.829 7.80102 13.1296 7.8671 13.4345 7.98804C13.875 8.16274 14.2942 8.44039 14.802 8.82492C15.0221 8.99162 15.0655 9.30522 14.8988 9.52537C14.7321 9.74552 14.4185 9.78885 14.1983 9.62215C13.7061 9.24947 13.3753 9.04035 13.0658 8.91759C12.768 8.79947 12.4606 8.75 12.0002 8.75C11.3212 8.75 10.809 8.90999 10.4809 9.14759C10.1679 9.37433 10.0001 9.68431 10.0001 10.0817C10.0001 10.573 10.2358 10.8639 10.6194 11.0786C11.0346 11.311 11.5792 11.4229 12.0824 11.5068C12.5792 11.5896 13.2846 11.7214 13.8694 12.0488C14.4858 12.3938 15.0002 12.9788 15.0002 13.9183C15.0002 14.6495 14.6679 15.2554 14.1059 15.6623C13.6726 15.9761 13.1195 16.1616 12.5001 16.2251V17C12.5001 17.2761 12.2763 17.5 12.0001 17.5C11.724 17.5 11.5001 17.2761 11.5001 17V16.2292C11.1713 16.199 10.8707 16.1329 10.5658 16.0119C10.1253 15.8372 9.70613 15.5596 9.19831 15.175C8.97816 15.0083 8.93483 14.6947 9.10153 14.4746C9.26823 14.2544 9.58184 14.2111 9.80199 14.3778C10.2942 14.7505 10.625 14.9596 10.9345 15.0824C11.2323 15.2005 11.5397 15.25 12.0002 15.25C12.6791 15.25 13.1913 15.09 13.5194 14.8524C13.8325 14.6257 14.0002 14.3157 14.0002 13.9183C14.0002 13.427 13.7645 13.1361 13.3809 12.9214C12.9657 12.689 12.4211 12.5771 11.918 12.4932C11.4211 12.4104 10.7157 12.2786 10.1309 11.9512C9.51453 11.6062 9.00015 11.0212 9.00015 10.0817C9.00015 9.35051 9.33245 8.74465 9.89437 8.33768C10.3277 8.02387 10.8808 7.83844 11.5001 7.77493V7.00002C11.5001 6.72388 11.724 6.50002 12.0001 6.50002C12.2763 6.50002 12.5001 6.72388 12.5001 7.00002V7.77081Z" fill="#000"/>
</svg>
