<svg width="24" height="24" viewBox="0 0 24 24" fill="none" xmlns="http://www.w3.org/2000/svg">
<path opacity="0.4" d="M12 4C10.429 4 9.06616 4.36735 8.08172 5.08032C7.0823 5.80414 6.5 6.86793 6.5 8.16341V17.5529C6.5 17.7094 6.57334 17.857 6.69816 17.9515C7.70598 18.7146 8.50016 19.2357 9.31565 19.5591C10.1428 19.8872 10.9604 20 12 20C13.571 20 14.9339 19.6327 15.9183 18.9197C16.9177 18.1959 17.5 17.1321 17.5 15.8366V6.44708C17.5 6.29051 17.4267 6.14298 17.3019 6.04846C16.294 5.28533 15.4998 4.76429 14.6844 4.44085C13.8572 4.11278 13.0396 4 12 4Z" fill="#000"/>
<path d="M12 1.5C12.2762 1.5 12.5 1.72386 12.5 2V4.00974C13.3111 4.0433 13.9944 4.16716 14.6844 4.44082C15.4999 4.76426 16.2941 5.2853 17.3019 6.04843C17.522 6.21513 17.5654 6.52873 17.3987 6.74888C17.232 6.96903 16.9184 7.01236 16.6982 6.84566C15.706 6.09437 15.0002 5.64187 14.3157 5.37038C13.6429 5.10352 12.9605 4.99997 12 4.99997C10.571 4.99997 9.43387 5.33574 8.66831 5.89019C7.91773 6.43379 7.50003 7.2017 7.50003 8.16337C7.50003 9.3701 8.11064 10.0989 8.99426 10.5935C9.90947 11.1058 11.0791 11.3396 12.0822 11.5068C13.0791 11.6729 14.4095 11.9266 15.4943 12.5339C16.6107 13.1588 17.5001 14.1817 17.5001 15.8366C17.5001 17.1321 16.9178 18.1959 15.9183 18.9197C15.0399 19.5559 13.8601 19.9169 12.5 19.9872V22C12.5 22.2761 12.2762 22.5 12 22.5C11.7239 22.5 11.5 22.2761 11.5 22V19.9902C10.689 19.9567 10.0057 19.8328 9.31568 19.5591C8.50019 19.2356 7.70601 18.7146 6.69819 17.9514C6.47804 17.7847 6.43471 17.4711 6.60141 17.251C6.76811 17.0308 7.08171 16.9875 7.30186 17.1542C8.29405 17.9055 8.99987 18.358 9.68438 18.6295C10.3572 18.8964 11.0396 19 12 19C13.429 19 14.5662 18.6642 15.3318 18.1098C16.0824 17.5662 16.5001 16.7983 16.5001 15.8366C16.5001 14.6299 15.8894 13.9011 15.0058 13.4065C14.0906 12.8942 12.921 12.6604 11.9178 12.4932C10.921 12.327 9.5906 12.0733 8.5058 11.4661C7.38941 10.8412 6.50003 9.81828 6.50003 8.16337C6.50003 6.8679 7.08233 5.80411 8.08175 5.08029C8.96019 4.44409 10.1399 4.08308 11.5 4.01272V2C11.5 1.72386 11.7239 1.5 12 1.5Z" fill="#000"/>
</svg>
