<svg width="24" height="24" viewBox="0 0 24 24" fill="none" xmlns="http://www.w3.org/2000/svg">
<path opacity="0.4" d="M19.5 14.5C19.5 10 16.1635 6 12.3536 2.14803C12.1584 1.95066 11.8416 1.95066 11.6464 2.14801C7.83559 6 4.5 10 4.5 14.5C4.5 18.4064 7.5 22 12 22C16.5 22 19.5 18.4064 19.5 14.5Z" fill="#000"/>
<path fill-rule="evenodd" clip-rule="evenodd" d="M11.2909 1.79636C11.6818 1.40122 12.3182 1.40119 12.7091 1.79643C14.6193 3.72776 16.4366 5.72118 17.7764 7.81116C19.1179 9.90368 20 12.1223 20 14.5C20 18.6563 16.8017 22.5 12 22.5C7.19831 22.5 4 18.6563 4 14.5C4 12.1224 4.88183 9.90372 6.2232 7.81117C7.56293 5.72117 9.38019 3.72774 11.2909 1.79636ZM12 2.50149C10.1006 4.4215 8.34542 6.35347 7.06508 8.35083C5.78596 10.3463 5 12.3776 5 14.5C5 18.1565 7.80169 21.5 12 21.5C16.1983 21.5 19 18.1565 19 14.5C19 12.3777 18.2138 10.3463 16.9346 8.35085C15.6541 6.35348 13.8989 4.42151 12 2.50149Z" fill="#000"/>
</svg>
