<svg width="24" height="24" viewBox="0 0 24 24" fill="none" xmlns="http://www.w3.org/2000/svg">
<g opacity="0.4">
<path d="M6.25 5C5.55964 5 5 5.55964 5 6.25V7.5H3.25C2.55964 7.5 2 8.05964 2 8.75V15.25C2 15.9404 2.55964 16.5 3.25 16.5H5V17.75C5 18.4404 5.55964 19 6.25 19H7.75C8.44036 19 9 18.4404 9 17.75V6.25C9 5.55964 8.44036 5 7.75 5H6.25Z" fill="#000"/>
<path d="M16.25 5C15.5596 5 15 5.55964 15 6.25V17.75C15 18.4404 15.5596 19 16.25 19H17.75C18.4404 19 19 18.4404 19 17.75V16.5H20.75C21.4404 16.5 22 15.9404 22 15.25V8.75C22 8.05964 21.4404 7.5 20.75 7.5H19V6.25C19 5.55964 18.4404 5 17.75 5H16.25Z" fill="#000"/>
</g>
<path fill-rule="evenodd" clip-rule="evenodd" d="M4.5 6.25C4.5 5.2835 5.2835 4.5 6.25 4.5H7.75C8.7165 4.5 9.5 5.2835 9.5 6.25V11.5H14.5V6.25C14.5 5.2835 15.2835 4.5 16.25 4.5H17.75C18.7165 4.5 19.5 5.2835 19.5 6.25V7H20.75C21.7165 7 22.5 7.7835 22.5 8.75V11.5H23C23.2761 11.5 23.5 11.7239 23.5 12C23.5 12.2761 23.2761 12.5 23 12.5H22.5V15.25C22.5 16.2165 21.7165 17 20.75 17H19.5V17.75C19.5 18.7165 18.7165 19.5 17.75 19.5H16.25C15.2835 19.5 14.5 18.7165 14.5 17.75V12.5H9.5V17.75C9.5 18.7165 8.7165 19.5 7.75 19.5H6.25C5.2835 19.5 4.5 18.7165 4.5 17.75V17H3.25C2.2835 17 1.5 16.2165 1.5 15.25V12.5H1C0.723858 12.5 0.5 12.2761 0.5 12C0.5 11.7239 0.723858 11.5 1 11.5H1.5V8.75C1.5 7.7835 2.2835 7 3.25 7H4.5V6.25ZM18.5 6.25C18.5 5.83579 18.1642 5.5 17.75 5.5H16.25C15.8358 5.5 15.5 5.83579 15.5 6.25V17.75C15.5 18.1642 15.8358 18.5 16.25 18.5H17.75C18.1642 18.5 18.5 18.1642 18.5 17.75V6.25ZM19.5 16H20.75C21.1642 16 21.5 15.6642 21.5 15.25V8.75C21.5 8.33579 21.1642 8 20.75 8H19.5V16ZM3.25 8H4.5V16H3.25C2.83579 16 2.5 15.6642 2.5 15.25V8.75C2.5 8.33579 2.83579 8 3.25 8ZM5.5 17.75V6.25C5.5 5.83579 5.83579 5.5 6.25 5.5H7.75C8.16421 5.5 8.5 5.83579 8.5 6.25V17.75C8.5 18.1642 8.16421 18.5 7.75 18.5H6.25C5.83579 18.5 5.5 18.1642 5.5 17.75Z" fill="#000"/>
</svg>
