<svg width="24" height="24" viewBox="0 0 24 24" fill="none" xmlns="http://www.w3.org/2000/svg">
<path opacity="0.4" d="M1.35423 4.77453C1 5.46974 1 6.37983 1 8.2V14.3C1 16.1202 1 17.0303 1.35423 17.7255C1.66582 18.337 2.163 18.8342 2.77453 19.1458C3.46974 19.5 4.37983 19.5 6.2 19.5H14.15C14.15 16.2691 16.7691 13.65 20 13.65C20.7025 13.65 21.376 13.7738 22 14.0008V8.2C22 6.37983 22 5.46974 21.6458 4.77453C21.3342 4.163 20.837 3.66582 20.2255 3.35423C19.5303 3 18.6202 3 16.8 3H6.2C4.37983 3 3.46974 3 2.77453 3.35423C2.163 3.66582 1.66582 4.163 1.35423 4.77453Z" fill="#000"/>
<path fill-rule="evenodd" clip-rule="evenodd" d="M6.17767 2.5C5.2865 2.5 4.58703 2.49999 4.02469 2.54594C3.45183 2.59274 2.97738 2.68971 2.54754 2.90873C1.84193 3.26825 1.26825 3.84193 0.908726 4.54754C0.689711 4.97738 0.592744 5.45183 0.545939 6.02469C0.534144 6.16906 0.525378 6.32246 0.518861 6.48582L0.518241 6.50158C0.499996 6.97114 0.499998 7.52261 0.5 8.17765V14.3223C0.499997 15.2135 0.499995 15.913 0.545939 16.4753C0.592744 17.0482 0.689711 17.5226 0.908726 17.9525C1.26825 18.6581 1.84193 19.2317 2.54754 19.5913C2.97738 19.8103 3.45183 19.9073 4.02469 19.9541C4.58703 20 5.28648 20 6.17765 20H14.1711C14.1571 19.8352 14.15 19.6684 14.15 19.5C14.15 19.3316 14.1571 19.1648 14.1711 19H6.2C5.28166 19 4.62298 18.9996 4.10612 18.9574C3.5951 18.9156 3.2669 18.8355 3.00153 18.7003C2.48408 18.4366 2.06338 18.0159 1.79973 17.4985C1.66452 17.2331 1.58437 16.9049 1.54262 16.3939C1.50039 15.877 1.5 15.2183 1.5 14.3V8.2C1.5 7.9519 1.50003 7.72274 1.5009 7.51022L9.34163 13.4841C9.95427 13.9514 10.3767 14.2735 10.8563 14.4013C11.2781 14.5137 11.722 14.5137 12.1438 14.4013C12.6234 14.2735 13.0458 13.9514 13.6584 13.4841L21.4991 7.51024C21.5 7.72276 21.5 7.9519 21.5 8.2V13.8441C21.847 13.9359 22.1814 14.0588 22.5 14.2096V8.17765C22.5 7.52361 22.5 6.97222 22.4818 6.50314C22.4817 6.49669 22.4814 6.49024 22.4811 6.48378C22.4746 6.32118 22.4658 6.16846 22.4541 6.02469C22.4073 5.45183 22.3103 4.97738 22.0913 4.54754C21.7317 3.84193 21.1581 3.26825 20.4525 2.90873C20.0226 2.68971 19.5482 2.59274 18.9753 2.54594C18.413 2.49999 17.7135 2.5 16.8223 2.5H6.17767ZM21.4695 6.27564C21.4659 6.21744 21.4619 6.16098 21.4574 6.10612C21.4156 5.5951 21.3355 5.2669 21.2003 5.00153C20.9366 4.48408 20.5159 4.06338 19.9985 3.79973C19.7331 3.66452 19.4049 3.58437 18.8939 3.54262C18.377 3.50039 17.7183 3.5 16.8 3.5H6.2C5.28166 3.5 4.62298 3.50039 4.10612 3.54262C3.5951 3.58437 3.2669 3.66452 3.00153 3.79973C2.48408 4.06338 2.06338 4.48408 1.79973 5.00153C1.66452 5.2669 1.58437 5.5951 1.54262 6.10612C1.53814 6.16098 1.53413 6.21743 1.53054 6.27562L9.86371 12.6247C10.5944 13.1814 10.8503 13.3649 11.1138 13.4351C11.3669 13.5025 11.6332 13.5025 11.8863 13.4351C12.1497 13.3648 12.4057 13.1814 13.1363 12.6247L21.4695 6.27564Z" fill="#000"/>
<path d="M23.3536 16.8536C23.5488 16.6583 23.5488 16.3417 23.3536 16.1464C23.1583 15.9512 22.8417 15.9512 22.6464 16.1464L18.5 20.2929L16.3536 18.1464C16.1583 17.9512 15.8417 17.9512 15.6464 18.1464C15.4512 18.3417 15.4512 18.6583 15.6464 18.8536L18.1464 21.3536C18.3417 21.5488 18.6583 21.5488 18.8536 21.3536L23.3536 16.8536Z" fill="#000"/>
</svg>
