<svg width="24" height="24" viewBox="0 0 24 24" fill="none" xmlns="http://www.w3.org/2000/svg">
<path opacity="0.4" d="M1.5 11.716C1.5 10.736 1.5 10.2459 1.63125 9.79823C1.74747 9.40177 1.93823 9.0311 2.19329 8.70608C2.48132 8.33905 2.88007 8.05423 3.67756 7.48459L10.14 2.86854C10.8093 2.39051 11.1439 2.1515 11.5089 2.05904C11.8312 1.97739 12.1688 1.97739 12.4911 2.05904C12.8561 2.1515 13.1907 2.39051 13.86 2.86854L20.3224 7.48459C21.1199 8.05423 21.5187 8.33905 21.8067 8.70608C22.0618 9.0311 22.2525 9.40177 22.3687 9.79823C22.5 10.2459 22.5 10.736 22.5 11.716V16.8C22.5 18.6202 22.5 19.5303 22.1458 20.2255C21.8342 20.837 21.337 21.3342 20.7255 21.6458C20.0303 22 19.1202 22 17.3 22H6.7C4.87983 22 3.96974 22 3.27453 21.6458C2.663 21.3342 2.16582 20.837 1.85423 20.2255C1.5 19.5303 1.5 18.6202 1.5 16.8V11.716Z" fill="#000"/>
<path fill-rule="evenodd" clip-rule="evenodd" d="M1.08204 9.95005C1.10064 9.84991 1.12347 9.75306 1.15146 9.65757C1.28556 9.20011 1.50566 8.77242 1.79996 8.3974C2.1328 7.97328 2.58655 7.64928 3.32042 7.12525L9.92988 2.40417C10.5207 1.98177 10.9283 1.69032 11.3861 1.57435C11.789 1.47229 12.211 1.47229 12.6139 1.57435C13.0717 1.69032 13.4794 1.98176 14.0701 2.40417L20.6796 7.12525C21.4135 7.64928 21.8672 7.97328 22.2001 8.3974C22.4944 8.77242 22.7145 9.20011 22.8486 9.65757C22.8765 9.75278 22.8993 9.84935 22.9178 9.94918C22.9189 9.95431 22.92 9.95946 22.9209 9.96464C22.9499 10.1238 22.9682 10.2926 22.9798 10.4787C23.0001 10.8008 23.0001 11.1724 23 11.6342L23 16.8223C23 16.9082 23 16.9923 23 17.0747C23 17.0807 23 17.0867 23 17.0927C22.9999 17.2176 22.9997 17.3385 22.9993 17.4556C22.997 18.0969 22.9874 18.6256 22.9459 19.0696C22.8962 19.6005 22.7983 20.0463 22.5913 20.4527C22.2318 21.1583 21.6581 21.7319 20.9525 22.0915C20.5227 22.3105 20.0482 22.4074 19.4753 22.4543C18.913 22.5002 18.2136 22.5002 17.3224 22.5002H6.67769C5.78653 22.5002 5.08706 22.5002 4.52473 22.4543C3.95186 22.4074 3.47741 22.3105 3.04757 22.0915C2.34196 21.7319 1.76829 21.1583 1.40876 20.4527C1.20428 20.0513 1.10618 19.6111 1.05597 19.0882C1.0524 19.051 1.04907 19.0134 1.04595 18.9753C1.00001 18.413 1.00001 17.7135 1.00002 16.8223L1.00001 11.6342C0.999932 11.1176 0.999873 10.7139 1.02836 10.3661C1.03992 10.2232 1.05621 10.0907 1.07914 9.96473C1.08003 9.95981 1.081 9.95492 1.08204 9.95005ZM11.6317 2.54373C11.8734 2.48249 12.1266 2.48249 12.3684 2.54373C12.62 2.60748 12.8657 2.77282 13.5694 3.27541L20.0318 7.89146C20.8536 8.47846 21.1801 8.71749 21.4134 9.01476C21.6115 9.26715 21.7637 9.55207 21.8634 9.85654L13.6363 16.1248C12.9056 16.6815 12.6497 16.865 12.3862 16.9352C12.1331 17.0026 11.8668 17.0026 11.6137 16.9352C11.3503 16.865 11.0943 16.6815 10.3637 16.1248L2.13661 9.85659C2.23633 9.5521 2.38857 9.26716 2.58664 9.01476C2.81993 8.71749 3.14639 8.47846 3.9682 7.89146L10.4307 3.27541C11.1343 2.77282 11.38 2.60748 11.6317 2.54373ZM2.0001 11.5283C2.00031 11.3331 2.001 11.1627 2.00306 11.012L9.84159 16.9843C10.4542 17.4515 10.8766 17.7737 11.3562 17.9015C11.778 18.0139 12.2219 18.0139 12.6437 17.9015C13.1233 17.7737 13.5457 17.4515 14.1584 16.9843L21.997 11.012C21.9992 11.1757 21.9998 11.3628 22 11.5798V17.0425C21.9998 17.3454 21.9992 17.6183 21.9963 17.8661C21.9941 18.0556 21.9906 18.2304 21.985 18.3927C21.9788 18.5743 21.9699 18.7404 21.9574 18.8939C21.9156 19.4049 21.8355 19.7331 21.7003 19.9985C21.4366 20.5159 21.0159 20.9366 20.4985 21.2003C20.2331 21.3355 19.9049 21.4156 19.3939 21.4574C18.877 21.4996 18.2184 21.5 17.3 21.5H6.70002C5.78168 21.5 5.123 21.4996 4.60614 21.4574C4.09511 21.4156 3.76691 21.3355 3.50154 21.2003C2.9841 20.9366 2.5634 20.5159 2.29975 19.9985C2.19834 19.7994 2.1279 19.5651 2.08141 19.2447C2.06592 19.138 2.05309 19.0217 2.04265 18.8941M2.00923 18.1912C2.00016 17.8033 2.00003 17.3479 2.00003 16.8002V11.7162C2.00003 11.6511 2.00005 11.5885 2.0001 11.5283M2.00923 18.1912C2.01537 18.4537 2.02561 18.6855 2.04265 18.8941L2.00923 18.1912Z" fill="#000"/>
</svg>
