<svg width="24" height="24" viewBox="0 0 24 24" fill="none" xmlns="http://www.w3.org/2000/svg">
<path opacity="0.4" d="M1.35423 4.77453C1 5.46974 1 6.37983 1 8.2V14.3C1 16.1202 1 17.0303 1.35423 17.7255C1.66582 18.337 2.163 18.8342 2.77453 19.1458C3.46974 19.5 4.37983 19.5 6.2 19.5H14.1711C14.1571 19.3352 14.15 19.1684 14.15 19C14.15 15.7691 16.7691 13.15 20 13.15C20.7025 13.15 21.376 13.2738 22 13.5008V8.2C22 6.37983 22 5.46974 21.6458 4.77453C21.3342 4.163 20.837 3.66582 20.2255 3.35423C19.5303 3 18.6202 3 16.8 3H6.2C4.37983 3 3.46974 3 2.77453 3.35423C2.163 3.66582 1.66582 4.163 1.35423 4.77453Z" fill="#000"/>
<path d="M23.5 18C23.5 18.2761 23.2761 18.5 23 18.5H17.2071L19.3536 20.6464C19.5488 20.8417 19.5488 21.1583 19.3536 21.3536C19.1583 21.5488 18.8417 21.5488 18.6464 21.3536L15.6464 18.3536C15.5527 18.2598 15.5 18.1326 15.5 18C15.5 17.8674 15.5527 17.7402 15.6464 17.6464L18.6464 14.6464C18.8417 14.4512 19.1583 14.4512 19.3536 14.6464C19.5488 14.8417 19.5488 15.1583 19.3536 15.3536L17.2071 17.5H23C23.2761 17.5 23.5 17.7239 23.5 18Z" fill="#000"/>
<path fill-rule="evenodd" clip-rule="evenodd" d="M6.17767 2.5L16.8223 2.5C17.7135 2.5 18.413 2.5 18.9753 2.54594C19.5482 2.59274 20.0226 2.68971 20.4525 2.90873C21.1581 3.26825 21.7317 3.84193 22.0913 4.54754C22.3103 4.97738 22.4073 5.45183 22.4541 6.02469C22.4658 6.16846 22.4746 6.32118 22.4811 6.48379C22.4814 6.49024 22.4817 6.49669 22.4818 6.50314C22.5 6.97222 22.5 7.52299 22.5 8.17704V13.7096C22.1814 13.5588 21.847 13.4359 21.5 13.3441V8.2C21.5 7.9519 21.5 7.72276 21.4991 7.51024L13.6584 13.4841C13.0458 13.9514 12.6234 14.2735 12.1438 14.4013C11.722 14.5137 11.2781 14.5137 10.8563 14.4013C10.3767 14.2735 9.95428 13.9514 9.34164 13.4841L1.5009 7.51022C1.50003 7.72274 1.5 7.9519 1.5 8.2L1.5 14.3C1.5 15.2183 1.50039 15.877 1.54262 16.3939C1.58437 16.9049 1.66452 17.2331 1.79973 17.4985C2.06338 18.0159 2.48408 18.4366 3.00153 18.7003C3.2669 18.8355 3.5951 18.9156 4.10612 18.9574C4.62298 18.9996 5.28167 19 6.2 19H14.15C14.15 19.3409 14.1792 19.6751 14.2351 20H6.17765C5.28648 20 4.58703 20 4.02469 19.9541C3.45183 19.9073 2.97738 19.8103 2.54754 19.5913C1.84193 19.2317 1.26825 18.6581 0.908726 17.9525C0.689712 17.5226 0.592745 17.0482 0.54594 16.4753C0.499996 15.913 0.499998 15.2136 0.5 14.3225L0.5 8.17767C0.499998 7.52264 0.499997 6.97113 0.518242 6.50158L0.518862 6.48582C0.525378 6.32246 0.534146 6.16906 0.545941 6.02469C0.592745 5.45183 0.689711 4.97738 0.908726 4.54754C1.26825 3.84193 1.84193 3.26825 2.54754 2.90873C2.97738 2.68971 3.45183 2.59274 4.02469 2.54594C4.58702 2.5 5.28651 2.5 6.17767 2.5ZM21.4574 6.10612C21.4619 6.16098 21.4659 6.21744 21.4695 6.27564L13.1363 12.6247C12.4057 13.1814 12.1497 13.3649 11.8863 13.4351C11.6332 13.5025 11.3669 13.5025 11.1138 13.4351C10.8503 13.3649 10.5944 13.1814 9.86371 12.6247L1.53054 6.27562C1.53413 6.21743 1.53814 6.16098 1.54262 6.10612C1.58437 5.5951 1.66452 5.2669 1.79973 5.00153C2.06338 4.48408 2.48408 4.06338 3.00153 3.79973C3.2669 3.66452 3.5951 3.58437 4.10612 3.54262C4.62298 3.50039 5.28166 3.5 6.2 3.5H16.8C17.7183 3.5 18.377 3.50039 18.8939 3.54262C19.4049 3.58437 19.7331 3.66452 19.9985 3.79973C20.5159 4.06338 20.9366 4.48408 21.2003 5.00153C21.3355 5.2669 21.4156 5.5951 21.4574 6.10612Z" fill="#000"/>
</svg>
