<svg width="24" height="24" viewBox="0 0 24 24" fill="none" xmlns="http://www.w3.org/2000/svg">
<path opacity="0.4" d="M1.5 8.95C1.5 7.12983 1.5 6.21974 1.85423 5.52453C2.16582 4.913 2.663 4.41582 3.27453 4.10423C3.96974 3.75 4.87983 3.75 6.7 3.75H17.3C19.1202 3.75 20.0303 3.75 20.7255 4.10423C21.337 4.41582 21.8342 4.913 22.1458 5.52453C22.5 6.21974 22.5 7.12983 22.5 8.95V15.05C22.5 16.8702 22.5 17.7803 22.1458 18.4755C21.8342 19.087 21.337 19.5842 20.7255 19.8958C20.0303 20.25 19.1202 20.25 17.3 20.25H6.7C4.87983 20.25 3.96974 20.25 3.27453 19.8958C2.663 19.5842 2.16582 19.087 1.85423 18.4755C1.5 17.7803 1.5 16.8702 1.5 15.05V8.95Z" fill="#000"/>
<path fill-rule="evenodd" clip-rule="evenodd" d="M17.3223 3.25H6.67767C5.78649 3.25 5.08703 3.24999 4.52469 3.29594C3.95183 3.34274 3.47738 3.43971 3.04754 3.65873C2.34193 4.01825 1.76825 4.59193 1.40873 5.29754C1.18971 5.72738 1.09274 6.20183 1.04594 6.77469C1.03415 6.919 1.02538 7.07234 1.01887 7.23563C1.01857 7.24102 1.01836 7.24641 1.01823 7.25181C0.999996 7.72133 0.999998 8.27272 1 8.92767V15.0723C0.999997 15.9635 0.999994 16.663 1.04594 17.2253C1.09274 17.7982 1.18971 18.2726 1.40873 18.7025C1.76825 19.4081 2.34193 19.9817 3.04754 20.3413C3.47738 20.5603 3.95183 20.6573 4.52469 20.7041C5.08703 20.75 5.78648 20.75 6.67765 20.75H17.3223C18.2135 20.75 18.913 20.75 19.4753 20.7041C20.0482 20.6573 20.5226 20.5603 20.9525 20.3413C21.6581 19.9817 22.2317 19.4081 22.5913 18.7025C22.8103 18.2726 22.9073 17.7982 22.9541 17.2253C23 16.663 23 15.9635 23 15.0723V8.92765C23 8.27323 23 7.72219 22.9818 7.25291C22.9817 7.24654 22.9814 7.24017 22.9811 7.2338C22.9746 7.07119 22.9658 6.91846 22.9541 6.77469C22.9073 6.20183 22.8103 5.72738 22.5913 5.29754C22.2317 4.59193 21.6581 4.01825 20.9525 3.65873C20.5226 3.43971 20.0482 3.34274 19.4753 3.29594C18.913 3.24999 18.2135 3.25 17.3223 3.25ZM21.9695 7.02565C21.9659 6.96745 21.9619 6.91099 21.9574 6.85612C21.9156 6.3451 21.8355 6.0169 21.7003 5.75153C21.4366 5.23408 21.0159 4.81338 20.4985 4.54973C20.2331 4.41452 19.9049 4.33437 19.3939 4.29262C18.877 4.25039 18.2183 4.25 17.3 4.25H6.7C5.78166 4.25 5.12298 4.25039 4.60612 4.29262C4.0951 4.33437 3.7669 4.41452 3.50153 4.54973C2.98408 4.81338 2.56338 5.23408 2.29973 5.75153C2.16452 6.0169 2.08437 6.3451 2.04262 6.85612C2.03814 6.91098 2.03412 6.96744 2.03054 7.02564L10.3637 13.3747C11.0944 13.9314 11.3503 14.1149 11.6138 14.1851C11.8669 14.2525 12.1332 14.2525 12.3863 14.1851C12.6497 14.1149 12.9057 13.9314 13.6363 13.3747L21.9695 7.02565ZM2.0009 8.26024C2.00003 8.47276 2 8.7019 2 8.95V15.05C2 15.9683 2.00039 16.627 2.04262 17.1439C2.08437 17.6549 2.16452 17.9831 2.29973 18.2485C2.56338 18.7659 2.98408 19.1866 3.50153 19.4503C3.7669 19.5855 4.0951 19.6656 4.60612 19.7074C5.12298 19.7496 5.78166 19.75 6.7 19.75H17.3C18.2183 19.75 18.877 19.7496 19.3939 19.7074C19.9049 19.6656 20.2331 19.5855 20.4985 19.4503C21.0159 19.1866 21.4366 18.7659 21.7003 18.2485C21.8355 17.9831 21.9156 17.6549 21.9574 17.1439C21.9996 16.627 22 15.9683 22 15.05V8.95C22 8.70191 22 8.47277 21.9991 8.26026L14.1584 14.2342C13.5458 14.7014 13.1234 15.0235 12.6438 15.1514C12.222 15.2638 11.7781 15.2638 11.3563 15.1514C10.8767 15.0236 10.4543 14.7014 9.84164 14.2342L2.0009 8.26024Z" fill="#000"/>
</svg>
