<svg width="24" height="24" viewBox="0 0 24 24" fill="none" xmlns="http://www.w3.org/2000/svg">
<path opacity="0.4" d="M5 7.4C5 5.85986 5 5.08978 5.29973 4.50153C5.56338 3.98408 5.98408 3.56338 6.50153 3.29973C7.08978 3 7.85986 3 9.4 3H18.6C20.1401 3 20.9102 3 21.4985 3.29973C22.0159 3.56338 22.4366 3.98408 22.7003 4.50153C23 5.08978 23 5.85986 23 7.4V12.6C23 14.1401 23 14.9102 22.7003 15.4985C22.4366 16.0159 22.0159 16.4366 21.4985 16.7003C20.9102 17 20.1401 17 18.6 17H9.4C7.85986 17 7.08978 17 6.50153 16.7003C5.98408 16.4366 5.56338 16.0159 5.29973 15.4985C5 14.9102 5 14.1401 5 12.6V7.4Z" fill="#000"/>
<path fill-rule="evenodd" clip-rule="evenodd" d="M9.37794 2.5H18.6221C19.3734 2.5 19.9679 2.49999 20.4469 2.53913C20.9364 2.57912 21.3491 2.66246 21.7255 2.85423C22.337 3.16582 22.8342 3.663 23.1458 4.27453C23.3375 4.65089 23.4209 5.0636 23.4609 5.55309C23.5 6.03204 23.5 6.6265 23.5 7.37784V12.6221C23.5 13.3734 23.5 13.968 23.4609 14.4469C23.4209 14.9364 23.3375 15.3491 23.1458 15.7255C22.8342 16.337 22.337 16.8342 21.7255 17.1458C21.3491 17.3375 20.9364 17.4209 20.4469 17.4609C19.9679 17.5 19.3735 17.5 18.6221 17.5H9.37793C8.62655 17.5 8.03206 17.5 7.55309 17.4609C7.0636 17.4209 6.65089 17.3375 6.27453 17.1458C5.663 16.8342 5.16582 16.337 4.85423 15.7255C4.66246 15.3491 4.57912 14.9364 4.53913 14.4469C4.49999 13.9679 4.5 13.3734 4.5 12.6221V7.37794C4.5 6.85292 4.5 6.4045 4.51334 6.01857C4.51306 6.00101 4.5137 5.98343 4.51527 5.96588C4.52089 5.81937 4.52859 5.68204 4.53913 5.55309C4.57912 5.0636 4.66246 4.65089 4.85423 4.27453C5.16582 3.663 5.663 3.16582 6.27453 2.85423C6.65089 2.66246 7.0636 2.57912 7.55309 2.53913C8.03206 2.49999 8.62656 2.5 9.37794 2.5ZM5.50022 7.01042C5.50001 7.13374 5.5 7.26341 5.5 7.4V12.6C5.5 13.3783 5.50039 13.932 5.53581 14.3655C5.57075 14.7931 5.63727 15.0596 5.74524 15.2715C5.96095 15.6948 6.30516 16.039 6.72852 16.2548C6.94042 16.3627 7.20687 16.4293 7.63452 16.4642C8.06801 16.4996 8.62168 16.5 9.4 16.5H18.6C19.3783 16.5 19.932 16.4996 20.3655 16.4642C20.7931 16.4293 21.0596 16.3627 21.2715 16.2548C21.6948 16.039 22.039 15.6948 22.2548 15.2715C22.3627 15.0596 22.4293 14.7931 22.4642 14.3655C22.4996 13.932 22.5 13.3783 22.5 12.6V7.4C22.5 7.2629 22.5 7.13276 22.4998 7.00903L16.1575 11.8413C15.5448 12.3085 15.1225 12.6307 14.6428 12.7585C14.221 12.8709 13.7772 12.8709 13.3554 12.7585C12.8757 12.6307 12.4533 12.3085 11.8407 11.8413L5.50022 7.01042ZM22.474 5.77149L15.6354 10.9818C14.9048 11.5385 14.6488 11.722 14.3853 11.7922C14.1323 11.8597 13.8659 11.8597 13.6129 11.7922C13.3494 11.722 13.0934 11.5385 12.3628 10.9818L5.52591 5.77281C5.52886 5.72536 5.53215 5.6793 5.53581 5.63452C5.57075 5.20687 5.63727 4.94042 5.74524 4.72852C5.96095 4.30516 6.30516 3.96095 6.72852 3.74524C6.94042 3.63727 7.20687 3.57075 7.63452 3.53581C8.06801 3.50039 8.62168 3.5 9.4 3.5H18.6C19.3783 3.5 19.932 3.50039 20.3655 3.53581C20.7931 3.57075 21.0596 3.63727 21.2715 3.74524C21.6948 3.96095 22.039 4.30516 22.2548 4.72852C22.3627 4.94042 22.4293 5.20687 22.4642 5.63452C22.4678 5.67888 22.4711 5.7245 22.474 5.77149Z" fill="#000"/>
<path d="M1 6.5C1.27614 6.5 1.5 6.72386 1.5 7V14.6C1.5 15.7284 1.50039 16.5446 1.55284 17.1865C1.60481 17.8226 1.70539 18.2434 1.88148 18.589C2.21703 19.2475 2.75247 19.783 3.41103 20.1185C3.75662 20.2946 4.17744 20.3952 4.81352 20.4472C5.45545 20.4996 6.27164 20.5 7.4 20.5H19C19.2761 20.5 19.5 20.7239 19.5 21C19.5 21.2761 19.2761 21.5 19 21.5H7.37736C6.27641 21.5 5.41948 21.5 4.73209 21.4438C4.03416 21.3868 3.4671 21.2694 2.95704 21.0095C2.11031 20.5781 1.4219 19.8897 0.990471 19.043C0.730584 18.5329 0.61318 17.9658 0.556157 17.2679C0.499995 16.5805 0.499997 15.7236 0.5 14.6226V7C0.5 6.72386 0.723858 6.5 1 6.5Z" fill="#000"/>
</svg>
