<svg width="24" height="24" viewBox="0 0 24 24" fill="none" xmlns="http://www.w3.org/2000/svg">
<path opacity="0.4" d="M11.1342 2.49125L5.70409 11.7517C5.56367 11.9912 5.49528 12.2593 5.49813 12.5264L11.479 16.1814C11.7991 16.377 12.2018 16.377 12.5219 16.1814L18.4954 12.5309C18.4991 12.2623 18.4307 11.9925 18.2895 11.7517L12.8594 2.49124C12.4731 1.83234 11.5205 1.83235 11.1342 2.49125Z" fill="#000"/>
<path fill-rule="evenodd" clip-rule="evenodd" d="M18.9915 12.4081C18.9754 12.0933 18.8849 11.7811 18.7193 11.4988L13.2893 2.23833C12.7097 1.24998 11.2809 1.24998 10.7014 2.23833L5.27131 11.4988C4.88578 12.1563 4.90746 12.9757 5.32722 13.6119L10.7433 21.8204C11.3362 22.719 12.6545 22.719 13.2473 21.8204L18.6634 13.6119C18.8693 13.2999 18.9794 12.9438 18.9927 12.5844C19.0026 12.5265 19.0024 12.4668 18.9915 12.4081ZM12.4266 2.74416C12.2335 2.41471 11.7572 2.41471 11.564 2.74416L6.13395 12.0046C6.08977 12.08 6.05628 12.1596 6.03344 12.2413L11.7378 15.7517C11.8985 15.8506 12.1012 15.8506 12.2619 15.7517L17.9585 12.2461C17.9357 12.1627 17.9017 12.0814 17.8567 12.0046L12.4266 2.74416ZM17.3411 13.8002L12.786 16.6034C12.6946 16.6596 12.5986 16.7052 12.4998 16.7402V21.1376L17.3411 13.8002ZM11.4998 16.7402C11.4011 16.7052 11.3051 16.6596 11.2137 16.6034L6.64336 13.7909L11.4998 21.1513V16.7402Z" fill="#000"/>
</svg>
