<svg width="24" height="24" viewBox="0 0 24 24" fill="none" xmlns="http://www.w3.org/2000/svg">
<path opacity="0.4" d="M23 12C23 18.0751 18.0751 23 12 23C5.92487 23 1 18.0751 1 12C1 5.92487 5.92487 1 12 1C18.0751 1 23 5.92487 23 12Z" fill="#000"/>
<path d="M13.4127 6.60073C12.4705 6.39081 11.4975 6.51117 10.6197 6.94148C9.74361 7.37099 9.00815 8.08627 8.49609 8.98531C8.3132 9.30642 8.16121 9.64664 8.04138 10L6.5 10C6.22386 10 6 10.2239 6 10.5C6 10.7761 6.22386 11 6.5 11H7.79397C7.74118 11.3287 7.71435 11.6634 7.71435 12C7.71435 12.3366 7.74118 12.6713 7.79397 13H6.5C6.22386 13 6 13.2239 6 13.5C6 13.7761 6.22386 14 6.5 14H8.04138C8.16121 14.3534 8.3132 14.6936 8.49609 15.0147C9.00815 15.9137 9.74361 16.629 10.6197 17.0585C11.4975 17.4888 12.4705 17.6092 13.4127 17.3993C14.3537 17.1896 15.2087 16.6631 15.8758 15.9006C16.0576 15.6928 16.0365 15.3769 15.8287 15.1951C15.6208 15.0133 15.3049 15.0344 15.1231 15.2422C14.5846 15.8578 13.9121 16.2635 13.1952 16.4232C12.4796 16.5827 11.7382 16.4931 11.0599 16.1606C10.38 15.8273 9.78709 15.2608 9.36503 14.5198C9.27002 14.353 9.18482 14.1793 9.10982 14H12.4994C12.7756 14 12.9994 13.7761 12.9994 13.5C12.9994 13.2239 12.7756 13 12.4994 13H8.80927C8.74661 12.6741 8.71435 12.3388 8.71435 12C8.71435 11.6612 8.74661 11.3259 8.80927 11H12.4994C12.7756 11 12.9994 10.7761 12.9994 10.5C12.9994 10.2239 12.7756 10 12.4994 10H9.10982C9.18482 9.82073 9.27002 9.64705 9.36503 9.48023C9.78709 8.73922 10.38 8.17271 11.0599 7.83939C11.7382 7.50687 12.4796 7.41735 13.1952 7.5768C13.9121 7.73651 14.5846 8.14219 15.1231 8.75779C15.3049 8.96563 15.6208 8.98672 15.8287 8.8049C16.0365 8.62308 16.0576 8.3072 15.8758 8.09937C15.2087 7.33687 14.3537 6.81038 13.4127 6.60073Z" fill="#000"/>
<path fill-rule="evenodd" clip-rule="evenodd" d="M12 0.5C5.64873 0.5 0.5 5.64873 0.5 12C0.5 18.3513 5.64873 23.5 12 23.5C18.3513 23.5 23.5 18.3513 23.5 12C23.5 5.64873 18.3513 0.5 12 0.5ZM1.5 12C1.5 6.20101 6.20101 1.5 12 1.5C17.799 1.5 22.5 6.20101 22.5 12C22.5 17.799 17.799 22.5 12 22.5C6.20101 22.5 1.5 17.799 1.5 12Z" fill="#000"/>
</svg>
