<svg width="24" height="24" viewBox="0 0 24 24" fill="none" xmlns="http://www.w3.org/2000/svg">
<path opacity="0.4" d="M9.82881 4.25306C10.7912 2.58231 13.2088 2.58231 14.1712 4.25306L21.6638 17.2612C22.6222 18.9252 21.4173 21 19.4926 21H4.50739C2.58269 21 1.37778 18.9252 2.3362 17.2612L9.82881 4.25306Z" fill="#000"/>
<path d="M11.125 17.5C11.125 17.0168 11.5167 16.625 12 16.625C12.4832 16.625 12.8751 17.0168 12.8751 17.5C12.8751 17.9832 12.4833 18.375 12.0001 18.375C11.5168 18.375 11.125 17.9832 11.125 17.5Z" fill="#000"/>
<path d="M11.5 8L11.5 14C11.5 14.2761 11.7238 14.5 12 14.5C12.2761 14.5 12.5 14.2761 12.5 14L12.5 8C12.5 7.72386 12.2761 7.5 12 7.5C11.7238 7.5 11.5 7.72386 11.5 8Z" fill="#000"/>
<path fill-rule="evenodd" clip-rule="evenodd" d="M9.39552 4.0035C10.5502 1.99883 13.4497 1.99884 14.6044 4.0035L22.097 17.0117C23.2488 19.0113 21.7993 21.5 19.4926 21.5H4.50736C2.20067 21.5 0.751147 19.0113 1.9029 17.0117L9.39552 4.0035ZM13.7379 4.50262C12.9679 3.16579 11.0321 3.16579 10.2621 4.50262L2.76943 17.5108C2.00436 18.8391 2.96464 20.5 4.50736 20.5H19.4926C21.0353 20.5 21.9956 18.8391 21.2305 17.5108L13.7379 4.50262Z" fill="#000"/>
</svg>
