<svg width="24" height="24" viewBox="0 0 24 24" fill="none" xmlns="http://www.w3.org/2000/svg">
<g opacity="0.4">
<path d="M5.93918 5.93918C4.31208 7.11324 2.96782 8.82041 2.16325 11.0607C1.94558 11.6668 1.94558 12.3332 2.16325 12.9393C4.73968 20.1133 12.8504 21.8204 18.0608 18.0608L14.4759 14.4759C13.8429 15.1089 12.9679 15.5 12 15.5C10.0642 15.5 8.5 13.9358 8.5 12C8.5 11.0321 8.89106 10.1571 9.52409 9.52409L5.93918 5.93918Z" fill="#000"/>
<path d="M15.387 12.887C15.4608 12.6038 15.5 12.3066 15.5 12C15.5 10.0642 13.9358 8.5 12 8.5C11.6934 8.5 11.3962 8.53923 11.113 8.61297L7.50915 5.00915C12.6529 2.55683 19.5072 4.57401 21.8368 11.0607C22.0544 11.6668 22.0544 12.3332 21.8368 12.9393C21.2661 14.5283 20.4239 15.8492 19.4018 16.9018L15.387 12.887Z" fill="#000"/>
</g>
<path fill-rule="evenodd" clip-rule="evenodd" d="M2.35355 1.64645C2.15829 1.45118 1.84171 1.45118 1.64645 1.64645C1.45118 1.84171 1.45118 2.15829 1.64645 2.35355L5.18045 5.88756C3.68621 7.09649 2.45661 8.76454 1.69268 10.8917C1.43577 11.607 1.43577 12.393 1.69268 13.1083C4.33319 20.4607 12.5369 22.3281 18.0034 18.7105L21.6464 22.3536C21.8417 22.5488 22.1583 22.5488 22.3536 22.3536C22.5488 22.1583 22.5488 21.8417 22.3536 21.6464L2.35355 1.64645ZM17.2776 17.9847L14.4538 15.1609C13.7767 15.687 12.9254 16 12 16C9.7881 16 8 14.2119 8 12C8 11.0746 8.313 10.2233 8.83908 9.54619L5.89471 6.60182C4.49643 7.70789 3.34461 9.25052 2.63382 11.2297C2.45539 11.7265 2.45539 12.2735 2.63382 12.7703C5.00963 19.3857 12.3126 21.1238 17.2776 17.9847ZM9.55368 10.2608C9.2049 10.751 9 11.3511 9 12C9 13.6596 10.3404 15 12 15C12.6489 15 13.249 14.7951 13.7392 14.4463L9.55368 10.2608Z" fill="#000"/>
<path d="M10.7114 8.21144L11.5356 9.03556C11.6869 9.01215 11.842 9 12 9C13.6596 9 15 10.3404 15 12C15 12.158 14.9879 12.3131 14.9644 12.4644L15.7886 13.2886C15.9257 12.8844 16 12.451 16 12C16 9.7881 14.2119 8 12 8C11.549 8 11.1156 8.07434 10.7114 8.21144Z" fill="#000"/>
<path d="M21.3662 12.7703C20.8223 14.2848 20.0201 15.5437 19.0469 16.5469L19.7567 17.2567C20.8276 16.1547 21.7099 14.7719 22.3073 13.1083C22.5642 12.393 22.5642 11.607 22.3073 10.8917C19.8444 4.03373 12.5413 1.94784 7.13405 4.63404L7.88648 5.38648C12.7644 3.16717 19.1701 5.11491 21.3662 11.2297C21.5446 11.7265 21.5446 12.2735 21.3662 12.7703Z" fill="#000"/>
</svg>
