<svg width="24" height="24" viewBox="0 0 24 24" fill="none" xmlns="http://www.w3.org/2000/svg">
<path opacity="0.4" d="M13.5 2.08547V6.5C13.5 7.60457 14.3954 8.5 15.5 8.5H19.9145C19.9257 8.53685 19.9357 8.57404 19.9447 8.61154C20 8.84171 20 9.0863 20 9.57548V17.2C20 18.8802 20 19.7202 19.673 20.362C19.3854 20.9265 18.9265 21.3854 18.362 21.673C17.7202 22 16.8802 22 15.2 22H8.8C7.11984 22 6.27976 22 5.63803 21.673C5.07354 21.3854 4.6146 20.9265 4.32698 20.362C4 19.7202 4 18.8802 4 17.2V6.8C4 5.11984 4 4.27976 4.32698 3.63803C4.6146 3.07354 5.07354 2.6146 5.63803 2.32698C6.27976 2 7.11984 2 8.8 2H12.4245C12.9137 2 13.1583 2 13.3885 2.05526C13.426 2.06426 13.4632 2.07434 13.5 2.08547Z" fill="#000"/>
<path d="M12 18.4999C11.7239 18.4999 11.5 18.276 11.5 17.9999L11.5 12.207L9.35355 14.3534C9.15829 14.5487 8.84171 14.5487 8.64645 14.3534C8.45118 14.1582 8.45118 13.8416 8.64645 13.6463L11.6464 10.6463C11.7402 10.5526 11.8674 10.4999 12 10.4999C12.1326 10.4999 12.2598 10.5526 12.3536 10.6463L15.3536 13.6463C15.5488 13.8416 15.5488 14.1582 15.3536 14.3534C15.1583 14.5487 14.8417 14.5487 14.6464 14.3534L12.5 12.207L12.5 17.9999C12.5 18.276 12.2761 18.4999 12 18.4999Z" fill="#000"/>
<path fill-rule="evenodd" clip-rule="evenodd" d="M13.5956 1.55517C13.3642 1.49963 13.1243 1.49974 12.8068 1.49989L8.7778 1.49991C7.95661 1.49991 7.30951 1.4999 6.78889 1.54244C6.25771 1.58584 5.81414 1.676 5.41103 1.88139C4.75247 2.21694 4.21703 2.75237 3.88148 3.41094C3.67609 3.81404 3.58593 4.25762 3.54253 4.7888C3.49999 5.30946 3.5 5.95643 3.5 6.7777L3.5 17.2221C3.5 18.0434 3.5 18.6904 3.54253 19.211C3.58593 19.7422 3.67609 20.1858 3.88148 20.5889C4.21703 21.2474 4.75247 21.7829 5.41103 22.1184C5.81414 22.3238 6.25771 22.414 6.78889 22.4574C7.30954 22.4999 7.95651 22.4999 8.77778 22.4999H15.2222C16.0435 22.4999 16.6905 22.4999 17.2111 22.4574C17.7423 22.414 18.1859 22.3238 18.589 22.1184C19.2475 21.7829 19.783 21.2474 20.1185 20.5889C20.3239 20.1858 20.4141 19.7422 20.4575 19.211C20.5 18.6904 20.5 18.0434 20.5 17.2221L20.5 9.19307C20.5002 8.87558 20.5003 8.63568 20.4447 8.40434C20.3957 8.20027 20.3149 8.00518 20.2053 7.82623C20.081 7.62337 19.9113 7.45382 19.6866 7.22942L14.7705 2.31327C14.5461 2.08866 14.3765 1.91894 14.1737 1.79463C13.9947 1.68497 13.7996 1.60416 13.5956 1.55517ZM14 2.95731V6.49988C14 7.3283 14.6716 7.99988 15.5 7.99988L19.0426 7.99988L18.9435 7.90052L14.0994 3.05641L14 2.95731ZM19.4991 8.99988C19.4998 9.06686 19.5 9.14688 19.5 9.24402V17.1999C19.5 18.0482 19.4996 18.6544 19.4608 19.1296C19.4224 19.5989 19.3491 19.8963 19.2275 20.1349C18.9878 20.6053 18.6054 20.9877 18.135 21.2274C17.8963 21.349 17.599 21.4224 17.1297 21.4607C16.6545 21.4995 16.0483 21.4999 15.2 21.4999H8.8C7.95167 21.4999 7.3455 21.4995 6.87032 21.4607C6.40099 21.4224 6.10366 21.349 5.86502 21.2274C5.39462 20.9877 5.01217 20.6053 4.77248 20.1349C4.65089 19.8963 4.57756 19.5989 4.53921 19.1296C4.50039 18.6544 4.5 18.0482 4.5 17.1999L4.5 6.79991C4.5 5.95158 4.50039 5.3454 4.53921 4.87023C4.57756 4.4009 4.65089 4.10357 4.77248 3.86493C5.01217 3.39453 5.39462 3.01208 5.86502 2.77239C6.10366 2.6508 6.40099 2.57747 6.87032 2.53912C7.3455 2.5003 7.95167 2.49991 8.8 2.49991L12.7559 2.49991C12.853 2.49991 12.933 2.50011 13 2.50078V6.49988C13 7.88059 14.1193 8.99988 15.5 8.99988L19.4991 8.99988Z" fill="#000"/>
</svg>
