<svg width="24" height="24" viewBox="0 0 24 24" fill="none" xmlns="http://www.w3.org/2000/svg">
<path opacity="0.4" d="M11.5 2.08547V6.5C11.5 7.60457 12.3954 8.5 13.5 8.5H17.9145C17.9257 8.53685 17.9357 8.57404 17.9447 8.61154C18 8.84171 18 9.0863 18 9.57548V15.0981C17.9606 15.1636 17.9253 15.2318 17.8945 15.3025C17.3005 14.6555 16.4476 14.25 15.5 14.25H14C13.3715 14.25 12.8204 14.5813 12.5118 15.0789C11.9017 14.5618 11.1123 14.25 10.25 14.25H8.5C7.5335 14.25 6.75 15.0335 6.75 16V22C5.10311 22 4.27337 21.9967 3.63803 21.673C3.07354 21.3854 2.6146 20.9265 2.32698 20.362C2 19.7202 2 18.8802 2 17.2V6.8C2 5.11984 2 4.27976 2.32698 3.63803C2.6146 3.07354 3.07354 2.6146 3.63803 2.32698C4.27976 2 5.11984 2 6.8 2H10.4245C10.9137 2 11.1583 2 11.3885 2.05526C11.426 2.06426 11.4632 2.07434 11.5 2.08547Z" fill="#000"/>
<path fill-rule="evenodd" clip-rule="evenodd" d="M10.7559 2.50003C10.853 2.50003 10.933 2.50023 11 2.5009V6.50003C11 7.88074 12.1193 9.00003 13.5 9.00003H17.4991C17.4998 9.067 17.5 9.14702 17.5 9.24414V14.9381C17.6413 15.0486 17.7733 15.1705 17.8945 15.3025C18.0246 15.0036 18.2356 14.7481 18.5 14.5637L18.5 9.1932C18.5002 8.8757 18.5003 8.63581 18.4447 8.40446C18.3957 8.20039 18.3149 8.0053 18.2053 7.82635C18.081 7.62349 17.9113 7.45394 17.6866 7.22954L12.7705 2.31339C12.5461 2.08878 12.3765 1.91906 12.1737 1.79475C11.9947 1.68509 11.7996 1.60429 11.5956 1.55529C11.3642 1.49975 11.1243 1.49986 10.8068 1.50002L6.77779 1.50003C5.95652 1.50003 5.30954 1.50003 4.78889 1.54256C4.25771 1.58596 3.81413 1.67612 3.41103 1.88151C2.75247 2.21707 2.21703 2.7525 1.88148 3.41106C1.67609 3.81417 1.58593 4.25774 1.54253 4.78892C1.49999 5.30957 1.5 5.95654 1.5 6.77781V17.2222C1.5 18.0435 1.49999 18.6905 1.54253 19.2111C1.58593 19.7423 1.67609 20.1859 1.88148 20.589C2.21703 21.2476 2.75247 21.783 3.41103 22.1186C3.81413 22.3239 4.25771 22.4141 4.78889 22.4575C5.30954 22.5 5.95651 22.5 6.77778 22.5H6.82248C6.77532 22.3416 6.75 22.1738 6.75 22V21.5C5.92777 21.5 5.33611 21.4989 4.87032 21.4608C4.40099 21.4225 4.10366 21.3491 3.86502 21.2275C3.39462 20.9879 3.01217 20.6054 2.77248 20.135C2.65089 19.8964 2.57756 19.599 2.53921 19.1297C2.50039 18.6545 2.5 18.0484 2.5 17.2V6.80003C2.5 5.9517 2.50039 5.34553 2.53921 4.87035C2.57756 4.40102 2.65089 4.10369 2.77248 3.86506C3.01217 3.39465 3.39462 3.0122 3.86502 2.77252C4.10366 2.65093 4.40099 2.57759 4.87032 2.53924C5.34549 2.50042 5.95167 2.50003 6.8 2.50003H10.7559ZM16.9435 7.90064L17.0426 8.00003H13.5C12.6716 8.00003 12 7.32846 12 6.50003V2.95743L12.0994 3.05653L16.9435 7.90064Z" fill="#000"/>
<path fill-rule="evenodd" clip-rule="evenodd" d="M8 16.0001C8 15.7239 8.22386 15.5001 8.5 15.5001H10.25C11.4926 15.5001 12.5 16.5074 12.5 17.7501C12.5 18.9927 11.4926 20.0001 10.25 20.0001H9V22.0001C9 22.2762 8.77614 22.5001 8.5 22.5001C8.22386 22.5001 8 22.2762 8 22.0001V16.0001ZM9 19.0001H10.25C10.9404 19.0001 11.5 18.4404 11.5 17.7501C11.5 17.0597 10.9404 16.5001 10.25 16.5001H9V19.0001Z" fill="#000"/>
<path fill-rule="evenodd" clip-rule="evenodd" d="M13.5 16.0001C13.5 15.7239 13.7239 15.5001 14 15.5001H15.5C16.6046 15.5001 17.5 16.3955 17.5 17.5001V20.5001C17.5 21.6046 16.6046 22.5001 15.5 22.5001H14C13.8674 22.5001 13.7402 22.4474 13.6464 22.3536C13.5527 22.2598 13.5 22.1327 13.5 22.0001V16.0001ZM14.5 21.5001H15.5C16.0523 21.5001 16.5 21.0523 16.5 20.5001V17.5001C16.5 16.9478 16.0523 16.5001 15.5 16.5001H14.5V21.5001Z" fill="#000"/>
<path d="M19 16.0001C19 15.7239 19.2239 15.5001 19.5 15.5001H22C22.2761 15.5001 22.5 15.7239 22.5 16.0001C22.5 16.2762 22.2761 16.5001 22 16.5001H20V18.7501H22C22.2761 18.7501 22.5 18.9739 22.5 19.2501C22.5 19.5262 22.2761 19.7501 22 19.7501H20V22.0001C20 22.2762 19.7761 22.5001 19.5 22.5001C19.2239 22.5001 19 22.2762 19 22.0001V16.0001Z" fill="#000"/>
</svg>
