<svg width="24" height="24" viewBox="0 0 24 24" fill="none" xmlns="http://www.w3.org/2000/svg">
<path opacity="0.4" d="M13.5 2.08547V6.5C13.5 7.60457 14.3954 8.5 15.5 8.5H19.9145C19.9257 8.53685 19.9357 8.57404 19.9447 8.61154C20 8.84171 20 9.0863 20 9.57548V17.2C20 18.8802 20 19.7202 19.673 20.362C19.3854 20.9265 18.9265 21.3854 18.362 21.673C17.7202 22 16.8802 22 15.2 22H8.8C7.11984 22 6.27976 22 5.63803 21.673C5.07354 21.3854 4.6146 20.9265 4.32698 20.362C4 19.7202 4 18.8802 4 17.2V6.8C4 5.11984 4 4.27976 4.32698 3.63803C4.6146 3.07354 5.07354 2.6146 5.63803 2.32698C6.27976 2 7.11984 2 8.8 2H12.4245C12.9137 2 13.1583 2 13.3885 2.05526C13.426 2.06426 13.4632 2.07434 13.5 2.08547Z" fill="#000"/>
<path d="M15 15C15.2761 15 15.5 14.7761 15.5 14.5C15.5 14.2239 15.2761 14 15 14H9C8.72386 14 8.5 14.2239 8.5 14.5C8.5 14.7761 8.72386 15 9 15H15Z" fill="#000"/>
<path fill-rule="evenodd" clip-rule="evenodd" d="M12.8068 1.50002C13.1243 1.49986 13.3642 1.49975 13.5956 1.55529C13.7996 1.60429 13.9947 1.68509 14.1737 1.79475C14.3765 1.91906 14.5461 2.08878 14.7705 2.31339L19.6866 7.22954C19.9113 7.45394 20.081 7.62349 20.2053 7.82635C20.3149 8.0053 20.3957 8.20039 20.4447 8.40446C20.5003 8.63581 20.5002 8.8757 20.5 9.1932L20.5 17.2222C20.5 18.0435 20.5 18.6905 20.4575 19.2111C20.4141 19.7423 20.3239 20.1859 20.1185 20.589C19.783 21.2476 19.2475 21.783 18.589 22.1186C18.1859 22.3239 17.7423 22.4141 17.2111 22.4575C16.6905 22.5 16.0435 22.5 15.2222 22.5H8.77778C7.95651 22.5 7.30954 22.5 6.78889 22.4575C6.25771 22.4141 5.81413 22.3239 5.41103 22.1186C4.75247 21.783 4.21703 21.2476 3.88148 20.589C3.67609 20.1859 3.58593 19.7423 3.54253 19.2111C3.49999 18.6905 3.5 18.0435 3.5 17.2222V6.77783C3.5 5.95656 3.49999 5.30957 3.54253 4.78892C3.58593 4.25774 3.67609 3.81417 3.88148 3.41106C4.21703 2.7525 4.75247 2.21707 5.41103 1.88151C5.81413 1.67612 6.25771 1.58596 6.78889 1.54256C7.30954 1.50003 7.95652 1.50003 8.77779 1.50003L12.8068 1.50002ZM12.7559 2.50003C12.853 2.50003 12.933 2.50023 13 2.5009V6.5C13 7.88071 14.1193 9 15.5 9H19.4991C19.4998 9.06698 19.5 9.147 19.5 9.24414V17.2C19.5 18.0484 19.4996 18.6545 19.4608 19.1297C19.4224 19.599 19.3491 19.8964 19.2275 20.135C18.9878 20.6054 18.6054 20.9879 18.135 21.2275C17.8963 21.3491 17.599 21.4225 17.1297 21.4608C16.6545 21.4996 16.0483 21.5 15.2 21.5H8.8C7.95167 21.5 7.34549 21.4996 6.87032 21.4608C6.40099 21.4225 6.10366 21.3491 5.86502 21.2275C5.39462 20.9879 5.01217 20.6054 4.77248 20.135C4.65089 19.8964 4.57756 19.599 4.53921 19.1297C4.50039 18.6545 4.5 18.0484 4.5 17.2V6.80003C4.5 5.9517 4.50039 5.34553 4.53921 4.87035C4.57756 4.40102 4.65089 4.10369 4.77248 3.86506C5.01217 3.39465 5.39462 3.0122 5.86502 2.77252C6.10366 2.65093 6.40099 2.57759 6.87032 2.53924C7.34549 2.50042 7.95167 2.50003 8.8 2.50003H12.7559ZM18.9435 7.90064L19.0426 8H15.5C14.6716 8 14 7.32843 14 6.5V2.95743L14.0994 3.05653L18.9435 7.90064Z" fill="#000"/>
</svg>
