<svg width="24" height="24" viewBox="0 0 24 24" fill="none" xmlns="http://www.w3.org/2000/svg">
<path opacity="0.4" d="M11.5 2.08547V6.5C11.5 7.60457 12.3954 8.5 13.5 8.5H17.9145C17.9257 8.53685 17.9357 8.57404 17.9447 8.61154C18 8.84171 18 9.0863 18 9.57548V14.3225C17.578 14.4481 17.2226 14.7286 17 15.0981C16.6938 14.5899 16.1366 14.25 15.5 14.25C15.0103 14.25 14.5677 14.4511 14.25 14.7752C13.9251 14.4436 13.4764 14.25 13 14.25H9.5C8.5335 14.25 7.75 15.0335 7.75 16C7.75 16.9665 8.5335 17.75 9.5 17.75H9.95319L7.98839 21.1182C7.8295 21.3906 7.75 21.6953 7.75 22H6.8C5.11984 22 4.27976 22 3.63803 21.673C3.07354 21.3854 2.6146 20.9265 2.32698 20.362C2 19.7202 2 18.8802 2 17.2V6.8C2 5.11984 2 4.27976 2.32698 3.63803C2.6146 3.07354 3.07354 2.6146 3.63803 2.32698C4.27976 2 5.11984 2 6.8 2H10.4245C10.9137 2 11.1583 2 11.3885 2.05526C11.426 2.06426 11.4632 2.07434 11.5 2.08547Z" fill="#000"/>
<path fill-rule="evenodd" clip-rule="evenodd" d="M11 2.5009C10.933 2.50023 10.853 2.50003 10.7559 2.50003H6.8C5.95167 2.50003 5.34549 2.50042 4.87032 2.53924C4.40099 2.57759 4.10366 2.65093 3.86502 2.77252C3.39462 3.0122 3.01217 3.39465 2.77248 3.86506C2.65089 4.10369 2.57756 4.40102 2.53921 4.87035C2.50039 5.34553 2.5 5.9517 2.5 6.80003V17.2C2.5 18.0484 2.50039 18.6545 2.53921 19.1297C2.57756 19.599 2.65089 19.8964 2.77248 20.135C3.01217 20.6054 3.39462 20.9879 3.86502 21.2275C4.10366 21.3491 4.40099 21.4225 4.87032 21.4608C5.34549 21.4996 5.95167 21.5 6.8 21.5H7.8229C7.72572 21.826 7.72568 22.1739 7.82291 22.5H6.77778C5.95651 22.5 5.30954 22.5 4.78889 22.4575C4.25771 22.4141 3.81413 22.3239 3.41103 22.1186C2.75247 21.783 2.21703 21.2476 1.88148 20.589C1.67609 20.1859 1.58593 19.7423 1.54253 19.2111C1.49999 18.6905 1.5 18.0435 1.5 17.2223V6.77783C1.5 5.95656 1.49999 5.30957 1.54253 4.78892C1.58593 4.25774 1.67609 3.81417 1.88148 3.41106C2.21703 2.7525 2.75247 2.21707 3.41103 1.88151C3.81413 1.67612 4.25771 1.58596 4.78889 1.54256C5.30954 1.50003 5.95652 1.50003 6.77779 1.50003L10.8068 1.50002C11.1243 1.49986 11.3642 1.49975 11.5956 1.55529C11.7996 1.60429 11.9947 1.68509 12.1737 1.79475C12.3765 1.91906 12.5461 2.08878 12.7705 2.31339L17.6866 7.22954C17.9113 7.45394 18.081 7.62349 18.2053 7.82635C18.3149 8.0053 18.3957 8.20039 18.4447 8.40446C18.5003 8.63581 18.5002 8.8757 18.5 9.1932L18.5 14.25C18.1282 14.25 17.7835 14.366 17.5 14.5637V9.24414C17.5 9.14702 17.4998 9.067 17.4991 9.00003H13.5C12.1193 9.00003 11 7.88074 11 6.50003V2.5009ZM17.0426 8.00003L16.9435 7.90064L12.0994 3.05653L12 2.95743V6.50003C12 7.32846 12.6716 8.00003 13.5 8.00003H17.0426Z" fill="#000"/>
<path d="M9.5 15.5001C9.22386 15.5001 9 15.7239 9 16.0001C9 16.2762 9.22386 16.5001 9.5 16.5001H12.1295L9.06811 21.7481C8.9779 21.9028 8.97726 22.0938 9.06643 22.2491C9.1556 22.4043 9.32097 22.5001 9.5 22.5001H13C13.2761 22.5001 13.5 22.2762 13.5 22.0001C13.5 21.7239 13.2761 21.5001 13 21.5001H10.3705L13.4319 16.252C13.5221 16.0974 13.5227 15.9063 13.4336 15.751C13.3444 15.5958 13.179 15.5001 13 15.5001H9.5Z" fill="#000"/>
<path d="M15.5 15.5001C15.7761 15.5001 16 15.7239 16 16.0001V22.0001C16 22.2762 15.7761 22.5001 15.5 22.5001C15.2239 22.5001 15 22.2762 15 22.0001V16.0001C15 15.7239 15.2239 15.5001 15.5 15.5001Z" fill="#000"/>
<path fill-rule="evenodd" clip-rule="evenodd" d="M18.5 15.5001C18.2239 15.5001 18 15.7239 18 16.0001V22.0001C18 22.2762 18.2239 22.5001 18.5 22.5001C18.7761 22.5001 19 22.2762 19 22.0001V20.0001H20.25C21.4926 20.0001 22.5 18.9927 22.5 17.7501C22.5 16.5074 21.4926 15.5001 20.25 15.5001H18.5ZM20.25 19.0001H19V16.5001H20.25C20.9404 16.5001 21.5 17.0597 21.5 17.7501C21.5 18.4404 20.9404 19.0001 20.25 19.0001Z" fill="#000"/>
</svg>
