<svg width="24" height="24" viewBox="0 0 24 24" fill="none" xmlns="http://www.w3.org/2000/svg">
<path opacity="0.4" d="M8 2H16V22H8V2Z" fill="#000"/>
<path fill-rule="evenodd" clip-rule="evenodd" d="M7.5 1.5C6.57588 1.50003 5.84817 1.50133 5.26049 1.54935C4.64594 1.59956 4.14062 1.70334 3.68404 1.93597C2.93139 2.31947 2.31947 2.93139 1.93597 3.68404C1.70333 4.14062 1.59956 4.64594 1.54935 5.26049C1.51077 5.7326 1.50235 6.29509 1.50051 6.97717C1.50017 6.98474 1.5 6.99235 1.5 7C1.5 7.0068 1.50014 7.01357 1.5004 7.0203C1.5 7.19785 1.5 7.38343 1.5 7.57754V15.99L1.50002 15.995L1.5 16V16.4225C1.5 16.6166 1.5 16.8021 1.5004 16.9797C1.50014 16.9864 1.5 16.9932 1.5 17C1.5 17.0077 1.50017 17.0153 1.50051 17.0228C1.50235 17.7049 1.51077 18.2674 1.54935 18.7395C1.59956 19.3541 1.70333 19.8594 1.93597 20.316C2.31947 21.0686 2.93139 21.6805 3.68404 22.064C4.14062 22.2967 4.64594 22.4004 5.26049 22.4507C5.84817 22.4987 6.57588 22.5 7.5 22.5H16.5C17.4241 22.5 18.1518 22.4987 18.7395 22.4507C19.3541 22.4004 19.8594 22.2967 20.316 22.064C21.0686 21.6805 21.6805 21.0686 22.064 20.316C22.2967 19.8594 22.4004 19.3541 22.4507 18.7395C22.4892 18.2674 22.4977 17.7049 22.4995 17.0228C22.4998 17.0153 22.5 17.0077 22.5 17C22.5 16.9932 22.4999 16.9864 22.4996 16.9797C22.5 16.8021 22.5 16.6166 22.5 16.4224V7.57485C22.5 7.38171 22.5 7.19703 22.4996 7.0203C22.4999 7.01357 22.5 7.0068 22.5 7C22.5 6.99235 22.4998 6.98474 22.4995 6.97717C22.4977 6.29509 22.4892 5.7326 22.4507 5.26049C22.4004 4.64594 22.2967 4.14062 22.064 3.68404C21.6805 2.93139 21.0686 2.31947 20.316 1.93597C19.8594 1.70334 19.3541 1.59956 18.7395 1.54935C18.1518 1.50133 17.4241 1.50003 16.5 1.5H7.5ZM21.5 16.5C21.5 16.467 21.5 16.4337 21.5 16.4V12.5H16.5V16.5H21.5ZM15.5 12.5H8.5V21.5H15.5V12.5ZM16.5 17.5H21.4966C21.4918 17.9545 21.4806 18.3322 21.454 18.6581C21.4088 19.2108 21.3219 19.5699 21.173 19.862C20.8854 20.4265 20.4265 20.8854 19.862 21.173C19.5699 21.3219 19.2108 21.4088 18.6581 21.454C18.1185 21.4981 17.4366 21.4999 16.5 21.5V17.5ZM2.54602 18.6581C2.5194 18.3322 2.50818 17.9545 2.50345 17.5H7.5V21.5C6.5634 21.4999 5.88145 21.4981 5.34192 21.454C4.78921 21.4088 4.43014 21.3219 4.13803 21.173C3.57354 20.8854 3.1146 20.4265 2.82698 19.862C2.67814 19.5699 2.59118 19.2108 2.54602 18.6581ZM2.5 16.5H7.5V12.5H2.5V15.99L2.49998 15.995L2.5 16L2.5 16.5ZM21.5 11.5L21.5 7.5H16.5V11.5H21.5ZM15.5 11.5V2.5H8.5V11.5H15.5ZM7.5 11.5V7.5H2.5L2.5 11.5H7.5ZM21.454 5.34192C21.4806 5.66776 21.4918 6.04555 21.4966 6.5H16.5V2.5C17.4366 2.50008 18.1185 2.50194 18.6581 2.54602C19.2108 2.59118 19.5699 2.67814 19.862 2.82698C20.4265 3.1146 20.8854 3.57354 21.173 4.13803C21.3219 4.43014 21.4088 4.78921 21.454 5.34192ZM7.5 6.5H2.50345C2.50818 6.04555 2.5194 5.66776 2.54602 5.34192C2.59118 4.78921 2.67814 4.43014 2.82698 4.13803C3.1146 3.57354 3.57354 3.1146 4.13803 2.82698C4.43014 2.67814 4.78921 2.59118 5.34192 2.54602C5.88145 2.50194 6.5634 2.50008 7.5 2.5V6.5Z" fill="#000"/>
</svg>
