<svg width="24" height="24" viewBox="0 0 24 24" fill="none" xmlns="http://www.w3.org/2000/svg">
<path opacity="0.4" d="M4.12132 2H19.8787C21.0503 2 22 2.94975 22 4.12132C22 4.68393 21.7765 5.2235 21.3787 5.62132L14.9393 12.0607C14.658 12.342 14.5 12.7235 14.5 13.1213V22L9.87531 18.3002C9.63809 18.1105 9.5 17.8232 9.5 17.5194V13.1213C9.5 12.7235 9.34196 12.342 9.06066 12.0607L2.62132 5.62132C2.2235 5.2235 2 4.68393 2 4.12132C2 2.94975 2.94975 2 4.12132 2Z" fill="#000"/>
<path fill-rule="evenodd" clip-rule="evenodd" d="M1.5 4.12132C1.5 2.6736 2.67361 1.5 4.12132 1.5H19.8787C21.3264 1.5 22.5 2.6736 22.5 4.12132C22.5 4.81654 22.2238 5.48328 21.7322 5.97487L15.2929 12.4142C15.1054 12.6017 15 12.8561 15 13.1213V22C15 22.1922 14.8898 22.3674 14.7166 22.4507C14.5434 22.5339 14.3377 22.5105 14.1877 22.3904L9.56296 18.6907C9.20714 18.406 9 17.9751 9 17.5194V13.1213C9 12.8561 8.89464 12.6017 8.70711 12.4142L2.26777 5.97487C1.77617 5.48328 1.5 4.81654 1.5 4.12132ZM4.12132 2.5C3.22589 2.5 2.5 3.22589 2.5 4.12132C2.5 4.55132 2.67082 4.96371 2.97487 5.26777L9.41421 11.7071C9.78929 12.0822 10 12.5909 10 13.1213V17.5194C10 17.6713 10.069 17.8149 10.1877 17.9098L14 20.9597V13.1213C14 12.5909 14.2107 12.0822 14.5858 11.7071L21.0251 5.26777C21.3292 4.96371 21.5 4.55132 21.5 4.12132C21.5 3.22589 20.7741 2.5 19.8787 2.5H4.12132Z" fill="#000"/>
</svg>
