<svg width="24" height="24" viewBox="0 0 24 24" fill="none" xmlns="http://www.w3.org/2000/svg">
<path opacity="0.4" d="M8 10C8 7.79086 9.79086 6 12 6C14.2091 6 16 7.79086 16 10V18C16 20.2091 14.2091 22 12 22C9.79086 22 8 20.2091 8 18V10Z" fill="#000"/>
<path d="M5.98959 4.09945C7.58365 2.5054 9.74566 1.60986 12 1.60986C13.9403 1.60986 15.8122 2.27329 17.3125 3.47452C17.5281 3.64712 17.5629 3.96178 17.3903 4.17734C17.2177 4.3929 16.903 4.42773 16.6875 4.25513C15.3637 3.19523 13.712 2.60986 12 2.60986C10.0109 2.60986 8.10322 3.40004 6.6967 4.80656C5.29018 6.21308 4.5 8.12074 4.5 10.1099V17C4.5 17.2761 4.27614 17.5 4 17.5C3.72386 17.5 3.5 17.2761 3.5 17V10.1099C3.5 7.85552 4.39553 5.69351 5.98959 4.09945Z" fill="#000"/>
<path d="M8.81802 6.81802C9.66193 5.97411 10.8065 5.5 12 5.5C13.1935 5.5 14.3381 5.97411 15.182 6.81802C16.0259 7.66193 16.5 8.80653 16.5 10V18.1099C16.5 19.3033 16.0259 20.4479 15.182 21.2918C14.3381 22.1358 13.1935 22.6099 12 22.6099C11.7239 22.6099 11.5 22.386 11.5 22.1099C11.5 21.8337 11.7239 21.6099 12 21.6099C12.9283 21.6099 13.8185 21.2411 14.4749 20.5847C15.1313 19.9284 15.5 19.0381 15.5 18.1099V10C15.5 9.07174 15.1313 8.1815 14.4749 7.52513C13.8185 6.86875 12.9283 6.5 12 6.5C11.0717 6.5 10.1815 6.86875 9.52513 7.52513C8.86875 8.1815 8.5 9.07174 8.5 10V11.1099C8.5 11.386 8.27614 11.6099 8 11.6099C7.72386 11.6099 7.5 11.386 7.5 11.1099V10C7.5 8.80653 7.97411 7.66193 8.81802 6.81802Z" fill="#000"/>
<path d="M19.621 7.62574C19.8883 7.5567 20.1611 7.71748 20.2301 7.98485C20.4079 8.67324 20.5 9.38683 20.5 10.1099V18.1099C20.5 18.386 20.2761 18.6099 20 18.6099C19.7239 18.6099 19.5 18.386 19.5 18.1099V10.1099C19.5 9.47184 19.4187 8.84224 19.2619 8.23488C19.1928 7.9675 19.3536 7.69479 19.621 7.62574Z" fill="#000"/>
<path d="M12 9.5C12.2761 9.5 12.5 9.72386 12.5 10L12.5 18.1099C12.5 18.386 12.2761 18.6099 12 18.6099C11.7239 18.6099 11.5 18.386 11.5 18.1099L11.5 10C11.5 9.72386 11.7239 9.5 12 9.5Z" fill="#000"/>
<path d="M8 15.1099C8.27614 15.1099 8.5 15.3337 8.5 15.6099V18.1099C8.5 18.386 8.27614 18.6099 8 18.6099C7.72386 18.6099 7.5 18.386 7.5 18.1099V15.6099C7.5 15.3337 7.72386 15.1099 8 15.1099Z" fill="#000"/>
</svg>
