<svg width="24" height="24" viewBox="0 0 24 24" fill="none" xmlns="http://www.w3.org/2000/svg">
<path opacity="0.4" d="M12.5 2C16 4.5 20.0001 8.5 20.0001 14C20.0001 18.4183 17 22 12 22C13.3333 22 16 20.8235 16 17.8824C16 14.9412 12 12 12 12C12 12 8 14.9412 8 17.8824C8 20.8235 10.6667 22 12 22C7.00001 22 4 18.4183 4 14.0001C4 10.7151 5.74856 7.7148 7.5 5.5C8.5 5.5 9.5 7 9.5 7L12.5 2Z" fill="#000"/>
<path d="M20.5 14.0002C20.5 9.42124 17.906 5.24724 12.791 1.59324C12.678 1.51224 12.538 1.48224 12.398 1.51024C12.262 1.53924 12.143 1.62324 12.071 1.74224L9.444 6.12124C8.996 5.62124 8.281 4.99924 7.5 4.99924C7.347 4.99924 7.203 5.06924 7.108 5.18924C4.714 8.21724 3.5 11.1812 3.5 14.0002C3.5 19.0052 6.995 22.5002 12 22.5002H12.003C17.006 22.4982 20.5 19.0042 20.5 14.0002ZM12.003 21.5002H12C11.065 21.5002 8.5 20.6422 8.5 17.8822C8.5 15.6742 11.107 13.3622 12 12.6352C12.894 13.3612 15.5 15.6692 15.5 17.8822C15.5 20.6402 12.939 21.4982 12.002 21.5002H12.003ZM15.529 20.7252C16.105 20.0152 16.5 19.0782 16.5 17.8822C16.5 14.7242 12.468 11.7232 12.296 11.5972C12.119 11.4672 11.88 11.4672 11.703 11.5972C11.532 11.7232 7.499 14.7242 7.499 17.8822C7.499 19.0782 7.895 20.0152 8.471 20.7262C6.029 19.5482 4.499 17.1062 4.499 14.0002C4.499 11.4812 5.58 8.80424 7.713 6.03824C8.23 6.20824 8.838 6.91324 9.083 7.27824C9.178 7.42024 9.34 7.50924 9.511 7.50024C9.682 7.49624 9.84 7.40424 9.928 7.25824L12.647 2.72724C17.195 6.10324 19.5 9.89424 19.5 14.0012C19.5 17.1072 17.971 19.5482 15.529 20.7272V20.7252Z" fill="#000"/>
</svg>
