<svg width="24" height="24" viewBox="0 0 24 24" fill="none" xmlns="http://www.w3.org/2000/svg">
<path opacity="0.4" d="M18.6972 21.9993H5.30278C4.03099 21.9993 3 20.9683 3 19.6966C3 19.2419 3.13457 18.7975 3.38675 18.4192L5.62085 15.068C5.88134 14.6773 6.01159 14.4819 6.18367 14.3405C6.33601 14.2153 6.51155 14.1214 6.70023 14.0641C6.91336 13.9993 7.14817 13.9993 7.61777 13.9993H16.3822C16.8518 13.9993 17.0866 13.9993 17.2998 14.0641C17.4885 14.1214 17.664 14.2153 17.8163 14.3405C17.9884 14.4819 18.1187 14.6773 18.3791 15.068L20.6132 18.4192C20.8654 18.7975 21 19.2419 21 19.6966C21 20.9683 19.969 21.9993 18.6972 21.9993Z" fill="#000"/>
<path fill-rule="evenodd" clip-rule="evenodd" d="M15.5 8.7889V2.5H16.5C16.7761 2.5 17 2.27614 17 2C17 1.72386 16.7761 1.5 16.5 1.5H7.5C7.22386 1.5 7 1.72386 7 2C7 2.27614 7.22386 2.5 7.5 2.5H8.5V8.7889C8.5 9.25627 8.49822 9.42993 8.46896 9.59404C8.44142 9.74858 8.39577 9.89935 8.33296 10.0432C8.26627 10.196 8.17143 10.3415 7.91218 10.7303L2.97073 18.1425C2.66379 18.6029 2.5 19.1439 2.5 19.6972C2.5 21.2452 3.75485 22.5 5.30278 22.5H18.6972C20.2452 22.5 21.5 21.2452 21.5 19.6972C21.5 19.1439 21.3362 18.6029 21.0293 18.1425L16.0878 10.7303C15.8286 10.3415 15.7337 10.196 15.667 10.0432C15.6042 9.89935 15.5586 9.74858 15.531 9.59404C15.5018 9.42993 15.5 9.25627 15.5 8.7889ZM9.5 2.5L9.5 8.83353C9.50006 9.24108 9.5001 9.50778 9.45344 9.76952C9.41212 10.0013 9.34365 10.2275 9.24944 10.4433C9.14308 10.687 8.99511 10.9088 8.769 11.2479L7.26759 13.5H16.7324L15.231 11.2479C15.0049 10.9088 14.8569 10.687 14.7506 10.4433C14.6563 10.2275 14.5879 10.0013 14.5466 9.76952C14.4999 9.50778 14.4999 9.24109 14.5 8.83354L14.5 2.5H9.5ZM17.3991 14.5H6.60093L3.80278 18.6972C3.60535 18.9934 3.5 19.3413 3.5 19.6972C3.5 20.6929 4.30713 21.5 5.30278 21.5H18.6972C19.6929 21.5 20.5 20.6929 20.5 19.6972C20.5 19.3413 20.3946 18.9934 20.1972 18.6972L17.3991 14.5Z" fill="#000"/>
</svg>
