<svg width="24" height="24" viewBox="0 0 24 24" fill="none" xmlns="http://www.w3.org/2000/svg">
<path opacity="0.4" d="M2.32698 3.63803C2 4.27976 2 5.11984 2 6.8V17.2C2 18.8802 2 19.7202 2.32698 20.362C2.6146 20.9265 3.07354 21.3854 3.63803 21.673C4.24038 21.9799 5.01747 21.9988 6.5 21.9999V15C6.5 14.1716 7.17157 13.5 8 13.5H16C16.8284 13.5 17.5 14.1716 17.5 15V21.9999C18.9825 21.9988 19.7596 21.9799 20.362 21.673C20.9265 21.3854 21.3854 20.9265 21.673 20.362C22 19.7202 22 18.8802 22 17.2V8.32548C22 7.8363 22 7.59171 21.9447 7.36154C21.8957 7.15746 21.8149 6.96237 21.7053 6.78343C21.5816 6.5816 21.4086 6.40865 21.0627 6.06274L17.9373 2.93726C17.5914 2.59135 17.4184 2.4184 17.2166 2.29472C17.0376 2.18506 16.8425 2.10425 16.6385 2.05526C16.4083 2 16.1637 2 15.6745 2H6.8C5.11984 2 4.27976 2 3.63803 2.32698C3.07354 2.6146 2.6146 3.07354 2.32698 3.63803Z" fill="#000"/>
<path d="M14.5 7C14.7761 7 15 7.22386 15 7.5C15 7.77614 14.7761 8 14.5 8L9.5 8C9.22386 8 9 7.77614 9 7.5C9 7.22386 9.22386 7 9.5 7L14.5 7Z" fill="#000"/>
<path fill-rule="evenodd" clip-rule="evenodd" d="M4.78889 22.4575C5.24782 22.495 5.80489 22.4994 6.49295 22.5L6.5 22.5H17.5L17.507 22.5C18.1951 22.4994 18.7522 22.495 19.2111 22.4575C19.7423 22.4141 20.1859 22.3239 20.589 22.1185C21.2475 21.783 21.783 21.2476 22.1185 20.589C22.3239 20.1859 22.4141 19.7423 22.4575 19.2111C22.5 18.6905 22.5 18.0435 22.5 17.2222L22.5 8.26852C22.5001 7.83415 22.5002 7.53348 22.4309 7.24484C22.3697 6.98974 22.2687 6.74588 22.1316 6.5222C21.9765 6.26909 21.7638 6.05655 21.4566 5.74949L18.2505 2.54343C17.9435 2.2362 17.7309 2.02353 17.4778 1.86842C17.2541 1.73135 17.0103 1.63034 16.7552 1.5691C16.4665 1.4998 16.1659 1.49988 15.7315 1.50001L6.77779 1.50002C5.95652 1.50002 5.30954 1.50002 4.78889 1.54255C4.25771 1.58595 3.81413 1.67611 3.41103 1.8815C2.75247 2.21706 2.21703 2.75249 1.88148 3.41105C1.67609 3.81416 1.58593 4.25773 1.54253 4.78891C1.49999 5.30957 1.5 5.95654 1.5 6.77781V17.2222C1.5 18.0435 1.49999 18.6905 1.54253 19.2111C1.58593 19.7423 1.67609 20.1859 1.88148 20.589C2.21703 21.2476 2.75247 21.783 3.41103 22.1185C3.81413 22.3239 4.25771 22.4141 4.78889 22.4575ZM16.5217 2.54147C16.3625 2.50323 16.1875 2.50002 15.6745 2.50002H6.8C5.95167 2.50002 5.34549 2.50041 4.87032 2.53923C4.40099 2.57758 4.10366 2.65092 3.86502 2.77251C3.39462 3.01219 3.01217 3.39464 2.77248 3.86505C2.65089 4.10368 2.57756 4.40101 2.53921 4.87034C2.50039 5.34552 2.5 5.95169 2.5 6.80002V17.2C2.5 18.0483 2.50039 18.6545 2.53921 19.1297C2.57756 19.599 2.65089 19.8964 2.77248 20.135C3.01217 20.6054 3.39462 20.9879 3.86502 21.2275C4.10366 21.3491 4.40099 21.4225 4.87032 21.4608C5.18067 21.4862 5.54691 21.4951 6 21.4983V15C6 13.8954 6.89543 13 8 13H16C17.1046 13 18 13.8954 18 15V21.4983C18.4531 21.4951 18.8193 21.4862 19.1297 21.4608C19.599 21.4225 19.8963 21.3491 20.135 21.2275C20.6054 20.9879 20.9878 20.6054 21.2275 20.135C21.3491 19.8964 21.4224 19.599 21.4608 19.1297C21.4996 18.6545 21.5 18.0483 21.5 17.2V8.3255C21.5 7.81252 21.4968 7.63753 21.4586 7.47828C21.4218 7.32523 21.3612 7.17891 21.279 7.0447C21.1934 6.90506 21.0719 6.77905 20.7092 6.41632L17.5837 3.29083C17.221 2.9281 17.095 2.80663 16.9553 2.72106C16.8211 2.63882 16.6748 2.57821 16.5217 2.54147ZM8 14C7.44772 14 7 14.4477 7 15V21.5H17V15C17 14.4477 16.5523 14 16 14H8Z" fill="#000"/>
</svg>
