<svg width="24" height="24" viewBox="0 0 24 24" fill="none" xmlns="http://www.w3.org/2000/svg">
<path opacity="0.4" d="M2 16.1V7.9C2 6.35986 2 5.58978 2.29973 5.00153C2.56338 4.48408 2.98408 4.06338 3.50153 3.79973C4.08978 3.5 4.85986 3.5 6.4 3.5H8.50589C8.87277 3.5 9.05622 3.5 9.22885 3.54145C9.3819 3.57819 9.52822 3.6388 9.66243 3.72104C9.8138 3.8138 9.94352 3.94352 10.2029 4.20294L10.7971 4.79706C11.0565 5.05647 11.1862 5.1862 11.3376 5.27896C11.4718 5.3612 11.6181 5.42181 11.7712 5.45855C11.9438 5.5 12.1272 5.5 12.4941 5.5H17.6C19.1401 5.5 19.9102 5.5 20.4985 5.79973C21.0159 6.06338 21.4366 6.48408 21.7003 7.00153C22 7.58978 22 8.35986 22 9.9V16.1C22 17.6401 22 18.4102 21.7003 18.9985C21.4366 19.5159 21.0159 19.9366 20.4985 20.2003C19.9102 20.5 19.1401 20.5 17.6 20.5H6.4C4.85986 20.5 4.08978 20.5 3.50153 20.2003C2.98408 19.9366 2.56338 19.5159 2.29973 18.9985C2 18.4102 2 17.6401 2 16.1Z" fill="#000"/>
<path d="M15.5 13C15.5 13.2761 15.2761 13.5 15 13.5H12.5V16C12.5 16.2761 12.2761 16.5 12 16.5C11.7239 16.5 11.5 16.2761 11.5 16V13.5H9C8.72386 13.5 8.5 13.2761 8.5 13C8.5 12.7239 8.72386 12.5 9 12.5H11.5V10C11.5 9.72386 11.7239 9.5 12 9.5C12.2761 9.5 12.5 9.72386 12.5 10V12.5H15C15.2761 12.5 15.5 12.7239 15.5 13Z" fill="#000"/>
<path fill-rule="evenodd" clip-rule="evenodd" d="M8.55683 3.00002C8.87433 2.99986 9.11422 2.99975 9.34557 3.05529C9.54964 3.10429 9.74473 3.18509 9.92368 3.29475C10.1265 3.41907 10.2961 3.58878 10.5205 3.81339L11.1506 4.44353C11.4269 4.71979 11.5096 4.79802 11.5988 4.85267C11.6883 4.9075 11.7858 4.9479 11.8879 4.9724C11.9896 4.99682 12.1034 5.00003 12.4941 5.00003H17.6221C18.3734 5.00003 18.9679 5.00002 19.4469 5.03916C19.9364 5.07915 20.3491 5.16249 20.7255 5.35426C21.337 5.66585 21.8342 6.16304 22.1458 6.77456C22.3375 7.15092 22.4209 7.56363 22.4609 8.05312C22.5 8.53207 22.5 9.12653 22.5 9.87787V16.1221C22.5 16.8734 22.5 17.468 22.4609 17.9469C22.4209 18.4364 22.3375 18.8491 22.1458 19.2255C21.8342 19.837 21.337 20.3342 20.7255 20.6458C20.3491 20.8376 19.9364 20.9209 19.4469 20.9609C18.968 21 18.3735 21 17.6222 21H6.37793C5.62659 21 5.03204 21 4.55309 20.9609C4.0636 20.9209 3.65089 20.8376 3.27453 20.6458C2.663 20.3342 2.16582 19.837 1.85423 19.2255C1.66246 18.8491 1.57912 18.4364 1.53913 17.9469C1.49999 17.468 1.5 16.8735 1.5 16.1221V7.87798C1.5 7.12659 1.49999 6.53209 1.53913 6.05312C1.57912 5.56363 1.66246 5.15093 1.85423 4.77456C2.16582 4.16304 2.663 3.66585 3.27453 3.35426C3.65089 3.16249 4.0636 3.07915 4.55309 3.03916C5.03206 3.00002 5.62655 3.00003 6.37794 3.00003L8.55683 3.00002ZM9.11212 4.02766C9.01042 4.00324 8.89657 4.00003 8.50589 4.00003H6.4C5.62168 4.00003 5.06801 4.00042 4.63452 4.03584C4.20687 4.07078 3.94042 4.1373 3.72852 4.24527C3.30516 4.46098 2.96095 4.80519 2.74524 5.22855C2.63727 5.44045 2.57075 5.70691 2.53581 6.13455C2.50039 6.56804 2.5 7.12171 2.5 7.90003V16.1C2.5 16.8784 2.50039 17.432 2.53581 17.8655C2.57075 18.2932 2.63727 18.5596 2.74524 18.7715C2.96095 19.1949 3.30516 19.5391 3.72852 19.7548C3.94042 19.8628 4.20687 19.9293 4.63452 19.9642C5.06801 19.9996 5.62168 20 6.4 20H17.6C18.3783 20 18.932 19.9996 19.3655 19.9642C19.7931 19.9293 20.0596 19.8628 20.2715 19.7548C20.6948 19.5391 21.039 19.1949 21.2548 18.7715C21.3627 18.5596 21.4293 18.2932 21.4642 17.8655C21.4996 17.432 21.5 16.8784 21.5 16.1V9.90003C21.5 9.12171 21.4996 8.56804 21.4642 8.13455C21.4293 7.7069 21.3627 7.44045 21.2548 7.22855C21.039 6.80519 20.6948 6.46098 20.2715 6.24527C20.0596 6.1373 19.7931 6.07078 19.3655 6.03584C18.932 6.00042 18.3783 6.00003 17.6 6.00003L12.4432 6.00005C12.1257 6.0002 11.8858 6.00031 11.6544 5.94477C11.4504 5.89578 11.2553 5.81497 11.0763 5.70531C10.8735 5.581 10.7039 5.41129 10.4795 5.18667L9.84939 4.55653C9.57313 4.28027 9.49036 4.20204 9.40118 4.14739C9.31171 4.09256 9.21416 4.05216 9.11212 4.02766Z" fill="#000"/>
</svg>
