<svg width="24" height="24" viewBox="0 0 24 24" fill="none" xmlns="http://www.w3.org/2000/svg">
<path opacity="0.4" d="M2 16.1V7.9C2 6.35986 2 5.58978 2.29973 5.00153C2.56338 4.48408 2.98408 4.06338 3.50153 3.79973C4.08978 3.5 4.85986 3.5 6.4 3.5H8.50589C8.87277 3.5 9.05622 3.5 9.22885 3.54145C9.3819 3.57819 9.52822 3.6388 9.66243 3.72104C9.8138 3.8138 9.94352 3.94352 10.2029 4.20294L10.7971 4.79706C11.0565 5.05647 11.1862 5.1862 11.3376 5.27896C11.4718 5.3612 11.6181 5.42181 11.7712 5.45855C11.9438 5.5 12.1272 5.5 12.4941 5.5H17.6C19.1401 5.5 19.9102 5.5 20.4985 5.79973C21.0159 6.06338 21.4366 6.48408 21.7003 7.00153C22 7.58978 22 8.35986 22 9.9V16.1C22 17.6401 22 18.4102 21.7003 18.9985C21.4366 19.5159 21.0159 19.9366 20.4985 20.2003C19.9102 20.5 19.1401 20.5 17.6 20.5H6.4C4.85986 20.5 4.08978 20.5 3.50153 20.2003C2.98408 19.9366 2.56338 19.5159 2.29973 18.9985C2 18.4102 2 17.6401 2 16.1Z" fill="#000"/>
<path d="M12 17.0001C11.7239 17.0001 11.5 16.7763 11.5 16.5001L11.5 10.7072L9.35355 12.8537C9.15829 13.0489 8.84171 13.0489 8.64645 12.8537C8.45118 12.6584 8.45118 12.3418 8.64645 12.1466L11.6464 9.14657C11.7402 9.0528 11.8674 9.00012 12 9.00012C12.1326 9.00012 12.2598 9.0528 12.3536 9.14657L15.3536 12.1466C15.5488 12.3418 15.5488 12.6584 15.3536 12.8537C15.1583 13.0489 14.8417 13.0489 14.6464 12.8537L12.5 10.7072L12.5 16.5001C12.5 16.7763 12.2761 17.0001 12 17.0001Z" fill="#000"/>
<path fill-rule="evenodd" clip-rule="evenodd" d="M8.55683 3.00014C8.87433 2.99999 9.11422 2.99987 9.34557 3.05541C9.54964 3.10441 9.74473 3.18522 9.92368 3.29487C10.1265 3.41919 10.2961 3.5889 10.5205 3.81352L11.1506 4.44366C11.4269 4.71991 11.5096 4.79814 11.5988 4.85279C11.6883 4.90762 11.7858 4.94803 11.8879 4.97252C11.9896 4.99694 12.1034 5.00015 12.4941 5.00015L17.6221 5.00015C18.3734 5.00015 18.968 5.00015 19.4469 5.03928C19.9364 5.07927 20.3491 5.16262 20.7255 5.35438C21.337 5.66597 21.8342 6.16316 22.1458 6.77468C22.3375 7.15105 22.4209 7.56375 22.4609 8.05324C22.5 8.53219 22.5 9.12665 22.5 9.87798V16.1222C22.5 16.8736 22.5 17.4681 22.4609 17.9471C22.4209 18.4366 22.3375 18.8493 22.1458 19.2256C21.8342 19.8372 21.337 20.3343 20.7255 20.6459C20.3491 20.8377 19.9364 20.921 19.4469 20.961C18.968 21.0002 18.3735 21.0002 17.6222 21.0002H6.37793C5.62658 21.0002 5.03205 21.0002 4.55309 20.961C4.0636 20.921 3.65089 20.8377 3.27453 20.6459C2.663 20.3343 2.16582 19.8372 1.85423 19.2256C1.66246 18.8493 1.57912 18.4366 1.53913 17.9471C1.49999 17.4681 1.5 16.8736 1.5 16.1223L1.5 7.8781C1.5 7.12671 1.49999 6.53222 1.53913 6.05324C1.57912 5.56375 1.66246 5.15105 1.85423 4.77468C2.16582 4.16316 2.663 3.66597 3.27453 3.35438C3.65089 3.16262 4.0636 3.07927 4.55309 3.03928C5.03206 3.00015 5.62656 3.00015 6.37795 3.00015L8.55683 3.00014ZM9.11213 4.02778C9.01042 4.00337 8.89657 4.00015 8.50589 4.00015L6.4 4.00015C5.62168 4.00015 5.06801 4.00054 4.63452 4.03596C4.20688 4.0709 3.94042 4.13742 3.72852 4.24539C3.30516 4.4611 2.96095 4.80531 2.74524 5.22867C2.63727 5.44057 2.57075 5.70703 2.53581 6.13467C2.50039 6.56816 2.5 7.12183 2.5 7.90015L2.5 16.1002C2.5 16.8785 2.50039 17.4321 2.53581 17.8656C2.57075 18.2933 2.63727 18.5597 2.74524 18.7716C2.96095 19.195 3.30516 19.5392 3.72852 19.7549C3.94042 19.8629 4.20687 19.9294 4.63452 19.9643C5.06801 19.9998 5.62168 20.0002 6.4 20.0002H17.6C18.3783 20.0002 18.932 19.9998 19.3655 19.9643C19.7931 19.9294 20.0596 19.8629 20.2715 19.7549C20.6948 19.5392 21.039 19.195 21.2548 18.7716C21.3627 18.5597 21.4293 18.2933 21.4642 17.8656C21.4996 17.4321 21.5 16.8785 21.5 16.1002V9.90015C21.5 9.12183 21.4996 8.56816 21.4642 8.13467C21.4293 7.70703 21.3627 7.44057 21.2548 7.22867C21.039 6.80531 20.6948 6.4611 20.2715 6.24539C20.0596 6.13742 19.7931 6.0709 19.3655 6.03596C18.932 6.00054 18.3783 6.00015 17.6 6.00015L12.4432 6.00017C12.1257 6.00032 11.8858 6.00043 11.6544 5.94489C11.4504 5.8959 11.2553 5.81509 11.0763 5.70543C10.8735 5.58112 10.7039 5.41141 10.4795 5.18679L9.84939 4.55665C9.57313 4.28039 9.49036 4.20216 9.40118 4.14751C9.31171 4.09268 9.21416 4.05228 9.11213 4.02778Z" fill="#000"/>
</svg>
