<svg width="24" height="24" viewBox="0 0 24 24" fill="none" xmlns="http://www.w3.org/2000/svg">
<g opacity="0.4">
<path d="M16.9342 1.61239C17.133 1.45037 17.4222 1.46508 17.6036 1.64645L22.3536 6.39645C22.5349 6.57781 22.5497 6.867 22.3876 7.06584L19.5676 10.5268C17.9466 12.5162 14.9611 12.6682 13.1465 10.8536C11.3319 9.03894 11.4838 6.05345 13.4732 4.43242L16.9342 1.61239Z" fill="#000"/>
<path d="M10.5 10.5001L7.00005 14.0001L5.70419 12.7042C3.33244 10.3324 2 7.11565 2 3.76149C2 3.11146 2.78591 2.78592 3.24556 3.24556L10.5 10.5001Z" fill="#000"/>
<path d="M10.7929 17.7929L10 17.0001L13.5 13.5001L15 15L12.2071 17.7929C11.8166 18.1834 11.1834 18.1834 10.7929 17.7929Z" fill="#000"/>
</g>
<path d="M17.5659 2.38763C17.7799 2.2132 17.8121 1.89825 17.6376 1.68418C17.4632 1.4701 17.1483 1.43797 16.9342 1.6124L13.4732 4.43244C11.615 5.94653 11.3599 8.651 12.813 10.4799L1.64645 21.6462C1.45119 21.8415 1.45118 22.1581 1.64644 22.3533C1.8417 22.5486 2.15829 22.5486 2.35355 22.3533L13.5201 11.187C15.349 12.6401 18.0535 12.385 19.5676 10.5268L22.3876 7.06585C22.5621 6.85178 22.5299 6.53683 22.3159 6.3624C22.1018 6.18797 21.7868 6.2201 21.6124 6.43418L18.7924 9.89514C17.5456 11.4253 15.2493 11.5422 13.8536 10.1465C12.4579 8.75076 12.5747 6.45448 14.1049 5.20767L17.5659 2.38763Z" fill="#000"/>
<path d="M2.5 3.76139C2.5 3.55681 2.74734 3.45436 2.892 3.59902L10.1465 10.8535L10.8536 10.1464L3.59911 2.89191C2.82448 2.11729 1.5 2.66591 1.5 3.76139C1.5 7.24817 2.88512 10.5921 5.35064 13.0577L6.64649 14.3535L7.3536 13.6464L6.05775 12.3505C3.77976 10.0726 2.5 6.98295 2.5 3.76139Z" fill="#000"/>
<path d="M10.3536 16.6464L9.64649 17.3535L10.4393 18.1464C11.0251 18.7321 11.9749 18.7321 12.5607 18.1464L15 15.707L21.6464 22.3535C21.8417 22.5487 22.1583 22.5487 22.3536 22.3535C22.5488 22.1582 22.5488 21.8416 22.3536 21.6464L13.8536 13.1464L13.1465 13.8535L14.2929 14.9999L11.8536 17.4392C11.6583 17.6345 11.3417 17.6345 11.1464 17.4392L10.3536 16.6464Z" fill="#000"/>
<path d="M18.7415 3.59114C18.9371 3.78607 18.9377 4.10265 18.7428 4.29825L15.5539 7.49825C15.359 7.69385 15.0424 7.6944 14.8468 7.49948C14.6512 7.30456 14.6506 6.98798 14.8455 6.79237L18.0344 3.59237C18.2294 3.39677 18.5459 3.39622 18.7415 3.59114Z" fill="#000"/>
<path d="M20.4098 5.96427C20.6047 5.76866 20.6041 5.45208 20.4085 5.25716C20.2129 5.06224 19.8963 5.06279 19.7014 5.25839L16.5125 8.45839C16.3176 8.65399 16.3182 8.97057 16.5138 9.1655C16.7094 9.36042 17.0259 9.35987 17.2209 9.16427L20.4098 5.96427Z" fill="#000"/>
</svg>
