<svg width="24" height="24" viewBox="0 0 24 24" fill="none" xmlns="http://www.w3.org/2000/svg">
<path opacity="0.4" d="M16.258 13.4225C17.2413 12.725 17.2413 11.2654 16.258 10.5679L9.52576 5.79197C8.46626 5.04035 7 5.79792 7 7.09695L7 16.8934C7 18.1924 8.46626 18.95 9.52576 18.1984L16.258 13.4225Z" fill="#000"/>
<path fill-rule="evenodd" clip-rule="evenodd" d="M9.81506 5.38407C8.42447 4.39757 6.5 5.39188 6.5 7.09685V16.8933C6.5 18.5983 8.42446 19.5926 9.81506 18.6061L16.5473 13.8302C16.7243 13.7047 16.8765 13.5599 17.0039 13.4013V18.4999C17.0039 18.776 17.2278 18.9999 17.5039 18.9999C17.78 18.9999 18.0039 18.776 18.0039 18.4999V5.49988C18.0039 5.22374 17.7801 4.99988 17.5039 4.99988C17.2278 4.99988 17.0039 5.22374 17.0039 5.49988V10.5888C16.8765 10.4303 16.7243 10.2855 16.5473 10.16L9.81506 5.38407ZM7.5 7.09685C7.5 6.20377 8.50805 5.68294 9.23646 6.19968L15.9687 10.9756C16.671 11.4738 16.671 12.5164 15.9687 13.0146L9.23646 17.7905C8.50805 18.3072 7.5 17.7864 7.5 16.8933V7.09685Z" fill="#000"/>
</svg>
