<svg width="24" height="24" viewBox="0 0 24 24" fill="none" xmlns="http://www.w3.org/2000/svg">
<path opacity="0.4" d="M1 14C1 10.134 4.13401 7 8 7H16C19.866 7 23 10.134 23 14C23 17.866 19.866 21 16 21H8C4.13401 21 1 17.866 1 14Z" fill="#000"/>
<path d="M16.75 12.5C16.75 12.0858 17.0858 11.75 17.5 11.75C17.9142 11.75 18.2501 12.0858 18.2501 12.5C18.2501 12.9142 17.9143 13.25 17.5001 13.25C17.0859 13.25 16.75 12.9142 16.75 12.5Z" fill="#000"/>
<path d="M15 14.25C14.5858 14.25 14.25 14.5858 14.25 15C14.25 15.4142 14.5858 15.75 15 15.75C15.4142 15.75 15.7501 15.4142 15.7501 15C15.7501 14.5858 15.4142 14.25 15 14.25Z" fill="#000"/>
<path d="M8 11.5C8.27614 11.5 8.5 11.7239 8.5 12V13.5H10C10.2761 13.5 10.5 13.7239 10.5 14C10.5 14.2761 10.2761 14.5 10 14.5H8.5V16C8.5 16.2761 8.27614 16.5 8 16.5C7.72386 16.5 7.5 16.2761 7.5 16V14.5H6C5.72386 14.5 5.5 14.2761 5.5 14C5.5 13.7239 5.72386 13.5 6 13.5H7.5V12C7.5 11.7239 7.72386 11.5 8 11.5Z" fill="#000"/>
<path fill-rule="evenodd" clip-rule="evenodd" d="M17 1.5C17.2761 1.5 17.5 1.72386 17.5 2C17.5 3.38071 16.3807 4.5 15 4.5H14C13.1716 4.5 12.5 5.17157 12.5 6V6.5H16C20.1421 6.5 23.5 9.85786 23.5 14C23.5 18.1421 20.1421 21.5 16 21.5H8C3.85786 21.5 0.5 18.1421 0.5 14C0.5 9.85786 3.85786 6.5 8 6.5H11.5V6C11.5 4.61929 12.6193 3.5 14 3.5H15C15.8284 3.5 16.5 2.82843 16.5 2C16.5 1.72386 16.7239 1.5 17 1.5ZM8 7.5C4.41015 7.5 1.5 10.4101 1.5 14C1.5 17.5899 4.41015 20.5 8 20.5H16C19.5899 20.5 22.5 17.5899 22.5 14C22.5 10.4101 19.5899 7.5 16 7.5H8Z" fill="#000"/>
</svg>
