<svg width="24" height="24" viewBox="0 0 24 24" fill="none" xmlns="http://www.w3.org/2000/svg">
<path opacity="0.4" d="M2.16349 7.81901C2 8.13988 2 8.55992 2 9.4V9.6C2 10.4401 2 10.8601 2.16349 11.181C2.3073 11.4632 2.53677 11.6927 2.81901 11.8365C3.13988 12 3.5 12 3.5 12V17.2C3.5 18.8802 3.5 19.7202 3.82698 20.362C4.1146 20.9265 4.57354 21.3854 5.13803 21.673C5.77976 22 6.61984 22 8.3 22H15.7C17.3802 22 18.2202 22 18.862 21.673C19.4265 21.3854 19.8854 20.9265 20.173 20.362C20.5 19.7202 20.5 18.8802 20.5 17.2V12C20.5 12 20.8601 12 21.181 11.8365C21.4632 11.6927 21.6927 11.4632 21.8365 11.181C22 10.8601 22 10.4401 22 9.6V9.4C22 8.55992 22 8.13988 21.8365 7.81901C21.6927 7.53677 21.4632 7.3073 21.181 7.16349C20.8601 7 20.4401 7 19.6 7H4.4C3.55992 7 3.13988 7 2.81901 7.16349C2.53677 7.3073 2.3073 7.53677 2.16349 7.81901Z" fill="#000"/>
<path fill-rule="evenodd" clip-rule="evenodd" d="M3 12.4248C2.8587 12.3939 2.72307 12.3488 2.59202 12.282C2.2157 12.0903 1.90973 11.7843 1.71799 11.408C1.59434 11.1653 1.54506 10.907 1.5221 10.6259C1.49999 10.3553 1.49999 10.0231 1.5 9.62066V9.37935C1.49999 8.97687 1.49999 8.64468 1.5221 8.37409C1.54506 8.09304 1.59434 7.83469 1.71799 7.59202C1.90973 7.2157 2.2157 6.90973 2.59202 6.71799C2.83469 6.59434 3.09304 6.54506 3.37409 6.5221C3.64468 6.49999 3.97685 6.49999 4.37933 6.5H5.60586C4.06292 4.95002 4.72562 1.96513 7.22618 1.54132C8.1339 1.38747 9.06121 1.66827 9.7311 2.29983L12.0013 4.44013L14.2715 2.29983C14.9414 1.66827 15.8687 1.38747 16.7764 1.54132C19.277 1.96513 19.9397 4.95002 18.3967 6.5H19.6207C20.0231 6.49999 20.3553 6.49999 20.6259 6.5221C20.907 6.54506 21.1653 6.59434 21.408 6.71799C21.7843 6.90973 22.0903 7.2157 22.282 7.59202C22.4057 7.83469 22.4549 8.09304 22.4779 8.37409C22.5 8.64467 22.5 8.97683 22.5 9.37928V9.62066C22.5 10.0231 22.5 10.3553 22.4779 10.6259C22.4549 10.907 22.4057 11.1653 22.282 11.408C22.0903 11.7843 21.7843 12.0903 21.408 12.282C21.2769 12.3488 21.1413 12.3939 21 12.4248V17.2222C21 18.0435 21 18.6905 20.9575 19.2111C20.9141 19.7423 20.8239 20.1859 20.6185 20.589C20.283 21.2475 19.7475 21.783 19.089 22.1185C18.6859 22.3239 18.2423 22.4141 17.7111 22.4575C17.1905 22.5 16.5435 22.5 15.7223 22.5H8.27778C7.45654 22.5 6.80953 22.5 6.28889 22.4575C5.75771 22.4141 5.31414 22.3239 4.91103 22.1185C4.25247 21.783 3.71703 21.2475 3.38148 20.589C3.17609 20.1859 3.08593 19.7423 3.04253 19.2111C2.99999 18.6905 3 18.0435 3 17.2222L3 12.4248ZM7.39329 2.52726C7.99186 2.42581 8.60337 2.61098 9.04512 3.02745L11.5209 5.36153C11.5073 5.40694 11.5 5.45506 11.5 5.50488V6.5H7.72041L7.05027 6.25428C5.18621 5.57079 5.43579 2.85902 7.39329 2.52726ZM12.5 5.50488C12.5 5.45576 12.4929 5.40829 12.4797 5.36344L14.9575 3.02745C15.3992 2.61098 16.0107 2.42581 16.6093 2.52726C18.5668 2.85902 18.8164 5.57079 16.9523 6.25428L16.2822 6.5H12.5V5.50488ZM7.63165 7.50001H11.5V11.5H4.4C3.97171 11.5 3.68056 11.4996 3.45552 11.4812C3.23631 11.4633 3.12421 11.4309 3.04601 11.391C2.85785 11.2951 2.70487 11.1422 2.60899 10.954C2.56915 10.8758 2.53669 10.7637 2.51878 10.5445C2.50039 10.3194 2.5 10.0283 2.5 9.6V9.4C2.5 8.97171 2.50039 8.68056 2.51878 8.45552C2.53669 8.23631 2.56915 8.12421 2.60899 8.04601C2.70487 7.85785 2.85785 7.70487 3.04601 7.60899C3.12421 7.56915 3.23631 7.53669 3.45552 7.51878C3.68056 7.50039 3.97171 7.5 4.4 7.5H7.62947L7.63165 7.50001ZM4.34096 12.5H4V17.2C4 18.0483 4.00039 18.6545 4.03921 19.1297C4.07756 19.599 4.15089 19.8963 4.27248 20.135C4.51217 20.6054 4.89462 20.9878 5.36502 21.2275C5.60366 21.3491 5.90099 21.4224 6.37032 21.4608C6.84549 21.4996 7.45167 21.5 8.3 21.5H11.5L11.5 12.5H4.37936C4.36649 12.5 4.35369 12.5 4.34096 12.5ZM12.5 12.5L12.5 21.5H15.7C16.5483 21.5 17.1545 21.4996 17.6297 21.4608C18.099 21.4224 18.3963 21.3491 18.635 21.2275C19.1054 20.9878 19.4878 20.6054 19.7275 20.135C19.8491 19.8963 19.9224 19.599 19.9608 19.1297C19.9996 18.6545 20 18.0483 20 17.2V12.5H19.659C19.6463 12.5 19.6335 12.5 19.6206 12.5H12.5ZM19.6 11.5C20.0283 11.5 20.3194 11.4996 20.5445 11.4812C20.7637 11.4633 20.8758 11.4309 20.954 11.391C21.1422 11.2951 21.2951 11.1422 21.391 10.954C21.4309 10.8758 21.4633 10.7637 21.4812 10.5445C21.4996 10.3194 21.5 10.0283 21.5 9.6V9.4C21.5 8.97171 21.4996 8.68056 21.4812 8.45552C21.4633 8.23631 21.4309 8.12421 21.391 8.04601C21.2951 7.85785 21.1422 7.70487 20.954 7.60899C20.8758 7.56915 20.7637 7.53669 20.5445 7.51878C20.3194 7.50039 20.0283 7.5 19.6 7.5H16.3731L16.3709 7.50001H12.5V11.5H19.6Z" fill="#000"/>
</svg>
