<svg width="24" height="24" viewBox="0 0 24 24" fill="none" xmlns="http://www.w3.org/2000/svg">
<g opacity="0.4">
<path d="M6.25 20.5C8.59721 20.5 10.5 18.5972 10.5 16.25C10.5 13.9028 8.59721 12 6.25 12C3.90279 12 2 13.9028 2 16.25C2 18.5972 3.90279 20.5 6.25 20.5Z" fill="#000"/>
<path d="M17.75 20.5C20.0972 20.5 22 18.5972 22 16.25C22 13.9028 20.0972 12 17.75 12C15.4028 12 13.5 13.9028 13.5 16.25C13.5 18.5972 15.4028 20.5 17.75 20.5Z" fill="#000"/>
</g>
<path fill-rule="evenodd" clip-rule="evenodd" d="M16.9293 3.29694C18.3929 2.5149 20.1983 3.34966 20.5505 4.97129L22.0215 11.7438C22.3396 13.2082 22.5 14.7025 22.5 16.201V16.2354L22.5 16.2503C22.5 18.8737 20.3734 21.0003 17.75 21.0003C15.1266 21.0003 13 18.8737 13 16.2503C13 16.1663 13.0022 16.0829 13.0065 16H10.9935C10.9978 16.0828 11 16.1661 11 16.2499C11 18.8732 8.87335 20.9999 6.25 20.9999C3.62665 20.9999 1.5 18.8732 1.5 16.2499C1.5 16.2448 1.50001 16.2397 1.50002 16.2347V16.201C1.50002 14.7025 1.66043 13.2082 1.97851 11.7438L3.44949 4.97129C3.80171 3.34966 5.60708 2.5149 7.07069 3.29694L8.23566 3.9194C8.47921 4.04954 8.57116 4.35247 8.44102 4.59603C8.31088 4.83958 8.00795 4.93153 7.76439 4.80139L6.59943 4.17893C5.72126 3.70971 4.63804 4.21056 4.42671 5.18354L2.95572 11.956C2.87788 12.3144 2.80996 12.6746 2.75199 13.0364C3.62016 12.0918 4.86595 11.4999 6.25 11.4999C8.44079 11.4999 10.2852 12.983 10.8338 15H13.1663C13.7151 12.9832 15.5594 11.5003 17.75 11.5003C19.1341 11.5003 20.3799 12.0923 21.2481 13.0369C21.1901 12.675 21.1222 12.3146 21.0443 11.956L19.5733 5.18354C19.362 4.21056 18.2787 3.70971 17.4006 4.17893L16.2356 4.80139C15.9921 4.93153 15.6891 4.83958 15.559 4.59603C15.4288 4.35247 15.5208 4.04954 15.7643 3.9194L16.9293 3.29694ZM2.5 16.2501L2.50002 16.2364C2.50731 14.1715 4.18344 12.4999 6.25 12.4999C8.32107 12.4999 10 14.1788 10 16.2499C10 18.3209 8.32107 19.9999 6.25 19.9999C4.17899 19.9999 2.5001 18.321 2.5 16.2501ZM21.5 16.2501V16.2371C21.4928 14.1721 19.8167 12.5003 17.75 12.5003C15.6789 12.5003 14 14.1792 14 16.2503C14 18.3214 15.6789 20.0003 17.75 20.0003C19.8211 20.0003 21.5 18.3211 21.5 16.2501Z" fill="#000"/>
</svg>
