<svg width="24" height="24" viewBox="0 0 24 24" fill="none" xmlns="http://www.w3.org/2000/svg">
<path opacity="0.4" d="M23 12C23 18.0751 18.0751 23 12 23C5.92487 23 1 18.0751 1 12C1 5.92487 5.92487 1 12 1C18.0751 1 23 5.92487 23 12Z" fill="#000"/>
<path d="M9.5 7.5C9.5 7.22386 9.27614 7 9 7C8.72386 7 8.5 7.22386 8.5 7.5V16.5C8.5 16.7761 8.72386 17 9 17C9.27614 17 9.5 16.7761 9.5 16.5V12.5H14.5V16.5C14.5 16.7761 14.7239 17 15 17C15.2761 17 15.5 16.7761 15.5 16.5V7.5C15.5 7.22386 15.2761 7 15 7C14.7239 7 14.5 7.22386 14.5 7.5V11.5H9.5V7.5Z" fill="#000"/>
<path fill-rule="evenodd" clip-rule="evenodd" d="M12 0.5C5.64873 0.5 0.5 5.64873 0.5 12C0.5 18.3513 5.64873 23.5 12 23.5C18.3513 23.5 23.5 18.3513 23.5 12C23.5 5.64873 18.3513 0.5 12 0.5ZM1.5 12C1.5 6.20101 6.20101 1.5 12 1.5C17.799 1.5 22.5 6.20101 22.5 12C22.5 17.799 17.799 22.5 12 22.5C6.20101 22.5 1.5 17.799 1.5 12Z" fill="#000"/>
</svg>
