<svg width="24" height="24" viewBox="0 0 24 24" fill="none" xmlns="http://www.w3.org/2000/svg">
<path opacity="0.4" d="M12.5 14.0002C13.6412 14.0002 14.6038 14.7648 14.9034 15.8096L19.237 14.1455C20.8101 13.5415 22.5 14.7027 22.5 16.3878C22.5 17.2556 22.032 18.0559 21.2756 18.4813L15.5008 21.7296C14.6027 22.2348 13.5897 22.5002 12.5593 22.5002H2C1.72386 22.5002 1.5 22.2763 1.5 22.0002V17C1.5 16.7239 1.72386 16.5 2 16.5H2.73288C3.43466 16.5 4.11423 16.254 4.65337 15.8047L5.70647 14.9272C6.42531 14.3282 7.33141 14.0002 8.26712 14.0002H12.5Z" fill="#000"/>
<path d="M12.5 2V2.7708C12.8289 2.80101 13.1295 2.86708 13.4344 2.98802C13.8749 3.16273 14.294 3.44038 14.8019 3.8249C15.022 3.9916 15.0653 4.3052 14.8987 4.52535C14.732 4.7455 14.4183 4.78884 14.1982 4.62214C13.706 4.24945 13.3752 4.04033 13.0657 3.91757C12.7679 3.79945 12.4604 3.74998 12 3.74998C11.321 3.74998 10.8089 3.90998 10.4808 4.14757C10.1677 4.37431 10 4.68429 10 5.08168C10 5.573 10.2356 5.86385 10.6193 6.07859C11.0345 6.31102 11.5791 6.42292 12.0822 6.50679C12.5791 6.58959 13.2845 6.72143 13.8693 7.04878C14.4856 7.39382 15 7.97879 15 8.91828C15 9.64947 14.6677 10.2553 14.1058 10.6623C13.6725 10.9761 13.1194 11.1616 12.5 11.2251V12C12.5 12.2761 12.2761 12.5 12 12.5C11.7239 12.5 11.5 12.2761 11.5 12V11.2292C11.1711 11.1989 10.8706 11.1329 10.5657 11.0119C10.1252 10.8372 9.70601 10.5595 9.19819 10.175C8.97804 10.0083 8.93471 9.69471 9.10141 9.47456C9.26811 9.25441 9.58171 9.21108 9.80186 9.37778C10.294 9.75047 10.6249 9.9596 10.9344 10.0824C11.2322 10.2005 11.5396 10.25 12 10.25C12.679 10.25 13.1912 10.09 13.5193 9.8524C13.8323 9.62565 14 9.31567 14 8.91828C14 8.42696 13.7644 8.13611 13.3808 7.92137C12.9656 7.68895 12.421 7.57704 11.9178 7.49318C11.421 7.41038 10.7156 7.27854 10.1308 6.95118C9.51441 6.60614 9.00003 6.02118 9.00003 5.08168C9.00003 4.3505 9.33233 3.74463 9.89425 3.33766C10.3275 3.02386 10.8806 2.83842 11.5 2.77491V2C11.5 1.72386 11.7239 1.5 12 1.5C12.2761 1.5 12.5 1.72386 12.5 2Z" fill="#000"/>
<path d="M21.5 16.3878C21.5 15.4042 20.5137 14.7264 19.5955 15.079L14.9753 16.8532C14.8037 18.0667 13.7609 19.0001 12.5 19.0001H8C7.72386 19.0001 7.5 18.7762 7.5 18.5001C7.5 18.224 7.72386 18.0001 8 18.0001H12.5C13.325 18.0001 13.9945 17.334 14 16.5102L14 16.5001L14 16.4901C13.9946 15.6663 13.3251 15.0001 12.5 15.0001H8.26712C7.56534 15.0001 6.88577 15.2461 6.34663 15.6954L5.29353 16.5729C4.57468 17.1719 3.66859 17.5 2.73288 17.5H2C1.72386 17.5 1.5 17.2761 1.5 17C1.5 16.7238 1.72386 16.5 2 16.5H2.73288C3.43466 16.5 4.11423 16.2539 4.65337 15.8047L5.70647 14.9271C6.42532 14.3281 7.33141 14.0001 8.26712 14.0001H12.5C13.6412 14.0001 14.6038 14.7647 14.9034 15.8096L19.237 14.1455C20.8101 13.5414 22.5 14.7027 22.5 16.3878C22.5 17.2555 22.032 18.0558 21.2756 18.4812L15.5008 21.7295C14.6027 22.2347 13.5897 22.5001 12.5593 22.5001H2C1.72386 22.5001 1.5 22.2762 1.5 22.0001C1.5 21.724 1.72386 21.5001 2 21.5001H12.5593C13.418 21.5001 14.2622 21.279 15.0106 20.858L20.7854 17.6096C21.2268 17.3613 21.5 16.8942 21.5 16.3878Z" fill="#000"/>
</svg>
