<svg width="24" height="24" viewBox="0 0 24 24" fill="none" xmlns="http://www.w3.org/2000/svg">
<g opacity="0.4">
<path d="M6 15.1429V19.8571C6 19.9898 6 20.0562 5.99371 20.112C5.94147 20.5756 5.57558 20.9415 5.11196 20.9937C5.05616 21 4.98982 21 4.85714 21C4.52545 21 4.3596 21 4.22009 20.9843C3.06104 20.8537 2.14631 19.939 2.01572 18.7799C2 18.6404 2 18.4746 2 18.1429V16.8571C2 16.5254 2 16.3596 2.01572 16.2201C2.14631 15.061 3.06104 14.1463 4.22009 14.0157C4.3596 14 4.52545 14 4.85714 14C4.98982 14 5.05616 14 5.11196 14.0063C5.57558 14.0585 5.94147 14.4244 5.99371 14.888C6 14.9438 6 15.0102 6 15.1429Z" fill="#000"/>
<path d="M18.0063 14.888C18 14.9438 18 15.0102 18 15.1429V19.8571C18 19.9898 18 20.0562 18.0063 20.112C18.0585 20.5756 18.4244 20.9415 18.888 20.9937C18.9438 21 19.0102 21 19.1429 21C19.4746 21 19.6404 21 19.7799 20.9843C20.939 20.8537 21.8537 19.939 21.9843 18.7799C22 18.6404 22 18.4746 22 18.1429V16.8571C22 16.5254 22 16.3596 21.9843 16.2201C21.8537 15.061 20.939 14.1463 19.7799 14.0157C19.6404 14 19.4745 14 19.1429 14C19.0102 14 18.9438 14 18.888 14.0063C18.4244 14.0585 18.0585 14.4244 18.0063 14.888Z" fill="#000"/>
</g>
<path fill-rule="evenodd" clip-rule="evenodd" d="M12 2.5C6.20103 2.5 1.50002 7.20101 1.50002 13V16.7277C1.5 16.7578 1.5 16.789 1.5 16.8216L1.5 18.1785C1.49997 18.4761 1.49995 18.6681 1.51887 18.8359C1.67558 20.2268 2.77325 21.3244 4.16411 21.4812C4.33195 21.5001 4.52391 21.5 4.82149 21.5L4.88111 21.5C4.98986 21.5001 5.08336 21.5001 5.16795 21.4906C5.86338 21.4122 6.41222 20.8634 6.49057 20.168C6.5001 20.0834 6.50006 19.9899 6.50001 19.8811V15.1189C6.50006 15.0102 6.5001 14.9167 6.49057 14.8321C6.41222 14.1366 5.86338 13.5878 5.16795 13.5094C5.08336 13.4999 4.98986 13.5 4.88111 13.5L4.82155 13.5C4.52397 13.5 4.33195 13.5 4.16411 13.5189C3.5272 13.5906 2.95177 13.8597 2.50002 14.2639V13C2.50002 7.7533 6.75331 3.5 12 3.5C17.2467 3.5 21.5 7.7533 21.5 13V14.2639C21.0483 13.8597 20.4728 13.5906 19.8359 13.5189C19.6681 13.5 19.4761 13.5 19.1785 13.5L19.1189 13.5C19.0101 13.5 18.9166 13.4999 18.8321 13.5094C18.1366 13.5878 17.5878 14.1366 17.5094 14.8321C17.4999 14.9167 17.4999 15.0102 17.5 15.1189V19.8811C17.4999 19.9899 17.4999 20.0834 17.5094 20.168C17.5878 20.8634 18.1366 21.4122 18.8321 21.4906C18.9166 21.5001 19.0101 21.5001 19.1189 21.5L19.1785 21.5C19.476 21.5 19.6681 21.5001 19.8359 21.4812C21.2268 21.3244 22.3244 20.2268 22.4811 18.8359C22.5 18.6681 22.5 18.4761 22.5 18.1785L22.5 17.0042C22.5 17.0028 22.5 17.0014 22.5 17V13C22.5 7.20101 17.799 2.5 12 2.5ZM2.5 17.0037C2.50001 17.0025 2.50002 17.0012 2.50002 17V16.7909C2.50016 16.4945 2.50158 16.3737 2.51258 16.2761C2.61705 15.3488 3.34884 14.6171 4.27608 14.5126C4.38065 14.5008 4.51185 14.5 4.85715 14.5C5.00343 14.5 5.03512 14.5008 5.05599 14.5032C5.2878 14.5293 5.47074 14.7122 5.49686 14.944C5.49921 14.9649 5.5 14.9966 5.5 15.1429V19.8572C5.5 20.0034 5.49921 20.0351 5.49686 20.056C5.47074 20.2878 5.2878 20.4708 5.05599 20.4969C5.03512 20.4992 5.00343 20.5 4.85715 20.5C4.51185 20.5 4.38065 20.4992 4.27608 20.4874C3.34884 20.383 2.61705 19.6512 2.51258 18.7239C2.5008 18.6194 2.5 18.4882 2.5 18.1429L2.5 17.0037ZM19.1429 14.5C18.9966 14.5 18.9649 14.5008 18.944 14.5032C18.7122 14.5293 18.5293 14.7122 18.5031 14.944C18.5008 14.9649 18.5 14.9966 18.5 15.1429V19.8572C18.5 20.0034 18.5008 20.0351 18.5031 20.056C18.5293 20.2878 18.7122 20.4708 18.944 20.4969C18.9649 20.4992 18.9966 20.5 19.1429 20.5C19.4882 20.5 19.6194 20.4992 19.7239 20.4874C20.6512 20.383 21.3829 19.6512 21.4874 18.7239C21.4992 18.6194 21.5 18.4882 21.5 18.1429V16.8572C21.5 16.5119 21.4992 16.3807 21.4874 16.2761C21.3829 15.3488 20.6512 14.6171 19.7239 14.5126C19.6194 14.5008 19.4882 14.5 19.1429 14.5Z" fill="#000"/>
</svg>
