<svg width="24" height="24" viewBox="0 0 24 24" fill="none" xmlns="http://www.w3.org/2000/svg">
<path opacity="0.4" fill-rule="evenodd" clip-rule="evenodd" d="M22 8.4V15.6C22 17.8402 22 18.9603 21.564 19.816C21.1805 20.5686 20.5686 21.1805 19.816 21.564C18.9603 22 17.8402 22 15.6 22H8.4C6.15979 22 5.03969 22 4.18404 21.564C3.43139 21.1805 2.81947 20.5686 2.43597 19.816C2 18.9603 2 17.8402 2 15.6V8.4C2 6.15979 2 5.03969 2.43597 4.18404C2.81947 3.43139 3.43139 2.81947 4.18404 2.43597C5.03969 2 6.15979 2 8.4 2H15.6C17.8402 2 18.9603 2 19.816 2.43597C20.5686 2.81947 21.1805 3.43139 21.564 4.18404C22 5.03969 22 6.15979 22 8.4ZM14.2 7.75C13.1917 7.75 12.3828 8.54663 12 9C11.6172 8.54663 10.8083 7.75 9.8 7.75C8.03611 7.75 7 9.25 7 10.9872C7 14.25 11 16.5 12 17C13 16.5 17 14.25 17 10.9872C17 9.25 15.9639 7.75 14.2 7.75Z" fill="#000"/>
<path fill-rule="evenodd" clip-rule="evenodd" d="M9.8 7C8.76182 7 7.92097 7.44736 7.34997 8.15249C6.78678 8.84796 6.5 9.7739 6.5 10.7372C6.5 12.578 7.62426 14.0806 8.78685 15.148C9.95977 16.2248 11.2553 16.9367 11.7764 17.1972L12 17.309L12.2236 17.1972C12.7447 16.9367 14.0402 16.2248 15.2131 15.148C16.3757 14.0806 17.5 12.578 17.5 10.7372C17.5 9.7739 17.2132 8.84796 16.65 8.15249C16.079 7.44736 15.2382 7 14.2 7C13.5624 7 13.0108 7.25139 12.5842 7.54156C12.3623 7.69253 12.1662 7.85928 12 8.01916C11.8338 7.85928 11.6377 7.69253 11.4158 7.54156C10.9892 7.25139 10.4376 7 9.8 7ZM7.5 10.7372C7.5 9.96329 7.73127 9.27063 8.12711 8.78181C8.51514 8.30264 9.07429 8 9.8 8C10.1707 8 10.5277 8.14692 10.8534 8.36841C11.1782 8.58936 11.4428 8.86513 11.618 9.07256L12 9.52506L12.382 9.07256C12.5572 8.86513 12.8218 8.58936 13.1466 8.36841C13.4723 8.14692 13.8293 8 14.2 8C14.9257 8 15.4849 8.30264 15.8729 8.78181C16.2687 9.27063 16.5 9.96329 16.5 10.7372C16.5 12.1592 15.6243 13.413 14.5369 14.4113C13.6008 15.2707 12.5686 15.884 12 16.1871C11.4314 15.884 10.3992 15.2707 9.46315 14.4113C8.37574 13.413 7.5 12.1592 7.5 10.7372Z" fill="#000"/>
<path fill-rule="evenodd" clip-rule="evenodd" d="M15.6226 1.5H8.37737C7.27642 1.5 6.41948 1.5 5.73209 1.55616C5.03416 1.61318 4.4671 1.73058 3.95704 1.99047C3.11031 2.4219 2.4219 3.11031 1.99047 3.95704C1.73058 4.4671 1.61318 5.03416 1.55616 5.73209C1.5 6.41948 1.5 7.27641 1.5 8.37737V15.6226C1.5 16.7236 1.5 17.5805 1.55616 18.2679C1.61318 18.9658 1.73058 19.5329 1.99047 20.043C2.4219 20.8897 3.11031 21.5781 3.95704 22.0095C4.4671 22.2694 5.03416 22.3868 5.73209 22.4438C6.4195 22.5 7.27645 22.5 8.37744 22.5H15.6225C16.7235 22.5 17.5805 22.5 18.2679 22.4438C18.9658 22.3868 19.5329 22.2694 20.043 22.0095C20.8897 21.5781 21.5781 20.8897 22.0095 20.043C22.2694 19.5329 22.3868 18.9658 22.4438 18.2679C22.5 17.5805 22.5 16.7236 22.5 15.6227V8.37736C22.5 7.27642 22.5 6.41947 22.4438 5.73209C22.3868 5.03416 22.2694 4.4671 22.0095 3.95704C21.5781 3.11031 20.8897 2.4219 20.043 1.99047C19.5329 1.73058 18.9658 1.61318 18.2679 1.55616C17.5805 1.5 16.7236 1.5 15.6226 1.5ZM4.41103 2.88148C4.75662 2.70539 5.17744 2.60481 5.81352 2.55284C6.45545 2.50039 7.27164 2.5 8.4 2.5H15.6C16.7284 2.5 17.5446 2.50039 18.1865 2.55284C18.8226 2.60481 19.2434 2.70539 19.589 2.88148C20.2475 3.21703 20.783 3.75247 21.1185 4.41103C21.2946 4.75662 21.3952 5.17744 21.4472 5.81352C21.4996 6.45545 21.5 7.27164 21.5 8.4V15.6C21.5 16.7284 21.4996 17.5446 21.4472 18.1865C21.3952 18.8226 21.2946 19.2434 21.1185 19.589C20.783 20.2475 20.2475 20.783 19.589 21.1185C19.2434 21.2946 18.8226 21.3952 18.1865 21.4472C17.5446 21.4996 16.7284 21.5 15.6 21.5H8.4C7.27164 21.5 6.45545 21.4996 5.81352 21.4472C5.17744 21.3952 4.75662 21.2946 4.41103 21.1185C3.75247 20.783 3.21703 20.2475 2.88148 19.589C2.70539 19.2434 2.60481 18.8226 2.55284 18.1865C2.50039 17.5446 2.5 16.7284 2.5 15.6V8.4C2.5 7.27164 2.50039 6.45545 2.55284 5.81352C2.60481 5.17744 2.70539 4.75662 2.88148 4.41103C3.21703 3.75247 3.75247 3.21703 4.41103 2.88148Z" fill="#000"/>
</svg>
