<svg width="24" height="24" viewBox="0 0 24 24" fill="none" xmlns="http://www.w3.org/2000/svg">
<path opacity="0.4" d="M12 5C12.7656 4.09325 14.09 3 16.1067 3C19.6344 3 22 6 22 9.47438C22 16.5 13.5 21 12 21.5C10.5 21 2 16.5 2 9.47438C2 6 4.36556 3 7.89333 3C9.91 3 11.2344 4.09325 12 5Z" fill="#000"/>
<path fill-rule="evenodd" clip-rule="evenodd" d="M1.5 9.47438C1.5 5.79054 4.02715 2.5 7.89333 2.5C9.80129 2.5 11.1418 3.3934 12 4.25953C12.8582 3.3934 14.1987 2.5 16.1067 2.5C19.9729 2.5 22.5 5.79054 22.5 9.47438C22.5 13.1964 20.2514 16.2028 17.8956 18.3072C15.5391 20.4122 12.9809 21.7001 12.1581 21.9743L12 22.027L11.8419 21.9743C11.0191 21.7001 8.4609 20.4122 6.1044 18.3072C3.74864 16.2028 1.5 13.1964 1.5 9.47438ZM7.89333 3.5C4.70396 3.5 2.5 6.20946 2.5 9.47438C2.5 12.7779 4.50136 15.5343 6.7706 17.5614C8.88811 19.4529 11.1566 20.6349 12 20.9675C12.8434 20.6349 15.1119 19.4529 17.2294 17.5614C19.4986 15.5343 21.5 12.7779 21.5 9.47438C21.5 6.20946 19.296 3.5 16.1067 3.5C14.2927 3.5 13.0954 4.47766 12.382 5.32255L12 5.77506L11.618 5.32255C10.9046 4.47766 9.7073 3.5 7.89333 3.5Z" fill="#000"/>
</svg>
