<svg width="24" height="24" viewBox="0 0 24 24" fill="none" xmlns="http://www.w3.org/2000/svg">
<path opacity="0.4" fill-rule="evenodd" clip-rule="evenodd" d="M12 23C18.0751 23 23 18.0751 23 12C23 5.92487 18.0751 1 12 1C5.92487 1 1 5.92487 1 12C1 18.0751 5.92487 23 12 23ZM14.2 7.75C13.1917 7.75 12.3828 8.54663 12 9C11.6172 8.54663 10.8083 7.75 9.8 7.75C8.03611 7.75 7 9.25 7 10.9872C7 14.25 11 16.5 12 17C13 16.5 17 14.25 17 10.9872C17 9.25 15.9639 7.75 14.2 7.75Z" fill="#000"/>
<path fill-rule="evenodd" clip-rule="evenodd" d="M9.8 7C8.76182 7 7.92097 7.44736 7.34997 8.15249C6.78678 8.84796 6.5 9.7739 6.5 10.7372C6.5 12.578 7.62426 14.0806 8.78685 15.148C9.95977 16.2248 11.2553 16.9367 11.7764 17.1972L12 17.309L12.2236 17.1972C12.7447 16.9367 14.0402 16.2248 15.2131 15.148C16.3757 14.0806 17.5 12.578 17.5 10.7372C17.5 9.7739 17.2132 8.84796 16.65 8.15249C16.079 7.44736 15.2382 7 14.2 7C13.5624 7 13.0108 7.25139 12.5842 7.54156C12.3623 7.69253 12.1662 7.85928 12 8.01916C11.8338 7.85928 11.6377 7.69253 11.4158 7.54156C10.9892 7.25139 10.4376 7 9.8 7ZM7.5 10.7372C7.5 9.96329 7.73127 9.27063 8.12711 8.78181C8.51514 8.30264 9.07429 8 9.8 8C10.1707 8 10.5277 8.14692 10.8534 8.36841C11.1782 8.58936 11.4428 8.86513 11.618 9.07256L12 9.52506L12.382 9.07256C12.5572 8.86513 12.8218 8.58936 13.1466 8.36841C13.4723 8.14692 13.8293 8 14.2 8C14.9257 8 15.4849 8.30264 15.8729 8.78181C16.2687 9.27063 16.5 9.96329 16.5 10.7372C16.5 12.1592 15.6243 13.413 14.5369 14.4113C13.6008 15.2707 12.5686 15.884 12 16.1871C11.4314 15.884 10.3992 15.2707 9.46315 14.4113C8.37574 13.413 7.5 12.1592 7.5 10.7372Z" fill="#000"/>
<path fill-rule="evenodd" clip-rule="evenodd" d="M12 0.5C5.64873 0.5 0.5 5.64873 0.5 12C0.5 18.3513 5.64873 23.5 12 23.5C18.3513 23.5 23.5 18.3513 23.5 12C23.5 5.64873 18.3513 0.5 12 0.5ZM1.5 12C1.5 6.20101 6.20101 1.5 12 1.5C17.799 1.5 22.5 6.20101 22.5 12C22.5 17.799 17.799 22.5 12 22.5C6.20101 22.5 1.5 17.799 1.5 12Z" fill="#000"/>
</svg>
