<svg width="24" height="24" viewBox="0 0 24 24" fill="none" xmlns="http://www.w3.org/2000/svg">
<g opacity="0.4">
<path d="M4.28586 4.28586C2.84805 5.48388 2 7.3941 2 9.47438C2 16.5 10.5 21 12 21.5C12.7711 21.243 15.3924 19.9287 17.7576 17.7576L4.28586 4.28586Z" fill="#000"/>
<path d="M19.0002 16.5002C20.6861 14.6084 22 12.2366 22 9.47438C22 6 19.6344 3 16.1067 3C14.09 3 12.7656 4.09325 12 5C11.2344 4.09325 9.91 3 7.89333 3C7.16325 3 6.48294 3.12849 5.86308 3.36308L19.0002 16.5002Z" fill="#000"/>
</g>
<path fill-rule="evenodd" clip-rule="evenodd" d="M2.35355 1.64645C2.15829 1.45118 1.84171 1.45118 1.64645 1.64645C1.45118 1.84171 1.45118 2.15829 1.64645 2.35355L3.5616 4.26871C2.25141 5.57383 1.5 7.46563 1.5 9.47438C1.5 13.1964 3.74864 16.2028 6.1044 18.3072C8.4609 20.4122 11.0191 21.7001 11.8419 21.9743L12 22.027L12.1581 21.9743C12.9627 21.7062 15.4266 20.4687 17.7387 18.4459L21.6464 22.3536C21.8417 22.5488 22.1583 22.5488 22.3536 22.3536C22.5488 22.1583 22.5488 21.8417 22.3536 21.6464L2.35355 1.64645ZM17.03 17.7371L4.26972 4.97683C3.15584 6.07762 2.5 7.69335 2.5 9.47438C2.5 12.7779 4.50136 15.5343 6.7706 17.5614C8.88811 19.4529 11.1566 20.6349 12 20.9675C12.817 20.6454 14.9712 19.5262 17.03 17.7371Z" fill="#000"/>
<path d="M21.5 9.47438C21.5 12.0637 20.2705 14.3169 18.6462 16.1462L19.3543 16.8543C21.1012 14.9005 22.5 12.41 22.5 9.47438C22.5 5.79054 19.9729 2.5 16.1067 2.5C14.1987 2.5 12.8582 3.3934 12 4.25953C11.1418 3.3934 9.80129 2.5 7.89333 2.5C7.01384 2.5 6.20365 2.67028 5.47673 2.97673L6.25649 3.75649C6.76453 3.58983 7.3126 3.5 7.89333 3.5C9.7073 3.5 10.9046 4.47766 11.618 5.32255L12 5.77506L12.382 5.32255C13.0954 4.47766 14.2927 3.5 16.1067 3.5C19.296 3.5 21.5 6.20946 21.5 9.47438Z" fill="#000"/>
</svg>
