<svg width="24" height="24" viewBox="0 0 24 24" fill="none" xmlns="http://www.w3.org/2000/svg">
<path opacity="0.4" d="M18 2H6.00005C5.83732 3.95281 5.75595 4.92922 5.93417 5.82565C6.16521 6.98779 6.70952 8.06467 7.50825 8.93987C8.12437 9.61496 8.95882 10.1285 10.6277 11.1555L12 12L10.6277 12.8445C8.95882 13.8715 8.12437 14.385 7.50826 15.0601C6.70952 15.9353 6.16521 17.0122 5.93417 18.1744C5.75595 19.0708 5.83732 20.0472 6.00005 22L18.0001 22C18.1628 20.0472 18.2442 19.0708 18.0659 18.1743C17.8349 17.0122 17.2906 15.9353 16.4919 15.0601C15.8757 14.385 15.0413 13.8715 13.3724 12.8445L12 12L13.3724 11.1555C15.0413 10.1285 15.8757 9.61496 16.4918 8.93987C17.2906 8.06467 17.8349 6.98779 18.0659 5.82565C18.2442 4.92922 18.1628 3.95281 18 2Z" fill="#000"/>
<path fill-rule="evenodd" clip-rule="evenodd" d="M20.5 2C20.5 2.27614 20.2761 2.5 20 2.5H18.5432C18.6739 4.08838 18.7323 5.03759 18.5563 5.92315C18.3075 7.17468 17.7213 8.3344 16.8611 9.27692C16.1973 10.0043 15.3072 10.552 13.7143 11.5321L12.954 12L13.7143 12.4679C15.3072 13.448 16.1973 13.9957 16.8611 14.7231C17.7213 15.6656 18.3075 16.8253 18.5563 18.0768C18.7324 18.9624 18.674 19.9116 18.5433 21.5H20C20.2761 21.5 20.5 21.7239 20.5 22C20.5 22.2761 20.2761 22.5 20 22.5H18.002C18.0013 22.5 18.0007 22.5 18 22.5L4 22.5C3.72386 22.5 3.5 22.2761 3.5 22C3.5 21.7239 3.72386 21.5 4 21.5H5.45675C5.32605 19.9116 5.26767 18.9624 5.44373 18.0769C5.69254 16.8253 6.27873 15.6656 7.1389 14.7231C7.8027 13.9957 8.69282 13.448 10.2857 12.4679L11.046 12L10.2857 11.5321C8.69279 10.552 7.80267 10.0043 7.13887 9.27692C6.2787 8.3344 5.69252 7.17468 5.4437 5.92315C5.26764 5.03759 5.32602 4.08838 5.45672 2.5H4C3.72386 2.5 3.5 2.27614 3.5 2C3.5 1.72386 3.72386 1.5 4 1.5H20C20.2761 1.5 20.5 1.72386 20.5 2ZM6.46029 21.5L17.5397 21.5C17.6767 19.8323 17.7237 19.0175 17.5755 18.2718C17.3622 17.1991 16.8598 16.2051 16.1225 15.3972C15.5651 14.7864 14.8049 14.3132 13.1103 13.2703L12 12.5871L10.8897 13.2703C9.19512 14.3132 8.43495 14.7864 7.87754 15.3972C7.14025 16.2051 6.6378 17.1991 6.42453 18.2719C6.27628 19.0175 6.32331 19.8323 6.46029 21.5ZM6.46026 2.5H17.5397C17.6767 4.16771 17.7237 4.98247 17.5755 5.72816C17.3622 6.8009 16.8598 7.79494 16.1225 8.60282C15.5651 9.21359 14.8049 9.68682 13.1103 10.7297L12 11.4129L10.8897 10.7297C9.19509 9.68682 8.43492 9.21359 7.87751 8.60282C7.14022 7.79494 6.63778 6.8009 6.4245 5.72816C6.27625 4.98247 6.32328 4.16771 6.46026 2.5Z" fill="#000"/>
</svg>
