<svg width="24" height="24" viewBox="0 0 24 24" fill="none" xmlns="http://www.w3.org/2000/svg">
<path opacity="0.4" fill-rule="evenodd" clip-rule="evenodd" d="M2 11.3687C2 10.3179 2 9.79255 2.14023 9.31217C2.26442 8.88678 2.46825 8.48883 2.74092 8.13949C3.04882 7.74501 3.47517 7.43803 4.32788 6.82408L9.19533 3.31949C10.2039 2.59328 10.7083 2.23018 11.2589 2.0898C11.7452 1.96583 12.2548 1.96583 12.7411 2.0898C13.2917 2.23018 13.7961 2.59328 14.8047 3.31949L19.6721 6.82407C20.5248 7.43803 20.9512 7.74501 21.2591 8.13949C21.5317 8.48883 21.7356 8.88678 21.8598 9.31217C22 9.79255 22 10.3179 22 11.3687V16.4001C22 18.3603 22 19.3404 21.6185 20.0891C21.283 20.7476 20.7475 21.2831 20.089 21.6186C19.3403 22.0001 18.3602 22.0001 16.4 22.0001H7.6C5.63982 22.0001 4.65972 22.0001 3.91103 21.6186C3.25247 21.2831 2.71703 20.7476 2.38148 20.0891C2 19.3404 2 18.3603 2 16.4001V11.3687ZM12 15.1001C10.2939 15.1001 8.73112 16.262 8.31583 17.8755C8.27731 18.0252 8.31018 18.1843 8.40489 18.3064C8.49959 18.4286 8.64548 18.5001 8.80005 18.5001H15.2001C15.3546 18.5001 15.5005 18.4286 15.5952 18.3064C15.6899 18.1843 15.7228 18.0252 15.6843 17.8755C15.269 16.262 13.7062 15.1001 12 15.1001ZM9.70007 11.8001C9.70007 10.5298 10.7298 9.50007 12.0001 9.50007C13.2703 9.50007 14.3001 10.5298 14.3001 11.8001C14.3001 13.0703 13.2703 14.1001 12.0001 14.1001C10.7298 14.1001 9.70007 13.0703 9.70007 11.8001Z" fill="#000"/>
<path d="M12 16.1001C10.7241 16.1001 9.57945 16.9779 9.28427 18.1247C9.21544 18.3922 8.94284 18.5531 8.67542 18.4843C8.40799 18.4155 8.247 18.1429 8.31583 17.8755C8.73111 16.262 10.2939 15.1001 12 15.1001C13.7062 15.1001 15.269 16.262 15.6843 17.8755C15.7531 18.1429 15.5921 18.4155 15.3247 18.4843C15.0572 18.5531 14.7847 18.3922 14.7158 18.1247C14.4206 16.9779 13.276 16.1001 12 16.1001Z" fill="#000"/>
<path fill-rule="evenodd" clip-rule="evenodd" d="M12.0001 9.5C10.7298 9.5 9.70007 10.5297 9.70007 11.8C9.70007 13.0703 10.7298 14.1 12.0001 14.1C13.2703 14.1 14.3001 13.0703 14.3001 11.8C14.3001 10.5297 13.2703 9.5 12.0001 9.5ZM10.7001 11.8C10.7001 11.082 11.2821 10.5 12.0001 10.5C12.718 10.5 13.3001 11.082 13.3001 11.8C13.3001 12.518 12.718 13.1 12.0001 13.1C11.2821 13.1 10.7001 12.518 10.7001 11.8Z" fill="#000"/>
<path fill-rule="evenodd" clip-rule="evenodd" d="M11.1354 1.60517C11.7027 1.46055 12.2973 1.46055 12.8646 1.60517C13.5082 1.76924 14.0851 2.1848 15.0053 2.84766L19.7009 6.22852C20.6094 6.88255 21.1511 7.27249 21.5474 7.78021C21.898 8.22936 22.16 8.741 22.3197 9.28794C22.5002 9.90619 22.5001 10.5737 22.5 11.6931L22.5 16.4224C22.5 17.3835 22.5 18.1355 22.4507 18.7395C22.4005 19.354 22.2967 19.8593 22.064 20.3159C21.6805 21.0686 21.0686 21.6805 20.316 22.064C19.8594 22.2966 19.3541 22.4004 18.7395 22.4506C18.1355 22.5 17.3836 22.5 16.4225 22.5H7.57755C6.61647 22.5 5.86452 22.5 5.2605 22.4506C4.64595 22.4004 4.14063 22.2966 3.68405 22.064C2.9314 21.6805 2.31948 21.0686 1.93598 20.3159C1.70335 19.8593 1.59957 19.354 1.54936 18.7395C1.50001 18.1355 1.50001 17.3835 1.50001 16.4224L1.50001 11.6931C1.49989 10.5737 1.49983 9.90619 1.68031 9.28794C1.83997 8.741 2.10205 8.22936 2.45262 7.78021C2.84889 7.27249 3.3906 6.88254 4.29916 6.22852L8.99475 2.84766C9.91495 2.1848 10.4918 1.76924 11.1354 1.60517ZM12.6176 2.57418C12.2123 2.47088 11.7877 2.47088 11.3824 2.57418C10.9458 2.6855 10.5307 2.97403 9.48749 3.72514L4.9526 6.99028C3.95395 7.70931 3.53847 8.01426 3.24093 8.39549C2.96827 8.74483 2.76443 9.14277 2.64024 9.56817C2.50473 10.0324 2.50001 10.5477 2.50001 11.7783V16.4C2.50001 17.3883 2.5004 18.0995 2.54604 18.658C2.59119 19.2108 2.67815 19.5698 2.82699 19.8619C3.11461 20.4264 3.57355 20.8854 4.13804 21.173C4.43015 21.3218 4.78922 21.4088 5.34193 21.4539C5.90048 21.4996 6.61167 21.5 7.60001 21.5H16.4C17.3884 21.5 18.0995 21.4996 18.6581 21.4539C19.2108 21.4088 19.5699 21.3218 19.862 21.173C20.4265 20.8854 20.8854 20.4264 21.173 19.8619C21.3219 19.5698 21.4088 19.2108 21.454 18.658C21.4996 18.0995 21.5 17.3883 21.5 16.4V11.7783C21.5 10.5477 21.4953 10.0324 21.3598 9.56817C21.2356 9.14277 21.0318 8.74483 20.7591 8.39549C20.4615 8.01426 20.0461 7.70931 19.0474 6.99028L14.5125 3.72514C13.4693 2.97403 13.0542 2.6855 12.6176 2.57418Z" fill="#000"/>
</svg>
