<svg width="24" height="24" viewBox="0 0 24 24" fill="none" xmlns="http://www.w3.org/2000/svg">
<path opacity="0.4" d="M2 11.7783C2 10.5775 2 9.97705 2.16027 9.42805C2.30219 8.94189 2.53515 8.48709 2.84676 8.08785C3.19865 7.637 3.68591 7.28617 4.66044 6.58451L9.19533 3.31937C10.2039 2.59316 10.7083 2.23006 11.2589 2.08968C11.7452 1.96571 12.2548 1.96571 12.7411 2.08968C13.2917 2.23006 13.7961 2.59316 14.8047 3.31937L19.3396 6.58451C20.3141 7.28617 20.8014 7.637 21.1532 8.08785C21.4649 8.48709 21.6978 8.94189 21.8397 9.42805C22 9.97705 22 10.5775 22 11.7783V16.4C22 18.3601 22 19.3402 21.6185 20.0889C21.283 20.7475 20.7475 21.2829 20.089 21.6185C19.3403 22 18.3602 22 16.4 22H7.6C5.63982 22 4.65972 22 3.91103 21.6185C3.25247 21.2829 2.71703 20.7475 2.38148 20.0889C2 19.3402 2 18.3601 2 16.4V11.7783Z" fill="#000"/>
<path d="M15.8536 12.1036C16.0488 11.9083 16.0488 11.5917 15.8536 11.3964C15.6583 11.2012 15.3417 11.2012 15.1464 11.3964L11 15.5429L8.85355 13.3964C8.65829 13.2012 8.34171 13.2012 8.14645 13.3964C7.95118 13.5917 7.95118 13.9083 8.14645 14.1036L10.6464 16.6036C10.8417 16.7988 11.1583 16.7988 11.3536 16.6036L15.8536 12.1036Z" fill="#000"/>
<path fill-rule="evenodd" clip-rule="evenodd" d="M12.8646 1.60517C12.2973 1.46055 11.7027 1.46055 11.1354 1.60517C10.4918 1.76924 9.91495 2.18479 8.99475 2.84765L4.29916 6.22852C3.3906 6.88254 2.84889 7.27249 2.45262 7.78021C2.10205 8.22936 1.83997 8.741 1.68031 9.28794C1.49983 9.90619 1.49989 10.5737 1.50001 11.6931L1.50001 16.4224C1.50001 17.3835 1.50001 18.1355 1.54936 18.7395C1.59957 19.354 1.70335 19.8593 1.93598 20.3159C2.31948 21.0686 2.9314 21.6805 3.68405 22.064C4.14063 22.2966 4.64595 22.4004 5.2605 22.4506C5.86452 22.5 6.61647 22.5 7.57755 22.5H16.4225C17.3836 22.5 18.1355 22.5 18.7395 22.4506C19.3541 22.4004 19.8594 22.2966 20.316 22.064C21.0686 21.6805 21.6805 21.0686 22.064 20.3159C22.2967 19.8593 22.4005 19.354 22.4507 18.7395C22.5 18.1355 22.5 17.3835 22.5 16.4224L22.5 11.6931C22.5001 10.5737 22.5002 9.90619 22.3197 9.28794C22.16 8.741 21.898 8.22936 21.5474 7.78021C21.1511 7.27249 20.6094 6.88255 19.7009 6.22852L15.0053 2.84766C14.0851 2.1848 13.5082 1.76924 12.8646 1.60517ZM11.3824 2.57418C11.7877 2.47088 12.2123 2.47088 12.6176 2.57418C13.0542 2.6855 13.4693 2.97403 14.5125 3.72514L19.0474 6.99028C20.0461 7.70931 20.4615 8.01426 20.7591 8.39549C21.0318 8.74483 21.2356 9.14277 21.3598 9.56817C21.4953 10.0324 21.5 10.5477 21.5 11.7783V16.4C21.5 17.3883 21.4996 18.0995 21.454 18.658C21.4088 19.2108 21.3219 19.5698 21.173 19.8619C20.8854 20.4264 20.4265 20.8854 19.862 21.173C19.5699 21.3218 19.2108 21.4088 18.6581 21.4539C18.0995 21.4996 17.3884 21.5 16.4 21.5H7.60001C6.61167 21.5 5.90048 21.4996 5.34193 21.4539C4.78922 21.4088 4.43015 21.3218 4.13804 21.173C3.57355 20.8854 3.11461 20.4264 2.82699 19.8619C2.67815 19.5698 2.59119 19.2108 2.54604 18.658C2.5004 18.0995 2.50001 17.3883 2.50001 16.4V11.7783C2.50001 10.5477 2.50473 10.0324 2.64024 9.56817C2.76443 9.14277 2.96827 8.74483 3.24093 8.39549C3.53847 8.01426 3.95395 7.70931 4.9526 6.99028L9.48749 3.72514C10.5307 2.97403 10.9458 2.6855 11.3824 2.57418Z" fill="#000"/>
</svg>
