<svg width="24" height="24" viewBox="0 0 24 24" fill="none" xmlns="http://www.w3.org/2000/svg">
<path opacity="0.4" fill-rule="evenodd" clip-rule="evenodd" d="M1.38148 5.41103C1 6.15972 1 7.13982 1 9.1V14.9C1 16.8602 1 17.8403 1.38148 18.589C1.63953 19.0954 2.0158 19.5291 2.47538 19.855C2.02574 19.5361 1.65587 19.114 1.39844 18.6216L5.81191 14.2074C6.20246 13.8168 6.83573 13.8168 7.22626 14.2074L8.99923 15.9808L15.2929 9.68741C15.6834 9.2969 16.3166 9.29691 16.7071 9.68742L20.3466 13.3269C20.3976 13.3256 20.4487 13.325 20.5 13.325C21.0173 13.325 21.5198 13.3886 22 13.5085V9.1C22 7.13982 22 6.15972 21.6185 5.41103C21.283 4.75247 20.7475 4.21703 20.089 3.88148C19.3403 3.5 18.3602 3.5 16.4 3.5H6.6C4.63982 3.5 3.65972 3.5 2.91103 3.88148C2.25247 4.21703 1.71703 4.75247 1.38148 5.41103ZM8.5 9C8.5 9.82843 7.82843 10.5 7 10.5C6.17157 10.5 5.5 9.82843 5.5 9C5.5 8.17157 6.17157 7.5 7 7.5C7.82843 7.5 8.5 8.17157 8.5 9Z" fill="#000"/>
<path d="M6.57761 3H16.4226C17.3837 3 18.1356 3 18.7397 3.04935C19.3542 3.09956 19.8595 3.20334 20.3161 3.43597C21.0688 3.81947 21.6807 4.43139 22.0642 5.18404C22.2969 5.64062 22.4006 6.14594 22.4508 6.76049C22.5002 7.36451 22.5002 8.11646 22.5002 9.07754V13.6561C22.178 13.5459 21.8439 13.4615 21.5002 13.4056V9.1C21.5002 8.11166 21.4998 7.40047 21.4542 6.84192C21.409 6.28921 21.322 5.93014 21.1732 5.63803C20.8856 5.07354 20.4266 4.6146 19.8621 4.32698C19.57 4.17814 19.2109 4.09118 18.6582 4.04602C18.0997 4.00039 17.3885 4 16.4001 4H6.60005C5.6117 4 4.90051 4.00039 4.34196 4.04602C3.78924 4.09118 3.43017 4.17814 3.13805 4.32698C2.57356 4.6146 2.11461 5.07354 1.82699 5.63803C1.67815 5.93014 1.59119 6.28921 1.54603 6.84192C1.5004 7.40047 1.50001 8.11166 1.50001 9.1V14.9C1.50001 15.8883 1.5004 16.5995 1.54603 17.1581C1.56274 17.3626 1.58517 17.5406 1.61434 17.6985L5.45837 13.8539C6.0442 13.268 6.99412 13.268 7.57992 13.8539L8.99935 15.2737L14.9395 9.33385C15.5253 8.74808 16.475 8.74809 17.0608 9.33387L21.0787 13.3517C20.8882 13.334 20.6953 13.325 20.5002 13.325C20.2257 13.325 19.9554 13.3429 19.6904 13.3776L16.3537 10.041C16.1584 9.84572 15.8419 9.84572 15.6466 10.041L9.35285 16.3344C9.25907 16.4282 9.13188 16.4808 8.99927 16.4808C8.86665 16.4808 8.73947 16.4281 8.6457 16.3343L6.87272 14.5609C6.67745 14.3656 6.36081 14.3656 6.16554 14.5609L2.02779 18.6993C2.24584 19.0166 2.52307 19.2891 2.84436 19.5018C2.9386 19.5641 3.03662 19.6213 3.13805 19.673C3.43017 19.8219 3.78924 19.9088 4.34196 19.954C4.90051 19.9996 5.6117 20 6.60005 20H14.3451C14.3725 20.342 14.4277 20.6761 14.5086 21.0001H6.57778C5.61679 21.0001 4.86469 21.0001 4.26071 20.9508C3.64615 20.9006 3.14083 20.7968 2.68425 20.5641C2.59016 20.5162 2.49809 20.4646 2.40858 20.4097C1.78199 20.0254 1.27154 19.4745 0.935978 18.816C0.703337 18.3594 0.599557 17.8541 0.549346 17.2395C0.499995 16.6355 0.499997 15.8835 0.5 14.9225V9.07756C0.499997 8.11647 0.499995 7.36451 0.549346 6.76049C0.599557 6.14594 0.703337 5.64062 0.935978 5.18404C1.31947 4.43139 1.9314 3.81947 2.68406 3.43597C3.14064 3.20334 3.64596 3.09956 4.26052 3.04935C4.86455 3 5.61651 3 6.57761 3Z" fill="#000"/>
<path fill-rule="evenodd" clip-rule="evenodd" d="M7.00006 7C5.89548 7 5.00004 7.89543 5.00004 9C5.00004 10.1046 5.89548 11 7.00006 11C8.10463 11 9.00007 10.1046 9.00007 9C9.00007 7.89543 8.10463 7 7.00006 7ZM6.00005 9C6.00005 8.44772 6.44777 8 7.00006 8C7.55235 8 8.00006 8.44772 8.00006 9C8.00006 9.55228 7.55235 10 7.00006 10C6.44777 10 6.00005 9.55228 6.00005 9Z" fill="#000"/>
<path d="M23 19C23.2761 19 23.5 18.7761 23.5 18.5C23.5 18.2239 23.2761 18 23 18H17C16.7239 18 16.5 18.2239 16.5 18.5C16.5 18.7761 16.7239 19 17 19H23Z" fill="#000"/>
</svg>
