<svg width="24" height="24" viewBox="0 0 24 24" fill="none" xmlns="http://www.w3.org/2000/svg">
<path opacity="0.4" fill-rule="evenodd" clip-rule="evenodd" d="M1.38148 4.91103C1 5.65972 1 6.63982 1 8.6V14.4C1 16.3602 1 17.3403 1.38148 18.089C1.63953 18.5954 2.0158 19.0291 2.47538 19.355C2.02574 19.0361 1.65587 18.614 1.39844 18.1216L5.81191 13.7074C6.20246 13.3168 6.83573 13.3168 7.22626 13.7074L8.99923 15.4808L15.2929 9.18741C15.6834 8.7969 16.3166 8.79691 16.7071 9.18742L20.4115 12.8918C20.9687 12.9742 21.5017 13.1311 22 13.352V8.6C22 6.63982 22 5.65972 21.6185 4.91103C21.283 4.25247 20.7475 3.71703 20.089 3.38148C19.3403 3 18.3602 3 16.4 3H6.6C4.63982 3 3.65972 3 2.91103 3.38148C2.25247 3.71703 1.71703 4.25247 1.38148 4.91103ZM8.5 8.5C8.5 9.32843 7.82843 10 7 10C6.17157 10 5.5 9.32843 5.5 8.5C5.5 7.67157 6.17157 7 7 7C7.82843 7 8.5 7.67157 8.5 8.5Z" fill="#000"/>
<path d="M6.57761 2.5H16.4226C17.3837 2.5 18.1356 2.5 18.7397 2.54935C19.3542 2.59956 19.8595 2.70334 20.3161 2.93597C21.0688 3.31947 21.6807 3.93139 22.0642 4.68404C22.2969 5.14062 22.4006 5.64594 22.4508 6.26049C22.5002 6.86451 22.5002 7.61646 22.5002 8.57754V13.6014C22.183 13.4248 21.8486 13.2753 21.5002 13.1561V8.6C21.5002 7.61166 21.4998 6.90047 21.4542 6.34192C21.409 5.78921 21.322 5.43014 21.1732 5.13803C20.8856 4.57354 20.4266 4.1146 19.8621 3.82698C19.57 3.67814 19.2109 3.59118 18.6582 3.54602C18.0997 3.50039 17.3885 3.5 16.4001 3.5H6.60005C5.6117 3.5 4.90051 3.50039 4.34196 3.54602C3.78924 3.59118 3.43017 3.67814 3.13805 3.82698C2.57356 4.1146 2.11461 4.57354 1.82699 5.13803C1.67815 5.43014 1.59119 5.78921 1.54603 6.34192C1.5004 6.90047 1.50001 7.61166 1.50001 8.6V14.4C1.50001 15.3883 1.5004 16.0995 1.54603 16.6581C1.56274 16.8626 1.58517 17.0406 1.61434 17.1985L5.45837 13.3539C6.0442 12.768 6.99412 12.768 7.57992 13.3539L8.99935 14.7737L14.9395 8.83385C15.5253 8.24808 16.475 8.24809 17.0608 8.83387L21.3265 13.0995C20.7915 12.9341 20.2255 12.8395 19.6393 12.8265L16.3537 9.54098C16.1584 9.34572 15.8419 9.34572 15.6466 9.54097L9.35285 15.8344C9.25907 15.9282 9.13188 15.9808 8.99927 15.9808C8.86665 15.9808 8.73947 15.9281 8.6457 15.8343L6.87272 14.0609C6.67745 13.8656 6.36081 13.8656 6.16554 14.0609L2.02779 18.1993C2.24584 18.5166 2.52307 18.7891 2.84436 19.0018C2.9386 19.0641 3.03662 19.1213 3.13805 19.173C3.43017 19.3219 3.78924 19.4088 4.34196 19.454C4.90051 19.4996 5.6117 19.5 6.60005 19.5H13.3451C13.3725 19.842 13.4277 20.1761 13.5086 20.5001H6.57778C5.61679 20.5001 4.86469 20.5001 4.26071 20.4508C3.64615 20.4006 3.14083 20.2968 2.68425 20.0641C2.59016 20.0162 2.49809 19.9646 2.40858 19.9097C1.78199 19.5254 1.27154 18.9745 0.935978 18.316C0.703337 17.8594 0.599557 17.3541 0.549346 16.7395C0.499995 16.1355 0.499997 15.3835 0.5 14.4225V8.57756C0.499997 7.61647 0.499995 6.86451 0.549346 6.26049C0.599557 5.64594 0.703337 5.14062 0.935978 4.68404C1.31947 3.93139 1.9314 3.31947 2.68406 2.93597C3.14064 2.70334 3.64596 2.59956 4.26052 2.54935C4.86455 2.5 5.61651 2.5 6.57761 2.5Z" fill="#000"/>
<path fill-rule="evenodd" clip-rule="evenodd" d="M7.00006 6.5C5.89548 6.5 5.00004 7.39543 5.00004 8.5C5.00004 9.60457 5.89548 10.5 7.00006 10.5C8.10463 10.5 9.00007 9.60457 9.00007 8.5C9.00007 7.39543 8.10463 6.5 7.00006 6.5ZM6.00005 8.5C6.00005 7.94772 6.44777 7.5 7.00006 7.5C7.55235 7.5 8.00006 7.94772 8.00006 8.5C8.00006 9.05228 7.55235 9.5 7.00006 9.5C6.44777 9.5 6.00005 9.05228 6.00005 8.5Z" fill="#000"/>
<path d="M23.3536 16.8536C23.5488 16.6583 23.5488 16.3417 23.3536 16.1464C23.1583 15.9512 22.8417 15.9512 22.6464 16.1464L18.5 20.2929L16.3536 18.1464C16.1583 17.9512 15.8417 17.9512 15.6464 18.1464C15.4512 18.3417 15.4512 18.6583 15.6464 18.8536L18.1464 21.3536C18.3417 21.5488 18.6583 21.5488 18.8536 21.3536L23.3536 16.8536Z" fill="#000"/>
</svg>
