<svg width="24" height="24" viewBox="0 0 24 24" fill="none" xmlns="http://www.w3.org/2000/svg">
<path opacity="0.4" fill-rule="evenodd" clip-rule="evenodd" d="M1.38148 4.91103C1 5.65972 1 6.63982 1 8.6V14.4C1 16.3602 1 17.3403 1.38148 18.089C1.63953 18.5954 2.0158 19.0291 2.47538 19.355C2.02574 19.0361 1.65587 18.614 1.39844 18.1216L5.81191 13.7074C6.20246 13.3168 6.83573 13.3168 7.22626 13.7074L8.99923 15.4808L15.2929 9.18741C15.6834 8.7969 16.3166 8.79691 16.7071 9.18742L20.3466 12.8269C20.3976 12.8256 20.4487 12.825 20.5 12.825C21.0173 12.825 21.5198 12.8886 22 13.0085V8.6C22 6.63982 22 5.65972 21.6185 4.91103C21.283 4.25247 20.7475 3.71703 20.089 3.38148C19.3403 3 18.3602 3 16.4 3H6.6C4.63982 3 3.65972 3 2.91103 3.38148C2.25247 3.71703 1.71703 4.25247 1.38148 4.91103ZM8.5 8.5C8.5 9.32843 7.82843 10 7 10C6.17157 10 5.5 9.32843 5.5 8.5C5.5 7.67157 6.17157 7 7 7C7.82843 7 8.5 7.67157 8.5 8.5Z" fill="#000"/>
<path d="M6.57761 2.5C5.61651 2.5 4.86455 2.5 4.26052 2.54935C3.64596 2.59956 3.14064 2.70334 2.68406 2.93597C1.9314 3.31947 1.31947 3.93139 0.935978 4.68404C0.703337 5.14062 0.599557 5.64594 0.549346 6.26049C0.499995 6.86451 0.499997 7.61646 0.5 8.57755V14.4224C0.499997 15.3835 0.499995 16.1355 0.549346 16.7395C0.599557 17.3541 0.703337 17.8594 0.935978 18.316C1.27154 18.9745 1.78199 19.5254 2.40858 19.9097C2.49809 19.9646 2.58997 20.0161 2.68406 20.064C3.14064 20.2967 3.64615 20.4006 4.26071 20.4508C4.86469 20.5001 5.61657 20.5001 6.57755 20.5001H14.5086C14.4277 20.1761 14.3725 19.842 14.3451 19.5H6.60005C5.6117 19.5 4.90051 19.4996 4.34196 19.454C3.78924 19.4088 3.43017 19.3219 3.13805 19.173C3.03662 19.1213 2.9386 19.0641 2.84436 19.0018C2.52307 18.7891 2.24584 18.5166 2.02779 18.1993L6.16554 14.0609C6.36081 13.8656 6.67745 13.8656 6.87272 14.0609L8.6457 15.8343C8.73947 15.9281 8.86665 15.9808 8.99927 15.9808C9.13188 15.9808 9.25907 15.9282 9.35285 15.8344L15.6466 9.54097C15.8419 9.34572 16.1584 9.34572 16.3537 9.54098L19.6904 12.8776C19.9554 12.8429 20.2257 12.825 20.5002 12.825C20.6953 12.825 20.8882 12.834 21.0787 12.8517L17.0608 8.83387C16.475 8.24809 15.5253 8.24808 14.9395 8.83385L8.99935 14.7737L7.57992 13.3539C6.99412 12.768 6.0442 12.768 5.45837 13.3539L1.61434 17.1985C1.58517 17.0406 1.56274 16.8626 1.54603 16.6581C1.5004 16.0995 1.50001 15.3883 1.50001 14.4V8.6C1.50001 7.61166 1.5004 6.90047 1.54603 6.34192C1.59119 5.78921 1.67815 5.43014 1.82699 5.13803C2.11461 4.57354 2.57356 4.1146 3.13805 3.82698C3.43017 3.67814 3.78924 3.59118 4.34196 3.54602C4.90051 3.50039 5.6117 3.5 6.60005 3.5H16.4001C17.3885 3.5 18.0997 3.50039 18.6582 3.54602C19.2109 3.59118 19.57 3.67814 19.8621 3.82698C20.4266 4.1146 20.8856 4.57354 21.1732 5.13803C21.322 5.43014 21.409 5.78921 21.4542 6.34192C21.4998 6.90047 21.5002 7.61166 21.5002 8.6V12.9056C21.8439 12.9615 22.178 13.0459 22.5002 13.1561V8.57754C22.5002 7.61646 22.5002 6.86451 22.4508 6.26049C22.4006 5.64594 22.2969 5.14062 22.0642 4.68404C21.6807 3.93139 21.0688 3.31947 20.3161 2.93597C19.8595 2.70334 19.3542 2.59956 18.7397 2.54935C18.1356 2.5 17.3837 2.5 16.4226 2.5H6.57761Z" fill="#000"/>
<path fill-rule="evenodd" clip-rule="evenodd" d="M5.00004 8.5C5.00004 7.39543 5.89548 6.5 7.00006 6.5C8.10463 6.5 9.00007 7.39543 9.00007 8.5C9.00007 9.60457 8.10463 10.5 7.00006 10.5C5.89548 10.5 5.00004 9.60457 5.00004 8.5ZM7.00006 7.5C6.44777 7.5 6.00005 7.94772 6.00005 8.5C6.00005 9.05228 6.44777 9.5 7.00006 9.5C7.55235 9.5 8.00006 9.05228 8.00006 8.5C8.00006 7.94772 7.55235 7.5 7.00006 7.5Z" fill="#000"/>
<path d="M23.5 18C23.5 18.2761 23.2761 18.5 23 18.5H20.5V21C20.5 21.2761 20.2761 21.5 20 21.5C19.7239 21.5 19.5 21.2761 19.5 21V18.5H17C16.7239 18.5 16.5 18.2761 16.5 18C16.5 17.7239 16.7239 17.5 17 17.5H19.5V15C19.5 14.7239 19.7239 14.5 20 14.5C20.2761 14.5 20.5 14.7239 20.5 15V17.5H23C23.2761 17.5 23.5 17.7239 23.5 18Z" fill="#000"/>
</svg>
