<svg width="24" height="24" viewBox="0 0 24 24" fill="none" xmlns="http://www.w3.org/2000/svg">
<path opacity="0.4" d="M23 20V14.5H16.7831C16.6075 14.5 16.4447 14.5921 16.3543 14.7428L15.437 16.2717C15.1659 16.7236 14.6776 17 14.1507 17H9.84929C9.32239 17 8.83413 16.7236 8.56305 16.2717L7.64565 14.7428C7.55529 14.5921 7.39254 14.5 7.2169 14.5H1V20C1 21.6569 2.34315 23 4 23H20C21.6569 23 23 21.6569 23 20Z" fill="#000"/>
<path d="M12 0.5C12.2761 0.5 12.5 0.723858 12.5 1V11.7929L14.6464 9.64645C14.8417 9.45119 15.1583 9.45119 15.3536 9.64645C15.5488 9.84171 15.5488 10.1583 15.3536 10.3536L12.3536 13.3536C12.2598 13.4473 12.1326 13.5 12 13.5C11.8674 13.5 11.7402 13.4473 11.6464 13.3536L8.64645 10.3536C8.45118 10.1583 8.45118 9.84171 8.64645 9.64645C8.84171 9.45118 9.15829 9.45118 9.35355 9.64645L11.5 11.7929V1C11.5 0.723858 11.7239 0.5 12 0.5Z" fill="#000"/>
<path fill-rule="evenodd" clip-rule="evenodd" d="M7.98225 6.50001C7.30165 6.49985 6.85684 6.49975 6.44262 6.62118C6.07665 6.72846 5.7345 6.90454 5.43448 7.13998C5.09491 7.40647 4.83645 7.76849 4.44099 8.32241L1.01731 13.1156C0.873332 13.317 0.764478 13.4693 0.685584 13.6394C0.615917 13.7896 0.565182 13.948 0.534543 14.1107C0.499847 14.295 0.499917 14.4822 0.500009 14.7298L0.500019 18.2222C0.500016 19.0435 0.500013 19.6905 0.542552 20.2111C0.585951 20.7423 0.676106 21.1859 0.881496 21.589C1.21705 22.2476 1.75249 22.783 2.41105 23.1185C2.81415 23.3239 3.25773 23.4141 3.78891 23.4575C4.30956 23.5 4.95653 23.5 5.7778 23.5H18.2222C19.0435 23.5 19.6905 23.5 20.2111 23.4575C20.7423 23.4141 21.1859 23.3239 21.589 23.1185C22.2476 22.783 22.783 22.2476 23.1185 21.589C23.3239 21.1859 23.4141 20.7423 23.4575 20.2111C23.5 19.6905 23.5 19.0435 23.5 18.2222L23.5 14.7298C23.5001 14.4822 23.5002 14.295 23.4655 14.1107C23.4349 13.948 23.3841 13.7896 23.3145 13.6394C23.2356 13.4693 23.1267 13.317 22.9827 13.1156L19.559 8.3224C19.1636 7.76848 18.9051 7.40647 18.5656 7.13998C18.2655 6.90454 17.9234 6.72846 17.5574 6.62118C17.1432 6.49975 16.6984 6.49985 16.0178 6.50001L15 6.50002C14.7239 6.50002 14.5 6.72388 14.5 7.00002C14.5 7.27617 14.7239 7.50002 15 7.50002H15.9415C16.7253 7.50002 17.0168 7.50478 17.2761 7.58079C17.5201 7.65232 17.7482 7.7697 17.9482 7.92666C18.1608 8.09348 18.3341 8.32792 18.7896 8.96569L22.1461 13.6648C22.2775 13.8488 22.3387 13.9364 22.3758 14H17.0662C16.5393 14 16.051 14.2764 15.78 14.7283L14.8626 16.2572C14.7722 16.4079 14.6094 16.5 14.4338 16.5H9.56619C9.39056 16.5 9.22781 16.4079 9.13744 16.2572L8.22005 14.7283C7.94896 14.2764 7.4607 14 6.93381 14H1.62427C1.66129 13.9364 1.72249 13.8488 1.85393 13.6648L5.21042 8.96569C5.66597 8.32792 5.83927 8.09348 6.05184 7.92666C6.25185 7.7697 6.47996 7.65232 6.72393 7.58079C6.98323 7.50478 7.27474 7.50002 8.05849 7.50002H9.00002C9.27616 7.50002 9.50002 7.27617 9.50002 7.00002C9.50002 6.72388 9.27616 6.50002 9.00002 6.50002L7.98225 6.50001ZM1.50002 15V18.2C1.50002 19.0484 1.50041 19.6545 1.53923 20.1297C1.57758 20.599 1.65091 20.8964 1.7725 21.135C2.01219 21.6054 2.39464 21.9879 2.86504 22.2275C3.10368 22.3491 3.40101 22.4225 3.87034 22.4608C4.34551 22.4996 4.95169 22.5 5.80002 22.5H18.2C19.0483 22.5 19.6545 22.4996 20.1297 22.4608C20.599 22.4225 20.8964 22.3491 21.135 22.2275C21.6054 21.9879 21.9879 21.6054 22.2275 21.135C22.3491 20.8964 22.4225 20.599 22.4608 20.1297C22.4996 19.6545 22.5 19.0484 22.5 18.2V15H17.0662C16.8906 15 16.7278 15.0921 16.6374 15.2428L15.72 16.7717C15.449 17.2236 14.9607 17.5 14.4338 17.5H9.56619C9.0393 17.5 8.55104 17.2236 8.27995 16.7717L7.36256 15.2428C7.27219 15.0921 7.10944 15 6.93381 15H1.50002Z" fill="#000"/>
</svg>
