<svg width="24" height="24" viewBox="0 0 24 24" fill="none" xmlns="http://www.w3.org/2000/svg">
<path opacity="0.4" d="M1 12.5093C1 12.3192 1 12.2241 1.01179 12.1306C1.02226 12.0476 1.03967 11.9656 1.06382 11.8854C1.09101 11.7952 1.12963 11.7083 1.20685 11.5346L3.94425 5.37545C4.32639 4.51562 4.51746 4.08571 4.81949 3.77047C5.08646 3.49182 5.41431 3.27876 5.77738 3.14796C6.18811 3 6.65857 3 7.59949 3H16.4005C17.3414 3 17.8119 3 18.2226 3.14796C18.5857 3.27876 18.9135 3.49182 19.1805 3.77047C19.4825 4.08571 19.6736 4.51562 20.0558 5.37545L22.7931 11.5346C22.8704 11.7083 22.909 11.7952 22.9362 11.8854C22.9603 11.9656 22.9777 12.0476 22.9882 12.1306C23 12.2241 23 12.3192 23 12.5093V16.2C23 17.8802 23 18.7202 22.673 19.362C22.3854 19.9265 21.9265 20.3854 21.362 20.673C20.7202 21 19.8802 21 18.2 21H5.8C4.11984 21 3.27976 21 2.63803 20.673C2.07354 20.3854 1.6146 19.9265 1.32698 19.362C1 18.7202 1 17.8802 1 16.2V12.5093Z" fill="#000"/>
<path fill-rule="evenodd" clip-rule="evenodd" d="M7.50289 2.50002C6.65523 2.49977 6.10197 2.49961 5.60792 2.67759C5.17225 2.83454 4.77882 3.09022 4.45846 3.4246C4.09517 3.80379 3.87061 4.30942 3.52657 5.08412L0.739376 11.3553C0.67229 11.5062 0.621539 11.6203 0.585105 11.7412C0.5529 11.848 0.529694 11.9574 0.51573 12.0681C0.499931 12.1933 0.499963 12.3182 0.500004 12.4833L0.500007 12.4974C0.500002 12.4983 0.5 12.4992 0.5 12.5V18C0.5 19.933 2.067 21.5 4 21.5H5.64881C5.69132 21.5 5.73431 21.5 5.77779 21.5H18.2222C18.2657 21.5 18.3087 21.5 18.3512 21.5H20C20.9173 21.5 21.7521 21.1472 22.3762 20.5698C22.4503 20.5012 22.5215 20.4295 22.5894 20.3548C23.1551 19.7331 23.5 18.9068 23.5 18V16.3633C23.5 16.3168 23.5 16.2698 23.5 16.2223L23.5 12.4833C23.5001 12.3182 23.5001 12.1933 23.4843 12.0681C23.4703 11.9574 23.4471 11.848 23.4149 11.7412C23.3785 11.6203 23.3277 11.5062 23.2607 11.3554L20.4735 5.08414C20.1294 4.30943 19.9049 3.80379 19.5416 3.4246C19.2212 3.09022 18.8278 2.83454 18.3921 2.67759C17.898 2.49961 17.3448 2.49977 16.4971 2.50002H7.50289ZM22.4478 12C22.4311 11.9527 22.4035 11.889 22.3363 11.7377L19.5989 5.57855C19.2012 4.68379 19.0466 4.35349 18.8195 4.11641C18.6059 3.89349 18.3436 3.72304 18.0532 3.61841C17.7443 3.50713 17.3797 3.50004 16.4005 3.50004H7.5995C6.62035 3.50004 6.25574 3.50713 5.94685 3.61841C5.6564 3.72304 5.39411 3.89349 5.18054 4.11641C4.9534 4.35349 4.79883 4.68379 4.40116 5.57855L1.66377 11.7377C1.59651 11.889 1.56888 11.9527 1.55226 12H6.93381C7.4607 12 7.94896 12.2765 8.22005 12.7283L9.13744 14.2573C9.22781 14.4079 9.39056 14.5 9.56619 14.5H14.4338C14.6094 14.5 14.7722 14.4079 14.8626 14.2573L15.78 12.7283C16.051 12.2765 16.5393 12 17.0662 12H22.4478ZM5.68775 20.5C4.89778 20.4999 4.32427 20.4979 3.87033 20.4608C3.40099 20.4225 3.10367 20.3491 2.86503 20.2276C2.39463 19.9879 2.01218 19.6054 1.77249 19.135C1.6509 18.8964 1.57757 18.5991 1.53922 18.1297C1.5004 17.6545 1.50001 17.0484 1.50001 16.2V13H6.93381C7.10944 13 7.27219 13.0922 7.36256 13.2428L8.27995 14.7718C8.55104 15.2236 9.0393 15.5 9.56619 15.5H14.4338C14.9607 15.5 15.449 15.2236 15.72 14.7718L16.6374 13.2428C16.7278 13.0922 16.8906 13 17.0662 13H22.5V16.3252C22.4999 17.1085 22.4977 17.6782 22.4608 18.1297C22.4224 18.5991 22.3491 18.8964 22.2275 19.135C22.1227 19.3408 21.9905 19.5298 21.8356 19.6973C21.7821 19.7551 21.726 19.8104 21.6673 19.8629C21.5073 20.0061 21.3286 20.1289 21.135 20.2276C20.8964 20.3491 20.599 20.4225 20.1297 20.4608C19.6757 20.4979 19.1022 20.4999 18.3123 20.5H5.68775Z" fill="#000"/>
</svg>
