<svg width="24" height="24" viewBox="0 0 24 24" fill="none" xmlns="http://www.w3.org/2000/svg">
<path opacity="0.4" d="M20.5 16.4V7.6C20.5 5.63982 20.5 4.65972 20.1185 3.91103C19.783 3.25247 19.2475 2.71703 18.589 2.38148C17.8403 2 16.8602 2 14.9 2H9.1C7.13982 2 6.15972 2 5.41103 2.38148C4.75247 2.71703 4.21703 3.25247 3.88148 3.91103C3.5 4.65972 3.5 5.63982 3.5 7.6V16.4C3.5 18.3602 3.5 19.3403 3.88148 20.089C4.21703 20.7475 4.75247 21.283 5.41103 21.6185C6.15972 22 7.13982 22 9.1 22H14.9C16.8602 22 17.8403 22 18.589 21.6185C19.2475 21.283 19.783 20.7475 20.1185 20.089C20.5 19.3403 20.5 18.3602 20.5 16.4Z" fill="#000"/>
<path d="M8.90002 5.8381V5.50018C8.90002 5.22404 9.12388 5.00018 9.40002 5.00018C9.67617 5.00018 9.90002 5.22404 9.90002 5.50018V5.83424C10.0644 5.85966 10.2232 5.90124 10.3844 5.96519C10.6899 6.08636 10.9741 6.27639 11.3019 6.52462C11.5221 6.69132 11.5654 7.00492 11.3987 7.22507C11.232 7.44522 10.9184 7.48855 10.6982 7.32185C10.3861 7.08547 10.1902 6.96396 10.0157 6.89475C9.85291 6.83017 9.6805 6.80017 9.40008 6.80017C8.99109 6.80017 8.70392 6.89688 8.53336 7.02041C8.37778 7.13309 8.30008 7.27821 8.30008 7.47246C8.30008 7.70623 8.40069 7.83944 8.60431 7.95342C8.83951 8.08508 9.1591 8.15311 9.48228 8.20697C9.7991 8.25978 10.2795 8.34774 10.6843 8.57434C11.1207 8.81862 11.5001 9.24593 11.5001 9.92788C11.5001 10.4559 11.2578 10.8969 10.8534 11.1898C10.5849 11.3843 10.2578 11.5056 9.90002 11.5623V11.9002C9.90002 12.1763 9.67617 12.4002 9.40002 12.4002C9.12388 12.4002 8.90002 12.1763 8.90002 11.9002V11.5661C8.73567 11.5407 8.57694 11.4991 8.41572 11.4351C8.11024 11.314 7.82606 11.1239 7.49824 10.8757C7.27809 10.709 7.23476 10.3954 7.40146 10.1752C7.56816 9.95509 7.88176 9.91176 8.10191 10.0785C8.4141 10.3149 8.60991 10.4364 8.78443 10.5056C8.94726 10.5702 9.11967 10.6002 9.40008 10.6002C9.80907 10.6002 10.0962 10.5035 10.2668 10.3799C10.4224 10.2673 10.5001 10.1221 10.5001 9.92788C10.5001 9.69411 10.3995 9.5609 10.1959 9.44693C9.96064 9.31526 9.64105 9.24723 9.31788 9.19337C9.00105 9.14056 8.52064 9.0526 8.11585 8.826C7.67946 8.58172 7.30008 8.15441 7.30008 7.47246C7.30008 6.94442 7.54237 6.5034 7.9468 6.2105C8.21522 6.0161 8.54226 5.89475 8.90002 5.8381Z" fill="#000"/>
<path d="M7 14.5C7 14.2239 7.22386 14 7.5 14H16.5C16.7761 14 17 14.2239 17 14.5C17 14.7761 16.7761 15 16.5 15H7.5C7.22386 15 7 14.7761 7 14.5Z" fill="#000"/>
<path d="M14.25 8C13.9739 8 13.75 8.22386 13.75 8.5C13.75 8.77614 13.9739 9 14.25 9H16.5C16.7761 9 17 8.77614 17 8.5C17 8.22386 16.7761 8 16.5 8H14.25Z" fill="#000"/>
<path d="M13.75 11.5C13.75 11.2239 13.9739 11 14.25 11H16.5C16.7761 11 17 11.2239 17 11.5C17 11.7761 16.7761 12 16.5 12H14.25C13.9739 12 13.75 11.7761 13.75 11.5Z" fill="#000"/>
<path d="M7.5 17C7.22386 17 7 17.2239 7 17.5C7 17.7761 7.22386 18 7.5 18H16.5C16.7761 18 17 17.7761 17 17.5C17 17.2239 16.7761 17 16.5 17H7.5Z" fill="#000"/>
<path fill-rule="evenodd" clip-rule="evenodd" d="M14.9224 1.5H9.07755C8.11647 1.5 7.36451 1.49999 6.76049 1.54935C6.14594 1.59956 5.64062 1.70334 5.18404 1.93597C4.43139 2.31947 3.81947 2.93139 3.43597 3.68404C3.20334 4.14062 3.09956 4.64594 3.04935 5.26049C2.99999 5.86451 3 6.61646 3 7.57755V16.4224C3 17.3835 2.99999 18.1355 3.04935 18.7395C3.09956 19.3541 3.20334 19.8594 3.43597 20.316C3.81947 21.0686 4.43139 21.6805 5.18404 22.064C5.64062 22.2967 6.14594 22.4004 6.76049 22.4507C7.36453 22.5 8.11651 22.5 9.07765 22.5H14.9223C15.8835 22.5 16.6355 22.5 17.2395 22.4507C17.8541 22.4004 18.3594 22.2967 18.816 22.064C19.5686 21.6805 20.1805 21.0686 20.564 20.316C20.7967 19.8594 20.9004 19.3541 20.9507 18.7395C21 18.1355 21 17.3835 21 16.4225V7.57754C21 6.61646 21 5.86451 20.9507 5.26049C20.9004 4.64594 20.7967 4.14062 20.564 3.68404C20.1805 2.93139 19.5686 2.31947 18.816 1.93597C18.3594 1.70334 17.8541 1.59956 17.2395 1.54935C16.6355 1.49999 15.8835 1.5 14.9224 1.5ZM5.63803 2.82698C5.93014 2.67814 6.28921 2.59118 6.84192 2.54602C7.40047 2.50039 8.11166 2.5 9.1 2.5H14.9C15.8883 2.5 16.5995 2.50039 17.1581 2.54602C17.7108 2.59118 18.0699 2.67814 18.362 2.82698C18.9265 3.1146 19.3854 3.57354 19.673 4.13803C19.8219 4.43014 19.9088 4.78921 19.954 5.34192C19.9996 5.90047 20 6.61166 20 7.6V16.4C20 17.3883 19.9996 18.0995 19.954 18.6581C19.9088 19.2108 19.8219 19.5699 19.673 19.862C19.3854 20.4265 18.9265 20.8854 18.362 21.173C18.0699 21.3219 17.7108 21.4088 17.1581 21.454C16.5995 21.4996 15.8883 21.5 14.9 21.5H9.1C8.11166 21.5 7.40047 21.4996 6.84192 21.454C6.28921 21.4088 5.93014 21.3219 5.63803 21.173C5.07354 20.8854 4.6146 20.4265 4.32698 19.862C4.17814 19.5699 4.09118 19.2108 4.04602 18.6581C4.00039 18.0995 4 17.3883 4 16.4V7.6C4 6.61166 4.00039 5.90047 4.04602 5.34192C4.09118 4.78921 4.17814 4.43014 4.32698 4.13803C4.6146 3.57354 5.07354 3.1146 5.63803 2.82698Z" fill="#000"/>
</svg>
