<svg width="24" height="24" viewBox="0 0 24 24" fill="none" xmlns="http://www.w3.org/2000/svg">
<g opacity="0.4">
<path d="M2.15816 6.57068C2 6.99393 2 7.48369 2 8.46321V10.4842L10.2236 7.20794C10.88 6.94644 11.2082 6.8157 11.5469 6.76393C11.8473 6.71802 12.153 6.71802 12.4534 6.76393C12.7921 6.8157 13.1203 6.94645 13.7767 7.20795L22 10.4842V8.46318C22 7.48367 22 6.99392 21.8418 6.57067C21.7021 6.1967 21.4748 5.86163 21.179 5.5935C20.8443 5.29004 20.3892 5.10894 19.4792 4.74672L13.7751 2.47648C13.1193 2.21546 12.7914 2.08495 12.4529 2.03327C12.1528 1.98745 11.8475 1.98744 11.5473 2.03327C11.2089 2.08494 10.881 2.21545 10.2252 2.47646L4.52087 4.74674C3.61078 5.10895 3.15573 5.29005 2.82097 5.59351C2.52518 5.86164 2.2979 6.19671 2.15816 6.57068Z" fill="#000"/>
<path d="M22 13.9802L13.1095 10.4417C12.3971 10.1582 11.6032 10.1582 10.8908 10.4417L2 13.9802V15.5368C2 16.5164 2 17.0061 2.15816 17.4294C2.2979 17.8033 2.52518 18.1384 2.82097 18.4065C3.15574 18.71 3.61078 18.8911 4.52087 19.2533L10.2252 21.5236C10.881 21.7846 11.2089 21.9151 11.5473 21.9668C11.8475 22.0126 12.1528 22.0126 12.4529 21.9668C12.7914 21.9151 13.1193 21.7846 13.7751 21.5236L19.4792 19.2533C20.3892 18.8911 20.8443 18.71 21.179 18.4065C21.4748 18.1384 21.7021 17.8034 21.8418 17.4294C22 17.0061 22 16.5164 22 15.5369V13.9802Z" fill="#000"/>
</g>
<path d="M11.0758 10.9061C11.6695 10.6698 12.3311 10.6698 12.9247 10.9061L15.1474 11.7907C15.4039 11.8928 15.6947 11.7676 15.7968 11.5111C15.8989 11.2545 15.7737 10.9637 15.5172 10.8616L13.2945 9.97698C12.4634 9.64619 11.5372 9.64618 10.706 9.97697L8.48333 10.8616C8.22676 10.9637 8.10155 11.2545 8.20366 11.511C8.30577 11.7676 8.59654 11.8928 8.85311 11.7907L11.0758 10.9061Z" fill="#000"/>
<path fill-rule="evenodd" clip-rule="evenodd" d="M1.50016 10.4928C1.49995 10.4844 1.49995 10.4759 1.50016 10.4675L1.50014 8.36229C1.49988 7.48027 1.49971 6.90478 1.68995 6.39567C1.85764 5.9469 2.13037 5.54481 2.48533 5.22305C2.888 4.85804 3.42277 4.64539 4.24236 4.31948L10.0978 1.98904C10.6988 1.74977 11.0765 1.59938 11.472 1.53899C11.8222 1.48554 12.1784 1.48554 12.5286 1.539C12.9241 1.59939 13.3018 1.74979 13.9028 1.98906L19.758 4.31946C20.5776 4.64538 21.1123 4.85803 21.515 5.22305C21.87 5.54481 22.1427 5.94689 22.3104 6.39566C22.5006 6.90477 22.5004 7.48026 22.5002 8.36227L22.5002 10.4698C22.5003 10.4767 22.5003 10.4836 22.5002 10.4905V13.9698C22.5003 13.9767 22.5003 13.9836 22.5002 13.9905L22.5002 15.6378C22.5004 16.5198 22.5006 17.0953 22.3104 17.6044C22.1427 18.0532 21.87 18.4552 21.515 18.777C21.1123 19.142 20.5776 19.3547 19.758 19.6806L13.9028 22.011C13.3018 22.2502 12.9241 22.4006 12.5286 22.461C12.1784 22.5145 11.8222 22.5145 11.472 22.461C11.0765 22.4007 10.6988 22.2503 10.0979 22.011L4.24239 19.6806C3.4228 19.3547 2.88801 19.142 2.48533 18.777C2.13038 18.4552 1.85764 18.0532 1.68995 17.6044C1.49971 17.0953 1.49988 16.5198 1.50014 15.6378L1.50016 13.9928C1.49995 13.9844 1.49995 13.9759 1.50016 13.9675V10.4928ZM12.3776 2.52754C12.1275 2.48936 11.8731 2.48935 11.623 2.52754C11.354 2.5686 11.0872 2.67156 10.4102 2.94102L4.70592 5.21129C3.75866 5.5883 3.40863 5.7358 3.15694 5.96396C2.9203 6.17846 2.73848 6.44652 2.62669 6.7457C2.50778 7.06392 2.50016 7.44369 2.50016 8.46321V9.74285L10.0978 6.71902C10.6988 6.47975 11.0765 6.32936 11.472 6.26898C11.8222 6.21552 12.1784 6.21552 12.5285 6.26898C12.9241 6.32937 13.3018 6.47977 13.9027 6.71904L21.5002 9.74287V8.46318C21.5002 7.44367 21.4925 7.0639 21.3736 6.74569C21.2618 6.44651 21.08 6.17845 20.8434 5.96395C20.5917 5.7358 20.2417 5.58829 19.2944 5.21128L13.5904 2.94104C12.9134 2.67157 12.6466 2.56861 12.3776 2.52754ZM2.50016 14.3191L4.40772 13.5599C4.66429 13.4578 4.7895 13.1671 4.68739 12.9105C4.58527 12.6539 4.29451 12.5287 4.03794 12.6308L2.50016 13.2429V10.8191L10.4102 7.671C11.0872 7.40155 11.354 7.29858 11.6229 7.25752C11.873 7.21933 12.1275 7.21934 12.3776 7.25752C12.6466 7.29859 12.9133 7.40155 13.5904 7.67102L21.5002 10.8192V13.2429L19.9624 12.6308C19.7058 12.5287 19.4151 12.6539 19.313 12.9105C19.2108 13.1671 19.336 13.4578 19.5926 13.5599L21.5002 14.3192V15.5369C21.5002 16.5564 21.4925 16.9361 21.3736 17.2544C21.2618 17.5535 21.08 17.8216 20.8434 18.0361C20.5917 18.2643 20.2417 18.4118 19.2944 18.7888L13.5904 21.059C12.9134 21.3285 12.6466 21.4314 12.3776 21.4725C12.1275 21.5107 11.8731 21.5107 11.623 21.4725C11.354 21.4314 11.0872 21.3285 10.4102 21.059L4.70593 18.7888C3.75867 18.4118 3.40863 18.2642 3.15694 18.0361C2.9203 17.8216 2.73848 17.5535 2.62669 17.2544C2.50778 16.9361 2.50016 16.5564 2.50016 15.5368V14.3191Z" fill="#000"/>
</svg>
