<svg width="24" height="24" viewBox="0 0 24 24" fill="none" xmlns="http://www.w3.org/2000/svg">
<path opacity="0.4" fill-rule="evenodd" clip-rule="evenodd" d="M22 9.2V14.8C22 17.3202 22 18.5804 21.5095 19.543C21.0781 20.3897 20.3897 21.0781 19.543 21.5095C18.5804 22 17.3202 22 14.8 22H9.2C6.67976 22 5.41965 22 4.45704 21.5095C3.61031 21.0781 2.9219 20.3897 2.49047 19.543C2 18.5804 2 17.3202 2 14.8V9.2C2 6.67976 2 5.41965 2.49047 4.45704C2.9219 3.61031 3.61031 2.9219 4.45704 2.49047C5.41965 2 6.67976 2 9.2 2H14.8C17.3202 2 18.5804 2 19.543 2.49047C20.3897 2.9219 21.0781 3.61031 21.5095 4.45704C22 5.41964 22 6.67978 22 9.2ZM10.4137 13.4137C11.1947 12.6327 11.1947 11.3667 10.4137 10.5857C9.63275 9.80475 8.36675 9.80475 7.58575 10.5857C6.80475 11.3667 6.80475 12.6327 7.58575 13.4137C8.36675 14.1947 9.63275 14.1947 10.4137 13.4137Z" fill="#000"/>
<path fill-rule="evenodd" clip-rule="evenodd" d="M14.5 10.5C14.5 10.2239 14.2761 10 14 10C13.7239 10 13.5 10.2239 13.5 10.5V11.5H11.4493C11.355 11.0354 11.1276 10.5925 10.7673 10.2322C9.79104 9.25593 8.20846 9.25593 7.2322 10.2322C6.25593 11.2085 6.25593 12.791 7.2322 13.7673C8.20846 14.7436 9.79104 14.7436 10.7673 13.7673C11.1275 13.4071 11.3548 12.9644 11.4492 12.5H13.9842C13.9895 12.5002 13.9947 12.5002 14 12.5002C14.0053 12.5002 14.0105 12.5002 14.0158 12.5H17C17.2761 12.5 17.5 12.2761 17.5 12V10C17.5 9.72386 17.2761 9.5 17 9.5C16.7239 9.5 16.5 9.72386 16.5 10V11.5H14.5V10.5ZM10.0602 10.9393C9.47446 10.3536 8.52504 10.3536 7.9393 10.9393C7.35357 11.525 7.35357 12.4745 7.9393 13.0602C8.52504 13.6459 9.47446 13.6459 10.0602 13.0602C10.6459 12.4745 10.6459 11.525 10.0602 10.9393Z" fill="#000"/>
<path fill-rule="evenodd" clip-rule="evenodd" d="M15.6226 1.5H8.37737C7.27642 1.5 6.41948 1.5 5.73209 1.55616C5.03416 1.61318 4.4671 1.73058 3.95704 1.99047C3.11031 2.4219 2.4219 3.11031 1.99047 3.95704C1.73058 4.4671 1.61318 5.03416 1.55616 5.73209C1.5 6.41948 1.5 7.27641 1.5 8.37737V15.6226C1.5 16.7236 1.5 17.5805 1.55616 18.2679C1.61318 18.9658 1.73058 19.5329 1.99047 20.043C2.4219 20.8897 3.11031 21.5781 3.95704 22.0095C4.4671 22.2694 5.03416 22.3868 5.73209 22.4438C6.41949 22.5 7.27642 22.5 8.3774 22.5H15.6225C16.7235 22.5 17.5805 22.5 18.2679 22.4438C18.9658 22.3868 19.5329 22.2694 20.043 22.0095C20.8897 21.5781 21.5781 20.8897 22.0095 20.043C22.2694 19.5329 22.3868 18.9658 22.4438 18.2679C22.5 17.5805 22.5 16.7236 22.5 15.6227V8.37736C22.5 7.27644 22.5 6.41946 22.4438 5.73209C22.3868 5.03416 22.2694 4.4671 22.0095 3.95704C21.5781 3.11031 20.8897 2.4219 20.043 1.99047C19.5329 1.73058 18.9658 1.61318 18.2679 1.55616C17.5805 1.5 16.7236 1.5 15.6226 1.5ZM4.41103 2.88148C4.75662 2.70539 5.17744 2.60481 5.81352 2.55284C6.45545 2.50039 7.27164 2.5 8.4 2.5H15.6C16.7284 2.5 17.5446 2.50039 18.1865 2.55284C18.8226 2.60481 19.2434 2.70539 19.589 2.88148C20.2475 3.21703 20.783 3.75247 21.1185 4.41103C21.2946 4.75662 21.3952 5.17744 21.4472 5.81352C21.4996 6.45545 21.5 7.27164 21.5 8.4V15.6C21.5 16.7284 21.4996 17.5446 21.4472 18.1865C21.3952 18.8226 21.2946 19.2434 21.1185 19.589C20.783 20.2475 20.2475 20.783 19.589 21.1185C19.2434 21.2946 18.8226 21.3952 18.1865 21.4472C17.5446 21.4996 16.7284 21.5 15.6 21.5H8.4C7.27164 21.5 6.45545 21.4996 5.81352 21.4472C5.17744 21.3952 4.75662 21.2946 4.41103 21.1185C3.75247 20.783 3.21703 20.2475 2.88148 19.589C2.70539 19.2434 2.60481 18.8226 2.55284 18.1865C2.50039 17.5446 2.5 16.7284 2.5 15.6V8.4C2.5 7.27164 2.50039 6.45545 2.55284 5.81352C2.60481 5.17744 2.70539 4.75662 2.88148 4.41103C3.21703 3.75247 3.75247 3.21703 4.41103 2.88148Z" fill="#000"/>
</svg>
