<svg width="24" height="24" viewBox="0 0 24 24" fill="none" xmlns="http://www.w3.org/2000/svg">
<g opacity="0.4">
<path d="M12 5C11.3257 8.06494 10.1968 10.3032 8 12.2723C5.80324 10.3032 4.67429 8.06494 4 5H12Z" fill="#000"/>
<path d="M14.3502 18L17.5004 11L20.6504 18H14.3502Z" fill="#000"/>
</g>
<path d="M8 2.5C8.27614 2.5 8.5 2.72386 8.5 3V4.5H11.9887C11.996 4.49984 12.0034 4.49984 12.0107 4.5H14C14.2761 4.5 14.5 4.72386 14.5 5C14.5 5.27614 14.2761 5.5 14 5.5H12.3986C11.8875 7.64537 11.128 9.41934 9.89334 10.9907C9.54845 11.4297 9.16825 11.8506 8.74878 12.2577C9.69857 13.046 10.8453 13.8006 12.2394 14.561C12.4818 14.6933 12.5712 14.997 12.4389 15.2394C12.3067 15.4818 12.003 15.5712 11.7606 15.4389C10.2712 14.6265 9.03266 13.8078 8.00011 12.9351C6.96638 13.8089 5.72748 14.6274 4.23961 15.4389C3.99719 15.5712 3.69347 15.4818 3.56124 15.2394C3.42901 14.997 3.51834 14.6933 3.76076 14.561C5.1563 13.7998 6.3027 13.0451 7.2514 12.2577C6.30194 11.3361 5.55493 10.3456 4.96266 9.23531C4.83268 8.99167 4.92483 8.6888 5.16847 8.55882C5.41212 8.42885 5.71499 8.521 5.84496 8.76464C6.39285 9.79169 7.09017 10.7171 8.0001 11.5905C8.41064 11.1965 8.77763 10.7921 9.10703 10.3729C10.1872 8.99816 10.8841 7.43688 11.3692 5.5H2C1.72386 5.5 1.5 5.27614 1.5 5C1.5 4.72386 1.72386 4.5 2 4.5H7.5V3C7.5 2.72386 7.72386 2.5 8 2.5Z" fill="#000"/>
<path fill-rule="evenodd" clip-rule="evenodd" d="M17.5 10.5C17.6968 10.5 17.8752 10.6154 17.956 10.7948L21.1015 17.785C21.1047 17.7916 21.1077 17.7984 21.1106 17.8052L22.456 20.7948C22.5693 21.0466 22.457 21.3426 22.2052 21.456C21.9534 21.5693 21.6574 21.457 21.544 21.2052L20.3267 18.5H14.6733L13.456 21.2052C13.3426 21.457 13.0466 21.5693 12.7948 21.456C12.543 21.3426 12.4307 21.0466 12.544 20.7948L13.8894 17.8052C13.8923 17.7984 13.8953 17.7916 13.8985 17.785L17.044 10.7948C17.1248 10.6154 17.3032 10.5 17.5 10.5ZM15.1233 17.5H19.8767L17.5 12.2184L15.1233 17.5Z" fill="#000"/>
</svg>
