<svg width="24" height="24" viewBox="0 0 24 24" fill="none" xmlns="http://www.w3.org/2000/svg">
<g opacity="0.4">
<path d="M7.37794 3.5H16.6221C17.3734 3.5 17.9679 3.49999 18.4469 3.53913C18.9364 3.57912 19.3491 3.66246 19.7255 3.85423C20.337 4.16582 20.8342 4.663 21.1458 5.27453C21.3375 5.65089 21.4209 6.0636 21.4609 6.55309C21.5 7.03204 21.5 7.6265 21.5 8.37784V15C21.5 15.2761 21.2761 15.5 21 15.5H3C2.72386 15.5 2.5 15.2761 2.5 15L2.5 8.37794C2.5 7.62656 2.49999 7.03206 2.53913 6.55309C2.57912 6.0636 2.66246 5.65089 2.85423 5.27453C3.16582 4.663 3.663 4.16582 4.27453 3.85423C4.65089 3.66246 5.0636 3.57912 5.55309 3.53913C6.03206 3.49999 6.62656 3.5 7.37794 3.5Z" fill="#000"/>
<path d="M23 17V17.75C23 18.9926 21.9926 20 20.75 20H3.25C2.00736 20 1 18.9926 1 17.75V17H23Z" fill="#000"/>
</g>
<path d="M9 3.5H7.37794C6.62656 3.5 6.03206 3.49999 5.55309 3.53913C5.0636 3.57912 4.65089 3.66246 4.27453 3.85423C3.663 4.16582 3.16582 4.663 2.85423 5.27453C2.66246 5.65089 2.57912 6.0636 2.53913 6.55309C2.49999 7.03206 2.5 7.62655 2.5 8.37794L2.5 15C2.5 15.2761 2.72386 15.5 3 15.5C3.27614 15.5 3.5 15.2761 3.5 15V8.4C3.5 7.62168 3.50039 7.06801 3.53581 6.63452C3.57075 6.20687 3.63727 5.94042 3.74524 5.72852C3.96095 5.30516 4.30516 4.96095 4.72852 4.74524C4.94042 4.63727 5.20687 4.57075 5.63452 4.53581C6.06801 4.50039 6.62168 4.5 7.4 4.5H9C9.27614 4.5 9.5 4.27614 9.5 4C9.5 3.72386 9.27614 3.5 9 3.5Z" fill="#000"/>
<path d="M16.6 4.5C17.3783 4.5 17.932 4.50039 18.3655 4.53581C18.7931 4.57075 19.0596 4.63727 19.2715 4.74524C19.6948 4.96095 20.039 5.30516 20.2548 5.72852C20.3627 5.94042 20.4293 6.20687 20.4642 6.63452C20.4996 7.06801 20.5 7.62168 20.5 8.4V15C20.5 15.2761 20.7239 15.5 21 15.5C21.2761 15.5 21.5 15.2761 21.5 15V8.37793C21.5 7.62662 21.5 7.03203 21.4609 6.55309C21.4209 6.0636 21.3375 5.65089 21.1458 5.27453C20.8342 4.663 20.337 4.16582 19.7255 3.85423C19.3491 3.66246 18.9364 3.57912 18.4469 3.53913C17.9679 3.49999 17.3734 3.5 16.6221 3.5H15C14.7239 3.5 14.5 3.72386 14.5 4C14.5 4.27614 14.7239 4.5 15 4.5H16.6Z" fill="#000"/>
<path fill-rule="evenodd" clip-rule="evenodd" d="M1 16.5C0.867392 16.5 0.740215 16.5527 0.646447 16.6464C0.552678 16.7402 0.5 16.8674 0.5 17V17.75C0.5 19.2688 1.73122 20.5 3.25 20.5H20.75C22.2688 20.5 23.5 19.2688 23.5 17.75V17C23.5 16.7239 23.2761 16.5 23 16.5H1ZM1.5 17.75V17.5H22.5V17.75C22.5 18.7165 21.7165 19.5 20.75 19.5H3.25C2.2835 19.5 1.5 18.7165 1.5 17.75Z" fill="#000"/>
<path d="M12 3.5C12.2761 3.5 12.5 3.72386 12.5 4V10.7929L14.6464 8.64645C14.8417 8.45118 15.1583 8.45118 15.3536 8.64645C15.5488 8.84171 15.5488 9.15829 15.3536 9.35355L12.3536 12.3536C12.2598 12.4473 12.1326 12.5 12 12.5C11.8674 12.5 11.7402 12.4473 11.6464 12.3536L8.64645 9.35355C8.45118 9.15829 8.45118 8.84171 8.64645 8.64645C8.84171 8.45118 9.15829 8.45118 9.35355 8.64645L11.5 10.7929V4C11.5 3.72386 11.7239 3.5 12 3.5Z" fill="#000"/>
</svg>
