<svg width="24" height="24" viewBox="0 0 24 24" fill="none" xmlns="http://www.w3.org/2000/svg">
<path opacity="0.4" d="M13.1887 2.27153L21.5459 6.27969C22.1513 6.57005 22.1512 7.43205 21.5458 7.72237L13.1886 11.7298C12.4368 12.0903 11.5622 12.0903 10.8105 11.7298L2.45336 7.72237C1.84793 7.43205 1.8479 6.57006 2.45331 6.27969L10.8103 2.27154C11.5621 1.91095 12.4369 1.91095 13.1887 2.27153Z" fill="#000"/>
<path fill-rule="evenodd" clip-rule="evenodd" d="M13.405 1.8207C12.5165 1.39456 11.4826 1.39456 10.5941 1.82071L2.23711 5.82886C1.25332 6.30071 1.25337 7.70144 2.2372 8.17321L10.5943 12.1807C11.4827 12.6067 12.5164 12.6067 13.4048 12.1807L21.762 8.17322C22.7459 7.70145 22.7459 6.3007 21.7621 5.82886L13.405 1.8207ZM11.0265 2.72237C11.6417 2.42734 12.3574 2.42734 12.9726 2.72236L21.3297 6.73052C21.5567 6.83941 21.5567 7.16266 21.3296 7.27153L12.9724 11.279C12.3574 11.5739 11.6417 11.5739 11.0267 11.279L2.66958 7.27152C2.44255 7.16265 2.44253 6.83941 2.66956 6.73052L11.0265 2.72237Z" fill="#000"/>
<path d="M3.73116 10.6666C3.85058 10.9156 3.74554 11.2142 3.49656 11.3336L2.66929 11.7304C2.44226 11.8393 2.44227 12.1625 2.66931 12.2714L11.0264 16.2789C11.6415 16.5738 12.3571 16.5738 12.9721 16.2789L21.3294 12.2714C21.5564 12.1625 21.5564 11.8393 21.3294 11.7304L20.5024 11.3338C20.2535 11.2144 20.1484 10.9157 20.2678 10.6667C20.3873 10.4178 20.6859 10.3127 20.9349 10.4321L21.7618 10.8287C22.7456 11.3006 22.7456 12.7013 21.7617 13.1731L13.4045 17.1806C12.5161 17.6066 11.4824 17.6066 10.594 17.1805L2.23692 13.1731C1.2531 12.7013 1.25305 11.3006 2.23684 10.8287L3.0641 10.432C3.31309 10.3126 3.61174 10.4176 3.73116 10.6666Z" fill="#000"/>
<path d="M3.73116 15.6666C3.85058 15.9156 3.74554 16.2142 3.49656 16.3336L2.66929 16.7304C2.44226 16.8393 2.44227 17.1625 2.66931 17.2714L11.0264 21.2789C11.6415 21.5738 12.3571 21.5738 12.9721 21.2789L21.3294 17.2714C21.5564 17.1625 21.5564 16.8393 21.3294 16.7304L20.5024 16.3338C20.2535 16.2144 20.1484 15.9157 20.2678 15.6667C20.3873 15.4178 20.6859 15.3127 20.9349 15.4321L21.7618 15.8287C22.7456 16.3006 22.7456 17.7013 21.7617 18.1731L13.4045 22.1806C12.5161 22.6066 11.4824 22.6066 10.594 22.1805L2.23692 18.1731C1.2531 17.7013 1.25305 16.3006 2.23684 15.8287L3.0641 15.432C3.31309 15.3126 3.61174 15.4176 3.73116 15.6666Z" fill="#000"/>
</svg>
