<svg width="24" height="24" viewBox="0 0 24 24" fill="none" xmlns="http://www.w3.org/2000/svg">
<path opacity="0.4" fill-rule="evenodd" clip-rule="evenodd" d="M12 23C18.0751 23 23 18.0751 23 12C23 5.92487 18.0751 1 12 1C5.92487 1 1 5.92487 1 12C1 18.0751 5.92487 23 12 23ZM12 16.5C14.4853 16.5 16.5 14.4853 16.5 12C16.5 9.51472 14.4853 7.5 12 7.5C9.51472 7.5 7.5 9.51472 7.5 12C7.5 14.4853 9.51472 16.5 12 16.5Z" fill="#000"/>
<path fill-rule="evenodd" clip-rule="evenodd" d="M0.5 12C0.5 5.64873 5.64873 0.5 12 0.5C18.3513 0.5 23.5 5.64873 23.5 12C23.5 18.3513 18.3513 23.5 12 23.5C5.64873 23.5 0.5 18.3513 0.5 12ZM4.2302 4.9373C2.53395 6.80228 1.5 9.28039 1.5 12C1.5 14.7196 2.53395 17.1977 4.2302 19.0627L7.89645 15.3964C7.9819 15.311 8.09058 15.2629 8.20216 15.2523C7.45274 14.378 7 13.2419 7 12C7 10.7581 7.45274 9.62204 8.20216 8.74772C8.09058 8.73706 7.9819 8.689 7.89645 8.60355L4.2302 4.9373ZM4.9373 4.2302L8.60355 7.89645C8.689 7.9819 8.73706 8.09058 8.74772 8.20216C9.62204 7.45274 10.7581 7 12 7C13.2419 7 14.378 7.45274 15.2523 8.20216C15.2629 8.09058 15.311 7.9819 15.3964 7.89645L19.0627 4.2302C17.1977 2.53395 14.7196 1.5 12 1.5C9.28039 1.5 6.80228 2.53395 4.9373 4.2302ZM19.7698 4.9373L16.1036 8.60355C16.0181 8.689 15.9094 8.73706 15.7978 8.74772C16.5473 9.62204 17 10.7581 17 12C17 13.2419 16.5473 14.378 15.7978 15.2523C15.9094 15.2629 16.0181 15.311 16.1036 15.3964L19.7698 19.0627C21.4661 17.1977 22.5 14.7196 22.5 12C22.5 9.28039 21.4661 6.80228 19.7698 4.9373ZM19.0627 19.7698L15.3964 16.1036C15.311 16.0181 15.2629 15.9094 15.2523 15.7978C14.378 16.5473 13.2419 17 12 17C10.7581 17 9.62204 16.5473 8.74772 15.7978C8.73706 15.9094 8.689 16.0181 8.60355 16.1036L4.9373 19.7698C6.80228 21.4661 9.28039 22.5 12 22.5C14.7196 22.5 17.1977 21.4661 19.0627 19.7698ZM12 8C9.79086 8 8 9.79086 8 12C8 14.2091 9.79086 16 12 16C14.2091 16 16 14.2091 16 12C16 9.79086 14.2091 8 12 8Z" fill="#000"/>
</svg>
