<svg width="24" height="24" viewBox="0 0 24 24" fill="none" xmlns="http://www.w3.org/2000/svg">
<g opacity="0.4">
<path d="M8.1462 8.14641L3.09619 13.1964C0.967936 15.3247 0.967935 18.7753 3.09619 20.9035C5.22445 23.0318 8.67504 23.0318 10.8033 20.9035L15.8533 15.8535L8.1462 8.14641Z" fill="#000"/>
<path d="M17.8533 13.8535L20.9033 10.8035C23.0315 8.67529 23.0315 5.2247 20.9033 3.09644C18.775 0.968179 15.3244 0.96818 13.1962 3.09644L10.1462 6.14641L17.8533 13.8535Z" fill="#000"/>
</g>
<path d="M2.35355 1.64645C2.15829 1.45118 1.84171 1.45118 1.64645 1.64645C1.45118 1.84171 1.45118 2.15829 1.64645 2.35355L11.2929 12L8.64651 14.6464C8.45125 14.8417 8.45125 15.1583 8.64651 15.3536C8.84177 15.5488 9.15835 15.5488 9.35361 15.3536L12 12.7071L21.6464 22.3536C21.8417 22.5488 22.1583 22.5488 22.3536 22.3536C22.5488 22.1583 22.5488 21.8417 22.3536 21.6464L2.35355 1.64645Z" fill="#000"/>
<path d="M17.8536 13.8535L20.9036 10.8035C23.0319 8.67529 23.0319 5.2247 20.9036 3.09644C18.7753 0.968179 15.3248 0.96818 13.1965 3.09644L10.1465 6.14643L10.8536 6.85353L13.9036 3.80355C15.6413 2.06581 18.4588 2.06581 20.1965 3.80354C21.9342 5.54128 21.9342 8.3587 20.1965 10.0964L17.1465 13.1464L17.8536 13.8535Z" fill="#000"/>
<path d="M13.6465 9.64643L14.6465 8.64645C14.8418 8.45118 15.1584 8.45118 15.3536 8.64645C15.5489 8.84171 15.5489 9.15829 15.3536 9.35355L14.3536 10.3535L13.6465 9.64643Z" fill="#000"/>
<path d="M13.8536 17.1464C14.0489 17.3417 14.0489 17.6583 13.8536 17.8536L10.8036 20.9035C8.67535 23.0318 5.22476 23.0318 3.09651 20.9035C0.968246 18.7753 0.968247 15.3247 3.09651 13.1964L6.14649 10.1464C6.34176 9.95118 6.65834 9.95118 6.8536 10.1464C7.04886 10.3417 7.04886 10.6583 6.8536 10.8536L3.80361 13.9035C2.06588 15.6413 2.06588 18.4587 3.80361 20.1964C5.54135 21.9342 8.35877 21.9342 10.0965 20.1964L13.1465 17.1464C13.3418 16.9512 13.6583 16.9512 13.8536 17.1464Z" fill="#000"/>
</svg>
