<svg width="24" height="24" viewBox="0 0 24 24" fill="none" xmlns="http://www.w3.org/2000/svg">
<path opacity="0.4" d="M20.9038 3.09644C18.7755 0.968179 15.3249 0.96818 13.1967 3.09644L3.09668 13.1964C0.968424 15.3247 0.968423 18.7753 3.09668 20.9035C5.22494 23.0318 8.67553 23.0318 10.8038 20.9035L20.9038 10.8035C23.032 8.67529 23.032 5.2247 20.9038 3.09644Z" fill="#000"/>
<path d="M10.1462 6.85378C9.95092 6.65851 9.95092 6.34193 10.1462 6.14667L13.1962 3.09668C15.3244 0.968424 18.775 0.968423 20.9033 3.09668C23.0315 5.22494 23.0315 8.67553 20.9033 10.8038L17.8533 13.8538C17.658 14.049 17.3414 14.049 17.1462 13.8538C16.9509 13.6585 16.9509 13.3419 17.1462 13.1467L20.1962 10.0967C21.9339 8.35895 21.9339 5.54152 20.1962 3.80379C18.4584 2.06605 15.641 2.06605 13.9033 3.80379L10.8533 6.85378C10.658 7.04904 10.3414 7.04904 10.1462 6.85378Z" fill="#000"/>
<path d="M15.3533 8.64667C15.5486 8.84193 15.5486 9.15851 15.3533 9.35378L9.3533 15.3538C9.15804 15.549 8.84146 15.549 8.6462 15.3538C8.45093 15.1585 8.45093 14.8419 8.6462 14.6467L14.6462 8.64667C14.8415 8.45141 15.158 8.45141 15.3533 8.64667Z" fill="#000"/>
<path d="M13.8533 17.8538C14.0486 17.6585 14.0486 17.3419 13.8533 17.1467C13.658 16.9514 13.3414 16.9514 13.1462 17.1467L10.0962 20.1967C8.35846 21.9344 5.54104 21.9344 3.8033 20.1967C2.06557 18.4589 2.06557 15.6415 3.8033 13.9038L6.85329 10.8538C7.04855 10.6585 7.04855 10.3419 6.85329 10.1467C6.65803 9.95141 6.34144 9.95141 6.14618 10.1467L3.09619 13.1967C0.967936 15.3249 0.967935 18.7755 3.09619 20.9038C5.22445 23.032 8.67504 23.032 10.8033 20.9038L13.8533 17.8538Z" fill="#000"/>
</svg>
