<svg width="24" height="24" viewBox="0 0 24 24" fill="none" xmlns="http://www.w3.org/2000/svg">
<g opacity="0.4">
<path d="M6.34315 6.34315C4.89543 7.79086 4 9.79086 4 12C4 16.4183 7.58172 20 12 20C14.2091 20 16.2091 19.1046 17.6569 17.6569L14.1213 14.1213C13.5784 14.6642 12.8284 15 12 15C10.3431 15 9 13.6569 9 12C9 11.1716 9.33579 10.4216 9.87868 9.87868L6.34315 6.34315Z" fill="#000"/>
<path d="M14.9643 12.4643C14.9878 12.313 15 12.1579 15 12C15 10.3431 13.6569 9 12 9C11.8421 9 11.687 9.0122 11.5357 9.03571L7.73223 5.23223C8.96734 4.45173 10.4309 4 12 4C16.4183 4 20 7.58172 20 12C20 13.5691 19.5483 15.0327 18.7678 16.2678L14.9643 12.4643Z" fill="#000"/>
</g>
<path fill-rule="evenodd" clip-rule="evenodd" d="M2.35355 1.64645C2.15829 1.45118 1.84171 1.45118 1.64645 1.64645C1.45118 1.84171 1.45118 2.15829 1.64645 2.35355L5.64638 6.35349C4.41454 7.73859 3.62878 9.52921 3.51446 11.5H2C1.72386 11.5 1.5 11.7239 1.5 12C1.5 12.2761 1.72386 12.5 2 12.5H3.51446C3.76367 16.7962 7.20375 20.2363 11.5 20.4855V22C11.5 22.2761 11.7239 22.5 12 22.5C12.2761 22.5 12.5 22.2761 12.5 22V20.4855C14.471 20.3712 16.2617 19.5851 17.6465 18.3536L21.6464 22.3536C21.8417 22.5488 22.1583 22.5488 22.3536 22.3536C22.5488 22.1583 22.5488 21.8417 22.3536 21.6464L2.35355 1.64645ZM16.9381 17.6452L14.0961 14.8032C13.5118 15.2408 12.7862 15.5 12 15.5C10.067 15.5 8.5 13.933 8.5 12C8.5 11.2138 8.7592 10.4882 9.19681 9.90391L6.35487 7.06198C5.19993 8.38123 4.5 10.1089 4.5 12C4.5 16.1421 7.85786 19.5 12 19.5C13.8909 19.5 15.6185 18.8005 16.9381 17.6452ZM9.9142 10.6213C9.65244 11.0165 9.5 11.4905 9.5 12C9.5 13.3807 10.6193 14.5 12 14.5C12.5095 14.5 12.9835 14.3476 13.3787 14.0858L9.9142 10.6213Z" fill="#000"/>
<path d="M12 9.5C13.3807 9.5 14.5 10.6193 14.5 12L15.3867 12.8867C15.4606 12.6035 15.5 12.3064 15.5 12C15.5 10.067 13.933 8.5 12 8.5C11.6936 8.5 11.3965 8.53936 11.1133 8.6133L12 9.5Z" fill="#000"/>
<path d="M19.5 12C19.5 13.4312 19.0996 14.7676 18.4047 15.9047L19.1297 16.6297C19.9112 15.4284 20.3974 14.0171 20.4855 12.5H22C22.2761 12.5 22.5 12.2761 22.5 12C22.5 11.7239 22.2761 11.5 22 11.5H20.4855C20.2363 7.20375 16.7962 3.76367 12.5 3.51446V2C12.5 1.72386 12.2761 1.5 12 1.5C11.7239 1.5 11.5 1.72386 11.5 2V3.51446C9.98227 3.6025 8.57139 4.08875 7.37029 4.87029L8.09533 5.59533C9.2327 4.90044 10.5696 4.5 12 4.5C16.1421 4.5 19.5 7.85786 19.5 12Z" fill="#000"/>
</svg>
