<svg width="24" height="24" viewBox="0 0 24 24" fill="none" xmlns="http://www.w3.org/2000/svg">
<g opacity="0.4">
<path d="M5.43173 5.43174C4.52921 6.72695 4 8.30168 4 10C4 13.9146 6.50014 16.69 8.37791 18.7745L8.49994 18.91C9.15249 19.6351 10.6987 21.0698 11.4997 21.804C11.7835 22.0641 12.2165 22.0641 12.5002 21.8039C13.3012 21.0698 14.8474 19.635 15.4999 18.91L15.6163 18.7808C16.0735 18.2733 16.5818 17.7091 17.0855 17.0855L5.43173 5.43174Z" fill="#000"/>
<path d="M18.1455 15.6455C19.1815 14.074 19.9999 12.2022 19.9999 10C19.9999 5.58176 16.4182 2 12 2C9.91805 2 8.02186 2.79529 6.59864 4.09865L10.1434 7.64338C10.6541 7.24045 11.299 7 12 7C13.6569 7 15 8.34315 15 10C15 10.701 14.7595 11.3459 14.3566 11.8566L18.1455 15.6455Z" fill="#000"/>
</g>
<path fill-rule="evenodd" clip-rule="evenodd" d="M2.35355 1.64645C2.15829 1.45118 1.84171 1.45118 1.64645 1.64645C1.45118 1.84171 1.45118 2.15829 1.64645 2.35355L4.78961 5.49672C3.97239 6.80244 3.5 8.34606 3.5 10C3.5 14.1095 6.1173 17.0133 7.97871 19.0784L8.12829 19.2445C8.8006 19.9915 10.3677 21.4446 11.1618 22.1725C11.6368 22.6079 12.3632 22.6079 12.8381 22.1725C13.6322 21.4446 15.1993 19.9915 15.8716 19.2445L16.0147 19.0856C16.3581 18.7047 16.7356 18.2859 17.1214 17.8285L21.6464 22.3536C21.8417 22.5488 22.1583 22.5488 22.3536 22.3536C22.5488 22.1583 22.5488 21.8417 22.3536 21.6464L2.35355 1.64645ZM16.4104 17.1175L5.5179 6.225C4.87078 7.33379 4.5 8.6236 4.5 10C4.5 13.7203 6.88396 16.368 8.78201 18.476L8.87159 18.5755C9.50437 19.2786 11.0298 20.695 11.8375 21.4354C11.9302 21.5203 12.0698 21.5203 12.1624 21.4354C12.9701 20.695 14.4955 19.2786 15.1283 18.5755L15.2129 18.4815C15.593 18.0594 16.0017 17.6055 16.4104 17.1175Z" fill="#000"/>
<path d="M10.1438 7.64383L10.8584 8.35837C11.1824 8.13247 11.5763 8 12.001 8C13.1056 8 14.001 8.89543 14.001 10C14.001 10.4247 13.8686 10.8187 13.6427 11.1427L14.3572 11.8572C14.7604 11.3465 15.001 10.7015 15.001 10C15.001 8.34315 13.6579 7 12.001 7C11.2996 7 10.6546 7.24063 10.1438 7.64383Z" fill="#000"/>
<path d="M19.4999 10C19.4999 12.0418 18.7559 13.7893 17.7842 15.2842L18.5064 16.0064C19.6055 14.3606 20.4999 12.3642 20.4999 10C20.4999 5.30563 16.6944 1.5 12 1.5C9.77997 1.5 7.75874 2.35108 6.24476 3.74477L6.95256 4.45257C8.28498 3.23952 10.0561 2.5 12 2.5C16.1421 2.5 19.4999 5.8579 19.4999 10Z" fill="#000"/>
</svg>
