<svg width="24" height="24" viewBox="0 0 24 24" fill="none" xmlns="http://www.w3.org/2000/svg">
<path opacity="0.4" d="M5.87032 2.53921C6.34549 2.50039 6.95167 2.5 7.8 2.5H11C11.2761 2.5 11.5 2.27614 11.5 2C11.5 1.72386 11.2761 1.5 11 1.5L7.77779 1.5C6.95652 1.5 6.30955 1.49999 5.78889 1.54253C5.25771 1.58593 4.81413 1.67609 4.41103 1.88148C3.75247 2.21703 3.21703 2.75247 2.88148 3.41103C2.67609 3.81413 2.58593 4.25771 2.54253 4.78889C2.49999 5.30954 2.5 5.95651 2.5 6.77778V17.2222C2.5 18.0435 2.49999 18.6905 2.54253 19.2111C2.58593 19.7423 2.67609 20.1859 2.88148 20.589C3.21703 21.2475 3.75247 21.783 4.41103 22.1185C4.81413 22.3239 5.25771 22.4141 5.78889 22.4575C6.30954 22.5 6.95651 22.5 7.77778 22.5H11C11.2761 22.5 11.5 22.2761 11.5 22C11.5 21.7239 11.2761 21.5 11 21.5H7.8C6.95167 21.5 6.34549 21.4996 5.87032 21.4608C5.40099 21.4224 5.10366 21.3491 4.86502 21.2275C4.39462 20.9878 4.01217 20.6054 3.77248 20.135C3.65089 19.8963 3.57756 19.599 3.53921 19.1297C3.50039 18.6545 3.5 18.0483 3.5 17.2V6.8C3.5 5.95167 3.50039 5.34549 3.53921 4.87032C3.57756 4.40099 3.65089 4.10366 3.77248 3.86502C4.01217 3.39462 4.39462 3.01217 4.86502 2.77248C5.10366 2.65089 5.40099 2.57756 5.87032 2.53921Z" fill="#000"/>
<path d="M16.3536 6.64645C16.1583 6.45118 15.8417 6.45118 15.6464 6.64645C15.4512 6.84171 15.4512 7.15829 15.6464 7.35355L19.7929 11.5H10C9.72386 11.5 9.5 11.7239 9.5 12C9.5 12.2761 9.72386 12.5 10 12.5H19.7929L15.6464 16.6464C15.4512 16.8417 15.4512 17.1583 15.6464 17.3536C15.8417 17.5488 16.1583 17.5488 16.3536 17.3536L21.3536 12.3536C21.5488 12.1583 21.5488 11.8417 21.3536 11.6464L16.3536 6.64645Z" fill="#000"/>
</svg>
