<svg width="24" height="24" viewBox="0 0 24 24" fill="none" xmlns="http://www.w3.org/2000/svg">
<path opacity="0.4" d="M22 4.57554V16.7839C22 17.3358 21.697 17.843 21.2112 18.1046L16.1106 20.8511C15.7308 21.0556 15.2724 21.0498 14.8978 20.8358L9.10216 17.524C8.72761 17.3099 8.26918 17.3042 7.88936 17.5087L3.10557 20.0846C2.6059 20.3536 2 19.9917 2 19.4242V7.21581C2 6.66399 2.30299 6.15673 2.78885 5.89511L7.88936 3.14868C8.26918 2.94416 8.72761 2.94994 9.10216 3.16396L14.8978 6.47578C15.2724 6.68981 15.7308 6.69559 16.1106 6.49107L20.8944 3.91518C21.3941 3.64613 22 4.00803 22 4.57554Z" fill="#000"/>
<path fill-rule="evenodd" clip-rule="evenodd" d="M7.65231 2.70844C8.18406 2.42212 8.82586 2.43021 9.35023 2.72984L15.1459 6.04166C15.3706 6.17008 15.6457 6.17354 15.8736 6.05083L20.6574 3.47495C21.4902 3.02652 22.5 3.62969 22.5 4.57554V16.7839C22.5 17.5197 22.096 18.196 21.4482 18.5449L16.3477 21.2913C15.8159 21.5776 15.1741 21.5695 14.6498 21.2699L8.85409 17.9581C8.62936 17.8297 8.3543 17.8262 8.12641 17.9489L3.34262 20.5248C2.50984 20.9732 1.5 20.3701 1.5 19.4242V7.21581C1.5 6.48005 1.90398 5.8037 2.5518 5.45487L7.65231 2.70844ZM3.0259 6.33534L8 3.65698V16.9269C7.88065 16.9611 7.76405 17.0083 7.65231 17.0684L2.86853 19.6443C2.70197 19.734 2.5 19.6134 2.5 19.4242V7.21581C2.5 6.84793 2.70199 6.50976 3.0259 6.33534ZM9.35023 17.0898C9.23811 17.0258 9.12063 16.975 9 16.9377V3.68146L14.6498 6.9099C14.7619 6.97397 14.8794 7.02471 15 7.06209V20.3183L9.35023 17.0898ZM16 20.3428L20.9741 17.6644C21.298 17.49 21.5 17.1518 21.5 16.7839V4.57554C21.5 4.38637 21.298 4.26573 21.1315 4.35542L16.3477 6.9313C16.2359 6.99147 16.1193 7.03864 16 7.07283V20.3428Z" fill="#000"/>
</svg>
