<svg width="24" height="24" viewBox="0 0 24 24" fill="none" xmlns="http://www.w3.org/2000/svg">
<path opacity="0.4" d="M20.5 16.4V7.6C20.5 5.63982 20.5 4.65972 20.1185 3.91103C19.783 3.25247 19.2475 2.71703 18.589 2.38148C17.8403 2 16.8602 2 14.9 2H9.1C7.13982 2 6.15972 2 5.41103 2.38148C4.75247 2.71703 4.21703 3.25247 3.88148 3.91103C3.5 4.65972 3.5 5.63982 3.5 7.6V16.4C3.5 18.3602 3.5 19.3403 3.88148 20.089C4.21703 20.7475 4.75247 21.283 5.41103 21.6185C6.15972 22 7.13982 22 9.1 22H14.9C16.8602 22 17.8403 22 18.589 21.6185C19.2475 21.283 19.783 20.7475 20.1185 20.089C20.5 19.3403 20.5 18.3602 20.5 16.4Z" fill="#000"/>
<path d="M8 15.5C7.72386 15.5 7.5 15.7239 7.5 16C7.5 16.2761 7.72386 16.5 8 16.5H16C16.2761 16.5 16.5 16.2761 16.5 16C16.5 15.7239 16.2761 15.5 16 15.5H8Z" fill="#000"/>
<path d="M7.5 12C7.5 11.7239 7.72386 11.5 8 11.5H16C16.2761 11.5 16.5 11.7239 16.5 12C16.5 12.2761 16.2761 12.5 16 12.5H8C7.72386 12.5 7.5 12.2761 7.5 12Z" fill="#000"/>
<path d="M8 7.5C7.72386 7.5 7.5 7.72386 7.5 8C7.5 8.27614 7.72386 8.5 8 8.5H12C12.2761 8.5 12.5 8.27614 12.5 8C12.5 7.72386 12.2761 7.5 12 7.5H8Z" fill="#000"/>
<path fill-rule="evenodd" clip-rule="evenodd" d="M14.9224 1.5H9.07755C8.11647 1.5 7.36451 1.49999 6.76049 1.54935C6.14594 1.59956 5.64062 1.70334 5.18404 1.93597C4.43139 2.31947 3.81947 2.93139 3.43597 3.68404C3.20334 4.14062 3.09956 4.64594 3.04935 5.26049C2.99999 5.86451 3 6.61646 3 7.57755V16.4224C3 17.3835 2.99999 18.1355 3.04935 18.7395C3.09956 19.3541 3.20334 19.8594 3.43597 20.316C3.81947 21.0686 4.43139 21.6805 5.18404 22.064C5.64062 22.2967 6.14594 22.4004 6.76049 22.4507C7.36453 22.5 8.11651 22.5 9.07765 22.5H14.9223C15.8835 22.5 16.6355 22.5 17.2395 22.4507C17.8541 22.4004 18.3594 22.2967 18.816 22.064C19.5686 21.6805 20.1805 21.0686 20.564 20.316C20.7967 19.8594 20.9004 19.3541 20.9507 18.7395C21 18.1355 21 17.3835 21 16.4225V7.57754C21 6.61646 21 5.86451 20.9507 5.26049C20.9004 4.64594 20.7967 4.14062 20.564 3.68404C20.1805 2.93139 19.5686 2.31947 18.816 1.93597C18.3594 1.70334 17.8541 1.59956 17.2395 1.54935C16.6355 1.49999 15.8835 1.5 14.9224 1.5ZM5.63803 2.82698C5.93014 2.67814 6.28921 2.59118 6.84192 2.54602C7.40047 2.50039 8.11166 2.5 9.1 2.5H14.9C15.8883 2.5 16.5995 2.50039 17.1581 2.54602C17.7108 2.59118 18.0699 2.67814 18.362 2.82698C18.9265 3.1146 19.3854 3.57354 19.673 4.13803C19.8219 4.43014 19.9088 4.78921 19.954 5.34192C19.9996 5.90047 20 6.61166 20 7.6V16.4C20 17.3883 19.9996 18.0995 19.954 18.6581C19.9088 19.2108 19.8219 19.5699 19.673 19.862C19.3854 20.4265 18.9265 20.8854 18.362 21.173C18.0699 21.3219 17.7108 21.4088 17.1581 21.454C16.5995 21.4996 15.8883 21.5 14.9 21.5H9.1C8.11166 21.5 7.40047 21.4996 6.84192 21.454C6.28921 21.4088 5.93014 21.3219 5.63803 21.173C5.07354 20.8854 4.6146 20.4265 4.32698 19.862C4.17814 19.5699 4.09118 19.2108 4.04602 18.6581C4.00039 18.0995 4 17.3883 4 16.4V7.6C4 6.61166 4.00039 5.90047 4.04602 5.34192C4.09118 4.78921 4.17814 4.43014 4.32698 4.13803C4.6146 3.57354 5.07354 3.1146 5.63803 2.82698Z" fill="#000"/>
</svg>
