<svg width="24" height="24" viewBox="0 0 24 24" fill="none" xmlns="http://www.w3.org/2000/svg">
<path opacity="0.4" d="M13.8363 21.9915C12.4084 20.7992 11.5 19.0057 11.5 17C11.5 13.4101 14.4101 10.5 18 10.5V7.6C18 5.63982 18 4.65972 17.6185 3.91103C17.283 3.25247 16.7475 2.71703 16.089 2.38148C15.3403 2 14.3602 2 12.4 2H6.6C4.63982 2 3.65972 2 2.91103 2.38148C2.25247 2.71703 1.71703 3.25247 1.38148 3.91103C1 4.65972 1 5.63982 1 7.6V16.4C1 18.3602 1 19.3403 1.38148 20.089C1.71703 20.7475 2.25247 21.283 2.91103 21.6185C3.65972 22 4.63982 22 6.6 22H12.4C12.9505 22 13.4238 22 13.8363 21.9915Z" fill="#000"/>
<path d="M6.57755 1.5H12.4224C13.3835 1.5 14.1355 1.5 14.7395 1.54935C15.3541 1.59956 15.8594 1.70334 16.316 1.93597C17.0686 2.31947 17.6805 2.93139 18.064 3.68404C18.2967 4.14062 18.4004 4.64594 18.4507 5.26049C18.5 5.86451 18.5 6.61646 18.5 7.57754V10.5189C18.335 10.5064 18.1682 10.5 17.9999 10.5C17.8317 10.5 17.665 10.5064 17.5 10.5189V7.6C17.5 6.61166 17.4996 5.90047 17.454 5.34192C17.4088 4.78921 17.3219 4.43014 17.173 4.13803C16.8854 3.57354 16.4265 3.1146 15.862 2.82698C15.5699 2.67814 15.2108 2.59118 14.6581 2.54602C14.0995 2.50039 13.3883 2.5 12.4 2.5H6.6C5.61166 2.5 4.90047 2.50039 4.34192 2.54602C3.78921 2.59118 3.43014 2.67814 3.13803 2.82698C2.57354 3.1146 2.1146 3.57354 1.82698 4.13803C1.67814 4.43014 1.59118 4.78921 1.54602 5.34192C1.50039 5.90047 1.5 6.61166 1.5 7.6V16.4C1.5 17.3883 1.50039 18.0995 1.54602 18.6581C1.59118 19.2108 1.67814 19.5699 1.82698 19.862C2.1146 20.4265 2.57354 20.8854 3.13803 21.173C3.43014 21.3219 3.78921 21.4088 4.34192 21.454C4.90047 21.4996 5.61166 21.5 6.6 21.5H12.4C12.7323 21.5 13.0333 21.5 13.3077 21.4982C13.6599 21.8654 14.0548 22.1914 14.4844 22.4682C13.9268 22.5 13.2526 22.5 12.4223 22.5H6.57765C5.61651 22.5 4.86453 22.5 4.26049 22.4507C3.64594 22.4004 3.14062 22.2967 2.68404 22.064C1.93139 21.6805 1.31947 21.0686 0.935974 20.316C0.703335 19.8594 0.599556 19.3541 0.549345 18.7395C0.499995 18.1355 0.499997 17.3835 0.5 16.4225V7.57756C0.499997 6.61647 0.499995 5.86451 0.549345 5.26049C0.599556 4.64594 0.703335 4.14062 0.935974 3.68404C1.31947 2.93139 1.93139 2.31947 2.68404 1.93597C3.14062 1.70334 3.64594 1.59956 4.26049 1.54935C4.86451 1.5 5.61647 1.5 6.57755 1.5Z" fill="#000"/>
<path d="M11.6739 15.5C11.5972 15.8246 11.5449 16.1586 11.5189 16.5H5.5C5.22386 16.5 5 16.2761 5 16C5 15.7239 5.22386 15.5 5.5 15.5H11.6739Z" fill="#000"/>
<path d="M13.987 11.8863C13.747 12.0749 13.5206 12.28 13.3095 12.5H5.5C5.22386 12.5 5 12.2761 5 12C5 11.7239 5.22386 11.5 5.5 11.5H13.5C13.737 11.5 13.9355 11.6649 13.987 11.8863Z" fill="#000"/>
<path d="M5 8C5 7.72386 5.22386 7.5 5.5 7.5H9.5C9.77614 7.5 10 7.72386 10 8C10 8.27614 9.77614 8.5 9.5 8.5H5.5C5.22386 8.5 5 8.27614 5 8Z" fill="#000"/>
<path d="M20 17.5C20.2761 17.5 20.5 17.2761 20.5 17C20.5 16.7239 20.2761 16.5 20 16.5H16C15.7239 16.5 15.5 16.7239 15.5 17C15.5 17.2761 15.7239 17.5 16 17.5H20Z" fill="#000"/>
<path fill-rule="evenodd" clip-rule="evenodd" d="M12.5 17C12.5 13.9624 14.9624 11.5 18 11.5C21.0376 11.5 23.5 13.9624 23.5 17C23.5 20.0376 21.0376 22.5 18 22.5C14.9624 22.5 12.5 20.0376 12.5 17ZM18 12.5C15.5147 12.5 13.5 14.5147 13.5 17C13.5 19.4853 15.5147 21.5 18 21.5C20.4853 21.5 22.5 19.4853 22.5 17C22.5 14.5147 20.4853 12.5 18 12.5Z" fill="#000"/>
</svg>
