<svg width="24" height="24" viewBox="0 0 24 24" fill="none" xmlns="http://www.w3.org/2000/svg">
<path opacity="0.4" d="M13.8363 21.9915C12.4084 20.7992 11.5 19.0057 11.5 17C11.5 13.4101 14.4101 10.5 18 10.5V7.6C18 5.63982 18 4.65972 17.6185 3.91103C17.283 3.25247 16.7475 2.71703 16.089 2.38148C15.3403 2 14.3602 2 12.4 2H6.6C4.63982 2 3.65972 2 2.91103 2.38148C2.25247 2.71703 1.71703 3.25247 1.38148 3.91103C1 4.65972 1 5.63982 1 7.6V16.4C1 18.3602 1 19.3403 1.38148 20.089C1.71703 20.7475 2.25247 21.283 2.91103 21.6185C3.65972 22 4.63982 22 6.6 22H12.4C12.9505 22 13.4238 22 13.8363 21.9915Z" fill="#000"/>
<path d="M6.57755 1.5C5.61647 1.5 4.86451 1.5 4.26049 1.54935C3.64594 1.59956 3.14062 1.70334 2.68404 1.93597C1.93139 2.31947 1.31947 2.93139 0.935974 3.68404C0.703335 4.14062 0.599556 4.64594 0.549345 5.26049C0.499995 5.86451 0.499997 6.61646 0.5 7.57754V16.4224C0.499997 17.3835 0.499995 18.1355 0.549345 18.7395C0.599556 19.3541 0.703335 19.8594 0.935974 20.316C1.31947 21.0686 1.93139 21.6805 2.68404 22.064C3.14062 22.2967 3.64594 22.4004 4.26049 22.4507C4.86453 22.5 5.61651 22.5 6.57765 22.5H12.4223C13.2526 22.5 13.9268 22.5 14.4844 22.4682C14.0548 22.1914 13.6599 21.8654 13.3077 21.4982C13.0333 21.5 12.7323 21.5 12.4 21.5H6.6C5.61166 21.5 4.90047 21.4996 4.34192 21.454C3.78921 21.4088 3.43014 21.3219 3.13803 21.173C2.57354 20.8854 2.1146 20.4265 1.82698 19.862C1.67814 19.5699 1.59118 19.2108 1.54602 18.6581C1.50039 18.0995 1.5 17.3883 1.5 16.4V7.6C1.5 6.61166 1.50039 5.90047 1.54602 5.34192C1.59118 4.78921 1.67814 4.43014 1.82698 4.13803C2.1146 3.57354 2.57354 3.1146 3.13803 2.82698C3.43014 2.67814 3.78921 2.59118 4.34192 2.54602C4.90047 2.50039 5.61166 2.5 6.6 2.5H12.4C13.3883 2.5 14.0995 2.50039 14.6581 2.54602C15.2108 2.59118 15.5699 2.67814 15.862 2.82698C16.4265 3.1146 16.8854 3.57354 17.173 4.13803C17.3219 4.43014 17.4088 4.78921 17.454 5.34192C17.4996 5.90047 17.5 6.61166 17.5 7.6V10.5189C17.665 10.5064 17.8317 10.5 17.9999 10.5C18.1682 10.5 18.335 10.5064 18.5 10.5189V7.57754C18.5 6.61646 18.5 5.86451 18.4507 5.26049C18.4004 4.64594 18.2967 4.14062 18.064 3.68404C17.6805 2.93139 17.0686 2.31947 16.316 1.93597C15.8594 1.70334 15.3541 1.59956 14.7395 1.54935C14.1355 1.5 13.3835 1.5 12.4225 1.5H6.57755Z" fill="#000"/>
<path d="M11.5189 16.5C11.5449 16.1586 11.5972 15.8246 11.6739 15.5H5.5C5.22386 15.5 5 15.7239 5 16C5 16.2761 5.22386 16.5 5.5 16.5H11.5189Z" fill="#000"/>
<path d="M13.3095 12.5C13.5206 12.28 13.747 12.0749 13.987 11.8863C13.9355 11.6649 13.737 11.5 13.5 11.5H5.5C5.22386 11.5 5 11.7239 5 12C5 12.2761 5.22386 12.5 5.5 12.5H13.3095Z" fill="#000"/>
<path d="M5.5 7.5C5.22386 7.5 5 7.72386 5 8C5 8.27614 5.22386 8.5 5.5 8.5H9.5C9.77614 8.5 10 8.27614 10 8C10 7.72386 9.77614 7.5 9.5 7.5H5.5Z" fill="#000"/>
<path d="M18.7071 16.9999L19.8535 15.8536C20.0488 15.6583 20.0488 15.3417 19.8535 15.1464C19.6582 14.9512 19.3417 14.9512 19.1464 15.1464L18 16.2928L16.8535 15.1464C16.6583 14.9511 16.3417 14.9511 16.1464 15.1464C15.9512 15.3417 15.9512 15.6582 16.1465 15.8535L17.2929 16.9999L16.1464 18.1464C15.9511 18.3417 15.9511 18.6583 16.1464 18.8536C16.3417 19.0488 16.6582 19.0488 16.8535 18.8536L18 17.707L19.1465 18.8535C19.3418 19.0488 19.6584 19.0488 19.8536 18.8535C20.0489 18.6582 20.0489 18.3416 19.8536 18.1464L18.7071 16.9999Z" fill="#000"/>
<path fill-rule="evenodd" clip-rule="evenodd" d="M18 11.5C14.9624 11.5 12.5 13.9624 12.5 17C12.5 20.0376 14.9624 22.5 18 22.5C21.0376 22.5 23.5 20.0376 23.5 17C23.5 13.9624 21.0376 11.5 18 11.5ZM13.5 17C13.5 14.5147 15.5147 12.5 18 12.5C20.4853 12.5 22.5 14.5147 22.5 17C22.5 19.4853 20.4853 21.5 18 21.5C15.5147 21.5 13.5 19.4853 13.5 17Z" fill="#000"/>
</svg>
