<svg width="24" height="24" viewBox="0 0 24 24" fill="none" xmlns="http://www.w3.org/2000/svg">
<path opacity="0.4" fill-rule="evenodd" clip-rule="evenodd" d="M4.38148 5.91103C4 6.65972 4 7.63982 4 9.6V14.4C4 16.3602 4 17.3403 4.38148 18.089C4.71703 18.7475 5.25247 19.283 5.91103 19.6185C6.65972 20 7.63982 20 9.6 20H14.4C16.3602 20 17.3403 20 18.089 19.6185C18.7475 19.283 19.283 18.7475 19.6185 18.089C20 17.3403 20 16.3602 20 14.4V9.6C20 7.63982 20 6.65972 19.6185 5.91103C19.283 5.25247 18.7475 4.71703 18.089 4.38148C17.3403 4 16.3602 4 14.4 4H9.6C7.63982 4 6.65972 4 5.91103 4.38148C5.25247 4.71703 4.71703 5.25247 4.38148 5.91103ZM8.16349 8.81901C8 9.13988 8 9.55992 8 10.4V13.6C8 14.4401 8 14.8601 8.16349 15.181C8.3073 15.4632 8.53677 15.6927 8.81901 15.8365C9.13988 16 9.55992 16 10.4 16H13.6C14.4401 16 14.8601 16 15.181 15.8365C15.4632 15.6927 15.6927 15.4632 15.8365 15.181C16 14.8601 16 14.4401 16 13.6V10.4C16 9.55992 16 9.13988 15.8365 8.81901C15.6927 8.53677 15.4632 8.3073 15.181 8.16349C14.8601 8 14.4401 8 13.6 8H10.4C9.55992 8 9.13988 8 8.81901 8.16349C8.53677 8.3073 8.3073 8.53677 8.16349 8.81901Z" fill="#000"/>
<path fill-rule="evenodd" clip-rule="evenodd" d="M14.6259 7.5221C14.3553 7.49999 14.0231 7.49999 13.6206 7.5H10.3794C9.97687 7.49999 9.64468 7.49999 9.37409 7.5221C9.09304 7.54506 8.83469 7.59434 8.59202 7.71799C8.2157 7.90973 7.90973 8.2157 7.71799 8.59202C7.59434 8.83469 7.54506 9.09304 7.5221 9.37409C7.49999 9.64468 7.49999 9.97687 7.5 10.3794V13.6206C7.49999 14.0231 7.49999 14.3553 7.5221 14.6259C7.54506 14.907 7.59434 15.1653 7.71799 15.408C7.90973 15.7843 8.2157 16.0903 8.59202 16.282C8.83469 16.4057 9.09304 16.4549 9.37409 16.4779C9.64468 16.5 9.97686 16.5 10.3793 16.5H13.6207C14.0231 16.5 14.3553 16.5 14.6259 16.4779C14.907 16.4549 15.1653 16.4057 15.408 16.282C15.7843 16.0903 16.0903 15.7843 16.282 15.408C16.4057 15.1653 16.4549 14.907 16.4779 14.6259C16.5 14.3553 16.5 14.0231 16.5 13.6207V10.3793C16.5 9.97686 16.5 9.64468 16.4779 9.37409C16.4549 9.09304 16.4057 8.83469 16.282 8.59202C16.0903 8.2157 15.7843 7.90973 15.408 7.71799C15.1653 7.59434 14.907 7.54506 14.6259 7.5221ZM9.04601 8.60899C9.12421 8.56915 9.23631 8.53669 9.45552 8.51878C9.68056 8.50039 9.97171 8.5 10.4 8.5H13.6C14.0283 8.5 14.3194 8.50039 14.5445 8.51878C14.7637 8.53669 14.8758 8.56915 14.954 8.60899C15.1422 8.70487 15.2951 8.85785 15.391 9.04601C15.4309 9.12421 15.4633 9.23631 15.4812 9.45552C15.4996 9.68056 15.5 9.97171 15.5 10.4V13.6C15.5 14.0283 15.4996 14.3194 15.4812 14.5445C15.4633 14.7637 15.4309 14.8758 15.391 14.954C15.2951 15.1422 15.1422 15.2951 14.954 15.391C14.8758 15.4309 14.7637 15.4633 14.5445 15.4812C14.3194 15.4996 14.0283 15.5 13.6 15.5H10.4C9.97171 15.5 9.68056 15.4996 9.45552 15.4812C9.23631 15.4633 9.12421 15.4309 9.04601 15.391C8.85785 15.2951 8.70487 15.1422 8.60899 14.954C8.56915 14.8758 8.53669 14.7637 8.51878 14.5445C8.50039 14.3194 8.5 14.0283 8.5 13.6V10.4C8.5 9.97171 8.50039 9.68056 8.51878 9.45552C8.53669 9.23631 8.56915 9.12421 8.60899 9.04601C8.70487 8.85785 8.85785 8.70487 9.04601 8.60899Z" fill="#000"/>
<path fill-rule="evenodd" clip-rule="evenodd" d="M8 1.5C8.27614 1.5 8.5 1.72386 8.5 2V3.50336C8.82705 3.5 9.18484 3.5 9.57755 3.5H11.5V2C11.5 1.72386 11.7239 1.5 12 1.5C12.2761 1.5 12.5 1.72386 12.5 2V3.5H14.4224C14.8152 3.5 15.1729 3.5 15.5 3.50336V2C15.5 1.72386 15.7239 1.5 16 1.5C16.2761 1.5 16.5 1.72386 16.5 2V3.53271C16.5823 3.53751 16.6621 3.54302 16.7395 3.54935C17.3541 3.59956 17.8594 3.70334 18.316 3.93597C19.0686 4.31947 19.6805 4.93139 20.064 5.68404C20.2967 6.14062 20.4004 6.64594 20.4507 7.26049C20.457 7.33786 20.4625 7.41765 20.4673 7.5H22C22.2761 7.5 22.5 7.72386 22.5 8C22.5 8.27614 22.2761 8.5 22 8.5H20.4966C20.5 8.82705 20.5 9.18483 20.5 9.57754V11.5H22C22.2761 11.5 22.5 11.7239 22.5 12C22.5 12.2761 22.2761 12.5 22 12.5H20.5V14.4238C20.5 14.816 20.5 15.1733 20.4966 15.5H22C22.2761 15.5 22.5 15.7239 22.5 16C22.5 16.2761 22.2761 16.5 22 16.5H20.4673C20.4625 16.5823 20.457 16.6621 20.4507 16.7395C20.4004 17.3541 20.2967 17.8594 20.064 18.316C19.6805 19.0686 19.0686 19.6805 18.316 20.064C17.8594 20.2967 17.3541 20.4004 16.7395 20.4507C16.6621 20.457 16.5823 20.4625 16.5 20.4673V22C16.5 22.2761 16.2761 22.5 16 22.5C15.7239 22.5 15.5 22.2761 15.5 22V20.4966C15.1733 20.5 14.816 20.5 14.4238 20.5H12.5V22C12.5 22.2761 12.2761 22.5 12 22.5C11.7239 22.5 11.5 22.2761 11.5 22V20.5H9.57621C9.18403 20.5 8.82668 20.5 8.5 20.4966V22C8.5 22.2761 8.27614 22.5 8 22.5C7.72386 22.5 7.5 22.2761 7.5 22V20.4673C7.41765 20.4625 7.33786 20.457 7.26049 20.4507C6.64594 20.4004 6.14062 20.2967 5.68404 20.064C4.93139 19.6805 4.31947 19.0686 3.93597 18.316C3.70334 17.8594 3.59956 17.3541 3.54935 16.7395C3.54302 16.6621 3.53751 16.5823 3.53271 16.5H2C1.72386 16.5 1.5 16.2761 1.5 16C1.5 15.7239 1.72386 15.5 2 15.5H3.50336C3.5 15.1729 3.5 14.8152 3.5 14.4224V12.5H2C1.72386 12.5 1.5 12.2761 1.5 12C1.5 11.7239 1.72386 11.5 2 11.5H3.5V9.57755C3.5 9.18484 3.5 8.82705 3.50336 8.5H2C1.72386 8.5 1.5 8.27614 1.5 8C1.5 7.72386 1.72386 7.5 2 7.5H3.53271C3.53751 7.41765 3.54302 7.33786 3.54935 7.26049C3.59956 6.64594 3.70334 6.14062 3.93597 5.68404C4.31947 4.93139 4.93139 4.31947 5.68404 3.93597C6.14062 3.70334 6.64594 3.59956 7.26049 3.54935C7.33786 3.54302 7.41765 3.53751 7.5 3.53271V2C7.5 1.72386 7.72386 1.5 8 1.5ZM19.5 9.6V14.4C19.5 15.3883 19.4996 16.0995 19.454 16.6581C19.4088 17.2108 19.3219 17.5699 19.173 17.862C18.8854 18.4265 18.4265 18.8854 17.862 19.173C17.5699 19.3219 17.2108 19.4088 16.6581 19.454C16.0995 19.4996 15.3883 19.5 14.4 19.5H9.6C8.61166 19.5 7.90047 19.4996 7.34192 19.454C6.78921 19.4088 6.43014 19.3219 6.13803 19.173C5.57354 18.8854 5.1146 18.4265 4.82698 17.862C4.67814 17.5699 4.59118 17.2108 4.54602 16.6581C4.50039 16.0995 4.5 15.3883 4.5 14.4V9.6C4.5 8.61166 4.50039 7.90047 4.54602 7.34192C4.59118 6.78921 4.67814 6.43014 4.82698 6.13803C5.1146 5.57354 5.57354 5.1146 6.13803 4.82698C6.43014 4.67814 6.78921 4.59118 7.34192 4.54602C7.90047 4.50039 8.61166 4.5 9.6 4.5H14.4C15.3883 4.5 16.0995 4.50039 16.6581 4.54602C17.2108 4.59118 17.5699 4.67814 17.862 4.82698C18.4265 5.1146 18.8854 5.57354 19.173 6.13803C19.3219 6.43014 19.4088 6.78921 19.454 7.34192C19.4996 7.90047 19.5 8.61166 19.5 9.6Z" fill="#000"/>
</svg>
