<svg width="24" height="24" viewBox="0 0 24 24" fill="none" xmlns="http://www.w3.org/2000/svg">
<g opacity="0.4">
<path d="M8 8V12C8 14.2091 9.79086 16 12 16C13.1046 16 14.1046 15.5523 14.8284 14.8284L8 8Z" fill="#000"/>
<path d="M15.7881 13.2881C15.9255 12.8839 16 12.4507 16 12V6C16 3.79086 14.2091 2 12 2C9.95069 2 8.26132 3.5411 8.0276 5.5276L15.7881 13.2881Z" fill="#000"/>
</g>
<path fill-rule="evenodd" clip-rule="evenodd" d="M2.35355 1.64645C2.15829 1.45118 1.84171 1.45118 1.64645 1.64645C1.45118 1.84171 1.45118 2.15829 1.64645 2.35355L7.5 8.20711V12C7.5 14.4853 9.51472 16.5 12 16.5C13.0625 16.5 14.039 16.1318 14.8088 15.516L16.2291 16.9362C15.0935 17.9101 13.618 18.4988 12.005 18.5L12 18.5L11.995 18.5C8.40743 18.4973 5.5 15.5882 5.5 12C5.5 11.7239 5.27614 11.5 5 11.5C4.72386 11.5 4.5 11.7239 4.5 12C4.5 15.9741 7.59098 19.2263 11.5 19.4836V21.5H8C7.72386 21.5 7.5 21.7239 7.5 22C7.5 22.2761 7.72386 22.5 8 22.5H16C16.2761 22.5 16.5 22.2761 16.5 22C16.5 21.7239 16.2761 21.5 16 21.5H12.5V19.4836C14.1949 19.3721 15.736 18.6975 16.938 17.6451L21.6464 22.3536C21.8417 22.5488 22.1583 22.5488 22.3536 22.3536C22.5488 22.1583 22.5488 21.8417 22.3536 21.6464L2.35355 1.64645ZM14.0961 14.8032L8.5 9.20711V12C8.5 13.933 10.067 15.5 12 15.5C12.7862 15.5 13.5118 15.2408 14.0961 14.8032Z" fill="#000"/>
<path d="M15.3867 12.8867C15.4606 12.6035 15.5 12.3064 15.5 12V6C15.5 4.067 13.933 2.5 12 2.5C10.067 2.5 8.5 4.067 8.5 6L7.59171 5.09171C8.01185 3.04182 9.82587 1.5 12 1.5C14.4853 1.5 16.5 3.51472 16.5 6V12C16.5 12.5928 16.3854 13.1588 16.1771 13.6771L15.3867 12.8867Z" fill="#000"/>
<path d="M18.4047 15.9047C19.0996 14.7673 19.5 13.4304 19.5 12C19.5 11.7239 19.2761 11.5 19 11.5C18.7239 11.5 18.5 11.7239 18.5 12C18.5 13.1526 18.2 14.2352 17.6738 15.1738L18.4047 15.9047Z" fill="#000"/>
</svg>
