<svg width="24" height="24" viewBox="0 0 24 24" fill="none" xmlns="http://www.w3.org/2000/svg">
<path opacity="0.4" d="M8 6C8 3.79086 9.79086 2 12 2C14.2091 2 16 3.79086 16 6V12C16 14.2091 14.2091 16 12 16C9.79086 16 8 14.2091 8 12V6Z" fill="#000"/>
<path fill-rule="evenodd" clip-rule="evenodd" d="M12 1.5C9.51472 1.5 7.5 3.51472 7.5 6V12C7.5 14.4853 9.51472 16.5 12 16.5C14.4853 16.5 16.5 14.4853 16.5 12V6C16.5 3.51472 14.4853 1.5 12 1.5ZM8.5 6C8.5 4.067 10.067 2.5 12 2.5C13.933 2.5 15.5 4.067 15.5 6V12C15.5 13.933 13.933 15.5 12 15.5C10.067 15.5 8.5 13.933 8.5 12V6Z" fill="#000"/>
<path d="M5 11.5C5.27614 11.5 5.5 11.7239 5.5 12C5.5 15.5882 8.40743 18.4973 11.995 18.5L12 18.5L12.005 18.5C15.5926 18.4973 18.5 15.5882 18.5 12C18.5 11.7239 18.7239 11.5 19 11.5C19.2761 11.5 19.5 11.7239 19.5 12C19.5 15.9741 16.409 19.2263 12.5 19.4836V21.5H16C16.2761 21.5 16.5 21.7239 16.5 22C16.5 22.2761 16.2761 22.5 16 22.5H8C7.72386 22.5 7.5 22.2761 7.5 22C7.5 21.7239 7.72386 21.5 8 21.5H11.5V19.4836C7.59098 19.2263 4.5 15.9741 4.5 12C4.5 11.7239 4.72386 11.5 5 11.5Z" fill="#000"/>
</svg>
