<svg width="24" height="24" viewBox="0 0 24 24" fill="none" xmlns="http://www.w3.org/2000/svg">
<g opacity="0.4">
<path d="M5.02716 5.02716C5 5.49371 5 6.06688 5 6.8V17.2C5 18.8802 5 19.7202 5.32698 20.362C5.6146 20.9265 6.07354 21.3854 6.63803 21.673C7.27976 22 8.11984 22 9.8 22H14.2C15.8802 22 16.7202 22 17.362 21.673C17.9265 21.3854 18.3854 20.9265 18.673 20.362C18.8573 20.0002 18.9377 19.5755 18.9728 18.9728L5.02716 5.02716Z" fill="#000"/>
<path d="M19 16.5V6.8C19 5.11984 19 4.27976 18.673 3.63803C18.3854 3.07354 17.9265 2.6146 17.362 2.32698C16.7202 2 15.8802 2 14.2 2H9.8C8.11984 2 7.27976 2 6.63803 2.32698C6.24929 2.52505 5.91061 2.80437 5.64346 3.14346L19 16.5Z" fill="#000"/>
</g>
<path d="M12 17.75C11.5858 17.75 11.25 18.0858 11.25 18.5C11.25 18.9142 11.5858 19.25 12 19.25C12.4142 19.25 12.7501 18.9142 12.7501 18.5C12.7501 18.0858 12.4142 17.75 12 17.75Z" fill="#000"/>
<path fill-rule="evenodd" clip-rule="evenodd" d="M4.51712 5.22423L1.64645 2.35355C1.45118 2.15829 1.45118 1.84171 1.64645 1.64645C1.84171 1.45118 2.15829 1.45118 2.35355 1.64645L22.3536 21.6464C22.5488 21.8417 22.5488 22.1583 22.3536 22.3536C22.1583 22.5488 21.8417 22.5488 21.6464 22.3536L19.3272 20.0343C19.2758 20.2295 19.2081 20.4131 19.1185 20.589C18.783 21.2475 18.2475 21.783 17.589 22.1185C17.1859 22.3239 16.7423 22.4141 16.2111 22.4575C15.6905 22.5 15.0435 22.5 14.2222 22.5H9.77778C8.95652 22.5 8.30954 22.5 7.78889 22.4575C7.25771 22.4141 6.81414 22.3239 6.41103 22.1185C5.75247 21.783 5.21703 21.2475 4.88148 20.589C4.67609 20.1859 4.58593 19.7423 4.54253 19.2111C4.49999 18.6905 4.5 18.0435 4.5 17.2222V6.77779C4.5 6.17135 4.5 5.65992 4.51712 5.22423ZM18.4578 19.1649C18.4187 19.614 18.346 19.9024 18.2275 20.135C17.9878 20.6054 17.6054 20.9878 17.135 21.2275C16.8963 21.3491 16.599 21.4224 16.1297 21.4608C15.6545 21.4996 15.0483 21.5 14.2 21.5H9.8C8.95167 21.5 8.3455 21.4996 7.87032 21.4608C7.40099 21.4224 7.10366 21.3491 6.86502 21.2275C6.39462 20.9878 6.01217 20.6054 5.77248 20.135C5.65089 19.8963 5.57756 19.599 5.53921 19.1297C5.50039 18.6545 5.5 18.0483 5.5 17.2V6.8C5.5 6.58805 5.50002 6.39122 5.50067 6.20777L18.4578 19.1649Z" fill="#000"/>
<path d="M18.5 6.8V16L19.5 17V6.77778C19.5 5.95658 19.5 5.30951 19.4575 4.78889C19.4141 4.25771 19.3239 3.81413 19.1185 3.41103C18.783 2.75247 18.2475 2.21703 17.589 1.88148C17.1859 1.67609 16.7423 1.58593 16.2111 1.54253C15.6905 1.49999 15.0435 1.5 14.2222 1.5H9.77779C8.95653 1.5 8.30954 1.49999 7.78889 1.54253C7.25771 1.58593 6.81414 1.67609 6.41103 1.88148C5.97531 2.10349 5.59348 2.413 5.28778 2.78778L6 3.5C6.22789 3.19614 6.52324 2.94663 6.86502 2.77248C7.10366 2.65089 7.40099 2.57756 7.87032 2.53921C8.3455 2.50039 8.95167 2.5 9.8 2.5H14.2C15.0483 2.5 15.6545 2.50039 16.1297 2.53921C16.599 2.57756 16.8963 2.65089 17.135 2.77248C17.6054 3.01217 17.9878 3.39462 18.2275 3.86502C18.3491 4.10366 18.4224 4.40099 18.4608 4.87032C18.4996 5.34549 18.5 5.95167 18.5 6.8Z" fill="#000"/>
<path d="M10 5C10 4.72386 10.2239 4.5 10.5 4.5H13.5C13.7761 4.5 14 4.72386 14 5C14 5.27614 13.7761 5.5 13.5 5.5H10.5C10.2239 5.5 10 5.27614 10 5Z" fill="#000"/>
</svg>
