<svg width="24" height="24" viewBox="0 0 24 24" fill="none" xmlns="http://www.w3.org/2000/svg">
<path opacity="0.4" fill-rule="evenodd" clip-rule="evenodd" d="M1 9.6C1 7.63982 1 6.65972 1.38148 5.91103C1.71703 5.25247 2.25247 4.71703 2.91103 4.38148C3.65972 4 4.63982 4 6.6 4H16.4C18.3602 4 19.3403 4 20.089 4.38148C20.7475 4.71703 21.283 5.25247 21.6185 5.91103C22 6.65972 22 7.63982 22 9.6V13.5085C21.5198 13.3886 21.0173 13.325 20.5 13.325C17.0896 13.325 14.325 16.0896 14.325 19.5C14.325 19.6683 14.3317 19.8351 14.3449 20H6.6C4.63982 20 3.65972 20 2.91103 19.6185C2.25247 19.283 1.71703 18.7475 1.38148 18.089C1 17.3403 1 16.3602 1 14.4V9.6ZM11.5 15C13.1569 15 14.5 13.6569 14.5 12C14.5 10.3431 13.1569 9 11.5 9C9.84315 9 8.5 10.3431 8.5 12C8.5 13.6569 9.84315 15 11.5 15Z" fill="#000"/>
<path d="M6.57755 3.5H16.4224C17.3835 3.5 18.1355 3.5 18.7395 3.54935C19.3541 3.59956 19.8594 3.70334 20.316 3.93597C21.0686 4.31947 21.6805 4.93139 22.064 5.68404C22.2967 6.14062 22.4004 6.64594 22.4507 7.26049C22.5 7.86453 22.5 8.61651 22.5 9.57765V13.6561C22.1778 13.5459 21.8437 13.4615 21.5 13.4056V9.6C21.5 8.61166 21.4996 7.90047 21.454 7.34192C21.4088 6.78921 21.3219 6.43014 21.173 6.13803C20.8854 5.57354 20.4265 5.1146 19.862 4.82698C19.5699 4.67814 19.2108 4.59118 18.6581 4.54602C18.0995 4.50039 17.3883 4.5 16.4 4.5H6.6C5.61166 4.5 4.90047 4.50039 4.34192 4.54602C3.78921 4.59118 3.43014 4.67814 3.13803 4.82698C2.57354 5.1146 2.1146 5.57354 1.82698 6.13803C1.67814 6.43014 1.59118 6.78921 1.54602 7.34192C1.50039 7.90047 1.5 8.61166 1.5 9.6V14.4C1.5 15.3883 1.50039 16.0995 1.54602 16.6581C1.59118 17.2108 1.67814 17.5699 1.82698 17.862C2.1146 18.4265 2.57354 18.8854 3.13803 19.173C3.43014 19.3219 3.78921 19.4088 4.34192 19.454C4.90047 19.4996 5.61166 19.5 6.6 19.5L14.325 19.5C14.325 19.8405 14.3526 20.1745 14.4056 20.5H6.57754C5.61646 20.5 4.86451 20.5 4.26049 20.4507C3.64594 20.4004 3.14062 20.2967 2.68404 20.064C1.93139 19.6805 1.31947 19.0686 0.935974 18.316C0.703335 17.8594 0.599556 17.3541 0.549346 16.7395C0.499995 16.1355 0.499997 15.3835 0.5 14.4225V9.57756C0.499997 8.61647 0.499995 7.86451 0.549346 7.26049C0.599556 6.64594 0.703335 6.14062 0.935974 5.68404C1.31947 4.93139 1.93139 4.31947 2.68404 3.93597C3.14062 3.70334 3.64594 3.59956 4.26049 3.54935C4.86451 3.5 5.61647 3.5 6.57755 3.5Z" fill="#000"/>
<path fill-rule="evenodd" clip-rule="evenodd" d="M11.5046 15.5L11.5092 15.5C13.4504 15.5 15 13.8463 15 12C15 10.067 13.433 8.5 11.5 8.5C9.567 8.5 8 10.067 8 12C8 13.933 9.567 15.5 11.5 15.5L11.5046 15.5ZM11.5 9.5C10.1193 9.5 9 10.6193 9 12C9 13.3807 10.1193 14.5 11.5 14.5L11.5046 14.5L11.5092 14.5C12.8781 14.5 14 13.3142 14 12C14 10.6193 12.8807 9.5 11.5 9.5Z" fill="#000"/>
<path d="M4.25 12C4.25 11.5858 4.58579 11.25 5 11.25C5.41421 11.25 5.7501 11.5858 5.7501 12C5.7501 12.4142 5.41431 12.75 5.0001 12.75C4.58589 12.75 4.25 12.4142 4.25 12Z" fill="#000"/>
<path d="M23 18.5C23.2761 18.5 23.5 18.2761 23.5 18C23.5 17.7239 23.2761 17.5 23 17.5H17C16.7239 17.5 16.5 17.7239 16.5 18C16.5 18.2761 16.7239 18.5 17 18.5H23Z" fill="#000"/>
</svg>
