<svg width="24" height="24" viewBox="0 0 24 24" fill="none" xmlns="http://www.w3.org/2000/svg">
<path opacity="0.4" fill-rule="evenodd" clip-rule="evenodd" d="M8.37892 7.50024H7.07755C6.11646 7.50024 5.36451 7.50024 4.76049 7.54959C4.14594 7.5998 3.64062 7.70358 3.18404 7.93622C2.43139 8.31971 1.81947 8.93163 1.43597 9.68428C1.20334 10.1409 1.09956 10.6462 1.04935 11.2607C0.999995 11.8648 0.999997 12.6167 1 13.5778V17.4227C0.999997 18.3838 0.999995 19.1357 1.04935 19.7398C1.09956 20.3543 1.20334 20.8596 1.43597 21.3162C1.81947 22.0689 2.43139 22.6808 3.18404 23.0643C3.64062 23.2969 4.14594 23.4007 4.76049 23.4509C5.36451 23.5002 6.11646 23.5002 7.07754 23.5002H16.9225C17.8835 23.5002 18.6355 23.5002 19.2395 23.4509C19.8541 23.4007 20.3594 23.2969 20.816 23.0643C21.5686 22.6808 22.1805 22.0689 22.564 21.3162C22.7967 20.8596 22.9004 20.3543 22.9507 19.7398C23 19.1357 23 18.3838 23 17.4227V13.5778C23 12.6167 23 11.8648 22.9507 11.2607C22.9004 10.6462 22.7967 10.1409 22.564 9.68428C22.1805 8.93163 21.5686 8.31971 20.816 7.93622C20.3594 7.70358 19.8541 7.5998 19.2395 7.54959C18.6355 7.50024 17.8835 7.50024 16.9225 7.50024H15.6211L13.0607 10.0607C12.7794 10.342 12.3978 10.5 12 10.5C11.6022 10.5 11.2206 10.342 10.9393 10.0607L8.37892 7.50024ZM12 18.5002C13.6569 18.5002 15 17.1571 15 15.5002C15 13.9264 13.6457 12.5002 12 12.5002C10.3431 12.5002 9 13.8434 9 15.5002C9 17.1571 10.3431 18.5002 12 18.5002Z" fill="#000"/>
<path d="M12 0.5C12.2761 0.5 12.5 0.723858 12.5 1V7.79289L14.6464 5.64645C14.8417 5.45118 15.1583 5.45118 15.3536 5.64645C15.5488 5.84171 15.5488 6.15829 15.3536 6.35355L12.3536 9.35355C12.2598 9.44732 12.1326 9.5 12 9.5C11.8674 9.5 11.7402 9.44732 11.6464 9.35355L8.64645 6.35355C8.45118 6.15829 8.45118 5.84171 8.64645 5.64645C8.84171 5.45118 9.15829 5.45118 9.35355 5.64645L11.5 7.79289V1C11.5 0.723858 11.7239 0.5 12 0.5Z" fill="#000"/>
<path d="M8.37865 7.50024H7.07755C6.11648 7.50024 5.3645 7.50024 4.76049 7.54959C4.14594 7.5998 3.64062 7.70358 3.18404 7.93622C2.43139 8.31971 1.81947 8.93163 1.43597 9.68428C1.20334 10.1409 1.09956 10.6462 1.04935 11.2607C0.999995 11.8648 0.999997 12.6167 1 13.5778V17.4227C0.999997 18.3838 0.999995 19.1357 1.04935 19.7398C1.09956 20.3543 1.20334 20.8596 1.43597 21.3162C1.81947 22.0689 2.43139 22.6808 3.18404 23.0643C3.64062 23.2969 4.14594 23.4007 4.76049 23.4509C5.36451 23.5002 6.11646 23.5002 7.07754 23.5002H16.9225C17.8835 23.5002 18.6355 23.5002 19.2395 23.4509C19.8541 23.4007 20.3594 23.2969 20.816 23.0643C21.5686 22.6808 22.1805 22.0689 22.564 21.3162C22.7967 20.8596 22.9004 20.3543 22.9507 19.7398C23 19.1357 23 18.3838 23 17.4227V13.5778C23 12.6167 23 11.8648 22.9507 11.2607C22.9004 10.6462 22.7967 10.1409 22.564 9.68428C22.1805 8.93163 21.5686 8.31971 20.816 7.93622C20.3594 7.70358 19.8541 7.5998 19.2395 7.54959C18.6355 7.50024 17.8836 7.50024 16.9225 7.50024H15.6213L14.6213 8.50024H16.9C17.8883 8.50024 18.5995 8.50063 19.1581 8.54627C19.7108 8.59143 20.0699 8.67839 20.362 8.82722C20.9265 9.11484 21.3854 9.57379 21.673 10.1383C21.8219 10.4304 21.9088 10.7895 21.954 11.3422C21.9996 11.9007 22 12.6119 22 13.6002V17.4002C22 18.3886 21.9996 19.0998 21.954 19.6583C21.9088 20.211 21.8219 20.5701 21.673 20.8622C21.3854 21.4267 20.9265 21.8856 20.362 22.1733C20.0699 22.3221 19.7108 22.4091 19.1581 22.4542C18.5995 22.4999 17.8883 22.5002 16.9 22.5002H7.1C6.11166 22.5002 5.40047 22.4999 4.84192 22.4542C4.28921 22.4091 3.93014 22.3221 3.63803 22.1733C3.07354 21.8856 2.6146 21.4267 2.32698 20.8622C2.17814 20.5701 2.09118 20.211 2.04602 19.6583C2.00039 19.0998 2 18.3886 2 17.4002V13.6002C2 12.6119 2.00039 11.9007 2.04602 11.3422C2.09118 10.7895 2.17814 10.4304 2.32698 10.1383C2.6146 9.57379 3.07354 9.11485 3.63803 8.82722C3.93014 8.67839 4.28921 8.59143 4.84192 8.54627C5.40047 8.50063 6.11166 8.50024 7.1 8.50024H9.37865L8.37865 7.50024Z" fill="#000"/>
<path fill-rule="evenodd" clip-rule="evenodd" d="M12 12.0002L12.0043 12.0003L12.0086 12.0002C13.94 12.0002 15.5 13.6599 15.5 15.5002C15.5 17.4332 13.933 19.0002 12 19.0002C10.067 19.0002 8.5 17.4332 8.5 15.5002C8.5 13.5672 10.067 12.0002 12 12.0002ZM9.5 15.5002C9.5 14.1195 10.6193 13.0002 12 13.0002L12.0043 13.0002L12.0086 13.0002C13.3686 13.0002 14.5 14.1929 14.5 15.5002C14.5 16.881 13.3807 18.0002 12 18.0002C10.6193 18.0002 9.5 16.881 9.5 15.5002Z" fill="#000"/>
<path d="M4.75 15.5002C4.75 15.086 5.08579 14.7502 5.5 14.7502C5.91421 14.7502 6.2501 15.086 6.2501 15.5002C6.2501 15.9145 5.91431 16.2502 5.5001 16.2502C5.08589 16.2502 4.75 15.9145 4.75 15.5002Z" fill="#000"/>
<path d="M18.5 14.7502C18.0858 14.7502 17.75 15.086 17.75 15.5002C17.75 15.9145 18.0858 16.2502 18.5 16.2502C18.9142 16.2502 19.2501 15.9145 19.2501 15.5002C19.2501 15.086 18.9142 14.7502 18.5 14.7502Z" fill="#000"/>
</svg>
