<svg width="24" height="24" viewBox="0 0 24 24" fill="none" xmlns="http://www.w3.org/2000/svg">
<path opacity="0.4" fill-rule="evenodd" clip-rule="evenodd" d="M6 6.5H18C18.1326 6.5 18.2598 6.55268 18.3536 6.64645C18.4473 6.74021 18.5 6.86739 18.5 7V18.0219C18.5 18.7034 18.5 19.2454 18.4643 19.6827C18.4277 20.1305 18.3512 20.5124 18.173 20.862C17.8854 21.4265 17.4265 21.8854 16.862 22.173C16.5124 22.3512 16.1305 22.4277 15.6827 22.4643C15.2454 22.5 14.7034 22.5 14.0219 22.5H9.97811C9.29663 22.5 8.75456 22.5 8.31729 22.4643C7.86949 22.4277 7.48765 22.3512 7.13803 22.173C6.57354 21.8854 6.1146 21.4265 5.82698 20.862C5.64884 20.5124 5.57231 20.1305 5.53572 19.6827C5.5 19.2454 5.5 18.7034 5.5 18.0219V7C5.5 6.86739 5.55268 6.74022 5.64645 6.64645C5.74021 6.55268 5.86739 6.5 6 6.5ZM14.5 12C14.5 10.6193 13.3807 9.5 12 9.5C10.6193 9.5 9.5 10.6193 9.5 12C9.5 13.3807 10.6193 14.5 12 14.5C13.3807 14.5 14.5 13.3807 14.5 12Z" fill="#000"/>
<path d="M19.0219 1.5H4.97812C4.2966 1.5 3.75458 1.49999 3.31729 1.53572C2.86949 1.57231 2.48765 1.64884 2.13803 1.82698C1.57354 2.1146 1.1146 2.57354 0.826981 3.13803C0.648839 3.48765 0.572308 3.86949 0.535721 4.31729C0.499993 4.75458 0.499996 5.2966 0.5 5.97812V9.02188C0.499996 9.7034 0.499993 10.2454 0.535721 10.6827C0.572308 11.1305 0.648839 11.5123 0.826981 11.862C1.1146 12.4265 1.57354 12.8854 2.13803 13.173C2.52556 13.3705 2.95418 13.4436 3.46953 13.4751C3.74516 13.4919 3.98224 13.2821 3.99907 13.0065C4.0159 12.7309 3.8061 12.4938 3.53047 12.4769C3.06529 12.4485 2.79826 12.3871 2.59202 12.282C2.21569 12.0903 1.90973 11.7843 1.71799 11.408C1.62365 11.2228 1.56393 10.9872 1.5324 10.6013C1.50039 10.2095 1.5 9.70832 1.5 9V6C1.5 5.29168 1.50039 4.79052 1.5324 4.39872C1.56393 4.01276 1.62365 3.77717 1.71799 3.59202C1.90973 3.21569 2.21569 2.90973 2.59202 2.71799C2.77717 2.62365 3.01276 2.56393 3.39872 2.5324C3.79052 2.50039 4.29168 2.5 5 2.5H19C19.7083 2.5 20.2095 2.50039 20.6013 2.5324C20.9872 2.56393 21.2228 2.62365 21.408 2.71799C21.7843 2.90973 22.0903 3.2157 22.282 3.59202C22.3764 3.77717 22.4361 4.01276 22.4676 4.39872C22.4996 4.79052 22.5 5.29168 22.5 6V9C22.5 9.70832 22.4996 10.2095 22.4676 10.6013C22.4361 10.9872 22.3764 11.2228 22.282 11.408C22.0903 11.7843 21.7843 12.0903 21.408 12.282C21.2017 12.3871 20.9347 12.4485 20.4695 12.4769C20.1939 12.4938 19.9841 12.7309 20.0009 13.0065C20.0178 13.2821 20.2548 13.4919 20.5305 13.4751C21.0458 13.4436 21.4744 13.3705 21.862 13.173C22.4265 12.8854 22.8854 12.4265 23.173 11.862C23.3512 11.5123 23.4277 11.1305 23.4643 10.6827C23.5 10.2454 23.5 9.70343 23.5 9.02194V5.97811C23.5 5.29661 23.5 4.75457 23.4643 4.31729C23.4277 3.86949 23.3512 3.48765 23.173 3.13803C22.8854 2.57354 22.4265 2.1146 21.862 1.82698C21.5123 1.64884 21.1305 1.57231 20.6827 1.53572C20.2454 1.49999 19.7034 1.5 19.0219 1.5Z" fill="#000"/>
<path d="M18.5 7C18.5 6.72386 18.2761 6.5 18 6.5C17.7239 6.5 17.5 6.72386 17.5 7V18C17.5 18.7083 17.4996 19.2095 17.4676 19.6013C17.4361 19.9872 17.3764 20.2228 17.282 20.408C17.0903 20.7843 16.7843 21.0903 16.408 21.282C16.2228 21.3764 15.9872 21.4361 15.6013 21.4676C15.2095 21.4996 14.7083 21.5 14 21.5H10C9.29169 21.5 8.79052 21.4996 8.39872 21.4676C8.01276 21.4361 7.77718 21.3764 7.59202 21.282C7.2157 21.0903 6.90974 20.7843 6.71799 20.408C6.62365 20.2228 6.56394 19.9872 6.5324 19.6013C6.50039 19.2095 6.5 18.7083 6.5 18L6.5 7C6.5 6.72386 6.27614 6.5 6 6.5C5.72386 6.5 5.5 6.72386 5.5 7L5.5 18.0219C5.5 18.7034 5.49999 19.2454 5.53572 19.6827C5.57231 20.1305 5.64884 20.5124 5.82698 20.862C6.1146 21.4265 6.57354 21.8854 7.13803 22.173C7.48765 22.3512 7.86949 22.4277 8.31729 22.4643C8.75455 22.5 9.29653 22.5 9.97797 22.5H14.0218C14.7033 22.5 15.2454 22.5 15.6827 22.4643C16.1305 22.4277 16.5124 22.3512 16.862 22.173C17.4265 21.8854 17.8854 21.4265 18.173 20.862C18.3512 20.5124 18.4277 20.1305 18.4643 19.6827C18.5 19.2455 18.5 18.7035 18.5 18.022V7Z" fill="#000"/>
<path d="M12 17.2505C11.5858 17.2505 11.25 17.5863 11.25 18.0005C11.25 18.4147 11.5858 18.7505 12 18.7505C12.4142 18.7505 12.7501 18.4147 12.7501 18.0005C12.7501 17.5863 12.4142 17.2505 12 17.2505Z" fill="#000"/>
<path fill-rule="evenodd" clip-rule="evenodd" d="M12 15C10.3431 15 9 13.6569 9 12C9 10.3431 10.3431 9 12 9C13.6569 9 15 10.3431 15 12C15 13.6569 13.6569 15 12 15ZM10 12C10 13.1046 10.8954 14 12 14C13.1046 14 14 13.1046 14 12C14 10.8954 13.1046 10 12 10C10.8954 10 10 10.8954 10 12Z" fill="#000"/>
</svg>
