<svg width="24" height="24" viewBox="0 0 24 24" fill="none" xmlns="http://www.w3.org/2000/svg">
<path opacity="0.4" fill-rule="evenodd" clip-rule="evenodd" d="M10.5 7.50024V9C10.5 9.82843 11.1716 10.5 12 10.5C12.8284 10.5 13.5 9.82843 13.5 9V7.50024H16.9224C17.8835 7.50024 18.6355 7.50024 19.2395 7.54959C19.8541 7.5998 20.3594 7.70358 20.816 7.93622C21.5686 8.31971 22.1805 8.93163 22.564 9.68428C22.7967 10.1409 22.9004 10.6462 22.9507 11.2607C23 11.8648 23 12.6167 23 13.5778V17.4227C23 18.3838 23 19.1357 22.9507 19.7398C22.9004 20.3543 22.7967 20.8596 22.564 21.3162C22.1805 22.0689 21.5686 22.6808 20.816 23.0643C20.3594 23.2969 19.8541 23.4007 19.2395 23.4509C18.6355 23.5002 17.8835 23.5002 16.9225 23.5002H7.07754C6.11646 23.5002 5.36451 23.5002 4.76049 23.4509C4.14594 23.4007 3.64062 23.2969 3.18404 23.0643C2.43139 22.6808 1.81947 22.0689 1.43597 21.3162C1.20334 20.8596 1.09956 20.3543 1.04935 19.7398C0.999995 19.1357 0.999997 18.3838 1 17.4227V13.5778C0.999997 12.6167 0.999995 11.8648 1.04935 11.2607C1.09956 10.6462 1.20334 10.1409 1.43597 9.68428C1.81947 8.93163 2.43139 8.31971 3.18404 7.93622C3.64062 7.70358 4.14594 7.5998 4.76049 7.54959C5.36451 7.50024 6.11646 7.50024 7.07755 7.50024H10.5ZM12 18.5002C13.6569 18.5002 15 17.1571 15 15.5002C15 13.9264 13.6457 12.5002 12 12.5002C10.3431 12.5002 9 13.8434 9 15.5002C9 17.1571 10.3431 18.5002 12 18.5002Z" fill="#000"/>
<path d="M10.5 7.50049L7.07756 7.50049C6.11646 7.50049 5.36451 7.50048 4.76049 7.54983C4.14594 7.60005 3.64062 7.70382 3.18404 7.93646C2.43139 8.31996 1.81947 8.93188 1.43597 9.68453C1.20334 10.1411 1.09956 10.6464 1.04935 11.261C0.999997 11.865 0.999999 12.6168 1 13.5778L1 17.4229C0.999998 18.384 0.999996 19.136 1.04935 19.74C1.09956 20.3546 1.20334 20.8599 1.43598 21.3165C1.81947 22.0691 2.43139 22.681 3.18404 23.0645C3.64062 23.2972 4.14594 23.4009 4.76049 23.4511C5.36451 23.5005 6.11646 23.5005 7.07754 23.5005H16.9225C17.8835 23.5005 18.6355 23.5005 19.2395 23.4511C19.8541 23.4009 20.3594 23.2972 20.816 23.0645C21.5686 22.681 22.1805 22.0691 22.564 21.3165C22.7967 20.8599 22.9004 20.3546 22.9507 19.74C23 19.136 23 18.384 23 17.4229V13.578C23 12.6169 23 11.865 22.9507 11.261C22.9004 10.6464 22.7967 10.1411 22.564 9.68453C22.1805 8.93188 21.5686 8.31996 20.816 7.93646C20.3594 7.70382 19.8541 7.60005 19.2395 7.54983C18.6355 7.50048 17.8836 7.50049 16.9227 7.50049L13.5 7.50049V8.50049H16.9C17.8883 8.50049 18.5995 8.50088 19.1581 8.54651C19.7108 8.59167 20.0699 8.67863 20.362 8.82747C20.9265 9.11509 21.3854 9.57403 21.673 10.1385C21.8219 10.4306 21.9088 10.7897 21.954 11.3424C21.9996 11.901 22 12.6121 22 13.6005V17.4005C22 18.3888 21.9996 19.1 21.954 19.6586C21.9088 20.2113 21.8219 20.5703 21.673 20.8625C21.3854 21.4269 20.9265 21.8859 20.362 22.1735C20.0699 22.3223 19.7108 22.4093 19.1581 22.4545C18.5995 22.5001 17.8883 22.5005 16.9 22.5005L7.1 22.5005C6.11166 22.5005 5.40047 22.5001 4.84192 22.4545C4.28921 22.4093 3.93014 22.3223 3.63803 22.1735C3.07354 21.8859 2.6146 21.4269 2.32698 20.8625C2.17814 20.5704 2.09118 20.2113 2.04602 19.6586C2.00039 19.1 2 18.3888 2 17.4005L2 13.6005C2 12.6121 2.00039 11.901 2.04602 11.3424C2.09118 10.7897 2.17814 10.4306 2.32698 10.1385C2.6146 9.57403 3.07354 9.11509 3.63803 8.82747C3.93014 8.67863 4.28921 8.59167 4.84192 8.54651C5.40047 8.50088 6.11166 8.50049 7.1 8.50049H10.5V7.50049Z" fill="#000"/>
<path fill-rule="evenodd" clip-rule="evenodd" d="M12 12.0005L12.0043 12.0005L12.0086 12.0005C13.94 12.0005 15.5 13.6602 15.5 15.5005C15.5 17.4335 13.933 19.0005 12 19.0005C10.067 19.0005 8.5 17.4335 8.5 15.5005C8.5 13.5675 10.067 12.0005 12 12.0005ZM9.5 15.5005C9.5 14.1198 10.6193 13.0005 12 13.0005L12.0043 13.0005L12.0086 13.0005C13.3686 13.0005 14.5 14.1932 14.5 15.5005C14.5 16.8812 13.3807 18.0005 12 18.0005C10.6193 18.0005 9.5 16.8812 9.5 15.5005Z" fill="#000"/>
<path d="M4.75 15.5005C4.75 15.0863 5.08579 14.7505 5.5 14.7505C5.91422 14.7505 6.2501 15.0863 6.2501 15.5005C6.2501 15.9147 5.91431 16.2505 5.5001 16.2505C5.08589 16.2505 4.75 15.9147 4.75 15.5005Z" fill="#000"/>
<path d="M18.5 14.7505C18.0858 14.7505 17.75 15.0863 17.75 15.5005C17.75 15.9147 18.0858 16.2505 18.5 16.2505C18.9142 16.2505 19.2501 15.9147 19.2501 15.5005C19.2501 15.0863 18.9142 14.7505 18.5 14.7505Z" fill="#000"/>
<path d="M12 9.50025C11.7239 9.50025 11.5 9.27639 11.5 9.00025V2.20735L9.35355 4.3538C9.15829 4.54906 8.84171 4.54906 8.64645 4.3538C8.45119 4.15853 8.45119 3.84195 8.64645 3.64669L11.6464 0.64669C11.7402 0.552923 11.8674 0.500244 12 0.500244C12.1326 0.500244 12.2598 0.552923 12.3536 0.64669L15.3536 3.64669C15.5488 3.84195 15.5488 4.15854 15.3536 4.3538C15.1583 4.54906 14.8417 4.54906 14.6464 4.3538L12.5 2.20735V9.00025C12.5 9.27639 12.2761 9.50025 12 9.50025Z" fill="#000"/>
</svg>
