<svg width="24" height="24" viewBox="0 0 24 24" fill="none" xmlns="http://www.w3.org/2000/svg">
<path opacity="0.4" fill-rule="evenodd" clip-rule="evenodd" d="M1.88148 5.91103C1.5 6.65972 1.5 7.63982 1.5 9.6V14.4C1.5 16.3602 1.5 17.3403 1.88148 18.089C2.21703 18.7475 2.75247 19.283 3.41103 19.6185C4.15972 20 5.13982 20 7.1 20H16.9C18.8602 20 19.8403 20 20.589 19.6185C21.2475 19.283 21.783 18.7475 22.1185 18.089C22.5 17.3403 22.5 16.3602 22.5 14.4V9.6C22.5 7.63982 22.5 6.65972 22.1185 5.91103C21.783 5.25247 21.2475 4.71703 20.589 4.38148C19.8403 4 18.8602 4 16.9 4H7.1C5.13982 4 4.15972 4 3.41103 4.38148C2.75247 4.71703 2.21703 5.25247 1.88148 5.91103ZM12 15C13.6569 15 15 13.6569 15 12C15 10.3431 13.6569 9 12 9C10.3431 9 9 10.3431 9 12C9 13.6569 10.3431 15 12 15Z" fill="#000"/>
<path fill-rule="evenodd" clip-rule="evenodd" d="M12 8.5C10.067 8.5 8.5 10.067 8.5 12C8.5 13.933 10.067 15.5 12 15.5C13.933 15.5 15.5 13.933 15.5 12C15.5 10.067 13.933 8.5 12 8.5ZM9.5 12C9.5 10.6193 10.6193 9.5 12 9.5C13.3807 9.5 14.5 10.6193 14.5 12C14.5 13.3807 13.3807 14.5 12 14.5C10.6193 14.5 9.5 13.3807 9.5 12Z" fill="#000"/>
<path d="M17.75 12C17.75 11.5858 18.0858 11.25 18.5 11.25C18.9142 11.25 19.2501 11.5858 19.2501 12C19.2501 12.4142 18.9143 12.75 18.5001 12.75C18.0859 12.75 17.75 12.4142 17.75 12Z" fill="#000"/>
<path d="M5.5 11.25C5.08579 11.25 4.75 11.5858 4.75 12C4.75 12.4142 5.08579 12.75 5.5 12.75C5.91421 12.75 6.2501 12.4142 6.2501 12C6.2501 11.5858 5.91421 11.25 5.5 11.25Z" fill="#000"/>
<path fill-rule="evenodd" clip-rule="evenodd" d="M16.9224 3.5H7.07755C6.11647 3.5 5.36451 3.49999 4.76049 3.54935C4.14594 3.59956 3.64062 3.70334 3.18404 3.93597C2.43139 4.31947 1.81947 4.93139 1.43597 5.68404C1.20334 6.14062 1.09956 6.64594 1.04935 7.26049C0.999995 7.86451 0.999997 8.61646 1 9.57755V14.4224C0.999997 15.3835 0.999995 16.1355 1.04935 16.7395C1.09956 17.3541 1.20334 17.8594 1.43597 18.316C1.81947 19.0686 2.43139 19.6805 3.18404 20.064C3.64062 20.2967 4.14594 20.4004 4.76049 20.4507C5.36451 20.5 6.11646 20.5 7.07754 20.5H16.9225C17.8835 20.5 18.6355 20.5 19.2395 20.4507C19.8541 20.4004 20.3594 20.2967 20.816 20.064C21.5686 19.6805 22.1805 19.0686 22.564 18.316C22.7967 17.8594 22.9004 17.3541 22.9507 16.7395C23 16.1355 23 15.3835 23 14.4223V9.57765C23 8.61651 23 7.86453 22.9507 7.26049C22.9004 6.64594 22.7967 6.14062 22.564 5.68404C22.1805 4.93139 21.5686 4.31947 20.816 3.93597C20.3594 3.70334 19.8541 3.59956 19.2395 3.54935C18.6355 3.49999 17.8835 3.5 16.9224 3.5ZM3.63803 4.82698C3.93014 4.67814 4.28921 4.59118 4.84192 4.54602C5.40047 4.50039 6.11166 4.5 7.1 4.5H16.9C17.8883 4.5 18.5995 4.50039 19.1581 4.54602C19.7108 4.59118 20.0699 4.67814 20.362 4.82698C20.9265 5.1146 21.3854 5.57354 21.673 6.13803C21.8219 6.43014 21.9088 6.78921 21.954 7.34192C21.9996 7.90047 22 8.61166 22 9.6V14.4C22 15.3883 21.9996 16.0995 21.954 16.6581C21.9088 17.2108 21.8219 17.5699 21.673 17.862C21.3854 18.4265 20.9265 18.8854 20.362 19.173C20.0699 19.3219 19.7108 19.4088 19.1581 19.454C18.5995 19.4996 17.8883 19.5 16.9 19.5H7.1C6.11166 19.5 5.40047 19.4996 4.84192 19.454C4.28921 19.4088 3.93014 19.3219 3.63803 19.173C3.07354 18.8854 2.6146 18.4265 2.32698 17.862C2.17814 17.5699 2.09118 17.2108 2.04602 16.6581C2.00039 16.0995 2 15.3883 2 14.4V9.6C2 8.61166 2.00039 7.90047 2.04602 7.34192C2.09118 6.78921 2.17814 6.43014 2.32698 6.13803C2.6146 5.57354 3.07354 5.1146 3.63803 4.82698Z" fill="#000"/>
</svg>
