<svg width="24" height="24" viewBox="0 0 24 24" fill="none" xmlns="http://www.w3.org/2000/svg">
<path opacity="0.4" d="M21.9119 13.7238C21.9909 13.2763 22.0304 13.0525 21.9721 12.968C21.9207 12.8936 21.8387 12.8542 21.7484 12.8607C21.6461 12.8681 21.4794 13.0582 21.146 13.4385C19.771 15.0067 17.7527 15.9968 15.5031 15.9968C11.3599 15.9968 8.00121 12.6381 8.00121 8.49487C8.00121 6.24647 8.99033 4.2291 10.5572 2.85414C10.9373 2.5206 11.1273 2.35382 11.1346 2.25147C11.1411 2.16122 11.1017 2.07916 11.0272 2.02779C10.9427 1.96954 10.719 2.00915 10.2715 2.08838C5.57044 2.92079 2 7.0269 2 11.9669C2 17.5078 6.49174 21.9995 12.0326 21.9995C16.9741 21.9995 21.0812 18.427 21.9119 13.7238Z" fill="#000"/>
<path fill-rule="evenodd" clip-rule="evenodd" d="M10.977 1.50318C11.0563 1.50963 11.1866 1.53032 11.3111 1.61617C11.5314 1.76808 11.6525 2.02031 11.6334 2.28721C11.6219 2.44775 11.5472 2.56773 11.5037 2.62957C11.4547 2.69928 11.3951 2.76362 11.3397 2.81921C11.2319 2.92728 11.0791 3.06138 10.9009 3.21772L10.887 3.22994C9.42372 4.514 8.50122 6.3964 8.50122 8.49486C8.50122 12.3619 11.6361 15.4968 15.5032 15.4968C17.6027 15.4968 19.486 14.5734 20.7701 13.1088L20.7823 13.0949C20.9385 12.9166 21.0726 12.7638 21.1806 12.6559C21.2362 12.6004 21.3005 12.5408 21.3702 12.4918C21.432 12.4483 21.552 12.3736 21.7125 12.362C21.9794 12.3428 22.2317 12.4638 22.3837 12.684C22.4696 12.8085 22.4903 12.9387 22.4968 13.0181C22.5037 13.1024 22.4984 13.1871 22.491 13.2604C22.4766 13.4014 22.4443 13.5843 22.4076 13.7918L22.4043 13.8107C21.5322 18.7486 17.2209 22.4995 12.0326 22.4995C6.21561 22.4995 1.5 17.7839 1.5 11.9669C1.5 6.78017 5.24864 2.46998 10.1844 1.59603L10.2034 1.59267C10.4108 1.55593 10.5937 1.52353 10.7346 1.50912C10.8079 1.50161 10.8926 1.49632 10.977 1.50318ZM10.0473 2.64125C5.7355 3.55444 2.5 7.38333 2.5 11.9669C2.5 17.2316 6.76789 21.4995 12.0326 21.4995C16.6176 21.4995 20.4475 18.262 21.3591 13.9482C19.8989 15.5156 17.8154 16.4968 15.5032 16.4968C11.0838 16.4968 7.50122 12.9142 7.50122 8.49486C7.50122 6.18391 8.48143 4.10134 10.0473 2.64125Z" fill="#000"/>
</svg>
