<svg width="24" height="24" viewBox="0 0 24 24" fill="none" xmlns="http://www.w3.org/2000/svg">
<path opacity="0.4" d="M2 9.3541C2 9.12123 2.05422 8.89156 2.15836 8.68328L4.80902 3.38197C5.2325 2.53501 6.09815 2 7.04508 2H16.9549C17.9018 2 18.7675 2.53501 19.191 3.38197L21.8416 8.68328C21.9458 8.89156 22 9.12123 22 9.3541V19C22 20.6569 20.6569 22 19 22H5C3.34315 22 2 20.6569 2 19V9.3541Z" fill="#000"/>
<path d="M6 16.5C5.72386 16.5 5.5 16.7239 5.5 17C5.5 17.2761 5.72386 17.5 6 17.5H9C9.27614 17.5 9.5 17.2761 9.5 17C9.5 16.7239 9.27614 16.5 9 16.5H6Z" fill="#000"/>
<path fill-rule="evenodd" clip-rule="evenodd" d="M7.04508 1.5H16.9549C18.0912 1.5 19.13 2.14201 19.6382 3.15836L22.2889 8.45967C22.4277 8.73739 22.5 9.04361 22.5 9.3541V19C22.5 20.933 20.933 22.5 19 22.5H5C3.067 22.5 1.5 20.933 1.5 19V9.3541C1.5 9.04361 1.57229 8.73739 1.71115 8.45967L4.3618 3.15836C4.86998 2.14201 5.90877 1.5 7.04508 1.5ZM5.25623 3.60557C5.59501 2.92801 6.28754 2.5 7.04508 2.5H11.5V8.5H2.80902L5.25623 3.60557ZM12.5 8.5V2.5H16.9549C17.7125 2.5 18.405 2.928 18.7438 3.60557L21.191 8.5H12.5ZM2.5 9.5H21.5V19C21.5 20.3807 20.3807 21.5 19 21.5H5C3.61929 21.5 2.5 20.3807 2.5 19V9.5Z" fill="#000"/>
</svg>
