<svg width="24" height="24" viewBox="0 0 24 24" fill="none" xmlns="http://www.w3.org/2000/svg">
<path opacity="0.4" d="M19.7449 2.78593C17.9988 1.07136 15.1716 1.07136 13.4255 2.78593L4.39523 11.6531C1.86826 14.1345 1.86826 18.1614 4.39523 20.6427C6.91712 23.1191 11.0022 23.1191 13.5241 20.6427L13.5264 20.6404L21.3526 12.8545C21.4468 12.7608 21.4998 12.6335 21.5 12.5006C21.5002 12.3678 21.4475 12.2404 21.3536 12.1464L18.9775 9.7704L19.7449 9.01683C21.4961 7.29727 21.4961 4.50548 19.7449 2.78593Z" fill="#000"/>
<path d="M19.0443 3.49945C17.6872 2.16685 15.4832 2.16685 14.1261 3.49944L5.09586 12.3667C2.96805 14.4561 2.96805 17.8398 5.09586 19.9292C7.22838 22.0232 10.6894 22.0236 12.8223 19.9303L12.8235 19.9292L20.6474 12.1455C20.8431 11.9508 21.1597 11.9516 21.3545 12.1474C21.5492 12.3431 21.5484 12.6597 21.3526 12.8545L13.5264 20.6404L13.5241 20.6427C11.0022 23.1191 6.91712 23.1191 4.39523 20.6427C1.86826 18.1614 1.86826 14.1345 4.39523 11.6531L13.4255 2.78593C15.1716 1.07136 17.9988 1.07136 19.7449 2.78593C21.4961 4.50548 21.4961 7.29727 19.7449 9.01683L11.116 17.4899C10.1457 18.4427 8.57628 18.4427 7.60598 17.4899C6.63061 16.5322 6.63061 14.9755 7.60598 14.0177L15.0309 6.72691C15.2279 6.53344 15.5445 6.53632 15.7379 6.73335C15.9314 6.93039 15.9285 7.24696 15.7315 7.44043L8.30662 14.7313C7.7304 15.2971 7.7304 16.2106 8.30662 16.7764C8.88792 17.3472 9.8341 17.3472 10.4154 16.7764L19.0443 8.30331C20.3963 6.9757 20.3963 4.82706 19.0443 3.49945Z" fill="#000"/>
</svg>
