<svg width="24" height="24" viewBox="0 0 24 24" fill="none" xmlns="http://www.w3.org/2000/svg">
<path opacity="0.4" d="M13.4999 5.5L3.62916 15.3708C3.44093 15.559 3.34682 15.6531 3.27106 15.7616C3.20381 15.858 3.14812 15.9619 3.10512 16.0712C3.05668 16.1944 3.03009 16.3265 2.97691 16.5907L2.0974 20.9604C2.01804 21.3547 1.97836 21.5518 2.03642 21.6923C2.08718 21.8152 2.18476 21.9127 2.30761 21.9635C2.44814 22.0216 2.64527 21.9819 3.03953 21.9025L7.40919 21.023C7.67339 20.9698 7.8055 20.9432 7.92868 20.8948C8.03802 20.8518 8.14193 20.7961 8.23828 20.7289C8.34681 20.6531 8.4421 20.5578 8.63266 20.3673L18.4999 10.5L13.4999 5.5Z" fill="#000"/>
<path fill-rule="evenodd" clip-rule="evenodd" d="M13.1407 5.1523L13.1464 5.14652L13.1522 5.14083L15.2296 3.06338C15.6126 2.68042 15.9215 2.37152 16.1921 2.1418C16.4707 1.90525 16.7415 1.72347 17.0576 1.62077C17.5597 1.45763 18.1006 1.45763 18.6027 1.62077C18.9188 1.72348 19.1896 1.90534 19.4683 2.14197C19.739 2.37179 20.0481 2.68084 20.4313 3.06401L20.9361 3.56887C21.3192 3.95199 21.6283 4.26108 21.8581 4.53177C22.0948 4.81052 22.2766 5.08134 22.3793 5.39744C22.5425 5.89955 22.5425 6.44042 22.3793 6.94253C22.2766 7.25863 22.0948 7.52946 21.8581 7.8082C21.6283 8.07891 21.3193 8.38796 20.9361 8.77112L8.96003 20.7472C8.79486 20.9125 8.66992 21.0375 8.52449 21.139C8.39604 21.2287 8.25749 21.3029 8.1117 21.3602C7.94669 21.4251 7.77349 21.4599 7.54446 21.506L3.11869 22.3968C2.93847 22.433 2.77136 22.4667 2.63232 22.4818C2.48727 22.4975 2.3027 22.5026 2.11674 22.4257C1.87104 22.3242 1.67587 22.1291 1.57435 21.8834C1.49752 21.6974 1.50262 21.5128 1.51833 21.3678C1.5334 21.2287 1.56704 21.0617 1.60334 20.8814L2.4941 16.4558C2.54013 16.2267 2.57494 16.0535 2.63985 15.8884C2.69718 15.7426 2.77144 15.6041 2.8611 15.4756C2.9626 15.3302 3.0864 15.2065 3.24989 15.0431L13.1407 5.1523ZM18.2936 2.57183C17.9924 2.47394 17.6679 2.47394 17.3666 2.57183C17.226 2.61751 17.0705 2.70781 16.8392 2.90416C16.6035 3.10431 16.3232 3.38399 15.9216 3.78562L14.2071 5.50012L18.5 9.79301L20.2138 8.07917C20.6157 7.67732 20.8955 7.39692 21.0958 7.16102C21.2923 6.92958 21.3826 6.77406 21.4283 6.63351C21.5262 6.33225 21.5262 6.00773 21.4283 5.70646C21.3826 5.56591 21.2923 5.41039 21.0958 5.17895C20.8955 4.94305 20.6157 4.66265 20.2138 4.2608L19.7393 3.78628C19.3375 3.38443 19.0571 3.10458 18.8212 2.90431C18.5897 2.70783 18.4342 2.6175 18.2936 2.57183ZM17.7929 10.5001L13.5 6.20723L3.98276 15.7244C3.78265 15.9246 3.72586 15.9838 3.68111 16.0479C3.63628 16.1122 3.59915 16.1814 3.57048 16.2543C3.5419 16.327 3.5237 16.4085 3.46713 16.6895L2.58761 21.0592C2.54604 21.2657 2.52207 21.3873 2.51252 21.4755L2.51117 21.4889L2.52461 21.4876C2.6128 21.478 2.73436 21.4541 2.94091 21.4125L7.31057 20.533C7.59161 20.4764 7.67307 20.4582 7.74575 20.4296C7.81864 20.4009 7.88792 20.3638 7.95215 20.319C8.01619 20.2743 8.07645 20.2165 8.27916 20.0138L17.7929 10.5001Z" fill="#000"/>
<path d="M12.9999 21.5001C12.7238 21.5001 12.4999 21.7239 12.4999 22.0001C12.4999 22.2762 12.7238 22.5001 12.9999 22.5001H21.9999C22.2761 22.5001 22.4999 22.2762 22.4999 22.0001C22.4999 21.7239 22.2761 21.5001 21.9999 21.5001H12.9999Z" fill="#000"/>
</svg>
