<svg width="24" height="24" viewBox="0 0 24 24" fill="none" xmlns="http://www.w3.org/2000/svg">
<path opacity="0.4" fill-rule="evenodd" clip-rule="evenodd" d="M15.7397 3.25882L13.8096 5.18898L9.31029 6.26657C8.19379 6.53397 7.63555 6.66767 7.1714 6.94733C6.76064 7.19483 6.40513 7.5241 6.12691 7.91472C5.81254 8.35609 5.63651 8.90247 5.28443 9.99523L2.57538 18.4035C2.11171 19.8427 1.87988 20.5622 2.0539 21.0441C2.2054 21.4636 2.53572 21.7939 2.95522 21.9454C3.43708 22.1194 4.15664 21.8876 5.59574 21.4239L14.0037 18.7149C15.0967 18.3628 15.6431 18.1867 16.0845 17.8723C16.4752 17.594 16.8045 17.2385 17.0519 16.8276C17.3316 16.3634 17.4653 15.8051 17.7326 14.6884L18.8096 10.189L20.7397 8.2588C21.4328 7.56577 21.7793 7.21926 21.9091 6.81968C22.0233 6.46821 22.0233 6.0896 21.9091 5.73813C21.7793 5.33856 21.4328 4.99204 20.7397 4.29902L19.6995 3.25881C19.0065 2.56578 18.66 2.21926 18.2604 2.08943C17.9089 1.97523 17.5303 1.97523 17.1788 2.08944C16.7793 2.21927 16.4328 2.56579 15.7397 3.25882ZM10.5 15.4996C11.6046 15.4996 12.5 14.6042 12.5 13.4996C12.5 12.395 11.6046 11.4996 10.5 11.4996C9.39547 11.4996 8.50004 12.395 8.50004 13.4996C8.50004 14.6042 9.39547 15.4996 10.5 15.4996Z" fill="#000"/>
<path fill-rule="evenodd" clip-rule="evenodd" d="M19.3332 10.3728L19.263 10.4431L18.1976 14.8937C17.9507 15.9256 17.8002 16.5548 17.4802 17.086C17.1974 17.5555 16.821 17.9619 16.3746 18.2799C15.8694 18.6397 15.2536 18.838 14.2436 19.1633L5.72408 21.9082C5.0257 22.1332 4.46824 22.3129 4.02587 22.412C3.58472 22.5109 3.16613 22.5535 2.78536 22.416C2.22603 22.214 1.7856 21.7736 1.5836 21.2143C1.44609 20.8335 1.48869 20.4149 1.58759 19.9738C1.68677 19.5314 1.86637 18.9739 2.09138 18.2756L4.83639 9.75566C5.1616 8.74581 5.35988 8.1301 5.71963 7.62501C6.03758 7.1786 6.44389 6.80229 6.91333 6.51943C7.44447 6.1994 8.07354 6.04883 9.10533 5.80187L13.5558 4.73598L15.4011 2.89073C15.7349 2.55688 16.0069 2.28489 16.2457 2.08213C16.4926 1.87256 16.7367 1.70771 17.0243 1.61428C17.4762 1.46744 17.963 1.46744 18.4149 1.61427C18.7025 1.70771 18.9466 1.87255 19.1935 2.08212C19.4323 2.28488 19.7043 2.55685 20.0381 2.89071L21.1082 3.96074C21.442 4.29459 21.714 4.56655 21.9168 4.80539C22.1263 5.05225 22.2912 5.29642 22.3846 5.58399C22.5314 6.03588 22.5314 6.52266 22.3846 6.97456C22.2912 7.26212 22.1263 7.5063 21.9168 7.75315C21.714 7.99199 21.4421 8.26394 21.1082 8.59778L19.3728 10.3332C19.3666 10.3401 19.3602 10.3469 19.3536 10.3536C19.3469 10.3602 19.3401 10.3666 19.3332 10.3728ZM17.3333 2.56533C17.5844 2.48376 17.8548 2.48376 18.1059 2.56533C18.2179 2.60172 18.3468 2.67505 18.5463 2.84446C18.7503 3.01766 18.9936 3.26038 19.346 3.61273L20.3862 4.65294C20.7385 5.00528 20.9812 5.24855 21.1544 5.45257C21.3238 5.65213 21.3972 5.78099 21.4336 5.893C21.5151 6.14406 21.5151 6.41449 21.4336 6.66554C21.3972 6.77755 21.3238 6.90642 21.1544 7.10598C20.9812 7.31 20.7385 7.55327 20.3862 7.90562L18.9995 9.29235L14.7066 4.99945L16.0933 3.61274C16.4456 3.26039 16.6889 3.01766 16.8929 2.84446C17.0925 2.67505 17.2213 2.60173 17.3333 2.56533ZM13.9593 5.6664C13.9483 5.66984 13.9372 5.67291 13.926 5.6756L9.42672 6.75318C8.27834 7.02822 7.81155 7.14572 7.42942 7.37597C7.07734 7.58811 6.77261 7.87034 6.53415 8.20515C6.27533 8.56854 6.12244 9.02497 5.76032 10.1489L3.05126 18.5572C2.81637 19.2863 2.65134 19.8001 2.56337 20.1925C2.49469 20.4989 2.48683 20.6773 2.50342 20.7895L8.4142 14.8787C8.15244 14.4835 8 14.0095 8 13.5C8 12.1193 9.11929 11 10.5 11C11.8807 11 13 12.1193 13 13.5C13 14.8807 11.8807 16 10.5 16C9.99046 16 9.51652 15.8476 9.1213 15.5858L3.21081 21.4963C3.32297 21.5128 3.50136 21.5048 3.8071 21.4363C4.19949 21.3483 4.71335 21.1832 5.44238 20.9484L13.8504 18.2394C14.9745 17.8772 15.431 17.7243 15.7944 17.4654C16.1292 17.2269 16.4115 16.9221 16.6236 16.57C16.8539 16.1878 16.9713 15.7209 17.2463 14.5724L18.3233 10.073C18.326 10.0617 18.3291 10.0506 18.3325 10.0396L13.9593 5.6664ZM9 13.5C9 12.6716 9.67157 12 10.5 12C11.3284 12 12 12.6716 12 13.5C12 14.3284 11.3284 15 10.5 15C9.67157 15 9 14.3284 9 13.5Z" fill="#000"/>
</svg>
