<svg width="24" height="24" viewBox="0 0 24 24" fill="none" xmlns="http://www.w3.org/2000/svg">
<path opacity="0.4" d="M13.4999 5.5L3.62916 15.3708C3.44093 15.559 3.34682 15.6531 3.27106 15.7616C3.20381 15.858 3.14812 15.9619 3.10512 16.0712C3.05668 16.1944 3.03009 16.3265 2.97691 16.5907L2.0974 20.9604C2.01804 21.3547 1.97836 21.5518 2.03642 21.6923C2.08718 21.8152 2.18476 21.9127 2.30761 21.9635C2.44814 22.0216 2.64527 21.9819 3.03953 21.9025L7.40919 21.023C7.67339 20.9698 7.8055 20.9432 7.92868 20.8948C8.03802 20.8518 8.14193 20.7961 8.23828 20.7289C8.34681 20.6531 8.4421 20.5578 8.63266 20.3673L18.4999 10.5L13.4999 5.5Z" fill="#000"/>
<path fill-rule="evenodd" clip-rule="evenodd" d="M13.1398 5.15309L3.24991 15.0429C3.08642 15.2063 2.9626 15.33 2.8611 15.4755C2.77144 15.6039 2.69718 15.7425 2.63985 15.8883C2.57494 16.0533 2.54013 16.2266 2.4941 16.4557L1.60334 20.8813C1.56704 21.0615 1.5334 21.2286 1.51833 21.3676C1.50262 21.5127 1.49752 21.6973 1.57435 21.8832C1.67587 22.1289 1.87104 22.3241 2.11674 22.4256C2.3027 22.5024 2.48727 22.4974 2.63232 22.4816C2.77136 22.4666 2.9384 22.4329 3.11862 22.3966L7.54427 21.5059C7.77334 21.4598 7.94666 21.425 8.1117 21.3601C8.25749 21.3028 8.39604 21.2285 8.52449 21.1389C8.66993 21.0374 8.79483 20.9124 8.96 20.7471L20.9361 8.77099C21.3193 8.38784 21.6283 8.07879 21.8581 7.80807C22.0948 7.52933 22.2766 7.25851 22.3793 6.94241C22.5425 6.4403 22.5425 5.89943 22.3793 5.39732C22.2766 5.08122 22.0948 4.81039 21.8581 4.53165C21.6283 4.26095 21.3193 3.95193 20.9362 3.5688L20.4313 3.06389C20.0481 2.68072 19.739 2.37167 19.4683 2.14185C19.1896 1.90522 18.9188 1.72336 18.6027 1.62065C18.1006 1.4575 17.5597 1.4575 17.0576 1.62065C16.7415 1.72335 16.4707 1.90513 16.1921 2.14167C15.9215 2.37139 15.6126 2.6803 15.2296 3.06326L13.153 5.13984C13.1508 5.142 13.1486 5.14419 13.1464 5.1464C13.1441 5.14861 13.142 5.15084 13.1398 5.15309ZM17.3666 2.57171C17.6679 2.47382 17.9924 2.47382 18.2936 2.57171C18.4342 2.61737 18.5897 2.70771 18.8212 2.90419C19.0571 3.10446 19.3375 3.38431 19.7393 3.78616L20.2138 4.26067C20.6157 4.66253 20.8955 4.94293 21.0958 5.17883C21.2923 5.41027 21.3826 5.56579 21.4283 5.70634C21.5262 6.0076 21.5262 6.33212 21.4283 6.63339C21.3826 6.77394 21.2923 6.92946 21.0958 7.1609C20.8955 7.3968 20.6157 7.6772 20.2138 8.07905L18.5 9.79291L14.2071 5.50001L15.9216 3.7855C16.3232 3.38387 16.6035 3.10419 16.8392 2.90404C17.0705 2.70769 17.226 2.61738 17.3666 2.57171ZM13.5 6.20712L17.7929 10.5L8.27916 20.0137C8.07645 20.2164 8.01619 20.2742 7.95215 20.3189C7.88792 20.3637 7.81864 20.4008 7.74575 20.4295C7.67307 20.4581 7.59161 20.4763 7.31057 20.5328L2.94091 21.4124C2.73436 21.4539 2.6128 21.4779 2.52461 21.4875L2.51117 21.4888L2.51252 21.4754C2.52207 21.3872 2.54604 21.2656 2.58761 21.0591L3.46713 16.6894C3.5237 16.4084 3.5419 16.3269 3.57048 16.2542C3.59915 16.1813 3.63628 16.1121 3.68111 16.0478C3.72586 15.9837 3.78265 15.9244 3.98276 15.7243L13.5 6.20712Z" fill="#000"/>
</svg>
