<svg width="24" height="24" viewBox="0 0 24 24" fill="none" xmlns="http://www.w3.org/2000/svg">
<path opacity="0.4" d="M22 15.6V8.4C22 6.15979 22 5.03969 21.564 4.18404C21.1805 3.43139 20.5686 2.81947 19.816 2.43597C18.9603 2 17.8402 2 15.6 2H8.4C6.15979 2 5.03969 2 4.18404 2.43597C3.43139 2.81947 2.81947 3.43139 2.43597 4.18404C2 5.03969 2 6.15979 2 8.4V15.6C2 17.8402 2 18.9603 2.43597 19.816C2.81947 20.5686 3.43139 21.1805 4.18404 21.564C5.03969 22 6.15979 22 8.4 22H15.6C17.8402 22 18.9603 22 19.816 21.564C20.5686 21.1805 21.1805 20.5686 21.564 19.816C22 18.9603 22 17.8402 22 15.6Z" fill="#000"/>
<path d="M15.3536 9.35355C15.5488 9.15829 15.5488 8.84171 15.3536 8.64645C15.1583 8.45118 14.8417 8.45118 14.6464 8.64645L8.64645 14.6464C8.45118 14.8417 8.45118 15.1583 8.64645 15.3536C8.84171 15.5488 9.15829 15.5488 9.35355 15.3536L15.3536 9.35355Z" fill="#000"/>
<path d="M8.75 9.5C8.75 9.08579 9.08579 8.75 9.5 8.75C9.91421 8.75 10.2501 9.08579 10.2501 9.5C10.2501 9.91421 9.91431 10.25 9.5001 10.25C9.08589 10.25 8.75 9.91421 8.75 9.5Z" fill="#000"/>
<path d="M14.5 13.75C14.0858 13.75 13.75 14.0858 13.75 14.5C13.75 14.9142 14.0858 15.25 14.5 15.25C14.9142 15.25 15.2501 14.9142 15.2501 14.5C15.2501 14.0858 14.9142 13.75 14.5 13.75Z" fill="#000"/>
<path fill-rule="evenodd" clip-rule="evenodd" d="M15.6226 1.5H8.37737C7.27642 1.5 6.41948 1.5 5.73209 1.55616C5.03416 1.61318 4.4671 1.73058 3.95704 1.99047C3.11031 2.4219 2.4219 3.11031 1.99047 3.95704C1.73058 4.4671 1.61318 5.03416 1.55616 5.73209C1.5 6.41948 1.5 7.27641 1.5 8.37737V15.6226C1.5 16.7236 1.5 17.5805 1.55616 18.2679C1.61318 18.9658 1.73058 19.5329 1.99047 20.043C2.4219 20.8897 3.11031 21.5781 3.95704 22.0095C4.4671 22.2694 5.03416 22.3868 5.73209 22.4438C6.41949 22.5 7.27642 22.5 8.3774 22.5H15.6225C16.7235 22.5 17.5805 22.5 18.2679 22.4438C18.9658 22.3868 19.5329 22.2694 20.043 22.0095C20.8897 21.5781 21.5781 20.8897 22.0095 20.043C22.2694 19.5329 22.3868 18.9658 22.4438 18.2679C22.5 17.5805 22.5 16.7236 22.5 15.6227V8.37736C22.5 7.27644 22.5 6.41946 22.4438 5.73209C22.3868 5.03416 22.2694 4.4671 22.0095 3.95704C21.5781 3.11031 20.8897 2.4219 20.043 1.99047C19.5329 1.73058 18.9658 1.61318 18.2679 1.55616C17.5805 1.5 16.7236 1.5 15.6226 1.5ZM4.41103 2.88148C4.75662 2.70539 5.17744 2.60481 5.81352 2.55284C6.45545 2.50039 7.27164 2.5 8.4 2.5H15.6C16.7284 2.5 17.5446 2.50039 18.1865 2.55284C18.8226 2.60481 19.2434 2.70539 19.589 2.88148C20.2475 3.21703 20.783 3.75247 21.1185 4.41103C21.2946 4.75662 21.3952 5.17744 21.4472 5.81352C21.4996 6.45545 21.5 7.27164 21.5 8.4V15.6C21.5 16.7284 21.4996 17.5446 21.4472 18.1865C21.3952 18.8226 21.2946 19.2434 21.1185 19.589C20.783 20.2475 20.2475 20.783 19.589 21.1185C19.2434 21.2946 18.8226 21.3952 18.1865 21.4472C17.5446 21.4996 16.7284 21.5 15.6 21.5H8.4C7.27164 21.5 6.45545 21.4996 5.81352 21.4472C5.17744 21.3952 4.75662 21.2946 4.41103 21.1185C3.75247 20.783 3.21703 20.2475 2.88148 19.589C2.70539 19.2434 2.60481 18.8226 2.55284 18.1865C2.50039 17.5446 2.5 16.7284 2.5 15.6V8.4C2.5 7.27164 2.50039 6.45545 2.55284 5.81352C2.60481 5.17744 2.70539 4.75662 2.88148 4.41103C3.21703 3.75247 3.75247 3.21703 4.41103 2.88148Z" fill="#000"/>
</svg>
