<svg width="24" height="24" viewBox="0 0 24 24" fill="none" xmlns="http://www.w3.org/2000/svg">
<g opacity="0.4">
<path d="M8.89503 12.605C8.40901 11.9356 7.96652 11.179 7.52757 10.2951L9.57396 8.16549C9.74081 7.99187 9.82423 7.90505 9.8603 7.80429C9.89209 7.71547 9.89811 7.61946 9.87766 7.52737C9.85445 7.42289 9.78252 7.32634 9.63866 7.13324L6.31264 2.66878C6.13329 2.42805 6.04362 2.30768 5.94682 2.22903C5.63998 1.97972 5.21505 1.93459 4.86269 2.11389C4.75153 2.17046 4.63858 2.2693 4.41267 2.46699L3.76377 3.03485C3.70634 3.0851 3.67763 3.11023 3.65136 3.13388C2.26702 4.38032 1.69036 6.29299 2.15504 8.0969C2.16386 8.13113 2.1766 8.17784 2.20208 8.27127L2.21382 8.31432C2.66559 9.96685 3.37983 11.5361 4.32926 12.9621L4.36018 13.0085C4.90758 13.8283 5.50379 14.6118 6.1449 15.3551L8.89503 12.605Z" fill="#000"/>
<path d="M7.34879 16.6513L10.0488 13.9512C11.0025 14.8911 12.1592 15.6696 13.7051 16.4726L15.6899 14.3402C15.8632 14.154 15.9498 14.0609 16.0535 14.0193C16.1448 13.9827 16.2449 13.9738 16.3412 13.9937C16.4506 14.0164 16.5523 14.0928 16.7558 14.2455L21.3377 17.6857C21.5779 17.8661 21.6981 17.9563 21.7764 18.0536C22.0234 18.3602 22.0675 18.7831 21.8892 19.134C21.8325 19.2454 21.7336 19.3585 21.5358 19.5846L20.9653 20.2364C20.9151 20.2938 20.8899 20.3226 20.8663 20.3488C19.6199 21.7332 17.7072 22.3098 15.9033 21.8451C15.8691 21.8363 15.8223 21.8236 15.7289 21.7981L15.6859 21.7864C14.0333 21.3346 12.4641 20.6203 11.0381 19.6709L10.9917 19.64C9.67911 18.7635 8.45944 17.7619 7.34879 16.6513Z" fill="#000"/>
</g>
<path fill-rule="evenodd" clip-rule="evenodd" d="M21.6464 1.64669C21.8416 1.45143 22.1582 1.45143 22.3535 1.64669C22.5488 1.84195 22.5488 2.15854 22.3535 2.3538L10.7675 13.9398C11.532 14.6215 12.442 15.2289 13.6001 15.8516L15.334 13.9887C15.4119 13.905 15.4885 13.8226 15.5594 13.7575C15.6379 13.6853 15.7368 13.6077 15.8673 13.5553C16.0499 13.482 16.2501 13.4642 16.4428 13.5042C16.5804 13.5327 16.6915 13.5917 16.7815 13.6489C16.8627 13.7006 16.9527 13.7681 17.0441 13.8367L21.6816 17.3186C21.8782 17.4659 22.047 17.5924 22.1658 17.7399C22.5363 18.1998 22.6025 18.8342 22.3349 19.3606C22.2491 19.5295 22.11 19.6881 21.9481 19.8727L21.3389 20.5688C21.2913 20.6232 21.264 20.6544 21.2379 20.6834C19.8668 22.2062 17.7629 22.8405 15.7786 22.3293C15.7408 22.3196 15.691 22.306 15.6031 22.2821L15.554 22.2687C13.8499 21.8028 12.2316 21.0662 10.761 20.0871L10.714 20.0558C9.51343 19.2541 8.38896 18.3498 7.35248 17.3548L2.35349 22.3538C2.15823 22.5491 1.84165 22.5491 1.64639 22.3538C1.45112 22.1585 1.45112 21.842 1.64639 21.6467L21.6464 1.64669ZM8.05974 16.6476C9.04984 17.5964 10.1234 18.459 11.2694 19.2242L11.3152 19.2547C12.6966 20.1745 14.2168 20.8664 15.8177 21.3041L15.8605 21.3157C15.9559 21.3417 15.9981 21.3533 16.028 21.361C17.6515 21.7792 19.3729 21.2602 20.4947 20.0143C20.5155 19.9912 20.5378 19.9657 20.5891 19.9071L21.1595 19.2553C21.378 19.0056 21.4223 18.949 21.4434 18.9075C21.5326 18.732 21.5106 18.5205 21.3871 18.3673C21.3579 18.331 21.3028 18.2847 21.0375 18.0855L16.4556 14.6454C16.3476 14.5643 16.2893 14.521 16.245 14.4928L16.2403 14.4899L16.2362 14.4936C16.1976 14.5291 16.1478 14.5821 16.0559 14.6809L14.0711 16.8133C13.918 16.9777 13.674 17.0199 13.4746 16.9163C12.087 16.1955 10.9869 15.4835 10.0594 14.6479L8.05974 16.6476Z" fill="#000"/>
<path d="M8.13388 10.3858C8.49663 11.0885 8.86205 11.7002 9.25322 12.2468L8.53725 12.9628C8.01251 12.2498 7.54186 11.448 7.07977 10.5175C6.9859 10.3284 7.02083 10.1008 7.16707 9.94863L9.21345 7.81905C9.30209 7.72682 9.34916 7.67736 9.38056 7.63931L9.38374 7.63542L9.38107 7.63117C9.35466 7.58949 9.31414 7.53454 9.23772 7.43196L5.91169 2.9675C5.71364 2.70166 5.6676 2.64639 5.63153 2.61709C5.47811 2.49243 5.26565 2.46987 5.08947 2.55952C5.04806 2.58059 4.99143 2.62496 4.74196 2.84327L4.09306 3.41112C4.0345 3.46237 4.00895 3.48474 3.98594 3.50546C2.74003 4.62726 2.22104 6.34866 2.63925 7.97217C2.64695 8.00206 2.65846 8.04433 2.68447 8.13972L2.69614 8.18247C3.13379 9.78336 3.82571 11.3036 4.74547 12.685L4.77602 12.7308C5.30514 13.5232 5.88085 14.2811 6.49945 15.0006L5.79042 15.7096C5.12678 14.9425 4.51005 14.1333 3.94438 13.2862L3.91308 13.2392C2.93398 11.7686 2.19742 10.1503 1.73153 8.44618L1.718 8.39657C1.69413 8.30904 1.68057 8.2593 1.67086 8.22163C1.15972 6.23733 1.79404 4.1334 3.31682 2.76231C3.34573 2.73627 3.37691 2.70899 3.43108 2.66159L4.12449 2.05474C4.30897 1.89297 4.46741 1.75404 4.63595 1.66827C5.16449 1.39932 5.80187 1.46701 6.26214 1.84098C6.4089 1.96023 6.53462 2.12934 6.68101 2.32625L10.0481 6.84591C10.1127 6.93257 10.1766 7.01832 10.2258 7.09592C10.2805 7.18222 10.3367 7.28801 10.3658 7.41896C10.4067 7.60315 10.3947 7.79516 10.3311 7.9728C10.2859 8.0991 10.2168 8.19704 10.1518 8.27584C10.0934 8.34667 10.0193 8.42375 9.9444 8.50165L8.13388 10.3858Z" fill="#000"/>
</svg>
