<svg width="24" height="24" viewBox="0 0 24 24" fill="none" xmlns="http://www.w3.org/2000/svg">
<path opacity="0.4" d="M9.63866 7.13324L6.31264 2.66878C6.13329 2.42805 6.04362 2.30768 5.94682 2.22903C5.63998 1.97972 5.21505 1.93459 4.86269 2.11389C4.75153 2.17046 4.63858 2.26931 4.41267 2.46699L3.76377 3.03485C3.70634 3.0851 3.67763 3.11023 3.65136 3.13388C2.26702 4.38032 1.69036 6.29299 2.15504 8.0969C2.16386 8.13113 2.1766 8.17784 2.20208 8.27127L2.21382 8.31432C2.66559 9.96685 3.37983 11.5361 4.32926 12.9621L4.36018 13.0085C6.11308 15.6336 8.3666 17.8871 10.9917 19.64L11.0381 19.6709C12.4641 20.6203 14.0333 21.3346 15.6859 21.7864L15.7289 21.7981C15.8223 21.8236 15.8691 21.8363 15.9033 21.8451C17.7072 22.3098 19.6199 21.7332 20.8663 20.3488C20.8899 20.3225 20.9151 20.2938 20.9653 20.2364L21.5358 19.5846C21.7336 19.3585 21.8325 19.2454 21.8892 19.134C22.0675 18.7831 22.0234 18.3602 21.7764 18.0536C21.6981 17.9563 21.5779 17.8661 21.3377 17.6857L16.7558 14.2455C16.5523 14.0928 16.4506 14.0164 16.3412 13.9937C16.2449 13.9738 16.1448 13.9827 16.0535 14.0193C15.9498 14.0609 15.8632 14.154 15.6899 14.3402L13.7051 16.4726C10.555 14.8362 9.02082 13.302 7.52757 10.2951L9.57396 8.16549C9.74081 7.99187 9.82423 7.90505 9.8603 7.80429C9.89209 7.71547 9.89811 7.61946 9.87766 7.52737C9.85445 7.42289 9.78252 7.32634 9.63866 7.13324Z" fill="#000"/>
<path fill-rule="evenodd" clip-rule="evenodd" d="M4.63594 1.66827C5.16449 1.39932 5.80187 1.46701 6.26214 1.84098C6.4089 1.96023 6.53462 2.12934 6.68101 2.32625C6.69176 2.34071 6.70262 2.35532 6.71361 2.37007L10.0481 6.84591C10.1127 6.93257 10.1766 7.01832 10.2258 7.09592C10.2805 7.18222 10.3367 7.28801 10.3658 7.41896C10.4067 7.60315 10.3947 7.79516 10.3311 7.9728C10.2859 8.0991 10.2168 8.19704 10.1518 8.27584C10.0933 8.34669 10.0192 8.42378 9.94435 8.5017L8.13388 10.3858C8.81242 11.7003 9.5003 12.696 10.3486 13.5442C11.1966 14.3923 12.2229 15.1111 13.6001 15.8516L15.334 13.9887C15.4119 13.905 15.4885 13.8226 15.5594 13.7575C15.6379 13.6853 15.7368 13.6077 15.8673 13.5553C16.0499 13.482 16.2501 13.4642 16.4428 13.5042C16.5804 13.5327 16.6915 13.5917 16.7815 13.6489C16.8627 13.7006 16.9527 13.7681 17.0441 13.8368L21.6379 17.2859C21.6526 17.2969 21.6672 17.3078 21.6816 17.3186C21.8781 17.4659 22.047 17.5924 22.1658 17.7399C22.5363 18.1998 22.6025 18.8342 22.3349 19.3606C22.2491 19.5295 22.11 19.6881 21.948 19.8728C21.9362 19.8863 21.9242 19.9 21.912 19.9138L21.3416 20.5657C21.2923 20.622 21.2645 20.6539 21.2379 20.6834C19.8668 22.2062 17.7629 22.8405 15.7786 22.3293C15.7408 22.3196 15.691 22.306 15.6031 22.2821L15.554 22.2687C13.8499 21.8028 12.2316 21.0662 10.761 20.0871L10.714 20.0558C8.03426 18.2664 5.7338 15.9659 3.94438 13.2862L3.91308 13.2392C2.93398 11.7686 2.19742 10.1503 1.73153 8.44618L1.718 8.39657C1.69412 8.30901 1.68057 8.25931 1.67086 8.22163C1.15972 6.23733 1.79404 4.1334 3.31682 2.76231C3.34573 2.73627 3.37691 2.70899 3.43108 2.66159L4.08341 2.09073C4.09725 2.07862 4.11094 2.06662 4.12449 2.05474C4.30897 1.89297 4.46741 1.75404 4.63594 1.66827ZM5.63153 2.61709C5.47811 2.49243 5.26565 2.46987 5.08947 2.55952C5.04806 2.58059 4.99143 2.62496 4.74196 2.84327L4.09306 3.41112C4.0345 3.46237 4.00895 3.48474 3.98594 3.50546C2.74003 4.62726 2.22104 6.34866 2.63925 7.97217C2.64695 8.00206 2.65846 8.04433 2.68447 8.13972L2.69614 8.18247C3.13379 9.78336 3.82571 11.3036 4.74547 12.685L4.77602 12.7308C6.4924 15.3012 8.69896 17.5078 11.2694 19.2242L11.3152 19.2547C12.6966 20.1745 14.2168 20.8664 15.8177 21.3041L15.8605 21.3157C15.9559 21.3417 15.9981 21.3533 16.028 21.361C17.6515 21.7792 19.3729 21.2602 20.4947 20.0143C20.5155 19.9912 20.5378 19.9657 20.5891 19.9071L21.1595 19.2553C21.378 19.0056 21.4223 18.949 21.4434 18.9075C21.5326 18.732 21.5106 18.5205 21.3871 18.3673C21.3579 18.331 21.3028 18.2847 21.0375 18.0855L16.4556 14.6454C16.3476 14.5643 16.2893 14.521 16.245 14.4928L16.2403 14.4899L16.2362 14.4936C16.1976 14.5291 16.1478 14.5821 16.0559 14.6809L14.0711 16.8133C13.918 16.9777 13.674 17.0199 13.4746 16.9163C11.8727 16.0841 10.6539 15.2637 9.64147 14.2513C8.6279 13.2378 7.84219 12.0528 7.07977 10.5175C6.9859 10.3284 7.02083 10.1008 7.16706 9.94863L9.21345 7.81905C9.30208 7.72682 9.34916 7.67736 9.38056 7.63931L9.38374 7.63542L9.38107 7.63117C9.35466 7.58949 9.31414 7.53454 9.23772 7.43196L5.91169 2.9675C5.71364 2.70166 5.66759 2.64639 5.63153 2.61709Z" fill="#000"/>
</svg>
