<svg width="24" height="24" viewBox="0 0 24 24" fill="none" xmlns="http://www.w3.org/2000/svg">
<g opacity="0.4">
<path d="M8.89528 12.605C8.40925 11.9356 7.96677 11.179 7.52782 10.2951L9.57421 8.16549C9.74105 7.99187 9.82447 7.90505 9.86054 7.80429C9.89234 7.71547 9.89835 7.61946 9.8779 7.52737C9.85469 7.42289 9.78276 7.32634 9.63891 7.13324L6.31288 2.66878C6.13354 2.42805 6.04387 2.30768 5.94706 2.22903C5.64022 1.97972 5.2153 1.93459 4.86294 2.11389C4.75177 2.17046 4.63882 2.2693 4.41292 2.46699L3.76401 3.03485C3.70659 3.0851 3.67788 3.11023 3.65161 3.13388C2.26727 4.38032 1.69061 6.29299 2.15528 8.0969C2.1641 8.13113 2.17684 8.17784 2.20232 8.27127L2.21407 8.31432C2.66584 9.96685 3.38008 11.5361 4.3295 12.9621L4.36043 13.0085C4.90782 13.8283 5.50404 14.6118 6.14514 15.3551L8.89528 12.605Z" fill="#000"/>
<path d="M7.34904 16.6513L10.0491 13.9512C11.0028 14.8911 12.1595 15.6696 13.7054 16.4726L15.6901 14.3402C15.8634 14.154 15.9501 14.0609 16.0538 14.0193C16.1451 13.9827 16.2452 13.9738 16.3415 13.9937C16.4509 14.0164 16.5526 14.0928 16.756 14.2455L21.3379 17.6857C21.5782 17.8661 21.6983 17.9563 21.7767 18.0536C22.0237 18.3602 22.0678 18.7831 21.8894 19.134C21.8328 19.2454 21.7339 19.3585 21.536 19.5846L20.9656 20.2364C20.9153 20.2938 20.8902 20.3226 20.8665 20.3488C19.6201 21.7332 17.7074 22.3098 15.9035 21.8451C15.8693 21.8363 15.8226 21.8236 15.7292 21.7981L15.6861 21.7864C14.0336 21.3346 12.4643 20.6203 11.0383 19.6709L10.9919 19.64C9.67936 18.7635 8.45968 17.7619 7.34904 16.6513Z" fill="#000"/>
</g>
<path fill-rule="evenodd" clip-rule="evenodd" d="M21.6466 1.64669C21.8419 1.45143 22.1585 1.45143 22.3537 1.64669C22.549 1.84195 22.549 2.15854 22.3537 2.3538L10.7678 13.9398C11.5323 14.6215 12.4423 15.2289 13.6003 15.8516L15.3343 13.9887C15.4121 13.905 15.4888 13.8226 15.5596 13.7575C15.6382 13.6853 15.7371 13.6077 15.8675 13.5553C16.0502 13.482 16.2503 13.4642 16.443 13.5042C16.5807 13.5327 16.6917 13.5917 16.7817 13.6489C16.863 13.7006 16.9529 13.7681 17.0443 13.8367L21.6819 17.3186C21.8784 17.4659 22.0472 17.5924 22.1661 17.7399C22.5365 18.1998 22.6027 18.8342 22.3351 19.3606C22.2493 19.5295 22.1102 19.6881 21.9483 19.8727L21.3392 20.5688C21.2916 20.6232 21.2642 20.6544 21.2381 20.6834C19.867 22.2062 17.7631 22.8405 15.7788 22.3293C15.7411 22.3196 15.6912 22.306 15.6034 22.2821L15.5543 22.2687C13.8501 21.8028 12.2318 21.0662 10.7612 20.0871L10.7143 20.0558C9.51368 19.2541 8.38921 18.3498 7.35272 17.3548L2.35374 22.3538C2.15847 22.5491 1.84189 22.5491 1.64663 22.3538C1.45137 22.1585 1.45137 21.842 1.64663 21.6467L21.6466 1.64669ZM8.05998 16.6476C9.05008 17.5964 10.1237 18.459 11.2696 19.2242L11.3154 19.2547C12.6969 20.1745 14.2171 20.8664 15.818 21.3041L15.8607 21.3157C15.9561 21.3417 15.9984 21.3533 16.0283 21.361C17.6518 21.7792 19.3732 21.2602 20.495 20.0143C20.5157 19.9912 20.5381 19.9657 20.5893 19.9071L21.1597 19.2553C21.3782 19.0056 21.4226 18.949 21.4437 18.9075C21.5329 18.732 21.5108 18.5205 21.3873 18.3673C21.3581 18.331 21.303 18.2847 21.0377 18.0855L16.4558 14.6454C16.3479 14.5643 16.2896 14.521 16.2453 14.4928L16.2406 14.4899L16.2365 14.4936C16.1979 14.5291 16.1481 14.5821 16.0561 14.6809L14.0714 16.8133C13.9183 16.9777 13.6743 17.0199 13.4749 16.9163C12.0873 16.1955 10.9872 15.4835 10.0596 14.6479L8.05998 16.6476Z" fill="#000"/>
<path d="M8.13412 10.3858C8.49687 11.0885 8.8623 11.7002 9.25347 12.2468L8.5375 12.9628C8.01275 12.2498 7.54211 11.448 7.08001 10.5175C6.98614 10.3284 7.02107 10.1008 7.16731 9.94863L9.2137 7.81905C9.30233 7.72682 9.3494 7.67736 9.38081 7.63931L9.38399 7.63542L9.38132 7.63117C9.35491 7.58949 9.31438 7.53454 9.23796 7.43196L5.91193 2.9675C5.71389 2.70166 5.66784 2.64639 5.63178 2.61709C5.47836 2.49243 5.2659 2.46987 5.08971 2.55952C5.0483 2.58059 4.99167 2.62496 4.74221 2.84327L4.0933 3.41112C4.03475 3.46237 4.0092 3.48474 3.98618 3.50546C2.74028 4.62726 2.22128 6.34866 2.63949 7.97217C2.64719 8.00206 2.6587 8.04433 2.68472 8.13972L2.69638 8.18247C3.13404 9.78336 3.82596 11.3036 4.74571 12.685L4.77626 12.7308C5.30539 13.5232 5.8811 14.2811 6.49969 15.0006L5.79066 15.7096C5.12702 14.9425 4.51029 14.1333 3.94463 13.2862L3.91332 13.2392C2.93423 11.7686 2.19767 10.1503 1.73178 8.44618L1.71824 8.39657C1.69437 8.30904 1.68081 8.2593 1.6711 8.22163C1.15996 6.23733 1.79429 4.1334 3.31706 2.76231C3.34598 2.73627 3.37715 2.70899 3.43132 2.66159L4.12473 2.05474C4.30921 1.89297 4.46765 1.75404 4.63619 1.66827C5.16473 1.39932 5.80212 1.46701 6.26238 1.84098C6.40914 1.96023 6.53487 2.12934 6.68125 2.32625L10.0484 6.84591C10.1129 6.93257 10.1768 7.01832 10.226 7.09592C10.2807 7.18222 10.3369 7.28801 10.366 7.41896C10.4069 7.60315 10.3949 7.79516 10.3313 7.9728C10.2861 8.0991 10.2171 8.19704 10.1521 8.27584C10.0936 8.34667 10.0195 8.42375 9.94464 8.50165L8.13412 10.3858Z" fill="#000"/>
</svg>
