<svg width="24" height="24" viewBox="0 0 24 24" fill="none" xmlns="http://www.w3.org/2000/svg">
<path opacity="0.4" d="M16.6869 14.7523L21.7505 15.4753C22.0588 15.5194 22.213 15.5414 22.3383 15.5194C22.6295 15.4683 22.8688 15.2607 22.9605 14.9797C23 14.8587 23 14.703 23 14.3915L23 13.1092C23.0001 11.4351 22.078 9.87858 20.6207 9.05452C19.2757 8.29392 17.7987 7.74144 16.2835 7.43839C13.4547 6.87263 10.539 6.87208 7.71021 7.43785C6.19226 7.74144 4.71555 8.29459 3.36872 9.05775C1.91683 9.88045 1 11.4314 1 13.1001V14.3905C1 14.7029 1 14.8591 1.03973 14.9804C1.13158 15.2608 1.37037 15.468 1.661 15.5192C1.78671 15.5414 1.94133 15.5193 2.25055 15.4752L7.31313 14.7523C7.31312 14.7523 7.31313 14.7523 7.31313 14.7523C7.55668 14.7175 7.67846 14.7001 7.77007 14.6413C7.85079 14.5895 7.91491 14.5156 7.95478 14.4284C8.00003 14.3294 8.00003 14.2063 8.00003 13.9603V11.2645C11.0576 10.3776 13.1254 10.3776 16 11.2645L16 13.9603C16 14.2063 16 14.3294 16.0453 14.4284C16.0851 14.5156 16.1493 14.5895 16.23 14.6413C16.3216 14.7001 16.4434 14.7175 16.6869 14.7523Z" fill="#000"/>
<path fill-rule="evenodd" clip-rule="evenodd" d="M23.436 15.135C23.2869 15.5917 22.8981 15.9289 22.4249 16.012C22.2182 16.0482 21.9862 16.0147 21.7412 15.9793C21.7209 15.9763 21.7004 15.9734 21.6799 15.9704L16.6021 15.2453C16.4927 15.2297 16.3847 15.2143 16.2934 15.1941C16.1919 15.1716 16.0751 15.136 15.9601 15.0623C15.7986 14.9586 15.6704 14.8108 15.5907 14.6363C15.5339 14.512 15.5152 14.3914 15.5073 14.2878C15.5001 14.1944 15.5002 14.0854 15.5002 13.9749L15.5002 11.637C13.0177 10.9195 11.148 10.919 8.50018 11.6431L8.50018 13.9749C8.50019 14.0854 8.5002 14.1945 8.49306 14.2878C8.48513 14.3914 8.46649 14.512 8.40969 14.6363C8.32995 14.8108 8.2017 14.9586 8.04025 15.0623C7.92525 15.136 7.80843 15.1716 7.70698 15.1941C7.61563 15.2143 7.50765 15.2297 7.39829 15.2453L2.32138 15.9703C2.3008 15.9732 2.28031 15.9762 2.2599 15.9791C2.01418 16.0147 1.78157 16.0483 1.57427 16.0118C1.102 15.9284 0.71396 15.5919 0.564711 15.1361C0.499198 14.9361 0.499622 14.701 0.500074 14.4527C0.500111 14.4321 0.500148 14.4114 0.500148 14.3907L0.50015 13.1003C0.50015 11.2487 1.51615 9.533 3.12238 8.62286C4.51485 7.83383 6.0416 7.26182 7.6123 6.94768C10.5059 6.36895 13.4882 6.36952 16.3817 6.94822C17.9495 7.26179 19.4764 7.83305 20.867 8.6194C22.4787 9.53076 23.5002 11.2521 23.5002 13.1093L23.5002 14.3916C23.5002 14.4124 23.5002 14.433 23.5003 14.4536C23.5007 14.7011 23.5011 14.9355 23.436 15.135ZM22.252 15.027C22.3612 15.0079 22.451 14.93 22.4854 14.8246C22.4938 14.7987 22.5002 14.7442 22.5002 14.3916L22.5002 13.1093C22.5002 11.6183 21.6777 10.2266 20.3748 9.48987C19.0753 8.75503 17.6482 8.22133 16.1856 7.92881C13.4214 7.37597 10.5725 7.37545 7.80842 7.92826C6.34322 8.2213 4.91655 8.75559 3.61537 9.49289C2.3178 10.2281 1.50015 11.6142 1.50015 13.1003L1.50015 14.3907C1.50015 14.7442 1.50654 14.7989 1.51505 14.8249C1.54949 14.9301 1.63904 15.0077 1.74802 15.027C1.77494 15.0317 1.82997 15.0303 2.18002 14.9803L7.24258 14.2574C7.37191 14.2389 7.44113 14.2287 7.49047 14.2178L7.49555 14.2166L7.49598 14.2114C7.49984 14.161 7.50017 14.0911 7.50018 13.9604L7.50017 11.2646C7.50017 11.0421 7.64719 10.8464 7.86088 10.7844C11.0064 9.87199 13.1741 9.86946 16.1476 10.7869C16.3572 10.8515 16.5002 11.0453 16.5002 11.2646V13.9604C16.5002 14.0911 16.5005 14.161 16.5044 14.2114L16.5048 14.2166L16.5099 14.2178C16.5592 14.2287 16.6284 14.2389 16.7578 14.2574L21.8213 14.9805C22.1703 15.0303 22.2252 15.0317 22.252 15.027Z" fill="#000"/>
</svg>
