<svg width="24" height="24" viewBox="0 0 24 24" fill="none" xmlns="http://www.w3.org/2000/svg">
<path opacity="0.4" d="M20.6325 14.3774C22.4611 13.318 22.4612 10.6777 20.6325 9.61832L8.12851 2.37457C6.29518 1.3125 4 2.63536 4 4.75411L4 19.2416C4 21.3604 6.29517 22.6832 8.12851 21.6212L20.6325 14.3774Z" fill="#000"/>
<path fill-rule="evenodd" clip-rule="evenodd" d="M3.5 4.75413C3.5 2.25015 6.21249 0.686765 8.37915 1.94195L20.8831 9.18569C23.0443 10.4377 23.0443 13.5581 20.8831 14.8101L8.37914 22.0538C6.21248 23.309 3.5 21.7456 3.5 19.2416L3.5 4.75413ZM7.87787 2.80723C6.37787 1.93826 4.5 3.02061 4.5 4.75413L4.5 19.2416C4.5 20.9752 6.37787 22.0575 7.87787 21.1885L20.3819 13.9448C21.878 13.078 21.878 10.9177 20.3819 10.051L7.87787 2.80723Z" fill="#000"/>
</svg>
