<svg width="24" height="24" viewBox="0 0 24 24" fill="none" xmlns="http://www.w3.org/2000/svg">
<path opacity="0.4" fill-rule="evenodd" clip-rule="evenodd" d="M12 23C18.0751 23 23 18.0751 23 12C23 5.92487 18.0751 1 12 1C5.92487 1 1 5.92487 1 12C1 18.0751 5.92487 23 12 23ZM11.0044 8.16504L15.8056 10.9631C16.6001 11.4261 16.6001 12.5739 15.8056 13.0369L11.0044 15.835C10.2043 16.3012 9.19995 15.7241 9.19995 14.7981V9.20194C9.19995 8.27591 10.2043 7.69877 11.0044 8.16504Z" fill="#000"/>
<path fill-rule="evenodd" clip-rule="evenodd" d="M11.2561 7.73306C10.1227 7.07254 8.69995 7.89012 8.69995 9.20196V14.7981C8.69995 16.1099 10.1227 16.9275 11.2561 16.267L16.0574 13.4689C17.1828 12.813 17.1828 11.187 16.0574 10.5311L11.2561 7.73306ZM9.69995 9.20196C9.69995 8.66173 10.2859 8.32504 10.7526 8.59705L15.5539 11.3951C16.0173 11.6652 16.0173 12.3348 15.5539 12.6049L10.7526 15.403C10.2859 15.675 9.69995 15.3383 9.69995 14.7981V9.20196Z" fill="#000"/>
<path fill-rule="evenodd" clip-rule="evenodd" d="M12 0.5C5.64873 0.5 0.5 5.64873 0.5 12C0.5 18.3513 5.64873 23.5 12 23.5C18.3513 23.5 23.5 18.3513 23.5 12C23.5 5.64873 18.3513 0.5 12 0.5ZM1.5 12C1.5 6.20101 6.20101 1.5 12 1.5C17.799 1.5 22.5 6.20101 22.5 12C22.5 17.799 17.799 22.5 12 22.5C6.20101 22.5 1.5 17.799 1.5 12Z" fill="#000"/>
</svg>
