<svg width="24" height="24" viewBox="0 0 24 24" fill="none" xmlns="http://www.w3.org/2000/svg">
<g opacity="0.4">
<path d="M20 6C21.1046 6 22 5.10457 22 4C22 2.89543 21.1046 2 20 2C18.8954 2 18 2.89543 18 4C18 5.10457 18.8954 6 20 6Z" fill="#000"/>
<path d="M16 4C16 6.20914 17.7909 8 20 8C20.3426 8 20.6752 7.95693 20.9925 7.8759C21 8.31925 21 8.82239 21 9.4V15.6C21 17.8402 21 18.9603 20.564 19.816C20.1805 20.5686 19.5686 21.1805 18.816 21.564C17.9603 22 16.8402 22 14.6 22H8.4C6.15979 22 5.03969 22 4.18404 21.564C3.43139 21.1805 2.81947 20.5686 2.43597 19.816C2 18.9603 2 17.8402 2 15.6V9.4C2 7.15979 2 6.03969 2.43597 5.18404C2.81947 4.43139 3.43139 3.81947 4.18404 3.43597C5.03969 3 6.15979 3 8.4 3H14.6C15.1776 3 15.6808 3 16.1241 3.00747C16.0431 3.32484 16 3.65739 16 4Z" fill="#000"/>
</g>
<path fill-rule="evenodd" clip-rule="evenodd" d="M17.5 3.99994C17.5 2.61923 18.6193 1.49994 20 1.49994C21.3807 1.49994 22.5 2.61923 22.5 3.99994C22.5 5.38065 21.3807 6.49994 20 6.49994C18.6193 6.49994 17.5 5.38065 17.5 3.99994ZM20 2.49994C19.1716 2.49994 18.5 3.17151 18.5 3.99994C18.5 4.82837 19.1716 5.49994 20 5.49994C20.8284 5.49994 21.5 4.82837 21.5 3.99994C21.5 3.17151 20.8284 2.49994 20 2.49994Z" fill="#000"/>
<path d="M20.4939 7.96974C20.4999 8.38418 20.5 8.85575 20.5 9.39994V15.5999C20.5 16.7283 20.4996 17.5445 20.4472 18.1864C20.3952 18.8225 20.2946 19.2433 20.1185 19.5889C19.783 20.2475 19.2475 20.7829 18.589 21.1185C18.2434 21.2945 17.8226 21.3951 17.1865 21.4471C16.5446 21.4995 15.7284 21.4999 14.6 21.4999H8.4C7.27164 21.4999 6.45545 21.4995 5.81352 21.4471C5.17744 21.3951 4.75662 21.2945 4.41103 21.1185C3.75247 20.7829 3.21704 20.2475 2.88148 19.5889C2.70539 19.2433 2.60481 18.8225 2.55284 18.1864C2.50039 17.5445 2.5 16.7283 2.5 15.5999L2.5 9.39994C2.5 8.27158 2.50039 7.45539 2.55284 6.81346C2.60481 6.17737 2.70539 5.75656 2.88148 5.41097C3.21703 4.7524 3.75247 4.21697 4.41103 3.88142C4.75662 3.70533 5.17744 3.60475 5.81352 3.55277C6.45545 3.50033 7.27165 3.49994 8.4 3.49994L14.6 3.49994C15.1442 3.49994 15.6158 3.50003 16.0302 3.50601C16.073 3.15838 16.1604 2.82456 16.2865 2.51045C15.8025 2.49994 15.2526 2.49994 14.6228 2.49994L8.37738 2.49994C7.27652 2.49994 6.41944 2.49993 5.73209 2.5561C5.03416 2.61312 4.4671 2.73052 3.95704 2.99041C3.11031 3.42184 2.4219 4.11025 1.99047 4.95698C1.73058 5.46704 1.61318 6.0341 1.55616 6.73203C1.5 7.4194 1.5 8.2763 1.5 9.37721L1.5 15.6226C1.5 16.7235 1.5 17.5805 1.55616 18.2678C1.61318 18.9658 1.73058 19.5328 1.99047 20.0429C2.4219 20.8896 3.11031 21.578 3.95704 22.0095C4.4671 22.2694 5.03416 22.3868 5.73209 22.4438C6.41943 22.4999 7.27628 22.4999 8.37712 22.4999H14.6226C15.7235 22.4999 16.5806 22.4999 17.2679 22.4438C17.9658 22.3868 18.5329 22.2694 19.043 22.0095C19.8897 21.578 20.5781 20.8896 21.0095 20.0429C21.2694 19.5328 21.3868 18.9658 21.4438 18.2678C21.5 17.5805 21.5 16.7236 21.5 15.6226V9.3773C21.5 8.7476 21.5 8.19738 21.4895 7.71342C21.1754 7.83953 20.8416 7.92693 20.4939 7.96974Z" fill="#000"/>
<path d="M11 16.4999C11 16.7761 11.2239 16.9999 11.5 16.9999C11.7761 16.9999 12 16.7761 12 16.4999V8.49994C12 8.2238 11.7761 7.99994 11.5 7.99994C11.2239 7.99994 11 8.22379 11 8.49994V16.4999Z" fill="#000"/>
<path d="M8 16.9999C7.72386 16.9999 7.5 16.7761 7.5 16.4999V13.4999C7.5 13.2238 7.72386 12.9999 8 12.9999C8.27614 12.9999 8.5 13.2238 8.5 13.4999V16.4999C8.5 16.7761 8.27614 16.9999 8 16.9999Z" fill="#000"/>
<path d="M14.5 16.4999C14.5 16.7761 14.7239 16.9999 15 16.9999C15.2761 16.9999 15.5 16.7761 15.5 16.4999L15.5 10.4999C15.5 10.2238 15.2761 9.99994 15 9.99994C14.7239 9.99994 14.5 10.2238 14.5 10.4999L14.5 16.4999Z" fill="#000"/>
</svg>
