<svg width="24" height="24" viewBox="0 0 24 24" fill="none" xmlns="http://www.w3.org/2000/svg">
<g opacity="0.4">
<path d="M20 6C21.1046 6 22 5.10457 22 4C22 2.89543 21.1046 2 20 2C18.8954 2 18 2.89543 18 4C18 5.10457 18.8954 6 20 6Z" fill="#000"/>
<path d="M16 4C16 6.20914 17.7909 8 20 8C20.3426 8 20.6752 7.95693 20.9925 7.8759C21 8.31925 21 8.82239 21 9.4V15.6C21 17.8402 21 18.9603 20.564 19.816C20.1805 20.5686 19.5686 21.1805 18.816 21.564C17.9603 22 16.8402 22 14.6 22H8.4C6.15979 22 5.03969 22 4.18404 21.564C3.43139 21.1805 2.81947 20.5686 2.43597 19.816C2 18.9603 2 17.8402 2 15.6V9.4C2 7.15979 2 6.03969 2.43597 5.18404C2.81947 4.43139 3.43139 3.81947 4.18404 3.43597C5.03969 3 6.15979 3 8.4 3H14.6C15.1776 3 15.6808 3 16.1241 3.00747C16.0431 3.32484 16 3.65739 16 4Z" fill="#000"/>
</g>
<path fill-rule="evenodd" clip-rule="evenodd" d="M17.5 4C17.5 2.61929 18.6193 1.5 20 1.5C21.3807 1.5 22.5 2.61929 22.5 4C22.5 5.38071 21.3807 6.5 20 6.5C18.6193 6.5 17.5 5.38071 17.5 4ZM20 2.5C19.1716 2.5 18.5 3.17157 18.5 4C18.5 4.82843 19.1716 5.5 20 5.5C20.8284 5.5 21.5 4.82843 21.5 4C21.5 3.17157 20.8284 2.5 20 2.5Z" fill="#000"/>
<path d="M20.4939 7.9698C20.4999 8.38424 20.5 8.85582 20.5 9.4V15.6C20.5 16.7284 20.4996 17.5446 20.4472 18.1865C20.3952 18.8226 20.2946 19.2434 20.1185 19.589C19.783 20.2475 19.2475 20.783 18.589 21.1185C18.2434 21.2946 17.8226 21.3952 17.1865 21.4472C16.5446 21.4996 15.7284 21.5 14.6 21.5H8.4C7.27164 21.5 6.45545 21.4996 5.81352 21.4472C5.17744 21.3952 4.75662 21.2946 4.41103 21.1185C3.75247 20.783 3.21704 20.2475 2.88148 19.589C2.70539 19.2434 2.60481 18.8226 2.55284 18.1865C2.50039 17.5446 2.5 16.7284 2.5 15.6L2.5 9.4C2.5 8.27164 2.50039 7.45545 2.55284 6.81352C2.60481 6.17743 2.70539 5.75662 2.88148 5.41103C3.21703 4.75247 3.75247 4.21703 4.41103 3.88148C4.75662 3.70539 5.17744 3.60481 5.81352 3.55283C6.45545 3.50039 7.27165 3.5 8.4 3.5L14.6 3.5C15.1442 3.5 15.6158 3.50009 16.0302 3.50607C16.073 3.15844 16.1604 2.82462 16.2865 2.51051C15.8025 2.5 15.2526 2.5 14.6228 2.5L8.37738 2.5C7.27652 2.5 6.41944 2.5 5.73209 2.55616C5.03416 2.61318 4.4671 2.73058 3.95704 2.99047C3.11031 3.4219 2.4219 4.11031 1.99047 4.95704C1.73058 5.4671 1.61318 6.03416 1.55616 6.73209C1.5 7.41946 1.5 8.27636 1.5 9.37727L1.5 15.6226C1.5 16.7235 1.5 17.5805 1.55616 18.2679C1.61318 18.9658 1.73058 19.5329 1.99047 20.043C2.4219 20.8897 3.11031 21.5781 3.95704 22.0095C4.4671 22.2694 5.03416 22.3868 5.73209 22.4438C6.41943 22.5 7.27628 22.5 8.37712 22.5H14.6226C15.7235 22.5 16.5806 22.5 17.2679 22.4438C17.9658 22.3868 18.5329 22.2694 19.043 22.0095C19.8897 21.5781 20.5781 20.8897 21.0095 20.043C21.2694 19.5329 21.3868 18.9658 21.4438 18.2679C21.5 17.5805 21.5 16.7236 21.5 15.6227V9.37736C21.5 8.74766 21.5 8.19745 21.4895 7.71348C21.1754 7.83959 20.8416 7.927 20.4939 7.9698Z" fill="#000"/>
<path d="M11 16.5C11 16.7761 11.2239 17 11.5 17C11.7761 17 12 16.7761 12 16.5V8.5C12 8.22386 11.7761 8 11.5 8C11.2239 8 11 8.22386 11 8.5V16.5Z" fill="#000"/>
<path d="M8 17C7.72386 17 7.5 16.7761 7.5 16.5V13.5C7.5 13.2239 7.72386 13 8 13C8.27614 13 8.5 13.2239 8.5 13.5V16.5C8.5 16.7761 8.27614 17 8 17Z" fill="#000"/>
<path d="M14.5 16.5C14.5 16.7761 14.7239 17 15 17C15.2761 17 15.5 16.7761 15.5 16.5L15.5 10.5C15.5 10.2239 15.2761 10 15 10C14.7239 10 14.5 10.2239 14.5 10.5L14.5 16.5Z" fill="#000"/>
</svg>
