<svg width="24" height="24" viewBox="0 0 24 24" fill="none" xmlns="http://www.w3.org/2000/svg">
<path opacity="0.4" d="M12 3.5C6.75329 3.5 2.5 7.75329 2.5 13C2.5 18.2467 6.75329 22.5 12 22.5C17.2467 22.5 21.5 18.2467 21.5 13C21.5 7.75329 17.2467 3.5 12 3.5Z" fill="#000"/>
<path d="M12.5 2C12.5 1.72386 12.2761 1.5 12 1.5C11.7239 1.5 11.5 1.72386 11.5 2V9.5C11.5 9.77614 11.7239 10 12 10C12.2761 10 12.5 9.77614 12.5 9.5V2Z" fill="#000"/>
<path d="M8.10241 5.44417C8.34771 5.31737 8.44377 5.01571 8.31696 4.7704C8.19015 4.5251 7.88849 4.42904 7.64319 4.55585C4.58928 6.13456 2.5 9.32287 2.5 13C2.5 18.2467 6.75329 22.5 12 22.5C17.2467 22.5 21.5 18.2467 21.5 13C21.5 9.32287 19.4107 6.13456 16.3568 4.55585C16.1115 4.42904 15.8098 4.5251 15.683 4.7704C15.5562 5.01571 15.6523 5.31737 15.8976 5.44417C18.6324 6.85792 20.5 9.71129 20.5 13C20.5 17.6944 16.6944 21.5 12 21.5C7.30558 21.5 3.5 17.6944 3.5 13C3.5 9.71129 5.3676 6.85792 8.10241 5.44417Z" fill="#000"/>
</svg>
