<svg width="24" height="24" viewBox="0 0 24 24" fill="none" xmlns="http://www.w3.org/2000/svg">
<path opacity="0.4" d="M3 2H21V10.4C21 12.3602 21 13.3403 20.6185 14.089C20.283 14.7475 19.7475 15.283 19.089 15.6185C18.3403 16 17.3602 16 15.4 16H8.6C6.63982 16 5.65972 16 4.91103 15.6185C4.25247 15.283 3.71703 14.7475 3.38148 14.089C3 13.3403 3 12.3602 3 10.4V2Z" fill="#000"/>
<path fill-rule="evenodd" clip-rule="evenodd" d="M1.5 1.5C1.22386 1.5 1 1.72386 1 2C1 2.27614 1.22386 2.5 1.5 2.5H2.5V10.4224C2.5 11.3835 2.49999 12.1355 2.54935 12.7395C2.59956 13.3541 2.70334 13.8594 2.93597 14.316C3.31947 15.0686 3.93139 15.6805 4.68404 16.064C5.14062 16.2967 5.64594 16.4004 6.26049 16.4507C6.8645 16.5 7.61644 16.5 8.57751 16.5H11.5V18.75L7.7 21.6C7.47908 21.7657 7.43431 22.0791 7.6 22.3C7.76568 22.5209 8.07908 22.5657 8.3 22.4L12 19.625L15.7 22.4C15.9209 22.5657 16.2343 22.5209 16.4 22.3C16.5657 22.0791 16.5209 21.7657 16.3 21.6L12.5 18.75V16.5H15.4225C16.3835 16.5 17.1355 16.5 17.7395 16.4507C18.3541 16.4004 18.8594 16.2967 19.316 16.064C20.0686 15.6805 20.6805 15.0686 21.064 14.316C21.2967 13.8594 21.4004 13.3541 21.4507 12.7395C21.5 12.1355 21.5 11.3835 21.5 10.4225V2.5H22.5C22.7761 2.5 23 2.27614 23 2C23 1.72386 22.7761 1.5 22.5 1.5H1.5ZM15.4 15.5H8.6C7.61166 15.5 6.90047 15.4996 6.34192 15.454C5.78921 15.4088 5.43014 15.3219 5.13803 15.173C4.57354 14.8854 4.1146 14.4265 3.82698 13.862C3.67814 13.5699 3.59118 13.2108 3.54602 12.6581C3.50039 12.0995 3.5 11.3883 3.5 10.4V2.5H20.5V10.4C20.5 11.3883 20.4996 12.0995 20.454 12.6581C20.4088 13.2108 20.3219 13.5699 20.173 13.862C19.8854 14.4265 19.4265 14.8854 18.862 15.173C18.5699 15.3219 18.2108 15.4088 17.6581 15.454C17.0995 15.4996 16.3883 15.5 15.4 15.5Z" fill="#000"/>
</svg>
