<svg width="24" height="24" viewBox="0 0 24 24" fill="none" xmlns="http://www.w3.org/2000/svg">
<path opacity="0.4" d="M23 12C23 18.0751 18.0751 23 12 23C5.92487 23 1 18.0751 1 12C1 5.92487 5.92487 1 12 1C18.0751 1 23 5.92487 23 12Z" fill="#000"/>
<path d="M11.125 16.5C11.125 16.0168 11.5168 15.625 12 15.625C12.4832 15.625 12.8751 16.0168 12.8751 16.5C12.8751 16.9832 12.4833 17.375 12.0001 17.375C11.5169 17.375 11.125 16.9832 11.125 16.5Z" fill="#000"/>
<path d="M10 9.5C10 8.39543 10.8954 7.5 12 7.5C13.1046 7.5 14 8.39543 14 9.5C14 10.058 13.7721 10.5619 13.4031 10.9253C13.3432 10.9843 13.2346 11.0545 13.0384 11.1684L12.9788 11.2029C12.812 11.2992 12.6059 11.4182 12.4119 11.5605C11.9576 11.8939 11.5 12.4071 11.5 13.25C11.5 13.5261 11.7239 13.75 12 13.75C12.2761 13.75 12.5 13.5261 12.5 13.25C12.5 12.8429 12.6937 12.5941 13.0035 12.3668C13.1505 12.2589 13.3079 12.1678 13.4798 12.0684L13.5404 12.0332C13.7154 11.9317 13.9389 11.8011 14.1046 11.6379C14.6567 11.0943 15 10.3368 15 9.5C15 7.84315 13.6569 6.5 12 6.5C10.3431 6.5 9 7.84315 9 9.5C9 9.84974 9.06006 10.1865 9.17083 10.5C9.26286 10.7603 9.54852 10.8968 9.80888 10.8048C10.0692 10.7127 10.2057 10.4271 10.1137 10.1667C10.0402 9.95883 10 9.73465 10 9.5Z" fill="#000"/>
<path fill-rule="evenodd" clip-rule="evenodd" d="M0.5 12C0.5 5.64873 5.64873 0.5 12 0.5C18.3513 0.5 23.5 5.64873 23.5 12C23.5 18.3513 18.3513 23.5 12 23.5C5.64873 23.5 0.5 18.3513 0.5 12ZM12 1.5C6.20101 1.5 1.5 6.20101 1.5 12C1.5 17.799 6.20101 22.5 12 22.5C17.799 22.5 22.5 17.799 22.5 12C22.5 6.20101 17.799 1.5 12 1.5Z" fill="#000"/>
</svg>
