<svg width="24" height="24" viewBox="0 0 24 24" fill="none" xmlns="http://www.w3.org/2000/svg">
<path opacity="0.4" d="M15.8072 2.42834L16.6328 3.1729C17.2141 3.69719 18.1051 3.67149 18.6552 3.11455C19.2406 2.52198 20.25 2.93649 20.25 3.76943V20.2406C20.25 21.0735 19.2406 21.488 18.6552 20.8954C18.1051 20.3384 17.2141 20.3127 16.6327 20.837L15.8175 21.5722C15.1338 22.1889 14.0791 22.1325 13.4649 21.4465L13.358 21.327C12.6335 20.5177 11.3665 20.5177 10.642 21.327L10.5351 21.4465C9.92093 22.1325 8.86624 22.1889 8.18248 21.5722L7.36726 20.837C6.78589 20.3127 5.89495 20.3384 5.34479 20.8954C4.75945 21.488 3.75 21.0735 3.75 20.2406V3.76943C3.75 2.93649 4.75942 2.52198 5.34478 3.11455C5.89495 3.67149 6.78586 3.69719 7.36722 3.1729L8.19282 2.42834C8.87365 1.81434 9.92192 1.86302 10.5429 2.53747L10.6511 2.65496C11.3774 3.44375 12.6226 3.44375 13.3489 2.65496L13.4571 2.53747C14.0781 1.86302 15.1263 1.81434 15.8072 2.42834Z" fill="#000"/>
<path d="M15 15.9971C15.2761 15.9971 15.5 15.7732 15.5 15.4971C15.5 15.2209 15.2761 14.9971 15 14.9971L9 14.9971C8.72386 14.9971 8.5 15.2209 8.5 15.4971C8.5 15.7732 8.72386 15.9971 9 15.9971L15 15.9971Z" fill="#000"/>
<path d="M16 12.4985C16.2761 12.4985 16.5 12.2746 16.5 11.9985C16.5 11.7223 16.2761 11.4985 16 11.4985L8 11.4985C7.72386 11.4985 7.5 11.7223 7.5 11.9985C7.5 12.2746 7.72386 12.4985 8 12.4985L16 12.4985Z" fill="#000"/>
<path d="M14 8.99989C14.2761 8.99989 14.5 8.77603 14.5 8.49989C14.5 8.22375 14.2761 7.99989 14 7.99989L10 7.99989C9.72386 7.99989 9.5 8.22375 9.5 8.49989C9.5 8.77603 9.72386 8.99989 10 8.99989L14 8.99989Z" fill="#000"/>
<path fill-rule="evenodd" clip-rule="evenodd" d="M10.9108 2.19891C10.1041 1.3228 8.74236 1.25957 7.85796 2.05716L7.03236 2.80171C6.64951 3.14699 6.0628 3.13006 5.70049 2.76329C4.80104 1.85277 3.25 2.48969 3.25 3.76955V20.2407C3.25 21.5206 4.80109 22.1575 5.70052 21.2469C6.06282 20.8801 6.64954 20.8632 7.0324 21.2084L7.84762 21.9436C8.73698 22.7457 10.1088 22.6724 10.9076 21.7801L11.0146 21.6606C11.5403 21.0734 12.4597 21.0734 12.9854 21.6606L13.0924 21.7801C13.8912 22.6724 15.263 22.7457 16.1524 21.9436L16.9676 21.2084C17.3505 20.8632 17.9372 20.8801 18.2995 21.2469C19.1989 22.1575 20.75 21.5206 20.75 20.2407V3.76955C20.75 2.48969 19.199 1.85277 18.2995 2.76329C17.9372 3.13006 17.3505 3.14699 16.9676 2.80171L16.142 2.05716C15.2576 1.25957 13.8959 1.3228 13.0892 2.19891L12.9811 2.3164C12.4528 2.8901 11.5472 2.8901 11.0189 2.3164L10.9108 2.19891ZM8.52768 2.79978C9.00494 2.36936 9.73978 2.40348 10.1751 2.87627L10.2833 2.99376C11.2076 3.99765 12.7924 3.99765 13.7167 2.99376L13.8249 2.87627C14.2602 2.40348 14.9951 2.36936 15.4723 2.79978L16.2979 3.54433C17.0778 4.24764 18.2729 4.21316 19.0109 3.46606C19.2822 3.19145 19.75 3.38354 19.75 3.76955V20.2407C19.75 20.6267 19.2822 20.8188 19.0109 20.5442C18.2729 19.797 17.0778 19.7625 16.2979 20.4658L15.4827 21.201C15.0045 21.6323 14.2669 21.5928 13.8375 21.1131L13.7305 20.9936C12.8073 19.9624 11.1927 19.9624 10.2695 20.9936L10.1625 21.1131C9.73306 21.5928 8.99551 21.6323 8.51734 21.201L7.70212 20.4658C6.92223 19.7625 5.72708 19.797 4.98907 20.5442C4.71781 20.8188 4.25 20.6267 4.25 20.2407V3.76955C4.25 3.38354 4.7178 3.19145 4.98907 3.46606C5.7271 4.21316 6.92221 4.24764 7.70208 3.54433L8.52768 2.79978Z" fill="#000"/>
</svg>
