<svg width="24" height="24" viewBox="0 0 24 24" fill="none" xmlns="http://www.w3.org/2000/svg">
<path opacity="0.4" d="M23 12C23 18.0751 18.0751 23 12 23C5.92487 23 1 18.0751 1 12C1 5.92487 5.92487 1 12 1C18.0751 1 23 5.92487 23 12Z" fill="#000"/>
<path fill-rule="evenodd" clip-rule="evenodd" d="M8.5 8.35294C8.5 7.88187 8.88188 7.5 9.35294 7.5H12.75C14.2688 7.5 15.5 8.73122 15.5 10.25C15.5 11.5398 14.612 12.6223 13.414 12.9193L15.407 15.7094C15.5675 15.9341 15.5154 16.2464 15.2907 16.4069C15.066 16.5674 14.7537 16.5154 14.5932 16.2907L12.2427 13H9.5V15.9998C9.5 16.276 9.27614 16.4998 9 16.4998C8.72386 16.4998 8.5 16.276 8.5 15.9998V8.35294ZM12.75 12C13.7165 12 14.5 11.2165 14.5 10.25C14.5 9.2835 13.7165 8.5 12.75 8.5H9.5V12H12.75Z" fill="#000"/>
<path fill-rule="evenodd" clip-rule="evenodd" d="M0.5 12C0.5 5.64873 5.64873 0.5 12 0.5C18.3513 0.5 23.5 5.64873 23.5 12C23.5 18.3513 18.3513 23.5 12 23.5C5.64873 23.5 0.5 18.3513 0.5 12ZM12 1.5C6.20101 1.5 1.5 6.20101 1.5 12C1.5 17.799 6.20101 22.5 12 22.5C17.799 22.5 22.5 17.799 22.5 12C22.5 6.20101 17.799 1.5 12 1.5Z" fill="#000"/>
</svg>
