<svg width="24" height="24" viewBox="0 0 24 24" fill="none" xmlns="http://www.w3.org/2000/svg">
<g opacity="0.4">
<path d="M14.3901 5.53662L13.9487 5.68377C13.3203 5.89322 12.6623 6 12 6C11.3377 6 10.6797 5.89322 10.0513 5.68377L9.60984 5.53662C8.57907 5.19303 7.72701 4.45404 7.2411 3.48222C6.90061 2.80124 7.3958 2 8.15716 2H15.8428C16.6042 2 17.0994 2.80124 16.7589 3.48222C16.273 4.45404 15.4209 5.19303 14.3901 5.53662Z" fill="#000"/>
<path d="M12 6H11.9655C11.0033 6 10.0559 6.23685 9.2069 6.68966C5.38643 8.72724 3 12.7046 3 17.0345V18C3 20.2091 4.79086 22 7 22H17C19.2091 22 21 20.2091 21 18V17.0345C21 12.7046 18.6136 8.72724 14.7931 6.68966C13.9441 6.23685 12.9967 6 12.0345 6H12Z" fill="#000"/>
</g>
<path d="M11.5 11.0308V10.5C11.5 10.2239 11.7239 10 12 10C12.2761 10 12.5 10.2239 12.5 10.5V11.0266C12.7363 11.0548 12.9586 11.1079 13.1844 11.1975C13.5499 11.3424 13.894 11.5714 14.3019 11.8802C14.522 12.0469 14.5653 12.3605 14.3986 12.5807C14.232 12.8008 13.9183 12.8441 13.6982 12.6774C13.306 12.3805 13.0502 12.22 12.8157 12.127C12.5929 12.0387 12.3604 12 12 12C11.471 12 11.0839 12.1248 10.8433 12.2991C10.6177 12.4624 10.5 12.6808 10.5 12.9654C10.5 13.3136 10.6606 13.5169 10.9443 13.6756C11.2595 13.8521 11.6791 13.9396 12.0822 14.0068C12.4791 14.0729 13.0595 14.1804 13.5443 14.4518C14.0606 14.7408 14.5 15.2382 14.5 16.0346C14.5 16.653 14.2177 17.1673 13.7433 17.5108C13.4009 17.7588 12.9734 17.9089 12.5 17.9692V18.5C12.5 18.7761 12.2761 19 12 19C11.7239 19 11.5 18.7761 11.5 18.5V17.9733C11.2637 17.9451 11.0414 17.892 10.8157 17.8025C10.4502 17.6575 10.106 17.4285 9.69819 17.1197C9.47804 16.953 9.43471 16.6394 9.60141 16.4193C9.76811 16.1991 10.0817 16.1558 10.3019 16.3225C10.694 16.6195 10.9499 16.7799 11.1844 16.873C11.4072 16.9613 11.6396 17 12 17C12.529 17 12.9162 16.8752 13.1568 16.7009C13.3823 16.5376 13.5 16.3192 13.5 16.0346C13.5 15.6864 13.3394 15.4831 13.0558 15.3244C12.7406 15.1479 12.321 15.0604 11.9178 14.9932C11.521 14.9271 10.9406 14.8196 10.4558 14.5482C9.93941 14.2592 9.50003 13.7618 9.50003 12.9654C9.50003 12.347 9.78233 11.8327 10.2567 11.4892C10.5991 11.2412 11.0267 11.0912 11.5 11.0308Z" fill="#000"/>
<path fill-rule="evenodd" clip-rule="evenodd" d="M14.5483 6.01096L14.5395 6.0139C14.7053 6.08496 14.8685 6.16319 15.0284 6.24848C19.0118 8.37296 21.5 12.52 21.5 17.0345V18C21.5 20.4853 19.4853 22.5 17 22.5H7C4.51472 22.5 2.5 20.4853 2.5 18V17.0345C2.5 12.52 4.9882 8.37296 8.9716 6.24848C9.13153 6.16318 9.29468 6.08495 9.46057 6.01389L9.45176 6.01096C8.29519 5.62543 7.33914 4.79625 6.79392 3.70583C6.2872 2.69239 7.02414 1.5 8.1572 1.5H15.8429C16.9759 1.5 17.7128 2.69239 17.2061 3.70583C16.6609 4.79625 15.7049 5.62543 14.5483 6.01096ZM8.1572 2.5C7.76753 2.5 7.51408 2.91008 7.68835 3.25861C8.11495 4.11182 8.86302 4.76062 9.76799 5.06228L10.2095 5.20943C10.7868 5.40188 11.3914 5.5 12 5.5C12.6086 5.5 13.2132 5.40188 13.7906 5.20943L14.2321 5.06227C15.137 4.76062 15.8851 4.11182 16.3117 3.25861C16.486 2.91008 16.2325 2.5 15.8429 2.5H8.1572ZM11.9655 6.5H12.0345C12.9146 6.5 13.7812 6.71665 14.5578 7.13083C18.2153 9.08152 20.5 12.8893 20.5 17.0345V18C20.5 19.933 18.933 21.5 17 21.5H7C5.067 21.5 3.5 19.933 3.5 18V17.0345C3.5 12.8893 5.78465 9.08152 9.44219 7.13083C10.2188 6.71665 11.0854 6.5 11.9655 6.5Z" fill="#000"/>
</svg>
