<svg width="24" height="24" viewBox="0 0 24 24" fill="none" xmlns="http://www.w3.org/2000/svg">
<path opacity="0.4" d="M3.6941 7.41286L18.6296 2.14796C20.6302 1.44272 22.5533 3.3796 21.8531 5.39457L16.6755 20.2938C15.8954 22.5387 12.7574 22.5783 11.9216 20.3537L10 15.5C9.74772 14.8285 9.22585 14.2953 8.56277 14.0317L3.60096 12.1877C1.42099 11.321 1.48201 8.19265 3.6941 7.41286Z" fill="#000"/>
<path fill-rule="evenodd" clip-rule="evenodd" d="M22.3254 5.55869C23.1602 3.15643 20.8675 0.82892 18.4634 1.67639L3.5279 6.9413C0.879591 7.87485 0.807313 11.6153 3.41622 12.6525L8.38303 14.4983C8.91206 14.7103 9.32949 15.1371 9.53189 15.6759L11.4552 20.5338C12.458 23.1923 16.2147 23.143 17.1478 20.4579L22.3254 5.55869ZM18.7959 2.61951C20.393 2.05651 21.9465 3.60276 21.3808 5.23043L16.2032 20.1296C15.5766 21.9329 13.0609 21.9641 12.3898 20.1779L10.4665 15.3199C10.3713 15.0677 10.2443 14.8318 10.0901 14.617L13.8536 10.8536C14.0488 10.6583 14.0488 10.3417 13.8536 10.1464C13.6583 9.95118 13.3417 9.95118 13.1465 10.1464L9.38134 13.9116C9.18624 13.773 8.97381 13.6569 8.74756 13.567L3.78072 11.7211C2.03476 11.0222 2.08617 8.50983 3.86035 7.88442L18.7959 2.61951Z" fill="#000"/>
</svg>
