<svg width="24" height="24" viewBox="0 0 24 24" fill="none" xmlns="http://www.w3.org/2000/svg">
<g opacity="0.4">
<path d="M2.27248 3.36502C2 3.8998 2 4.59987 2 6V6.5C2 7.90013 2 8.6002 2.27248 9.13498C2.51217 9.60538 2.89462 9.98783 3.36502 10.2275C3.8998 10.5 4.59987 10.5 6 10.5H18C19.4001 10.5 20.1002 10.5 20.635 10.2275C21.1054 9.98783 21.4878 9.60538 21.7275 9.13498C22 8.6002 22 7.90013 22 6.5V6C22 4.59987 22 3.8998 21.7275 3.36502C21.4878 2.89462 21.1054 2.51217 20.635 2.27248C20.1002 2 19.4001 2 18 2H6C4.59987 2 3.8998 2 3.36502 2.27248C2.89462 2.51217 2.51217 2.89462 2.27248 3.36502Z" fill="#000"/>
<path d="M2.27248 14.865C2 15.3998 2 16.0999 2 17.5V18C2 19.4001 2 20.1002 2.27248 20.635C2.51217 21.1054 2.89462 21.4878 3.36502 21.7275C3.8998 22 4.59987 22 6 22H18C19.4001 22 20.1002 22 20.635 21.7275C21.1054 21.4878 21.4878 21.1054 21.7275 20.635C22 20.1002 22 19.4001 22 18V17.5C22 16.0999 22 15.3998 21.7275 14.865C21.4878 14.3946 21.1054 14.0122 20.635 13.7725C20.1002 13.5 19.4001 13.5 18 13.5H6C4.59987 13.5 3.8998 13.5 3.36502 13.7725C2.89462 14.0122 2.51217 14.3946 2.27248 14.865Z" fill="#000"/>
</g>
<path d="M13.75 6.25C13.75 5.83579 14.0858 5.5 14.5 5.5C14.9142 5.5 15.2501 5.83579 15.2501 6.25C15.2501 6.66421 14.9143 7 14.5001 7C14.0859 7 13.75 6.66421 13.75 6.25Z" fill="#000"/>
<path d="M17.5 5.5C17.0858 5.5 16.75 5.83579 16.75 6.25C16.75 6.66421 17.0858 7 17.5 7C17.9142 7 18.2501 6.66421 18.2501 6.25C18.2501 5.83579 17.9142 5.5 17.5 5.5Z" fill="#000"/>
<path fill-rule="evenodd" clip-rule="evenodd" d="M18.0219 1.5H5.97812C5.2966 1.5 4.75458 1.49999 4.31729 1.53572C3.86949 1.57231 3.48765 1.64884 3.13803 1.82698C2.57354 2.1146 2.1146 2.57354 1.82698 3.13803C1.64884 3.48765 1.57231 3.86949 1.53572 4.31729C1.49999 4.75458 1.5 5.2966 1.5 5.97812V6.52188C1.5 7.2034 1.49999 7.74542 1.53572 8.18271C1.57231 8.63051 1.64884 9.01235 1.82698 9.36197C2.1146 9.92646 2.57354 10.3854 3.13803 10.673C3.48765 10.8512 3.86949 10.9277 4.31729 10.9643C4.75457 11 5.29657 11 5.97806 11H18.0219C18.7034 11 19.2454 11 19.6827 10.9643C20.1305 10.9277 20.5123 10.8512 20.862 10.673C21.4265 10.3854 21.8854 9.92646 22.173 9.36197C22.3512 9.01235 22.4277 8.63051 22.4643 8.18271C22.5 7.74547 22.5 7.20353 22.5 6.52211V5.97811C22.5 5.29669 22.5 4.75453 22.4643 4.31729C22.4277 3.86949 22.3512 3.48765 22.173 3.13803C21.8854 2.57354 21.4265 2.1146 20.862 1.82698C20.5123 1.64884 20.1305 1.57231 19.6827 1.53572C19.2454 1.49999 18.7034 1.5 18.0219 1.5ZM3.59202 2.71799C3.77717 2.62365 4.01276 2.56393 4.39872 2.5324C4.79052 2.50039 5.29168 2.5 6 2.5H18C18.7083 2.5 19.2095 2.50039 19.6013 2.5324C19.9872 2.56393 20.2228 2.62365 20.408 2.71799C20.7843 2.90973 21.0903 3.21569 21.282 3.59202C21.3764 3.77717 21.4361 4.01276 21.4676 4.39872C21.4996 4.79052 21.5 5.29168 21.5 6V6.5C21.5 7.20832 21.4996 7.70948 21.4676 8.10128C21.4361 8.48724 21.3764 8.72283 21.282 8.90798C21.0903 9.28431 20.7843 9.59027 20.408 9.78201C20.2228 9.87635 19.9872 9.93607 19.6013 9.9676C19.2095 9.99961 18.7083 10 18 10H6C5.29168 10 4.79052 9.99961 4.39872 9.9676C4.01276 9.93607 3.77717 9.87635 3.59202 9.78201C3.21569 9.59027 2.90973 9.28431 2.71799 8.90798C2.62365 8.72283 2.56393 8.48724 2.5324 8.10128C2.50039 7.70948 2.5 7.20832 2.5 6.5V6C2.5 5.29168 2.50039 4.79052 2.5324 4.39872C2.56393 4.01276 2.62365 3.77717 2.71799 3.59202C2.90973 3.21569 3.21569 2.90973 3.59202 2.71799Z" fill="#000"/>
<path d="M13.75 17.75C13.75 17.3358 14.0858 17 14.5 17C14.9142 17 15.2501 17.3358 15.2501 17.75C15.2501 18.1642 14.9143 18.5 14.5001 18.5C14.0859 18.5 13.75 18.1642 13.75 17.75Z" fill="#000"/>
<path d="M17.5 17C17.0858 17 16.75 17.3358 16.75 17.75C16.75 18.1642 17.0858 18.5 17.5 18.5C17.9142 18.5 18.2501 18.1642 18.2501 17.75C18.2501 17.3358 17.9142 17 17.5 17Z" fill="#000"/>
<path fill-rule="evenodd" clip-rule="evenodd" d="M18.0219 13H5.97812C5.29662 13 4.75457 13 4.31729 13.0357C3.86949 13.0723 3.48765 13.1488 3.13803 13.327C2.57354 13.6146 2.1146 14.0735 1.82698 14.638C1.64884 14.9877 1.57231 15.3695 1.53572 15.8173C1.49999 16.2546 1.5 16.7966 1.5 17.4781V18.0219C1.5 18.7034 1.49999 19.2454 1.53572 19.6827C1.57231 20.1305 1.64884 20.5123 1.82698 20.862C2.1146 21.4265 2.57354 21.8854 3.13803 22.173C3.48765 22.3512 3.86949 22.4277 4.31729 22.4643C4.75453 22.5 5.29647 22.5 5.97789 22.5H18.0219C18.7033 22.5 19.2455 22.5 19.6827 22.4643C20.1305 22.4277 20.5123 22.3512 20.862 22.173C21.4265 21.8854 21.8854 21.4265 22.173 20.862C22.3512 20.5123 22.4277 20.1305 22.4643 19.6827C22.5 19.2455 22.5 18.7035 22.5 18.0221V17.4781C22.5 16.7967 22.5 16.2545 22.4643 15.8173C22.4277 15.3695 22.3512 14.9877 22.173 14.638C21.8854 14.0735 21.4265 13.6146 20.862 13.327C20.5123 13.1488 20.1305 13.0723 19.6827 13.0357C19.2454 13 18.7034 13 18.0219 13ZM3.59202 14.218C3.77717 14.1236 4.01276 14.0639 4.39872 14.0324C4.79052 14.0004 5.29168 14 6 14H18C18.7083 14 19.2095 14.0004 19.6013 14.0324C19.9872 14.0639 20.2228 14.1236 20.408 14.218C20.7843 14.4097 21.0903 14.7157 21.282 15.092C21.3764 15.2772 21.4361 15.5128 21.4676 15.8987C21.4996 16.2905 21.5 16.7917 21.5 17.5V18C21.5 18.7083 21.4996 19.2095 21.4676 19.6013C21.4361 19.9872 21.3764 20.2228 21.282 20.408C21.0903 20.7843 20.7843 21.0903 20.408 21.282C20.2228 21.3764 19.9872 21.4361 19.6013 21.4676C19.2095 21.4996 18.7083 21.5 18 21.5H6C5.29168 21.5 4.79052 21.4996 4.39872 21.4676C4.01276 21.4361 3.77717 21.3764 3.59202 21.282C3.21569 21.0903 2.90973 20.7843 2.71799 20.408C2.62365 20.2228 2.56393 19.9872 2.5324 19.6013C2.50039 19.2095 2.5 18.7083 2.5 18V17.5C2.5 16.7917 2.50039 16.2905 2.5324 15.8987C2.56393 15.5128 2.62365 15.2772 2.71799 15.092C2.90973 14.7157 3.21569 14.4097 3.59202 14.218Z" fill="#000"/>
</svg>
