<svg width="24" height="24" viewBox="0 0 24 24" fill="none" xmlns="http://www.w3.org/2000/svg">
<g opacity="0.4">
<path d="M22.0005 5C22.0005 6.65685 20.6573 8 19.0005 8C17.3436 8 16.0005 6.65685 16.0005 5C16.0005 3.34315 17.3436 2 19.0005 2C20.6573 2 22.0005 3.34315 22.0005 5Z" fill="#000"/>
<path d="M8.00049 12C8.00049 13.6569 6.65734 15 5.00049 15C3.34363 15 2.00049 13.6569 2.00049 12C2.00049 10.3431 3.34363 9 5.00049 9C6.65734 9 8.00049 10.3431 8.00049 12Z" fill="#000"/>
<path d="M19.0005 22C20.6573 22 22.0005 20.6569 22.0005 19C22.0005 17.3431 20.6573 16 19.0005 16C17.3436 16 16.0005 17.3431 16.0005 19C16.0005 20.6569 17.3436 22 19.0005 22Z" fill="#000"/>
</g>
<path fill-rule="evenodd" clip-rule="evenodd" d="M15.5 5C15.5 3.067 17.067 1.5 19 1.5C20.933 1.5 22.5 3.067 22.5 5C22.5 6.933 20.933 8.5 19 8.5C17.6486 8.5 16.476 7.73406 15.8928 6.61261L8.22359 10.4472C8.20011 10.459 8.17614 10.4687 8.15189 10.4764C8.37494 10.937 8.5 11.4539 8.5 12C8.5 12.5461 8.37494 13.063 8.15189 13.5236C8.17614 13.5313 8.20011 13.541 8.22359 13.5528L15.8928 17.3874C16.476 16.2659 17.6486 15.5 19 15.5C20.933 15.5 22.5 17.067 22.5 19C22.5 20.933 20.933 22.5 19 22.5C17.067 22.5 15.5 20.933 15.5 19C15.5 18.7744 15.5213 18.5538 15.5621 18.3401L7.77638 14.4472C7.71376 14.4159 7.66057 14.3732 7.61808 14.3229C6.97694 15.045 6.0416 15.5 5 15.5C3.067 15.5 1.5 13.933 1.5 12C1.5 10.067 3.067 8.5 5 8.5C6.0416 8.5 6.97694 8.955 7.61808 9.67709C7.66057 9.62679 7.71376 9.58411 7.77638 9.5528L15.5621 5.65993C15.5213 5.44621 15.5 5.2256 15.5 5ZM19 2.5C17.6193 2.5 16.5 3.61929 16.5 5C16.5 6.38071 17.6193 7.5 19 7.5C20.3807 7.5 21.5 6.38071 21.5 5C21.5 3.61929 20.3807 2.5 19 2.5ZM5 9.5C3.61929 9.5 2.5 10.6193 2.5 12C2.5 13.3807 3.61929 14.5 5 14.5C6.38071 14.5 7.5 13.3807 7.5 12C7.5 10.6193 6.38071 9.5 5 9.5ZM16.5 19C16.5 17.6193 17.6193 16.5 19 16.5C20.3807 16.5 21.5 17.6193 21.5 19C21.5 20.3807 20.3807 21.5 19 21.5C17.6193 21.5 16.5 20.3807 16.5 19Z" fill="#000"/>
</svg>
