<svg width="24" height="24" viewBox="0 0 24 24" fill="none" xmlns="http://www.w3.org/2000/svg">
<g opacity="0.4">
<path d="M4.75188 4.75181L3.32201 5.47633C2.81778 5.73183 2.5 6.2491 2.5 6.81437V8.83917C2.5 9.2884 2.59486 10.2302 2.71116 11.2159C2.96212 13.3432 3.78443 15.3583 5.03142 17.0999C6.48848 19.1349 8.40293 20.7994 10.6207 21.9594L11.3694 22.351C11.7634 22.5571 12.2333 22.5571 12.6272 22.351L13.3776 21.9583C15.2011 21.0042 16.8197 19.7092 18.1478 18.1477L4.75188 4.75181Z" fill="#000"/>
<path d="M19.2253 16.7253C20.3289 15.0702 21.0563 13.1885 21.2896 11.2098C21.4055 10.2263 21.5 9.28747 21.5 8.83917V6.81451C21.5 6.24917 21.1821 5.73184 20.6778 5.47638L13.5801 1.88124C12.5858 1.37756 11.4109 1.37765 10.4166 1.88146L6.41113 3.91107L19.2253 16.7253Z" fill="#000"/>
</g>
<path fill-rule="evenodd" clip-rule="evenodd" d="M3.91059 4.61758L1.64645 2.35343C1.45118 2.15817 1.45118 1.84159 1.64645 1.64632C1.84171 1.45106 2.15829 1.45106 2.35355 1.64632L22.3536 21.6463C22.5488 21.8416 22.5488 22.1582 22.3536 22.3534C22.1583 22.5487 21.8417 22.5487 21.6464 22.3534L18.1712 18.8782C16.8724 20.3075 15.3293 21.5014 13.6094 22.4014L12.859 22.794C12.3199 23.0761 11.6768 23.0761 11.1377 22.7941L10.3889 22.4025C8.10183 21.2062 6.12751 19.4896 4.62489 17.391C3.3325 15.586 2.47619 13.4918 2.2146 11.2745C2.09935 10.2976 2 9.3239 2 8.83917V6.81437C2 6.06068 2.42371 5.37098 3.09602 5.03032L3.91059 4.61758ZM17.4632 18.1702C16.2365 19.5286 14.7757 20.6625 13.1458 21.5153L12.3954 21.9079C12.1467 22.0381 11.8499 22.0381 11.6011 21.908L10.8524 21.5164C8.70403 20.3926 6.84945 18.7802 5.43796 16.8089C4.23636 15.1307 3.44805 13.1945 3.20771 11.1573C3.09037 10.1627 3 9.2529 3 8.83917V6.81437C3 6.43752 3.21185 6.09268 3.54801 5.92235L4.65463 5.36162L17.4632 18.1702Z" fill="#000"/>
<path d="M20.793 11.1512C20.5735 13.0132 19.8964 14.7908 18.8645 16.3644L19.5856 17.0856C20.7609 15.3498 21.539 13.364 21.7861 11.2683C21.9011 10.2936 22 9.32294 22 8.83917V6.81451C22 6.06072 21.5762 5.37095 20.9037 5.03034L13.8061 1.43519C12.6696 0.859565 11.327 0.859661 10.1906 1.43545L6.03911 3.53905L6.78315 4.28309L10.6426 2.32747C11.4949 1.89563 12.5019 1.89556 13.3542 2.32728L20.4519 5.92243C20.7881 6.09273 21 6.43762 21 6.81451V8.83917C21 9.252 20.91 10.1589 20.793 11.1512Z" fill="#000"/>
</svg>
