<svg width="24" height="24" viewBox="0 0 24 24" fill="none" xmlns="http://www.w3.org/2000/svg">
<g opacity="0.4">
<path d="M4.75188 4.75194L3.32201 5.47646C2.81778 5.73195 2.5 6.24922 2.5 6.81449V8.83929C2.5 9.28852 2.59486 10.2303 2.71116 11.216C2.96212 13.3433 3.78443 15.3585 5.03142 17.1001C6.48848 19.135 8.40293 20.7995 10.6207 21.9595L11.3694 22.3512C11.7634 22.5572 12.2333 22.5572 12.6272 22.3511L13.3776 21.9585C15.2011 21.0043 16.8197 19.7093 18.1478 18.1478L4.75188 4.75194Z" fill="#000"/>
<path d="M19.2253 16.7254C20.3289 15.0704 21.0563 13.1886 21.2896 11.2099C21.4055 10.2264 21.5 9.28759 21.5 8.83929V6.81464C21.5 6.24929 21.1821 5.73197 20.6778 5.47651L13.5801 1.88136C12.5858 1.37768 11.4109 1.37777 10.4166 1.88158L6.41113 3.91119L19.2253 16.7254Z" fill="#000"/>
</g>
<path fill-rule="evenodd" clip-rule="evenodd" d="M3.91059 4.6177L1.64645 2.35355C1.45118 2.15829 1.45118 1.84171 1.64645 1.64645C1.84171 1.45118 2.15829 1.45118 2.35355 1.64645L22.3536 21.6464C22.5488 21.8417 22.5488 22.1583 22.3536 22.3536C22.1583 22.5488 21.8417 22.5488 21.6464 22.3536L18.1712 18.8783C16.8724 20.3076 15.3293 21.5016 13.6094 22.4015L12.859 22.7941C12.3199 23.0762 11.6768 23.0762 11.1377 22.7942L10.3889 22.4026C8.10183 21.2063 6.12751 19.4898 4.62489 17.3912C3.3325 15.5862 2.47619 13.4919 2.2146 11.2746C2.09935 10.2977 2 9.32402 2 8.83929V6.81449C2 6.0608 2.42371 5.37111 3.09602 5.03044L3.91059 4.6177ZM17.4632 18.1703C16.2365 19.5287 14.7757 20.6626 13.1458 21.5154L12.3954 21.9081C12.1467 22.0382 11.8499 22.0382 11.6011 21.9081L10.8524 21.5165C8.70403 20.3927 6.84945 18.7803 5.43796 16.809C4.23636 15.1308 3.44805 13.1946 3.20771 11.1575C3.09037 10.1629 3 9.25303 3 8.83929V6.81449C3 6.43764 3.21185 6.0928 3.54801 5.92247L4.65463 5.36174L17.4632 18.1703Z" fill="#000"/>
<path d="M20.793 11.1514C20.5735 13.0134 19.8964 14.791 18.8645 16.3646L19.5856 17.0857C20.7609 15.3499 21.539 13.3641 21.7861 11.2685C21.9011 10.2937 22 9.32306 22 8.83929V6.81464C22 6.06084 21.5762 5.37108 20.9037 5.03046L13.8061 1.43532C12.6696 0.859687 11.327 0.859783 10.1906 1.43557L6.03911 3.53917L6.78315 4.28321L10.6426 2.32759C11.4949 1.89575 12.5019 1.89568 13.3542 2.3274L20.4519 5.92255C20.7881 6.09286 21 6.43774 21 6.81464V8.83929C21 9.25212 20.91 10.159 20.793 11.1514Z" fill="#000"/>
</svg>
