<svg width="24" height="24" viewBox="0 0 24 24" fill="none" xmlns="http://www.w3.org/2000/svg">
<path opacity="0.4" d="M10.4166 1.88158L3.32201 5.47646C2.81778 5.73195 2.5 6.24922 2.5 6.81449V8.83929C2.5 9.28852 2.59486 10.2303 2.71116 11.216C2.96212 13.3433 3.78443 15.3585 5.03142 17.1001C6.48848 19.135 8.40293 20.7995 10.6207 21.9595L11.3694 22.3512C11.7634 22.5572 12.2333 22.5572 12.6272 22.3511L13.3776 21.9585C15.5934 20.7991 17.5065 19.1365 18.9635 17.104C20.2138 15.3599 21.0383 13.3411 21.2896 11.2099C21.4055 10.2264 21.5 9.28759 21.5 8.83929V6.81464C21.5 6.24929 21.1821 5.73197 20.6778 5.47651L13.5801 1.88136C12.5858 1.37768 11.4109 1.37777 10.4166 1.88158Z" fill="#000"/>
<path fill-rule="evenodd" clip-rule="evenodd" d="M10.1906 1.43557C11.327 0.859783 12.6696 0.859687 13.8061 1.43532L20.9037 5.03046C21.5762 5.37108 22 6.06084 22 6.81464V8.83929C22 9.32306 21.9011 10.2937 21.7861 11.2685C21.5242 13.4899 20.6656 15.5878 19.3699 17.3953C17.8673 19.4913 15.8944 21.2059 13.6094 22.4015L12.859 22.7941C12.3199 23.0762 11.6768 23.0762 11.1377 22.7942L10.3889 22.4026C8.10183 21.2063 6.12751 19.4898 4.62489 17.3912C3.3325 15.5862 2.47619 13.4919 2.2146 11.2746C2.09935 10.2977 2 9.32402 2 8.83929V6.81449C2 6.0608 2.42371 5.37111 3.09602 5.03044L10.1906 1.43557ZM13.3542 2.3274C12.5019 1.89568 11.4949 1.89575 10.6426 2.32759L3.54801 5.92247C3.21185 6.0928 3 6.43764 3 6.81449V8.83929C3 9.25303 3.09037 10.1629 3.20771 11.1575C3.44805 13.1946 4.23636 15.1308 5.43796 16.809C6.84945 18.7803 8.70403 20.3927 10.8524 21.5165L11.6011 21.9081C11.8499 22.0382 12.1467 22.0382 12.3954 21.9081L13.1458 21.5154C15.2923 20.3923 17.1457 18.7817 18.5571 16.8127C19.7619 15.132 20.5524 13.1924 20.793 11.1514C20.91 10.159 21 9.25212 21 8.83929V6.81464C21 6.43774 20.7881 6.09286 20.4519 5.92255L13.3542 2.3274Z" fill="#000"/>
</svg>
