<svg width="24" height="24" viewBox="0 0 24 24" fill="none" xmlns="http://www.w3.org/2000/svg">
<path opacity="0.4" d="M12 13.5C12.8284 13.5 13.5 12.8284 13.5 12C13.5 11.1716 12.8284 10.5 12 10.5C11.1716 10.5 10.5 11.1716 10.5 12C10.5 12.8284 11.1716 13.5 12 13.5Z" fill="#000"/>
<path d="M21.5 11.9991C21.5 9.44086 20.4244 7.10612 18.6507 5.3559C18.4541 5.16194 18.452 4.84537 18.646 4.64881C18.8399 4.45225 19.1565 4.45014 19.3531 4.6441C21.3002 6.5655 22.5 9.15042 22.5 11.9991C22.5 14.8487 21.2994 17.4344 19.3511 19.356C19.1545 19.5499 18.8379 19.5477 18.644 19.3511C18.4501 19.1545 18.4523 18.8379 18.6489 18.644C20.4236 16.8936 21.5 14.5582 21.5 11.9991Z" fill="#000"/>
<path fill-rule="evenodd" clip-rule="evenodd" d="M12 10C10.8954 10 10 10.8954 10 12C10 13.1046 10.8954 14 12 14C13.1046 14 14 13.1046 14 12C14 10.8954 13.1046 10 12 10ZM11 12C11 11.4477 11.4477 11 12 11C12.5523 11 13 11.4477 13 12C13 12.5523 12.5523 13 12 13C11.4477 13 11 12.5523 11 12Z" fill="#000"/>
<path d="M15.6468 8.85873C16.484 9.6716 16.9951 10.7805 16.9951 12C16.9951 13.2195 16.484 14.3284 15.6468 15.1413C15.4487 15.3336 15.444 15.6502 15.6364 15.8483C15.8287 16.0464 16.1453 16.0511 16.3434 15.8587C17.3615 14.8702 17.9951 13.5075 17.9951 12C17.9951 10.4925 17.3615 9.12975 16.3434 8.14127C16.1453 7.94891 15.8287 7.95358 15.6364 8.1517C15.444 8.34982 15.4487 8.66637 15.6468 8.85873Z" fill="#000"/>
<path d="M2.5 11.9991C2.5 9.44086 3.57563 7.10612 5.34931 5.3559C5.54587 5.16194 5.54798 4.84537 5.35402 4.64881C5.16007 4.45225 4.84349 4.45014 4.64693 4.6441C2.69977 6.5655 1.5 9.15042 1.5 11.9991C1.5 14.8487 2.70058 17.4344 4.6489 19.356C4.8455 19.5499 5.16208 19.5477 5.35599 19.3511C5.5499 19.1545 5.54771 18.8379 5.3511 18.644C3.57635 16.8936 2.5 14.5582 2.5 11.9991Z" fill="#000"/>
<path d="M8.35318 8.85873C7.51596 9.6716 7.00488 10.7805 7.00488 12C7.00488 13.2195 7.51596 14.3284 8.35318 15.1413C8.5513 15.3336 8.55597 15.6502 8.36361 15.8483C8.17125 16.0464 7.85471 16.0511 7.65658 15.8587C6.63849 14.8702 6.00488 13.5075 6.00488 12C6.00488 10.4925 6.63849 9.12975 7.65658 8.14127C7.85471 7.94891 8.17125 7.95358 8.36361 8.1517C8.55597 8.34982 8.5513 8.66637 8.35318 8.85873Z" fill="#000"/>
</svg>
