<svg width="24" height="24" viewBox="0 0 24 24" fill="none" xmlns="http://www.w3.org/2000/svg">
<g opacity="0.4">
<path d="M5 9.50046C6.65685 9.50046 8 8.15731 8 6.50046C8 4.8436 6.65685 3.50046 5 3.50046C3.34315 3.50046 2 4.8436 2 6.50046C2 8.15731 3.34315 9.50046 5 9.50046Z" fill="#000"/>
<path d="M19 20.5005C20.6569 20.5005 22 19.1573 22 17.5005C22 15.8436 20.6569 14.5005 19 14.5005C17.3431 14.5005 16 15.8436 16 17.5005C16 19.1573 17.3431 20.5005 19 20.5005Z" fill="#000"/>
</g>
<path fill-rule="evenodd" clip-rule="evenodd" d="M1.5 6.5C1.5 4.567 3.067 3 5 3C6.933 3 8.5 4.567 8.5 6.5C8.5 8.433 6.933 10 5 10C3.067 10 1.5 8.433 1.5 6.5ZM5 4C3.61929 4 2.5 5.11929 2.5 6.5C2.5 7.88071 3.61929 9 5 9C6.38071 9 7.5 7.88071 7.5 6.5C7.5 5.11929 6.38071 4 5 4Z" fill="#000"/>
<path d="M13 7C12.7239 7 12.5 6.77614 12.5 6.5C12.5 6.22386 12.7239 6 13 6H22C22.2761 6 22.5 6.22386 22.5 6.5C22.5 6.77614 22.2761 7 22 7H13Z" fill="#000"/>
<path d="M11 18C11.2761 18 11.5 17.7761 11.5 17.5C11.5 17.2239 11.2761 17 11 17H2C1.72386 17 1.5 17.2239 1.5 17.5C1.5 17.7761 1.72386 18 2 18H11Z" fill="#000"/>
<path fill-rule="evenodd" clip-rule="evenodd" d="M19 14C17.067 14 15.5 15.567 15.5 17.5C15.5 19.433 17.067 21 19 21C20.933 21 22.5 19.433 22.5 17.5C22.5 15.567 20.933 14 19 14ZM16.5 17.5C16.5 16.1193 17.6193 15 19 15C20.3807 15 21.5 16.1193 21.5 17.5C21.5 18.8807 20.3807 20 19 20C17.6193 20 16.5 18.8807 16.5 17.5Z" fill="#000"/>
</svg>
