<svg width="24" height="24" viewBox="0 0 24 24" fill="none" xmlns="http://www.w3.org/2000/svg">
<g opacity="0.4">
<path d="M19.5 4C19.5 4.27614 19.2761 4.5 19 4.5H2C1.72386 4.5 1.5 4.27614 1.5 4C1.5 3.72386 1.72386 3.5 2 3.5H19C19.2761 3.5 19.5 3.72386 19.5 4Z" fill="#000"/>
<path d="M12.5 11C12.5 11.2761 12.2761 11.5 12 11.5H2C1.72386 11.5 1.5 11.2761 1.5 11C1.5 10.7239 1.72386 10.5 2 10.5H12C12.2761 10.5 12.5 10.7239 12.5 11Z" fill="#000"/>
<path d="M5 18.5C5.27614 18.5 5.5 18.2761 5.5 18C5.5 17.7239 5.27614 17.5 5 17.5H2C1.72386 17.5 1.5 17.7239 1.5 18C1.5 18.2761 1.72386 18.5 2 18.5H5Z" fill="#000"/>
</g>
<path d="M13.6464 13.6464C13.4512 13.8417 13.4512 14.1583 13.6464 14.3536C13.8417 14.5488 14.1583 14.5488 14.3536 14.3536L17.5 11.2071L17.5 20C17.5 20.2761 17.7239 20.5 18 20.5C18.2761 20.5 18.5 20.2761 18.5 20L18.5 11.2071L21.6464 14.3536C21.8417 14.5488 22.1583 14.5488 22.3536 14.3536C22.5488 14.1583 22.5488 13.8417 22.3536 13.6464L18.3536 9.64645C18.2598 9.55268 18.1326 9.5 18 9.5C17.8674 9.5 17.7402 9.55268 17.6464 9.64645L13.6464 13.6464Z" fill="#000"/>
</svg>
