<svg width="24" height="24" viewBox="0 0 24 24" fill="none" xmlns="http://www.w3.org/2000/svg">
<g clip-path="url(#clip0_9002_7342)">
<path opacity="0.4" fill-rule="evenodd" clip-rule="evenodd" d="M12 23C18.0751 23 23 18.0751 23 12C23 5.92487 18.0751 1 12 1C5.92487 1 1 5.92487 1 12C1 18.0751 5.92487 23 12 23ZM13.6283 9.56358L12.563 7.35358C12.3357 6.88214 11.6643 6.88214 11.437 7.35358L10.3717 9.56358C10.2984 9.71561 10.1534 9.82041 9.98605 9.84224L7.54482 10.1608C7.02173 10.2291 6.81329 10.8747 7.19771 11.2359L8.97598 12.907C9.1002 13.0237 9.15639 13.1957 9.12505 13.3632L8.67735 15.7566C8.58083 16.2726 9.12499 16.6705 9.58743 16.422L11.7634 15.2529C11.9111 15.1736 12.0889 15.1736 12.2366 15.2529L14.4126 16.422C14.875 16.6705 15.4192 16.2726 15.3226 15.7566L14.875 13.3632C14.8436 13.1957 14.8998 13.0237 15.024 12.907L16.8023 11.2359C17.1867 10.8747 16.9783 10.2291 16.4552 10.1608L14.014 9.84224C13.8466 9.82041 13.7016 9.71561 13.6283 9.56358Z" fill="#000"/>
<path fill-rule="evenodd" clip-rule="evenodd" d="M13.0134 7.13647C12.6043 6.28784 11.3957 6.28784 10.9867 7.13647L9.92136 9.34645L7.48015 9.665C6.53857 9.78786 6.16336 10.95 6.85535 11.6003L8.6336 13.2713L8.18591 15.6646C8.01216 16.5935 8.99169 17.3097 9.82411 16.8625L12 15.6934L14.176 16.8625C15.0084 17.3097 15.9879 16.5935 15.8141 15.6646L15.3665 13.2713L17.1447 11.6003C17.8367 10.95 17.4615 9.78786 16.5199 9.665L14.0787 9.34645L13.0134 7.13647ZM11.8875 7.5707C11.9329 7.47643 12.0672 7.47644 12.1126 7.5707L13.1779 9.78069C13.3245 10.0848 13.6146 10.2944 13.9493 10.338L16.3905 10.6566C16.4951 10.6702 16.5368 10.7993 16.4599 10.8716L14.6817 12.5426C14.4332 12.7761 14.3208 13.12 14.3835 13.4552L14.8312 15.8485C14.8505 15.9517 14.7417 16.0312 14.6492 15.9815L12.4733 14.8125C12.1778 14.6537 11.8223 14.6537 11.5268 14.8125L9.35082 15.9815C9.25836 16.0312 9.14956 15.9517 9.16886 15.8485L9.61655 13.4552C9.67924 13.12 9.56686 12.7761 9.3184 12.5426L7.54014 10.8716C7.46328 10.7993 7.50495 10.6702 7.60954 10.6566L10.0508 10.338C10.3855 10.2944 10.6756 10.0848 10.8222 9.78069L11.8875 7.5707Z" fill="#000"/>
<path fill-rule="evenodd" clip-rule="evenodd" d="M12 0.5C5.64873 0.5 0.5 5.64873 0.5 12C0.5 18.3513 5.64873 23.5 12 23.5C18.3513 23.5 23.5 18.3513 23.5 12C23.5 5.64873 18.3513 0.5 12 0.5ZM1.5 12C1.5 6.20101 6.20101 1.5 12 1.5C17.799 1.5 22.5 6.20101 22.5 12C22.5 17.799 17.799 22.5 12 22.5C6.20101 22.5 1.5 17.799 1.5 12Z" fill="#000"/>
</g>
<defs>
<clipPath id="clip0_9002_7342">
<rect width="24" height="24" fill="white"/>
</clipPath>
</defs>
</svg>
