<svg width="24" height="24" viewBox="0 0 24 24" fill="none" xmlns="http://www.w3.org/2000/svg">
<path opacity="0.4" d="M10.8742 3.20594C11.3288 2.26298 12.6717 2.26298 13.1262 3.20594L15.257 7.62624C15.4036 7.93033 15.6937 8.13993 16.0284 8.18361L20.9112 8.82076C21.9575 8.95728 22.3744 10.2486 21.6055 10.9712L18.0487 14.3135C17.8002 14.5469 17.6878 14.8909 17.7505 15.2261L18.646 20.0131C18.8391 21.0452 17.7506 21.841 16.8257 21.3441L12.4735 19.0058C12.178 18.847 11.8225 18.847 11.5269 19.0058L7.17475 21.3441C6.2498 21.841 5.1614 21.0452 5.35446 20.0131L6.24991 15.2261C6.3126 14.8909 6.20022 14.5469 5.95175 14.3135L2.39497 10.9712C1.62607 10.2486 2.04298 8.95728 3.08922 8.82076L7.97204 8.18361C8.30677 8.13993 8.59687 7.93033 8.74345 7.62624L10.8742 3.20594Z" fill="#000"/>
<path fill-rule="evenodd" clip-rule="evenodd" d="M10.4239 2.98883C11.0603 1.66869 12.9404 1.66868 13.5767 2.98882L15.7075 7.40913C15.7808 7.56117 15.9258 7.66598 16.0932 7.68781L20.976 8.32496C22.4408 8.5161 23.0244 10.324 21.948 11.3355L18.3912 14.6778C18.267 14.7946 18.2108 14.9666 18.2421 15.1341L19.1376 19.9212C19.4078 21.3661 17.8841 22.4802 16.5891 21.7845L12.237 19.4462C12.0892 19.3668 11.9114 19.3668 11.7637 19.4462L7.41148 21.7845C6.11656 22.4802 4.59279 21.3661 4.86307 19.9212L5.75853 15.1341C5.78987 14.9666 5.73368 14.7946 5.60945 14.6778L2.05266 11.3355C0.976202 10.324 1.55987 8.51609 3.02461 8.32496L7.90743 7.68781C8.0748 7.66598 8.21985 7.56117 8.29314 7.40913L10.4239 2.98883ZM12.6759 3.42305C12.4032 2.85728 11.5974 2.85727 11.3247 3.42305L9.19394 7.84335C8.97407 8.29948 8.53892 8.61389 8.03682 8.67941L3.15401 9.31656C2.52626 9.39847 2.27611 10.1733 2.73746 10.6068L6.29424 13.9491C6.66694 14.2993 6.83551 14.8153 6.74148 15.318L5.84603 20.105C5.73019 20.7243 6.38323 21.2018 6.9382 20.9036L11.2904 18.5653C11.7337 18.3272 12.2669 18.3272 12.7102 18.5653L17.0624 20.9036C17.6174 21.2018 18.2704 20.7243 18.1546 20.105L17.2592 15.318C17.1651 14.8153 17.3337 14.2993 17.7064 13.9491L21.2632 10.6068C21.7245 10.1733 21.4744 9.39847 20.8466 9.31656L15.9638 8.67941C15.4617 8.61389 15.0266 8.29948 14.8067 7.84335L12.6759 3.42305Z" fill="#000"/>
</svg>
