<svg width="24" height="24" viewBox="0 0 24 24" fill="none" xmlns="http://www.w3.org/2000/svg">
<path opacity="0.4" fill-rule="evenodd" clip-rule="evenodd" d="M22 8.4V15.6C22 17.8402 22 18.9603 21.564 19.816C21.1805 20.5686 20.5686 21.1805 19.816 21.564C18.9603 22 17.8402 22 15.6 22H8.4C6.15979 22 5.03969 22 4.18404 21.564C3.43139 21.1805 2.81947 20.5686 2.43597 19.816C2 18.9603 2 17.8402 2 15.6V8.4C2 6.15979 2 5.03969 2.43597 4.18404C2.81947 3.43139 3.43139 2.81947 4.18404 2.43597C5.03969 2 6.15979 2 8.4 2H15.6C17.8402 2 18.9603 2 19.816 2.43597C20.5686 2.81947 21.1805 3.43139 21.564 4.18404C22 5.03969 22 6.15979 22 8.4ZM12.563 7.35358C12.3357 6.88214 11.6643 6.88214 11.437 7.35358L10.3717 9.56358C10.2984 9.71561 10.1534 9.82041 9.98605 9.84224L7.54482 10.1608C7.02173 10.2291 6.81329 10.8747 7.19771 11.2359L8.97598 12.907C9.1002 13.0237 9.15639 13.1957 9.12505 13.3632L8.67735 15.7566C8.58083 16.2726 9.12499 16.6705 9.58743 16.422L11.7634 15.2529C11.9111 15.1736 12.0889 15.1736 12.2366 15.2529L14.4126 16.422C14.875 16.6705 15.4192 16.2726 15.3226 15.7566L14.875 13.3632C14.8436 13.1957 14.8998 13.0237 15.024 12.907L16.8023 11.2359C17.1867 10.8747 16.9783 10.2291 16.4552 10.1608L14.014 9.84224C13.8466 9.82041 13.7016 9.71561 13.6283 9.56358L12.563 7.35358Z" fill="#000"/>
<path fill-rule="evenodd" clip-rule="evenodd" d="M13.0134 7.13647C12.6043 6.28784 11.3957 6.28784 10.9867 7.13647L9.92136 9.34645L7.48015 9.665C6.53857 9.78786 6.16336 10.95 6.85535 11.6003L8.6336 13.2713L8.18591 15.6646C8.01216 16.5935 8.99169 17.3097 9.82411 16.8625L12 15.6934L14.176 16.8625C15.0084 17.3097 15.9879 16.5935 15.8141 15.6646L15.3665 13.2713L17.1447 11.6003C17.8367 10.95 17.4615 9.78786 16.5199 9.665L14.0787 9.34645L13.0134 7.13647ZM11.8875 7.5707C11.9329 7.47643 12.0672 7.47644 12.1126 7.5707L13.1779 9.78069C13.3245 10.0848 13.6146 10.2944 13.9493 10.338L16.3905 10.6566C16.4951 10.6702 16.5368 10.7993 16.4599 10.8716L14.6817 12.5426C14.4332 12.7761 14.3208 13.12 14.3835 13.4552L14.8312 15.8485C14.8505 15.9517 14.7417 16.0312 14.6492 15.9815L12.4733 14.8125C12.1778 14.6537 11.8223 14.6537 11.5268 14.8125L9.35082 15.9815C9.25836 16.0312 9.14956 15.9517 9.16886 15.8485L9.61655 13.4552C9.67924 13.12 9.56686 12.7761 9.3184 12.5426L7.54014 10.8716C7.46328 10.7993 7.50495 10.6702 7.60954 10.6566L10.0508 10.338C10.3855 10.2944 10.6756 10.0848 10.8222 9.78069L11.8875 7.5707Z" fill="#000"/>
<path fill-rule="evenodd" clip-rule="evenodd" d="M15.6226 1.5H8.37737C7.27642 1.5 6.41948 1.5 5.73209 1.55616C5.03416 1.61318 4.4671 1.73058 3.95704 1.99047C3.11031 2.4219 2.4219 3.11031 1.99047 3.95704C1.73058 4.4671 1.61318 5.03416 1.55616 5.73209C1.5 6.41948 1.5 7.27641 1.5 8.37737V15.6226C1.5 16.7236 1.5 17.5805 1.55616 18.2679C1.61318 18.9658 1.73058 19.5329 1.99047 20.043C2.4219 20.8897 3.11031 21.5781 3.95704 22.0095C4.4671 22.2694 5.03416 22.3868 5.73209 22.4438C6.4195 22.5 7.27645 22.5 8.37744 22.5H15.6225C16.7235 22.5 17.5805 22.5 18.2679 22.4438C18.9658 22.3868 19.5329 22.2694 20.043 22.0095C20.8897 21.5781 21.5781 20.8897 22.0095 20.043C22.2694 19.5329 22.3868 18.9658 22.4438 18.2679C22.5 17.5805 22.5 16.7236 22.5 15.6227V8.37736C22.5 7.27642 22.5 6.41947 22.4438 5.73209C22.3868 5.03416 22.2694 4.4671 22.0095 3.95704C21.5781 3.11031 20.8897 2.4219 20.043 1.99047C19.5329 1.73058 18.9658 1.61318 18.2679 1.55616C17.5805 1.5 16.7236 1.5 15.6226 1.5ZM4.41103 2.88148C4.75662 2.70539 5.17744 2.60481 5.81352 2.55284C6.45545 2.50039 7.27164 2.5 8.4 2.5H15.6C16.7284 2.5 17.5446 2.50039 18.1865 2.55284C18.8226 2.60481 19.2434 2.70539 19.589 2.88148C20.2475 3.21703 20.783 3.75247 21.1185 4.41103C21.2946 4.75662 21.3952 5.17744 21.4472 5.81352C21.4996 6.45545 21.5 7.27164 21.5 8.4V15.6C21.5 16.7284 21.4996 17.5446 21.4472 18.1865C21.3952 18.8226 21.2946 19.2434 21.1185 19.589C20.783 20.2475 20.2475 20.783 19.589 21.1185C19.2434 21.2946 18.8226 21.3952 18.1865 21.4472C17.5446 21.4996 16.7284 21.5 15.6 21.5H8.4C7.27164 21.5 6.45545 21.4996 5.81352 21.4472C5.17744 21.3952 4.75662 21.2946 4.41103 21.1185C3.75247 20.783 3.21703 20.2475 2.88148 19.589C2.70539 19.2434 2.60481 18.8226 2.55284 18.1865C2.50039 17.5446 2.5 16.7284 2.5 15.6V8.4C2.5 7.27164 2.50039 6.45545 2.55284 5.81352C2.60481 5.17744 2.70539 4.75662 2.88148 4.41103C3.21703 3.75247 3.75247 3.21703 4.41103 2.88148Z" fill="#000"/>
</svg>
