<svg width="24" height="24" viewBox="0 0 24 24" fill="none" xmlns="http://www.w3.org/2000/svg">
<g opacity="0.4">
<path d="M8.14615 8.14615C8.0899 8.16406 8.03168 8.17711 7.97204 8.18489L3.08922 8.82204C2.04298 8.95856 1.62607 10.2499 2.39497 10.9725L5.95175 14.3147C6.20022 14.5482 6.3126 14.8922 6.24991 15.2274L5.35446 20.0144C5.1614 21.0465 6.2498 21.8423 7.17475 21.3454L11.5269 19.0071C11.8225 18.8483 12.178 18.8483 12.4735 19.0071L16.8257 21.3454C17.7506 21.8423 18.8391 21.0465 18.646 20.0144L18.3311 18.3311L8.14615 8.14615Z" fill="#000"/>
<path d="M17.7559 15.2559L17.7505 15.2274C17.6878 14.8922 17.8002 14.5482 18.0487 14.3147L21.6055 10.9725C22.3744 10.2499 21.9575 8.95856 20.9112 8.82204L16.0284 8.18489C15.6937 8.14121 15.4036 7.93161 15.257 7.62752L13.1262 3.20722C12.6717 2.26426 11.3288 2.26426 10.8742 3.20722L9.19363 6.69363L17.7559 15.2559Z" fill="#000"/>
</g>
<path fill-rule="evenodd" clip-rule="evenodd" d="M2.35361 1.64645C2.15835 1.45118 1.84177 1.45118 1.64651 1.64645C1.45125 1.84171 1.45125 2.15829 1.64651 2.35355L7.08886 7.79591L3.02461 8.32625C1.55987 8.51738 0.976202 10.3253 2.05266 11.3368L5.60945 14.6791C5.73368 14.7959 5.78987 14.9678 5.75853 15.1354L4.86307 19.9224C4.59279 21.3674 6.11656 22.4815 7.41148 21.7858L11.7637 19.4475C11.9114 19.3681 12.0892 19.3681 12.237 19.4475L16.5891 21.7858C17.8841 22.4815 19.4078 21.3674 19.1376 19.9224L19.1196 19.8267L21.6465 22.3536C21.8418 22.5488 22.1584 22.5488 22.3536 22.3536C22.5489 22.1583 22.5489 21.8417 22.3536 21.6464L2.35361 1.64645ZM17.8682 18.5753L7.98094 8.68798L3.15401 9.31784C2.52626 9.39975 2.27611 10.1746 2.73746 10.6081L6.29424 13.9504C6.66694 14.3006 6.83551 14.8166 6.74148 15.3193L5.84603 20.1063C5.73019 20.7256 6.38323 21.2031 6.9382 20.9049L11.2904 18.5666C11.7337 18.3284 12.2669 18.3284 12.7102 18.5666L17.0624 20.9049C17.6174 21.2031 18.2704 20.7256 18.1546 20.1063L17.8682 18.5753Z" fill="#000"/>
<path d="M17.7064 13.9504C17.4727 14.1699 17.3193 14.4547 17.2605 14.7604L18.3817 15.8816L18.2421 15.1354C18.2108 14.9678 18.267 14.7959 18.3912 14.6791L21.948 11.3368C23.0244 10.3253 22.4408 8.51738 20.976 8.32625L16.0932 7.6891C15.9258 7.66726 15.7808 7.56245 15.7075 7.41041L13.5767 2.9901C12.9404 1.66996 11.0603 1.66997 10.4239 2.99011L8.8192 6.31908L9.56825 7.06813L11.3247 3.42433C11.5974 2.85856 12.4032 2.85856 12.6759 3.42433L14.8067 7.84464C15.0266 8.30076 15.4617 8.61517 15.9638 8.68069L20.8466 9.31784C21.4744 9.39975 21.7245 10.1746 21.2632 10.6081L17.7064 13.9504Z" fill="#000"/>
</svg>
