<svg width="24" height="24" viewBox="0 0 24 24" fill="none" xmlns="http://www.w3.org/2000/svg">
<g opacity="0.4">
<path d="M6.43011 6.43013C4.34101 8.07826 3 10.6325 3 13.5C3 18.4706 7.02944 22.5 12 22.5C14.8675 22.5 17.4217 21.159 19.0699 19.0699L6.43011 6.43013Z" fill="#000"/>
<path d="M20.043 17.543C20.6552 16.3274 21 14.954 21 13.5C21 8.52944 16.9706 4.5 12 4.5C10.546 4.5 9.17262 4.84477 7.95701 5.45703L20.043 17.543Z" fill="#000"/>
</g>
<path fill-rule="evenodd" clip-rule="evenodd" d="M5.6906 6.3977L1.64645 2.35355C1.45118 2.15829 1.45118 1.84171 1.64645 1.64645C1.84171 1.45118 2.15829 1.45118 2.35355 1.64645L22.3536 21.6464C22.5488 21.8417 22.5488 22.1583 22.3536 22.3536C22.1583 22.5488 21.8417 22.5488 21.6464 22.3536L19.1024 19.8095C17.3622 21.7669 14.8251 23 12.0001 23C6.75336 23 2.50006 18.7467 2.50006 13.5C2.50006 10.6749 3.73321 8.13785 5.6906 6.3977ZM18.3939 19.101C16.8359 20.878 14.549 22 12.0001 22C7.30564 22 3.50006 18.1944 3.50006 13.5C3.50006 10.951 4.62204 8.66412 6.39908 7.10618L18.3939 19.101Z" fill="#000"/>
<path d="M20.5001 13.5C20.5001 14.8141 20.2019 16.0586 19.6694 17.1694L20.4144 17.9143C21.1077 16.5954 21.5001 15.0935 21.5001 13.5C21.5001 10.9293 20.479 8.59712 18.8203 6.88683L20.3536 5.35355C20.5489 5.15829 20.5489 4.84171 20.3536 4.64645C20.1584 4.45118 19.8418 4.45118 19.6465 4.64645L18.087 6.20594C16.5579 4.92851 14.621 4.12291 12.5001 4.01293V2H15.0001C15.2762 2 15.5001 1.77614 15.5001 1.5C15.5001 1.22386 15.2762 1 15.0001 1H9.00006C8.72392 1 8.50006 1.22386 8.50006 1.5C8.50006 1.77614 8.72392 2 9.00006 2H11.5001V4.01293C10.0924 4.08592 8.76584 4.46532 7.58574 5.0857L8.33068 5.83064C9.4415 5.29821 10.686 5 12.0001 5C16.6945 5 20.5001 8.80558 20.5001 13.5Z" fill="#000"/>
</svg>
