<svg width="24" height="24" viewBox="0 0 24 24" fill="none" xmlns="http://www.w3.org/2000/svg">
<path opacity="0.4" d="M20.5 11.2727C21.383 10.8562 22 9.92811 22 9C22 8.33584 21.9185 7.67419 21.7575 7.02986L20.8787 3.51493C20.6561 2.62459 19.8562 2 18.9384 2H5.06155C4.14382 2 3.34385 2.62459 3.12127 3.51493L2.24254 7.02986C2.08145 7.67419 2 8.33584 2 9C2 9.92811 2.61705 10.8562 3.5 11.2727V19.25C3.5 20.7688 4.73122 22 6.25 22L9.5 22V16.25C9.5 15.8358 9.83579 15.5 10.25 15.5H13.75C14.1642 15.5 14.5 15.8358 14.5 16.25V22L17.75 22C19.2688 22 20.5 20.7688 20.5 19.25V11.2727Z" fill="#000"/>
<path fill-rule="evenodd" clip-rule="evenodd" d="M5.80337 1.49991C5.09849 1.49959 4.61325 1.49938 4.19016 1.65671C3.70698 1.8364 3.29115 2.16107 2.99964 2.58625C2.74439 2.95854 2.62691 3.42934 2.45625 4.11325L1.75746 6.90852C1.58647 7.59251 1.5 8.29489 1.5 8.99993C1.5 10.0142 2.09912 11.0201 3 11.5708L3 17.622C3 18.3734 2.99999 18.9679 3.03913 19.4468C3.07912 19.9363 3.16246 20.349 3.35423 20.7254C3.66582 21.3369 4.163 21.8341 4.77453 22.1457C5.15089 22.3375 5.5636 22.4208 6.05309 22.4608C6.53205 22.4999 7.12653 22.4999 7.87788 22.4999H9.49392L9.5 22.5H14.5L14.5061 22.4999H16.1221C16.8734 22.4999 17.4679 22.4999 17.9469 22.4608C18.4364 22.4208 18.8491 22.3375 19.2255 22.1457C19.837 21.8341 20.3342 21.3369 20.6458 20.7254C20.8375 20.349 20.9209 19.9363 20.9609 19.4468C21 18.9679 21 18.3734 21 17.622V11.5708C21.9009 11.0201 22.5 10.0142 22.5 8.99993C22.5 8.29489 22.4135 7.59251 22.2425 6.90852L21.5437 4.11326C21.3731 3.42935 21.2556 2.95854 21.0004 2.58625C20.7089 2.16107 20.293 1.8364 19.8098 1.65671C19.3868 1.49938 18.9015 1.49959 18.1966 1.49991H5.80337ZM20 11.955C19.8376 11.9844 19.6706 11.9999 19.5 11.9999C18.509 11.9999 17.5566 11.581 17 10.8911C16.4434 11.581 15.491 11.9999 14.5 11.9999C13.509 11.9999 12.5566 11.581 12 10.8911C11.4434 11.581 10.491 11.9999 9.5 11.9999C8.50903 11.9999 7.55661 11.581 7 10.8911C6.44339 11.581 5.49097 11.9999 4.5 11.9999C4.32938 11.9999 4.16237 11.9844 4 11.955V17.5999C4 18.3783 4.00039 18.9319 4.03581 19.3654C4.07075 19.7931 4.13727 20.0595 4.24524 20.2714C4.46095 20.6948 4.80516 21.039 5.22852 21.2547C5.44042 21.3627 5.70687 21.4292 6.13452 21.4641C6.56801 21.4995 7.12168 21.4999 7.9 21.4999H9L9 16.6819C8.99999 16.4874 8.99998 16.3123 9.01188 16.1666C9.02462 16.0107 9.05347 15.8449 9.13624 15.6825C9.25608 15.4473 9.44731 15.256 9.68251 15.1362C9.84496 15.0534 10.0107 15.0246 10.1667 15.0118C10.3123 14.9999 10.4874 15 10.6819 15H13.318C13.5126 15 13.6877 14.9999 13.8333 15.0118C13.9893 15.0246 14.155 15.0534 14.3175 15.1362C14.5527 15.256 14.7439 15.4473 14.8638 15.6825C14.9465 15.8449 14.9754 16.0107 14.9881 16.1666C15 16.3123 15 16.4874 15 16.6819V21.4999H16.1C16.8783 21.4999 17.432 21.4995 17.8655 21.4641C18.2931 21.4292 18.5596 21.3627 18.7715 21.2547C19.1948 21.039 19.5391 20.6948 19.7548 20.2714C19.8627 20.0595 19.9293 19.7931 19.9642 19.3654C19.9996 18.9319 20 18.3783 20 17.5999V11.955ZM9.5 10.9999C8.28555 10.9999 7.5 10.23 7.5 9.49993C7.5 9.22379 7.27614 8.99993 7 8.99993C6.72386 8.99993 6.5 9.22379 6.5 9.49993C6.5 10.23 5.71445 10.9999 4.5 10.9999C3.412 10.9999 2.5 9.99066 2.5 8.99993C2.5 8.37666 2.57644 7.75573 2.72761 7.15106L3.40293 4.44975C3.60672 3.63462 3.68422 3.35618 3.8244 3.15172C3.99931 2.89661 4.24881 2.70181 4.53872 2.594C4.77107 2.50759 5.05999 2.49993 5.90022 2.49993H18.0998C18.94 2.49993 19.2289 2.50759 19.4613 2.594C19.7512 2.70181 20.0007 2.89661 20.1756 3.15172C20.3158 3.35618 20.3933 3.63462 20.5971 4.44975L21.2724 7.15106C21.4236 7.75573 21.5 8.37666 21.5 8.99993C21.5 9.99066 20.588 10.9999 19.5 10.9999C18.2855 10.9999 17.5 10.23 17.5 9.49993C17.5 9.22379 17.2761 8.99993 17 8.99993C16.7239 8.99993 16.5 9.22379 16.5 9.49993C16.5 10.23 15.7145 10.9999 14.5 10.9999C13.2855 10.9999 12.5 10.23 12.5 9.49993C12.5 9.22379 12.2761 8.99993 12 8.99993C11.7239 8.99993 11.5 9.22379 11.5 9.49993C11.5 10.23 10.7145 10.9999 9.5 10.9999ZM14 16.7V21.5H10V16.7C10 16.4817 10.0004 16.3481 10.0086 16.2481C10.0124 16.2015 10.0171 16.1733 10.0212 16.1562C10.0231 16.1481 10.0247 16.1431 10.0257 16.1404C10.0262 16.1389 10.0266 16.1379 10.0269 16.1373C10.0268 16.1374 10.0271 16.1368 10.0269 16.1373C10.0508 16.0902 10.0895 16.0512 10.1365 16.0272C10.1367 16.0271 10.1378 16.0266 10.1404 16.0256C10.1431 16.0247 10.1481 16.0231 10.1562 16.0211C10.1734 16.0171 10.2015 16.0123 10.2481 16.0085C10.3481 16.0004 10.4817 16 10.7 16H13.3C13.5183 16 13.6519 16.0004 13.7519 16.0085C13.7985 16.0123 13.8266 16.0171 13.8438 16.0211C13.8519 16.0231 13.8569 16.0247 13.8596 16.0256C13.8613 16.0262 13.8623 16.0267 13.8629 16.0269C13.8628 16.0269 13.8632 16.0271 13.8629 16.0269C13.9099 16.0509 13.9488 16.0894 13.9728 16.1365L13.9743 16.1404C13.9753 16.1431 13.9769 16.1481 13.9788 16.1562C13.9829 16.1733 13.9876 16.2015 13.9914 16.2481C13.9996 16.3481 14 16.4817 14 16.7Z" fill="#000"/>
</svg>
