<svg width="24" height="24" viewBox="0 0 24 24" fill="none" xmlns="http://www.w3.org/2000/svg">
<path opacity="0.4" d="M3.5 7.2C3.5 5.37983 3.5 4.46974 3.85423 3.77453C4.16582 3.163 4.663 2.66582 5.27453 2.35423C5.96974 2 6.87983 2 8.7 2H15.3C17.1202 2 18.0303 2 18.7255 2.35423C19.337 2.66582 19.8342 3.163 20.1458 3.77453C20.5 4.46974 20.5 5.37983 20.5 7.2V16.8C20.5 18.6202 20.5 19.5303 20.1458 20.2255C19.8342 20.837 19.337 21.3342 18.7255 21.6458C18.0303 22 17.1202 22 15.3 22H8.7C6.87983 22 5.96974 22 5.27453 21.6458C4.663 21.3342 4.16582 20.837 3.85423 20.2255C3.5 19.5303 3.5 18.6202 3.5 16.8V7.2Z" fill="#000"/>
<path d="M11.25 18.5C11.25 18.0858 11.5858 17.75 12 17.75C12.4142 17.75 12.7501 18.0858 12.7501 18.5C12.7501 18.9142 12.4143 19.25 12.0001 19.25C11.5859 19.25 11.25 18.9142 11.25 18.5Z" fill="#000"/>
<path d="M10.5 4.5C10.2239 4.5 10 4.72386 10 5C10 5.27614 10.2239 5.5 10.5 5.5H13.5C13.7761 5.5 14 5.27614 14 5C14 4.72386 13.7761 4.5 13.5 4.5H10.5Z" fill="#000"/>
<path fill-rule="evenodd" clip-rule="evenodd" d="M8.67767 1.5H15.3223C16.2135 1.5 16.913 1.49999 17.4753 1.54594C18.0482 1.59274 18.5226 1.68971 18.9525 1.90873C19.6581 2.26825 20.2317 2.84193 20.5913 3.54754C20.8103 3.97738 20.9073 4.45183 20.9541 5.02469C21 5.58703 21 6.28648 21 7.17765V16.8223C21 17.7135 21 18.413 20.9541 18.9753C20.9073 19.5482 20.8103 20.0226 20.5913 20.4525C20.2317 21.1581 19.6581 21.7317 18.9525 22.0913C18.5226 22.3103 18.0482 22.4073 17.4753 22.4541C16.913 22.5 16.2135 22.5 15.3223 22.5H8.67765C7.78648 22.5 7.08703 22.5 6.52469 22.4541C5.95183 22.4073 5.47738 22.3103 5.04754 22.0913C4.34193 21.7317 3.76825 21.1581 3.40873 20.4525C3.18971 20.0226 3.09274 19.5482 3.04594 18.9753C2.99999 18.413 3 17.7135 3 16.8223V7.17767C3 6.28649 2.99999 5.58703 3.04594 5.02469C3.09274 4.45183 3.18971 3.97738 3.40873 3.54754C3.76825 2.84193 4.34193 2.26825 5.04754 1.90873C5.47738 1.68971 5.95183 1.59274 6.52469 1.54594C7.08703 1.49999 7.78649 1.5 8.67767 1.5ZM6.60612 2.54262C6.0951 2.58437 5.7669 2.66452 5.50153 2.79973C4.98408 3.06338 4.56338 3.48408 4.29973 4.00153C4.16452 4.2669 4.08437 4.5951 4.04262 5.10612C4.00039 5.62298 4 6.28166 4 7.2V16.8C4 17.7183 4.00039 18.377 4.04262 18.8939C4.08437 19.4049 4.16452 19.7331 4.29973 19.9985C4.56338 20.5159 4.98408 20.9366 5.50153 21.2003C5.7669 21.3355 6.0951 21.4156 6.60612 21.4574C7.12298 21.4996 7.78166 21.5 8.7 21.5H15.3C16.2183 21.5 16.877 21.4996 17.3939 21.4574C17.9049 21.4156 18.2331 21.3355 18.4985 21.2003C19.0159 20.9366 19.4366 20.5159 19.7003 19.9985C19.8355 19.7331 19.9156 19.4049 19.9574 18.8939C19.9996 18.377 20 17.7183 20 16.8V7.2C20 6.28166 19.9996 5.62298 19.9574 5.10612C19.9156 4.5951 19.8355 4.2669 19.7003 4.00153C19.4366 3.48408 19.0159 3.06338 18.4985 2.79973C18.2331 2.66452 17.9049 2.58437 17.3939 2.54262C16.877 2.50039 16.2183 2.5 15.3 2.5H8.7C7.78166 2.5 7.12298 2.50039 6.60612 2.54262Z" fill="#000"/>
</svg>
