<svg width="24" height="24" viewBox="0 0 24 24" fill="none" xmlns="http://www.w3.org/2000/svg">
<path opacity="0.4" fill-rule="evenodd" clip-rule="evenodd" d="M14.9773 19.492L20.358 14.1162C20.964 13.5108 21.267 13.208 21.4836 12.8547C21.6757 12.5414 21.8173 12.1998 21.9032 11.8425C22 11.4395 22 11.0112 22 10.1546L21.9999 5.20311C21.9999 4.08206 21.9999 3.52152 21.7817 3.09349C21.5897 2.71699 21.2834 2.41098 20.9067 2.21937C20.4785 2.00153 19.918 2.00207 18.7969 2.00313L13.8394 2.00785C12.985 2.00866 12.5578 2.00907 12.1558 2.10581C11.7993 2.19158 11.4586 2.33283 11.146 2.52437C10.7934 2.74042 10.4912 3.04237 9.88675 3.64626L4.51156 9.0166C3.1249 10.402 2.43158 11.0947 2.17156 11.8937C1.94283 12.5965 1.94248 13.3538 2.17055 14.0568C2.42983 14.8561 3.12251 15.5494 4.50788 16.9361L7.05765 19.4883C8.44308 20.875 9.13579 21.5684 9.93484 21.8285C10.6377 22.0572 11.3949 22.0576 12.098 21.8295C12.8973 21.5702 13.5906 20.8774 14.9773 19.492ZM15 7.25009C15 8.21658 15.7835 9.00009 16.75 9.00009C17.7165 9.00009 18.5 8.21658 18.5 7.25009C18.5 6.28359 17.7165 5.50009 16.75 5.50009C15.7835 5.50009 15 6.28359 15 7.25009Z" fill="#000"/>
<path fill-rule="evenodd" clip-rule="evenodd" d="M19.0001 7.24994C19.0001 6.0073 17.9927 4.99994 16.7501 4.99994C15.5075 4.99994 14.5001 6.0073 14.5001 7.24994C14.5001 8.49258 15.5075 9.49994 16.7501 9.49994C17.9927 9.49994 19.0001 8.49258 19.0001 7.24994ZM16.7501 5.99994C17.4404 5.99994 18.0001 6.55958 18.0001 7.24994C18.0001 7.94029 17.4404 8.49994 16.7501 8.49994C16.0597 8.49994 15.5001 7.94029 15.5001 7.24994C15.5001 6.55958 16.0597 5.99994 16.7501 5.99994Z" fill="#000"/>
<path fill-rule="evenodd" clip-rule="evenodd" d="M21.1334 1.77361C20.837 1.62281 20.5166 1.56014 20.1519 1.53068C19.7976 1.50206 19.3602 1.50248 18.8178 1.503L13.7723 1.5078C12.9815 1.50847 12.4988 1.50887 12.0388 1.61958C11.6314 1.71761 11.242 1.87903 10.8847 2.09794C10.4813 2.34515 10.1399 2.6863 9.5805 3.24533L4.14228 8.67864C3.4624 9.35791 2.93046 9.88937 2.53805 10.3512C2.13879 10.821 1.85467 11.2516 1.6961 11.7389C1.4347 12.5421 1.4343 13.4075 1.69495 14.211C1.85307 14.6984 2.13679 15.1292 2.53561 15.5995C2.92759 16.0616 3.45902 16.5936 4.13826 17.2735L6.71986 19.8575C7.39911 20.5374 7.93056 21.0694 8.39237 21.4618C8.86225 21.8611 9.29282 22.1452 9.7801 22.3038C10.5834 22.5652 11.4488 22.5656 12.2523 22.305C12.7397 22.1468 13.1705 21.8631 13.6408 21.4642C14.103 21.0722 14.635 20.5407 15.3149 19.8614L20.7586 14.4226C21.3196 13.8623 21.6619 13.5203 21.9099 13.116C22.1294 12.7579 22.2912 12.3676 22.3893 11.9592C22.5001 11.498 22.5001 11.0142 22.5 10.2213L22.4999 5.18172C22.4999 4.63929 22.4999 4.20181 22.471 3.84757C22.4412 3.48288 22.3782 3.16256 22.2271 2.86626C21.9872 2.39564 21.6043 2.01312 21.1334 1.77361ZM18.7974 2.50302C19.3662 2.50248 19.7627 2.50249 20.0714 2.52743C20.3742 2.5519 20.5482 2.59787 20.68 2.66492C20.9625 2.80863 21.1923 3.03813 21.3363 3.32051C21.4034 3.45224 21.4496 3.6262 21.4743 3.92904C21.4995 4.23772 21.4999 4.63422 21.4999 5.20301L21.5 10.1545C21.5 11.0349 21.4968 11.3936 21.417 11.7256C21.3434 12.0319 21.2221 12.3247 21.0574 12.5932C20.8789 12.8843 20.6274 13.1401 20.0046 13.7624L14.624 19.1381C13.9248 19.8367 13.4214 20.3391 12.994 20.7016C12.571 21.0603 12.2555 21.2526 11.9437 21.3538C11.3411 21.5493 10.692 21.549 10.0896 21.3529C9.77781 21.2514 9.4625 21.0589 9.03991 20.6998C8.61285 20.3369 8.10992 19.834 7.41137 19.1348L4.8616 16.5826C4.16309 15.8834 3.66073 15.38 3.29826 14.9526C2.93957 14.5297 2.74731 14.2142 2.64615 13.9024C2.45066 13.2998 2.45097 12.6508 2.64701 12.0483C2.74846 11.7366 2.94102 11.4213 3.30009 10.9987C3.66296 10.5717 4.16579 10.0687 4.86495 9.3702L10.2401 3.99986C10.8614 3.37918 11.1167 3.1286 11.4072 2.95059C11.6752 2.78641 11.9672 2.66534 12.2728 2.59182C12.604 2.51212 12.9617 2.50857 13.8399 2.50774L18.7974 2.50302Z" fill="#000"/>
</svg>
