<svg width="24" height="24" viewBox="0 0 24 24" fill="none" xmlns="http://www.w3.org/2000/svg">
<path opacity="0.4" fill-rule="evenodd" clip-rule="evenodd" d="M14.9771 19.492L20.3577 14.1162C20.9637 13.5108 21.2667 13.2081 21.4834 12.8547C21.6755 12.5415 21.8171 12.1999 21.9029 11.8426C21.9997 11.4395 21.9997 11.0112 21.9997 10.1546L21.9997 5.20318C21.9997 4.08212 21.9997 3.52158 21.7814 3.09355C21.5895 2.71706 21.2832 2.41104 20.9065 2.21943C20.4782 2.00159 19.9177 2.00213 18.7967 2.00319L13.8392 2.00791C12.9848 2.00872 12.5576 2.00913 12.1555 2.10587C11.7991 2.19165 11.4583 2.33289 11.1457 2.52444C10.7932 2.74048 10.4909 3.04243 9.8865 3.64632L4.51131 9.01666C3.12466 10.4021 2.43133 11.0948 2.17131 11.8938C1.94259 12.5966 1.94224 13.3538 2.17031 14.0569C2.42959 14.8561 3.12227 15.5495 4.50763 16.9362L7.0574 19.4884C8.44283 20.8751 9.13555 21.5685 9.93459 21.8285C10.6374 22.0573 11.3947 22.0576 12.0977 21.8295C12.897 21.5702 13.5904 20.8775 14.9771 19.492ZM14.9998 7.25015C14.9998 8.21665 15.7833 9.00015 16.7498 9.00015C17.7163 9.00015 18.4998 8.21665 18.4998 7.25015C18.4998 6.28365 17.7163 5.50015 16.7498 5.50015C15.7833 5.50015 14.9998 6.28365 14.9998 7.25015Z" fill="#000"/>
<path fill-rule="evenodd" clip-rule="evenodd" d="M18.9998 7.24988C18.9998 6.00724 17.9925 4.99988 16.7498 4.99988C15.5072 4.99988 14.4998 6.00724 14.4998 7.24988C14.4998 8.49252 15.5072 9.49988 16.7498 9.49988C17.9925 9.49988 18.9998 8.49252 18.9998 7.24988ZM16.7498 5.99988C17.4402 5.99988 17.9998 6.55952 17.9998 7.24988C17.9998 7.94023 17.4402 8.49988 16.7498 8.49988C16.0595 8.49988 15.4998 7.94023 15.4998 7.24988C15.4998 6.55952 16.0595 5.99988 16.7498 5.99988Z" fill="#000"/>
<path fill-rule="evenodd" clip-rule="evenodd" d="M21.1332 1.77355C20.8367 1.62275 20.5164 1.56008 20.1516 1.53062C19.7974 1.502 19.36 1.50242 18.8176 1.50294L13.7721 1.50774C12.9812 1.50841 12.4986 1.50881 12.0385 1.61952C11.6312 1.71754 11.2418 1.87897 10.8845 2.09788C10.4811 2.34509 10.1397 2.68624 9.58026 3.24526L4.14204 8.67858C3.46215 9.35785 2.93021 9.88931 2.5378 10.3511C2.13855 10.821 1.85442 11.2515 1.69585 11.7388C1.43446 12.5421 1.43406 13.4074 1.69471 14.2109C1.85282 14.6983 2.13655 15.1292 2.53536 15.5994C2.92734 16.0616 3.45877 16.5935 4.13802 17.2734L6.71962 19.8575C7.39887 20.5374 7.93031 21.0693 8.39212 21.4617C8.862 21.861 9.29257 22.1452 9.77986 22.3037C10.5831 22.5652 11.4485 22.5656 12.252 22.3049C12.7395 22.1468 13.1703 21.863 13.6406 21.4642C14.1028 21.0722 14.6347 20.5407 15.3147 19.8613L20.7584 14.4225C21.3193 13.8622 21.6617 13.5202 21.9096 13.1159C22.1292 12.7579 22.291 12.3675 22.3891 11.9591C22.4999 11.4979 22.4998 11.0141 22.4997 10.2212L22.4997 5.18165C22.4997 4.63923 22.4997 4.20175 22.4707 3.84751C22.4409 3.48282 22.378 3.1625 22.2269 2.8662C21.9869 2.39558 21.604 2.01306 21.1332 1.77355ZM18.7971 2.50296C19.3659 2.50242 19.7624 2.50243 20.0711 2.52737C20.374 2.55183 20.548 2.59781 20.6798 2.66486C20.9623 2.80856 21.192 3.03807 21.336 3.32045C21.4032 3.45218 21.4493 3.62614 21.4741 3.92898C21.4993 4.23766 21.4997 4.63416 21.4997 5.20295L21.4997 10.1544C21.4997 11.0348 21.4965 11.3935 21.4167 11.7256C21.3432 12.0318 21.2218 12.3246 21.0572 12.5931C20.8786 12.8843 20.6272 13.14 20.0043 13.7623L14.6237 19.1381C13.9245 19.8367 13.4211 20.339 12.9937 20.7015C12.5708 21.0603 12.2553 21.2525 11.9435 21.3537C11.3408 21.5492 10.6918 21.5489 10.0893 21.3528C9.77757 21.2514 9.46226 21.0588 9.03966 20.6997C8.6126 20.3368 8.10967 19.834 7.41113 19.1347L4.86136 16.5825C4.16284 15.8834 3.66049 15.38 3.29801 14.9526C2.93933 14.5297 2.74707 14.2142 2.64591 13.9023C2.45042 13.2997 2.45072 12.6507 2.64677 12.0483C2.74822 11.7365 2.94077 11.4212 3.29985 10.9986C3.66272 10.5716 4.16554 10.0687 4.86471 9.37014L10.2399 3.9998C10.8611 3.37912 11.1165 3.12854 11.407 2.95053C11.6749 2.78635 11.967 2.66528 12.2725 2.59176C12.6037 2.51205 12.9615 2.50851 13.8397 2.50768L18.7971 2.50296Z" fill="#000"/>
</svg>
