<svg width="24" height="24" viewBox="0 0 24 24" fill="none" xmlns="http://www.w3.org/2000/svg">
<path opacity="0.4" fill-rule="evenodd" clip-rule="evenodd" d="M12 23C18.0751 23 23 18.0751 23 12C23 5.92487 18.0751 1 12 1C5.92487 1 1 5.92487 1 12C1 18.0751 5.92487 23 12 23ZM12.1247 6.71726L9.5 11.2509V11.2017C9.5 10.7817 9.5 10.5716 9.41825 10.4112C9.34635 10.2701 9.23161 10.1554 9.09049 10.0835C8.93006 10.0017 8.72004 10.0017 8.3 10.0017H8.2C7.77996 10.0017 7.56994 10.0017 7.40951 10.0835C7.26839 10.1554 7.15365 10.2701 7.08175 10.4112C7 10.5716 7 10.7817 7 11.2017V15.3017C7 15.7217 7 15.9318 7.08175 16.0922C7.15365 16.2333 7.26839 16.3481 7.40951 16.42C7.56994 16.5017 7.77996 16.5017 8.2 16.5017H8.3C8.72004 16.5017 8.93006 16.5017 9.09049 16.42C9.23161 16.3481 9.34635 16.2333 9.41825 16.0922C9.5 15.9318 9.5 15.7217 9.5 15.3017V15.5006L9.81173 15.6565C10.4413 15.9713 10.7562 16.1287 11.0861 16.2397C11.3791 16.3383 11.6807 16.4095 11.9868 16.4525C12.3316 16.5008 12.6836 16.5009 13.3875 16.501L13.7236 16.5011C14.535 16.5013 14.9407 16.5014 15.2742 16.3567C15.5682 16.2292 15.8216 16.0233 16.0067 15.7615C16.2165 15.4647 16.2994 15.0676 16.4652 14.2733L16.8021 12.6593C16.9743 11.8344 17.0604 11.422 16.9508 11.0988C16.8546 10.8155 16.66 10.576 16.4022 10.4239C16.1083 10.2506 15.687 10.2506 14.8444 10.2506H13.25L13.7057 7.97256C13.858 7.21166 13.276 6.50171 12.5 6.50171C12.3453 6.50121 12.2022 6.58342 12.1247 6.71726Z" fill="#000"/>
<path fill-rule="evenodd" clip-rule="evenodd" d="M8.18196 9.50171H8.31805C8.51258 9.5017 8.68766 9.50169 8.83332 9.51359C8.9893 9.52633 9.15504 9.55518 9.31749 9.63795C9.4593 9.71021 9.58512 9.80841 9.68895 9.92656L11.692 6.46674C11.859 6.17825 12.1674 6.00095 12.5007 6.00171C13.5919 6.00215 14.4101 7.00058 14.196 8.07065L13.8599 9.75055H14.8667C15.269 9.75054 15.6034 9.75054 15.8727 9.77413C16.1512 9.79853 16.416 9.85156 16.6563 9.99328C17.0171 10.2062 17.2896 10.5414 17.4243 10.9382C17.5139 11.2023 17.5117 11.4723 17.4787 11.75C17.4467 12.0185 17.3784 12.3457 17.2962 12.7395L16.9509 14.3937C16.8712 14.7754 16.8058 15.0885 16.733 15.342C16.6573 15.6056 16.5648 15.8382 16.4149 16.0502C16.177 16.3867 15.8513 16.6514 15.4732 16.8154C15.235 16.9188 14.9884 16.9617 14.7149 16.9819C14.4518 17.0013 14.132 17.0012 13.7421 17.0011L13.3469 17.001C12.6813 17.0009 12.2969 17.0008 11.9174 16.9476C11.5807 16.9004 11.249 16.8221 10.9267 16.7136C10.6219 16.611 10.3308 16.4735 9.89326 16.256C9.88428 16.2771 9.87447 16.2982 9.86376 16.3192C9.74392 16.5544 9.55269 16.7456 9.31749 16.8655C9.15504 16.9482 8.9893 16.9771 8.83332 16.9898C8.68765 17.0017 8.51258 17.0017 8.31803 17.0017H8.18197C7.98742 17.0017 7.81235 17.0017 7.66669 16.9898C7.5107 16.9771 7.34496 16.9482 7.18251 16.8655C6.94731 16.7456 6.75609 16.5544 6.63624 16.3192C6.55347 16.1567 6.52462 15.991 6.51188 15.835C6.49998 15.6894 6.49999 15.5143 6.5 15.3198V11.1837C6.49999 10.9891 6.49998 10.8141 6.51188 10.6684C6.52462 10.5124 6.55347 10.3467 6.63624 10.1842C6.75608 9.94902 6.94731 9.75779 7.18251 9.63795C7.34496 9.55518 7.5107 9.52633 7.66669 9.51359C7.81234 9.50169 7.98742 9.5017 8.18196 9.50171ZM9 15.3189C9 15.3132 9 15.3075 9 15.3017L9 11.2509C9 11.2505 9 11.2512 9 11.2509L9 11.2017C9 10.9834 8.99961 10.8498 8.99144 10.7498C8.98764 10.7033 8.98286 10.6751 8.97883 10.658C8.97691 10.6498 8.9753 10.6448 8.97434 10.6421C8.97341 10.6395 8.97286 10.6384 8.97275 10.6382C8.94878 10.5912 8.91054 10.5529 8.8635 10.529C8.8633 10.5289 8.86221 10.5283 8.85961 10.5274C8.8569 10.5264 8.85189 10.5248 8.84375 10.5229C8.82664 10.5189 8.79846 10.5141 8.75188 10.5103C8.6519 10.5021 8.51827 10.5017 8.3 10.5017H8.2C7.98173 10.5017 7.8481 10.5021 7.74812 10.5103C7.70154 10.5141 7.67336 10.5189 7.65625 10.5229C7.65181 10.5239 7.6483 10.5249 7.64559 10.5257C7.64333 10.5264 7.64163 10.5269 7.6404 10.5274L7.63676 10.5288C7.58972 10.5528 7.55122 10.5912 7.52725 10.6382C7.52715 10.6384 7.52659 10.6395 7.52566 10.6421C7.5247 10.6448 7.52309 10.6498 7.52117 10.658C7.51714 10.6751 7.51236 10.7033 7.50856 10.7498C7.50039 10.8498 7.5 10.9834 7.5 11.2017V15.3017C7.5 15.52 7.50039 15.6536 7.50856 15.7536C7.51236 15.8002 7.51714 15.8283 7.52117 15.8455C7.52309 15.8536 7.5247 15.8586 7.52566 15.8613L7.52659 15.8637L7.52725 15.8652C7.55122 15.9122 7.58946 15.9505 7.6365 15.9745L7.6404 15.976C7.6431 15.977 7.64811 15.9786 7.65625 15.9805C7.67336 15.9846 7.70154 15.9893 7.74812 15.9932C7.8481 16.0013 7.98173 16.0017 8.2 16.0017H8.3C8.51827 16.0017 8.6519 16.0013 8.75188 15.9932C8.79846 15.9893 8.82664 15.9846 8.84375 15.9805C8.85189 15.9786 8.8569 15.977 8.85961 15.976C8.86221 15.9751 8.8633 15.9746 8.8635 15.9745C8.91054 15.9505 8.94878 15.9122 8.97275 15.8652C8.97285 15.865 8.97341 15.8639 8.97434 15.8613C8.9746 15.8606 8.97491 15.8597 8.97526 15.8586C8.9762 15.8556 8.97743 15.8514 8.97883 15.8455C8.98286 15.8283 8.98764 15.8002 8.99144 15.7536C8.9994 15.6563 8.99998 15.527 9 15.3189ZM10 15.1916L10.0353 15.2092C10.6769 15.53 10.9562 15.6684 11.2456 15.7658C11.5093 15.8546 11.7807 15.9187 12.0563 15.9573C12.3586 15.9997 12.6704 16.0009 13.3877 16.001L13.7237 16.0011C14.1368 16.0012 14.4195 16.001 14.6414 15.9846C14.8569 15.9687 14.9799 15.9394 15.0752 15.898C15.2852 15.8069 15.4662 15.6599 15.5984 15.4729C15.6583 15.3881 15.7122 15.2737 15.7718 15.066C15.8332 14.8522 15.8913 14.5754 15.9757 14.1711L16.3127 12.5571C16.4006 12.1358 16.4595 11.8516 16.4857 11.6318C16.5113 11.4163 16.4973 11.3185 16.4773 11.2595C16.4196 11.0895 16.3028 10.9458 16.1482 10.8546C16.0945 10.8229 16.0017 10.7893 15.7854 10.7703C15.565 10.751 15.2747 10.7506 14.8444 10.7506H13.25C13.1002 10.7506 12.9583 10.6834 12.8633 10.5675C12.7683 10.4517 12.7303 10.2994 12.7597 10.1525L13.2155 7.87448C13.3033 7.43524 12.9789 7.02463 12.5373 7.00264L10 11.3852V15.1916Z" fill="#000"/>
<path fill-rule="evenodd" clip-rule="evenodd" d="M0.5 12C0.5 5.64873 5.64873 0.5 12 0.5C18.3513 0.5 23.5 5.64873 23.5 12C23.5 18.3513 18.3513 23.5 12 23.5C5.64873 23.5 0.5 18.3513 0.5 12ZM12 1.5C6.20101 1.5 1.5 6.20101 1.5 12C1.5 17.799 6.20101 22.5 12 22.5C17.799 22.5 22.5 17.799 22.5 12C22.5 6.20101 17.799 1.5 12 1.5Z" fill="#000"/>
</svg>
