<svg width="24" height="24" viewBox="0 0 24 24" fill="none" xmlns="http://www.w3.org/2000/svg">
<path opacity="0.4" d="M15.9189 2.56521L21.4273 8.07364C22.1841 8.83043 22.1841 10.0574 21.4273 10.8142C21.2941 10.9474 21.1422 11.0605 20.9764 11.1499L19.1411 12.1389C18.9661 12.2332 18.8786 12.2804 18.7934 12.3314C18.7176 12.3767 18.6432 12.4242 18.5703 12.474C18.4883 12.5299 18.4087 12.5896 18.2496 12.7088L18.0427 12.864C17.1176 13.5574 16.655 13.9041 16.3055 14.338C15.9958 14.7225 15.7523 15.156 15.585 15.6206C15.3963 16.1448 15.3409 16.7203 15.2299 17.871L15.202 18.1607C15.0866 19.3584 15.0288 19.9573 14.755 20.2374C14.5169 20.481 14.1802 20.6018 13.8415 20.5653C13.452 20.5234 13.0266 20.0979 12.1757 19.2471L4.74295 11.8143C3.89115 10.9625 3.46525 10.5366 3.42336 10.1469C3.38695 9.80807 3.50803 9.47129 3.75185 9.23323C4.0323 8.95942 4.63189 8.90222 5.83107 8.78783L6.11973 8.76029C7.27137 8.65044 7.8472 8.59551 8.37186 8.40714C8.83688 8.24019 9.27081 7.99686 9.65578 7.68716C10.0901 7.33773 10.4373 6.87507 11.1317 5.94974L11.2829 5.74823C11.4032 5.58789 11.4634 5.50772 11.5198 5.42502C11.5699 5.35151 11.6179 5.27651 11.6635 5.20013C11.7149 5.11419 11.7623 5.02592 11.8573 4.84939L12.843 3.01722C12.9325 2.85098 13.0457 2.6987 13.1792 2.56521C13.9358 1.80867 15.1624 1.80867 15.9189 2.56521Z" fill="#000"/>
<path fill-rule="evenodd" clip-rule="evenodd" d="M16.2746 2.21166C15.3228 1.25985 13.7796 1.25985 12.8278 2.21166C12.6598 2.3796 12.5173 2.57118 12.4048 2.78033L11.4191 4.6125C11.3221 4.79274 11.2807 4.86957 11.2364 4.94365C11.1959 5.01144 11.1534 5.078 11.1089 5.14323C11.0602 5.21452 11.0079 5.28442 10.8851 5.44813L10.7338 5.64964C10.0242 6.59533 9.71856 6.99664 9.34448 7.29758C9.00282 7.57243 8.61772 7.78839 8.20502 7.93655C7.75316 8.09878 7.25134 8.15028 6.07436 8.26256L5.76015 8.29253C5.18225 8.34765 4.71405 8.3923 4.35685 8.45932C4.00435 8.52546 3.65695 8.62916 3.40467 8.87547C3.05111 9.22067 2.87553 9.70902 2.92833 10.2003C2.96601 10.5509 3.16785 10.8521 3.39753 11.1275C3.63028 11.4066 3.96283 11.7392 4.37331 12.1496L7.75717 15.5335L1.64645 21.6442C1.45118 21.8395 1.45118 22.1561 1.64645 22.3513C1.84171 22.5466 2.15829 22.5466 2.35355 22.3513L8.46428 16.2406L11.8425 19.6188C12.2525 20.0288 12.5847 20.361 12.8636 20.5936C13.1388 20.8231 13.4397 21.0247 13.7901 21.0625C14.2811 21.1154 14.7693 20.9401 15.1146 20.587C15.3609 20.335 15.4649 19.988 15.5314 19.6359C15.5987 19.2791 15.6437 18.8114 15.6994 18.2342L15.7297 17.919C15.8431 16.7429 15.8951 16.2414 16.0576 15.79C16.206 15.3777 16.4221 14.9929 16.697 14.6517C16.998 14.278 17.3992 13.9727 18.3447 13.264L18.5516 13.1089C18.7141 12.9871 18.7834 12.9353 18.8541 12.8871C18.9189 12.8429 18.9849 12.8007 19.0521 12.7605C19.1255 12.7166 19.2018 12.6754 19.3804 12.5791L21.2157 11.59C21.4243 11.4776 21.6154 11.3353 21.783 11.1678C22.7351 10.2157 22.7351 8.67214 21.783 7.72009L16.2746 2.21166ZM13.5349 2.91877C14.0962 2.35748 15.0062 2.35748 15.5675 2.91877L21.0759 8.42719C21.6374 8.98872 21.6374 9.89914 21.0759 10.4607C20.9771 10.5595 20.8644 10.6434 20.7413 10.7097L18.895 11.7047C18.7304 11.7934 18.6337 11.8455 18.5388 11.9023C18.4546 11.9527 18.3718 12.0056 18.2907 12.0609C18.1993 12.1232 18.1114 12.1891 17.9617 12.3013L17.685 12.5088C16.8169 13.1594 16.3074 13.5413 15.9183 14.0243C15.5737 14.4522 15.3027 14.9344 15.1167 15.4513C14.9066 16.035 14.8455 16.6688 14.7415 17.7488L14.7064 18.1127C14.6478 18.7215 14.6066 19.1436 14.5487 19.4505C14.4889 19.7672 14.4271 19.8597 14.3996 19.8879C14.2686 20.0218 14.0835 20.0883 13.8972 20.0682C13.8581 20.064 13.7515 20.0319 13.504 19.8255C13.2641 19.6255 12.9639 19.326 12.5314 18.8935L5.09861 11.4607C4.66566 11.0278 4.36576 10.7272 4.16556 10.4871C3.95887 10.2392 3.92681 10.1326 3.92261 10.0934C3.90258 9.90712 3.96917 9.72191 4.10326 9.59099C4.13142 9.56349 4.22404 9.50169 4.54125 9.44217C4.84849 9.38453 5.27115 9.34371 5.88066 9.28557L6.24377 9.25094C7.32451 9.14792 7.95874 9.08747 8.54292 8.87773C9.06027 8.692 9.54301 8.42129 9.9713 8.07674C10.4549 7.68768 10.8373 7.17806 11.4888 6.30967L11.6925 6.03828C11.8056 5.88749 11.8721 5.79889 11.9349 5.7068C11.9907 5.62503 12.044 5.54159 12.0948 5.45661C12.152 5.36093 12.2044 5.26343 12.2937 5.09743L13.2855 3.25411C13.3518 3.13078 13.4358 3.0178 13.5349 2.91877Z" fill="#000"/>
</svg>
