<svg width="24" height="24" viewBox="0 0 24 24" fill="none" xmlns="http://www.w3.org/2000/svg">
<path opacity="0.4" fill-rule="evenodd" clip-rule="evenodd" d="M12 23C18.0751 23 23 18.0751 23 12C23 5.92487 18.0751 1 12 1C5.92487 1 1 5.92487 1 12C1 18.0751 5.92487 23 12 23ZM7.08175 13.5922C7 13.4318 7 13.2217 7 12.8017V8.70171C7 8.28167 7 8.07165 7.08175 7.91122C7.15365 7.7701 7.26839 7.65536 7.40951 7.58346C7.56994 7.50171 7.77996 7.50171 8.2 7.50171H8.3C8.72004 7.50171 8.93006 7.50171 9.09049 7.58346C9.23161 7.65536 9.34635 7.7701 9.41825 7.91122C9.5 8.07165 9.5 8.28167 9.5 8.70171V8.50283L9.81173 8.34697C10.4414 8.03215 10.7562 7.87473 11.0861 7.7637C11.3791 7.66509 11.6807 7.59387 11.9868 7.55096C12.3316 7.50263 12.6836 7.50255 13.3875 7.50239L13.7236 7.50231C14.535 7.50211 14.9407 7.50202 15.2742 7.64668C15.5682 7.77425 15.8216 7.98015 16.0067 8.24189C16.2165 8.53868 16.2994 8.93582 16.4652 9.7301L16.8021 11.3442C16.9743 12.169 17.0604 12.5815 16.9508 12.9046C16.8546 13.188 16.66 13.4274 16.4022 13.5795C16.1083 13.7529 15.687 13.7529 14.8444 13.7529H13.25L13.7057 16.0309C13.858 16.7918 13.276 17.5017 12.5 17.5017C12.3453 17.5022 12.2022 17.42 12.1247 17.2862L9.5 12.7526V12.8017C9.5 13.2217 9.5 13.4318 9.41825 13.5922C9.34635 13.7333 9.23161 13.8481 9.09049 13.92C8.93006 14.0017 8.72004 14.0017 8.3 14.0017H8.2C7.77996 14.0017 7.56994 14.0017 7.40951 13.92C7.26839 13.8481 7.15365 13.7333 7.08175 13.5922Z" fill="#000"/>
<path fill-rule="evenodd" clip-rule="evenodd" d="M8.18196 14.4983H8.31805C8.51258 14.4983 8.68766 14.4983 8.83332 14.4864C8.9893 14.4737 9.15504 14.4448 9.31749 14.362C9.4593 14.2898 9.58512 14.1916 9.68895 14.0734L11.692 17.5333C11.859 17.8217 12.1674 17.999 12.5007 17.9983C13.5919 17.9978 14.4101 16.9994 14.196 15.9293L13.8599 14.2494H14.8667C15.269 14.2495 15.6034 14.2495 15.8727 14.2259C16.1512 14.2015 16.416 14.1484 16.6563 14.0067C17.0171 13.7938 17.2896 13.4586 17.4243 13.0618C17.5139 12.7977 17.5117 12.5277 17.4787 12.25C17.4467 11.9815 17.3784 11.6543 17.2962 11.2605L16.9509 9.60635C16.8712 9.22465 16.8058 8.91154 16.733 8.65801C16.6573 8.3944 16.5648 8.16184 16.4149 7.94984C16.177 7.61331 15.8513 7.34859 15.4732 7.18457C15.235 7.08123 14.9884 7.03828 14.7149 7.01811C14.4518 6.99871 14.132 6.99879 13.7421 6.99888L13.3469 6.99898C12.6813 6.99911 12.2969 6.99919 11.9174 7.05238C11.5807 7.09959 11.249 7.17793 10.9267 7.2864C10.6219 7.38895 10.3308 7.52651 9.89326 7.744C9.88428 7.7229 9.87447 7.70182 9.86376 7.6808C9.74392 7.4456 9.55269 7.25438 9.31749 7.13453C9.15504 7.05176 8.9893 7.02291 8.83332 7.01017C8.68765 6.99827 8.51258 6.99828 8.31803 6.99829H8.18197C7.98742 6.99828 7.81235 6.99827 7.66669 7.01017C7.5107 7.02291 7.34496 7.05176 7.18251 7.13453C6.94731 7.25438 6.75609 7.4456 6.63624 7.6808C6.55347 7.84325 6.52462 8.00899 6.51188 8.16498C6.49998 8.31063 6.49999 8.4857 6.5 8.68025V12.8163C6.49999 13.0109 6.49998 13.1859 6.51188 13.3316C6.52462 13.4876 6.55347 13.6533 6.63624 13.8158C6.75608 14.051 6.94731 14.2422 7.18251 14.362C7.34496 14.4448 7.5107 14.4737 7.66669 14.4864C7.81234 14.4983 7.98742 14.4983 8.18196 14.4983ZM9 8.68115C9 8.6868 9 8.69252 9 8.69829L9 12.7491C9 12.7488 9 12.7495 9 12.7491L9 12.7983C9 13.0166 8.99961 13.1502 8.99144 13.2502C8.98764 13.2967 8.98286 13.3249 8.97883 13.342C8.97691 13.3502 8.9753 13.3552 8.97434 13.3579C8.97341 13.3605 8.97286 13.3616 8.97275 13.3618C8.94878 13.4088 8.91054 13.4471 8.8635 13.471C8.8633 13.4711 8.86221 13.4717 8.85961 13.4726C8.8569 13.4736 8.85189 13.4752 8.84375 13.4771C8.82664 13.4811 8.79846 13.4859 8.75188 13.4897C8.6519 13.4979 8.51827 13.4983 8.3 13.4983H8.2C7.98173 13.4983 7.8481 13.4979 7.74812 13.4897C7.70154 13.4859 7.67336 13.4811 7.65625 13.4771C7.65181 13.4761 7.6483 13.4751 7.64559 13.4743C7.64333 13.4736 7.64163 13.4731 7.6404 13.4726L7.63676 13.4712C7.58972 13.4472 7.55122 13.4088 7.52725 13.3618C7.52715 13.3616 7.52659 13.3605 7.52566 13.3579C7.5247 13.3552 7.52309 13.3502 7.52117 13.342C7.51714 13.3249 7.51236 13.2967 7.50856 13.2502C7.50039 13.1502 7.5 13.0166 7.5 12.7983V8.69829C7.5 8.48002 7.50039 8.34639 7.50856 8.24641C7.51236 8.19983 7.51714 8.17165 7.52117 8.15454C7.52309 8.1464 7.5247 8.14139 7.52566 8.13869L7.52659 8.13626L7.52725 8.13479C7.55122 8.08775 7.58946 8.04951 7.6365 8.02554L7.6404 8.02395C7.6431 8.02299 7.64811 8.02138 7.65625 8.01946C7.67336 8.01543 7.70154 8.01065 7.74812 8.00685C7.8481 7.99868 7.98173 7.99829 8.2 7.99829H8.3C8.51827 7.99829 8.6519 7.99868 8.75188 8.00685C8.79846 8.01065 8.82664 8.01543 8.84375 8.01946C8.85189 8.02138 8.8569 8.02299 8.85961 8.02395C8.86221 8.02488 8.8633 8.02544 8.8635 8.02554C8.91054 8.04951 8.94878 8.08775 8.97275 8.13479C8.97285 8.13499 8.97341 8.13609 8.97434 8.13869C8.9746 8.13942 8.97491 8.14033 8.97526 8.14143C8.9762 8.14435 8.97743 8.14862 8.97883 8.15454C8.98286 8.17165 8.98764 8.19983 8.99144 8.24641C8.9994 8.34375 8.99998 8.47297 9 8.68115ZM10 8.80843L10.0353 8.79076C10.6769 8.46997 10.9562 8.33156 11.2456 8.23417C11.5093 8.14542 11.7807 8.08132 12.0563 8.0427C12.3586 8.00031 12.6704 7.99914 13.3877 7.99897L13.7237 7.99889C14.1368 7.99879 14.4195 7.99904 14.6414 8.0154C14.8569 8.0313 14.9799 8.06063 15.0752 8.10195C15.2852 8.19308 15.4662 8.34015 15.5984 8.52711C15.6583 8.6119 15.7122 8.72631 15.7718 8.93404C15.8332 9.14783 15.8913 9.42455 15.9757 9.82887L16.3127 11.4429C16.4006 11.8642 16.4595 12.1484 16.4857 12.3682C16.5113 12.5837 16.4973 12.6815 16.4773 12.7405C16.4196 12.9105 16.3028 13.0542 16.1482 13.1454C16.0945 13.1771 16.0017 13.2107 15.7854 13.2297C15.565 13.249 15.2747 13.2494 14.8444 13.2494H13.25C13.1002 13.2494 12.9583 13.3166 12.8633 13.4325C12.7683 13.5483 12.7303 13.7006 12.7597 13.8475L13.2155 16.1255C13.3033 16.5648 12.9789 16.9754 12.5373 16.9974L10 12.6148V8.80843Z" fill="#000"/>
<path fill-rule="evenodd" clip-rule="evenodd" d="M0.5 12C0.5 5.64873 5.64873 0.5 12 0.5C18.3513 0.5 23.5 5.64873 23.5 12C23.5 18.3513 18.3513 23.5 12 23.5C5.64873 23.5 0.5 18.3513 0.5 12ZM12 1.5C6.20101 1.5 1.5 6.20101 1.5 12C1.5 17.799 6.20101 22.5 12 22.5C17.799 22.5 22.5 17.799 22.5 12C22.5 6.20101 17.799 1.5 12 1.5Z" fill="#000"/>
</svg>
