<svg width="24" height="24" viewBox="0 0 24 24" fill="none" xmlns="http://www.w3.org/2000/svg">
<path opacity="0.4" d="M1.5 9.1C1.5 7.13982 1.5 6.15972 1.88148 5.41103C2.21703 4.75247 2.75247 4.21703 3.41103 3.88148C4.15972 3.5 5.13982 3.5 7.1 3.5H16.9C18.8602 3.5 19.8403 3.5 20.589 3.88148C21.2475 4.21703 21.783 4.75247 22.1185 5.41103C22.5 6.15972 22.5 7.13982 22.5 9.1V9.26121C21.0984 9.38752 20 10.5655 20 12C20 13.4345 21.0984 14.6125 22.5 14.7388V14.9C22.5 16.8602 22.5 17.8403 22.1185 18.589C21.783 19.2475 21.2475 19.783 20.589 20.1185C19.8403 20.5 18.8602 20.5 16.9 20.5H7.1C5.13982 20.5 4.15972 20.5 3.41103 20.1185C2.75247 19.783 2.21703 19.2475 1.88148 18.589C1.5 17.8403 1.5 16.8602 1.5 14.9V14.7388C2.90163 14.6125 4 13.4345 4 12C4 10.5655 2.90163 9.38752 1.5 9.26121V9.1Z" fill="#000"/>
<path d="M15.5 10C15.5 9.72386 15.2761 9.5 15 9.5C14.7239 9.5 14.5 9.72386 14.5 10V14C14.5 14.2761 14.7239 14.5 15 14.5C15.2761 14.5 15.5 14.2761 15.5 14V10Z" fill="#000"/>
<path fill-rule="evenodd" clip-rule="evenodd" d="M7.07755 3C6.11647 3 5.36451 2.99999 4.76049 3.04935C4.14594 3.09956 3.64062 3.20334 3.18404 3.43597C2.43139 3.81947 1.81947 4.43139 1.43597 5.18404C1.20334 5.64062 1.09956 6.14594 1.04935 6.76049C0.999995 7.36451 0.999997 8.11646 1 9.07755V9.26121C1 9.51996 1.19742 9.73597 1.45512 9.75919C2.60138 9.86249 3.5 10.8266 3.5 12C3.5 13.1734 2.60138 14.1375 1.45512 14.2408C1.19742 14.264 1 14.48 1 14.7388V14.9224C0.999997 15.8835 0.999995 16.6355 1.04935 17.2395C1.09956 17.8541 1.20334 18.3594 1.43597 18.816C1.81947 19.5686 2.43139 20.1805 3.18404 20.564C3.64062 20.7967 4.14594 20.9004 4.76049 20.9507C5.36451 21 6.11646 21 7.07754 21H16.9225C17.8835 21 18.6355 21 19.2395 20.9507C19.8541 20.9004 20.3594 20.7967 20.816 20.564C21.5686 20.1805 22.1805 19.5686 22.564 18.816C22.7967 18.3594 22.9004 17.8541 22.9507 17.2395C23 16.6355 23 15.8835 23 14.9225V14.7388C23 14.48 22.8026 14.264 22.5449 14.2408C21.3986 14.1375 20.5 13.1734 20.5 12C20.5 10.8266 21.3986 9.86249 22.5449 9.75919C22.8026 9.73597 23 9.51996 23 9.26121V9.07754C23 8.11646 23 7.36451 22.9507 6.76049C22.9004 6.14594 22.7967 5.64062 22.564 5.18404C22.1805 4.43139 21.5686 3.81947 20.816 3.43597C20.3594 3.20334 19.8541 3.09956 19.2395 3.04935C18.6355 2.99999 17.8835 3 16.9225 3H7.07755ZM14.5 4H7.1C6.11166 4 5.40047 4.00039 4.84192 4.04602C4.28921 4.09118 3.93014 4.17814 3.63803 4.32698C3.07354 4.6146 2.6146 5.07354 2.32698 5.63803C2.17814 5.93014 2.09118 6.28921 2.04602 6.84192C2.00454 7.34966 2.00045 7.98353 2.00004 8.83707C3.43355 9.17582 4.5 10.4631 4.5 12C4.5 13.5369 3.43355 14.8242 2.00004 15.1629C2.00045 16.0165 2.00454 16.6503 2.04602 17.1581C2.09118 17.7108 2.17814 18.0699 2.32698 18.362C2.6146 18.9265 3.07354 19.3854 3.63803 19.673C3.93014 19.8219 4.28921 19.9088 4.84192 19.954C5.40047 19.9996 6.11166 20 7.1 20H14.5V17.5C14.5 17.2239 14.7239 17 15 17C15.2761 17 15.5 17.2239 15.5 17.5V20H16.9C17.8883 20 18.5995 19.9996 19.1581 19.954C19.7108 19.9088 20.0699 19.8219 20.362 19.673C20.9265 19.3854 21.3854 18.9265 21.673 18.362C21.8219 18.0699 21.9088 17.7108 21.954 17.1581C21.9955 16.6503 21.9996 16.0165 22 15.1629C20.5665 14.8242 19.5 13.5369 19.5 12C19.5 10.4631 20.5665 9.17582 22 8.83707C21.9996 7.98353 21.9955 7.34966 21.954 6.84192C21.9088 6.28921 21.8219 5.93014 21.673 5.63803C21.3854 5.07354 20.9265 4.6146 20.362 4.32698C20.0699 4.17814 19.7108 4.09118 19.1581 4.04602C18.5995 4.00039 17.8883 4 16.9 4H15.5V6.5C15.5 6.77614 15.2761 7 15 7C14.7239 7 14.5 6.77614 14.5 6.5V4Z" fill="#000"/>
</svg>
