<svg width="24" height="24" viewBox="0 0 24 24" fill="none" xmlns="http://www.w3.org/2000/svg">
<path opacity="0.4" d="M12 1.5C17.799 1.5 22.5 6.20101 22.5 12C22.5 17.799 17.799 22.5 12 22.5C6.20101 22.5 1.5 17.799 1.5 12C1.5 6.20101 6.20101 1.5 12 1.5Z" fill="#000"/>
<path d="M12 2.5C14.1392 2.5 16.112 3.20648 17.6997 4.39907C18.3472 4.88541 19.0711 5.6069 19.7047 6.33867C20.0576 6.74632 20.3736 7.14673 20.627 7.5H16.5C16.2239 7.5 16 7.72386 16 8C16 8.27614 16.2239 8.5 16.5 8.5H21.5328C21.5394 8.50013 21.5459 8.50013 21.5524 8.5H22C22.2761 8.5 22.5 8.27614 22.5 8V2.5C22.5 2.22386 22.2761 2 22 2C21.7239 2 21.5 2.22386 21.5 2.5V7.00222C21.2105 6.59147 20.8511 6.13501 20.4607 5.6841C19.802 4.92335 19.0259 4.14448 18.3003 3.5995C16.5454 2.28131 14.3632 1.5 12 1.5C6.20101 1.5 1.5 6.20101 1.5 12C1.5 17.799 6.20101 22.5 12 22.5C16.7023 22.5 20.6814 19.4093 22.0192 15.1498C22.102 14.8864 21.9555 14.6057 21.692 14.523C21.4286 14.4402 21.1479 14.5867 21.0652 14.8502C19.8545 18.7049 16.253 21.5 12 21.5C6.75329 21.5 2.5 17.2467 2.5 12C2.5 6.75329 6.75329 2.5 12 2.5Z" fill="#000"/>
<path d="M12.5 7C12.5 6.72386 12.2761 6.5 12 6.5C11.7239 6.5 11.5 6.72386 11.5 7V12C11.5 12.1724 11.5888 12.3326 11.735 12.424L14.935 14.424C15.1692 14.5704 15.4776 14.4992 15.624 14.265C15.7704 14.0308 15.6992 13.7224 15.465 13.576L12.5 11.7229V7Z" fill="#000"/>
</svg>
