<svg width="24" height="24" viewBox="0 0 24 24" fill="none" xmlns="http://www.w3.org/2000/svg">
<path opacity="0.4" d="M12 10.5C12.8284 10.5 13.5 9.82843 13.5 9C13.5 8.17157 12.8284 7.5 12 7.5C11.1716 7.5 10.5 8.17157 10.5 9C10.5 9.82843 11.1716 10.5 12 10.5Z" fill="#000"/>
<path d="M21.5 8.99907C21.5 6.44086 20.4244 4.10612 18.6507 2.3559C18.4541 2.16194 18.452 1.84537 18.646 1.64881C18.8399 1.45225 19.1565 1.45014 19.3531 1.6441C21.3002 3.5655 22.5 6.15042 22.5 8.99907C22.5 11.8487 21.2994 14.4344 19.3511 16.356C19.1545 16.5499 18.8379 16.5477 18.644 16.3511C18.4501 16.1545 18.4523 15.8379 18.6489 15.644C20.4236 13.8936 21.5 11.5582 21.5 8.99907Z" fill="#000"/>
<path fill-rule="evenodd" clip-rule="evenodd" d="M11.5 10.937C10.6374 10.715 10 9.93192 10 9C10 7.89543 10.8954 7 12 7C13.1046 7 14 7.89543 14 9C14 9.93192 13.3626 10.715 12.5 10.937V22C12.5 22.2761 12.2761 22.5 12 22.5C11.7239 22.5 11.5 22.2761 11.5 22V10.937ZM12 8C11.4477 8 11 8.44772 11 9C11 9.55228 11.4477 10 12 10C12.5523 10 13 9.55228 13 9C13 8.44772 12.5523 8 12 8Z" fill="#000"/>
<path d="M15.6468 5.85873C16.484 6.6716 16.9951 7.78049 16.9951 9C16.9951 10.2195 16.484 11.3284 15.6468 12.1413C15.4487 12.3336 15.444 12.6502 15.6364 12.8483C15.8287 13.0464 16.1453 13.0511 16.3434 12.8587C17.3615 11.8702 17.9951 10.5075 17.9951 9C17.9951 7.49245 17.3615 6.12975 16.3434 5.14127C16.1453 4.94891 15.8287 4.95358 15.6364 5.1517C15.444 5.34982 15.4487 5.66637 15.6468 5.85873Z" fill="#000"/>
<path d="M2.5 8.99907C2.5 6.44086 3.57563 4.10612 5.34931 2.3559C5.54587 2.16194 5.54798 1.84537 5.35402 1.64881C5.16007 1.45225 4.84349 1.45014 4.64693 1.6441C2.69977 3.5655 1.5 6.15042 1.5 8.99907C1.5 11.8487 2.70058 14.4344 4.6489 16.356C4.8455 16.5499 5.16208 16.5477 5.35599 16.3511C5.5499 16.1545 5.54771 15.8379 5.3511 15.644C3.57635 13.8936 2.5 11.5582 2.5 8.99907Z" fill="#000"/>
<path d="M8.35318 5.85873C7.51596 6.6716 7.00488 7.78049 7.00488 9C7.00488 10.2195 7.51596 11.3284 8.35318 12.1413C8.5513 12.3336 8.55597 12.6502 8.36361 12.8483C8.17125 13.0464 7.85471 13.0511 7.65658 12.8587C6.63849 11.8702 6.00488 10.5075 6.00488 9C6.00488 7.49245 6.63849 6.12975 7.65658 5.14127C7.85471 4.94891 8.17125 4.95358 8.36361 5.1517C8.55597 5.34982 8.5513 5.66637 8.35318 5.85873Z" fill="#000"/>
</svg>
