<svg width="24" height="24" viewBox="0 0 24 24" fill="none" xmlns="http://www.w3.org/2000/svg">
<path opacity="0.4" d="M21.4608 19.1297C21.4996 18.6545 21.5 18.0483 21.5 17.2V14C21.5 13.7239 21.7239 13.5 22 13.5C22.2761 13.5 22.5 13.7239 22.5 14V17.2222C22.5 18.0435 22.5 18.6905 22.4575 19.2111C22.4141 19.7423 22.3239 20.1859 22.1185 20.589C21.783 21.2475 21.2475 21.783 20.589 22.1185C20.1859 22.3239 19.7423 22.4141 19.2111 22.4575C18.6905 22.5 18.0435 22.5 17.2222 22.5L6.77778 22.5C5.95651 22.5 5.30954 22.5 4.78889 22.4575C4.25771 22.4141 3.81413 22.3239 3.41103 22.1185C2.75247 21.783 2.21703 21.2475 1.88148 20.589C1.67609 20.1859 1.58593 19.7423 1.54253 19.2111C1.49999 18.6905 1.5 18.0435 1.5 17.2222L1.5 14C1.5 13.7239 1.72386 13.5 2 13.5C2.27614 13.5 2.5 13.7239 2.5 14L2.5 17.2C2.5 18.0483 2.50039 18.6545 2.53921 19.1297C2.57756 19.599 2.65089 19.8963 2.77248 20.135C3.01217 20.6054 3.39462 20.9878 3.86502 21.2275C4.10366 21.3491 4.40099 21.4224 4.87032 21.4608C5.3455 21.4996 5.95167 21.5 6.8 21.5L17.2 21.5C18.0483 21.5 18.6545 21.4996 19.1297 21.4608C19.599 21.4224 19.8963 21.3491 20.135 21.2275C20.6054 20.9878 20.9878 20.6054 21.2275 20.135C21.3491 19.8963 21.4224 19.599 21.4608 19.1297Z" fill="#000"/>
<path d="M17.3536 6.64645C17.5488 6.84171 17.5488 7.15829 17.3536 7.35355C17.1583 7.54882 16.8417 7.54882 16.6464 7.35355L12.5 3.20711L12.5 15C12.5 15.2761 12.2761 15.5 12 15.5C11.7239 15.5 11.5 15.2761 11.5 15L11.5 3.20711L7.35355 7.35355C7.15829 7.54882 6.84171 7.54882 6.64645 7.35355C6.45118 7.15829 6.45118 6.84171 6.64645 6.64645L11.6464 1.64645C11.7402 1.55268 11.8674 1.5 12 1.5C12.1326 1.5 12.2598 1.55268 12.3536 1.64645L17.3536 6.64645Z" fill="#000"/>
</svg>
