<svg width="24" height="24" viewBox="0 0 24 24" fill="none" xmlns="http://www.w3.org/2000/svg">
<g opacity="0.4">
<path d="M12 12C14.4853 12 16.5 9.98528 16.5 7.5C16.5 5.01472 14.4853 3 12 3C9.51472 3 7.5 5.01472 7.5 7.5C7.5 9.98528 9.51472 12 12 12Z" fill="#000"/>
<path d="M3.50503 20.9293C4.0495 17.118 7.823 14.5 12.0005 14.5C16.178 14.5 19.9505 17.118 20.495 20.9293C20.5155 21.0728 20.4727 21.2181 20.3777 21.3276C20.2828 21.4371 20.1449 21.5 20 21.5H4C3.85506 21.5 3.71724 21.4371 3.62228 21.3276C3.52731 21.2181 3.48453 21.0728 3.50503 20.9293Z" fill="#000"/>
</g>
<path fill-rule="evenodd" clip-rule="evenodd" d="M12.0001 2.5C9.23864 2.5 7.00006 4.73858 7.00006 7.5C7.00006 10.2614 9.23864 12.5 12.0001 12.5C14.7615 12.5 17.0001 10.2614 17.0001 7.5C17.0001 4.73858 14.7615 2.5 12.0001 2.5ZM8.00006 7.5C8.00006 5.29086 9.79092 3.5 12.0001 3.5C14.2092 3.5 16.0001 5.29086 16.0001 7.5C16.0001 9.70914 14.2092 11.5 12.0001 11.5C9.79092 11.5 8.00006 9.70914 8.00006 7.5Z" fill="#000"/>
<path d="M4.49504 21.0707C4.95057 17.882 8.17707 15.5 12.0005 15.5C15.8239 15.5 19.0496 17.882 19.5051 21.0707C19.5441 21.3441 19.7974 21.534 20.0708 21.495C20.3441 21.4559 20.5341 21.2027 20.495 20.9293C19.9506 17.118 16.1781 14.5 12.0005 14.5C7.82306 14.5 4.04956 17.118 3.50509 20.9293C3.46604 21.2027 3.65599 21.4559 3.92935 21.495C4.20272 21.534 4.45599 21.3441 4.49504 21.0707Z" fill="#000"/>
</svg>
