<svg width="24" height="24" viewBox="0 0 24 24" fill="none" xmlns="http://www.w3.org/2000/svg">
<path opacity="0.4" fill-rule="evenodd" clip-rule="evenodd" d="M18.6323 20.7765C21.2857 18.7682 23 15.5843 23 12C23 5.92487 18.0751 1 12 1C5.92487 1 1 5.92487 1 12C1 17.6954 5.3285 22.3799 10.8753 22.9432C8.81933 22.7344 6.93074 21.9594 5.36792 20.7765C6.68059 18.4109 9.57505 17 11.9999 17C14.4247 17 17.3196 18.4109 18.6323 20.7765ZM14.9995 10.5007C14.9995 12.1579 13.6564 13.5014 11.9995 13.5014C10.3427 13.5014 8.99951 12.1579 8.99951 10.5007C8.99951 8.84346 10.3427 7.5 11.9995 7.5C13.6564 7.5 14.9995 8.84346 14.9995 10.5007Z" fill="#000"/>
<path fill-rule="evenodd" clip-rule="evenodd" d="M11.9996 7C10.0665 7 8.4996 8.56743 8.4996 10.5007C8.4996 12.434 10.0665 14.0014 11.9996 14.0014C13.9327 14.0014 15.4996 12.434 15.4996 10.5007C15.4996 8.56743 13.9327 7 11.9996 7ZM9.4996 10.5007C9.4996 9.11949 10.619 8 11.9996 8C13.3802 8 14.4996 9.11949 14.4996 10.5007C14.4996 11.8819 13.3802 13.0014 11.9996 13.0014C10.619 13.0014 9.4996 11.8819 9.4996 10.5007Z" fill="#000"/>
<path fill-rule="evenodd" clip-rule="evenodd" d="M12 23.5C14.6008 23.5 16.9999 22.6367 18.9264 21.1809C18.9319 21.1769 18.9374 21.1728 18.9426 21.1687C21.7116 19.0687 23.5 15.7432 23.5 12C23.5 5.64873 18.3513 0.5 12 0.5C5.64873 0.5 0.5 5.64873 0.5 12C0.5 18.3513 5.64873 23.5 12 23.5ZM12 1.5C6.20101 1.5 1.5 6.20101 1.5 12C1.5 15.2233 2.95242 18.1074 5.2385 20.0335C6.75625 17.7936 9.59392 16.5 11.9999 16.5C14.4058 16.5 17.2438 17.7936 18.7616 20.0334C21.0476 18.1073 22.5 15.2233 22.5 12C22.5 6.20101 17.799 1.5 12 1.5ZM12 22.5C9.78423 22.5 7.72876 21.8137 6.03459 20.642C7.33549 18.6818 9.8638 17.5 11.9999 17.5C14.1359 17.5 16.6646 18.6817 17.9655 20.6419C16.2714 21.8136 14.2158 22.5 12 22.5Z" fill="#000"/>
</svg>
