<svg width="24" height="24" viewBox="0 0 24 24" fill="none" xmlns="http://www.w3.org/2000/svg">
<path opacity="0.4" d="M11.9994 6.5C10.3428 6.5 9 7.84326 9 9.5C9 11.1567 10.3428 12.5 11.9994 12.5C13.6561 12.5 14.9988 11.1567 14.9988 9.5C14.9988 7.84326 13.6561 6.5 11.9994 6.5Z" fill="#000"/>
<path d="M7.17767 1.5H8C8.27614 1.5 8.5 1.72386 8.5 2C8.5 2.27614 8.27614 2.5 8 2.5H7.2C6.28166 2.5 5.62298 2.50039 5.10612 2.54262C4.5951 2.58437 4.2669 2.66452 4.00153 2.79973C3.48408 3.06338 3.06338 3.48408 2.79973 4.00153C2.66452 4.2669 2.58437 4.5951 2.54262 5.10612C2.50039 5.62298 2.5 6.28166 2.5 7.2V8C2.5 8.27614 2.27614 8.5 2 8.5C1.72386 8.5 1.5 8.27614 1.5 8V7.17767C1.5 6.28649 1.49999 5.58703 1.54594 5.02469C1.59274 4.45183 1.68971 3.97738 1.90873 3.54754C2.26825 2.84193 2.84193 2.26825 3.54754 1.90873C3.97738 1.68971 4.45183 1.59274 5.02469 1.54594C5.58703 1.49999 6.28649 1.5 7.17767 1.5Z" fill="#000"/>
<path d="M18.8939 2.54262C18.377 2.50039 17.7183 2.5 16.8 2.5H16C15.7239 2.5 15.5 2.27614 15.5 2C15.5 1.72386 15.7239 1.5 16 1.5H16.8223C17.7135 1.5 18.413 1.49999 18.9753 1.54594C19.5482 1.59274 20.0226 1.68971 20.4525 1.90873C21.1581 2.26825 21.7317 2.84193 22.0913 3.54754C22.3103 3.97738 22.4073 4.45183 22.4541 5.02469C22.5 5.58703 22.5 6.28648 22.5 7.17765V8C22.5 8.27614 22.2761 8.5 22 8.5C21.7239 8.5 21.5 8.27614 21.5 8V7.2C21.5 6.28166 21.4996 5.62298 21.4574 5.10612C21.4156 4.5951 21.3355 4.2669 21.2003 4.00153C20.9366 3.48408 20.5159 3.06338 19.9985 2.79973C19.7331 2.66452 19.4049 2.58437 18.8939 2.54262Z" fill="#000"/>
<path d="M2 15.5C2.27614 15.5 2.5 15.7239 2.5 16V16.8C2.5 17.7183 2.50039 18.377 2.54262 18.8939C2.58437 19.4049 2.66452 19.7331 2.79973 19.9985C3.06338 20.5159 3.48408 20.9366 4.00153 21.2003C4.2669 21.3355 4.5951 21.4156 5.10612 21.4574C5.62298 21.4996 6.28166 21.5 7.2 21.5H8C8.27614 21.5 8.5 21.7239 8.5 22C8.5 22.2761 8.27614 22.5 8 22.5H7.17765C6.28648 22.5 5.58703 22.5 5.02469 22.4541C4.45183 22.4073 3.97738 22.3103 3.54754 22.0913C2.84193 21.7317 2.26825 21.1581 1.90873 20.4525C1.68971 20.0226 1.59274 19.5482 1.54594 18.9753C1.49999 18.413 1.5 17.7135 1.5 16.8223V16C1.5 15.7239 1.72386 15.5 2 15.5Z" fill="#000"/>
<path d="M22 15.5C22.2761 15.5 22.5 15.7239 22.5 16V16.8223C22.5 17.7135 22.5 18.413 22.4541 18.9753C22.4073 19.5482 22.3103 20.0226 22.0913 20.4525C21.7317 21.1581 21.1581 21.7317 20.4525 22.0913C20.0226 22.3103 19.5482 22.4073 18.9753 22.4541C18.413 22.5 17.7135 22.5 16.8223 22.5H16C15.7239 22.5 15.5 22.2761 15.5 22C15.5 21.7239 15.7239 21.5 16 21.5H16.8C17.7183 21.5 18.377 21.4996 18.8939 21.4574C19.4049 21.4156 19.7331 21.3355 19.9985 21.2003C20.5159 20.9366 20.9366 20.5159 21.2003 19.9985C21.3355 19.7331 21.4156 19.4049 21.4574 18.8939C21.4996 18.377 21.5 17.7183 21.5 16.8V16C21.5 15.7239 21.7239 15.5 22 15.5Z" fill="#000"/>
<path fill-rule="evenodd" clip-rule="evenodd" d="M9 9.5C9 7.84326 10.3428 6.5 11.9994 6.5C13.6561 6.5 14.9988 7.84326 14.9988 9.5C14.9988 11.1567 13.6561 12.5 11.9994 12.5C10.3428 12.5 9 11.1567 9 9.5ZM11.9994 7.5C10.8953 7.5 10 8.39532 10 9.5C10 10.6047 10.8953 11.5 11.9994 11.5C13.1036 11.5 13.9988 10.6047 13.9988 9.5C13.9988 8.39532 13.1036 7.5 11.9994 7.5Z" fill="#000"/>
<path d="M7.40865 17.2882C8.43534 15.8323 10.2101 15 12 15C13.79 15 15.5647 15.8323 16.5914 17.2882C16.7506 17.5138 17.0625 17.5678 17.2882 17.4086C17.5139 17.2495 17.5678 16.9375 17.4087 16.7118C16.1754 14.963 14.0802 14 12 14C9.91993 14 7.82471 14.963 6.59143 16.7118C6.43228 16.9375 6.48621 17.2495 6.71188 17.4086C6.93755 17.5678 7.24951 17.5138 7.40865 17.2882Z" fill="#000"/>
</svg>
