<svg width="24" height="24" viewBox="0 0 24 24" fill="none" xmlns="http://www.w3.org/2000/svg">
<g opacity="0.4">
<path d="M10 11C12.4853 11 14.5 8.98528 14.5 6.5C14.5 4.01472 12.4853 2 10 2C7.51472 2 5.5 4.01472 5.5 6.5C5.5 8.98528 7.51472 11 10 11Z" fill="#000"/>
<path d="M10.0005 13.5C11.6646 13.5 13.2644 13.9154 14.6215 14.6562L11.7136 17.565C11.5144 17.7641 11.3754 18.0154 11.3124 18.2899L10.8051 20.5H2C1.85506 20.5 1.71724 20.4371 1.62228 20.3276C1.52731 20.2181 1.48453 20.0728 1.50503 19.9293C2.0495 16.118 5.823 13.5 10.0005 13.5Z" fill="#000"/>
</g>
<path fill-rule="evenodd" clip-rule="evenodd" d="M10 1.5C7.23858 1.5 5 3.73858 5 6.5C5 9.26142 7.23858 11.5 10 11.5C12.7614 11.5 15 9.26142 15 6.5C15 3.73858 12.7614 1.5 10 1.5ZM6 6.5C6 4.29086 7.79086 2.5 10 2.5C12.2091 2.5 14 4.29086 14 6.5C14 8.70914 12.2091 10.5 10 10.5C7.79086 10.5 6 8.70914 6 6.5Z" fill="#000"/>
<path d="M10.0005 13.5C11.6646 13.5 13.2644 13.9154 14.6215 14.6562L13.8826 15.3953C12.7431 14.8249 11.4126 14.5 10.0005 14.5C6.17707 14.5 2.95057 16.882 2.49504 20.0707C2.45599 20.3441 2.20272 20.534 1.92935 20.495C1.65599 20.4559 1.46604 20.2027 1.50509 19.9293C2.04956 16.118 5.82306 13.5 10.0005 13.5Z" fill="#000"/>
<path fill-rule="evenodd" clip-rule="evenodd" d="M18.8777 11.8592C19.5639 11.3819 20.4746 11.3817 21.161 11.8587C21.3083 11.9611 21.4498 12.1026 21.6406 12.2935L21.7067 12.3595C21.8977 12.5503 22.0394 12.6918 22.1418 12.839C22.6193 13.5253 22.6195 14.4363 22.1423 15.1228C22.0399 15.2701 21.8983 15.4116 21.7073 15.6025L15.7309 21.58C15.6644 21.6465 15.5806 21.6929 15.4889 21.7139L12.1118 22.4873C11.944 22.5258 11.7682 22.4752 11.6465 22.3534C11.5248 22.2317 11.4743 22.0559 11.5128 21.8881L12.2871 18.5147C12.3081 18.4232 12.3545 18.3395 12.4209 18.2731L18.3983 12.2941C18.589 12.1032 18.7305 11.9616 18.8777 11.8592ZM20.5904 12.6799C20.2471 12.4414 19.7918 12.4415 19.4487 12.6802C19.3847 12.7246 19.3108 12.7958 19.0724 13.0342L18.417 13.6898L20.3115 15.5842L20.9671 14.9285C21.2056 14.69 21.2767 14.616 21.3212 14.552C21.5598 14.2088 21.5597 13.7533 21.321 13.4101C21.2765 13.3462 21.2053 13.2722 20.9668 13.0338C20.7283 12.7955 20.6543 12.7244 20.5904 12.6799ZM19.6044 16.2914L17.71 14.397L13.2296 18.8785L12.6659 21.3345L15.1254 20.7712L19.6044 16.2914Z" fill="#000"/>
</svg>
