<svg width="24" height="24" viewBox="0 0 24 24" fill="none" xmlns="http://www.w3.org/2000/svg">
<g opacity="0.4">
<path d="M10 11C12.4853 11 14.5 8.98528 14.5 6.5C14.5 4.01472 12.4853 2 10 2C7.51472 2 5.5 4.01472 5.5 6.5C5.5 8.98528 7.51472 11 10 11Z" fill="#000"/>
<path d="M10.5 17C10.5 15.7564 10.8492 14.5944 11.455 13.6066C10.9789 13.5363 10.4925 13.5 10.0005 13.5C5.823 13.5 2.0495 16.118 1.50503 19.9293C1.48453 20.0728 1.52731 20.2181 1.62228 20.3276C1.71724 20.4371 1.85506 20.5 2 20.5H11.5218C10.875 19.4897 10.5 18.2886 10.5 17Z" fill="#000"/>
</g>
<path fill-rule="evenodd" clip-rule="evenodd" d="M5 6.5C5 3.73858 7.23858 1.5 10 1.5C12.7614 1.5 15 3.73858 15 6.5C15 9.26142 12.7614 11.5 10 11.5C7.23858 11.5 5 9.26142 5 6.5ZM10 2.5C7.79086 2.5 6 4.29086 6 6.5C6 8.70914 7.79086 10.5 10 10.5C12.2091 10.5 14 8.70914 14 6.5C14 4.29086 12.2091 2.5 10 2.5Z" fill="#000"/>
<path d="M11.455 13.6066C10.9788 13.5363 10.4925 13.5 10.0005 13.5C5.82306 13.5 2.04956 16.118 1.50509 19.9293C1.46604 20.2027 1.65599 20.4559 1.92935 20.495C2.20272 20.534 2.45599 20.3441 2.49504 20.0707C2.95057 16.882 6.17707 14.5 10.0005 14.5C10.3308 14.5 10.6566 14.5178 10.9766 14.5523C11.1106 14.2227 11.271 13.9066 11.455 13.6066Z" fill="#000"/>
<path fill-rule="evenodd" clip-rule="evenodd" d="M22.5001 17C22.5001 13.9624 20.0377 11.5 17.0001 11.5C13.9626 11.5 11.5001 13.9624 11.5001 17C11.5001 20.0376 13.9626 22.5 17.0001 22.5C20.0377 22.5 22.5001 20.0376 22.5001 17ZM17.0001 12.5C19.4854 12.5 21.5001 14.5147 21.5001 17C21.5001 18.0625 21.1319 19.039 20.5161 19.8088L14.1913 13.484C14.9611 12.8682 15.9376 12.5 17.0001 12.5ZM17.0001 21.5C18.0626 21.5 19.0391 21.1318 19.809 20.5159L13.4842 14.1912C12.8684 14.961 12.5001 15.9375 12.5001 17C12.5001 19.4853 14.5148 21.5 17.0001 21.5Z" fill="#000"/>
</svg>
