<svg width="24" height="24" viewBox="0 0 24 24" fill="none" xmlns="http://www.w3.org/2000/svg">
<g opacity="0.4">
<path d="M9 12C11.4853 12 13.5 9.98528 13.5 7.5C13.5 5.01472 11.4853 3 9 3C6.51472 3 4.5 5.01472 4.5 7.5C4.5 9.98528 6.51472 12 9 12Z" fill="#000"/>
<path d="M0.505029 20.9293C1.0495 17.118 4.823 14.5 9.00047 14.5C13.178 14.5 16.9505 17.118 17.495 20.9293C17.5155 21.0728 17.4727 21.2181 17.3777 21.3276C17.2828 21.4371 17.1449 21.5 17 21.5H1C0.855058 21.5 0.717245 21.4371 0.622276 21.3276C0.527308 21.2181 0.48453 21.0728 0.505029 20.9293Z" fill="#000"/>
</g>
<path fill-rule="evenodd" clip-rule="evenodd" d="M9.00006 2.5C6.23864 2.5 4.00006 4.73858 4.00006 7.5C4.00006 10.2614 6.23864 12.5 9.00006 12.5C11.7615 12.5 14.0001 10.2614 14.0001 7.5C14.0001 4.73858 11.7615 2.5 9.00006 2.5ZM5.00006 7.5C5.00006 5.29086 6.79092 3.5 9.00006 3.5C11.2092 3.5 13.0001 5.29086 13.0001 7.5C13.0001 9.70914 11.2092 11.5 9.00006 11.5C6.79092 11.5 5.00006 9.70914 5.00006 7.5Z" fill="#000"/>
<path d="M1.49504 21.0707C1.95057 17.882 5.17707 15.5 9.00053 15.5C12.8239 15.5 16.0496 17.882 16.5051 21.0707C16.5441 21.3441 16.7974 21.534 17.0708 21.495C17.3441 21.4559 17.5341 21.2027 17.495 20.9293C16.9506 17.118 13.1781 14.5 9.00053 14.5C4.82306 14.5 1.04956 17.118 0.505089 20.9293C0.466037 21.2027 0.655986 21.4559 0.929353 21.495C1.20272 21.534 1.45599 21.3441 1.49504 21.0707Z" fill="#000"/>
<path d="M23.5001 12C23.5001 12.2761 23.2762 12.5 23.0001 12.5H20.5001V15C20.5001 15.2761 20.2762 15.5 20.0001 15.5C19.7239 15.5 19.5001 15.2761 19.5001 15V12.5H17.0001C16.7239 12.5 16.5001 12.2761 16.5001 12C16.5001 11.7239 16.7239 11.5 17.0001 11.5H19.5001V9C19.5001 8.72386 19.7239 8.5 20.0001 8.5C20.2762 8.5 20.5001 8.72386 20.5001 9V11.5H23.0001C23.2762 11.5 23.5001 11.7239 23.5001 12Z" fill="#000"/>
</svg>
