<svg width="24" height="24" viewBox="0 0 24 24" fill="none" xmlns="http://www.w3.org/2000/svg">
<g opacity="0.4">
<path d="M14.9477 14.9477C14.0169 14.6562 13.0208 14.5 12.0005 14.5C7.823 14.5 4.0495 17.118 3.50503 20.9293C3.48453 21.0728 3.52731 21.2181 3.62228 21.3276C3.71724 21.4371 3.85506 21.5 4 21.5H20C20.1449 21.5 20.2828 21.4371 20.3777 21.3276C20.4727 21.2181 20.5155 21.0728 20.495 20.9293C20.4692 20.7489 20.4362 20.5712 20.3963 20.3963L14.9477 14.9477Z" fill="#000"/>
<path d="M14.0215 11.5215C15.4916 10.7811 16.5 9.25831 16.5 7.5C16.5 5.01472 14.4853 3 12 3C10.2417 3 8.71893 4.00845 7.97851 5.47851L14.0215 11.5215Z" fill="#000"/>
</g>
<path d="M2.35355 1.64645C2.15829 1.45118 1.84171 1.45118 1.64645 1.64645C1.45118 1.84171 1.45118 2.15829 1.64645 2.35355L7.1399 7.84701C7.14202 7.84921 7.14416 7.85139 7.14633 7.85355L11.6463 12.3536C11.6485 12.3557 11.6507 12.3579 11.6529 12.36L13.9946 14.7017C13.3486 14.5693 12.6798 14.5 12.0003 14.5C7.82287 14.5 4.04938 17.118 3.50491 20.9293C3.46585 21.2027 3.6558 21.4559 3.92917 21.495C4.20254 21.534 4.4558 21.3441 4.49486 21.0707C4.95038 17.882 8.17689 15.5 12.0003 15.5C13.2637 15.5 14.4618 15.7601 15.5163 16.2234L19.2083 19.9154C19.3477 20.2859 19.4479 20.672 19.5049 21.0707C19.544 21.3441 19.7972 21.534 20.0706 21.495C20.2579 21.4682 20.4061 21.3408 20.4682 21.1753L21.6464 22.3536C21.8417 22.5488 22.1583 22.5488 22.3536 22.3536C22.5488 22.1583 22.5488 21.8417 22.3536 21.6464L2.35355 1.64645Z" fill="#000"/>
<path d="M13.6464 11.1465L14.3918 11.8918C15.9457 11.0437 16.9999 9.39497 16.9999 7.5C16.9999 4.73858 14.7613 2.5 11.9999 2.5C10.1049 2.5 8.45615 3.55417 7.60805 5.10808L8.35342 5.85344C8.98107 4.46563 10.3777 3.5 11.9999 3.5C14.209 3.5 15.9999 5.29086 15.9999 7.5C15.9999 9.12217 15.0343 10.5188 13.6464 11.1465Z" fill="#000"/>
</svg>
