<svg width="24" height="24" viewBox="0 0 24 24" fill="none" xmlns="http://www.w3.org/2000/svg">
<g opacity="0.4">
<path d="M9 12C11.4853 12 13.5 9.98528 13.5 7.5C13.5 5.01472 11.4853 3 9 3C6.51472 3 4.5 5.01472 4.5 7.5C4.5 9.98528 6.51472 12 9 12Z" fill="#000"/>
<path d="M0.505029 20.9293C1.0495 17.118 4.823 14.5 9.00047 14.5C13.178 14.5 16.9505 17.118 17.495 20.9293C17.5155 21.0728 17.4727 21.2181 17.3777 21.3276C17.2828 21.4371 17.1449 21.5 17 21.5H1C0.855058 21.5 0.717245 21.4371 0.622276 21.3276C0.527308 21.2181 0.48453 21.0728 0.505029 20.9293Z" fill="#000"/>
</g>
<path fill-rule="evenodd" clip-rule="evenodd" d="M4.00006 7.5C4.00006 4.73858 6.23864 2.5 9.00006 2.5C11.7615 2.5 14.0001 4.73858 14.0001 7.5C14.0001 10.2614 11.7615 12.5 9.00006 12.5C6.23864 12.5 4.00006 10.2614 4.00006 7.5ZM9.00006 3.5C6.79092 3.5 5.00006 5.29086 5.00006 7.5C5.00006 9.70914 6.79092 11.5 9.00006 11.5C11.2092 11.5 13.0001 9.70914 13.0001 7.5C13.0001 5.29086 11.2092 3.5 9.00006 3.5Z" fill="#000"/>
<path d="M9.00053 15.5C5.17707 15.5 1.95057 17.882 1.49504 21.0707C1.45599 21.3441 1.20272 21.534 0.929353 21.495C0.655986 21.4559 0.466037 21.2027 0.505089 20.9293C1.04956 17.118 4.82306 14.5 9.00053 14.5C13.1781 14.5 16.9506 17.118 17.495 20.9293C17.5341 21.2027 17.3441 21.4559 17.0708 21.495C16.7974 21.534 16.5441 21.3441 16.5051 21.0707C16.0496 17.882 12.8239 15.5 9.00053 15.5Z" fill="#000"/>
<path d="M23.3536 9.35355C23.5489 9.15829 23.5489 8.84171 23.3536 8.64645C23.1584 8.45118 22.8418 8.45118 22.6465 8.64645L18.5001 12.7929L16.3536 10.6464C16.1584 10.4512 15.8418 10.4512 15.6465 10.6464C15.4512 10.8417 15.4512 11.1583 15.6465 11.3536L18.1465 13.8536C18.3418 14.0488 18.6584 14.0488 18.8536 13.8536L23.3536 9.35355Z" fill="#000"/>
</svg>
