<svg width="24" height="24" viewBox="0 0 24 24" fill="none" xmlns="http://www.w3.org/2000/svg">
<path opacity="0.4" d="M3.9 8H5.4175C5.81777 8 6.01791 8 6.20764 7.95731C6.3759 7.91944 6.53764 7.85691 6.68761 7.77174C6.85672 7.67571 7.00481 7.54108 7.30098 7.27183L11.6905 3.28133C11.8897 3.1003 12.1491 3 12.4182 3C13.0157 3 13.5 3.48433 13.5 4.08178V19.9182C13.5 20.5157 13.0157 21 12.4182 21C12.1491 21 11.8897 20.8997 11.6905 20.7187L7.30098 16.7282C7.00481 16.4589 6.85672 16.3243 6.68761 16.2283C6.53764 16.1431 6.3759 16.0806 6.20764 16.0427C6.01791 16 5.81777 16 5.4175 16H3.9C3.05992 16 2.63988 16 2.31901 15.8365C2.03677 15.6927 1.8073 15.4632 1.66349 15.181C1.5 14.8601 1.5 14.4401 1.5 13.6V10.4C1.5 9.55992 1.5 9.13988 1.66349 8.81901C1.8073 8.53677 2.03677 8.3073 2.31901 8.16349C2.63988 8 3.05992 8 3.9 8Z" fill="#000"/>
<path fill-rule="evenodd" clip-rule="evenodd" d="M11.3542 2.91136C11.6454 2.64667 12.0247 2.5 12.4182 2.5C13.2918 2.5 14 3.20819 14 4.08178V19.9182C14 20.7918 13.2918 21.5 12.4182 21.5C12.0247 21.5 11.6454 21.3533 11.3542 21.0886L6.96465 17.0981C6.65208 16.814 6.55029 16.7253 6.44071 16.663C6.33358 16.6022 6.21805 16.5575 6.09787 16.5305C5.97492 16.5028 5.83992 16.5 5.4175 16.5H3.87934C3.47686 16.5 3.14468 16.5 2.87409 16.4779C2.59304 16.4549 2.33469 16.4057 2.09202 16.282C1.7157 16.0903 1.40973 15.7843 1.21799 15.408C1.09434 15.1653 1.04506 14.907 1.0221 14.6259C0.999989 14.3553 0.999994 14.0231 1 13.6207V10.3794C0.999994 9.97687 0.999989 9.64468 1.0221 9.37409C1.04506 9.09304 1.09434 8.83469 1.21799 8.59202C1.40973 8.21569 1.7157 7.90973 2.09202 7.71799C2.33469 7.59434 2.59304 7.54506 2.87409 7.5221C3.14469 7.49999 3.47687 7.49999 3.87936 7.5H5.4175C5.83992 7.5 5.97492 7.49717 6.09787 7.4695C6.21805 7.44246 6.33358 7.39779 6.44071 7.33696C6.55029 7.27473 6.65208 7.18602 6.96465 6.90186L11.3542 2.91136ZM12.4182 3.5C12.2735 3.5 12.134 3.55394 12.0269 3.6513L7.59988 7.67586C7.33988 7.91238 7.15281 8.08256 6.93452 8.20653C6.7417 8.31603 6.53374 8.39642 6.31741 8.44511C6.0725 8.50022 5.81959 8.50013 5.46811 8.50001L3.9 8.5C3.47171 8.5 3.18056 8.50039 2.95552 8.51878C2.73631 8.53669 2.62421 8.56915 2.54601 8.60899C2.35785 8.70487 2.20487 8.85785 2.10899 9.04601C2.06915 9.12421 2.03669 9.23631 2.01878 9.45552C2.00039 9.68056 2 9.97171 2 10.4V13.6C2 14.0283 2.00039 14.3194 2.01878 14.5445C2.03669 14.7637 2.06915 14.8758 2.10899 14.954C2.20487 15.1422 2.35785 15.2951 2.54601 15.391C2.62421 15.4309 2.73631 15.4633 2.95552 15.4812C3.18056 15.4996 3.47171 15.5 3.9 15.5L5.46811 15.5C5.81959 15.4999 6.0725 15.4998 6.31741 15.5549C6.53374 15.6036 6.7417 15.684 6.93452 15.7935C7.15281 15.9174 7.33989 16.0876 7.59989 16.3242L12.0269 20.3487C12.134 20.4461 12.2735 20.5 12.4182 20.5C12.7395 20.5 13 20.2395 13 19.9182V4.08178C13 3.76047 12.7395 3.5 12.4182 3.5Z" fill="#000"/>
<path d="M18.1002 3.69972C18.2661 3.47894 18.5795 3.4344 18.8003 3.60026C21.3493 5.51502 23 8.56459 23 12C23 15.4351 21.3499 18.4849 18.8013 20.3998C18.5805 20.5656 18.2671 20.5211 18.1012 20.3004C17.9354 20.0796 17.9799 19.7662 18.2006 19.6003C20.5087 17.8662 22 15.1073 22 12C22 8.89251 20.5081 6.13389 18.1997 4.3998C17.9789 4.23394 17.9344 3.92051 18.1002 3.69972Z" fill="#000"/>
<path d="M16.8335 7.15527C16.6277 6.97111 16.3116 6.98862 16.1274 7.19438C15.9433 7.40014 15.9608 7.71624 16.1665 7.9004C17.2926 8.90821 18 10.3712 18 12C18 13.6289 17.2926 15.0919 16.1665 16.0997C15.9608 16.2839 15.9433 16.6 16.1274 16.8057C16.3116 17.0115 16.6277 17.029 16.8335 16.8448C18.1625 15.6553 19 13.9252 19 12C19 10.0749 18.1625 8.34475 16.8335 7.15527Z" fill="#000"/>
</svg>
