<svg width="24" height="24" viewBox="0 0 24 24" fill="none" xmlns="http://www.w3.org/2000/svg">
<g opacity="0.4">
<path d="M7.28571 7.28571C6.99967 7.54574 6.85379 7.67738 6.68761 7.77174C6.53764 7.85691 6.3759 7.91944 6.20764 7.95731C6.01791 8 5.81777 8 5.4175 8H3.9C3.05992 8 2.63988 8 2.31901 8.16349C2.03677 8.3073 1.8073 8.53677 1.66349 8.81901C1.5 9.13988 1.5 9.55992 1.5 10.4V13.6C1.5 14.4401 1.5 14.8601 1.66349 15.181C1.8073 15.4632 2.03677 15.6927 2.31901 15.8365C2.63988 16 3.05992 16 3.9 16H5.4175C5.81777 16 6.01791 16 6.20764 16.0427C6.3759 16.0806 6.53764 16.1431 6.68761 16.2283C6.85672 16.3243 7.0048 16.4589 7.30097 16.7282L11.6905 20.7187C11.8897 20.8997 12.1491 21 12.4182 21C13.0157 21 13.5 20.5157 13.5 19.9182V13.5L7.28571 7.28571Z" fill="#000"/>
<path d="M13.5 11V4.08178C13.5 3.48433 13.0157 3 12.4182 3C12.1491 3 11.8897 3.1003 11.6905 3.28133L8.59524 6.09524L13.5 11Z" fill="#000"/>
</g>
<path fill-rule="evenodd" clip-rule="evenodd" d="M2.35355 1.64645C2.15829 1.45118 1.84171 1.45118 1.64645 1.64645C1.45118 1.84171 1.45118 2.15829 1.64645 2.35355L6.55395 7.26105C6.51187 7.29321 6.47671 7.31651 6.44071 7.33696C6.33358 7.39779 6.21805 7.44246 6.09787 7.4695C5.97492 7.49717 5.83992 7.5 5.4175 7.5H3.87936C3.47687 7.49999 3.14469 7.49999 2.87409 7.5221C2.59304 7.54506 2.33469 7.59434 2.09202 7.71799C1.7157 7.90973 1.40973 8.21569 1.21799 8.59202C1.09434 8.83469 1.04506 9.09304 1.0221 9.37409C0.999989 9.64468 0.999994 9.97686 1 10.3793V13.6207C0.999994 14.0231 0.999989 14.3553 1.0221 14.6259C1.04506 14.907 1.09434 15.1653 1.21799 15.408C1.40973 15.7843 1.7157 16.0903 2.09202 16.282C2.33469 16.4057 2.59304 16.4549 2.87409 16.4779C3.14468 16.5 3.47686 16.5 3.87934 16.5H5.4175C5.83992 16.5 5.97492 16.5028 6.09787 16.5305C6.21805 16.5575 6.33358 16.6022 6.44071 16.663C6.55029 16.7253 6.65208 16.814 6.96465 17.0981L11.3542 21.0886C11.6454 21.3533 12.0247 21.5 12.4182 21.5C13.2918 21.5 14 20.7918 14 19.9182V14.7071L21.6464 22.3536C21.8417 22.5488 22.1583 22.5488 22.3536 22.3536C22.5488 22.1583 22.5488 21.8417 22.3536 21.6464L2.35355 1.64645ZM13 13.7071L7.26511 7.97221C7.15356 8.06477 7.04828 8.14192 6.93452 8.20653C6.7417 8.31603 6.53374 8.39642 6.31741 8.44511C6.0725 8.50022 5.81959 8.50013 5.46811 8.50001L3.9 8.5C3.47171 8.5 3.18056 8.50039 2.95552 8.51878C2.73631 8.53669 2.62421 8.56915 2.54601 8.60899C2.35785 8.70487 2.20487 8.85785 2.10899 9.04601C2.06915 9.12421 2.03669 9.23631 2.01878 9.45552C2.00039 9.68056 2 9.97171 2 10.4V13.6C2 14.0283 2.00039 14.3194 2.01878 14.5445C2.03669 14.7637 2.06915 14.8758 2.10899 14.954C2.20487 15.1422 2.35785 15.2951 2.54601 15.391C2.62421 15.4309 2.73631 15.4633 2.95552 15.4812C3.18056 15.4996 3.47171 15.5 3.9 15.5L5.46811 15.5C5.81959 15.4999 6.0725 15.4998 6.31741 15.5549C6.53374 15.6036 6.7417 15.684 6.93452 15.7935C7.15281 15.9174 7.33989 16.0876 7.59988 16.3242L12.0269 20.3487C12.134 20.4461 12.2735 20.5 12.4182 20.5C12.7395 20.5 13 20.2395 13 19.9182V13.7071Z" fill="#000"/>
<path d="M13 10.5V4.08178C13 3.76047 12.7395 3.5 12.4182 3.5C12.2735 3.5 12.134 3.55394 12.0269 3.6513L8.94919 6.44919L8.24128 5.74128L11.3542 2.91136C11.6454 2.64667 12.0247 2.5 12.4182 2.5C13.2918 2.5 14 3.20819 14 4.08178V11.5L13 10.5Z" fill="#000"/>
<path d="M20.6369 18.6369L19.9258 17.9258C21.2243 16.301 22 14.2414 22 12C22 8.89251 20.5081 6.13389 18.1997 4.3998C17.9789 4.23394 17.9344 3.92051 18.1002 3.69972C18.2661 3.47894 18.5795 3.4344 18.8003 3.60026C21.3493 5.51502 23 8.56459 23 12C23 14.5174 22.1137 16.8283 20.6369 18.6369Z" fill="#000"/>
<path d="M17.7849 15.7849L17.0666 15.0666C17.6562 14.1904 18 13.1355 18 12.0001C18 10.3712 17.2926 8.90823 16.1665 7.90043C15.9608 7.71627 15.9433 7.40017 16.1274 7.1944C16.3116 6.98864 16.6277 6.97113 16.8335 7.15529C18.1625 8.34477 19 10.0749 19 12.0001C19 13.412 18.5495 14.7191 17.7849 15.7849Z" fill="#000"/>
</svg>
