<svg width="24" height="24" viewBox="0 0 24 24" fill="none" xmlns="http://www.w3.org/2000/svg">
<path opacity="0.4" d="M16.4 6.5H7.6C5.63982 6.5 4.65972 6.5 3.91103 6.88148C3.25247 7.21703 2.71703 7.75247 2.38148 8.41103C2 9.15972 2 10.1398 2 12.1V16.4C2 18.3602 2 19.3403 2.38148 20.089C2.71703 20.7475 3.25247 21.283 3.91103 21.6185C4.65972 22 5.63982 22 7.6 22H16.4C18.3602 22 19.3403 22 20.089 21.6185C20.7475 21.283 21.283 20.7475 21.6185 20.089C22 19.3403 22 18.3602 22 16.4V12.1C22 10.1398 22 9.15972 21.6185 8.41103C21.283 7.75247 20.7475 7.21703 20.089 6.88148C19.3403 6.5 18.3602 6.5 16.4 6.5Z" fill="#000"/>
<path d="M18 13.25C17.4477 13.25 17 13.6977 17 14.25C17 14.8023 17.4477 15.25 18 15.25C18.5523 15.25 19.0001 14.8023 19.0001 14.25C19.0001 13.6977 18.5523 13.25 18 13.25Z" fill="#000"/>
<path fill-rule="evenodd" clip-rule="evenodd" d="M1.50003 13.0001L1.50003 13.0024V16.4224C1.50003 17.3835 1.50003 18.1355 1.54938 18.7395C1.59959 19.3541 1.70337 19.8594 1.936 20.316C2.3195 21.0686 2.93142 21.6805 3.68407 22.064C4.14065 22.2967 4.64597 22.4004 5.26052 22.4507C5.86454 22.5 6.61649 22.5 7.57757 22.5H16.4225C17.3836 22.5 18.1355 22.5 18.7395 22.4507C19.3541 22.4004 19.8594 22.2967 20.316 22.064C21.0686 21.6805 21.6806 21.0686 22.0641 20.316C22.2967 19.8594 22.4005 19.3541 22.4507 18.7395C22.5 18.1355 22.5 17.3835 22.5 16.4225V12.0775C22.5 11.1165 22.5 10.3645 22.4507 9.76049C22.4005 9.14594 22.2967 8.64062 22.0641 8.18404C21.6806 7.43139 21.0686 6.81947 20.316 6.43597C19.9256 6.23705 19.4995 6.13234 19 6.07478V5.18185C19 4.53936 19 4.02313 18.9632 3.61487C18.9258 3.19909 18.8461 2.82996 18.6425 2.51333C18.3295 2.02674 17.8412 1.67939 17.2789 1.5434C16.913 1.45492 16.5381 1.50074 16.1331 1.60174C15.7353 1.70093 15.2477 1.87028 14.6407 2.08107L5.48956 5.25903C4.24027 5.69265 3.47955 5.95668 2.90725 6.44385C2.40248 6.87352 2.01242 7.4219 1.77211 8.03969C1.49966 8.74014 1.49979 9.54538 1.50001 10.8678L1.50003 13.0001ZM16.375 2.57203C16.0262 2.65901 15.5811 2.81307 14.9455 3.03381L6.39086 6.00463C6.74704 6 7.14068 6 7.57754 6H16.4225C17.0257 6 17.5465 6 18 6.0122V5.20652C18 4.53364 17.9995 4.06267 17.9673 3.70462C17.9352 3.34886 17.8759 3.17005 17.8014 3.05424C17.6275 2.78391 17.3562 2.59093 17.0438 2.51539C16.91 2.48302 16.7216 2.48561 16.375 2.57203ZM5.34195 7.04602C4.78924 7.09118 4.43017 7.17814 4.13806 7.32698C3.57357 7.6146 3.11463 8.07354 2.82701 8.63803C2.67817 8.93014 2.59121 9.28921 2.54605 9.84192C2.50042 10.4005 2.50003 11.1117 2.50003 12.1V16.4C2.50003 17.3883 2.50042 18.0995 2.54605 18.6581C2.59121 19.2108 2.67817 19.5699 2.82701 19.862C3.11463 20.4265 3.57357 20.8854 4.13806 21.173C4.43017 21.3219 4.78924 21.4088 5.34195 21.454C5.9005 21.4996 6.61169 21.5 7.60003 21.5H16.4C17.3884 21.5 18.0996 21.4996 18.6581 21.454C19.2108 21.4088 19.5699 21.3219 19.862 21.173C20.4265 20.8854 20.8854 20.4265 21.173 19.862C21.3219 19.5699 21.4088 19.2108 21.454 18.6581C21.4996 18.0995 21.5 17.3883 21.5 16.4V12.1C21.5 11.1117 21.4996 10.4005 21.454 9.84192C21.4088 9.28921 21.3219 8.93014 21.173 8.63803C20.8854 8.07354 20.4265 7.6146 19.862 7.32698C19.5699 7.17814 19.2108 7.09118 18.6581 7.04602C18.0996 7.00039 17.3884 7 16.4 7H7.60003C6.61169 7 5.9005 7.00039 5.34195 7.04602Z" fill="#000"/>
</svg>
