<svg width="24" height="24" viewBox="0 0 24 24" fill="none" xmlns="http://www.w3.org/2000/svg">
<path opacity="0.4" d="M8.6 5.5H17.4C19.3602 5.5 20.3403 5.5 21.089 5.88148C21.7475 6.21703 22.283 6.75247 22.6185 7.41103C23 8.15972 23 9.13982 23 11.1V15.4C23 17.3602 23 18.3403 22.6185 19.089C22.283 19.7475 21.7475 20.283 21.089 20.6185C20.3403 21 19.3602 21 17.4 21H11.7678C12.2356 20.1025 12.5 19.0821 12.5 18C12.5 14.4101 9.58985 11.5 6 11.5C4.91787 11.5 3.89751 11.7644 3 12.2322V11.1C3 9.13982 3 8.15972 3.38148 7.41103C3.71703 6.75247 4.25247 6.21703 4.91103 5.88148C5.65972 5.5 6.63982 5.5 8.6 5.5Z" fill="#000"/>
<path fill-rule="evenodd" clip-rule="evenodd" d="M12.0018 20.4998C11.8559 20.8497 11.6803 21.1841 11.4781 21.4998H17.4225C18.3836 21.4999 19.1355 21.4999 19.7395 21.4505C20.3541 21.4003 20.8594 21.2965 21.316 21.0639C22.0686 20.6804 22.6806 20.0685 23.0641 19.3158C23.2967 18.8592 23.4005 18.3539 23.4507 17.7394C23.5 17.1353 23.5 16.3834 23.5 15.4223V11.0774C23.5 10.1163 23.5 9.36436 23.4507 8.76034C23.4005 8.14579 23.2967 7.64047 23.0641 7.18389C22.6806 6.43124 22.0686 5.81932 21.316 5.43582C20.9256 5.2369 20.4995 5.13219 20 5.07463V4.18161C20 3.53912 20 3.02289 19.9632 2.61462C19.9258 2.19884 19.8461 1.82971 19.6425 1.51309C19.3295 1.0265 18.8412 0.679141 18.2789 0.54316C17.913 0.454678 17.5381 0.500493 17.1331 0.601499C16.7353 0.700684 16.2477 0.870034 15.6407 1.08083L6.48956 4.25879C5.24027 4.6924 4.47955 4.95644 3.90725 5.44361C3.40248 5.87328 3.01242 6.42166 2.77211 7.03945C2.49966 7.7399 2.49979 8.54513 2.50001 9.86755L2.50003 12.5216C2.81578 12.3194 3.15016 12.1438 3.50003 11.9979V11.0998C3.50003 10.1115 3.50041 9.40032 3.54605 8.84177C3.59121 8.28906 3.67817 7.92999 3.82701 7.63788C4.11463 7.07339 4.57357 6.61445 5.13805 6.32683C5.43017 6.17799 5.78924 6.09103 6.34195 6.04587C6.9005 6.00024 7.61168 5.99985 8.60003 5.99985H17.4C18.3884 5.99985 19.0996 6.00024 19.6581 6.04587C20.2108 6.09103 20.5699 6.17799 20.862 6.32683C21.4265 6.61445 21.8854 7.07339 22.173 7.63788C22.3219 7.92999 22.4088 8.28906 22.454 8.84177C22.4996 9.40032 22.5 10.1115 22.5 11.0998V15.3998C22.5 16.3882 22.4996 17.0994 22.454 17.6579C22.4088 18.2106 22.3219 18.5697 22.173 18.8618C21.8854 19.4263 21.4265 19.8852 20.862 20.1729C20.5699 20.3217 20.2108 20.4087 19.6581 20.4538C19.0996 20.4995 18.3884 20.4998 17.4 20.4998H12.0018ZM15.9455 2.03357C16.5811 1.81282 17.0262 1.65877 17.375 1.57179C17.7216 1.48536 17.91 1.48278 18.0438 1.51514C18.3562 1.59069 18.6275 1.78367 18.8014 2.05399C18.8759 2.16981 18.9352 2.34861 18.9673 2.70437C18.9995 3.06243 19 3.5334 19 4.20628V5.01204C18.5465 4.99985 18.0257 4.99985 17.4225 4.99985H8.57758C8.1406 4.99985 7.74684 4.99985 7.39058 5.00448L15.9455 2.03357Z" fill="#000"/>
<path d="M18 13.2498C18 12.6976 18.4477 12.2498 19 12.2498C19.5523 12.2498 20.0001 12.6976 20.0001 13.2498C20.0001 13.8021 19.5524 14.2498 19.0001 14.2498C18.4478 14.2498 18 13.8021 18 13.2498Z" fill="#000"/>
<path d="M8 18.5C8.27614 18.5 8.5 18.2761 8.5 18C8.5 17.7239 8.27614 17.5 8 17.5H4C3.72386 17.5 3.5 17.7239 3.5 18C3.5 18.2761 3.72386 18.5 4 18.5H8Z" fill="#000"/>
<path fill-rule="evenodd" clip-rule="evenodd" d="M0.5 18C0.5 14.9624 2.96243 12.5 6 12.5C9.03757 12.5 11.5 14.9624 11.5 18C11.5 21.0376 9.03757 23.5 6 23.5C2.96243 23.5 0.5 21.0376 0.5 18ZM6 13.5C3.51472 13.5 1.5 15.5147 1.5 18C1.5 20.4853 3.51472 22.5 6 22.5C8.48528 22.5 10.5 20.4853 10.5 18C10.5 15.5147 8.48528 13.5 6 13.5Z" fill="#000"/>
</svg>
