<svg width="24" height="24" viewBox="0 0 24 24" fill="none" xmlns="http://www.w3.org/2000/svg">
<path opacity="0.4" d="M8.6 5.5H17.4C19.3602 5.5 20.3403 5.5 21.089 5.88148C21.7475 6.21703 22.283 6.75247 22.6185 7.41103C23 8.15972 23 9.13982 23 11.1V15.4C23 17.3602 23 18.3403 22.6185 19.089C22.283 19.7475 21.7475 20.283 21.089 20.6185C20.3403 21 19.3602 21 17.4 21H11.7678C12.2356 20.1025 12.5 19.0821 12.5 18C12.5 14.4101 9.58985 11.5 6 11.5C4.91787 11.5 3.89751 11.7644 3 12.2322V11.1C3 9.13982 3 8.15972 3.38148 7.41103C3.71703 6.75247 4.25247 6.21703 4.91103 5.88148C5.65972 5.5 6.63982 5.5 8.6 5.5Z" fill="#000"/>
<path fill-rule="evenodd" clip-rule="evenodd" d="M11.4781 21.4998C11.6803 21.1841 11.8559 20.8497 12.0018 20.4998H17.4C18.3884 20.4998 19.0996 20.4995 19.6581 20.4538C20.2108 20.4087 20.5699 20.3217 20.862 20.1729C21.4265 19.8852 21.8854 19.4263 22.173 18.8618C22.3219 18.5697 22.4088 18.2106 22.454 17.6579C22.4996 17.0994 22.5 16.3882 22.5 15.3998V11.0998C22.5 10.1115 22.4996 9.40032 22.454 8.84177C22.4088 8.28906 22.3219 7.92999 22.173 7.63788C21.8854 7.07339 21.4265 6.61445 20.862 6.32683C20.5699 6.17799 20.2108 6.09103 19.6581 6.04587C19.0996 6.00024 18.3884 5.99985 17.4 5.99985H8.60003C7.61168 5.99985 6.9005 6.00024 6.34195 6.04587C5.78924 6.09103 5.43017 6.17799 5.13805 6.32683C4.57357 6.61445 4.11463 7.07339 3.82701 7.63788C3.67817 7.92999 3.59121 8.28906 3.54605 8.84177C3.50041 9.40032 3.50003 10.1115 3.50003 11.0998V11.9979C3.15016 12.1438 2.81578 12.3194 2.50003 12.5216L2.50001 9.86755C2.49979 8.54513 2.49966 7.7399 2.77211 7.03945C3.01242 6.42166 3.40248 5.87328 3.90725 5.44361C4.47955 4.95644 5.24027 4.6924 6.48956 4.25879L15.6407 1.08083C16.2477 0.870034 16.7353 0.700684 17.1331 0.601499C17.5381 0.500493 17.913 0.454678 18.2789 0.54316C18.8412 0.679141 19.3295 1.0265 19.6425 1.51309C19.8461 1.82971 19.9258 2.19884 19.9632 2.61462C20 3.02289 20 3.53906 20 4.18155V5.07463C20.4995 5.13219 20.9256 5.2369 21.316 5.43582C22.0686 5.81932 22.6806 6.43124 23.0641 7.18389C23.2967 7.64047 23.4005 8.14579 23.4507 8.76034C23.5 9.36436 23.5 10.1163 23.5 11.0774V15.4223C23.5 16.3834 23.5 17.1353 23.4507 17.7394C23.4005 18.3539 23.2967 18.8592 23.0641 19.3158C22.6806 20.0685 22.0686 20.6804 21.316 21.0639C20.8594 21.2965 20.3541 21.4003 19.7395 21.4505C19.1355 21.4999 18.3836 21.4999 17.4225 21.4998H11.4781ZM17.375 1.57179C17.0262 1.65877 16.5811 1.81282 15.9455 2.03357L7.39058 5.00448C7.74684 4.99985 8.14059 4.99985 8.57757 4.99985H17.4225C18.0257 4.99985 18.5465 4.99985 19 5.01204V4.20628C19 3.5334 18.9995 3.06243 18.9673 2.70437C18.9352 2.34861 18.8759 2.16981 18.8014 2.05399C18.6275 1.78367 18.3562 1.59069 18.0438 1.51514C17.91 1.48278 17.7216 1.48536 17.375 1.57179Z" fill="#000"/>
<path d="M19 12.2498C18.4477 12.2498 18 12.6976 18 13.2498C18 13.8021 18.4477 14.2498 19 14.2498C19.5523 14.2498 20.0001 13.8021 20.0001 13.2498C20.0001 12.6976 19.5523 12.2498 19 12.2498Z" fill="#000"/>
<path d="M8.5 18C8.5 18.2761 8.27614 18.5 8 18.5H6.5V20C6.5 20.2761 6.27614 20.5 6 20.5C5.72386 20.5 5.5 20.2761 5.5 20V18.5H4C3.72386 18.5 3.5 18.2761 3.5 18C3.5 17.7239 3.72386 17.5 4 17.5H5.5V16C5.5 15.7239 5.72386 15.5 6 15.5C6.27614 15.5 6.5 15.7239 6.5 16V17.5H8C8.27614 17.5 8.5 17.7239 8.5 18Z" fill="#000"/>
<path fill-rule="evenodd" clip-rule="evenodd" d="M6 12.5C2.96243 12.5 0.5 14.9624 0.5 18C0.5 21.0376 2.96243 23.5 6 23.5C9.03757 23.5 11.5 21.0376 11.5 18C11.5 14.9624 9.03757 12.5 6 12.5ZM1.5 18C1.5 15.5147 3.51472 13.5 6 13.5C8.48528 13.5 10.5 15.5147 10.5 18C10.5 20.4853 8.48528 22.5 6 22.5C3.51472 22.5 1.5 20.4853 1.5 18Z" fill="#000"/>
</svg>
