<svg width="24" height="24" viewBox="0 0 24 24" fill="none" xmlns="http://www.w3.org/2000/svg">
<g opacity="0.4">
<path d="M12.023 5.51544C12.023 5.51544 12.0194 5.52132 12.017 5.53468L9.61148 18.6453C9.4079 19.7482 7.83158 19.794 7.54952 18.7209L6.17289 13.4741C6.09605 13.1816 5.86193 13.0001 5.61496 13.0001H2C1.72386 13.0001 1.5 12.7762 1.5 12.5001C1.5 12.2239 1.72386 12.0001 2 12.0001H5.61496C6.38346 12.0001 6.96582 12.5564 7.1401 13.2201L8.51666 18.4667C8.52009 18.4797 8.52448 18.486 8.52448 18.486L8.52641 18.4882L8.52874 18.49C8.53459 18.4939 8.55047 18.5008 8.57456 18.5C8.59867 18.4991 8.61355 18.4911 8.61853 18.4872C8.62043 18.4858 8.62183 18.4837 8.62183 18.4837C8.62183 18.4837 8.62554 18.4776 8.62799 18.4643L11.0333 5.35481C11.2374 4.23866 12.8373 4.21104 13.1 5.29943L15.4755 15.2008C15.4788 15.2145 15.4829 15.218 15.4855 15.2201C15.4909 15.2246 15.5032 15.2314 15.5218 15.2336C15.5404 15.2358 15.5551 15.2322 15.5633 15.2282C15.5685 15.2257 15.575 15.2219 15.5825 15.2076" fill="#000"/>
<path d="M15.5825 15.2076L16.8035 12.8901C17.0688 12.3864 17.6098 12.0001 18.2359 12.0001H22.0001C22.2762 12.0001 22.5001 12.2239 22.5001 12.5001C22.5001 12.7762 22.2762 13.0001 22.0001 13.0001H18.2359C18.0265 13.0001 17.803 13.1384 17.6883 13.3561L16.4672 15.6737C16.0224 16.5178 14.7318 16.3838 14.5033 15.4349L12.1279 5.53407C12.1247 5.52082 12.1204 5.51439 12.1204 5.51439C12.1204 5.51439 12.1187 5.51215 12.1165 5.51065C12.1108 5.50674 12.0949 5.49946 12.0702 5.50009C12.0456 5.50072 12.0306 5.50878 12.0258 5.51245C12.0241 5.5138 12.023 5.51544 12.023 5.51544" fill="#000"/>
</g>
</svg>
