<svg width="24" height="24" viewBox="0 0 24 24" fill="none" xmlns="http://www.w3.org/2000/svg">
<g opacity="0.4">
<path d="M5.03188 5.03188C3.39201 5.80629 1.90886 6.85813 0.64288 8.15005C0.450955 8.34591 0.452589 8.6598 0.646541 8.85365L4.14617 12.3514C4.1508 12.356 4.15587 12.3609 4.16064 12.3653L11.6588 19.3655C11.8509 19.5448 12.1491 19.5448 12.3412 19.3655L15.9745 15.9745L5.03188 5.03188Z" fill="#000"/>
<path d="M17.2676 14.7676L19.8393 12.3673C19.8441 12.3628 19.8489 12.3582 19.8536 12.3536L23.3536 8.85355C23.5474 8.65969 23.549 8.34587 23.3571 8.15005C20.4647 5.19841 16.4388 3.5 12 3.5C10.1878 3.5 8.44445 3.78308 6.81895 4.31895L17.2676 14.7676Z" fill="#000"/>
<path d="M1.35355 0.646447C1.15829 0.451184 0.841709 0.451184 0.646447 0.646447C0.451184 0.841709 0.451184 1.15829 0.646447 1.35355L4.55835 5.26545C3.10583 6.01297 1.78585 6.98366 0.64288 8.15005C0.449608 8.34728 0.452818 8.66385 0.65005 8.85712C0.847282 9.05039 1.16385 9.04718 1.35712 8.84995C2.49811 7.68558 3.83008 6.72804 5.30354 6.01065L8.38222 9.08933C6.79164 9.62397 5.35475 10.5014 4.15642 11.6349C3.9558 11.8246 3.94699 12.1411 4.13675 12.3417C4.3265 12.5423 4.64296 12.5511 4.84358 12.3614C6.05864 11.2121 7.53954 10.3525 9.18155 9.88865L12.8515 13.5586C12.576 13.52 12.2921 13.5 11.9999 13.5C10.3619 13.5 8.98311 14.1286 7.90826 15.135C7.70668 15.3238 7.69628 15.6402 7.88502 15.8417C8.07376 16.0433 8.39017 16.0537 8.59174 15.865C9.49838 15.0161 10.6382 14.5 11.9999 14.5C12.9102 14.5 13.7213 14.7306 14.43 15.1371L22.6464 23.3536C22.8417 23.5488 23.1583 23.5488 23.3536 23.3536C23.5488 23.1583 23.5488 22.8417 23.3536 22.6464L1.35355 0.646447Z" fill="#000"/>
<path d="M12 9.5L11.04 8.54004C11.3562 8.51352 11.6761 8.5 11.999 8.5C15.0305 8.5 17.7882 9.69176 19.8437 11.6368C20.0442 11.8266 20.053 12.1431 19.8632 12.3437C19.6734 12.5442 19.3569 12.553 19.1563 12.3632C17.2777 10.5854 14.7631 9.50026 12 9.5Z" fill="#000"/>
<path d="M7.61768 5.11768L6.81895 4.31895C8.44445 3.78308 10.1878 3.5 12 3.5C16.4388 3.5 20.4647 5.19841 23.3571 8.15005C23.5504 8.34728 23.5472 8.66385 23.35 8.85712C23.1527 9.05039 22.8362 9.04718 22.6429 8.84995C19.945 6.09677 16.1794 4.5 12 4.5C10.4734 4.5 9.002 4.71305 7.61768 5.11768Z" fill="#000"/>
<path d="M11.25 19C11.25 18.5858 11.5858 18.25 12 18.25C12.4142 18.25 12.7501 18.5858 12.7501 19C12.7501 19.4142 12.4143 19.75 12.0001 19.75C11.5859 19.75 11.25 19.4142 11.25 19Z" fill="#000"/>
</g>
</svg>
