<svg width="24" height="24" viewBox="0 0 24 24" fill="none" xmlns="http://www.w3.org/2000/svg">
<path opacity="0.4" d="M12 3.5C7.56115 3.5 3.53525 5.19841 0.64288 8.15005C0.450955 8.34591 0.452589 8.6598 0.646541 8.85365L4.14617 12.3514C4.1508 12.356 4.15587 12.3609 4.16064 12.3653L7.90841 15.8651C7.90826 15.865 7.90855 15.8653 7.90841 15.8651L11.6588 19.3655C11.8509 19.5448 12.1491 19.5448 12.3412 19.3655L16.0912 15.8655C16.091 15.8657 16.0914 15.8653 16.0912 15.8655L19.8393 12.3673C19.8441 12.3628 19.8489 12.3582 19.8536 12.3536L23.3536 8.85355C23.5474 8.65969 23.549 8.34587 23.3571 8.15005C20.4647 5.19841 16.4388 3.5 12 3.5Z" fill="#000"/>
<path d="M1.35712 8.84995C4.05502 6.09677 7.82062 4.5 12 4.5C16.1794 4.5 19.945 6.09677 22.6429 8.84995C22.8362 9.04718 23.1527 9.05039 23.35 8.85712C23.5472 8.66385 23.5504 8.34728 23.3571 8.15005C20.4647 5.19841 16.4388 3.5 12 3.5C7.56115 3.5 3.53525 5.19841 0.64288 8.15005C0.449608 8.34728 0.452818 8.66385 0.65005 8.85712C0.847282 9.05039 1.16385 9.04718 1.35712 8.84995Z" fill="#000"/>
<path d="M4.84358 12.3614C6.72224 10.5844 9.23642 9.5 11.999 9.5C14.7625 9.5 17.2775 10.5852 19.1563 12.3632C19.3569 12.553 19.6734 12.5442 19.8632 12.3437C20.053 12.1431 20.0442 11.8266 19.8437 11.6368C17.7882 9.69176 15.0305 8.5 11.999 8.5C8.96852 8.5 6.21163 9.69096 4.15642 11.6349C3.9558 11.8246 3.94699 12.1411 4.13675 12.3417C4.3265 12.5423 4.64296 12.5511 4.84358 12.3614Z" fill="#000"/>
<path d="M8.59174 15.865C9.49838 15.0161 10.6382 14.5 11.9999 14.5C13.3616 14.5 14.5016 15.0161 15.4083 15.865C15.6098 16.0537 15.9262 16.0433 16.115 15.8417C16.3037 15.6402 16.2933 15.3238 16.0917 15.135C15.0169 14.1286 13.6379 13.5 11.9999 13.5C10.3619 13.5 8.98311 14.1286 7.90826 15.135C7.70668 15.3238 7.69628 15.6402 7.88502 15.8417C8.07376 16.0433 8.39017 16.0537 8.59174 15.865Z" fill="#000"/>
<path d="M12 18.25C11.5858 18.25 11.25 18.5858 11.25 19C11.25 19.4142 11.5858 19.75 12 19.75C12.4142 19.75 12.7501 19.4142 12.7501 19C12.7501 18.5858 12.4142 18.25 12 18.25Z" fill="#000"/>
</svg>
