<svg width="24" height="24" viewBox="0 0 24 24" fill="none" xmlns="http://www.w3.org/2000/svg">
<path opacity="0.4" d="M1.5 7.4C1.5 5.85986 1.5 5.08978 1.79973 4.50153C2.06338 3.98408 2.48408 3.56338 3.00153 3.29973C3.58978 3 4.35986 3 5.9 3H18.1C19.6401 3 20.4102 3 20.9985 3.29973C21.5159 3.56338 21.9366 3.98408 22.2003 4.50153C22.5 5.08978 22.5 5.85986 22.5 7.4V16.6C22.5 18.1401 22.5 18.9102 22.2003 19.4985C21.9366 20.0159 21.5159 20.4366 20.9985 20.7003C20.4102 21 19.6401 21 18.1 21H5.9C4.35986 21 3.58978 21 3.00153 20.7003C2.48408 20.4366 2.06338 20.0159 1.79973 19.4985C1.5 18.9102 1.5 18.1401 1.5 16.6V7.4Z" fill="#000"/>
<path d="M5 5.875C4.65482 5.875 4.375 6.15482 4.375 6.5C4.375 6.84518 4.65482 7.125 5 7.125C5.34518 7.125 5.6251 6.84518 5.6251 6.5C5.6251 6.15482 5.34518 5.875 5 5.875Z" fill="#000"/>
<path d="M7.375 6.5C7.375 6.15482 7.65482 5.875 8 5.875C8.34518 5.875 8.6251 6.15482 8.6251 6.5C8.6251 6.84518 8.34528 7.125 8.0001 7.125C7.65492 7.125 7.375 6.84518 7.375 6.5Z" fill="#000"/>
<path d="M11 5.875C10.6548 5.875 10.375 6.15482 10.375 6.5C10.375 6.84518 10.6548 7.125 11 7.125C11.3452 7.125 11.6251 6.84518 11.6251 6.5C11.6251 6.15482 11.3452 5.875 11 5.875Z" fill="#000"/>
<path fill-rule="evenodd" clip-rule="evenodd" d="M18.1221 2.5H5.87794C5.12656 2.5 4.53206 2.49999 4.05309 2.53913C3.5636 2.57912 3.15089 2.66246 2.77453 2.85423C2.163 3.16582 1.66582 3.663 1.35423 4.27453C1.16246 4.65089 1.07912 5.0636 1.03913 5.55309C0.999994 6.03206 0.999997 6.62655 1 7.37793V16.6221C0.999997 17.3734 0.999994 17.9679 1.03913 18.4469C1.07912 18.9364 1.16246 19.3491 1.35423 19.7255C1.66582 20.337 2.163 20.8342 2.77453 21.1458C3.15089 21.3375 3.5636 21.4209 4.05309 21.4609C4.53203 21.5 5.12648 21.5 5.87779 21.5H18.1221C18.8734 21.5 19.468 21.5 19.9469 21.4609C20.4364 21.4209 20.8491 21.3375 21.2255 21.1458C21.837 20.8342 22.3342 20.337 22.6458 19.7255C22.8375 19.3491 22.9209 18.9364 22.9609 18.4469C23 17.968 23 17.3735 23 16.6222V7.37793C23 6.62662 23 6.03203 22.9609 5.55309C22.9209 5.0636 22.8375 4.65089 22.6458 4.27453C22.3342 3.663 21.837 3.16582 21.2255 2.85423C20.8491 2.66246 20.4364 2.57912 19.9469 2.53913C19.4679 2.49999 18.8734 2.5 18.1221 2.5ZM3.22852 3.74524C3.44042 3.63727 3.70687 3.57075 4.13452 3.53581C4.56801 3.50039 5.12168 3.5 5.9 3.5H18.1C18.8783 3.5 19.432 3.50039 19.8655 3.53581C20.2931 3.57075 20.5596 3.63727 20.7715 3.74524C21.1948 3.96095 21.539 4.30516 21.7548 4.72852C21.8627 4.94042 21.9293 5.20687 21.9642 5.63452C21.9996 6.06801 22 6.62168 22 7.4V16.6C22 17.3783 21.9996 17.932 21.9642 18.3655C21.9293 18.7931 21.8627 19.0596 21.7548 19.2715C21.539 19.6948 21.1948 20.039 20.7715 20.2548C20.5596 20.3627 20.2931 20.4293 19.8655 20.4642C19.432 20.4996 18.8783 20.5 18.1 20.5H5.9C5.12168 20.5 4.56801 20.4996 4.13452 20.4642C3.70687 20.4293 3.44042 20.3627 3.22852 20.2548C2.80516 20.039 2.46095 19.6948 2.24524 19.2715C2.13727 19.0596 2.07075 18.7931 2.03581 18.3655C2.00039 17.932 2 17.3783 2 16.6V7.4C2 6.62168 2.00039 6.06801 2.03581 5.63452C2.07075 5.20687 2.13727 4.94042 2.24524 4.72852C2.46095 4.30516 2.80516 3.96095 3.22852 3.74524Z" fill="#000"/>
</svg>
