<svg width="24" height="24" viewBox="0 0 24 24" fill="none" xmlns="http://www.w3.org/2000/svg">
<path opacity="0.4" d="M16.9326 3.25H7.06739C6.11495 3.24999 5.35439 3.24999 4.74013 3.30018C4.11012 3.35165 3.56824 3.45963 3.07054 3.71322C2.27085 4.12068 1.62068 4.77085 1.21322 5.57054C0.959634 6.06824 0.85165 6.61012 0.800176 7.24013C0.749989 7.85439 0.749994 8.61494 0.75 9.56738V14.4326C0.749994 15.3851 0.749989 16.1456 0.800176 16.7599C0.85165 17.3899 0.959634 17.9318 1.21322 18.4295C1.62068 19.2291 2.27085 19.8793 3.07054 20.2868C3.56824 20.5404 4.11012 20.6483 4.74013 20.6998C5.35438 20.75 6.1149 20.75 7.0673 20.75H16.9326C17.885 20.75 18.6456 20.75 19.2599 20.6998C19.8899 20.6483 20.4318 20.5404 20.9295 20.2868C21.7291 19.8793 22.3793 19.2291 22.7868 18.4295C23.0404 17.9318 23.1483 17.3899 23.1998 16.7599C23.25 16.1456 23.25 15.3851 23.25 14.4327V9.56737C23.25 8.61496 23.25 7.85438 23.1998 7.24013C23.1483 6.61012 23.0404 6.06824 22.7868 5.57054C22.3793 4.77085 21.7291 4.12068 20.9295 3.71322C20.4318 3.45963 19.8899 3.35165 19.2599 3.30018C18.6456 3.24999 17.8851 3.24999 16.9326 3.25Z" fill="#000"/>
<path d="M6.15002 9.8C6.15002 8.52975 7.17977 7.5 8.45002 7.5C9.72028 7.5 10.75 8.52975 10.75 9.8C10.75 11.0703 9.72028 12.1 8.45002 12.1C7.17977 12.1 6.15002 11.0703 6.15002 9.8Z" fill="#000"/>
<path d="M14.25 9.25C13.8358 9.25 13.5 9.58579 13.5 10C13.5 10.4142 13.8358 10.75 14.25 10.75H18.75C19.1642 10.75 19.5 10.4142 19.5 10C19.5 9.58579 19.1642 9.25 18.75 9.25H14.25Z" fill="#000"/>
<path d="M15.75 13.25C15.3358 13.25 15 13.5858 15 14C15 14.4142 15.3358 14.75 15.75 14.75L18.75 14.75C19.1642 14.75 19.5 14.4142 19.5 14C19.5 13.5858 19.1642 13.25 18.75 13.25L15.75 13.25Z" fill="#000"/>
<path d="M8.45 13.1C6.74382 13.1 5.18107 14.2619 4.76579 15.8754C4.72726 16.0251 4.76013 16.1842 4.85484 16.3064C4.94954 16.4285 5.09543 16.5 5.25 16.5H11.65C11.8046 16.5 11.9505 16.4285 12.0452 16.3064C12.1399 16.1842 12.1728 16.0251 12.1342 15.8754C11.7189 14.2619 10.1562 13.1 8.45 13.1Z" fill="#000"/>
</svg>
