<svg width="24" height="24" viewBox="0 0 24 24" fill="none" xmlns="http://www.w3.org/2000/svg">
<path opacity="0.4" d="M12 2.75C6.61522 2.75 2.25 7.11522 2.25 12.5C2.25 17.8848 6.61522 22.25 12 22.25C17.3848 22.25 21.75 17.8848 21.75 12.5C21.75 7.11522 17.3848 2.75 12 2.75Z" fill="#000"/>
<path d="M4.8 2.75C5.11578 2.75 5.41291 2.82088 5.67818 2.9469C6.05232 3.12463 6.49971 2.96541 6.67745 2.59127C6.85518 2.21713 6.69596 1.76974 6.32182 1.59201C5.85969 1.37247 5.3431 1.25 4.8 1.25C2.83939 1.25 1.25 2.83939 1.25 4.8C1.25 5.3431 1.37247 5.85968 1.59201 6.32182C1.76974 6.69596 2.21713 6.85518 2.59127 6.67745C2.96541 6.49971 3.12463 6.05232 2.9469 5.67818C2.82088 5.41291 2.75 5.11578 2.75 4.8C2.75 3.66782 3.66782 2.75 4.8 2.75Z" fill="#000"/>
<path d="M18.3218 2.9469C18.5871 2.82088 18.8842 2.75 19.2 2.75C20.3322 2.75 21.25 3.66782 21.25 4.8C21.25 5.11578 21.1791 5.41291 21.0531 5.67818C20.8754 6.05232 21.0346 6.49971 21.4087 6.67745C21.7829 6.85518 22.2302 6.69596 22.408 6.32182C22.6275 5.85968 22.75 5.3431 22.75 4.8C22.75 2.83939 21.1606 1.25 19.2 1.25C18.6569 1.25 18.1403 1.37247 17.6782 1.59201C17.304 1.76974 17.1448 2.21713 17.3225 2.59127C17.5003 2.96541 17.9477 3.12463 18.3218 2.9469Z" fill="#000"/>
<path d="M6.03032 18.9697C6.32322 19.2626 6.32322 19.7374 6.03032 20.0303L3.53032 22.5303C3.23743 22.8232 2.76256 22.8232 2.46966 22.5303C2.17677 22.2374 2.17677 21.7626 2.46966 21.4697L4.96966 18.9697C5.26256 18.6768 5.73743 18.6768 6.03032 18.9697Z" fill="#000"/>
<path d="M17.9697 18.9697C17.6768 19.2626 17.6768 19.7374 17.9697 20.0303L20.4697 22.5303C20.7626 22.8232 21.2374 22.8232 21.5303 22.5303C21.8232 22.2374 21.8232 21.7626 21.5303 21.4697L19.0303 18.9697C18.7374 18.6768 18.2626 18.6768 17.9697 18.9697Z" fill="#000"/>
<path d="M12.75 7.5C12.75 7.08579 12.4142 6.75 12 6.75C11.5858 6.75 11.25 7.08579 11.25 7.5V12.5C11.25 12.7586 11.3832 12.9989 11.6025 13.136L14.8025 15.136C15.1537 15.3555 15.6165 15.2488 15.836 14.8975C16.0555 14.5462 15.9487 14.0835 15.5975 13.864L12.75 12.0843V7.5Z" fill="#000"/>
</svg>
