<svg width="24" height="24" viewBox="0 0 24 24" fill="none" xmlns="http://www.w3.org/2000/svg">
<g opacity="0.4">
<path d="M12 2.75C10.5707 2.75 9.21134 3.05802 7.98633 3.61202C7.76196 3.71349 7.6017 3.91862 7.55754 4.16087C7.51337 4.40311 7.59093 4.65161 7.76504 4.82572L19.6743 16.735C19.8484 16.9091 20.0969 16.9866 20.3391 16.9425C20.5814 16.8983 20.7865 16.738 20.888 16.5137C21.442 15.2887 21.75 13.9293 21.75 12.5C21.75 7.11522 17.3848 2.75 12 2.75Z" fill="#000"/>
<path d="M6.42124 5.3606C6.1364 5.07576 5.67743 5.0668 5.38169 5.3403C3.45682 7.12042 2.25 9.66984 2.25 12.5C2.25 17.8848 6.61522 22.25 12 22.25C14.8302 22.25 17.3796 21.0432 19.1597 19.1183C19.4332 18.8226 19.4242 18.3636 19.1394 18.0788L6.42124 5.3606Z" fill="#000"/>
</g>
<path d="M2.53033 1.46967C2.23744 1.17678 1.76256 1.17678 1.46967 1.46967C1.17678 1.76256 1.17678 2.23744 1.46967 2.53033L1.81592 2.87658C1.45817 3.43072 1.25006 4.09143 1.25006 4.8C1.25006 5.3431 1.37253 5.85968 1.59207 6.32182C1.7698 6.69596 2.21719 6.85518 2.59133 6.67745C2.96548 6.49971 3.12469 6.05232 2.94696 5.67818C2.82094 5.41291 2.75006 5.11578 2.75006 4.8C2.75006 4.50854 2.81062 4.2316 2.9201 3.98076L21.4697 22.5303C21.7626 22.8232 22.2374 22.8232 22.5303 22.5303C22.8232 22.2374 22.8232 21.7626 22.5303 21.4697L3.35521 2.29455C3.35364 2.29296 3.35207 2.29136 3.35048 2.28978C3.3489 2.28819 3.34731 2.28662 3.34571 2.28505L2.53033 1.46967Z" fill="#000"/>
<path d="M18.3219 2.9469C18.5872 2.82088 18.8843 2.75 19.2001 2.75C20.3322 2.75 21.2501 3.66782 21.2501 4.8C21.2501 5.11578 21.1792 5.41291 21.0532 5.67818C20.8754 6.05232 21.0346 6.49971 21.4088 6.67744C21.7829 6.85518 22.2303 6.69596 22.4081 6.32182C22.6276 5.85969 22.7501 5.3431 22.7501 4.8C22.7501 2.83939 21.1607 1.25 19.2001 1.25C18.657 1.25 18.1404 1.37247 17.6782 1.59201C17.3041 1.76974 17.1449 2.21713 17.3226 2.59127C17.5004 2.96541 17.9477 3.12463 18.3219 2.9469Z" fill="#000"/>
<path d="M6.03039 20.0303C6.32328 19.7374 6.32328 19.2626 6.03039 18.9697C5.7375 18.6768 5.26262 18.6768 4.96973 18.9697L2.46973 21.4697C2.17684 21.7626 2.17684 22.2374 2.46973 22.5303C2.76262 22.8232 3.2375 22.8232 3.53039 22.5303L6.03039 20.0303Z" fill="#000"/>
</svg>
