<svg width="24" height="24" viewBox="0 0 24 24" fill="none" xmlns="http://www.w3.org/2000/svg">
<path opacity="0.4" d="M12 2.75C6.61522 2.75 2.25 7.11522 2.25 12.5C2.25 17.8848 6.61522 22.25 12 22.25C17.3848 22.25 21.75 17.8848 21.75 12.5C21.75 7.11522 17.3848 2.75 12 2.75Z" fill="#000"/>
<path d="M5.67818 2.9469C5.41291 2.82088 5.11578 2.75 4.8 2.75C3.66782 2.75 2.75 3.66782 2.75 4.8C2.75 5.11578 2.82088 5.41291 2.9469 5.67818C3.12463 6.05232 2.96541 6.49971 2.59127 6.67745C2.21713 6.85518 1.76974 6.69596 1.59201 6.32182C1.37247 5.85968 1.25 5.3431 1.25 4.8C1.25 2.83939 2.83939 1.25 4.8 1.25C5.3431 1.25 5.85969 1.37247 6.32182 1.59201C6.69596 1.76974 6.85518 2.21713 6.67745 2.59127C6.49971 2.96541 6.05232 3.12463 5.67818 2.9469Z" fill="#000"/>
<path d="M19.2 2.75C18.8842 2.75 18.5871 2.82088 18.3218 2.9469C17.9477 3.12463 17.5003 2.96541 17.3225 2.59127C17.1448 2.21713 17.304 1.76974 17.6782 1.59201C18.1403 1.37247 18.6569 1.25 19.2 1.25C21.1606 1.25 22.75 2.83939 22.75 4.8C22.75 5.3431 22.6275 5.85968 22.408 6.32182C22.2302 6.69596 21.7829 6.85518 21.4087 6.67745C21.0346 6.49971 20.8754 6.05232 21.0531 5.67818C21.1791 5.41291 21.25 5.11578 21.25 4.8C21.25 3.66782 20.3322 2.75 19.2 2.75Z" fill="#000"/>
<path d="M6.03032 20.0303C6.32322 19.7374 6.32322 19.2626 6.03032 18.9697C5.73743 18.6768 5.26256 18.6768 4.96966 18.9697L2.46966 21.4697C2.17677 21.7626 2.17677 22.2374 2.46966 22.5303C2.76256 22.8232 3.23743 22.8232 3.53032 22.5303L6.03032 20.0303Z" fill="#000"/>
<path d="M17.9697 20.0303C17.6768 19.7374 17.6768 19.2626 17.9697 18.9697C18.2626 18.6768 18.7374 18.6768 19.0303 18.9697L21.5303 21.4697C21.8232 21.7626 21.8232 22.2374 21.5303 22.5303C21.2374 22.8232 20.7626 22.8232 20.4697 22.5303L17.9697 20.0303Z" fill="#000"/>
<path d="M15.75 12.5C15.75 12.9142 15.4142 13.25 15 13.25H12.75V15.5C12.75 15.9142 12.4142 16.25 12 16.25C11.5858 16.25 11.25 15.9142 11.25 15.5V13.25H8.99999C8.58578 13.25 8.24999 12.9142 8.24999 12.5C8.24999 12.0858 8.58578 11.75 8.99999 11.75H11.25V9.5C11.25 9.08579 11.5858 8.75 12 8.75C12.4142 8.75 12.75 9.08579 12.75 9.5V11.75H15C15.4142 11.75 15.75 12.0858 15.75 12.5Z" fill="#000"/>
</svg>
