<svg width="24" height="24" viewBox="0 0 24 24" fill="none" xmlns="http://www.w3.org/2000/svg">
<g clip-path="url(#clip0_9002_7946)">
<path opacity="0.4" d="M12 0.25C5.51065 0.25 0.25 5.51065 0.25 12C0.25 18.4893 5.51065 23.75 12 23.75C18.4893 23.75 23.75 18.4893 23.75 12C23.75 5.51065 18.4893 0.25 12 0.25Z" fill="#000"/>
<path d="M10.4697 7.46967C10.1768 7.76256 10.1768 8.23744 10.4697 8.53033L13.9393 12L10.4697 15.4697C10.1768 15.7626 10.1768 16.2374 10.4697 16.5303C10.7626 16.8232 11.2374 16.8232 11.5303 16.5303L15.5303 12.5303C15.671 12.3897 15.75 12.1989 15.75 12C15.75 11.8011 15.671 11.6103 15.5303 11.4697L11.5303 7.46967C11.2374 7.17678 10.7626 7.17678 10.4697 7.46967Z" fill="#000"/>
</g>
<defs>
<clipPath id="clip0_9002_7946">
<rect width="24" height="24" fill="white"/>
</clipPath>
</defs>
</svg>
