<svg width="24" height="24" viewBox="0 0 24 24" fill="none" xmlns="http://www.w3.org/2000/svg">
<path opacity="0.4" d="M12 0.25C5.51065 0.25 0.25 5.51065 0.25 12C0.25 18.4893 5.51065 23.75 12 23.75C18.4893 23.75 23.75 18.4893 23.75 12C23.75 5.51065 18.4893 0.25 12 0.25Z" fill="#000"/>
<path d="M16.5303 13.5303C16.2374 13.8232 15.7626 13.8232 15.4697 13.5303L12 10.0607L8.53033 13.5303C8.23744 13.8232 7.76256 13.8232 7.46967 13.5303C7.17678 13.2374 7.17678 12.7626 7.46967 12.4697L11.4697 8.46967C11.6103 8.32902 11.8011 8.25 12 8.25C12.1989 8.25 12.3897 8.32902 12.5303 8.46967L16.5303 12.4697C16.8232 12.7626 16.8232 13.2374 16.5303 13.5303Z" fill="#000"/>
</svg>
