<svg width="24" height="24" viewBox="0 0 24 24" fill="none" xmlns="http://www.w3.org/2000/svg">
<g clip-path="url(#clip0_9002_7941)">
<path opacity="0.4" d="M12 0.25C5.51065 0.25 0.25 5.51065 0.25 12C0.25 18.4893 5.51065 23.75 12 23.75C18.4893 23.75 23.75 18.4893 23.75 12C23.75 5.51065 18.4893 0.25 12 0.25Z" fill="#000"/>
<path d="M13.5303 7.46967C13.8232 7.76256 13.8232 8.23744 13.5303 8.53033L10.0607 12L13.5303 15.4697C13.8232 15.7626 13.8232 16.2374 13.5303 16.5303C13.2374 16.8232 12.7626 16.8232 12.4697 16.5303L8.46967 12.5303C8.32902 12.3897 8.25 12.1989 8.25 12C8.25 11.8011 8.32902 11.6103 8.46967 11.4697L12.4697 7.46967C12.7626 7.17678 13.2374 7.17678 13.5303 7.46967Z" fill="#000"/>
</g>
<defs>
<clipPath id="clip0_9002_7941">
<rect width="24" height="24" fill="white"/>
</clipPath>
</defs>
</svg>
