<svg width="24" height="24" viewBox="0 0 24 24" fill="none" xmlns="http://www.w3.org/2000/svg">
<g clip-path="url(#clip0_9002_7956)">
<path opacity="0.4" d="M12 0.25C5.51065 0.25 0.25 5.51065 0.25 12C0.25 18.4893 5.51065 23.75 12 23.75C18.4893 23.75 23.75 18.4893 23.75 12C23.75 5.51065 18.4893 0.25 12 0.25Z" fill="#000"/>
<path d="M16.5303 10.4697C16.2374 10.1768 15.7626 10.1768 15.4697 10.4697L12 13.9393L8.53033 10.4697C8.23744 10.1768 7.76256 10.1768 7.46967 10.4697C7.17678 10.7626 7.17678 11.2374 7.46967 11.5303L11.4697 15.5303C11.6103 15.671 11.8011 15.75 12 15.75C12.1989 15.75 12.3897 15.671 12.5303 15.5303L16.5303 11.5303C16.8232 11.2374 16.8232 10.7626 16.5303 10.4697Z" fill="#000"/>
</g>
<defs>
<clipPath id="clip0_9002_7956">
<rect width="24" height="24" fill="white"/>
</clipPath>
</defs>
</svg>
