<svg width="24" height="24" viewBox="0 0 24 24" fill="none" xmlns="http://www.w3.org/2000/svg">
<path opacity="0.4" d="M3.29289 3.29289C2.90237 3.68342 2.90237 4.31658 3.29289 4.70711L10.5858 12L3.29289 19.2929C2.90237 19.6834 2.90237 20.3166 3.29289 20.7071C3.68342 21.0976 4.31658 21.0976 4.70711 20.7071L12.7071 12.7071C13.0976 12.3166 13.0976 11.6834 12.7071 11.2929L4.70711 3.29289C4.31658 2.90237 3.68342 2.90237 3.29289 3.29289Z" fill="#000"/>
<path d="M11.2929 3.29289C10.9024 3.68342 10.9024 4.31658 11.2929 4.70711L18.5858 12L11.2929 19.2929C10.9024 19.6834 10.9024 20.3166 11.2929 20.7071C11.6834 21.0976 12.3166 21.0976 12.7071 20.7071L20.7071 12.7071C21.0976 12.3166 21.0976 11.6834 20.7071 11.2929L12.7071 3.29289C12.3166 2.90237 11.6834 2.90237 11.2929 3.29289Z" fill="#000"/>
</svg>
