<svg width="24" height="24" viewBox="0 0 24 24" fill="none" xmlns="http://www.w3.org/2000/svg">
<path opacity="0.4" d="M20.7071 3.29289C21.0976 3.68342 21.0976 4.31658 20.7071 4.70711L13.4142 12L20.7071 19.2929C21.0976 19.6834 21.0976 20.3166 20.7071 20.7071C20.3166 21.0976 19.6834 21.0976 19.2929 20.7071L11.2929 12.7071C10.9024 12.3166 10.9024 11.6834 11.2929 11.2929L19.2929 3.29289C19.6834 2.90237 20.3166 2.90237 20.7071 3.29289Z" fill="#000"/>
<path d="M12.7071 3.29289C13.0976 3.68342 13.0976 4.31658 12.7071 4.70711L5.41421 12L12.7071 19.2929C13.0976 19.6834 13.0976 20.3166 12.7071 20.7071C12.3166 21.0976 11.6834 21.0976 11.2929 20.7071L3.29289 12.7071C2.90237 12.3166 2.90237 11.6834 3.29289 11.2929L11.2929 3.29289C11.6834 2.90237 12.3166 2.90237 12.7071 3.29289Z" fill="#000"/>
</svg>
