<svg width="24" height="24" viewBox="0 0 24 24" fill="none" xmlns="http://www.w3.org/2000/svg">
<path opacity="0.4" d="M3.5 7.25C3.08579 7.25 2.75 7.58579 2.75 8V16.2321C2.74999 17.0449 2.74999 17.7006 2.79336 18.2315C2.83803 18.7781 2.93239 19.2582 3.15873 19.7025C3.51825 20.4081 4.09193 20.9817 4.79754 21.3413C5.24175 21.5676 5.7219 21.662 6.26853 21.7066C6.79944 21.75 7.45505 21.75 8.26788 21.75H15.7321C16.545 21.75 17.2006 21.75 17.7315 21.7066C18.2781 21.662 18.7582 21.5676 19.2025 21.3413C19.9081 20.9817 20.4817 20.4081 20.8413 19.7025C21.0676 19.2582 21.162 18.7781 21.2066 18.2315C21.25 17.7006 21.25 17.045 21.25 16.2321V8C21.25 7.58579 20.9142 7.25 20.5 7.25H3.5Z" fill="#000"/>
<path d="M3.97223 2.25H20.0278C20.354 2.24999 20.6428 2.24997 20.8821 2.26952C21.1369 2.29034 21.4009 2.33702 21.658 2.46799C22.0343 2.65974 22.3403 2.9657 22.532 3.34202C22.663 3.59907 22.7097 3.86311 22.7305 4.11793C22.75 4.3572 22.75 4.64591 22.75 4.97212V5.5278C22.75 5.85401 22.75 6.14281 22.7305 6.38208C22.7097 6.6369 22.663 6.90094 22.532 7.15798C22.3403 7.53431 22.0343 7.84027 21.658 8.03202C21.4009 8.16299 21.1369 8.20966 20.8821 8.23048C20.6428 8.25003 20.354 8.25002 20.0278 8.25H3.97223C3.64597 8.25002 3.35723 8.25003 3.11793 8.23048C2.86311 8.20966 2.59907 8.16299 2.34202 8.03202C1.9657 7.84027 1.65974 7.53431 1.46799 7.15798C1.33702 6.90094 1.29034 6.6369 1.26952 6.38208C1.24997 6.1428 1.24999 5.85408 1.25 5.52785V4.97222C1.24999 4.646 1.24997 4.35721 1.26952 4.11793C1.29034 3.86311 1.33702 3.59907 1.46799 3.34202C1.65974 2.9657 1.9657 2.65974 2.34202 2.46799C2.59907 2.33702 2.86311 2.29034 3.11793 2.26952C3.35721 2.24997 3.646 2.24999 3.97223 2.25Z" fill="#000"/>
<path d="M14 12.75C14.4142 12.75 14.75 12.4142 14.75 12C14.75 11.5858 14.4142 11.25 14 11.25H10C9.58579 11.25 9.25 11.5858 9.25 12C9.25 12.4142 9.58579 12.75 10 12.75H14Z" fill="#000"/>
</svg>
