<svg width="24" height="24" viewBox="0 0 24 24" fill="none" xmlns="http://www.w3.org/2000/svg">
<path opacity="0.4" d="M22 12C22 12.5523 21.5523 13 21 13H3.5C2.94772 13 2.5 12.5523 2.5 12C2.5 11.4477 2.94772 11 3.5 11H21C21.5523 11 22 11.4477 22 12Z" fill="#000"/>
<path d="M8.70711 6.29289C9.09763 6.68342 9.09763 7.31658 8.70711 7.70711L4.41421 12L8.70711 16.2929C9.09763 16.6834 9.09763 17.3166 8.70711 17.7071C8.31658 18.0976 7.68342 18.0976 7.29289 17.7071L2.29289 12.7071C1.90237 12.3166 1.90237 11.6834 2.29289 11.2929L7.29289 6.29289C7.68342 5.90237 8.31658 5.90237 8.70711 6.29289Z" fill="#000"/>
</svg>
