<svg width="24" height="24" viewBox="0 0 24 24" fill="none" xmlns="http://www.w3.org/2000/svg">
<g opacity="0.4">
<path d="M3.17992 10.1989C4.01372 6.09132 7.6469 3 11.9999 3C15.8607 3 19.1561 5.43148 20.4335 8.85004C20.6268 9.36738 21.203 9.63006 21.7203 9.43674C22.2376 9.24341 22.5003 8.66731 22.307 8.14996C20.747 3.97518 16.7221 1 11.9999 1C6.677 1 2.23917 4.77972 1.21989 9.80107C1.11002 10.3423 1.45972 10.8701 2.00097 10.98C2.54222 11.0899 3.07005 10.7402 3.17992 10.1989Z" fill="#000"/>
<path d="M20.8209 13.8011C19.9871 17.9087 16.3539 21 12.001 21C8.14019 21 4.84478 18.5685 3.56733 15.15C3.37401 14.6326 2.7979 14.3699 2.28056 14.5633C1.76321 14.7566 1.50054 15.3327 1.69386 15.85C3.25389 20.0248 7.27873 23 12.001 23C17.3239 23 21.7617 19.2203 22.781 14.1989C22.8908 13.6577 22.5411 13.1299 21.9999 13.02C21.4586 12.9101 20.9308 13.2598 20.8209 13.8011Z" fill="#000"/>
</g>
<path d="M22.0009 9.5C22.2661 9.5 22.5205 9.39463 22.708 9.20707C22.8955 9.01951 23.0009 8.76513 23.0009 8.49989L23.0004 3.99989C23.0003 3.44761 22.5525 2.99994 22.0003 3C21.448 3.00006 21.0003 3.44782 21.0004 4.00011L21.0007 7.5H17.5004C16.9481 7.5 16.5004 7.94772 16.5004 8.5C16.5004 9.05228 16.9481 9.5 17.5004 9.5H22.0009Z" fill="#000"/>
<path d="M2 14.5C1.44772 14.5 1 14.9477 1 15.5V20C1 20.5523 1.44772 21 2 21C2.55228 21 3 20.5523 3 20V16.5H6.5C7.05228 16.5 7.5 16.0523 7.5 15.5C7.5 14.9477 7.05228 14.5 6.5 14.5H2Z" fill="#000"/>
</svg>
