<svg width="24" height="24" viewBox="0 0 24 24" fill="none" xmlns="http://www.w3.org/2000/svg">
<path opacity="0.4" d="M4.79289 19.2071C5.18342 19.5976 5.81658 19.5976 6.20711 19.2071L19.7071 5.70711C20.0976 5.31658 20.0976 4.68342 19.7071 4.29289C19.3166 3.90237 18.6834 3.90237 18.2929 4.29289L4.79289 17.7929C4.40237 18.1834 4.40237 18.8166 4.79289 19.2071Z" fill="#000"/>
<path d="M4 19C4 19.5523 4.44772 20 5 20H13C13.5523 20 14 19.5523 14 19C14 18.4477 13.5523 18 13 18H6V11C6 10.4477 5.55228 10 5 10C4.44772 10 4 10.4477 4 11V19Z" fill="#000"/>
</svg>
