<svg width="24" height="24" viewBox="0 0 24 24" fill="none" xmlns="http://www.w3.org/2000/svg">
<path opacity="0.4" d="M12 0.25C5.51065 0.25 0.25 5.51065 0.25 12C0.25 18.4893 5.51065 23.75 12 23.75C18.4893 23.75 23.75 18.4893 23.75 12C23.75 5.51065 18.4893 0.25 12 0.25Z" fill="#000"/>
<path d="M15.5 7.75C15.6989 7.75 15.8897 7.82902 16.0303 7.96967C16.171 8.11032 16.25 8.30109 16.25 8.5V14C16.25 14.4142 15.9142 14.75 15.5 14.75C15.0858 14.75 14.75 14.4142 14.75 14V10.3107L9.03033 16.0303C8.73744 16.3232 8.26256 16.3232 7.96967 16.0303C7.67678 15.7374 7.67678 15.2626 7.96967 14.9697L13.6893 9.25H10C9.58579 9.25 9.25 8.91421 9.25 8.5C9.25 8.08579 9.58579 7.75 10 7.75H15.5Z" fill="#000"/>
</svg>
