<svg width="24" height="24" viewBox="0 0 24 24" fill="none" xmlns="http://www.w3.org/2000/svg">
<path opacity="0.4" d="M19.2071 4.79289C18.8166 4.40237 18.1834 4.40237 17.7929 4.79289L4.29289 18.2929C3.90237 18.6834 3.90237 19.3166 4.29289 19.7071C4.68342 20.0976 5.31658 20.0976 5.70711 19.7071L19.2071 6.20711C19.5976 5.81658 19.5976 5.18342 19.2071 4.79289Z" fill="#000"/>
<path d="M20 5C20 4.44772 19.5523 4 19 4H11C10.4477 4 10 4.44772 10 5C10 5.55228 10.4477 6 11 6H18V13C18 13.5523 18.4477 14 19 14C19.5523 14 20 13.5523 20 13V5Z" fill="#000"/>
</svg>
