<svg width="24" height="24" viewBox="0 0 24 24" fill="none" xmlns="http://www.w3.org/2000/svg">
<path opacity="0.4" d="M12 22C12.5523 22 13 21.5523 13 21V3.5C13 2.94772 12.5523 2.5 12 2.5C11.4477 2.5 11 2.94772 11 3.5V21C11 21.5523 11.4477 22 12 22Z" fill="#000"/>
<path d="M6.29289 8.70711C6.68342 9.09763 7.31658 9.09763 7.70711 8.70711L12 4.41421L16.2929 8.70711C16.6834 9.09763 17.3166 9.09763 17.7071 8.70711C18.0976 8.31658 18.0976 7.68342 17.7071 7.29289L12.7071 2.29289C12.3166 1.90237 11.6834 1.90237 11.2929 2.29289L6.29289 7.29289C5.90237 7.68342 5.90237 8.31658 6.29289 8.70711Z" fill="#000"/>
</svg>
