<svg width="24" height="24" viewBox="0 0 24 24" fill="none" xmlns="http://www.w3.org/2000/svg">
<path opacity="0.4" d="M4.79289 4.79289C5.18342 4.40237 5.81658 4.40237 6.20711 4.79289L19.7071 18.2929C20.0976 18.6834 20.0976 19.3166 19.7071 19.7071C19.3166 20.0976 18.6834 20.0976 18.2929 19.7071L4.79289 6.20711C4.40237 5.81658 4.40237 5.18342 4.79289 4.79289Z" fill="#000"/>
<path d="M4 5C4 4.44772 4.44772 4 5 4H13C13.5523 4 14 4.44772 14 5C14 5.55228 13.5523 6 13 6H6V13C6 13.5523 5.55228 14 5 14C4.44772 14 4 13.5523 4 13V5Z" fill="#000"/>
</svg>
