<svg width="24" height="24" viewBox="0 0 24 24" fill="none" xmlns="http://www.w3.org/2000/svg">
<path opacity="0.4" d="M12 0.25C5.51065 0.25 0.25 5.51065 0.25 12C0.25 18.4893 5.51065 23.75 12 23.75C18.4893 23.75 23.75 18.4893 23.75 12C23.75 5.51065 18.4893 0.25 12 0.25Z" fill="#000"/>
<path d="M15.5 16.25C15.6989 16.25 15.8897 16.171 16.0303 16.0303C16.171 15.8897 16.25 15.6989 16.25 15.5V10C16.25 9.58579 15.9142 9.25 15.5 9.25C15.0858 9.25 14.75 9.58579 14.75 10V13.6893L9.03033 7.96967C8.73744 7.67678 8.26256 7.67678 7.96967 7.96967C7.67678 8.26256 7.67678 8.73744 7.96967 9.03033L13.6893 14.75H10C9.58579 14.75 9.25 15.0858 9.25 15.5C9.25 15.9142 9.58579 16.25 10 16.25H15.5Z" fill="#000"/>
</svg>
