<svg width="24" height="24" viewBox="0 0 24 24" fill="none" xmlns="http://www.w3.org/2000/svg">
<g clip-path="url(#clip0_9002_7966)">
<path opacity="0.4" d="M12 0.25C5.51065 0.25 0.25 5.51065 0.25 12C0.25 18.4893 5.51065 23.75 12 23.75C18.4893 23.75 23.75 18.4893 23.75 12C23.75 5.51065 18.4893 0.25 12 0.25Z" fill="#000"/>
<path d="M8.5 16.25C8.30109 16.25 8.11032 16.171 7.96967 16.0303C7.82902 15.8897 7.75 15.6989 7.75 15.5V10C7.75 9.58579 8.08579 9.25 8.5 9.25C8.91421 9.25 9.25 9.58579 9.25 10V13.6893L14.9697 7.96967C15.2626 7.67678 15.7374 7.67678 16.0303 7.96967C16.3232 8.26256 16.3232 8.73744 16.0303 9.03033L10.3107 14.75H14C14.4142 14.75 14.75 15.0858 14.75 15.5C14.75 15.9142 14.4142 16.25 14 16.25H8.5Z" fill="#000"/>
</g>
<defs>
<clipPath id="clip0_9002_7966">
<rect width="24" height="24" fill="white"/>
</clipPath>
</defs>
</svg>
