<svg width="24" height="24" viewBox="0 0 24 24" fill="none" xmlns="http://www.w3.org/2000/svg">
<g clip-path="url(#clip0_9002_7861)">
<path opacity="0.4" d="M12 0.25C5.51065 0.25 0.25 5.51065 0.25 12C0.25 18.4893 5.51065 23.75 12 23.75C18.4893 23.75 23.75 18.4893 23.75 12C23.75 5.51065 18.4893 0.25 12 0.25Z" fill="#000"/>
<path d="M15.4697 11.5303C15.7626 11.8232 16.2374 11.8232 16.5303 11.5303C16.8232 11.2374 16.8232 10.7626 16.5303 10.4697L12.5303 6.46967C12.3897 6.32902 12.1989 6.25 12 6.25C11.8011 6.25 11.6103 6.32902 11.4697 6.46967L7.46967 10.4697C7.17678 10.7626 7.17678 11.2374 7.46967 11.5303C7.76256 11.8232 8.23744 11.8232 8.53033 11.5303L11.25 8.81066V17C11.25 17.4142 11.5858 17.75 12 17.75C12.4142 17.75 12.75 17.4142 12.75 17L12.75 8.81066L15.4697 11.5303Z" fill="#000"/>
</g>
<defs>
<clipPath id="clip0_9002_7861">
<rect width="24" height="24" fill="white"/>
</clipPath>
</defs>
</svg>
