<svg width="24" height="24" viewBox="0 0 24 24" fill="none" xmlns="http://www.w3.org/2000/svg">
<g clip-path="url(#clip0_9002_7876)">
<path opacity="0.4" d="M12 0.25C5.51065 0.25 0.25 5.51065 0.25 12C0.25 18.4893 5.51065 23.75 12 23.75C18.4893 23.75 23.75 18.4893 23.75 12C23.75 5.51065 18.4893 0.25 12 0.25Z" fill="#000"/>
<path d="M8.5 7.75C8.30109 7.75 8.11032 7.82902 7.96967 7.96967C7.82902 8.11032 7.75 8.30109 7.75 8.5V14C7.75 14.4142 8.08579 14.75 8.5 14.75C8.91421 14.75 9.25 14.4142 9.25 14V10.3107L14.9697 16.0303C15.2626 16.3232 15.7374 16.3232 16.0303 16.0303C16.3232 15.7374 16.3232 15.2626 16.0303 14.9697L10.3107 9.25H14C14.4142 9.25 14.75 8.91421 14.75 8.5C14.75 8.08579 14.4142 7.75 14 7.75H8.5Z" fill="#000"/>
</g>
<defs>
<clipPath id="clip0_9002_7876">
<rect width="24" height="24" fill="white"/>
</clipPath>
</defs>
</svg>
