<svg width="24" height="24" viewBox="0 0 24 24" fill="none" xmlns="http://www.w3.org/2000/svg">
<path opacity="0.4" d="M19.2071 19.2071C18.8166 19.5976 18.1834 19.5976 17.7929 19.2071L4.29289 5.70711C3.90237 5.31658 3.90237 4.68342 4.29289 4.29289C4.68342 3.90237 5.31658 3.90237 5.70711 4.29289L19.2071 17.7929C19.5976 18.1834 19.5976 18.8166 19.2071 19.2071Z" fill="#000"/>
<path d="M20 19C20 19.5523 19.5523 20 19 20H11C10.4477 20 10 19.5523 10 19C10 18.4477 10.4477 18 11 18H18V11C18 10.4477 18.4477 10 19 10C19.5523 10 20 10.4477 20 11V19Z" fill="#000"/>
</svg>
