<svg width="24" height="24" viewBox="0 0 24 24" fill="none" xmlns="http://www.w3.org/2000/svg">
<path opacity="0.4" d="M12 2C12.5523 2 13 2.44772 13 3V20.5C13 21.0523 12.5523 21.5 12 21.5C11.4477 21.5 11 21.0523 11 20.5V3C11 2.44772 11.4477 2 12 2Z" fill="#000"/>
<path d="M6.29289 15.2929C6.68342 14.9024 7.31658 14.9024 7.70711 15.2929L12 19.5858L16.2929 15.2929C16.6834 14.9024 17.3166 14.9024 17.7071 15.2929C18.0976 15.6834 18.0976 16.3166 17.7071 16.7071L12.7071 21.7071C12.3166 22.0976 11.6834 22.0976 11.2929 21.7071L6.29289 16.7071C5.90237 16.3166 5.90237 15.6834 6.29289 15.2929Z" fill="#000"/>
</svg>
