<svg width="24" height="24" viewBox="0 0 24 24" fill="none" xmlns="http://www.w3.org/2000/svg">
<g clip-path="url(#clip0_9002_7951)">
<path opacity="0.4" d="M12 0.25C5.51065 0.25 0.25 5.51065 0.25 12C0.25 18.4893 5.51065 23.75 12 23.75C18.4893 23.75 23.75 18.4893 23.75 12C23.75 5.51065 18.4893 0.25 12 0.25Z" fill="#000"/>
<path d="M12.4697 8.53033C12.1768 8.23744 12.1768 7.76256 12.4697 7.46967C12.7626 7.17678 13.2374 7.17678 13.5303 7.46967L17.5303 11.4697C17.671 11.6103 17.75 11.8011 17.75 12C17.75 12.1989 17.671 12.3897 17.5303 12.5303L13.5303 16.5303C13.2374 16.8232 12.7626 16.8232 12.4697 16.5303C12.1768 16.2374 12.1768 15.7626 12.4697 15.4697L15.1893 12.75H7C6.58579 12.75 6.25 12.4142 6.25 12C6.25 11.5858 6.58579 11.25 7 11.25L15.1893 11.25L12.4697 8.53033Z" fill="#000"/>
</g>
<defs>
<clipPath id="clip0_9002_7951">
<rect width="24" height="24" fill="white"/>
</clipPath>
</defs>
</svg>
