<svg width="24" height="24" viewBox="0 0 24 24" fill="none" xmlns="http://www.w3.org/2000/svg">
<path opacity="0.4" fill-rule="evenodd" clip-rule="evenodd" d="M7.25 12C7.25 9.37665 9.37665 7.25 12 7.25C14.6234 7.25 16.75 9.37665 16.75 12C16.75 14.6234 14.6234 16.75 12 16.75C9.37665 16.75 7.25 14.6234 7.25 12ZM12 8.75C10.2051 8.75 8.75 10.2051 8.75 12C8.75 13.7949 10.2051 15.25 12 15.25C13.7949 15.25 15.25 13.7949 15.25 12C15.25 10.2051 13.7949 8.75 12 8.75Z" fill="#000"/>
<path d="M12 2.75C6.89137 2.75 2.75 6.89137 2.75 12C2.75 17.1086 6.89137 21.25 12 21.25C12.4142 21.25 12.75 21.5858 12.75 22C12.75 22.4142 12.4142 22.75 12 22.75C6.06294 22.75 1.25 17.9371 1.25 12C1.25 6.06294 6.06294 1.25 12 1.25C17.9371 1.25 22.75 6.06294 22.75 12C22.75 13.3266 22.5148 14.5689 21.9741 15.542C21.42 16.5391 20.5402 17.2519 19.3349 17.4241C18.1247 17.5969 17.0817 17.1255 16.3633 16.3593C15.6563 15.6053 15.25 14.5577 15.25 13.5V8.25C15.25 7.83579 15.5858 7.5 16 7.5C16.4142 7.5 16.75 7.83579 16.75 8.25V13.5C16.75 14.1888 17.0194 14.8661 17.4575 15.3333C17.8841 15.7884 18.4556 16.0344 19.1228 15.9391C19.795 15.8431 20.3008 15.465 20.6629 14.8134C21.0383 14.1378 21.25 13.1734 21.25 12C21.25 6.89137 17.1086 2.75 12 2.75Z" fill="#000"/>
</svg>
