<svg width="24" height="24" viewBox="0 0 24 24" fill="none" xmlns="http://www.w3.org/2000/svg">
<path opacity="0.4" d="M11.8244 4.25001C9.66517 4.24976 8.38682 4.24961 7.33031 4.60825C5.34317 5.28279 3.78279 6.84317 3.10825 8.83031C2.74961 9.88682 2.74976 11.1652 2.75001 13.3244L2.75003 18.0314C2.75002 18.7048 2.75001 19.2555 2.78658 19.7031C2.82443 20.1664 2.90516 20.5848 3.10426 20.9755C3.41584 21.587 3.91303 22.0842 4.52456 22.3958C4.9153 22.5949 5.3337 22.6756 5.79696 22.7135C6.24452 22.75 6.79522 22.75 7.46859 22.75H16.5315C17.2048 22.75 17.7555 22.75 18.2031 22.7135C18.6664 22.6756 19.0848 22.5949 19.4755 22.3958C20.087 22.0842 20.5842 21.587 20.8958 20.9755C21.0949 20.5848 21.1756 20.1664 21.2135 19.7031C21.25 19.2555 21.25 18.7048 21.25 18.0315L21.25 13.3244C21.2503 11.1652 21.2504 9.88681 20.8918 8.83031C20.2173 6.84317 18.6569 5.28279 16.6697 4.60825C15.6132 4.24961 14.3349 4.24976 12.1757 4.25001H11.8244Z" fill="#000"/>
<path d="M11.3711 1.25H12.6289C13.0242 1.24999 13.3654 1.24998 13.6463 1.27293C13.9428 1.29716 14.2377 1.35064 14.5215 1.49524C14.9448 1.71095 15.2891 2.05516 15.5048 2.47852C15.6494 2.76231 15.7028 3.05722 15.7271 3.35373C15.75 3.63466 15.75 3.97574 15.75 4.3711L15.75 5C15.75 5.41422 15.4142 5.75 15 5.75C14.5858 5.75 14.25 5.41422 14.25 5V4.4C14.25 3.96759 14.2494 3.68838 14.2321 3.47588C14.2154 3.27213 14.1872 3.19659 14.1683 3.15951C14.0964 3.01839 13.9816 2.90365 13.8405 2.83175C13.8034 2.81285 13.7279 2.7846 13.5241 2.76795C13.3116 2.75059 13.0324 2.75 12.6 2.75H11.4C10.9676 2.75 10.6884 2.75059 10.4759 2.76795C10.2721 2.7846 10.1966 2.81285 10.1595 2.83175C10.0184 2.90365 9.90365 3.01839 9.83175 3.15951C9.81285 3.19659 9.78459 3.27213 9.76795 3.47588C9.75059 3.68838 9.75 3.96759 9.75 4.4V5C9.75 5.41422 9.41422 5.75 9 5.75C8.58579 5.75 8.25 5.41422 8.25 5V4.37106C8.24999 3.97572 8.24998 3.63465 8.27293 3.35373C8.29715 3.05722 8.35064 2.76231 8.49524 2.47852C8.71095 2.05516 9.05516 1.71095 9.47852 1.49524C9.76231 1.35064 10.0572 1.29716 10.3537 1.27293C10.6346 1.24998 10.9758 1.24999 11.3711 1.25Z" fill="#000"/>
<path d="M9.75 9C9.75 8.58579 10.0858 8.25 10.5 8.25H13.5C13.9142 8.25 14.25 8.58579 14.25 9C14.25 9.41422 13.9142 9.75 13.5 9.75H10.5C10.0858 9.75 9.75 9.41422 9.75 9Z" fill="#000"/>
<path d="M14.2211 12.5H9.77893C9.3068 12.5 8.92214 12.5 8.60989 12.5255C8.28715 12.5519 7.99793 12.608 7.72852 12.7452C7.30516 12.961 6.96095 13.3052 6.74524 13.7285C6.60797 13.9979 6.55187 14.2872 6.5255 14.6099C6.5082 14.8217 6.50263 15.0668 6.50084 15.35C6.49997 15.4891 6.49953 15.5587 6.52665 15.6125C6.55041 15.6597 6.58899 15.6985 6.63598 15.7225C6.68963 15.75 6.75976 15.75 6.9 15.75H17.1C17.2402 15.75 17.3104 15.75 17.364 15.7225C17.411 15.6985 17.4496 15.6597 17.4733 15.6125C17.5005 15.5587 17.5 15.4891 17.4992 15.35C17.4974 15.0668 17.4918 14.8217 17.4745 14.6099C17.4481 14.2872 17.392 13.9979 17.2548 13.7285C17.039 13.3052 16.6948 12.961 16.2715 12.7452C16.0021 12.608 15.7128 12.5519 15.3901 12.5255C15.0779 12.5 14.6932 12.5 14.2211 12.5Z" fill="#000"/>
<path d="M6.6365 17.2772C6.68998 17.25 6.75999 17.25 6.9 17.25H17.1C17.24 17.25 17.31 17.25 17.3635 17.2772C17.4105 17.3012 17.4488 17.3395 17.4728 17.3865C17.5 17.44 17.5 17.51 17.5 17.65V22.75H6.5V17.65C6.5 17.51 6.5 17.44 6.52725 17.3865C6.55122 17.3395 6.58946 17.3012 6.6365 17.2772Z" fill="#000"/>
</svg>
