<svg width="24" height="24" viewBox="0 0 24 24" fill="none" xmlns="http://www.w3.org/2000/svg">
<path opacity="0.4" fill-rule="evenodd" clip-rule="evenodd" d="M24 12C24 5.37258 18.6274 0 12 0C5.37258 0 0 5.37258 0 12C0 18.6274 5.37258 24 12 24C18.6274 24 24 18.6274 24 12ZM12 2C17.5228 2 22 6.47715 22 12C22 17.5228 17.5228 22 12 22C6.47715 22 2 17.5228 2 12C2 6.47715 6.47715 2 12 2Z" fill="#000"/>
<path d="M5.67154 4.25708L19.7432 18.3288C19.3201 18.8459 18.8461 19.3198 18.329 19.743L4.25732 5.67129C4.68049 5.15419 5.15443 4.68024 5.67154 4.25708Z" fill="#000"/>
</svg>
