<svg width="24" height="24" viewBox="0 0 24 24" fill="none" xmlns="http://www.w3.org/2000/svg">
<g opacity="0.4">
<path d="M13.7834 1.78378C12.7005 1.07272 11.2987 1.07272 10.2158 1.78378L2.15299 7.07791C0.492826 8.168 1.26468 10.7497 3.25073 10.7497H20.7485C22.7345 10.7497 23.5064 8.168 21.8462 7.07791L13.7834 1.78378Z" fill="#000"/>
<path d="M2.74979 19C2.74979 18.5858 3.08557 18.25 3.49979 18.25H20.4998C20.914 18.25 21.2498 18.5858 21.2498 19C21.2498 19.4142 20.914 19.75 20.4998 19.75H3.49979C3.08557 19.75 2.74979 19.4142 2.74979 19Z" fill="#000"/>
<path d="M1.99979 21.25C1.58557 21.25 1.24979 21.5858 1.24979 22C1.24979 22.4142 1.58557 22.75 1.99979 22.75H21.9998C22.414 22.75 22.7498 22.4142 22.7498 22C22.7498 21.5858 22.414 21.25 21.9998 21.25H1.99979Z" fill="#000"/>
</g>
<path d="M12 5.25C12.4142 5.25 12.75 5.58579 12.75 6V7.5C12.75 7.91421 12.4142 8.25 12 8.25C11.5858 8.25 11.25 7.91421 11.25 7.5V6C11.25 5.58579 11.5858 5.25 12 5.25Z" fill="#000"/>
<path d="M18.75 12.25C19.1642 12.25 19.5 12.5858 19.5 13V16C19.5 16.4142 19.1642 16.75 18.75 16.75C18.3358 16.75 18 16.4142 18 16V13C18 12.5858 18.3358 12.25 18.75 12.25Z" fill="#000"/>
<path d="M15 13C15 12.5858 14.6642 12.25 14.25 12.25C13.8358 12.25 13.5 12.5858 13.5 13V16C13.5 16.4142 13.8358 16.75 14.25 16.75C14.6642 16.75 15 16.4142 15 16V13Z" fill="#000"/>
<path d="M9.75 12.25C10.1642 12.25 10.5 12.5858 10.5 13V16C10.5 16.4142 10.1642 16.75 9.75 16.75C9.33579 16.75 9 16.4142 9 16V13C9 12.5858 9.33579 12.25 9.75 12.25Z" fill="#000"/>
<path d="M6 13C6 12.5858 5.66421 12.25 5.25 12.25C4.83579 12.25 4.5 12.5858 4.5 13V16C4.5 16.4142 4.83579 16.75 5.25 16.75C5.66421 16.75 6 16.4142 6 16V13Z" fill="#000"/>
</svg>
