<svg width="24" height="24" viewBox="0 0 24 24" fill="none" xmlns="http://www.w3.org/2000/svg">
<path opacity="0.4" d="M2 9.25C1.78342 9.25 1.57741 9.34363 1.43498 9.5068C1.29255 9.66996 1.22762 9.88674 1.25688 10.1013L2.19478 16.9792C2.29168 17.6899 2.37017 18.2655 2.4704 18.7308C2.57397 19.2116 2.71127 19.6298 2.9537 20.0113C3.34127 20.6212 3.89679 21.1061 4.55343 21.4077C4.96418 21.5964 5.39708 21.6759 5.88751 21.7136C6.36206 21.75 6.94296 21.75 7.66023 21.75H10.5815C10.8309 21.75 11.064 21.626 11.2034 21.4192C11.3428 21.2124 11.3703 20.9498 11.2767 20.7186C10.9373 19.88 10.75 18.9628 10.75 18C10.75 13.9959 13.9959 10.75 18 10.75C18.6162 10.75 19.2134 10.8267 19.783 10.9707C19.99 11.023 20.2095 10.9846 20.3864 10.8652C20.5634 10.7457 20.6811 10.5565 20.7099 10.3449L20.7431 10.1013C20.7724 9.88673 20.7075 9.66996 20.565 9.5068C20.4226 9.34363 20.2166 9.25 20 9.25H2Z" fill="#000"/>
<path d="M9.11443 1.43016C9.35196 1.09082 9.26944 0.623176 8.9301 0.38564C8.59076 0.148105 8.12312 0.230631 7.88558 0.569968L4.60951 5.25006L2.57379 5.25006C2.3163 5.25004 2.07982 5.25002 1.88213 5.26618C1.669 5.28359 1.43583 5.32345 1.20552 5.4408C0.876236 5.60858 0.608521 5.87629 0.440742 6.20558C0.323395 6.43588 0.283532 6.66906 0.266119 6.88219C0.249968 7.07986 0.249984 7.31632 0.250001 7.57379V8.42628C0.249984 8.68375 0.249968 8.92026 0.266119 9.11793C0.283532 9.33107 0.323395 9.56424 0.440742 9.79455C0.60852 10.1238 0.876236 10.3915 1.20552 10.5593C1.43583 10.6767 1.669 10.7165 1.88213 10.7339C2.07981 10.7501 2.31629 10.7501 2.57377 10.7501H19.4262C19.6837 10.7501 19.9202 10.7501 20.1179 10.7339C20.331 10.7165 20.5642 10.6767 20.7945 10.5593C21.1238 10.3915 21.3915 10.1238 21.5593 9.79455C21.6766 9.56424 21.7165 9.33107 21.7339 9.11793C21.75 8.92025 21.75 8.68377 21.75 8.42629V7.57383C21.75 7.31635 21.75 7.07987 21.7339 6.88219C21.7165 6.66906 21.6766 6.43588 21.5593 6.20558C21.3915 5.87629 21.1238 5.60858 20.7945 5.4408C20.5642 5.32345 20.331 5.28359 20.1179 5.26618C19.9202 5.25002 19.6837 5.25004 19.4262 5.25006L17.3905 5.25006L14.1144 0.569968C13.8769 0.230631 13.4092 0.148105 13.0699 0.38564C12.7306 0.623176 12.648 1.09082 12.8856 1.43016L15.5595 5.25006H6.4405L9.11443 1.43016Z" fill="#000"/>
<path fill-rule="evenodd" clip-rule="evenodd" d="M18 12.25C14.8244 12.25 12.25 14.8244 12.25 18C12.25 21.1756 14.8244 23.75 18 23.75C21.1756 23.75 23.75 21.1756 23.75 18C23.75 14.8244 21.1756 12.25 18 12.25ZM17.375 18.9912V15.5C17.375 15.1548 17.6548 14.875 18 14.875C18.3452 14.875 18.625 15.1548 18.625 15.5V18.9911L19.5581 18.0581C19.8021 17.814 20.1979 17.814 20.442 18.0581C20.686 18.3021 20.686 18.6979 20.442 18.9419L18.4419 20.942C18.1979 21.186 17.8021 21.186 17.5581 20.942L15.5581 18.942C15.314 18.6979 15.314 18.3022 15.5581 18.0581C15.8021 17.814 16.1979 17.814 16.4419 18.0581L17.375 18.9912Z" fill="#000"/>
<path d="M11.4528 13.4016C10.9054 14.1796 10.4932 15.0594 10.2502 16.0071L10.2502 13.9998C10.2502 13.5855 10.586 13.2498 11.0002 13.2498C11.1702 13.2498 11.327 13.3063 11.4528 13.4016Z" fill="#000"/>
<path d="M7.00013 13.2498C7.41435 13.2498 7.75013 13.5855 7.75013 13.9998L7.75012 17.4998C7.75012 17.914 7.41433 18.2498 7.00012 18.2498C6.58591 18.2498 6.25012 17.914 6.25012 17.4998L6.25013 13.9998C6.25013 13.5855 6.58592 13.2498 7.00013 13.2498Z" fill="#000"/>
</svg>
