<svg width="24" height="24" viewBox="0 0 24 24" fill="none" xmlns="http://www.w3.org/2000/svg">
<path opacity="0.4" d="M3 10.25C2.78342 10.25 2.57741 10.3436 2.43498 10.5068C2.29255 10.67 2.22762 10.8867 2.25688 11.1013L3.19478 17.9792C3.29168 18.6899 3.37017 19.2655 3.4704 19.7308C3.57397 20.2116 3.71127 20.6298 3.9537 21.0113C4.34127 21.6212 4.89679 22.1061 5.55343 22.4077C5.96418 22.5964 6.39708 22.6759 6.88751 22.7136C7.36206 22.75 7.94296 22.75 8.66023 22.75H15.3398C16.057 22.75 16.638 22.75 17.1125 22.7136C17.6029 22.6759 18.0358 22.5964 18.4466 22.4077C19.1032 22.1061 19.6587 21.6212 20.0463 21.0113C20.2887 20.6298 20.426 20.2116 20.5296 19.7308C20.6298 19.2655 20.7083 18.6899 20.8052 17.9791L21.7431 11.1013C21.7724 10.8867 21.7075 10.67 21.565 10.5068C21.4226 10.3436 21.2166 10.25 21 10.25H3Z" fill="#000"/>
<path d="M10.1144 2.43004C10.352 2.0907 10.2694 1.62305 9.9301 1.38552C9.59076 1.14798 9.12312 1.23051 8.88558 1.56985L5.60951 6.24994L3.57379 6.24994C3.3163 6.24992 3.07982 6.2499 2.88213 6.26605C2.669 6.28347 2.43583 6.32333 2.20552 6.44068C1.87624 6.60846 1.60852 6.87617 1.44074 7.20546C1.32339 7.43576 1.28353 7.66893 1.26612 7.88207C1.24997 8.07974 1.24998 8.3162 1.25 8.57367V9.42616C1.24998 9.68362 1.24997 9.92014 1.26612 10.1178C1.28353 10.3309 1.32339 10.5641 1.44074 10.7944C1.60852 11.1237 1.87624 11.3914 2.20552 11.5592C2.43583 11.6765 2.669 11.7164 2.88213 11.7338C3.07981 11.75 3.31629 11.75 3.57377 11.7499H20.4262C20.6837 11.75 20.9202 11.75 21.1179 11.7338C21.331 11.7164 21.5642 11.6765 21.7945 11.5592C22.1238 11.3914 22.3915 11.1237 22.5593 10.7944C22.6766 10.5641 22.7165 10.3309 22.7339 10.1178C22.75 9.92013 22.75 9.68365 22.75 9.42617V8.57371C22.75 8.31623 22.75 8.07975 22.7339 7.88207C22.7165 7.66893 22.6766 7.43576 22.5593 7.20546C22.3915 6.87617 22.1238 6.60846 21.7945 6.44068C21.5642 6.32333 21.331 6.28347 21.1179 6.26605C20.9202 6.2499 20.6837 6.24992 20.4262 6.24994L18.3905 6.24994L15.1144 1.56985C14.8769 1.23051 14.4092 1.14798 14.0699 1.38552C13.7306 1.62305 13.648 2.0907 13.8856 2.43004L16.5595 6.24994H7.4405L10.1144 2.43004Z" fill="#000"/>
<path d="M8.75001 14.9999C8.75001 14.5857 8.41423 14.2499 8.00001 14.2499C7.5858 14.2499 7.25001 14.5857 7.25001 14.9999L7.25 18.4999C7.25 18.9141 7.58579 19.2499 8 19.2499C8.41421 19.2499 8.75 18.9141 8.75 18.4999L8.75001 14.9999Z" fill="#000"/>
<path d="M12.75 14.9999C12.75 14.5857 12.4142 14.2499 12 14.2499C11.5858 14.2499 11.25 14.5857 11.25 14.9999L11.25 18.4999C11.25 18.9141 11.5858 19.2499 12 19.2499C12.4142 19.2499 12.75 18.9141 12.75 18.4999L12.75 14.9999Z" fill="#000"/>
<path d="M16 14.2499C16.4142 14.2499 16.75 14.5857 16.75 14.9999L16.75 18.4999C16.75 18.9141 16.4142 19.2499 16 19.2499C15.5858 19.2499 15.25 18.9141 15.25 18.4999L15.25 14.9999C15.25 14.5857 15.5858 14.2499 16 14.2499Z" fill="#000"/>
</svg>
