<svg width="24" height="24" viewBox="0 0 24 24" fill="none" xmlns="http://www.w3.org/2000/svg">
<g opacity="0.4">
<path d="M12 1.25C10.1492 1.25 8.44663 1.94063 7.15119 3.08619C6.9962 3.22324 6.90472 3.41823 6.89837 3.62503C6.89203 3.83182 6.9714 4.03206 7.11769 4.17835L20.3983 17.459C20.5836 17.6442 20.852 17.7194 21.1065 17.6573C21.361 17.5952 21.5646 17.4048 21.6437 17.155C21.7129 16.9363 21.75 16.7042 21.75 16.4648C21.75 16.0137 21.6165 15.5726 21.3662 15.1972L21.3329 15.1473C20.2808 13.5691 19.6397 11.753 19.468 9.86397L19.2901 7.90746C18.9474 4.13698 15.786 1.25 12 1.25Z" fill="#000"/>
<path d="M6.49674 5.43608C6.321 5.26034 6.06961 5.18307 5.8255 5.22976C5.58139 5.27646 5.37626 5.44105 5.27779 5.66925C4.97764 6.36479 4.7817 7.11729 4.70987 7.90746L4.532 9.86398C4.36027 11.753 3.7192 13.5691 2.66706 15.1473L2.6338 15.1972C2.38354 15.5726 2.25 16.0137 2.25 16.4648C2.25 17.7269 3.27311 18.75 4.53518 18.75H18C18.3033 18.75 18.5768 18.5673 18.6929 18.287C18.809 18.0068 18.7448 17.6842 18.5303 17.4697L6.49674 5.43608Z" fill="#000"/>
</g>
<path d="M2.53033 1.46967C2.23744 1.17678 1.76256 1.17678 1.46967 1.46967C1.17678 1.76256 1.17678 2.23744 1.46967 2.53033L21.4697 22.5303C21.7626 22.8232 22.2374 22.8232 22.5303 22.5303C22.8232 22.2374 22.8232 21.7626 22.5303 21.4697L2.53033 1.46967Z" fill="#000"/>
<path d="M10.0506 20.1243C9.84317 19.7658 9.38437 19.6433 9.02583 19.8507C8.66728 20.0581 8.54476 20.5169 8.75217 20.8754C9.39943 21.9943 10.611 22.7499 12 22.7499C13.389 22.7499 14.6006 21.9943 15.2479 20.8754C15.4553 20.5169 15.3328 20.0581 14.9742 19.8507C14.6157 19.6433 14.1569 19.7658 13.9495 20.1243C13.5593 20.7988 12.8319 21.2499 12 21.2499C11.1681 21.2499 10.4407 20.7988 10.0506 20.1243Z" fill="#000"/>
</svg>
