<svg width="24" height="24" viewBox="0 0 24 24" fill="none" xmlns="http://www.w3.org/2000/svg">
<path opacity="0.4" fill-rule="evenodd" clip-rule="evenodd" d="M4.5 4.5C4.5 3.94772 4.94772 3.5 5.5 3.5H13.25C15.8733 3.5 18 5.62665 18 8.25002C18 9.48107 17.5317 10.6027 16.7635 11.4466C18.3802 12.2044 19.5 13.8464 19.5 15.75C19.5 18.3733 17.3733 20.5 14.75 20.5H5.5C4.94772 20.5 4.5 20.0523 4.5 19.5C4.5 18.9477 4.94772 18.5 5.5 18.5H6.5L6.5 5.5H5.5C4.94772 5.5 4.5 5.05228 4.5 4.5ZM8.5 5.5L8.5 11H13.2686C14.7788 10.9899 16 9.76258 16 8.25002C16 6.73122 14.7687 5.5 13.25 5.5H8.5ZM8.5 13L8.5 18.5H14.75C16.2687 18.5 17.5 17.2688 17.5 15.75C17.5 14.2312 16.2687 13 14.75 13H13.2745L13.25 13H8.5Z" fill="#000"/>
<path d="M9 1C9.55228 1 10 1.44772 10 2V3.5H8L8 2C8 1.44772 8.44772 1 9 1Z" fill="#000"/>
<path d="M8 20.5L8 22C8 22.5523 8.44772 23 9 23C9.55228 23 10 22.5523 10 22V20.5H8Z" fill="#000"/>
<path d="M12 20.5V22C12 22.5523 12.4477 23 13 23C13.5523 23 14 22.5523 14 22V20.5H12Z" fill="#000"/>
<path d="M14 3.55888V2C14 1.44772 13.5523 1 13 1C12.4477 1 12 1.44772 12 2V3.5H13.25C13.5052 3.5 13.7557 3.52013 14 3.55888Z" fill="#000"/>
</svg>
