<svg width="24" height="24" viewBox="0 0 24 24" fill="none" xmlns="http://www.w3.org/2000/svg">
<path opacity="0.4" fill-rule="evenodd" clip-rule="evenodd" d="M11.5713 22.9037C11.9205 23.0691 12.3337 23.0186 12.6327 22.774L18.1327 18.274C18.3514 18.095 18.4842 17.832 18.4983 17.5498C18.5123 17.2676 18.4064 16.9927 18.2066 16.7929L12.7066 11.2929C12.3161 10.9024 11.6829 10.9024 11.2924 11.2929L5.2924 17.2929C4.90188 17.6834 4.90188 18.3166 5.2924 18.7071C5.68293 19.0976 6.31609 19.0976 6.70662 18.7071L10.9995 14.4142V22C10.9995 22.3864 11.2221 22.7382 11.5713 22.9037ZM12.9995 14.4142L16.0111 17.4258L12.9995 19.8898V14.4142Z" fill="#000"/>
<path fill-rule="evenodd" clip-rule="evenodd" d="M11.5718 1.09634C11.9209 0.930878 12.3342 0.981377 12.6332 1.22605L18.1332 5.72605C18.3519 5.90496 18.4847 6.16802 18.4988 6.4502C18.5128 6.73238 18.4069 7.00734 18.2071 7.20712L12.7071 12.7071C12.3166 13.0976 11.6834 13.0976 11.2929 12.7071L5.29289 6.70712C4.90237 6.31659 4.90237 5.68343 5.29289 5.2929C5.68342 4.90238 6.31658 4.90238 6.70711 5.2929L11 9.5858V2.00001C11 1.61362 11.2226 1.2618 11.5718 1.09634ZM13 9.5858L16.0115 6.57425L13 4.11025V9.5858Z" fill="#000"/>
</svg>
