<svg width="24" height="24" viewBox="0 0 24 24" fill="none" xmlns="http://www.w3.org/2000/svg">
<path opacity="0.4" d="M16.689 15.6246C16.959 15.8946 16.983 16.3246 16.745 16.6236L13.436 20.7616C12.411 22.0436 11.943 22.6276 11.273 22.7336C11.181 22.7486 11.089 22.7546 10.999 22.7546C10.512 22.7546 10.044 22.5516 9.709 22.1846C9.251 21.6836 9.251 20.9346 9.251 19.2926V15.6016C9.251 15.2876 9.251 14.9626 9.222 14.8836C9.2 14.8416 9.162 14.8036 9.116 14.7796C9.039 14.7516 8.715 14.7516 8.402 14.7516H6.25C5.011 14.7516 4.39 14.7516 3.911 14.3696C3.489 14.0356 3.25 13.5366 3.25 13.0006C3.25 12.3876 3.639 11.9016 4.413 10.9346L7.26 7.37363C7.393 7.20663 7.592 7.10463 7.804 7.09263C8.012 7.08763 8.225 7.16063 8.376 7.31163L16.688 15.6246H16.689ZM20.091 9.63363C19.612 9.25163 18.99 9.25163 17.752 9.25163H15.6C15.286 9.25163 14.961 9.25163 14.887 9.22463C14.841 9.20163 14.802 9.16263 14.78 9.12063C14.751 9.04063 14.751 8.71563 14.751 8.40163V4.71063C14.751 3.06963 14.751 2.32063 14.293 1.81963C13.896 1.38463 13.313 1.17963 12.728 1.27163C12.058 1.37763 11.59 1.96263 10.565 3.24363L9.038 5.15263C8.8 5.45063 8.824 5.88163 9.094 6.15163L17.406 14.4646C17.547 14.6056 17.738 14.6846 17.936 14.6846C17.95 14.6846 17.964 14.6846 17.978 14.6846C18.191 14.6726 18.389 14.5706 18.522 14.4036L19.591 13.0666C20.362 12.1016 20.75 11.6166 20.75 11.0056C20.75 10.4696 20.511 9.97063 20.092 9.63563L20.091 9.63363Z" fill="#000"/>
<path d="M1.46967 1.46967C1.76256 1.17678 2.23744 1.17678 2.53033 1.46967L22.5303 21.4697C22.8232 21.7626 22.8232 22.2374 22.5303 22.5303C22.2374 22.8232 21.7626 22.8232 21.4697 22.5303L1.46967 2.53033C1.17678 2.23744 1.17678 1.76256 1.46967 1.46967Z" fill="#000"/>
</svg>
