<svg width="24" height="24" viewBox="0 0 24 24" fill="none" xmlns="http://www.w3.org/2000/svg">
<path opacity="0.4" fill-rule="evenodd" clip-rule="evenodd" d="M2.25 19.5V5.5C2.25 3.15279 4.15279 1.25 6.5 1.25H19.5C20.7426 1.25 21.75 2.25736 21.75 3.5V15.5C21.75 16.6581 20.875 17.6119 19.75 17.7363V21.25H21C21.4142 21.25 21.75 21.5858 21.75 22C21.75 22.4142 21.4142 22.75 21 22.75H5.5C3.70507 22.75 2.25 21.2949 2.25 19.5ZM3.75 19.5C3.75 18.5335 4.5335 17.75 5.5 17.75H18.25V21.25H5.5C4.5335 21.25 3.75 20.4665 3.75 19.5Z" fill="#000"/>
<path d="M3.75 19.5C3.75 18.5335 4.5335 17.75 5.5 17.75H18.25V21.25H5.5C4.5335 21.25 3.75 20.4665 3.75 19.5Z" fill="#000"/>
</svg>
