<svg width="24" height="24" viewBox="0 0 24 24" fill="none" xmlns="http://www.w3.org/2000/svg">
<path opacity="0.4" d="M7.59608 2.75C5.75524 2.75 3.95558 3.29489 2.42391 4.31601L2.12687 4.51403C1.57905 4.87925 1.25 5.49408 1.25 6.15248V19.2755C1.25 20.3979 2.50095 21.0674 3.43488 20.4448C4.60349 19.6657 5.97655 19.25 7.38104 19.25H7.84941C8.74758 19.25 9.61902 19.5557 10.3204 20.1168L11.5315 21.0857C11.8054 21.3048 12.1946 21.3048 12.4685 21.0857L13.6796 20.1168C14.381 19.5557 15.2524 19.25 16.1506 19.25H16.619C18.0234 19.25 19.3965 19.6657 20.5651 20.4448C21.499 21.0674 22.75 20.3979 22.75 19.2755V6.15248C22.75 5.49408 22.4209 4.87925 21.8731 4.51403L21.5761 4.31601C20.0444 3.29489 18.2448 2.75 16.4039 2.75C14.7027 2.75 13.0912 3.50297 12 4.80205C10.9088 3.50297 9.29734 2.75 7.59608 2.75Z" fill="#000"/>
<path d="M12.75 4.0597C12.4798 4.28193 12.2285 4.53002 12 4.80205C11.7715 4.53002 11.5202 4.28193 11.25 4.05969V20.8605L11.5315 21.0856C11.8054 21.3048 12.1946 21.3048 12.4685 21.0856L12.75 20.8605V4.0597Z" fill="#000"/>
</svg>
