<svg width="24" height="24" viewBox="0 0 24 24" fill="none" xmlns="http://www.w3.org/2000/svg">
<g opacity="0.4">
<path d="M14.306 1.25H9.67005C8.80808 1.24999 8.11321 1.24999 7.54928 1.29314C6.97212 1.33729 6.46848 1.42997 6.00532 1.65038C5.7853 1.75508 5.62986 1.96014 5.58849 2.20026C5.54712 2.44038 5.62498 2.68564 5.79727 2.85793L18.9697 16.0303C19.1842 16.2448 19.5068 16.309 19.787 16.1929C20.0673 16.0768 20.25 15.8033 20.25 15.5V7.16762C20.25 6.28458 20.25 5.57634 20.2033 5.00372C20.1552 4.41538 20.0541 3.90445 19.8143 3.4336C19.805 3.41528 19.7949 3.39735 19.7841 3.37985C19.1889 2.41626 18.5739 1.82155 17.7005 1.52359C16.9325 1.26157 16.0171 1.25784 14.9458 1.25347L14.8403 1.25303C14.6691 1.25229 14.4916 1.25149 14.306 1.25Z" fill="#000"/>
<path d="M5.12882 4.06816C4.92969 3.86903 4.63581 3.79823 4.36785 3.88483C4.09989 3.97143 3.90302 4.20084 3.85809 4.47884C3.76033 5.08377 3.75712 5.79283 3.75346 6.60192L3.75323 6.65181C3.75243 6.82537 3.75158 7.00534 3.75 7.1937V21.281C3.75 22.0922 4.40779 22.75 5.219 22.75C5.58852 22.75 5.94443 22.611 6.21622 22.3596L11.4237 17.5531C11.4331 17.5444 11.4423 17.5355 11.4512 17.5264C11.6418 17.3315 11.7797 17.2198 11.8801 17.1588C11.9276 17.13 11.9592 17.1171 11.977 17.1115C11.9856 17.1087 11.9913 17.1076 11.9942 17.1071L11.9977 17.1067L11.9993 17.1066C11.9993 17.1066 12.0056 17.1063 12.022 17.1116C12.0399 17.1173 12.0717 17.1302 12.1194 17.1592C12.2202 17.2204 12.3584 17.3322 12.5494 17.527C12.5582 17.5359 12.5671 17.5446 12.5763 17.5531L17.7839 22.3597C18.0557 22.611 18.4115 22.75 18.781 22.75C19.5922 22.75 20.25 22.0922 20.25 21.281V19.5C20.25 19.3011 20.171 19.1103 20.0303 18.9697L5.12882 4.06816Z" fill="#000"/>
</g>
<path d="M1.46967 1.46967C1.76256 1.17678 2.23744 1.17678 2.53033 1.46967L22.5303 21.4697C22.8232 21.7626 22.8232 22.2374 22.5303 22.5303C22.2374 22.8232 21.7626 22.8232 21.4697 22.5303L1.46967 2.53033C1.17678 2.23744 1.17678 1.76256 1.46967 1.46967Z" fill="#000"/>
</svg>
