<svg width="24" height="24" viewBox="0 0 24 24" fill="none" xmlns="http://www.w3.org/2000/svg">
<path opacity="0.4" d="M4.25 11.8384L9.14167 13.9567C10.0285 14.341 10.5955 14.5866 11.1974 14.6848C11.7283 14.7714 12.2717 14.7714 12.8026 14.6848C13.4045 14.5866 13.9715 14.341 14.8583 13.9567L19.75 11.8384V16.2572C19.75 17.237 19.3591 18.2759 18.4324 18.8858C17.2264 19.6794 15.0359 20.7499 12 20.7499C8.96404 20.7499 6.77352 19.6794 5.56759 18.8858C4.64087 18.2759 4.25 17.237 4.25 16.2573V11.8384Z" fill="#000"/>
<path d="M12.8082 3.08048C12.2737 2.98912 11.7263 2.98912 11.1918 3.08048C10.5863 3.18398 10.0166 3.44256 9.13271 3.84377L2.49412 6.85555C2.00039 7.07953 1.5847 7.26811 1.27466 7.44292C0.973936 7.61248 0.629985 7.84315 0.440082 8.21423C0.186639 8.70948 0.186639 9.29064 0.440082 9.78588C0.629985 10.157 0.973936 10.3876 1.27466 10.5572C1.5847 10.732 2.00038 10.9206 2.49411 11.1446L9.1327 14.1563C10.0166 14.5576 10.5863 14.8161 11.1918 14.9196C11.7263 15.011 12.2737 15.011 12.8082 14.9196C13.4137 14.8161 13.9834 14.5576 14.8673 14.1563L21.25 11.2606V16.0001C21.25 16.4143 21.5858 16.7501 22 16.7501C22.4142 16.7501 22.75 16.4143 22.75 16.0001V10.5432C23.0447 10.375 23.3752 10.1469 23.5599 9.78588C23.8134 9.29064 23.8134 8.70948 23.5599 8.21423C23.37 7.84315 23.0261 7.61248 22.7253 7.44292C22.4153 7.26811 21.9996 7.07955 21.5059 6.85558L14.8673 3.84377C13.9834 3.44256 13.4137 3.18398 12.8082 3.08048Z" fill="#000"/>
</svg>
