<svg width="24" height="24" viewBox="0 0 24 24" fill="none" xmlns="http://www.w3.org/2000/svg">
<path opacity="0.4" d="M13.7927 1.64731C12.656 1.11854 11.344 1.11854 10.2073 1.64731L3.70733 4.6712C2.20852 5.36847 1.25 6.87156 1.25 8.52462V15.5459C1.25 17.2117 2.22311 18.7239 3.73915 19.414L10.2392 22.373C11.3578 22.8822 12.6422 22.8822 13.7609 22.373L20.2609 19.414C21.7769 18.7239 22.75 17.2117 22.75 15.5459V8.52462C22.75 6.87156 21.7915 5.36847 20.2927 4.6712L13.7927 1.64731Z" fill="#000"/>
<path d="M5.67575 3.7547L16.2641 8.74653L18.0195 7.95883C17.9623 7.90395 17.8954 7.85727 17.8198 7.82161L7.44623 2.93105L10.2073 1.64658C11.3439 1.11781 12.656 1.11781 13.7926 1.64658L20.2926 4.67047C21.0119 5.00511 21.6069 5.52533 22.0311 6.15869C22.3098 6.57474 22.5147 7.0396 22.633 7.53271L18.25 9.49949C18.25 9.49933 18.25 9.49964 18.25 9.49949L18.2501 12.9996C18.2502 13.4138 17.9144 13.7496 17.5002 13.7496C17.086 13.7497 16.7502 13.4139 16.7501 12.9997L16.75 10.1726L12.751 11.967L12.751 22.6873C12.2551 22.7763 11.747 22.7764 11.251 22.6876L11.251 11.9683L1.36621 7.53603C1.45093 7.18148 1.58047 6.84149 1.75 6.52372C2.17589 5.72549 2.85403 5.06741 3.70726 4.67047L5.67575 3.7547Z" fill="#000"/>
</svg>
