<svg width="24" height="24" viewBox="0 0 24 24" fill="none" xmlns="http://www.w3.org/2000/svg">
<path opacity="0.4" d="M1.75 15.4132V16.8324C1.74999 17.715 1.74999 18.4231 1.79677 18.9957C1.84484 19.584 1.94601 20.095 2.18597 20.5659C2.56947 21.3186 3.18139 21.9305 3.93404 22.314C4.405 22.554 4.91601 22.6551 5.50433 22.7032C6.07692 22.75 6.78499 22.75 7.66762 22.75H16.3323C17.215 22.75 17.9231 22.75 18.4957 22.7032C19.084 22.6551 19.595 22.554 20.066 22.314C20.8186 21.9305 21.4305 21.3186 21.814 20.5659C22.054 20.095 22.1552 19.584 22.2032 18.9957C22.25 18.4231 22.25 17.715 22.25 16.8324V15.4131C21.7953 15.6292 21.2867 15.75 20.7498 15.75L14.25 15.75C14.25 16.9927 13.2426 18 12 18C10.7574 18 9.75 16.9927 9.75 15.75L3.25 15.75C2.7132 15.75 2.20463 15.6292 1.75 15.4132Z" fill="#000"/>
<path fill-rule="evenodd" clip-rule="evenodd" d="M10.3711 1.25H13.6289C14.0242 1.24999 14.3654 1.24998 14.6463 1.27293C14.9428 1.29716 15.2377 1.35064 15.5215 1.49524C15.9448 1.71095 16.289 2.05516 16.5048 2.47852C16.6494 2.76231 16.7028 3.05722 16.7271 3.35373C16.7477 3.60557 16.7498 3.90573 16.75 4.25L18.0314 4.25C18.7048 4.24999 19.2555 4.24999 19.7031 4.28655C20.1663 4.3244 20.5847 4.40514 20.9755 4.60423C21.587 4.91582 22.0842 5.41301 22.3958 6.02453C22.5949 6.41527 22.6756 6.83367 22.7134 7.29693C22.75 7.74449 22.75 8.2952 22.75 8.96856V9.98453C22.7499 9.98967 22.7498 9.99483 22.7498 10V11.5032C22.7492 11.8827 22.7464 12.2182 22.7326 12.5137C22.6035 13.4936 21.765 14.25 20.7498 14.25L14.25 14.25C14.25 13.0074 13.2426 12 12 12C10.7574 12 9.75 13.0074 9.75 14.25L3.25 14.25C2.23546 14.25 1.39736 13.4946 1.26748 12.5156C1.25058 12.1539 1.25001 11.7322 1.25 11.2431C1.25 11.2259 1.25 11.2086 1.25 11.1913V8.96859C1.24999 8.29522 1.24999 7.74449 1.28655 7.29694C1.3244 6.83367 1.40514 6.41527 1.60423 6.02453C1.91582 5.41301 2.41301 4.91582 3.02453 4.60423C3.41527 4.40514 3.83367 4.3244 4.29693 4.28655C4.7445 4.24999 5.29521 4.24999 5.96858 4.25L7.25002 4.25C7.25023 3.90573 7.25235 3.60556 7.27293 3.35373C7.29715 3.05722 7.35064 2.76231 7.49524 2.47852C7.71095 2.05516 8.05516 1.71095 8.47852 1.49524C8.76231 1.35064 9.05722 1.29716 9.35373 1.27293C9.63463 1.24998 9.97578 1.24999 10.3711 1.25ZM15.2321 3.47588C15.2473 3.66274 15.2496 3.90118 15.2499 4.25H8.75006C8.75039 3.90118 8.75268 3.66274 8.76795 3.47588C8.78459 3.27213 8.81285 3.19659 8.83175 3.15951C8.90365 3.01839 9.01839 2.90365 9.15951 2.83175C9.19659 2.81285 9.27213 2.7846 9.47588 2.76795C9.68838 2.75059 9.96759 2.75 10.4 2.75H13.6C14.0324 2.75 14.3116 2.75059 14.5241 2.76795C14.7279 2.7846 14.8034 2.81285 14.8405 2.83175C14.9816 2.90365 15.0963 3.01839 15.1683 3.15951C15.1872 3.19659 15.2154 3.27213 15.2321 3.47588Z" fill="#000"/>
<path d="M12.75 14.25V15.75C12.75 16.1642 12.4142 16.5 12 16.5C11.5858 16.5 11.25 16.1642 11.25 15.75V14.25C11.25 13.8358 11.5858 13.5 12 13.5C12.4142 13.5 12.75 13.8358 12.75 14.25Z" fill="#000"/>
</svg>
