<svg width="24" height="24" viewBox="0 0 24 24" fill="none" xmlns="http://www.w3.org/2000/svg">
<path opacity="0.4" d="M23.25 8.75H0.75V16.6318C0.749992 17.3749 0.749986 17.978 0.789958 18.4673C0.831214 18.9722 0.918761 19.4215 1.13148 19.839C1.46703 20.4975 2.00247 21.033 2.66103 21.3685C3.07851 21.5812 3.52778 21.6688 4.03273 21.71C4.52196 21.75 5.12511 21.75 5.86819 21.75H18.1318C18.8749 21.75 19.478 21.75 19.9673 21.71C20.4722 21.6688 20.9215 21.5812 21.339 21.3685C21.9975 21.033 22.533 20.4975 22.8685 19.839C23.0812 19.4215 23.1688 18.9722 23.21 18.4673C23.25 17.9781 23.25 17.3749 23.25 16.6319V8.75Z" fill="#000"/>
<path d="M5.86821 2.25C5.12514 2.24999 4.52196 2.24999 4.03273 2.28996C3.52778 2.33121 3.07851 2.41876 2.66103 2.63148C2.00247 2.96704 1.46704 3.50247 1.13148 4.16103C0.918762 4.57851 0.831214 5.02778 0.789958 5.53273C0.749987 6.02196 0.749993 6.62511 0.75 7.36818V8.75H23.25V7.36819C23.25 6.62515 23.25 6.02195 23.21 5.53273C23.1688 5.02778 23.0812 4.57851 22.8685 4.16103C22.533 3.50247 21.9975 2.96704 21.339 2.63148C20.9215 2.41876 20.4722 2.33121 19.9673 2.28996C19.478 2.24999 18.8749 2.24999 18.1318 2.25H5.86821Z" fill="#000"/>
<path d="M7.46967 10.4697C7.76256 10.1768 8.23744 10.1768 8.53033 10.4697L11.5303 13.4697C11.8232 13.7626 11.8232 14.2374 11.5303 14.5303L8.53033 17.5303C8.23744 17.8232 7.76256 17.8232 7.46967 17.5303C7.17678 17.2374 7.17678 16.7626 7.46967 16.4697L9.93934 14L7.46967 11.5303C7.17678 11.2374 7.17678 10.7626 7.46967 10.4697Z" fill="#000"/>
<path d="M12 16.25C11.5858 16.25 11.25 16.5858 11.25 17C11.25 17.4142 11.5858 17.75 12 17.75H17C17.4142 17.75 17.75 17.4142 17.75 17C17.75 16.5858 17.4142 16.25 17 16.25H12Z" fill="#000"/>
</svg>
