<svg width="24" height="24" viewBox="0 0 24 24" fill="none" xmlns="http://www.w3.org/2000/svg">
<path opacity="0.4" d="M23.25 8.75H0.75V16.6318C0.749992 17.3749 0.749986 17.978 0.789958 18.4673C0.831214 18.9722 0.918761 19.4215 1.13148 19.839C1.46703 20.4975 2.00247 21.033 2.66103 21.3685C3.07851 21.5812 3.52778 21.6688 4.03273 21.71C4.52196 21.75 5.12511 21.75 5.86819 21.75H18.1318C18.8749 21.75 19.478 21.75 19.9673 21.71C20.4722 21.6688 20.9215 21.5812 21.339 21.3685C21.9975 21.033 22.533 20.4975 22.8685 19.839C23.0812 19.4215 23.1688 18.9722 23.21 18.4673C23.25 17.9781 23.25 17.3749 23.25 16.6319V8.75Z" fill="#000"/>
<path d="M5.86821 2.25006C5.12514 2.25005 4.52196 2.25005 4.03273 2.29002C3.52778 2.33128 3.07851 2.41882 2.66103 2.63154C2.00247 2.9671 1.46704 3.50253 1.13148 4.1611C0.918762 4.57857 0.831214 5.02784 0.789958 5.53279C0.749987 6.02202 0.749993 6.62517 0.75 7.36824V8.75006H23.25V7.36825C23.25 6.62521 23.25 6.02201 23.21 5.53279C23.1688 5.02784 23.0812 4.57857 22.8685 4.1611C22.533 3.50253 21.9975 2.9671 21.339 2.63154C20.9215 2.41882 20.4722 2.33128 19.9673 2.29002C19.478 2.25005 18.8749 2.25005 18.1318 2.25006H5.86821Z" fill="#000"/>
<path d="M10.1303 11.5697C10.4232 11.8626 10.4232 12.3375 10.1303 12.6304L8.26067 14.5L10.1303 16.3697C10.4232 16.6626 10.4232 17.1375 10.1303 17.4304C9.83745 17.7233 9.36258 17.7233 9.06968 17.4304L6.66968 15.0304C6.37679 14.7375 6.37679 14.2626 6.66968 13.9697L9.06968 11.5697C9.36258 11.2768 9.83745 11.2768 10.1303 11.5697Z" fill="#000"/>
<path d="M14.9304 11.5697C14.6375 11.2768 14.1626 11.2768 13.8697 11.5697C13.5768 11.8626 13.5768 12.3375 13.8697 12.6304L15.7394 14.5L13.8697 16.3697C13.5768 16.6626 13.5768 17.1375 13.8697 17.4304C14.1626 17.7233 14.6375 17.7233 14.9304 17.4304L17.3304 15.0304C17.6232 14.7375 17.6232 14.2626 17.3304 13.9697L14.9304 11.5697Z" fill="#000"/>
</svg>
