<svg width="24" height="24" viewBox="0 0 24 24" fill="none" xmlns="http://www.w3.org/2000/svg">
<path opacity="0.4" d="M14.7761 7.75H9.22393C8.66365 7.74999 8.20536 7.74999 7.83106 7.77553C7.44423 7.80192 7.09261 7.85808 6.75628 7.99739C5.95994 8.32725 5.32725 8.95994 4.99739 9.75628C4.85808 10.0926 4.80192 10.4442 4.77553 10.8311C4.74999 11.2054 4.74999 11.6636 4.75 12.2239V15.5C4.75 19.5041 7.99594 22.75 12 22.75C16.0041 22.75 19.25 19.5041 19.25 15.5V12.2239C19.25 11.6637 19.25 11.2053 19.2245 10.8311C19.1981 10.4442 19.1419 10.0926 19.0026 9.75628C18.6728 8.95994 18.0401 8.32725 17.2437 7.99739C16.9074 7.85808 16.5558 7.80192 16.1689 7.77553C15.7946 7.74999 15.3364 7.74999 14.7761 7.75Z" fill="#000"/>
<path d="M12 1.25C9.92893 1.25 8.25 2.92893 8.25 5V6C8.25 6.41421 8.58579 6.75 9 6.75H15C15.4142 6.75 15.75 6.41421 15.75 6V5C15.75 2.92893 14.0711 1.25 12 1.25Z" fill="#000"/>
<path d="M19.2458 15.7499C19.2486 15.6669 19.25 15.5836 19.25 15.5V14.2499H22C22.4142 14.2499 22.75 14.5857 22.75 14.9999C22.75 15.4141 22.4142 15.7499 22 15.7499H19.2458Z" fill="#000"/>
<path d="M18.4568 18.8007C18.6845 18.3561 18.8677 17.8849 19.0004 17.393C19.7937 17.6301 20.4151 18.1392 20.8566 18.7463C21.4561 19.5706 21.75 20.6025 21.75 21.4999C21.75 21.9141 21.4142 22.2499 21 22.2499C20.5858 22.2499 20.25 21.9141 20.25 21.4999C20.25 20.8973 20.0439 20.1791 19.6434 19.6285C19.3433 19.2158 18.9511 18.9151 18.4568 18.8007Z" fill="#000"/>
<path d="M4.99962 17.393C5.13231 17.8849 5.31546 18.3561 5.54319 18.8007C5.04888 18.9151 4.65667 19.2158 4.35655 19.6285C3.95611 20.1791 3.75 20.8973 3.75 21.4999C3.75 21.9141 3.41421 22.2499 3 22.2499C2.58579 22.2499 2.25 21.9141 2.25 21.4999C2.25 20.6025 2.54389 19.5706 3.14345 18.7463C3.58491 18.1392 4.20631 17.6301 4.99962 17.393Z" fill="#000"/>
<path d="M4.75 14.2499V15.5C4.75 15.5836 4.75142 15.6669 4.75423 15.7499H2C1.58579 15.7499 1.25 15.4141 1.25 14.9999C1.25 14.5857 1.58579 14.2499 2 14.2499H4.75Z" fill="#000"/>
<path d="M4.75239 11.5216C3.0252 10.8735 2.25 9.03461 2.25 7.49976C2.25 7.08554 2.58579 6.74976 3 6.74976C3.41421 6.74976 3.75 7.08554 3.75 7.49976C3.75 8.50965 4.18184 9.46119 4.93075 9.93699C4.83907 10.2186 4.79723 10.5129 4.77553 10.8311C4.7616 11.0353 4.75527 11.2645 4.75239 11.5216Z" fill="#000"/>
<path d="M19.0692 9.93699C19.8182 9.46119 20.25 8.50965 20.25 7.49976C20.25 7.08554 20.5858 6.74976 21 6.74976C21.4142 6.74976 21.75 7.08554 21.75 7.49976C21.75 9.03462 20.9748 10.8735 19.2476 11.5216C19.2447 11.2645 19.2384 11.0353 19.2245 10.8311C19.2028 10.5129 19.1609 10.2186 19.0692 9.93699Z" fill="#000"/>
<path d="M12.75 12.9999V22.7117C12.5035 22.737 12.2532 22.75 12 22.75C11.7468 22.75 11.4965 22.737 11.25 22.7117V12.9999C11.25 12.5857 11.5858 12.2499 12 12.2499C12.4142 12.2499 12.75 12.5857 12.75 12.9999Z" fill="#000"/>
</svg>
