<svg width="24" height="24" viewBox="0 0 24 24" fill="none" xmlns="http://www.w3.org/2000/svg">
<path opacity="0.4" d="M12.6318 1.25H5.36821C4.62513 1.24999 4.02197 1.24999 3.53273 1.28996C3.02778 1.33121 2.57851 1.41876 2.16103 1.63148C1.50247 1.96703 0.967035 2.50247 0.631478 3.16103C0.418761 3.57851 0.331214 4.02778 0.289958 4.53273C0.249986 5.02197 0.249992 5.62512 0.25 6.3682V17.6318C0.249992 18.3749 0.249986 18.978 0.289958 19.4673C0.331214 19.9722 0.418762 20.4215 0.631478 20.839C0.967034 21.4975 1.50247 22.033 2.16103 22.3685C2.57851 22.5812 3.02778 22.6688 3.53273 22.71C4.02195 22.75 4.62507 22.75 5.36811 22.75H12.6015C12.8169 22.75 13.0193 22.75 13.2085 22.7492C13.4864 22.7479 13.7408 22.5932 13.8696 22.347C13.9985 22.1009 13.9807 21.8036 13.8234 21.5746C13.4681 21.0572 13.2514 20.4305 13.2514 19.6645C13.2514 18.8437 13.251 17.9977 13.2507 17.1519C13.2503 16.3058 13.25 15.4596 13.25 14.6385C13.25 13.6091 13.6864 12.8262 14.3848 12.2243C15.1018 11.6065 16.0988 11.1812 17.1593 10.9507C17.5041 10.8757 17.75 10.5706 17.75 10.2178V6.36819C17.75 5.62515 17.75 5.02195 17.71 4.53273C17.6688 4.02778 17.5812 3.57851 17.3685 3.16103C17.033 2.50247 16.4975 1.96703 15.839 1.63148C15.4215 1.41876 14.9722 1.33121 14.4673 1.28996C13.978 1.24999 13.3749 1.24999 12.6318 1.25Z" fill="#000"/>
<path d="M12 7.25C12.4142 7.25 12.75 6.91421 12.75 6.5C12.75 6.08579 12.4142 5.75 12 5.75H11C10.5858 5.75 10.25 6.08579 10.25 6.5C10.25 6.91421 10.5858 7.25 11 7.25H12Z" fill="#000"/>
<path d="M12.75 9.5C12.75 9.91421 12.4142 10.25 12 10.25H11C10.5858 10.25 10.25 9.91421 10.25 9.5C10.25 9.08579 10.5858 8.75 11 8.75H12C12.4142 8.75 12.75 9.08579 12.75 9.5Z" fill="#000"/>
<path d="M11 11.75C10.5858 11.75 10.25 12.0858 10.25 12.5C10.25 12.9142 10.5858 13.25 11 13.25H12C12.4142 13.25 12.75 12.9142 12.75 12.5C12.75 12.0858 12.4142 11.75 12 11.75H11Z" fill="#000"/>
<path d="M7.25 15.75C6.55964 15.75 6 16.3096 6 17V22C6 22.4142 6.33579 22.75 6.75 22.75H11.25C11.6642 22.75 12 22.4142 12 22V17C12 16.3096 11.4404 15.75 10.75 15.75H7.25Z" fill="#000"/>
<path d="M7.75 9.5C7.75 9.91421 7.41421 10.25 7 10.25H6C5.58579 10.25 5.25 9.91421 5.25 9.5C5.25 9.08579 5.58579 8.75 6 8.75H7C7.41421 8.75 7.75 9.08579 7.75 9.5Z" fill="#000"/>
<path d="M7 7.25C7.41421 7.25 7.75 6.91421 7.75 6.5C7.75 6.08579 7.41421 5.75 7 5.75H6C5.58579 5.75 5.25 6.08579 5.25 6.5C5.25 6.91421 5.58579 7.25 6 7.25H7Z" fill="#000"/>
<path d="M7.75 12.5C7.75 12.9142 7.41421 13.25 7 13.25H6C5.58579 13.25 5.25 12.9142 5.25 12.5C5.25 12.0858 5.58579 11.75 6 11.75H7C7.41421 11.75 7.75 12.0858 7.75 12.5Z" fill="#000"/>
<path fill-rule="evenodd" clip-rule="evenodd" d="M22.1086 12.5239C22.8995 12.9205 23.625 13.5836 23.625 14.5008C23.625 15.8461 23.6252 17.1914 23.6253 18.5367C23.6254 18.9507 23.6255 19.3646 23.6255 19.7786C23.6255 20.7773 22.958 21.5043 22.1223 21.9482C21.2838 22.3936 20.1758 22.6204 19.001 22.6204C17.8261 22.6204 16.7182 22.3936 15.8797 21.9482C15.044 21.5043 14.3765 20.7773 14.3765 19.7786C14.3765 18.8989 14.3761 18.0193 14.3757 17.1397C14.3754 16.2601 14.375 15.3805 14.375 14.5008C14.375 13.5836 15.1005 12.9205 15.8914 12.5239C16.7193 12.1088 17.8192 11.8701 19 11.8701C20.1808 11.8701 21.2807 12.1088 22.1086 12.5239ZM19.0005 20.0902C20.151 20.0902 21.3866 19.8956 22.3755 19.271L22.3755 19.7786C22.3755 20.138 22.1477 20.5193 21.5359 20.8443C20.9269 21.1678 20.035 21.3704 19.001 21.3704C17.967 21.3704 17.0751 21.1678 16.4661 20.8443C15.8543 20.5193 15.6265 20.138 15.6265 19.7786V19.2716C16.6152 19.8957 17.8502 20.0902 19.0005 20.0902ZM16.4656 18.3141C15.8706 17.9981 15.6388 17.6287 15.6265 17.278C15.6265 17.1205 15.6263 16.9629 15.6262 16.8054C15.6261 16.6478 15.6259 16.4902 15.6259 16.3327C16.6267 16.9283 17.8506 17.1316 19 17.1316C20.1497 17.1316 21.374 16.9282 22.3749 16.3322L22.375 17.2484C22.375 17.6078 22.1472 17.9892 21.5354 18.3141C20.9263 18.6376 20.0345 18.8402 19.0005 18.8402C17.9664 18.8402 17.0746 18.6376 16.4656 18.3141Z" fill="#000"/>
</svg>
