<svg width="24" height="24" viewBox="0 0 24 24" fill="none" xmlns="http://www.w3.org/2000/svg">
<path opacity="0.4" d="M15.6318 1.25H8.36821C7.62513 1.24999 7.02197 1.24999 6.53273 1.28996C6.02778 1.33121 5.57851 1.41876 5.16103 1.63148C4.50247 1.96703 3.96703 2.50247 3.63148 3.16103C3.41876 3.57851 3.33121 4.02778 3.28996 4.53273C3.24999 5.02197 3.24999 5.62512 3.25 6.3682V22C3.25 22.4142 3.58579 22.75 4 22.75H20C20.4142 22.75 20.75 22.4142 20.75 22V6.36819C20.75 5.62515 20.75 5.02195 20.71 4.53273C20.6688 4.02778 20.5812 3.57851 20.3685 3.16103C20.033 2.50247 19.4975 1.96703 18.839 1.63148C18.4215 1.41876 17.9722 1.33121 17.4673 1.28996C16.978 1.24999 16.3749 1.24999 15.6318 1.25Z" fill="#000"/>
<path d="M15.75 6.5C15.75 6.91421 15.4142 7.25 15 7.25H14C13.5858 7.25 13.25 6.91421 13.25 6.5C13.25 6.08579 13.5858 5.75 14 5.75H15C15.4142 5.75 15.75 6.08579 15.75 6.5Z" fill="#000"/>
<path d="M15.75 9.5C15.75 9.91421 15.4142 10.25 15 10.25H14C13.5858 10.25 13.25 9.91421 13.25 9.5C13.25 9.08579 13.5858 8.75 14 8.75H15C15.4142 8.75 15.75 9.08579 15.75 9.5Z" fill="#000"/>
<path d="M15 13.25C15.4142 13.25 15.75 12.9142 15.75 12.5C15.75 12.0858 15.4142 11.75 15 11.75H14C13.5858 11.75 13.25 12.0858 13.25 12.5C13.25 12.9142 13.5858 13.25 14 13.25H15Z" fill="#000"/>
<path d="M10.75 9.5C10.75 9.91421 10.4142 10.25 10 10.25H9C8.58579 10.25 8.25 9.91421 8.25 9.5C8.25 9.08579 8.58579 8.75 9 8.75H10C10.4142 8.75 10.75 9.08579 10.75 9.5Z" fill="#000"/>
<path d="M10 7.25C10.4142 7.25 10.75 6.91421 10.75 6.5C10.75 6.08579 10.4142 5.75 10 5.75H9C8.58579 5.75 8.25 6.08579 8.25 6.5C8.25 6.91421 8.58579 7.25 9 7.25H10Z" fill="#000"/>
<path d="M10.75 12.5C10.75 12.9142 10.4142 13.25 10 13.25H9C8.58579 13.25 8.25 12.9142 8.25 12.5C8.25 12.0858 8.58579 11.75 9 11.75H10C10.4142 11.75 10.75 12.0858 10.75 12.5Z" fill="#000"/>
<path d="M9.00006 17C9.00006 16.3096 9.5597 15.75 10.2501 15.75H13.7501C14.4404 15.75 15.0001 16.3096 15.0001 17V21.25H22C22.4142 21.25 22.75 21.5858 22.75 22C22.75 22.4142 22.4142 22.75 22 22.75H2C1.58579 22.75 1.25 22.4142 1.25 22C1.25 21.5858 1.58579 21.25 2 21.25H9.00006V17Z" fill="#000"/>
</svg>
