<svg width="24" height="24" viewBox="0 0 24 24" fill="none" xmlns="http://www.w3.org/2000/svg">
<path opacity="0.4" d="M21.25 7.87803C22.1239 8.18691 22.75 9.02034 22.75 10C22.75 10.9797 22.1239 11.8131 21.25 12.122V16.8383C21.25 17.8941 20.3941 18.75 19.3383 18.75C18.9747 18.75 18.6187 18.6463 18.3119 18.4511L16.1683 17.087C15.0363 16.3666 13.795 15.849 12.5 15.5504V21.25C12.5 21.9404 11.9404 22.5 11.25 22.5H9.57621C9.0099 22.5 8.51433 22.1193 8.36841 21.5721L6.68253 15.25H6.5C3.60051 15.25 1.25 12.8995 1.25 10C1.25 7.10051 3.60051 4.75 6.5 4.75H9.85999C12.0947 4.75 14.283 4.11276 16.1683 2.91302L18.3119 1.54887C18.6187 1.35368 18.9747 1.25 19.3383 1.25C20.3941 1.25 21.25 2.1059 21.25 3.16171V7.87803Z" fill="#000"/>
<path d="M12.5 15.5504C13.795 15.849 15.0363 16.3666 16.1683 17.087L18.3119 18.4511C18.6187 18.6463 18.9747 18.75 19.3383 18.75C20.3941 18.75 21.25 17.8941 21.25 16.8383V3.16171C21.25 2.1059 20.3941 1.25 19.3383 1.25C18.9747 1.25 18.6187 1.35368 18.3119 1.54887L16.1683 2.91302C15.0362 3.6334 13.795 4.15098 12.5 4.44958V15.5504Z" fill="#000"/>
</svg>
