<svg width="24" height="24" viewBox="0 0 24 24" fill="none" xmlns="http://www.w3.org/2000/svg">
<path opacity="0.4" d="M12.75 2C12.75 1.58579 12.4142 1.25 12 1.25C6.06294 1.25 1.25 6.06294 1.25 12C1.25 17.9371 6.06294 22.75 12 22.75C17.9371 22.75 22.75 17.9371 22.75 12C22.75 11.5858 22.4142 11.25 22 11.25C21.5858 11.25 21.25 11.5858 21.25 12C21.25 17.1086 17.1086 21.25 12 21.25C6.89137 21.25 2.75 17.1086 2.75 12C2.75 6.89137 6.89137 2.75 12 2.75C12.4142 2.75 12.75 2.41421 12.75 2Z" fill="#000"/>
<path d="M18.5001 2.60355C18.5001 1.93538 17.6922 1.60075 17.2197 2.07322L15.0859 4.20711C14.7108 4.58218 14.5001 5.09089 14.5001 5.62132V8.43934L11.4697 11.4697C11.1769 11.7626 11.1769 12.2374 11.4697 12.5303C11.7626 12.8232 12.2375 12.8232 12.5304 12.5303L15.5607 9.5H18.3788C18.9092 9.5 19.4179 9.28929 19.793 8.91421L21.9269 6.78033C22.3993 6.30786 22.0647 5.5 21.3965 5.5H18.5591C18.5499 5.48969 18.5403 5.47958 18.5304 5.46967C18.5205 5.45976 18.5104 5.45019 18.5001 5.44096V2.60355Z" fill="#000"/>
<path d="M10.8508 6.36462C11.2567 6.28222 11.6526 6.5445 11.735 6.95044C11.8174 7.35637 11.5551 7.75224 11.1492 7.83464C9.20961 8.22836 7.75 9.94437 7.75 11.9996C7.75 14.3468 9.65279 16.2496 12 16.2496C14.0552 16.2496 15.7713 14.79 16.165 12.8504C16.2474 12.4445 16.6432 12.1822 17.0492 12.2646C17.4551 12.347 17.7174 12.7429 17.635 13.1488C17.1022 15.7737 14.7827 17.7496 12 17.7496C8.82436 17.7496 6.25 15.1753 6.25 11.9996C6.25 9.21694 8.22591 6.89745 10.8508 6.36462Z" fill="#000"/>
</svg>
