<svg width="24" height="24" viewBox="0 0 24 24" fill="none" xmlns="http://www.w3.org/2000/svg">
<path opacity="0.4" d="M16.2321 1.24994H7.7679C6.95506 1.24993 6.29944 1.24993 5.76853 1.2933C5.2219 1.33796 4.74175 1.43232 4.29754 1.65867C3.59193 2.01819 3.01825 2.59187 2.65873 3.29748C2.43239 3.74169 2.33803 4.22183 2.29336 4.76847C2.24999 5.29938 2.24999 5.95499 2.25 6.76782V17.232C2.24999 18.0449 2.24999 18.7005 2.29336 19.2314C2.33803 19.778 2.43239 20.2582 2.65873 20.7024C3.01825 21.408 3.59193 21.9817 4.29754 22.3412C4.74175 22.5676 5.2219 22.6619 5.76853 22.7066C6.29944 22.75 6.95505 22.7499 7.76788 22.7499H16.2321C17.045 22.7499 17.7006 22.75 18.2315 22.7066C18.7781 22.6619 19.2582 22.5676 19.7025 22.3412C20.4081 21.9817 20.9817 21.408 21.3413 20.7024C21.5676 20.2582 21.662 19.778 21.7066 19.2314C21.75 18.7005 21.75 18.0449 21.75 17.2321V6.76782C21.75 5.95499 21.75 5.29938 21.7066 4.76847C21.662 4.22183 21.5676 3.74169 21.3413 3.29747C20.9817 2.59187 20.4081 2.01819 19.7025 1.65867C19.2582 1.43232 18.7781 1.33796 18.2315 1.2933C17.7006 1.24993 17.0449 1.24993 16.2321 1.24994Z" fill="#000"/>
<path d="M9.25 5.25C9.66421 5.25 10 5.58579 10 6V6.75H14V6C14 5.58579 14.3358 5.25 14.75 5.25C15.1642 5.25 15.5 5.58579 15.5 6V7C15.5 7.69036 14.9404 8.25 14.25 8.25H9.75C9.05964 8.25 8.5 7.69036 8.5 7V6C8.5 5.58579 8.83579 5.25 9.25 5.25Z" fill="#000"/>
<path d="M21.75 12.75H2.25V11.25H21.75V12.75Z" fill="#000"/>
<path d="M10 16.5C10 16.0858 9.66421 15.75 9.25 15.75C8.83579 15.75 8.5 16.0858 8.5 16.5V17.5C8.5 18.1904 9.05964 18.75 9.75 18.75H14.25C14.9404 18.75 15.5 18.1904 15.5 17.5V16.5C15.5 16.0858 15.1642 15.75 14.75 15.75C14.3358 15.75 14 16.0858 14 16.5V17.25H10V16.5Z" fill="#000"/>
</svg>
