<svg width="24" height="24" viewBox="0 0 24 24" fill="none" xmlns="http://www.w3.org/2000/svg">
<g opacity="0.4">
<path d="M11.5 1.72994C11.5 1.56192 11.5 1.47792 11.4673 1.41374C11.4385 1.35729 11.3926 1.3114 11.3362 1.28264C11.272 1.24994 11.188 1.24994 11.02 1.24994H6.7679C5.95507 1.24993 5.29944 1.24993 4.76853 1.2933C4.2219 1.33797 3.74176 1.43232 3.29754 1.65867C2.59193 2.01819 2.01825 2.59187 1.65873 3.29748C1.43239 3.74169 1.33803 4.22184 1.29336 4.76847C1.24999 5.29938 1.24999 5.95498 1.25 6.76781V11.0199C1.25 11.188 1.25 11.272 1.2827 11.3361C1.31146 11.3926 1.35735 11.4385 1.4138 11.4672C1.47798 11.4999 1.56198 11.4999 1.73 11.4999H11.02C11.188 11.4999 11.272 11.4999 11.3362 11.4672C11.3926 11.4385 11.4385 11.3926 11.4673 11.3361C11.5 11.272 11.5 11.188 11.5 11.0199V1.72994Z" fill="#000"/>
<path d="M1.73 12.4999C1.56198 12.4999 1.47798 12.4999 1.4138 12.5326C1.35735 12.5614 1.31146 12.6073 1.2827 12.6637C1.25 12.7279 1.25 12.8119 1.25 12.9799V17.232C1.24999 18.0449 1.24999 18.7005 1.29336 19.2314C1.33803 19.778 1.43239 20.2582 1.65873 20.7024C2.01825 21.408 2.59193 21.9817 3.29754 22.3412C3.74176 22.5676 4.2219 22.6619 4.76853 22.7066C5.29944 22.75 5.95505 22.7499 6.76788 22.7499H11.02C11.188 22.7499 11.272 22.7499 11.3362 22.7172C11.3926 22.6885 11.4385 22.6426 11.4673 22.5861C11.5 22.522 11.5 22.438 11.5 22.2699V12.9799C11.5 12.8119 11.5 12.7279 11.4673 12.6637C11.4385 12.6073 11.3926 12.5614 11.3362 12.5326C11.272 12.4999 11.188 12.4999 11.02 12.4999H1.73Z" fill="#000"/>
<path d="M22.27 11.4999C22.438 11.4999 22.522 11.4999 22.5862 11.4672C22.6426 11.4385 22.6885 11.3926 22.7173 11.3361C22.75 11.272 22.75 11.188 22.75 11.0199V6.76782C22.75 5.95499 22.75 5.29938 22.7066 4.76847C22.662 4.22184 22.5676 3.74169 22.3413 3.29748C21.9817 2.59187 21.4081 2.01819 20.7025 1.65867C20.2582 1.43232 19.7781 1.33797 19.2315 1.2933C18.7006 1.24993 18.045 1.24993 17.2321 1.24994H12.98C12.812 1.24994 12.728 1.24994 12.6638 1.28264C12.6074 1.3114 12.5615 1.35729 12.5327 1.41374C12.5 1.47792 12.5 1.56192 12.5 1.72994V11.0199C12.5 11.188 12.5 11.272 12.5327 11.3361C12.5615 11.3926 12.6074 11.4385 12.6638 11.4672C12.728 11.4999 12.812 11.4999 12.98 11.4999H22.27Z" fill="#000"/>
</g>
<path d="M17.5 9.25C17.0858 9.25 16.75 8.91421 16.75 8.5V7.25H15.5C15.0858 7.25 14.75 6.91421 14.75 6.5C14.75 6.08579 15.0858 5.75 15.5 5.75H16.75V4.5C16.75 4.08579 17.0858 3.75 17.5 3.75C17.9142 3.75 18.25 4.08579 18.25 4.5V5.75H19.5C19.9142 5.75 20.25 6.08579 20.25 6.5C20.25 6.91421 19.9142 7.25 19.5 7.25H18.25V8.5C18.25 8.91421 17.9142 9.25 17.5 9.25Z" fill="#000"/>
<path d="M8.5 7.25C8.91421 7.25 9.25 6.91421 9.25 6.5C9.25 6.08579 8.91421 5.75 8.5 5.75H4.5C4.08579 5.75 3.75 6.08579 3.75 6.5C3.75 6.91421 4.08579 7.25 4.5 7.25H8.5Z" fill="#000"/>
<path fill-rule="evenodd" clip-rule="evenodd" d="M12.6638 22.7173C12.728 22.75 12.812 22.75 12.98 22.75H17.2321C18.045 22.75 18.7006 22.75 19.2315 22.7066C19.7781 22.662 20.2582 22.5676 20.7025 22.3413C21.4081 21.9817 21.9817 21.4081 22.3413 20.7025C22.5676 20.2582 22.662 19.7781 22.7066 19.2315C22.75 18.7006 22.75 18.045 22.75 17.2321V12.98C22.75 12.812 22.75 12.728 22.7173 12.6638C22.6885 12.6074 22.6426 12.5615 22.5862 12.5327C22.522 12.5 22.438 12.5 22.27 12.5H12.98C12.812 12.5 12.728 12.5 12.6638 12.5327C12.6074 12.5615 12.5615 12.6074 12.5327 12.6638C12.5 12.728 12.5 12.812 12.5 12.98V22.27C12.5 22.438 12.5 22.522 12.5327 22.5862C12.5615 22.6426 12.6074 22.6885 12.6638 22.7173ZM19.5 17C19.9142 17 20.25 16.6642 20.25 16.25C20.25 15.8358 19.9142 15.5 19.5 15.5H15.5C15.0858 15.5 14.75 15.8358 14.75 16.25C14.75 16.6642 15.0858 17 15.5 17H19.5ZM20.25 18.75C20.25 19.1642 19.9142 19.5 19.5 19.5H15.5C15.0858 19.5 14.75 19.1642 14.75 18.75C14.75 18.3358 15.0858 18 15.5 18H19.5C19.9142 18 20.25 18.3358 20.25 18.75Z" fill="#000"/>
<path d="M8.53033 15.4697C8.82322 15.7626 8.82322 16.2374 8.53033 16.5303L7.56066 17.5L8.53033 18.4697C8.82322 18.7626 8.82322 19.2374 8.53033 19.5303C8.23744 19.8232 7.76256 19.8232 7.46967 19.5303L6.5 18.5607L5.53033 19.5303C5.23744 19.8232 4.76256 19.8232 4.46967 19.5303C4.17678 19.2374 4.17678 18.7626 4.46967 18.4697L5.43934 17.5L4.46967 16.5303C4.17678 16.2374 4.17678 15.7626 4.46967 15.4697C4.76256 15.1768 5.23744 15.1768 5.53033 15.4697L6.5 16.4393L7.46967 15.4697C7.76256 15.1768 8.23744 15.1768 8.53033 15.4697Z" fill="#000"/>
</svg>
