<svg width="24" height="24" viewBox="0 0 24 24" fill="none" xmlns="http://www.w3.org/2000/svg">
<path opacity="0.4" d="M16.4326 2.25H7.56739C6.61495 2.24999 5.85439 2.24999 5.24013 2.30018C4.61012 2.35165 4.06824 2.45963 3.57054 2.71322C2.77085 3.12068 2.12068 3.77085 1.71322 4.57054C1.45963 5.06824 1.35165 5.61012 1.30018 6.24013C1.24999 6.85439 1.24999 7.61494 1.25 8.56738V17.4326C1.24999 18.3851 1.24999 19.1456 1.30018 19.7599C1.35165 20.3899 1.45963 20.9318 1.71322 21.4295C2.12068 22.2291 2.77085 22.8793 3.57054 23.2868C4.06824 23.5404 4.61012 23.6483 5.24013 23.6998C5.85438 23.75 6.6149 23.75 7.5673 23.75H16.4326C17.385 23.75 18.1456 23.75 18.7599 23.6998C19.3899 23.6483 19.9318 23.5404 20.4295 23.2868C21.2291 22.8793 21.8793 22.2291 22.2868 21.4295C22.5404 20.9318 22.6483 20.3899 22.6998 19.7599C22.75 19.1456 22.75 18.3851 22.75 17.4327V8.56737C22.75 7.61496 22.75 6.85438 22.6998 6.24013C22.6483 5.61012 22.5404 5.06824 22.2868 4.57054C21.8793 3.77085 21.2291 3.12068 20.4295 2.71322C19.9318 2.45963 19.3899 2.35165 18.7599 2.30018C18.1456 2.24999 17.3851 2.24999 16.4326 2.25Z" fill="#000"/>
<path d="M8.75 1C8.75 0.585786 8.41422 0.25 8 0.25C7.58579 0.25 7.25 0.585786 7.25 1V2.25007C6.44394 2.25064 5.78456 2.25569 5.24011 2.30018C4.6101 2.35165 4.06822 2.45963 3.57052 2.71322C2.77083 3.12069 2.12066 3.77085 1.7132 4.57054C1.45961 5.06824 1.35163 5.61012 1.30015 6.24013C1.25403 6.8047 1.2503 7.49283 1.25 8.33994C1.24998 8.39596 1.24997 8.42398 1.26087 8.44538C1.27045 8.4642 1.28576 8.47951 1.30457 8.4891C1.32597 8.5 1.35397 8.5 1.40998 8.5H22.59C22.646 8.5 22.674 8.5 22.6954 8.4891C22.7142 8.47951 22.7295 8.4642 22.7391 8.44538C22.75 8.42398 22.75 8.39597 22.75 8.33994C22.7497 7.49283 22.7459 6.80469 22.6998 6.24013C22.6483 5.61012 22.5403 5.06824 22.2868 4.57054C21.8793 3.77085 21.2291 3.12069 20.4294 2.71322C19.9317 2.45963 19.3899 2.35165 18.7598 2.30018C18.2154 2.25569 17.556 2.25064 16.75 2.25007V1C16.75 0.585786 16.4142 0.25 16 0.25C15.5858 0.25 15.25 0.585786 15.25 1V2.25H8.75V1Z" fill="#000"/>
<path d="M16.0303 13.7803C16.3232 13.4874 16.3232 13.0126 16.0303 12.7197C15.7374 12.4268 15.2626 12.4268 14.9697 12.7197L11 16.6893L9.03033 14.7197C8.73744 14.4268 8.26256 14.4268 7.96967 14.7197C7.67678 15.0126 7.67678 15.4874 7.96967 15.7803L10.4697 18.2803C10.7626 18.5732 11.2374 18.5732 11.5303 18.2803L16.0303 13.7803Z" fill="#000"/>
</svg>
