<svg width="24" height="24" viewBox="0 0 24 24" fill="none" xmlns="http://www.w3.org/2000/svg">
<path opacity="0.4" d="M16.4326 2.25H7.56739C6.61495 2.24999 5.85439 2.24999 5.24013 2.30018C4.61012 2.35165 4.06824 2.45963 3.57054 2.71322C2.77085 3.12068 2.12068 3.77085 1.71322 4.57054C1.45963 5.06824 1.35165 5.61012 1.30018 6.24013C1.24999 6.85439 1.24999 7.61494 1.25 8.56738V17.4326C1.24999 18.3851 1.24999 19.1456 1.30018 19.7599C1.35165 20.3899 1.45963 20.9318 1.71322 21.4295C2.12068 22.2291 2.77085 22.8793 3.57054 23.2868C4.06824 23.5404 4.61012 23.6483 5.24013 23.6998C5.85438 23.75 6.6149 23.75 7.5673 23.75H16.4326C17.385 23.75 18.1456 23.75 18.7599 23.6998C19.3899 23.6483 19.9318 23.5404 20.4295 23.2868C21.2291 22.8793 21.8793 22.2291 22.2868 21.4295C22.5404 20.9318 22.6483 20.3899 22.6998 19.7599C22.75 19.1456 22.75 18.3851 22.75 17.4327V8.56737C22.75 7.61496 22.75 6.85438 22.6998 6.24013C22.6483 5.61012 22.5404 5.06824 22.2868 4.57054C21.8793 3.77085 21.2291 3.12068 20.4295 2.71322C19.9318 2.45963 19.3899 2.35165 18.7599 2.30018C18.1456 2.24999 17.3851 2.24999 16.4326 2.25Z" fill="#000"/>
<path d="M8 0.25C8.41422 0.25 8.75 0.585786 8.75 1V2.25H15.25V1C15.25 0.585786 15.5858 0.25 16 0.25C16.4142 0.25 16.75 0.585786 16.75 1V2.25007C17.556 2.25064 18.2154 2.25569 18.7598 2.30018C19.3899 2.35165 19.9317 2.45963 20.4294 2.71322C21.2291 3.12069 21.8793 3.77085 22.2868 4.57054C22.5403 5.06824 22.6483 5.61012 22.6998 6.24013C22.7459 6.80469 22.7497 7.49283 22.75 8.33994C22.75 8.39597 22.75 8.42398 22.7391 8.44538C22.7295 8.4642 22.7142 8.47951 22.6954 8.4891C22.674 8.5 22.646 8.5 22.59 8.5H1.40998C1.35397 8.5 1.32597 8.5 1.30457 8.4891C1.28576 8.47951 1.27045 8.4642 1.26087 8.44538C1.24997 8.42398 1.24998 8.39597 1.25 8.33995C1.2503 7.49284 1.25403 6.8047 1.30015 6.24013C1.35163 5.61012 1.45961 5.06824 1.7132 4.57054C2.12066 3.77085 2.77083 3.12069 3.57052 2.71322C4.06822 2.45963 4.6101 2.35165 5.24011 2.30018C5.78456 2.25569 6.44394 2.25064 7.25 2.25007V1C7.25 0.585786 7.58579 0.25 8 0.25Z" fill="#000"/>
<path d="M15.0303 18.5303C14.7374 18.8232 14.2626 18.8232 13.9697 18.5303L12 16.5607L10.0303 18.5303C9.73743 18.8232 9.26256 18.8232 8.96966 18.5303C8.67677 18.2374 8.67677 17.7626 8.96966 17.4697L10.9393 15.5L8.9697 13.5304C8.67681 13.2375 8.67681 12.7626 8.9697 12.4697C9.2626 12.1768 9.73747 12.1768 10.0304 12.4697L12 14.4393L13.9696 12.4697C14.2625 12.1768 14.7374 12.1768 15.0303 12.4697C15.3232 12.7626 15.3232 13.2375 15.0303 13.5304L13.0607 15.5L15.0303 17.4697C15.3232 17.7626 15.3232 18.2374 15.0303 18.5303Z" fill="#000"/>
</svg>
