<svg width="24" height="24" viewBox="0 0 24 24" fill="none" xmlns="http://www.w3.org/2000/svg">
<path opacity="0.4" d="M18.431 8.75H5.56903C4.96531 8.74999 4.46702 8.74998 4.06113 8.78315C3.63956 8.81759 3.25203 8.89151 2.88803 9.07698C2.32354 9.3646 1.8646 9.82354 1.57698 10.388C1.39151 10.752 1.31759 11.1396 1.28315 11.5611C1.24998 11.967 1.24999 12.4653 1.25 13.069V13.931C1.24999 14.5347 1.24998 15.033 1.28315 15.4389C1.31759 15.8604 1.39151 16.248 1.57698 16.612C1.8646 17.1765 2.32354 17.6354 2.88803 17.923C3.25203 18.1085 3.63956 18.1824 4.06113 18.2169C4.46702 18.25 4.96527 18.25 5.56897 18.25H18.431C19.0347 18.25 19.533 18.25 19.9389 18.2169C20.3604 18.1824 20.748 18.1085 21.112 17.923C21.6765 17.6354 22.1354 17.1765 22.423 16.612C22.6085 16.248 22.6824 15.8604 22.7169 15.4389C22.75 15.033 22.75 14.5347 22.75 13.931V13.069C22.75 12.4653 22.75 11.967 22.7169 11.5611C22.6824 11.1396 22.6085 10.752 22.423 10.388C22.1354 9.82354 21.6765 9.3646 21.112 9.07698C20.748 8.89151 20.3604 8.81759 19.9389 8.78315C19.533 8.74998 19.0347 8.74999 18.431 8.75Z" fill="#000"/>
<path d="M8.24339 2.75006C7.34329 2.74948 6.68842 2.74906 6.11237 2.97563C5.60604 3.17476 5.1578 3.49783 4.80876 3.91521C4.41167 4.39006 4.20497 5.01146 3.92089 5.86554L3.79275 6.25012H2C1.58579 6.25012 1.25 6.58591 1.25 7.00012C1.25 7.41434 1.58579 7.75012 2 7.75012H3.29275L2.8425 9.10088C2.85766 9.09283 2.8729 9.0849 2.88821 9.0771C3.25221 8.89163 3.63974 8.8177 4.06131 8.78326C4.20786 8.77129 4.36644 8.76364 4.53768 8.75875L5.29981 6.47238C5.64788 5.42814 5.7687 5.10556 5.95944 4.87747C6.14738 4.65273 6.38874 4.47877 6.66138 4.37154C6.93808 4.26272 7.28231 4.25012 8.38303 4.25012H15.617C16.7177 4.25012 17.0619 4.26272 17.3386 4.37154C17.6112 4.47877 17.8526 4.65273 18.0405 4.87747C18.2313 5.10556 18.3521 5.42814 18.7002 6.47237L19.4623 8.75874C19.6337 8.76363 19.7924 8.77128 19.9391 8.78326C20.3606 8.8177 20.7482 8.89163 21.1122 9.0771C21.1273 9.08482 21.1424 9.09267 21.1574 9.10064L20.7072 7.75012H22C22.4142 7.75012 22.75 7.41434 22.75 7.00012C22.75 6.58591 22.4142 6.25012 22 6.25012H20.2072L20.0791 5.86554C19.795 5.01146 19.5883 4.39006 19.1912 3.91521C18.8422 3.49783 18.3939 3.17476 17.8876 2.97563C17.3116 2.74907 16.6567 2.74948 15.7566 2.75006H8.24339Z" fill="#000"/>
<path d="M18.7495 18.2518C19.2126 18.2509 19.6067 18.2459 19.9389 18.2188C20.3604 18.1844 20.748 18.1104 21.112 17.925C21.3438 17.8068 21.5578 17.6598 21.7495 17.4885V20.2519C21.7495 20.8042 21.3018 21.2519 20.7495 21.2519H19.7495C19.1972 21.2519 18.7495 20.8042 18.7495 20.2519V18.2518Z" fill="#000"/>
<path d="M2.24951 17.4876C2.44143 17.6593 2.6558 17.8066 2.88803 17.925C3.25203 18.1104 3.63956 18.1844 4.06113 18.2188C4.39309 18.2459 4.78683 18.2509 5.24951 18.2518V20.2519C5.24951 20.8042 4.8018 21.2519 4.24951 21.2519H3.24951C2.69723 21.2519 2.24951 20.8042 2.24951 20.2519V17.4876Z" fill="#000"/>
<path d="M10 12.7501C9.58579 12.7501 9.25 13.0859 9.25 13.5001C9.25 13.9143 9.58579 14.2501 10 14.2501H14C14.4142 14.2501 14.75 13.9143 14.75 13.5001C14.75 13.0859 14.4142 12.7501 14 12.7501H10Z" fill="#000"/>
<path d="M5 13.5001C5 12.9478 5.44772 12.5001 6 12.5001C6.55228 12.5001 7.0001 12.9478 7.0001 13.5001C7.0001 14.0524 6.55238 14.5001 6.0001 14.5001C5.44782 14.5001 5 14.0524 5 13.5001Z" fill="#000"/>
<path d="M18 12.5001C17.4477 12.5001 17 12.9478 17 13.5001C17 14.0524 17.4477 14.5001 18 14.5001C18.5523 14.5001 19.0001 14.0524 19.0001 13.5001C19.0001 12.9478 18.5523 12.5001 18 12.5001Z" fill="#000"/>
</svg>
