<svg width="24" height="24" viewBox="0 0 24 24" fill="none" xmlns="http://www.w3.org/2000/svg">
<path opacity="0.4" d="M1 1.25C0.585786 1.25 0.25 1.58579 0.25 2C0.25 2.41421 0.585786 2.75 1 2.75H2.18189C2.55884 2.75 2.87721 3.02977 2.92567 3.40358L4.28029 13.8535C4.45797 15.2242 5.62536 16.25 7.00747 16.25H10.1404C10.5007 16.25 10.8101 15.9938 10.8773 15.6398C11.5135 12.2859 14.4614 9.75 18 9.75C18.8302 9.75 19.6263 9.88924 20.3671 10.145C20.5838 10.2198 20.8228 10.1914 21.0159 10.068C21.2091 9.94447 21.3351 9.73945 21.3581 9.51138L21.7452 5.6757C21.8492 4.64496 21.04 3.75 20.004 3.75H4.48313L4.41322 3.21075C4.26785 2.08931 3.31272 1.25 2.18189 1.25H1Z" fill="#000"/>
<path fill-rule="evenodd" clip-rule="evenodd" d="M18 11.25C14.8244 11.25 12.25 13.8244 12.25 17C12.25 20.1756 14.8244 22.75 18 22.75C21.1756 22.75 23.75 20.1756 23.75 17C23.75 13.8244 21.1756 11.25 18 11.25ZM19.0582 18.9419C19.3022 19.186 19.698 19.186 19.9421 18.9419C20.1861 18.6979 20.1861 18.3021 19.942 18.0581L18.8839 17L19.9419 15.9419C20.186 15.6979 20.186 15.3021 19.9419 15.0581C19.6979 14.814 19.3021 14.814 19.0581 15.0581L18 16.1161L16.942 15.0581C16.6979 14.814 16.3022 14.814 16.0581 15.0581C15.814 15.3021 15.814 15.6979 16.0581 15.9419L17.1162 17L16.0581 18.0581C15.814 18.3021 15.814 18.6979 16.0581 18.9419C16.3021 19.186 16.6979 19.186 16.9419 18.9419L18 17.8838L19.0582 18.9419Z" fill="#000"/>
<path d="M2.74902 17.2499C2.74902 15.8689 3.86901 14.7489 5.25 14.7489L5.39746 14.7635C5.54145 14.7924 5.6749 14.8633 5.78027 14.9686L5.78125 14.9696L5.83301 15.0262C6.05731 15.3012 6.05731 15.6985 5.83301 15.9735L5.78125 16.0302L5.78027 16.0311C5.63962 16.1718 5.44891 16.2509 5.25 16.2509C4.69799 16.2509 4.25098 16.6979 4.25098 17.2499C4.25098 17.8019 4.69799 18.2489 5.25 18.2489H10.252C10.536 18.2489 10.7958 18.4099 10.9229 18.6639L10.9238 18.6659L10.9609 18.7548C11.0345 18.9663 11.0102 19.202 10.8906 19.3954C10.7539 19.6163 10.5127 19.7509 10.2529 19.7509H9.35502C9.44852 19.9822 9.5 20.235 9.5 20.4999C9.5 21.6044 8.60457 22.4999 7.5 22.4999C6.39543 22.4999 5.5 21.6044 5.5 20.4999C5.5 20.235 5.55148 19.9822 5.64498 19.7509H5.25C3.86901 19.7509 2.74902 18.6309 2.74902 17.2499Z" fill="#000"/>
</svg>
