<svg width="24" height="24" viewBox="0 0 24 24" fill="none" xmlns="http://www.w3.org/2000/svg">
<path opacity="0.4" d="M2 1.25C1.58579 1.25 1.25 1.58579 1.25 2C1.25 2.41421 1.58579 2.75 2 2.75H3.18189C3.55884 2.75 3.87721 3.02977 3.92567 3.40358L5.28029 13.8535C5.45797 15.2242 6.62536 16.25 8.00747 16.25H18.7396C20.4081 16.25 21.8056 14.9864 21.9732 13.3263L22.7452 5.6757C22.8492 4.64496 22.04 3.75 21.004 3.75H5.48313L5.41322 3.21075C5.26785 2.08931 4.31272 1.25 3.18189 1.25H2Z" fill="#000"/>
<path d="M3.75 17.25C3.75 15.8693 4.86929 14.75 6.25 14.75C6.66421 14.75 7 15.0858 7 15.5C7 15.9142 6.66421 16.25 6.25 16.25C5.69772 16.25 5.25 16.6977 5.25 17.25C5.25 17.8023 5.69772 18.25 6.25 18.25H21C21.4142 18.25 21.75 18.5858 21.75 19C21.75 19.4142 21.4142 19.75 21 19.75H20.622C20.7049 19.9846 20.75 20.237 20.75 20.5C20.75 21.7426 19.7426 22.75 18.5 22.75C17.2574 22.75 16.25 21.7426 16.25 20.5C16.25 20.237 16.2951 19.9846 16.378 19.75H10.622C10.7049 19.9846 10.75 20.237 10.75 20.5C10.75 21.7426 9.74264 22.75 8.5 22.75C7.25736 22.75 6.25 21.7426 6.25 20.5C6.25 20.237 6.29512 19.9846 6.37803 19.75H6.25C4.86929 19.75 3.75 18.6307 3.75 17.25Z" fill="#000"/>
</svg>
