<svg width="24" height="24" viewBox="0 0 24 24" fill="none" xmlns="http://www.w3.org/2000/svg">
<path opacity="0.4" d="M1.25 2C1.25 1.58579 1.58579 1.25 2 1.25H3.18189C4.31272 1.25 5.26785 2.08931 5.41322 3.21075L6.76785 13.6607C6.84861 14.2837 7.37924 14.75 8.00747 14.75H18.717C19.6221 14.75 20.3778 14.0598 20.4598 13.1584L21.2531 4.4321C21.2906 4.01959 21.6554 3.71558 22.0679 3.75308C22.4804 3.79058 22.7844 4.15539 22.7469 4.5679L21.9536 13.2942C21.8014 14.9682 20.3979 16.25 18.717 16.25H8.00747C6.62536 16.25 5.45797 15.2242 5.28029 13.8535L3.92567 3.40358C3.87721 3.02977 3.55884 2.75 3.18189 2.75H2C1.58579 2.75 1.25 2.41421 1.25 2Z" fill="#000"/>
<path d="M13.5 3.75C13.9142 3.75 14.25 4.08579 14.25 4.5V9.68934L15.9697 7.96967C16.2626 7.67678 16.7374 7.67678 17.0303 7.96967C17.3232 8.26256 17.3232 8.73744 17.0303 9.03033L14.0303 12.0303C13.8897 12.171 13.6989 12.25 13.5 12.25C13.3011 12.25 13.1103 12.171 12.9697 12.0303L9.96967 9.03033C9.67678 8.73744 9.67678 8.26256 9.96967 7.96967C10.2626 7.67678 10.7374 7.67678 11.0303 7.96967L12.75 9.68934V4.5C12.75 4.08579 13.0858 3.75 13.5 3.75Z" fill="#000"/>
<path d="M6.25 14.7488C4.86901 14.7488 3.74902 15.8688 3.74902 17.2498C3.74902 18.6308 4.86901 19.7508 6.25 19.7508H6.64498C6.55148 19.9821 6.5 20.235 6.5 20.4998C6.5 21.6044 7.39543 22.4998 8.5 22.4998C9.60457 22.4998 10.5 21.6044 10.5 20.4998C10.5 20.235 10.4485 19.9821 10.355 19.7508H16.645C16.5515 19.9821 16.5 20.235 16.5 20.4998C16.5 21.6044 17.3954 22.4998 18.5 22.4998C19.6046 22.4998 20.5 21.6044 20.5 20.4998C20.5 20.235 20.4485 19.9821 20.355 19.7508H21C21.1989 19.7508 21.3896 19.6717 21.5303 19.5311L21.5312 19.5301C21.8059 19.2555 21.8233 18.8208 21.583 18.5262L21.5312 18.4695L21.5303 18.4686C21.3896 18.3279 21.1989 18.2488 21 18.2488H6.25C5.69799 18.2488 5.25098 17.8018 5.25098 17.2498C5.25098 16.6978 5.69799 16.2508 6.25 16.2508H6.625C6.92835 16.2508 7.20227 16.0682 7.31836 15.7879C7.41993 15.5426 7.38301 15.2648 7.22852 15.0555L7.15527 14.9705L7.15332 14.9686C7.01267 14.8279 6.82196 14.7488 6.62305 14.7488H6.25Z" fill="#000"/>
</svg>
