<svg width="24" height="24" viewBox="0 0 24 24" fill="none" xmlns="http://www.w3.org/2000/svg">
<path opacity="0.4" d="M3.75 1.25C2.92157 1.25 2.25 1.92157 2.25 2.75V7.99621C2.25 8.79275 2.47384 9.57325 2.89601 10.2487L4.636 13.0327C4.7105 13.1519 4.75 13.2896 4.75 13.4302V22C4.75 22.4142 5.08579 22.75 5.5 22.75H18.5C18.9142 22.75 19.25 22.4142 19.25 22V13.4302C19.25 13.2896 19.2895 13.1519 19.364 13.0327L21.104 10.2487C21.5262 9.57325 21.75 8.79275 21.75 7.99621V2.75C21.75 1.92157 21.0784 1.25 20.25 1.25H17.75C16.9216 1.25 16.25 1.92157 16.25 2.75V4.75H14.75V2.75C14.75 1.92157 14.0784 1.25 13.25 1.25H10.75C9.92157 1.25 9.25 1.92157 9.25 2.75V4.75H7.75V2.75C7.75 1.92157 7.07843 1.25 6.25 1.25H3.75Z" fill="#000"/>
<path d="M12 11.75C10.7574 11.75 9.75 12.7574 9.75 14V17.5C9.75 17.6381 9.86193 17.75 10 17.75H14C14.1381 17.75 14.25 17.6381 14.25 17.5V14C14.25 12.7574 13.2426 11.75 12 11.75Z" fill="#000"/>
</svg>
