<svg width="24" height="24" viewBox="0 0 24 24" fill="none" xmlns="http://www.w3.org/2000/svg">
<path opacity="0.4" d="M17.2321 1.25H6.7679C5.95506 1.24999 5.29944 1.24999 4.76853 1.29336C4.2219 1.33803 3.74175 1.43239 3.29754 1.65873C2.59193 2.01825 2.01825 2.59193 1.65873 3.29754C1.43239 3.74175 1.33803 4.2219 1.29336 4.76853C1.24999 5.29944 1.24999 5.95505 1.25 6.76788V12.2321C1.24999 13.0449 1.24999 13.7006 1.29336 14.2315C1.33803 14.7781 1.43239 15.2582 1.65873 15.7025C2.01825 16.4081 2.59193 16.9817 3.29754 17.3413C3.74175 17.5676 4.2219 17.662 4.76853 17.7066C5.29944 17.75 5.95505 17.75 6.76788 17.75H17.2321C18.045 17.75 18.7006 17.75 19.2315 17.7066C19.7781 17.662 20.2582 17.5676 20.7025 17.3413C21.4081 16.9817 21.9817 16.4081 22.3413 15.7025C22.5676 15.2582 22.662 14.7781 22.7066 14.2315C22.75 13.7006 22.75 13.045 22.75 12.2321V6.76788C22.75 5.95505 22.75 5.29944 22.7066 4.76853C22.662 4.2219 22.5676 3.74175 22.3413 3.29754C21.9817 2.59193 21.4081 2.01825 20.7025 1.65873C20.2582 1.43239 19.7781 1.33803 19.2315 1.29336C18.7006 1.24999 18.0449 1.24999 17.2321 1.25Z" fill="#000"/>
<path d="M6.25 7.5C6.25 7.08579 6.58579 6.75 7 6.75H17C17.4142 6.75 17.75 7.08579 17.75 7.5C17.75 7.91421 17.4142 8.25 17 8.25H7C6.58579 8.25 6.25 7.91421 6.25 7.5Z" fill="#000"/>
<path d="M15.1095 17.75H16.9405L19.6145 21.57C19.852 21.9093 19.7695 22.377 19.4302 22.6145C19.0908 22.852 18.6232 22.7695 18.3856 22.4302L15.1095 17.75Z" fill="#000"/>
<path d="M11.2501 17.75H12.7501V20.5001C12.7501 20.9143 12.4143 21.2501 12.0001 21.2501C11.5859 21.2501 11.2501 20.9143 11.2501 20.5001V17.75Z" fill="#000"/>
<path d="M7.05962 17.75H8.8906L5.61449 22.4302C5.37695 22.7695 4.9093 22.852 4.56997 22.6145C4.23063 22.377 4.1481 21.9093 4.38564 21.57L7.05962 17.75Z" fill="#000"/>
<path d="M7 10.75C6.58579 10.75 6.25 11.0858 6.25 11.5C6.25 11.9142 6.58579 12.25 7 12.25H13C13.4142 12.25 13.75 11.9142 13.75 11.5C13.75 11.0858 13.4142 10.75 13 10.75H7Z" fill="#000"/>
</svg>
