<svg width="24" height="24" viewBox="0 0 24 24" fill="none" xmlns="http://www.w3.org/2000/svg">
<path opacity="0.4" d="M2 1C2.55228 1 3 1.44772 3 2V18.5C3 19.8807 4.11929 21 5.5 21H22C22.5523 21 23 21.4477 23 22C23 22.5523 22.5523 23 22 23H5.5C3.01472 23 1 20.9853 1 18.5V2C1 1.44772 1.44772 1 2 1Z" fill="#000"/>
<path d="M16.2501 2C15.6978 2 15.2501 2.44772 15.2501 3C15.2501 3.55228 15.6978 4 16.2501 4H17.6687C15.901 5.83029 14.2956 7.13784 12.6372 8.06457C10.6583 9.17045 8.54978 9.76409 5.90953 10.0041C5.35951 10.0541 4.95417 10.5405 5.00417 11.0905C5.05417 11.6406 5.54058 12.0459 6.0906 11.9959C8.95035 11.7359 11.3418 11.0796 13.6129 9.81045C15.456 8.78049 17.1834 7.36709 19.0001 5.50005V6.75C19.0001 7.30228 19.4478 7.75 20.0001 7.75C20.5524 7.75 21.0001 7.30228 21.0001 6.75V3C21.0001 2.44772 20.5524 2 20.0001 2H16.2501Z" fill="#000"/>
<path d="M18.0001 18C18.0001 18.5523 18.4478 19 19.0001 19C19.5524 19 20.0001 18.5523 20.0001 18L20.0001 11C20.0001 10.4477 19.5524 10 19.0001 10C18.4478 10 18.0001 10.4477 18.0001 11L18.0001 18Z" fill="#000"/>
<path d="M15.0001 19C14.4478 19 14.0001 18.5523 14.0001 18V12.8C14.0001 12.2477 14.4478 11.8 15.0001 11.8C15.5524 11.8 16.0001 12.2477 16.0001 12.8V18C16.0001 18.5523 15.5524 19 15.0001 19Z" fill="#000"/>
<path d="M10.0001 14.65V18C10.0001 18.5523 10.4478 19 11.0001 19C11.5524 19 12.0001 18.5523 12.0001 18V14.65C12.0001 14.0977 11.5524 13.65 11.0001 13.65C10.4478 13.65 10.0001 14.0977 10.0001 14.65Z" fill="#000"/>
<path d="M6.00012 16.5V18C6.00012 18.5523 6.44784 19 7.00012 19C7.55241 19 8.00012 18.5523 8.00012 18L8.00012 16.5C8.00012 15.9477 7.55241 15.5 7.00012 15.5C6.44784 15.5 6.00012 15.9477 6.00012 16.5Z" fill="#000"/>
</svg>
