<svg width="24" height="24" viewBox="0 0 24 24" fill="none" xmlns="http://www.w3.org/2000/svg">
<path opacity="0.4" d="M2 1C2.55228 1 3 1.44772 3 2V18.5C3 19.8807 4.11929 21 5.5 21H22C22.5523 21 23 21.4477 23 22C23 22.5523 22.5523 23 22 23H5.5C3.01472 23 1 20.9853 1 18.5V2C1 1.44772 1.44772 1 2 1Z" fill="#000"/>
<path d="M21.7071 7.29289C22.0976 7.68342 22.0976 8.31658 21.7071 8.70711L16.2071 14.2071C15.8166 14.5976 15.1834 14.5976 14.7929 14.2071L11.5 10.9142L6.70711 15.7071C6.31658 16.0976 5.68342 16.0976 5.29289 15.7071C4.90237 15.3166 4.90237 14.6834 5.29289 14.2929L10.7929 8.79289C11.1834 8.40237 11.8166 8.40237 12.2071 8.79289L15.5 12.0858L20.2929 7.29289C20.6834 6.90237 21.3166 6.90237 21.7071 7.29289Z" fill="#000"/>
</svg>
