<svg width="24" height="24" viewBox="0 0 24 24" fill="none" xmlns="http://www.w3.org/2000/svg">
<path opacity="0.4" d="M10.25 12.5002V2.7395L9.38251 2.8771C4.48996 3.65315 0.75 7.88916 0.75 13.0001C0.75 18.661 5.33908 23.2501 11 23.2501C16.1109 23.2501 20.3469 19.5102 21.123 14.6177L21.2606 13.7502H11.5C10.8096 13.7502 10.25 13.1905 10.25 12.5002Z" fill="#000"/>
<path d="M11.5324 0.761423C10.8099 0.730493 10.25 1.31763 10.25 2.00005V12.5C10.25 13.1904 10.8096 13.75 11.5 13.75H22C22.6824 13.75 23.2696 13.1902 23.2386 12.4676C22.9671 6.12537 17.8747 1.03292 11.5324 0.761423Z" fill="#000"/>
</svg>
