<svg width="24" height="24" viewBox="0 0 24 24" fill="none" xmlns="http://www.w3.org/2000/svg">
<path opacity="0.4" d="M16.4326 1.25H7.56739C6.61495 1.24999 5.85439 1.24999 5.24013 1.30018C4.61012 1.35165 4.06824 1.45963 3.57054 1.71322C2.77085 2.12068 2.12068 2.77085 1.71322 3.57054C1.45963 4.06824 1.35165 4.61012 1.30018 5.24013C1.24999 5.85439 1.24999 6.61494 1.25 7.56738V13.4326C1.24999 14.3851 1.24999 15.1456 1.30018 15.7599C1.35165 16.3899 1.45963 16.9318 1.71322 17.4295C2.12068 18.2291 2.77085 18.8793 3.57054 19.2868C4.06824 19.5404 4.61012 19.6483 5.24013 19.6998C5.85438 19.75 6.6149 19.75 7.5673 19.75H8.20054C8.72267 19.75 8.82573 19.7578 8.90786 19.783C9.00306 19.8122 9.09149 19.8601 9.16798 19.9238C9.23398 19.9788 9.29685 20.0609 9.58224 20.4981L10.0499 21.2146C10.258 21.5335 10.4414 21.8145 10.6099 22.0275C10.7838 22.2473 11.0065 22.4815 11.3234 22.6144C11.7562 22.7959 12.2438 22.7959 12.6766 22.6144C12.9935 22.4815 13.2162 22.2473 13.3901 22.0275C13.5585 21.8145 13.7419 21.5336 13.95 21.2147L14.4178 20.4981C14.7032 20.0609 14.766 19.9788 14.832 19.9238C14.9085 19.8601 14.9969 19.8122 15.0921 19.783C15.1743 19.7578 15.2773 19.75 15.7995 19.75H16.4326C17.385 19.75 18.1456 19.75 18.7599 19.6998C19.3899 19.6483 19.9318 19.5404 20.4295 19.2868C21.2291 18.8793 21.8793 18.2291 22.2868 17.4295C22.5404 16.9318 22.6483 16.3899 22.6998 15.7599C22.75 15.1456 22.75 14.3851 22.75 13.4327V7.56737C22.75 6.61496 22.75 5.85438 22.6998 5.24013C22.6483 4.61012 22.5404 4.06824 22.2868 3.57054C21.8793 2.77085 21.2291 2.12068 20.4295 1.71322C19.9318 1.45963 19.3899 1.35165 18.7599 1.30018C18.1456 1.24999 17.3851 1.24999 16.4326 1.25Z" fill="#000"/>
<path d="M13.9697 13.5303C14.2626 13.8232 14.7374 13.8232 15.0303 13.5303C15.3232 13.2374 15.3232 12.7625 15.0303 12.4696L13.0607 10.5L15.0303 8.53035C15.3232 8.23746 15.3232 7.76258 15.0303 7.46969C14.7374 7.1768 14.2625 7.1768 13.9696 7.46969L12 9.43932L10.0304 7.46967C9.73748 7.17678 9.2626 7.17678 8.96971 7.46967C8.67682 7.76256 8.67682 8.23744 8.96971 8.53033L10.9394 10.5L8.96967 12.4697C8.67678 12.7626 8.67678 13.2374 8.96967 13.5303C9.26256 13.8232 9.73744 13.8232 10.0303 13.5303L12 11.5606L13.9697 13.5303Z" fill="#000"/>
</svg>
