<svg width="24" height="24" viewBox="0 0 24 24" fill="none" xmlns="http://www.w3.org/2000/svg">
<path opacity="0.4" d="M12 0.25C5.51065 0.25 0.25 5.51065 0.25 12C0.25 18.4893 5.51065 23.75 12 23.75C18.4893 23.75 23.75 18.4893 23.75 12C23.75 5.51065 18.4893 0.25 12 0.25Z" fill="#000"/>
<path d="M17.0303 8.46967C17.3232 8.76256 17.3232 9.23744 17.0303 9.53033L11.0303 15.5303C10.7374 15.8232 10.2626 15.8232 9.96967 15.5303L6.96967 12.5303C6.67678 12.2374 6.67678 11.7626 6.96967 11.4697C7.26256 11.1768 7.73744 11.1768 8.03033 11.4697L10.5 13.9393L15.9697 8.46967C16.2626 8.17678 16.7374 8.17678 17.0303 8.46967Z" fill="#000"/>
</svg>
