<svg width="24" height="24" viewBox="0 0 24 24" fill="none" xmlns="http://www.w3.org/2000/svg">
<g opacity="0.4">
<path d="M9.5 5.5C9.5 4.94772 9.94772 4.5 10.5 4.5H22C22.5523 4.5 23 4.94772 23 5.5C23 6.05228 22.5523 6.5 22 6.5H10.5C9.94772 6.5 9.5 6.05228 9.5 5.5Z" fill="#000"/>
<path d="M9.5 12.5C9.5 11.9477 9.94772 11.5 10.5 11.5H22C22.5523 11.5 23 11.9477 23 12.5C23 13.0523 22.5523 13.5 22 13.5H10.5C9.94772 13.5 9.5 13.0523 9.5 12.5Z" fill="#000"/>
<path d="M10.5 18.5C9.94772 18.5 9.5 18.9477 9.5 19.5C9.5 20.0523 9.94772 20.5 10.5 20.5H22C22.5523 20.5 23 20.0523 23 19.5C23 18.9477 22.5523 18.5 22 18.5H10.5Z" fill="#000"/>
</g>
<path d="M7.19197 2.77808C7.59068 3.16024 7.60409 3.79327 7.22192 4.19197L4.34638 7.19197C4.16004 7.38638 3.90318 7.49741 3.63391 7.49996C3.36463 7.5025 3.10572 7.39634 2.91574 7.20549L1.29128 5.57359C0.901649 5.18218 0.903095 4.54901 1.29451 4.15938C1.68593 3.76975 2.31909 3.7712 2.70872 4.16261L3.61094 5.06896L5.77808 2.80803C6.16024 2.40932 6.79327 2.39591 7.19197 2.77808Z" fill="#000"/>
<path d="M7.19197 9.77808C7.59068 10.1602 7.60409 10.7933 7.22192 11.192L4.34638 14.192C4.16004 14.3864 3.90318 14.4974 3.63391 14.5C3.36463 14.5025 3.10572 14.3963 2.91574 14.2055L1.29128 12.5736C0.901649 12.1822 0.903095 11.549 1.29451 11.1594C1.68593 10.7698 2.31909 10.7712 2.70872 11.1626L3.61094 12.069L5.77808 9.80803C6.16024 9.40932 6.79327 9.39591 7.19197 9.77808Z" fill="#000"/>
<path d="M7.22192 18.192C7.60409 17.7933 7.59068 17.1602 7.19197 16.7781C6.79327 16.3959 6.16024 16.4093 5.77808 16.808L3.61094 19.069L2.70872 18.1626C2.31909 17.7712 1.68593 17.7698 1.29451 18.1594C0.903095 18.549 0.901649 19.1822 1.29128 19.5736L2.91574 21.2055C3.10572 21.3963 3.36463 21.5025 3.63391 21.5C3.90318 21.4974 4.16004 21.3864 4.34638 21.192L7.22192 18.192Z" fill="#000"/>
</svg>
