<svg width="24" height="24" viewBox="0 0 24 24" fill="none" xmlns="http://www.w3.org/2000/svg">
<path opacity="0.4" d="M15.633 1.25H8.367C7.27486 1.24999 6.40936 1.24999 5.71173 1.30699C4.99835 1.36527 4.39472 1.48688 3.84355 1.76772C2.94978 2.22312 2.22312 2.94978 1.76772 3.84355C1.48688 4.39472 1.36527 4.99834 1.30699 5.71173C1.24999 6.40935 1.24999 7.27485 1.25 8.36699V15.633C1.24999 16.7251 1.24999 17.5906 1.30699 18.2883C1.36527 19.0017 1.48688 19.6053 1.76772 20.1565C2.22312 21.0502 2.94977 21.7769 3.84355 22.2323C4.39472 22.5131 4.99835 22.6347 5.71173 22.693C6.40935 22.75 7.27484 22.75 8.36698 22.75H15.633C16.7252 22.75 17.5906 22.75 18.2883 22.693C19.0017 22.6347 19.6053 22.5131 20.1565 22.2323C21.0502 21.7769 21.7769 21.0502 22.2323 20.1565C22.5131 19.6053 22.6347 19.0017 22.693 18.2883C22.75 17.5906 22.75 16.7252 22.75 15.633V8.36698C22.75 7.27484 22.75 6.40935 22.693 5.71173C22.6347 4.99835 22.5131 4.39472 22.2323 3.84355C21.7769 2.94977 21.0502 2.22312 20.1565 1.76772C19.6053 1.48688 19.0017 1.36527 18.2883 1.30699C17.5906 1.24999 16.7251 1.24999 15.633 1.25Z" fill="#000"/>
<path d="M10.5414 8.01898C10.8281 7.71995 10.818 7.24518 10.519 6.95856C10.2199 6.67193 9.74518 6.68199 9.45856 6.98102L8.71184 7.76006L8.53154 7.57893C8.23932 7.28537 7.76444 7.28428 7.47088 7.57651C7.17732 7.86873 7.17624 8.3436 7.46846 8.63716L8.19044 9.36245C8.33292 9.50559 8.52711 9.58521 8.72907 9.5833C8.93102 9.58139 9.12367 9.49812 9.26342 9.35231L10.5414 8.01898Z" fill="#000"/>
<path d="M12.5 7.34998C12.0858 7.34998 11.75 7.68576 11.75 8.09998C11.75 8.51419 12.0858 8.84998 12.5 8.84998H16C16.4142 8.84998 16.75 8.51419 16.75 8.09998C16.75 7.68576 16.4142 7.34998 16 7.34998H12.5Z" fill="#000"/>
<path d="M10.519 10.7886C10.818 11.0752 10.8281 11.55 10.5414 11.849L9.26342 13.1823C9.12367 13.3281 8.93102 13.4114 8.72907 13.4133C8.52711 13.4152 8.33292 13.3356 8.19044 13.1925L7.46846 12.4672C7.17624 12.1736 7.17732 11.6987 7.47088 11.4065C7.76444 11.1143 8.23932 11.1154 8.53154 11.4089L8.71184 11.5901L9.45856 10.811C9.74518 10.512 10.2199 10.502 10.519 10.7886Z" fill="#000"/>
<path d="M12.5 11.18C12.0858 11.18 11.75 11.5158 11.75 11.93C11.75 12.3442 12.0858 12.68 12.5 12.68H16C16.4142 12.68 16.75 12.3442 16.75 11.93C16.75 11.5158 16.4142 11.18 16 11.18H12.5Z" fill="#000"/>
<path d="M10.519 14.6185C10.818 14.9052 10.8281 15.3799 10.5414 15.679L9.26342 17.0123C9.12367 17.1581 8.93102 17.2414 8.72907 17.2433C8.52711 17.2452 8.33292 17.1656 8.19044 17.0224L7.46846 16.2971C7.17624 16.0036 7.17732 15.5287 7.47088 15.2365C7.76444 14.9443 8.23932 14.9453 8.53154 15.2389L8.71184 15.42L9.45856 14.641C9.74518 14.342 10.2199 14.3319 10.519 14.6185Z" fill="#000"/>
<path d="M12.5 15.01C12.0858 15.01 11.75 15.3458 11.75 15.76C11.75 16.1742 12.0858 16.51 12.5 16.51H16C16.4142 16.51 16.75 16.1742 16.75 15.76C16.75 15.3458 16.4142 15.01 16 15.01H12.5Z" fill="#000"/>
</svg>
