<svg width="24" height="24" viewBox="0 0 24 24" fill="none" xmlns="http://www.w3.org/2000/svg">
<path opacity="0.4" d="M22.75 9.15C22.75 9.00999 22.75 8.93998 22.7228 8.8865C22.6988 8.83946 22.6605 8.80122 22.6135 8.77725C22.56 8.75 22.49 8.75 22.35 8.75H1.65C1.50999 8.75 1.43998 8.75 1.3865 8.77725C1.33946 8.80122 1.30122 8.83946 1.27725 8.8865C1.25 8.93998 1.25 9.00999 1.25 9.15V15.633C1.24999 16.7251 1.24999 17.5906 1.30699 18.2883C1.36527 19.0017 1.48688 19.6053 1.76772 20.1565C2.22312 21.0502 2.94978 21.7769 3.84355 22.2323C4.39472 22.5131 4.99834 22.6347 5.71173 22.693C6.40935 22.75 7.27484 22.75 8.36697 22.75H15.633C16.7251 22.75 17.5907 22.75 18.2883 22.693C19.0017 22.6347 19.6053 22.5131 20.1565 22.2323C21.0502 21.7769 21.7769 21.0502 22.2323 20.1565C22.5131 19.6053 22.6347 19.0017 22.693 18.2883C22.75 17.5906 22.75 16.7252 22.75 15.633V9.15Z" fill="#000"/>
<path d="M10.4837 1.42094C10.5178 1.31886 10.6133 1.25 10.7209 1.25H15.6127C15.7834 1.25 15.9038 1.41717 15.8499 1.57906L14.0166 7.07906C13.9825 7.18114 13.887 7.25 13.7794 7.25H8.88757C8.71693 7.25 8.59644 7.08283 8.6504 6.92094L10.4837 1.42094Z" fill="#000"/>
<path d="M6.77938 7.25C6.88699 7.25 6.98253 7.18114 7.01655 7.07906L8.84989 1.57906C8.90385 1.41717 8.78336 1.25 8.61272 1.25H7.97277C7.06408 1.25 6.34389 1.24999 5.76047 1.2898C5.16445 1.33047 4.65656 1.41517 4.1824 1.61157C3.01851 2.09367 2.09381 3.01837 1.61172 4.18225C1.41531 4.65641 1.33061 5.16431 1.28994 5.76032C1.26555 6.11788 1.2561 6.52679 1.25245 6.99898C1.25138 7.13743 1.36355 7.25 1.502 7.25H6.77938Z" fill="#000"/>
<path d="M22.4983 7.25C22.6367 7.25 22.7489 7.13743 22.7478 6.99898C22.7442 6.52679 22.7347 6.11788 22.7103 5.76032C22.6697 5.16431 22.585 4.65641 22.3886 4.18225C21.9065 3.01837 20.9818 2.09367 19.8179 1.61157C19.3437 1.41517 18.8358 1.33047 18.2398 1.2898C18.0781 1.27876 17.9058 1.27079 17.7219 1.26502C17.6122 1.26158 17.5137 1.33106 17.479 1.43516L15.6504 6.92094C15.5964 7.08283 15.7169 7.25 15.8876 7.25H22.4983Z" fill="#000"/>
<path d="M11.7291 12.2244C10.9194 11.6712 9.75017 12.2038 9.75017 13.2038V17.296C9.75017 18.2961 10.9194 18.8286 11.7291 18.2755L14.7241 16.2293C15.4255 15.7501 15.4255 14.7497 14.7241 14.2705L11.7291 12.2244Z" fill="#000"/>
</svg>
