<svg width="24" height="24" viewBox="0 0 24 24" fill="none" xmlns="http://www.w3.org/2000/svg">
<path opacity="0.4" d="M12 0.25C5.51065 0.25 0.25 5.51065 0.25 12C0.25 18.4893 5.51065 23.75 12 23.75C18.4893 23.75 23.75 18.4893 23.75 12C23.75 5.51065 18.4893 0.25 12 0.25Z" fill="#000"/>
<path d="M12 5.25C12.4142 5.25 12.75 5.58579 12.75 6V11.5843L16.3975 13.864C16.7488 14.0835 16.8555 14.5462 16.636 14.8975C16.4165 15.2488 15.9538 15.3555 15.6025 15.136L11.6025 12.636C11.3832 12.4989 11.25 12.2586 11.25 12V6C11.25 5.58579 11.5858 5.25 12 5.25Z" fill="#000"/>
</svg>
