<svg width="24" height="24" viewBox="0 0 24 24" fill="none" xmlns="http://www.w3.org/2000/svg">
<path opacity="0.4" d="M8.96021 9.5C5.89126 9.5 3.39817 11.9656 3.35367 15.0239C1.74568 15.2194 0.5 16.5892 0.5 18.25C0.5 20.0449 1.95507 21.5 3.75 21.5H14.75C14.8052 21.5 14.8583 21.4911 14.9079 21.4746C16.9263 21.2515 18.4958 19.541 18.4958 17.4634C18.4958 15.2346 16.6889 13.4277 14.4601 13.4277C14.4106 13.4277 14.3613 13.4286 14.3122 13.4304C13.5993 11.1529 11.4733 9.5 8.96021 9.5Z" fill="#000"/>
<path d="M16.2501 3C16.2501 2.58579 15.9143 2.25 15.5001 2.25C15.0859 2.25 14.7501 2.58579 14.7501 3V4.875C14.7501 5.28921 15.0859 5.625 15.5001 5.625C15.9143 5.625 16.2501 5.28921 16.2501 4.875V3Z" fill="#000"/>
<path d="M10.7271 4.66637C10.4342 4.37348 9.95934 4.37348 9.66645 4.66637C9.37355 4.95926 9.37355 5.43414 9.66645 5.72703L10.9923 7.05285C11.2852 7.34575 11.76 7.34575 12.0529 7.05285C12.3458 6.75996 12.3458 6.28509 12.0529 5.99219L10.7271 4.66637Z" fill="#000"/>
<path d="M21.3337 5.72703C21.6266 5.43414 21.6266 4.95926 21.3337 4.66637C21.0408 4.37348 20.5659 4.37348 20.273 4.66637L18.9472 5.99219C18.6543 6.28509 18.6543 6.75996 18.9472 7.05285C19.2401 7.34575 19.715 7.34575 20.0079 7.05285L21.3337 5.72703Z" fill="#000"/>
<path d="M21.1251 9.75C20.7109 9.75 20.3751 10.0858 20.3751 10.5C20.3751 10.9142 20.7109 11.25 21.1251 11.25H23.0001C23.4143 11.25 23.7501 10.9142 23.7501 10.5C23.7501 10.0858 23.4143 9.75 23.0001 9.75H21.1251Z" fill="#000"/>
<path d="M20.0079 13.9471C19.715 13.6543 19.2401 13.6543 18.9472 13.9471C18.6543 14.24 18.6543 14.7149 18.9472 15.0078L20.273 16.3336C20.5659 16.6265 21.0408 16.6265 21.3337 16.3336C21.6266 16.0407 21.6266 15.5659 21.3337 15.273L20.0079 13.9471Z" fill="#000"/>
<path d="M13.0559 9.29809C13.9193 9.90813 14.6405 10.7059 15.1606 11.6319C15.2416 11.7763 15.2822 11.8485 15.3249 11.8935C15.3689 11.94 15.3989 11.9627 15.4555 11.9924C15.5105 12.0212 15.5935 12.0412 15.7597 12.0811C16.3093 12.2134 16.827 12.4276 17.2991 12.7102C17.5283 12.8474 17.6429 12.916 17.7543 12.927C17.8477 12.9363 17.9554 12.915 18.0383 12.8709C18.1372 12.8184 18.1934 12.7431 18.3059 12.5925C18.7419 12.0089 19 11.2846 19 10.5C19 8.567 17.433 7 15.5 7C14.4299 7 13.4719 7.48028 12.8299 8.23705C12.692 8.39963 12.623 8.48092 12.597 8.60531C12.5758 8.70704 12.5921 8.8353 12.638 8.92851C12.6942 9.04249 12.8148 9.1277 13.0559 9.29809Z" fill="#000"/>
</svg>
