<svg width="24" height="24" viewBox="0 0 24 24" fill="none" xmlns="http://www.w3.org/2000/svg">
<path opacity="0.4" d="M12 3.25C7.71979 3.25 4.25 6.71979 4.25 11C4.25 11.1031 4.25202 11.2057 4.25602 11.3079C1.98608 11.665 0.25 13.6298 0.25 16C0.25 18.6234 2.37665 20.75 5 20.75H18C21.1756 20.75 23.75 18.1756 23.75 15C23.75 12.3791 21.9971 10.169 19.6 9.47575C18.8916 5.92521 15.7587 3.25 12 3.25Z" fill="#000"/>
<path d="M11.25 17.0001C11.25 17.4143 11.5858 17.7501 12 17.7501C12.4142 17.7501 12.75 17.4143 12.75 17.0001L12.75 10.8108L14.4697 12.5305C14.7626 12.8233 15.2374 12.8233 15.5303 12.5305C15.8232 12.2376 15.8232 11.7627 15.5303 11.4698L12.5303 8.46979C12.3897 8.32914 12.1989 8.25012 12 8.25012C11.8011 8.25012 11.6103 8.32914 11.4697 8.46979L8.46967 11.4698C8.17678 11.7627 8.17678 12.2376 8.46967 12.5305C8.76256 12.8233 9.23744 12.8233 9.53033 12.5305L11.25 10.8108L11.25 17.0001Z" fill="#000"/>
</svg>
