<svg width="24" height="24" viewBox="0 0 24 24" fill="none" xmlns="http://www.w3.org/2000/svg">
<path opacity="0.4" d="M12 1.25C8.18138 1.25 5.06551 4.25883 4.89382 8.03505C2.82493 8.38781 1.25 10.1894 1.25 12.3588C1.25 14.7813 3.21384 16.7452 5.63636 16.7452C5.67565 16.7452 5.71485 16.7447 5.75394 16.7436H17.333C17.3734 16.7446 17.414 16.745 17.4546 16.745C20.3792 16.745 22.7501 14.3742 22.7501 11.4496C22.7501 8.99629 21.0825 6.93381 18.819 6.33173C17.9445 3.3932 15.2233 1.25 12 1.25Z" fill="#000"/>
<path fill-rule="evenodd" clip-rule="evenodd" d="M12.75 19.378V16C12.75 15.5858 12.4142 15.25 12 15.25C11.5858 15.25 11.25 15.5858 11.25 16L11.25 19.378C10.6107 19.604 10.104 20.1107 9.87803 20.75H5C4.58579 20.75 4.25 21.0858 4.25 21.5C4.25 21.9142 4.58579 22.25 5 22.25H9.87803C10.1869 23.1239 11.0203 23.75 12 23.75C12.9797 23.75 13.8131 23.1239 14.122 22.25H19C19.4142 22.25 19.75 21.9142 19.75 21.5C19.75 21.0858 19.4142 20.75 19 20.75H14.122C13.896 20.1107 13.3893 19.604 12.75 19.378ZM12.75 21.5C12.75 21.0858 12.4142 20.75 12 20.75C11.5858 20.75 11.25 21.0858 11.25 21.5C11.25 21.9142 11.5858 22.25 12 22.25C12.4142 22.25 12.75 21.9142 12.75 21.5Z" fill="#000"/>
</svg>
