<svg width="24" height="24" viewBox="0 0 24 24" fill="none" xmlns="http://www.w3.org/2000/svg">
<path opacity="0.4" d="M12 3.25C7.71979 3.25 4.25 6.71979 4.25 11C4.25 11.1031 4.25202 11.2057 4.25602 11.3079C1.98608 11.665 0.25 13.6298 0.25 16C0.25 18.6234 2.37665 20.75 5 20.75H18C21.1756 20.75 23.75 18.1756 23.75 15C23.75 12.3791 21.9971 10.169 19.6 9.47575C18.8916 5.92521 15.7587 3.25 12 3.25Z" fill="#000"/>
<path d="M15.75 13.5C15.75 13.9142 15.4142 14.25 15 14.25H9C8.58579 14.25 8.25 13.9142 8.25 13.5C8.25 13.0858 8.58579 12.75 9 12.75H15C15.4142 12.75 15.75 13.0858 15.75 13.5Z" fill="#000"/>
</svg>
