<svg width="24" height="24" viewBox="0 0 24 24" fill="none" xmlns="http://www.w3.org/2000/svg">
<g opacity="0.4">
<path d="M6.69993 8.71421C7.09438 8.32765 7.10077 7.69452 6.71421 7.30007C6.32765 6.90562 5.69452 6.89923 5.30007 7.28579L1.30007 11.2058C1.11063 11.3914 1.0027 11.6448 1.00005 11.91C0.997396 12.1752 1.10023 12.4307 1.28592 12.6201L5.28584 16.7001C5.67248 17.0944 6.30561 17.1007 6.69999 16.7141C7.09436 16.3274 7.10064 15.6943 6.714 15.2999L3.41428 11.9342L6.69993 8.71421Z" fill="#000"/>
<path d="M18.6996 7.28543C18.3049 6.89907 17.6718 6.90579 17.2854 7.30044C16.8991 7.69508 16.9058 8.32821 17.3004 8.71457L20.5857 11.9309L17.2856 15.3003C16.8991 15.6948 16.9057 16.328 17.3003 16.7144C17.6948 17.1009 18.328 17.0943 18.7144 16.6997L22.7144 12.6157C22.9 12.4262 23.0027 12.1707 22.9999 11.9055C22.9972 11.6403 22.8891 11.387 22.6996 11.2014L18.6996 7.28543Z" fill="#000"/>
</g>
<path d="M14.2428 3.02985C14.7786 3.1638 15.1043 3.70673 14.9704 4.24253L10.9704 20.2425C10.8364 20.7783 10.2935 21.1041 9.7577 20.9701C9.22191 20.8362 8.89615 20.2933 9.03009 19.7575L13.0301 3.75746C13.164 3.22166 13.707 2.8959 14.2428 3.02985Z" fill="#000"/>
</svg>
