<svg width="24" height="24" viewBox="0 0 24 24" fill="none" xmlns="http://www.w3.org/2000/svg">
<g opacity="0.4">
<path d="M15.7495 5.55129L15.75 9.49997C15.75 9.75788 15.7181 10.0087 15.6583 10.2509C15.6057 10.2503 15.5529 10.25 15.5 10.25C14.9976 10.25 14.5052 10.2789 14.0285 10.3346C14.1782 10.0569 14.25 9.77743 14.25 9.49997L14.2499 8.1257C15.114 7.47124 15.73 6.60001 15.7495 5.55129Z" fill="#000"/>
<path fill-rule="evenodd" clip-rule="evenodd" d="M1.25 5.5C1.25001 6.57157 1.87185 7.46051 2.75 8.12559V9.49997C2.75 10.177 3.19957 10.8466 4.24773 11.3875C5.28834 11.9245 6.78669 12.2499 8.5 12.2499C8.78718 12.2499 9.06929 12.238 9.34498 12.215C8.87825 12.6526 8.52291 13.1669 8.35563 13.7492C6.53375 13.7316 4.83811 13.3801 3.55989 12.7205C3.27295 12.5724 3.00049 12.4047 2.75 12.2174V12.9877L2.7501 13V13.5172C2.75768 14.1884 3.20848 14.8512 4.24773 15.3875C5.23741 15.8982 6.64111 16.2176 8.25 16.2476V14.5005C8.25001 15.5721 8.87185 16.4605 9.75 17.1256V18.5C9.75 19.177 10.1996 19.8466 11.2477 20.3875C12.2883 20.9245 13.7867 21.2499 15.5 21.2499C17.2133 21.2499 18.7117 20.9245 19.7523 20.3875C20.8004 19.8466 21.25 19.177 21.25 18.5L21.2499 17.1257C22.114 16.4713 22.73 15.6 22.7495 14.5513L22.75 18.5C22.75 19.9671 21.7445 21.0474 20.4401 21.7205C19.1282 22.3975 17.3765 22.7499 15.5 22.7499C13.6235 22.7499 11.8718 22.3975 10.5599 21.7205C10.4862 21.6825 10.4135 21.6432 10.3419 21.6026C9.75314 21.6989 9.13567 21.7499 8.5001 21.7499C6.62355 21.7499 4.87191 21.3975 3.55998 20.7205C2.25561 20.0474 1.2501 18.9671 1.2501 17.5L1.2501 13.5249L1.25 13.5V5.5ZM2.7501 17.5L2.7501 16.2175C3.00056 16.4047 3.27299 16.5725 3.55989 16.7205C4.81337 17.3673 6.46827 17.7179 8.25 17.7478V18.5C8.25 19.161 8.45412 19.7435 8.79774 20.2456C8.69918 20.2485 8.59995 20.2499 8.5001 20.2499C6.78679 20.2499 5.28843 19.9245 4.24782 19.3875C3.19966 18.8466 2.7501 18.177 2.7501 17.5Z" fill="#000"/>
</g>
<path d="M15.75 5.5C15.75 4.12539 14.7267 3.05129 13.4518 2.36477C12.1463 1.6618 10.3942 1.25 8.5 1.25C6.6058 1.25 4.85374 1.6618 3.54823 2.36477C2.27327 3.05129 1.25 4.12539 1.25 5.5C1.25 6.87461 2.27327 7.94871 3.54823 8.63523C4.85374 9.3382 6.6058 9.75 8.5 9.75C10.3942 9.75 12.1463 9.3382 13.4518 8.63523C14.7267 7.94871 15.75 6.87461 15.75 5.5Z" fill="#000"/>
<path d="M22.75 14.5C22.75 13.1254 21.7267 12.0513 20.4518 11.3648C19.1463 10.6618 17.3942 10.25 15.5 10.25C13.6058 10.25 11.8537 10.6618 10.5482 11.3648C9.27327 12.0513 8.25 13.1254 8.25 14.5C8.25 15.8746 9.27327 16.9487 10.5482 17.6352C11.8537 18.3382 13.6058 18.75 15.5 18.75C17.3942 18.75 19.1463 18.3382 20.4518 17.6352C21.7267 16.9487 22.75 15.8746 22.75 14.5Z" fill="#000"/>
</svg>
