<svg width="24" height="24" viewBox="0 0 24 24" fill="none" xmlns="http://www.w3.org/2000/svg">
<path opacity="0.4" d="M12 1.25C6.06294 1.25 1.25 6.06294 1.25 12C1.25 14.0416 1.81985 15.9523 2.80949 17.5793L2.02746 19.7298C1.51963 21.1264 2.8736 22.4804 4.27015 21.9725L6.42072 21.1905C8.04768 22.1802 9.9584 22.75 12 22.75C17.9371 22.75 22.75 17.9371 22.75 12C22.75 6.06294 17.9371 1.25 12 1.25Z" fill="#000"/>
<path d="M7 12C7 11.4477 7.44772 11 8 11C8.55228 11 9.0001 11.4477 9.0001 12C9.0001 12.5523 8.55238 13 8.0001 13C7.44782 13 7 12.5523 7 12Z" fill="#000"/>
<path d="M11 12C11 11.4477 11.4477 11 12 11C12.5523 11 13.0001 11.4477 13.0001 12C13.0001 12.5523 12.5524 13 12.0001 13C11.4478 13 11 12.5523 11 12Z" fill="#000"/>
<path d="M16 11C15.4477 11 15 11.4477 15 12C15 12.5523 15.4477 13 16 13C16.5523 13 17.0001 12.5523 17.0001 12C17.0001 11.4477 16.5523 11 16 11Z" fill="#000"/>
</svg>
