<svg width="24" height="24" viewBox="0 0 24 24" fill="none" xmlns="http://www.w3.org/2000/svg">
<path opacity="0.4" d="M12 1.25C6.06294 1.25 1.25 6.06294 1.25 12C1.25 14.0416 1.81985 15.9523 2.80949 17.5793L2.02746 19.7298C1.51963 21.1264 2.8736 22.4804 4.27015 21.9725L6.42072 21.1905C8.04768 22.1802 9.9584 22.75 12 22.75C17.9371 22.75 22.75 17.9371 22.75 12C22.75 6.06294 17.9371 1.25 12 1.25Z" fill="#000"/>
<path d="M15.75 12C15.75 12.4142 15.4142 12.75 15 12.75H9C8.58579 12.75 8.25 12.4142 8.25 12C8.25 11.5858 8.58579 11.25 9 11.25H15C15.4142 11.25 15.75 11.5858 15.75 12Z" fill="#000"/>
</svg>
