<svg width="24" height="24" viewBox="0 0 24 24" fill="none" xmlns="http://www.w3.org/2000/svg">
<path opacity="0.4" d="M12 1.25C6.06294 1.25 1.25 6.06294 1.25 12C1.25 14.0416 1.81985 15.9523 2.80949 17.5793L2.02746 19.7298C1.51963 21.1264 2.8736 22.4804 4.27015 21.9725L6.42072 21.1905C8.04768 22.1802 9.9584 22.75 12 22.75C17.9371 22.75 22.75 17.9371 22.75 12C22.75 6.06294 17.9371 1.25 12 1.25Z" fill="#000"/>
<path d="M16.0303 9.21967C16.3232 9.51256 16.3232 9.98744 16.0303 10.2803L11.5303 14.7803C11.2374 15.0732 10.7626 15.0732 10.4697 14.7803L7.96967 12.2803C7.67678 11.9874 7.67678 11.5126 7.96967 11.2197C8.26256 10.9268 8.73744 10.9268 9.03033 11.2197L11 13.1893L14.9697 9.21967C15.2626 8.92678 15.7374 8.92678 16.0303 9.21967Z" fill="#000"/>
</svg>
