<svg width="24" height="24" viewBox="0 0 24 24" fill="none" xmlns="http://www.w3.org/2000/svg">
<g opacity="0.4">
<path d="M18.1 8.5C17.8035 8.5 17.6412 8.49922 17.5246 8.4897L17.5115 8.48855L17.5103 8.47537C17.5008 8.35878 17.5 8.19653 17.5 7.9V3.5C17.5 2.94771 17.0523 2.5 16.5 2.5C15.9477 2.5 15.5 2.94771 15.5 3.5L15.5 7.9319C15.5 8.18427 15.4999 8.43008 15.5169 8.63823C15.5356 8.86682 15.5797 9.13656 15.718 9.40798C15.9097 9.7843 16.2157 10.0903 16.592 10.282C16.8634 10.4203 17.1332 10.4644 17.3618 10.4831C17.5699 10.5001 17.8157 10.5 18.0681 10.5L22.5 10.5C23.0523 10.5 23.5 10.0523 23.5 9.5C23.5 8.94771 23.0523 8.5 22.5 8.5H18.1Z" fill="#000"/>
<path d="M6.5 20.5C6.5 21.0523 6.94771 21.5 7.5 21.5C8.05228 21.5 8.5 21.0523 8.5 20.5L8.5 16.0681C8.50003 15.8157 8.50006 15.5699 8.48305 15.3618C8.46438 15.1332 8.42031 14.8634 8.28201 14.592C8.09027 14.2157 7.7843 13.9097 7.40798 13.718C7.13656 13.5797 6.86682 13.5356 6.63823 13.5169C6.43008 13.4999 6.1843 13.5 5.93193 13.5L1.5 13.5C0.947715 13.5 0.5 13.9477 0.5 14.5C0.5 15.0523 0.947715 15.5 1.5 15.5H5.9C6.19653 15.5 6.35878 15.5008 6.47537 15.5103L6.48855 15.5115L6.4897 15.5246C6.49922 15.6412 6.5 15.8035 6.5 16.1V20.5Z" fill="#000"/>
</g>
<path d="M5.9319 10.5C6.18427 10.5 6.43007 10.5001 6.63823 10.4831C6.86682 10.4644 7.13656 10.4203 7.40798 10.282C7.7843 10.0903 8.09027 9.7843 8.28201 9.40798C8.42031 9.13656 8.46438 8.86682 8.48305 8.63823C8.50006 8.43007 8.50003 8.18429 8.5 7.93191L8.5 3.5C8.5 2.94771 8.05228 2.5 7.5 2.5C6.94771 2.5 6.5 2.94771 6.5 3.5V7.9C6.5 8.19653 6.49922 8.35878 6.4897 8.47537L6.48855 8.48855L6.47537 8.4897C6.35878 8.49922 6.19653 8.5 5.9 8.5H1.5C0.947715 8.5 0.5 8.94771 0.5 9.5C0.5 10.0523 0.947715 10.5 1.5 10.5L5.9319 10.5Z" fill="#000"/>
<path d="M15.5 20.5C15.5 21.0523 15.9477 21.5 16.5 21.5C17.0523 21.5 17.5 21.0523 17.5 20.5V16.1C17.5 15.8035 17.5008 15.6412 17.5103 15.5246L17.5115 15.5115L17.5246 15.5103C17.6412 15.5008 17.8035 15.5 18.1 15.5H22.5C23.0523 15.5 23.5 15.0523 23.5 14.5C23.5 13.9477 23.0523 13.5 22.5 13.5L18.0681 13.5C17.8157 13.5 17.5699 13.4999 17.3618 13.5169C17.1332 13.5356 16.8634 13.5797 16.592 13.718C16.2157 13.9097 15.9097 14.2157 15.718 14.592C15.5797 14.8634 15.5356 15.1332 15.5169 15.3618C15.4999 15.5699 15.5 15.8157 15.5 16.0681L15.5 20.5Z" fill="#000"/>
</svg>
