<svg width="24" height="24" viewBox="0 0 24 24" fill="none" xmlns="http://www.w3.org/2000/svg">
<path opacity="0.4" d="M12 0.25C5.51065 0.25 0.25 5.51065 0.25 12C0.25 18.4893 5.51065 23.75 12 23.75C18.4893 23.75 23.75 18.4893 23.75 12C23.75 5.51065 18.4893 0.25 12 0.25Z" fill="#000"/>
<path fill-rule="evenodd" clip-rule="evenodd" d="M17.3908 5.9684C17.6946 6.06739 17.9328 6.30559 18.0318 6.60939C18.1124 6.85693 18.0512 7.10319 17.9976 7.27524C17.9407 7.45782 17.8475 7.68399 17.7402 7.94459L15.4483 13.5105C15.2821 13.9145 15.167 14.1942 14.9918 14.4358C14.837 14.6493 14.6493 14.8369 14.4358 14.9918C14.1942 15.167 13.9146 15.282 13.5105 15.4483L7.94486 17.74C7.68425 17.8473 7.45806 17.9404 7.27546 17.9973C7.10341 18.0509 6.85717 18.1122 6.60963 18.0315C6.30584 17.9325 6.06764 17.6943 5.96865 17.3905C5.88799 17.143 5.94922 16.8968 6.00284 16.7247C6.05974 16.5421 6.15289 16.3159 6.26021 16.0553L8.55191 10.4896C8.71812 10.0856 8.83317 9.80596 9.00839 9.56436C9.16324 9.35086 9.35089 9.16321 9.56439 9.00836C9.80599 8.83314 10.0856 8.71808 10.4896 8.55187L16.0555 6.25999C16.3161 6.15266 16.5423 6.05951 16.7249 6.0026C16.897 5.94898 17.1432 5.88774 17.3908 5.9684ZM12.0001 11.0002C11.4478 11.0002 11.0001 11.4479 11.0001 12.0002C11.0001 12.5524 11.4478 13.0002 12.0001 13.0002C12.5524 13.0002 13.0002 12.5524 13.0002 12.0002C13.0002 11.4479 12.5524 11.0002 12.0001 11.0002Z" fill="#000"/>
</svg>
