<svg width="24" height="24" viewBox="0 0 24 24" fill="none" xmlns="http://www.w3.org/2000/svg">
<path opacity="0.4" d="M17.7321 3.25H6.2679C5.45506 3.24999 4.79944 3.24999 4.26853 3.29336C3.7219 3.33803 3.24175 3.43239 2.79754 3.65873C2.09193 4.01825 1.51825 4.59193 1.15873 5.29754C0.932386 5.74175 0.838026 6.2219 0.793364 6.76853C0.749987 7.29944 0.749993 7.95505 0.75 8.76788V15.2321C0.749993 16.0449 0.749987 16.7006 0.793364 17.2315C0.838026 17.7781 0.932386 18.2582 1.15873 18.7025C1.51825 19.4081 2.09193 19.9818 2.79754 20.3413C3.24175 20.5676 3.7219 20.662 4.26853 20.7066C4.79944 20.75 5.45505 20.75 6.26788 20.75H17.7321C18.545 20.75 19.2006 20.75 19.7315 20.7066C20.2781 20.662 20.7582 20.5676 21.2025 20.3413C21.9081 19.9818 22.4817 19.4081 22.8413 18.7025C23.0676 18.2582 23.162 17.7781 23.2066 17.2315C23.25 16.7006 23.25 16.045 23.25 15.2321V8.76788C23.25 7.95505 23.25 7.29944 23.2066 6.76853C23.162 6.2219 23.0676 5.74175 22.8413 5.29754C22.4817 4.59193 21.9081 4.01825 21.2025 3.65873C20.7582 3.43239 20.2781 3.33803 19.7315 3.29336C19.2006 3.24999 18.5449 3.24999 17.7321 3.25Z" fill="#000"/>
<path d="M17.7812 3.25H6.21881C5.42878 3.24999 4.79153 3.24999 4.27504 3.29103C3.74338 3.33328 3.27582 3.4225 2.84142 3.63673C2.10105 4.00184 1.50184 4.60105 1.13673 5.34142C0.922504 5.77582 0.833278 6.24338 0.79103 6.77504C0.749988 7.29153 0.749993 7.92877 0.75 8.7188V9.5H23.25V8.71883C23.25 7.92878 23.25 7.29154 23.209 6.77504C23.1667 6.24338 23.0775 5.77582 22.8633 5.34142C22.4982 4.60105 21.899 4.00184 21.1586 3.63673C20.7242 3.4225 20.2566 3.33328 19.725 3.29103C19.2085 3.24999 18.5712 3.24999 17.7812 3.25Z" fill="#000"/>
<path d="M9.5 14.75C9.91421 14.75 10.25 15.0858 10.25 15.5C10.25 15.9142 9.91421 16.25 9.5 16.25H5C4.58579 16.25 4.25 15.9142 4.25 15.5C4.25 15.0858 4.58579 14.75 5 14.75H9.5Z" fill="#000"/>
<path d="M14 16.25C14.4142 16.25 14.75 15.9142 14.75 15.5C14.75 15.0858 14.4142 14.75 14 14.75H12.5C12.0858 14.75 11.75 15.0858 11.75 15.5C11.75 15.9142 12.0858 16.25 12.5 16.25H14Z" fill="#000"/>
</svg>
