<svg width="24" height="24" viewBox="0 0 24 24" fill="none" xmlns="http://www.w3.org/2000/svg">
<g opacity="0.4">
<path d="M21.2025 3.65873C20.7582 3.43239 20.2781 3.33803 19.7315 3.29336C19.2006 3.24999 18.5449 3.24999 17.7321 3.25H8C7.69665 3.25 7.42318 3.43273 7.30709 3.71299C7.19101 3.99324 7.25517 4.31583 7.46967 4.53033L21.7028 18.7635C21.879 18.9397 22.1312 19.0169 22.3758 18.9695C22.6204 18.9221 22.8255 18.7563 22.9232 18.527C23.1039 18.1026 23.179 17.6416 23.2149 17.122C23.25 16.6124 23.25 15.9892 23.25 15.2263V8.76788C23.25 7.95505 23.25 7.29944 23.2066 6.76853C23.162 6.2219 23.0676 5.74175 22.8413 5.29754C22.4817 4.59193 21.9081 4.01825 21.2025 3.65873Z" fill="#000"/>
<path d="M4.59798 3.53732C4.43422 3.37356 4.204 3.29464 3.97421 3.3235C3.54707 3.37713 3.16079 3.47364 2.79754 3.65873C2.09193 4.01825 1.51825 4.59193 1.15873 5.29754C0.932386 5.74175 0.838026 6.2219 0.793364 6.76853C0.749987 7.29944 0.749993 7.95505 0.75 8.76788V15.2321C0.749993 16.0449 0.749987 16.7006 0.793364 17.2315C0.838026 17.7781 0.932385 18.2582 1.15873 18.7025C1.51825 19.4081 2.09193 19.9818 2.79754 20.3413C3.24175 20.5676 3.7219 20.662 4.26853 20.7066C4.79944 20.75 5.45505 20.75 6.26788 20.75H17.7531C18.7007 20.75 19.4401 20.75 20.0258 20.6765C20.3099 20.6408 20.549 20.4465 20.6418 20.1756C20.7347 19.9047 20.6652 19.6045 20.4627 19.402L4.59798 3.53732Z" fill="#000"/>
</g>
<path d="M2.53033 1.46967C2.23744 1.17678 1.76256 1.17678 1.46967 1.46967C1.17678 1.76256 1.17678 2.23744 1.46967 2.53033L2.66739 3.72805C2.00716 4.09786 1.47278 4.65972 1.13673 5.34117C0.922503 5.77558 0.833278 6.24313 0.79103 6.7748C0.753842 7.24278 0.750354 7.8099 0.750032 8.5L0.75 9.5L8.4391 9.49976L13.6893 14.75H12.5C12.0858 14.75 11.75 15.0858 11.75 15.5C11.75 15.9142 12.0858 16.25 12.5 16.25H14C14.3216 16.25 14.5959 16.0476 14.7025 15.7632L21.4697 22.5303C21.7626 22.8232 22.2374 22.8232 22.5303 22.5303C22.8232 22.2374 22.8232 21.7626 22.5303 21.4697L9.29162 8.23096C9.2879 8.22708 9.28414 8.22324 9.28033 8.21943L4.59605 3.53514C4.59225 3.53134 4.58841 3.52758 4.58453 3.52387L2.53033 1.46967Z" fill="#000"/>
<path d="M21.1586 3.63648C20.7242 3.42226 20.2566 3.33303 19.725 3.29079C19.2085 3.24974 18.5712 3.24975 17.7812 3.24976L8 3.24976C7.69665 3.24976 7.42318 3.43249 7.30709 3.71274C7.19101 3.993 7.25517 4.31559 7.46967 4.53009L12.2197 9.28009C12.3603 9.42074 12.5511 9.49976 12.75 9.49976L23.25 9.5V8.5C23.2497 7.8099 23.2462 7.24279 23.209 6.7748C23.1667 6.24313 23.0775 5.77558 22.8633 5.34117C22.4982 4.6008 21.899 4.00159 21.1586 3.63648Z" fill="#000"/>
<path d="M4.25 15.5C4.25 15.0858 4.58579 14.75 5 14.75H9.5C9.91421 14.75 10.25 15.0858 10.25 15.5C10.25 15.9142 9.91421 16.25 9.5 16.25H5C4.58579 16.25 4.25 15.9142 4.25 15.5Z" fill="#000"/>
</svg>
