<svg width="24" height="24" viewBox="0 0 24 24" fill="none" xmlns="http://www.w3.org/2000/svg">
<path opacity="0.4" d="M12.416 5.72265C12.3233 5.58355 12.1672 5.5 12 5.5C11.8328 5.5 11.6767 5.58355 11.584 5.72265L8.11291 10.9293C7.96486 11.1514 7.66849 11.218 7.43963 11.0807L3.25726 8.57125C3.09006 8.47093 2.8798 8.47696 2.71862 8.5867C2.55744 8.69644 2.47476 8.88986 2.50682 9.0822L4.08902 18.5754C4.3703 20.2631 5.83046 21.5 7.5414 21.5H16.4586C18.1696 21.5 19.6297 20.2631 19.911 18.5754L21.4932 9.0822C21.5253 8.88986 21.4426 8.69644 21.2814 8.5867C21.1202 8.47696 20.91 8.47093 20.7428 8.57125L16.5604 11.0807C16.3315 11.218 16.0352 11.1513 15.8871 10.9293L12.416 5.72265Z" fill="#000"/>
<path d="M10 4.5C10 3.39543 10.8954 2.5 12 2.5C13.1046 2.5 14 3.39543 14 4.5C14 5.60457 13.1046 6.5 12 6.5C10.8954 6.5 10 5.60457 10 4.5Z" fill="#000"/>
<path d="M0.5 7.5C0.5 6.39543 1.39543 5.5 2.5 5.5C3.60457 5.5 4.5 6.39543 4.5 7.5C4.5 8.60457 3.60457 9.5 2.5 9.5C1.39543 9.5 0.5 8.60457 0.5 7.5Z" fill="#000"/>
<path d="M19.5 7.5C19.5 6.39543 20.3954 5.5 21.5 5.5C22.6046 5.5 23.5 6.39543 23.5 7.5C23.5 8.60457 22.6046 9.5 21.5 9.5C20.3954 9.5 19.5 8.60457 19.5 7.5Z" fill="#000"/>
<path d="M3.61816 15.75H20.382L20.132 17.25H3.86816L3.61816 15.75Z" fill="#000"/>
</svg>
