<svg width="24" height="24" viewBox="0 0 24 24" fill="none" xmlns="http://www.w3.org/2000/svg">
<g opacity="0.4">
<path d="M3.25012 9.37549C3.87919 10.0006 4.62806 10.4866 5.33699 10.8411C7.1585 11.7518 9.51741 12.2502 12.0001 12.2502C14.4827 12.2502 16.8416 11.7518 18.6632 10.8411C19.3719 10.4867 20.1205 10.0008 20.7495 9.37602L20.7497 12.051C20.723 13.5681 19.503 14.7441 17.9924 15.4994C16.4201 16.2856 14.3004 16.7502 12.0001 16.7502C9.6998 16.7502 7.58016 16.2856 6.00786 15.4994C4.48041 14.7357 3.25012 13.5419 3.25012 12.0002V9.37549Z" fill="#000"/>
<path d="M3.25002 17.5001L3.25 15.3753C3.8791 16.0005 4.62805 16.4866 5.33704 16.8411C7.15855 17.7518 9.51747 18.2502 12.0001 18.2502C14.4828 18.2502 16.8417 17.7518 18.6632 16.8411C19.3721 16.4866 20.1209 16.0007 20.7499 15.3757L20.75 17.5002C20.75 19.1408 19.5814 20.4676 18.0238 21.3417C16.4439 22.2284 14.3124 22.7502 11.9998 22.7502C9.68725 22.7502 7.55577 22.2284 5.97592 21.3417C4.4184 20.4676 3.24989 19.1407 3.25002 17.5001Z" fill="#000"/>
</g>
<path d="M20.75 6C20.75 4.45831 19.5197 3.26447 17.9923 2.50075C16.42 1.7146 14.3003 1.25 12 1.25C9.69967 1.25 7.58004 1.7146 6.00774 2.50075C4.48029 3.26447 3.25 4.45831 3.25 6C3.25 7.54169 4.48029 8.73553 6.00774 9.49925C7.58004 10.2854 9.69967 10.75 12 10.75C14.3003 10.75 16.42 10.2854 17.9923 9.49925C19.5197 8.73553 20.75 7.54169 20.75 6Z" fill="#000"/>
</svg>
