<svg width="24" height="24" viewBox="0 0 24 24" fill="none" xmlns="http://www.w3.org/2000/svg">
<path opacity="0.4" d="M16.9326 1.25H7.06739C6.11495 1.24999 5.35439 1.24999 4.74013 1.30018C4.11012 1.35165 3.56824 1.45963 3.07054 1.71322C2.27085 2.12068 1.62068 2.77085 1.21322 3.57054C0.959634 4.06824 0.85165 4.61012 0.800176 5.24013C0.749989 5.85439 0.749994 6.61494 0.75 7.56738V12.4326C0.749994 13.3851 0.749989 14.1456 0.800176 14.7599C0.85165 15.3899 0.959634 15.9318 1.21322 16.4295C1.62068 17.2291 2.27085 17.8793 3.07054 18.2868C3.56824 18.5404 4.11012 18.6483 4.74013 18.6998C5.35438 18.75 6.1149 18.75 7.0673 18.75H16.9326C17.885 18.75 18.6456 18.75 19.2599 18.6998C19.8899 18.6483 20.4318 18.5404 20.9295 18.2868C21.7291 17.8793 22.3793 17.2291 22.7868 16.4295C23.0404 15.9318 23.1483 15.3899 23.1998 14.7599C23.25 14.1456 23.25 13.3851 23.25 12.4327V7.56737C23.25 6.61496 23.25 5.85438 23.1998 5.24013C23.1483 4.61012 23.0404 4.06824 22.7868 3.57054C22.3793 2.77085 21.7291 2.12068 20.9295 1.71322C20.4318 1.45963 19.8899 1.35165 19.2599 1.30018C18.6456 1.24999 17.8851 1.24999 16.9326 1.25Z" fill="#000"/>
<path d="M23.25 12.75H0.75V14.5C0.75 16.8472 2.65279 18.75 5 18.75H9.25V20C9.25 20.6904 8.69036 21.25 8 21.25H7.5C7.08579 21.25 6.75 21.5858 6.75 22C6.75 22.4142 7.08579 22.75 7.5 22.75H16.5C16.9142 22.75 17.25 22.4142 17.25 22C17.25 21.5858 16.9142 21.25 16.5 21.25H16C15.3096 21.25 14.75 20.6904 14.75 20V18.75H19C21.3472 18.75 23.25 16.8472 23.25 14.5V12.75Z" fill="#000"/>
</svg>
