<svg width="24" height="24" viewBox="0 0 24 24" fill="none" xmlns="http://www.w3.org/2000/svg">
<g opacity="0.4">
<path d="M5.62891 15.2498H4.37109C3.97573 15.2498 3.63466 15.2498 3.35373 15.2727C3.05722 15.297 2.76231 15.3505 2.47852 15.4951C2.05516 15.7108 1.71095 16.055 1.49524 16.4783C1.35064 16.7621 1.29715 17.057 1.27293 17.3535C1.24998 17.6345 1.24999 17.9755 1.25 18.3709V19.6287C1.24999 20.0241 1.24998 20.3652 1.27293 20.6461C1.29715 20.9426 1.35064 21.2375 1.49524 21.5213C1.71095 21.9447 2.05516 22.2889 2.47852 22.5046C2.76231 22.6492 3.05722 22.7027 3.35373 22.7269C3.63466 22.7498 3.97574 22.7498 4.3711 22.7498H5.6289C6.02427 22.7498 6.36534 22.7498 6.64627 22.7269C6.94278 22.7027 7.2377 22.6492 7.52148 22.5046C7.94485 22.2889 8.28905 21.9447 8.50477 21.5213C8.64936 21.2375 8.70285 20.9426 8.72707 20.6461C8.75003 20.3652 8.75002 20.0241 8.75 19.6287V18.3709C8.75002 17.9756 8.75003 17.6345 8.72707 17.3535C8.70285 17.057 8.64936 16.7621 8.50477 16.4783C8.28905 16.055 7.94485 15.7108 7.52148 15.4951C7.2377 15.3505 6.94278 15.297 6.64627 15.2727C6.36534 15.2498 6.02427 15.2498 5.62891 15.2498Z" fill="#000"/>
<path d="M12.6289 1.24982H11.3711C10.9757 1.2498 10.6347 1.24979 10.3537 1.27275C10.0572 1.29697 9.76231 1.35046 9.47852 1.49505C9.05516 1.71077 8.71095 2.05498 8.49524 2.47834C8.35064 2.76213 8.29715 3.05704 8.27293 3.35355C8.24998 3.63448 8.24999 3.97555 8.25 4.37091V5.62873C8.24999 6.02409 8.24998 6.36516 8.27293 6.64609C8.29715 6.9426 8.35064 7.23751 8.49524 7.5213C8.71095 7.94466 9.05516 8.28887 9.47852 8.50458C9.76231 8.64918 10.0572 8.70267 10.3537 8.72689C10.6347 8.74984 10.9757 8.74983 11.3711 8.74982H12.6289C13.0243 8.74983 13.3653 8.74984 13.6463 8.72689C13.9428 8.70267 14.2377 8.64918 14.5215 8.50458C14.9448 8.28887 15.2891 7.94466 15.5048 7.5213C15.6494 7.23751 15.7028 6.9426 15.7271 6.64609C15.75 6.36516 15.75 6.02408 15.75 5.62872V4.37092C15.75 3.97555 15.75 3.63448 15.7271 3.35355C15.7028 3.05704 15.6494 2.76213 15.5048 2.47834C15.2891 2.05498 14.9448 1.71077 14.5215 1.49505C14.2377 1.35046 13.9428 1.29697 13.6463 1.27275C13.3653 1.24979 13.0243 1.2498 12.6289 1.24982Z" fill="#000"/>
<path d="M19.6289 15.2498H18.3711C17.9757 15.2498 17.6347 15.2498 17.3537 15.2727C17.0572 15.297 16.7623 15.3505 16.4785 15.4951C16.0552 15.7108 15.711 16.055 15.4952 16.4783C15.3506 16.7621 15.2972 17.057 15.2729 17.3535C15.25 17.6345 15.25 17.9755 15.25 18.3709V19.6287C15.25 20.0241 15.25 20.3652 15.2729 20.6461C15.2972 20.9426 15.3506 21.2375 15.4952 21.5213C15.711 21.9447 16.0552 22.2889 16.4785 22.5046C16.7623 22.6492 17.0572 22.7027 17.3537 22.7269C17.6347 22.7498 17.9757 22.7498 18.3711 22.7498H19.6289C20.0243 22.7498 20.3653 22.7498 20.6463 22.7269C20.9428 22.7027 21.2377 22.6492 21.5215 22.5046C21.9448 22.2889 22.2891 21.9447 22.5048 21.5213C22.6494 21.2375 22.7028 20.9426 22.7271 20.6461C22.75 20.3652 22.75 20.0241 22.75 19.6287V18.3709C22.75 17.9756 22.75 17.6345 22.7271 17.3535C22.7028 17.057 22.6494 16.7621 22.5048 16.4783C22.2891 16.055 21.9448 15.7108 21.5215 15.4951C21.2377 15.3505 20.9428 15.297 20.6463 15.2727C20.3653 15.2498 20.0243 15.2498 19.6289 15.2498Z" fill="#000"/>
</g>
<path d="M11.25 8.74994C11.2898 8.74996 11.3301 8.74996 11.3711 8.74996H12.6289C12.6699 8.74996 12.7102 8.74996 12.75 8.74994V11.2498L15.8304 11.2498C16.3646 11.2498 16.8104 11.2498 17.1747 11.2795C17.5546 11.3106 17.9112 11.3777 18.2485 11.5495C18.7659 11.8132 19.1866 12.2339 19.4503 12.7513C19.6221 13.0886 19.6892 13.4452 19.7203 13.8251C19.75 14.1893 19.75 14.6352 19.75 15.1693V15.25C19.7102 15.25 19.6699 15.25 19.629 15.25H18.3711C18.3302 15.25 18.2898 15.25 18.25 15.25V15.1998C18.25 14.6273 18.2494 14.2431 18.2252 13.9473C18.2018 13.6601 18.1599 13.5228 18.1138 13.4323C17.9939 13.1971 17.8027 13.0059 17.5675 12.886C17.4769 12.8399 17.3396 12.798 17.0525 12.7745C16.7566 12.7504 16.3724 12.7498 15.8 12.7498H8.2C7.62757 12.7498 7.24336 12.7504 6.94748 12.7745C6.66036 12.798 6.52307 12.8399 6.43251 12.886C6.19731 13.0059 6.00609 13.1971 5.88624 13.4323C5.8401 13.5228 5.79822 13.6601 5.77476 13.9473C5.75059 14.2431 5.75 14.6273 5.75 15.1998V15.25C5.71024 15.25 5.66989 15.25 5.62896 15.25H4.37109C4.33016 15.25 4.28976 15.25 4.25 15.25V15.1693C4.24999 14.6352 4.24998 14.1893 4.27974 13.8251C4.31078 13.4452 4.37789 13.0886 4.54973 12.7513C4.81339 12.2339 5.23408 11.8132 5.75153 11.5495C6.08879 11.3777 6.44545 11.3106 6.82533 11.2795C7.18956 11.2498 7.6354 11.2498 8.16955 11.2498L11.25 11.2498V8.74994Z" fill="#000"/>
</svg>
