<svg width="24" height="24" viewBox="0 0 24 24" fill="none" xmlns="http://www.w3.org/2000/svg">
<path opacity="0.4" d="M7.78849 4.67537C8.88237 3.88314 10.358 3.5 12.0001 3.5C13.0792 3.5 13.9644 3.61739 14.8688 3.97607C15.7497 4.32549 16.5881 4.88079 17.6038 5.64984C18.0441 5.98324 18.1307 6.61045 17.7973 7.05075C17.4639 7.49105 16.8367 7.57771 16.3964 7.24431C15.412 6.49894 14.7504 6.0807 14.1314 5.83519C13.5357 5.59893 12.9209 5.5 12.0001 5.5C10.6421 5.5 9.61774 5.81999 8.96162 6.29518C8.33546 6.74866 8.00006 7.36862 8.00006 8.16341C8.00006 9.14605 8.47129 9.72776 9.23852 10.1572C10.0689 10.6221 11.1581 10.8459 12.1645 11.0136C13.1581 11.1792 14.5689 11.4429 15.7385 12.0976C16.9713 12.7877 18.0001 13.9576 18.0001 15.8366C18.0001 17.299 17.3355 18.5107 16.2116 19.3247C15.1178 20.1169 13.6421 20.5 12.0001 20.5C10.9209 20.5 10.0357 20.3826 9.13135 20.0239C8.25038 19.6745 7.41201 19.1191 6.39638 18.3501C5.95608 18.0167 5.86942 17.3895 6.20282 16.9492C6.53622 16.5089 7.16343 16.4222 7.60373 16.7556C8.5881 17.501 9.24973 17.9193 9.86877 18.1648C10.4644 18.4011 11.0792 18.5 12.0001 18.5C13.358 18.5 14.3824 18.18 15.0385 17.7049C15.6647 17.2514 16.0001 16.6314 16.0001 15.8366C16.0001 14.854 15.5289 14.2723 14.7616 13.8428C13.9312 13.3779 12.842 13.1541 11.8357 12.9864C10.842 12.8208 9.43119 12.5571 8.2616 11.9024C7.02883 11.2123 6.00006 10.0424 6.00006 8.16341C6.00006 6.70103 6.66465 5.48929 7.78849 4.67537Z" fill="#000"/>
<path d="M13 2C13 1.44772 12.5523 1 12 1C11.4477 1 11 1.44772 11 2V3.54986C11.3249 3.51654 11.6589 3.5 12.0001 3.5C12.3515 3.5 12.6824 3.51245 13 3.54163V2Z" fill="#000"/>
<path d="M11 20.4584C11.3177 20.4876 11.6486 20.5 12.0001 20.5C12.3412 20.5 12.6752 20.4835 13 20.4502V22C13 22.5523 12.5523 23 12 23C11.4477 23 11 22.5523 11 22V20.4584Z" fill="#000"/>
</svg>
