<svg width="24" height="24" viewBox="0 0 24 24" fill="none" xmlns="http://www.w3.org/2000/svg">
<path opacity="0.4" d="M12 2.25C6.06294 2.25 1.25 7.06294 1.25 13C1.25 18.9371 6.06294 23.75 12 23.75C17.9371 23.75 22.75 18.9371 22.75 13C22.75 12.316 22.686 11.6462 22.5635 10.9966C22.5242 10.788 22.3983 10.6058 22.2171 10.4953C22.0359 10.3848 21.8163 10.3562 21.6128 10.4167C21.1026 10.5683 20.5615 10.65 20 10.65C16.8796 10.65 14.35 8.12041 14.35 5C14.35 4.43847 14.4317 3.89735 14.5833 3.38719C14.6438 3.18371 14.6152 2.96414 14.5047 2.78292C14.3942 2.60171 14.212 2.47582 14.0034 2.43648C13.3538 2.31398 12.684 2.25 12 2.25Z" fill="#000"/>
<path d="M11.9999 8.08341C12.4141 8.08341 12.7499 8.41919 12.7499 8.83341V9.18468C12.9409 9.21939 13.1281 9.27155 13.3181 9.3469C13.7288 9.50981 14.1076 9.76403 14.536 10.0884C14.8662 10.3385 14.9312 10.8089 14.6811 11.1391C14.4311 11.4693 13.9607 11.5343 13.6305 11.2843C13.2255 10.9776 12.9793 10.8262 12.765 10.7412C12.5683 10.6632 12.3572 10.6251 11.9999 10.6251C11.4814 10.6251 11.1298 10.7479 10.9294 10.893C10.7514 11.0219 10.6665 11.1816 10.6665 11.4015C10.6665 11.6615 10.77 11.8059 11.0121 11.9414C11.3015 12.1034 11.7017 12.19 12.1232 12.2603C12.5351 12.3289 13.1765 12.4454 13.7204 12.7499C14.3116 13.0808 14.8332 13.6663 14.8332 14.5986C14.8332 15.3192 14.5014 15.9227 13.9502 16.322C13.6071 16.5704 13.1961 16.7293 12.7499 16.8103V17.1667C12.7499 17.5809 12.4141 17.9167 11.9999 17.9167C11.5857 17.9167 11.2499 17.5809 11.2499 17.1667V16.8154C11.0589 16.7807 10.8717 16.7285 10.6817 16.6532C10.271 16.4903 9.89218 16.236 9.46379 15.9117C9.13357 15.6616 9.06857 15.1912 9.31862 14.861C9.56867 14.5308 10.0391 14.4658 10.3693 14.7158C10.7742 15.0224 11.0205 15.1739 11.2347 15.2589C11.4315 15.3369 11.6426 15.3751 11.9999 15.3751C12.5184 15.3751 12.87 15.2523 13.0704 15.1071C13.2483 14.9782 13.3332 14.8185 13.3332 14.5986C13.3332 14.3386 13.2298 14.1943 12.9877 14.0587C12.6982 13.8967 12.298 13.8101 11.8766 13.7399C11.4647 13.6712 10.8232 13.5547 10.2794 13.2503C9.68812 12.9193 9.16655 12.3338 9.16655 11.4015C9.16655 10.6809 9.49832 10.0774 10.0495 9.67816C10.3926 9.42967 10.8037 9.27078 11.2499 9.18983V8.83341C11.2499 8.41919 11.5857 8.08341 11.9999 8.08341Z" fill="#000"/>
<path d="M19.4966 8.41998C19.0824 8.41998 18.7466 8.0842 18.7466 7.66998L18.7466 2.81395L17.5269 4.03362C17.234 4.32652 16.7591 4.32652 16.4663 4.03362C16.1734 3.74073 16.1734 3.26586 16.4663 2.97297L18.9663 0.472965C19.2591 0.180073 19.734 0.180073 20.0269 0.472965L22.5269 2.97297C22.8198 3.26586 22.8198 3.74073 22.5269 4.03362C22.234 4.32652 21.7591 4.32652 21.4663 4.03362L20.2466 2.81396L20.2466 7.66998C20.2466 8.0842 19.9108 8.41998 19.4966 8.41998Z" fill="#000"/>
</svg>
