<svg width="24" height="24" viewBox="0 0 24 24" fill="none" xmlns="http://www.w3.org/2000/svg">
<path opacity="0.4" d="M12 2.25C6.06294 2.25 1.25 7.06294 1.25 13C1.25 18.9371 6.06294 23.75 12 23.75C17.9371 23.75 22.75 18.9371 22.75 13C22.75 12.316 22.686 11.6462 22.5635 10.9966C22.5242 10.788 22.3983 10.6058 22.2171 10.4953C22.0359 10.3848 21.8163 10.3562 21.6128 10.4167C21.1026 10.5683 20.5615 10.65 20 10.65C16.8796 10.65 14.35 8.12041 14.35 5C14.35 4.43847 14.4317 3.89735 14.5833 3.38719C14.6438 3.18371 14.6152 2.96414 14.5047 2.78292C14.3942 2.60171 14.212 2.47582 14.0034 2.43648C13.3538 2.31398 12.684 2.25 12 2.25Z" fill="#000"/>
<path d="M19.4966 0.253174C19.9108 0.253174 20.2466 0.58896 20.2466 1.00317V5.8592L21.4663 4.63953C21.7591 4.34664 22.234 4.34664 22.5269 4.63953C22.8198 4.93242 22.8198 5.4073 22.5269 5.70019L20.0269 8.20019C19.734 8.49308 19.2591 8.49308 18.9663 8.20019L16.4663 5.70019C16.1734 5.4073 16.1734 4.93242 16.4663 4.63953C16.7591 4.34664 17.234 4.34664 17.5269 4.63953L18.7466 5.8592V1.00317C18.7466 0.58896 19.0824 0.253174 19.4966 0.253174Z" fill="#000"/>
<path d="M11.9999 8.08328C12.4141 8.08328 12.7499 8.41907 12.7499 8.83329V9.18456C12.9409 9.21927 13.1281 9.27143 13.3181 9.34678C13.7288 9.50969 14.1076 9.76391 14.536 10.0883C14.8662 10.3383 14.9312 10.8087 14.6811 11.139C14.4311 11.4692 13.9607 11.5342 13.6305 11.2841C13.2255 10.9775 12.9793 10.8261 12.765 10.7411C12.5683 10.6631 12.3572 10.6249 11.9999 10.6249C11.4814 10.6249 11.1298 10.7477 10.9294 10.8929C10.7514 11.0218 10.6665 11.1815 10.6665 11.4014C10.6665 11.6614 10.77 11.8057 11.0121 11.9412C11.3015 12.1033 11.7017 12.1899 12.1232 12.2601C12.5351 12.3288 13.1765 12.4453 13.7204 12.7497C14.3116 13.0807 14.8332 13.6662 14.8332 14.5985C14.8332 15.3191 14.5014 15.9226 13.9502 16.3218C13.6071 16.5703 13.1961 16.7292 12.7499 16.8102V17.1666C12.7499 17.5808 12.4141 17.9166 11.9999 17.9166C11.5857 17.9166 11.2499 17.5808 11.2499 17.1666V16.8153C11.0589 16.7806 10.8717 16.7284 10.6817 16.6531C10.271 16.4901 9.89218 16.2359 9.46379 15.9115C9.13357 15.6615 9.06857 15.1911 9.31862 14.8609C9.56867 14.5306 10.0391 14.4656 10.3693 14.7157C10.7742 15.0223 11.0205 15.1738 11.2347 15.2587C11.4315 15.3368 11.6426 15.3749 11.9999 15.3749C12.5184 15.3749 12.87 15.2521 13.0704 15.107C13.2483 14.9781 13.3332 14.8184 13.3332 14.5985C13.3332 14.3385 13.2298 14.1941 12.9877 14.0586C12.6982 13.8966 12.298 13.81 11.8766 13.7397C11.4647 13.6711 10.8232 13.5546 10.2794 13.2501C9.68812 12.9192 9.16655 12.3337 9.16655 11.4014C9.16655 10.6808 9.49832 10.0772 10.0495 9.67804C10.3926 9.42955 10.8037 9.27066 11.2499 9.18971V8.83329C11.2499 8.41907 11.5857 8.08328 11.9999 8.08328Z" fill="#000"/>
</svg>
