<svg width="24" height="24" viewBox="0 0 24 24" fill="none" xmlns="http://www.w3.org/2000/svg">
<g opacity="0.4">
<path d="M12.0002 3C7.64721 3 4.01403 6.09132 3.18022 10.1989C3.07036 10.7402 2.54253 11.0899 2.00128 10.98C1.46003 10.8701 1.11033 10.3423 1.2202 9.80107C2.23948 4.77972 6.67731 1 12.0002 1C15.9037 1 19.3309 3.03271 21.2833 6.09669L21.5155 4.82091C21.6144 4.27756 22.1351 3.91726 22.6784 4.01617C23.2218 4.11508 23.5821 4.63574 23.4832 5.17909L22.6823 9.57854C22.6497 9.99268 22.3592 10.3591 21.9344 10.4684C21.8431 10.4919 21.7515 10.502 21.6617 10.5C21.6087 10.4989 21.555 10.4936 21.5011 10.4838C21.0716 10.4057 20.7565 10.064 20.6921 9.65592C19.6609 5.82141 16.1588 3 12.0002 3Z" fill="#000"/>
<path d="M21.9991 13.02C22.5403 13.1299 22.89 13.6577 22.7801 14.1989C21.7609 19.2203 17.323 23 12.0002 23C8.09637 23 4.66887 20.967 2.71662 17.9026L2.48397 19.1793C2.38497 19.7226 1.86424 20.0828 1.3209 19.9838C0.777566 19.8848 0.417366 19.3641 0.516374 18.8207L1.31805 14.4213C1.3507 14.0072 1.6412 13.6409 2.06596 13.5316C2.15731 13.5081 2.24896 13.4979 2.33883 13.5C2.39189 13.5011 2.44555 13.5064 2.49944 13.5162C2.92883 13.5944 3.24385 13.9361 3.30822 14.3441C4.33948 18.1786 7.84158 21 12.0002 21C16.3531 21 19.9863 17.9087 20.8201 13.8011C20.93 13.2598 21.4578 12.9101 21.9991 13.02Z" fill="#000"/>
</g>
<path d="M12.75 7C12.75 6.58579 12.4143 6.25 12 6.25C11.5858 6.25 11.25 6.58579 11.25 7V7.55475C10.6846 7.64081 10.1689 7.83007 9.74762 8.13519C9.12349 8.58721 8.75004 9.26705 8.75004 10.0817C8.75004 11.1332 9.33412 11.7917 10.0087 12.1693C10.6359 12.5204 11.3815 12.6572 11.8767 12.7398C12.3815 12.8239 12.8859 12.9308 13.2587 13.1395C13.5841 13.3217 13.75 13.539 13.75 13.9183C13.75 14.2322 13.6235 14.4682 13.3726 14.6499C13.0993 14.8479 12.6435 15 12 15C11.5594 15 11.2858 14.9528 11.0266 14.85C10.7498 14.7402 10.4411 14.5482 9.9528 14.1785C9.62257 13.9284 9.15217 13.9934 8.90212 14.3236C8.65207 14.6539 8.71706 15.1243 9.04729 15.3743C9.55901 15.7618 10.0003 16.0566 10.4735 16.2443C10.7316 16.3467 10.9857 16.4121 11.25 16.4511V17C11.25 17.4142 11.5858 17.75 12 17.75C12.4143 17.75 12.75 17.4142 12.75 17V16.4452C13.3154 16.3592 13.8312 16.1699 14.2525 15.8648C14.8766 15.4128 15.25 14.7329 15.25 13.9183C15.25 12.8667 14.666 12.2083 13.9914 11.8306C13.3642 11.4795 12.6186 11.3427 12.1233 11.2602C11.6186 11.1761 11.1142 11.0691 10.7414 10.8604C10.416 10.6783 10.25 10.461 10.25 10.0817C10.25 9.76774 10.3766 9.53173 10.6275 9.35005C10.9008 9.15208 11.3566 8.99998 12 8.99998C12.4407 8.99998 12.7143 9.04714 12.9735 9.14996C13.2503 9.25974 13.559 9.45172 14.0473 9.82145C14.3775 10.0715 14.8479 10.0065 15.098 9.67627C15.348 9.34605 15.283 8.87564 14.9528 8.62559C14.4411 8.23811 13.9998 7.94332 13.5266 7.75563C13.2685 7.65327 13.0143 7.58786 12.75 7.54886V7Z" fill="#000"/>
</svg>
