<svg width="24" height="24" viewBox="0 0 24 24" fill="none" xmlns="http://www.w3.org/2000/svg">
<path opacity="0.4" d="M12 2.25C6.06294 2.25 1.25 7.06294 1.25 13C1.25 18.9371 6.06294 23.75 12 23.75C17.9371 23.75 22.75 18.9371 22.75 13C22.75 12.316 22.686 11.6462 22.5635 10.9966C22.5242 10.788 22.3983 10.6058 22.2171 10.4953C22.0359 10.3848 21.8163 10.3562 21.6128 10.4167C21.1026 10.5683 20.5615 10.65 20 10.65C16.8796 10.65 14.35 8.12041 14.35 5C14.35 4.43847 14.4317 3.89735 14.5833 3.38719C14.6438 3.18371 14.6152 2.96414 14.5047 2.78292C14.3942 2.60171 14.212 2.47582 14.0034 2.43648C13.3538 2.31398 12.684 2.25 12 2.25Z" fill="#000"/>
<path d="M12.0001 8.08328C12.4143 8.08328 12.7501 8.41907 12.7501 8.83328V9.18456C12.9411 9.21927 13.1283 9.27143 13.3183 9.34678C13.729 9.50969 14.1078 9.76391 14.5362 10.0883C14.8664 10.3383 14.9314 10.8087 14.6814 11.139C14.4313 11.4692 13.9609 11.5342 13.6307 11.2841C13.2258 10.9775 12.9795 10.8261 12.7653 10.7411C12.5685 10.6631 12.3574 10.6249 12.0001 10.6249C11.4816 10.6249 11.1301 10.7477 10.9296 10.8929C10.7517 11.0218 10.6668 11.1815 10.6668 11.4014C10.6668 11.6614 10.7702 11.8057 11.0123 11.9412C11.3018 12.1033 11.702 12.1899 12.1234 12.2601C12.5353 12.3288 13.1768 12.4453 13.7206 12.7497C14.3119 13.0807 14.8335 13.6662 14.8335 14.5985C14.8335 15.3191 14.5017 15.9226 13.9505 16.3218C13.6074 16.5703 13.1963 16.7292 12.7501 16.8102V17.1666C12.7501 17.5808 12.4143 17.9166 12.0001 17.9166C11.5859 17.9166 11.2501 17.5808 11.2501 17.1666V16.8153C11.0591 16.7806 10.8719 16.7284 10.6819 16.6531C10.2712 16.4901 9.89242 16.2359 9.46403 15.9115C9.13381 15.6615 9.06882 15.1911 9.31886 14.8609C9.56891 14.5306 10.0393 14.4656 10.3695 14.7157C10.7745 15.0223 11.0207 15.1738 11.235 15.2587C11.4317 15.3368 11.6428 15.3749 12.0001 15.3749C12.5186 15.3749 12.8702 15.2521 13.0706 15.107C13.2486 14.9781 13.3335 14.8184 13.3335 14.5985C13.3335 14.3385 13.23 14.1941 12.988 14.0586C12.6985 13.8966 12.2983 13.81 11.8768 13.7397C11.4649 13.6711 10.8235 13.5546 10.2796 13.2501C9.68837 12.9192 9.16679 12.3337 9.16679 11.4014C9.16679 10.6808 9.49857 10.0772 10.0498 9.67804C10.3929 9.42955 10.8039 9.27066 11.2501 9.18971V8.83328C11.2501 8.41907 11.5859 8.08328 12.0001 8.08328Z" fill="#000"/>
<path d="M19.4968 8.41986C19.0826 8.41986 18.7468 8.08407 18.7468 7.66986L18.7468 2.81383L17.5272 4.0335C17.2343 4.3264 16.7594 4.3264 16.4665 4.0335C16.1736 3.74061 16.1736 3.26574 16.4665 2.97284L18.9665 0.472843C19.2594 0.179951 19.7343 0.179951 20.0272 0.472843L22.5272 2.97284C22.8201 3.26574 22.8201 3.74061 22.5272 4.0335C22.2343 4.3264 21.7594 4.3264 21.4665 4.0335L20.2468 2.81383L20.2468 7.66986C20.2468 8.08407 19.911 8.41986 19.4968 8.41986Z" fill="#000"/>
</svg>
