<svg width="24" height="24" viewBox="0 0 24 24" fill="none" xmlns="http://www.w3.org/2000/svg">
<path opacity="0.4" d="M20.9624 19.089C20.9992 18.6389 21 18.0566 21 17.2V14C21 13.4477 21.4477 13 22 13C22.5523 13 23 13.4477 23 14V17.2413C23 18.0463 23 18.7106 22.9558 19.2518C22.9099 19.8139 22.8113 20.3306 22.564 20.816C22.1805 21.5686 21.5686 22.1805 20.816 22.564C20.3306 22.8113 19.8139 22.9099 19.2518 22.9558C18.7106 23 18.0463 23 17.2413 23L6.75868 23C5.95372 23 5.28936 23 4.74817 22.9558C4.18608 22.9099 3.66937 22.8113 3.18404 22.564C2.43139 22.1805 1.81947 21.5686 1.43597 20.816C1.18868 20.3306 1.09012 19.8139 1.04419 19.2518C0.999978 18.7106 0.999987 18.0463 1 17.2413L1 14C1 13.4477 1.44772 13 2 13C2.55228 13 3 13.4477 3 14V17.2C3 18.0566 3.00078 18.6389 3.03755 19.089C3.07337 19.5274 3.1383 19.7516 3.21799 19.908C3.40973 20.2843 3.71569 20.5903 4.09202 20.782C4.24842 20.8617 4.47262 20.9266 4.91104 20.9624C5.36113 20.9992 5.94342 21 6.8 21L17.2 21C18.0566 21 18.6389 20.9992 19.089 20.9624C19.5274 20.9266 19.7516 20.8617 19.908 20.782C20.2843 20.5903 20.5903 20.2843 20.782 19.908C20.8617 19.7516 20.9266 19.5274 20.9624 19.089Z" fill="#000"/>
<path d="M11 12.5858L11 2C11 1.44771 11.4477 1 12 1C12.5523 1 13 1.44771 13 2L13 12.5858L16.2929 9.29289C16.6834 8.90237 17.3166 8.90237 17.7071 9.29289C18.0976 9.68342 18.0976 10.3166 17.7071 10.7071L12.7071 15.7071C12.5196 15.8946 12.2652 16 12 16C11.7348 16 11.4804 15.8946 11.2929 15.7071L6.29289 10.7071C5.90237 10.3166 5.90237 9.68342 6.29289 9.29289C6.68342 8.90237 7.31658 8.90237 7.70711 9.29289L11 12.5858Z" fill="#000"/>
</svg>
