<svg width="24" height="24" viewBox="0 0 24 24" fill="none" xmlns="http://www.w3.org/2000/svg">
<g opacity="0.4">
<path d="M9.5 12.75V11.25H14.5V12.75H9.5Z" fill="#000"/>
<path d="M1.5 8.5C1.5 7.67157 2.17157 7 3 7H4.25C4.38807 7 4.5 7.11193 4.5 7.25V16.75C4.5 16.8881 4.38807 17 4.25 17H3C2.17157 17 1.5 16.3284 1.5 15.5V12.75H1C0.585786 12.75 0.25 12.4142 0.25 12C0.25 11.5858 0.585786 11.25 1 11.25H1.5V8.5Z" fill="#000"/>
<path d="M21 7C21.8284 7 22.5 7.67157 22.5 8.5V11.25H23C23.4142 11.25 23.75 11.5858 23.75 12C23.75 12.4142 23.4142 12.75 23 12.75H22.5V15.5C22.5 16.3284 21.8284 17 21 17H19.75C19.6119 17 19.5 16.8881 19.5 16.75V7.25C19.5 7.11193 19.6119 7 19.75 7H21Z" fill="#000"/>
</g>
<path d="M6.75 4.5C6.05964 4.5 5.5 5.05964 5.5 5.75V18.25C5.5 18.9404 6.05964 19.5 6.75 19.5H8.25C8.94036 19.5 9.5 18.9404 9.5 18.25V5.75C9.5 5.05964 8.94036 4.5 8.25 4.5H6.75Z" fill="#000"/>
<path d="M15.75 4.5C15.0596 4.5 14.5 5.05964 14.5 5.75V18.25C14.5 18.9404 15.0596 19.5 15.75 19.5H17.25C17.9404 19.5 18.5 18.9404 18.5 18.25V5.75C18.5 5.05964 17.9404 4.5 17.25 4.5H15.75Z" fill="#000"/>
</svg>
