<svg width="24" height="24" viewBox="0 0 24 24" fill="none" xmlns="http://www.w3.org/2000/svg">
<path opacity="0.4" d="M18.8721 2.25H9.12891C8.42766 2.24999 7.85597 2.24999 7.39174 2.28791C6.9118 2.32713 6.48106 2.41059 6.07962 2.61513C5.44928 2.9363 4.93679 3.44879 4.61562 4.07913C4.41108 4.48057 4.32762 4.91132 4.2884 5.39125C4.25047 5.85548 4.25048 6.42716 4.25049 7.12842V12.8716C4.25048 13.5728 4.25047 14.1445 4.2884 14.6088C4.32762 15.0887 4.41108 15.5194 4.61562 15.9209C4.93679 16.5512 5.44928 17.0637 6.07962 17.3849C6.48106 17.5894 6.9118 17.6729 7.39174 17.7121C7.85597 17.75 8.42765 17.75 9.1289 17.75H18.8721C19.5733 17.75 20.145 17.75 20.6092 17.7121C21.0892 17.6729 21.5199 17.5894 21.9214 17.3849C22.5517 17.0637 23.0642 16.5512 23.3854 15.9209C23.5899 15.5194 23.6734 15.0887 23.7126 14.6087C23.7505 14.1445 23.7505 13.5728 23.7505 12.8716V7.12841C23.7505 6.42716 23.7505 5.85548 23.7126 5.39125C23.6734 4.91132 23.5899 4.48057 23.3854 4.07913C23.0642 3.44879 22.5517 2.9363 21.9214 2.61513C21.5199 2.41059 21.0892 2.32713 20.6092 2.28791C20.145 2.24999 19.5733 2.24999 18.8721 2.25Z" fill="#000"/>
<path d="M18.8714 2.25H9.12823C8.42698 2.24999 7.85528 2.24999 7.39106 2.28791C6.91112 2.32713 6.48037 2.41059 6.07894 2.61513C5.44859 2.9363 4.93611 3.44879 4.61493 4.07913C4.3354 4.62774 4.27704 5.24654 4.2583 5.98757C4.25221 6.22824 4.36203 6.4572 4.55352 6.6031L12.0905 12.3455L12.1819 12.4153C12.6101 12.7427 12.9857 13.0297 13.4201 13.1455C13.7998 13.2467 14.1992 13.2467 14.5789 13.1455C15.0133 13.0297 15.3889 12.7427 15.8171 12.4153L15.9085 12.3455L23.4461 6.60263C23.6376 6.45672 23.7474 6.22775 23.7413 5.98708C23.7225 5.24628 23.6641 4.62762 23.3847 4.07913C23.0635 3.44879 22.551 2.9363 21.9207 2.61513C21.5192 2.41059 21.0885 2.32713 20.6086 2.28791C20.1443 2.24999 19.5726 2.24999 18.8714 2.25Z" fill="#000"/>
<path d="M1 6.25C1.41421 6.25 1.75 6.58579 1.75 7V14.6C1.75 15.7325 1.75058 16.5367 1.80201 17.1661C1.85271 17.7867 1.94909 18.171 2.10423 18.4755C2.41582 19.087 2.913 19.5842 3.52453 19.8958C3.829 20.0509 4.21325 20.1473 4.83388 20.198C5.46327 20.2494 6.26752 20.25 7.4 20.25H19C19.4142 20.25 19.75 20.5858 19.75 21C19.75 21.4142 19.4142 21.75 19 21.75H7.36698C6.27488 21.75 5.40934 21.75 4.71173 21.693C3.99834 21.6347 3.39472 21.5131 2.84355 21.2323C1.94978 20.7769 1.22312 20.0502 0.767719 19.1565C0.486882 18.6053 0.365274 18.0017 0.306988 17.2883C0.24999 16.5906 0.249995 15.7251 0.25 14.633V7C0.25 6.58579 0.585787 6.25 1 6.25Z" fill="#000"/>
</svg>
