<svg width="24" height="24" viewBox="0 0 24 24" fill="none" xmlns="http://www.w3.org/2000/svg">
<path opacity="0.4" d="M17.7326 3H6.26838C5.45555 2.99999 4.79993 2.99999 4.26902 3.04336C3.72238 3.08803 3.24224 3.18239 2.79802 3.40873C2.09242 3.76825 1.51874 4.34193 1.15921 5.04754C0.932874 5.49175 0.838514 5.9719 0.793852 6.51853C0.750475 7.04944 0.750481 7.70505 0.750488 8.51788V15.4821C0.750481 16.2949 0.750475 16.9506 0.793852 17.4815C0.838514 18.0281 0.932874 18.5082 1.15921 18.9525C1.51874 19.6581 2.09242 20.2317 2.79802 20.5913C3.24224 20.8176 3.72238 20.912 4.26902 20.9566C4.79993 21 5.45553 21 6.26836 21H17.7326C18.5454 21 19.2011 21 19.732 20.9566C20.2786 20.912 20.7587 20.8176 21.203 20.5913C21.9086 20.2317 22.4822 19.6581 22.8418 18.9525C23.0681 18.5082 23.1625 18.0281 23.2071 17.4815C23.2505 16.9506 23.2505 16.295 23.2505 15.4821V8.51788C23.2505 7.70505 23.2505 7.04944 23.2071 6.51853C23.1625 5.9719 23.0681 5.49175 22.8418 5.04754C22.4822 4.34193 21.9086 3.76825 21.203 3.40873C20.7587 3.18239 20.2786 3.08803 19.732 3.04336C19.201 2.99999 18.5454 2.99999 17.7326 3Z" fill="#000"/>
<path d="M17.732 3H6.26783C5.455 2.99999 4.79937 2.99999 4.26847 3.04336C3.72183 3.08803 3.24169 3.18239 2.79747 3.40873C2.09186 3.76825 1.51819 4.34193 1.15866 5.04754C0.844716 5.66369 0.779174 6.36608 0.758751 7.23902C0.753131 7.4792 0.862914 7.70754 1.05401 7.85314L9.71248 14.4502C10.3014 14.8997 10.7626 15.2519 11.2918 15.3929C11.7558 15.5166 12.2441 15.5166 12.7081 15.3929C13.2373 15.2519 13.6985 14.8997 14.2874 14.4502L22.9459 7.85313C23.137 7.70753 23.2467 7.4792 23.2411 7.23902C23.2207 6.36608 23.1552 5.66369 22.8412 5.04754C22.4817 4.34193 21.908 3.76825 21.2024 3.40873C20.7582 3.18239 20.278 3.08803 19.7314 3.04336C19.2005 2.99999 18.5449 2.99999 17.732 3Z" fill="#000"/>
</svg>
