<svg width="24" height="24" viewBox="0 0 24 24" fill="none" xmlns="http://www.w3.org/2000/svg">
<path opacity="0.4" d="M17.2326 2.25H5.76838C4.95555 2.24999 4.29993 2.24999 3.76902 2.29336C3.22238 2.33803 2.74224 2.43239 2.29802 2.65873C1.59242 3.01825 1.01874 3.59193 0.659214 4.29754C0.432874 4.74175 0.338514 5.2219 0.293852 5.76853C0.250475 6.29944 0.250481 6.95505 0.250488 7.76788V14.7321C0.250481 15.5449 0.250475 16.2006 0.293852 16.7315C0.338514 17.2781 0.432874 17.7582 0.659214 18.2025C1.01874 18.9081 1.59242 19.4818 2.29803 19.8413C2.74224 20.0676 3.22238 20.162 3.76902 20.2066C4.29993 20.25 4.95553 20.25 5.76836 20.25H12.8176C13.0254 20.25 13.2239 20.1638 13.3658 20.0119C13.5076 19.86 13.58 19.656 13.5658 19.4487C13.5557 19.3005 13.5505 19.1509 13.5505 19C13.5505 15.4378 16.4383 12.55 20.0005 12.55C20.6234 12.55 21.2245 12.6381 21.7926 12.802C22.019 12.8674 22.263 12.8225 22.4513 12.6808C22.6397 12.5391 22.7505 12.3171 22.7505 12.0814V7.76788C22.7505 6.95505 22.7505 6.29944 22.7071 5.76853C22.6625 5.2219 22.5681 4.74175 22.3418 4.29754C21.9822 3.59193 21.4086 3.01825 20.703 2.65873C20.2587 2.43239 19.7786 2.33803 19.232 2.29336C18.701 2.24999 18.0454 2.24999 17.2326 2.25Z" fill="#000"/>
<path d="M17.2323 2.25L5.76807 2.25C4.95524 2.24999 4.29962 2.24999 3.76871 2.29336C3.22207 2.33803 2.74193 2.43238 2.29771 2.65873C1.59211 3.01825 1.01843 3.59193 0.658904 4.29754C0.34496 4.91369 0.279418 5.61608 0.258995 6.48902C0.253376 6.7292 0.363158 6.95754 0.554258 7.10314L9.21273 13.7002C9.8016 14.1497 10.2629 14.5019 10.7921 14.6429C11.2561 14.7666 11.7443 14.7666 12.2083 14.6429C12.7375 14.5019 13.1988 14.1497 13.7876 13.7002L22.4461 7.10313C22.6372 6.95754 22.747 6.7292 22.7414 6.48902C22.7209 5.61608 22.6554 4.91369 22.3415 4.29754C21.9819 3.59193 21.4082 3.01825 20.7026 2.65873C20.2584 2.43238 19.7783 2.33803 19.2316 2.29336C18.7007 2.24999 18.0451 2.24999 17.2323 2.25Z" fill="#000"/>
<path d="M15.2502 18C15.2502 17.5858 15.586 17.25 16.0002 17.25H21.1895L19.4699 15.5303C19.177 15.2374 19.177 14.7626 19.4699 14.4697C19.7627 14.1768 20.2376 14.1768 20.5305 14.4697L23.5305 17.4697C23.6712 17.6103 23.7502 17.8011 23.7502 18C23.7502 18.1989 23.6712 18.3897 23.5305 18.5303L20.5305 21.5303C20.2376 21.8232 19.7627 21.8232 19.4699 21.5303C19.177 21.2374 19.177 20.7626 19.4699 20.4697L21.1895 18.75H16.0002C15.586 18.75 15.2502 18.4142 15.2502 18Z" fill="#000"/>
</svg>
