<svg width="24" height="24" viewBox="0 0 24 24" fill="none" xmlns="http://www.w3.org/2000/svg">
<path opacity="0.4" d="M12.6758 1.33201C12.2326 1.21974 11.7684 1.21974 11.3252 1.33201C10.8201 1.45996 10.3747 1.77872 9.80664 2.18529L3.15318 6.93783C2.44129 7.44599 1.95934 7.79002 1.60381 8.24306C1.28989 8.64308 1.05512 9.09929 0.91207 9.58724C0.750062 10.1399 0.750243 10.732 0.75051 11.6067L0.750532 16.8324C0.750525 17.715 0.750519 18.4231 0.797301 18.9957C0.845369 19.584 0.946541 20.095 1.18651 20.566C1.57 21.3186 2.18192 21.9305 2.93457 22.314C3.40553 22.554 3.91654 22.6552 4.50486 22.7032C5.07745 22.75 5.78552 22.75 6.66814 22.75H17.3329C18.2155 22.75 18.9236 22.75 19.4962 22.7032C20.0845 22.6552 20.5955 22.554 21.0665 22.314C21.8191 21.9305 22.4311 21.3186 22.8146 20.566C23.0545 20.095 23.1557 19.584 23.2038 18.9957C23.2505 18.4231 23.2505 17.715 23.2505 16.8324L23.2506 11.6067C23.2508 10.732 23.251 10.1399 23.089 9.58724C22.9459 9.09929 22.7112 8.64308 22.3973 8.24306C22.0417 7.79002 21.5598 7.44599 20.8479 6.93783L14.1944 2.18529C13.6263 1.77872 13.1809 1.45996 12.6758 1.33201Z" fill="#000"/>
<path fill-rule="evenodd" clip-rule="evenodd" d="M23.1621 9.89574C23.1423 9.7906 23.1181 9.68826 23.0885 9.58724C22.9455 9.09929 22.7107 8.64308 22.3968 8.24306C22.0412 7.79002 21.5593 7.44599 20.8474 6.93783L14.1939 2.18529C13.6259 1.77872 13.1805 1.45996 12.6753 1.33201C12.2321 1.21974 11.7679 1.21974 11.3247 1.33201C10.8196 1.45996 10.3742 1.77872 9.80615 2.18529L3.15269 6.93783C2.4408 7.44599 1.95886 7.79002 1.60332 8.24306C1.2894 8.64308 1.05463 9.09929 0.911581 9.58724C0.881972 9.68825 0.85778 9.79057 0.838017 9.89569C0.836277 9.90374 0.834666 9.91183 0.833186 9.91996C0.807276 10.0623 0.789431 10.212 0.777143 10.3728C0.749752 10.725 0.749873 11.1226 0.750021 11.6067L0.750042 16.8326C0.750035 17.7152 0.75003 18.4233 0.796812 18.9959C0.84488 19.5842 0.946052 20.0952 1.18602 20.5662C1.56951 21.3188 2.18143 21.9307 2.93408 22.3142C3.40504 22.5542 3.91605 22.6554 4.50437 22.7034C5.07696 22.7502 5.78503 22.7502 6.66765 22.7502H17.3324C18.2151 22.7502 18.9231 22.7502 19.4957 22.7034C20.084 22.6554 20.595 22.5542 21.066 22.3142C21.8187 21.9307 22.4306 21.3188 22.8141 20.5662C22.9946 20.2119 23.0964 19.8353 23.1563 19.4204C23.1711 19.3178 23.1834 19.2127 23.1936 19.1051C23.194 19.101 23.1944 19.097 23.1948 19.0929C23.1978 19.0609 23.2006 19.0285 23.2033 18.9957C23.215 18.8525 23.2237 18.7009 23.2303 18.5402C23.2375 18.3639 23.2421 18.1767 23.245 17.9778C23.2467 17.8594 23.2479 17.7368 23.2486 17.6099C23.25 17.367 23.25 17.1082 23.25 16.8324L23.2501 11.6067C23.2502 11.1546 23.2503 10.7781 23.228 10.4434C23.2158 10.2566 23.1967 10.0838 23.1669 9.91986C23.1654 9.91177 23.1638 9.90373 23.1621 9.89574ZM12.307 2.78608C12.1055 2.73504 11.8945 2.73504 11.6931 2.78608C11.4981 2.83547 11.2968 2.96397 10.576 3.47884L4.11353 8.09489C3.27958 8.69058 2.98926 8.90671 2.78334 9.1691C2.63953 9.35236 2.5223 9.55447 2.43474 9.76944L10.5152 15.926C11.2638 16.4964 11.4741 16.6393 11.6781 16.6936C11.889 16.7498 12.111 16.7498 12.3219 16.6936C12.5259 16.6393 12.7362 16.4964 13.4848 15.926L21.5653 9.76937C21.4778 9.55443 21.3605 9.35233 21.2167 9.1691C21.0108 8.90671 20.7205 8.69058 19.8866 8.09489L13.4241 3.47884C12.7033 2.96397 12.502 2.83547 12.307 2.78608Z" fill="#000"/>
</svg>
