<svg width="24" height="24" viewBox="0 0 24 24" fill="none" xmlns="http://www.w3.org/2000/svg">
<path opacity="0.4" d="M11.1342 2.49125L5.70409 11.7517C5.56367 11.9912 5.49528 12.2593 5.49813 12.5264L11.479 16.1814C11.7991 16.377 12.2018 16.377 12.5219 16.1814L18.4954 12.5309C18.4991 12.2623 18.4307 11.9925 18.2895 11.7517L12.8594 2.49124C12.4731 1.83234 11.5205 1.83235 11.1342 2.49125Z" fill="#000"/>
<path fill-rule="evenodd" clip-rule="evenodd" d="M19.2402 12.3792C19.2199 12.0306 19.1184 11.6851 18.935 11.3723L13.5049 2.11188C12.8288 0.958799 11.1618 0.958804 10.4857 2.11188L5.05565 11.3723C4.62193 12.112 4.64632 13.0339 5.11855 13.7496L10.5346 21.9581C11.2263 23.0064 12.7643 23.0064 13.456 21.9581L18.8721 13.7496C19.1007 13.4031 19.2244 13.0083 19.2419 12.6092C19.2531 12.5335 19.2527 12.4559 19.2402 12.3792ZM12.211 2.87061C12.1144 2.70589 11.8763 2.70589 11.7797 2.87061L6.34961 12.1311C6.34798 12.1338 6.34637 12.1366 6.34478 12.1394L11.8688 15.5388C11.9492 15.5883 12.0505 15.5883 12.1309 15.5388L17.6482 12.1436C17.6459 12.1394 17.6435 12.1352 17.641 12.1311L12.211 2.87061ZM16.5107 14.6048L12.917 16.8163C12.8626 16.8498 12.8068 16.8801 12.7498 16.9071V20.3047L16.5107 14.6048ZM11.2498 16.9071C11.1929 16.8801 11.1371 16.8498 11.0827 16.8163L7.47375 14.5954L11.2498 20.3184V16.9071Z" fill="#000"/>
</svg>
