<svg width="24" height="24" viewBox="0 0 24 24" fill="none" xmlns="http://www.w3.org/2000/svg">
<path opacity="0.4" d="M12 0.25C5.51065 0.25 0.25 5.51065 0.25 12C0.25 18.4893 5.51065 23.75 12 23.75C18.4893 23.75 23.75 18.4893 23.75 12C23.75 5.51065 18.4893 0.25 12 0.25Z" fill="#000"/>
<path d="M15.2938 12.2372L12.2648 13.9889C12.0969 14.0864 11.89 14.0864 11.7221 13.9889L8.69524 12.2372C8.43524 12.0866 8.34749 11.754 8.49915 11.4951L11.526 6.31028C11.7351 5.95278 12.2518 5.9517 12.462 6.31028L15.491 11.4951C15.6427 11.754 15.5527 12.0866 15.2938 12.2372ZM15.2212 13.2176L12.1966 14.9672C12.0709 15.0398 11.916 15.0398 11.7892 14.9672L8.76782 13.2176C8.66815 13.1602 8.55982 13.2761 8.62374 13.3714L11.5444 17.7178C11.7589 18.0374 12.2291 18.0374 12.4436 17.7178L15.3653 13.3704C15.4292 13.275 15.3209 13.1602 15.2212 13.2176Z" fill="#000"/>
</svg>
