<svg width="24" height="24" viewBox="0 0 24 24" fill="none" xmlns="http://www.w3.org/2000/svg">
<path opacity="0.4" d="M11.2394 1.88296C12.995 1.02235 14.941 0.781612 16.8254 1.20145C18.7074 1.62076 20.4174 2.67375 21.7515 4.19873C22.1152 4.61441 22.073 5.24617 21.6573 5.60981C21.2416 5.97344 20.6099 5.93126 20.2462 5.51559C19.1692 4.28438 17.8242 3.47301 16.3905 3.15359C14.9592 2.8347 13.4764 3.01375 12.1198 3.67878C10.76 4.34542 9.57418 5.47844 8.73007 6.96046C7.88563 8.44306 7.42871 10.1966 7.42871 12C7.42871 13.8034 7.88563 15.557 8.73007 17.0396C9.57418 18.5216 10.76 19.6546 12.1198 20.3213C13.4764 20.9863 14.9592 21.1653 16.3905 20.8464C17.8242 20.527 19.1692 19.7157 20.2462 18.4844C20.6099 18.0688 21.2416 18.0266 21.6573 18.3902C22.073 18.7539 22.1152 19.3856 21.7515 19.8013C20.4174 21.3263 18.7074 22.3793 16.8254 22.7986C14.941 23.2184 12.995 22.9777 11.2394 22.1171C9.48722 21.2581 8.01632 19.8275 6.99219 18.0294C5.96839 16.2319 5.42871 14.1349 5.42871 12C5.42871 9.86516 5.96839 7.76813 6.99219 5.97063C8.01632 4.17255 9.48722 2.74197 11.2394 1.88296Z" fill="#000"/>
<path d="M2 9C2 8.44772 2.44772 8 3 8L14.9989 8C15.5512 8 15.9989 8.44772 15.9989 9C15.9989 9.55229 15.5512 10 14.9989 10L3 10C2.44772 10 2 9.55228 2 9Z" fill="#000"/>
<path d="M2 15C2 14.4477 2.44772 14 3 14H14.9989C15.5512 14 15.9989 14.4477 15.9989 15C15.9989 15.5523 15.5512 16 14.9989 16H3C2.44772 16 2 15.5523 2 15Z" fill="#000"/>
</svg>
