<svg width="24" height="24" viewBox="0 0 24 24" fill="none" xmlns="http://www.w3.org/2000/svg">
<path opacity="0.4" d="M12 0.25C5.51065 0.25 0.25 5.51065 0.25 12C0.25 18.4893 5.51065 23.75 12 23.75C18.4893 23.75 23.75 18.4893 23.75 12C23.75 5.51065 18.4893 0.25 12 0.25Z" fill="#000"/>
<path d="M10.5097 6.71701C11.4373 6.26225 12.4682 6.13417 13.4671 6.35671C14.4641 6.57885 15.3648 7.13555 16.0639 7.93476C16.3366 8.24652 16.305 8.72034 15.9933 8.99307C15.6815 9.2658 15.2077 9.23416 14.935 8.9224C14.4285 8.34352 13.8017 7.96804 13.1409 7.82082C12.4819 7.67399 11.7984 7.7558 11.17 8.06387C10.5391 8.37314 9.98182 8.90246 9.58227 9.60397C9.55488 9.65204 9.52835 9.70073 9.50269 9.75001L12.4994 9.75001C12.9137 9.75001 13.2494 10.0858 13.2494 10.5C13.2494 10.9142 12.9137 11.25 12.4994 11.25L9.0201 11.25C8.98324 11.4959 8.96435 11.7468 8.96435 12C8.96435 12.2532 8.98324 12.5041 9.0201 12.75H12.4994C12.9137 12.75 13.2494 13.0858 13.2494 13.5C13.2494 13.9142 12.9137 14.25 12.4994 14.25H9.50269C9.52835 14.2993 9.55488 14.348 9.58227 14.3961C9.98182 15.0976 10.5391 15.6269 11.17 15.9362C11.7984 16.2442 12.4819 16.326 13.1409 16.1792C13.8017 16.032 14.4285 15.6565 14.935 15.0776C15.2077 14.7659 15.6815 14.7342 15.9933 15.007C16.305 15.2797 16.3366 15.7535 16.0639 16.0653C15.3648 16.8645 14.4641 17.4212 13.4671 17.6433C12.4682 17.8658 11.4373 17.7378 10.5097 17.283C9.58451 16.8295 8.81342 16.077 8.27886 15.1384C8.11744 14.855 7.97922 14.5576 7.86491 14.25H6.5C6.08579 14.25 5.75 13.9142 5.75 13.5C5.75 13.0858 6.08579 12.75 6.5 12.75H7.50726C7.47876 12.502 7.46435 12.2514 7.46435 12C7.46435 11.7486 7.47876 11.4981 7.50726 11.25H6.5C6.08579 11.25 5.75 10.9142 5.75 10.5C5.75 10.0858 6.08579 9.75001 6.5 9.75001H7.86491C7.97922 9.44237 8.11744 9.14498 8.27886 8.86159C8.81342 7.92304 9.58451 7.17056 10.5097 6.71701Z" fill="#000"/>
</svg>
