<svg width="24" height="24" viewBox="0 0 24 24" fill="none" xmlns="http://www.w3.org/2000/svg">
<path opacity="0.4" d="M14.821 3.87872C13.5702 1.7071 10.4297 1.70709 9.17887 3.87872L1.68625 16.8869C0.43783 19.0543 2.00966 21.75 4.50734 21.75H19.4926C21.9903 21.75 23.5621 19.0543 22.3137 16.8869L14.821 3.87872Z" fill="#000"/>
<path d="M11.25 8L11.25 14C11.25 14.4142 11.5858 14.75 12 14.75C12.4142 14.75 12.75 14.4142 12.75 14L12.75 8C12.75 7.58579 12.4142 7.25 12 7.25C11.5858 7.25 11.25 7.58579 11.25 8Z" fill="#000"/>
<path d="M12 16.5C11.4477 16.5 11 16.9477 11 17.5C11 18.0523 11.4477 18.5 12 18.5C12.5523 18.5 13.0001 18.0523 13.0001 17.5C13.0001 16.9477 12.5523 16.5 12 16.5Z" fill="#000"/>
</svg>
