<svg width="24" height="24" viewBox="0 0 24 24" fill="none" xmlns="http://www.w3.org/2000/svg">
<g opacity="0.4">
<path d="M22.5426 10.8072C20.2191 4.33758 13.6658 2.01918 8.32822 3.86447C8.08396 3.94891 7.90038 4.15318 7.8424 4.40504C7.78442 4.65691 7.8602 4.92088 8.04295 5.10363L19.5716 16.6323C19.7231 16.7838 19.9321 16.8632 20.146 16.8506C20.3599 16.838 20.5582 16.7345 20.6909 16.5663C21.4509 15.6024 22.0816 14.4766 22.5426 13.1928C22.8191 12.4229 22.8191 11.5772 22.5426 10.8072Z" fill="#000"/>
<path d="M6.46951 5.40887C6.2093 5.14866 5.79874 5.11568 5.50033 5.331C3.74887 6.59479 2.31245 8.42633 1.45739 10.8072C1.18087 11.5772 1.18087 12.4229 1.45739 13.1928C4.21546 20.8726 12.9165 22.6977 18.4997 18.669C18.6779 18.5404 18.7908 18.34 18.8084 18.1209C18.826 17.9018 18.7466 17.686 18.5911 17.5305L6.46951 5.40887Z" fill="#000"/>
</g>
<path fill-rule="evenodd" clip-rule="evenodd" d="M2.53033 1.46967C2.23744 1.17678 1.76256 1.17678 1.46967 1.46967C1.17678 1.76256 1.17678 2.23744 1.46967 2.53033L8.51042 9.57108C8.03096 10.2592 7.75 11.0963 7.75 12C7.75 14.35 9.65003 16.25 12 16.25C12.9037 16.25 13.7408 15.969 14.4289 15.4896L21.4697 22.5303C21.7626 22.8232 22.2374 22.8232 22.5303 22.5303C22.8232 22.2374 22.8232 21.7626 22.5303 21.4697L2.53033 1.46967ZM13.3417 14.4023L9.59767 10.6583C9.37615 11.0549 9.25 11.5124 9.25 12C9.25 13.5215 10.4785 14.75 12 14.75C12.4876 14.75 12.9451 14.6238 13.3417 14.4023Z" fill="#000"/>
<path d="M16.2432 12.2432C16.2477 12.1627 16.25 12.0816 16.25 12C16.25 9.65003 14.35 7.75 12 7.75C11.9184 7.75 11.8373 7.75229 11.7568 7.75682L16.2432 12.2432Z" fill="#000"/>
</svg>
