<svg width="24" height="24" viewBox="0 0 24 24" fill="none" xmlns="http://www.w3.org/2000/svg">
<path opacity="0.4" d="M22.5426 10.8072C18.9239 0.730934 5.07613 0.730935 1.45739 10.8072C1.18087 11.5772 1.18087 12.4228 1.45739 13.1928C5.07613 23.2691 18.9239 23.2691 22.5426 13.1928C22.8191 12.4228 22.8191 11.5772 22.5426 10.8072Z" fill="#000"/>
<path fill-rule="evenodd" clip-rule="evenodd" d="M7.75 12C7.75 9.65003 9.65003 7.75 12 7.75C14.35 7.75 16.25 9.65003 16.25 12C16.25 14.35 14.35 16.25 12 16.25C9.65003 16.25 7.75 14.35 7.75 12ZM12 9.25C10.4785 9.25 9.25 10.4785 9.25 12C9.25 13.5215 10.4785 14.75 12 14.75C13.5215 14.75 14.75 13.5215 14.75 12C14.75 10.4785 13.5215 9.25 12 9.25Z" fill="#000"/>
</svg>
