<svg width="24" height="24" viewBox="0 0 24 24" fill="none" xmlns="http://www.w3.org/2000/svg">
<path opacity="0.4" d="M12 0.25C5.51065 0.25 0.25 5.51065 0.25 12C0.25 18.4893 5.51065 23.75 12 23.75C18.4893 23.75 23.75 18.4893 23.75 12C23.75 5.51065 18.4893 0.25 12 0.25Z" fill="#000"/>
<path d="M9.00003 11.25C9.57522 11.25 9.89406 10.8032 10.0244 10.5425C10.1772 10.237 10.25 9.86733 10.25 9.5C10.25 9.13267 10.1772 8.76304 10.0244 8.45748C9.89406 8.19679 9.57522 7.75 9.00003 7.75C8.42484 7.75 8.106 8.19679 7.97566 8.45748C7.82288 8.76304 7.75003 9.13267 7.75003 9.5C7.75003 9.86733 7.82288 10.237 7.97566 10.5425C8.106 10.8032 8.42484 11.25 9.00003 11.25Z" fill="#000"/>
<path d="M7.54954 14.4004C7.8807 14.1516 8.35086 14.2183 8.59966 14.5495C9.37633 15.5832 10.6103 16.2495 12 16.2495C13.3898 16.2495 14.6238 15.5832 15.4004 14.5495C15.6492 14.2183 16.1194 14.1516 16.4506 14.4004C16.7817 14.6492 16.8485 15.1194 16.5997 15.4505C15.5519 16.8451 13.8815 17.7495 12 17.7495C10.1186 17.7495 8.44822 16.8451 7.40042 15.4505C7.15162 15.1194 7.21838 14.6492 7.54954 14.4004Z" fill="#000"/>
<path d="M15 11.25C15.5752 11.25 15.8941 10.8032 16.0244 10.5425C16.1772 10.237 16.25 9.86733 16.25 9.5C16.25 9.13267 16.1772 8.76304 16.0244 8.45748C15.8941 8.19679 15.5752 7.75 15 7.75C14.4248 7.75 14.106 8.19679 13.9757 8.45748C13.8229 8.76304 13.75 9.13267 13.75 9.5C13.75 9.86733 13.8229 10.237 13.9757 10.5425C14.106 10.8032 14.4248 11.25 15 11.25Z" fill="#000"/>
</svg>
