<svg width="24" height="24" viewBox="0 0 24 24" fill="none" xmlns="http://www.w3.org/2000/svg">
<g clip-path="url(#clip0_9002_7796)">
<path opacity="0.4" d="M12 0.25C5.51065 0.25 0.25 5.51065 0.25 12C0.25 18.4893 5.51065 23.75 12 23.75C18.4893 23.75 23.75 18.4893 23.75 12C23.75 5.51065 18.4893 0.25 12 0.25Z" fill="#000"/>
<path d="M9.00006 11.25C9.57525 11.25 9.89409 10.8032 10.0244 10.5425C10.1772 10.237 10.2501 9.86733 10.2501 9.5C10.2501 9.13267 10.1772 8.76304 10.0244 8.45748C9.89409 8.19679 9.57525 7.75 9.00006 7.75C8.42487 7.75 8.10603 8.19679 7.97569 8.45748C7.82291 8.76304 7.75006 9.13267 7.75006 9.5C7.75006 9.86733 7.82291 10.237 7.97569 10.5425C8.10603 10.8032 8.42487 11.25 9.00006 11.25Z" fill="#000"/>
<path d="M7.54954 17.5991C7.8807 17.8479 8.35086 17.7812 8.59966 17.45C9.37633 16.4163 10.6103 15.75 12 15.75C13.3898 15.75 14.6238 16.4163 15.4004 17.45C15.6492 17.7812 16.1194 17.8479 16.4506 17.5991C16.7817 17.3503 16.8485 16.8802 16.5997 16.549C15.5519 15.1544 13.8815 14.25 12 14.25C10.1186 14.25 8.44822 15.1544 7.40042 16.549C7.15162 16.8802 7.21838 17.3503 7.54954 17.5991Z" fill="#000"/>
<path d="M15.0001 11.25C15.5753 11.25 15.8941 10.8032 16.0244 10.5425C16.1772 10.237 16.2501 9.86733 16.2501 9.5C16.2501 9.13267 16.1772 8.76304 16.0244 8.45748C15.8941 8.19679 15.5753 7.75 15.0001 7.75C14.4249 7.75 14.106 8.19679 13.9757 8.45748C13.8229 8.76304 13.7501 9.13267 13.7501 9.5C13.7501 9.86733 13.8229 10.237 13.9757 10.5425C14.106 10.8032 14.4249 11.25 15.0001 11.25Z" fill="#000"/>
</g>
<defs>
<clipPath id="clip0_9002_7796">
<rect width="24" height="24" fill="white"/>
</clipPath>
</defs>
</svg>
