<svg width="24" height="24" viewBox="0 0 24 24" fill="none" xmlns="http://www.w3.org/2000/svg">
<path opacity="0.4" d="M11.75 1.25H6.36821C5.62513 1.24999 5.02197 1.24999 4.53273 1.28996C4.02778 1.33121 3.57851 1.41876 3.16103 1.63148C2.50247 1.96703 1.96703 2.50247 1.63148 3.16103C1.41876 3.57851 1.33121 4.02778 1.28996 4.53273C1.24999 5.02197 1.24999 5.62512 1.25 6.3682V17.6318C1.24999 18.3749 1.24999 18.978 1.28996 19.4673C1.33121 19.9722 1.41876 20.4215 1.63148 20.839C1.96703 21.4975 2.50247 22.033 3.16103 22.3685C3.57851 22.5812 4.02778 22.6688 4.53273 22.71C5.02195 22.75 5.62507 22.75 6.36811 22.75H7C7.41421 22.75 7.75 22.4142 7.75 22C7.75 21.6951 7.82949 21.3906 7.98839 21.1182L9.36766 18.7538C9.48177 18.5581 9.50138 18.3214 9.421 18.1097C9.34062 17.8979 9.16887 17.7339 8.95368 17.6633C8.25382 17.4336 7.75 16.7746 7.75 16C7.75 15.0335 8.5335 14.25 9.5 14.25H13C13.3125 14.25 13.613 14.3333 13.8747 14.4843C14.107 14.6183 14.3931 14.6182 14.6253 14.4838C14.882 14.3353 15.1799 14.25 15.5 14.25C15.8948 14.25 16.2572 14.3799 16.5496 14.5995C16.8164 14.7999 17.1836 14.7999 17.4504 14.5995C17.6542 14.4464 17.8917 14.3373 18.1492 14.285C18.4988 14.2141 18.75 13.9067 18.75 13.55V8.25C18.75 8.05109 18.671 7.86032 18.5303 7.71967L12.2803 1.46967C12.1397 1.32902 11.9489 1.25 11.75 1.25Z" fill="#000"/>
<path d="M18.5303 7.71962C18.671 7.86027 18.75 8.05103 18.75 8.24995L13.75 8.24994C12.6454 8.24994 11.75 7.35452 11.75 6.24996V1.25C11.9489 1.25 12.1397 1.32902 12.2803 1.46967L18.5303 7.71962Z" fill="#000"/>
<path d="M9.5 15.25C9.08579 15.25 8.75 15.5858 8.75 16C8.75 16.4142 9.08579 16.75 9.5 16.75H11.6942L8.85217 21.6221C8.71685 21.8541 8.71589 22.1407 8.84964 22.3735C8.9834 22.6064 9.23145 22.75 9.5 22.75H13C13.4142 22.75 13.75 22.4142 13.75 22C13.75 21.5858 13.4142 21.25 13 21.25H10.8058L13.6478 16.3779C13.7831 16.1459 13.7841 15.8593 13.6504 15.6265C13.5166 15.3936 13.2685 15.25 13 15.25H9.5Z" fill="#000"/>
<path d="M15.5 15.25C15.9142 15.25 16.25 15.5858 16.25 16V22C16.25 22.4142 15.9142 22.75 15.5 22.75C15.0858 22.75 14.75 22.4142 14.75 22V16C14.75 15.5858 15.0858 15.25 15.5 15.25Z" fill="#000"/>
<path fill-rule="evenodd" clip-rule="evenodd" d="M18.5 15.25C18.0858 15.25 17.75 15.5858 17.75 16V22C17.75 22.4142 18.0858 22.75 18.5 22.75C18.9142 22.75 19.25 22.4142 19.25 22V20.25H20.25C21.6307 20.25 22.75 19.1307 22.75 17.75C22.75 16.3693 21.6307 15.25 20.25 15.25H18.5ZM20.25 18.75H19.25V16.75H20.25C20.8023 16.75 21.25 17.1977 21.25 17.75C21.25 18.3023 20.8023 18.75 20.25 18.75Z" fill="#000"/>
</svg>
