<svg width="24" height="24" viewBox="0 0 24 24" fill="none" xmlns="http://www.w3.org/2000/svg">
<g opacity="0.4">
<path d="M7.56738 1.25C7.54903 1.25 7.53075 1.25 7.51254 1.25H7.56738Z" fill="#000"/>
<path d="M7.25 1.25007C6.44395 1.25064 5.78458 1.25569 5.24013 1.30018C4.61012 1.35165 4.06824 1.45963 3.57054 1.71322C2.77085 2.12068 2.12068 2.77085 1.71322 3.57054C1.45963 4.06824 1.35165 4.61012 1.30017 5.24013C1.26092 5.72062 1.25237 6.29062 1.25051 6.97196C1.25017 6.98126 1.25 6.99061 1.25 7C1.25 7.00812 1.25013 7.01621 1.25039 7.02427C1.25 7.19702 1.25 7.37685 1.25 7.5641V15.99L1.25002 15.995L1.25 16V16.4359C1.25 16.6231 1.25 16.803 1.25039 16.9757C1.25013 16.9838 1.25 16.9919 1.25 17C1.25 17.0094 1.25017 17.0187 1.25051 17.028C1.25237 17.7094 1.26092 18.2794 1.30017 18.7599C1.35165 19.3899 1.45963 19.9318 1.71322 20.4295C2.12068 21.2291 2.77085 21.8793 3.57054 22.2868C4.06824 22.5404 4.61012 22.6483 5.24013 22.6998C5.78458 22.7443 6.44395 22.7494 7.25 22.7499V21.2499C6.4394 21.2492 5.84175 21.244 5.36228 21.2048C4.82503 21.1609 4.50252 21.0782 4.25153 20.9503C3.73408 20.6866 3.31338 20.2659 3.04973 19.7485C2.92184 19.4975 2.83909 19.175 2.79519 18.6377C2.77419 18.3807 2.76295 18.0896 2.75693 17.75H7.25V16.25H2.75V16L2.74998 15.995L2.75 15.99V12.75H7.25V11.25H2.75V7.75H7.25V6.25H2.75693C2.76295 5.91039 2.77419 5.61935 2.79519 5.36228C2.83909 4.82503 2.92184 4.50252 3.04973 4.25153C3.31338 3.73408 3.73408 3.31338 4.25153 3.04973C4.50252 2.92184 4.82503 2.83909 5.36228 2.79519C5.84176 2.75602 6.4394 2.7508 7.25 2.75011V1.25007Z" fill="#000"/>
<path d="M16.75 6.25V7.75H21.25V11.25H16.75V12.75H21.25V16.25H16.75V17.75H21.2431C21.2371 18.0896 21.2258 18.3807 21.2048 18.6377C21.1609 19.175 21.0782 19.4975 20.9503 19.7485C20.6866 20.2659 20.2659 20.6866 19.7485 20.9503C19.4975 21.0782 19.175 21.1609 18.6377 21.2048C18.1582 21.244 17.5606 21.2492 16.75 21.2499V22.7499C17.556 22.7494 18.2154 22.7443 18.7599 22.6998C19.3899 22.6483 19.9318 22.5404 20.4295 22.2868C21.2291 21.8793 21.8793 21.2291 22.2868 20.4295C22.5404 19.9318 22.6483 19.3899 22.6998 18.7599C22.7391 18.2794 22.7476 17.7094 22.7495 17.028C22.7498 17.0187 22.75 17.0094 22.75 17C22.75 16.9963 22.75 16.9926 22.7499 16.9889C22.7499 16.9845 22.7498 16.9801 22.7496 16.9757C22.75 16.8028 22.75 16.6229 22.75 16.4354V7.56457C22.75 7.37715 22.75 7.19716 22.7496 7.02426C22.7499 7.01621 22.75 7.00812 22.75 7C22.75 6.99061 22.7498 6.98126 22.7495 6.97195C22.7476 6.29062 22.7391 5.72062 22.6998 5.24013C22.6483 4.61012 22.5404 4.06824 22.2868 3.57054C21.8793 2.77085 21.2291 2.12068 20.4295 1.71322C19.9318 1.45963 19.3899 1.35165 18.7599 1.30018C18.2154 1.25569 17.5561 1.25064 16.75 1.25007V2.75011C17.5606 2.7508 18.1582 2.75602 18.6377 2.79519C19.175 2.83909 19.4975 2.92184 19.7485 3.04973C20.2659 3.31338 20.6866 3.73408 20.9503 4.25153C21.0782 4.50252 21.1609 4.82503 21.2048 5.36228C21.2258 5.61935 21.2371 5.91039 21.2431 6.25H16.75Z" fill="#000"/>
</g>
<path d="M16.75 1.25H7.25V22.75H16.75V1.25Z" fill="#000"/>
</svg>
