<svg width="24" height="24" viewBox="0 0 24 24" fill="none" xmlns="http://www.w3.org/2000/svg">
<path opacity="0.4" d="M12.9359 1.3897C12.7656 1.26805 12.5522 1.2231 12.3473 1.26572C12.1424 1.30834 11.9646 1.43465 11.8569 1.61413L9.39797 5.71232C9.18609 5.50124 8.92159 5.27207 8.62025 5.09126C8.31942 4.91076 7.93442 4.75 7.5 4.75C7.27068 4.75 7.05396 4.85492 6.91172 5.03479C5.12518 7.29396 3.25 10.4606 3.25 14.0001C3.25 16.3786 4.05891 18.5706 5.5812 20.1734C7.10914 21.7821 9.31147 22.75 12 22.75C14.6885 22.75 16.8909 21.7821 18.4188 20.1734C19.9411 18.5706 20.7501 16.3786 20.7501 14C20.7501 8.11589 16.4787 3.92027 12.9359 1.3897Z" fill="#000"/>
<path d="M11.8519 11.799L11.9993 11.9995C11.8529 11.8003 11.852 11.7989 11.8519 11.799C11.94 11.7342 12.06 11.7342 12.1481 11.799L12.1492 11.7998L12.1518 11.8017L12.1611 11.8086L12.1962 11.8351C12.2266 11.8582 12.2707 11.8921 12.3266 11.9361C12.4384 12.0242 12.5973 12.1528 12.7878 12.3162C13.1683 12.6426 13.6764 13.1095 14.1852 13.6707C15.1906 14.7795 16.25 16.3116 16.25 17.8827C16.25 19.4394 15.5404 20.5376 14.6555 21.2403C13.78 21.9355 12.7257 22.2504 12 22.2504C11.2743 22.2504 10.22 21.9355 9.34453 21.2403C8.45961 20.5376 7.75 19.4394 7.75 17.8827C7.75 16.3116 8.80945 14.7795 9.81479 13.6707C10.3236 13.1095 10.8317 12.6426 11.2122 12.3162C11.4027 12.1528 11.5616 12.0242 11.6734 11.9361C11.7293 11.8921 11.7734 11.8582 11.8038 11.8351L11.8389 11.8086L11.8482 11.8017L11.8508 11.7998L11.8519 11.799Z" fill="#000"/>
</svg>
