<svg width="24" height="24" viewBox="0 0 24 24" fill="none" xmlns="http://www.w3.org/2000/svg">
<path opacity="0.4" d="M4 3.25C3.58579 3.25 3.25 3.58579 3.25 4V15C3.25 15.4142 3.58579 15.75 4 15.75H19.4945C20.4728 15.75 21.0719 14.6769 20.5586 13.8441L17.9619 9.63118C17.9123 9.55075 17.9123 9.44925 17.9619 9.36882L20.5586 5.15588C21.0719 4.32307 20.4728 3.25 19.4945 3.25H4Z" fill="#000"/>
<path d="M4 1.25C4.41421 1.25 4.75 1.58579 4.75 2V22C4.75 22.4142 4.41421 22.75 4 22.75C3.58579 22.75 3.25 22.4142 3.25 22V2C3.25 1.58579 3.58579 1.25 4 1.25Z" fill="#000"/>
</svg>
