<svg width="24" height="24" viewBox="0 0 24 24" fill="none" xmlns="http://www.w3.org/2000/svg">
<path opacity="0.4" d="M16.8135 1.32604C16.4951 1.24959 16.1656 1.24978 15.747 1.25003L6.7679 1.25005C5.95506 1.25005 5.29944 1.25004 4.76853 1.29342C4.2219 1.33808 3.74175 1.43244 3.29754 1.65878C2.59193 2.01831 2.01825 2.59198 1.65873 3.29759C1.43239 3.74181 1.33803 4.22195 1.29336 4.76859C1.24999 5.29949 1.24999 5.9551 1.25 6.76794V17.2322C1.24999 18.045 1.24999 18.7006 1.29336 19.2315C1.33803 19.7782 1.43239 20.2583 1.65873 20.7025C2.01825 21.4081 2.59193 21.9818 3.29754 22.3413C3.74175 22.5677 4.2219 22.662 4.76853 22.7067C5.29944 22.7501 5.95505 22.7501 6.76788 22.7501H17.2321C18.045 22.7501 18.7006 22.7501 19.2315 22.7067C19.7781 22.662 20.2582 22.5677 20.7025 22.3413C21.4081 21.9818 21.9817 21.4081 22.3413 20.7025C22.5676 20.2583 22.662 19.7782 22.7066 19.2315C22.75 18.7006 22.75 18.045 22.75 17.2322L22.75 8.25307C22.7503 7.83445 22.7505 7.50492 22.674 7.18651C22.6067 6.90591 22.4955 6.63766 22.3448 6.39161C22.1737 6.1124 21.9405 5.87953 21.6443 5.5837L18.4163 2.35571C18.1205 2.05953 17.8876 1.82639 17.6084 1.65529C17.3624 1.50452 17.0941 1.3934 16.8135 1.32604Z" fill="#000"/>
<path d="M14.5 6.75C14.9142 6.75 15.25 7.08579 15.25 7.5C15.25 7.91421 14.9142 8.25 14.5 8.25L9.5 8.25C9.08579 8.25 8.75 7.91421 8.75 7.5C8.75 7.08579 9.08579 6.75 9.5 6.75H14.5Z" fill="#000"/>
<path d="M5.75 15.25C5.75 14.1454 6.64543 13.25 7.75 13.25H16.25C17.3546 13.25 18.25 14.1454 18.25 15.25V22.75H5.75V15.25Z" fill="#000"/>
</svg>
