<svg width="24" height="24" viewBox="0 0 24 24" fill="none" xmlns="http://www.w3.org/2000/svg">
<path opacity="0.4" d="M21.249 7.749V11.999C21.249 13.518 21.249 14.28 20.895 14.975C20.581 15.591 20.089 16.082 19.475 16.395C18.78 16.749 18.018 16.749 16.499 16.749H7.499C5.981 16.749 5.219 16.749 4.524 16.395C3.909 16.082 3.418 15.591 3.104 14.975C2.75 14.28 2.75 13.517 2.75 11.999V5.999C2.75 4.481 2.75 3.719 3.104 3.024C3.418 2.408 3.91 1.917 4.525 1.604C5.22 1.25 5.982 1.25 7.5 1.25H9.764C10.079 1.25 10.269 1.25 10.49 1.31C10.682 1.36 10.865 1.444 11.032 1.559C11.219 1.688 11.347 1.838 11.542 2.065L12.09 2.704C12.183 2.812 12.287 2.934 12.318 2.957C12.433 3 12.587 3 12.735 3H16.499C18.018 3 18.78 3 19.475 3.355C20.089 3.667 20.58 4.159 20.894 4.774C21.248 5.469 21.248 6.232 21.248 7.75L21.249 7.749Z" fill="#000"/>
<path fill-rule="evenodd" clip-rule="evenodd" d="M12.75 19.378V16C12.75 15.5858 12.4142 15.25 12 15.25C11.5858 15.25 11.25 15.5858 11.25 16V19.378C10.6107 19.604 10.104 20.1107 9.87803 20.75H5C4.58579 20.75 4.25 21.0858 4.25 21.5C4.25 21.9142 4.58579 22.25 5 22.25H9.87803C10.1869 23.1239 11.0203 23.75 12 23.75C12.9797 23.75 13.8131 23.1239 14.122 22.25H19C19.4142 22.25 19.75 21.9142 19.75 21.5C19.75 21.0858 19.4142 20.75 19 20.75H14.122C13.896 20.1107 13.3893 19.604 12.75 19.378ZM12.75 21.5C12.75 21.0858 12.4142 20.75 12 20.75C11.5858 20.75 11.25 21.0858 11.25 21.5C11.25 21.9142 11.5858 22.25 12 22.25C12.4142 22.25 12.75 21.9142 12.75 21.5Z" fill="#000"/>
</svg>
