<svg width="24" height="24" viewBox="0 0 24 24" fill="none" xmlns="http://www.w3.org/2000/svg">
<path opacity="0.4" d="M9.40393 2.81224C9.1426 2.7495 8.87354 2.74975 8.56837 2.75004L5.96858 2.75008C5.2952 2.75007 4.7445 2.75006 4.29693 2.78663C3.83367 2.82448 3.41527 2.90521 3.02453 3.10431C2.413 3.41589 1.91582 3.91308 1.60423 4.52461C1.40514 4.91535 1.3244 5.33375 1.28655 5.79701C1.24998 6.24457 1.24999 6.79527 1.25 7.46865V16.5315C1.24999 17.2049 1.24998 17.7556 1.28655 18.2031C1.3244 18.6664 1.40514 19.0848 1.60423 19.4755C1.91582 20.0871 2.413 20.5843 3.02453 20.8958C3.41527 21.0949 3.83367 21.1757 4.29693 21.2135C4.74449 21.2501 5.29519 21.2501 5.96856 21.2501H18.0314C18.7048 21.2501 19.2555 21.2501 19.7031 21.2135C20.1663 21.1757 20.5847 21.0949 20.9755 20.8958C21.587 20.5843 22.0842 20.0871 22.3958 19.4755C22.5949 19.0848 22.6756 18.6664 22.7134 18.2031C22.75 17.7556 22.75 17.2049 22.75 16.5315V9.46864C22.75 8.79527 22.75 8.24457 22.7134 7.79701C22.6756 7.33375 22.5949 6.91535 22.3958 6.52461C22.0842 5.91308 21.587 5.41589 20.9755 5.10431C20.5847 4.90521 20.1663 4.82448 19.7031 4.78663C19.2555 4.75006 18.7048 4.75007 18.0314 4.75008L12.4941 4.75008C12.0915 4.75008 12.0125 4.74526 11.9462 4.72935C11.8697 4.71098 11.7966 4.68068 11.7294 4.63956C11.6714 4.60396 11.612 4.55146 11.3274 4.2668L10.6891 3.62848C10.4735 3.41249 10.2835 3.22206 10.0543 3.08164C9.85299 2.95827 9.63351 2.86736 9.40393 2.81224Z" fill="#000"/>
<path d="M16.0303 10.2197C16.3232 10.5126 16.3232 10.9874 16.0303 11.2803L11.5303 15.7803C11.2374 16.0732 10.7626 16.0732 10.4697 15.7803L7.96967 13.2803C7.67678 12.9874 7.67678 12.5126 7.96967 12.2197C8.26256 11.9268 8.73744 11.9268 9.03033 12.2197L11 14.1893L14.9697 10.2197C15.2626 9.92678 15.7374 9.92678 16.0303 10.2197Z" fill="#000"/>
</svg>
