<svg width="24" height="24" viewBox="0 0 24 24" fill="none" xmlns="http://www.w3.org/2000/svg">
<path opacity="0.4" d="M2.75 14.5C2.75 9.39137 6.89137 5.25 12 5.25C17.1086 5.25 21.25 9.39137 21.25 14.5V16.25H2.75V14.5Z" fill="#000"/>
<path d="M10.25 4.5C10.25 3.5335 11.0335 2.75 12 2.75C12.9665 2.75 13.75 3.5335 13.75 4.5C13.75 5.4665 12.9665 6.25 12 6.25C11.0335 6.25 10.25 5.4665 10.25 4.5Z" fill="#000"/>
<path d="M1.25 17C1.25 16.5858 1.58579 16.25 2 16.25H22C22.4142 16.25 22.75 16.5858 22.75 17V17.6289C22.75 18.0242 22.75 18.3654 22.7271 18.6463C22.7028 18.9428 22.6494 19.2377 22.5048 19.5215C22.2891 19.9448 21.9448 20.289 21.5215 20.5048C21.2377 20.6494 20.9428 20.7028 20.6463 20.7271C20.3653 20.75 20.0243 20.75 19.6289 20.75H4.3711C3.97574 20.75 3.63466 20.75 3.35373 20.7271C3.05722 20.7028 2.76231 20.6494 2.47852 20.5048C2.05516 20.289 1.71095 19.9448 1.49524 19.5215C1.35064 19.2377 1.29715 18.9428 1.27293 18.6463C1.24998 18.3653 1.24999 18.0243 1.25 17.6289V17Z" fill="#000"/>
<path d="M15.4561 9.42422C15.1273 9.1723 14.6565 9.23463 14.4046 9.56344C14.1527 9.89224 14.215 10.363 14.5438 10.6149C15.1139 11.0517 15.5741 11.632 15.8722 12.304C16.0401 12.6827 16.4832 12.8535 16.8619 12.6855C17.2405 12.5176 17.4113 12.0745 17.2434 11.6958C16.8433 10.794 16.2252 10.0134 15.4561 9.42422Z" fill="#000"/>
</svg>
