<svg width="24" height="24" viewBox="0 0 24 24" fill="none" xmlns="http://www.w3.org/2000/svg">
<path opacity="0.4" d="M8 6.5C3.85786 6.5 0.5 9.85786 0.5 14C0.5 18.1421 3.85786 21.5 8 21.5H16C20.1421 21.5 23.5 18.1421 23.5 14C23.5 9.85786 20.1421 6.5 16 6.5H8Z" fill="#000"/>
<path d="M17.75 2C17.75 1.58579 17.4142 1.25 17 1.25C16.5858 1.25 16.25 1.58579 16.25 2C16.25 2.69036 15.6904 3.25 15 3.25H14C12.4812 3.25 11.25 4.48122 11.25 6V7C11.25 7.41421 11.5858 7.75 12 7.75C12.4142 7.75 12.75 7.41421 12.75 7V6C12.75 5.30964 13.3096 4.75 14 4.75H15C16.5188 4.75 17.75 3.51878 17.75 2Z" fill="#000"/>
<path d="M17.5 11.5C16.9477 11.5 16.5 11.9477 16.5 12.5C16.5 13.0523 16.9477 13.5 17.5 13.5C18.0523 13.5 18.5001 13.0523 18.5001 12.5C18.5001 11.9477 18.0523 11.5 17.5 11.5Z" fill="#000"/>
<path d="M14 15C14 14.4477 14.4477 14 15 14C15.5523 14 16.0001 14.4477 16.0001 15C16.0001 15.5523 15.5524 16 15.0001 16C14.4478 16 14 15.5523 14 15Z" fill="#000"/>
<path d="M8.75 12C8.75 11.5858 8.41421 11.25 8 11.25C7.58579 11.25 7.25 11.5858 7.25 12V13.25H6C5.58579 13.25 5.25 13.5858 5.25 14C5.25 14.4142 5.58579 14.75 6 14.75H7.25V16C7.25 16.4142 7.58579 16.75 8 16.75C8.41421 16.75 8.75 16.4142 8.75 16V14.75H10C10.4142 14.75 10.75 14.4142 10.75 14C10.75 13.5858 10.4142 13.25 10 13.25H8.75V12Z" fill="#000"/>
</svg>
