<svg width="24" height="24" viewBox="0 0 24 24" fill="none" xmlns="http://www.w3.org/2000/svg">
<path opacity="0.4" d="M3.25278 13.3063C2.29369 13.861 1.96542 15.0892 2.51888 16.0495L3.75832 18.2001C4.31192 19.1607 5.53841 19.4901 6.49774 18.9353C7.50053 18.3553 8.75537 19.0798 8.75537 20.2416C8.75537 21.3504 9.65272 22.25 10.7606 22.25H13.2394C14.3473 22.25 15.2447 21.3503 15.2447 20.2416C15.2447 19.0797 16.4995 18.3552 17.5023 18.9351C18.4616 19.49 19.6881 19.1605 20.2417 18.2L21.4812 16.0493C22.0346 15.089 21.7064 13.8609 20.7473 13.3062C19.7437 12.7257 19.7437 11.2741 20.7473 10.6936C21.7064 10.1389 22.0346 8.91074 21.4812 7.95045L20.2417 5.79978C19.6881 4.8392 18.4616 4.50976 17.5023 5.06462C16.4995 5.64461 15.2447 4.92008 15.2447 3.7583C15.2447 2.64957 14.3474 1.75 13.2395 1.75H10.7605C9.65268 1.75 8.75537 2.64955 8.75537 3.75827C8.75537 4.92 7.50054 5.64451 6.49777 5.06452C5.53845 4.50967 4.31192 4.8391 3.75832 5.79967L2.51888 7.95027C1.96542 8.9106 2.29369 10.1388 3.25278 10.6935C4.25649 11.274 4.25649 12.7257 3.25278 13.3063Z" fill="#000"/>
<path d="M12 8.75C10.2051 8.75 8.75 10.2051 8.75 12C8.75 13.7949 10.2051 15.25 12 15.25C13.7949 15.25 15.25 13.7949 15.25 12C15.25 10.2051 13.7949 8.75 12 8.75Z" fill="#000"/>
</svg>
