<svg width="24" height="24" viewBox="0 0 24 24" fill="none" xmlns="http://www.w3.org/2000/svg">
<path opacity="0.4" d="M3.5 11.25C3.08579 11.25 2.75 11.5858 2.75 12V17.2321C2.74999 18.0449 2.74999 18.7006 2.79336 19.2315C2.83803 19.7781 2.93239 20.2582 3.15873 20.7025C3.51825 21.4081 4.09193 21.9817 4.79754 22.3413C5.24175 22.5676 5.7219 22.662 6.26853 22.7066C6.79944 22.75 7.45505 22.75 8.26788 22.75H15.7321C16.545 22.75 17.2006 22.75 17.7315 22.7066C18.2781 22.662 18.7582 22.5676 19.2025 22.3413C19.9081 21.9817 20.4817 21.4081 20.8413 20.7025C21.0676 20.2582 21.162 19.7781 21.2066 19.2315C21.25 18.7006 21.25 18.045 21.25 17.2321V12C21.25 11.5858 20.9142 11.25 20.5 11.25H3.5Z" fill="#000"/>
<path fill-rule="evenodd" clip-rule="evenodd" d="M5.07388 6.25C3.87791 4.49927 4.68533 1.71839 7.1844 1.29484C8.1694 1.12789 9.17567 1.4326 9.90259 2.11793L12.0013 4.09654L14.1 2.11793C14.8269 1.4326 15.8332 1.12789 16.8182 1.29484C19.3173 1.71839 20.1247 4.49927 18.9287 6.25H20.0278C20.354 6.24999 20.6428 6.24997 20.8821 6.26952C21.1369 6.29034 21.4009 6.33702 21.658 6.46799C22.0343 6.65974 22.3403 6.9657 22.532 7.34202C22.663 7.59907 22.7097 7.86311 22.7305 8.11793C22.75 8.3572 22.75 8.64591 22.75 8.97212V10.0278C22.75 10.354 22.75 10.6428 22.7305 10.8821C22.7097 11.1369 22.663 11.4009 22.532 11.658C22.3403 12.0343 22.0343 12.3403 21.658 12.532C21.4009 12.663 21.1369 12.7097 20.8821 12.7305C20.6428 12.75 20.354 12.75 20.0278 12.75H12.75V22.75H11.25V12.75H3.97223C3.64597 12.75 3.35723 12.75 3.11793 12.7305C2.86311 12.7097 2.59907 12.663 2.34202 12.532C1.9657 12.3403 1.65974 12.0343 1.46799 11.658C1.33702 11.4009 1.29034 11.1369 1.26952 10.8821C1.24997 10.6428 1.24999 10.3541 1.25 10.0278V8.97222C1.24999 8.64598 1.24997 8.35722 1.26952 8.11793C1.29034 7.86311 1.33702 7.59907 1.46799 7.34202C1.65974 6.9657 1.9657 6.65974 2.34202 6.46799C2.59907 6.33702 2.86311 6.29034 3.11793 6.26952C3.35723 6.24997 3.64597 6.24999 3.97222 6.25L5.07388 6.25ZM7.43506 2.77374C7.95635 2.68539 8.48891 2.84666 8.87362 3.20935L11.2519 5.45152C11.2506 5.46915 11.25 5.48694 11.25 5.50488V6.25L7.7648 6.25L7.13633 6.01956C5.51294 5.42432 5.7303 3.06268 7.43506 2.77374ZM12.75 5.50488C12.75 5.48772 12.7494 5.47069 12.7483 5.45381L15.129 3.20935C15.5137 2.84666 16.0462 2.68539 16.5675 2.77374C18.2723 3.06268 18.4896 5.42432 16.8663 6.01956L16.2378 6.25L12.75 6.25V5.50488Z" fill="#000"/>
</svg>
