<svg width="24" height="24" viewBox="0 0 24 24" fill="none" xmlns="http://www.w3.org/2000/svg">
<g opacity="0.4">
<path d="M3.20516 4.91814C3.5926 3.13436 5.57851 2.21612 7.18848 3.07636L8.35345 3.69882C8.71878 3.89403 8.8567 4.34843 8.66149 4.71376C8.46629 5.0791 8.01188 5.21701 7.64655 5.02181L6.48159 4.39935C5.74978 4.00833 4.84709 4.42571 4.67099 5.23652L3.2 12.009C3.17593 12.1198 3.15283 12.2308 3.13068 12.3419C1.99191 13.2521 1.25969 14.6495 1.25 16.2184V16.201C1.25 14.6845 1.41232 13.1725 1.73418 11.6906L3.20516 4.91814Z" fill="#000"/>
<path d="M11.2499 16.25H12.7499C12.7499 16.25 12.7499 16.25 12.7499 16.25C12.7499 15.7274 12.8301 15.2235 12.9788 14.75H11.021C11.1697 15.2235 11.2499 15.7274 11.2499 16.25C11.2499 16.25 11.2499 16.25 11.2499 16.25Z" fill="#000"/>
<path d="M22.7499 16.25C22.7499 16.25 22.7499 16.25 22.7499 16.25C22.7499 14.6684 22.0156 13.2583 20.8694 12.3421C20.8472 12.2309 20.8241 12.1199 20.8 12.009L19.329 5.23652C19.1529 4.42571 18.2502 4.00833 17.5184 4.39935L16.3534 5.02181C15.9881 5.21701 15.5337 5.0791 15.3385 4.71376C15.1433 4.34843 15.2812 3.89403 15.6466 3.69882L16.8115 3.07636C18.4215 2.21612 20.4074 3.13436 20.7948 4.91814L22.2658 11.6906C22.5877 13.1725 22.75 14.6845 22.75 16.201L22.7499 16.25Z" fill="#000"/>
</g>
<path d="M6.25 11.2501C3.48858 11.2501 1.25 13.4887 1.25 16.2501C1.25 19.0115 3.48858 21.2501 6.25 21.2501C9.01142 21.2501 11.25 19.0115 11.25 16.2501C11.25 13.4887 9.01142 11.2501 6.25 11.2501Z" fill="#000"/>
<path d="M17.75 11.2501C14.9886 11.2501 12.75 13.4887 12.75 16.2501C12.75 19.0115 14.9886 21.2501 17.75 21.2501C20.5114 21.2501 22.75 19.0115 22.75 16.2501C22.75 13.4887 20.5114 11.2501 17.75 11.2501Z" fill="#000"/>
</svg>
