<svg width="24" height="24" viewBox="0 0 24 24" fill="none" xmlns="http://www.w3.org/2000/svg">
<g clip-path="url(#clip0_9002_7361)">
<g opacity="0.4">
<path d="M0.299922 10.9098C0.289333 11.0249 0.284039 11.0824 0.304204 11.1292C0.321605 11.1696 0.353595 11.2046 0.392197 11.2257C0.436928 11.25 0.496071 11.25 0.614356 11.25H6.44633C6.55602 11.25 6.61087 11.25 6.65292 11.2291C6.69016 11.2106 6.7202 11.1816 6.73994 11.145C6.76223 11.1036 6.76408 11.0483 6.76777 10.9376C6.85795 8.23437 7.28933 5.58026 8.01025 3.50401C8.41676 2.33323 8.93043 1.3019 9.56223 0.549118C9.57751 0.530907 9.56108 0.503452 9.53783 0.50841C4.57617 1.56634 0.774071 5.75626 0.299922 10.9098Z" fill="#000"/>
<path d="M0.614355 12.75C0.496071 12.75 0.436928 12.75 0.392197 12.7744C0.353595 12.7954 0.321605 12.8305 0.304204 12.8708C0.284039 12.9176 0.289333 12.9752 0.299922 13.0903C0.774072 18.2438 4.57617 22.4337 9.53783 23.4916C9.56108 23.4966 9.57751 23.4691 9.56223 23.4509C8.93043 22.6981 8.41676 21.6668 8.01025 20.496C7.28933 18.4198 6.85795 15.7657 6.76777 13.0625C6.76408 12.9518 6.76223 12.8964 6.73994 12.8551C6.7202 12.8185 6.69016 12.7894 6.65292 12.7709C6.61087 12.75 6.55602 12.75 6.44633 12.75H0.614355Z" fill="#000"/>
<path d="M14.4598 23.304C14.4018 23.3801 14.4686 23.4907 14.5619 23.4699C19.4747 22.3774 23.2291 18.2092 23.7001 13.0903C23.7107 12.9752 23.716 12.9176 23.6958 12.8708C23.6784 12.8305 23.6464 12.7954 23.6078 12.7744C23.5631 12.75 23.504 12.75 23.3857 12.75H17.5488C17.4398 12.75 17.3853 12.75 17.3434 12.7707C17.3063 12.789 17.2764 12.8177 17.2565 12.854C17.2341 12.8949 17.2318 12.95 17.2272 13.0601C17.1265 15.442 16.6966 18.0462 15.9931 20.1676C15.5895 21.3849 15.0811 22.4889 14.4598 23.304Z" fill="#000"/>
<path d="M23.3857 11.25C23.504 11.25 23.5631 11.25 23.6078 11.2257C23.6464 11.2046 23.6784 11.1696 23.6958 11.1292C23.716 11.0824 23.7107 11.0249 23.7001 10.9098C23.226 5.75625 19.4238 1.56632 14.4622 0.508402C14.4389 0.503443 14.4225 0.530902 14.4378 0.549116C15.0696 1.3019 15.5832 2.33323 15.9898 3.50401C16.7107 5.58026 17.1421 8.23437 17.2323 10.9376C17.2359 11.0483 17.2378 11.1036 17.2601 11.145C17.2798 11.1816 17.3099 11.2106 17.3471 11.2291C17.3892 11.25 17.444 11.25 17.5537 11.25H23.3857Z" fill="#000"/>
</g>
<path d="M9.42725 3.99601C8.77158 5.88436 8.36016 8.35865 8.26918 10.9221C8.26515 11.0354 8.26314 11.092 8.28436 11.1363C8.30289 11.1751 8.33405 11.2073 8.37207 11.2272C8.41562 11.25 8.47285 11.25 8.58731 11.25H15.4127C15.5272 11.25 15.5844 11.25 15.6279 11.2272C15.666 11.2073 15.6971 11.1751 15.7157 11.1363C15.7369 11.092 15.7349 11.0354 15.7308 10.9221C15.6399 8.35865 15.2284 5.88436 14.5727 3.99601C14.198 2.91679 13.7586 2.07312 13.2888 1.5134C12.8205 0.95546 12.3869 0.75 12 0.75C11.613 0.75 11.1795 0.955458 10.7112 1.5134C10.2414 2.07312 9.80198 2.91679 9.42725 3.99601Z" fill="#000"/>
<path d="M14.5694 19.6955C15.2163 17.7443 15.6231 15.3146 15.7249 13.0801C15.73 12.9665 15.7326 12.9097 15.7116 12.8649C15.6932 12.8259 15.6619 12.7932 15.6238 12.7731C15.58 12.75 15.5224 12.75 15.4072 12.75H8.58731C8.47285 12.75 8.41562 12.75 8.37207 12.7728C8.33405 12.7927 8.30289 12.825 8.28436 12.8637C8.26314 12.908 8.26515 12.9646 8.26918 13.0779C8.36016 15.6414 8.77158 18.1156 9.42725 20.004C9.80198 21.0832 10.2414 21.9269 10.7112 22.4866C11.1795 23.0445 11.613 23.25 12 23.25C12.3484 23.25 12.7789 23.0347 13.2668 22.3947C13.7471 21.7646 14.1917 20.8344 14.5694 19.6955Z" fill="#000"/>
</g>
<defs>
<clipPath id="clip0_9002_7361">
<rect width="24" height="24" fill="white"/>
</clipPath>
</defs>
</svg>
