<svg width="24" height="24" viewBox="0 0 24 24" fill="none" xmlns="http://www.w3.org/2000/svg">
<g opacity="0.4">
<path d="M19.6289 1.25H16.3711C15.9757 1.24999 15.6347 1.24998 15.3537 1.27293C15.0572 1.29715 14.7623 1.35064 14.4785 1.49524C14.0552 1.71095 13.711 2.05516 13.4952 2.47852C13.3506 2.76231 13.2972 3.05722 13.2729 3.35373C13.25 3.63465 13.25 3.97571 13.25 4.37105V7.62891C13.25 8.02425 13.25 8.36535 13.2729 8.64627C13.2972 8.94278 13.3506 9.2377 13.4952 9.52148C13.711 9.94485 14.0552 10.2891 14.4785 10.5048C14.7623 10.6494 15.0572 10.7028 15.3537 10.7271C15.6347 10.75 15.9757 10.75 16.3711 10.75H19.6289C20.0243 10.75 20.3653 10.75 20.6463 10.7271C20.9428 10.7028 21.2377 10.6494 21.5215 10.5048C21.9448 10.2891 22.2891 9.94485 22.5048 9.52148C22.6494 9.2377 22.7028 8.94278 22.7271 8.64627C22.75 8.36535 22.75 8.02428 22.75 7.62893V4.37108C22.75 3.97572 22.75 3.63466 22.7271 3.35373C22.7028 3.05722 22.6494 2.76231 22.5048 2.47852C22.2891 2.05516 21.9448 1.71095 21.5215 1.49524C21.2377 1.35064 20.9428 1.29715 20.6463 1.27293C20.3654 1.24998 20.0243 1.24999 19.6289 1.25Z" fill="#000"/>
<path d="M19.6289 13.25H16.3711C15.9758 13.25 15.6346 13.25 15.3537 13.2729C15.0572 13.2972 14.7623 13.3506 14.4785 13.4952C14.0552 13.711 13.711 14.0552 13.4952 14.4785C13.3506 14.7623 13.2972 15.0572 13.2729 15.3537C13.25 15.6346 13.25 15.9757 13.25 16.371V19.6289C13.25 20.0243 13.25 20.3654 13.2729 20.6463C13.2972 20.9428 13.3506 21.2377 13.4952 21.5215C13.711 21.9448 14.0552 22.2891 14.4785 22.5048C14.7623 22.6494 15.0572 22.7028 15.3537 22.7271C15.6347 22.75 15.9757 22.75 16.3711 22.75H19.6289C20.0243 22.75 20.3653 22.75 20.6463 22.7271C20.9428 22.7028 21.2377 22.6494 21.5215 22.5048C21.9448 22.2891 22.2891 21.9448 22.5048 21.5215C22.6494 21.2377 22.7028 20.9428 22.7271 20.6463C22.75 20.3653 22.75 20.0243 22.75 19.6289V16.3711C22.75 15.9757 22.75 15.6347 22.7271 15.3537C22.7028 15.0572 22.6494 14.7623 22.5048 14.4785C22.2891 14.0552 21.9448 13.711 21.5215 13.4952C21.2377 13.3506 20.9428 13.2972 20.6463 13.2729C20.3654 13.25 20.0243 13.25 19.6289 13.25Z" fill="#000"/>
<path d="M7.62891 13.25H4.37109C3.97575 13.25 3.63465 13.25 3.35373 13.2729C3.05722 13.2972 2.76231 13.3506 2.47852 13.4952C2.05516 13.711 1.71095 14.0552 1.49524 14.4785C1.35064 14.7623 1.29715 15.0572 1.27293 15.3537C1.24998 15.6347 1.24999 15.9757 1.25 16.3711V19.6289C1.24999 20.0243 1.24998 20.3654 1.27293 20.6463C1.29715 20.9428 1.35064 21.2377 1.49524 21.5215C1.71095 21.9448 2.05516 22.2891 2.47852 22.5048C2.76231 22.6494 3.05722 22.7028 3.35373 22.7271C3.63466 22.75 3.97572 22.75 4.37108 22.75H7.62893C8.02428 22.75 8.36535 22.75 8.64627 22.7271C8.94278 22.7028 9.2377 22.6494 9.52148 22.5048C9.94485 22.2891 10.2891 21.9448 10.5048 21.5215C10.6494 21.2377 10.7028 20.9428 10.7271 20.6463C10.75 20.3653 10.75 20.0243 10.75 19.6289V16.3711C10.75 15.9757 10.75 15.6347 10.7271 15.3537C10.7028 15.0572 10.6494 14.7623 10.5048 14.4785C10.2891 14.0552 9.94485 13.711 9.52148 13.4952C9.2377 13.3506 8.94278 13.2972 8.64627 13.2729C8.36536 13.25 8.02425 13.25 7.62891 13.25Z" fill="#000"/>
</g>
<path d="M7.62891 1.25H4.37109C3.97574 1.24999 3.63465 1.24998 3.35373 1.27293C3.05722 1.29715 2.76231 1.35064 2.47852 1.49524C2.05516 1.71095 1.71095 2.05516 1.49524 2.47852C1.35064 2.76231 1.29715 3.05722 1.27293 3.35373C1.24998 3.63465 1.24999 3.97572 1.25 4.37106V7.62891C1.24999 8.02426 1.24998 8.36535 1.27293 8.64627C1.29715 8.94278 1.35064 9.2377 1.49524 9.52148C1.71095 9.94485 2.05516 10.2891 2.47852 10.5048C2.76231 10.6494 3.05722 10.7028 3.35373 10.7271C3.63466 10.75 3.97572 10.75 4.37108 10.75H7.62893C8.02428 10.75 8.36535 10.75 8.64627 10.7271C8.94278 10.7028 9.2377 10.6494 9.52148 10.5048C9.94485 10.2891 10.2891 9.94485 10.5048 9.52148C10.6494 9.2377 10.7028 8.94278 10.7271 8.64627C10.75 8.36535 10.75 8.02428 10.75 7.62893V4.37108C10.75 3.97572 10.75 3.63466 10.7271 3.35373C10.7028 3.05722 10.6494 2.76231 10.5048 2.47852C10.2891 2.05516 9.94485 1.71095 9.52148 1.49524C9.2377 1.35064 8.94278 1.29715 8.64627 1.27293C8.36535 1.24998 8.02426 1.24999 7.62891 1.25Z" fill="#000"/>
</svg>
