<svg width="24" height="24" viewBox="0 0 24 24" fill="none" xmlns="http://www.w3.org/2000/svg">
<path opacity="0.4" d="M12 0.25C5.51065 0.25 0.25 5.51065 0.25 12C0.25 18.4893 5.51065 23.75 12 23.75C18.4893 23.75 23.75 18.4893 23.75 12C23.75 5.51065 18.4893 0.25 12 0.25Z" fill="#000"/>
<path d="M9 6.75C9.41421 6.75 9.75 7.08579 9.75 7.5V11.25H14.25V7.5C14.25 7.08579 14.5858 6.75 15 6.75C15.4142 6.75 15.75 7.08579 15.75 7.5V16.5C15.75 16.9142 15.4142 17.25 15 17.25C14.5858 17.25 14.25 16.9142 14.25 16.5V12.75H9.75V16.5C9.75 16.9142 9.41421 17.25 9 17.25C8.58579 17.25 8.25 16.9142 8.25 16.5V7.5C8.25 7.08579 8.58579 6.75 9 6.75Z" fill="#000"/>
</svg>
