<svg width="24" height="24" viewBox="0 0 24 24" fill="none" xmlns="http://www.w3.org/2000/svg">
<path opacity="0.4" d="M12.6524 14.2502H8.62157C7.84002 14.2502 7.078 14.4944 6.44202 14.9486L4.76738 16.1447C4.21619 16.5384 3.55577 16.75 2.87843 16.75H2.5C2.08579 16.75 1.75 17.0858 1.75 17.5V21.5002C1.75 21.9144 2.08579 22.2502 2.5 22.2502H12.5593C13.5468 22.2502 14.5176 21.9959 15.3783 21.5117L21.1531 18.2634C21.8307 17.8823 22.25 17.1653 22.25 16.3878C22.25 14.8781 20.736 13.8377 19.3266 14.3789L15.4873 15.8532C15.4957 15.9427 15.5 16.0333 15.5 16.125C15.5 17.7128 14.2128 19 12.625 19H8C7.72386 19 7.5 18.7761 7.5 18.5C7.5 18.2238 7.72386 18 8 18H12.625C13.6605 18 14.5 17.1605 14.5 16.125C14.5 15.0986 13.6753 14.2648 12.6524 14.2502Z" fill="#000"/>
<path d="M12 1.25C12.4143 1.25 12.75 1.58579 12.75 2V2.54886C13.0143 2.58786 13.2685 2.65327 13.5266 2.75563C13.9998 2.94332 14.4411 3.23811 14.9528 3.62559C15.283 3.87564 15.348 4.34605 15.098 4.67627C14.8479 5.0065 14.3775 5.07149 14.0473 4.82144C13.559 4.45172 13.2503 4.25974 12.9735 4.14996C12.7143 4.04714 12.4407 3.99998 12 3.99998C11.3566 3.99998 10.9008 4.15208 10.6275 4.35004C10.3766 4.53173 10.25 4.76774 10.25 5.08168C10.25 5.46096 10.416 5.67828 10.7414 5.86045C11.1142 6.06914 11.6186 6.17606 12.1233 6.26019C12.6186 6.34273 13.3642 6.47955 13.9914 6.83064C14.666 7.20825 15.25 7.86674 15.25 8.91828C15.25 9.73292 14.8766 10.4128 14.2525 10.8648C13.8312 11.1699 13.3154 11.3592 12.75 11.4452V12C12.75 12.4142 12.4143 12.75 12 12.75C11.5858 12.75 11.25 12.4142 11.25 12V11.4511C10.9857 11.4121 10.7316 11.3467 10.4735 11.2443C10.0003 11.0566 9.55901 10.7618 9.04729 10.3743C8.71706 10.1243 8.65207 9.65387 8.90212 9.32364C9.15217 8.99342 9.62257 8.92842 9.9528 9.17847C10.4411 9.5482 10.7498 9.7402 11.0266 9.84998C11.2858 9.95282 11.5594 9.99998 12 9.99998C12.6435 9.99998 13.0993 9.84788 13.3726 9.64992C13.6235 9.46823 13.75 9.23222 13.75 8.91828C13.75 8.53901 13.5841 8.32168 13.2587 8.13952C12.8859 7.93083 12.3815 7.8239 11.8767 7.73978C11.3815 7.65724 10.6359 7.52042 10.0087 7.16933C9.33412 6.79171 8.75004 6.13322 8.75004 5.08168C8.75004 4.26705 9.12349 3.58721 9.74762 3.13519C10.1689 2.83007 10.6846 2.64081 11.25 2.55475V2C11.25 1.58579 11.5858 1.25 12 1.25Z" fill="#000"/>
</svg>
