<svg width="24" height="24" viewBox="0 0 24 24" fill="none" xmlns="http://www.w3.org/2000/svg">
<g opacity="0.4">
<path d="M8.89171 2.25005C7.76837 2.24951 6.9936 2.24915 6.31889 2.51996C5.72532 2.7582 5.20254 3.14431 4.80027 3.64157C4.34302 4.2068 4.11552 4.94742 3.78567 6.02124L1.70361 12.7881C2.63698 12.1339 3.77365 11.75 4.99998 11.75H19C20.2264 11.75 21.363 12.1339 22.2964 12.7881L20.2143 6.02125C19.8845 4.94742 19.657 4.2068 19.1997 3.64157C18.7975 3.14431 18.2747 2.7582 17.6811 2.51996C17.0064 2.24915 16.2316 2.24951 15.1083 2.25005H8.89171Z" fill="#000"/>
<path d="M23.2477 17.3585C23.1731 15.0768 21.2999 13.25 19 13.25H4.99998C2.70012 13.25 0.826935 15.0768 0.75231 17.3585C0.750774 17.4055 0.75 17.4526 0.75 17.5C0.75 19.8472 2.65278 21.75 4.99998 21.75H19C21.3472 21.75 23.25 19.8472 23.25 17.5C23.25 17.4634 23.2495 17.427 23.2486 17.3907C23.2484 17.38 23.248 17.3692 23.2477 17.3585Z" fill="#000"/>
</g>
<path d="M15 16.5C14.4477 16.5 14 16.9477 14 17.5C14 18.0523 14.4477 18.5 15 18.5C15.5523 18.5 16.0001 18.0523 16.0001 17.5C16.0001 16.9477 15.5523 16.5 15 16.5Z" fill="#000"/>
<path d="M18 16.5C17.4477 16.5 17 16.9477 17 17.5C17 18.0523 17.4477 18.5 18 18.5C18.5523 18.5 19.0001 18.0523 19.0001 17.5C19.0001 16.9477 18.5523 16.5 18 16.5Z" fill="#000"/>
</svg>
