<svg width="24" height="24" viewBox="0 0 24 24" fill="none" xmlns="http://www.w3.org/2000/svg">
<g opacity="0.4">
<path d="M11.4728 3.20068C11.5837 2.80158 11.35 2.38817 10.9509 2.27731C10.5518 2.16645 10.1384 2.40011 10.0276 2.79921L5.02755 20.7992C4.91669 21.1983 5.15036 21.6117 5.54946 21.7226C5.94856 21.8334 6.36197 21.5998 6.47283 21.2007L11.4728 3.20068Z" fill="#000"/>
<path d="M18.9728 3.20068C19.0837 2.80158 18.85 2.38817 18.4509 2.27731C18.0518 2.16645 17.6384 2.40011 17.5276 2.79921L12.5276 20.7992C12.4167 21.1983 12.6504 21.6117 13.0495 21.7226C13.4486 21.8334 13.862 21.5998 13.9728 21.2007L18.9728 3.20068Z" fill="#000"/>
</g>
<path d="M4 7C3.58579 7 3.25 7.33579 3.25 7.75C3.25 8.16421 3.58579 8.5 4 8.5H22.0003C22.4145 8.5 22.7503 8.16421 22.7503 7.75C22.7503 7.33579 22.4145 7 22.0003 7H4Z" fill="#000"/>
<path d="M2 15.5C1.58579 15.5 1.25 15.8358 1.25 16.25C1.25 16.6642 1.58579 17 2 17H20C20.4142 17 20.75 16.6642 20.75 16.25C20.75 15.8358 20.4142 15.5 20 15.5H2Z" fill="#000"/>
</svg>
