<svg width="24" height="24" viewBox="0 0 24 24" fill="none" xmlns="http://www.w3.org/2000/svg">
<path opacity="0.4" d="M12 2.25C6.06294 2.25 1.25 7.06294 1.25 13V16.9474C1.25061 16.4624 1.25813 16.0982 1.33148 15.7768C1.52464 14.9306 2.04295 14.2132 2.75 13.7613V13C2.75 7.89137 6.89137 3.75 12 3.75C17.1086 3.75 21.25 7.89137 21.25 13V13.7613C21.957 14.2132 22.4754 14.9306 22.6685 15.7768C22.7419 16.0983 22.7494 16.4625 22.75 16.9477V13C22.75 7.06294 17.9371 2.25 12 2.25Z" fill="#000"/>
<path d="M5.19595 13.261C5.09654 13.2498 4.98859 13.2499 4.88465 13.25L4.81092 13.25C4.52404 13.25 4.3184 13.2499 4.13613 13.2705C2.62936 13.4402 1.44022 14.6294 1.27045 16.1361C1.24991 16.3184 1.24995 16.5241 1.25001 16.8109L1.25001 18.1891C1.24995 18.476 1.24991 18.6816 1.27045 18.8639C1.44022 20.3707 2.62936 21.5598 4.13613 21.7296C4.31839 21.7501 4.52401 21.7501 4.81086 21.75L4.88464 21.75C4.98859 21.7501 5.09654 21.7502 5.19595 21.739C6.00728 21.6476 6.64759 21.0073 6.73901 20.196C6.75021 20.0966 6.75011 19.9886 6.75003 19.8847L6.75003 15.1154C6.75012 15.0115 6.75021 14.9035 6.73901 14.8041C6.64759 13.9928 6.00728 13.3525 5.19595 13.261Z" fill="#000"/>
<path d="M19.1154 13.25C19.0114 13.2499 18.9035 13.2498 18.8041 13.261C17.9928 13.3525 17.3525 13.9928 17.261 14.8041C17.2498 14.9035 17.2499 15.0114 17.25 15.1154V19.8847C17.2499 19.9886 17.2498 20.0966 17.261 20.196C17.3525 21.0073 17.9928 21.6476 18.8041 21.739C18.9035 21.7502 19.0114 21.7501 19.1154 21.75L19.1891 21.75C19.476 21.7501 19.6817 21.7501 19.8639 21.7296C21.3707 21.5598 22.5598 20.3707 22.7296 18.8639C22.7501 18.6816 22.7501 18.476 22.75 18.1891V16.8109C22.7501 16.5241 22.7501 16.3184 22.7296 16.1361C22.5598 14.6294 21.3707 13.4402 19.8639 13.2705C19.6816 13.2499 19.476 13.25 19.1891 13.25L19.1154 13.25Z" fill="#000"/>
</svg>
