<svg width="24" height="24" viewBox="0 0 24 24" fill="none" xmlns="http://www.w3.org/2000/svg">
<path opacity="0.4" d="M15.633 1.25H8.367C7.27486 1.24999 6.40936 1.24999 5.71173 1.30699C4.99835 1.36527 4.39472 1.48688 3.84355 1.76772C2.94978 2.22312 2.22312 2.94978 1.76772 3.84355C1.48688 4.39472 1.36527 4.99834 1.30699 5.71173C1.24999 6.40935 1.24999 7.27485 1.25 8.36699V15.633C1.24999 16.7251 1.24999 17.5906 1.30699 18.2883C1.36527 19.0017 1.48688 19.6053 1.76772 20.1565C2.22312 21.0502 2.94977 21.7769 3.84355 22.2323C4.39472 22.5131 4.99835 22.6347 5.71173 22.693C6.40935 22.75 7.27484 22.75 8.36698 22.75H15.633C16.7252 22.75 17.5906 22.75 18.2883 22.693C19.0017 22.6347 19.6053 22.5131 20.1565 22.2323C21.0502 21.7769 21.7769 21.0502 22.2323 20.1565C22.5131 19.6053 22.6347 19.0017 22.693 18.2883C22.75 17.5906 22.75 16.7252 22.75 15.633V8.36698C22.75 7.27484 22.75 6.40935 22.693 5.71173C22.6347 4.99835 22.5131 4.39472 22.2323 3.84355C21.7769 2.94977 21.0502 2.22312 20.1565 1.76772C19.6053 1.48688 19.0017 1.36527 18.2883 1.30699C17.5906 1.24999 16.7251 1.24999 15.633 1.25Z" fill="#000"/>
<path d="M9.8 7C8.76182 7 7.92097 7.44736 7.34997 8.15249C6.78678 8.84796 6.5 9.7739 6.5 10.7372C6.5 12.578 7.62426 14.0806 8.78685 15.148C9.95977 16.2248 11.2553 16.9367 11.7764 17.1972C11.9172 17.2676 12.0828 17.2676 12.2236 17.1972C12.7447 16.9367 14.0402 16.2248 15.2131 15.148C16.3757 14.0806 17.5 12.578 17.5 10.7372C17.5 9.7739 17.2132 8.84796 16.65 8.15249C16.079 7.44736 15.2382 7 14.2 7C13.5624 7 13.0108 7.25139 12.5842 7.54156C12.3623 7.69253 12.1662 7.85928 12 8.01916C11.8338 7.85928 11.6377 7.69253 11.4158 7.54156C10.9892 7.25139 10.4376 7 9.8 7Z" fill="#000"/>
</svg>
