<svg width="24" height="24" viewBox="0 0 24 24" fill="none" xmlns="http://www.w3.org/2000/svg">
<g clip-path="url(#clip0_9002_7406)">
<path opacity="0.4" d="M12 0.25C5.51065 0.25 0.25 5.51065 0.25 12C0.25 18.4893 5.51065 23.75 12 23.75C18.4893 23.75 23.75 18.4893 23.75 12C23.75 5.51065 18.4893 0.25 12 0.25Z" fill="#000"/>
<path d="M9.8 7C8.76182 7 7.92097 7.44736 7.34997 8.15249C6.78678 8.84796 6.5 9.7739 6.5 10.7372C6.5 12.578 7.62426 14.0806 8.78685 15.148C9.95977 16.2248 11.2553 16.9367 11.7764 17.1972C11.9172 17.2676 12.0828 17.2676 12.2236 17.1972C12.7447 16.9367 14.0402 16.2248 15.2131 15.148C16.3757 14.0806 17.5 12.578 17.5 10.7372C17.5 9.7739 17.2132 8.84796 16.65 8.15249C16.079 7.44736 15.2382 7 14.2 7C13.5624 7 13.0108 7.25139 12.5842 7.54156C12.3623 7.69253 12.1662 7.85928 12 8.01916C11.8338 7.85928 11.6377 7.69253 11.4158 7.54156C10.9892 7.25139 10.4376 7 9.8 7Z" fill="#000"/>
</g>
<defs>
<clipPath id="clip0_9002_7406">
<rect width="24" height="24" fill="white"/>
</clipPath>
</defs>
</svg>
