<svg width="24" height="24" viewBox="0 0 24 24" fill="none" xmlns="http://www.w3.org/2000/svg">
<g opacity="0.4">
<path d="M7.89333 2.5C7.58395 2.5 7.2819 2.52136 6.98803 2.56285C6.80036 2.58935 6.64381 2.71968 6.58373 2.89944C6.52365 3.0792 6.57037 3.27747 6.70439 3.41149L19.3276 16.0347C19.4292 16.1363 19.5696 16.1893 19.713 16.1802C19.8564 16.171 19.989 16.1006 20.0768 15.9869C21.4677 14.1868 22.5 11.9941 22.5 9.47438C22.5 5.79054 19.9729 2.5 16.1067 2.5C14.1987 2.5 12.8582 3.3934 12 4.25953C11.1418 3.3934 9.80129 2.5 7.89333 2.5Z" fill="#000"/>
<path d="M4.63941 3.93231C4.45656 3.74946 4.16446 3.7362 3.96579 3.90173C2.40165 5.20501 1.5 7.26252 1.5 9.47438C1.5 13.1964 3.74864 16.2028 6.1044 18.3072C8.4609 20.4122 11.0191 21.7001 11.8419 21.9743C11.9445 22.0086 12.0555 22.0086 12.1581 21.9743C13.0029 21.6928 15.6842 20.3396 18.0957 18.126C18.1962 18.0338 18.2546 17.9046 18.2575 17.7683C18.2604 17.632 18.2076 17.5005 18.1112 17.4041L4.63941 3.93231Z" fill="#000"/>
</g>
<path d="M1.46967 1.46967C1.76256 1.17678 2.23744 1.17678 2.53033 1.46967L22.5303 21.4697C22.8232 21.7626 22.8232 22.2374 22.5303 22.5303C22.2374 22.8232 21.7626 22.8232 21.4697 22.5303L1.46967 2.53033C1.17678 2.23744 1.17678 1.76256 1.46967 1.46967Z" fill="#000"/>
</svg>
