<svg width="24" height="24" viewBox="0 0 24 24" fill="none" xmlns="http://www.w3.org/2000/svg">
<path opacity="0.4" d="M6.00021 1.25C5.61015 1.25 5.2852 1.549 5.25281 1.93772L5.24184 2.06924C5.08941 3.8965 4.99977 4.97113 5.19873 5.9719C5.45643 7.26813 6.06355 8.46926 6.95444 9.44545C7.64227 10.1991 8.56071 10.7642 10.1224 11.7251L10.5692 12L10.1224 12.2749C8.56071 13.2358 7.64227 13.8009 6.95445 14.5545C6.06355 15.5307 5.45643 16.7319 5.19873 18.0281C4.99977 19.0289 5.08941 20.1035 5.24184 21.9308L5.25281 22.0623C5.2852 22.451 5.61015 22.75 6.00022 22.75L18.0002 22.75C18.3903 22.75 18.7152 22.451 18.7476 22.0623L18.7586 21.9308C18.911 20.1035 19.0007 19.0289 18.8017 18.0281C18.544 16.7319 17.9369 15.5307 17.046 14.5546C16.3582 13.8009 15.4397 13.2358 13.878 12.2749L13.4312 12L13.878 11.7251C15.4397 10.7642 16.3582 10.1991 17.046 9.44545C17.9369 8.46926 18.544 7.26813 18.8017 5.9719C19.0007 4.97112 18.911 3.8965 18.7586 2.06922L18.7476 1.93772C18.7152 1.549 18.3903 1.25 18.0002 1.25H6.00021Z" fill="#000"/>
<path d="M20 2.75C20.4142 2.75 20.75 2.41421 20.75 2C20.75 1.58579 20.4142 1.25 20 1.25H4C3.58579 1.25 3.25 1.58579 3.25 2C3.25 2.41421 3.58579 2.75 4 2.75H20Z" fill="#000"/>
<path d="M20 22.75C20.4142 22.75 20.75 22.4142 20.75 22C20.75 21.5858 20.4142 21.25 20 21.25H4C3.58578 21.25 3.25 21.5858 3.25 22C3.25 22.4142 3.58578 22.75 4 22.75H20Z" fill="#000"/>
</svg>
