<svg width="24" height="24" viewBox="0 0 24 24" fill="none" xmlns="http://www.w3.org/2000/svg">
<path opacity="0.4" d="M12.9264 1.36298C12.3185 1.20803 11.6815 1.20803 11.0737 1.36298C10.3829 1.53907 9.76874 1.98173 8.87845 2.62338L4.12813 6.04366C3.24381 6.68009 2.67428 7.08997 2.25556 7.62645C1.88552 8.10056 1.60888 8.64062 1.44035 9.21794C1.24964 9.87122 1.24979 10.5729 1.25002 11.6624L1.25003 16.4326C1.25003 17.3851 1.25002 18.1456 1.30021 18.7599C1.35168 19.3899 1.45966 19.9318 1.71325 20.4295C2.12072 21.2292 2.77088 21.8793 3.57057 22.2868C4.06827 22.5404 4.61015 22.6484 5.24016 22.6999C5.85441 22.75 6.61493 22.75 7.56734 22.75H16.4327C17.3851 22.75 18.1457 22.75 18.7599 22.6999C19.3899 22.6484 19.9318 22.5404 20.4295 22.2868C21.2292 21.8793 21.8793 21.2292 22.2868 20.4295C22.5404 19.9318 22.6484 19.3899 22.6999 18.7599C22.75 18.1456 22.75 17.3851 22.75 16.4327L22.75 11.6624C22.7503 10.5729 22.7504 9.87122 22.5597 9.21794C22.3912 8.64062 22.1145 8.10056 21.7445 7.62645C21.3258 7.08997 20.7563 6.68009 19.8719 6.04366L15.1216 2.62337C14.2313 1.98173 13.6171 1.53907 12.9264 1.36298Z" fill="#000"/>
<path d="M8.39542 15.5562C8.64051 15.2223 9.10989 15.1503 9.44382 15.3954C10.9964 16.5349 13.0037 16.5349 14.5563 15.3954C14.8902 15.1503 15.3596 15.2223 15.6047 15.5562C15.8498 15.8901 15.7777 16.3595 15.4438 16.6046C13.3631 18.1318 10.637 18.1318 8.55629 16.6046C8.22236 16.3595 8.15034 15.8901 8.39542 15.5562Z" fill="#000"/>
</svg>
