<svg width="24" height="24" viewBox="0 0 24 24" fill="none" xmlns="http://www.w3.org/2000/svg">
<path opacity="0.4" d="M12.9264 1.36292C12.3185 1.20797 11.6815 1.20797 11.0737 1.36292C10.3829 1.53901 9.76874 1.98167 8.87845 2.62331L4.12813 6.0436C3.24381 6.68003 2.67428 7.08991 2.25556 7.62639C1.88552 8.10049 1.60888 8.64056 1.44035 9.21788C1.24964 9.87116 1.24979 10.5728 1.25002 11.6624L1.25003 16.4326C1.25003 17.385 1.25002 18.1456 1.30021 18.7598C1.35168 19.3898 1.45966 19.9317 1.71325 20.4294C2.12072 21.2291 2.77088 21.8793 3.57057 22.2867C4.06827 22.5403 4.61015 22.6483 5.24016 22.6998C5.85441 22.75 6.61493 22.75 7.56734 22.75H16.4327C17.3851 22.75 18.1457 22.75 18.7599 22.6998C19.3899 22.6483 19.9318 22.5403 20.4295 22.2867C21.2292 21.8793 21.8793 21.2291 22.2868 20.4294C22.5404 19.9317 22.6484 19.3898 22.6999 18.7598C22.75 18.1456 22.75 17.3851 22.75 16.4327L22.75 11.6624C22.7503 10.5728 22.7504 9.87116 22.5597 9.21788C22.3912 8.64056 22.1145 8.10049 21.7445 7.62639C21.3258 7.08991 20.7563 6.68003 19.8719 6.0436L15.1216 2.62331C14.2313 1.98167 13.6171 1.53901 12.9264 1.36292Z" fill="#000"/>
<path d="M11.9993 10.75C10.2651 10.75 8.68852 11.4182 7.51048 12.5127C7.20702 12.7946 6.73246 12.7772 6.45054 12.4737C6.16861 12.1702 6.18607 11.6957 6.48953 11.4138C7.93407 10.0717 9.87158 9.25 11.9993 9.25C14.1278 9.25 16.0659 10.0723 17.5106 11.4151C17.814 11.6971 17.8313 12.1717 17.5493 12.4751C17.2673 12.7785 16.7928 12.7958 16.4894 12.5138C15.3112 11.4187 13.7342 10.75 11.9993 10.75Z" fill="#000"/>
<path d="M12.0032 14.0834C11.2185 14.0834 10.5008 14.4139 9.96971 14.9649C9.68227 15.2632 9.20747 15.2719 8.90923 14.9845C8.61098 14.6971 8.60223 14.2223 8.88967 13.924C9.68312 13.1008 10.7827 12.5834 12.0032 12.5834C13.2237 12.5834 14.3233 13.1008 15.1168 13.924C15.4042 14.2223 15.3955 14.6971 15.0972 14.9845C14.799 15.2719 14.3242 15.2632 14.0367 14.9649C13.5057 14.4139 12.7879 14.0834 12.0032 14.0834Z" fill="#000"/>
<path d="M12 15.5C11.4477 15.5 11 15.9477 11 16.5C11 17.0523 11.4477 17.5 12 17.5C12.5523 17.5 13.0001 17.0523 13.0001 16.5C13.0001 15.9477 12.5523 15.5 12 15.5Z" fill="#000"/>
</svg>
