<svg width="24" height="24" viewBox="0 0 24 24" fill="none" xmlns="http://www.w3.org/2000/svg">
<path opacity="0.4" d="M12.9264 1.36292C12.3185 1.20797 11.6815 1.20797 11.0737 1.36292C10.3829 1.53901 9.76874 1.98167 8.87845 2.62331L4.12813 6.0436C3.24381 6.68003 2.67428 7.08991 2.25556 7.62639C1.88552 8.10049 1.60888 8.64056 1.44035 9.21788C1.24964 9.87116 1.24979 10.5728 1.25002 11.6624L1.25003 16.4326C1.25003 17.385 1.25002 18.1456 1.30021 18.7598C1.35168 19.3898 1.45966 19.9317 1.71325 20.4294C2.12072 21.2291 2.77088 21.8793 3.57057 22.2867C4.06827 22.5403 4.61015 22.6483 5.24016 22.6998C5.85441 22.75 6.61493 22.75 7.56734 22.75H16.4327C17.3851 22.75 18.1457 22.75 18.7599 22.6998C19.3899 22.6483 19.9318 22.5403 20.4295 22.2867C21.2292 21.8793 21.8793 21.2291 22.2868 20.4294C22.5404 19.9317 22.6484 19.3898 22.6999 18.7598C22.75 18.1456 22.75 17.3851 22.75 16.4327L22.75 11.6624C22.7503 10.5728 22.7504 9.87116 22.5597 9.21788C22.3912 8.64056 22.1145 8.10049 21.7445 7.62639C21.3258 7.08991 20.7563 6.68003 19.8719 6.0436L15.1216 2.62331C14.2313 1.98167 13.6171 1.53901 12.9264 1.36292Z" fill="#000"/>
<path d="M8.96967 15.9695C8.67678 16.2624 8.67678 16.7373 8.96967 17.0302C9.26256 17.3231 9.73744 17.3231 10.0303 17.0302L12 15.0605L13.9697 17.0302C14.2626 17.3231 14.7374 17.3231 15.0303 17.0302C15.3232 16.7373 15.3232 16.2624 15.0303 15.9695L13.0607 13.9998L15.0303 12.0302C15.3232 11.7373 15.3232 11.2624 15.0303 10.9695C14.7374 10.6767 14.2625 10.6767 13.9696 10.9695L12 12.9392L10.0304 10.9696C9.73748 10.6767 9.2626 10.6767 8.96971 10.9696C8.67682 11.2624 8.67682 11.7373 8.96971 12.0302L10.9393 13.9998L8.96967 15.9695Z" fill="#000"/>
</svg>
