<svg width="24" height="24" viewBox="0 0 24 24" fill="none" xmlns="http://www.w3.org/2000/svg">
<path opacity="0.4" d="M12.9264 1.36292C12.3185 1.20797 11.6815 1.20797 11.0737 1.36292C10.3829 1.53901 9.76874 1.98167 8.87845 2.62331L4.12813 6.0436C3.24381 6.68003 2.67428 7.08991 2.25556 7.62639C1.88552 8.10049 1.60888 8.64056 1.44035 9.21788C1.24964 9.87116 1.24979 10.5728 1.25002 11.6624L1.25003 16.4326C1.25003 17.385 1.25002 18.1456 1.30021 18.7598C1.35168 19.3898 1.45966 19.9317 1.71325 20.4294C2.12072 21.2291 2.77088 21.8793 3.57057 22.2867C4.06827 22.5403 4.61015 22.6483 5.24016 22.6998C5.85441 22.75 6.61493 22.75 7.56734 22.75H16.4327C17.3851 22.75 18.1457 22.75 18.7599 22.6998C19.3899 22.6483 19.9318 22.5403 20.4295 22.2867C21.2292 21.8793 21.8793 21.2291 22.2868 20.4294C22.5404 19.9317 22.6484 19.3898 22.6999 18.7598C22.75 18.1456 22.75 17.3851 22.75 16.4327L22.75 11.6624C22.7503 10.5728 22.7504 9.87116 22.5597 9.21788C22.3912 8.64056 22.1145 8.10049 21.7445 7.62639C21.3258 7.08991 20.7563 6.68003 19.8719 6.0436L15.1216 2.62331C14.2313 1.98167 13.6171 1.53901 12.9264 1.36292Z" fill="#000"/>
<path d="M9.69983 11.8C9.69983 10.5297 10.7296 9.5 11.9998 9.5C13.2701 9.5 14.2998 10.5297 14.2998 11.8C14.2998 13.0703 13.2701 14.1 11.9998 14.1C10.7296 14.1 9.69983 13.0703 9.69983 11.8Z" fill="#000"/>
<path d="M8.31559 17.8755C8.73088 16.262 10.2936 15.1001 11.9998 15.1001C13.706 15.1001 15.2687 16.262 15.684 17.8755C15.7226 18.0252 15.6897 18.1843 15.595 18.3064C15.5003 18.4286 15.3544 18.5001 15.1998 18.5001H8.79981C8.64523 18.5001 8.49935 18.4286 8.40464 18.3064C8.30994 18.1843 8.27706 18.0252 8.31559 17.8755Z" fill="#000"/>
</svg>
