<svg width="24" height="24" viewBox="0 0 24 24" fill="none" xmlns="http://www.w3.org/2000/svg">
<path opacity="0.4" d="M16.9326 2.75H7.06739C6.11495 2.74999 5.35439 2.74999 4.74013 2.80018C4.11012 2.85165 3.56824 2.95963 3.07054 3.21322C2.27085 3.62068 1.62068 4.27085 1.21322 5.07054C0.959634 5.56824 0.85165 6.11012 0.800176 6.74013C0.749989 7.35439 0.749994 8.11494 0.75 9.06738V14.9326C0.749994 15.8851 0.749989 16.6456 0.800176 17.2599C0.85165 17.8899 0.959634 18.4318 1.21322 18.9295C1.62068 19.7291 2.27085 20.3793 3.07054 20.7868C3.56824 21.0404 4.11012 21.1483 4.74013 21.1998C5.35438 21.25 6.1149 21.25 7.0673 21.25H16.9326C17.885 21.25 18.6456 21.25 19.2599 21.1998C19.8899 21.1483 20.4318 21.0404 20.9295 20.7868C21.7291 20.3793 22.3793 19.7291 22.7868 18.9295C23.0404 18.4318 23.1483 17.8899 23.1998 17.2599C23.25 16.6456 23.25 15.8851 23.25 14.9327V9.06737C23.25 8.11496 23.25 7.35438 23.1998 6.74013C23.1483 6.11012 23.0404 5.56824 22.7868 5.07054C22.3793 4.27085 21.7291 3.62068 20.9295 3.21322C20.4318 2.95963 19.8899 2.85165 19.2599 2.80018C18.6456 2.74999 17.8851 2.74999 16.9326 2.75Z" fill="#000"/>
<path d="M7.50003 7C6.39546 7 5.50003 7.89543 5.50003 9C5.50003 10.1046 6.39546 11 7.50003 11C8.6046 11 9.50003 10.1046 9.50003 9C9.50003 7.89543 8.6046 7 7.50003 7Z" fill="#000"/>
<path d="M17.7375 9.15709C17.0541 8.47369 15.946 8.47368 15.2626 9.15707L9.49932 14.9201L8.25668 13.6772C7.57325 12.9936 6.46501 12.9935 5.78155 13.6771L1.36808 18.0913C1.13632 18.3231 1.08194 18.6785 1.23379 18.969C1.64239 19.7506 2.28425 20.3861 3.07075 20.7869C3.56845 21.0405 4.11033 21.1485 4.74034 21.1999C5.3546 21.2501 6.11514 21.2501 7.06758 21.2501H16.9328C17.8853 21.2501 18.6458 21.2501 19.2601 21.1999C19.8901 21.1485 20.432 21.0405 20.9297 20.7869C21.7294 20.3794 22.3795 19.7293 22.787 18.9296C23.0371 18.4386 23.1455 17.9049 23.1979 17.2861C23.2495 16.6761 23.2502 15.9226 23.2502 14.9805C23.2502 14.7816 23.1712 14.5908 23.0305 14.4502L17.7375 9.15709Z" fill="#000"/>
</svg>
