<svg width="24" height="24" viewBox="0 0 24 24" fill="none" xmlns="http://www.w3.org/2000/svg">
<path opacity="0.4" d="M16.4326 2.25H6.56739C5.61495 2.24999 4.85439 2.24999 4.24013 2.30018C3.61012 2.35165 3.06824 2.45963 2.57054 2.71322C1.77085 3.12068 1.12068 3.77085 0.713223 4.57054C0.459634 5.06824 0.35165 5.61012 0.300176 6.24013C0.249989 6.85439 0.249994 7.61494 0.25 8.56738V14.4326C0.249994 15.3851 0.249989 16.1456 0.300176 16.7599C0.35165 17.3899 0.459634 17.9318 0.713223 18.4295C1.12068 19.2291 1.77085 19.8793 2.57054 20.2868C3.06824 20.5404 3.61012 20.6483 4.24013 20.6998C4.85438 20.75 5.6149 20.75 6.5673 20.75H11.9652C12.1812 20.75 12.3866 20.6569 12.529 20.4946C12.6714 20.3322 12.7369 20.1164 12.7088 19.9023C12.67 19.6073 12.65 19.3062 12.65 19C12.65 15.2168 15.7168 12.15 19.5 12.15C20.2907 12.15 21.0487 12.2837 21.7534 12.5291C21.9827 12.6089 22.2365 12.5728 22.4345 12.4321C22.6324 12.2914 22.75 12.0636 22.75 11.8208V8.56737C22.75 7.61496 22.75 6.85438 22.6998 6.24013C22.6483 5.61012 22.5404 5.06824 22.2868 4.57054C21.8793 3.77085 21.2291 3.12068 20.4295 2.71322C19.9318 2.45963 19.3899 2.35165 18.7599 2.30018C18.1456 2.24999 17.3851 2.24999 16.4326 2.25Z" fill="#000"/>
<path d="M5.00003 8.5C5.00003 7.39543 5.89546 6.5 7.00003 6.5C8.1046 6.5 9.00003 7.39543 9.00003 8.5C9.00003 9.60457 8.1046 10.5 7.00003 10.5C5.89546 10.5 5.00003 9.60457 5.00003 8.5Z" fill="#000"/>
<path d="M14.7626 8.65707C15.446 7.97368 16.5541 7.97369 17.2375 8.65709L19.4704 10.89C19.6779 11.0975 19.7453 11.4069 19.6429 11.682C19.5405 11.957 19.2872 12.147 18.9945 12.1683C15.4478 12.4266 12.65 15.3869 12.65 19C12.65 19.3062 12.6701 19.6074 12.7088 19.9024C12.737 20.1165 12.6715 20.3323 12.5291 20.4947C12.3867 20.657 12.1812 20.7501 11.9652 20.7501H6.56758C5.61514 20.7501 4.8546 20.7501 4.24034 20.6999C3.61033 20.6485 3.06845 20.5405 2.57075 20.2869C1.78425 19.8861 1.14239 19.2506 0.733794 18.469C0.581941 18.1785 0.636324 17.8231 0.868085 17.5913L5.28155 13.1771C5.96501 12.4935 7.07325 12.4936 7.75668 13.1772L8.99932 14.4201L14.7626 8.65707Z" fill="#000"/>
<path d="M23.5304 17.0303C23.8233 16.7374 23.8233 16.2626 23.5304 15.9697C23.2375 15.6768 22.7626 15.6768 22.4697 15.9697L18.5 19.9393L16.5304 17.9697C16.2375 17.6768 15.7626 17.6768 15.4697 17.9697C15.1768 18.2626 15.1768 18.7374 15.4697 19.0303L17.9697 21.5303C18.2626 21.8232 18.7375 21.8232 19.0304 21.5303L23.5304 17.0303Z" fill="#000"/>
</svg>
