<svg width="24" height="24" viewBox="0 0 24 24" fill="none" xmlns="http://www.w3.org/2000/svg">
<path opacity="0.4" d="M16.4326 2.75H6.56739C5.61495 2.74999 4.85439 2.74999 4.24013 2.80018C3.61012 2.85165 3.06824 2.95963 2.57054 3.21322C1.77085 3.62068 1.12068 4.27085 0.713223 5.07054C0.459634 5.56824 0.35165 6.11012 0.300176 6.74013C0.249989 7.35439 0.249994 8.11494 0.25 9.06738V14.9326C0.249994 15.8851 0.249989 16.6456 0.300176 17.2599C0.35165 17.8899 0.459634 18.4318 0.713223 18.9295C1.12068 19.7291 1.77085 20.3793 2.57054 20.7868C3.06824 21.0404 3.61012 21.1483 4.24013 21.1998C4.85438 21.25 5.6149 21.25 6.5673 21.25H12.9652C13.1812 21.25 13.3866 21.1569 13.529 20.9946C13.6714 20.8322 13.7369 20.6164 13.7088 20.4023C13.67 20.1073 13.65 19.8062 13.65 19.5C13.65 15.7168 16.7169 12.65 20.5 12.65C20.9638 12.65 21.4161 12.696 21.8528 12.7834C22.0731 12.8275 22.3016 12.7705 22.4754 12.628C22.6492 12.4856 22.75 12.2727 22.75 12.048V9.06737C22.75 8.11496 22.75 7.35438 22.6998 6.74013C22.6483 6.11012 22.5404 5.56824 22.2868 5.07054C21.8793 4.27085 21.2291 3.62068 20.4295 3.21322C19.9318 2.95963 19.3899 2.85165 18.7599 2.80018C18.1456 2.74999 17.3851 2.74999 16.4326 2.75Z" fill="#000"/>
<path d="M5 9C5 7.89543 5.89543 7 7 7C8.10457 7 9 7.89543 9 9C9 10.1046 8.10457 11 7 11C5.89543 11 5 10.1046 5 9Z" fill="#000"/>
<path d="M14.7626 9.15707C15.446 8.47368 16.5541 8.47369 17.2375 9.15709L19.5869 11.5066C19.7832 11.7029 19.855 11.9915 19.7736 12.2569C19.6922 12.5223 19.4708 12.721 19.1982 12.7734C16.0376 13.3811 13.65 16.1625 13.65 19.5C13.65 19.8062 13.6701 20.1074 13.7088 20.4024C13.737 20.6165 13.6715 20.8323 13.5291 20.9947C13.3867 21.157 13.1812 21.2501 12.9652 21.2501H6.56758C5.61514 21.2501 4.8546 21.2501 4.24034 21.1999C3.61033 21.1485 3.06845 21.0405 2.57075 20.7869C1.78425 20.3861 1.14239 19.7506 0.733794 18.969C0.581941 18.6785 0.636324 18.3231 0.868085 18.0913L5.28155 13.6771C5.96501 12.9935 7.07325 12.9936 7.75668 13.6772L8.99932 14.9201L14.7626 9.15707Z" fill="#000"/>
<path d="M23 19.25C23.4142 19.25 23.75 18.9142 23.75 18.5C23.75 18.0858 23.4142 17.75 23 17.75H17C16.5858 17.75 16.25 18.0858 16.25 18.5C16.25 18.9142 16.5858 19.25 17 19.25H23Z" fill="#000"/>
</svg>
