<svg width="24" height="24" viewBox="0 0 24 24" fill="none" xmlns="http://www.w3.org/2000/svg">
<path opacity="0.4" d="M16.4326 2.25H6.56739C5.61495 2.24999 4.85439 2.24999 4.24013 2.30018C3.61012 2.35165 3.06824 2.45963 2.57054 2.71322C1.77085 3.12068 1.12068 3.77085 0.713223 4.57054C0.459634 5.06824 0.35165 5.61012 0.300176 6.24013C0.249989 6.85439 0.249994 7.61494 0.25 8.56738V14.4326C0.249994 15.3851 0.249989 16.1456 0.300176 16.7599C0.35165 17.3899 0.459634 17.9318 0.713223 18.4295C1.12068 19.2291 1.77085 19.8793 2.57054 20.2868C3.06824 20.5404 3.61012 20.6483 4.24013 20.6998C4.85438 20.75 5.6149 20.75 6.5673 20.75H13.1659C13.3996 20.75 13.6199 20.6411 13.7618 20.4554C13.9037 20.2698 13.9509 20.0286 13.8896 19.8031C13.7335 19.2294 13.65 18.6251 13.65 18C13.65 14.2168 16.7169 11.15 20.5 11.15C20.9638 11.15 21.4161 11.196 21.8528 11.2834C22.0731 11.3275 22.3016 11.2705 22.4754 11.128C22.6492 10.9856 22.75 10.7727 22.75 10.548V8.56737C22.75 7.61496 22.75 6.85438 22.6998 6.24013C22.6483 5.61012 22.5404 5.06824 22.2868 4.57054C21.8793 3.77085 21.2291 3.12068 20.4295 2.71322C19.9318 2.45963 19.3899 2.35165 18.7599 2.30018C18.1456 2.24999 17.3851 2.24999 16.4326 2.25Z" fill="#000"/>
<path d="M20 21.75C19.5858 21.75 19.25 21.4142 19.25 21V15.8107L17.5303 17.5303C17.2374 17.8232 16.7626 17.8232 16.4697 17.5303C16.1768 17.2374 16.1768 16.7626 16.4697 16.4697L19.4697 13.4697C19.6103 13.329 19.8011 13.25 20 13.25C20.1989 13.25 20.3897 13.329 20.5303 13.4697L23.5303 16.4697C23.8232 16.7626 23.8232 17.2374 23.5303 17.5303C23.2374 17.8232 22.7626 17.8232 22.4697 17.5303L20.75 15.8107V21C20.75 21.4142 20.4142 21.75 20 21.75Z" fill="#000"/>
<path d="M17.2375 8.65709C16.5541 7.97369 15.446 7.97367 14.7626 8.65707L8.99932 14.4201L7.75668 13.1772C7.07325 12.4936 5.96502 12.4935 5.28156 13.1771L0.868085 17.5913C0.636323 17.8231 0.581941 18.1785 0.733795 18.469C1.14239 19.2506 1.78425 19.8861 2.57075 20.2869C3.06845 20.5405 3.61033 20.6485 4.24034 20.6999C4.8546 20.7501 5.61514 20.7501 6.56758 20.7501H13.166C13.3996 20.7501 13.6199 20.6412 13.7618 20.4555C13.9037 20.2699 13.951 20.0287 13.8896 19.8032C13.7336 19.2295 13.65 18.6251 13.65 18C13.65 14.9219 15.6808 12.3162 18.4775 11.4533C18.7287 11.3758 18.921 11.1723 18.9843 10.9171C19.0476 10.6619 18.9726 10.3922 18.7867 10.2063L17.2375 8.65709Z" fill="#000"/>
<path d="M7 6.5C5.89543 6.5 5 7.39543 5 8.5C5 9.60457 5.89543 10.5 7 10.5C8.10457 10.5 9 9.60457 9 8.5C9 7.39543 8.10457 6.5 7 6.5Z" fill="#000"/>
</svg>
