<svg width="24" height="24" viewBox="0 0 24 24" fill="none" xmlns="http://www.w3.org/2000/svg">
<path opacity="0.4" d="M16.4326 2.25H6.56739C5.61495 2.24999 4.85439 2.24999 4.24013 2.30018C3.61012 2.35165 3.06824 2.45963 2.57054 2.71322C1.77085 3.12068 1.12068 3.77085 0.713223 4.57054C0.459634 5.06824 0.35165 5.61012 0.300176 6.24013C0.249989 6.85439 0.249994 7.61494 0.25 8.56738V14.4326C0.249994 15.3851 0.249989 16.1456 0.300176 16.7599C0.35165 17.3899 0.459634 17.9318 0.713223 18.4295C1.12068 19.2291 1.77085 19.8793 2.57054 20.2868C3.06824 20.5404 3.61012 20.6483 4.24013 20.6998C4.85438 20.75 5.6149 20.75 6.5673 20.75H12.9652C13.1812 20.75 13.3866 20.6569 13.529 20.4946C13.6714 20.3322 13.7369 20.1164 13.7088 19.9023C13.67 19.6073 13.65 19.3062 13.65 19C13.65 15.2168 16.7169 12.15 20.5 12.15C20.9638 12.15 21.4161 12.196 21.8528 12.2834C22.0731 12.3275 22.3016 12.2705 22.4754 12.128C22.6492 11.9856 22.75 11.7727 22.75 11.548V8.56737C22.75 7.61496 22.75 6.85438 22.6998 6.24013C22.6483 5.61012 22.5404 5.06824 22.2868 4.57054C21.8793 3.77085 21.2291 3.12068 20.4295 2.71322C19.9318 2.45963 19.3899 2.35165 18.7599 2.30018C18.1456 2.24999 17.3851 2.24999 16.4326 2.25Z" fill="#000"/>
<path d="M7 6.5C5.89543 6.5 5 7.39543 5 8.5C5 9.60457 5.89543 10.5 7 10.5C8.10457 10.5 9 9.60457 9 8.5C9 7.39543 8.10457 6.5 7 6.5Z" fill="#000"/>
<path d="M17.2375 8.65709C16.5541 7.97369 15.446 7.97368 14.7626 8.65707L8.99932 14.4201L7.75668 13.1772C7.07325 12.4936 5.96501 12.4935 5.28155 13.1771L0.868085 17.5913C0.636324 17.8231 0.581941 18.1785 0.733794 18.469C1.14239 19.2506 1.78425 19.8861 2.57075 20.2869C3.06845 20.5405 3.61033 20.6485 4.24034 20.6999C4.8546 20.7501 5.61514 20.7501 6.56758 20.7501H12.9652C13.1812 20.7501 13.3867 20.657 13.5291 20.4947C13.6715 20.3323 13.737 20.1165 13.7088 19.9024C13.6701 19.6074 13.65 19.3062 13.65 19C13.65 15.6625 16.0376 12.8811 19.1982 12.2734C19.4708 12.221 19.6922 12.0223 19.7736 11.7569C19.855 11.4915 19.7832 11.2029 19.5869 11.0066L17.2375 8.65709Z" fill="#000"/>
<path d="M23.75 18C23.75 18.4142 23.4142 18.75 23 18.75H20.75V21C20.75 21.4142 20.4142 21.75 20 21.75C19.5858 21.75 19.25 21.4142 19.25 21V18.75H17C16.5858 18.75 16.25 18.4142 16.25 18C16.25 17.5858 16.5858 17.25 17 17.25H19.25V15C19.25 14.5858 19.5858 14.25 20 14.25C20.4142 14.25 20.75 14.5858 20.75 15V17.25H23C23.4142 17.25 23.75 17.5858 23.75 18Z" fill="#000"/>
</svg>
