<svg width="24" height="24" viewBox="0 0 24 24" fill="none" xmlns="http://www.w3.org/2000/svg">
<path opacity="0.4" d="M7.95917 6.25003C7.3017 6.24971 6.82201 6.24948 6.37232 6.38131C5.97585 6.49754 5.60519 6.68829 5.28017 6.94335C4.91152 7.23266 4.63289 7.62313 4.25101 8.15832L0.80868 12.9776C0.670146 13.1712 0.54792 13.3421 0.458806 13.5343C0.380432 13.7033 0.323355 13.8814 0.288886 14.0645C0.249695 14.2727 0.249849 14.4828 0.250023 14.7209L0.250046 19.0315C0.250037 19.7049 0.25003 20.2556 0.286598 20.7031C0.324448 21.1664 0.405183 21.5848 0.604275 21.9755C0.915864 22.5871 1.41305 23.0842 2.02458 23.3958C2.41532 23.5949 2.83372 23.6757 3.29698 23.7135C3.74454 23.7501 4.29524 23.7501 4.96861 23.7501H19.0315C19.7049 23.7501 20.2556 23.7501 20.7031 23.7135C21.1664 23.6757 21.5848 23.5949 21.9755 23.3958C22.587 23.0842 23.0842 22.5871 23.3958 21.9755C23.5949 21.5848 23.6756 21.1664 23.7135 20.7031C23.7501 20.2556 23.7501 19.7049 23.75 19.0315L23.7501 14.7209C23.7502 14.4828 23.7504 14.2727 23.7112 14.0645C23.6767 13.8814 23.6197 13.7033 23.5413 13.5343C23.4522 13.3421 23.33 13.1713 23.1914 12.9776L19.7491 8.1583C19.3672 7.62312 19.0886 7.23266 18.7199 6.94335C18.3949 6.68829 18.0242 6.49754 17.6278 6.38131C17.1781 6.24948 16.6984 6.24971 16.0409 6.25003H7.95917Z" fill="#000"/>
<path d="M14.4697 4.53033C14.7626 4.82322 15.2374 4.82322 15.5303 4.53033C15.8232 4.23744 15.8232 3.76256 15.5303 3.46967L12.5303 0.46967C12.3897 0.329017 12.1989 0.25 12 0.25C11.8011 0.25 11.6103 0.329017 11.4697 0.469669L8.46967 3.46967C8.17678 3.76256 8.17678 4.23744 8.46967 4.53033C8.76256 4.82322 9.23744 4.82322 9.53033 4.53033L11.25 2.81066L11.25 13C11.25 13.4142 11.5858 13.75 12 13.75C12.4142 13.75 12.75 13.4142 12.75 13L12.75 2.81066L14.4697 4.53033Z" fill="#000"/>
<path d="M1 13.75C0.585786 13.75 0.25 14.0858 0.25 14.5V20.5C0.25 22.2949 1.70507 23.75 3.5 23.75H20.5C22.2949 23.75 23.75 22.2949 23.75 20.5V14.5C23.75 14.0858 23.4142 13.75 23 13.75H16.7831C16.344 13.75 15.9371 13.9804 15.7112 14.3569L14.7938 15.8859C14.6583 16.1118 14.4142 16.25 14.1507 16.25H9.84929C9.58584 16.25 9.34171 16.1118 9.20617 15.8859L8.28877 14.3569C8.06287 13.9804 7.65598 13.75 7.2169 13.75H1Z" fill="#000"/>
</svg>
