<svg width="24" height="24" viewBox="0 0 24 24" fill="none" xmlns="http://www.w3.org/2000/svg">
<path opacity="0.4" d="M6.9656 2.25006C6.32514 2.24951 5.82244 2.24908 5.36773 2.41289C4.96836 2.55676 4.60772 2.79113 4.31405 3.09764C3.97969 3.44663 3.77592 3.90619 3.51631 4.49167L0.508511 11.2593C0.443921 11.4045 0.386906 11.5326 0.345754 11.6691C0.309524 11.7893 0.283417 11.9123 0.267707 12.0369C0.249863 12.1784 0.249932 12.3186 0.25001 12.4774L0.25002 17.0315C0.250012 17.7049 0.250004 18.2556 0.286572 18.7032C0.324422 19.1665 0.405157 19.5849 0.604249 19.9756C0.915838 20.5871 1.41302 21.0843 2.02455 21.3959C2.41529 21.595 2.83369 21.6757 3.29695 21.7136C3.74451 21.7501 4.29521 21.7501 4.96858 21.7501H19.0315C19.7048 21.7501 20.2555 21.7501 20.7031 21.7136C21.1664 21.6757 21.5847 21.595 21.9755 21.3959C22.587 21.0843 23.0842 20.5871 23.3958 19.9756C23.5949 19.5849 23.6756 19.1665 23.7135 18.7032C23.75 18.2556 23.75 17.7049 23.75 17.0316L23.75 12.4774C23.7501 12.3186 23.7502 12.1783 23.7323 12.0369C23.7166 11.9123 23.6905 11.7893 23.6543 11.6691C23.6131 11.5326 23.5561 11.4045 23.4916 11.2594L20.4837 4.49166C20.2241 3.90619 20.0204 3.44663 19.686 3.09764C19.3923 2.79113 19.0317 2.55676 18.6323 2.41289C18.1776 2.24908 17.6749 2.24951 17.0344 2.25006H6.9656Z" fill="#000"/>
<path d="M7.2169 11.75H0.25V18.5C0.25 20.2949 1.70507 21.75 3.5 21.75H20.5C22.2949 21.75 23.75 20.2949 23.75 18.5V11.75H16.7831C16.344 11.75 15.9371 11.9804 15.7112 12.3569L14.7938 13.8859C14.6583 14.1118 14.4142 14.25 14.1507 14.25H9.84929C9.58584 14.25 9.34171 14.1118 9.20617 13.8859L8.28877 12.3569C8.06287 11.9804 7.65598 11.75 7.2169 11.75Z" fill="#000"/>
</svg>
