<svg width="24" height="24" viewBox="0 0 24 24" fill="none" xmlns="http://www.w3.org/2000/svg">
<path opacity="0.4" d="M6.9656 2.24994C6.32514 2.24939 5.82244 2.24896 5.36773 2.41277C4.96836 2.55664 4.60772 2.79101 4.31405 3.09752C3.97969 3.44651 3.77592 3.90607 3.51631 4.49154L0.508511 11.2592C0.443921 11.4043 0.386906 11.5325 0.345754 11.669C0.309524 11.7892 0.283417 11.9122 0.267707 12.0368C0.249863 12.1782 0.249932 12.3185 0.25001 12.4773L0.25002 17.0314C0.250012 17.7048 0.250004 18.2555 0.286572 18.7031C0.324422 19.1663 0.405157 19.5847 0.604249 19.9755C0.915838 20.587 1.41302 21.0842 2.02455 21.3958C2.41529 21.5949 2.83369 21.6756 3.29695 21.7135C3.74451 21.75 4.29521 21.75 4.96858 21.75H19.0315C19.7048 21.75 20.2555 21.75 20.7031 21.7135C21.1664 21.6756 21.5847 21.5949 21.9755 21.3958C22.587 21.0842 23.0842 20.587 23.3958 19.9755C23.5949 19.5847 23.6756 19.1663 23.7135 18.7031C23.75 18.2555 23.75 17.7048 23.75 17.0314L23.75 12.4773C23.7501 12.3185 23.7502 12.1782 23.7323 12.0368C23.7166 11.9122 23.6905 11.7892 23.6543 11.669C23.6131 11.5325 23.5561 11.4044 23.4916 11.2593L20.4837 4.49154C20.2241 3.90606 20.0204 3.44651 19.686 3.09752C19.3923 2.79101 19.0317 2.55664 18.6323 2.41277C18.1776 2.24896 17.6749 2.24939 17.0344 2.24994H6.9656Z" fill="#000"/>
<path d="M7.2169 11.75H0.25V18.5C0.25 20.2949 1.70507 21.75 3.5 21.75H20.5C22.2949 21.75 23.75 20.2949 23.75 18.5V11.75H16.7831C16.344 11.75 15.9371 11.9804 15.7112 12.3569L14.7938 13.8859C14.6583 14.1118 14.4142 14.25 14.1507 14.25H9.84929C9.58584 14.25 9.34171 14.1118 9.20617 13.8859L8.28877 12.3569C8.06287 11.9804 7.65598 11.75 7.2169 11.75Z" fill="#000"/>
</svg>
