<svg width="24" height="24" viewBox="0 0 24 24" fill="none" xmlns="http://www.w3.org/2000/svg">
<path opacity="0.4" d="M14.9326 1.25H9.06739C8.11495 1.24999 7.35439 1.24999 6.74013 1.30018C6.11012 1.35165 5.56824 1.45963 5.07054 1.71322C4.27085 2.12068 3.62068 2.77085 3.21322 3.57054C2.95963 4.06824 2.85165 4.61012 2.80018 5.24013C2.74999 5.85439 2.74999 6.61494 2.75 7.56738V16.4326C2.74999 17.3851 2.74999 18.1456 2.80018 18.7599C2.85165 19.3899 2.95963 19.9318 3.21322 20.4295C3.62068 21.2291 4.27085 21.8793 5.07054 22.2868C5.56824 22.5404 6.11012 22.6483 6.74013 22.6998C7.35438 22.75 8.1149 22.75 9.0673 22.75H14.9326C15.885 22.75 16.6456 22.75 17.2599 22.6998C17.8899 22.6483 18.4318 22.5404 18.9295 22.2868C19.7291 21.8793 20.3793 21.2291 20.7868 20.4295C21.0404 19.9318 21.1483 19.3899 21.1998 18.7599C21.25 18.1456 21.25 17.3851 21.25 16.4327V7.56737C21.25 6.61496 21.25 5.85438 21.1998 5.24013C21.1483 4.61012 21.0404 4.06824 20.7868 3.57054C20.3793 2.77085 19.7291 2.12068 18.9295 1.71322C18.4318 1.45963 17.8899 1.35165 17.2599 1.30018C16.6456 1.24999 15.8851 1.24999 14.9326 1.25Z" fill="#000"/>
<path d="M8.65002 5.63235C8.33987 5.70466 8.05013 5.82697 7.80005 6.00809C7.33342 6.34604 7.04997 6.86103 7.04997 7.47252C7.04997 8.26651 7.49905 8.76736 7.99363 9.04421C8.44082 9.29454 8.96143 9.38749 9.27667 9.44003C9.60143 9.49415 9.88082 9.5572 10.0736 9.66513C10.1599 9.71342 10.1987 9.75499 10.2163 9.78142C10.2292 9.80066 10.25 9.83852 10.25 9.92795C10.25 10.0387 10.2134 10.1099 10.1201 10.1775C10.0042 10.2614 9.77346 10.3502 9.39997 10.3502C9.13936 10.3502 9.00075 10.3225 8.8765 10.2733C8.73473 10.217 8.561 10.1126 8.25272 9.87921C7.9225 9.62916 7.45209 9.69416 7.20204 10.0244C6.95199 10.3546 7.01699 10.825 7.34721 11.0751C7.67894 11.3262 7.98521 11.5334 8.32344 11.6676C8.43316 11.7111 8.54151 11.7451 8.65002 11.7714V11.9003C8.65002 12.3145 8.98581 12.6503 9.40002 12.6503C9.81424 12.6503 10.15 12.3145 10.15 11.9003V11.7681C10.4601 11.6958 10.7498 11.5735 10.9999 11.3924C11.4665 11.0544 11.75 10.5394 11.75 9.92795C11.75 9.13395 11.3009 8.63311 10.8063 8.35625C10.3591 8.10592 9.83851 8.01298 9.52327 7.96044C9.19851 7.90631 8.91912 7.84326 8.72631 7.73533C8.64006 7.68705 8.60126 7.64548 8.58361 7.61905C8.57075 7.59981 8.54997 7.56194 8.54997 7.47252C8.54997 7.36172 8.58652 7.29057 8.67989 7.22295C8.79573 7.13905 9.02648 7.05023 9.39997 7.05023C9.6606 7.05023 9.79921 7.07792 9.92346 7.1272C10.0652 7.18343 10.2389 7.2878 10.5472 7.52122C10.8774 7.77127 11.3478 7.70627 11.5979 7.37605C11.8479 7.04582 11.783 6.57542 11.4527 6.32537C11.121 6.07418 10.8147 5.86702 10.4765 5.73287C10.3668 5.68937 10.2585 5.65533 10.15 5.62906V5.50024C10.15 5.08603 9.81424 4.75024 9.40002 4.75024C8.98581 4.75024 8.65002 5.08603 8.65002 5.50024V5.63235Z" fill="#000"/>
<path d="M6.75 14.5001C6.75 14.0858 7.08579 13.7501 7.5 13.7501H16.5C16.9142 13.7501 17.25 14.0858 17.25 14.5001C17.25 14.9143 16.9142 15.2501 16.5 15.2501H7.5C7.08579 15.2501 6.75 14.9143 6.75 14.5001Z" fill="#000"/>
<path d="M14.25 7.75006C13.8358 7.75006 13.5 8.08585 13.5 8.50006C13.5 8.91427 13.8358 9.25006 14.25 9.25006H16.5C16.9142 9.25006 17.25 8.91427 17.25 8.50006C17.25 8.08585 16.9142 7.75006 16.5 7.75006H14.25Z" fill="#000"/>
<path d="M13.5 11.5001C13.5 11.0858 13.8358 10.7501 14.25 10.7501H16.5C16.9142 10.7501 17.25 11.0858 17.25 11.5001C17.25 11.9143 16.9142 12.2501 16.5 12.2501H14.25C13.8358 12.2501 13.5 11.9143 13.5 11.5001Z" fill="#000"/>
<path d="M7.5 16.7501C7.08579 16.7501 6.75 17.0858 6.75 17.5001C6.75 17.9143 7.08579 18.2501 7.5 18.2501H16.5C16.9142 18.2501 17.25 17.9143 17.25 17.5001C17.25 17.0858 16.9142 16.7501 16.5 16.7501H7.5Z" fill="#000"/>
</svg>
