<svg width="24" height="24" viewBox="0 0 24 24" fill="none" xmlns="http://www.w3.org/2000/svg">
<path opacity="0.4" d="M12.5663 1.29199C12.1911 1.2347 11.8094 1.2347 11.4343 1.29198C11.0098 1.35678 10.6066 1.51738 10.0242 1.74937L4.1216 4.09853C3.33052 4.41282 2.75456 4.64164 2.31737 5.03795C1.93283 5.38652 1.63737 5.82211 1.45571 6.30828C1.24916 6.86104 1.24953 7.48078 1.25005 8.33201V15.6683C1.24953 16.5195 1.24916 17.1393 1.45571 17.692C1.63738 18.1782 1.93284 18.6138 2.31737 18.9623C2.75457 19.3587 3.33053 19.5875 4.12161 19.9018L10.0242 22.2509C10.6066 22.4829 11.0098 22.6435 11.4343 22.7083C11.8094 22.7656 12.1911 22.7656 12.5662 22.7083C12.9907 22.6435 13.3938 22.4829 13.9762 22.2509L19.8786 19.9018C20.6697 19.5875 21.2457 19.3587 21.6829 18.9623C22.0674 18.6138 22.3628 18.1782 22.5445 17.692C22.751 17.1393 22.7507 16.5195 22.7502 15.6683V8.33198C22.7507 7.48077 22.751 6.86102 22.5445 6.30827C22.3628 5.82211 22.0674 5.38652 21.6829 5.03795C21.2457 4.64164 20.6697 4.41281 19.8786 4.09852L13.9763 1.74939C13.3939 1.5174 12.9907 1.35679 12.5663 1.29199Z" fill="#000"/>
<path d="M22.75 9.97569L13.9778 6.48078C13.3949 6.24836 12.9913 6.08746 12.5665 6.02253C12.191 5.96515 11.809 5.96515 11.4335 6.02253C11.0087 6.08745 10.6051 6.24835 10.0222 6.48076L1.25 9.97559V11.5903L10.501 7.90468C11.1893 7.63049 11.4257 7.54114 11.6601 7.50531C11.8854 7.47088 12.1146 7.47089 12.3399 7.50532C12.5743 7.54114 12.8107 7.6305 13.4989 7.90469L22.75 11.5904V9.97569Z" fill="#000"/>
<path d="M22.75 13.4756L22.3446 13.3141C22.3229 13.3028 22.3004 13.2926 22.2772 13.2833L20.0546 12.3987C19.6697 12.2455 19.2336 12.4334 19.0804 12.8182C18.9272 13.2031 19.115 13.6392 19.4999 13.7924L20.6588 14.2536C20.6793 14.2641 20.7005 14.2737 20.7223 14.2824L22.75 15.0902V13.4756Z" fill="#000"/>
<path d="M1.25 15.0901L3.27751 14.2824C3.29938 14.2737 3.32061 14.264 3.34117 14.2536L4.49988 13.7924C4.88474 13.6392 5.07256 13.2031 4.91939 12.8182C4.76622 12.4334 4.33006 12.2455 3.94521 12.3987L1.72251 13.2833C1.69924 13.2926 1.67669 13.3029 1.65489 13.3142L1.25 13.4755V15.0901Z" fill="#000"/>
<path d="M12.832 11.1385C12.2977 10.9259 11.7023 10.9259 11.168 11.1385L8.94527 12.0232C8.56042 12.1763 8.12427 11.9885 7.9711 11.6037C7.81793 11.2188 8.00575 10.7826 8.3906 10.6295L10.6133 9.74486C11.5038 9.39044 12.4962 9.39045 13.3867 9.74487L15.6093 10.6295C15.9942 10.7827 16.182 11.2188 16.0288 11.6037C15.8756 11.9885 15.4395 12.1763 15.0546 12.0232L12.832 11.1385Z" fill="#000"/>
</svg>
