<svg width="24" height="24" viewBox="0 0 24 24" fill="none" xmlns="http://www.w3.org/2000/svg">
<path opacity="0.4" d="M15.633 1.25H8.367C7.27486 1.24999 6.40936 1.24999 5.71173 1.30699C4.99835 1.36527 4.39472 1.48688 3.84355 1.76772C2.94978 2.22312 2.22312 2.94978 1.76772 3.84355C1.48688 4.39472 1.36527 4.99834 1.30699 5.71173C1.24999 6.40935 1.24999 7.27485 1.25 8.36699V15.633C1.24999 16.7251 1.24999 17.5906 1.30699 18.2883C1.36527 19.0017 1.48688 19.6053 1.76772 20.1565C2.22312 21.0502 2.94977 21.7769 3.84355 22.2323C4.39472 22.5131 4.99835 22.6347 5.71173 22.693C6.40935 22.75 7.27484 22.75 8.36698 22.75H15.633C16.7252 22.75 17.5906 22.75 18.2883 22.693C19.0017 22.6347 19.6053 22.5131 20.1565 22.2323C21.0502 21.7769 21.7769 21.0502 22.2323 20.1565C22.5131 19.6053 22.6347 19.0017 22.693 18.2883C22.75 17.5906 22.75 16.7252 22.75 15.633V8.36698C22.75 7.27484 22.75 6.40935 22.693 5.71173C22.6347 4.99835 22.5131 4.39472 22.2323 3.84355C21.7769 2.94977 21.0502 2.22312 20.1565 1.76772C19.6053 1.48688 19.0017 1.36527 18.2883 1.30699C17.5906 1.24999 16.7251 1.24999 15.633 1.25Z" fill="#000"/>
<path fill-rule="evenodd" clip-rule="evenodd" d="M10.9441 10.0554C9.87019 8.98153 8.12931 8.98153 7.05542 10.0554C5.98153 11.1293 5.98153 12.8702 7.05542 13.9441C8.12931 15.018 9.87019 15.018 10.9441 13.9441C11.2882 13.5999 11.5221 13.1873 11.6457 12.75H13.9807C13.9871 12.7502 13.9935 12.7502 14 12.7502C14.0065 12.7502 14.0129 12.7502 14.0193 12.75H17C17.4142 12.75 17.75 12.4142 17.75 12V10C17.75 9.58579 17.4142 9.25 17 9.25C16.5858 9.25 16.25 9.58579 16.25 10V11.25H14.75V10.5C14.75 10.0858 14.4142 9.75 14 9.75C13.5858 9.75 13.25 10.0858 13.25 10.5V11.25H11.6458C11.5223 10.8126 11.2884 10.3997 10.9441 10.0554ZM9.88342 11.1161C9.39531 10.628 8.60419 10.628 8.11608 11.1161C7.62797 11.6042 7.62797 12.3953 8.11608 12.8834C8.60419 13.3715 9.39531 13.3715 9.88342 12.8834C10.3715 12.3953 10.3715 11.6042 9.88342 11.1161Z" fill="#000"/>
</svg>
