<svg width="24" height="24" viewBox="0 0 24 24" fill="none" xmlns="http://www.w3.org/2000/svg">
<path opacity="0.4" d="M8.75 3C8.75 2.58579 8.41421 2.25 8 2.25C7.58579 2.25 7.25 2.58579 7.25 3V4.25H2C1.58579 4.25 1.25 4.58579 1.25 5C1.25 5.41421 1.58579 5.75 2 5.75H11.0461C10.5718 7.51782 9.90599 8.95135 8.91043 10.2184C8.63557 10.5682 8.33344 10.9081 8.00008 11.2408C7.19121 10.4335 6.5644 9.58214 6.06555 8.64702C5.8706 8.28156 5.41628 8.14334 5.05082 8.33829C4.68535 8.53325 4.54713 8.98757 4.74209 9.35303C5.30575 10.4096 6.00565 11.358 6.8778 12.2396C5.98696 12.952 4.9224 13.6426 3.64103 14.3416C3.2774 14.5399 3.1434 14.9955 3.34175 15.3591C3.5401 15.7228 3.99568 15.8567 4.35931 15.6584C5.7815 14.8827 6.98357 14.0975 8.00008 13.2606C9.015 14.0962 10.2166 14.8816 11.6409 15.6584C12.0045 15.8568 12.4601 15.7228 12.6584 15.3592C12.8568 14.9955 12.7228 14.54 12.3591 14.3416C11.0796 13.6436 10.0146 12.9532 9.12228 12.2396C9.47146 11.8866 9.79327 11.5227 10.0899 11.1452C11.3151 9.58586 12.0785 7.83556 12.5951 5.75H14C14.4142 5.75 14.75 5.41421 14.75 5C14.75 4.58579 14.4142 4.25 14 4.25H12.016C12.0049 4.24976 11.9939 4.24976 11.9829 4.25H8.75V3Z" fill="#000"/>
<path fill-rule="evenodd" clip-rule="evenodd" d="M17.5002 10.25C17.7953 10.25 18.063 10.4231 18.1841 10.6922L21.3275 17.6774C21.3322 17.6874 21.3368 17.6976 21.3411 17.7078L22.6841 20.6922C22.8541 21.07 22.6857 21.514 22.308 21.6839C21.9302 21.8539 21.4862 21.6855 21.3162 21.3078L20.1652 18.75H14.8351L13.6841 21.3078C13.5141 21.6855 13.0701 21.8539 12.6924 21.6839C12.3147 21.514 12.1463 21.07 12.3162 20.6922L13.6592 17.7078C13.6636 17.6976 13.6681 17.6874 13.6729 17.6775L16.8162 10.6922C16.9374 10.4231 17.2051 10.25 17.5002 10.25ZM15.5101 17.25H19.4902L17.5002 12.8276L15.5101 17.25Z" fill="#000"/>
</svg>
