<svg width="24" height="24" viewBox="0 0 24 24" fill="none" xmlns="http://www.w3.org/2000/svg">
<path opacity="0.4" d="M17.0314 3.25H6.96858C6.29521 3.24999 5.74449 3.24998 5.29693 3.28655C4.83367 3.3244 4.41527 3.40514 4.02453 3.60423C3.413 3.91582 2.91582 4.413 2.60423 5.02453C2.40514 5.41527 2.3244 5.83367 2.28655 6.29693C2.24998 6.74449 2.24999 7.2952 2.25 7.96857V17C2.25 17.4142 2.58579 17.75 3 17.75H21C21.4142 17.75 21.75 17.4142 21.75 17V7.96856C21.75 7.29519 21.75 6.74449 21.7134 6.29693C21.6756 5.83367 21.5949 5.41527 21.3958 5.02453C21.0842 4.413 20.587 3.91582 19.9755 3.60423C19.5847 3.40514 19.1663 3.3244 18.7031 3.28655C18.2555 3.24998 17.7048 3.24999 17.0314 3.25Z" fill="#000"/>
<path d="M10.5303 7.96967C10.8232 8.26256 10.8232 8.73744 10.5303 9.03033L9.06066 10.5L10.5303 11.9697C10.8232 12.2626 10.8232 12.7374 10.5303 13.0303C10.2374 13.3232 9.76256 13.3232 9.46967 13.0303L7.46967 11.0303C7.17678 10.7374 7.17678 10.2626 7.46967 9.96967L9.46967 7.96967C9.76256 7.67678 10.2374 7.67678 10.5303 7.96967Z" fill="#000"/>
<path d="M1 16.25C0.585786 16.25 0.25 16.5858 0.25 17V17.75C0.25 19.4069 1.59315 20.75 3.25 20.75H20.75C22.4069 20.75 23.75 19.4069 23.75 17.75V17C23.75 16.5858 23.4142 16.25 23 16.25H1Z" fill="#000"/>
<path d="M14.5303 7.96967C14.2374 7.67678 13.7626 7.67678 13.4697 7.96967C13.1768 8.26256 13.1768 8.73744 13.4697 9.03033L14.9393 10.5L13.4697 11.9697C13.1768 12.2626 13.1768 12.7374 13.4697 13.0303C13.7626 13.3232 14.2374 13.3232 14.5303 13.0303L16.5303 11.0303C16.8232 10.7374 16.8232 10.2626 16.5303 9.96967L14.5303 7.96967Z" fill="#000"/>
</svg>
