<svg width="24" height="24" viewBox="0 0 24 24" fill="none" xmlns="http://www.w3.org/2000/svg">
<path opacity="0.4" d="M17.0314 3.25H6.96858C6.29521 3.24999 5.74449 3.24998 5.29693 3.28655C4.83367 3.3244 4.41527 3.40514 4.02453 3.60423C3.413 3.91582 2.91582 4.413 2.60423 5.02453C2.40514 5.41527 2.3244 5.83367 2.28655 6.29693C2.24998 6.74449 2.24999 7.2952 2.25 7.96857V17C2.25 17.4142 2.58579 17.75 3 17.75H21C21.4142 17.75 21.75 17.4142 21.75 17V7.96856C21.75 7.29519 21.75 6.74449 21.7134 6.29693C21.6756 5.83367 21.5949 5.41527 21.3958 5.02453C21.0842 4.413 20.587 3.91582 19.9755 3.60423C19.5847 3.40514 19.1663 3.3244 18.7031 3.28655C18.2555 3.24998 17.7048 3.24999 17.0314 3.25Z" fill="#000"/>
<path d="M12 3.25C12.4142 3.25 12.75 3.58579 12.75 4V10.1893L14.4697 8.46967C14.7626 8.17678 15.2374 8.17678 15.5303 8.46967C15.8232 8.76256 15.8232 9.23744 15.5303 9.53033L12.5303 12.5303C12.3897 12.671 12.1989 12.75 12 12.75C11.8011 12.75 11.6103 12.671 11.4697 12.5303L8.46967 9.53033C8.17678 9.23744 8.17678 8.76256 8.46967 8.46967C8.76256 8.17678 9.23744 8.17678 9.53033 8.46967L11.25 10.1893V4C11.25 3.58579 11.5858 3.25 12 3.25Z" fill="#000"/>
<path d="M1 16.25C0.585786 16.25 0.25 16.5858 0.25 17V17.75C0.25 19.4069 1.59315 20.75 3.25 20.75H20.75C22.4069 20.75 23.75 19.4069 23.75 17.75V17C23.75 16.5858 23.4142 16.25 23 16.25H1Z" fill="#000"/>
</svg>
