<svg width="24" height="24" viewBox="0 0 24 24" fill="none" xmlns="http://www.w3.org/2000/svg">
<path opacity="0.4" d="M18.5314 3.25H5.46858C4.79521 3.24999 4.24449 3.24998 3.79693 3.28655C3.33367 3.3244 2.91527 3.40514 2.52453 3.60423C1.913 3.91582 1.41582 4.413 1.10423 5.02453C0.905137 5.41527 0.824402 5.83367 0.786552 6.29693C0.749985 6.74449 0.749992 7.2952 0.75 7.96857V16.0314C0.749992 16.7048 0.749985 17.2555 0.786552 17.7031C0.824402 18.1663 0.905137 18.5847 1.10423 18.9755C1.41582 19.587 1.91301 20.0842 2.52453 20.3958C2.91527 20.5949 3.33367 20.6756 3.79693 20.7134C4.24449 20.75 4.79519 20.75 5.46856 20.75H18.5314C19.2048 20.75 19.7555 20.75 20.2031 20.7134C20.6663 20.6756 21.0847 20.5949 21.4755 20.3958C22.087 20.0842 22.5842 19.587 22.8958 18.9755C23.0949 18.5847 23.1756 18.1663 23.2134 17.7031C23.25 17.2555 23.25 16.7048 23.25 16.0314V7.96856C23.25 7.29519 23.25 6.74449 23.2134 6.29693C23.1756 5.83367 23.0949 5.41527 22.8958 5.02453C22.5842 4.413 22.087 3.91582 21.4755 3.60423C21.0847 3.40514 20.6663 3.3244 20.2031 3.28655C19.7555 3.24998 19.2048 3.24999 18.5314 3.25Z" fill="#000"/>
<path d="M8 3.25H5.46858C4.79522 3.24999 4.24449 3.24999 3.79693 3.28655C3.33367 3.3244 2.91527 3.40514 2.52453 3.60423C1.91301 3.91582 1.41582 4.41301 1.10423 5.02453C0.905138 5.41527 0.824402 5.83367 0.786553 6.29693C0.749986 6.74449 0.749992 7.29519 0.75 7.96855V16.0314C0.749992 16.7048 0.749986 17.2555 0.786553 17.7031C0.824402 18.1663 0.905138 18.5847 1.10423 18.9755C1.41582 19.587 1.91301 20.0842 2.52453 20.3958C2.91527 20.5949 3.33367 20.6756 3.79693 20.7134C4.24449 20.75 4.79519 20.75 5.46856 20.75H8L8 3.25Z" fill="#000"/>
</svg>
