<svg width="24" height="24" viewBox="0 0 24 24" fill="none" xmlns="http://www.w3.org/2000/svg">
<path opacity="0.4" fill-rule="evenodd" clip-rule="evenodd" d="M12 0.25C5.51065 0.25 0.25 5.51065 0.25 12C0.25 18.4893 5.51065 23.75 12 23.75C18.4893 23.75 23.75 18.4893 23.75 12C23.75 5.51065 18.4893 0.25 12 0.25ZM7.75 12C7.75 9.65279 9.65279 7.75 12 7.75C14.3472 7.75 16.25 9.65279 16.25 12C16.25 14.3472 14.3472 16.25 12 16.25C9.65279 16.25 7.75 14.3472 7.75 12Z" fill="#000"/>
<path d="M19.7616 3.17798L14.4283 8.51132C14.8414 8.79937 15.2009 9.15891 15.4889 9.57201L20.8222 4.23865C20.4915 3.86303 20.1372 3.5087 19.7616 3.17798Z" fill="#000"/>
<path d="M20.822 19.7613L15.4887 14.428C15.2007 14.8411 14.8411 15.2006 14.428 15.4886L19.7613 20.822C20.137 20.4913 20.4913 20.1369 20.822 19.7613Z" fill="#000"/>
<path d="M4.23909 20.8219L9.5724 15.4886C9.1593 15.2006 8.79976 14.841 8.51171 14.428L3.17843 19.7613C3.50914 20.1369 3.86347 20.4912 4.23909 20.8219Z" fill="#000"/>
<path d="M3.17822 4.23868L8.51153 9.57204C8.79955 9.15894 9.15906 8.79939 9.57214 8.51134L4.23885 3.178C3.86325 3.50872 3.50893 3.86305 3.17822 4.23868Z" fill="#000"/>
</svg>
