<svg width="24" height="24" viewBox="0 0 24 24" fill="none" xmlns="http://www.w3.org/2000/svg">
<g opacity="0.4">
<path d="M14.2573 4.1571C15.7998 2.61463 18.3007 2.61463 19.8431 4.1571C21.3856 5.69957 21.3856 8.20041 19.8431 9.74289L16.7931 12.7929C16.4026 13.1834 16.4026 13.8166 16.7931 14.2071C17.1837 14.5976 17.8168 14.5976 18.2074 14.2071L21.2573 11.1571C23.5809 8.83358 23.5809 5.06641 21.2573 2.74288C18.9338 0.419364 15.1667 0.419364 12.8431 2.74289L9.79315 5.79287C9.40262 6.1834 9.40262 6.81656 9.79315 7.20709C10.1837 7.59761 10.8168 7.59761 11.2074 7.20709L14.2573 4.1571Z" fill="#000"/>
<path d="M14.2073 18.2071C14.5979 17.8166 14.5979 17.1834 14.2073 16.7929C13.8168 16.4024 13.1836 16.4024 12.7931 16.7929L9.74313 19.8429C8.20066 21.3854 5.69981 21.3854 4.15734 19.8429C2.61487 18.3004 2.61487 15.7996 4.15734 14.2571L7.20733 11.2071C7.59785 10.8166 7.59785 10.1834 7.20733 9.79289C6.81681 9.40237 6.18364 9.40237 5.79312 9.79289L2.74313 12.8429C0.419608 15.1664 0.419608 18.9336 2.74313 21.2571C5.06665 23.5806 8.83382 23.5806 11.1573 21.2571L14.2073 18.2071Z" fill="#000"/>
</g>
<path d="M2.70711 1.29289C2.31658 0.902369 1.68342 0.902369 1.29289 1.29289C0.902369 1.68342 0.902369 2.31658 1.29289 2.70711L10.5858 12L8.29289 14.2929C7.90237 14.6834 7.90237 15.3166 8.29289 15.7071C8.68342 16.0976 9.31658 16.0976 9.70711 15.7071L12 13.4142L21.2929 22.7071C21.6834 23.0976 22.3166 23.0976 22.7071 22.7071C23.0976 22.3166 23.0976 21.6834 22.7071 21.2929L12.7124 11.2982C12.7107 11.2964 12.7089 11.2946 12.7071 11.2929C12.7054 11.2911 12.7036 11.2893 12.7018 11.2876L2.70711 1.29289Z" fill="#000"/>
<path d="M15.7071 9.70711C16.0976 9.31658 16.0976 8.68342 15.7071 8.29289C15.3166 7.90237 14.6834 7.90237 14.2929 8.29289L13.2929 9.29287C12.9024 9.6834 12.9024 10.3166 13.2929 10.7071C13.6834 11.0976 14.3166 11.0976 14.7071 10.7071L15.7071 9.70711Z" fill="#000"/>
</svg>
