<svg width="24" height="24" viewBox="0 0 24 24" fill="none" xmlns="http://www.w3.org/2000/svg">
<g opacity="0.4">
<path d="M9.79311 5.79287C9.40259 6.1834 9.40259 6.81656 9.79311 7.20709C10.1836 7.59761 10.8168 7.59761 11.2073 7.20709L14.2573 4.1571C15.7998 2.61463 18.3006 2.61463 19.8431 4.1571C21.3856 5.69957 21.3856 8.20041 19.8431 9.74289L16.7931 12.7929C16.4026 13.1834 16.4026 13.8166 16.7931 14.2071C17.1836 14.5976 17.8168 14.5976 18.2073 14.2071L21.2573 11.1571C23.5808 8.83358 23.5808 5.06641 21.2573 2.74288C18.9338 0.419364 15.1666 0.419364 12.8431 2.74289L9.79311 5.79287Z" fill="#000"/>
<path d="M14.2073 18.2071C14.5979 17.8166 14.5979 17.1834 14.2073 16.7929C13.8168 16.4023 13.1836 16.4023 12.7931 16.7929L9.74313 19.8429C8.20066 21.3853 5.69981 21.3853 4.15734 19.8429C2.61487 18.3004 2.61487 15.7995 4.15734 14.2571L7.20733 11.2071C7.59785 10.8166 7.59785 10.1834 7.20733 9.79287C6.81681 9.40235 6.18364 9.40235 5.79312 9.79287L2.74313 12.8429C0.419608 15.1664 0.419608 18.9336 2.74313 21.2571C5.06665 23.5806 8.83382 23.5806 11.1573 21.2571L14.2073 18.2071Z" fill="#000"/>
</g>
<path d="M15.7071 8.29289C16.0976 8.68342 16.0976 9.31658 15.7071 9.70711L9.70711 15.7071C9.31658 16.0976 8.68342 16.0976 8.29289 15.7071C7.90237 15.3166 7.90237 14.6834 8.29289 14.2929L14.2929 8.29289C14.6834 7.90237 15.3166 7.90237 15.7071 8.29289Z" fill="#000"/>
</svg>
