<svg width="24" height="24" viewBox="0 0 24 24" fill="none" xmlns="http://www.w3.org/2000/svg">
<g opacity="0.4">
<path d="M9.5 6C9.5 5.44772 9.94772 5 10.5 5H22C22.5523 5 23 5.44772 23 6C23 6.55228 22.5523 7 22 7H10.5C9.94772 7 9.5 6.55228 9.5 6Z" fill="#000"/>
<path d="M9.5 13C9.5 12.4477 9.94772 12 10.5 12H22C22.5523 12 23 12.4477 23 13C23 13.5523 22.5523 14 22 14H10.5C9.94772 14 9.5 13.5523 9.5 13Z" fill="#000"/>
<path d="M8 18.5C7.44772 18.5 7 18.9477 7 19.5C7 20.0523 7.44772 20.5 8 20.5H22C22.5523 20.5 23 20.0523 23 19.5C23 18.9477 22.5523 18.5 22 18.5H8Z" fill="#000"/>
</g>
<path d="M7.19197 3.27808C7.59068 3.66024 7.60409 4.29327 7.22192 4.69197L4.34638 7.69197C4.16004 7.88638 3.90318 7.99741 3.63391 7.99996C3.36463 8.0025 3.10572 7.89634 2.91574 7.70549L1.29128 6.07359C0.901649 5.68218 0.903095 5.04901 1.29451 4.65938C1.68593 4.26975 2.31909 4.2712 2.70872 4.66261L3.61094 5.56896L5.77808 3.30803C6.16024 2.90932 6.79327 2.89591 7.19197 3.27808Z" fill="#000"/>
<path d="M2.5 19.5C2.5 18.8096 3.05964 18.25 3.75 18.25C4.44036 18.25 5.0001 18.8096 5.0001 19.5C5.0001 20.1904 4.44046 20.75 3.7501 20.75C3.05974 20.75 2.5 20.1904 2.5 19.5Z" fill="#000"/>
<path d="M7.22192 11.692C7.60409 11.2933 7.59068 10.6602 7.19197 10.2781C6.79327 9.89591 6.16024 9.90932 5.77808 10.308L3.61094 12.569L2.70872 11.6626C2.31909 11.2712 1.68593 11.2698 1.29451 11.6594C0.903095 12.049 0.901649 12.6822 1.29128 13.0736L2.91574 14.7055C3.10572 14.8963 3.36463 15.0025 3.63391 15C3.90318 14.9974 4.16004 14.8864 4.34638 14.692L7.22192 11.692Z" fill="#000"/>
</svg>
