<svg width="24" height="24" viewBox="0 0 24 24" fill="none" xmlns="http://www.w3.org/2000/svg">
<g opacity="0.4">
<path d="M6 5C6 4.44772 6.44772 4 7 4H22C22.5523 4 23 4.44772 23 5C23 5.55228 22.5523 6 22 6H7C6.44772 6 6 5.55228 6 5Z" fill="#000"/>
<path d="M6 12C6 11.4477 6.44772 11 7 11H22C22.5523 11 23 11.4477 23 12C23 12.5523 22.5523 13 22 13H7C6.44772 13 6 12.5523 6 12Z" fill="#000"/>
<path d="M7 18C6.44772 18 6 18.4477 6 19C6 19.5523 6.44772 20 7 20H22C22.5523 20 23 19.5523 23 19C23 18.4477 22.5523 18 22 18H7Z" fill="#000"/>
</g>
<path d="M0.75 5C0.75 4.30964 1.30964 3.75 2 3.75C2.69036 3.75 3.2501 4.30964 3.2501 5C3.2501 5.69036 2.69046 6.25 2.0001 6.25C1.30974 6.25 0.75 5.69036 0.75 5Z" fill="#000"/>
<path d="M0.75 12C0.75 11.3096 1.30964 10.75 2 10.75C2.69036 10.75 3.2501 11.3096 3.2501 12C3.2501 12.6904 2.69046 13.25 2.0001 13.25C1.30974 13.25 0.75 12.6904 0.75 12Z" fill="#000"/>
<path d="M2 17.75C1.30964 17.75 0.75 18.3096 0.75 19C0.75 19.6904 1.30964 20.25 2 20.25C2.69036 20.25 3.2501 19.6904 3.2501 19C3.2501 18.3096 2.69036 17.75 2 17.75Z" fill="#000"/>
</svg>
