<svg width="24" height="24" viewBox="0 0 24 24" fill="none" xmlns="http://www.w3.org/2000/svg">
<g opacity="0.4">
<path d="M12 1.25C12.4142 1.25 12.75 1.58579 12.75 2V3.28169C16.9842 3.64113 20.3589 7.01581 20.7183 11.25H22C22.4142 11.25 22.75 11.5858 22.75 12C22.75 12.4142 22.4142 12.75 22 12.75H20.7183C20.6326 13.7584 20.3757 14.7191 19.9764 15.602C19.8057 15.9795 19.3614 16.147 18.9839 15.9764C18.6065 15.8057 18.4389 15.3614 18.6096 14.9839C19.0208 14.0748 19.25 13.0652 19.25 12C19.25 7.99594 16.0041 4.75 12 4.75C10.9348 4.75 9.92516 4.97925 9.01605 5.39038C8.63864 5.56106 8.19432 5.39347 8.02364 5.01606C7.85296 4.63864 8.02055 4.19432 8.39796 4.02364C9.28092 3.62434 10.2416 3.36743 11.25 3.28173V2C11.25 1.58579 11.5858 1.25 12 1.25Z" fill="#000"/>
<path d="M6.87347 5.81282C7.16637 6.10571 7.16637 6.58058 6.87347 6.87348C5.56066 8.18629 4.75 9.99776 4.75 12C4.75 16.0041 7.99594 19.25 12 19.25C14.0022 19.25 15.8137 18.4393 17.1265 17.1265C17.4194 16.8336 17.8943 16.8336 18.1872 17.1265C18.4801 17.4194 18.4801 17.8943 18.1872 18.1872C16.7701 19.6043 14.8671 20.5384 12.75 20.7183V22C12.75 22.4142 12.4142 22.75 12 22.75C11.5858 22.75 11.25 22.4142 11.25 22V20.7183C7.01581 20.3589 3.64113 16.9842 3.28169 12.75H2C1.58579 12.75 1.25 12.4142 1.25 12C1.25 11.5858 1.58579 11.25 2 11.25H3.28172C3.46157 9.1329 4.39568 7.22995 5.81281 5.81282C6.10571 5.51992 6.58058 5.51992 6.87347 5.81282Z" fill="#000"/>
</g>
<path d="M2.53033 1.46967C2.23744 1.17678 1.76256 1.17678 1.46967 1.46967C1.17678 1.76256 1.17678 2.23744 1.46967 2.53033L8.87139 9.93205C8.479 10.5247 8.25 11.236 8.25 12C8.25 14.0711 9.92893 15.75 12 15.75C12.764 15.75 13.4753 15.521 14.068 15.1286L21.4697 22.5303C21.7626 22.8232 22.2374 22.8232 22.5303 22.5303C22.8232 22.2374 22.8232 21.7626 22.5303 21.4697L2.53033 1.46967Z" fill="#000"/>
<path d="M12.679 8.8584C12.8899 8.56015 13.285 8.45722 13.6147 8.61466C14.3888 8.98442 15.0156 9.6112 15.3854 10.3853C15.5428 10.715 15.4399 11.1101 15.1416 11.321C14.8434 11.5319 14.4366 11.4972 14.1783 11.2389L12.7611 9.82175C12.5028 9.56346 12.4681 9.15665 12.679 8.8584Z" fill="#000"/>
</svg>
