<svg width="24" height="24" viewBox="0 0 24 24" fill="none" xmlns="http://www.w3.org/2000/svg">
<g opacity="0.4">
<path d="M12 1.25C10.1434 1.25 8.41988 1.82905 7.00294 2.8164C6.8208 2.94331 6.70425 3.14439 6.68465 3.36552C6.66505 3.58665 6.74442 3.8051 6.90139 3.96207L18.1811 15.2418C18.3478 15.4085 18.5832 15.4871 18.8166 15.4541C19.05 15.421 19.2543 15.2802 19.3681 15.0738C20.1661 13.6273 20.7499 11.9379 20.7499 10C20.7499 5.16755 16.8324 1.25 12 1.25Z" fill="#000"/>
<path d="M5.96206 4.90141C5.80508 4.74444 5.58663 4.66507 5.3655 4.68467C5.14438 4.70427 4.94329 4.82083 4.81638 5.00297C3.82905 6.41991 3.25 8.14346 3.25 10C3.25 14.2034 5.91922 17.166 7.77085 19.2212L7.94247 19.4117C8.62466 20.1697 10.2022 21.632 10.9929 22.3568C11.5634 22.8798 12.4365 22.8798 13.007 22.3568C13.7978 21.632 15.3752 20.1697 16.0574 19.4117L16.1783 19.2775C16.633 18.7727 17.1525 18.1961 17.6689 17.5568C17.9099 17.2584 17.887 16.8264 17.6158 16.5552L5.96206 4.90141Z" fill="#000"/>
</g>
<path d="M2.53033 1.46967C2.23744 1.17678 1.76256 1.17678 1.46967 1.46967C1.17678 1.76256 1.17678 2.23744 1.46967 2.53033L21.4697 22.5303C21.7626 22.8232 22.2374 22.8232 22.5303 22.5303C22.8232 22.2374 22.8232 21.7626 22.5303 21.4697L2.53033 1.46967Z" fill="#000"/>
<path d="M10.7653 7.82612L14.1746 11.2355C14.3822 10.8711 14.5007 10.4494 14.5007 10C14.5007 8.61929 13.3815 7.5 12.0007 7.5C11.5514 7.5 11.1297 7.61857 10.7653 7.82612Z" fill="#000"/>
</svg>
