<svg width="24" height="24" viewBox="0 0 24 24" fill="none" xmlns="http://www.w3.org/2000/svg">
<path opacity="0.4" d="M18.089 3.03755C17.6389 3.00078 17.0566 3 16.2 3H13C12.4477 3 12 2.55229 12 2C12 1.44772 12.4477 1 13 1L16.2413 1C17.0463 0.999988 17.7106 0.999977 18.2518 1.04419C18.8139 1.09012 19.3306 1.18868 19.816 1.43597C20.5686 1.81947 21.1805 2.43139 21.564 3.18404C21.8113 3.66937 21.9099 4.18608 21.9558 4.74817C22 5.28936 22 5.95372 22 6.75868V17.2413C22 18.0463 22 18.7106 21.9558 19.2518C21.9099 19.8139 21.8113 20.3306 21.564 20.816C21.1805 21.5686 20.5686 22.1805 19.816 22.564C19.3306 22.8113 18.8139 22.9099 18.2518 22.9558C17.7106 23 17.0463 23 16.2413 23H13C12.4477 23 12 22.5523 12 22C12 21.4477 12.4477 21 13 21H16.2C17.0566 21 17.6389 20.9992 18.089 20.9624C18.5274 20.9266 18.7516 20.8617 18.908 20.782C19.2843 20.5903 19.5903 20.2843 19.782 19.908C19.8617 19.7516 19.9266 19.5274 19.9624 19.089C19.9992 18.6389 20 18.0566 20 17.2V6.8C20 5.94342 19.9992 5.36113 19.9624 4.91104C19.9266 4.47262 19.8617 4.24842 19.782 4.09202C19.5903 3.7157 19.2843 3.40973 18.908 3.21799C18.7516 3.1383 18.5274 3.07337 18.089 3.03755Z" fill="#000"/>
<path d="M9.70711 6.29289C9.31658 5.90237 8.68342 5.90237 8.29289 6.29289C7.90237 6.68342 7.90237 7.31658 8.29289 7.70711L11.5858 11H3C2.44771 11 2 11.4477 2 12C2 12.5523 2.44771 13 3 13H11.5858L8.29289 16.2929C7.90237 16.6834 7.90237 17.3166 8.29289 17.7071C8.68342 18.0976 9.31658 18.0976 9.70711 17.7071L14.7071 12.7071C15.0976 12.3166 15.0976 11.6834 14.7071 11.2929L9.70711 6.29289Z" fill="#000"/>
</svg>
