<svg width="24" height="24" viewBox="0 0 24 24" fill="none" xmlns="http://www.w3.org/2000/svg">
<path opacity="0.4" d="M9.47426 2.51278C8.87499 2.17034 8.1415 2.1611 7.53379 2.48833L2.43328 5.23475C1.70448 5.62718 1.25 6.38808 1.25 7.21581V19.8428C1.25 20.7886 2.25983 21.3918 3.09262 20.9434L8.24493 18.169C8.39686 18.0872 8.58024 18.0895 8.73005 18.1751L14.5257 21.487C15.125 21.8294 15.8585 21.8387 16.4662 21.5114L21.5667 18.765C22.2955 18.3726 22.75 17.6117 22.75 16.7839V4.15698C22.75 3.21114 21.7402 2.60797 20.9074 3.05639L15.7551 5.83071C15.6031 5.91252 15.4198 5.91021 15.2699 5.8246L9.47426 2.51278Z" fill="#000"/>
<path d="M8.5 18.1093V2.24902C8.83666 2.25206 9.17248 2.34001 9.47426 2.51246L15.2699 5.82427C15.3414 5.86508 15.4204 5.88696 15.5 5.88983V21.7501C15.1633 21.747 14.8275 21.6591 14.5257 21.4866L8.73005 18.1748C8.65865 18.134 8.57962 18.1121 8.5 18.1093Z" fill="#000"/>
</svg>
