<svg width="24" height="24" viewBox="0 0 24 24" fill="none" xmlns="http://www.w3.org/2000/svg">
<path opacity="0.4" d="M12.4326 1.25H6.56739C5.61495 1.24999 4.85439 1.24999 4.24013 1.30018C3.61012 1.35165 3.06824 1.45963 2.57054 1.71322C1.77085 2.12068 1.12068 2.77085 0.713223 3.57054C0.459634 4.06824 0.35165 4.61012 0.300176 5.24013C0.249989 5.85439 0.249994 6.61494 0.25 7.56738V16.4326C0.249994 17.3851 0.249989 18.1456 0.300176 18.7599C0.35165 19.3899 0.459634 19.9318 0.713223 20.4295C1.12068 21.2291 1.77085 21.8793 2.57054 22.2868C3.06824 22.5404 3.61012 22.6483 4.24013 22.6998C4.85438 22.75 5.6149 22.75 6.5673 22.75H11.7546C12.0431 22.75 12.3059 22.5846 12.4308 22.3246C12.5556 22.0645 12.5202 21.756 12.3398 21.5309C11.3447 20.2896 10.75 18.7153 10.75 17C10.75 12.9959 13.9959 9.75 18 9.75C18.4142 9.75 18.75 9.41421 18.75 9V7.56737C18.75 6.61496 18.75 5.85438 18.6998 5.24013C18.6483 4.61012 18.5404 4.06824 18.2868 3.57054C17.8793 2.77085 17.2291 2.12068 16.4295 1.71322C15.9318 1.45963 15.3899 1.35165 14.7599 1.30018C14.1456 1.24999 13.3851 1.24999 12.4326 1.25Z" fill="#000"/>
<path d="M5.5 7.25C5.08579 7.25 4.75 7.58579 4.75 8C4.75 8.41421 5.08579 8.75 5.5 8.75H9.5C9.91421 8.75 10.25 8.41421 10.25 8C10.25 7.58579 9.91421 7.25 9.5 7.25H5.5Z" fill="#000"/>
<path d="M4.75 12C4.75 11.5858 5.08579 11.25 5.5 11.25H12.4378C11.9747 11.6981 11.5655 12.2017 11.221 12.75H5.5C5.08579 12.75 4.75 12.4142 4.75 12Z" fill="#000"/>
<path d="M10.0038 16.75C10.0196 16.2363 10.0838 15.7349 10.192 15.25H5.5C5.08579 15.25 4.75 15.5858 4.75 16C4.75 16.4142 5.08579 16.75 5.5 16.75H10.0038Z" fill="#000"/>
<path fill-rule="evenodd" clip-rule="evenodd" d="M18 11.25C14.8244 11.25 12.25 13.8244 12.25 17C12.25 20.1756 14.8244 22.75 18 22.75C21.1756 22.75 23.75 20.1756 23.75 17C23.75 13.8244 21.1756 11.25 18 11.25ZM17.375 19C17.375 19.3452 17.6548 19.625 18 19.625C18.3452 19.625 18.625 19.3452 18.625 19V17.625H20C20.3452 17.625 20.625 17.3452 20.625 17C20.625 16.6548 20.3452 16.375 20 16.375H18.625V15C18.625 14.6548 18.3452 14.375 18 14.375C17.6548 14.375 17.375 14.6548 17.375 15V16.375H16C15.6548 16.375 15.375 16.6548 15.375 17C15.375 17.3452 15.6548 17.625 16 17.625H17.375V19Z" fill="#000"/>
</svg>
