<svg width="24" height="24" viewBox="0 0 24 24" fill="none" xmlns="http://www.w3.org/2000/svg">
<path opacity="0.4" d="M14.9326 1.25H9.06739C8.11495 1.24999 7.35439 1.24999 6.74013 1.30018C6.11012 1.35165 5.56824 1.45963 5.07054 1.71322C4.27085 2.12068 3.62068 2.77085 3.21322 3.57054C2.95963 4.06824 2.85165 4.61012 2.80018 5.24013C2.74999 5.85439 2.74999 6.61494 2.75 7.56738V16.4326C2.74999 17.3851 2.74999 18.1456 2.80018 18.7599C2.85165 19.3899 2.95963 19.9318 3.21322 20.4295C3.62068 21.2291 4.27085 21.8793 5.07054 22.2868C5.56824 22.5404 6.11012 22.6483 6.74013 22.6998C7.35438 22.75 8.1149 22.75 9.0673 22.75H14.9326C15.885 22.75 16.6456 22.75 17.2599 22.6998C17.8899 22.6483 18.4318 22.5404 18.9295 22.2868C19.7291 21.8793 20.3793 21.2291 20.7868 20.4295C21.0404 19.9318 21.1483 19.3899 21.1998 18.7599C21.25 18.1456 21.25 17.3851 21.25 16.4327V7.56737C21.25 6.61496 21.25 5.85438 21.1998 5.24013C21.1483 4.61012 21.0404 4.06824 20.7868 3.57054C20.3793 2.77085 19.7291 2.12068 18.9295 1.71322C18.4318 1.45963 17.8899 1.35165 17.2599 1.30018C16.6456 1.24999 15.8851 1.24999 14.9326 1.25Z" fill="#000"/>
<path d="M8 7.25C7.58579 7.25 7.25 7.58579 7.25 8C7.25 8.41421 7.58579 8.75 8 8.75H12C12.4142 8.75 12.75 8.41421 12.75 8C12.75 7.58579 12.4142 7.25 12 7.25H8Z" fill="#000"/>
<path d="M7.25 12C7.25 11.5858 7.58579 11.25 8 11.25H16C16.4142 11.25 16.75 11.5858 16.75 12C16.75 12.4142 16.4142 12.75 16 12.75H8C7.58579 12.75 7.25 12.4142 7.25 12Z" fill="#000"/>
<path d="M7.25 16C7.25 15.5858 7.58579 15.25 8 15.25H16C16.4142 15.25 16.75 15.5858 16.75 16C16.75 16.4142 16.4142 16.75 16 16.75H8C7.58579 16.75 7.25 16.4142 7.25 16Z" fill="#000"/>
</svg>
