<svg width="24" height="24" viewBox="0 0 24 24" fill="none" xmlns="http://www.w3.org/2000/svg">
<g opacity="0.4">
<path d="M22 5C22.5523 5 23 4.55228 23 4C23 3.44772 22.5523 3 22 3H2C1.44772 3 1 3.44772 1 4C1 4.55228 1.44772 5 2 5H22Z" fill="#000"/>
<path d="M22 21C22.5523 21 23 20.5523 23 20C23 19.4477 22.5523 19 22 19H2C1.44772 19 1 19.4477 1 20C1 20.5523 1.44772 21 2 21H22Z" fill="#000"/>
</g>
<path d="M23 12C23 12.5523 22.5523 13 22 13H2C1.44772 13 1 12.5523 1 12C1 11.4477 1.44772 11 2 11H22C22.5523 11 23 11.4477 23 12Z" fill="#000"/>
</svg>
