<svg width="24" height="24" viewBox="0 0 24 24" fill="none" xmlns="http://www.w3.org/2000/svg">
<path opacity="0.4" d="M16.4326 1.25H7.56739C6.61495 1.24999 5.8544 1.24999 5.24014 1.30018C4.61012 1.35165 4.06824 1.45963 3.57054 1.71322C2.77086 2.12068 2.12069 2.77085 1.71323 3.57054C1.45964 4.06824 1.35165 4.61012 1.30018 5.24013C1.25 5.85435 1.25 6.61484 1.25 7.56719L1.25 20.9152C1.24997 21.1532 1.24995 21.3804 1.26663 21.5639C1.28281 21.7418 1.32348 22.0306 1.52085 22.2793C1.75643 22.5762 2.114 22.7502 2.49299 22.7523C2.81048 22.7541 3.06282 22.6078 3.21281 22.5107C3.36741 22.4106 3.54616 22.2704 3.73337 22.1235L6.31064 20.1018L6.31212 20.1006C6.57594 19.8937 6.62991 19.8557 6.6814 19.8298C6.74093 19.7999 6.80417 19.7781 6.86947 19.7649C6.92607 19.7534 6.99209 19.75 7.32902 19.75H16.4326C17.385 19.75 18.1456 19.75 18.7599 19.6998C19.3899 19.6483 19.9318 19.5404 20.4295 19.2868C21.2292 18.8793 21.8793 18.2291 22.2868 17.4295C22.5404 16.9318 22.6484 16.3899 22.6998 15.7599C22.75 15.1456 22.75 14.3851 22.75 13.4327V7.56737C22.75 6.61496 22.75 5.85438 22.6998 5.24013C22.6484 4.61012 22.5404 4.06824 22.2868 3.57054C21.8793 2.77085 21.2292 2.12068 20.4295 1.71322C19.9318 1.45963 19.3899 1.35165 18.7599 1.30018C18.1456 1.24999 17.3851 1.24999 16.4326 1.25Z" fill="#000"/>
</svg>
