<svg width="24" height="25" viewBox="0 0 24 25" fill="none" xmlns="http://www.w3.org/2000/svg">
<path opacity="0.4" d="M13.8324 1.25H10.1676C9.285 1.24999 8.57692 1.24999 8.00433 1.29677C7.41601 1.34484 6.905 1.44601 6.43404 1.68597C5.68139 2.06947 5.06947 2.68139 4.68597 3.43404C4.44601 3.905 4.34484 4.41601 4.29677 5.00433C4.24999 5.57692 4.24999 6.28499 4.25 7.16762V16.8324C4.24999 17.715 4.24999 18.4231 4.29677 18.9957C4.34484 19.584 4.44601 20.095 4.68597 20.566C5.06947 21.3186 5.68139 21.9305 6.43404 22.314C6.905 22.554 7.41601 22.6552 8.00433 22.7032C8.57691 22.75 9.28499 22.75 10.1676 22.75H13.8324C14.715 22.75 15.4231 22.75 15.9957 22.7032C16.584 22.6552 17.095 22.554 17.566 22.314C18.3186 21.9305 18.9305 21.3186 19.314 20.566C19.554 20.095 19.6552 19.584 19.7032 18.9957C19.75 18.4231 19.75 17.715 19.75 16.8324V7.1676C19.75 6.285 19.75 5.57691 19.7032 5.00433C19.6552 4.41601 19.554 3.905 19.314 3.43404C18.9305 2.68139 18.3186 2.06947 17.566 1.68597C17.095 1.44601 16.584 1.34484 15.9957 1.29677C15.4231 1.24999 14.715 1.24999 13.8324 1.25Z" fill="#000"/>
<path d="M10.5 4.25C10.0858 4.25 9.75 4.58579 9.75 5C9.75 5.41421 10.0858 5.75 10.5 5.75H13.5C13.9142 5.75 14.25 5.41421 14.25 5C14.25 4.58579 13.9142 4.25 13.5 4.25H10.5Z" fill="#000"/>
<path d="M12 17.5C11.4477 17.5 11 17.9477 11 18.5C11 19.0523 11.4477 19.5 12 19.5C12.5523 19.5 13.0001 19.0523 13.0001 18.5C13.0001 17.9477 12.5523 17.5 12 17.5Z" fill="#000"/>
</svg>
