<svg width="24" height="25" viewBox="0 0 24 25" fill="none" xmlns="http://www.w3.org/2000/svg">
<path opacity="0.4" d="M13.8324 0.932739H10.1676C9.285 0.932733 8.57692 0.932727 8.00433 0.979509C7.41601 1.02758 6.905 1.12875 6.43404 1.36871C5.68139 1.75221 5.06947 2.36413 4.68597 3.11678C4.44601 3.58774 4.34484 4.09875 4.29677 4.68707C4.24999 5.25966 4.24999 5.96773 4.25 6.85036V16.5151C4.24999 17.3977 4.24999 18.1058 4.29677 18.6784C4.34484 19.2667 4.44601 19.7777 4.68597 20.2487C5.06947 21.0014 5.68139 21.6133 6.43404 21.9968C6.905 22.2367 7.41601 22.3379 8.00433 22.386C8.57691 22.4328 9.28499 22.4327 10.1676 22.4327H13.8324C14.715 22.4327 15.4231 22.4328 15.9957 22.386C16.584 22.3379 17.095 22.2367 17.566 21.9968C18.3186 21.6133 18.9305 21.0014 19.314 20.2487C19.554 19.7777 19.6552 19.2667 19.7032 18.6784C19.75 18.1058 19.75 17.3978 19.75 16.5152V6.85034C19.75 5.96773 19.75 5.25965 19.7032 4.68707C19.6552 4.09875 19.554 3.58774 19.314 3.11678C18.9305 2.36413 18.3186 1.75221 17.566 1.36871C17.095 1.12875 16.584 1.02758 15.9957 0.979509C15.4231 0.932727 14.715 0.932733 13.8324 0.932739Z" fill="#000"/>
<path d="M10.5 3.93274C10.0858 3.93274 9.75 4.26853 9.75 4.68274C9.75 5.09695 10.0858 5.43274 10.5 5.43274H13.5C13.9142 5.43274 14.25 5.09695 14.25 4.68274C14.25 4.26853 13.9142 3.93274 13.5 3.93274H10.5Z" fill="#000"/>
<path d="M12 17.1827C11.4477 17.1827 11 17.6305 11 18.1827C11 18.735 11.4477 19.1827 12 19.1827C12.5523 19.1827 13.0001 18.735 13.0001 18.1827C13.0001 17.6305 12.5523 17.1827 12 17.1827Z" fill="#000"/>
</svg>
