<svg width="24" height="24" viewBox="0 0 24 24" fill="none" xmlns="http://www.w3.org/2000/svg">
<g opacity="0.4">
<path d="M14.2321 1.25H9.7679C8.95506 1.24999 8.29944 1.24999 7.76853 1.29336C7.2219 1.33803 6.74175 1.43239 6.29754 1.65873C6.21242 1.7021 6.12921 1.74859 6.04807 1.79805C5.85166 1.91778 5.72105 2.12102 5.69375 2.34942C5.66645 2.57782 5.74546 2.80612 5.90812 2.96878L18.4697 15.5303C18.6842 15.7448 19.0068 15.809 19.287 15.6929C19.5673 15.5768 19.75 15.3033 19.75 15V6.76788C19.75 5.95505 19.75 5.29944 19.7066 4.76853C19.662 4.2219 19.5676 3.74175 19.3413 3.29754C18.9817 2.59193 18.4081 2.01825 17.7025 1.65873C17.2582 1.43239 16.7781 1.33803 16.2315 1.29336C15.7006 1.24999 15.0449 1.24999 14.2321 1.25Z" fill="#000"/>
<path d="M5.55749 4.49683C5.3486 4.28794 5.03653 4.22113 4.76042 4.3262C4.48431 4.43127 4.2956 4.68864 4.27843 4.98357C4.25 5.47198 4.25 6.0633 4.25 6.77855V17.2321C4.24999 18.0449 4.24999 18.7006 4.29336 19.2315C4.33803 19.7781 4.43239 20.2582 4.65873 20.7025C5.01825 21.4081 5.59193 21.9817 6.29754 22.3413C6.74175 22.5676 7.2219 22.662 7.76853 22.7066C8.29944 22.75 8.95505 22.75 9.76788 22.75H14.2321C15.045 22.75 15.7006 22.75 16.2315 22.7066C16.7781 22.662 17.2582 22.5676 17.7025 22.3413C18.4081 21.9817 18.9817 21.4081 19.3413 20.7025C19.5958 20.2029 19.6844 19.6552 19.7216 19.0164C19.734 18.8027 19.6545 18.5939 19.5032 18.4425L5.55749 4.49683Z" fill="#000"/>
</g>
<path d="M2.53033 1.46967C2.23744 1.17678 1.76256 1.17678 1.46967 1.46967C1.17678 1.76256 1.17678 2.23744 1.46967 2.53033L21.4697 22.5303C21.7626 22.8232 22.2374 22.8232 22.5303 22.5303C22.8232 22.2374 22.8232 21.7626 22.5303 21.4697L2.53033 1.46967Z" fill="#000"/>
<path d="M9.75 5C9.75 4.58579 10.0858 4.25 10.5 4.25H13.5C13.9142 4.25 14.25 4.58579 14.25 5C14.25 5.41421 13.9142 5.75 13.5 5.75H10.5C10.0858 5.75 9.75 5.41421 9.75 5Z" fill="#000"/>
<path d="M11 18.5C11 17.9477 11.4477 17.5 12 17.5C12.5523 17.5 13.0001 17.9477 13.0001 18.5C13.0001 19.0523 12.5524 19.5 12.0001 19.5C11.4478 19.5 11 19.0523 11 18.5Z" fill="#000"/>
</svg>
