<svg width="24" height="24" viewBox="0 0 24 24" fill="none" xmlns="http://www.w3.org/2000/svg">
<path opacity="0.4" d="M14.2319 6.5H5.7679C4.95506 6.49999 4.29944 6.49999 3.76853 6.54336C3.2219 6.58803 2.74175 6.68239 2.29754 6.90873C1.59193 7.26825 1.01825 7.84193 0.658726 8.54754C0.432386 8.99175 0.338026 9.4719 0.293364 10.0185C0.249987 10.5494 0.249993 11.205 0.25 12.0179V15.9821C0.249993 16.7949 0.249987 17.4506 0.293364 17.9815C0.338026 18.5281 0.432386 19.0082 0.658726 19.4525C1.01825 20.1581 1.59193 20.7317 2.29754 21.0913C2.74175 21.3176 3.2219 21.412 3.76853 21.4566C4.29944 21.5 4.95505 21.5 5.76788 21.5H14.232C15.0448 21.5 15.7004 21.5 16.2313 21.4566C16.7779 21.412 17.2581 21.3176 17.7023 21.0913C18.4079 20.7317 18.9816 20.1581 19.3411 19.4525C19.5675 19.0082 19.6618 18.5281 19.7065 17.9815C19.7499 17.4506 19.7498 16.795 19.7498 15.9821V12.0179C19.7498 11.205 19.7499 10.5494 19.7065 10.0185C19.6618 9.4719 19.5675 8.99175 19.3411 8.54754C18.9816 7.84193 18.4079 7.26825 17.7023 6.90873C17.2581 6.68239 16.7779 6.58803 16.2313 6.54336C15.7004 6.49999 15.0448 6.49999 14.2319 6.5Z" fill="#000"/>
<path d="M9.76787 2.5H18.2319C19.0447 2.49999 19.7004 2.49999 20.2313 2.54336C20.7779 2.58803 21.2581 2.68239 21.7023 2.90873C22.4079 3.26825 22.9816 3.84193 23.3411 4.54754C23.5674 4.99176 23.6618 5.4719 23.7064 6.01853C23.7498 6.54944 23.7498 7.20505 23.7498 8.01788V12.9821C23.7498 13.795 23.7498 14.4506 23.7064 14.9815C23.6618 15.5281 23.5674 16.0082 23.3411 16.4525C23.0108 17.1007 22.4998 17.6375 21.8718 17.9993C21.5129 18.2061 21.0543 18.0828 20.8476 17.7238C20.6408 17.3649 20.7641 16.9064 21.123 16.6996C21.4998 16.4825 21.8064 16.1604 22.0046 15.7715C22.1052 15.574 22.1743 15.3132 22.2114 14.8593C22.2492 14.3967 22.2498 13.8025 22.2498 12.95V8.05C22.2498 7.19755 22.2492 6.60331 22.2114 6.14068C22.1743 5.68681 22.1052 5.42604 22.0046 5.22852C21.7889 4.80516 21.4447 4.46095 21.0213 4.24524C20.8238 4.1446 20.563 4.07547 20.1091 4.03838C19.6465 4.00058 19.0523 4 18.1998 4H9.79997C8.94752 4 8.35328 4.00058 7.89065 4.03838C7.43678 4.07547 7.17601 4.1446 6.97849 4.24524C6.58955 4.44341 6.26741 4.75005 6.05034 5.12686C5.84358 5.48578 5.38501 5.60914 5.02609 5.40238C4.66717 5.19562 4.54381 4.73705 4.75057 4.37813C5.11236 3.75008 5.64925 3.23903 6.29751 2.90873C6.74173 2.68239 7.22187 2.58803 7.7685 2.54336C8.29941 2.49999 8.95504 2.49999 9.76787 2.5Z" fill="#000"/>
<path d="M10 10.75C8.20507 10.75 6.75 12.2051 6.75 14C6.75 15.7949 8.20507 17.25 10 17.25C11.7949 17.25 13.25 15.7949 13.25 14C13.25 12.2051 11.7949 10.75 10 10.75Z" fill="#000"/>
<path d="M15 14C15 13.4477 15.4477 13 16 13C16.5523 13 17.0001 13.4477 17.0001 14C17.0001 14.5523 16.5524 15 16.0001 15C15.4478 15 15 14.5523 15 14Z" fill="#000"/>
<path d="M4 13C3.44772 13 3 13.4477 3 14C3 14.5523 3.44772 15 4 15C4.55228 15 5.0001 14.5523 5.0001 14C5.0001 13.4477 4.55228 13 4 13Z" fill="#000"/>
</svg>
