<svg width="24" height="24" viewBox="0 0 24 24" fill="none" xmlns="http://www.w3.org/2000/svg">
<g clip-path="url(#clip0_9002_8221)">
<path opacity="0.4" d="M9 7.25024H7.06739C6.11495 7.25024 5.35439 7.25023 4.74013 7.30042C4.11012 7.35189 3.56824 7.45988 3.07054 7.71347C2.27085 8.12093 1.62068 8.7711 1.21322 9.57079C0.959634 10.0685 0.85165 10.6104 0.800176 11.2404C0.749989 11.8546 0.749994 12.6152 0.75 13.5676V17.4329C0.749994 18.3853 0.749989 19.1458 0.800176 19.7601C0.85165 20.3901 0.959634 20.932 1.21322 21.4297C1.62068 22.2294 2.27085 22.8796 3.07054 23.287C3.56824 23.5406 4.11012 23.6486 4.74013 23.7001C5.35439 23.7503 6.11493 23.7503 7.06737 23.7502H16.9326C17.8851 23.7503 18.6456 23.7503 19.2599 23.7001C19.8899 23.6486 20.4318 23.5406 20.9295 23.287C21.7291 22.8796 22.3793 22.2294 22.7868 21.4297C23.0404 20.932 23.1483 20.3901 23.1998 19.7601C23.25 19.1459 23.25 18.3853 23.25 17.4329V13.5676C23.25 12.6152 23.25 11.8546 23.1998 11.2404C23.1483 10.6104 23.0404 10.0685 22.7868 9.57079C22.3793 8.7711 21.7291 8.12093 20.9295 7.71347C20.4318 7.45988 19.8899 7.35189 19.2599 7.30042C18.6456 7.25023 17.8851 7.25024 16.9326 7.25024H15C14.5858 7.25024 14.25 7.58603 14.25 8.00024V9C14.25 10.2426 13.2426 11.25 12 11.25C10.7574 11.25 9.75 10.2426 9.75 9V8.00024C9.75 7.58603 9.41421 7.25024 9 7.25024Z" fill="#000"/>
<path d="M12 12.0002C10.067 12.0002 8.5 13.5672 8.5 15.5002C8.5 17.4332 10.067 19.0002 12 19.0002C13.933 19.0002 15.5 17.4332 15.5 15.5002C15.5 13.658 13.9295 12.0002 12 12.0002Z" fill="#000"/>
<path d="M4.5 15.5002C4.5 14.948 4.94771 14.5002 5.5 14.5002C6.05228 14.5002 6.5001 14.948 6.5001 15.5002C6.5001 16.0525 6.05239 16.5002 5.5001 16.5002C4.94782 16.5002 4.5 16.0525 4.5 15.5002Z" fill="#000"/>
<path d="M18.5 14.5002C17.9477 14.5002 17.5 14.948 17.5 15.5002C17.5 16.0525 17.9477 16.5002 18.5 16.5002C19.0523 16.5002 19.5001 16.0525 19.5001 15.5002C19.5001 14.948 19.0523 14.5002 18.5 14.5002Z" fill="#000"/>
<path d="M12 9.75C11.5858 9.75 11.25 9.41421 11.25 9L11.25 2.81066L9.53033 4.53033C9.23744 4.82322 8.76256 4.82322 8.46967 4.53033C8.17678 4.23744 8.17678 3.76256 8.46967 3.46967L11.4697 0.469669C11.6103 0.329018 11.8011 0.25 12 0.25C12.1989 0.25 12.3897 0.329018 12.5303 0.469669L15.5303 3.46967C15.8232 3.76256 15.8232 4.23744 15.5303 4.53033C15.2374 4.82322 14.7626 4.82322 14.4697 4.53033L12.75 2.81066L12.75 9C12.75 9.41421 12.4142 9.75 12 9.75Z" fill="#000"/>
</g>
<defs>
<clipPath id="clip0_9002_8221">
<rect width="24" height="24" fill="white"/>
</clipPath>
</defs>
</svg>
