<svg width="24" height="24" viewBox="0 0 24 24" fill="none" xmlns="http://www.w3.org/2000/svg">
<path opacity="0.4" d="M16.9326 3.25H7.06739C6.11495 3.24999 5.35439 3.24999 4.74013 3.30018C4.11012 3.35165 3.56824 3.45963 3.07054 3.71322C2.27085 4.12068 1.62068 4.77085 1.21322 5.57054C0.959634 6.06824 0.85165 6.61012 0.800176 7.24013C0.749989 7.85439 0.749994 8.61494 0.75 9.56738V14.4326C0.749994 15.3851 0.749989 16.1456 0.800176 16.7599C0.85165 17.3899 0.959634 17.9318 1.21322 18.4295C1.62068 19.2291 2.27085 19.8793 3.07054 20.2868C3.56824 20.5404 4.11012 20.6483 4.74013 20.6998C5.35438 20.75 6.1149 20.75 7.0673 20.75H16.9326C17.885 20.75 18.6456 20.75 19.2599 20.6998C19.8899 20.6483 20.4318 20.5404 20.9295 20.2868C21.7291 19.8793 22.3793 19.2291 22.7868 18.4295C23.0404 17.9318 23.1483 17.3899 23.1998 16.7599C23.25 16.1456 23.25 15.385 23.25 14.4326V9.56747C23.25 8.61502 23.25 7.8544 23.1998 7.24013C23.1483 6.61012 23.0404 6.06824 22.7868 5.57054C22.3793 4.77085 21.7291 4.12068 20.9295 3.71322C20.4318 3.45963 19.8899 3.35165 19.2599 3.30018C18.6456 3.24999 17.8851 3.24999 16.9326 3.25Z" fill="#000"/>
<path d="M12 8.5C10.067 8.5 8.5 10.067 8.5 12C8.5 13.933 10.067 15.5 12 15.5C13.933 15.5 15.5 13.933 15.5 12C15.5 10.067 13.933 8.5 12 8.5Z" fill="#000"/>
<path d="M17.5 12C17.5 11.4477 17.9477 11 18.5 11C19.0523 11 19.5001 11.4477 19.5001 12C19.5001 12.5523 19.0524 13 18.5001 13C17.9478 13 17.5 12.5523 17.5 12Z" fill="#000"/>
<path d="M5.5 11C4.94772 11 4.5 11.4477 4.5 12C4.5 12.5523 4.94772 13 5.5 13C6.05228 13 6.5001 12.5523 6.5001 12C6.5001 11.4477 6.05228 11 5.5 11Z" fill="#000"/>
</svg>
