<svg width="24" height="24" viewBox="0 0 24 24" fill="none" xmlns="http://www.w3.org/2000/svg">
<path opacity="0.4" d="M16.4326 3.25H6.56739C5.61495 3.24999 4.85439 3.24999 4.24013 3.30018C3.61012 3.35165 3.06824 3.45963 2.57054 3.71322C1.77085 4.12068 1.12068 4.77085 0.713223 5.57054C0.459634 6.06824 0.35165 6.61012 0.300176 7.24013C0.249989 7.85439 0.249994 8.61494 0.25 9.56738V14.4326C0.249994 15.3851 0.249989 16.1456 0.300176 16.7599C0.35165 17.3899 0.459634 17.9318 0.713223 18.4295C1.12068 19.2291 1.77085 19.8793 2.57054 20.2868C3.06824 20.5404 3.61012 20.6483 4.24013 20.6998C4.85438 20.75 5.6149 20.75 6.5673 20.75H13C13.4142 20.75 13.75 20.4142 13.75 20C13.75 15.9959 16.9959 12.75 21 12.75C21.3076 12.75 21.6103 12.7691 21.9072 12.8061C22.1206 12.8327 22.3352 12.7664 22.4964 12.6241C22.6577 12.4817 22.75 12.277 22.75 12.0619V9.56737C22.75 8.61496 22.75 7.85438 22.6998 7.24013C22.6483 6.61012 22.5404 6.06824 22.2868 5.57054C21.8793 4.77085 21.2291 4.12068 20.4295 3.71322C19.9318 3.45963 19.3899 3.35165 18.7599 3.30018C18.1456 3.24999 17.3851 3.24999 16.4326 3.25Z" fill="#000"/>
<path d="M11.5 8.5C9.567 8.5 8 10.067 8 12C8 13.933 9.567 15.5 11.5 15.5C13.433 15.5 15 13.933 15 12C15 10.067 13.433 8.5 11.5 8.5Z" fill="#000"/>
<path d="M4 12C4 11.4477 4.44772 11 5 11C5.55228 11 6.0001 11.4477 6.0001 12C6.0001 12.5523 5.55238 13 5.0001 13C4.44782 13 4 12.5523 4 12Z" fill="#000"/>
<path d="M23 18.75C23.4142 18.75 23.75 18.4142 23.75 18C23.75 17.5858 23.4142 17.25 23 17.25H17C16.5858 17.25 16.25 17.5858 16.25 18C16.25 18.4142 16.5858 18.75 17 18.75H23Z" fill="#000"/>
</svg>
