<svg width="24" height="24" viewBox="0 0 24 24" fill="none" xmlns="http://www.w3.org/2000/svg">
<path opacity="0.4" d="M18.75 6.25H5.25V18.8304C5.24999 19.3646 5.24998 19.8104 5.27974 20.1747C5.31078 20.5546 5.37789 20.9112 5.54974 21.2485C5.81339 21.7659 6.23408 22.1866 6.75153 22.4503C7.08879 22.6221 7.44545 22.6892 7.82533 22.7203C8.18956 22.75 8.6354 22.75 9.16955 22.75H14.8304C15.3646 22.75 15.8104 22.75 16.1747 22.7203C16.5546 22.6892 16.9112 22.6221 17.2485 22.4503C17.7659 22.1866 18.1866 21.7659 18.4503 21.2485C18.6221 20.9112 18.6892 20.5546 18.7203 20.1747C18.75 19.8105 18.75 19.3646 18.75 18.8305V6.25Z" fill="#000"/>
<path d="M19.0314 1.25H4.96858C4.29521 1.24999 3.74449 1.24998 3.29693 1.28655C2.83367 1.3244 2.41527 1.40514 2.02453 1.60423C1.413 1.91582 0.915818 2.413 0.60423 3.02453C0.405137 3.41527 0.324402 3.83367 0.286552 4.29693C0.249985 4.74449 0.249992 5.2952 0.25 5.96857V9.03142C0.249992 9.70479 0.249985 10.2555 0.286552 10.7031C0.324402 11.1663 0.405137 11.5847 0.60423 11.9755C0.915818 12.587 1.413 13.0842 2.02453 13.3958C2.68123 13.7304 3.46996 13.7458 4.49733 13.7494L5.25 13.7521V6.25H18.75V13.7521L19.5027 13.7494C20.53 13.7458 21.3188 13.7304 21.9755 13.3958C22.587 13.0842 23.0842 12.587 23.3958 11.9755C23.5949 11.5847 23.6756 11.1663 23.7134 10.7031C23.75 10.2555 23.75 9.70481 23.75 9.03144V5.96856C23.75 5.29519 23.75 4.74449 23.7134 4.29693C23.6756 3.83367 23.5949 3.41527 23.3958 3.02453C23.0842 2.413 22.587 1.91582 21.9755 1.60423C21.5847 1.40514 21.1663 1.3244 20.7031 1.28655C20.2555 1.24998 19.7048 1.24999 19.0314 1.25Z" fill="#000"/>
<path d="M9 12C9 13.6569 10.3431 15 12 15C13.6569 15 15 13.6569 15 12C15 10.3431 13.6569 9 12 9C10.3431 9 9 10.3431 9 12Z" fill="#000"/>
<path d="M11 18.0005C11 17.4482 11.4477 17.0005 12 17.0005C12.5523 17.0005 13.0001 17.4482 13.0001 18.0005C13.0001 18.5528 12.5524 19.0005 12.0001 19.0005C11.4478 19.0005 11 18.5528 11 18.0005Z" fill="#000"/>
</svg>
