<svg width="24" height="24" viewBox="0 0 24 24" fill="none" xmlns="http://www.w3.org/2000/svg">
<path opacity="0.4" d="M16.4326 2.25H6.56739C5.61495 2.24999 4.85439 2.24999 4.24013 2.30018C3.61012 2.35165 3.06824 2.45963 2.57054 2.71322C1.77085 3.12068 1.12068 3.77085 0.713223 4.57054C0.459634 5.06824 0.35165 5.61012 0.300176 6.24013C0.249989 6.85439 0.249994 7.61494 0.25 8.56738V13.4326C0.249994 14.3851 0.249989 15.1456 0.300176 15.7599C0.35165 16.3899 0.459634 16.9318 0.713223 17.4295C1.12068 18.2291 1.77085 18.8793 2.57054 19.2868C3.06824 19.5404 3.61012 19.6483 4.24013 19.6998C4.85438 19.75 5.6149 19.75 6.5673 19.75H13C13.4142 19.75 13.75 19.4142 13.75 19C13.75 14.9959 16.9959 11.75 21 11.75C21.3076 11.75 21.6103 11.7691 21.9072 11.8061C22.1206 11.8327 22.3352 11.7664 22.4964 11.6241C22.6577 11.4817 22.75 11.277 22.75 11.0619V8.56737C22.75 7.61496 22.75 6.85438 22.6998 6.24013C22.6483 5.61012 22.5404 5.06824 22.2868 4.57054C21.8793 3.77085 21.2291 3.12068 20.4295 2.71322C19.9318 2.45963 19.3899 2.35165 18.7599 2.30018C18.1456 2.24999 17.3851 2.24999 16.4326 2.25Z" fill="#000"/>
<path d="M8 11C8 9.067 9.567 7.5 11.5 7.5C13.433 7.5 15 9.067 15 11C15 12.933 13.433 14.5 11.5 14.5C9.567 14.5 8 12.933 8 11Z" fill="#000"/>
<path d="M5 10C4.44772 10 4 10.4477 4 11C4 11.5523 4.44772 12 5 12C5.55228 12 6.0001 11.5523 6.0001 11C6.0001 10.4477 5.55228 10 5 10Z" fill="#000"/>
<path d="M23.75 18C23.75 18.4142 23.4142 18.75 23 18.75H20.75V21C20.75 21.4142 20.4142 21.75 20 21.75C19.5858 21.75 19.25 21.4142 19.25 21V18.75H17C16.5858 18.75 16.25 18.4142 16.25 18C16.25 17.5858 16.5858 17.25 17 17.25H19.25V15C19.25 14.5858 19.5858 14.25 20 14.25C20.4142 14.25 20.75 14.5858 20.75 15V17.25H23C23.4142 17.25 23.75 17.5858 23.75 18Z" fill="#000"/>
</svg>
