<svg width="24" height="24" viewBox="0 0 24 24" fill="none" xmlns="http://www.w3.org/2000/svg">
<path opacity="0.4" d="M7.32263 7.49969C7.18024 7.34081 6.97692 7.25009 6.76357 7.25024C5.902 7.25086 5.20345 7.25587 4.62926 7.31009C4.04643 7.36513 3.53921 7.47459 3.07054 7.71339C2.27085 8.12085 1.62068 8.77102 1.21322 9.57071C0.959634 10.0684 0.85165 10.6103 0.800176 11.2403C0.749989 11.8546 0.749994 12.6151 0.75 13.5675V17.4328C0.749994 18.3852 0.749989 19.1458 0.800176 19.76C0.85165 20.39 0.959634 20.9319 1.21322 21.4296C1.62068 22.2293 2.27085 22.8795 3.07054 23.2869C3.56824 23.5405 4.11012 23.6485 4.74013 23.7C5.3544 23.7502 6.11496 23.7502 7.06742 23.7502H16.9326C17.885 23.7502 18.6456 23.7502 19.2599 23.7C19.8899 23.6485 20.4318 23.5405 20.9295 23.2869C21.7291 22.8795 22.3793 22.2293 22.7868 21.4296C23.0404 20.9319 23.1483 20.39 23.1998 19.76C23.25 19.1458 23.25 18.3853 23.25 17.4329V13.5675C23.25 12.6151 23.25 11.8545 23.1998 11.2403C23.1483 10.6103 23.0404 10.0684 22.7868 9.57071C22.3793 8.77102 21.7291 8.12085 20.9295 7.71339C20.4608 7.47459 19.9536 7.36513 19.3707 7.31009C18.7966 7.25587 18.098 7.25086 17.2364 7.25024C17.0231 7.25009 16.8198 7.34081 16.6774 7.49969C16.6496 7.53064 16.6208 7.56106 16.591 7.59091L13.591 10.5909C13.169 11.0129 12.5967 11.2499 12 11.2499C11.4033 11.2499 10.831 11.0129 10.409 10.5909L7.40901 7.59091C7.37916 7.56106 7.35037 7.53064 7.32263 7.49969Z" fill="#000"/>
<path d="M12 0.25C12.4142 0.25 12.75 0.585786 12.75 1V7.18934L14.4697 5.46967C14.7626 5.17678 15.2374 5.17678 15.5303 5.46967C15.8232 5.76256 15.8232 6.23744 15.5303 6.53033L12.5303 9.53033C12.3897 9.67098 12.1989 9.75 12 9.75C11.8011 9.75 11.6103 9.67098 11.4697 9.53033L8.46967 6.53033C8.17678 6.23744 8.17678 5.76256 8.46967 5.46967C8.76256 5.17678 9.23744 5.17678 9.53033 5.46967L11.25 7.18934V1C11.25 0.585786 11.5858 0.25 12 0.25Z" fill="#000"/>
<path d="M12 12.0002C10.067 12.0002 8.5 13.5672 8.5 15.5002C8.5 17.4332 10.067 19.0002 12 19.0002C13.933 19.0002 15.5 17.4332 15.5 15.5002C15.5 13.658 13.9295 12.0002 12 12.0002Z" fill="#000"/>
<path d="M4.5 15.5002C4.5 14.948 4.94772 14.5002 5.5 14.5002C6.05228 14.5002 6.5001 14.948 6.5001 15.5002C6.5001 16.0525 6.05238 16.5002 5.5001 16.5002C4.94782 16.5002 4.5 16.0525 4.5 15.5002Z" fill="#000"/>
<path d="M18.5 14.5002C17.9477 14.5002 17.5 14.948 17.5 15.5002C17.5 16.0525 17.9477 16.5002 18.5 16.5002C19.0523 16.5002 19.5001 16.0525 19.5001 15.5002C19.5001 14.948 19.0523 14.5002 18.5 14.5002Z" fill="#000"/>
</svg>
