<svg width="24" height="24" viewBox="0 0 24 24" fill="none" xmlns="http://www.w3.org/2000/svg">
<path opacity="0.4" d="M17.7637 3.25C15.5712 3.25 13.7607 3.76773 12.0327 4.26192L11.9444 4.28717C10.1792 4.79177 8.48258 5.26656 6.39081 5.26656C5.31871 5.26656 4.31983 5.05361 3.23473 4.74464C2.67673 4.58575 2.08133 4.65545 1.60549 4.93545C1.11602 5.22347 0.75 5.74358 0.75 6.4108V17.6449C0.75 18.2566 0.924693 18.7893 1.26344 19.2254C1.59329 19.6501 2.04038 19.9342 2.51044 20.1295C3.50506 20.5484 4.33549 20.75 6.2363 20.75C8.42884 20.75 10.2393 20.2323 11.9674 19.7381L12.0556 19.7128C13.8208 19.2082 15.5174 18.7334 17.6092 18.7334C18.6813 18.7334 19.6802 18.9464 20.7653 19.2554C21.3233 19.4142 21.9187 19.3445 22.3945 19.0645C22.884 18.7765 23.25 18.2564 23.25 17.5892V6.35513C23.25 5.74344 23.0753 5.21073 22.7366 4.77461C22.4067 4.34994 21.9596 4.06576 21.4895 3.87047C20.4949 3.45165 19.6645 3.25 17.7637 3.25Z" fill="#000"/>
<path d="M12.7501 8.31229V8C12.7501 7.58579 12.4143 7.25 12.0001 7.25C11.5858 7.25 11.2501 7.58579 11.2501 8V8.31721C10.8275 8.39692 10.4374 8.54964 10.1101 8.78666C9.57349 9.17531 9.25004 9.76357 9.25004 10.4653C9.25004 11.3738 9.75912 11.9447 10.3337 12.2664C10.8609 12.5615 11.4815 12.6739 11.8767 12.7398C12.2815 12.8072 12.6609 12.8898 12.9337 13.0425C13.1591 13.1687 13.25 13.2984 13.25 13.5346C13.25 13.7357 13.1735 13.8801 13.0101 13.9984C12.8243 14.133 12.4935 14.25 12 14.25C11.6594 14.25 11.4608 14.2136 11.2766 14.1406C11.0748 14.0605 10.8411 13.9172 10.4528 13.6232C10.1226 13.3731 9.65217 13.4381 9.40212 13.7684C9.15207 14.0986 9.21706 14.569 9.54729 14.819C9.95901 15.1308 10.3253 15.3769 10.7235 15.5349C10.8998 15.6048 11.0735 15.6541 11.2501 15.6877V16C11.2501 16.4142 11.5858 16.75 12.0001 16.75C12.4143 16.75 12.7501 16.4142 12.7501 16V15.6828C13.1726 15.603 13.5627 15.4503 13.89 15.2133C14.4266 14.8247 14.75 14.2364 14.75 13.5346C14.75 12.6262 14.241 12.0553 13.6664 11.7336C13.1392 11.4385 12.5186 11.3261 12.1233 11.2602C11.7186 11.1927 11.3392 11.1102 11.0664 10.9575C10.841 10.8313 10.75 10.7015 10.75 10.4653C10.75 10.2643 10.8266 10.1198 10.99 10.0015C11.1758 9.86693 11.5066 9.74999 12 9.74999C12.3407 9.74999 12.5393 9.78633 12.7235 9.8594C12.9253 9.93943 13.159 10.0827 13.5473 10.3767C13.8775 10.6268 14.3479 10.5618 14.598 10.2316C14.848 9.90134 14.783 9.43094 14.4528 9.18089C14.0411 8.86912 13.6748 8.62302 13.2766 8.46507C13.1003 8.39517 12.9267 8.34588 12.7501 8.31229Z" fill="#000"/>
</svg>
