<svg width="24" height="24" viewBox="0 0 24 24" fill="none" xmlns="http://www.w3.org/2000/svg">
<g clip-path="url(#clip0_9002_8331)">
<path opacity="0.4" d="M12 0.25C5.51065 0.25 0.25 5.51065 0.25 12C0.25 18.4893 5.51065 23.75 12 23.75C18.4893 23.75 23.75 18.4893 23.75 12C23.75 5.51065 18.4893 0.25 12 0.25Z" fill="#000"/>
<path d="M16.5 11C17.0523 11 17.5 11.4477 17.5 12C17.5 12.5523 17.0523 13.0001 16.5 13.0001C15.9477 13.0001 15.5 12.5524 15.5 12.0001C15.5 11.4478 15.9477 11 16.5 11Z" fill="#000"/>
<path d="M12 11C12.5523 11 13 11.4477 13 12C13 12.5523 12.5523 13.0001 12 13.0001C11.4477 13.0001 11 12.5524 11 12.0001C11 11.4478 11.4477 11 12 11Z" fill="#000"/>
<path d="M8.5 12C8.5 11.4477 8.05229 11 7.5 11C6.94771 11 6.5 11.4477 6.5 12C6.5 12.5523 6.94771 13.0001 7.5 13.0001C8.05229 13.0001 8.5 12.5523 8.5 12Z" fill="#000"/>
</g>
<defs>
<clipPath id="clip0_9002_8331">
<rect width="24" height="24" fill="white"/>
</clipPath>
</defs>
</svg>
