<svg width="24" height="24" viewBox="0 0 24 24" fill="none" xmlns="http://www.w3.org/2000/svg">
<g clip-path="url(#clip0_9002_8341)">
<path opacity="0.4" d="M12 0.25C5.51065 0.25 0.25 5.51065 0.25 12C0.25 18.4893 5.51065 23.75 12 23.75C18.4893 23.75 23.75 18.4893 23.75 12C23.75 5.51065 18.4893 0.25 12 0.25Z" fill="#000"/>
<path d="M11 7.5C11 6.94772 11.4477 6.5 12 6.5C12.5523 6.5 13.0001 6.94772 13.0001 7.5C13.0001 8.05228 12.5524 8.5 12.0001 8.5C11.4478 8.5 11 8.05228 11 7.5Z" fill="#000"/>
<path d="M11 12C11 11.4477 11.4477 11 12 11C12.5523 11 13.0001 11.4477 13.0001 12C13.0001 12.5523 12.5524 13 12.0001 13C11.4478 13 11 12.5523 11 12Z" fill="#000"/>
<path d="M12 15.5C11.4477 15.5 11 15.9477 11 16.5C11 17.0523 11.4477 17.5 12 17.5C12.5523 17.5 13.0001 17.0523 13.0001 16.5C13.0001 15.9477 12.5523 15.5 12 15.5Z" fill="#000"/>
</g>
<defs>
<clipPath id="clip0_9002_8341">
<rect width="24" height="24" fill="white"/>
</clipPath>
</defs>
</svg>
