<svg width="24" height="24" viewBox="0 0 24 24" fill="none" xmlns="http://www.w3.org/2000/svg">
<path opacity="0.4" d="M19.19 1.32662C20.47 0.953284 21.75 1.91329 21.75 3.24662V6.98317C21.7502 6.99456 21.7502 7.00592 21.75 7.01725V15.4999C21.75 15.9141 21.4142 16.2499 21 16.2499C20.5857 16.2499 20.25 15.9141 20.25 15.4999V7.99987L9.74995 11.0624V19.4999C9.74995 19.9141 9.41416 20.2499 8.99995 20.2499C8.58574 20.2499 8.24995 19.9141 8.24995 19.4999V10.5166C8.24969 10.5052 8.24969 10.4938 8.24995 10.4825V6.57995C8.24995 5.35773 9.05662 4.28217 10.23 3.93995L19.19 1.32662Z" fill="#000"/>
<path d="M20.6015 13.1561C19.1518 11.948 16.8483 11.948 15.3985 13.1561C14.6546 13.776 14.25 14.6215 14.25 15.5C14.25 16.3785 14.6546 17.224 15.3985 17.8439C16.8482 19.052 19.1517 19.052 20.6015 17.8439C21.3454 17.224 21.75 16.3785 21.75 15.5C21.75 14.6215 21.3454 13.776 20.6015 13.1561Z" fill="#000"/>
<path d="M8.60146 17.1561C7.15175 15.948 4.84825 15.948 3.39854 17.1561C2.65456 17.776 2.25 18.6215 2.25 19.5C2.25 20.3785 2.65456 21.224 3.39854 21.8439C4.84825 23.052 7.15175 23.052 8.60146 21.8439C9.34544 21.224 9.75 20.3785 9.75 19.5C9.75 18.6215 9.34544 17.776 8.60146 17.1561Z" fill="#000"/>
</svg>
