<svg width="24" height="24" viewBox="0 0 24 24" fill="none" xmlns="http://www.w3.org/2000/svg">
<path opacity="0.4" d="M7.04508 1.25C5.81408 1.25 4.68872 1.94551 4.1382 3.04656L1.48754 8.34787C1.33133 8.6603 1.25 9.0048 1.25 9.3541V19C1.25 21.0711 2.92893 22.75 5 22.75H19C21.0711 22.75 22.75 21.0711 22.75 19V9.3541C22.75 9.0048 22.6687 8.6603 22.5125 8.34787L19.8618 3.04656C19.3113 1.94551 18.1859 1.25 16.9549 1.25H7.04508Z" fill="#000"/>
<path d="M12.75 7.94993C12.75 8.11561 12.6157 8.24993 12.45 8.24993H11.55C11.3843 8.24993 11.25 8.11561 11.25 7.94993V1.55008C11.25 1.3844 11.1157 1.25009 10.95 1.25009L7.85261 1.25004C7.07171 1.2496 6.50267 1.24928 5.98535 1.42771C5.52995 1.58479 5.11516 1.84114 4.771 2.17822C4.38005 2.56112 4.12586 3.07022 3.77702 3.76887L1.32918 8.6646C1.21293 8.89709 1.22536 9.17319 1.36201 9.3943C1.49867 9.61541 1.74007 9.75 2 9.75H22C22.2599 9.75 22.5013 9.61541 22.638 9.3943C22.7746 9.17319 22.7871 8.89709 22.6708 8.6646L20.223 3.76885C19.8741 3.07021 19.6199 2.56112 19.229 2.17822C18.8848 1.84114 18.4701 1.58479 18.0146 1.42771C17.4973 1.24928 16.9283 1.2496 16.1474 1.25004L13.05 1.25009C12.8843 1.25009 12.75 1.3844 12.75 1.55008V7.94993Z" fill="#000"/>
<path d="M6 16.25C5.58579 16.25 5.25 16.5858 5.25 17C5.25 17.4142 5.58579 17.75 6 17.75H9C9.41421 17.75 9.75 17.4142 9.75 17C9.75 16.5858 9.41421 16.25 9 16.25H6Z" fill="#000"/>
</svg>
