<svg width="24" height="24" viewBox="0 0 24 24" fill="none" xmlns="http://www.w3.org/2000/svg">
<path opacity="0.4" d="M17.6318 1.25H11.8682C11.1251 1.24999 10.522 1.24999 10.0327 1.28996C9.52778 1.33121 9.07851 1.41876 8.66103 1.63148C8.00247 1.96703 7.46703 2.50247 7.13148 3.16103C6.91876 3.57851 6.83121 4.02778 6.78996 4.53273C6.74999 5.02197 6.74999 5.62512 6.75 6.3682V12.1318C6.74999 12.8749 6.74999 13.478 6.78996 13.9673C6.83121 14.4722 6.91876 14.9215 7.13148 15.339C7.46703 15.9975 8.00247 16.533 8.66103 16.8685C9.07851 17.0812 9.52778 17.1688 10.0327 17.21C10.5219 17.25 11.1251 17.25 11.8681 17.25H17.6318C18.3748 17.25 18.9781 17.25 19.4673 17.21C19.9722 17.1688 20.4215 17.0812 20.839 16.8685C21.4975 16.533 22.033 15.9975 22.3685 15.339C22.5812 14.9215 22.6688 14.4722 22.71 13.9673C22.75 13.4781 22.75 12.8749 22.75 12.1319V6.36819C22.75 5.62515 22.75 5.02195 22.71 4.53273C22.6688 4.02778 22.5812 3.57851 22.3685 3.16103C22.033 2.50247 21.4975 1.96703 20.839 1.63148C20.4215 1.41876 19.9722 1.33121 19.4673 1.28996C18.978 1.24999 18.3749 1.24999 17.6318 1.25Z" fill="#000"/>
<path d="M6.75 6.75V12.1318C6.74999 12.8749 6.74999 13.478 6.78996 13.9673C6.83121 14.4722 6.91876 14.9215 7.13148 15.339C7.46703 15.9975 8.00247 16.533 8.66103 16.8685C9.07851 17.0812 9.52778 17.1688 10.0327 17.21C10.522 17.25 11.1251 17.25 11.8682 17.25H17.25V17.6318C17.25 18.3749 17.25 18.978 17.21 19.4673C17.1688 19.9722 17.0812 20.4215 16.8685 20.839C16.533 21.4975 15.9975 22.033 15.339 22.3685C14.9215 22.5812 14.4722 22.6688 13.9673 22.71C13.478 22.75 12.8749 22.75 12.1318 22.75H6.36819C5.62511 22.75 5.02196 22.75 4.53273 22.71C4.02778 22.6688 3.57851 22.5812 3.16103 22.3685C2.50247 22.033 1.96703 21.4975 1.63148 20.839C1.41876 20.4215 1.33121 19.9722 1.28996 19.4673C1.24999 18.978 1.24999 18.3749 1.25 17.6318V11.8682C1.24999 11.1251 1.24999 10.522 1.28996 10.0327C1.33121 9.52778 1.41876 9.07851 1.63148 8.66103C1.96703 8.00247 2.50247 7.46703 3.16103 7.13148C3.57851 6.91876 4.02778 6.83121 4.53273 6.78996C5.02196 6.74999 5.62511 6.74999 6.36819 6.75H6.75Z" fill="#000"/>
</svg>
