<svg width="24" height="24" viewBox="0 0 24 24" fill="none" xmlns="http://www.w3.org/2000/svg">
<path opacity="0.4" d="M18.694 3.85621C17.5314 2.7146 15.639 2.7146 14.4764 3.8562L5.44618 12.7234C3.51794 14.6168 3.51794 17.679 5.44618 19.5725C7.38382 21.4751 10.5323 21.4758 12.4709 19.5747L12.4731 19.5725L20.2947 11.7911C20.6862 11.4016 21.3194 11.4032 21.7089 11.7947C22.0984 12.1862 22.0968 12.8194 21.7053 13.2089L13.8744 20.9995C11.158 23.6669 6.7613 23.6668 4.04491 20.9995C1.31836 18.3222 1.31836 13.9737 4.04491 11.2964L13.0752 2.42917C15.0158 0.523609 18.1547 0.523613 20.0953 2.42917C22.046 4.3447 22.046 7.45806 20.0953 9.37358L11.4664 17.8467C10.3016 18.9905 8.42046 18.9905 7.25567 17.8467C6.08072 16.693 6.08072 14.8147 7.25567 13.661L14.6805 6.37015C15.0746 5.9832 15.7077 5.98897 16.0947 6.38304C16.4816 6.7771 16.4759 7.41024 16.0818 7.79719L8.65694 15.088C8.28029 15.4579 8.28029 16.0498 8.65694 16.4197C9.04374 16.7995 9.67828 16.7995 10.0651 16.4197L18.694 7.94655C19.8464 6.81491 19.8464 4.98784 18.694 3.85621Z" fill="#000"/>
</svg>
