<svg width="24" height="24" viewBox="0 0 24 24" fill="none" xmlns="http://www.w3.org/2000/svg">
<path opacity="0.4" d="M15.633 1.25H8.367C7.27486 1.24999 6.40936 1.24999 5.71173 1.30699C4.99835 1.36527 4.39472 1.48688 3.84355 1.76772C2.94978 2.22312 2.22312 2.94978 1.76772 3.84355C1.48688 4.39472 1.36527 4.99834 1.30699 5.71173C1.24999 6.40935 1.24999 7.27485 1.25 8.36699V15.633C1.24999 16.7251 1.24999 17.5906 1.30699 18.2883C1.36527 19.0017 1.48688 19.6053 1.76772 20.1565C2.22312 21.0502 2.94977 21.7769 3.84355 22.2323C4.39472 22.5131 4.99835 22.6347 5.71173 22.693C6.40935 22.75 7.27484 22.75 8.36698 22.75H15.633C16.7252 22.75 17.5906 22.75 18.2883 22.693C19.0017 22.6347 19.6053 22.5131 20.1565 22.2323C21.0502 21.7769 21.7769 21.0502 22.2323 20.1565C22.5131 19.6053 22.6347 19.0017 22.693 18.2883C22.75 17.5906 22.75 16.7252 22.75 15.633V8.36698C22.75 7.27484 22.75 6.40935 22.693 5.71173C22.6347 4.99835 22.5131 4.39472 22.2323 3.84355C21.7769 2.94977 21.0502 2.22312 20.1565 1.76772C19.6053 1.48688 19.0017 1.36527 18.2883 1.30699C17.5906 1.24999 16.7251 1.24999 15.633 1.25Z" fill="#000"/>
<path fill-rule="evenodd" clip-rule="evenodd" d="M8.25 7.58333C8.25 6.84695 8.84695 6.25 9.58333 6.25H13.25C15.183 6.25 16.75 7.817 16.75 9.75C16.75 11.683 15.183 13.25 13.25 13.25H9.75V17C9.75 17.4142 9.41421 17.75 9 17.75C8.58579 17.75 8.25 17.4142 8.25 17V7.58333ZM9.75 11.75H13.25C14.3546 11.75 15.25 10.8546 15.25 9.75C15.25 8.64543 14.3546 7.75 13.25 7.75H9.75V11.75Z" fill="#000"/>
</svg>
