<svg width="24" height="24" viewBox="0 0 24 24" fill="none" xmlns="http://www.w3.org/2000/svg">
<path opacity="0.4" d="M20.751 3.6V20.4C20.751 21.036 20.751 21.42 20.561 21.794C20.392 22.126 20.127 22.391 19.796 22.559C19.422 22.749 19.038 22.749 18.401 22.749H16.601C15.965 22.749 15.58 22.749 15.206 22.559C14.875 22.391 14.61 22.126 14.441 21.794C14.25 21.419 14.25 21.035 14.25 20.399V3.6C14.25 2.964 14.25 2.58 14.44 2.206C14.609 1.874 14.874 1.609 15.205 1.441C15.579 1.25 15.963 1.25 16.6 1.25H18.4C19.037 1.25 19.421 1.25 19.796 1.441C20.126 1.609 20.391 1.874 20.56 2.205C20.751 2.58 20.751 2.964 20.751 3.6Z" fill="#000"/>
<path d="M8.796 1.441C8.421 1.25 8.037 1.25 7.4 1.25H5.6C4.963 1.25 4.579 1.25 4.205 1.441C3.873 1.61 3.608 1.875 3.44 2.206C3.25 2.58 3.25 2.964 3.25 3.6V20.4C3.25 21.036 3.25 21.42 3.44 21.793C3.609 22.125 3.874 22.39 4.206 22.559C4.58 22.749 4.964 22.749 5.601 22.749H7.401C8.037 22.749 8.422 22.749 8.796 22.559C9.127 22.391 9.392 22.126 9.561 21.794C9.751 21.42 9.751 21.036 9.751 20.4V3.6C9.751 2.964 9.751 2.58 9.56 2.205C9.391 1.873 9.126 1.609 8.796 1.441Z" fill="#000"/>
</svg>
