<svg width="24" height="24" viewBox="0 0 24 24" fill="none" xmlns="http://www.w3.org/2000/svg">
<path opacity="0.4" d="M19.4877 10.577L13.4211 4.51038L9.0165 5.56525C8.01471 5.80488 7.34936 5.96402 6.78429 6.3045C6.28551 6.60504 5.85381 7.00487 5.51598 7.47918C5.13326 8.01653 4.92365 8.66774 4.60806 9.64825L1.84996 18.2088C1.62791 18.898 1.44533 19.4646 1.34363 19.9183C1.24236 20.37 1.18569 20.8477 1.34845 21.2984C1.5757 21.9276 2.07118 22.4231 2.70043 22.6504C3.15112 22.8131 3.62883 22.7565 4.08055 22.6552C4.53417 22.5535 5.10078 22.3709 5.78991 22.1489L14.3503 19.3908C15.3309 19.0752 15.9822 18.8655 16.5196 18.4827C16.994 18.1448 17.3938 17.7131 17.6943 17.2142C18.0348 16.649 18.1939 15.9836 18.4334 14.9816L19.4877 10.577Z" fill="#000"/>
<path d="M13.4297 4.50905L13.4219 4.51093L19.4885 10.5776L19.4904 10.5697L21.2919 8.76822C21.6205 8.43964 21.8987 8.16143 22.1081 7.9147C22.3277 7.65602 22.5155 7.38302 22.6232 7.05157C22.7863 6.54946 22.7863 6.00859 22.6231 5.50649C22.5155 5.17504 22.3277 4.90203 22.1081 4.64336C21.8987 4.39665 21.6205 4.11848 21.292 3.78996L20.2096 2.70758C19.881 2.37898 19.6028 2.10075 19.3561 1.89129C19.0974 1.67169 18.8244 1.48396 18.4929 1.37626C17.9908 1.21312 17.4499 1.21312 16.9478 1.37627C16.6164 1.48396 16.3434 1.67169 16.0847 1.8913C15.838 2.10076 15.5598 2.37898 15.2312 2.70757L13.4297 4.50905Z" fill="#000"/>
<path d="M10.501 11.25C9.25834 11.25 8.25098 12.2574 8.25098 13.5C8.25098 13.8473 8.32969 14.1763 8.47024 14.47L1.43555 21.5047C1.65736 21.969 2.032 22.3435 2.4964 22.5652L9.53089 15.5307C9.82462 15.6713 10.1536 15.75 10.501 15.75C11.7436 15.75 12.751 14.7426 12.751 13.5C12.751 12.2574 11.7436 11.25 10.501 11.25Z" fill="#000"/>
</svg>
