<svg width="24" height="24" viewBox="0 0 24 24" fill="none" xmlns="http://www.w3.org/2000/svg">
<path opacity="0.4" d="M18.6799 1.38289C18.1276 1.20343 17.5327 1.20343 16.9804 1.38289C16.6204 1.49984 16.3208 1.70449 16.0303 1.95108C15.7518 2.18748 15.4368 2.50258 15.0593 2.88004L3.06727 14.872C2.90989 15.0292 2.77076 15.1681 2.65612 15.3324C2.55525 15.4769 2.47171 15.6328 2.40722 15.7968C2.3339 15.9832 2.2949 16.1777 2.2507 16.3981L1.35708 20.8379C1.32186 21.0127 1.28614 21.19 1.26981 21.3407C1.25253 21.5002 1.24259 21.7349 1.34332 21.9787C1.47021 22.2858 1.71417 22.5298 2.0213 22.6567C2.26511 22.7574 2.49975 22.7475 2.65927 22.7302C2.80998 22.7139 2.98728 22.6781 3.1621 22.6429L7.60193 21.7493C7.82231 21.7051 8.01677 21.6661 8.20321 21.5928C8.36722 21.5283 8.52309 21.4447 8.6676 21.3439C8.83188 21.2292 8.97202 21.0889 9.13085 20.9298L21.1193 8.94139C21.497 8.56371 21.8122 8.24846 22.0487 7.96987C22.2954 7.6793 22.5002 7.37965 22.6171 7.01966C22.7966 6.46734 22.7966 5.87239 22.6171 5.32007C22.5002 4.96007 22.2954 4.66042 22.0487 4.36986C21.8122 4.09126 21.497 3.77599 21.1192 3.39829L20.6017 2.88072C20.224 2.50302 19.9087 2.18777 19.6302 1.95127C19.3396 1.70459 19.0399 1.49985 18.6799 1.38289Z" fill="#000"/>
<path d="M12.9697 4.96967L15.0593 2.88009C15.4368 2.50264 15.7519 2.18747 16.0304 1.95108C16.3209 1.70449 16.6205 1.49984 16.9804 1.38289C17.5327 1.20343 18.1277 1.20343 18.68 1.38289C19.04 1.49985 19.3396 1.70459 19.6302 1.95127C19.9088 2.18777 20.224 2.50302 20.6017 2.88072L21.1193 3.39829C21.497 3.77599 21.8123 4.09126 22.0488 4.36986C22.2955 4.66042 22.5002 4.96007 22.6172 5.32007C22.7966 5.87239 22.7966 6.46734 22.6172 7.01966C22.5002 7.37965 22.2955 7.6793 22.0488 7.96987C21.8123 8.24846 21.497 8.56371 21.1193 8.94139L19.0304 11.0303L12.9697 4.96967Z" fill="#000"/>
</svg>
