<svg width="24" height="24" viewBox="0 0 24 24" fill="none" xmlns="http://www.w3.org/2000/svg">
<path opacity="0.4" d="M12 0.25C5.51065 0.25 0.25 5.51065 0.25 12C0.25 18.4893 5.51065 23.75 12 23.75C18.4893 23.75 23.75 18.4893 23.75 12C23.75 5.51065 18.4893 0.25 12 0.25Z" fill="#000"/>
<path d="M15.5303 8.46967C15.8232 8.76256 15.8232 9.23744 15.5303 9.53033L9.53033 15.5303C9.23744 15.8232 8.76256 15.8232 8.46967 15.5303C8.17678 15.2374 8.17678 14.7626 8.46967 14.4697L14.4697 8.46967C14.7626 8.17678 15.2374 8.17678 15.5303 8.46967Z" fill="#000"/>
<path d="M8.5 9.5C8.5 8.94772 8.94772 8.5 9.5 8.5C10.0523 8.5 10.5001 8.94772 10.5001 9.5C10.5001 10.0523 10.0524 10.5 9.5001 10.5C8.94782 10.5 8.5 10.0523 8.5 9.5Z" fill="#000"/>
<path d="M14.5 13.5C13.9477 13.5 13.5 13.9477 13.5 14.5C13.5 15.0523 13.9477 15.5 14.5 15.5C15.0523 15.5 15.5001 15.0523 15.5001 14.5C15.5001 13.9477 15.0523 13.5 14.5 13.5Z" fill="#000"/>
</svg>
