<svg width="24" height="24" viewBox="0 0 24 24" fill="none" xmlns="http://www.w3.org/2000/svg">
<g opacity="0.4">
<path d="M6.10448 2.03501C5.72093 1.72336 5.18977 1.66695 4.74932 1.89108C4.60984 1.96206 4.47484 2.08027 4.27644 2.254L3.59734 2.84829C3.54164 2.89704 3.51169 2.92325 3.48409 2.9481C2.03053 4.25686 1.42504 6.26516 1.91295 8.15926C1.92221 8.19521 1.93535 8.24339 1.95996 8.33364L1.97268 8.38025C2.43151 10.0586 3.15698 11.6525 4.12123 13.1008L4.15228 13.1473C4.50533 13.676 4.87848 14.1898 5.27069 14.6877C5.3149 14.7438 5.381 14.7783 5.45231 14.7825C5.52363 14.7868 5.59334 14.7603 5.64385 14.7098L8.47379 11.8798C8.55528 11.7983 8.5705 11.6717 8.51063 11.5732C8.27933 11.1927 8.05432 10.7839 7.83022 10.3409L9.76024 8.33246C9.83854 8.25099 9.9067 8.18006 9.95899 8.1167C10.0146 8.0493 10.0641 7.97688 10.0957 7.88854C10.1434 7.75531 10.1524 7.61131 10.1217 7.47316C10.1014 7.38157 10.0614 7.30355 10.0146 7.22973C9.97061 7.16033 9.91184 7.08145 9.84433 6.99083L6.49059 2.48916C6.3331 2.27763 6.22594 2.1337 6.10448 2.03501Z" fill="#000"/>
<path d="M16.392 13.749C16.2475 13.719 16.0974 13.7323 15.9604 13.7873C15.8693 13.8239 15.796 13.8795 15.7286 13.9415C15.6651 13.9999 15.5944 14.0759 15.513 14.1634L13.6521 16.1626C12.2042 15.3978 11.1199 14.6558 10.2243 13.7732C10.1265 13.6767 9.96919 13.6773 9.87206 13.7744L7.17203 16.4745C7.0744 16.5721 7.07439 16.7304 7.17203 16.828C8.29424 17.9502 9.52674 18.9624 10.853 19.848L10.8995 19.879C12.3478 20.8433 13.9417 21.5687 15.6201 22.0275L15.6651 22.0398C15.7563 22.0647 15.8048 22.0779 15.8409 22.0872C17.735 22.5751 19.7433 21.9697 21.0521 20.5161C21.0769 20.4885 21.1031 20.4586 21.1518 20.403L21.7487 19.7208C21.9227 19.5222 22.041 19.3871 22.112 19.2473C22.335 18.8086 22.2798 18.28 21.9711 17.8967C21.8728 17.7746 21.7291 17.6668 21.518 17.5084L16.9061 14.0453L16.9003 14.0414L16.8987 14.0402C16.8031 13.9685 16.7202 13.9062 16.6474 13.8599C16.5701 13.8108 16.4882 13.7689 16.392 13.749Z" fill="#000"/>
</g>
<path d="M22.5303 1.46967C22.2374 1.17678 21.7626 1.17678 21.4697 1.46967L1.46967 21.4697C1.17678 21.7626 1.17678 22.2374 1.46967 22.5303C1.76256 22.8232 2.23744 22.8232 2.53033 22.5303L22.5303 2.53033C22.8232 2.23744 22.8232 1.76256 22.5303 1.46967Z" fill="#000"/>
</svg>
