<svg width="24" height="24" viewBox="0 0 24 24" fill="none" xmlns="http://www.w3.org/2000/svg">
<g opacity="0.4">
<path d="M6.10472 2.03501C5.72117 1.72336 5.19002 1.66695 4.74956 1.89108C4.61008 1.96206 4.47509 2.08027 4.27668 2.254L3.59759 2.84829C3.54188 2.89704 3.51193 2.92325 3.48433 2.9481C2.03078 4.25686 1.42528 6.26516 1.91319 8.15926C1.92245 8.19521 1.93559 8.24339 1.96021 8.33364L1.97292 8.38025C2.43175 10.0586 3.15722 11.6525 4.12148 13.1008L4.15253 13.1473C4.50558 13.676 4.87872 14.1898 5.27094 14.6877C5.31515 14.7438 5.38125 14.7783 5.45256 14.7825C5.52387 14.7868 5.59358 14.7603 5.64409 14.7098L8.47403 11.8798C8.55553 11.7983 8.57075 11.6717 8.51088 11.5732C8.27957 11.1927 8.05457 10.7839 7.83046 10.3409L9.76049 8.33246C9.83878 8.25099 9.90694 8.18006 9.95924 8.1167C10.0149 8.0493 10.0643 7.97688 10.0959 7.88854C10.1436 7.75531 10.1526 7.61131 10.122 7.47316C10.1016 7.38157 10.0616 7.30355 10.0148 7.22973C9.97085 7.16033 9.91208 7.08145 9.84457 6.99083L6.49083 2.48916C6.33334 2.27763 6.22619 2.1337 6.10472 2.03501Z" fill="#000"/>
<path d="M16.3923 13.749C16.2477 13.719 16.0976 13.7323 15.9606 13.7873C15.8695 13.8239 15.7963 13.8795 15.7289 13.9415C15.6653 13.9999 15.5946 14.0759 15.5132 14.1634L13.6524 16.1626C12.2044 15.3978 11.1201 14.6558 10.2246 13.7732C10.1267 13.6767 9.96944 13.6773 9.87231 13.7744L7.17227 16.4745C7.07464 16.5721 7.07464 16.7304 7.17227 16.828C8.29448 17.9502 9.52698 18.9624 10.8532 19.848L10.8998 19.879C12.3481 20.8433 13.942 21.5687 15.6203 22.0275L15.6654 22.0398C15.7565 22.0647 15.805 22.0779 15.8412 22.0872C17.7353 22.5751 19.7436 21.9697 21.0523 20.5161C21.0772 20.4885 21.1034 20.4586 21.1521 20.403L21.749 19.7208C21.9229 19.5222 22.0412 19.3871 22.1123 19.2473C22.3352 18.8086 22.2801 18.28 21.9714 17.8967C21.873 17.7746 21.7293 17.6668 21.5182 17.5084L16.9064 14.0453L16.9005 14.0414L16.8989 14.0402C16.8034 13.9685 16.7204 13.9062 16.6476 13.8599C16.5703 13.8108 16.4884 13.7689 16.3923 13.749Z" fill="#000"/>
</g>
<path d="M22.5303 1.46967C22.2374 1.17678 21.7626 1.17678 21.4697 1.46967L1.46967 21.4697C1.17678 21.7626 1.17678 22.2374 1.46967 22.5303C1.76256 22.8232 2.23744 22.8232 2.53033 22.5303L22.5303 2.53033C22.8232 2.23744 22.8232 1.76256 22.5303 1.46967Z" fill="#000"/>
</svg>
