<svg width="24" height="24" viewBox="0 0 24 24" fill="none" xmlns="http://www.w3.org/2000/svg">
<path opacity="0.4" fill-rule="evenodd" clip-rule="evenodd" d="M6.10472 2.03501C5.72117 1.72336 5.19002 1.66695 4.74956 1.89108C4.61008 1.96206 4.47509 2.08027 4.27668 2.254L3.59753 2.84834C3.54186 2.89706 3.51192 2.92325 3.48433 2.9481C2.03078 4.25686 1.42528 6.26516 1.91319 8.15926C1.92246 8.19522 1.9356 8.2434 1.96021 8.33366L1.97292 8.38025C2.43175 10.0586 3.15722 11.6525 4.12148 13.1008L4.15253 13.1473C5.92368 15.7998 8.20079 18.0768 10.8532 19.848L10.8998 19.879C12.3481 20.8433 13.942 21.5687 15.6203 22.0275L15.6657 22.0399C15.7567 22.0647 15.8051 22.0779 15.8412 22.0872C17.7353 22.5752 19.7436 21.9697 21.0523 20.5161C21.0772 20.4885 21.1034 20.4585 21.1523 20.4027L21.749 19.7208C21.9229 19.5222 22.0412 19.3871 22.1123 19.2473C22.3352 18.8086 22.2801 18.28 21.9714 17.8968C21.873 17.7746 21.7293 17.6668 21.5182 17.5084L16.9064 14.0453L16.9005 14.0414L16.8989 14.0402C16.8034 13.9685 16.7204 13.9062 16.6476 13.8599C16.5703 13.8108 16.4884 13.7689 16.3923 13.749C16.2477 13.719 16.0976 13.7323 15.9606 13.7873C15.8695 13.8239 15.7963 13.8795 15.7289 13.9415C15.6653 13.9999 15.5946 14.0759 15.5132 14.1634L13.6524 16.1626C12.1761 15.3828 11.0777 14.6267 10.172 13.721C9.26623 12.8152 8.54344 11.7501 7.83046 10.3409L9.76048 8.33247C9.83877 8.25101 9.90694 8.18006 9.95924 8.1167C10.0149 8.0493 10.0643 7.97688 10.0959 7.88854C10.1436 7.75531 10.1526 7.61131 10.122 7.47316C10.1016 7.38157 10.0616 7.30355 10.0148 7.22973C9.97086 7.16034 9.9121 7.08147 9.8446 6.99087L6.49083 2.48916C6.33334 2.27763 6.22619 2.1337 6.10472 2.03501Z" fill="#000"/>
</svg>
