<svg width="24" height="24" viewBox="0 0 24 24" fill="none" xmlns="http://www.w3.org/2000/svg">
<path opacity="0.4" d="M5.5 7C5.22386 7 5 7.22386 5 7.5V12C5 15.866 8.13401 19 12 19C15.866 19 19 15.866 19 12V7.5C19 7.22386 18.7761 7 18.5 7H5.5Z" fill="#000"/>
<path d="M9.5 2C9.5 1.58579 9.16421 1.25 8.75 1.25C8.33579 1.25 8 1.58579 8 2V5.75H9.5V2Z" fill="#000"/>
<path d="M16 2C16 1.58579 15.6642 1.25 15.25 1.25C14.8358 1.25 14.5 1.58579 14.5 2V5.75H16V2Z" fill="#000"/>
<path d="M11.25 18.96C11.4964 18.9862 11.7466 18.9997 12 18.9997C12.2534 18.9997 12.5036 18.9862 12.75 18.96V21.9997C12.75 22.4139 12.4142 22.7497 12 22.7497C11.5858 22.7497 11.25 22.4139 11.25 21.9997V18.96Z" fill="#000"/>
<path d="M20 8.25C20.4142 8.25 20.75 7.91421 20.75 7.5C20.75 7.08579 20.4142 6.75 20 6.75L4 6.75C3.58579 6.75 3.25 7.08578 3.25 7.5C3.25 7.91421 3.58579 8.25 4 8.25L20 8.25Z" fill="#000"/>
</svg>
