<svg width="24" height="24" viewBox="0 0 24 24" fill="none" xmlns="http://www.w3.org/2000/svg">
<path opacity="0.4" d="M14.6 2.25H8.367C7.27486 2.24999 6.40936 2.24999 5.71173 2.30699C4.99835 2.36527 4.39472 2.48688 3.84355 2.76772C2.94978 3.22312 2.22312 3.94978 1.76772 4.84355C1.48688 5.39472 1.36527 5.99834 1.30699 6.71173C1.24999 7.40935 1.24999 8.27485 1.25 9.36699V15.633C1.24999 16.7251 1.24999 17.5906 1.30699 18.2883C1.36527 19.0017 1.48688 19.6053 1.76772 20.1565C2.22312 21.0502 2.94977 21.7769 3.84355 22.2323C4.39472 22.5131 4.99834 22.6347 5.71173 22.693C6.40935 22.75 7.27484 22.75 8.36698 22.75H14.633C15.7252 22.75 16.5906 22.75 17.2883 22.693C18.0017 22.6347 18.6053 22.5131 19.1565 22.2323C20.0502 21.7769 20.7769 21.0502 21.2323 20.1565C21.5131 19.6053 21.6347 19.0017 21.693 18.2883C21.75 17.5906 21.75 16.7252 21.75 15.633V9.4C21.75 9.22687 21.75 9.05986 21.7498 8.89908C21.7495 8.67418 21.6483 8.46127 21.4741 8.31904C21.2999 8.17682 21.071 8.12028 20.8506 8.16501C20.5764 8.22066 20.292 8.25 20 8.25C17.6528 8.25 15.75 6.34721 15.75 4C15.75 3.70799 15.7793 3.4236 15.835 3.14937C15.8797 2.92896 15.8232 2.70011 15.681 2.5259C15.5387 2.35168 15.3258 2.25049 15.1009 2.2502C14.9402 2.25 14.773 2.25 14.6 2.25Z" fill="#000"/>
<path d="M17.5 4C17.5 2.61929 18.6193 1.5 20 1.5C21.3807 1.5 22.5 2.61929 22.5 4C22.5 5.38071 21.3807 6.5 20 6.5C18.6193 6.5 17.5 5.38071 17.5 4Z" fill="#000"/>
<path d="M10.75 16.5C10.75 16.9142 11.0858 17.25 11.5 17.25C11.9142 17.25 12.25 16.9142 12.25 16.5L12.25 8.5C12.25 8.08579 11.9142 7.75 11.5 7.75C11.0858 7.75 10.75 8.08579 10.75 8.5L10.75 16.5Z" fill="#000"/>
<path d="M8 17.25C7.58579 17.25 7.25 16.9142 7.25 16.5L7.25 13.5C7.25 13.0858 7.58579 12.75 8 12.75C8.41421 12.75 8.75 13.0858 8.75 13.5L8.75 16.5C8.75 16.9142 8.41421 17.25 8 17.25Z" fill="#000"/>
<path d="M14.25 16.5C14.25 16.9142 14.5858 17.25 15 17.25C15.4142 17.25 15.75 16.9142 15.75 16.5L15.75 10.5C15.75 10.0858 15.4142 9.75 15 9.75C14.5858 9.75 14.25 10.0858 14.25 10.5L14.25 16.5Z" fill="#000"/>
</svg>
