<svg width="24" height="24" viewBox="0 0 24 24" fill="none" xmlns="http://www.w3.org/2000/svg">
<path opacity="0.4" d="M8.76112 4.54075C9.01474 5.03136 8.82262 5.63467 8.33201 5.88829C5.75676 7.21956 4 9.90545 4 13C4 17.4182 7.58172 21 12 21C16.4183 21 20 17.4182 20 13C20 9.90545 18.2432 7.21956 15.668 5.88829C15.1774 5.63467 14.9853 5.03136 15.2389 4.54075C15.4925 4.05014 16.0958 3.85802 16.5864 4.11164C19.7999 5.77282 22 9.12862 22 13C22 18.5228 17.5228 23 12 23C6.47715 23 2 18.5228 2 13C2 9.12862 4.20013 5.77282 7.41358 4.11164C7.90419 3.85802 8.5075 4.05014 8.76112 4.54075Z" fill="#000"/>
<path d="M12 1C12.5523 1 13 1.44772 13 2V9.5C13 10.0523 12.5523 10.5 12 10.5C11.4477 10.5 11 10.0523 11 9.5V2C11 1.44772 11.4477 1 12 1Z" fill="#000"/>
</svg>
