<svg width="24" height="24" viewBox="0 0 24 24" fill="none" xmlns="http://www.w3.org/2000/svg">
<path opacity="0.4" d="M12 0.25C5.51065 0.25 0.25 5.51065 0.25 12C0.25 18.4893 5.51065 23.75 12 23.75C18.4893 23.75 23.75 18.4893 23.75 12C23.75 5.51065 18.4893 0.25 12 0.25Z" fill="#000"/>
<path d="M10.25 9.5C10.25 8.5335 11.0335 7.75 12 7.75C12.9665 7.75 13.75 8.5335 13.75 9.5C13.75 9.98836 13.5509 10.4289 13.2277 10.7471C13.1942 10.7801 13.1145 10.8352 12.9129 10.9521L12.8541 10.9862C12.6884 11.0818 12.4699 11.2079 12.264 11.359C11.7735 11.7188 11.25 12.2981 11.25 13.25C11.25 13.6642 11.5858 14 12 14C12.4142 14 12.75 13.6642 12.75 13.25C12.75 12.9519 12.8778 12.7691 13.1514 12.5683C13.2869 12.4689 13.4322 12.3848 13.606 12.2842L13.6702 12.2469C13.8398 12.1485 14.0895 12.0037 14.28 11.816C14.8779 11.2274 15.25 10.4065 15.25 9.5C15.25 7.70507 13.7949 6.25 12 6.25C10.2051 6.25 8.75 7.70507 8.75 9.5C8.75 9.87851 8.81502 10.2435 8.93512 10.5833C9.07316 10.9738 9.50165 11.1785 9.89219 11.0405C10.2827 10.9024 10.4874 10.4739 10.3494 10.0834C10.2852 9.90191 10.25 9.70588 10.25 9.5Z" fill="#000"/>
<path d="M12 15.5C11.4477 15.5 11 15.9477 11 16.5C11 17.0523 11.4477 17.5 12 17.5C12.5523 17.5 13.0001 17.0523 13.0001 16.5C13.0001 15.9477 12.5523 15.5 12 15.5Z" fill="#000"/>
</svg>
