<svg width="24" height="24" viewBox="0 0 24 24" fill="none" xmlns="http://www.w3.org/2000/svg">
<g opacity="0.4">
<path d="M19.5 13.25C20.7426 13.25 21.75 14.2574 21.75 15.5V22C21.75 22.4142 21.4142 22.75 21 22.75H15C14.5858 22.75 14.25 22.4142 14.25 22V14C14.25 13.5858 14.5858 13.25 15 13.25H19.5Z" fill="#000"/>
<path d="M9 15.25C9.41421 15.25 9.75 15.5858 9.75 16V22C9.75 22.4142 9.41421 22.75 9 22.75H3C2.58579 22.75 2.25 22.4142 2.25 22V17.5C2.25 16.2574 3.25736 15.25 4.5 15.25H9Z" fill="#000"/>
</g>
<path d="M12.8157 2.00975C12.4857 1.33008 11.5143 1.33009 11.1843 2.00975L10.5334 3.3502L9.0399 3.54366C8.28573 3.64135 7.97417 4.57342 8.53745 5.09887L9.62166 6.11026L9.34893 7.55763C9.20687 8.31151 10.004 8.87442 10.6671 8.52077L12 7.80989L13.3329 8.52077C13.996 8.87442 14.7931 8.31151 14.6511 7.55763L14.3783 6.11026L15.4625 5.09887C16.0258 4.57342 15.7143 3.64135 14.9601 3.54366L13.4666 3.3502L12.8157 2.00975Z" fill="#000"/>
<path d="M13.75 9.75C14.8546 9.75 15.75 10.6454 15.75 11.75V21.25H22C22.4142 21.25 22.75 21.5858 22.75 22C22.75 22.4142 22.4142 22.75 22 22.75H2C1.58579 22.75 1.25 22.4142 1.25 22C1.25 21.5858 1.58579 21.25 2 21.25H8.25V11.75C8.25 10.6454 9.14543 9.75 10.25 9.75H13.75Z" fill="#000"/>
</svg>
