<svg width="24" height="24" viewBox="0 0 24 24" fill="none" xmlns="http://www.w3.org/2000/svg">
<path opacity="0.4" d="M11.0947 2.02945C10.1951 1.05251 8.67672 0.982005 7.69053 1.87139L6.86493 2.61594C6.58133 2.8717 6.14673 2.85916 5.87834 2.58748C4.82185 1.51798 3 2.2661 3 3.76943V20.2406C3 21.7439 4.82191 22.492 5.87838 21.4225C6.14675 21.1508 6.58137 21.1382 6.86497 21.394L7.68019 22.1292C8.67235 23.0239 10.2027 22.9421 11.0939 21.9467L11.2008 21.8273C11.6272 21.351 12.3728 21.351 12.7992 21.8273L12.9061 21.9467C13.7973 22.9421 15.3276 23.0239 16.3198 22.1292L17.135 21.394C17.4186 21.1382 17.8532 21.1508 18.1216 21.4225C19.1781 22.492 21 21.7439 21 20.2406V3.76943C21 2.2661 19.1782 1.51798 18.1217 2.58748C17.8533 2.85916 17.4187 2.8717 17.1351 2.61594L16.3095 1.87139C15.3233 0.982005 13.8049 1.05251 12.9053 2.02945L12.7972 2.14694C12.3679 2.61309 11.6321 2.61309 11.2028 2.14694L11.0947 2.02945Z" fill="#000"/>
<path d="M15.75 15.4971C15.75 15.9113 15.4142 16.2471 15 16.2471H9C8.58579 16.2471 8.25 15.9113 8.25 15.4971C8.25 15.0828 8.58579 14.7471 9 14.7471L15 14.7471C15.4142 14.7471 15.75 15.0828 15.75 15.4971Z" fill="#000"/>
<path d="M16.75 11.9985C16.75 12.4127 16.4142 12.7485 16 12.7485L8 12.7485C7.58579 12.7485 7.25 12.4127 7.25 11.9985C7.25 11.5843 7.58579 11.2485 8 11.2485L16 11.2485C16.4142 11.2485 16.75 11.5843 16.75 11.9985Z" fill="#000"/>
<path d="M14.75 8.49988C14.75 8.91409 14.4142 9.24988 14 9.24988L10 9.24988C9.58579 9.24988 9.25 8.91409 9.25 8.49988C9.25 8.08566 9.58579 7.74988 10 7.74988L14 7.74988C14.4142 7.74988 14.75 8.08566 14.75 8.49988Z" fill="#000"/>
</svg>
