<svg width="24" height="24" viewBox="0 0 24 24" fill="none" xmlns="http://www.w3.org/2000/svg">
<path opacity="0.4" d="M12 0.25C5.51065 0.25 0.25 5.51065 0.25 12C0.25 18.4893 5.51065 23.75 12 23.75C18.4893 23.75 23.75 18.4893 23.75 12C23.75 5.51065 18.4893 0.25 12 0.25Z" fill="#000"/>
<path fill-rule="evenodd" clip-rule="evenodd" d="M9.35294 7.25C8.7438 7.25 8.25 7.7438 8.25 8.35294V15.9998C8.25 16.414 8.58579 16.7498 9 16.7498C9.41421 16.7498 9.75 16.414 9.75 15.9998V13.25H12.1141L14.3898 16.4359C14.6306 16.773 15.099 16.851 15.436 16.6103C15.7731 16.3695 15.8512 15.9011 15.6104 15.564L13.8178 13.0544C14.9474 12.6241 15.75 11.5308 15.75 10.25C15.75 8.59315 14.4069 7.25 12.75 7.25H9.35294ZM12.509 11.75H12.75C13.5784 11.75 14.25 11.0784 14.25 10.25C14.25 9.42157 13.5784 8.75 12.75 8.75H9.75V11.75H12.4898C12.4962 11.7499 12.5026 11.7499 12.509 11.75Z" fill="#000"/>
</svg>
