<svg width="24" height="24" viewBox="0 0 24 24" fill="none" xmlns="http://www.w3.org/2000/svg">
<g opacity="0.4">
<path d="M17.4001 1.5C15.1354 1.5 13.3 3.33775 13.3 5.60183C13.3 8.11672 15.3001 10.0501 17.1 11.4C17.2778 11.5333 17.5223 11.5333 17.7 11.4C19.5 10.05 21.5 8.11667 21.5 5.6C21.5 3.33561 19.6645 1.5 17.4001 1.5Z" fill="#000"/>
<path d="M12.25 16.5C12.25 15.8096 12.8096 15.25 13.5 15.25C14.1904 15.25 14.7501 15.8096 14.7501 16.5C14.7501 17.1904 14.1905 17.75 13.5001 17.75C12.8097 17.75 12.25 17.1904 12.25 16.5Z" fill="#000"/>
<path d="M3 20.75C2.30964 20.75 1.75 21.3096 1.75 22C1.75 22.6904 2.30964 23.25 3 23.25C3.69036 23.25 4.2501 22.6904 4.2501 22C4.2501 21.3096 3.69036 20.75 3 20.75Z" fill="#000"/>
</g>
<path d="M17.3999 4.3501C16.7095 4.3501 16.1499 4.90974 16.1499 5.6001C16.1499 6.29045 16.7095 6.8501 17.3999 6.8501C18.0903 6.8501 18.65 6.29045 18.65 5.6001C18.65 4.90974 18.0903 4.3501 17.3999 4.3501Z" fill="#000"/>
<path d="M13.5 10.25C13.9142 10.25 14.25 10.5858 14.25 11C14.25 11.4142 13.9142 11.75 13.5 11.75H8.75C7.64543 11.75 6.75 12.6454 6.75 13.75C6.75 14.8546 7.64543 15.75 8.75 15.75H10C10.4142 15.75 10.75 16.0858 10.75 16.5C10.75 16.9142 10.4142 17.25 10 17.25H8.75C6.817 17.25 5.25 15.683 5.25 13.75C5.25 11.817 6.817 10.25 8.75 10.25H13.5Z" fill="#000"/>
<path d="M20.25 19.25C20.25 18.1454 19.3546 17.25 18.25 17.25H17C16.5858 17.25 16.25 16.9142 16.25 16.5C16.25 16.0858 16.5858 15.75 17 15.75H18.25C20.183 15.75 21.75 17.317 21.75 19.25C21.75 21.183 20.183 22.75 18.25 22.75H6.5C6.08579 22.75 5.75 22.4142 5.75 22C5.75 21.5858 6.08579 21.25 6.5 21.25H18.25C19.3546 21.25 20.25 20.3546 20.25 19.25Z" fill="#000"/>
</svg>
