<svg width="24" height="24" viewBox="0 0 24 24" fill="none" xmlns="http://www.w3.org/2000/svg">
<path opacity="0.4" d="M8.90682 6H15.0932C15.1108 6.00921 15.1285 6.01851 15.146 6.02789C19.2109 8.19582 21.75 12.4276 21.75 17.0345V18C21.75 20.6234 19.6234 22.75 17 22.75H7C4.37665 22.75 2.25 20.6234 2.25 18V17.0345C2.25 12.4276 4.78909 8.19582 8.85396 6.02789C8.87154 6.01851 8.88916 6.00921 8.90682 6Z" fill="#000"/>
<path d="M7.82237 1.25C6.65718 1.25 5.89934 2.47621 6.42043 3.51838C6.9551 4.58773 7.81098 5.45284 8.85698 6H15.1426C16.1885 5.45284 17.0444 4.58773 17.5791 3.51838C18.1002 2.47621 17.3424 1.25 16.1772 1.25H7.82237Z" fill="#000"/>
<path d="M12.7498 10.8123C12.9263 10.8459 13.1 10.8952 13.2762 10.9651C13.6745 11.123 14.0408 11.3691 14.4525 11.6809C14.7827 11.931 14.8477 12.4014 14.5977 12.7316C14.3476 13.0618 13.8772 13.1268 13.547 12.8768C13.1587 12.5828 12.925 12.4394 12.7232 12.3594C12.539 12.2863 12.3404 12.25 11.9997 12.25C11.5063 12.25 11.1755 12.3669 10.9897 12.5015C10.8263 12.6199 10.7497 12.7643 10.7497 12.9654C10.7497 13.2016 10.8407 13.3313 11.0661 13.4575C11.3389 13.6102 11.7183 13.6927 12.123 13.7602C12.5183 13.8261 13.1389 13.9385 13.6661 14.2336C14.2407 14.5553 14.7497 15.1262 14.7497 16.0346C14.7497 16.7364 14.4263 17.3247 13.8897 17.7133C13.5624 17.9503 13.1723 18.1031 12.7498 18.1828V18.5C12.7498 18.9142 12.414 19.25 11.9998 19.25C11.5855 19.25 11.2498 18.9142 11.2498 18.5V18.1877C11.0731 18.1541 10.8995 18.1048 10.7232 18.0349C10.325 17.8769 9.9587 17.6308 9.54698 17.3191C9.21676 17.069 9.15176 16.5986 9.40181 16.2684C9.65186 15.9382 10.1223 15.8732 10.4525 16.1232C10.8408 16.4172 11.0745 16.5605 11.2763 16.6406C11.4605 16.7137 11.6591 16.75 11.9997 16.75C12.4932 16.75 12.824 16.6331 13.0098 16.4985C13.1732 16.3801 13.2497 16.2357 13.2497 16.0346C13.2497 15.7984 13.1588 15.6687 12.9334 15.5425C12.6606 15.3898 12.2812 15.3073 11.8764 15.2398C11.4812 15.1739 10.8606 15.0615 10.3334 14.7664C9.75881 14.4447 9.24974 13.8738 9.24974 12.9654C9.24974 12.2636 9.57318 11.6753 10.1098 11.2867C10.4371 11.0497 10.8272 10.8969 11.2498 10.8172V10.5C11.2498 10.0858 11.5855 9.75001 11.9998 9.75001C12.414 9.75001 12.7498 10.0858 12.7498 10.5V10.8123Z" fill="#000"/>
</svg>
