<svg width="24" height="24" viewBox="0 0 24 24" fill="none" xmlns="http://www.w3.org/2000/svg">
<path opacity="0.4" d="M10.5 1.25C5.39137 1.25 1.25 5.39137 1.25 10.5C1.25 15.6086 5.39137 19.75 10.5 19.75C15.6086 19.75 19.75 15.6086 19.75 10.5C19.75 5.39137 15.6086 1.25 10.5 1.25Z" fill="#000"/>
<path d="M9.75 13.5C9.75 13.9142 10.0858 14.25 10.5 14.25C10.9142 14.25 11.25 13.9142 11.25 13.5V11.25H13.5C13.9142 11.25 14.25 10.9142 14.25 10.5C14.25 10.0858 13.9142 9.75 13.5 9.75H11.25V7.5C11.25 7.08579 10.9142 6.75 10.5 6.75C10.0858 6.75 9.75 7.08579 9.75 7.5V9.75H7.5C7.08579 9.75 6.75 10.0858 6.75 10.5C6.75 10.9142 7.08579 11.25 7.5 11.25H9.75V13.5Z" fill="#000"/>
<path d="M16.489 17.5497C16.8705 17.2253 17.2253 16.8705 17.5497 16.489L22.5303 21.4697C22.8232 21.7626 22.8232 22.2374 22.5303 22.5303C22.2374 22.8232 21.7626 22.8232 21.4697 22.5303L16.489 17.5497Z" fill="#000"/>
</svg>
