<svg width="24" height="24" viewBox="0 0 24 24" fill="none" xmlns="http://www.w3.org/2000/svg">
<path opacity="0.4" d="M22.5615 5.64099C23.4636 3.04509 20.9861 0.522263 18.3803 1.44085L3.44476 6.70576C0.578346 7.71619 0.500509 11.7624 3.32388 12.8849L3.3397 12.891L8.29288 14.7318C8.75501 14.9178 9.12031 15.2916 9.2978 15.764L11.222 20.6243C12.3084 23.4996 16.3744 23.4454 17.3839 20.5402L22.5615 5.64099Z" fill="#000"/>
<path d="M9.29726 15.7627L14.0301 11.0298C14.323 10.7369 14.323 10.2621 14.0301 9.96918C13.7372 9.67629 13.2623 9.67629 12.9695 9.96918L8.23047 14.7082L8.29266 14.7313C8.75451 14.9172 9.11965 15.2906 9.29726 15.7627Z" fill="#000"/>
</svg>
