<svg width="24" height="24" viewBox="0 0 24 24" fill="none" xmlns="http://www.w3.org/2000/svg">
<path opacity="0.4" d="M6.10749 0.599913C3.23492 -0.816334 0.332098 2.22071 1.52987 5.08234L1.53645 5.09759L3.80912 10.2066C4.01792 10.7109 4.0115 11.2871 3.78894 11.7921L1.64556 16.8928C0.386271 19.7645 3.28138 22.8369 6.18391 21.3895L9.41087 19.7803C9.69902 19.6366 9.86329 19.325 9.81905 19.006C9.77349 18.6775 9.74989 18.3416 9.74989 17.9998C9.74989 13.9958 12.9958 10.7498 16.9999 10.7498C18.6768 10.7498 20.2189 11.3183 21.4469 12.2734C21.6459 12.4282 21.9093 12.4726 22.1481 12.3917C22.3868 12.3108 22.569 12.1154 22.6329 11.8715C23.0179 10.4018 22.4504 8.65736 20.8558 7.87117L6.10749 0.599913Z" fill="#000"/>
<path d="M11.0001 11.7168H3.8207C4.01056 11.2338 4.00789 10.6937 3.81348 10.2168H11.0001C11.4144 10.2168 11.7501 10.5526 11.7501 10.9668C11.7501 11.381 11.4144 11.7168 11.0001 11.7168Z" fill="#000"/>
<path fill-rule="evenodd" clip-rule="evenodd" d="M17.0002 12.25C13.8246 12.25 11.2502 14.8244 11.2502 18C11.2502 21.1756 13.8246 23.75 17.0002 23.75C20.1759 23.75 22.7502 21.1756 22.7502 18C22.7502 14.8244 20.1759 12.25 17.0002 12.25ZM17.0002 14.875C17.3454 14.875 17.6252 15.1548 17.6252 15.5V17.6656L18.8469 18.48C19.1341 18.6714 19.2117 19.0595 19.0203 19.3467C18.8288 19.6339 18.4408 19.7115 18.1536 19.52L16.6536 18.5201C16.4797 18.4042 16.3752 18.209 16.3752 18.0001V15.5C16.3752 15.1548 16.6551 14.875 17.0002 14.875Z" fill="#000"/>
</svg>
