<svg width="24" height="24" viewBox="0 0 24 24" fill="none" xmlns="http://www.w3.org/2000/svg">
<g opacity="0.4">
<path d="M7.665 9.3291C7.29451 9.51434 7.14435 9.96485 7.32959 10.3353C7.51483 10.7058 7.96533 10.856 8.33582 10.6707L16.3358 6.67074C16.7063 6.4855 16.8565 6.03499 16.6712 5.66451C16.486 5.29403 16.0355 5.14386 15.665 5.3291L7.665 9.3291Z" fill="#000"/>
<path d="M7.665 14.6707C7.29451 14.4855 7.14435 14.035 7.32959 13.6645C7.51483 13.294 7.96533 13.1439 8.33582 13.3291L16.3358 17.3291C16.7063 17.5143 16.8565 17.9648 16.6712 18.3353C16.486 18.7058 16.0355 18.856 15.665 18.6707L7.665 14.6707Z" fill="#000"/>
</g>
<path d="M19 1.25C16.9289 1.25 15.25 2.92893 15.25 5C15.25 7.07107 16.9289 8.75 19 8.75C21.0711 8.75 22.75 7.07107 22.75 5C22.75 2.92893 21.0711 1.25 19 1.25Z" fill="#000"/>
<path d="M5 8.25C2.92893 8.25 1.25 9.92893 1.25 12C1.25 14.0711 2.92893 15.75 5 15.75C7.07107 15.75 8.75 14.0711 8.75 12C8.75 9.92893 7.07107 8.25 5 8.25Z" fill="#000"/>
<path d="M19 15.25C16.9289 15.25 15.25 16.9289 15.25 19C15.25 21.0711 16.9289 22.75 19 22.75C21.0711 22.75 22.75 21.0711 22.75 19C22.75 16.9289 21.0711 15.25 19 15.25Z" fill="#000"/>
</svg>
