<svg width="24" height="24" viewBox="0 0 24 24" fill="none" xmlns="http://www.w3.org/2000/svg">
<g opacity="0.4">
<path d="M7.66524 9.32916C7.29476 9.5144 7.14459 9.96491 7.32983 10.3354C7.51507 10.7059 7.96558 10.856 8.33606 10.6708L16.3361 6.6708C16.7065 6.48556 16.8567 6.03505 16.6715 5.66457C16.4862 5.29409 16.0357 5.14392 15.6652 5.32916L7.66524 9.32916Z" fill="#000"/>
<path d="M7.66524 14.6708C7.29476 14.4856 7.14459 14.035 7.32983 13.6646C7.51507 13.2941 7.96558 13.1439 8.33606 13.3292L16.3361 17.3292C16.7065 17.5144 16.8567 17.9649 16.6715 18.3354C16.4862 18.7059 16.0357 18.856 15.6652 18.6708L7.66524 14.6708Z" fill="#000"/>
</g>
<path d="M19 1.25C16.9289 1.25 15.25 2.92893 15.25 5C15.25 7.07107 16.9289 8.75 19 8.75C21.0711 8.75 22.75 7.07107 22.75 5C22.75 2.92893 21.0711 1.25 19 1.25Z" fill="#000"/>
<path d="M5 8.25C2.92893 8.25 1.25 9.92893 1.25 12C1.25 14.0711 2.92893 15.75 5 15.75C7.07107 15.75 8.75 14.0711 8.75 12C8.75 9.92893 7.07107 8.25 5 8.25Z" fill="#000"/>
<path d="M19 15.25C16.9289 15.25 15.25 16.9289 15.25 19C15.25 21.0711 16.9289 22.75 19 22.75C21.0711 22.75 22.75 21.0711 22.75 19C22.75 16.9289 21.0711 15.25 19 15.25Z" fill="#000"/>
</svg>
