<svg width="24" height="24" viewBox="0 0 24 24" fill="none" xmlns="http://www.w3.org/2000/svg">
<g opacity="0.4">
<path d="M13.919 1.21217C12.7116 0.600566 11.285 0.600668 10.0776 1.21244L7.06769 2.7376C6.85327 2.84625 6.70392 3.05109 6.66605 3.28846C6.62818 3.52583 6.70638 3.76698 6.87635 3.93695L19.2631 16.3237C19.4295 16.4901 19.6645 16.5688 19.8977 16.5361C20.1308 16.5033 20.3351 16.363 20.4493 16.1571C21.2792 14.6609 21.8318 13.0162 22.0344 11.2976C22.1488 10.3273 22.25 9.34067 22.25 8.83917V6.81451C22.25 5.9665 21.7732 5.19051 21.0167 4.80732L13.919 1.21217Z" fill="#000"/>
<path d="M5.28221 4.22148C5.0529 3.99217 4.70217 3.93622 4.41289 4.0828L2.98302 4.80732C2.22667 5.19056 1.75 5.96646 1.75 6.81437V8.83917C1.75 9.34164 1.85159 10.3313 1.96632 11.3038C2.23322 13.5661 3.10653 15.6999 4.42162 17.5366C5.94702 19.667 7.95128 21.4096 10.2731 22.624L11.0218 23.0156C11.6335 23.3356 12.3632 23.3356 12.9749 23.0155L13.7253 22.6229C15.6343 21.624 17.3288 20.2683 18.7191 18.6336C18.9723 18.3359 18.9544 17.8937 18.6781 17.6174L5.28221 4.22148Z" fill="#000"/>
</g>
<path d="M1.46967 1.46967C1.76256 1.17678 2.23744 1.17678 2.53033 1.46967L22.5303 21.4697C22.8232 21.7626 22.8232 22.2374 22.5303 22.5303C22.2374 22.8232 21.7626 22.8232 21.4697 22.5303L1.46967 2.53033C1.17678 2.23744 1.17678 1.76256 1.46967 1.46967Z" fill="#000"/>
</svg>
