<svg width="24" height="24" viewBox="0 0 24 24" fill="none" xmlns="http://www.w3.org/2000/svg">
<g opacity="0.4">
<path d="M13.919 1.21229C12.7116 0.600688 11.285 0.60079 10.0776 1.21257L7.06769 2.73772C6.85327 2.84637 6.70392 3.05121 6.66605 3.28858C6.62818 3.52596 6.70638 3.7671 6.87635 3.93707L19.2631 16.3238C19.4295 16.4903 19.6645 16.5689 19.8977 16.5362C20.1308 16.5034 20.3351 16.3631 20.4493 16.1573C21.2792 14.661 21.8318 13.0163 22.0344 11.2977C22.1488 10.3274 22.25 9.34079 22.25 8.83929V6.81464C22.25 5.96662 21.7732 5.19063 21.0167 4.80744L13.919 1.21229Z" fill="#000"/>
<path d="M5.28221 4.22161C5.0529 3.99229 4.70217 3.93634 4.41289 4.08292L2.98302 4.80744C2.22667 5.19068 1.75 5.96659 1.75 6.81449V8.83929C1.75 9.34177 1.85159 10.3314 1.96632 11.3039C2.23322 13.5662 3.10653 15.7 4.42162 17.5367C5.94702 19.6671 7.95128 21.4097 10.2731 22.6241L11.0218 23.0157C11.6335 23.3357 12.3632 23.3357 12.9749 23.0156L13.7253 22.623C15.6343 21.6241 17.3288 20.2684 18.7191 18.6337C18.9723 18.336 18.9544 17.8938 18.6781 17.6175L5.28221 4.22161Z" fill="#000"/>
</g>
<path d="M1.46967 1.46967C1.76256 1.17678 2.23744 1.17678 2.53033 1.46967L22.5303 21.4697C22.8232 21.7626 22.8232 22.2374 22.5303 22.5303C22.2374 22.8232 21.7626 22.8232 21.4697 22.5303L1.46967 2.53033C1.17678 2.23744 1.17678 1.76256 1.46967 1.46967Z" fill="#000"/>
</svg>
