<svg width="24" height="24" viewBox="0 0 24 24" fill="none" xmlns="http://www.w3.org/2000/svg">
<g opacity="0.4">
<path d="M16.5678 16.5H21.5C22.0523 16.5 22.5 16.9477 22.5 17.5C22.5 18.0523 22.0523 18.5 21.5 18.5H16.5678C14.6227 18.5 12.8223 17.4726 11.8327 15.798L7.94541 9.21945C7.3157 8.1538 6.16996 7.5 4.93216 7.5L2 7.5C1.44771 7.5 1 7.05229 1 6.5C1 5.94772 1.44771 5.5 2 5.5L4.93216 5.5C6.87727 5.5 8.67773 6.5274 9.66726 8.202L13.5546 14.7806C14.1843 15.8462 15.33 16.5 16.5678 16.5Z" fill="#000"/>
<path d="M16.5678 5.50001C14.6227 5.50001 12.8223 6.5274 11.8327 8.202L11.4862 8.78846C11.2052 9.26393 11.3629 9.87715 11.8384 10.1581C12.3139 10.4391 12.9271 10.2814 13.208 9.80591L13.5546 9.21946C14.1843 8.1538 15.33 7.50001 16.5678 7.50001H21.5C22.0523 7.50001 22.5 7.05229 22.5 6.50001C22.5 5.94772 22.0523 5.50001 21.5 5.50001H16.5678Z" fill="#000"/>
<path d="M10.0138 15.2116C10.2948 14.7361 10.1371 14.1229 9.6616 13.8419C9.18613 13.5609 8.57291 13.7186 8.29195 14.1941L7.94541 14.7806C7.3157 15.8462 6.16996 16.5 4.93216 16.5H2C1.44772 16.5 1 16.9477 1 17.5C1 18.0523 1.44772 18.5 2 18.5H4.93216C6.87727 18.5 8.67773 17.4726 9.66726 15.798L10.0138 15.2116Z" fill="#000"/>
</g>
<path d="M18.7929 8.29289C18.4024 8.68342 18.4024 9.31658 18.7929 9.70711C19.1834 10.0976 19.8166 10.0976 20.2071 9.70711L22.7071 7.20711C23.0976 6.81658 23.0976 6.18342 22.7071 5.79289L20.2071 3.29289C19.8166 2.90237 19.1834 2.90237 18.7929 3.29289C18.4024 3.68342 18.4024 4.31658 18.7929 4.70711L20.5858 6.5L18.7929 8.29289Z" fill="#000"/>
<path d="M18.7929 15.7071C18.4024 15.3166 18.4024 14.6834 18.7929 14.2929C19.1834 13.9024 19.8166 13.9024 20.2071 14.2929L22.7071 16.7929C23.0976 17.1834 23.0976 17.8166 22.7071 18.2071L20.2071 20.7071C19.8166 21.0976 19.1834 21.0976 18.7929 20.7071C18.4024 20.3166 18.4024 19.6834 18.7929 19.2929L20.5858 17.5L18.7929 15.7071Z" fill="#000"/>
</svg>
