<svg width="24" height="24" viewBox="0 0 24 24" fill="none" xmlns="http://www.w3.org/2000/svg">
<path opacity="0.4" d="M13.4326 3.75H10.5674C9.61495 3.74999 8.85439 3.74999 8.24013 3.80018C7.61012 3.85165 7.06824 3.95963 6.57054 4.21322C5.77085 4.62068 5.12068 5.27085 4.71322 6.07054C4.45963 6.56824 4.35165 7.11012 4.30018 7.74013C4.24999 8.35439 4.24999 9.11494 4.25 10.0674V13.9326C4.24999 14.8851 4.24999 15.6456 4.30018 16.2599C4.35165 16.8899 4.45963 17.4318 4.71322 17.9295C5.12068 18.7291 5.77085 19.3793 6.57054 19.7868C7.06824 20.0404 7.61012 20.1484 8.24013 20.1998C8.85439 20.25 9.61493 20.25 10.5674 20.25H13.4326C14.3851 20.25 15.1456 20.25 15.7599 20.1998C16.3899 20.1484 16.9318 20.0404 17.4295 19.7868C18.2291 19.3793 18.8793 18.7291 19.2868 17.9295C19.5404 17.4318 19.6484 16.8899 19.6998 16.2599C19.75 15.6456 19.75 14.8851 19.75 13.9326V10.0674C19.75 9.11493 19.75 8.35439 19.6998 7.74013C19.6484 7.11012 19.5404 6.56824 19.2868 6.07054C18.8793 5.27085 18.2291 4.62068 17.4295 4.21322C16.9318 3.95963 16.3899 3.85165 15.7599 3.80018C15.1456 3.74999 14.3851 3.74999 13.4326 3.75Z" fill="#000"/>
<path d="M6.57214 4.21322C6.49102 4.25455 6.41144 4.29838 6.3335 4.34461L7.02948 1.73468C7.26295 0.859168 8.05585 0.25 8.96195 0.25H15.0413C15.9474 0.25 16.7403 0.859168 16.9737 1.73467L17.6697 4.34462C17.5918 4.29839 17.5122 4.25456 17.4311 4.21322C16.9334 3.95963 16.3915 3.85165 15.7615 3.80018C15.1472 3.74999 14.3867 3.74999 13.4342 3.75H10.569C9.61654 3.74999 8.85599 3.74999 8.24173 3.80018C7.61172 3.85165 7.06983 3.95963 6.57214 4.21322Z" fill="#000"/>
<path d="M7.02948 22.2653L6.3335 19.6554C6.41144 19.7016 6.49102 19.7454 6.57214 19.7868C7.06983 20.0404 7.61172 20.1484 8.24173 20.1998C8.85597 20.25 9.61649 20.25 10.5689 20.25H13.4342C14.3866 20.25 15.1472 20.25 15.7615 20.1998C16.3915 20.1484 16.9334 20.0404 17.4311 19.7868C17.5122 19.7454 17.5918 19.7016 17.6697 19.6554L16.9737 22.2653C16.7403 23.1408 15.9474 23.75 15.0413 23.75H8.96195C8.05585 23.75 7.26295 23.1408 7.02948 22.2653Z" fill="#000"/>
<path d="M12.75 8C12.75 7.58579 12.4142 7.25 12 7.25C11.5858 7.25 11.25 7.58579 11.25 8V12C11.25 12.2634 11.3882 12.5076 11.6141 12.6431L14.1141 14.1431C14.4693 14.3562 14.93 14.2411 15.1431 13.8859C15.3562 13.5307 15.2411 13.07 14.8859 12.8569L12.75 11.5754V8Z" fill="#000"/>
</svg>
