<svg width="24" height="24" viewBox="0 0 24 24" fill="none" xmlns="http://www.w3.org/2000/svg">
<g opacity="0.4">
<path d="M20 4C20 4.55228 19.5523 5 19 5H2C1.44772 5 1 4.55228 1 4C1 3.44772 1.44772 3 2 3H19C19.5523 3 20 3.44772 20 4Z" fill="#000"/>
<path d="M13 11C13 11.5523 12.5523 12 12 12H2C1.44771 12 1 11.5523 1 11C1 10.4477 1.44771 10 2 10H12C12.5523 10 13 10.4477 13 11Z" fill="#000"/>
<path d="M5 19C5.55228 19 6 18.5523 6 18C6 17.4477 5.55228 17 5 17H2C1.44772 17 1 17.4477 1 18C1 18.5523 1.44772 19 2 19H5Z" fill="#000"/>
</g>
<path d="M17 17.5858L14.7071 15.2929C14.3166 14.9024 13.6834 14.9024 13.2929 15.2929C12.9024 15.6834 12.9024 16.3166 13.2929 16.7071L17.2929 20.7071C17.4804 20.8946 17.7348 21 18 21C18.2652 21 18.5196 20.8946 18.7071 20.7071L22.7071 16.7071C23.0976 16.3166 23.0976 15.6834 22.7071 15.2929C22.3166 14.9024 21.6834 14.9024 21.2929 15.2929L19 17.5858L19 10C19 9.44771 18.5523 9 18 9C17.4477 9 17 9.44772 17 10L17 17.5858Z" fill="#000"/>
</svg>
