<svg width="24" height="24" viewBox="0 0 24 24" fill="none" xmlns="http://www.w3.org/2000/svg">
<path opacity="0.4" d="M10.7947 3.70345C10.2996 3.43218 9.70037 3.43218 9.20527 3.70345C8.83801 3.90466 8.61672 4.31887 8.43559 4.7466C8.24422 5.19853 8.03901 5.82248 7.77911 6.61276L6.96042 9.10208C6.84449 9.45456 6.81297 9.53571 6.7703 9.5983C6.72423 9.66588 6.66588 9.72423 6.5983 9.7703C6.53571 9.81297 6.45456 9.84449 6.10209 9.96042L3.61283 10.7791C2.82255 11.039 2.19853 11.2442 1.7466 11.4356C1.31887 11.6167 0.904663 11.838 0.703446 12.2053C0.432185 12.7004 0.432185 13.2996 0.703446 13.7947C0.904663 14.162 1.31887 14.3833 1.7466 14.5644C2.19853 14.7558 2.82249 14.961 3.61278 15.2209L6.10208 16.0396C6.45456 16.1555 6.53571 16.187 6.5983 16.2297C6.66588 16.2758 6.72423 16.3341 6.7703 16.4017C6.81297 16.4643 6.84449 16.5454 6.96042 16.8979L7.77908 19.3872C8.039 20.1775 8.24421 20.8015 8.43559 21.2534C8.61672 21.6811 8.83801 22.0953 9.20527 22.2966C9.70037 22.5678 10.2996 22.5678 10.7947 22.2966C11.162 22.0953 11.3833 21.6811 11.5644 21.2534C11.7558 20.8015 11.961 20.1776 12.2209 19.3873L13.0396 16.8979C13.1555 16.5454 13.187 16.4643 13.2297 16.4017C13.2758 16.3341 13.3341 16.2758 13.4017 16.2297C13.4643 16.187 13.5454 16.1555 13.8979 16.0396L16.3872 15.2209C17.1775 14.961 17.8015 14.7558 18.2534 14.5644C18.6811 14.3833 19.0953 14.162 19.2966 13.7947C19.5678 13.2996 19.5678 12.7004 19.2966 12.2053C19.0953 11.838 18.6811 11.6167 18.2534 11.4356C17.8015 11.2442 17.1775 11.039 16.3872 10.7791L13.8979 9.96042C13.5454 9.84449 13.4643 9.81297 13.4017 9.7703C13.3341 9.72423 13.2758 9.66588 13.2297 9.5983C13.187 9.53571 13.1555 9.45456 13.0396 9.10208L12.2209 6.61283C11.961 5.82255 11.7558 5.19853 11.5644 4.7466C11.3833 4.31887 11.162 3.90466 10.7947 3.70345Z" fill="#000"/>
<path d="M18.8179 2.08629L18.5027 3.04489C18.4611 3.17115 18.4404 3.23427 18.4047 3.28664C18.3731 3.33302 18.333 3.37305 18.2866 3.40467C18.2343 3.44037 18.1711 3.46113 18.0449 3.50265L17.0863 3.81792C16.4556 4.02533 16.1403 4.12903 16.0552 4.28437C15.9816 4.4187 15.9816 4.5813 16.0552 4.71563C16.1403 4.87097 16.4556 4.97467 17.0863 5.18208L18.0449 5.49735C18.1711 5.53887 18.2343 5.55963 18.2866 5.59533C18.333 5.62695 18.3731 5.66698 18.4047 5.71336C18.4404 5.76573 18.4611 5.82885 18.5027 5.95511L18.8179 6.91371C19.0253 7.54436 19.129 7.85969 19.2844 7.9448C19.4187 8.0184 19.5813 8.0184 19.7156 7.9448C19.871 7.85969 19.9747 7.54436 20.1821 6.91371L20.4973 5.95511C20.5389 5.82886 20.5596 5.76573 20.5953 5.71336C20.6269 5.66698 20.667 5.62695 20.7134 5.59533C20.7657 5.55963 20.8289 5.53887 20.9551 5.49735L21.9137 5.18208C22.5444 4.97467 22.8597 4.87097 22.9448 4.71563C23.0184 4.5813 23.0184 4.4187 22.9448 4.28437C22.8597 4.12903 22.5444 4.02533 21.9137 3.81792L20.9551 3.50265C20.8289 3.46113 20.7657 3.44037 20.7134 3.40467C20.667 3.37305 20.6269 3.33302 20.5953 3.28664C20.5596 3.23427 20.5389 3.17115 20.4974 3.0449L20.1821 2.08629C19.9747 1.45564 19.871 1.14031 19.7156 1.0552C19.5813 0.9816 19.4187 0.9816 19.2844 1.0552C19.129 1.14031 19.0253 1.45564 18.8179 2.08629Z" fill="#000"/>
<path d="M19.346 18.0394C19.235 18.1002 19.1609 18.3255 19.0128 18.7759L18.7876 19.4606C18.7579 19.5508 18.7431 19.5959 18.7176 19.6333C18.695 19.6664 18.6664 19.695 18.6333 19.7176C18.5959 19.7431 18.5508 19.7579 18.4606 19.7876L17.7759 20.0128C17.3255 20.1609 17.1002 20.235 17.0394 20.346C16.9869 20.4419 16.9869 20.5581 17.0394 20.654C17.1002 20.765 17.3255 20.8391 17.7759 20.9872L18.4606 21.2124C18.5508 21.2421 18.5959 21.2569 18.6333 21.2824C18.6664 21.305 18.695 21.3336 18.7176 21.3667C18.7431 21.4041 18.7579 21.4492 18.7876 21.5394L19.0128 22.2241C19.1609 22.6745 19.235 22.8998 19.346 22.9606C19.4419 23.0131 19.5581 23.0131 19.654 22.9606C19.765 22.8998 19.8391 22.6745 19.9872 22.2241L20.2124 21.5394C20.2421 21.4492 20.2569 21.4041 20.2824 21.3667C20.305 21.3336 20.3336 21.305 20.3667 21.2824C20.4041 21.2569 20.4492 21.2421 20.5394 21.2124L21.2241 20.9872C21.6745 20.8391 21.8998 20.765 21.9606 20.654C22.0131 20.5581 22.0131 20.4419 21.9606 20.346C21.8998 20.235 21.6745 20.1609 21.2241 20.0128L20.5394 19.7876C20.4492 19.7579 20.4041 19.7431 20.3667 19.7176C20.3336 19.695 20.305 19.6664 20.2824 19.6333C20.2569 19.5959 20.2421 19.5508 20.2124 19.4606L19.9872 18.7759C19.8391 18.3255 19.765 18.1002 19.654 18.0394C19.5581 17.9869 19.4419 17.9869 19.346 18.0394Z" fill="#000"/>
</svg>
