<svg width="24" height="24" viewBox="0 0 24 24" fill="none" xmlns="http://www.w3.org/2000/svg">
<g clip-path="url(#clip0_9002_7341)">
<path opacity="0.4" d="M12 0.25C5.51065 0.25 0.25 5.51065 0.25 12C0.25 18.4893 5.51065 23.75 12 23.75C18.4893 23.75 23.75 18.4893 23.75 12C23.75 5.51065 18.4893 0.25 12 0.25Z" fill="#000"/>
<path d="M13.0135 7.13647C12.6044 6.28784 11.3958 6.28784 10.9867 7.13647L9.92142 9.34645L7.48021 9.665C6.53863 9.78786 6.16343 10.95 6.85541 11.6003L8.63366 13.2713L8.18597 15.6646C8.01222 16.5935 8.99175 17.3097 9.82417 16.8625L12.0001 15.6934L14.176 16.8625C15.0084 17.3097 15.988 16.5935 15.8142 15.6646L15.3665 13.2713L17.1448 11.6003C17.8368 10.95 17.4616 9.78786 16.52 9.665L14.0788 9.34645L13.0135 7.13647Z" fill="#000"/>
</g>
<defs>
<clipPath id="clip0_9002_7341">
<rect width="24" height="24" fill="white"/>
</clipPath>
</defs>
</svg>
