<svg width="24" height="24" viewBox="0 0 24 24" fill="none" xmlns="http://www.w3.org/2000/svg">
<g opacity="0.4">
<path d="M13.8017 2.88155C13.0745 1.37281 10.9258 1.37282 10.1985 2.88155L9.0058 5.35584C8.86735 5.64305 8.92562 5.98639 9.15107 6.21184L17.6554 14.7162C17.9419 15.0027 18.4041 15.0098 18.6993 14.7324L22.119 11.519C23.3492 10.363 22.6822 8.29678 21.0082 8.07835L16.1254 7.4412C16.0417 7.43028 15.9691 7.37788 15.9325 7.30186L13.8017 2.88155Z" fill="#000"/>
<path d="M8.67637 7.61582C8.47806 7.41751 8.18567 7.34641 7.91845 7.43151C7.90447 7.43597 7.88992 7.43924 7.87488 7.4412L2.99207 8.07835C1.31808 8.29678 0.651025 10.363 1.88127 11.519L5.43805 14.8613C5.50017 14.9197 5.52826 15.0057 5.51259 15.0895L4.61714 19.8765C4.30824 21.5278 6.04969 22.8011 7.52961 22.006L11.8818 19.6678C11.9557 19.6281 12.0445 19.6281 12.1184 19.6678L16.4706 22.006C17.9505 22.8011 19.692 21.5278 19.3831 19.8765L19.0682 18.1932C19.0404 18.0445 18.9683 17.9078 18.8613 17.8008L8.67637 7.61582Z" fill="#000"/>
</g>
<path d="M1.46967 1.46967C1.76256 1.17678 2.23744 1.17678 2.53033 1.46967L22.5303 21.4697C22.8232 21.7626 22.8232 22.2374 22.5303 22.5303C22.2374 22.8232 21.7626 22.8232 21.4697 22.5303L1.46967 2.53033C1.17678 2.23744 1.17678 1.76256 1.46967 1.46967Z" fill="#000"/>
</svg>
