<svg width="24" height="24" viewBox="0 0 24 24" fill="none" xmlns="http://www.w3.org/2000/svg">
<path opacity="0.4" d="M13.8017 2.88027C13.0745 1.37153 10.9258 1.37154 10.1985 2.88027L8.06774 7.30057C8.03109 7.37659 7.95857 7.429 7.87488 7.43992L2.99207 8.07706C1.31808 8.2955 0.651025 10.3617 1.88127 11.5177L5.43805 14.86C5.50017 14.9184 5.52826 15.0044 5.51259 15.0882L4.61714 19.8752C4.30824 21.5265 6.04969 22.7999 7.52961 22.0048L11.8818 19.6665C11.9557 19.6268 12.0446 19.6268 12.1184 19.6665L16.4706 22.0048C17.9505 22.7999 19.692 21.5265 19.3831 19.8752L18.4876 15.0882C18.472 15.0044 18.5001 14.9184 18.5622 14.86L22.119 11.5177C23.3492 10.3617 22.6822 8.2955 21.0082 8.07707L16.1254 7.43992C16.0417 7.429 15.9691 7.37659 15.9325 7.30057L13.8017 2.88027Z" fill="#000"/>
</svg>
