<svg width="24" height="24" viewBox="0 0 24 24" fill="none" xmlns="http://www.w3.org/2000/svg">
<path opacity="0.4" d="M16.4326 1.25H7.56739C6.61495 1.24999 5.85439 1.24999 5.24013 1.30018C4.61012 1.35165 4.06824 1.45963 3.57054 1.71322C2.77085 2.12068 2.12068 2.77085 1.71322 3.57054C1.45963 4.06824 1.35165 4.61012 1.30018 5.24013C1.24999 5.85439 1.24999 6.61494 1.25 7.56738V16.4326C1.24999 17.3851 1.24999 18.1456 1.30018 18.7599C1.35165 19.3899 1.45963 19.9318 1.71322 20.4295C2.12068 21.2291 2.77085 21.8793 3.57054 22.2868C4.06824 22.5404 4.61012 22.6484 5.24013 22.6998C5.85438 22.75 6.6149 22.75 7.5673 22.75H16.4326C17.385 22.75 18.1456 22.75 18.7599 22.6998C19.3899 22.6484 19.9318 22.5404 20.4295 22.2868C21.2291 21.8793 21.8793 21.2291 22.2868 20.4295C22.5404 19.9318 22.6484 19.3899 22.6998 18.7599C22.75 18.1456 22.75 17.3851 22.75 16.4327V7.56737C22.75 6.61496 22.75 5.85438 22.6998 5.24013C22.6484 4.61012 22.5404 4.06824 22.2868 3.57054C21.8793 2.77085 21.2291 2.12068 20.4295 1.71322C19.9318 1.45963 19.3899 1.35165 18.7599 1.30018C18.1456 1.24999 17.3851 1.24999 16.4326 1.25Z" fill="#000"/>
</svg>
