<svg width="24" height="24" viewBox="0 0 24 24" fill="none" xmlns="http://www.w3.org/2000/svg">
<g opacity="0.4">
<path d="M12 3.75C10.8654 3.75 9.77451 3.94411 8.75976 4.30157C8.51672 4.38718 8.33465 4.59156 8.27757 4.84283C8.2205 5.09411 8.29641 5.35709 8.47861 5.53929L19.9607 17.0214C20.1429 17.2036 20.4059 17.2795 20.6572 17.2224C20.9084 17.1653 21.1128 16.9833 21.1984 16.7402C21.5559 15.7255 21.75 14.6346 21.75 13.5C21.75 8.11522 17.3848 3.75 12 3.75Z" fill="#000"/>
<path d="M6.96044 5.8998C6.69159 5.63095 6.26409 5.60581 5.96558 5.84131C3.70396 7.62554 2.25 10.3932 2.25 13.5C2.25 18.8848 6.61522 23.25 12 23.25C15.1068 23.25 17.8745 21.796 19.6587 19.5344C19.8942 19.2359 19.8691 18.8084 19.6002 18.5396L6.96044 5.8998Z" fill="#000"/>
</g>
<path d="M9 0.75C8.58579 0.75 8.25 1.08579 8.25 1.5C8.25 1.91421 8.58579 2.25 9 2.25H11.25V4.5C11.25 4.91421 11.5858 5.25 12 5.25C12.4142 5.25 12.75 4.91421 12.75 4.5V2.25H15C15.4142 2.25 15.75 1.91421 15.75 1.5C15.75 1.08579 15.4142 0.75 15 0.75H9Z" fill="#000"/>
<path d="M17.7197 7.28033C17.4268 6.98744 17.4268 6.51256 17.7197 6.21967L19.4697 4.46967C19.7626 4.17678 20.2374 4.17678 20.5303 4.46967C20.8232 4.76256 20.8232 5.23744 20.5303 5.53033L18.7803 7.28033C18.4874 7.57322 18.0126 7.57322 17.7197 7.28033Z" fill="#000"/>
<path d="M2.53033 1.46967C2.23744 1.17678 1.76256 1.17678 1.46967 1.46967C1.17678 1.76256 1.17678 2.23744 1.46967 2.53033L21.4697 22.5303C21.7626 22.8232 22.2374 22.8232 22.5303 22.5303C22.8232 22.2374 22.8232 21.7626 22.5303 21.4697L2.53033 1.46967Z" fill="#000"/>
</svg>
