<svg width="24" height="24" viewBox="0 0 24 24" fill="none" xmlns="http://www.w3.org/2000/svg">
<path opacity="0.4" d="M12 3.75C6.61522 3.75 2.25 8.11522 2.25 13.5C2.25 18.8848 6.61522 23.25 12 23.25C17.3848 23.25 21.75 18.8848 21.75 13.5C21.75 8.11522 17.3848 3.75 12 3.75Z" fill="#000"/>
<path d="M9 0.75C8.58579 0.75 8.25 1.08579 8.25 1.5C8.25 1.91421 8.58579 2.25 9 2.25H11.25V4.5C11.25 4.91421 11.5858 5.25 12 5.25C12.4142 5.25 12.75 4.91421 12.75 4.5V2.25H15C15.4142 2.25 15.75 1.91421 15.75 1.5C15.75 1.08579 15.4142 0.75 15 0.75H9Z" fill="#000"/>
<path d="M17.7197 7.28033C17.4268 6.98744 17.4268 6.51256 17.7197 6.21967L19.4697 4.46967C19.7626 4.17678 20.2374 4.17678 20.5303 4.46967C20.8232 4.76256 20.8232 5.23744 20.5303 5.53033L18.7803 7.28033C18.4874 7.57322 18.0126 7.57322 17.7197 7.28033Z" fill="#000"/>
<path d="M12.75 9C12.75 8.58579 12.4142 8.25 12 8.25C11.5858 8.25 11.25 8.58579 11.25 9V13.5C11.25 13.9142 11.5858 14.25 12 14.25C12.4142 14.25 12.75 13.9142 12.75 13.5V9Z" fill="#000"/>
</svg>
