<svg width="24" height="24" viewBox="0 0 24 24" fill="none" xmlns="http://www.w3.org/2000/svg">
<path opacity="0.4" d="M7.75 9.5C7.75 9.08579 7.41421 8.75 7 8.75C6.58579 8.75 6.25 9.08579 6.25 9.5C6.25 10.0428 5.63132 10.75 4.5 10.75C4.26257 10.75 4.03312 10.6949 3.81994 10.5943C3.58761 10.4848 3.31536 10.5017 3.09842 10.6392C2.88147 10.7768 2.75 11.0158 2.75 11.2727V17.6317C2.74999 18.3748 2.74999 18.978 2.78996 19.4672C2.83121 19.9722 2.91876 20.4214 3.13148 20.8389C3.46704 21.4975 4.00247 22.0329 4.66103 22.3685C5.07851 22.5812 5.52778 22.6687 6.03273 22.71C6.52196 22.75 7.12511 22.75 7.86819 22.75H16.1318C16.8749 22.75 17.478 22.75 17.9673 22.71C18.4722 22.6687 18.9215 22.5812 19.339 22.3685C19.9975 22.0329 20.533 21.4975 20.8685 20.8389C21.0812 20.4214 21.1688 19.9722 21.21 19.4672C21.25 18.978 21.25 18.3749 21.25 17.6319V11.2727C21.25 11.0158 21.1185 10.7768 20.9016 10.6392C20.6846 10.5017 20.4124 10.4848 20.1801 10.5943C19.9669 10.6949 19.7374 10.75 19.5 10.75C18.3687 10.75 17.75 10.0428 17.75 9.5C17.75 9.08579 17.4142 8.75 17 8.75C16.5858 8.75 16.25 9.08579 16.25 9.5C16.25 10.0428 15.6313 10.75 14.5 10.75C13.3687 10.75 12.75 10.0428 12.75 9.5C12.75 9.08579 12.4142 8.75 12 8.75C11.5858 8.75 11.25 9.08579 11.25 9.5C11.25 10.0428 10.6313 10.75 9.5 10.75C8.36868 10.75 7.75 10.0428 7.75 9.5Z" fill="#000"/>
<path d="M5.77745 1.24995C5.09967 1.24935 4.56985 1.24887 4.10303 1.42248C3.57152 1.62013 3.11411 1.97727 2.79345 2.44497C2.5118 2.85575 2.38376 3.36986 2.21996 4.02755L1.51493 6.84798C1.33897 7.5518 1.25 8.27454 1.25 9.00002C1.25 10.6389 2.68022 12.25 4.5 12.25C5.43942 12.25 6.37545 11.8901 7 11.2662C7.62455 11.8901 8.56058 12.25 9.5 12.25C10.4394 12.25 11.3754 11.8901 12 11.2662C12.6246 11.8901 13.5606 12.25 14.5 12.25C15.4394 12.25 16.3754 11.8901 17 11.2662C17.6246 11.8901 18.5606 12.25 19.5 12.25C21.3198 12.25 22.75 10.6389 22.75 9.00002C22.75 8.27454 22.661 7.5518 22.4851 6.84798L21.78 4.02754C21.6162 3.36986 21.4882 2.85575 21.2066 2.44497C20.8859 1.97727 20.4285 1.62013 19.897 1.42248C19.4301 1.24887 18.9003 1.24935 18.2226 1.24995H5.77745Z" fill="#000"/>
<path d="M10.6761 14.75C10.4868 14.75 10.3025 14.75 10.1463 14.7627C9.97489 14.7767 9.77259 14.8098 9.56902 14.9135C9.28677 15.0573 9.0573 15.2868 8.91349 15.569C8.80977 15.7726 8.77672 15.9749 8.76271 16.1463C8.74996 16.3024 8.74998 16.4868 8.75 16.6761L8.75 22.75H15.25L15.25 16.6761C15.25 16.4868 15.25 16.3025 15.2373 16.1463C15.2233 15.9749 15.1902 15.7726 15.0865 15.569C14.9427 15.2868 14.7132 15.0573 14.431 14.9135C14.2274 14.8098 14.0251 14.7767 13.8537 14.7627C13.6976 14.75 13.5132 14.75 13.3239 14.75H10.6761Z" fill="#000"/>
</svg>
