<svg width="24" height="24" viewBox="0 0 24 24" fill="none" xmlns="http://www.w3.org/2000/svg">
<path opacity="0.4" d="M16.9326 3.25H7.06739C6.11495 3.24999 5.35439 3.24999 4.74013 3.30018C4.11012 3.35165 3.56824 3.45963 3.07054 3.71322C2.27085 4.12068 1.62068 4.77085 1.21322 5.57054C0.959634 6.06824 0.85165 6.61012 0.800176 7.24013C0.749989 7.85439 0.749994 8.61494 0.75 9.56738V14.4326C0.749994 15.3851 0.749989 16.1456 0.800176 16.7599C0.85165 17.3899 0.959634 17.9318 1.21322 18.4295C1.62068 19.2291 2.27085 19.8793 3.07054 20.2868C3.56824 20.5404 4.11012 20.6483 4.74013 20.6998C5.35438 20.75 6.1149 20.75 7.0673 20.75H16.9326C17.885 20.75 18.6456 20.75 19.2599 20.6998C19.8899 20.6483 20.4318 20.5404 20.9295 20.2868C21.7291 19.8793 22.3793 19.2291 22.7868 18.4295C23.0404 17.9318 23.1483 17.3899 23.1998 16.7599C23.25 16.1456 23.25 15.3851 23.25 14.4327V9.56737C23.25 8.61496 23.25 7.85438 23.1998 7.24013C23.1483 6.61012 23.0404 6.06824 22.7868 5.57054C22.3793 4.77085 21.7291 4.12068 20.9295 3.71322C20.4318 3.45963 19.8899 3.35165 19.2599 3.30018C18.6456 3.24999 17.8851 3.24999 16.9326 3.25Z" fill="#000"/>
<path d="M6 10.75C5.58579 10.75 5.25 11.0858 5.25 11.5C5.25 11.9142 5.58579 12.25 6 12.25H13C13.4142 12.25 13.75 11.9142 13.75 11.5C13.75 11.0858 13.4142 10.75 13 10.75H6Z" fill="#000"/>
<path d="M15.5 10.75C15.0858 10.75 14.75 11.0858 14.75 11.5C14.75 11.9142 15.0858 12.25 15.5 12.25H18C18.4142 12.25 18.75 11.9142 18.75 11.5C18.75 11.0858 18.4142 10.75 18 10.75H15.5Z" fill="#000"/>
<path d="M18 14.75C18.4142 14.75 18.75 15.0858 18.75 15.5C18.75 15.9142 18.4142 16.25 18 16.25H11C10.5858 16.25 10.25 15.9142 10.25 15.5C10.25 15.0858 10.5858 14.75 11 14.75H18Z" fill="#000"/>
<path d="M8.5 14.75C8.91421 14.75 9.25 15.0858 9.25 15.5C9.25 15.9142 8.91421 16.25 8.5 16.25H6C5.58579 16.25 5.25 15.9142 5.25 15.5C5.25 15.0858 5.58579 14.75 6 14.75H8.5Z" fill="#000"/>
</svg>
