<svg width="24" height="24" viewBox="0 0 24 24" fill="none" xmlns="http://www.w3.org/2000/svg">
<path opacity="0.4" d="M12 7C9.23858 7 7 9.23858 7 12C7 14.7614 9.23858 17 12 17C14.7614 17 17 14.7614 17 12C17 9.23858 14.7614 7 12 7Z" fill="#000"/>
<path d="M11.25 4.50003C11.25 4.91424 11.5858 5.25003 12 5.25003C12.4142 5.25003 12.75 4.91424 12.75 4.50003V2.00003C12.75 1.58582 12.4142 1.25003 12 1.25003C11.5858 1.25003 11.25 1.58582 11.25 2.00003V4.50003Z" fill="#000"/>
<path d="M1.25 12C1.25 12.4142 1.58579 12.75 2 12.75H4.5C4.91421 12.75 5.25 12.4142 5.25 12C5.25 11.5858 4.91421 11.25 4.5 11.25H2C1.58579 11.25 1.25 11.5858 1.25 12Z" fill="#000"/>
<path d="M22.75 12C22.75 12.4142 22.4142 12.75 22 12.75H19.5C19.0858 12.75 18.75 12.4142 18.75 12C18.75 11.5858 19.0858 11.25 19.5 11.25H22C22.4142 11.25 22.75 11.5858 22.75 12Z" fill="#000"/>
<path d="M12 22.75C11.5858 22.75 11.25 22.4142 11.25 22V19.5C11.25 19.0858 11.5858 18.75 12 18.75C12.4142 18.75 12.75 19.0858 12.75 19.5V22C12.75 22.4142 12.4142 22.75 12 22.75Z" fill="#000"/>
<path d="M5.45925 4.39862C5.16636 4.10573 4.69149 4.10573 4.39859 4.39862C4.1057 4.69152 4.1057 5.16639 4.39859 5.45929L6.16636 7.22705C6.45925 7.51995 6.93413 7.51995 7.22702 7.22705C7.51991 6.93416 7.51991 6.45929 7.22702 6.16639L5.45925 4.39862Z" fill="#000"/>
<path d="M19.6014 5.45929C19.8943 5.16639 19.8943 4.69152 19.6014 4.39862C19.3085 4.10573 18.8336 4.10573 18.5407 4.39862L16.773 6.16639C16.4801 6.45929 16.4801 6.93416 16.773 7.22705C17.0659 7.51995 17.5407 7.51995 17.8336 7.22705L19.6014 5.45929Z" fill="#000"/>
<path d="M7.22702 17.8337C7.51991 17.5408 7.51991 17.0659 7.22702 16.773C6.93413 16.4801 6.45925 16.4801 6.16636 16.773L4.39859 18.5408C4.1057 18.8337 4.1057 19.3085 4.39859 19.6014C4.69149 19.8943 5.16636 19.8943 5.45925 19.6014L7.22702 17.8337Z" fill="#000"/>
<path d="M17.8336 16.773C17.5407 16.4801 17.0659 16.4801 16.773 16.773C16.4801 17.0659 16.4801 17.5408 16.773 17.8337L18.5407 19.6014C18.8336 19.8943 19.3085 19.8943 19.6014 19.6014C19.8943 19.3085 19.8943 18.8337 19.6014 18.5408L17.8336 16.773Z" fill="#000"/>
</svg>
