<svg width="24" height="24" viewBox="0 0 24 24" fill="none" xmlns="http://www.w3.org/2000/svg">
<path opacity="0.4" d="M15.3324 1.25H8.66762C7.785 1.24999 7.07692 1.24999 6.50433 1.29677C5.91601 1.34484 5.405 1.44601 4.93404 1.68597C4.18139 2.06947 3.56947 2.68139 3.18597 3.43404C2.94601 3.905 2.84484 4.41601 2.79677 5.00433C2.74999 5.57692 2.74999 6.28499 2.75 7.16762V16.8324C2.74999 17.715 2.74999 18.4231 2.79677 18.9957C2.84484 19.584 2.94601 20.095 3.18597 20.566C3.56947 21.3186 4.18139 21.9305 4.93404 22.314C5.405 22.554 5.91601 22.6552 6.50433 22.7032C7.07691 22.75 7.78499 22.75 8.66761 22.75H15.3324C16.215 22.75 16.9231 22.75 17.4957 22.7032C18.084 22.6552 18.595 22.554 19.066 22.314C19.8186 21.9305 20.4305 21.3186 20.814 20.566C21.054 20.095 21.1552 19.584 21.2032 18.9957C21.25 18.4231 21.25 17.715 21.25 16.8324V7.16761C21.25 6.28499 21.25 5.57691 21.2032 5.00433C21.1552 4.41601 21.054 3.905 20.814 3.43404C20.4305 2.68139 19.8186 2.06947 19.066 1.68597C18.595 1.44601 18.084 1.34484 17.4957 1.29677C16.9231 1.24999 16.215 1.24999 15.3324 1.25Z" fill="#000"/>
<path d="M10.5 4.25C10.0858 4.25 9.75 4.58579 9.75 5C9.75 5.41421 10.0858 5.75 10.5 5.75H13.5C13.9142 5.75 14.25 5.41421 14.25 5C14.25 4.58579 13.9142 4.25 13.5 4.25H10.5Z" fill="#000"/>
<path d="M12 17.5C11.4477 17.5 11 17.9477 11 18.5C11 19.0523 11.4477 19.5 12 19.5C12.5523 19.5 13.0001 19.0523 13.0001 18.5C13.0001 17.9477 12.5523 17.5 12 17.5Z" fill="#000"/>
</svg>
