<svg width="24" height="24" viewBox="0 0 24 24" fill="none" xmlns="http://www.w3.org/2000/svg">
<path opacity="0.4" d="M21.2465 1.55073C20.9089 1.37899 20.552 1.31215 20.1718 1.28143C19.8072 1.25199 19.361 1.25242 18.8264 1.25294L13.7487 1.25776C12.9804 1.25832 12.4695 1.25869 11.9801 1.37646C11.5472 1.48062 11.1335 1.65213 10.7539 1.88472C10.3247 2.14772 9.96333 2.5089 9.4199 3.05208L3.95816 8.5089C3.28438 9.18206 2.74636 9.7196 2.34729 10.1892C1.93799 10.6709 1.63098 11.1303 1.45813 11.6615C1.18039 12.5149 1.17996 13.4344 1.45691 14.2881C1.62926 14.8194 1.93585 15.279 2.3447 15.7611C2.74333 16.2311 3.28085 16.7691 3.95398 17.4429L6.54983 20.0412C7.22302 20.7151 7.76057 21.2532 8.23024 21.6523C8.71194 22.0616 9.17133 22.3686 9.70249 22.5415C10.556 22.8192 11.4755 22.8197 12.3292 22.5427C12.8605 22.3703 13.3202 22.0637 13.8023 21.6548C14.2723 21.2562 14.8103 20.7187 15.484 20.0455L20.9515 14.583C21.4965 14.0387 21.859 13.6767 22.1228 13.2466C22.356 12.8662 22.5279 12.4514 22.6322 12.0175C22.75 11.5269 22.7499 11.0147 22.7497 10.2444L22.7497 5.1726C22.7497 4.63793 22.7497 4.19168 22.7199 3.82715C22.6888 3.44699 22.6217 3.09008 22.4496 2.75264C22.1856 2.23496 21.7645 1.81419 21.2465 1.55073Z" fill="#000"/>
<path fill-rule="evenodd" clip-rule="evenodd" d="M16.75 4.75C18.1307 4.75 19.25 5.86929 19.25 7.25C19.25 8.63071 18.1307 9.75 16.75 9.75C15.3693 9.75 14.25 8.63071 14.25 7.25C14.25 5.86929 15.3693 4.75 16.75 4.75ZM17.75 7.25C17.75 6.69772 17.3023 6.25 16.75 6.25C16.1977 6.25 15.75 6.69772 15.75 7.25C15.75 7.80228 16.1977 8.25 16.75 8.25C17.3023 8.25 17.75 7.80228 17.75 7.25Z" fill="#000"/>
</svg>
