<svg width="24" height="24" viewBox="0 0 24 24" fill="none" xmlns="http://www.w3.org/2000/svg">
<path opacity="0.4" d="M21.2468 1.55079C20.9092 1.37905 20.5522 1.31221 20.172 1.2815C19.8075 1.25205 19.3613 1.25248 18.8266 1.253L13.749 1.25782C12.9806 1.25838 12.4697 1.25875 11.9803 1.37652C11.5475 1.48068 11.1337 1.65219 10.7541 1.88478C10.3249 2.14778 9.96357 2.50896 9.42014 3.05214L3.9584 8.50897C3.28463 9.18213 2.7466 9.71966 2.34753 10.1893C1.93824 10.671 1.63122 11.1304 1.45837 11.6615C1.18064 12.515 1.18021 13.4344 1.45715 14.2881C1.62951 14.8194 1.9361 15.2791 2.34495 15.7612C2.74357 16.2312 3.28109 16.7692 3.95423 17.443L6.55007 20.0413C7.22326 20.7151 7.76082 21.2532 8.23048 21.6523C8.71218 22.0616 9.17157 22.3687 9.70274 22.5415C10.5562 22.8193 11.4757 22.8197 12.3294 22.5428C12.8608 22.3704 13.3204 22.0638 13.8025 21.6549C14.2725 21.2563 14.8105 20.7187 15.4843 20.0456L20.9517 14.5831C21.4968 14.0388 21.8592 13.6768 22.123 13.2467C22.3563 12.8663 22.5282 12.4515 22.6324 12.0176C22.7503 11.527 22.7502 11.0148 22.75 10.2444L22.7499 5.17266C22.75 4.63799 22.75 4.19174 22.7202 3.82721C22.6891 3.44705 22.6219 3.09015 22.4498 2.7527C22.1859 2.23502 21.7647 1.81425 21.2468 1.55079Z" fill="#000"/>
<path fill-rule="evenodd" clip-rule="evenodd" d="M16.75 4.75C18.1307 4.75 19.25 5.86929 19.25 7.25C19.25 8.63071 18.1307 9.75 16.75 9.75C15.3693 9.75 14.25 8.63071 14.25 7.25C14.25 5.86929 15.3693 4.75 16.75 4.75ZM17.75 7.25C17.75 6.69772 17.3023 6.25 16.75 6.25C16.1977 6.25 15.75 6.69772 15.75 7.25C15.75 7.80228 16.1977 8.25 16.75 8.25C17.3023 8.25 17.75 7.80228 17.75 7.25Z" fill="#000"/>
</svg>
