<svg width="24" height="24" viewBox="0 0 24 24" fill="none" xmlns="http://www.w3.org/2000/svg">
<path opacity="0.4" d="M13.001 1.50171C12.5138 1.50043 12.0626 1.75802 11.8159 2.17826L7.35938 9.77205C7.42812 9.96227 7.46071 10.1625 7.47814 10.3758C7.50025 10.6464 7.50024 10.9786 7.50024 11.3811V19.6223C7.50024 20.0248 7.50025 20.357 7.47814 20.6276C7.47367 20.6823 7.46821 20.7361 7.4614 20.7891C8.66942 21.3931 9.32418 21.7198 10.013 21.9516C10.6284 22.1587 11.2616 22.3083 11.9045 22.3984C12.6286 22.4999 13.3649 22.5 14.7311 22.5003L15.4673 22.5005C16.2618 22.5007 16.8858 22.5009 17.3933 22.4634C17.9113 22.4252 18.3427 22.3461 18.7476 22.1705C19.4197 21.8789 19.9989 21.4083 20.4218 20.81C20.6766 20.4496 20.8423 20.0435 20.9857 19.5443C21.1261 19.0551 21.2536 18.4444 21.416 17.6666L22.0989 14.3953C22.2669 13.5905 22.3998 12.9542 22.4611 12.4392C22.5234 11.9149 22.5198 11.461 22.3753 11.0353C22.1445 10.3552 21.6773 9.78043 21.0587 9.41551C20.6716 9.1871 20.228 9.09072 19.702 9.04465C19.1854 8.99939 18.5353 8.99939 17.7132 8.9994H14.5714L15.2314 4.05026C15.4114 2.70108 14.362 1.50219 13.001 1.50171Z" fill="#000"/>
<path d="M4.62065 8.50171H4.37935C3.97687 8.5017 3.64468 8.5017 3.37409 8.52381C3.09304 8.54677 2.83469 8.59605 2.59202 8.7197C2.2157 8.91144 1.90973 9.2174 1.71799 9.59373C1.59434 9.8364 1.54506 10.0947 1.5221 10.3758C1.49999 10.6464 1.49999 10.9786 1.5 11.3811V19.6224C1.49999 20.0248 1.49999 20.357 1.5221 20.6276C1.54506 20.9087 1.59434 21.167 1.71799 21.4097C1.90973 21.786 2.2157 22.092 2.59202 22.2837C2.83469 22.4074 3.09304 22.4566 3.37409 22.4796C3.64468 22.5017 3.97686 22.5017 4.37934 22.5017H4.62066C5.02314 22.5017 5.35532 22.5017 5.62591 22.4796C5.90696 22.4566 6.16531 22.4074 6.40798 22.2837C6.78431 22.092 7.09027 21.786 7.28201 21.4097C7.40566 21.167 7.45494 20.9087 7.4779 20.6276C7.50001 20.357 7.50001 20.0248 7.5 19.6223V11.3811C7.50001 10.9786 7.50001 10.6464 7.4779 10.3758C7.45494 10.0947 7.40566 9.8364 7.28201 9.59373C7.09027 9.2174 6.78431 8.91144 6.40798 8.7197C6.16531 8.59605 5.90696 8.54677 5.62591 8.52381C5.35532 8.5017 5.02313 8.5017 4.62065 8.50171Z" fill="#000"/>
</svg>
