<svg width="24" height="24" viewBox="0 0 24 24" fill="none" xmlns="http://www.w3.org/2000/svg">
<path opacity="0.4" d="M13.001 22.5017C12.5138 22.503 12.0626 22.2454 11.8159 21.8252L7.35938 14.2314C7.42812 14.0411 7.46071 13.8409 7.47814 13.6276C7.50025 13.357 7.50024 13.0248 7.50024 12.6223V4.38107C7.50024 3.97858 7.50025 3.6464 7.47814 3.3758C7.47367 3.32114 7.46821 3.26734 7.4614 3.21435C8.66942 2.61033 9.32418 2.28362 10.013 2.0518C10.6284 1.84472 11.2616 1.69516 11.9045 1.60504C12.6286 1.50355 13.3649 1.50338 14.7311 1.50307L15.4673 1.50289C16.2618 1.50271 16.8858 1.50256 17.3933 1.53999C17.9113 1.5782 18.3427 1.65729 18.7476 1.83295C19.4197 2.12455 19.9989 2.59517 20.4218 3.19344C20.6766 3.55384 20.8423 3.95987 20.9857 4.45915C21.1261 4.9483 21.2536 5.55903 21.416 6.33686L22.0989 9.60813C22.2669 10.4129 22.3998 11.0492 22.4611 11.5642C22.5234 12.0885 22.5198 12.5424 22.3753 12.9681C22.1445 13.6482 21.6773 14.223 21.0587 14.5879C20.6716 14.8163 20.228 14.9127 19.702 14.9588C19.1854 15.004 18.5353 15.004 17.7132 15.004H14.5714L15.2314 19.9532C15.4114 21.3023 14.362 22.5012 13.001 22.5017Z" fill="#000"/>
<path d="M4.62065 15.5017H4.37935C3.97687 15.5017 3.64468 15.5017 3.37409 15.4796C3.09304 15.4566 2.83469 15.4074 2.59202 15.2837C2.2157 15.092 1.90973 14.786 1.71799 14.4097C1.59434 14.167 1.54506 13.9087 1.5221 13.6276C1.49999 13.357 1.49999 13.0248 1.5 12.6224V4.38106C1.49999 3.97858 1.49999 3.64639 1.5221 3.3758C1.54506 3.09475 1.59434 2.8364 1.71799 2.59373C1.90973 2.2174 2.2157 1.91144 2.59202 1.7197C2.83469 1.59605 3.09304 1.54677 3.37409 1.52381C3.64468 1.5017 3.97686 1.5017 4.37934 1.50171H4.62066C5.02314 1.5017 5.35532 1.5017 5.62591 1.52381C5.90696 1.54677 6.16531 1.59605 6.40798 1.7197C6.78431 1.91144 7.09027 2.2174 7.28201 2.59373C7.40566 2.8364 7.45494 3.09475 7.4779 3.3758C7.50001 3.6464 7.50001 3.97858 7.5 4.38107V12.6223C7.50001 13.0248 7.50001 13.357 7.4779 13.6276C7.45494 13.9087 7.40566 14.167 7.28201 14.4097C7.09027 14.786 6.78431 15.092 6.40798 15.2837C6.16531 15.4074 5.90696 15.4566 5.62591 15.4796C5.35532 15.5017 5.02313 15.5017 4.62065 15.5017Z" fill="#000"/>
</svg>
