<svg width="24" height="24" viewBox="0 0 24 24" fill="none" xmlns="http://www.w3.org/2000/svg">
<path opacity="0.4" d="M12 0.25C5.51065 0.25 0.25 5.51065 0.25 12C0.25 18.4893 5.51065 23.75 12 23.75C18.4893 23.75 23.75 18.4893 23.75 12C23.75 5.51065 18.4893 0.25 12 0.25Z" fill="#000"/>
<path d="M11.9084 17.4097C12.0306 17.6209 12.2564 17.7506 12.5004 17.75C13.4339 17.7498 14.134 16.8956 13.9509 15.9801L13.555 14.0012H14.8564C15.2675 14.0012 15.5926 14.0012 15.8509 13.9785C16.1139 13.9555 16.3357 13.9073 16.5293 13.7931C16.8385 13.6106 17.0721 13.3233 17.1875 12.9832C17.2598 12.7704 17.2616 12.5434 17.2304 12.2813C17.1998 12.0238 17.1334 11.7056 17.0493 11.3032L16.7079 9.66762C16.6267 9.2787 16.563 8.9733 16.4927 8.72872C16.421 8.47908 16.3382 8.27606 16.2108 8.09587C15.9993 7.79673 15.7097 7.56142 15.3737 7.41562C15.1712 7.32779 14.9556 7.28825 14.6965 7.26914C14.4428 7.25043 14.1308 7.2505 13.7335 7.25059L13.3655 7.25068C12.6823 7.25084 12.3142 7.25092 11.9521 7.30167C11.6307 7.34673 11.3141 7.42151 11.0064 7.52505C10.6599 7.64165 10.3307 7.80628 9.71968 8.11178L9.69992 8.12165C9.42418 8.25952 9.25 8.54135 9.25 8.84964L9.25 11.9135C9.24998 12.2125 9.24997 12.391 9.27783 12.5664C9.30254 12.7221 9.34353 12.8747 9.40012 13.0218C9.46393 13.1876 9.55335 13.342 9.70317 13.6007L11.9084 17.4097Z" fill="#000"/>
<path d="M6.5 13.0017C6.5 13.554 6.94772 14.0017 7.5 14.0017C8.05228 14.0017 8.5 13.554 8.5 13.0017V8.50171C8.5 7.94942 8.05228 7.50171 7.5 7.50171C6.94772 7.50171 6.5 7.94942 6.5 8.50171V13.0017Z" fill="#000"/>
</svg>
