<svg width="24" height="24" viewBox="0 0 24 24" fill="none" xmlns="http://www.w3.org/2000/svg">
<path opacity="0.4" d="M16.2725 2.21166C15.3207 1.25985 13.7775 1.25985 12.8257 2.21166C12.6577 2.3796 12.5152 2.57118 12.4027 2.78033L11.417 4.6125C11.32 4.79274 11.2786 4.86957 11.2343 4.94365C11.1938 5.01144 11.1513 5.078 11.1067 5.14323C11.0581 5.21452 11.0058 5.28442 10.883 5.44813L10.7317 5.64964C10.0221 6.59533 9.71645 6.99664 9.34238 7.29758C9.00072 7.57243 8.61562 7.78839 8.20292 7.93655C7.75106 8.09878 7.24923 8.15028 6.07225 8.26256L5.75804 8.29253C5.18014 8.34765 4.71195 8.3923 4.35474 8.45932C4.00224 8.52546 3.65484 8.62916 3.40256 8.87547C3.04901 9.22067 2.87342 9.70902 2.92623 10.2003C2.96391 10.5509 3.16574 10.8521 3.39543 11.1275C3.62817 11.4066 3.96073 11.7392 4.37121 12.1497L11.8404 19.6188C12.2504 20.0288 12.5826 20.361 12.8614 20.5936C13.1367 20.8231 13.4376 21.0247 13.788 21.0625C14.279 21.1154 14.7672 20.9401 15.1125 20.587C15.3588 20.335 15.4628 19.988 15.5292 19.6359C15.5966 19.2791 15.6416 18.8114 15.6973 18.2342L15.7276 17.919C15.841 16.7429 15.893 16.2414 16.0555 15.79C16.2039 15.3777 16.42 14.9929 16.6949 14.6517C16.9959 14.278 17.3971 13.9727 18.3426 13.264L18.5495 13.1089C18.712 12.9871 18.7813 12.9353 18.852 12.8871C18.9167 12.8429 18.9828 12.8007 19.05 12.7605C19.1234 12.7166 19.1997 12.6754 19.3783 12.5791L21.2136 11.59C21.4222 11.4776 21.6133 11.3353 21.7809 11.1678C22.733 10.2157 22.7329 8.67214 21.7809 7.72009L16.2725 2.21166Z" fill="#000"/>
<path d="M9.03042 14.9698C9.32326 15.2627 9.32318 15.7376 9.03024 16.0304L2.53024 22.5282C2.2373 22.8211 1.76242 22.821 1.46958 22.528C1.17674 22.2351 1.17682 21.7602 1.46976 21.4674L7.96976 14.9696C8.2627 14.6767 8.73758 14.6768 9.03042 14.9698Z" fill="#000"/>
</svg>
