<svg width="24" height="24" viewBox="0 0 24 24" fill="none" xmlns="http://www.w3.org/2000/svg">
<path opacity="0.4" d="M12 0.25C5.51065 0.25 0.25 5.51065 0.25 12C0.25 18.4893 5.51065 23.75 12 23.75C18.4893 23.75 23.75 18.4893 23.75 12C23.75 5.51065 18.4893 0.25 12 0.25Z" fill="#000"/>
<path d="M11.9084 6.592C12.0306 6.38083 12.2564 6.25108 12.5004 6.25171C13.4339 6.25194 14.134 7.10612 13.9509 8.02161L13.555 10.0006H14.8564C15.2675 10.0005 15.5926 10.0005 15.8509 10.0232C16.1139 10.0462 16.3357 10.0944 16.5293 10.2086C16.8385 10.3911 17.0721 10.6784 17.1875 11.0185C17.2598 11.2313 17.2616 11.4583 17.2304 11.7204C17.1998 11.9779 17.1334 12.2961 17.0493 12.6985L16.7079 14.3341C16.6267 14.723 16.563 15.0284 16.4927 15.273C16.421 15.5226 16.3382 15.7256 16.2108 15.9058C15.9993 16.205 15.7097 16.4403 15.3737 16.5861C15.1712 16.6739 14.9556 16.7135 14.6965 16.7326C14.4428 16.7513 14.1308 16.7512 13.7335 16.7511L13.3655 16.751C12.6823 16.7509 12.3142 16.7508 11.9521 16.7C11.6307 16.655 11.3141 16.5802 11.0064 16.4767C10.6599 16.3601 10.3307 16.1954 9.71968 15.8899L9.69992 15.8801C9.42418 15.7422 9.25 15.4604 9.25 15.1521L9.25 12.0882C9.24998 11.7892 9.24997 11.6107 9.27783 11.4353C9.30254 11.2796 9.34353 11.127 9.40012 10.9799C9.46393 10.8141 9.55335 10.6597 9.70317 10.401L11.9084 6.592Z" fill="#000"/>
<path d="M6.5 11C6.5 10.4477 6.94772 10 7.5 10C8.05228 10 8.5 10.4477 8.5 11V15.5C8.5 16.0523 8.05228 16.5 7.5 16.5C6.94772 16.5 6.5 16.0523 6.5 15.5V11Z" fill="#000"/>
</svg>
