<svg width="24" height="24" viewBox="0 0 24 24" fill="none" xmlns="http://www.w3.org/2000/svg">
<path opacity="0.4" d="M16.9326 2.75H7.06739C6.11495 2.74999 5.35439 2.74999 4.74013 2.80018C4.11012 2.85165 3.56824 2.95963 3.07054 3.21322C2.27085 3.62068 1.62068 4.27085 1.21322 5.07054C0.959634 5.56824 0.85165 6.11012 0.800176 6.74013C0.749989 7.35439 0.749994 8.11494 0.75 9.06738V9.26121C0.75 9.64934 1.04612 9.97335 1.43269 10.0082C2.45126 10.1 3.25 10.9571 3.25 12C3.25 13.0429 2.45126 13.9 1.43269 13.9918C1.04612 14.0267 0.75 14.3507 0.75 14.7388V14.9326C0.749994 15.8851 0.749989 16.6456 0.800176 17.2599C0.85165 17.8899 0.959634 18.4318 1.21322 18.9295C1.62068 19.7291 2.27085 20.3793 3.07054 20.7868C3.56824 21.0404 4.11012 21.1483 4.74013 21.1998C5.35438 21.25 6.1149 21.25 7.0673 21.25H16.9326C17.885 21.25 18.6456 21.25 19.2599 21.1998C19.8899 21.1483 20.4318 21.0404 20.9295 20.7868C21.7291 20.3793 22.3793 19.7291 22.7868 18.9295C23.0404 18.4318 23.1483 17.8899 23.1998 17.2599C23.25 16.6456 23.25 15.8851 23.25 14.9327V14.7388C23.25 14.3507 22.9539 14.0267 22.5673 13.9918C21.5487 13.9 20.75 13.0429 20.75 12C20.75 10.9571 21.5487 10.1 22.5673 10.0082C22.9539 9.97335 23.25 9.64934 23.25 9.26121V9.06737C23.25 8.11496 23.25 7.35438 23.1998 6.74013C23.1483 6.11012 23.0404 5.56824 22.7868 5.07054C22.3793 4.27085 21.7291 3.62068 20.9295 3.21322C20.4318 2.95963 19.8899 2.85165 19.2599 2.80018C18.6456 2.74999 17.8851 2.74999 16.9326 2.75Z" fill="#000"/>
<path d="M15.75 2.75V6.5C15.75 6.91421 15.4142 7.25 15 7.25C14.5858 7.25 14.25 6.91421 14.25 6.5V2.75H15.75Z" fill="#000"/>
<path d="M15 9.25C15.4142 9.25 15.75 9.58579 15.75 10V14C15.75 14.4142 15.4142 14.75 15 14.75C14.5858 14.75 14.25 14.4142 14.25 14V10C14.25 9.58579 14.5858 9.25 15 9.25Z" fill="#000"/>
<path d="M15 16.75C15.4142 16.75 15.75 17.0858 15.75 17.5V21.25H14.25V17.5C14.25 17.0858 14.5858 16.75 15 16.75Z" fill="#000"/>
</svg>
