<svg width="24" height="24" viewBox="0 0 24 24" fill="none" xmlns="http://www.w3.org/2000/svg">
<path opacity="0.4" d="M16.9326 2.75H7.06739C6.11495 2.74999 5.35439 2.74999 4.74013 2.80018C4.11012 2.85165 3.56824 2.95963 3.07054 3.21322C2.27085 3.62068 1.62068 4.27085 1.21322 5.07054C0.959634 5.56824 0.85165 6.11012 0.800176 6.74013C0.749989 7.3544 0.749994 8.11494 0.75 9.06738V9.26121C0.75 9.64934 1.04612 9.97335 1.43269 10.0082C2.45126 10.1 3.25 10.9571 3.25 12C3.25 13.0429 2.45126 13.9 1.43269 13.9918C1.04612 14.0267 0.75 14.3507 0.75 14.7388V14.9326C0.749994 15.8851 0.749989 16.6456 0.800176 17.2599C0.85165 17.8899 0.959634 18.4318 1.21322 18.9295C1.62068 19.7291 2.27085 20.3793 3.07054 20.7868C3.56824 21.0404 4.11012 21.1483 4.74013 21.1998C5.35438 21.25 6.1149 21.25 7.0673 21.25H16.9326C17.885 21.25 18.6456 21.25 19.2599 21.1998C19.8899 21.1483 20.4318 21.0404 20.9295 20.7868C21.7291 20.3793 22.3793 19.7291 22.7868 18.9295C23.0404 18.4318 23.1483 17.8899 23.1998 17.2599C23.25 16.6456 23.25 15.8851 23.25 14.9327V14.7388C23.25 14.3507 22.9539 14.0267 22.5673 13.9918C21.5487 13.9 20.75 13.0429 20.75 12C20.75 10.9571 21.5487 10.1 22.5673 10.0082C22.9539 9.97335 23.25 9.64934 23.25 9.26121V9.06737C23.25 8.11496 23.25 7.35438 23.1998 6.74013C23.1483 6.11012 23.0404 5.56824 22.7868 5.07054C22.3793 4.27085 21.7291 3.62068 20.9295 3.21322C20.4318 2.95963 19.8899 2.85165 19.2599 2.80018C18.6456 2.74999 17.8851 2.74999 16.9326 2.75Z" fill="#000"/>
<path d="M15.5303 8.46967C15.8232 8.76256 15.8232 9.23744 15.5303 9.53033L9.53033 15.5303C9.23744 15.8232 8.76256 15.8232 8.46967 15.5303C8.17678 15.2374 8.17678 14.7626 8.46967 14.4697L14.4697 8.46967C14.7626 8.17678 15.2374 8.17678 15.5303 8.46967Z" fill="#000"/>
<path d="M8.5 9.5C8.5 8.94772 8.94772 8.5 9.5 8.5C10.0523 8.5 10.5001 8.94772 10.5001 9.5C10.5001 10.0523 10.0524 10.5 9.5001 10.5C8.94782 10.5 8.5 10.0523 8.5 9.5Z" fill="#000"/>
<path d="M14.5 13.5C13.9477 13.5 13.5 13.9477 13.5 14.5C13.5 15.0523 13.9477 15.5 14.5 15.5C15.0523 15.5 15.5001 15.0523 15.5001 14.5C15.5001 13.9477 15.0523 13.5 14.5 13.5Z" fill="#000"/>
</svg>
