<svg width="24" height="24" viewBox="0 0 24 24" fill="none" xmlns="http://www.w3.org/2000/svg">
<path opacity="0.4" d="M12 3C9.97274 3 8.10464 3.66907 6.60054 4.79885C5.9921 5.25587 5.29436 5.94867 4.67331 6.66596C4.04752 7.38871 3.55823 8.06839 3.33689 8.47663C3.07366 8.96214 2.46667 9.14234 1.98116 8.8791C1.49564 8.61587 1.31545 8.00889 1.57868 7.52337C1.89952 6.93161 2.4948 6.12659 3.16131 5.35681C3.83254 4.58158 4.6348 3.77402 5.39938 3.19972C7.23793 1.81872 9.52479 1 12 1C18.0751 1 23 5.92487 23 12C23 18.0751 18.0751 23 12 23C7.07307 23 2.90514 19.7616 1.50374 15.2996C1.33825 14.7727 1.63123 14.2114 2.15814 14.046C2.68504 13.8805 3.24634 14.1734 3.41184 14.7004C4.55896 18.3527 7.97162 21 12 21C16.9705 21 21 16.9706 21 12C21 7.02944 16.9705 3 12 3Z" fill="#000"/>
<path d="M7.5 9H2C1.44772 9 1 8.55228 1 8V2.5C1 1.94772 1.44772 1.5 2 1.5C2.55228 1.5 3 1.94772 3 2.5V7H7.5C8.05228 7 8.5 7.44771 8.5 8C8.5 8.55228 8.05228 9 7.5 9Z" fill="#000"/>
<path d="M13 7C13 6.44772 12.5523 6 12 6C11.4477 6 11 6.44772 11 7V12C11 12.3448 11.1776 12.6653 11.47 12.848L14.67 14.848C15.1383 15.1407 15.7553 14.9983 16.048 14.53C16.3407 14.0617 16.1983 13.4447 15.73 13.152L13 11.4458V7Z" fill="#000"/>
</svg>
