<svg width="24" height="24" viewBox="0 0 24 24" fill="none" xmlns="http://www.w3.org/2000/svg">
<path opacity="0.4" d="M12 3C14.0272 3 15.8953 3.66907 17.3994 4.79885C18.0079 5.25587 18.7056 5.94867 19.3267 6.66596C19.9525 7.38871 20.4418 8.06839 20.6631 8.47663C20.9263 8.96214 21.5333 9.14234 22.0188 8.8791C22.5043 8.61587 22.6845 8.00889 22.4213 7.52337C22.1005 6.93161 21.5052 6.12659 20.8387 5.35681C20.1674 4.58158 19.3652 3.77402 18.6006 3.19972C16.762 1.81872 14.4752 1 12 1C5.92486 1 1 5.92487 1 12C1 18.0751 5.92486 23 12 23C16.9269 23 21.0948 19.7616 22.4962 15.2996C22.6617 14.7727 22.3688 14.2114 21.8418 14.046C21.3149 13.8805 20.7536 14.1734 20.5881 14.7004C19.441 18.3527 16.0284 21 12 21C7.02943 21 3 16.9706 3 12C3 7.02944 7.02943 3 12 3Z" fill="#000"/>
<path d="M16.5 9H22C22.5523 9 23 8.55228 23 8V2.5C23 1.94772 22.5523 1.5 22 1.5C21.4477 1.5 21 1.94772 21 2.5V7H16.5C15.9477 7 15.5 7.44771 15.5 8C15.5 8.55228 15.9477 9 16.5 9Z" fill="#000"/>
<path d="M13 7C13 6.44772 12.5523 6 12 6C11.4477 6 11 6.44772 11 7V12C11 12.3448 11.1776 12.6653 11.47 12.848L14.67 14.848C15.1383 15.1407 15.7553 14.9983 16.048 14.53C16.3407 14.0617 16.1983 13.4447 15.73 13.152L13 11.4458V7Z" fill="#000"/>
</svg>
