<svg width="24" height="24" viewBox="0 0 24 24" fill="none" xmlns="http://www.w3.org/2000/svg">
<g opacity="0.4">
<path d="M18.4746 2.53385C20.2049 4.24127 21.2495 6.51346 21.2495 8.99907C21.2495 11.4855 20.2042 13.7584 18.4729 15.466C18.1779 15.7569 18.1747 16.2317 18.4655 16.5267C18.7564 16.8216 19.2313 16.8248 19.5262 16.534C21.5179 14.5696 22.7495 11.9213 22.7495 8.99907C22.7495 6.07782 21.5187 3.43034 19.5282 1.46615C19.2333 1.17521 18.7585 1.17838 18.4675 1.47321C18.1766 1.76805 18.1798 2.24291 18.4746 2.53385Z" fill="#000"/>
<path d="M15.4722 6.0381C16.2642 6.80706 16.7446 7.8525 16.7446 9C16.7446 10.1475 16.2642 11.1929 15.4722 11.9619C15.175 12.2504 15.168 12.7253 15.4565 13.0224C15.7451 13.3196 16.2199 13.3266 16.5171 13.0381C17.5804 12.0057 18.2446 10.5796 18.2446 9C18.2446 7.42044 17.5804 5.99429 16.5171 4.9619C16.2199 4.67336 15.7451 4.68037 15.4565 4.97755C15.168 5.27474 15.175 5.74956 15.4722 6.0381Z" fill="#000"/>
<path d="M2.74951 8.99907C2.74951 6.51346 3.79411 4.24127 5.52442 2.53385C5.81926 2.24291 5.82242 1.76805 5.53149 1.47321C5.24055 1.17838 4.76569 1.17521 4.47085 1.46615C2.48032 3.43034 1.24951 6.07782 1.24951 8.99907C1.24951 11.9213 2.48115 14.5696 4.47286 16.534C4.76777 16.8248 5.24263 16.8216 5.53349 16.5267C5.82435 16.2317 5.82108 15.7569 5.52617 15.466C3.79481 13.7584 2.74951 11.4855 2.74951 8.99907Z" fill="#000"/>
<path d="M8.52684 6.0381C7.73484 6.80706 7.25439 7.8525 7.25439 9C7.25439 10.1475 7.73484 11.1929 8.52684 11.9619C8.82403 12.2504 8.83103 12.7253 8.54249 13.0224C8.25395 13.3196 7.77913 13.3266 7.48195 13.0381C6.41864 12.0057 5.75439 10.5796 5.75439 9C5.75439 7.42044 6.41864 5.99429 7.48195 4.9619C7.77913 4.67336 8.25395 4.68037 8.54249 4.97755C8.83103 5.27474 8.82403 5.74956 8.52684 6.0381Z" fill="#000"/>
</g>
<path d="M12 6.75C10.7574 6.75 9.75 7.75736 9.75 9C9.75 9.97966 10.3761 10.8131 11.25 11.122V22C11.25 22.4142 11.5858 22.75 12 22.75C12.4142 22.75 12.75 22.4142 12.75 22V11.122C13.6239 10.8131 14.25 9.97966 14.25 9C14.25 7.75736 13.2426 6.75 12 6.75Z" fill="#000"/>
</svg>
