<svg width="24" height="24" viewBox="0 0 24 24" fill="none" xmlns="http://www.w3.org/2000/svg">
<path opacity="0.4" d="M4.69366 7.25C4.44037 7.25 4.31373 7.25 4.21721 7.29264C4.08852 7.34948 3.98973 7.45791 3.94509 7.59133C3.9116 7.69139 3.92337 7.81749 3.9469 8.06968L4.88355 18.1084C4.94691 18.7876 4.9985 19.3405 5.07599 19.7885C5.1562 20.2522 5.27279 20.6618 5.49676 21.0385C5.85176 21.6357 6.37642 22.1137 7.00395 22.4117C7.39987 22.5997 7.81851 22.6777 8.28764 22.7145C8.7409 22.75 9.29627 22.75 9.97837 22.75H14.0214C14.7035 22.75 15.2589 22.75 15.7122 22.7145C16.1813 22.6777 16.6 22.5997 16.9959 22.4117C17.6234 22.1137 18.1481 21.6357 18.5031 21.0386C18.727 20.6618 18.8436 20.2522 18.9238 19.7886C19.0013 19.3406 19.0529 18.7876 19.1163 18.1084L20.053 8.06968C20.0765 7.81749 20.0883 7.69139 20.0548 7.59133C20.0102 7.45792 19.9114 7.34948 19.7827 7.29264C19.6862 7.25 19.5595 7.25 19.3062 7.25H4.69366Z" fill="#000"/>
<path d="M9.14896 1.34721C9.47168 1.24921 9.81443 1.24961 10.2037 1.25006H13.7963C14.1856 1.24961 14.5283 1.24921 14.851 1.34721C15.1341 1.43317 15.3974 1.57408 15.6259 1.7619C15.8864 1.97606 16.0762 2.26146 16.2918 2.5856L16.9116 3.51538C17.198 3.94497 17.2608 4.02551 17.3266 4.07953C17.4027 4.14214 17.4905 4.18911 17.5848 4.21776C17.6662 4.24248 17.7681 4.25012 18.2844 4.25012H21C21.4142 4.25012 21.75 4.58591 21.75 5.00012C21.75 5.41434 21.4142 5.75012 21 5.75012L18.2034 5.75019C18.1507 5.75025 18.0989 5.75031 18.0479 5.75012H5.95206C5.90106 5.75031 5.84895 5.75025 5.79631 5.75019L3 5.75012C2.58579 5.75012 2.25 5.41434 2.25 5.00012C2.25 4.58591 2.58579 4.25012 3 4.25012H5.71556C6.23186 4.25012 6.33375 4.24248 6.41516 4.21776C6.50951 4.18911 6.59727 4.14214 6.67344 4.07953C6.73917 4.02551 6.80205 3.94497 7.08844 3.51538L7.70823 2.58559C7.92377 2.26146 8.11356 1.97605 8.37412 1.7619C8.60263 1.57408 8.86593 1.43317 9.14896 1.34721Z" fill="#000"/>
</svg>
