<svg width="24" height="24" viewBox="0 0 24 24" fill="none" xmlns="http://www.w3.org/2000/svg">
<path opacity="0.4" fill-rule="evenodd" clip-rule="evenodd" d="M1.25 5.5C1.25 3.70508 2.70507 2.25 4.5 2.25H12.5C14.2949 2.25 15.75 3.70507 15.75 5.5V5.75H18.5341C19.4165 5.75 20.2173 6.26571 20.5825 7.06894L22.6761 11.675C22.7213 11.7689 22.7476 11.8737 22.7498 11.9844L22.75 12.0017V16.5C22.75 17.7426 21.7426 18.75 20.5 18.75H18.7324C18.4647 18.75 18.2173 18.6073 18.0832 18.3755C17.866 18 17.4617 17.75 17 17.75C16.5383 17.75 16.134 18 15.9168 18.3755C15.7827 18.6073 15.5353 18.75 15.2676 18.75H8.73244C8.46471 18.75 8.21729 18.6073 8.08323 18.3755C7.86597 18 7.46173 17.75 7 17.75C6.53827 17.75 6.13403 18 5.91677 18.3755C5.78271 18.6073 5.53529 18.75 5.26756 18.75H3.5C2.25736 18.75 1.25 17.7426 1.25 16.5V5.5ZM15.75 11.25H20.8352L19.2169 7.68965C19.0952 7.4219 18.8282 7.25 18.5341 7.25H15.75V11.25Z" fill="#000"/>
<path d="M15.75 11.25V7.25H18.5341C18.8282 7.25 19.0952 7.4219 19.2169 7.68965L20.8352 11.25H15.75Z" fill="#000"/>
<path fill-rule="evenodd" clip-rule="evenodd" d="M4.25 19C4.25 20.5188 5.48122 21.75 7 21.75C8.51878 21.75 9.75 20.5188 9.75 19C9.75 17.4812 8.51878 16.25 7 16.25C5.48122 16.25 4.25 17.4812 4.25 19ZM7 20.25C6.30964 20.25 5.75 19.6904 5.75 19C5.75 18.3096 6.30964 17.75 7 17.75C7.69036 17.75 8.25 18.3096 8.25 19C8.25 19.6904 7.69036 20.25 7 20.25Z" fill="#000"/>
<path fill-rule="evenodd" clip-rule="evenodd" d="M17 21.75C15.4812 21.75 14.25 20.5188 14.25 19C14.25 17.4812 15.4812 16.25 17 16.25C18.5188 16.25 19.75 17.4812 19.75 19C19.75 20.5188 18.5188 21.75 17 21.75ZM15.75 19C15.75 19.6904 16.3096 20.25 17 20.25C17.6904 20.25 18.25 19.6904 18.25 19C18.25 18.3096 17.6904 17.75 17 17.75C16.3096 17.75 15.75 18.3096 15.75 19Z" fill="#000"/>
</svg>
