<svg width="24" height="24" viewBox="0 0 24 24" fill="none" xmlns="http://www.w3.org/2000/svg">
<path opacity="0.4" d="M12.0005 14.25C7.7345 14.25 3.82425 16.927 3.25754 20.8939C3.2268 21.1092 3.29096 21.3272 3.43341 21.4914C3.57587 21.6557 3.78259 21.75 4 21.75H20C20.2174 21.75 20.4241 21.6557 20.5666 21.4914C20.709 21.3272 20.7732 21.1092 20.7425 20.8939C20.6664 20.3615 20.5286 19.8497 20.3364 19.3633C20.2987 19.2678 20.2418 19.1811 20.1692 19.1086L16.3377 15.277C16.2738 15.2131 16.1989 15.1613 16.1166 15.1241C14.8727 14.561 13.4655 14.25 12.0005 14.25Z" fill="#000"/>
<path d="M2.53033 1.46967C2.23744 1.17678 1.76256 1.17678 1.46967 1.46967C1.17678 1.76256 1.17678 2.23744 1.46967 2.53033L21.4697 22.5303C21.7626 22.8232 22.2374 22.8232 22.5303 22.5303C22.8232 22.2374 22.8232 21.7626 22.5303 21.4697L2.53033 1.46967Z" fill="#000"/>
<path d="M8.0077 4.0905C8.96946 2.96524 10.4016 2.25 12 2.25C14.8995 2.25 17.25 4.6005 17.25 7.5C17.25 9.09841 16.5348 10.5306 15.4095 11.4923C15.1119 11.7467 14.6687 11.7294 14.3919 11.4525L8.04749 5.10813C7.77066 4.8313 7.75333 4.38811 8.0077 4.0905Z" fill="#000"/>
</svg>
