<svg width="24" height="24" viewBox="0 0 24 24" fill="none" xmlns="http://www.w3.org/2000/svg">
<path opacity="0.4" d="M10.2733 14.2898C10.3687 14.0532 10.3373 13.7843 10.19 13.5761C10.0426 13.3678 9.79951 13.2487 9.54465 13.26C5.46521 13.4403 1.80412 16.0678 1.25754 19.8939C1.2268 20.1091 1.29096 20.3271 1.43341 20.4914C1.57587 20.6556 1.78259 20.75 2 20.75H9.58152C9.83094 20.75 10.064 20.626 10.2034 20.4191C10.3428 20.2123 10.3703 19.9497 10.2767 19.7185C9.93729 18.88 9.75 17.9628 9.75 17C9.75 16.0404 9.93604 15.1261 10.2733 14.2898Z" fill="#000"/>
<path d="M4.75 6.5C4.75 3.6005 7.1005 1.25 10 1.25C12.8995 1.25 15.25 3.6005 15.25 6.5C15.25 9.3995 12.8995 11.75 10 11.75C7.1005 11.75 4.75 9.3995 4.75 6.5Z" fill="#000"/>
<path fill-rule="evenodd" clip-rule="evenodd" d="M22.75 17C22.75 13.8244 20.1756 11.25 17 11.25C13.8244 11.25 11.25 13.8244 11.25 17C11.25 20.1756 13.8244 22.75 17 22.75C20.1756 22.75 22.75 20.1756 22.75 17ZM17 12.75C19.3472 12.75 21.25 14.6528 21.25 17C21.25 17.9027 20.9686 18.7397 20.4886 19.428L14.572 13.5114C15.2603 13.0314 16.0973 12.75 17 12.75ZM17 21.25C17.9027 21.25 18.7397 20.9686 19.428 20.4886L13.5114 14.572C13.0314 15.2603 12.75 16.0973 12.75 17C12.75 19.3472 14.6528 21.25 17 21.25Z" fill="#000"/>
</svg>
