<svg width="24" height="24" viewBox="0 0 24 24" fill="none" xmlns="http://www.w3.org/2000/svg">
<path opacity="0.4" d="M15.633 1.25H8.367C7.27486 1.24999 6.40936 1.24999 5.71173 1.30699C4.99835 1.36527 4.39472 1.48688 3.84355 1.76772C2.94978 2.22312 2.22312 2.94978 1.76772 3.84355C1.48688 4.39472 1.36527 4.99834 1.30699 5.71173C1.24999 6.40935 1.24999 7.27485 1.25 8.36699V15.633C1.24999 16.7251 1.24999 17.5906 1.30699 18.2883C1.36527 19.0017 1.48688 19.6053 1.76772 20.1565C2.22312 21.0502 2.94977 21.7769 3.84355 22.2323C4.39472 22.5131 4.99835 22.6347 5.71173 22.693C6.40935 22.75 7.27484 22.75 8.36698 22.75H15.633C16.7252 22.75 17.5906 22.75 18.2883 22.693C19.0017 22.6347 19.6053 22.5131 20.1565 22.2323C21.0502 21.7769 21.7769 21.0502 22.2323 20.1565C22.5131 19.6053 22.6347 19.0017 22.693 18.2883C22.75 17.5906 22.75 16.7252 22.75 15.633V8.36698C22.75 7.27484 22.75 6.40935 22.693 5.71173C22.6347 4.99835 22.5131 4.39472 22.2323 3.84355C21.7769 2.94977 21.0502 2.22312 20.1565 1.76772C19.6053 1.48688 19.0017 1.36527 18.2883 1.30699C17.5906 1.24999 16.7251 1.24999 15.633 1.25Z" fill="#000"/>
<path d="M11.9995 6.75C9.92822 6.75 8.24945 8.42941 8.24945 10.5007C8.24945 12.572 9.92822 14.2514 11.9995 14.2514C14.0707 14.2514 15.7495 12.572 15.7495 10.5007C15.7495 8.42941 14.0707 6.75 11.9995 6.75Z" fill="#000"/>
<path d="M11.9997 16.25C8.08989 16.25 5.30855 18.8188 4.37286 21.5029C4.30468 21.6984 4.32041 21.9135 4.41632 22.0971C4.51223 22.2806 4.67979 22.4164 4.87926 22.4721C5.87504 22.7503 7.17408 22.7502 9.06172 22.75H14.9381C16.8257 22.7502 18.1248 22.7503 19.1205 22.4721C19.32 22.4164 19.4876 22.2806 19.5835 22.0971C19.6794 21.9135 19.6951 21.6984 19.627 21.5029C18.6912 18.8188 15.9096 16.25 11.9997 16.25Z" fill="#000"/>
</svg>
