<svg width="24" height="24" viewBox="0 0 24 24" fill="none" xmlns="http://www.w3.org/2000/svg">
<path opacity="0.4" d="M12 0.25C5.51065 0.25 0.25 5.51065 0.25 12C0.25 18.4893 5.51065 23.75 12 23.75C18.4893 23.75 23.75 18.4893 23.75 12C23.75 5.51065 18.4893 0.25 12 0.25Z" fill="#000"/>
<path d="M11.9993 6.75C9.92806 6.75 8.2493 8.42941 8.2493 10.5007C8.2493 12.572 9.92806 14.2514 11.9993 14.2514C14.0705 14.2514 15.7493 12.572 15.7493 10.5007C15.7493 8.42941 14.0705 6.75 11.9993 6.75Z" fill="#000"/>
<path d="M11.9996 16.25C9.34215 16.25 6.17499 17.7757 4.7118 20.4126L4.396 20.9818L4.91498 21.3746C6.88469 22.8653 9.34 23.75 11.9998 23.75C14.6596 23.75 17.1149 22.8653 19.0846 21.3746L19.6036 20.9818L19.2878 20.4126C17.8245 17.7757 14.6569 16.25 11.9996 16.25Z" fill="#000"/>
</svg>
