<svg width="24" height="24" viewBox="0 0 24 24" fill="none" xmlns="http://www.w3.org/2000/svg">
<g clip-path="url(#clip0_9002_7731)">
<path opacity="0.4" d="M12 0.25C5.51065 0.25 0.25 5.51065 0.25 12C0.25 18.4893 5.51065 23.75 12 23.75C18.4893 23.75 23.75 18.4893 23.75 12C23.75 5.51065 18.4893 0.25 12 0.25Z" fill="#000"/>
<path d="M11.9995 6.75C9.92831 6.75 8.24954 8.42941 8.24954 10.5007C8.24954 12.572 9.92831 14.2514 11.9995 14.2514C14.0708 14.2514 15.7495 12.572 15.7495 10.5007C15.7495 8.42941 14.0708 6.75 11.9995 6.75Z" fill="#000"/>
<path d="M11.9998 16.25C9.3424 16.25 6.17523 17.7757 4.71204 20.4126L4.39624 20.9818L4.91523 21.3746C6.88493 22.8653 9.34024 23.75 12 23.75C14.6598 23.75 17.1151 22.8653 19.0848 21.3746L19.6038 20.9818L19.288 20.4126C17.8248 17.7757 14.6572 16.25 11.9998 16.25Z" fill="#000"/>
</g>
<defs>
<clipPath id="clip0_9002_7731">
<rect width="24" height="24" fill="white"/>
</clipPath>
</defs>
</svg>
