<svg width="24" height="24" viewBox="0 0 24 24" fill="none" xmlns="http://www.w3.org/2000/svg">
<path opacity="0.4" d="M12.0005 14.25C7.7345 14.25 3.82425 16.927 3.25754 20.8939C3.2268 21.1092 3.29096 21.3272 3.43341 21.4914C3.57587 21.6557 3.78259 21.75 4 21.75H20C20.2174 21.75 20.4241 21.6557 20.5666 21.4914C20.709 21.3272 20.7732 21.1092 20.7425 20.8939C20.1758 16.9271 16.2666 14.25 12.0005 14.25Z" fill="#000"/>
<path d="M12 2.25C9.1005 2.25 6.75 4.6005 6.75 7.5C6.75 10.3995 9.1005 12.75 12 12.75C14.8995 12.75 17.25 10.3995 17.25 7.5C17.25 4.6005 14.8995 2.25 12 2.25Z" fill="#000"/>
</svg>
