<svg width="24" height="24" viewBox="0 0 24 24" fill="none" xmlns="http://www.w3.org/2000/svg">
<path opacity="0.4" d="M9.00047 14.25C4.7345 14.25 0.82425 16.927 0.257543 20.8939C0.226795 21.1092 0.290961 21.3272 0.433414 21.4914C0.575867 21.6557 0.782586 21.75 1 21.75H17C17.2174 21.75 17.4241 21.6557 17.5666 21.4914C17.709 21.3272 17.7732 21.1092 17.7425 20.8939C17.1758 16.9271 13.2666 14.25 9.00047 14.25Z" fill="#000"/>
<path d="M3.75 7.5C3.75 4.6005 6.1005 2.25 9 2.25C11.8995 2.25 14.25 4.6005 14.25 7.5C14.25 10.3995 11.8995 12.75 9 12.75C6.1005 12.75 3.75 10.3995 3.75 7.5Z" fill="#000"/>
<path d="M23.5303 9.53033C23.8232 9.23744 23.8232 8.76256 23.5303 8.46967C23.2374 8.17678 22.7626 8.17678 22.4697 8.46967L18.5 12.4393L16.5303 10.4697C16.2374 10.1768 15.7626 10.1768 15.4697 10.4697C15.1768 10.7626 15.1768 11.2374 15.4697 11.5303L17.9697 14.0303C18.2626 14.3232 18.7374 14.3232 19.0303 14.0303L23.5303 9.53033Z" fill="#000"/>
</svg>
