<svg width="24" height="24" viewBox="0 0 24 24" fill="none" xmlns="http://www.w3.org/2000/svg">
<g opacity="0.4">
<path d="M5.75 4.25C5.75 3.83579 6.08579 3.5 6.5 3.5H17.5C17.9142 3.5 18.25 3.83579 18.25 4.25C18.25 4.66421 17.9142 5 17.5 5H6.5C6.08579 5 5.75 4.66421 5.75 4.25Z" fill="#000"/>
<path d="M4.25 5.75C4.66421 5.75 5 6.08579 5 6.5V17.5C5 17.9142 4.66421 18.25 4.25 18.25C3.83579 18.25 3.5 17.9142 3.5 17.5V6.5C3.5 6.08579 3.83579 5.75 4.25 5.75Z" fill="#000"/>
<path d="M19.75 5.75C20.1642 5.75 20.5 6.08579 20.5 6.5V17.5C20.5 17.9142 20.1642 18.25 19.75 18.25C19.3358 18.25 19 17.9142 19 17.5V6.5C19 6.08579 19.3358 5.75 19.75 5.75Z" fill="#000"/>
<path d="M5.75 19.75C5.75 19.3358 6.08579 19 6.5 19H17.5C17.9142 19 18.25 19.3358 18.25 19.75C18.25 20.1642 17.9142 20.5 17.5 20.5H6.5C6.08579 20.5 5.75 20.1642 5.75 19.75Z" fill="#000"/>
</g>
<path d="M18.75 1.5C17.7835 1.5 17 2.2835 17 3.25V5.25C17 6.2165 17.7835 7 18.75 7H20.75C21.7165 7 22.5 6.2165 22.5 5.25V3.25C22.5 2.2835 21.7165 1.5 20.75 1.5H18.75Z" fill="#000"/>
<path d="M18.75 17C17.7835 17 17 17.7835 17 18.75V20.75C17 21.7165 17.7835 22.5 18.75 22.5H20.75C21.7165 22.5 22.5 21.7165 22.5 20.75V18.75C22.5 17.7835 21.7165 17 20.75 17H18.75Z" fill="#000"/>
<path d="M3.25 17C2.2835 17 1.5 17.7835 1.5 18.75V20.75C1.5 21.7165 2.2835 22.5 3.25 22.5H5.25C6.2165 22.5 7 21.7165 7 20.75V18.75C7 17.7835 6.2165 17 5.25 17H3.25Z" fill="#000"/>
<path d="M3.25 1.5C2.2835 1.5 1.5 2.2835 1.5 3.25V5.25C1.5 6.2165 2.2835 7 3.25 7H5.25C6.2165 7 7 6.2165 7 5.25V3.25C7 2.2835 6.2165 1.5 5.25 1.5H3.25Z" fill="#000"/>
</svg>
