<svg width="24" height="24" viewBox="0 0 24 24" fill="none" xmlns="http://www.w3.org/2000/svg">
<g opacity="0.4">
<path d="M16.2299 4.20313C15.7939 3.98098 15.321 3.88746 14.7775 3.84306C14.2486 3.79985 13.5948 3.79985 12.7803 3.79986C11.5572 3.79986 10.334 3.7978 9.11093 3.79988C8.51238 3.80089 8.2131 3.8014 8.07309 3.92127C7.95186 4.02506 7.88722 4.18148 7.89982 4.34057C7.91438 4.52431 8.12642 4.73635 8.55049 5.16042L18.2501 14.8601C18.2501 12.9966 18.2501 11.1332 18.2501 9.26972C18.2501 8.45525 18.2501 7.80131 18.2069 7.27246C18.1625 6.72892 18.069 6.25609 17.8468 5.82009C17.4921 5.12389 16.9261 4.55787 16.2299 4.20313Z" fill="#000"/>
<path d="M5.0537 4.01345C4.91842 3.87817 4.73368 3.80416 4.54242 3.80861C3.66869 3.82896 2.97591 3.89458 2.37033 4.20313C1.67413 4.55787 1.10811 5.12389 0.753374 5.82009C0.531223 6.25609 0.437705 6.72892 0.393295 7.27246C0.350086 7.80132 0.350091 8.45519 0.350098 9.26967V14.73C0.350091 15.5445 0.350086 16.1984 0.393295 16.7273C0.437705 17.2708 0.531223 17.7436 0.753374 18.1796C1.10811 18.8758 1.67413 19.4418 2.37033 19.7966C2.80633 20.0187 3.27916 20.1123 3.8227 20.1567C4.35152 20.1999 5.00534 20.1999 5.81974 20.1999H12.7803C13.5947 20.1999 14.2487 20.1999 14.7775 20.1567C15.321 20.1123 15.7939 20.0187 16.2299 19.7966C16.9261 19.4418 17.4921 18.8758 17.8468 18.1796C17.9531 17.9711 18.0303 17.7536 18.0867 17.5222C18.1446 17.2847 18.0745 17.0342 17.9016 16.8614L5.0537 4.01345Z" fill="#000"/>
</g>
<path d="M2.53033 1.46967C2.23744 1.17678 1.76256 1.17678 1.46967 1.46967C1.17678 1.76256 1.17678 2.23744 1.46967 2.53033L21.4697 22.5303C21.7626 22.8232 22.2374 22.8232 22.5303 22.5303C22.8232 22.2374 22.8232 21.7626 22.5303 21.4697L2.53033 1.46967Z" fill="#000"/>
<path d="M18.2499 14.8575L21.4091 17.7294C22.2121 18.4594 23.4999 17.8897 23.4999 16.8045V7.19533C23.4999 6.11015 22.2121 5.54044 21.4091 6.27041L18.2499 9.14237V14.8575Z" fill="#000"/>
</svg>
