<svg width="24" height="24" viewBox="0 0 24 24" fill="none" xmlns="http://www.w3.org/2000/svg">
<path opacity="0.4" d="M12.7321 3.75H5.7679C4.95506 3.74999 4.29944 3.74999 3.76853 3.79336C3.2219 3.83803 2.74175 3.93239 2.29754 4.15873C1.59193 4.51825 1.01825 5.09193 0.658726 5.79754C0.432386 6.24175 0.338026 6.7219 0.293364 7.26853C0.249987 7.79944 0.249993 8.45505 0.25 9.26788V14.7321C0.249993 15.5449 0.249987 16.2006 0.293364 16.7315C0.338026 17.2781 0.432386 17.7582 0.658726 18.2025C1.01825 18.9081 1.59193 19.4817 2.29754 19.8413C2.74175 20.0676 3.2219 20.162 3.76853 20.2066C4.29944 20.25 4.95505 20.25 5.76788 20.25H12.7321C13.545 20.25 14.2006 20.25 14.7315 20.2066C15.2781 20.162 15.7582 20.0676 16.2025 19.8413C16.9081 19.4817 17.4817 18.9081 17.8413 18.2025C18.0676 17.7582 18.162 17.2781 18.2066 16.7315C18.25 16.2006 18.25 15.545 18.25 14.7321V9.26788C18.25 8.45505 18.25 7.79944 18.2066 7.26853C18.162 6.7219 18.0676 6.24175 17.8413 5.79754C17.4817 5.09193 16.9081 4.51825 16.2025 4.15873C15.7582 3.93239 15.2781 3.83803 14.7315 3.79336C14.2006 3.74999 13.5449 3.74999 12.7321 3.75Z" fill="#000"/>
<path d="M18.25 14.8575C18.25 14.8161 18.25 14.7743 18.25 14.7321V9.26787C18.25 9.22562 18.25 9.18378 18.25 9.14237L21.4092 6.27041C22.2121 5.54044 23.5 6.11015 23.5 7.19533V16.8045C23.5 17.8897 22.2121 18.4594 21.4092 17.7294L18.25 14.8575Z" fill="#000"/>
</svg>
