<svg width="24" height="24" viewBox="0 0 24 24" fill="none" xmlns="http://www.w3.org/2000/svg">
<path opacity="0.4" d="M17.2321 5.75H6.7679C5.95506 5.74999 5.29944 5.74999 4.76853 5.79336C4.2219 5.83803 3.74175 5.93239 3.29754 6.15873C2.59193 6.51825 2.01825 7.09193 1.65873 7.79754C1.43239 8.24175 1.33803 8.7219 1.29336 9.26853C1.24999 9.79944 1.24999 10.455 1.25 11.2679V17.2321C1.24999 18.0449 1.24999 18.7006 1.29336 19.2315C1.33803 19.7781 1.43239 20.2582 1.65873 20.7025C2.01825 21.4081 2.59193 21.9818 3.29754 22.3413C3.74175 22.5676 4.2219 22.662 4.76853 22.7066C5.29944 22.75 5.95505 22.75 6.76788 22.75H17.2321C18.045 22.75 18.7006 22.75 19.2315 22.7066C19.7781 22.662 20.2582 22.5676 20.7025 22.3413C21.4081 21.9818 21.9817 21.4081 22.3413 20.7025C22.5676 20.2582 22.662 19.7781 22.7066 19.2315C22.75 18.7006 22.75 18.045 22.75 17.2321V11.2679C22.75 10.455 22.75 9.79944 22.7066 9.26853C22.662 8.7219 22.5676 8.24175 22.3413 7.79754C21.9817 7.09193 21.4081 6.51825 20.7025 6.15873C20.2582 5.93239 19.7781 5.83803 19.2315 5.79336C18.7006 5.74999 18.0449 5.74999 17.2321 5.75Z" fill="#000"/>
<path d="M17.3377 1.30015C16.9138 1.19764 16.4923 1.25426 16.0726 1.35891C15.6638 1.46085 15.1671 1.63335 14.5686 1.8412L5.36996 5.03558C4.15782 5.45605 3.35413 5.73483 2.74524 6.25313C2.20893 6.70964 1.79449 7.29229 1.53916 7.94867C1.24929 8.69389 1.24959 9.54452 1.25003 10.8275L1.25007 11.0323C1.25044 10.3271 1.25429 9.74704 1.2934 9.26837C1.33806 8.72175 1.43242 8.24161 1.65876 7.79741C2.01828 7.09181 2.59196 6.51815 3.29757 6.15863C3.74179 5.93229 4.22193 5.83793 4.76856 5.79327C5.29947 5.7499 5.95507 5.7499 6.7679 5.74991H17.2321C18.045 5.7499 18.7006 5.7499 19.2315 5.79327L19.2501 5.79481V5.17113C19.2501 4.53756 19.2501 4.01175 19.2123 3.59213C19.1735 3.16135 19.0887 2.74465 18.8528 2.37783C18.5051 1.83718 17.9625 1.45124 17.3377 1.30015Z" fill="#000"/>
<path d="M18.0001 13.25C17.4478 13.25 17.0001 13.6977 17.0001 14.25C17.0001 14.8023 17.4478 15.25 18.0001 15.25C18.5524 15.25 19.0002 14.8023 19.0002 14.25C19.0002 13.6977 18.5524 13.25 18.0001 13.25Z" fill="#000"/>
</svg>
