<svg width="24" height="24" viewBox="0 0 24 24" fill="none" xmlns="http://www.w3.org/2000/svg">
<path opacity="0.4" d="M18.2321 4.75H7.7679C6.95506 4.74999 6.29944 4.74999 5.76853 4.79336C5.2219 4.83803 4.74175 4.93239 4.29754 5.15873C3.59193 5.51825 3.01825 6.09193 2.65873 6.79754C2.43239 7.24175 2.33803 7.7219 2.29336 8.26853C2.24999 8.79944 2.24999 9.45505 2.25 10.2679V10.5815C2.25 10.8309 2.37399 11.064 2.58081 11.2034C2.78763 11.3428 3.05022 11.3703 3.28141 11.2767C4.11996 10.9373 5.03718 10.75 6 10.75C10.0041 10.75 13.25 13.9959 13.25 18C13.25 18.9628 13.0627 19.88 12.7233 20.7186C12.6297 20.9498 12.6572 21.2124 12.7966 21.4192C12.936 21.626 13.1691 21.75 13.4185 21.75H18.2321C19.045 21.75 19.7006 21.75 20.2315 21.7066C20.7781 21.662 21.2582 21.5676 21.7025 21.3413C22.4081 20.9818 22.9817 20.4081 23.3413 19.7025C23.5676 19.2582 23.662 18.7781 23.7066 18.2315C23.75 17.7006 23.75 17.045 23.75 16.2321V10.2679C23.75 9.45505 23.75 8.79944 23.7066 8.26853C23.662 7.7219 23.5676 7.24175 23.3413 6.79754C22.9817 6.09193 22.4081 5.51825 21.7025 5.15873C21.2582 4.93239 20.7781 4.83803 20.2315 4.79336C19.7006 4.74999 19.0449 4.74999 18.2321 4.75Z" fill="#000"/>
<path d="M17.0726 0.358914C17.4923 0.254264 17.9138 0.197642 18.3377 0.300152C18.9625 0.451239 19.5051 0.837183 19.8528 1.37783C20.0887 1.74465 20.1735 2.16135 20.2123 2.59213C20.2501 3.01175 20.2501 3.53756 20.2501 4.17113V4.79481L20.2315 4.79327C19.7006 4.7499 19.045 4.7499 18.2322 4.74991H7.76793C6.9551 4.7499 6.29947 4.7499 5.76856 4.79327C5.22193 4.83793 4.74179 4.93229 4.29757 5.15863C3.59196 5.51815 3.01828 6.09181 2.65876 6.79741C2.43242 7.24161 2.33806 7.72175 2.2934 8.26837C2.25429 8.74704 2.25044 9.32708 2.25007 10.0323L2.25003 9.82751C2.24959 8.54452 2.24929 7.69389 2.53916 6.94867C2.79449 6.29229 3.20893 5.70964 3.74524 5.25313C4.35413 4.73483 5.15779 4.45605 6.36993 4.03559L15.5686 0.841202C16.1671 0.633352 16.6638 0.460851 17.0726 0.358914Z" fill="#000"/>
<path d="M18.0001 13.25C18.0001 12.6977 18.4478 12.25 19.0001 12.25C19.5524 12.25 20.0002 12.6977 20.0002 13.25C20.0002 13.8023 19.5525 14.25 19.0002 14.25C18.4479 14.25 18.0001 13.8023 18.0001 13.25Z" fill="#000"/>
<path fill-rule="evenodd" clip-rule="evenodd" d="M6 12.25C2.82436 12.25 0.25 14.8244 0.25 18C0.25 21.1756 2.82436 23.75 6 23.75C9.17564 23.75 11.75 21.1756 11.75 18C11.75 14.8244 9.17564 12.25 6 12.25ZM5.37501 18.9912V15.5C5.37501 15.1548 5.65483 14.875 6.00001 14.875C6.34519 14.875 6.62501 15.1548 6.62501 15.5V18.9911L7.55807 18.0581C7.80215 17.814 8.19788 17.814 8.44195 18.0581C8.68603 18.3021 8.68603 18.6979 8.44195 18.9419L6.44193 20.942C6.19785 21.186 5.80213 21.186 5.55805 20.942L3.55806 18.942C3.31398 18.6979 3.31398 18.3022 3.55806 18.0581C3.80214 17.814 4.19786 17.814 4.44194 18.0581L5.37501 18.9912Z" fill="#000"/>
</svg>
