<svg width="24" height="24" viewBox="0 0 24 24" fill="none" xmlns="http://www.w3.org/2000/svg">
<path opacity="0.4" d="M11.0737 1.3628C11.6815 1.20784 12.3186 1.20784 12.9264 1.3628C13.6171 1.53888 14.2313 1.98155 15.1216 2.62318L20.5289 6.51647C21.177 6.98274 21.6252 7.30524 21.9562 7.72931C22.2483 8.1036 22.4667 8.52997 22.5998 8.98575C22.7505 9.50214 22.7504 10.0543 22.7501 10.8527L22.75 19.6289C22.7501 20.0242 22.7501 20.3653 22.7271 20.6462C22.7029 20.9427 22.6494 21.2376 22.5048 21.5214C22.2891 21.9448 21.9449 22.289 21.5215 22.5047C21.2377 22.6493 20.9428 22.7028 20.6463 22.727C20.3654 22.75 20.0244 22.75 19.6291 22.7499C19.5088 22.7499 19.4486 22.7499 19.4014 22.7297C19.3425 22.7044 19.2956 22.6575 19.2703 22.5986C19.25 22.5513 19.25 22.4912 19.25 22.3709V12.5C19.25 11.5335 18.4665 10.75 17.5 10.75H6.5C5.5335 10.75 4.75 11.5335 4.75 12.5V22.3711C4.75 22.4912 4.75 22.5513 4.72979 22.5984C4.7045 22.6574 4.65748 22.7044 4.59848 22.7297C4.55131 22.7499 4.49125 22.7499 4.37112 22.7499C3.97581 22.75 3.63468 22.75 3.35378 22.727C3.05727 22.7028 2.76235 22.6493 2.47857 22.5047C2.0552 22.289 1.711 21.9448 1.49528 21.5214C1.35069 21.2376 1.2972 20.9427 1.27298 20.6462C1.25002 20.3653 1.25003 20.0242 1.25005 19.6289L1.25002 10.8527C1.24974 10.0543 1.24955 9.50214 1.4003 8.98575C1.53335 8.52997 1.75175 8.1036 2.04389 7.72931C2.37487 7.30524 2.82311 6.98275 3.47118 6.51648L8.87847 2.62319C9.76876 1.98155 10.383 1.53889 11.0737 1.3628Z" fill="#000"/>
<path d="M13 7.75C13.4142 7.75 13.75 7.41421 13.75 7C13.75 6.58579 13.4142 6.25 13 6.25H11C10.5858 6.25 10.25 6.58579 10.25 7C10.25 7.41421 10.5858 7.75 11 7.75H13Z" fill="#000"/>
<path d="M17.75 22.7499H6.25V20.25H17.75V22.7499Z" fill="#000"/>
<path d="M6.5 12.25C6.36193 12.25 6.25 12.3619 6.25 12.5V14.75H17.75V12.5C17.75 12.3619 17.6381 12.25 17.5 12.25H6.5Z" fill="#000"/>
<path d="M17.75 16.25H6.25V18.75H17.75V16.25Z" fill="#000"/>
</svg>
