<svg width="24" height="24" viewBox="0 0 24 24" fill="none" xmlns="http://www.w3.org/2000/svg">
<g clip-path="url(#clip0_9002_8096)">
<g opacity="0.4">
<path d="M12 5C10.8334 5 9.70185 5.12835 8.62026 5.37397C8.08169 5.49628 7.54594 5.15883 7.42364 4.62026C7.30133 4.08169 7.63878 3.54594 8.17735 3.42363C9.40625 3.14456 10.6864 3 12 3C16.5686 3 20.7246 4.74923 23.7142 7.8001C24.1008 8.19456 24.0944 8.8277 23.6999 9.21424C23.3054 9.60078 22.6723 9.59436 22.2858 9.1999C19.6851 6.54595 16.0496 5 12 5Z" fill="#000"/>
<path d="M6.31756 4.99208C6.54741 5.49426 6.32666 6.0877 5.82448 6.31755C4.28225 7.02347 2.89287 7.99713 1.71424 9.1999C1.3277 9.59436 0.694565 9.60078 0.3001 9.21424C-0.094364 8.8277 -0.100785 8.19456 0.285759 7.8001C1.63749 6.42067 3.22945 5.30581 4.99208 4.49901C5.49426 4.26915 6.0877 4.48991 6.31756 4.99208Z" fill="#000"/>
<path d="M11.9999 15C10.7763 15 9.75602 15.4598 8.93348 16.23C8.53033 16.6074 7.89751 16.5866 7.52003 16.1835C7.14256 15.7803 7.16337 15.1475 7.56652 14.77C8.72547 13.6849 10.2237 13 11.9999 13C13.2106 13 14.3015 13.3188 15.2462 13.8767C15.7218 14.1575 15.8797 14.7706 15.5988 15.2462C15.318 15.7218 14.7049 15.8797 14.2293 15.5988C13.5872 15.2197 12.8467 15 11.9999 15Z" fill="#000"/>
</g>
<path d="M1.70711 0.292893C1.31658 -0.0976311 0.683417 -0.0976311 0.292893 0.292893C-0.0976311 0.683417 -0.0976311 1.31658 0.292893 1.70711L7.47926 8.89347C6.11289 9.45746 4.87295 10.2689 3.81284 11.2716C3.4116 11.6511 3.39399 12.284 3.7735 12.6853C4.15301 13.0865 4.78593 13.1041 5.18717 12.7246C6.2763 11.6944 7.58821 10.9098 9.03878 10.453L22.2929 23.7071C22.6834 24.0976 23.3166 24.0976 23.7071 23.7071C24.0976 23.3166 24.0976 22.6834 23.7071 22.2929L10.0522 8.63796C10.0434 8.62886 10.0345 8.61994 10.0254 8.61119L1.70711 0.292893Z" fill="#000"/>
<path d="M12.055 8.95445C12.108 8.40471 12.5966 8.002 13.1463 8.05497C15.8589 8.31635 18.3064 9.49365 20.1873 11.2736C20.5885 11.6532 20.6059 12.2862 20.2263 12.6873C19.8467 13.0884 19.2138 13.1059 18.8127 12.7263C17.2408 11.2389 15.2047 10.2626 12.9545 10.0458C12.4047 9.99278 12.002 9.50419 12.055 8.95445Z" fill="#000"/>
<path d="M10.75 19C10.75 18.3096 11.3096 17.75 12 17.75C12.6904 17.75 13.2501 18.3096 13.2501 19C13.2501 19.6904 12.6905 20.25 12.0001 20.25C11.3097 20.25 10.75 19.6904 10.75 19Z" fill="#000"/>
</g>
<defs>
<clipPath id="clip0_9002_8096">
<rect width="24" height="24" fill="white"/>
</clipPath>
</defs>
</svg>
