<svg width="24" height="24" viewBox="0 0 24 24" fill="none" xmlns="http://www.w3.org/2000/svg">
<path opacity="0.4" d="M18.1318 2.25H5.86821C5.12513 2.24999 4.52197 2.24999 4.03273 2.28996C3.52778 2.33121 3.07851 2.41876 2.66103 2.63148C2.00247 2.96703 1.46703 3.50247 1.13148 4.16103C0.918761 4.57851 0.831214 5.02778 0.789958 5.53273C0.749986 6.02197 0.749992 6.62512 0.75 7.3682V16.6318C0.749992 17.3749 0.749986 17.978 0.789958 18.4673C0.831214 18.9722 0.918761 19.4215 1.13148 19.839C1.46703 20.4975 2.00247 21.033 2.66103 21.3685C3.07851 21.5812 3.52778 21.6688 4.03273 21.71C4.52195 21.75 5.12507 21.75 5.86811 21.75H18.1318C18.8748 21.75 19.4781 21.75 19.9673 21.71C20.4722 21.6688 20.9215 21.5812 21.339 21.3685C21.9975 21.033 22.533 20.4975 22.8685 19.839C23.0812 19.4215 23.1688 18.9722 23.21 18.4673C23.25 17.9781 23.25 17.3749 23.25 16.6319V7.36819C23.25 6.62515 23.25 6.02195 23.21 5.53273C23.1688 5.02778 23.0812 4.57851 22.8685 4.16103C22.533 3.50247 21.9975 2.96703 21.339 2.63148C20.9215 2.41876 20.4722 2.33121 19.9673 2.28996C19.478 2.24999 18.8749 2.24999 18.1318 2.25Z" fill="#000"/>
<path d="M4.125 6.5C4.125 6.01675 4.51675 5.625 5 5.625C5.48325 5.625 5.8751 6.01675 5.8751 6.5C5.8751 6.98325 5.48335 7.375 5.0001 7.375C4.51685 7.375 4.125 6.98325 4.125 6.5Z" fill="#000"/>
<path d="M7.125 6.5C7.125 6.01675 7.51675 5.625 8 5.625C8.48325 5.625 8.8751 6.01675 8.8751 6.5C8.8751 6.98325 8.48335 7.375 8.0001 7.375C7.51685 7.375 7.125 6.98325 7.125 6.5Z" fill="#000"/>
<path d="M11 5.625C10.5168 5.625 10.125 6.01675 10.125 6.5C10.125 6.98325 10.5168 7.375 11 7.375C11.4832 7.375 11.8751 6.98325 11.8751 6.5C11.8751 6.01675 11.4832 5.625 11 5.625Z" fill="#000"/>
</svg>
